<?xml version="1.0" encoding="UTF-8"?>
<!DOCTYPE svg PUBLIC "-//W3C//DTD SVG 1.1//EN" "http://www.w3.org/Graphics/SVG/1.1/DTD/svg11.dtd">
<!-- Creator: CorelDRAW -->
<svg xmlns="http://www.w3.org/2000/svg" xml:space="preserve" width="6.82666in" height="6.82666in" style="shape-rendering:geometricPrecision; text-rendering:geometricPrecision; image-rendering:optimizeQuality; fill-rule:evenodd; clip-rule:evenodd"
viewBox="0 0 6.82666 6.82666"
 xmlns:xlink="http://www.w3.org/1999/xlink">
 <defs>
  <style type="text/css">
   <![CDATA[
    .fil2 {fill:none}
    .fil1 {fill:#949494}
    .fil0 {fill:#333333;fill-rule:nonzero}
   ]]>
  </style>
 </defs>
 <g id="Layer_x0020_1">
  <metadata id="CorelCorpID_0Corel-Layer"/>
  <g id="_443092776">
   <path id="_443093184" class="fil0" d="M3.41333 4.66955c0.330559,0 0.629846,0.134 0.84648,0.350638 0.216642,0.216638 0.350638,0.515917 0.350638,0.846476 0,0.0589094 -0.0477598,0.106669 -0.106669,0.106669l-2.18089 0c-0.0589094,0 -0.106669,-0.0477598 -0.106669,-0.106669 0,-0.330559 0.133996,-0.629839 0.350638,-0.846476 0.216634,-0.216638 0.515917,-0.350638 0.846476,-0.350638zm0.695646 0.501472c-0.178016,-0.17802 -0.423972,-0.288134 -0.695646,-0.288134 -0.271673,0 -0.517626,0.110114 -0.695642,0.288134 -0.154402,0.154398 -0.257705,0.359906 -0.282402,0.588972l1.95609 0c-0.0246969,-0.229067 -0.128,-0.434575 -0.282402,-0.588972z"/>
   <path id="_443092992" class="fil0" d="M2.75361 4.94774c0.0112756,0.0577559 0.0672441,0.0954409 0.125,0.0841654 0.0577559,-0.0112756 0.0954409,-0.0672441 0.0841654,-0.125 -0.000185039,-0.000956693 -0.0672756,-0.330228 0.134799,-0.365067l0.315752 0 0.315756 0c0.202075,0.0348386 0.134984,0.36411 0.134799,0.365067 -0.0112756,0.0577559 0.0264094,0.113724 0.0841654,0.125 0.0577559,0.0112756 0.113724,-0.0264094 0.125,-0.0841654 0.000311024,-0.00159055 0.112941,-0.550654 -0.313264,-0.616177 -0.00815354,-0.00199606 -0.0166732,-0.00306299 -0.0254449,-0.00306299l-0.321012 0 -0.320067 0c-0.00481102,-3.54331e-005 -0.00968504,0.000244094 -0.0145906,0.000877953l5.51181e-005 0.000413386c-0.440236,0.0570276 -0.325429,0.616343 -0.325114,0.617949z"/>
   <path id="_443092944" class="fil0" d="M3.23073 4.3285l0.365193 0 0 -0.382106 -0.365193 0 0 0.382106zm0.471862 0.213339l-0.578531 0c-0.0589094,0 -0.106669,-0.0477598 -0.106669,-0.106669l0 -0.595445c0,-0.0589094 0.0477598,-0.106669 0.106669,-0.106669l0.578531 0c0.0589094,0 0.106669,0.0477598 0.106669,0.106669l0 0.595445c0,0.0589094 -0.0477598,0.106669 -0.106669,0.106669z"/>
   <path id="_443093064" class="fil0" d="M3.30666 3.83973c0,0.0589094 0.0477598,0.106669 0.106669,0.106669 0.0589094,0 0.106669,-0.0477598 0.106669,-0.106669l0 -2.87973c0,-0.0589094 -0.0477598,-0.106669 -0.106669,-0.106669 -0.0589094,0 -0.106669,0.0477598 -0.106669,0.106669l0 2.87973z"/>
  </g>
  <path class="fil1" d="M3.41333 4.88289c-0.271673,0 -0.517626,0.110114 -0.695642,0.288134 -0.154402,0.154398 -0.257705,0.359906 -0.282402,0.588972l1.95609 0c-0.0246969,-0.229067 -0.128,-0.434575 -0.282402,-0.588972 -0.178016,-0.17802 -0.423972,-0.288134 -0.695646,-0.288134z"/>
  <path class="fil1" d="M3.41333 4.66955c0.16328,0 0.318929,0.0326929 0.460756,0.0918937 -0.00445276,-0.0933425 -0.0344409,-0.200539 -0.145,-0.219598l-0.0264882 0 -0.289268 0 -0.289264 0 -0.0264882 0c-0.110559,0.0190591 -0.140547,0.126256 -0.145,0.219594 0.141827,-0.0591969 0.297472,-0.0918898 0.460752,-0.0918898z"/>
  <polygon class="fil1" points="3.41333,4.3285 3.59593,4.3285 3.59593,3.9464 3.41333,3.9464 3.23073,3.9464 3.23073,4.3285 "/>
 </g>
 <rect class="fil2" width="6.82666" height="6.82666"/>
</svg>
