<?xml version="1.0" encoding="UTF-8"?>
<!DOCTYPE svg PUBLIC "-//W3C//DTD SVG 1.1//EN" "http://www.w3.org/Graphics/SVG/1.1/DTD/svg11.dtd">
<!-- Creator: CorelDRAW -->
<svg xmlns="http://www.w3.org/2000/svg" xml:space="preserve" width="6.82666in" height="6.82666in" style="shape-rendering:geometricPrecision; text-rendering:geometricPrecision; image-rendering:optimizeQuality; fill-rule:evenodd; clip-rule:evenodd"
viewBox="0 0 6.82666 6.82666"
 xmlns:xlink="http://www.w3.org/1999/xlink">
 <defs>
  <style type="text/css">
   <![CDATA[
    .fil3 {fill:none}
    .fil2 {fill:#AED581}
    .fil1 {fill:#EBE5DF}
    .fil0 {fill:#333333;fill-rule:nonzero}
   ]]>
  </style>
 </defs>
 <g id="Layer_x0020_1">
  <metadata id="CorelCorpID_0Corel-Layer"/>
  <g id="_443093808">
   <path id="_443094528" class="fil0" d="M4.69123 5.59953c-0.476886,0.249181 -0.875992,0.373799 -1.2791,0.373799 -0.405602,0 -0.809307,-0.125941 -1.29442,-0.377823l0.0469724 -0.0911299 -0.0473622 0.0912087c-0.0356772,-0.0185276 -0.0559252,-0.0550591 -0.0554134,-0.0926969 3.93701e-006,-0.0819488 0.000464567,-0.16835 0.000913386,-0.412882 0.00127165,-0.683563 0.0025315,-1.36054 -0.0279213,-2.04879 -0.00718898,-0.1625 0.065685,-0.218102 0.163579,-0.292776 0.0945787,-0.0721496 0.224878,-0.171547 0.278114,-0.538169l0.101567 0.0144528 -0.101705 -0.0147677c0.00745276,-0.0513425 0.0516693,-0.0882717 0.10211,-0.0880079l1.6603 0c0.0536732,0 0.0977323,0.0411457 0.102366,0.0936142 0.0537205,0.362256 0.183197,0.461083 0.277315,0.532878 0.0978937,0.0746732 0.170772,0.130276 0.163583,0.292776 -0.0304528,0.688256 -0.0291929,1.36523 -0.0279213,2.04879 0.000452756,0.246012 0.000913386,0.331969 0.000913386,0.41437 0,0.0429961 -0.0264094,0.079815 -0.0638858,0.0951535zm-1.2791 0.168252c0.355252,0 0.712047,-0.108508 1.13743,-0.32548 -7.87402e-006,-0.300378 -5.90551e-005,-0.324504 -0.000110236,-0.352295 -0.00127953,-0.687819 -0.00254724,-1.36901 0.0279252,-2.05762 0.00245669,-0.0555394 -0.0341339,-0.0834646 -0.0832874,-0.120957 -0.114154,-0.0870787 -0.268445,-0.204846 -0.341886,-0.583929l-1.48739 0c-0.0734449,0.379087 -0.227732,0.496846 -0.341886,0.583929 -0.0491535,0.0374921 -0.0857441,0.0654173 -0.0832874,0.120957 0.0304724,0.68861 0.0292047,1.3698 0.0279213,2.05762 -4.72441e-005,0.0277756 -0.000102362,0.0518858 -0.000106299,0.351811 0.430248,0.217295 0.789453,0.325965 1.14467,0.325965z"/>
   <path id="_443094240" class="fil0" d="M2.75132 2.20094c0.0169606,0.0389094 0.0622559,0.0567047 0.101165,0.0397441 0.0389134,-0.0169606 0.0567087,-0.0622559 0.039748,-0.101165 -0.000527559,-0.00120866 -0.184965,-0.417665 -0.172228,-0.755791 0.00561417,-0.149154 0.118472,-0.254118 0.27461,-0.314488 0.0974173,-0.0376732 0.210949,-0.058185 0.327256,-0.0617244 0.117102,-0.00356299 0.236571,0.0101378 0.344992,0.0409055 0.2005,0.0568898 0.360114,0.171736 0.382043,0.341543 0.0411339,0.318555 -0.102831,0.717181 -0.115346,0.751846 -0.00711417,0.0197126 -0.00998819,0.0320354 3.93701e-006,0.0570236 0.0157953,0.0394094 0.0605591,0.0585472 0.0999646,0.042752 0.0227047,-0.00909843 0.0386772,-0.027811 0.045122,-0.0495748l-0.000566929 0.00158268 -0.00332283 -0.00118898c-0.00277953,-0.00922047 -0.00470079,-0.0363898 -0.00349606,-0.0487717l0.00501969 -0.00201181c0.00669685,0.0167087 0.00711024,0.034378 0.00236614,0.0503898 0.0167008,-0.0463189 0.167882,-0.470689 0.12261,-0.821315 -0.0310906,-0.240768 -0.236484,-0.397665 -0.492846,-0.470409 -0.122799,-0.0348504 -0.258118,-0.0503701 -0.39076,-0.0463346 -0.133445,0.00405906 -0.264681,0.0279764 -0.378445,0.0719685 -0.211374,0.0817283 -0.364453,0.231669 -0.372764,0.45239 -0.0140669,0.373528 0.184303,0.821331 0.184874,0.82263zm1.32676 -0.00734646c-0.00114961,0.00318898 -0.00229134,0.00222835 -0.00332283,-0.00118898l0.00332283 0.00118898z"/>
   <path id="_443094048" class="fil0" d="M2.113 4.00033c0.0360827,0.0224488 0.0835354,0.0113937 0.105984,-0.024685 0.0224488,-0.0360827 0.0113937,-0.0835394 -0.024685,-0.105988 -0.115752,-0.0722559 -0.265531,-0.121362 -0.413409,-0.169835 -0.145205,-0.0476024 -0.288469,-0.0945709 -0.380764,-0.158768 -0.105417,-0.0733268 -0.138055,-0.183154 0.000338583,-0.382118 0.0242795,-0.0349213 0.0156535,-0.0829134 -0.0192677,-0.107189 -0.0349213,-0.0242795 -0.0829134,-0.0156535 -0.107193,0.0192677 -0.206291,0.296579 -0.14174,0.471335 0.0382047,0.5965 0.110358,0.0767598 0.264689,0.127358 0.421106,0.178638 0.138839,0.0455118 0.279461,0.0916142 0.379685,0.154177z"/>
   <path id="_443094456" class="fil0" d="M4.63236 3.86966c-0.0360787,0.0224488 -0.0471339,0.0699055 -0.024685,0.105988 0.0224488,0.0360787 0.0699016,0.0471339 0.105984,0.024685 0.100224,-0.062563 0.240846,-0.108665 0.379685,-0.154177 0.156417,-0.0512795 0.310748,-0.101878 0.421106,-0.178638 0.179945,-0.125165 0.244496,-0.299921 0.0382047,-0.5965 -0.0242795,-0.0349213 -0.0722717,-0.0435472 -0.107193,-0.0192677 -0.0349213,0.0242756 -0.0435472,0.0722677 -0.0192677,0.107189 0.138394,0.198965 0.105756,0.308791 0.000338583,0.382118 -0.0922953,0.0641969 -0.235559,0.111165 -0.380764,0.158768 -0.147878,0.0484724 -0.297657,0.0975787 -0.413409,0.169835z"/>
   <path id="_443094288" class="fil0" d="M3.37305 4.08484c-0.0515591,-0.043937 -0.0935433,-0.098622 -0.122406,-0.160528 -0.0282913,-0.0606811 -0.0440984,-0.128319 -0.0440984,-0.199598 0,-0.0712795 0.0158071,-0.138917 0.0441024,-0.199598 0.029315,-0.0628858 0.072185,-0.118327 0.124862,-0.162606l-5.51181e-005 -6.69291e-005c0.0202441,-0.0170118 0.0497717,-0.0157165 0.0684724,0.00211024 0.0515748,0.0439409 0.0935709,0.0986457 0.122445,0.160559 0.0282953,0.060685 0.0441024,0.128327 0.0441024,0.199602 0,0.0712795 -0.0158071,0.138917 -0.0441024,0.199598 -0.0293189,0.0628858 -0.0721811,0.118323 -0.124866,0.16261l5.51181e-005 6.69291e-005c-0.0202598,0.0170197 -0.049811,0.0157205 -0.0685118,-0.00214961zm-0.0292677 -0.203882c0.0165354,0.0354567 0.0384685,0.0678386 0.0647244,0.0960512 0.0262598,-0.0282126 0.0481969,-0.0605945 0.0647283,-0.0960512 0.0221102,-0.0474213 0.0344646,-0.100366 0.0344646,-0.156244 0,-0.055874 -0.0123504,-0.108815 -0.0344646,-0.156244 -0.0165354,-0.0354567 -0.0384685,-0.0678307 -0.0647283,-0.0960472 -0.0262559,0.0282165 -0.048189,0.0605906 -0.0647205,0.0960512 -0.0221102,0.0474213 -0.0344646,0.100362 -0.0344646,0.15624 0,0.055878 0.0123543,0.108823 0.0344606,0.156244z"/>
   <path id="_443094264" class="fil0" d="M3.44574 4.08306c-0.043937,0.0515748 -0.0986457,0.0935709 -0.160559,0.122445 -0.0606811,0.0282913 -0.128319,0.0440984 -0.199598,0.0440984 -0.0712795,0 -0.138917,-0.0158071 -0.199598,-0.0441024 -0.0628858,-0.029315 -0.118327,-0.072185 -0.162606,-0.124862l-6.69291e-005 5.51181e-005c-0.0170118,-0.0202441 -0.0157165,-0.0497717 0.00211024,-0.0684724 0.043937,-0.0515748 0.0986457,-0.0935709 0.160559,-0.122445 0.060685,-0.0282953 0.128323,-0.0441024 0.199602,-0.0441024 0.0712795,0 0.138917,0.0158071 0.199598,0.0441024 0.0628858,0.0293189 0.118327,0.072185 0.162602,0.124866l7.08661e-005 -5.51181e-005c0.0170079,0.0202441 0.0157165,0.0497717 -0.00211417,0.0684724zm-0.203913 0.0293071c0.0354528,-0.0165354 0.0678346,-0.0384685 0.0960472,-0.0647244 -0.0282126,-0.0262598 -0.0605906,-0.0481969 -0.0960472,-0.0647283 -0.0474213,-0.0221102 -0.100366,-0.0344646 -0.156244,-0.0344646 -0.055874,0 -0.108819,0.0123504 -0.156244,0.0344646 -0.0354528,0.0165315 -0.0678307,0.0384646 -0.0960472,0.0647283 0.0282165,0.0262559 0.0605945,0.048189 0.0960512,0.0647205 0.0474173,0.0221102 0.100366,0.0344646 0.15624,0.0344646 0.055874,0 0.108823,-0.0123543 0.156244,-0.0344606z"/>
   <path id="_443093616" class="fil0" d="M3.4085 4.11828c-0.0262559,0.0282126 -0.048189,0.0605945 -0.0647244,0.0960472 -0.0221063,0.0474213 -0.0344606,0.10037 -0.0344606,0.156244 0,0.055874 0.0123543,0.108823 0.0344646,0.15624 0.0165315,0.0354567 0.0384646,0.0678346 0.0647205,0.0960512 0.0262638,-0.0282165 0.0481969,-0.0605945 0.0647283,-0.0960472 0.0221142,-0.0474252 0.0344646,-0.10037 0.0344646,-0.156244 0,-0.055878 -0.0123543,-0.108823 -0.0344646,-0.156244 -0.0165315,-0.0354567 -0.0384685,-0.0678346 -0.0647283,-0.0960472zm-0.157862 0.0526929c0.028874,-0.0619134 0.0708701,-0.116622 0.122445,-0.160559 0.0187008,-0.0178307 0.0482283,-0.019122 0.0684724,-0.00211417l-5.51181e-005 7.08661e-005c0.0526811,0.0442756 0.0955472,0.0997165 0.124866,0.162602 0.0282953,0.0606811 0.0441024,0.128319 0.0441024,0.199598 0,0.0712795 -0.0158071,0.138917 -0.0441024,0.199602 -0.028874,0.0619134 -0.0708701,0.116622 -0.122445,0.160559 -0.0187008,0.0178268 -0.0482283,0.019122 -0.0684724,0.00211024l5.51181e-005 -6.69291e-005c-0.0526772,-0.0442795 -0.0955472,-0.0997205 -0.124862,-0.162606 -0.0282953,-0.0606811 -0.0441024,-0.128319 -0.0441024,-0.199598 0,-0.0712795 0.0158071,-0.138917 0.0440984,-0.199598z"/>
   <path id="_443093544" class="fil0" d="M3.47914 4.04765c0.0282126,0.0262559 0.0605945,0.048189 0.0960512,0.0647244 0.0474213,0.0221063 0.100366,0.0344606 0.156244,0.0344606 0.055874,0 0.108819,-0.0123543 0.15624,-0.0344646 0.0354567,-0.0165315 0.0678346,-0.0384646 0.0960512,-0.0647205 -0.0282165,-0.0262638 -0.0605945,-0.0481969 -0.0960472,-0.0647283 -0.0474291,-0.0221142 -0.10037,-0.0344646 -0.156244,-0.0344646 -0.0558819,0 -0.108823,0.0123543 -0.156244,0.0344646 -0.0354567,0.0165315 -0.0678386,0.0384685 -0.0960512,0.0647283zm0.0526969 0.157862c-0.0619055,-0.0288622 -0.116591,-0.0708465 -0.160528,-0.122406 -0.0178701,-0.0187008 -0.0191693,-0.048252 -0.00214961,-0.0685118l6.69291e-005 5.51181e-005c0.0442874,-0.052685 0.0997244,-0.0955472 0.16261,-0.124866 0.0606811,-0.0282953 0.128319,-0.0441024 0.199598,-0.0441024 0.0712795,0 0.138917,0.0158071 0.199602,0.0441024 0.0619134,0.028874 0.116618,0.0708701 0.160559,0.122445 0.0178268,0.0187008 0.019122,0.0482283 0.00211024,0.0684724l-6.69291e-005 -5.51181e-005c-0.0442795,0.0526772 -0.0997205,0.0955472 -0.162606,0.124862 -0.0606811,0.0282953 -0.128319,0.0441024 -0.199598,0.0441024 -0.0712795,0 -0.138917,-0.0158071 -0.199598,-0.0440984z"/>
  </g>
  <path class="fil1" d="M3.44393 3.36455c0.0515748,0.0439409 0.0935709,0.0986457 0.122445,0.160559 0.0282953,0.060685 0.0441024,0.128327 0.0441024,0.199602 0,0.0498228 -0.00772441,0.0978661 -0.0220354,0.143 0.0451339,-0.014311 0.0931772,-0.0220354 0.143,-0.0220354 0.0712795,0 0.138917,0.0158071 0.199602,0.0441024 0.0619134,0.028874 0.116618,0.0708701 0.160559,0.122445 0.0178268,0.0187008 0.019122,0.0482283 0.00211024,0.0684724l-6.69291e-005 -5.51181e-005c-0.0442795,0.0526772 -0.0997205,0.0955472 -0.162606,0.124862 -0.0606811,0.0282953 -0.128319,0.0441024 -0.199598,0.0441024 -0.0498228,0 -0.0978661,-0.00772441 -0.143,-0.0220354 0.014311,0.0451339 0.0220354,0.0931772 0.0220354,0.143 0,0.0712795 -0.0158071,0.138917 -0.0441024,0.199602 -0.028874,0.0619134 -0.0708701,0.116622 -0.122445,0.160559 -0.0187008,0.0178268 -0.0482283,0.019122 -0.0684724,0.00211024l5.51181e-005 -6.69291e-005c-0.0526772,-0.0442795 -0.0955472,-0.0997205 -0.124862,-0.162606 -0.0282953,-0.0606811 -0.0441024,-0.128319 -0.0441024,-0.199598 0,-0.0498228 0.00772441,-0.0978661 0.0220354,-0.143 -0.0451339,0.014311 -0.0931772,0.0220354 -0.143,0.0220354 -0.0712795,0 -0.138917,-0.0158071 -0.199598,-0.0441024 -0.0628858,-0.029315 -0.118327,-0.072185 -0.162606,-0.124862l-6.69291e-005 5.51181e-005c-0.0170118,-0.0202441 -0.0157165,-0.0497717 0.00211024,-0.0684724 0.043937,-0.0515748 0.0986457,-0.0935709 0.160559,-0.122445 0.060685,-0.0282953 0.128323,-0.0441024 0.199602,-0.0441024 0.0498228,0 0.0978661,0.00772441 0.143,0.0220354 -0.014311,-0.0451339 -0.0220354,-0.0931772 -0.0220354,-0.143 0,-0.0712795 0.0158071,-0.138917 0.0441024,-0.199598 0.029315,-0.0628858 0.072185,-0.118327 0.124862,-0.162606l-5.51181e-005 -6.69291e-005c0.0202441,-0.0170118 0.0497717,-0.0157165 0.0684724,0.00211024zm-0.0317953 2.40323c0.355252,0 0.712047,-0.108508 1.13743,-0.32548 -7.87402e-006,-0.300378 -5.90551e-005,-0.324504 -0.000110236,-0.352295 -0.00127953,-0.687819 -0.00254724,-1.36901 0.0279252,-2.05762 0.00245669,-0.0555394 -0.0341339,-0.0834646 -0.0832874,-0.120957 -0.114154,-0.0870787 -0.268445,-0.204846 -0.341886,-0.583929l-1.48739 0c-0.0734449,0.379087 -0.227732,0.496846 -0.341886,0.583929 -0.0491535,0.0374921 -0.0857441,0.0654173 -0.0832874,0.120957 0.0304724,0.68861 0.0292047,1.3698 0.0279213,2.05762 -4.72441e-005,0.0277756 -0.000102362,0.0518858 -0.000106299,0.351811 0.430248,0.217295 0.789453,0.325965 1.14467,0.325965z"/>
  <path class="fil2" d="M3.5077 3.72471c0,-0.055874 -0.0123504,-0.108815 -0.0344646,-0.156244 -0.0165354,-0.0354567 -0.0384685,-0.0678307 -0.0647283,-0.0960472 -0.0262559,0.0282165 -0.048189,0.0605906 -0.0647205,0.0960512 -0.0221102,0.0474213 -0.0344646,0.100362 -0.0344646,0.15624 0,0.055878 0.0123543,0.108823 0.0344606,0.156244 0.0132126,0.0283346 0.029874,0.0547008 0.0494291,0.0785512 0.00519685,0.00445669 0.0102992,0.0090315 0.0152992,0.0137087 0.00499606,-0.00467717 0.0100906,-0.00924409 0.0152835,-0.0137008 0.019563,-0.0238504 0.0362283,-0.0502205 0.0494409,-0.0785591 0.0221102,-0.0474213 0.0344646,-0.100366 0.0344646,-0.156244z"/>
  <path class="fil2" d="M3.73144 3.94845c-0.0558819,0 -0.108823,0.0123543 -0.156244,0.0344646 -0.0283386,0.0132126 -0.0547087,0.029878 -0.0785591,0.0494409 -0.00445669,0.00519291 -0.00902362,0.0102874 -0.0137008,0.0152835 0.00467717,0.005 0.00924803,0.0101024 0.0137087,0.0152992 0.0238504,0.0195551 0.0502165,0.0362165 0.0785512,0.0494291 0.0474213,0.0221063 0.100366,0.0344606 0.156244,0.0344606 0.055874,0 0.108819,-0.0123543 0.15624,-0.0344646 0.0354567,-0.0165315 0.0678346,-0.0384646 0.0960512,-0.0647205 -0.0282165,-0.0262638 -0.0605945,-0.0481969 -0.0960472,-0.0647283 -0.0474291,-0.0221142 -0.10037,-0.0344646 -0.156244,-0.0344646z"/>
  <path class="fil2" d="M3.5077 4.37057c0,-0.055878 -0.0123543,-0.108823 -0.0344646,-0.156244 -0.0132126,-0.0283346 -0.029874,-0.0547047 -0.0494409,-0.0785551 -0.00519291,-0.00445669 -0.0102874,-0.00902362 -0.0152835,-0.0137008 -0.005,0.00467717 -0.0100984,0.00924803 -0.0152953,0.0137087 -0.0195591,0.0238465 -0.0362205,0.0502165 -0.0494331,0.0785472 -0.0221063,0.0474213 -0.0344606,0.10037 -0.0344606,0.156244 0,0.055874 0.0123543,0.108823 0.0344646,0.15624 0.0165315,0.0354567 0.0384646,0.0678346 0.0647205,0.0960512 0.0262638,-0.0282165 0.0481969,-0.0605945 0.0647283,-0.0960472 0.0221142,-0.0474252 0.0344646,-0.10037 0.0344646,-0.156244z"/>
  <path class="fil2" d="M3.08558 4.14683c0.055874,0 0.108823,-0.0123543 0.156244,-0.0344606 0.0283307,-0.0132126 0.0547008,-0.029874 0.0785472,-0.0494331 0.00446063,-0.00519685 0.0090315,-0.0102953 0.0137087,-0.0152953 -0.00467717,-0.00499606 -0.00924409,-0.0100906 -0.0137008,-0.0152835 -0.0238504,-0.019563 -0.0502205,-0.0362283 -0.0785551,-0.0494409 -0.0474213,-0.0221102 -0.100366,-0.0344646 -0.156244,-0.0344646 -0.055874,0 -0.108819,0.0123504 -0.156244,0.0344646 -0.0354528,0.0165315 -0.0678307,0.0384646 -0.0960472,0.0647283 0.0282165,0.0262559 0.0605945,0.048189 0.0960512,0.0647205 0.0474173,0.0221102 0.100366,0.0344646 0.15624,0.0344646z"/>
 </g>
 <rect class="fil3" width="6.82666" height="6.82666"/>
</svg>
