<?xml version="1.0" encoding="UTF-8"?>
<!DOCTYPE svg PUBLIC "-//W3C//DTD SVG 1.1//EN" "http://www.w3.org/Graphics/SVG/1.1/DTD/svg11.dtd">
<!-- Creator: CorelDRAW -->
<svg xmlns="http://www.w3.org/2000/svg" xml:space="preserve" width="6.82666in" height="6.82666in" style="shape-rendering:geometricPrecision; text-rendering:geometricPrecision; image-rendering:optimizeQuality; fill-rule:evenodd; clip-rule:evenodd"
viewBox="0 0 6.82666 6.82666"
 xmlns:xlink="http://www.w3.org/1999/xlink">
 <defs>
  <style type="text/css">
   <![CDATA[
    .fil2 {fill:none}
    .fil1 {fill:#949494}
    .fil0 {fill:#333333;fill-rule:nonzero}
   ]]>
  </style>
 </defs>
 <g id="Layer_x0020_1">
  <metadata id="CorelCorpID_0Corel-Layer"/>
  <g id="_443095344">
   <path id="_443095128" class="fil0" d="M4.44088 5.75999l0.655992 -4.28493 -3.36708 0 0.655984 4.28493 2.05511 0zm0.885535 -4.37547l-0.688067 4.49444c-0.00610236,0.0531142 -0.0512087,0.0943661 -0.105957,0.0943661l-2.23734 0c-0.0521614,0.000448819 -0.0981024,-0.0374567 -0.106228,-0.0905276l0.105437 -0.0161417 -0.105417 0.0158346 -0.687965 -4.49383c-0.00126378,-0.00656299 -0.00193307,-0.0133386 -0.00193307,-0.0202717 0,-0.0589094 0.0477598,-0.106669 0.106669,-0.106669l3.61444 0c0.00564567,-4.33071e-005 0.0113701,0.000350394 0.0171339,0.00123228 0.0582283,0.00891339 0.0982087,0.0633504 0.0892953,0.121579l-6.69291e-005 -1.1811e-005z"/>
   <path id="_443095080" class="fil0" d="M1.23061 1.26173c-0.0589094,0 -0.106669,0.0477598 -0.106669,0.106669 0,0.0589094 0.0477598,0.106669 0.106669,0.106669l4.36544 0c0.0589094,0 0.106669,-0.0477598 0.106669,-0.106669 0,-0.0589094 -0.0477598,-0.106669 -0.106669,-0.106669l-4.36544 0z"/>
   <path id="_443095416" class="fil0" d="M2.98271 0.853323l0.86124 0c0.0589094,0 0.106669,0.0477598 0.106669,0.106669l0 0.408402c0,0.0589094 -0.0477598,0.106669 -0.106669,0.106669l-0.86124 0c-0.0589094,0 -0.106669,-0.0477598 -0.106669,-0.106669l0 -0.408402c0,-0.0589094 0.0477598,-0.106669 0.106669,-0.106669zm0.754571 0.213339l-0.647902 0 0 0.195063 0.647902 0 0 -0.195063z"/>
   <path id="_443095104" class="fil0" d="M2.8479 2.51731c0,-0.0589094 -0.0477598,-0.106669 -0.106669,-0.106669 -0.0589094,0 -0.106669,0.0477598 -0.106669,0.106669l0 2.20044c0,0.0589094 0.0477598,0.106669 0.106669,0.106669 0.0589094,0 0.106669,-0.0477598 0.106669,-0.106669l0 -2.20044z"/>
   <path id="_443095032" class="fil0" d="M3.52 2.51731c0,-0.0589094 -0.0477598,-0.106669 -0.106669,-0.106669 -0.0589094,0 -0.106669,0.0477598 -0.106669,0.106669l0 2.20044c0,0.0589094 0.0477598,0.106669 0.106669,0.106669 0.0589094,0 0.106669,-0.0477598 0.106669,-0.106669l0 -2.20044z"/>
   <path id="_443095296" class="fil0" d="M4.1921 2.51731c0,-0.0589094 -0.0477598,-0.106669 -0.106669,-0.106669 -0.0589094,0 -0.106669,0.0477598 -0.106669,0.106669l0 2.20044c0,0.0589094 0.0477598,0.106669 0.106669,0.106669 0.0589094,0 0.106669,-0.0477598 0.106669,-0.106669l0 -2.20044z"/>
  </g>
  <path class="fil1" d="M3.97876 2.51731c0,-0.0589094 0.0477598,-0.106669 0.106669,-0.106669 0.0589094,0 0.106669,0.0477598 0.106669,0.106669l0 2.20044c0,0.0589094 -0.0477598,0.106669 -0.106669,0.106669 -0.0589094,0 -0.106669,-0.0477598 -0.106669,-0.106669l0 -2.20044zm-0.565429 -0.106669c0.0589094,0 0.106669,0.0477598 0.106669,0.106669l0 2.20044c0,0.0589094 -0.0477598,0.106669 -0.106669,0.106669 -0.0589094,0 -0.106669,-0.0477598 -0.106669,-0.106669l0 -2.20044c0,-0.0589094 0.0477598,-0.106669 0.106669,-0.106669zm-0.672098 0c0.0589094,0 0.106669,0.0477598 0.106669,0.106669l0 2.20044c0,0.0589094 -0.0477598,0.106669 -0.106669,0.106669 -0.0589094,0 -0.106669,-0.0477598 -0.106669,-0.106669l0 -2.20044c0,-0.0589094 0.0477598,-0.106669 0.106669,-0.106669zm1.69965 3.34935l0.655992 -4.28493 -1.25292 0 -0.86124 0 -1.25292 0 0.655984 4.28493 2.05511 0z"/>
 </g>
 <rect class="fil2" width="6.82666" height="6.82666"/>
</svg>
