<?xml version="1.0" encoding="UTF-8"?>
<!DOCTYPE svg PUBLIC "-//W3C//DTD SVG 1.1//EN" "http://www.w3.org/Graphics/SVG/1.1/DTD/svg11.dtd">
<!-- Creator: CorelDRAW -->
<svg xmlns="http://www.w3.org/2000/svg" xml:space="preserve" width="6.82666in" height="6.82666in" style="shape-rendering:geometricPrecision; text-rendering:geometricPrecision; image-rendering:optimizeQuality; fill-rule:evenodd; clip-rule:evenodd"
viewBox="0 0 6.82666 6.82666"
 xmlns:xlink="http://www.w3.org/1999/xlink">
 <defs>
  <style type="text/css">
   <![CDATA[
    .fil3 {fill:none}
    .fil2 {fill:#63CBE5}
    .fil0 {fill:#EBE5DF}
    .fil1 {fill:#333333;fill-rule:nonzero}
   ]]>
  </style>
 </defs>
 <g id="Layer_x0020_1">
  <metadata id="CorelCorpID_0Corel-Layer"/>
  <path class="fil0" d="M3.69358 1.40326l0.000913386 -1.9685e-005 -0.562083 0 0.000913386 1.9685e-005 -0.00183858 -2.3622e-005 -0.00183858 2.3622e-005 0.000913386 -1.9685e-005 -0.35348 0c0.0125118,-0.0917402 0.0420197,-0.171756 0.0894803,-0.230638 0.0529409,-0.0656772 0.132287,-0.105933 0.240142,-0.105933l1.06979 0 3.93701e-006 0.147705 -3.93701e-006 0.188866 -0.480146 0 0.000913386 1.9685e-005 -0.00183858 -2.3622e-005 -0.00183858 2.3622e-005zm-0.455425 0.213319l0.350594 0 -0.350594 0z"/>
  <path class="fil1" d="M3.1067 0.853327l1.17646 0c0.0589094,0 0.106669,0.0477598 0.106669,0.106669l0 0.549909c0,0.0589094 -0.0477598,0.106669 -0.106669,0.106669l-1.6197 0c-0.0589094,0 -0.106669,-0.0477598 -0.106669,-0.106669l0 -3.93701e-006c0,-0.18252 0.0467677,-0.350079 0.143937,-0.470634 0.0929291,-0.115287 0.227488,-0.185941 0.405976,-0.185941zm1.06979 0.213339l-1.06979 0c-0.107854,0 -0.187201,0.0402559 -0.240142,0.105933 -0.0474606,0.0588819 -0.0769685,0.138898 -0.0894803,0.230638l1.39941 0 0 -0.336571z"/>
  <path class="fil1" d="M4.15513 1.52361c0.0073622,-0.0582165 -0.0338661,-0.11139 -0.0920827,-0.118752 -0.0582165,-0.0073622 -0.11139,0.0338661 -0.118752,0.0920827 -0.000358268,0.00283071 -0.134008,0.983823 0.584004,1.33942 0.0526969,0.026 0.1165,0.0043622 0.1425,-0.0483346 0.026,-0.0526969 0.0043622,-0.1165 -0.0483346,-0.1425 -0.580654,-0.287571 -0.467638,-1.11951 -0.467335,-1.12191z"/>
  <path class="fil1" d="M2.28897 5.76l2.24871 0 0 -2.04941c-0.113118,-0.0650669 -0.323236,-0.205264 -0.52774,-0.443976 -0.135638,-0.158319 -0.273118,-0.361457 -0.385335,-0.617055l-0.422563 0c-0.112217,0.255598 -0.249701,0.458736 -0.385335,0.617055 -0.204504,0.238717 -0.414622,0.378913 -0.52774,0.44398l0 2.0494zm2.35538 0.213339l-2.46205 0c-0.0589094,0 -0.106669,-0.0477598 -0.106669,-0.106669l0 -2.21585 1.9685e-005 -0.00167323 7.87402e-006 -0.000496063 5.51181e-005 -0.00188583 3.54331e-005 -0.000870079 9.84252e-005 -0.0017874 5.51181e-005 -0.000858268 0.000165354 -0.00206299 3.93701e-005 -0.000413386c0.0023189,-0.0247992 0.0131181,-0.0471299 0.0294803,-0.064063l0.000224409 -0.000224409 0.00147244 -0.00149213 0.000566929 -0.000555118 0.00125197 -0.00120079 0.000744094 -0.000692913 0.00101969 -0.000937008 0.00101969 -0.000909449 0.000909449 -0.000791339 0.00120472 -0.00101969 0.000633858 -0.000527559 0.00162205 -0.00130315 0.000283465 -0.000228346 0.00165748 -0.00126772 0.000448819 -0.000338583 0.00157087 -0.00114567 0.000562992 -0.000401575 0.00144882 -0.00100787 0.00065748 -0.000448819 0.00162992 -0.00107087 0.000515748 -0.000330709 0.0014252 -0.000889764 0.000972441 -0.000590551 0.0010748 -0.000637795 0.00126772 -0.000732283 0.000830709 -0.000464567 0.00180315 -0.000976378 0.000153543 -8.26772e-005c0.00883071,-0.00466535 0.0183937,-0.00813386 0.0284803,-0.0101732 0.0149331,-0.00731496 0.240528,-0.122106 0.494,-0.41798 0.133256,-0.155547 0.268748,-0.359295 0.375756,-0.620673 0.0145669,-0.0415709 0.0541457,-0.0713898 0.100689,-0.0713898l0.561614 0c0.0428425,-0.000818898 0.083748,0.0243976 0.100866,0.0664567l-0.0987992 0.0402126 0.098752 -0.04c0.107303,0.26365 0.243634,0.468909 0.377693,0.625394 0.253484,0.295886 0.479094,0.410681 0.494004,0.417984 0.0487205,0.00985433 0.0854055,0.0529213 0.0854055,0.104547l0 3.93701e-006 0 2.21585c0,0.0589094 -0.0477598,0.106669 -0.106669,0.106669z"/>
  <path class="fil1" d="M3.23816 1.5099c0,-0.0589094 -0.0477598,-0.106669 -0.106669,-0.106669 -0.0589094,0 -0.106669,0.0477598 -0.106669,0.106669l0 1.03302c0,0.0589094 0.0477598,0.106669 0.106669,0.106669 0.0589094,0 0.106669,-0.0477598 0.106669,-0.106669l0 -1.03302z"/>
  <path class="fil1" d="M3.80209 1.5099c0,-0.0589094 -0.0477598,-0.106669 -0.106669,-0.106669 -0.0589094,0 -0.106669,0.0477598 -0.106669,0.106669l0 1.03302c0,0.0589094 0.0477598,0.106669 0.106669,0.106669 0.0589094,0 0.106669,-0.0477598 0.106669,-0.106669l0 -1.03302z"/>
  <path class="fil1" d="M4.28317 1.1077c-0.0589094,0 -0.106669,0.0477598 -0.106669,0.106669 0,0.0589094 0.0477598,0.106669 0.106669,0.106669l0.253319 0c0.0589094,0 0.106669,-0.0477598 0.106669,-0.106669 0,-0.0589094 -0.0477598,-0.106669 -0.106669,-0.106669l-0.253319 0z"/>
  <path class="fil2" d="M4.00994 3.26662c-0.135638,-0.158319 -0.273118,-0.361457 -0.385335,-0.617055l-0.422563 0c-0.112217,0.255598 -0.249701,0.458736 -0.385335,0.617055 -0.204504,0.238717 -0.414622,0.378913 -0.52774,0.44398l0 2.0494 2.24871 0 0 -2.04941c-0.113118,-0.0650669 -0.323236,-0.205264 -0.52774,-0.443976z"/>
  <polygon class="fil0" points="3.58875,2.43622 3.58875,1.61657 3.23816,1.61657 3.23816,2.43622 "/>
 </g>
 <rect class="fil3" width="6.82666" height="6.82666"/>
</svg>
