<?xml version="1.0" encoding="UTF-8"?>
<!DOCTYPE svg PUBLIC "-//W3C//DTD SVG 1.1//EN" "http://www.w3.org/Graphics/SVG/1.1/DTD/svg11.dtd">
<!-- Creator: CorelDRAW -->
<svg xmlns="http://www.w3.org/2000/svg" xml:space="preserve" width="6.82666in" height="6.82666in" style="shape-rendering:geometricPrecision; text-rendering:geometricPrecision; image-rendering:optimizeQuality; fill-rule:evenodd; clip-rule:evenodd"
viewBox="0 0 6.82666 6.82666"
 xmlns:xlink="http://www.w3.org/1999/xlink">
 <defs>
  <style type="text/css">
   <![CDATA[
    .fil3 {fill:none}
    .fil2 {fill:#EBE5DF}
    .fil1 {fill:#FECA5F}
    .fil0 {fill:#333333;fill-rule:nonzero}
   ]]>
  </style>
 </defs>
 <g id="Layer_x0020_1">
  <metadata id="CorelCorpID_0Corel-Layer"/>
  <g id="_443098032">
   <path id="_443098248" class="fil0" d="M1.48666 1.96068c0,0.0589094 0.0477598,0.106669 0.106669,0.106669 0.0589094,0 0.106669,-0.0477598 0.106669,-0.106669l0 -0.367402 0.629232 0 0 0.367402c0,0.0589094 0.0477598,0.106669 0.106669,0.106669 0.0589094,0 0.106669,-0.0477598 0.106669,-0.106669l0 -0.474071c0,-0.0589094 -0.0477598,-0.106669 -0.106669,-0.106669l-0.842571 0c-0.0589094,0 -0.106669,0.0477598 -0.106669,0.106669l0 0.474071z"/>
   <path id="_443097936" class="fil0" d="M1.92507 1.37994l0.179079 0 0 -0.313272 -0.179079 0 0 0.313272zm0.285748 0.213339l-0.392417 0c-0.0589094,0 -0.106669,-0.0477598 -0.106669,-0.106669l0 -0.52661c0,-0.0589094 0.0477598,-0.106669 0.106669,-0.106669l0.392417 0c0.0589094,0 0.106669,0.0477598 0.106669,0.106669l0 0.52661c0,0.0589094 -0.0477598,0.106669 -0.106669,0.106669z"/>
   <path id="_443098176" class="fil0" d="M1.66085 0.853335c-0.0589094,0 -0.106669,0.0477598 -0.106669,0.106669 0,0.0589094 0.0477598,0.106669 0.106669,0.106669l0.707512 0c0.0589094,0 0.106669,-0.0477598 0.106669,-0.106669 0,-0.0589094 -0.0477598,-0.106669 -0.106669,-0.106669l-0.707512 0z"/>
   <path id="_443098080" class="fil0" d="M1.42426 5.76l1.18071 0c0.011815,0 0.0225,-0.000374016 0.0320709,-0.00109449 0.0897402,-0.00679528 0.172012,-0.041248 0.231283,-0.0930039 0.0537008,-0.0468858 0.0875354,-0.107854 0.0875354,-0.173386 0,-0.00595669 -0.000149606,-0.0109331 -0.000448819,-0.0148937 -0.00298031,-0.0393622 -0.0172362,-0.157815 -0.0368819,-0.321161 -0.0778031,-0.646768 -0.237929,-1.97809 -0.123854,-2.18237l-0.000496063 -0.000307087c0.235606,-0.383413 0.130886,-0.647921 -0.11061,-0.796315 -0.177185,-0.108878 -0.422331,-0.163323 -0.668953,-0.163323l0 0.000417323c-0.247043,0 -0.49222,0.0543031 -0.668953,0.162902 -0.2415,0.148402 -0.346217,0.412906 -0.11061,0.796319l-0.000496063 0.00030315 7.87402e-006 1.5748e-005 0.000535433 -0.000330709c0.00749213,0.0121929 0.0122323,0.0253031 0.0144055,0.0386024 0.0835984,0.295795 -0.0647598,1.52882 -0.138764,2.14378 -0.0196693,0.163465 -0.0339409,0.282028 -0.0369252,0.321469 -0.000299213,0.00396457 -0.000448819,0.00894094 -0.000448819,0.0149016 0,0.0655236 0.0338346,0.126492 0.0875276,0.173374 0.0592717,0.051752 0.141535,0.0862087 0.231272,0.0930039 0.00958661,0.000724409 0.0202835,0.00109843 0.0320906,0.00109843zm1.18071 0.213339l-1.18071 0c-0.0150472,0 -0.0310551,-0.000653543 -0.0479252,-0.00193307 -0.135799,-0.0102874 -0.262323,-0.0642047 -0.355437,-0.145508 -0.098685,-0.0861732 -0.160866,-0.202988 -0.160866,-0.333374 0,-0.00914567 0.000429134,-0.0193937 0.00128346,-0.0307362 0.00344094,-0.0454606 0.017874,-0.165343 0.0377598,-0.330634 0.0759055,-0.630776 0.233681,-1.94194 0.163004,-2.03348 -0.00314961,-0.00381102 -0.00607874,-0.00787795 -0.00874016,-0.0122126l3.93701e-005 -2.3622e-005c-0.316567,-0.515185 -0.161614,-0.879343 0.180618,-1.08965 0.211091,-0.129713 0.496795,-0.194571 0.780622,-0.194571l0 0.000417323c0.284236,3.93701e-006 0.569984,0.0647244 0.780622,0.194157 0.341343,0.209752 0.496335,0.572587 0.183024,1.08565 -0.00304724,0.00547244 -0.00662598,0.010752 -0.0107362,0.0157677l-5.11811e-005 -4.33071e-005c-0.0714331,0.0877559 0.0867441,1.40264 0.162724,2.03429 0.0198661,0.165177 0.0342835,0.284941 0.0377165,0.330327 0.000854331,0.0113386 0.00128346,0.0215866 0.00128346,0.0307283 0,0.130394 -0.0621811,0.247213 -0.160874,0.333386 -0.0931142,0.0813071 -0.219646,0.13522 -0.355449,0.145508 -0.0168661,0.00127559 -0.0328701,0.00192913 -0.0479055,0.00192913z"/>
   <path id="_443097888" class="fil0" d="M2.95712 2.32109c-0.0499331,0.0308346 -0.0654173,0.0963189 -0.0345827,0.146252 0.0308346,0.0499331 0.0963189,0.0654173 0.146252,0.0345827 0.138531,-0.0854921 0.287949,-0.150988 0.443748,-0.195193 0.155268,-0.0440512 0.317016,-0.0667165 0.480772,-0.0667165 0.48602,0 0.926028,0.196996 1.24451,0.51548 0.318484,0.318484 0.51548,0.758492 0.51548,1.24451 0,0.48602 -0.196996,0.926028 -0.51548,1.24451 -0.318484,0.318484 -0.758492,0.51548 -1.24451,0.51548 -0.159157,0 -0.315862,-0.0211614 -0.466047,-0.062374 -0.150398,-0.0412677 -0.295925,-0.102996 -0.432492,-0.184047 -0.050622,-0.0299134 -0.115917,-0.013122 -0.145831,0.0375 -0.0299134,0.050622 -0.013122,0.115917 0.0375,0.145831 0.151744,0.0900591 0.314945,0.159059 0.484988,0.205717 0.170264,0.0467205 0.34576,0.0707126 0.521882,0.0707126 0.544906,0 1.03824,-0.220882 1.39535,-0.577984 0.357102,-0.357102 0.577984,-0.850441 0.577984,-1.39535 0,-0.544906 -0.220882,-1.03824 -0.577984,-1.39535 -0.357102,-0.357102 -0.850441,-0.577984 -1.39535,-0.577984 -0.1825,0 -0.363602,0.0254961 -0.538276,0.0750551 -0.174146,0.0494134 -0.341791,0.123008 -0.497913,0.219358z"/>
   <path id="_443098392" class="fil0" d="M2.76133 3.28478c-0.0294528,0.0508543 -0.0121063,0.115965 0.038748,0.145417 0.0508543,0.0294528 0.115965,0.0121063 0.145417,-0.038748 0.108516,-0.18689 0.262449,-0.33772 0.443079,-0.441709 0.180433,-0.103874 0.38824,-0.161193 0.604732,-0.161193 0.334547,0 0.637417,0.135594 0.856642,0.354819 0.219224,0.219224 0.354819,0.522094 0.354819,0.856642 0,0.334547 -0.135594,0.637417 -0.354819,0.856642 -0.219224,0.219224 -0.522094,0.354819 -0.856642,0.354819 -0.177823,0 -0.35089,-0.0388622 -0.508051,-0.111437 -0.157504,-0.0727362 -0.299409,-0.179272 -0.414551,-0.314449 -0.0381969,-0.0446417 -0.105358,-0.0498661 -0.15,-0.0116693 -0.0446417,0.0381969 -0.0498661,0.105358 -0.0116693,0.15 0.135283,0.158823 0.302008,0.283992 0.487055,0.369449 0.185382,0.0856063 0.388835,0.131445 0.597217,0.131445 0.393433,0 0.749634,-0.15948 1.00748,-0.417323 0.257843,-0.257843 0.417323,-0.614043 0.417323,-1.00748 0,-0.393433 -0.15948,-0.749634 -0.417323,-1.00748 -0.257843,-0.257843 -0.614043,-0.417323 -1.00748,-0.417323 -0.253264,0 -0.497476,0.067689 -0.710567,0.190366 -0.212898,0.122567 -0.394051,0.299866 -0.521409,0.519205z"/>
   <path id="_443098128" class="fil0" d="M1.69461 2.95394l0.64 0c0.0441811,0 0.08,0.0358189 0.08,0.08l0 1.70667c0,0.0441811 -0.0358189,0.08 -0.08,0.08l-0.64 0c-0.0441811,0 -0.08,-0.0358189 -0.08,-0.08l0 -1.70667c0,-0.0441811 0.0358189,-0.08 0.08,-0.08zm0.56 0.16l-0.48 0 0 1.54667 0.48 0 0 -1.54667z"/>
  </g>
  <polygon class="fil1" points="2.25461,3.11394 1.77461,3.11394 1.77461,4.66061 2.25461,4.66061 "/>
  <path class="fil1" d="M1.69461 2.95394l0.64 0c0.0441811,0 0.08,0.0358189 0.08,0.08l0 1.70667c0,0.0441811 -0.0358189,0.08 -0.08,0.08l-0.64 0c-0.0441811,0 -0.08,-0.0358189 -0.08,-0.08l0 -1.70667c0,-0.0441811 0.0358189,-0.08 0.08,-0.08zm-0.270358 2.80606l1.18071 0c0.011815,0 0.0225,-0.000374016 0.0320709,-0.00109449 0.0897402,-0.00679528 0.172012,-0.041248 0.231283,-0.0930039 0.0537008,-0.0468858 0.0875354,-0.107854 0.0875354,-0.173386 0,-0.00595669 -0.000149606,-0.0109331 -0.000448819,-0.0148937 -0.00298031,-0.0393622 -0.0172362,-0.157815 -0.0368819,-0.321161 -0.0556732,-0.462815 -0.153504,-1.27617 -0.16285,-1.77624 -0.0110433,-0.0256929 -0.011874,-0.0554449 -0.000708661,-0.0825394 0.000405512,-0.15726 0.0119252,-0.273846 0.0397047,-0.323594l-0.000496063 -0.000307087c0.235606,-0.383413 0.130886,-0.647921 -0.11061,-0.796315 -0.0776299,-0.0477008 -0.168299,-0.0849528 -0.266429,-0.11176 -0.0059252,-0.00105118 -0.0116811,-0.00259055 -0.0172244,-0.00457874 -0.121169,-0.0313228 -0.253024,-0.0469843 -0.385299,-0.0469843l0 0.000417323c-0.133287,0 -0.266031,0.0158071 -0.387776,0.0474213 -0.00401969,0.00132677 -0.00814173,0.0024252 -0.0123543,0.00327165 -0.0991496,0.0267874 -0.190677,0.064189 -0.268823,0.112209 -0.2415,0.148402 -0.346217,0.412906 -0.11061,0.796319l4.72441e-005 -1.1811e-005c0.00749213,0.0121929 0.0122323,0.0253031 0.0144055,0.0386024 0.0835984,0.295795 -0.0647598,1.52882 -0.138764,2.14378 -0.0196693,0.163465 -0.0339409,0.282028 -0.0369252,0.321469 -0.000299213,0.00396457 -0.000448819,0.00894094 -0.000448819,0.0149016 0,0.0655236 0.0338346,0.126492 0.0875276,0.173374 0.0592717,0.051752 0.141535,0.0862087 0.231272,0.0930039 0.00958661,0.000724409 0.0202835,0.00109843 0.0320906,0.00109843z"/>
  <path class="fil2" d="M3.38857 2.94974c-0.176638,0.101689 -0.327744,0.248173 -0.435815,0.42937 0.0157362,0.352323 0.083622,0.961213 0.138996,1.43054 0.111209,0.123795 0.245465,0.22202 0.3935,0.290382 0.157161,0.0725748 0.330228,0.111437 0.508051,0.111437 0.334547,0 0.637417,-0.135594 0.856642,-0.354819 0.219224,-0.219224 0.354819,-0.522094 0.354819,-0.856642 0,-0.334547 -0.135594,-0.637417 -0.354819,-0.856642 -0.219224,-0.219224 -0.522094,-0.354819 -0.856642,-0.354819 -0.216492,0 -0.424299,0.0573189 -0.604732,0.161193z"/>
  <path class="fil2" d="M3.99331 2.5752c0.393433,0 0.749634,0.15948 1.00748,0.417323 0.257843,0.257843 0.417323,0.614043 0.417323,1.00748 0,0.393433 -0.15948,0.749634 -0.417323,1.00748 -0.257843,0.257843 -0.614043,0.417323 -1.00748,0.417323 -0.208382,0 -0.411835,-0.0458386 -0.597217,-0.131445 -0.0938307,-0.0433307 -0.182949,-0.096874 -0.265646,-0.159835 0.0197402,0.16411 0.0340512,0.283063 0.0374685,0.32826 0.000854331,0.0113386 0.00128346,0.0215866 0.00128346,0.0307283 0,0.0205079 -0.00153937,0.040685 -0.00451575,0.0604567 0.115929,0.0619173 0.237571,0.110354 0.362579,0.144654 0.150185,0.0412126 0.30689,0.062374 0.466047,0.062374 0.48602,0 0.926028,-0.196996 1.24451,-0.51548 0.318484,-0.318484 0.51548,-0.758492 0.51548,-1.24451 0,-0.48602 -0.196996,-0.926028 -0.51548,-1.24451 -0.318484,-0.318484 -0.758492,-0.51548 -1.24451,-0.51548 -0.163756,0 -0.325504,0.0226654 -0.480772,0.0667165 -0.129657,0.0367874 -0.254894,0.0883189 -0.373114,0.15385 0.0226654,0.13385 0.00175591,0.287331 -0.0758661,0.460307 0.068126,-0.0586417 0.141543,-0.110618 0.219185,-0.155315 0.213091,-0.122677 0.457303,-0.190366 0.710567,-0.190366z"/>
  <path class="fil2" d="M2.32923 1.82863l0 -0.235358 -0.118406 0 -0.392417 0 -0.118409 0 0 0.235047c0.102484,-0.0180709 0.208681,-0.0271063 0.314618,-0.0271063l0 0.000417323c0.105984,0 0.212181,0.009 0.314614,0.027z"/>
  <polygon class="fil2" points="2.10415,1.37994 2.10415,1.06667 1.92507,1.06667 1.92507,1.37994 "/>
 </g>
 <rect class="fil3" width="6.82666" height="6.82666"/>
</svg>
