<?xml version="1.0" encoding="UTF-8"?>
<!DOCTYPE svg PUBLIC "-//W3C//DTD SVG 1.1//EN" "http://www.w3.org/Graphics/SVG/1.1/DTD/svg11.dtd">
<!-- Creator: CorelDRAW -->
<svg xmlns="http://www.w3.org/2000/svg" xml:space="preserve" width="6.82666in" height="6.82666in" style="shape-rendering:geometricPrecision; text-rendering:geometricPrecision; image-rendering:optimizeQuality; fill-rule:evenodd; clip-rule:evenodd"
viewBox="0 0 6.82666 6.82666"
 xmlns:xlink="http://www.w3.org/1999/xlink">
 <defs>
  <style type="text/css">
   <![CDATA[
    .fil6 {fill:none}
    .fil1 {fill:#333333}
    .fil3 {fill:#63CBE5}
    .fil5 {fill:#949494}
    .fil4 {fill:#AED581}
    .fil2 {fill:#EBE5DF}
    .fil0 {fill:#333333;fill-rule:nonzero}
   ]]>
  </style>
 </defs>
 <g id="Layer_x0020_1">
  <metadata id="CorelCorpID_0Corel-Layer"/>
  <path class="fil0" d="M4.55291 3.26967c0,0.0589094 0.0477598,0.106669 0.106669,0.106669 0.0589094,0 0.106669,-0.0477598 0.106669,-0.106669l0 -1.01798c0,-0.0589094 -0.0477598,-0.106669 -0.106669,-0.106669l-3.69958 0c-0.0589094,0 -0.106669,0.0477598 -0.106669,0.106669l0 3.32389c0,0.0589094 0.0477598,0.106669 0.106669,0.106669l3.12453 0c0.0589094,0 0.106669,-0.0477598 0.106669,-0.106669 0,-0.0589094 -0.0477598,-0.106669 -0.106669,-0.106669l-3.01786 0 0 -3.11056 3.48624 0 0 0.911315z"/>
  <path class="fil0" d="M0.96 1.14441l3.69958 0c0.0589094,0 0.106669,0.0477598 0.106669,0.106669l0 1.00061c0,0.0589094 -0.0477598,0.106669 -0.106669,0.106669l-3.69958 0c-0.0589094,0 -0.106669,-0.0477598 -0.106669,-0.106669l0 -1.00061c0,-0.0589094 0.0477598,-0.106669 0.106669,-0.106669zm3.59291 0.213339l-3.48624 0 0 0.787268 3.48624 0 0 -0.787268z"/>
  <path class="fil0" d="M2.80979 2.85487c0.29235,0 0.557043,0.118512 0.748642,0.310114 0.191602,0.191598 0.310114,0.456291 0.310114,0.748642 0,0.292354 -0.118512,0.557043 -0.31011,0.748646 -0.191602,0.191598 -0.456295,0.31011 -0.748646,0.31011 -0.29235,0 -0.557043,-0.118512 -0.748642,-0.310114 -0.191602,-0.191598 -0.310114,-0.456291 -0.310114,-0.748642 0,-0.29235 0.118512,-0.557043 0.310114,-0.748642 0.191598,-0.191602 0.456291,-0.310114 0.748642,-0.310114zm0.597807 0.460949c-0.15298,-0.152984 -0.364343,-0.24761 -0.597807,-0.24761 -0.233465,0 -0.444827,0.094626 -0.597807,0.24761 -0.152984,0.15298 -0.24761,0.364343 -0.24761,0.597807 0,0.233465 0.094626,0.444827 0.24761,0.597807 0.15298,0.152984 0.364343,0.24761 0.597807,0.24761 0.233465,0 0.444827,-0.094626 0.597811,-0.247606 0.15298,-0.152984 0.247606,-0.364343 0.247606,-0.597811 0,-0.233465 -0.094626,-0.444827 -0.24761,-0.597807z"/>
  <circle class="fil1" cx="1.67339" cy="1.75138" r="0.197357"/>
  <circle class="fil1" cx="2.80979" cy="1.75138" r="0.197357"/>
  <circle class="fil1" cx="3.94619" cy="1.75138" r="0.197357"/>
  <path class="fil0" d="M4.3555 5.75357l1.27556 0c0.00717717,0 0.0141811,0.000712598 0.0209606,0.00206299 0.00896063,0.000669291 0.032815,0.000165354 0.0417008,-0.0226457l-0.0635354 -0.268067 -4.33071e-005 1.1811e-005c-0.00551181,-0.023248 -0.00295276,-0.0465236 0.00585827,-0.0668858 0.0338543,-0.0931969 0.471827,-1.35581 -0.525972,-1.71883l-0.706996 0c-0.0517047,0.0376339 -0.171795,0.140394 -0.177567,0.286272 0.0247283,0.0996339 0.138598,0.62122 -0.0536732,1.09851 -0.011563,0.0951575 -0.0708031,0.669854 0.183705,0.689575zm1.27111 0.213339l-1.27112 0 -0.000240157 0 0 -3.93701e-006c-0.00174016,0 -0.00348819,-3.93701e-005 -0.00524803,-0.000125984l1.5748e-005 -0.000307087c-0.488618,-0.0243386 -0.400087,-0.842693 -0.38848,-0.935476 0.000610236,-0.0118701 0.00322441,-0.0238425 0.00804724,-0.0354488l0.000177165 7.48031e-005c0.179098,-0.430953 0.0667283,-0.911906 0.0486457,-0.982437 -0.00421654,-0.0114685 -0.00651575,-0.0238622 -0.00651575,-0.0367913 0,-0.282433 0.247209,-0.457913 0.295508,-0.489508 0.017752,-0.0131969 0.039748,-0.0210079 0.0635669,-0.0210079l0.755075 0c0.0123071,-0.000248031 0.0248701,0.00164173 0.0371772,0.00592126l-0.0350433 0.100748 0.035 -0.100417c1.16139,0.403961 0.756811,1.75283 0.681701,1.97393l0.0606535 0.255894c0.00335433,0.0122677 0.00456693,0.0253425 0.00322835,0.0387559l-0.000322835 -3.14961e-005c-0.0237126,0.236138 -0.227906,0.23161 -0.281827,0.226232z"/>
  <path class="fil0" d="M5.60304 4.97922c-0.0732874,0.173776 -0.192976,0.0939882 -0.222803,0.0703661 -0.00433465,-0.0031378 -0.00841732,-0.00675591 -0.0121732,-0.0108583l0.0590157 -0.0540079 -0.058752 0.053752c-0.0793228,-0.0866772 -0.273185,-0.400673 -0.363024,-0.672299 -0.0627874,-0.189831 -0.0764134,-0.367315 0.0217087,-0.464953 0.00173228,-0.00191339 0.00356693,-0.00376378 0.00551575,-0.00553937l0.0538976 0.0591181 -0.053752 -0.059063c0.106654,-0.0972402 0.241772,-0.0356772 0.273287,-0.0191339 0.00286614,0.00134252 0.00568504,0.00286614 0.00844094,0.00457874l-7.08661e-005 0.00011811c0.193008,0.120122 0.27922,0.307028 0.310323,0.510051 0.0290236,0.18948 0.00875197,0.391614 -0.0152087,0.562394 -0.000590551,0.00858661 -0.00258268,0.0172244 -0.00611417,0.0255984l-0.000291339 -0.000122047zm-0.146661 -0.0844567c0.0199055,-0.150638 0.0342402,-0.322402 0.0101496,-0.479665 -0.0245866,-0.160512 -0.0904291,-0.306894 -0.235913,-0.39776l-0.000704724 -0.000393701 -5.11811e-005 7.87402e-005 -0.00112205 -0.000716535c-0.0118661,-0.00637402 -0.0592717,-0.0290669 -0.0885039,-0.00249213l9.05512e-005 0.000102362c-0.000637795,0.000582677 -0.0012874,0.00114567 -0.00194094,0.00170472 -0.0446102,0.0462244 -0.0260748,0.164894 0.0187953,0.300551 0.0733819,0.221874 0.217555,0.469807 0.299201,0.578591z"/>
  <path class="fil0" d="M4.56428 3.46588l0.35626 0 0 -0.0895433 -0.35626 0 0 0.0895433zm0.462929 0.213339l-0.569598 0c-0.0589094,0 -0.106669,-0.0477598 -0.106669,-0.106669l0 -0.302882c0,-0.0589094 0.0477598,-0.106669 0.106669,-0.106669l0.569598 0c0.0589094,0 0.106669,0.0477598 0.106669,0.106669l0 0.302882c0,0.0589094 -0.0477598,0.106669 -0.106669,0.106669z"/>
  <path class="fil2" d="M3.65521 3.91363c0,-0.233465 -0.094626,-0.444827 -0.24761,-0.597807 -0.15298,-0.152984 -0.364343,-0.24761 -0.597807,-0.24761 -0.233465,0 -0.444827,0.094626 -0.597807,0.24761 -0.152984,0.15298 -0.24761,0.364343 -0.24761,0.597807 0,0.233465 0.094626,0.444827 0.24761,0.597807 0.15298,0.152984 0.364343,0.24761 0.597807,0.24761 0.233465,0 0.444827,-0.094626 0.597811,-0.247606 0.15298,-0.152984 0.247606,-0.364343 0.247606,-0.597811z"/>
  <path class="fil3" d="M1.75104 3.91363c0,-0.29235 0.118512,-0.557043 0.310114,-0.748642 0.191598,-0.191602 0.456291,-0.310114 0.748642,-0.310114 0.29235,0 0.557043,0.118512 0.748642,0.310114 0.191602,0.191598 0.310114,0.456291 0.310114,0.748642 0,0.292354 -0.118512,0.557043 -0.31011,0.748646 -0.191602,0.191598 -0.456295,0.31011 -0.748646,0.31011 -0.29235,0 -0.557043,-0.118512 -0.748642,-0.310114 -0.191602,-0.191598 -0.310114,-0.456291 -0.310114,-0.748642zm2.59991 -0.445874l0 -0.198091c0,-0.0589094 0.0477598,-0.106669 0.106669,-0.106669l0.0952953 0 0 -0.804642 -3.48624 0 0 3.11056 2.89333 0c-0.0252165,-0.200839 -0.00377559,-0.395429 0.00153937,-0.437913 0.000610236,-0.0118701 0.00322441,-0.0238425 0.00804724,-0.0354488l0.000177165 7.48031e-005c0.179098,-0.430953 0.0667283,-0.911906 0.0486457,-0.982437 -0.00421654,-0.0114685 -0.00651575,-0.0238622 -0.00651575,-0.0367913 0,-0.282433 0.247209,-0.457913 0.295508,-0.489508 0.0126496,-0.00940551 0.0274567,-0.0160748 0.0435433,-0.0191299z"/>
  <path class="fil3" d="M1.06667 2.14502l3.48624 0 0 -0.787268 -3.48624 0 0 0.787268zm0.606724 -0.19628c-0.109,0 -0.197358,-0.0883583 -0.197358,-0.197358 0,-0.108996 0.0883583,-0.197354 0.197358,-0.197354 0.109,0 0.197358,0.0883583 0.197358,0.197354 0,0.109 -0.0883583,0.197358 -0.197358,0.197358zm1.1364 0c-0.108996,0 -0.197354,-0.0883583 -0.197354,-0.197358 0,-0.108996 0.0883583,-0.197354 0.197354,-0.197354 0.109,0 0.197358,0.0883583 0.197358,0.197354 0,0.109 -0.0883583,0.197358 -0.197358,0.197358zm0.939043 -0.197358c0,-0.108996 0.0883583,-0.197354 0.197354,-0.197354 0.109,0 0.197358,0.0883583 0.197358,0.197354 0,0.109 -0.0883583,0.197358 -0.197358,0.197358 -0.108996,0 -0.197354,-0.0883583 -0.197354,-0.197358z"/>
  <g id="_443098968">
   <path id="_443099064" class="fil4" d="M4.22547 3.96549c0.0247283,0.0996339 0.138598,0.62122 -0.0536732,1.09851 -0.00681496,0.0560748 -0.030185,0.278673 0.00385039,0.456098 0.0098622,0.0161654 0.0155472,0.0351614 0.0155472,0.0554843 0,0.00251969 -8.66142e-005,0.00502362 -0.000259843,0.0075 0.0282795,0.0936417 0.0784724,0.163823 0.164567,0.170492l1.27556 0c0.00717717,0 0.0141811,0.000712598 0.0209606,0.00206299 0.00896063,0.000669291 0.032815,0.000165354 0.0417008,-0.0226457l-0.0635354 -0.268067 -4.33071e-005 1.1811e-005c-0.00551181,-0.023248 -0.00295276,-0.0465236 0.00585827,-0.0668858 0.0338543,-0.0931969 0.471827,-1.35581 -0.525972,-1.71883l-0.0828228 0 -0.569598 0 -0.0545748 0c-0.0517047,0.0376339 -0.171795,0.140394 -0.177567,0.286272zm1.37757 1.01373c-0.0732874,0.173776 -0.192976,0.0939882 -0.222803,0.0703661 -0.00433465,-0.0031378 -0.00841732,-0.00675591 -0.0121732,-0.0108583l0.00026378 -0.000255906c-0.0793228,-0.0866772 -0.273185,-0.400673 -0.363024,-0.672299 -0.0627874,-0.189831 -0.0764134,-0.367315 0.0217087,-0.464953 0.00173228,-0.00191339 0.00356693,-0.00376378 0.00551575,-0.00553937l0.000145669 5.51181e-005c0.106654,-0.0972402 0.241772,-0.0356772 0.273287,-0.0191339 0.00286614,0.00134252 0.00568504,0.00286614 0.00844094,0.00457874l-7.08661e-005 0.00011811c0.193008,0.120122 0.27922,0.307028 0.310323,0.510051 0.0290236,0.18948 0.00875197,0.391614 -0.0152087,0.562394 -0.000590551,0.00858661 -0.00258268,0.0172244 -0.00611417,0.0255984l-0.000291339 -0.000122047z"/>
   <path id="_443098584" class="fil5" d="M4.92054 3.37633l-0.260039 0c-0.000307087,3.93701e-006 -0.00061811,3.93701e-006 -0.000925197,3.93701e-006 -0.000307087,0 -0.00061811,0 -0.000925197,-3.93701e-006l-0.0943701 0 0 0.0895433 0.35626 0 0 -0.0895433z"/>
  </g>
 </g>
 <rect class="fil6" width="6.82666" height="6.82666"/>
</svg>
