<?xml version="1.0" encoding="UTF-8"?>
<!DOCTYPE svg PUBLIC "-//W3C//DTD SVG 1.1//EN" "http://www.w3.org/Graphics/SVG/1.1/DTD/svg11.dtd">
<!-- Creator: CorelDRAW -->
<svg xmlns="http://www.w3.org/2000/svg" xml:space="preserve" width="6.82666in" height="6.82666in" style="shape-rendering:geometricPrecision; text-rendering:geometricPrecision; image-rendering:optimizeQuality; fill-rule:evenodd; clip-rule:evenodd"
viewBox="0 0 6.82666 6.82666"
 xmlns:xlink="http://www.w3.org/1999/xlink">
 <defs>
  <style type="text/css">
   <![CDATA[
    .fil2 {fill:none}
    .fil1 {fill:#B38E85}
    .fil0 {fill:#333333;fill-rule:nonzero}
   ]]>
  </style>
 </defs>
 <g id="Layer_x0020_1">
  <metadata id="CorelCorpID_0Corel-Layer"/>
  <g id="_443100912">
   <path id="_443101008" class="fil0" d="M2.66707 1.36708c-0.00345276,0.0586811 0.0413189,0.109051 0.1,0.112504 0.0586811,0.00345276 0.109051,-0.0413189 0.112504,-0.1 0.00259449,-0.0432953 0.0128031,-0.0827205 0.0305827,-0.118248 0.0182205,-0.0364055 0.0449134,-0.0701614 0.0800276,-0.101236l0.000204724 0.00023622 0.000169291 -0.000149606 5.90551e-005 6.69291e-005c0.000870079,-0.000767717 0.00172047,-0.00155118 0.00255512,-0.00234252 0.0344724,-0.0297323 0.073874,-0.0520669 0.118272,-0.0669961 0.0480709,-0.0161614 0.103583,-0.024248 0.16663,-0.024248 0.0666063,0 0.125319,0.00837402 0.176138,0.0250866 0.0481024,0.0158189 0.0895709,0.0391063 0.12439,0.0698189 0.0350984,0.0310669 0.0610669,0.0638701 0.0778701,0.0984449 0.0157559,0.0324134 0.0236457,0.0676535 0.0236457,0.105764 0,0.0195984 -0.00271654,0.0384016 -0.00808661,0.0563701 -0.00574803,0.0192323 -0.0143425,0.0379173 -0.0256929,0.0560118l-0.000188976 -0.00011811 -0.000200787 0.000311024 -7.48031e-005 -4.72441e-005 -0.0011811 0.00193307c-0.0120079,0.0174291 -0.0399685,0.0430787 -0.0750118,0.0752283 -0.036874,0.0338228 -0.0802638,0.0736378 -0.127819,0.124858l-0.106543 0.114744 0.0779173 0.0725 -0.0781654 -0.0725787c-0.0190748,0.0205433 -0.0284961,0.0465945 -0.0284921,0.0725787l-1.1811e-005 0 0 0.364677c0,0.0589094 0.0477598,0.106669 0.106669,0.106669 0.0589094,0 0.106669,-0.0477598 0.106669,-0.106669l0 -0.323142 0.0777913 -0.0837795c0.0415197,-0.0447205 0.0818661,-0.0817402 0.11615,-0.113189 0.046378,-0.0425512 0.0833898,-0.0765079 0.109063,-0.114965 0.0012126,-0.00170079 0.00238976,-0.00343701 0.00351575,-0.00522835l-0.000267717 -0.000169291c0.0221654,-0.0352165 0.0388898,-0.0715039 0.0500394,-0.108791 0.0114685,-0.0383543 0.0172598,-0.0774528 0.0172598,-0.117205 0,-0.0700827 -0.015122,-0.136146 -0.045315,-0.198268 -0.0291378,-0.0599567 -0.0720591,-0.114965 -0.128705,-0.165106 -0.057315,-0.0505551 -0.12378,-0.0882953 -0.19939,-0.113157 -0.0727677,-0.0239331 -0.153433,-0.0359213 -0.241972,-0.0359213 -0.0849252,0 -0.162929,0.0119764 -0.234134,0.0359173 -0.0721063,0.0242441 -0.135654,0.0602283 -0.190768,0.107937 -0.00129921,0.00104331 -0.00258268,0.00212205 -0.00384646,0.00323622l0.0706457 0.0799173 -0.0704173 -0.0795827c-0.0555906,0.0491378 -0.0987441,0.104339 -0.129398,0.165583 -0.0310709,0.0620827 -0.0487874,0.129004 -0.0530866,0.200744z"/>
   <path id="_443101128" class="fil0" d="M1.93148 3.69166c0.0589094,0 0.106669,-0.0477598 0.106669,-0.106669 0,-0.0589094 -0.0477598,-0.106669 -0.106669,-0.106669l-0.559921 0 2.04176 -1.13228 2.04177 1.13228 -0.560031 0c-0.0589094,0 -0.106669,0.0477598 -0.106669,0.106669 0,0.0589094 0.0477598,0.106669 0.106669,0.106669l0.96998 0c0.0380472,0.000543307 0.0751575,-0.0193346 0.0949016,-0.054937 0.0285709,-0.0515157 0.00996457,-0.116445 -0.0415512,-0.145016l-0.000169291 0.000307087 -2.44555 -1.3562c-0.0321614,-0.0214921 -0.0749252,-0.0246772 -0.111079,-0.00462598l0.0517323 0.0932835 -0.0516654 -0.0929173 -2.44537 1.3561c-0.037122,0.0166929 -0.0629685,0.0539961 -0.0629685,0.0973346 0,0.0589094 0.0477598,0.106669 0.106669,0.106669l0.971488 0z"/>
   <path id="_443100888" class="fil0" d="M1.93153 3.30666l2.96359 0c0.0589094,0 0.106669,0.0477598 0.106669,0.106669l0 2.45333c0,0.0589094 -0.0477598,0.106669 -0.106669,0.106669l-2.96359 0c-0.0589094,0 -0.106669,-0.0477598 -0.106669,-0.106669l0 -2.45333c0,-0.0589094 0.0477598,-0.106669 0.106669,-0.106669zm2.85692 0.213339l-2.75025 0 0 2.24 2.75025 0 0 -2.24z"/>
  </g>
  <path class="fil1" d="M4.78845 3.52l-2.75025 0 0 2.24 2.75025 0 0 -2.1713c-4.33071e-005,-0.00122835 -6.29921e-005,-0.00246063 -6.29921e-005,-0.00370079 0,-0.00124016 1.9685e-005,-0.00247244 6.29921e-005,-0.00370079l0 -0.0612913z"/>
 </g>
 <rect class="fil2" width="6.82666" height="6.82666"/>
</svg>
