<?xml version="1.0" encoding="UTF-8"?>
<!DOCTYPE svg PUBLIC "-//W3C//DTD SVG 1.1//EN" "http://www.w3.org/Graphics/SVG/1.1/DTD/svg11.dtd">
<!-- Creator: CorelDRAW -->
<svg xmlns="http://www.w3.org/2000/svg" xml:space="preserve" width="6.82666in" height="6.82666in" style="shape-rendering:geometricPrecision; text-rendering:geometricPrecision; image-rendering:optimizeQuality; fill-rule:evenodd; clip-rule:evenodd"
viewBox="0 0 6.82666 6.82666"
 xmlns:xlink="http://www.w3.org/1999/xlink">
 <defs>
  <style type="text/css">
   <![CDATA[
    .fil3 {fill:none}
    .fil2 {fill:#949494}
    .fil1 {fill:#B38E85}
    .fil0 {fill:#333333;fill-rule:nonzero}
   ]]>
  </style>
 </defs>
 <g id="Layer_x0020_1">
  <metadata id="CorelCorpID_0Corel-Layer"/>
  <g id="_443069928">
   <path id="_443070720" class="fil0" d="M2.15442 4.10973c-0.000937008,-0.0597441 -0.0501339,-0.107417 -0.109878,-0.106484 -0.059748,0.000933071 -0.107421,0.0501299 -0.106488,0.109878 3.93701e-005,0.00235827 0.0169094,0.820803 -0.323465,1.05408l0.0610906 0.0895118 -0.0613976 -0.0895866c-0.0494764,0.0339094 -0.0620945,0.101508 -0.028189,0.150984 0.0071378,0.0104094 0.0157638,0.0191811 0.0253976,0.0262362 0.46852,0.419295 1.13607,0.62898 1.80184,0.62898 0.669724,0 1.34128,-0.212146 1.8102,-0.636433l-0.0725472 -0.0801811 0.0728661 0.0805315c0.0444764,-0.0402441 0.0479055,-0.108925 0.00766535,-0.153398 -0.00705512,-0.00779528 -0.0149803,-0.0143268 -0.0235,-0.0195866 -0.336126,-0.237016 -0.319445,-1.04879 -0.319406,-1.05114 0.000933071,-0.059748 -0.0467402,-0.108945 -0.106488,-0.109878 -0.0597441,-0.000933071 -0.108941,0.0467402 -0.109874,0.106484 -3.93701e-005,0.00246063 -0.0164921,0.781433 0.313811,1.14501 -0.421165,0.33422 -0.996138,0.501374 -1.57273,0.501374 -0.576587,0 -1.15157,-0.167146 -1.57273,-0.501374 0.330303,-0.363583 0.31385,-1.14255 0.313815,-1.14501z"/>
   <path id="_443069712" class="fil0" d="M3.86331 3.19344c-0.045689,-0.0386575 -0.114067,-0.0329606 -0.152728,0.0127283 -0.0386575,0.045689 -0.0329606,0.114067 0.0127283,0.152724l0.761772 0.643929 -2.14293 0 0.761772 -0.643929c0.045689,-0.0386575 0.0513858,-0.107035 0.0127283,-0.152724 -0.0386575,-0.045689 -0.107039,-0.0513858 -0.152728,-0.0127283l-0.982602 0.830591c-0.0267638,0.0197835 -0.044126,0.051563 -0.044126,0.0873976 0,0.0599803 0.048626,0.108606 0.108602,0.108606l2.73563 0 0 -7.87402e-006c0.0308425,-1.5748e-005 0.0614685,-0.0130866 0.0829409,-0.0384843 0.0387205,-0.0458071 0.0329764,-0.114331 -0.0128268,-0.153055l-0.000153543 0.000181102 -0.988079 -0.835228z"/>
   <path id="_443069952" class="fil0" d="M3.14252 3.16756l0.542177 0 0 -2.09702 -0.542177 0 0 2.09702zm0.650783 0.217213l-0.75939 0c-0.0599764,0 -0.108606,-0.0486299 -0.108606,-0.108606l0 -2.31423c0,-0.0599803 0.0486299,-0.108606 0.108606,-0.108606l0.75939 0c0.0599803,0 0.108606,0.048626 0.108606,0.108606l0 2.31423c0,0.0599764 -0.048626,0.108606 -0.108606,0.108606z"/>
   <path id="_443069904" class="fil0" d="M2.75167 4.12585c0.00796457,-0.0592756 -0.0336339,-0.113791 -0.0929094,-0.121756 -0.0592717,-0.00796457 -0.113787,0.0336339 -0.121752,0.0929094 -0.000480315,0.00350787 -0.16452,1.22116 -0.363504,1.4636 -0.0379528,0.0461535 -0.0313071,0.114343 0.0148465,0.152295 0.0461535,0.0379528 0.114346,0.0313071 0.152299,-0.0148465 0.238579,-0.290677 0.410524,-1.56852 0.41102,-1.5722zm1.66987 1.59973c0.0379528,0.0461535 0.106146,0.0527992 0.152299,0.0148465 0.0461535,-0.0379528 0.0527992,-0.106146 0.0148465,-0.152299 -0.196697,-0.23965 -0.29787,-1.48204 -0.298169,-1.48561 -0.00491732,-0.059748 -0.0573425,-0.104189 -0.117091,-0.0992717 -0.059748,0.00491732 -0.104189,0.0573465 -0.0992717,0.117094 0.000311024,0.00376378 0.106524,1.31178 0.347386,1.60524z"/>
   <path id="_443070072" class="fil0" d="M3.26476 4.12458c0.00726378,-0.0595118 -0.0350945,-0.113646 -0.0946063,-0.120909 -0.0595079,-0.00726378 -0.113642,0.0350945 -0.120906,0.0946063 -0.000503937,0.00413386 -0.176386,1.43933 -0.246547,1.69578 -0.0156969,0.0576339 0.0183031,0.117087 0.075937,0.132783 0.0576339,0.0157008 0.117087,-0.0182992 0.132783,-0.075937 0.075689,-0.276661 0.252831,-1.72216 0.253339,-1.72633zm0.535516 1.72882c0.0156969,0.0576339 0.0751496,0.0916339 0.132783,0.075937 0.0576339,-0.0156969 0.0916339,-0.0751535 0.075937,-0.132787 -0.0702559,-0.256803 -0.231102,-1.69287 -0.231567,-1.697 -0.00655512,-0.0595079 -0.060122,-0.102437 -0.119634,-0.095878 -0.0595079,0.00655906 -0.102437,0.060122 -0.095878,0.119634 0.000468504,0.00417717 0.162764,1.45379 0.238358,1.7301z"/>
  </g>
  <polygon class="fil1" points="3.14252,3.16756 3.6847,3.16756 3.6847,1.07054 3.14252,1.07054 "/>
  <polygon class="fil1" points="3.75393,3.38478 3.0733,3.38478 2.34215,4.00282 4.48508,4.00282 "/>
  <path class="fil2" d="M3.57291 4.22004l-0.320004 0c-0.0360039,0.287756 -0.145874,1.14918 -0.215394,1.51219 0.124142,0.0159291 0.249945,0.0238976 0.375823,0.0238976 0.120933,0 0.241799,-0.00735433 0.361185,-0.0220591 -0.0673583,-0.363303 -0.168409,-1.22464 -0.20161,-1.51402z"/>
  <path class="fil2" d="M3.79115 4.22004c0.0359882,0.312937 0.134602,1.14998 0.196693,1.47955 0.123618,-0.0248465 0.24465,-0.0578898 0.361445,-0.099122 -0.154583,-0.351157 -0.239575,-1.10854 -0.266035,-1.38043l-0.292102 0z"/>
  <path class="fil2" d="M4.30125 4.22004c0.0280276,0.287732 0.110756,1.02414 0.246012,1.30071 0.158346,-0.0721024 0.306201,-0.160772 0.438803,-0.266 -0.254378,-0.280008 -0.303094,-0.80639 -0.312028,-1.03471l-0.372787 0z"/>
  <path class="fil2" d="M2.82429 5.69662c0.0637717,-0.329181 0.170508,-1.16298 0.209823,-1.47659l-0.295988 0c-0.0393504,0.263417 -0.161311,1.01098 -0.324827,1.35681 0.131874,0.0506654 0.269697,0.0905906 0.410992,0.119776z"/>
  <path class="fil2" d="M2.21723 5.49131c0.141295,-0.274626 0.25876,-0.984382 0.301988,-1.27128l-0.366579 0c-0.00893701,0.228319 -0.0576535,0.754701 -0.312031,1.03471 0.115091,0.0913346 0.241665,0.170189 0.376622,0.236567z"/>
 </g>
 <rect class="fil3" width="6.82666" height="6.82666"/>
</svg>
