<?xml version="1.0" encoding="UTF-8"?>
<!DOCTYPE svg PUBLIC "-//W3C//DTD SVG 1.1//EN" "http://www.w3.org/Graphics/SVG/1.1/DTD/svg11.dtd">
<!-- Creator: CorelDRAW -->
<svg xmlns="http://www.w3.org/2000/svg" xml:space="preserve" width="6.82666in" height="6.82666in" style="shape-rendering:geometricPrecision; text-rendering:geometricPrecision; image-rendering:optimizeQuality; fill-rule:evenodd; clip-rule:evenodd"
viewBox="0 0 6.82666 6.82666"
 xmlns:xlink="http://www.w3.org/1999/xlink">
 <defs>
  <style type="text/css">
   <![CDATA[
    .fil5 {fill:none}
    .fil2 {fill:#63CBE5}
    .fil4 {fill:#949494}
    .fil1 {fill:#EBE5DF}
    .fil3 {fill:#FECA5F}
    .fil0 {fill:#333333;fill-rule:nonzero}
   ]]>
  </style>
 </defs>
 <g id="Layer_x0020_1">
  <metadata id="CorelCorpID_0Corel-Layer"/>
  <g id="_443071680">
   <path id="_443073000" class="fil0" d="M2.05029 1.85927c0.309717,0 0.591689,0.0322717 0.797201,0.084437 0.246996,0.0627047 0.399764,0.167114 0.399764,0.298354 0,0.131244 -0.152768,0.235654 -0.399764,0.298354 -0.205512,0.0521693 -0.487484,0.084437 -0.797201,0.084437 -0.309717,0 -0.591685,-0.0322677 -0.797197,-0.084437 -0.246996,-0.0627008 -0.399764,-0.16711 -0.399764,-0.298354 0,-0.13124 0.152768,-0.23565 0.399764,-0.298354 0.205512,-0.0521654 0.48748,-0.084437 0.797197,-0.084437zm0.745961 0.289402c-0.189417,-0.0480787 -0.453039,-0.0778268 -0.745961,-0.0778268 -0.292921,0 -0.556543,0.029748 -0.745957,0.0778268 -0.147933,0.0375512 -0.239429,0.0716535 -0.239429,0.0933898 0,0.0217362 0.0914961,0.0558386 0.239429,0.0933937 0.189413,0.0480787 0.453035,0.0778228 0.745957,0.0778228 0.292921,0 0.556543,-0.0297441 0.745961,-0.0778228 0.147933,-0.0375551 0.239429,-0.0716575 0.239429,-0.0933937 0,-0.0217362 -0.0914961,-0.0558386 -0.239429,-0.0933898z"/>
   <path id="_443072112" class="fil0" d="M1.16142 2.34346c-0.00912598,-0.0575118 -0.0631535,-0.0967323 -0.120661,-0.0876063 -0.0575079,0.00912598 -0.0967283,0.0631496 -0.0876063,0.120661l0.296898 1.84967c0.00548819,0.180283 0.221783,0.287933 0.497677,0.328591 0.0945394,0.0139252 0.196248,0.0208976 0.297197,0.0208976 0.100953,0 0.202657,-0.00697244 0.297197,-0.0208976 0.275484,-0.0405984 0.491563,-0.147984 0.497665,-0.327783l0.307654 -1.85603c0.00935433,-0.0575079 -0.029685,-0.111717 -0.0871929,-0.121071 -0.0575079,-0.00935827 -0.11172,0.0296811 -0.121075,0.087189l-0.307803 1.85693c-0.00196457,0.00805906 -0.00301575,0.0164803 -0.00301575,0.0251457 0,0.0561654 -0.138961,0.100315 -0.316815,0.126524 -0.0833031,0.0122717 -0.174583,0.0184134 -0.266614,0.0184134 -0.0920276,0 -0.183315,-0.00614173 -0.266618,-0.0184134 -0.177669,-0.0261811 -0.316516,-0.0702677 -0.316803,-0.126346 3.93701e-006,-0.00559055 -0.000433071,-0.011252 -0.00134646,-0.0169449l-0.000350394 5.51181e-005 -0.298386 -1.85898z"/>
   <path id="_443071992" class="fil0" d="M3.03583 2.22242c0.00159449,0.0581969 0.0500709,0.104079 0.108268,0.10248 0.0581969,-0.00159843 0.104075,-0.0500709 0.10248,-0.108268 -0.0179882,-0.627945 -0.314547,-1.03617 -0.69287,-1.22318 -0.158709,-0.0784488 -0.331236,-0.117677 -0.503421,-0.117677 -0.172181,0 -0.344709,0.0392283 -0.503417,0.117677 -0.378327,0.187008 -0.674882,0.595236 -0.692866,1.22318 -0.00159843,0.0581969 0.0442835,0.106669 0.10248,0.108268 0.0581969,0.00159843 0.106673,-0.0442835 0.108268,-0.10248 0.0154213,-0.538488 0.261657,-0.884571 0.575508,-1.0397 0.128602,-0.0635709 0.26915,-0.0953622 0.410028,-0.0953622 0.140882,0 0.281429,0.0317913 0.410031,0.0953622 0.31385,0.155134 0.560087,0.501213 0.575512,1.0397z"/>
   <path id="_443072064" class="fil0" d="M3.84833 3.5707l1.68999 0c0.10228,0 0.195189,0.0417717 0.262484,0.109055 0.0672835,0.0672953 0.109055,0.160209 0.109055,0.262484l0 0.265756c0,0.0584213 -0.0473661,0.105787 -0.105787,0.105787l-2.22149 0c-0.0584213,0 -0.105787,-0.0473661 -0.105787,-0.105787l0 -0.265756c0,-0.102276 0.0417677,-0.195189 0.109055,-0.262484 0.0672953,-0.0672835 0.160209,-0.109055 0.262484,-0.109055zm1.68999 0.211575l-1.68999 0c-0.0438858,0 -0.0838543,0.0180315 -0.112898,0.0470709 -0.0290354,0.0290394 -0.0470669,0.0690118 -0.0470669,0.112894l0 0.159965 2.00991 0 0 -0.159965c0,-0.0438819 -0.0180276,-0.0838543 -0.0470669,-0.112894 -0.0290433,-0.0290394 -0.0690118,-0.0470709 -0.112894,-0.0470709z"/>
   <path id="_443072232" class="fil0" d="M3.75031 4.208c0,-0.0292126 -0.023685,-0.0528937 -0.0528937,-0.0528937 -0.0292087,0 -0.0528937,0.0236811 -0.0528937,0.0528937l0 0.316728c0,0.0292126 0.023685,0.0528976 0.0528937,0.0528976 0.0292087,0 0.0528937,-0.023685 0.0528937,-0.0528976l0 -0.316728z"/>
   <path id="_443072208" class="fil0" d="M4.82282 4.208c0,-0.0292126 -0.023685,-0.0528937 -0.0528937,-0.0528937 -0.0292126,0 -0.0528937,0.0236811 -0.0528937,0.0528937l0 0.316728c0,0.0292126 0.0236811,0.0528976 0.0528937,0.0528976 0.0292087,0 0.0528937,-0.023685 0.0528937,-0.0528976l0 -0.316728z"/>
   <path id="_443071752" class="fil0" d="M3.90353 4.208c0,-0.0292126 -0.023685,-0.0528937 -0.0528937,-0.0528937 -0.0292087,0 -0.0528937,0.0236811 -0.0528937,0.0528937l0 0.316728c0,0.0292126 0.023685,0.0528976 0.0528937,0.0528976 0.0292087,0 0.0528937,-0.023685 0.0528937,-0.0528976l0 -0.316728z"/>
   <path id="_443072424" class="fil0" d="M4.97604 4.208c0,-0.0292126 -0.023685,-0.0528937 -0.0528937,-0.0528937 -0.0292126,0 -0.0528976,0.0236811 -0.0528976,0.0528937l0 0.316728c0,0.0292126 0.023685,0.0528976 0.0528976,0.0528976 0.0292087,0 0.0528937,-0.023685 0.0528937,-0.0528976l0 -0.316728z"/>
   <path id="_443072328" class="fil0" d="M4.05674 4.208c0,-0.0292126 -0.023685,-0.0528937 -0.0528937,-0.0528937 -0.0292126,0 -0.0528976,0.0236811 -0.0528976,0.0528937l0 0.316728c0,0.0292126 0.023685,0.0528976 0.0528976,0.0528976 0.0292087,0 0.0528937,-0.023685 0.0528937,-0.0528976l0 -0.316728z"/>
   <path id="_443071848" class="fil0" d="M5.12924 4.208c0,-0.0292126 -0.0236811,-0.0528937 -0.0528937,-0.0528937 -0.0292087,0 -0.0528937,0.0236811 -0.0528937,0.0528937l0 0.316728c0,0.0292126 0.023685,0.0528976 0.0528937,0.0528976 0.0292126,0 0.0528937,-0.023685 0.0528937,-0.0528976l0 -0.316728z"/>
   <path id="_443071896" class="fil0" d="M4.20996 4.208c0,-0.0292126 -0.0236811,-0.0528937 -0.0528937,-0.0528937 -0.0292087,0 -0.0528937,0.0236811 -0.0528937,0.0528937l0 0.316728c0,0.0292126 0.023685,0.0528976 0.0528937,0.0528976 0.0292126,0 0.0528937,-0.023685 0.0528937,-0.0528976l0 -0.316728z"/>
   <path id="_443071512" class="fil0" d="M5.28246 4.208c0,-0.0292126 -0.023685,-0.0528937 -0.0528937,-0.0528937 -0.0292087,0 -0.0528937,0.0236811 -0.0528937,0.0528937l0 0.316728c0,0.0292126 0.023685,0.0528976 0.0528937,0.0528976 0.0292087,0 0.0528937,-0.023685 0.0528937,-0.0528976l0 -0.316728z"/>
   <path id="_443070936" class="fil0" d="M4.36317 4.208c0,-0.0292126 -0.023685,-0.0528937 -0.0528937,-0.0528937 -0.0292087,0 -0.0528937,0.0236811 -0.0528937,0.0528937l0 0.316728c0,0.0292126 0.023685,0.0528976 0.0528937,0.0528976 0.0292087,0 0.0528937,-0.023685 0.0528937,-0.0528976l0 -0.316728z"/>
   <path id="_443071056" class="fil0" d="M5.43568 4.208c0,-0.0292126 -0.023685,-0.0528937 -0.0528937,-0.0528937 -0.0292087,0 -0.0528937,0.0236811 -0.0528937,0.0528937l0 0.316728c0,0.0292126 0.023685,0.0528976 0.0528937,0.0528976 0.0292087,0 0.0528937,-0.023685 0.0528937,-0.0528976l0 -0.316728z"/>
   <path id="_443071032" class="fil0" d="M4.51639 4.208c0,-0.0292126 -0.023685,-0.0528937 -0.0528937,-0.0528937 -0.0292087,0 -0.0528937,0.0236811 -0.0528937,0.0528937l0 0.316728c0,0.0292126 0.023685,0.0528976 0.0528937,0.0528976 0.0292087,0 0.0528937,-0.023685 0.0528937,-0.0528976l0 -0.316728z"/>
   <path id="_443071368" class="fil0" d="M5.58889 4.208c0,-0.0292126 -0.023685,-0.0528937 -0.0528937,-0.0528937 -0.0292087,0 -0.0528937,0.0236811 -0.0528937,0.0528937l0 0.316728c0,0.0292126 0.023685,0.0528976 0.0528937,0.0528976 0.0292087,0 0.0528937,-0.023685 0.0528937,-0.0528976l0 -0.316728z"/>
   <path id="_443071536" class="fil0" d="M4.6696 4.208c0,-0.0292126 -0.023685,-0.0528937 -0.0528937,-0.0528937 -0.0292087,0 -0.0528937,0.0236811 -0.0528937,0.0528937l0 0.316728c0,0.0292126 0.023685,0.0528976 0.0528937,0.0528976 0.0292087,0 0.0528937,-0.023685 0.0528937,-0.0528976l0 -0.316728z"/>
   <path id="_443070984" class="fil0" d="M5.74211 4.208c0,-0.0292126 -0.023685,-0.0528937 -0.0528937,-0.0528937 -0.0292126,0 -0.0528937,0.0236811 -0.0528937,0.0528937l0 0.316728c0,0.0292126 0.0236811,0.0528976 0.0528937,0.0528976 0.0292087,0 0.0528937,-0.023685 0.0528937,-0.0528976l0 -0.316728z"/>
   <path id="_443071320" class="fil0" d="M5.86754 5.95088l-4.86612 0c-0.0584213,0 -0.105787,-0.0473661 -0.105787,-0.105787l0 -0.658976c0,-0.0584213 0.0473661,-0.105787 0.105787,-0.105787l4.86612 0c0.0584252,0 0.105787,0.0473661 0.105787,0.105787l0 0.658976c0,0.0584213 -0.0473622,0.105787 -0.105787,0.105787zm-4.76033 -0.211575l4.65455 0 0 -0.447402 -4.65455 0 0 0.447402z"/>
  </g>
  <path class="fil1" d="M2.63137 4.19401l0.27689 -1.67044c-0.0195512,0.00590945 -0.0398189,0.0115276 -0.0607638,0.0168425 -0.205512,0.0521693 -0.487484,0.084437 -0.797201,0.084437 -0.309717,0 -0.591685,-0.0322677 -0.797197,-0.084437 -0.0216969,-0.00550787 -0.0426654,-0.0113386 -0.0628701,-0.0174803l0.269579 1.67951 0.000350394 -5.51181e-005c0.000913386,0.00569291 0.00135039,0.0113543 0.00134646,0.0169449 0.000287402,0.0560787 0.139134,0.100165 0.316803,0.126346 0.0833031,0.0122717 0.174591,0.0184134 0.266618,0.0184134 0.0920315,0 0.183311,-0.00614173 0.266614,-0.0184134 0.177854,-0.0262087 0.316815,-0.0703583 0.316815,-0.126524 0,-0.00866535 0.00105118,-0.0170866 0.00301575,-0.0251457z"/>
  <path class="fil2" d="M2.05029 2.41328c0.292921,0 0.556543,-0.0297441 0.745961,-0.0778228 0.0687756,-0.0174606 0.12535,-0.0341732 0.166209,-0.0492441 0.0175039,-0.0208268 0.0427323,-0.0344803 0.0704646,-0.0372047 0.00182283,-0.00243307 0.00275591,-0.00475197 0.00275591,-0.00694488 0,-0.0217362 -0.0914961,-0.0558386 -0.239429,-0.0933898 -0.189417,-0.0480787 -0.453039,-0.0778268 -0.745961,-0.0778268 -0.292921,0 -0.556543,0.029748 -0.745957,0.0778268 -0.147933,0.0375512 -0.239429,0.0716535 -0.239429,0.0933898 0,0.00420866 0.00343307,0.00888583 0.0100433,0.0139567 0.0204803,0.00348031 0.0392795,0.0129488 0.0541811,0.0268031 0.0413661,0.015937 0.101228,0.0338543 0.175205,0.0526339 0.189413,0.0480787 0.453035,0.0778228 0.745957,0.0778228z"/>
  <path class="fil3" d="M5.53831 3.78228l-1.68999 0c-0.0438858,0 -0.0838543,0.0180315 -0.112898,0.0470709 -0.0290354,0.0290394 -0.0470669,0.0690118 -0.0470669,0.112894l0 0.159965 2.00991 0 0 -0.159965c0,-0.0438819 -0.0180276,-0.0838543 -0.0470669,-0.112894 -0.0290433,-0.0290394 -0.0690118,-0.0470709 -0.112894,-0.0470709z"/>
  <polygon class="fil4" points="5.76175,5.29191 1.1072,5.29191 1.1072,5.73931 5.76175,5.73931 "/>
 </g>
 <rect class="fil5" width="6.82666" height="6.82666"/>
</svg>
