<?xml version="1.0" encoding="UTF-8"?>
<!DOCTYPE svg PUBLIC "-//W3C//DTD SVG 1.1//EN" "http://www.w3.org/Graphics/SVG/1.1/DTD/svg11.dtd">
<!-- Creator: CorelDRAW -->
<svg xmlns="http://www.w3.org/2000/svg" xml:space="preserve" width="6.82666in" height="6.82666in" style="shape-rendering:geometricPrecision; text-rendering:geometricPrecision; image-rendering:optimizeQuality; fill-rule:evenodd; clip-rule:evenodd"
viewBox="0 0 6.82666 6.82666"
 xmlns:xlink="http://www.w3.org/1999/xlink">
 <defs>
  <style type="text/css">
   <![CDATA[
    .fil3 {fill:none}
    .fil1 {fill:#333333}
    .fil2 {fill:#F19A7B}
    .fil0 {fill:#333333;fill-rule:nonzero}
   ]]>
  </style>
 </defs>
 <g id="Layer_x0020_1">
  <metadata id="CorelCorpID_0Corel-Layer"/>
  <g id="_443074104">
   <path id="_443074872" class="fil0" d="M3.41333 5.9121l-2.45333 0c-0.0589094,0 -0.106669,-0.0477598 -0.106669,-0.106669 0,-0.706909 0.286543,-1.34691 0.749815,-1.81019 0.463276,-0.463272 1.10328,-0.749815 1.81019,-0.749815 0.706909,0 1.34691,0.286543 1.81019,0.749815 0.463272,0.463276 0.749815,1.10328 0.749815,1.81019 0,0.0589094 -0.0477598,0.106669 -0.106669,0.106669l-2.45333 0zm-2.34423 -0.213339l2.34423 0 2.34423 0c-0.0270945,-0.605587 -0.283657,-1.15145 -0.684882,-1.55268 -0.424657,-0.424654 -1.01133,-0.687311 -1.65935,-0.687311 -0.648024,0 -1.23469,0.262657 -1.65935,0.687311 -0.401224,0.401228 -0.657787,0.947094 -0.684882,1.55268z"/>
   <path id="_443075424" class="fil0" d="M1.50933 5.80543c0,0.0589094 0.0477598,0.106669 0.106669,0.106669 0.0589094,0 0.106669,-0.0477598 0.106669,-0.106669 0,-0.451673 0.188756,-0.860626 0.493925,-1.15667 0.305882,-0.296736 0.728969,-0.480276 1.19674,-0.480276 0.467776,0 0.890866,0.183539 1.19674,0.480276 0.305169,0.296047 0.493925,0.705004 0.493925,1.15667 0,0.0589094 0.0477598,0.106669 0.106669,0.106669 0.0589094,0 0.106669,-0.0477598 0.106669,-0.106669 0,-0.511287 -0.213598,-0.974161 -0.558933,-1.30918 -0.344622,-0.334319 -0.820213,-0.54111 -1.34507,-0.54111 -0.524858,0 -1.00045,0.206787 -1.34507,0.54111 -0.345335,0.335016 -0.558933,0.797878 -0.558933,1.30918z"/>
   <path id="_443075232" class="fil0" d="M3.67387 3.34595c0,0.0589094 0.0477598,0.106669 0.106669,0.106669 0.0589094,0 0.106669,-0.0477598 0.106669,-0.106669l0 -1.96039c0,-0.22539 -0.124606,-0.370425 -0.284098,-0.434528 -0.0605039,-0.0243189 -0.125457,-0.0364843 -0.18978,-0.0364843 -0.0643228,0 -0.129276,0.0121614 -0.18978,0.0364803 -0.159484,0.0641063 -0.284094,0.209142 -0.284094,0.434531l0 1.96039c0,0.0589094 0.0477598,0.106669 0.106669,0.106669 0.0589094,0 0.106669,-0.0477598 0.106669,-0.106669l0 -1.96039c0,-0.12437 0.0657598,-0.203201 0.149921,-0.237028 0.0342402,-0.0137598 0.072126,-0.0206457 0.110614,-0.0206457 0.0384882,0 0.0763701,0.00688583 0.110614,0.0206496 0.0841654,0.0338268 0.149925,0.112654 0.149925,0.237024l0 1.96039z"/>
   <circle id="_443075520" class="fil1" cx="3.41333" cy="1.40798" r="0.101051"/>
  </g>
  <path class="fil2" d="M3.51438 1.40798c0,0.0558071 -0.0452441,0.101051 -0.101051,0.101051 -0.0558071,0 -0.101051,-0.0452441 -0.101051,-0.101051 0,-0.0558071 0.0452441,-0.101051 0.101051,-0.101051 0.0558071,0 0.101051,0.0452441 0.101051,0.101051zm-0.101051 1.83745c0.0879528,0 0.174866,0.00443701 0.260535,0.0130945l0 -1.87296c0,-0.12437 -0.0657598,-0.203197 -0.149925,-0.237024 -0.0342441,-0.0137638 -0.072126,-0.0206496 -0.110614,-0.0206496 -0.0384882,0 -0.076374,0.00688583 -0.110614,0.0206457 -0.0841614,0.0338268 -0.149921,0.112657 -0.149921,0.237028l0 1.87296c0.0856693,-0.00865748 0.172587,-0.0130945 0.260539,-0.0130945z"/>
  <path class="fil2" d="M5.07268 4.14608c-0.424657,-0.424654 -1.01133,-0.687311 -1.65935,-0.687311 -0.648024,0 -1.23469,0.262657 -1.65935,0.687311 -0.401224,0.401228 -0.657787,0.947094 -0.684882,1.55268l0.443343 0c0.0274449,-0.468823 0.234665,-0.890949 0.555819,-1.2025 0.344626,-0.334323 0.820217,-0.54111 1.34507,-0.54111 0.524858,0 1.00045,0.206791 1.34507,0.54111 0.321154,0.311555 0.52837,0.733689 0.555819,1.2025l0.443339 0c-0.0270945,-0.605587 -0.283657,-1.15145 -0.684882,-1.55268z"/>
  <path class="fil2" d="M4.61007 4.64876c-0.305874,-0.296736 -0.728965,-0.480276 -1.19674,-0.480276 -0.467776,0 -0.890862,0.183539 -1.19674,0.480276 -0.280957,0.272559 -0.46324,0.640815 -0.490398,1.05l1.68714 0 1.68714 0c-0.0271614,-0.409185 -0.209441,-0.777445 -0.490398,-1.05z"/>
 </g>
 <rect class="fil3" width="6.82666" height="6.82666"/>
</svg>
