<?xml version="1.0" encoding="UTF-8"?>
<!DOCTYPE svg PUBLIC "-//W3C//DTD SVG 1.1//EN" "http://www.w3.org/Graphics/SVG/1.1/DTD/svg11.dtd">
<!-- Creator: CorelDRAW -->
<svg xmlns="http://www.w3.org/2000/svg" xml:space="preserve" width="6.82666in" height="6.82666in" style="shape-rendering:geometricPrecision; text-rendering:geometricPrecision; image-rendering:optimizeQuality; fill-rule:evenodd; clip-rule:evenodd"
viewBox="0 0 6.82666 6.82666"
 xmlns:xlink="http://www.w3.org/1999/xlink">
 <defs>
  <style type="text/css">
   <![CDATA[
    .fil2 {fill:none}
    .fil1 {fill:#9DD5C0}
    .fil0 {fill:#333333;fill-rule:nonzero}
   ]]>
  </style>
 </defs>
 <g id="Layer_x0020_1">
  <metadata id="CorelCorpID_0Corel-Layer"/>
  <g id="_443076168">
   <path id="_443077656" class="fil0" d="M1.97836 2.39421l2.86994 0c0.105815,0 0.201945,0.0432205 0.271563,0.112839 0.069622,0.069622 0.112843,0.165756 0.112843,0.271567l0 0.462898c0,0.0589094 -0.0477598,0.106669 -0.106669,0.106669l-3.42542 0c-0.0589094,0 -0.106669,-0.0477598 -0.106669,-0.106669l0 -0.462898c0,-0.105823 0.0432165,-0.201949 0.112839,-0.271567 0.0696181,-0.069622 0.165744,-0.112839 0.271567,-0.112839zm2.86994 0.213339l-2.86994 0c-0.0469291,0 -0.0896772,0.0192795 -0.120732,0.0503346 -0.0310551,0.0310551 -0.0503346,0.0738031 -0.0503346,0.120732l0 0.356228 3.21208 0 0 -0.356228c0,-0.0469252 -0.0192835,-0.0896772 -0.0503386,-0.120732 -0.0310512,-0.0310512 -0.0737992,-0.0503346 -0.120728,-0.0503346z"/>
   <path id="_443077056" class="fil0" d="M1.21337 3.13484l0.0102717 0 0 -0.356224c0,-0.207657 0.084878,-0.396366 0.221614,-0.533106 0.13674,-0.136736 0.325449,-0.221614 0.533102,-0.221614l2.86994 0c0.207654,0 0.396358,0.0848819 0.533098,0.221618 0.13674,0.13674 0.221618,0.325453 0.221618,0.533102l0 0.356224 0.0102717 0c0.0991181,0 0.189157,0.0404803 0.254358,0.105681 0.0652087,0.0652047 0.105685,0.15524 0.105685,0.254358l0 0.48726c0,0.0589094 -0.0477598,0.106669 -0.106669,0.106669l-4.90667 0c-0.0589094,0 -0.106669,-0.0477598 -0.106669,-0.106669l0 -0.48726c0,-0.0991181 0.0404764,-0.189157 0.105681,-0.254362 0.0652008,-0.0652008 0.155244,-0.105677 0.254362,-0.105677zm0.116941 0.213339l-0.116941 0c-0.0402323,0 -0.0768937,0.0165394 -0.103528,0.0431732 -0.0266378,0.0266378 -0.0431772,0.0632953 -0.0431772,0.103528l0 0.380591 4.69333 0 0 -0.380591c0,-0.0402283 -0.0165394,-0.0768858 -0.0431811,-0.103524 -0.0266378,-0.0266378 -0.0632913,-0.0431772 -0.103524,-0.0431772l-0.116941 0c-0.0589094,0 -0.106669,-0.0477598 -0.106669,-0.106669l0 -0.462894c0,-0.148764 -0.0609409,-0.284094 -0.159114,-0.382268 -0.0981732,-0.0981693 -0.233496,-0.159114 -0.382264,-0.159114l-2.86994 0c-0.148768,0 -0.284094,0.0609409 -0.382268,0.15911 -0.0981693,0.0981732 -0.15911,0.2335 -0.15911,0.382272l0 0.462894c0,0.0589094 -0.0477598,0.106669 -0.106669,0.106669z"/>
   <path id="_443076888" class="fil0" d="M1.25661 3.98214c0,-0.0441811 -0.0358189,-0.08 -0.08,-0.08 -0.0441811,0 -0.08,0.0358189 -0.08,0.08l0 0.740626c0,0.0441811 0.0358189,0.08 0.08,0.08 0.0441811,0 0.08,-0.0358189 0.08,-0.08l0 -0.740626z"/>
   <path id="_443076816" class="fil0" d="M3.6249 3.98214c0,-0.0441811 -0.0358189,-0.08 -0.08,-0.08 -0.0441811,0 -0.08,0.0358189 -0.08,0.08l0 0.740626c0,0.0441811 0.0358189,0.08 0.08,0.08 0.0441811,0 0.08,-0.0358189 0.08,-0.08l0 -0.740626z"/>
   <path id="_443076984" class="fil0" d="M1.51975 3.98214c0,-0.0441811 -0.0358189,-0.08 -0.08,-0.08 -0.0441811,0 -0.08,0.0358189 -0.08,0.08l0 0.740626c0,0.0441811 0.0358189,0.08 0.08,0.08 0.0441811,0 0.08,-0.0358189 0.08,-0.08l0 -0.740626z"/>
   <path id="_443076696" class="fil0" d="M3.88804 3.98214c0,-0.0441811 -0.0358189,-0.08 -0.08,-0.08 -0.0441811,0 -0.08,0.0358189 -0.08,0.08l0 0.740626c0,0.0441811 0.0358189,0.08 0.08,0.08 0.0441811,0 0.08,-0.0358189 0.08,-0.08l0 -0.740626z"/>
   <path id="_443076360" class="fil0" d="M1.78289 3.98214c0,-0.0441811 -0.0358189,-0.08 -0.08,-0.08 -0.0441811,0 -0.08,0.0358189 -0.08,0.08l0 0.740626c0,0.0441811 0.0358189,0.08 0.08,0.08 0.0441811,0 0.08,-0.0358189 0.08,-0.08l0 -0.740626z"/>
   <path id="_443076648" class="fil0" d="M4.15119 3.98214c0,-0.0441811 -0.0358189,-0.08 -0.08,-0.08 -0.0441811,0 -0.08,0.0358189 -0.08,0.08l0 0.740626c0,0.0441811 0.0358189,0.08 0.08,0.08 0.0441811,0 0.08,-0.0358189 0.08,-0.08l0 -0.740626z"/>
   <path id="_443076624" class="fil0" d="M2.04604 3.98214c0,-0.0441811 -0.0358189,-0.08 -0.08,-0.08 -0.0441811,0 -0.08,0.0358189 -0.08,0.08l0 0.740626c0,0.0441811 0.0358189,0.08 0.08,0.08 0.0441811,0 0.08,-0.0358189 0.08,-0.08l0 -0.740626z"/>
   <path id="_443076552" class="fil0" d="M4.41433 3.98214c0,-0.0441811 -0.0358189,-0.08 -0.08,-0.08 -0.0441811,0 -0.08,0.0358189 -0.08,0.08l0 0.740626c0,0.0441811 0.0358189,0.08 0.08,0.08 0.0441811,0 0.08,-0.0358189 0.08,-0.08l0 -0.740626z"/>
   <path id="_443077008" class="fil0" d="M2.30918 3.98214c0,-0.0441811 -0.0358189,-0.08 -0.08,-0.08 -0.0441811,0 -0.08,0.0358189 -0.08,0.08l0 0.740626c0,0.0441811 0.0358189,0.08 0.08,0.08 0.0441811,0 0.08,-0.0358189 0.08,-0.08l0 -0.740626z"/>
   <path id="_443076072" class="fil0" d="M4.67748 3.98214c0,-0.0441811 -0.0358189,-0.08 -0.08,-0.08 -0.0441811,0 -0.08,0.0358189 -0.08,0.08l0 0.740626c0,0.0441811 0.0358189,0.08 0.08,0.08 0.0441811,0 0.08,-0.0358189 0.08,-0.08l0 -0.740626z"/>
   <path id="_443075856" class="fil0" d="M2.57232 3.98214c0,-0.0441811 -0.0358189,-0.08 -0.08,-0.08 -0.0441811,0 -0.08,0.0358189 -0.08,0.08l0 0.740626c0,0.0441811 0.0358189,0.08 0.08,0.08 0.0441811,0 0.08,-0.0358189 0.08,-0.08l0 -0.740626z"/>
   <path id="_443075784" class="fil0" d="M4.94062 3.98214c0,-0.0441811 -0.0358189,-0.08 -0.08,-0.08 -0.0441811,0 -0.08,0.0358189 -0.08,0.08l0 0.740626c0,0.0441811 0.0358189,0.08 0.08,0.08 0.0441811,0 0.08,-0.0358189 0.08,-0.08l0 -0.740626z"/>
   <path id="_443075976" class="fil0" d="M2.83547 3.98214c0,-0.0441811 -0.0358189,-0.08 -0.08,-0.08 -0.0441811,0 -0.08,0.0358189 -0.08,0.08l0 0.740626c0,0.0441811 0.0358189,0.08 0.08,0.08 0.0441811,0 0.08,-0.0358189 0.08,-0.08l0 -0.740626z"/>
   <path id="_443076000" class="fil0" d="M5.20376 3.98214c0,-0.0441811 -0.0358189,-0.08 -0.08,-0.08 -0.0441811,0 -0.08,0.0358189 -0.08,0.08l0 0.740626c0,0.0441811 0.0358189,0.08 0.08,0.08 0.0441811,0 0.08,-0.0358189 0.08,-0.08l0 -0.740626z"/>
   <path id="_443075640" class="fil0" d="M3.09861 3.98214c0,-0.0441811 -0.0358189,-0.08 -0.08,-0.08 -0.0441811,0 -0.08,0.0358189 -0.08,0.08l0 0.740626c0,0.0441811 0.0358189,0.08 0.08,0.08 0.0441811,0 0.08,-0.0358189 0.08,-0.08l0 -0.740626z"/>
   <path id="_443075568" class="fil0" d="M5.46691 3.98214c0,-0.0441811 -0.0358189,-0.08 -0.08,-0.08 -0.0441811,0 -0.08,0.0358189 -0.08,0.08l0 0.740626c0,0.0441811 0.0358189,0.08 0.08,0.08 0.0441811,0 0.08,-0.0358189 0.08,-0.08l0 -0.740626z"/>
   <path id="_443076048" class="fil0" d="M3.36176 3.98214c0,-0.0441811 -0.0358189,-0.08 -0.08,-0.08 -0.0441811,0 -0.08,0.0358189 -0.08,0.08l0 0.740626c0,0.0441811 0.0358189,0.08 0.08,0.08 0.0441811,0 0.08,-0.0358189 0.08,-0.08l0 -0.740626z"/>
   <path id="_443075664" class="fil0" d="M5.73006 3.98214c0,-0.0441811 -0.0358189,-0.08 -0.08,-0.08 -0.0441811,0 -0.08,0.0358189 -0.08,0.08l0 0.740626c0,0.0441811 0.0358189,0.08 0.08,0.08 0.0441811,0 0.08,-0.0358189 0.08,-0.08l0 -0.740626z"/>
  </g>
  <path class="fil1" d="M1.06667 3.87547l4.69333 0 0 -0.380591c0,-0.0402283 -0.0165394,-0.0768858 -0.0431811,-0.103524 -0.0266378,-0.0266378 -0.0632913,-0.0431772 -0.103524,-0.0431772l-0.116941 0c-0.0589094,0 -0.106669,-0.0477598 -0.106669,-0.106669l0 -0.462894c0,-0.148764 -0.0609409,-0.284094 -0.159114,-0.382268 -0.0981732,-0.0981693 -0.233496,-0.159114 -0.382264,-0.159114l-2.86994 0c-0.148768,0 -0.284094,0.0609409 -0.382268,0.15911 -0.0981693,0.0981732 -0.15911,0.2335 -0.15911,0.382272l0 0.462894c0,0.0589094 -0.0477598,0.106669 -0.106669,0.106669l-0.116941 0c-0.0402323,0 -0.0768937,0.0165394 -0.103528,0.0431732 -0.0266378,0.0266378 -0.0431772,0.0632953 -0.0431772,0.103528l0 0.380591zm4.05937 -0.527291l-3.42542 0c-0.0589094,0 -0.106669,-0.0477598 -0.106669,-0.106669l0 -0.462898c0,-0.105823 0.0432165,-0.201949 0.112839,-0.271567 0.0696181,-0.069622 0.165744,-0.112839 0.271567,-0.112839l2.86994 0c0.105815,0 0.201945,0.0432205 0.271563,0.112839 0.069622,0.069622 0.112843,0.165756 0.112843,0.271567l0 0.462898c0,0.0589094 -0.0477598,0.106669 -0.106669,0.106669z"/>
 </g>
 <rect class="fil2" width="6.82666" height="6.82666"/>
</svg>
