<?xml version="1.0" encoding="UTF-8"?>
<!DOCTYPE svg PUBLIC "-//W3C//DTD SVG 1.1//EN" "http://www.w3.org/Graphics/SVG/1.1/DTD/svg11.dtd">
<!-- Creator: CorelDRAW -->
<svg xmlns="http://www.w3.org/2000/svg" xml:space="preserve" width="6.82666in" height="6.82666in" style="shape-rendering:geometricPrecision; text-rendering:geometricPrecision; image-rendering:optimizeQuality; fill-rule:evenodd; clip-rule:evenodd"
viewBox="0 0 6.82666 6.82666"
 xmlns:xlink="http://www.w3.org/1999/xlink">
 <defs>
  <style type="text/css">
   <![CDATA[
    .fil4 {fill:none}
    .fil2 {fill:#63CBE5}
    .fil3 {fill:#EBE5DF}
    .fil1 {fill:#FECA5F}
    .fil0 {fill:#333333;fill-rule:nonzero}
   ]]>
  </style>
 </defs>
 <g id="Layer_x0020_1">
  <metadata id="CorelCorpID_0Corel-Layer"/>
  <g id="_443077968">
   <path id="_443078808" class="fil0" d="M3.8895 2.52659c0.0219173,0.00646457 0.044626,0.0129291 0.0675787,0.0194646 0.370724,0.105571 0.800004,0.227819 0.871783,1.08876l5.51181e-005 -3.93701e-006c0.00108661,0.013063 -0.000228346,0.0257717 -0.00357874,0.0376929l-0.474657 2.21626 -0.104165 -0.0220827 0.104303 0.0223386c-0.0108425,0.0506417 -0.0559843,0.0851181 -0.105878,0.0843307l-1.66478 0c-0.0535039,0 -0.0978031,-0.0393937 -0.105488,-0.0907598l-0.474732 -2.21662 -0.000185039 3.93701e-005c-0.00261417,-0.0122087 -0.00301575,-0.0243819 -0.00149213,-0.0360945 0.0730118,-0.856457 0.501323,-0.978496 0.871335,-1.08386 0.0229528,-0.00653543 0.0456614,-0.013 0.0675787,-0.0194646l0 -0.468728c0,-0.0589094 0.0477598,-0.106669 0.106669,-0.106669l0.738984 0c0.0589094,0 0.106669,0.0477598 0.106669,0.106669l0 0.468728zm0.00924803 0.224465c-0.0479213,-0.0136417 -0.0947953,-0.0269961 -0.143244,-0.0431654 -0.0456693,-0.0120709 -0.0793425,-0.0536693 -0.0793425,-0.10313l0 -0.440228 -0.525646 0 0 0.438217c0.000862205,0.0452441 -0.0273465,0.0877874 -0.0724921,0.103055l-6.29921e-005 -0.000188976c-0.0508701,0.0172008 -0.099874,0.0311614 -0.150031,0.0454409 -0.302839,0.0862362 -0.653126,0.186114 -0.716272,0.886567l0.454555 2.12239 1.49425 0 0.454555 -2.12239c-0.0631457,-0.700453 -0.413433,-0.800331 -0.716272,-0.886567z"/>
   <path id="_443078784" class="fil0" d="M3.52 1.34371c0,-0.0589094 -0.0477598,-0.106669 -0.106669,-0.106669 -0.0589094,0 -0.106669,0.0477598 -0.106669,0.106669l0 0.714154c0,0.0589094 0.0477598,0.106669 0.106669,0.106669 0.0589094,0 0.106669,-0.0477598 0.106669,-0.106669l0 -0.714154z"/>
   <path id="_443077992" class="fil0" d="M3.03822 1.40247c-0.0794764,-0.0103701 -0.120717,-0.0467126 -0.116933,-0.115028 1.1811e-005,-0.0025 0.000110236,-0.00501575 0.000299213,-0.00754331l0.000122047 7.87402e-006c0.0265512,-0.352161 0.299992,-0.447256 0.621248,-0.423071 0.216969,0.0163346 0.457846,0.0911969 0.642508,0.171787 0.219909,0.0959764 0.369043,0.22613 0.354236,0.311469 -0.0147598,0.0850945 -0.100913,0.128252 -0.28135,0.0969409 -0.229689,-0.0398543 -0.608398,-0.0347165 -0.883398,-0.0309882 -0.156094,0.00211417 -0.280264,0.00379921 -0.336732,-0.0035748zm0.123669 -0.207126c0.055626,0.000299213 0.128409,-0.000688976 0.210559,-0.00180315 0.200575,-0.00272047 0.454508,-0.00616535 0.673012,0.00701969 -0.157118,-0.0632992 -0.34722,-0.118339 -0.518339,-0.13122 -0.163035,-0.0122717 -0.306248,0.016874 -0.365232,0.126004z"/>
   <path id="_443078448" class="fil0" d="M3.78283 2.71143c0.0589094,0 0.106669,-0.0477598 0.106669,-0.106669 0,-0.0589094 -0.0477598,-0.106669 -0.106669,-0.106669l-0.738984 0c-0.0589094,0 -0.106669,0.0477598 -0.106669,0.106669 0,0.0589094 0.0477598,0.106669 0.106669,0.106669l0.738984 0z"/>
   <path id="_443078280" class="fil0" d="M3.78283 2.16454c0.0589094,0 0.106669,-0.0477598 0.106669,-0.106669 0,-0.0589094 -0.0477598,-0.106669 -0.106669,-0.106669l-0.738984 0c-0.0589094,0 -0.106669,0.0477598 -0.106669,0.106669 0,0.0589094 0.0477598,0.106669 0.106669,0.106669l0.738984 0z"/>
   <path id="_443078592" class="fil0" d="M3.95669 2.16454c0.0589094,0 0.106669,-0.0477598 0.106669,-0.106669 0,-0.0589094 -0.0477598,-0.106669 -0.106669,-0.106669l-1.08671 0c-0.0589094,0 -0.106669,0.0477598 -0.106669,0.106669 0,0.0589094 0.0477598,0.106669 0.106669,0.106669l1.08671 0z"/>
   <path id="_443077920" class="fil0" d="M3.0157 3.55641l0.795256 0c0.0441811,0 0.08,0.0358189 0.08,0.08l0 1.22352c0,0.0441811 -0.0358189,0.08 -0.08,0.08l-0.795256 0c-0.0441811,0 -0.08,-0.0358189 -0.08,-0.08l0 -1.22352c0,-0.0441811 0.0358189,-0.08 0.08,-0.08zm0.715256 0.16l-0.635256 0 0 1.06352 0.635256 0 0 -1.06352z"/>
  </g>
  <polygon class="fil1" points="3.73096,3.71641 3.0957,3.71641 3.0957,4.77993 3.73096,4.77993 "/>
  <path class="fil2" d="M3.89096 3.63641l0 1.22352c0,0.0441811 -0.0358189,0.08 -0.08,0.08l-0.795256 0c-0.0441811,0 -0.08,-0.0358189 -0.08,-0.08l0 -1.22352c0,-0.0441811 0.0358189,-0.08 0.08,-0.08l0.795256 0c0.0441811,0 0.08,0.0358189 0.08,0.08zm0.724055 0.00121654c-0.0631457,-0.700453 -0.413433,-0.800331 -0.716272,-0.886567 -0.0443819,-0.0126339 -0.0878622,-0.0250197 -0.132528,-0.039626l-0.705752 0c-0.0446732,0.0146024 -0.0881535,0.0269882 -0.132539,0.039626 -0.302839,0.0862362 -0.653126,0.186114 -0.716272,0.886567l0.454555 2.12239 1.49425 0 0.454555 -2.12239z"/>
  <polygon class="fil3" points="3.15051,2.49809 3.67616,2.49809 3.67616,2.16454 3.41333,2.16454 3.15051,2.16454 "/>
  <path class="fil3" d="M3.37244 1.19354c0.200575,-0.00272047 0.454508,-0.00616535 0.673012,0.00701969 -0.157118,-0.0632992 -0.34722,-0.118339 -0.518339,-0.13122 -0.163035,-0.0122717 -0.306248,0.016874 -0.365232,0.126004 0.055626,0.000299213 0.128409,-0.000688976 0.210559,-0.00180315z"/>
 </g>
 <rect class="fil4" width="6.82666" height="6.82666"/>
</svg>
