<?xml version="1.0" encoding="UTF-8"?>
<!DOCTYPE svg PUBLIC "-//W3C//DTD SVG 1.1//EN" "http://www.w3.org/Graphics/SVG/1.1/DTD/svg11.dtd">
<!-- Creator: CorelDRAW -->
<svg xmlns="http://www.w3.org/2000/svg" xml:space="preserve" width="6.82666in" height="6.82666in" style="shape-rendering:geometricPrecision; text-rendering:geometricPrecision; image-rendering:optimizeQuality; fill-rule:evenodd; clip-rule:evenodd"
viewBox="0 0 6.82666 6.82666"
 xmlns:xlink="http://www.w3.org/1999/xlink">
 <defs>
  <style type="text/css">
   <![CDATA[
    .fil3 {fill:none}
    .fil2 {fill:#333333}
    .fil0 {fill:#AED581}
    .fil1 {fill:#333333;fill-rule:nonzero}
   ]]>
  </style>
 </defs>
 <g id="Layer_x0020_1">
  <metadata id="CorelCorpID_0Corel-Layer"/>
  <path class="fil0" d="M1.54339 4.5266c0.324091,0.247591 0.821969,0.295969 1.49814,-0.057752 0.016189,-0.00990945 0.0352244,-0.015622 0.0555945,-0.015622l0.63076 0c0.0172953,-0.000283465 0.0349055,0.00364173 0.0512953,0.0122598l-0.0496457 0.0944094 0.0495827 -0.0941654c0.67924,0.357169 1.17909,0.309193 1.50415,0.0608701 0.317846,-0.242815 0.476787,-0.677016 0.476803,-1.11314 1.5748e-005,-0.436134 -0.158878,-0.87037 -0.476673,-1.11325 -0.324047,-0.247657 -0.821874,-0.29615 -1.49795,0.0574134 -0.016189,0.00990157 -0.0352165,0.0156142 -0.0555827,0.0156142l-0.631406 0c-0.0172992,0.000287402 -0.0349094,-0.0036378 -0.0512992,-0.012252l0.0496339 -0.0944173 -0.0495827 0.0941654c-0.679142,-0.357008 -1.17894,-0.308917 -1.50395,-0.0605236 -0.317795,0.242882 -0.476685,0.677118 -0.476669,1.11325 1.5748e-005,0.436126 0.158957,0.870327 0.476799,1.11314z"/>
  <g id="_443079360">
   <path id="_443081088" class="fil1" d="M3.12258 4.66656c-0.754429,0.38902 -1.32539,0.321772 -1.70835,0.0292008 -0.373398,-0.285256 -0.560118,-0.784744 -0.560138,-1.28231 -1.9685e-005,-0.497555 0.18665,-0.997075 0.560008,-1.28242 0.382894,-0.29263 0.953791,-0.359996 1.70815,0.0288543l0.582173 0c0.754354,-0.388854 1.32525,-0.321484 1.70815,-0.0288543 0.373358,0.285343 0.560031,0.784862 0.560012,1.28242 -1.9685e-005,0.497563 -0.18674,0.997051 -0.560142,1.28231 -0.382969,0.292563 -0.953929,0.359815 -1.70835,-0.0292008l-0.581496 0zm-1.57919 -0.139965c0.324091,0.247591 0.821969,0.295969 1.49814,-0.057752 0.016189,-0.00990945 0.0352244,-0.015622 0.0555945,-0.015622l0.63076 0c0.0172953,-0.000283465 0.0349055,0.00364173 0.0512953,0.0122598l-0.0496457 0.0944094 0.0495827 -0.0941654c0.67924,0.357169 1.17909,0.309193 1.50415,0.0608701 0.317846,-0.242815 0.476787,-0.677016 0.476803,-1.11314 1.5748e-005,-0.436134 -0.158878,-0.87037 -0.476673,-1.11325 -0.324047,-0.247657 -0.821874,-0.29615 -1.49795,0.0574134 -0.016189,0.00990157 -0.0352165,0.0156142 -0.0555827,0.0156142l-0.631406 0c-0.0172992,0.000287402 -0.0349094,-0.0036378 -0.0512992,-0.012252l0.0496339 -0.0944173 -0.0495827 0.0941654c-0.679142,-0.357008 -1.17894,-0.308917 -1.50395,-0.0605236 -0.317795,0.242882 -0.476685,0.677118 -0.476669,1.11325 1.5748e-005,0.436126 0.158957,0.870327 0.476799,1.11314z"/>
   <g>
    <g>
     <circle id="_443080920" class="fil2" cx="1.65886" cy="2.78599" r="0.106665"/>
     <circle id="_443081544" class="fil2" cx="2.24369" cy="2.78599" r="0.106665"/>
     <circle id="_443081664" class="fil2" cx="2.82851" cy="2.78599" r="0.106665"/>
     <circle id="_443081040" class="fil2" cx="3.41333" cy="2.78599" r="0.106665"/>
     <circle id="_443081448" class="fil2" cx="3.99815" cy="2.78599" r="0.106665"/>
     <circle id="_443081568" class="fil2" cx="4.58298" cy="2.78599" r="0.106665"/>
     <circle id="_443081184" class="fil2" cx="5.1678" cy="2.78599" r="0.106665"/>
    </g>
    <g>
     <circle id="_443080560" class="fil2" cx="1.95127" cy="3.20422" r="0.106665"/>
     <circle id="_443080824" class="fil2" cx="2.53609" cy="3.20422" r="0.106665"/>
     <circle id="_443080536" class="fil2" cx="3.12092" cy="3.20422" r="0.106665"/>
     <circle id="_443080272" class="fil2" cx="3.70574" cy="3.20422" r="0.106665"/>
     <circle id="_443080704" class="fil2" cx="4.29056" cy="3.20422" r="0.106665"/>
     <circle id="_443080872" class="fil2" cx="4.87539" cy="3.20422" r="0.106665"/>
    </g>
    <g>
     <circle id="_443080800" class="fil2" cx="1.65886" cy="3.62244" r="0.106665"/>
     <circle id="_443080896" class="fil2" cx="2.24369" cy="3.62244" r="0.106665"/>
     <circle id="_443080752" class="fil2" cx="2.82851" cy="3.62244" r="0.106665"/>
     <circle id="_443079528" class="fil2" cx="3.41333" cy="3.62244" r="0.106665"/>
     <circle id="_443079816" class="fil2" cx="3.99815" cy="3.62244" r="0.106665"/>
     <circle id="_443080104" class="fil2" cx="4.58298" cy="3.62244" r="0.106665"/>
     <circle id="_443079888" class="fil2" cx="5.1678" cy="3.62244" r="0.106665"/>
    </g>
    <g>
     <circle id="_443079840" class="fil2" cx="1.95127" cy="4.04067" r="0.106665"/>
     <circle id="_443079552" class="fil2" cx="2.53609" cy="4.04067" r="0.106665"/>
     <circle id="_443080128" class="fil2" cx="3.12092" cy="4.04067" r="0.106665"/>
     <circle id="_443079984" class="fil2" cx="3.70574" cy="4.04067" r="0.106665"/>
     <circle id="_443079960" class="fil2" cx="4.29056" cy="4.04067" r="0.106665"/>
     <circle id="_443080080" class="fil2" cx="4.87539" cy="4.04067" r="0.106665"/>
    </g>
   </g>
  </g>
 </g>
 <rect class="fil3" width="6.82666" height="6.82666"/>
</svg>
