<?xml version="1.0" encoding="UTF-8"?>
<!DOCTYPE svg PUBLIC "-//W3C//DTD SVG 1.1//EN" "http://www.w3.org/Graphics/SVG/1.1/DTD/svg11.dtd">
<!-- Creator: CorelDRAW -->
<svg xmlns="http://www.w3.org/2000/svg" xml:space="preserve" width="6.82666in" height="6.82666in" style="shape-rendering:geometricPrecision; text-rendering:geometricPrecision; image-rendering:optimizeQuality; fill-rule:evenodd; clip-rule:evenodd"
viewBox="0 0 6.82666 6.82666"
 xmlns:xlink="http://www.w3.org/1999/xlink">
 <defs>
  <style type="text/css">
   <![CDATA[
    .fil2 {fill:none}
    .fil0 {fill:#F39CC3}
    .fil1 {fill:#333333;fill-rule:nonzero}
   ]]>
  </style>
 </defs>
 <g id="Layer_x0020_1">
  <metadata id="CorelCorpID_0Corel-Layer"/>
  <path class="fil0" d="M5.56431 1.06667l-4.30196 0c-0.0537008,0 -0.102606,0.0220512 -0.138118,0.0575669 -0.0355157,0.0355118 -0.0575669,0.0844173 -0.0575669,0.138118l0 4.30196c0,0.0537008 0.0220512,0.102606 0.0575669,0.138118 0.0355118,0.0355157 0.0844173,0.0575669 0.138118,0.0575669l4.30196 0c0.0537008,0 0.102606,-0.0220512 0.138122,-0.057563 0.0355118,-0.0355157 0.057563,-0.0844213 0.057563,-0.138122l0 -4.30196c0,-0.0537008 -0.0220512,-0.102606 -0.0575669,-0.138118 -0.0355118,-0.0355157 -0.0844173,-0.0575669 -0.138118,-0.0575669z"/>
  <g id="_444905472">
   <path id="_444906264" class="fil1" d="M1.26235 0.853331l4.30196 0c0.112591,0 0.214874,0.0459882 0.288953,0.120071 0.0740827,0.0740787 0.120071,0.176362 0.120071,0.288953l0 4.30196c0,0.112591 -0.0459882,0.21487 -0.120067,0.288957 -0.0740866,0.0740787 -0.176366,0.120067 -0.288957,0.120067l-4.30196 0c-0.112591,0 -0.214874,-0.0459882 -0.288953,-0.120071 -0.0740827,-0.0740787 -0.120071,-0.176362 -0.120071,-0.288953l0 -4.30196c0,-0.112591 0.0459882,-0.214874 0.120071,-0.288953 0.0740787,-0.0740827 0.176362,-0.120071 0.288953,-0.120071zm4.30196 0.213339l-4.30196 0c-0.0537008,0 -0.102606,0.0220512 -0.138118,0.0575669 -0.0355157,0.0355118 -0.0575669,0.0844173 -0.0575669,0.138118l0 4.30196c0,0.0537008 0.0220512,0.102606 0.0575669,0.138118 0.0355118,0.0355157 0.0844173,0.0575669 0.138118,0.0575669l4.30196 0c0.0537008,0 0.102606,-0.0220512 0.138122,-0.057563 0.0355118,-0.0355157 0.057563,-0.0844213 0.057563,-0.138122l0 -4.30196c0,-0.0537008 -0.0220512,-0.102606 -0.0575669,-0.138118 -0.0355118,-0.0355157 -0.0844173,-0.0575669 -0.138118,-0.0575669z"/>
   <path id="_444906720" class="fil1" d="M1.64829 0.885185l0.611673 0.611669 7.87402e-006 -7.87402e-006c0.0416535,0.0416535 0.0416535,0.109197 0,0.15085l-0.000606299 0.000590551 -0.611673 0.611673 7.87402e-006 7.87402e-006c-0.0416535,0.0416535 -0.109197,0.0416535 -0.15085,0l-0.000590551 -0.000606299 -0.611669 -0.611673 -7.87402e-006 7.87402e-006c-0.0416535,-0.0416535 -0.0416535,-0.109197 0,-0.15085l0.000606299 -0.000590551 0.611669 -0.611669 -7.87402e-006 -7.87402e-006c0.0416535,-0.0416535 0.109197,-0.0416535 0.15085,0l0.000590551 0.000606299zm0.385421 0.687087l-0.461437 -0.461433 -0.461433 0.461433 0.461433 0.461437 0.461437 -0.461437z"/>
   <path id="_444906624" class="fil1" d="M2.79681 1.11084l-0.461437 0.461433 0.461437 0.461437 0.461437 -0.461437 -0.461437 -0.461433zm-0.687689 0.386016l0.611673 -0.611669 0.000590551 -0.000606299c0.0416535,-0.0416535 0.109197,-0.0416535 0.15085,0l-7.87402e-006 7.87402e-006 0.611673 0.611669 0.000606299 0.000590551c0.0416535,0.0416535 0.0416535,0.109197 0,0.15085l-7.87402e-006 -7.87402e-006 -0.611673 0.611673 -0.000590551 0.000606299c-0.0416535,0.0416535 -0.109197,0.0416535 -0.15085,0l7.87402e-006 -7.87402e-006 -0.611673 -0.611673 -0.000606299 -0.000590551c-0.0416535,-0.0416535 -0.0416535,-0.109197 0,-0.15085l7.87402e-006 7.87402e-006z"/>
   <path id="_444906168" class="fil1" d="M4.09737 0.885185l0.611673 0.611669 7.87402e-006 -7.87402e-006c0.0416535,0.0416535 0.0416535,0.109197 0,0.15085l-0.000606299 0.000590551 -0.611673 0.611673 7.87402e-006 7.87402e-006c-0.0416535,0.0416535 -0.109197,0.0416535 -0.15085,0l-0.000590551 -0.000606299 -0.611673 -0.611673 -7.87402e-006 7.87402e-006c-0.0416535,-0.0416535 -0.0416535,-0.109197 0,-0.15085l0.000606299 -0.000590551 0.611673 -0.611669 -7.87402e-006 -7.87402e-006c0.0416535,-0.0416535 0.109197,-0.0416535 0.15085,0l0.000590551 0.000606299zm0.385421 0.687087l-0.461437 -0.461433 -0.461437 0.461433 0.461437 0.461437 0.461437 -0.461437z"/>
   <path id="_444906528" class="fil1" d="M5.2459 1.11084l-0.461437 0.461433 0.461437 0.461437 0.461437 -0.461437 -0.461437 -0.461433zm-0.687689 0.386016l0.611673 -0.611669 0.000590551 -0.000606299c0.0416535,-0.0416535 0.109197,-0.0416535 0.15085,0l-7.87402e-006 7.87402e-006 0.611673 0.611669 0.000606299 0.000590551c0.0416535,0.0416535 0.0416535,0.109197 0,0.15085l-7.87402e-006 -7.87402e-006 -0.611673 0.611673 -0.000590551 0.000606299c-0.0416535,0.0416535 -0.109197,0.0416535 -0.15085,0l7.87402e-006 -7.87402e-006 -0.611673 -0.611673 -0.000606299 -0.000590551c-0.0416535,-0.0416535 -0.0416535,-0.109197 0,-0.15085l7.87402e-006 7.87402e-006z"/>
   <path id="_444906504" class="fil1" d="M1.57227 3.25825l0.461437 -0.461437 -0.461437 -0.461437 -0.461433 0.461437 0.461433 0.461437zm0.687689 -0.38602l-0.611673 0.611673 -0.000590551 0.000606299c-0.0416535,0.0416535 -0.109197,0.0416535 -0.15085,0l7.87402e-006 -7.87402e-006 -0.611669 -0.611673 -0.000606299 -0.000590551c-0.0416535,-0.0416535 -0.0416535,-0.109197 0,-0.15085l7.87402e-006 7.87402e-006 0.611669 -0.611673 0.000590551 -0.000606299c0.0416535,-0.0416535 0.109197,-0.0416535 0.15085,0l-7.87402e-006 7.87402e-006 0.611673 0.611673 0.000606299 0.000590551c0.0416535,0.0416535 0.0416535,0.109197 0,0.15085l-7.87402e-006 -7.87402e-006z"/>
   <path id="_444906552" class="fil1" d="M2.7208 3.48391l-0.611673 -0.611673 -7.87402e-006 7.87402e-006c-0.0416535,-0.0416535 -0.0416535,-0.109197 0,-0.15085l0.000606299 -0.000590551 0.611673 -0.611673 -7.87402e-006 -7.87402e-006c0.0416535,-0.0416535 0.109197,-0.0416535 0.15085,0l0.000590551 0.000606299 0.611673 0.611673 7.87402e-006 -7.87402e-006c0.0416535,0.0416535 0.0416535,0.109197 0,0.15085l-0.000606299 0.000590551 -0.611673 0.611673 7.87402e-006 7.87402e-006c-0.0416535,0.0416535 -0.109197,0.0416535 -0.15085,0l-0.000590551 -0.000606299zm-0.385421 -0.687091l0.461437 0.461437 0.461437 -0.461437 -0.461437 -0.461437 -0.461437 0.461437z"/>
   <path id="_444905688" class="fil1" d="M4.02136 3.25825l0.461437 -0.461437 -0.461437 -0.461437 -0.461437 0.461437 0.461437 0.461437zm0.687689 -0.38602l-0.611673 0.611673 -0.000590551 0.000606299c-0.0416535,0.0416535 -0.109197,0.0416535 -0.15085,0l7.87402e-006 -7.87402e-006 -0.611673 -0.611673 -0.000606299 -0.000590551c-0.0416535,-0.0416535 -0.0416535,-0.109197 0,-0.15085l7.87402e-006 7.87402e-006 0.611673 -0.611673 0.000590551 -0.000606299c0.0416535,-0.0416535 0.109197,-0.0416535 0.15085,0l-7.87402e-006 7.87402e-006 0.611673 0.611673 0.000606299 0.000590551c0.0416535,0.0416535 0.0416535,0.109197 0,0.15085l-7.87402e-006 -7.87402e-006z"/>
   <path id="_444905808" class="fil1" d="M5.16989 3.48391l-0.611673 -0.611673 -7.87402e-006 7.87402e-006c-0.0416535,-0.0416535 -0.0416535,-0.109197 0,-0.15085l0.000606299 -0.000590551 0.611673 -0.611673 -7.87402e-006 -7.87402e-006c0.0416535,-0.0416535 0.109197,-0.0416535 0.15085,0l0.000590551 0.000606299 0.611673 0.611673 7.87402e-006 -7.87402e-006c0.0416535,0.0416535 0.0416535,0.109197 0,0.15085l-0.000606299 0.000590551 -0.611673 0.611673 7.87402e-006 7.87402e-006c-0.0416535,0.0416535 -0.109197,0.0416535 -0.15085,0l-0.000590551 -0.000606299zm-0.385421 -0.687091l0.461437 0.461437 0.461437 -0.461437 -0.461437 -0.461437 -0.461437 0.461437z"/>
   <path id="_444905352" class="fil1" d="M1.64829 3.33427l0.611673 0.611673 7.87402e-006 -7.87402e-006c0.0416535,0.0416535 0.0416535,0.109197 0,0.15085l-0.000606299 0.000590551 -0.611673 0.611673 7.87402e-006 7.87402e-006c-0.0416535,0.0416535 -0.109197,0.0416535 -0.15085,0l-0.000590551 -0.000606299 -0.611669 -0.611673 -7.87402e-006 7.87402e-006c-0.0416535,-0.0416535 -0.0416535,-0.109197 0,-0.15085l0.000606299 -0.000590551 0.611669 -0.611673 -7.87402e-006 -7.87402e-006c0.0416535,-0.0416535 0.109197,-0.0416535 0.15085,0l0.000590551 0.000606299zm0.385421 0.687091l-0.461437 -0.461437 -0.461433 0.461437 0.461433 0.461437 0.461437 -0.461437z"/>
   <path id="_444905736" class="fil1" d="M2.79681 3.55992l-0.461437 0.461437 0.461437 0.461437 0.461437 -0.461437 -0.461437 -0.461437zm-0.687689 0.38602l0.611673 -0.611673 0.000590551 -0.000606299c0.0416535,-0.0416535 0.109197,-0.0416535 0.15085,0l-7.87402e-006 7.87402e-006 0.611673 0.611673 0.000606299 0.000590551c0.0416535,0.0416535 0.0416535,0.109197 0,0.15085l-7.87402e-006 -7.87402e-006 -0.611673 0.611673 -0.000590551 0.000606299c-0.0416535,0.0416535 -0.109197,0.0416535 -0.15085,0l7.87402e-006 -7.87402e-006 -0.611673 -0.611673 -0.000606299 -0.000590551c-0.0416535,-0.0416535 -0.0416535,-0.109197 0,-0.15085l7.87402e-006 7.87402e-006z"/>
   <path id="_444905832" class="fil1" d="M4.09737 3.33427l0.611673 0.611673 7.87402e-006 -7.87402e-006c0.0416535,0.0416535 0.0416535,0.109197 0,0.15085l-0.000606299 0.000590551 -0.611673 0.611673 7.87402e-006 7.87402e-006c-0.0416535,0.0416535 -0.109197,0.0416535 -0.15085,0l-0.000590551 -0.000606299 -0.611673 -0.611673 -7.87402e-006 7.87402e-006c-0.0416535,-0.0416535 -0.0416535,-0.109197 0,-0.15085l0.000606299 -0.000590551 0.611673 -0.611673 -7.87402e-006 -7.87402e-006c0.0416535,-0.0416535 0.109197,-0.0416535 0.15085,0l0.000590551 0.000606299zm0.385421 0.687091l-0.461437 -0.461437 -0.461437 0.461437 0.461437 0.461437 0.461437 -0.461437z"/>
   <path id="_444905592" class="fil1" d="M5.2459 3.55992l-0.461437 0.461437 0.461437 0.461437 0.461437 -0.461437 -0.461437 -0.461437zm-0.687689 0.38602l0.611673 -0.611673 0.000590551 -0.000606299c0.0416535,-0.0416535 0.109197,-0.0416535 0.15085,0l-7.87402e-006 7.87402e-006 0.611673 0.611673 0.000606299 0.000590551c0.0416535,0.0416535 0.0416535,0.109197 0,0.15085l-7.87402e-006 -7.87402e-006 -0.611673 0.611673 -0.000590551 0.000606299c-0.0416535,0.0416535 -0.109197,0.0416535 -0.15085,0l7.87402e-006 -7.87402e-006 -0.611673 -0.611673 -0.000606299 -0.000590551c-0.0416535,-0.0416535 -0.0416535,-0.109197 0,-0.15085l7.87402e-006 7.87402e-006z"/>
   <path id="_444905976" class="fil1" d="M1.57227 5.70734l0.461437 -0.461437 -0.461437 -0.461437 -0.461433 0.461437 0.461433 0.461437zm0.687689 -0.38602l-0.611673 0.611673 -0.000590551 0.000606299c-0.0416535,0.0416535 -0.109197,0.0416535 -0.15085,0l7.87402e-006 -7.87402e-006 -0.611669 -0.611673 -0.000606299 -0.000590551c-0.0416535,-0.0416535 -0.0416535,-0.109197 0,-0.15085l7.87402e-006 7.87402e-006 0.611669 -0.611673 0.000590551 -0.000606299c0.0416535,-0.0416535 0.109197,-0.0416535 0.15085,0l-7.87402e-006 7.87402e-006 0.611673 0.611673 0.000606299 0.000590551c0.0416535,0.0416535 0.0416535,0.109197 0,0.15085l-7.87402e-006 -7.87402e-006z"/>
   <path id="_444905880" class="fil1" d="M2.7208 5.93299l-0.611673 -0.611673 -7.87402e-006 7.87402e-006c-0.0416535,-0.0416535 -0.0416535,-0.109197 0,-0.15085l0.000606299 -0.000590551 0.611673 -0.611673 -7.87402e-006 -7.87402e-006c0.0416535,-0.0416535 0.109197,-0.0416535 0.15085,0l0.000590551 0.000606299 0.611673 0.611673 7.87402e-006 -7.87402e-006c0.0416535,0.0416535 0.0416535,0.109197 0,0.15085l-0.000606299 0.000590551 -0.611673 0.611673 7.87402e-006 7.87402e-006c-0.0416535,0.0416535 -0.109197,0.0416535 -0.15085,0l-0.000590551 -0.000606299zm-0.385421 -0.687091l0.461437 0.461437 0.461437 -0.461437 -0.461437 -0.461437 -0.461437 0.461437z"/>
   <path id="_444905448" class="fil1" d="M4.02136 5.70734l0.461437 -0.461437 -0.461437 -0.461437 -0.461437 0.461437 0.461437 0.461437zm0.687689 -0.38602l-0.611673 0.611673 -0.000590551 0.000606299c-0.0416535,0.0416535 -0.109197,0.0416535 -0.15085,0l7.87402e-006 -7.87402e-006 -0.611673 -0.611673 -0.000606299 -0.000590551c-0.0416535,-0.0416535 -0.0416535,-0.109197 0,-0.15085l7.87402e-006 7.87402e-006 0.611673 -0.611673 0.000590551 -0.000606299c0.0416535,-0.0416535 0.109197,-0.0416535 0.15085,0l-7.87402e-006 7.87402e-006 0.611673 0.611673 0.000606299 0.000590551c0.0416535,0.0416535 0.0416535,0.109197 0,0.15085l-7.87402e-006 -7.87402e-006z"/>
   <path id="_444905928" class="fil1" d="M5.16989 5.93299l-0.611673 -0.611673 -7.87402e-006 7.87402e-006c-0.0416535,-0.0416535 -0.0416535,-0.109197 0,-0.15085l0.000606299 -0.000590551 0.611673 -0.611673 -7.87402e-006 -7.87402e-006c0.0416535,-0.0416535 0.109197,-0.0416535 0.15085,0l0.000590551 0.000606299 0.611673 0.611673 7.87402e-006 -7.87402e-006c0.0416535,0.0416535 0.0416535,0.109197 0,0.15085l-0.000606299 0.000590551 -0.611673 0.611673 7.87402e-006 7.87402e-006c-0.0416535,0.0416535 -0.109197,0.0416535 -0.15085,0l-0.000590551 -0.000606299zm-0.385421 -0.687091l0.461437 0.461437 0.461437 -0.461437 -0.461437 -0.461437 -0.461437 0.461437z"/>
  </g>
 </g>
 <rect class="fil2" width="6.82666" height="6.82666"/>
</svg>
