<?xml version="1.0" encoding="UTF-8"?>
<!DOCTYPE svg PUBLIC "-//W3C//DTD SVG 1.1//EN" "http://www.w3.org/Graphics/SVG/1.1/DTD/svg11.dtd">
<!-- Creator: CorelDRAW -->
<svg xmlns="http://www.w3.org/2000/svg" xml:space="preserve" width="6.82666in" height="6.82666in" style="shape-rendering:geometricPrecision; text-rendering:geometricPrecision; image-rendering:optimizeQuality; fill-rule:evenodd; clip-rule:evenodd"
viewBox="0 0 6.82666 6.82666"
 xmlns:xlink="http://www.w3.org/1999/xlink">
 <defs>
  <style type="text/css">
   <![CDATA[
    .fil2 {fill:none}
    .fil0 {fill:#F45A52}
    .fil3 {fill:#333333;fill-rule:nonzero}
    .fil1 {fill:#FFD3B3;fill-rule:nonzero}
   ]]>
  </style>
 </defs>
 <g id="Layer_x0020_1">
  <metadata id="CorelCorpID_0Corel-Layer"/>
  <polygon class="fil0" points="5.58464,0.962717 1.24817,0.962717 0.959996,1.2853 0.959996,4.44885 1.22318,4.70671 5.63985,4.70671 5.86667,4.47906 5.86667,1.28322 "/>
  <path class="fil1" d="M2.46341 2.36407c0,-0.0399646 -0.0164291,-0.076374 -0.0428858,-0.102835 -0.0264606,-0.0264567 -0.0628701,-0.0428858 -0.102835,-0.0428858l-3.93701e-006 0c-0.0399646,0 -0.076374,0.0164291 -0.102835,0.0428858 -0.0264567,0.0264606 -0.0428858,0.0628701 -0.0428858,0.102835l0 1.07133c0,0.0101299 -0.00141339,0.0199291 -0.00405118,0.0292126 -0.0139724,0.0696732 -0.0475512,0.280012 -0.00916142,0.545327 0.0227598,0.157287 0.071189,0.333461 0.164831,0.509772l4.72441e-005 -2.3622e-005c0.00170866,0.00321654 0.00323622,0.00648031 0.00458268,0.00978346 0.043252,0.0843543 0.376598,0.759028 0.223929,1.23052l1.35859 0c-0.0434331,-0.173134 -0.0563937,-0.479039 0.164075,-0.907913l-0.000232283 -0.00011811c0.0057126,-0.0111142 0.0131142,-0.0207913 0.0217205,-0.0288976 0.00503543,-0.00499606 0.00897244,-0.00929921 0.0117087,-0.0128268 0.0251457,-0.0324213 0.0505236,-0.0913031 0.0850276,-0.15385 0.0238504,-0.0432362 0.0556142,-0.0871457 0.0802008,-0.129732l-0.000216535 -0.000125984c0.00110236,-0.00190945 0.00226378,-0.00376378 0.00346063,-0.00557874 0.00208268,-0.00419685 0.00444094,-0.00825984 0.00705906,-0.0121535l0.605008 -1.04789 -0.000220472 -0.000125984c0.00124409,-0.00215748 0.00256299,-0.00424803 0.00392913,-0.00628346 0.0167638,-0.0329646 0.0196024,-0.0701496 0.0104449,-0.104323 -0.00901575,-0.0336378 -0.0291929,-0.0629646 -0.0575748,-0.0825906 -0.00314173,-0.00216929 -0.00638189,-0.00422441 -0.00972047,-0.00615354 0.0695551,-0.121035 0.0680748,-0.118488 -1.1811e-005,-1.1811e-005l-0.000169291 -9.44882e-005 -0.000232283 0.000401575c-0.00216535,-0.00124803 -0.00426378,-0.00257087 -0.00630709,-0.00394488 -0.00325591,-0.00165748 -0.00656693,-0.0031811 -0.00991339,-0.00457087 -0.029811,-0.0123819 -0.0629724,-0.0142874 -0.0943937,-0.00587008 -0.0364173,0.00975591 -0.0689331,0.0329803 -0.0887441,0.0672953 -0.121343,-0.0697323 -0.121669,-0.0699094 -3.93701e-006,3.93701e-006l-0.000102362 0.000177165 0.000401575 0.000232283c-0.00167323,0.00290157 -0.0034685,0.00568898 -0.00536614,0.00836614l-0.377689 0.654177 0.000295276 0.000417323c-0.0294528,0.0510157 -0.0946969,0.0684961 -0.145713,0.0390433 -0.0737717,-0.0425866 -0.115102,-0.110165 -0.129685,-0.386555l0 -1.53892c0,-0.0399567 -0.0164252,-0.0763701 -0.0428898,-0.102831 -0.0264606,-0.0264646 -0.062874,-0.0428898 -0.102831,-0.0428898l-7.87402e-006 0c-0.0399606,0 -0.076374,0.0164291 -0.102831,0.0428898 -0.0264606,0.0264606 -0.0428898,0.0628701 -0.0428898,0.102831l-0.213339 0 0 -0.544984c0,-0.0399646 -0.0164291,-0.076374 -0.0428858,-0.102835 -0.0264606,-0.0264567 -0.0628701,-0.0428858 -0.102835,-0.0428858l-3.93701e-006 0c-0.0399646,0 -0.076374,0.0164291 -0.102835,0.0428858 -0.0264567,0.0264606 -0.0428858,0.0628701 -0.0428858,0.102835l0 0.40874 -0.213339 0c0,-0.0399567 -0.0164252,-0.0763701 -0.0428898,-0.102831 -0.0264567,-0.0264606 -0.0628701,-0.0428898 -0.102831,-0.0428898l-3.93701e-006 0c-0.0399567,0 -0.0763701,0.0164252 -0.102831,0.0428898 -0.0264646,0.0264606 -0.0428898,0.062874 -0.0428898,0.102831l0 0.408913 -0.213339 -0.000173228z"/>
  <path class="fil2" d="M1.43639 0.959996m3.95389 0m0.152839 0m0.125047 0.125051m0 0.152839m0 3.95389m0 0.152839m-0.125047 0.125047m-0.152839 0m-1.39775 0m0.011189 -0.148173m0.0468071 -0.189638m0.118823 -0.231118m0.0159764 -0.0156299m0.0141339 -0.0180039m0.011685 -3.9071m-2.77475 0m0 0m0 0m0 0m0 0m0 0m0 0m0 0m0 0m0 0m0 0m0 0m0 0m0 0m0 0m0 0m0 0m0 0m0 0m0 0m0 0m0 0m0 0m0 0m0 0m0 0m0 0m0 0m0 0m0 0m0 0m0 0m0 0m0 0m0 0m0 0m0 0m0 0m0 0m0 0m0 0m0 0m0 0m0 0m0 0m0 0m0 0m0 0m0 0m0 0m0 0m0 0m0 0m0 0m0 0m0 0m0 0m0 0m0 0m0 0m0 0m0 0m0 0m0 0m0 0m0 0m0 0"/>
  <path class="fil3" d="M2.46331 2.36407c0,-0.0399646 -0.0164291,-0.076374 -0.0428858,-0.102835 -0.0264606,-0.0264567 -0.0628701,-0.0428858 -0.102835,-0.0428858l-3.93701e-006 0c-0.0399646,0 -0.076374,0.0164291 -0.102835,0.0428858 -0.0264567,0.0264606 -0.0428858,0.0628701 -0.0428858,0.102835l0 1.07133c0,0.0101299 -0.00141339,0.0199291 -0.00405118,0.0292126 -0.0139724,0.0696732 -0.0475512,0.280012 -0.00916142,0.545327 0.0227598,0.157287 0.071189,0.333461 0.164831,0.509772l4.72441e-005 -2.3622e-005c0.00170866,0.00321654 0.00323622,0.00648031 0.00458268,0.00978346 0.043252,0.0843543 0.376598,0.759028 0.223929,1.23052l1.35859 0c-0.0434331,-0.173134 -0.0563937,-0.479039 0.164075,-0.907913l-0.000232283 -0.00011811c0.0057126,-0.0111142 0.0131142,-0.0207913 0.0217205,-0.0288976 0.00503543,-0.00499606 0.00897244,-0.00929921 0.0117087,-0.0128268 0.0251457,-0.0324213 0.0505236,-0.0913031 0.0850276,-0.15385 0.0238504,-0.0432362 0.0556142,-0.0871457 0.0802008,-0.129732l-0.000216535 -0.000125984c0.00110236,-0.00190945 0.00226378,-0.00376378 0.00346063,-0.00557874 0.00208268,-0.00419685 0.00444094,-0.00825984 0.00705906,-0.0121535l0.605008 -1.04789 -0.000220472 -0.000125984c0.00124409,-0.00215748 0.00256299,-0.00424803 0.00392913,-0.00628346 0.0167638,-0.0329646 0.0196024,-0.0701496 0.0104449,-0.104323 -0.00901575,-0.0336378 -0.0291929,-0.0629646 -0.0575748,-0.0825906 -0.00314173,-0.00216929 -0.00638189,-0.00422441 -0.00972047,-0.00615354 0.0695551,-0.121035 0.0680748,-0.118488 -1.1811e-005,-1.1811e-005l-0.000169291 -9.44882e-005 -0.000232283 0.000401575c-0.00216535,-0.00124803 -0.00426378,-0.00257087 -0.00630709,-0.00394488 -0.00325591,-0.00165748 -0.00656693,-0.0031811 -0.00991339,-0.00457087 -0.029811,-0.0123819 -0.0629724,-0.0142874 -0.0943937,-0.00587008 -0.0364173,0.00975591 -0.0689331,0.0329803 -0.0887441,0.0672953 -0.121343,-0.0697323 -0.121669,-0.0699094 -3.93701e-006,3.93701e-006l-0.000102362 0.000177165 0.000401575 0.000232283c-0.00167323,0.00290157 -0.0034685,0.00568898 -0.00536614,0.00836614l-0.377689 0.654177 0.000295276 0.000417323c-0.0294528,0.0510157 -0.0946969,0.0684961 -0.145713,0.0390433 -0.0737717,-0.0425866 -0.115102,-0.110165 -0.129685,-0.386555l0 -1.53892c0,-0.0399567 -0.0164252,-0.0763701 -0.0428898,-0.102831 -0.0264606,-0.0264646 -0.062874,-0.0428898 -0.102831,-0.0428898l-7.87402e-006 0c-0.0399606,0 -0.076374,0.0164291 -0.102831,0.0428898 -0.0264606,0.0264606 -0.0428898,0.0628701 -0.0428898,0.102831l-0.213339 0 0 -0.544984c0,-0.0399646 -0.0164291,-0.076374 -0.0428858,-0.102835 -0.0264606,-0.0264567 -0.0628701,-0.0428858 -0.102835,-0.0428858l-3.93701e-006 0c-0.0399646,0 -0.076374,0.0164291 -0.102835,0.0428858 -0.0264567,0.0264606 -0.0428858,0.0628701 -0.0428858,0.102835l0 0.40874 -0.213339 0c0,-0.0399567 -0.0164252,-0.0763701 -0.0428898,-0.102831 -0.0264567,-0.0264606 -0.0628701,-0.0428898 -0.102831,-0.0428898l-3.93701e-006 0c-0.0399567,0 -0.0763701,0.0164252 -0.102831,0.0428898 -0.0264646,0.0264606 -0.0428898,0.062874 -0.0428898,0.102831l0 0.408913 -0.213339 -0.000173228zm-0.145724 -0.359059l3.93701e-006 0c0.051815,0 0.101142,0.0111024 0.14572,0.0310236l0 -0.0807047c0,-0.0988504 0.0403661,-0.188646 0.105394,-0.253665 0.0650197,-0.0650276 0.154815,-0.105394 0.253665,-0.105394l3.93701e-006 0c0.051815,0 0.101142,0.0110945 0.14572,0.0310197l0 -0.0807008c0,-0.0988504 0.0403661,-0.188638 0.10539,-0.253669 0.0650315,-0.0650236 0.154819,-0.10539 0.253669,-0.10539l3.93701e-006 0c0.0988465,0 0.188638,0.0403661 0.253669,0.10539 0.0650236,0.0650315 0.10539,0.154819 0.10539,0.253669l0 0.216945c0.0445787,-0.0199252 0.0939055,-0.0310197 0.14572,-0.0310197l7.87402e-006 0c0.0988504,0 0.188646,0.0403661 0.253665,0.105394 0.0650276,0.0650197 0.105394,0.154815 0.105394,0.253665l0 1.53892c0,0.0089252 0.000476378,0.0178976 0.00135827,0.0269016l0.254024 -0.43998c0.00304331,-0.00667717 0.00681496,-0.0131024 0.0113071,-0.0191575 0.0498898,-0.0800787 0.126693,-0.134012 0.211579,-0.156756 0.0848898,-0.022748 0.178315,-0.0144449 0.261398,0.0299488 0.00734646,0.00318504 0.0144055,0.00724016 0.0210276,0.0121575 0.0800591,0.0498976 0.133988,0.126693 0.156732,0.211563 0.0227756,0.0849843 0.0144213,0.178528 -0.0300984,0.261681 -0.00157087,0.00358268 -0.00335039,0.00712598 -0.00535433,0.0105945l-0.000295276 0 -0.600677 1.04039c-0.00313386,0.00817323 -0.00733071,0.0160945 -0.0126299,0.0235669l-0.000153543 -0.000110236c-0.00106299,0.00172441 -0.00216929,0.00343307 -0.00333858,0.00511811l-0.00026378 -0.000181102 -1.9685e-005 3.14961e-005 0.000181102 0.000125984 -0.00149606 0.00215748 -0.14735 0.255201c-0.00106299,0.00216142 -0.00218898,0.00430315 -0.00340945,0.00641732l-0.000220472 -0.000125984 -8.66142e-005 0.000149606 -0.000181102 -0.000106299c-0.0085748,0.0148307 -0.0175394,0.0282087 -0.0268031,0.0401535 -0.00658268,0.00848819 -0.0130512,0.0162441 -0.0193976,0.0232717 -0.271043,0.536638 -0.127311,0.803618 -0.105386,0.839028 0.0134488,0.0178504 0.0214252,0.0400551 0.0214252,0.064126 0,0.0589094 -0.0477598,0.106669 -0.106669,0.106669l-1.6834 0c-0.0214764,0.000102362 -0.043189,-0.00625984 -0.0620512,-0.0196181 -0.0480748,-0.0340433 -0.0594488,-0.100622 -0.0254055,-0.148697l0.000440945 0.000311024c0.252484,-0.356728 -0.112098,-1.09199 -0.156276,-1.17806 -0.00154724,-0.0024252 -0.00301575,-0.0049252 -0.00438976,-0.00751181l0.000389764 -0.000208661 -7.87402e-006 -7.87402e-006 -0.00034252 0.000181102c-0.106374,-0.200276 -0.161429,-0.400697 -0.187343,-0.579783 -0.042437,-0.293311 -0.00569291,-0.53065 0.0107087,-0.613878l0 -1.06199c0,-0.0988504 0.0403661,-0.188638 0.10539,-0.253669 0.0650315,-0.0650236 0.154819,-0.10539 0.253669,-0.10539z"/>
  <path class="fil3" d="M2.67665 2.36407c0,-0.0589094 -0.0477598,-0.106669 -0.106669,-0.106669 -0.0589094,0 -0.106669,0.0477598 -0.106669,0.106669l0 1.11007c0,0.0589094 0.0477598,0.106669 0.106669,0.106669 0.0589094,0 0.106669,-0.0477598 0.106669,-0.106669l0 -1.11007z"/>
  <path class="fil3" d="M3.18102 1.95533c0,-0.0586811 -0.0475709,-0.106252 -0.106252,-0.106252 -0.0586811,0 -0.106252,0.0475709 -0.106252,0.106252l-0.00538189 1.5188c0,0.0586811 0.0475709,0.106252 0.106252,0.106252 0.0586811,0 0.106252,-0.0475709 0.106252,-0.106252l0.00538189 -1.5188z"/>
  <path class="fil3" d="M3.68622 2.08998c0,-0.0589094 -0.0477598,-0.106669 -0.106669,-0.106669 -0.0589094,0 -0.106669,0.0477598 -0.106669,0.106669l0 1.38417c0,0.0589094 0.0477598,0.106669 0.106669,0.106669 0.0589094,0 0.106669,-0.0477598 0.106669,-0.106669l0 -1.38417z"/>
  <path class="fil3" d="M2.29574 4.8161c0.0589094,0 0.106669,-0.0477598 0.106669,-0.106669 0,-0.0589094 -0.0477598,-0.106669 -0.106669,-0.106669l-0.909075 0c-0.0878898,0 -0.16787,-0.0360315 -0.225917,-0.0940787 -0.0580472,-0.0580472 -0.0940787,-0.138028 -0.0940787,-0.225917l0 -2.8961c0,-0.0878898 0.0360315,-0.16787 0.0940787,-0.225917 0.0580472,-0.0580472 0.138028,-0.0940787 0.225917,-0.0940787l4.05333 0c0.0878898,0 0.16787,0.0360315 0.225917,0.0940787 0.0580472,0.0580472 0.0940787,0.138028 0.0940787,0.225917l0 2.8961c0,0.0878898 -0.0360315,0.16787 -0.0940787,0.225917 -0.0580472,0.0580472 -0.138028,0.0940787 -0.225917,0.0940787l-1.14841 0c-0.0589094,0 -0.106669,0.0477598 -0.106669,0.106669 0,0.0589094 0.0477598,0.106669 0.106669,0.106669l1.14841 0c0.146776,0 0.280138,-0.0599724 0.376752,-0.156583 0.0966102,-0.0966142 0.156583,-0.229976 0.156583,-0.376752l0 -2.8961c0,-0.146776 -0.0599724,-0.280138 -0.156583,-0.376752 -0.0966142,-0.0966102 -0.229976,-0.156583 -0.376752,-0.156583l-4.05333 0c-0.146776,0 -0.280138,0.0599724 -0.376752,0.156583 -0.0966102,0.0966142 -0.156583,0.229976 -0.156583,0.376752l0 2.8961c0,0.146776 0.0599724,0.280138 0.156583,0.376752 0.0966142,0.0966102 0.229976,0.156583 0.376752,0.156583l0.909075 0z"/>
 </g>
 <rect class="fil2" width="6.82666" height="6.82666"/>
</svg>
