<?xml version="1.0" encoding="UTF-8"?>
<!DOCTYPE svg PUBLIC "-//W3C//DTD SVG 1.1//EN" "http://www.w3.org/Graphics/SVG/1.1/DTD/svg11.dtd">
<!-- Creator: CorelDRAW -->
<svg xmlns="http://www.w3.org/2000/svg" xml:space="preserve" width="6.82666in" height="6.82666in" style="shape-rendering:geometricPrecision; text-rendering:geometricPrecision; image-rendering:optimizeQuality; fill-rule:evenodd; clip-rule:evenodd"
viewBox="0 0 6.82666 6.82666"
 xmlns:xlink="http://www.w3.org/1999/xlink">
 <defs>
  <style type="text/css">
   <![CDATA[
    .fil3 {fill:none}
    .fil0 {fill:#9DD5C0}
    .fil2 {fill:#EBE5DF}
    .fil1 {fill:#333333;fill-rule:nonzero}
   ]]>
  </style>
 </defs>
 <g id="Layer_x0020_1">
  <metadata id="CorelCorpID_0Corel-Layer"/>
  <path class="fil0" d="M1.63848 5.57387c0.306531,0.234173 0.777811,0.279748 1.41832,-0.0552244 0.016189,-0.00990551 0.0352244,-0.015622 0.0555945,-0.015622l0.599571 0c0.0172953,-0.000283465 0.0349055,0.00364173 0.0512953,0.0122598l-0.0496457 0.0944094 0.0495827 -0.0941654c0.643591,0.338425 1.11685,0.293248 1.42433,0.0583425 0.300799,-0.229795 0.451217,-0.640972 0.451232,-1.05407 1.5748e-005,-0.41311 -0.150358,-0.824323 -0.451106,-1.05417 -0.306492,-0.23424 -0.777717,-0.279929 -1.41814,0.0548976 -0.016189,0.00990157 -0.0352205,0.0156181 -0.0555866,0.0156181l-0.600185 0c-0.0172992,0.000287402 -0.0349094,-0.0036378 -0.0512992,-0.012252l0.0496339 -0.0944173 -0.0495827 0.0941654c-0.643496,-0.338268 -1.11669,-0.292984 -1.42414,-0.0580118 -0.300748,0.22985 -0.451122,0.641063 -0.451106,1.05417 1.5748e-005,0.413102 0.150429,0.82428 0.451228,1.05407z"/>
  <path class="fil1" d="M1.50104 0.85322c0.145433,0 0.277114,0.0589606 0.372433,0.15428 0.0953189,0.0953228 0.15428,0.227004 0.15428,0.372437 0,0.145433 -0.0589606,0.277114 -0.15428,0.372437 -0.0953189,0.0953189 -0.227,0.15428 -0.372433,0.15428 -0.145433,0 -0.277114,-0.0589606 -0.372437,-0.15428 -0.0953189,-0.0953228 -0.15428,-0.227004 -0.15428,-0.372437 0,-0.145433 0.0589606,-0.277114 0.15428,-0.372437 0.0953228,-0.0953189 0.227004,-0.15428 0.372437,-0.15428zm0.221598 0.305114c-0.0567008,-0.0567008 -0.135051,-0.0917756 -0.221598,-0.0917756 -0.0865472,0 -0.164898,0.0350748 -0.221602,0.0917756 -0.0567008,0.0567047 -0.0917756,0.135055 -0.0917756,0.221602 0,0.0865472 0.0350787,0.164902 0.0917756,0.221602 0.0567047,0.0567008 0.135055,0.0917756 0.221602,0.0917756 0.0865472,0 0.164898,-0.0350748 0.221598,-0.0917756 0.0566969,-0.0567008 0.0917756,-0.135055 0.0917756,-0.221602 0,-0.0865472 -0.0350748,-0.164898 -0.0917756,-0.221602z"/>
  <path class="fil1" d="M2.87141 1.29803c0.103815,0 0.197815,0.0420906 0.265862,0.110134 0.0680433,0.0680472 0.110134,0.162047 0.110134,0.265862 0,0.103815 -0.0420906,0.197815 -0.110134,0.265862 -0.0680472,0.0680433 -0.162047,0.110134 -0.265862,0.110134 -0.103819,0 -0.197819,-0.0420945 -0.265858,-0.110138 -0.0680433,-0.0680394 -0.110138,-0.162047 -0.110138,-0.265858 0,-0.103815 0.0420906,-0.197815 0.110134,-0.265862 0.0680472,-0.0680433 0.162047,-0.110134 0.265862,-0.110134zm0.115028 0.260969c-0.0294252,-0.0294213 -0.0700984,-0.0476299 -0.115028,-0.0476299 -0.0449291,0 -0.0855984,0.0182047 -0.115028,0.0476299 -0.0294252,0.0294291 -0.0476299,0.0700984 -0.0476299,0.115028 0,0.0449252 0.0182047,0.0855984 0.0476339,0.115024 0.0294252,0.0294291 0.0700984,0.0476339 0.115024,0.0476339 0.0449291,0 0.0856024,-0.0182087 0.115028,-0.0476299 0.0294213,-0.0294252 0.0476299,-0.0700984 0.0476299,-0.115028 0,-0.0449291 -0.0182047,-0.0855984 -0.0476299,-0.115028z"/>
  <path class="fil1" d="M4.60623 1.09522c0.115413,0 0.219917,0.0467913 0.295563,0.122437 0.0756457,0.0756457 0.122441,0.18015 0.122441,0.295563 0,0.115413 -0.0467953,0.219921 -0.122441,0.295563 -0.0756417,0.0756457 -0.180146,0.122441 -0.295563,0.122441 -0.115413,0 -0.219921,-0.0467953 -0.295563,-0.122441 -0.0756457,-0.0756417 -0.122441,-0.18015 -0.122441,-0.295563 0,-0.115413 0.0467953,-0.219917 0.122441,-0.295563 0.0756457,-0.0756457 0.18015,-0.122437 0.295563,-0.122437zm0.144728 0.273272c-0.0370276,-0.0370276 -0.0882008,-0.0599331 -0.144728,-0.0599331 -0.0565276,0 -0.107701,0.0229055 -0.144728,0.0599331 -0.0370276,0.0370276 -0.059937,0.0882008 -0.059937,0.144728 0,0.0565276 0.0229094,0.107705 0.059937,0.144728 0.0370236,0.0370276 0.0882008,0.059937 0.144728,0.059937 0.0565276,0 0.107701,-0.0229055 0.144728,-0.059937 0.0370276,-0.0370236 0.059937,-0.0882008 0.059937,-0.144728 0,-0.0565276 -0.0229094,-0.107701 -0.059937,-0.144728z"/>
  <path class="fil1" d="M5.39233 2.05379c0.127016,0 0.24202,0.0514961 0.325264,0.134744 0.083248,0.0832441 0.134744,0.198248 0.134744,0.325264 0,0.127008 -0.0514921,0.242016 -0.13474,0.325268 -0.083248,0.083248 -0.198256,0.13474 -0.325268,0.13474 -0.127012,0 -0.242016,-0.0514921 -0.325264,-0.13474 -0.083248,-0.083252 -0.13474,-0.19826 -0.13474,-0.325268 0,-0.127012 0.0514921,-0.242016 0.13474,-0.325264 0.0832441,-0.083248 0.198248,-0.134744 0.325264,-0.134744zm0.174429 0.285579c-0.044626,-0.0446299 -0.106303,-0.0722402 -0.174429,-0.0722402 -0.068126,0 -0.129803,0.0276102 -0.174429,0.0722402 -0.0446299,0.0446299 -0.0722362,0.106303 -0.0722362,0.174429 0,0.068126 0.0276102,0.129803 0.0722362,0.174433 0.0446299,0.0446299 0.106303,0.0722362 0.174429,0.0722362 0.0681299,0 0.129803,-0.0276063 0.174433,-0.0722362 0.044626,-0.0446299 0.0722362,-0.106307 0.0722362,-0.174433 0,-0.068126 -0.0276102,-0.129803 -0.0722402,-0.174429z"/>
  <path class="fil1" d="M1.85735 2.17906c0.103815,0 0.197815,0.0420906 0.265862,0.110134 0.0680433,0.0680472 0.110134,0.162047 0.110134,0.265862 0,0.103815 -0.0420906,0.197815 -0.110134,0.265862 -0.0680472,0.0680433 -0.162047,0.110134 -0.265862,0.110134 -0.103819,0 -0.197819,-0.0420945 -0.265858,-0.110138 -0.0680433,-0.0680394 -0.110138,-0.162047 -0.110138,-0.265858 0,-0.103815 0.0420906,-0.197815 0.110134,-0.265862 0.0680472,-0.0680433 0.162047,-0.110134 0.265862,-0.110134zm0.115028 0.260969c-0.0294252,-0.0294213 -0.0700984,-0.0476299 -0.115028,-0.0476299 -0.0449291,0 -0.0855984,0.0182047 -0.115028,0.0476299 -0.0294252,0.0294291 -0.0476299,0.0700984 -0.0476299,0.115028 0,0.0449252 0.0182047,0.0855984 0.0476339,0.115024 0.0294252,0.0294291 0.0700984,0.0476339 0.115024,0.0476339 0.0449291,0 0.0856024,-0.0182087 0.115028,-0.0476299 0.0294213,-0.0294252 0.0476299,-0.0700984 0.0476299,-0.115028 0,-0.0449291 -0.0182047,-0.0855984 -0.0476299,-0.115028z"/>
  <path class="fil1" d="M3.81184 2.09504c0.115413,0 0.219917,0.0467913 0.295567,0.122437 0.0756457,0.0756457 0.122437,0.18015 0.122437,0.295563 0,0.115409 -0.0467913,0.219917 -0.122437,0.295567 -0.0756496,0.0756457 -0.18015,0.122437 -0.295567,0.122437 -0.115413,0 -0.219917,-0.0467913 -0.295563,-0.122437 -0.0756457,-0.0756496 -0.122437,-0.180157 -0.122437,-0.295567 0,-0.115413 0.0467913,-0.219917 0.122437,-0.295563 0.0756496,-0.0756457 0.18015,-0.122437 0.295563,-0.122437zm0.144732 0.273272c-0.0370315,-0.0370276 -0.0882047,-0.0599331 -0.144732,-0.0599331 -0.0565276,0 -0.107697,0.0229055 -0.144728,0.0599331 -0.0370276,0.0370276 -0.0599331,0.0882008 -0.0599331,0.144728 0,0.0565276 0.0229055,0.107701 0.0599331,0.144732 0.0370276,0.0370276 0.0882008,0.0599331 0.144728,0.0599331 0.0565276,0 0.107701,-0.0229055 0.144732,-0.0599331 0.0370276,-0.0370315 0.0599331,-0.0882047 0.0599331,-0.144732 0,-0.0565276 -0.0229055,-0.107701 -0.0599331,-0.144728z"/>
  <path class="fil1" d="M3.13785 5.71637c-0.718787,0.370272 -1.26314,0.305823 -1.62854,0.0266732 -0.356358,-0.272236 -0.534547,-0.748701 -0.534567,-1.22324 -1.9685e-005,-0.474531 0.178134,-0.951024 0.534445,-1.22334 0.365335,-0.279213 0.909618,-0.343768 1.62833,0.0263425l0.550961 0c0.71872,-0.370114 1.263,-0.305555 1.62834,-0.0263425 0.356311,0.272315 0.534465,0.748807 0.534445,1.22334 -1.9685e-005,0.474539 -0.178213,0.951004 -0.534571,1.22324 -0.365398,0.27915 -0.909752,0.343598 -1.62854,-0.0266732l-0.550307 0zm-1.49937 -0.142492c0.306531,0.234173 0.777811,0.279748 1.41832,-0.0552244 0.016189,-0.00990551 0.0352244,-0.015622 0.0555945,-0.015622l0.599571 0c0.0172953,-0.000283465 0.0349055,0.00364173 0.0512953,0.0122598l-0.0496457 0.0944094 0.0495827 -0.0941654c0.643591,0.338425 1.11685,0.293248 1.42433,0.0583425 0.300799,-0.229795 0.451217,-0.640972 0.451232,-1.05407 1.5748e-005,-0.41311 -0.150358,-0.824323 -0.451106,-1.05417 -0.306492,-0.23424 -0.777717,-0.279929 -1.41814,0.0548976 -0.016189,0.00990157 -0.0352205,0.0156181 -0.0555866,0.0156181l-0.600185 0c-0.0172992,0.000287402 -0.0349094,-0.0036378 -0.0512992,-0.012252l0.0496339 -0.0944173 -0.0495827 0.0941654c-0.643496,-0.338268 -1.11669,-0.292984 -1.42414,-0.0580118 -0.300748,0.22985 -0.451122,0.641063 -0.451106,1.05417 1.5748e-005,0.413102 0.150429,0.82428 0.451228,1.05407z"/>
  <path class="fil1" d="M2.32222 4.61049l0.157854 -0.00987402c0.00337402,0.025622 0.010374,0.0451181 0.0208701,0.0586142 0.017,0.021748 0.0414961,0.0324961 0.0732402,0.0324961 0.023622,0 0.0418701,-0.0055 0.0547441,-0.016622 0.012748,-0.011122 0.019122,-0.0239961 0.019122,-0.0386181 0,-0.013874 -0.006,-0.026374 -0.018248,-0.0373701 -0.012248,-0.011 -0.0404961,-0.021374 -0.0849882,-0.031122 -0.0727402,-0.0163701 -0.124606,-0.0379921 -0.155602,-0.0651142 -0.031248,-0.027122 -0.0468701,-0.0616181 -0.0468701,-0.10361 0,-0.027622 0.008,-0.0537441 0.0239961,-0.0782402 0.016,-0.0244961 0.0399961,-0.0437441 0.0721142,-0.0578661 0.032122,-0.014 0.0761142,-0.0209961 0.131984,-0.0209961 0.0686142,0 0.12098,0.012748 0.156976,0.0382441 0.0359961,0.0254961 0.0573661,0.0661142 0.0642402,0.121732l-0.15635 0.00912205c-0.00412598,-0.024122 -0.012874,-0.0417441 -0.026248,-0.0527402 -0.013248,-0.010874 -0.031622,-0.016374 -0.0549921,-0.016374 -0.019374,0 -0.0338701,0.004 -0.0436181,0.012248 -0.00974803,0.00812598 -0.014622,0.018122 -0.014622,0.0298701 0,0.0085 0.00399606,0.016122 0.0119961,0.0229961 0.00787402,0.00712598 0.0263701,0.013626 0.0557441,0.019748 0.0724882,0.015622 0.124354,0.0314961 0.155728,0.0474961 0.0313701,0.0159961 0.0542402,0.0357441 0.0684882,0.0594882 0.014248,0.023622 0.0214961,0.0501181 0.0214961,0.0794921 0,0.0343701 -0.00962205,0.0661142 -0.0286181,0.0951102 -0.019,0.029122 -0.045622,0.0511181 -0.0798661,0.0661142 -0.0341181,0.015 -0.0772402,0.0224961 -0.129232,0.0224961 -0.0912362,0 -0.154476,-0.0174961 -0.189598,-0.0527402 -0.0352441,-0.035122 -0.0551142,-0.0797402 -0.0597402,-0.13398zm0.549547 -0.0904882c0,-0.0876142 0.0244961,-0.155854 0.0732402,-0.204594 0.0488661,-0.0488701 0.116858,-0.0732402 0.203969,-0.0732402 0.0893622,0 0.158228,0.0239961 0.206598,0.0719882 0.0482402,0.0478701 0.0724882,0.11511 0.0724882,0.201472 0,0.0627402 -0.010622,0.114232 -0.0317441,0.154354 -0.021122,0.0401181 -0.0516181,0.0713622 -0.0914882,0.0937362 -0.0399961,0.0223701 -0.0896142,0.0334921 -0.149228,0.0334921 -0.0604921,0 -0.11061,-0.00962205 -0.150354,-0.0288701 -0.0396181,-0.0193701 -0.0717402,-0.0498661 -0.0964882,-0.0916102 -0.0246181,-0.0417441 -0.0369921,-0.0939882 -0.0369921,-0.156728zm0.165976 0.000748031c0,0.0542441 0.00999606,0.0931142 0.0301181,0.116858 0.020122,0.023622 0.047622,0.0354961 0.0822402,0.0354961 0.0356181,0 0.0632402,-0.011622 0.0827402,-0.0347441 0.0194961,-0.023248 0.0293701,-0.0648661 0.0293701,-0.124858 0,-0.0506181 -0.010248,-0.0874882 -0.030622,-0.110858 -0.0203701,-0.023248 -0.0479921,-0.0348701 -0.0829882,-0.0348701 -0.0333701,0 -0.0602402,0.011748 -0.0804882,0.0354961 -0.020248,0.0236181 -0.0303701,0.0628661 -0.0303701,0.11748zm0.784264 0.178724l-0.188976 0 -0.0259961 0.0886142 -0.169476 0 0.201724 -0.536799 0.180846 0 0.201846 0.536799 -0.173598 0 -0.0263701 -0.0886142zm-0.034748 -0.116106l-0.0593661 -0.192972 -0.0589921 0.192972 0.118358 0zm0.287087 -0.332079l0.275709 0c0.0599921,0 0.104984,0.014248 0.134858,0.0428701 0.0298701,0.0284961 0.0448661,0.0692402 0.0448661,0.121858 0,0.0542402 -0.016248,0.0966102 -0.0488661,0.127106 -0.032622,0.0304961 -0.0823661,0.0457441 -0.149228,0.0457441l-0.0907402 0 0 0.19922 -0.166598 0 0 -0.536799zm0.166598 0.228843l0.040622 0c0.0319921,0 0.0543661,-0.0055 0.0673622,-0.016622 0.012874,-0.011122 0.019374,-0.0253701 0.019374,-0.0426181 0,-0.016874 -0.00562598,-0.031248 -0.016874,-0.0428701 -0.011122,-0.011748 -0.0322441,-0.017622 -0.0632402,-0.017622l-0.0472441 0 0 0.119732z"/>
  <path class="fil2" d="M5.14566 2.5138c0,0.068126 0.0276102,0.129803 0.0722362,0.174433 0.0446299,0.0446299 0.106303,0.0722362 0.174429,0.0722362 0.0681299,0 0.129803,-0.0276063 0.174433,-0.0722362 0.044626,-0.0446299 0.0722362,-0.106307 0.0722362,-0.174433 0,-0.068126 -0.0276102,-0.129803 -0.0722402,-0.174429 -0.044626,-0.0446299 -0.106303,-0.0722402 -0.174429,-0.0722402 -0.068126,0 -0.129803,0.0276102 -0.174429,0.0722402 -0.0446299,0.0446299 -0.0722362,0.106303 -0.0722362,0.174429z"/>
  <path class="fil2" d="M4.60623 1.71789c0.0565276,0 0.107701,-0.0229055 0.144728,-0.059937 0.0370276,-0.0370236 0.059937,-0.0882008 0.059937,-0.144728 0,-0.0565276 -0.0229094,-0.107701 -0.059937,-0.144728 -0.0370276,-0.0370276 -0.0882008,-0.0599331 -0.144728,-0.0599331 -0.0565276,0 -0.107701,0.0229055 -0.144728,0.0599331 -0.0370276,0.0370276 -0.059937,0.0882008 -0.059937,0.144728 0,0.0565276 0.0229094,0.107705 0.059937,0.144728 0.0370236,0.0370276 0.0882008,0.059937 0.144728,0.059937z"/>
  <path class="fil2" d="M4.0165 2.51304c0,-0.0565276 -0.0229055,-0.107701 -0.0599331,-0.144728 -0.0370315,-0.0370276 -0.0882047,-0.0599331 -0.144732,-0.0599331 -0.0565276,0 -0.107697,0.0229055 -0.144728,0.0599331 -0.0370276,0.0370276 -0.0599331,0.0882008 -0.0599331,0.144728 0,0.0565276 0.0229055,0.107701 0.0599331,0.144732 0.0370276,0.0370276 0.0882008,0.0599331 0.144728,0.0599331 0.0565276,0 0.107701,-0.0229055 0.144732,-0.0599331 0.0370276,-0.0370315 0.0599331,-0.0882047 0.0599331,-0.144732z"/>
  <path class="fil2" d="M2.98644 1.78905c0.0294213,-0.0294252 0.0476299,-0.0700984 0.0476299,-0.115028 0,-0.0449291 -0.0182047,-0.0855984 -0.0476299,-0.115028 -0.0294252,-0.0294213 -0.0700984,-0.0476299 -0.115028,-0.0476299 -0.0449291,0 -0.0855984,0.0182047 -0.115028,0.0476299 -0.0294252,0.0294291 -0.0476299,0.0700984 -0.0476299,0.115028 0,0.0449252 0.0182047,0.0855984 0.0476339,0.115024 0.0294252,0.0294291 0.0700984,0.0476339 0.115024,0.0476339 0.0449291,0 0.0856024,-0.0182087 0.115028,-0.0476299z"/>
  <path class="fil2" d="M2.02001 2.55505c0,-0.0449291 -0.0182047,-0.0855984 -0.0476299,-0.115028 -0.0294252,-0.0294213 -0.0700984,-0.0476299 -0.115028,-0.0476299 -0.0449291,0 -0.0855984,0.0182047 -0.115028,0.0476299 -0.0294252,0.0294291 -0.0476299,0.0700984 -0.0476299,0.115028 0,0.0449252 0.0182047,0.0855984 0.0476339,0.115024 0.0294252,0.0294291 0.0700984,0.0476339 0.115024,0.0476339 0.0449291,0 0.0856024,-0.0182087 0.115028,-0.0476299 0.0294213,-0.0294252 0.0476299,-0.0700984 0.0476299,-0.115028z"/>
  <path class="fil2" d="M1.50104 1.69331c0.0865472,0 0.164898,-0.0350748 0.221598,-0.0917756 0.0566969,-0.0567008 0.0917756,-0.135055 0.0917756,-0.221602 0,-0.0865472 -0.0350748,-0.164898 -0.0917756,-0.221602 -0.0567008,-0.0567008 -0.135051,-0.0917756 -0.221598,-0.0917756 -0.0865472,0 -0.164898,0.0350748 -0.221602,0.0917756 -0.0567008,0.0567047 -0.0917756,0.135055 -0.0917756,0.221602 0,0.0865472 0.0350787,0.164902 0.0917756,0.221602 0.0567047,0.0567008 0.135055,0.0917756 0.221602,0.0917756z"/>
 </g>
 <rect class="fil3" width="6.82666" height="6.82666"/>
</svg>
