<?xml version="1.0" encoding="UTF-8"?>
<!DOCTYPE svg PUBLIC "-//W3C//DTD SVG 1.1//EN" "http://www.w3.org/Graphics/SVG/1.1/DTD/svg11.dtd">
<!-- Creator: CorelDRAW -->
<svg xmlns="http://www.w3.org/2000/svg" xml:space="preserve" width="6.82666in" height="6.82666in" style="shape-rendering:geometricPrecision; text-rendering:geometricPrecision; image-rendering:optimizeQuality; fill-rule:evenodd; clip-rule:evenodd"
viewBox="0 0 6.82666 6.82666"
 xmlns:xlink="http://www.w3.org/1999/xlink">
 <defs>
  <style type="text/css">
   <![CDATA[
    .fil2 {fill:none}
    .fil0 {fill:#FFEDDF}
    .fil1 {fill:#333333;fill-rule:nonzero}
   ]]>
  </style>
 </defs>
 <g id="Layer_x0020_1">
  <metadata id="CorelCorpID_0Corel-Layer"/>
  <path class="fil0" d="M2.62537 3.15704l0.435075 0c0.586461,-0.300571 1.03199,-0.246409 1.33214,-0.0170157 0.163945,0.125295 0.282028,0.302874 0.354252,0.50315 0.391177,0.0758622 0.667429,-0.0706417 0.829795,-0.310961 0.147437,-0.21822 0.206028,-0.512417 0.175862,-0.792709 -0.0297835,-0.276756 -0.145988,-0.536988 -0.348382,-0.691669 -0.241335,-0.184437 -0.613819,-0.219717 -1.12194,0.0455748 -0.016189,0.00990551 -0.0352244,0.0156181 -0.0555906,0.0156181l-0.484295 0c-0.0172992,0.000287402 -0.0349094,-0.0036378 -0.0512992,-0.012252l5.11811e-005 -0.000251969c-0.274406,-0.144248 -0.509346,-0.20135 -0.705776,-0.194559 -0.201283,0.00696063 -0.362795,0.0823937 -0.484661,0.199476 -0.124807,0.119909 -0.209941,0.284417 -0.255217,0.465394 -0.0516417,0.206461 -0.0511772,0.432413 0.00143701,0.637969 0.118846,0.0337756 0.245043,0.083811 0.378547,0.152236z"/>
  <path class="fil0" d="M4.56645 3.77336c-0.00206693,-0.00519291 -0.00372835,-0.0105709 -0.00495669,-0.0160709 -0.0571811,-0.180508 -0.156531,-0.339921 -0.298071,-0.448094 -0.241335,-0.184445 -0.613823,-0.219717 -1.12194,0.0455709 -0.016189,0.00990551 -0.0352244,0.0156181 -0.0555906,0.0156181l-0.484299 0c-0.0172992,0.000287402 -0.0349094,-0.0036378 -0.0512992,-0.012252l0.0496339 -0.0944173 -0.0495827 0.0941654c-0.511201,-0.268724 -0.885657,-0.233858 -1.12794,-0.048685 -0.237492,0.181508 -0.356236,0.507256 -0.356224,0.834909 1.1811e-005,0.327642 0.118795,0.653362 0.356323,0.834823 0.241358,0.18439 0.61389,0.219579 1.12208,-0.0458307 0.0161929,-0.00990945 0.0352283,-0.015626 0.0556024,-0.015626l0.483807 0c0.0172953,-0.000283465 0.0349055,0.00364173 0.0512953,0.0122598l-6.29921e-005 0.000244094c0.51128,0.26885 0.885783,0.234071 1.1281,0.0489528 0.237531,-0.181461 0.356311,-0.507181 0.356323,-0.834827 3.93701e-006,-0.126602 -0.0177362,-0.252913 -0.0531929,-0.37074z"/>
  <path class="fil1" d="M2.62564 5.13081c-0.586516,0.300701 -1.0321,0.246626 -1.3323,0.0172835 -0.293087,-0.223902 -0.439646,-0.614909 -0.439661,-1.00399 -1.5748e-005,-0.389075 0.146508,-0.780106 0.439563,-1.00407 0.30015,-0.229394 0.745673,-0.283559 1.33214,0.0170157l0.435075 0c0.586461,-0.300571 1.03199,-0.246409 1.33214,-0.0170157 0.293055,0.223969 0.439575,0.615 0.439559,1.00407 -1.5748e-005,0.389083 -0.146571,0.780091 -0.439661,1.00399 -0.300205,0.229339 -0.745787,0.283413 -1.3323,-0.0172835l-0.434543 0zm-1.20314 -0.151882c0.241358,0.18439 0.61389,0.219579 1.12208,-0.0458307 0.0161929,-0.00990945 0.0352283,-0.015626 0.0556024,-0.015626l0.483807 0c0.0172953,-0.000283465 0.0349055,0.00364173 0.0512953,0.0122598l-0.0496457 0.0944094 0.0495827 -0.0941654c0.51128,0.26885 0.885783,0.234071 1.1281,0.0489528 0.237531,-0.181461 0.356311,-0.507181 0.356323,-0.834827 1.1811e-005,-0.32765 -0.118728,-0.653398 -0.35622,-0.834906 -0.241335,-0.184445 -0.613823,-0.219717 -1.12194,0.0455709 -0.016189,0.00990551 -0.0352244,0.0156181 -0.0555906,0.0156181l-0.484299 0c-0.0172992,0.000287402 -0.0349094,-0.0036378 -0.0512992,-0.012252l0.0496339 -0.0944173 -0.0495827 0.0941654c-0.511201,-0.268724 -0.885657,-0.233858 -1.12794,-0.048685 -0.237492,0.181508 -0.356236,0.507256 -0.356224,0.834909 1.1811e-005,0.327642 0.118795,0.653362 0.356323,0.834823z"/>
  <path class="fil1" d="M2.05909 3.12271c0.0172598,0.0561457 0.0767717,0.0876732 0.132917,0.0704134 0.0561457,-0.0172598 0.0876732,-0.0767717 0.0704134,-0.132917 -0.0676969,-0.219803 -0.0733661,-0.468189 -0.0170315,-0.69337 0.0452756,-0.180976 0.130409,-0.345484 0.255217,-0.465394 0.121866,-0.117083 0.283378,-0.192516 0.484661,-0.199476 0.196429,-0.00679134 0.43137,0.050311 0.705776,0.194559l0.0495827 -0.0941654 -0.0496339 0.0944173c0.0163898,0.00861417 0.034,0.0125394 0.0512992,0.012252l0.484295 0c0.0203661,0 0.0394016,-0.0057126 0.0555906,-0.0156181 0.508118,-0.265291 0.880602,-0.230012 1.12194,-0.0455748 0.202394,0.154681 0.318598,0.414913 0.348382,0.691669 0.0301654,0.280291 -0.0284252,0.574488 -0.175862,0.792709 -0.170083,0.25174 -0.465122,0.400555 -0.886343,0.298638 -0.0570669,-0.0138071 -0.114528,0.0212677 -0.128335,0.0783346 -0.0138071,0.0570669 0.0212677,0.114528 0.0783346,0.128335 0.524315,0.126858 0.89574,-0.0645591 1.11301,-0.386142 0.175799,-0.260205 0.246118,-0.606772 0.210862,-0.934378 -0.0356378,-0.331146 -0.179201,-0.64598 -0.430886,-0.838331 -0.30015,-0.229386 -0.745681,-0.283555 -1.33214,0.0170197l-0.435047 0c-0.299268,-0.153354 -0.562079,-0.21402 -0.787496,-0.206228 -0.258858,0.00894882 -0.467409,0.106772 -0.625496,0.25865 -0.155146,0.149051 -0.25989,0.349244 -0.314382,0.567055 -0.0654567,0.261646 -0.0586614,0.550933 0.0203701,0.807543z"/>
  <path class="fil1" d="M1.96216 4.21733l0.127457 -0.00797244c0.00272441,0.020685 0.00837402,0.0364291 0.0168543,0.0473307 0.0137244,0.0175591 0.0335039,0.0262362 0.0591339,0.0262362 0.0190748,0 0.0338071,-0.00444094 0.0442047,-0.0134213 0.0102913,-0.00898031 0.015437,-0.019378 0.015437,-0.031185 0,-0.0112008 -0.00484252,-0.0212913 -0.0147323,-0.0301732 -0.00988976,-0.00888189 -0.0326969,-0.0172559 -0.068622,-0.025126 -0.0587362,-0.0132205 -0.100614,-0.0306811 -0.125642,-0.0525787 -0.0252283,-0.0218976 -0.0378425,-0.049752 -0.0378425,-0.0836614 0,-0.0223031 0.00645669,-0.0433937 0.019374,-0.0631732 0.0129173,-0.0197795 0.0322953,-0.0353189 0.0582283,-0.0467244 0.025937,-0.0113031 0.0614606,-0.0169528 0.106567,-0.0169528 0.0554055,0 0.097689,0.0102913 0.126752,0.030878 0.0290669,0.0205906 0.0463228,0.0533858 0.051874,0.0982953l-0.126248 0.00736614c-0.00333071,-0.0194764 -0.0103937,-0.0337047 -0.0211929,-0.0425866 -0.0106969,-0.00877953 -0.0255315,-0.0132205 -0.0444016,-0.0132205 -0.0156457,0 -0.0273504,0.00322835 -0.0352205,0.00988976 -0.00787402,0.00655906 -0.0118071,0.0146339 -0.0118071,0.0241181 0,0.0068622 0.00322835,0.0130197 0.00968504,0.0185709 0.00635827,0.00575197 0.0212953,0.011 0.0450118,0.0159449 0.0585315,0.0126142 0.100409,0.0254291 0.12574,0.0383465 0.0253307,0.0129173 0.0437992,0.0288622 0.0553031,0.0480354 0.0115039,0.0190748 0.0173583,0.0404685 0.0173583,0.064185 0,0.027752 -0.00777165,0.0533858 -0.0231102,0.0767992 -0.0153386,0.0235118 -0.0368346,0.0412717 -0.0644882,0.0533819 -0.0275472,0.0121102 -0.0623661,0.0181654 -0.104346,0.0181654 -0.0736693,0 -0.124732,-0.014126 -0.153091,-0.0425866 -0.0284567,-0.0283583 -0.0445039,-0.0643858 -0.0482362,-0.108181zm0.443728 -0.073063c0,-0.0707441 0.0197795,-0.125846 0.0591378,-0.165201 0.0394567,-0.0394606 0.0943583,-0.0591378 0.164697,-0.0591378 0.0721535,0 0.12776,0.019374 0.166815,0.058126 0.0389528,0.0386535 0.0585315,0.0929449 0.0585315,0.162677 0,0.0506614 -0.00857874,0.0922402 -0.0256339,0.124634 -0.0170551,0.0323937 -0.0416772,0.057622 -0.0738701,0.075689 -0.0322953,0.018063 -0.0723583,0.0270433 -0.120496,0.0270433 -0.0488425,0 -0.089311,-0.00777165 -0.121402,-0.023311 -0.0319921,-0.0156417 -0.0579252,-0.0402638 -0.0779094,-0.0739724 -0.019878,-0.0337047 -0.0298701,-0.0758898 -0.0298701,-0.126547zm0.13402 0.000602362c0,0.0437992 0.00807087,0.075185 0.0243189,0.0943583 0.016248,0.0190748 0.0384488,0.0286614 0.0664016,0.0286614 0.0287638,0 0.0510669,-0.00938583 0.0668071,-0.0280551 0.0157441,-0.0187717 0.0237165,-0.052378 0.0237165,-0.100815 0,-0.040874 -0.00827559,-0.0706417 -0.0247244,-0.0895157 -0.0164488,-0.0187677 -0.038752,-0.0281535 -0.0670079,-0.0281535 -0.0269449,0 -0.0486417,0.00948425 -0.0649921,0.0286614 -0.0163465,0.0190709 -0.0245197,0.0507598 -0.0245197,0.0948583zm0.633248 0.144311l-0.152583 0 -0.0209921 0.0715512 -0.136843 0 0.162878 -0.433437 0.146028 0 0.16298 0.433437 -0.140173 0 -0.0212953 -0.0715512zm-0.0280551 -0.093752l-0.0479331 -0.155815 -0.0476339 0.155815 0.0955669 0zm0.231807 -0.268134l0.222622 0c0.048437,0 0.0847677,0.0115039 0.10889,0.0346142 0.0241181,0.0230079 0.0362283,0.0559094 0.0362283,0.0983937 0,0.0437992 -0.013122,0.0780079 -0.0394606,0.102634 -0.0263386,0.024622 -0.0665039,0.0369331 -0.120492,0.0369331l-0.0732677 0 0 0.160862 -0.13452 0 0 -0.433437zm0.13452 0.18478l0.0327992 0c0.0258346,0 0.0438976,-0.00444094 0.0543937,-0.0134213 0.0103937,-0.00898425 0.0156417,-0.0204882 0.0156417,-0.0344134 0,-0.013626 -0.00453937,-0.0252283 -0.013622,-0.0346142 -0.00898425,-0.00948819 -0.0260394,-0.0142323 -0.0510669,-0.0142323l-0.0381457 0 0 0.0966811z"/>
  <path class="fil1" d="M3.10285 2.75597l0.127457 -0.00797244c0.00272441,0.020685 0.00837402,0.0364291 0.0168543,0.0473307 0.0137244,0.0175591 0.0335039,0.0262362 0.0591339,0.0262362 0.0190748,0 0.0338071,-0.00444094 0.0442047,-0.0134213 0.0102913,-0.00898031 0.015437,-0.019378 0.015437,-0.031185 0,-0.0112008 -0.00484252,-0.0212913 -0.0147323,-0.0301732 -0.00988976,-0.00888189 -0.0326969,-0.0172559 -0.068622,-0.025126 -0.0587362,-0.0132205 -0.100614,-0.0306811 -0.125642,-0.0525787 -0.0252283,-0.0218976 -0.0378425,-0.049752 -0.0378425,-0.0836614 0,-0.0223031 0.00645669,-0.0433937 0.019374,-0.0631732 0.0129173,-0.0197795 0.0322953,-0.0353189 0.0582283,-0.0467244 0.025937,-0.0113031 0.0614606,-0.0169528 0.106567,-0.0169528 0.0554055,0 0.097689,0.0102913 0.126752,0.030878 0.0290669,0.0205906 0.0463228,0.0533858 0.051874,0.0982953l-0.126248 0.00736614c-0.00333071,-0.0194764 -0.0103937,-0.0337047 -0.0211929,-0.0425866 -0.0106969,-0.00877953 -0.0255315,-0.0132205 -0.0444016,-0.0132205 -0.0156457,0 -0.0273504,0.00322835 -0.0352205,0.00988976 -0.00787402,0.00655906 -0.0118071,0.0146339 -0.0118071,0.0241181 0,0.0068622 0.00322835,0.0130197 0.00968504,0.0185709 0.00635827,0.00575197 0.0212953,0.011 0.0450118,0.0159449 0.0585315,0.0126142 0.100409,0.0254291 0.12574,0.0383465 0.0253307,0.0129173 0.0437992,0.0288622 0.0553031,0.0480354 0.0115039,0.0190748 0.0173583,0.0404685 0.0173583,0.064185 0,0.027752 -0.00777165,0.0533858 -0.0231102,0.0767992 -0.0153386,0.0235118 -0.0368346,0.0412717 -0.0644882,0.0533819 -0.0275472,0.0121102 -0.0623661,0.0181654 -0.104346,0.0181654 -0.0736693,0 -0.124732,-0.014126 -0.153091,-0.0425866 -0.0284567,-0.0283583 -0.0445039,-0.0643858 -0.0482362,-0.108181zm0.443728 -0.073063c0,-0.0707441 0.0197795,-0.125846 0.0591378,-0.165201 0.0394567,-0.0394606 0.0943583,-0.0591378 0.164697,-0.0591378 0.0721535,0 0.12776,0.019374 0.166815,0.058126 0.0389528,0.0386535 0.0585315,0.0929449 0.0585315,0.162677 0,0.0506614 -0.00857874,0.0922402 -0.0256339,0.124634 -0.0170551,0.0323937 -0.0416772,0.057622 -0.0738701,0.075689 -0.0322953,0.018063 -0.0723583,0.0270433 -0.120496,0.0270433 -0.0488425,0 -0.089311,-0.00777165 -0.121402,-0.023311 -0.0319921,-0.0156417 -0.0579252,-0.0402638 -0.0779094,-0.0739724 -0.019878,-0.0337047 -0.0298701,-0.0758898 -0.0298701,-0.126547zm0.13402 0.000602362c0,0.0437992 0.00807087,0.075185 0.0243189,0.0943583 0.016248,0.0190748 0.0384488,0.0286614 0.0664016,0.0286614 0.0287638,0 0.0510669,-0.00938583 0.0668071,-0.0280551 0.0157441,-0.0187717 0.0237165,-0.052378 0.0237165,-0.100815 0,-0.040874 -0.00827559,-0.0706417 -0.0247244,-0.0895157 -0.0164488,-0.0187677 -0.038752,-0.0281535 -0.0670079,-0.0281535 -0.0269449,0 -0.0486417,0.00948425 -0.0649921,0.0286614 -0.0163465,0.0190709 -0.0245197,0.0507598 -0.0245197,0.0948583zm0.633248 0.144311l-0.152583 0 -0.0209921 0.0715512 -0.136843 0 0.162878 -0.433437 0.146028 0 0.16298 0.433437 -0.140173 0 -0.0212953 -0.0715512zm-0.0280551 -0.093752l-0.0479331 -0.155815 -0.0476339 0.155815 0.0955669 0zm0.231807 -0.268134l0.222622 0c0.048437,0 0.0847677,0.0115039 0.10889,0.0346142 0.0241181,0.0230079 0.0362283,0.0559094 0.0362283,0.0983937 0,0.0437992 -0.013122,0.0780079 -0.0394606,0.102634 -0.0263386,0.024622 -0.0665039,0.0369331 -0.120492,0.0369331l-0.0732677 0 0 0.160862 -0.13452 0 0 -0.433437zm0.13452 0.18478l0.0327992 0c0.0258346,0 0.0438976,-0.00444094 0.0543937,-0.0134213 0.0103937,-0.00898425 0.0156417,-0.0204882 0.0156417,-0.0344134 0,-0.013626 -0.00453937,-0.0252283 -0.013622,-0.0346142 -0.00898425,-0.00948819 -0.0260394,-0.0142323 -0.0510669,-0.0142323l-0.0381457 0 0 0.0966811z"/>
 </g>
 <rect class="fil2" width="6.82666" height="6.82666"/>
</svg>
