<?xml version="1.0" encoding="UTF-8"?>
<!DOCTYPE svg PUBLIC "-//W3C//DTD SVG 1.1//EN" "http://www.w3.org/Graphics/SVG/1.1/DTD/svg11.dtd">
<!-- Creator: CorelDRAW -->
<svg xmlns="http://www.w3.org/2000/svg" xml:space="preserve" width="6.82666in" height="6.82666in" style="shape-rendering:geometricPrecision; text-rendering:geometricPrecision; image-rendering:optimizeQuality; fill-rule:evenodd; clip-rule:evenodd"
viewBox="0 0 6.82666 6.82666"
 xmlns:xlink="http://www.w3.org/1999/xlink">
 <defs>
  <style type="text/css">
   <![CDATA[
    .fil2 {fill:none}
    .fil1 {fill:#63CBE5}
    .fil0 {fill:#333333;fill-rule:nonzero}
   ]]>
  </style>
 </defs>
 <g id="Layer_x0020_1">
  <metadata id="CorelCorpID_0Corel-Layer"/>
  <g id="_444885096">
   <path id="_444884616" class="fil0" d="M1.55281 2.86831c-0.015185,-0.0568386 -0.0735787,-0.0906024 -0.130417,-0.0754173 -0.0568386,0.015185 -0.0906024,0.0735787 -0.0754173,0.130417 0.0373386,0.137811 0.130228,0.238547 0.249429,0.302642 0.102185,0.0549449 0.223697,0.0824173 0.344114,0.0824173 0.120417,0 0.241929,-0.0274724 0.344114,-0.0824173 0.119201,-0.0640945 0.212083,-0.164827 0.249429,-0.302642 0.015185,-0.0568386 -0.0185787,-0.115232 -0.0754173,-0.130417 -0.0568386,-0.015185 -0.115232,0.0185787 -0.130417,0.0754173 -0.0204921,0.075626 -0.0744252,0.132496 -0.144429,0.170138 -0.0701535,0.0377205 -0.156173,0.0565827 -0.24328,0.0565827 -0.0871063,0 -0.173126,-0.0188622 -0.24328,-0.0565827 -0.0700039,-0.0376417 -0.123941,-0.0945157 -0.144429,-0.170138z"/>
   <path id="_444884904" class="fil0" d="M3.51531 2.92331c0.015185,-0.0568386 -0.0185787,-0.115232 -0.0754173,-0.130417 -0.0568386,-0.015185 -0.115232,0.0185787 -0.130417,0.0754173 -0.0204882,0.075626 -0.0744213,0.132496 -0.144433,0.170138 -0.0701535,0.0377205 -0.156173,0.0565827 -0.243276,0.0565827 -0.0871063,0 -0.173126,-0.0188622 -0.243276,-0.0565827 -0.0700079,-0.0376417 -0.123937,-0.0945118 -0.144429,-0.170138 -0.015185,-0.0568386 -0.0735787,-0.0906024 -0.130417,-0.0754173 -0.0568386,0.015185 -0.0906024,0.0735787 -0.0754173,0.130417 0.0373386,0.137807 0.130224,0.238547 0.249429,0.302642 0.102181,0.0549449 0.223693,0.0824173 0.34411,0.0824173 0.120413,0 0.241925,-0.0274724 0.34411,-0.0824173 0.119201,-0.0640906 0.212094,-0.164827 0.249433,-0.302642z"/>
   <path id="_444884760" class="fil0" d="M3.51531 2.86831c-0.015185,-0.0568386 -0.0735787,-0.0906024 -0.130417,-0.0754173 -0.0568386,0.015185 -0.0906024,0.0735787 -0.0754173,0.130417 0.0373386,0.137811 0.130224,0.238547 0.249429,0.302642 0.102181,0.0549449 0.223693,0.0824173 0.34411,0.0824173 0.120409,0 0.241921,-0.0274724 0.34411,-0.0824134 0.119201,-0.0640945 0.212087,-0.164831 0.249433,-0.302646 0.015185,-0.0568386 -0.0185787,-0.115232 -0.0754173,-0.130417 -0.0568386,-0.015185 -0.115232,0.0185787 -0.130417,0.0754173 -0.0204921,0.0756299 -0.0744291,0.1325 -0.144433,0.170142 -0.0701535,0.0377165 -0.156173,0.0565787 -0.243276,0.0565787 -0.0871063,0 -0.173126,-0.0188622 -0.243276,-0.0565827 -0.0700079,-0.0376417 -0.123937,-0.0945118 -0.144429,-0.170138z"/>
   <path id="_444884712" class="fil0" d="M5.4778 2.92331c0.015185,-0.0568386 -0.0185787,-0.115232 -0.0754173,-0.130417 -0.0568386,-0.015185 -0.115232,0.0185787 -0.130417,0.0754173 -0.0204921,0.075626 -0.0744213,0.132496 -0.144429,0.170138 -0.0701496,0.0377205 -0.156169,0.0565827 -0.243276,0.0565827 -0.0871063,0 -0.173126,-0.0188622 -0.243276,-0.0565787 -0.0700039,-0.0376417 -0.123941,-0.0945157 -0.144433,-0.170142 -0.015185,-0.0568386 -0.0735787,-0.0906024 -0.130417,-0.0754173 -0.0568386,0.015185 -0.0906024,0.0735787 -0.0754173,0.130417 0.0373465,0.137815 0.130236,0.238555 0.249433,0.302646 0.102185,0.054937 0.223697,0.0824134 0.34411,0.0824134 0.120417,0 0.241929,-0.0274724 0.34411,-0.0824173 0.119205,-0.0640945 0.212091,-0.164835 0.249429,-0.302642z"/>
   <path id="_444884976" class="fil0" d="M1.31572 2.15863c-0.0184094,-0.055689 -0.0784803,-0.0859094 -0.134169,-0.0675 -0.055689,0.0184094 -0.0859094,0.0784803 -0.0675,0.134169l0.814252 2.44271 0.100835 -0.0333346 -0.101193 0.0337323c0.0151457,0.0454488 0.0579291,0.0739094 0.103437,0.072937l2.76614 0c0.050689,0 0.093122,-0.0353622 0.103976,-0.0827598l0.811106 -2.43329c0.0184094,-0.055689 -0.011811,-0.11576 -0.0675,-0.134169 -0.055689,-0.0184094 -0.11576,0.011811 -0.134169,0.0675l-0.789803 2.36938 -2.6156 0 -0.789807 -2.36938z"/>
   <path id="_444884520" class="fil0" d="M1.21489 2.29863c0.0589094,0 0.106669,-0.0477598 0.106669,-0.106669 0,-0.0589094 -0.0477598,-0.106669 -0.106669,-0.106669l-0.254894 0c-0.0589094,0 -0.106669,0.0477598 -0.106669,0.106669 0,0.0589094 0.0477598,0.106669 0.106669,0.106669l0.254894 0z"/>
   <path id="_444884496" class="fil0" d="M5.61177 2.08529c-0.0589094,0 -0.106669,0.0477598 -0.106669,0.106669 0,0.0589094 0.0477598,0.106669 0.106669,0.106669l0.25489 0c0.0589094,0 0.106669,-0.0477598 0.106669,-0.106669 0,-0.0589094 -0.0477598,-0.106669 -0.106669,-0.106669l-0.25489 0z"/>
  </g>
  <path class="fil1" d="M3.90301 3.30837c-0.120417,0 -0.241929,-0.0274724 -0.34411,-0.0824173 -0.0555354,-0.0298622 -0.105358,-0.0676732 -0.146512,-0.113484 -0.0411575,0.045811 -0.0909803,0.083626 -0.146516,0.113484 -0.102185,0.0549449 -0.223697,0.0824173 -0.34411,0.0824173 -0.120417,0 -0.241929,-0.0274724 -0.34411,-0.0824173 -0.0555354,-0.0298622 -0.105358,-0.0676732 -0.146512,-0.113484 -0.0411575,0.045811 -0.0909764,0.083622 -0.146512,0.113484 -0.102185,0.0549449 -0.223697,0.0824173 -0.344114,0.0824173 -0.0873583,0 -0.175287,-0.0144567 -0.256,-0.043374l0.421008 1.263 2.6156 0 0.421264 -1.26377c-0.0812913,0.0294252 -0.17,0.0441378 -0.258126,0.0441378 -0.120413,0 -0.241925,-0.0274764 -0.34411,-0.0824134 -0.0555354,-0.0298583 -0.105358,-0.0676772 -0.146516,-0.113488 -0.0411575,0.045811 -0.0909803,0.083626 -0.146516,0.113488 -0.102189,0.0549409 -0.223701,0.0824134 -0.34411,0.0824134z"/>
 </g>
 <rect class="fil2" width="6.82666" height="6.82666"/>
</svg>
