<?xml version="1.0" encoding="UTF-8"?>
<!DOCTYPE svg PUBLIC "-//W3C//DTD SVG 1.1//EN" "http://www.w3.org/Graphics/SVG/1.1/DTD/svg11.dtd">
<!-- Creator: CorelDRAW -->
<svg xmlns="http://www.w3.org/2000/svg" xml:space="preserve" width="6.82666in" height="6.82666in" style="shape-rendering:geometricPrecision; text-rendering:geometricPrecision; image-rendering:optimizeQuality; fill-rule:evenodd; clip-rule:evenodd"
viewBox="0 0 6.82666 6.82666"
 xmlns:xlink="http://www.w3.org/1999/xlink">
 <defs>
  <style type="text/css">
   <![CDATA[
    .fil6 {fill:none}
    .fil1 {fill:#949494}
    .fil3 {fill:#AED581}
    .fil5 {fill:#F19A7B}
    .fil2 {fill:#F45A52}
    .fil4 {fill:#FECA5F}
    .fil0 {fill:#333333;fill-rule:nonzero}
   ]]>
  </style>
 </defs>
 <g id="Layer_x0020_1">
  <metadata id="CorelCorpID_0Corel-Layer"/>
  <path class="fil0" d="M1.38541 4.93693c-0.0399528,-0.14013 -0.0709331,-0.286898 -0.091937,-0.439063 -0.0207638,-0.150386 -0.031626,-0.304181 -0.031626,-0.460047 0,-0.650984 0.184933,-1.24581 0.488843,-1.6965 0.312043,-0.462748 0.750272,-0.774945 1.24548,-0.844417 0.0105315,-0.00147638 0.00736614,-0.0205551 0.0253819,-0.0427362 0.0495512,-0.0609921 0.0994646,-0.122437 0.183626,-0.122437 0.058626,0 0.106154,0.0475276 0.106154,0.10615l0 2.86433c0,0.058622 -0.0475276,0.10615 -0.106154,0.10615 -0.00593701,0 -0.0117638,-0.000496063 -0.017437,-0.00143307 -0.00224803,-0.000141732 -0.00473622,-0.000283465 -0.00748425,-0.000413386 -0.0011811,-5.51181e-005 -0.00604724,-9.05512e-005 -0.015122,-9.05512e-005 -0.103035,0 -0.200843,0.0494449 -0.284142,0.134354 -0.0938346,0.0956457 -0.169024,0.234634 -0.21463,0.400016l0.000307087 8.66142e-005c-0.0131693,0.0477756 -0.0569724,0.0788661 -0.10435,0.0779331l-1.07354 0c-0.0502756,0 -0.0923898,-0.0349528 -0.103362,-0.0818858zm0.117874 -0.468087c0.0159173,0.115268 0.038252,0.228051 0.0665,0.337669l0.916492 0c0.0565276,-0.166539 0.140764,-0.309173 0.24378,-0.414177 0.106059,-0.108106 0.231878,-0.17724 0.368969,-0.194154l0 -2.52127c-0.0214291,0.015 -0.0454646,0.0258307 -0.0738346,0.029811 -0.43274,0.0607087 -0.819551,0.339252 -1.09869,0.753189 -0.281224,0.417043 -0.452354,0.970126 -0.452354,1.57791 0,0.148457 0.0100079,0.292484 0.0291339,0.431024z"/>
  <path class="fil0" d="M2.31165 4.14744l0 -1.25596c0,-0.0646772 -0.00664173,-0.11737 -0.0196496,-0.151209 -0.0199764,0.0156614 -0.0448937,0.0436614 -0.0752087,0.0862323 -0.12587,0.17672 -0.231622,0.387815 -0.305764,0.601878 -0.0730354,0.210862 -0.115142,0.424189 -0.115142,0.609437 0,0.110709 0.0624921,0.13552 0.157,0.13552 0.0590354,0 0.122028,-0.00587795 0.189587,-0.0121811 0.0544252,-0.00507874 0.1115,-0.0104016 0.169177,-0.0137126zm0.212307 -1.25596l0 1.35881c0,0.058622 -0.0475276,0.106154 -0.106154,0.106154 -0.0916811,0 -0.177075,0.0079685 -0.25626,0.0153543 -0.0767677,0.00716142 -0.14835,0.0138386 -0.208657,0.0138386 -0.222307,0 -0.369303,-0.0636811 -0.369303,-0.347823 0,-0.207252 0.0466535,-0.444618 0.127583,-0.678264 0.0807913,-0.233256 0.196012,-0.46326 0.333134,-0.655783 0.0625079,-0.0877638 0.121402,-0.141094 0.175047,-0.166417 0.0549449,-0.0259291 0.106433,-0.0269606 0.15365,-0.0071378 0.0433071,0.0181811 0.0770472,0.0522953 0.101413,0.099122 0.0327598,0.0629764 0.0495472,0.155402 0.0495472,0.262142z"/>
  <path class="fil0" d="M3.31133 4.03782c0,-0.058626 -0.0475276,-0.106154 -0.106154,-0.106154 -0.058622,0 -0.10615,0.0475276 -0.10615,0.106154l0 0.393618c0,0.058622 0.0475276,0.106154 0.10615,0.106154 0.058626,0 0.106154,-0.0475315 0.106154,-0.106154l0 -0.393618z"/>
  <path class="fil0" d="M2.32495 3.35894c0,-0.058622 -0.0475276,-0.10615 -0.106154,-0.10615 -0.058622,0 -0.10615,0.0475276 -0.10615,0.10615l0 0.393614c0,0.058626 0.0475276,0.106154 0.10615,0.106154 0.058626,0 0.106154,-0.0475276 0.106154,-0.106154l0 -0.393614z"/>
  <path class="fil0" d="M2.10023 4.68952c0.0427638,-0.00961417 0.0696339,-0.0520866 0.0600197,-0.0948504 -0.00961417,-0.0427638 -0.0520866,-0.0696339 -0.0948504,-0.0600197 -0.266622,0.0606181 -0.212437,0.274508 -0.163051,0.469441 0.0219803,0.0867677 0.042378,0.167291 0.0241732,0.177756 -0.051248,0.0294488 -0.191071,0.0134606 -0.325339,-0.0018937 -0.175772,-0.0200984 -0.343961,-0.0393228 -0.414756,0.0485 -0.0331142,0.0410787 -0.0699331,0.068315 -0.108472,0.0849567 -0.044437,0.019189 -0.092315,0.0248622 -0.140185,0.0217598 -0.0437953,-0.00274803 -0.0815354,0.0305315 -0.0842795,0.0743268 -0.00274803,0.0437953 0.0305315,0.0815315 0.0743268,0.0842795 0.071311,0.00461811 0.143795,-0.00433858 0.212961,-0.0342047 0.0610472,-0.0263622 0.11865,-0.0686142 0.169425,-0.131602 0.015685,-0.0194567 0.141476,-0.00507087 0.272941,0.00996457 0.159323,0.0182165 0.325232,0.0371929 0.42237,-0.0186299 0.122819,-0.0705906 0.0882953,-0.20689 0.0510827,-0.353776 -0.0303937,-0.119965 -0.0637362,-0.251602 0.0436339,-0.276008z"/>
  <path class="fil1" d="M2.52396 2.89148l0 1.35881c0,0.058622 -0.0475276,0.106154 -0.106154,0.106154 -0.0916811,0 -0.177075,0.0079685 -0.25626,0.0153543 -0.0767677,0.00716142 -0.14835,0.0138386 -0.208657,0.0138386 -0.222307,0 -0.369303,-0.0636811 -0.369303,-0.347823 0,-0.207252 0.0466535,-0.444618 0.127583,-0.678264 0.0807913,-0.233256 0.196012,-0.46326 0.333134,-0.655783 0.0625079,-0.0877638 0.121402,-0.141094 0.175047,-0.166417 0.0549449,-0.0259291 0.106433,-0.0269606 0.15365,-0.0071378 0.0433071,0.0181811 0.0770472,0.0522953 0.101413,0.099122 0.0327598,0.0629764 0.0495472,0.155402 0.0495472,0.262142zm-0.363709 1.70319c0.00961417,0.0427638 -0.0172559,0.0852362 -0.0600197,0.0948504 -0.0587795,0.0133622 -0.0753898,0.0588583 -0.0733937,0.116988l0.459437 0c0.0565276,-0.166539 0.140764,-0.309173 0.24378,-0.414177 0.106059,-0.108106 0.231878,-0.17724 0.368969,-0.194154l0 -0.160362 0 -2.36091c-0.0214291,0.015 -0.0454646,0.0258307 -0.0738346,0.029811 -0.43274,0.0607087 -0.819551,0.339252 -1.09869,0.753189 -0.281224,0.417043 -0.452354,0.970126 -0.452354,1.57791 0,0.148457 0.0100079,0.292484 0.0291339,0.431024 0.0159173,0.115268 0.038252,0.228051 0.0665,0.337669l0.293413 0c-0.0101969,-0.124472 0.0257362,-0.231736 0.202205,-0.271858 0.0427638,-0.00961417 0.0852362,0.0172559 0.0948504,0.0600197z"/>
  <g id="_444885336">
   <path id="_444886512" class="fil0" d="M5.69164 3.32051c0.137768,0 0.224898,0.087374 0.262122,0.199209 0.0130433,0.039185 0.0195709,0.0804213 0.0195709,0.120539 0,0.040122 -0.00652756,0.0813583 -0.0195709,0.120539 -0.0372323,0.111835 -0.124354,0.199217 -0.262122,0.199217l-1.91867 0c-0.137764,0 -0.22489,-0.087378 -0.262122,-0.199213 -0.0130394,-0.0391811 -0.0195669,-0.0804173 -0.0195669,-0.120539 0,-0.040126 0.00652756,-0.0813543 0.0195669,-0.120539 0.0372323,-0.111831 0.124358,-0.199213 0.262122,-0.199213l1.91867 0zm0.0614291 0.265555c-0.00994488,-0.0298937 -0.030685,-0.053252 -0.0614291,-0.053252l0 -0.212303c0.058626,0 0.106154,0.0475276 0.106154,0.106154 0,0.058622 -0.0475276,0.10615 -0.106154,0.10615l-1.91867 0c-0.030748,0 -0.0514764,0.0233622 -0.0614291,0.0532559 -0.00529921,0.0159291 -0.00795669,0.0345118 -0.00795669,0.0541929 0,0.0196811 0.00265748,0.0382638 0.00795669,0.0541929 0.00995276,0.0298937 0.0306811,0.053252 0.0614291,0.053252l1.91867 0c0.0307441,0 0.0514803,-0.0233622 0.0614291,-0.0532559 0.00530315,-0.0159291 0.00796063,-0.0345118 0.00796063,-0.0541929 0,-0.0196772 -0.00265748,-0.0382638 -0.00796063,-0.0541929z"/>
   <path id="_444886056" class="fil0" d="M5.69164 4.17491c0.0307441,0 0.0514843,-0.0233583 0.0614291,-0.053252 0.00530315,-0.0159291 0.00796063,-0.0345157 0.00796063,-0.0541969 0,-0.019685 -0.00265748,-0.0382677 -0.00796063,-0.0541929 -0.00994488,-0.0298937 -0.030685,-0.053252 -0.0614291,-0.053252l-1.91867 0c-0.030748,0 -0.0514764,0.0233583 -0.0614291,0.053252 -0.00529921,0.0159252 -0.00795669,0.0345118 -0.00795669,0.0541929 0,0.0196811 0.00265748,0.0382638 0.00795669,0.0541929 0.00995276,0.0298937 0.0306811,0.0532559 0.0614291,0.0532559l1.91867 0zm0.262122 0.0130945c-0.0372244,0.111839 -0.124354,0.199213 -0.262122,0.199213l0 -0.212307c0.058626,0 0.106154,0.0475276 0.106154,0.106154 0,0.058622 -0.0475276,0.106154 -0.106154,0.106154l-1.91867 0c-0.137764,0 -0.22489,-0.0873819 -0.262122,-0.199217 -0.0130394,-0.039185 -0.0195669,-0.0804173 -0.0195669,-0.120539 0,-0.0401181 0.00652756,-0.0813543 0.0195669,-0.120539 0.0372323,-0.111835 0.124358,-0.199213 0.262122,-0.199213l1.91867 0c0.137768,0 0.224898,0.087374 0.262122,0.199213 0.0130433,0.039185 0.0195709,0.0804134 0.0195709,0.120539 0,0.040122 -0.00652756,0.0813583 -0.0195709,0.120543z"/>
   <path id="_444886032" class="fil0" d="M5.69164 4.17491c0.137768,0 0.224898,0.087374 0.262122,0.199213 0.0130433,0.0391811 0.0195709,0.0804173 0.0195709,0.120539 0,0.0401181 -0.00652756,0.0813543 -0.0195709,0.120539 -0.0372323,0.111831 -0.124354,0.199213 -0.262122,0.199213l-1.91867 0c-0.137764,0 -0.22489,-0.087378 -0.262122,-0.199209 -0.0130394,-0.039185 -0.0195669,-0.0804213 -0.0195669,-0.120539 0,-0.0401299 0.00652756,-0.0813583 0.0195669,-0.120539 0.0372323,-0.111835 0.124358,-0.199217 0.262122,-0.199217l1.91867 0zm0.0614291 0.265559c-0.00994488,-0.0298937 -0.030685,-0.053252 -0.0614291,-0.053252l0 -0.212307c0.058626,0 0.106154,0.0475276 0.106154,0.106154 0,0.058622 -0.0475276,0.106154 -0.106154,0.106154l-1.91867 0c-0.030748,0 -0.0514764,0.0233622 -0.0614291,0.0532559 -0.00529921,0.0159252 -0.00795669,0.0345079 -0.00795669,0.0541929 0,0.0196772 0.00265748,0.0382598 0.00795669,0.0541929 0.00995276,0.0298937 0.0306811,0.053252 0.0614291,0.053252l1.91867 0c0.0307441,0 0.0514803,-0.0233622 0.0614291,-0.0532559 0.00530315,-0.0159331 0.00796063,-0.0345157 0.00796063,-0.0541929 0,-0.0196811 -0.00265748,-0.0382677 -0.00796063,-0.0541929z"/>
   <path id="_444886128" class="fil0" d="M3.77297 5.24161c-0.137764,0 -0.22489,-0.087378 -0.262122,-0.199213 -0.0130394,-0.0391811 -0.0195669,-0.0804173 -0.0195669,-0.120539 0,-0.040126 0.00652756,-0.0813543 0.0195669,-0.120539 0.0372323,-0.111831 0.124358,-0.199213 0.262122,-0.199213l1.91867 0c0.137768,0 0.224898,0.087374 0.262122,0.199209 0.0130433,0.039185 0.0195709,0.0804213 0.0195709,0.120539 0,0.040122 -0.00652756,0.0813583 -0.0195709,0.120539 -0.0372323,0.111835 -0.124354,0.199217 -0.262122,0.199217l-1.91867 0zm-0.0614291 -0.265559c0.00995276,0.0298937 0.0306811,0.053252 0.0614291,0.053252l0 0.212307c-0.058622,0 -0.10615,-0.0475276 -0.10615,-0.106154 0,-0.058622 0.0475276,-0.106154 0.10615,-0.106154l1.91867 0c0.0307441,0 0.0514803,-0.0233622 0.0614291,-0.0532559 0.00530315,-0.0159291 0.00796063,-0.0345118 0.00796063,-0.0541929 0,-0.0196772 -0.00265748,-0.0382638 -0.00796063,-0.0541929 -0.00994488,-0.0298937 -0.030685,-0.053252 -0.0614291,-0.053252l-1.91867 0c-0.030748,0 -0.0514764,0.0233622 -0.0614291,0.0532559 -0.00529921,0.0159291 -0.00795669,0.0345118 -0.00795669,0.0541929 0,0.0196811 0.00265748,0.0382638 0.00795669,0.0541929z"/>
   <path id="_444886152" class="fil2" d="M3.77297 3.53281c-0.030748,0 -0.0514764,0.0233622 -0.0614291,0.0532559 -0.00529921,0.0159291 -0.00795669,0.0345118 -0.00795669,0.0541929 0,0.0196811 0.00265748,0.0382638 0.00795669,0.0541929 0.00995276,0.0298937 0.0306811,0.053252 0.0614291,0.053252l1.91867 0c0.0307441,0 0.0514803,-0.0233622 0.0614291,-0.0532559 0.00530315,-0.0159291 0.00796063,-0.0345118 0.00796063,-0.0541929 0,-0.0196772 -0.00265748,-0.0382638 -0.00796063,-0.0541929 -0.00994488,-0.0298937 -0.030685,-0.053252 -0.0614291,-0.053252l-1.91867 0z"/>
   <path id="_444885840" class="fil3" d="M5.69164 3.96001l-1.91867 0c-0.030748,0 -0.0514764,0.0233583 -0.0614291,0.053252 -0.00529921,0.0159252 -0.00795669,0.0345118 -0.00795669,0.0541929 0,0.0196811 0.00265748,0.0382638 0.00795669,0.0541929 0.00995276,0.0298937 0.0306811,0.0532559 0.0614291,0.0532559l1.91867 0c0.0307441,0 0.0514843,-0.0233583 0.0614291,-0.053252 0.00530315,-0.0159291 0.00796063,-0.0345157 0.00796063,-0.0541969 0,-0.019685 -0.00265748,-0.0382677 -0.00796063,-0.0541929 -0.00994488,-0.0298937 -0.030685,-0.053252 -0.0614291,-0.053252z"/>
   <path id="_444885768" class="fil4" d="M5.69164 4.38721l-1.91867 0c-0.030748,0 -0.0514764,0.0233622 -0.0614291,0.0532559 -0.00529921,0.0159252 -0.00795669,0.0345079 -0.00795669,0.0541929 0,0.0196772 0.00265748,0.0382598 0.00795669,0.0541929 0.00995276,0.0298937 0.0306811,0.053252 0.0614291,0.053252l1.91867 0c0.0307441,0 0.0514803,-0.0233622 0.0614291,-0.0532559 0.00530315,-0.0159331 0.00796063,-0.0345157 0.00796063,-0.0541929 0,-0.0196811 -0.00265748,-0.0382677 -0.00796063,-0.0541929 -0.00994488,-0.0298937 -0.030685,-0.053252 -0.0614291,-0.053252z"/>
   <path id="_444885456" class="fil5" d="M5.69164 4.81441l-1.91867 0c-0.030748,0 -0.0514764,0.0233622 -0.0614291,0.0532559 -0.00529921,0.0159291 -0.00795669,0.0345118 -0.00795669,0.0541929 0,0.0196811 0.00265748,0.0382638 0.00795669,0.0541929 0.00995276,0.0298937 0.0306811,0.053252 0.0614291,0.053252l1.91867 0c0.0307441,0 0.0514803,-0.0233622 0.0614291,-0.0532559 0.00530315,-0.0159291 0.00796063,-0.0345118 0.00796063,-0.0541929 0,-0.0196772 -0.00265748,-0.0382638 -0.00796063,-0.0541929 -0.00994488,-0.0298937 -0.030685,-0.053252 -0.0614291,-0.053252z"/>
  </g>
 </g>
 <rect class="fil6" width="6.82666" height="6.82666"/>
</svg>
