<?xml version="1.0" encoding="UTF-8"?>
<!DOCTYPE svg PUBLIC "-//W3C//DTD SVG 1.1//EN" "http://www.w3.org/Graphics/SVG/1.1/DTD/svg11.dtd">
<!-- Creator: CorelDRAW -->
<svg xmlns="http://www.w3.org/2000/svg" xml:space="preserve" width="6.82666in" height="6.82666in" style="shape-rendering:geometricPrecision; text-rendering:geometricPrecision; image-rendering:optimizeQuality; fill-rule:evenodd; clip-rule:evenodd"
viewBox="0 0 6.82666 6.82666"
 xmlns:xlink="http://www.w3.org/1999/xlink">
 <defs>
  <style type="text/css">
   <![CDATA[
    .fil8 {fill:none}
    .fil4 {fill:#63CBE5}
    .fil2 {fill:#949494}
    .fil1 {fill:#9DD5C0}
    .fil5 {fill:#B38E85}
    .fil3 {fill:#EBE5DF}
    .fil7 {fill:#F39CC3}
    .fil6 {fill:#F45A52}
    .fil0 {fill:#333333;fill-rule:nonzero}
   ]]>
  </style>
 </defs>
 <g id="Layer_x0020_1">
  <metadata id="CorelCorpID_0Corel-Layer"/>
  <g id="_444887880">
   <path id="_444888912" class="fil0" d="M3.98447 3.08069l1.45287 0c0.114213,0 0.217972,0.0466496 0.293114,0.121799 0.0751496,0.0751417 0.121799,0.178902 0.121799,0.293114l0 3.93701e-006c0,0.114213 -0.0466496,0.217972 -0.121799,0.293114 -0.0751417,0.0751496 -0.178902,0.121799 -0.293114,0.121799l-1.45287 0c-0.0589094,0 -0.106669,-0.0477598 -0.106669,-0.106669l0 -0.616492c0,-0.0589094 0.0477598,-0.106669 0.106669,-0.106669zm1.45287 0.213339l-1.3462 0 0 0.403154 1.3462 0c0.0553228,0 0.105701,-0.0227126 0.14228,-0.0592953 0.0365827,-0.0365787 0.0592953,-0.0869567 0.0592953,-0.14228l0 -3.93701e-006c0,-0.0553228 -0.0227126,-0.105701 -0.0592953,-0.14228 -0.0365787,-0.0365827 -0.0869567,-0.0592953 -0.14228,-0.0592953z"/>
   <path id="_444888456" class="fil0" d="M4.09114 4.31367l1.3462 0c0.0553228,0 0.105701,-0.0227126 0.14228,-0.0592953 0.0365827,-0.0365787 0.0592953,-0.0869567 0.0592953,-0.14228l0 -3.93701e-006c0,-0.0553228 -0.0227126,-0.105701 -0.0592953,-0.142283 -0.0365787,-0.0365827 -0.0869567,-0.0592953 -0.14228,-0.0592953l-1.3462 0 0 0.403157zm1.3462 0.213339l-1.45287 0c-0.0589094,0 -0.106669,-0.0477598 -0.106669,-0.106669l0 -0.616496c0,-0.0589094 0.0477598,-0.106669 0.106669,-0.106669l1.45287 0c0.114213,0 0.217972,0.0466496 0.293114,0.121799 0.0751496,0.0751496 0.121799,0.178909 0.121799,0.293118l0 3.93701e-006c0,0.114213 -0.0466496,0.217972 -0.121799,0.293114 -0.0751417,0.0751496 -0.178902,0.121799 -0.293114,0.121799z"/>
   <path id="_444888816" class="fil0" d="M3.98447 4.31367l1.45287 0c0.114209,0 0.217965,0.0466496 0.293114,0.121799 0.0751496,0.0751417 0.121799,0.178898 0.121799,0.29311l0 3.93701e-006c0,0.114209 -0.0466496,0.217969 -0.121799,0.293118 -0.0751417,0.0751496 -0.178902,0.121799 -0.293114,0.121799l-1.45287 0c-0.0589094,0 -0.106669,-0.0477598 -0.106669,-0.106669l0 -0.616492c0,-0.0589094 0.0477598,-0.106669 0.106669,-0.106669zm1.45287 0.213339l-1.3462 0 0 0.403154 1.3462 0c0.0553228,0 0.105701,-0.0227126 0.14228,-0.0592953 0.0365827,-0.0365827 0.0592953,-0.0869606 0.0592953,-0.142283l0 -3.93701e-006c0,-0.0553228 -0.0227126,-0.105697 -0.0592953,-0.142276 -0.0365827,-0.0365827 -0.0869567,-0.0592953 -0.14228,-0.0592953z"/>
   <path id="_444888936" class="fil0" d="M4.09114 5.54666l1.3462 0c0.0553228,0 0.105697,-0.0227126 0.14228,-0.0592953 0.0365827,-0.0365787 0.0592953,-0.0869528 0.0592953,-0.142276l0 -3.93701e-006c0,-0.0553228 -0.0227126,-0.105701 -0.0592953,-0.142283 -0.0365787,-0.0365827 -0.0869567,-0.0592953 -0.14228,-0.0592953l-1.3462 0 0 0.403154zm1.3462 0.213339l-1.45287 0c-0.0589094,0 -0.106669,-0.0477598 -0.106669,-0.106669l0 -0.616492c0,-0.0589094 0.0477598,-0.106669 0.106669,-0.106669l1.45287 0c0.114213,0 0.217972,0.0466496 0.293114,0.121799 0.0751496,0.0751496 0.121799,0.178909 0.121799,0.293118l0 3.93701e-006c0,0.114213 -0.0466496,0.217969 -0.121799,0.29311 -0.0751496,0.0751496 -0.178906,0.121799 -0.293114,0.121799z"/>
   <path id="_444887928" class="fil0" d="M4.09094 2.70666l-0.000212598 3.16 -0.106252 0 0.106665 7.87402e-006c-3.93701e-006,0.0589055 -0.0477598,0.106657 -0.106665,0.106657l0 3.93701e-006 -2.90319 0c-0.0589094,0 -0.106669,-0.0477598 -0.106669,-0.106669 0,-0.00316535 0.000145669,-0.00629528 0.000417323,-0.0093937l-0.000212598 -3.16028 -0.000413386 0c-3.93701e-006,-0.0420866 0.024374,-0.0784803 0.0597756,-0.0958346 0.549717,-0.327748 1.02258,-0.491654 1.4987,-0.491654 0.478343,0 0.953386,0.165413 1.50639,0.496228l-0.0545827 0.091252 0.0547598 -0.0915394c0.0363386,0.0217362 0.055063,0.0616929 0.0514921,0.10122zm-0.212709 3.05333l0.000200787 -3.0023c-0.496394,-0.289894 -0.922531,-0.434854 -1.34555,-0.434854 -0.42302,0 -0.849154,0.144961 -1.34555,0.434854l0.000200787 3.0023 2.6907 0z"/>
   <path id="_444887760" class="fil0" d="M2.82017 2.22629c0,0.0589094 0.0477598,0.106669 0.106669,0.106669 0.0589094,0 0.106669,-0.0477598 0.106669,-0.106669l0 -0.506358c0,-0.0589094 -0.0477598,-0.106669 -0.106669,-0.106669l-0.769472 0c-0.0589094,0 -0.106669,0.0477598 -0.106669,0.106669l0 0.506358c0,0.0589094 0.0477598,0.106669 0.106669,0.106669 0.0589094,0 0.106669,-0.0477598 0.106669,-0.106669l0 -0.399689 0.556134 0 0 0.399689z"/>
   <path id="_444888168" class="fil0" d="M2.15754 0.853331l0.769299 0c0.0559606,0 0.101858,0.0431024 0.106311,0.0979173l0.107661 0.753626 0.000185039 -2.75591e-005c0.00833071,0.058315 -0.0321929,0.11235 -0.0905079,0.120681 -0.00552756,0.000791339 -0.0110157,0.0011378 -0.0164331,0.0010748l-0.985252 0c-0.0589094,0 -0.106669,-0.0477598 -0.106669,-0.106669 0,-0.00743307 0.000759843,-0.014685 0.00220866,-0.021689l0.107606 -0.753244 0.105417 0.015 -0.105594 -0.0150866c0.00761417,-0.0533031 0.0534173,-0.0917323 0.105768,-0.0915827zm0.676976 0.213339l-0.584827 0 -0.0780866 0.546594 0.741 0 -0.0780866 -0.546594z"/>
   <path id="_444887904" class="fil0" d="M1.78694 2.98098c0.104079,0 0.198626,0.0425039 0.267098,0.110976 0.0684724,0.0684685 0.110976,0.163012 0.110976,0.267094l0 1.41131c0,0.104083 -0.0425039,0.198626 -0.110976,0.267094 -0.0684724,0.0684724 -0.16302,0.110976 -0.267098,0.110976 -0.104079,0 -0.198626,-0.0425039 -0.267098,-0.110976 -0.0684724,-0.0684685 -0.110976,-0.163012 -0.110976,-0.267094l0 -1.41131c0,-0.104083 0.0425039,-0.198626 0.110976,-0.267094 0.0684724,-0.0684724 0.16302,-0.110976 0.267098,-0.110976zm0.116264 0.261811c-0.0299055,-0.0299055 -0.0710709,-0.0484724 -0.116264,-0.0484724 -0.0451929,0 -0.0863583,0.0185669 -0.116264,0.0484724 -0.0299055,0.0299055 -0.0484724,0.0710709 -0.0484724,0.11626l0 1.41131c0,0.045189 0.0185669,0.0863543 0.0484724,0.11626 0.0299055,0.0299055 0.0710709,0.0484724 0.116264,0.0484724 0.0451929,0 0.0863583,-0.0185669 0.116264,-0.0484724 0.0299055,-0.0299055 0.0484724,-0.0710709 0.0484724,-0.11626l0 -1.41131c0,-0.045189 -0.0185669,-0.0863543 -0.0484724,-0.11626z"/>
  </g>
  <path class="fil1" d="M1.78694 2.98098c0.104079,0 0.198626,0.0425039 0.267098,0.110976 0.0684724,0.0684685 0.110976,0.163012 0.110976,0.267094l0 1.41131c0,0.104083 -0.0425039,0.198626 -0.110976,0.267094 -0.0684724,0.0684724 -0.16302,0.110976 -0.267098,0.110976 -0.104079,0 -0.198626,-0.0425039 -0.267098,-0.110976 -0.0684724,-0.0684685 -0.110976,-0.163012 -0.110976,-0.267094l0 -1.41131c0,-0.104083 0.0425039,-0.198626 0.110976,-0.267094 0.0684724,-0.0684724 0.16302,-0.110976 0.267098,-0.110976zm2.09087 1.43937l0 -0.616496 0 -0.616492c0,-0.00383858 0.000200787,-0.00762992 0.000598425,-0.0113622l2.75591e-005 -0.418299c-0.496394,-0.289894 -0.922531,-0.434854 -1.34555,-0.434854 -0.42302,0 -0.849154,0.144961 -1.34555,0.434854l0.000200787 3.0023 2.6907 0 7.87402e-006 -0.0969921c-0.000287402,-0.00318898 -0.000433071,-0.00641339 -0.000433071,-0.00967717l0 -0.616492 0 -0.616492z"/>
  <polygon class="fil2" points="2.17161,1.61326 2.91261,1.61326 2.83452,1.06667 2.24969,1.06667 "/>
  <path class="fil3" d="M2.82017 1.8266l-0.556134 0 0 0.300291c0.0898543,-0.0115945 0.179287,-0.0173937 0.268839,-0.0173937 0.0956811,0 0.191228,0.00661811 0.287295,0.0198543l0 -0.302752z"/>
  <path class="fil4" d="M5.43735 3.29402l-1.3462 0 0 0.403154 1.3462 0c0.0553228,0 0.105701,-0.0227126 0.14228,-0.0592953 0.0365827,-0.0365787 0.0592953,-0.0869567 0.0592953,-0.142283 0,-0.0553228 -0.0227126,-0.105701 -0.0592953,-0.14228 -0.0365787,-0.0365827 -0.0869567,-0.0592953 -0.14228,-0.0592953z"/>
  <path class="fil5" d="M5.43735 3.91052l-1.3462 0 0 0.403157 1.3462 0c0.0553228,0 0.105701,-0.0227126 0.14228,-0.0592953 0.0365827,-0.0365787 0.0592953,-0.0869567 0.0592953,-0.142283 0,-0.0553228 -0.0227126,-0.105701 -0.0592953,-0.142283 -0.0365787,-0.0365827 -0.0869567,-0.0592953 -0.14228,-0.0592953z"/>
  <path class="fil6" d="M5.43735 4.52701l-1.3462 0 0 0.403154 1.3462 0c0.0553228,0 0.105701,-0.0227126 0.14228,-0.0592953 0.0365827,-0.0365827 0.0592953,-0.0869606 0.0592953,-0.142287 0,-0.0553228 -0.0227126,-0.105697 -0.0592953,-0.142276 -0.0365827,-0.0365827 -0.0869567,-0.0592953 -0.14228,-0.0592953z"/>
  <path class="fil7" d="M5.43735 5.1435l-1.3462 0 0 0.403154 1.3462 0c0.0553228,0 0.105697,-0.0227126 0.14228,-0.0592953 0.0365827,-0.0365787 0.0592953,-0.0869528 0.0592953,-0.14228 0,-0.0553228 -0.0227126,-0.105701 -0.0592953,-0.142283 -0.0365787,-0.0365827 -0.0869567,-0.0592953 -0.14228,-0.0592953z"/>
 </g>
 <rect class="fil8" width="6.82666" height="6.82666"/>
</svg>
