<?xml version="1.0" encoding="UTF-8"?>
<!DOCTYPE svg PUBLIC "-//W3C//DTD SVG 1.1//EN" "http://www.w3.org/Graphics/SVG/1.1/DTD/svg11.dtd">
<!-- Creator: CorelDRAW -->
<svg xmlns="http://www.w3.org/2000/svg" xml:space="preserve" width="6.82666in" height="6.82666in" style="shape-rendering:geometricPrecision; text-rendering:geometricPrecision; image-rendering:optimizeQuality; fill-rule:evenodd; clip-rule:evenodd"
viewBox="0 0 6.82666 6.82666"
 xmlns:xlink="http://www.w3.org/1999/xlink">
 <defs>
  <style type="text/css">
   <![CDATA[
    .fil4 {fill:none}
    .fil1 {fill:#333333}
    .fil3 {fill:#9DD5C0}
    .fil2 {fill:#EBE5DF}
    .fil0 {fill:#333333;fill-rule:nonzero}
   ]]>
  </style>
 </defs>
 <g id="Layer_x0020_1">
  <metadata id="CorelCorpID_0Corel-Layer"/>
  <path class="fil0" d="M2.42891 1.25523l1.49205 0 0.460673 0 0.016122 0 0.00785039 0c0.0518583,0 0.094815,0.0400039 0.0995551,0.0906772 0.001,0.00594094 0.0015315,0.0120354 0.0015315,0.0182598l0 0.101236 -0.00109055 -0.000401575 0 -0.0767323 0.00109055 -0.00161024c0.00084252,-0.00125984 0.000385827,-0.00322047 -0.00109055,-0.00574016l0 0.00574016 0.00109055 0 0 1.52446c0,0.0601614 -0.0487756,0.108937 -0.108937,0.108937l-1.96885 0c-0.0601614,0 -0.108937,-0.0487756 -0.108937,-0.108937l0 -1.54695c0,-0.0601614 0.0487756,-0.108937 0.108937,-0.108937zm1.85991 0.217874l-0.367854 0 -1.38311 0 0 1.32907 1.75096 0 0 -1.32907z"/>
  <path class="fil0" d="M2.41902 5.75544c-0.0601654,0 -0.108941,0.0487756 -0.108941,0.108937 0,0.0601654 0.0487756,0.108941 0.108941,0.108941l1.98861 0c0.0601654,0 0.108941,-0.0487756 0.108941,-0.108941 0,-0.0601614 -0.0487756,-0.108937 -0.108941,-0.108937l-1.98861 0z"/>
  <path class="fil0" d="M2.1812 3.37505c-0.0601614,0 -0.108937,0.0487795 -0.108937,0.108941 0,0.0601614 0.0487756,0.108937 0.108937,0.108937l2.46426 0c0.0601614,0 0.108937,-0.0487756 0.108937,-0.108937 0,-0.0601614 -0.0487756,-0.108941 -0.108937,-0.108941l-2.46426 0z"/>
  <path class="fil0" d="M2.18141 1.47311c-0.0601614,0 -0.108937,-0.0487756 -0.108937,-0.108937 0,-0.0601614 0.0487756,-0.108937 0.108937,-0.108937l1.30264 0 0.0697047 0 1.09192 0c0.0601614,0 0.108937,0.0487756 0.108937,0.108937 0,0.0601614 -0.0487756,0.108937 -0.108937,0.108937l-1.09192 0 -0.0697047 0 -1.30264 0z"/>
  <path class="fil0" d="M3.79549 4.43914c-0.00117323,-0.0599291 -0.0507087,-0.107559 -0.110638,-0.106386 -0.0599291,0.00117323 -0.107559,0.0507087 -0.106386,0.110638 0.00424409,0.209264 0.0183386,0.584059 0.0643465,0.913445 0.0203583,0.145748 0.0472835,0.284051 0.0828661,0.398602l-0.624693 0c0.0355827,-0.114551 0.0625079,-0.252854 0.0828661,-0.398602 0.0460079,-0.329386 0.0601024,-0.704181 0.0643465,-0.913445 0.00117323,-0.0599291 -0.0464567,-0.109465 -0.106386,-0.110638 -0.0599291,-0.00117323 -0.109465,0.0464567 -0.110638,0.106386 -0.00412205,0.203102 -0.0178268,0.567059 -0.0626457,0.887909 -0.0274252,0.19635 -0.0657756,0.373429 -0.119331,0.4785 -0.0109094,0.0169685 -0.0172362,0.0371614 -0.0172362,0.0588268 0,0.0601654 0.0487756,0.108941 0.108937,0.108941l0.943437 0c0.0178504,0.000248031 0.0360079,-0.00388583 0.0528583,-0.0129055 0.0530354,-0.0284055 0.0730039,-0.0944291 0.0446024,-0.147465l-0.000374016 0.000200787c-0.0556299,-0.103992 -0.0951929,-0.284937 -0.123287,-0.486098 -0.0448189,-0.32085 -0.0585236,-0.684807 -0.0626457,-0.887909z"/>
  <path class="fil0" d="M3.41333 3.37503l0.995535 0c0.0601614,0 0.108937,0.0487756 0.108937,0.108941 0,0.30498 -0.123626,0.581102 -0.3235,0.780972 -0.19987,0.199874 -0.475992,0.3235 -0.780972,0.3235 -0.30498,0 -0.581102,-0.123626 -0.780972,-0.3235 -0.199874,-0.19987 -0.3235,-0.475992 -0.3235,-0.780972 0,-0.0601654 0.0487756,-0.108941 0.108937,-0.108941l0.995535 0zm0.879953 0.217878l-0.879953 0 -0.879953 0c0.0246575,0.201291 0.11676,0.381728 0.253024,0.517992 0.160433,0.160433 0.382087,0.259665 0.626929,0.259665 0.244843,0 0.466496,-0.0992323 0.626929,-0.259665 0.136264,-0.136264 0.228366,-0.316701 0.253024,-0.517992z"/>
  <circle class="fil1" cx="3.41333" cy="1.03844" r="0.185103"/>
  <path class="fil1" d="M3.77378 4.18644c0.0118425,-0.131063 0.117476,-0.235059 0.249264,-0.244339l0 -0.00137795c-0.135366,-0.00952756 -0.24315,-0.118984 -0.250031,-0.255063l-0.000712598 0c-0.00688583,0.136079 -0.114665,0.245535 -0.250035,0.255071l0 0.00137795c0.131791,0.00927559 0.237425,0.113268 0.249276,0.244331l0.00224016 0z"/>
  <path class="fil1" d="M3.93593 2.13333c0.0145591,-0.161154 0.144445,-0.28902 0.306492,-0.300433l0 -0.00169685c-0.166449,-0.0117165 -0.298976,-0.146299 -0.307441,-0.313622l-0.000874016 0c-0.00846457,0.167323 -0.140992,0.301909 -0.307437,0.31363l0 0.00169685c0.162047,0.0114055 0.291933,0.139272 0.3065,0.300425l0.00275984 0z"/>
  <path class="fil2" d="M3.93317 2.13333c-0.0145669,-0.161154 -0.144453,-0.28902 -0.3065,-0.300425l0 -0.00169291c0.166445,-0.0117244 0.298972,-0.146311 0.307437,-0.31363l0.000874016 0c0.00846457,0.167319 0.140992,0.301902 0.307441,0.313618l0 0.00169291c-0.162047,0.0114173 -0.291933,0.139283 -0.306496,0.300437l-0.00275591 0zm-0.449114 -0.66022l-0.946201 0 0 1.32907 1.75096 0 0 -1.32907 -0.367854 0 -0.367205 0 -0.0697047 0z"/>
  <path class="fil3" d="M3.41333 3.59291l-0.879953 0c0.0246575,0.201291 0.11676,0.381728 0.253024,0.517992 0.160433,0.160433 0.382087,0.259665 0.626929,0.259665 0.244843,0 0.466496,-0.0992323 0.626929,-0.259665 0.136264,-0.136264 0.228366,-0.316701 0.253024,-0.517992l-0.879953 0zm0.358213 0.593535c-0.0118504,-0.131063 -0.117484,-0.235055 -0.249276,-0.244331l0 -0.00137795c0.13537,-0.00953543 0.24315,-0.118992 0.250035,-0.255071l0.000712598 0c0.00688189,0.136079 0.114665,0.245535 0.250031,0.255063l0 0.00137795c-0.131787,0.00927953 -0.237421,0.113276 -0.249264,0.244339l-0.00224016 0z"/>
  <path class="fil3" d="M3.41333 4.58844c-0.0573425,0 -0.113665,-0.00437008 -0.168654,-0.0127953 -0.00705512,0.214547 -0.0233583,0.512929 -0.0608268,0.781189 -0.0203583,0.145748 -0.0472835,0.284051 -0.0828661,0.398602l0.624693 0c-0.0355827,-0.114551 -0.0625079,-0.252854 -0.0828661,-0.398602 -0.0374685,-0.26826 -0.0537717,-0.566642 -0.0608268,-0.781189 -0.0549882,0.0084252 -0.111311,0.0127953 -0.168654,0.0127953z"/>
 </g>
 <rect class="fil4" width="6.82666" height="6.82666"/>
</svg>
