<?xml version="1.0" encoding="UTF-8"?>
<!DOCTYPE svg PUBLIC "-//W3C//DTD SVG 1.1//EN" "http://www.w3.org/Graphics/SVG/1.1/DTD/svg11.dtd">
<!-- Creator: CorelDRAW -->
<svg xmlns="http://www.w3.org/2000/svg" xml:space="preserve" width="6.82666in" height="6.82666in" style="shape-rendering:geometricPrecision; text-rendering:geometricPrecision; image-rendering:optimizeQuality; fill-rule:evenodd; clip-rule:evenodd"
viewBox="0 0 6.82666 6.82666"
 xmlns:xlink="http://www.w3.org/1999/xlink">
 <defs>
  <style type="text/css">
   <![CDATA[
    .fil3 {fill:none}
    .fil1 {fill:#949494}
    .fil2 {fill:#EBE5DF}
    .fil0 {fill:#333333;fill-rule:nonzero}
   ]]>
  </style>
 </defs>
 <g id="Layer_x0020_1">
  <metadata id="CorelCorpID_0Corel-Layer"/>
  <g id="_444892080">
   <path id="_444892656" class="fil0" d="M1.50162 0.853327c0.145402,0 0.277047,0.0589449 0.372343,0.154244 0.0952992,0.0952953 0.154244,0.226941 0.154244,0.372346 0,0.145402 -0.0589449,0.277047 -0.154244,0.372343 -0.0952953,0.0952992 -0.226941,0.154244 -0.372343,0.154244 -0.145398,0 -0.277047,-0.0589449 -0.372346,-0.154244 -0.0952992,-0.0952953 -0.154244,-0.226941 -0.154244,-0.372343 0,-0.145406 0.0589449,-0.277051 0.154244,-0.372346 0.0952953,-0.0952992 0.226941,-0.154244 0.372346,-0.154244zm0.221508 0.305079c-0.0566772,-0.0566811 -0.134996,-0.0917402 -0.221508,-0.0917402 -0.0865157,0 -0.164835,0.0350591 -0.221512,0.0917402 -0.0566811,0.0566772 -0.0917402,0.134996 -0.0917402,0.221512 0,0.0865118 0.0350591,0.164831 0.0917402,0.221508 0.0566811,0.0566811 0.135,0.0917402 0.221512,0.0917402 0.0865118,0 0.164831,-0.0350591 0.221508,-0.0917402 0.0566811,-0.0566772 0.0917402,-0.134996 0.0917402,-0.221508 0,-0.0865157 -0.0350591,-0.164835 -0.0917402,-0.221512z"/>
   <path id="_444892320" class="fil0" d="M2.87035 0.853327c0.103791,0 0.197772,0.0420827 0.265803,0.110114 0.0680236,0.0680315 0.11011,0.162012 0.11011,0.265803 0,0.103791 -0.0420866,0.197772 -0.11011,0.265803 -0.0680315,0.0680315 -0.162012,0.110114 -0.265803,0.110114 -0.103795,0 -0.19778,-0.0420866 -0.265803,-0.110114 -0.0680315,-0.0680315 -0.110114,-0.162012 -0.110114,-0.265803 0,-0.103791 0.0420827,-0.197772 0.110114,-0.265803 0.0680236,-0.0680276 0.162008,-0.110114 0.265803,-0.110114zm0.114969 0.260949c-0.0294134,-0.0294134 -0.070063,-0.0476102 -0.114969,-0.0476102 -0.0449016,0 -0.0855591,0.0181969 -0.114969,0.0476102 -0.0294134,0.0294134 -0.0476102,0.070063 -0.0476102,0.114969 0,0.0449055 0.0181969,0.0855551 0.0476102,0.114969 0.0294094,0.0294134 0.0700669,0.0476102 0.114969,0.0476102 0.0449055,0 0.0855551,-0.0181969 0.114969,-0.0476102 0.0294094,-0.0294094 0.0476063,-0.070063 0.0476063,-0.114969 0,-0.0449055 -0.0181969,-0.0855591 -0.0476063,-0.114969z"/>
   <path id="_444892368" class="fil0" d="M3.93791 1.38666c0.115394,0 0.219866,0.0467795 0.295496,0.122413 0.0756339,0.0756299 0.122413,0.180102 0.122413,0.295496 0,0.115386 -0.0467795,0.219866 -0.122413,0.295496 -0.075626,0.075626 -0.180102,0.122413 -0.295496,0.122413 -0.115386,0 -0.21987,-0.0467874 -0.295496,-0.122413 -0.075626,-0.075626 -0.122413,-0.18011 -0.122413,-0.295496 0,-0.115394 0.0467874,-0.21987 0.122413,-0.295496 0.0756299,-0.0756339 0.18011,-0.122413 0.295496,-0.122413zm0.144661 0.273248c-0.0370118,-0.0370157 -0.0881575,-0.0599094 -0.144661,-0.0599094 -0.0565,0 -0.10765,0.0228937 -0.144661,0.0599094 -0.0370079,0.0370079 -0.0599094,0.0881614 -0.0599094,0.144661 0,0.0565 0.0229016,0.107654 0.0599094,0.144661 0.0370079,0.0370079 0.0881614,0.0599094 0.144661,0.0599094 0.0565,0 0.107654,-0.0229016 0.144661,-0.0599094 0.0370157,-0.0370118 0.0599094,-0.0881614 0.0599094,-0.144661 0,-0.0565039 -0.0228937,-0.10765 -0.0599094,-0.144661z"/>
   <path id="_444892344" class="fil0" d="M5.40677 1.59999c0.126988,0 0.241965,0.0514803 0.325189,0.134713 0.0832323,0.0832244 0.134713,0.198201 0.134713,0.325189 0,0.126988 -0.0514803,0.241965 -0.134713,0.325189 -0.0832244,0.0832323 -0.198201,0.134713 -0.325189,0.134713 -0.126988,0 -0.241965,-0.0514803 -0.325189,-0.134713 -0.0832323,-0.0832244 -0.134713,-0.198201 -0.134713,-0.325189 0,-0.126988 0.0514803,-0.241965 0.134713,-0.325189 0.0832244,-0.0832323 0.198201,-0.134713 0.325189,-0.134713zm0.174354 0.285547c-0.0446102,-0.0446102 -0.106256,-0.0722087 -0.174354,-0.0722087 -0.0680984,0 -0.129744,0.0275984 -0.174354,0.0722087 -0.0446102,0.0446102 -0.0722087,0.106256 -0.0722087,0.174354 0,0.0680984 0.0275984,0.129744 0.0722087,0.174354 0.0446102,0.0446102 0.106256,0.0722087 0.174354,0.0722087 0.0680984,0 0.129744,-0.0275984 0.174354,-0.0722087 0.0446102,-0.0446102 0.0722087,-0.106256 0.0722087,-0.174354 0,-0.0680984 -0.0275984,-0.129744 -0.0722087,-0.174354z"/>
   <path id="_444892128" class="fil0" d="M3.41333 4.17756l2.45333 0c0.0589094,0 0.106669,0.0477598 0.106669,0.106669 0,0.475551 -0.293394,0.902575 -0.767736,1.20853 -0.460327,0.296913 -1.09413,0.480571 -1.79227,0.480571 -0.698138,0 -1.33194,-0.18365 -1.79227,-0.480571 -0.474346,-0.305957 -0.767736,-0.73298 -0.767736,-1.20853 0,-0.0589094 0.0477598,-0.106669 0.106669,-0.106669l2.45334 0zm2.34049 0.213339l-2.34049 0 -2.34049 0c0.0411772,0.35648 0.28685,0.679937 0.66322,0.922697 0.427594,0.275803 1.02048,0.446398 1.67727,0.446398 0.656795,0 1.24967,-0.170594 1.67727,-0.446398 0.376366,-0.242764 0.622043,-0.566217 0.66322,-0.922697z"/>
   <path id="_444892032" class="fil0" d="M2.52526 1.87553c0.347346,0 0.661831,0.140807 0.889469,0.368445 0.227638,0.227638 0.368445,0.542122 0.368445,0.889469 0,0.347346 -0.140803,0.661827 -0.368445,0.889465 -0.227638,0.227638 -0.542122,0.368445 -0.889469,0.368445 -0.347346,0 -0.661827,-0.140803 -0.889469,-0.368441 -0.227638,-0.227642 -0.368441,-0.542122 -0.368441,-0.889469 0,-0.347346 0.140803,-0.661827 0.368441,-0.889469 0.227638,-0.227638 0.542122,-0.368445 0.889469,-0.368445zm0.738634 0.51928c-0.18902,-0.18902 -0.450173,-0.305941 -0.738634,-0.305941 -0.288461,0 -0.549614,0.116921 -0.738634,0.305941 -0.18902,0.189024 -0.305937,0.450173 -0.305937,0.738634 0,0.288461 0.116917,0.54961 0.305937,0.738634 0.189024,0.18902 0.450173,0.305937 0.738634,0.305937 0.288461,0 0.549614,-0.116921 0.738634,-0.305941 0.189024,-0.18902 0.305941,-0.450169 0.305941,-0.73863 0,-0.288461 -0.116921,-0.549614 -0.305941,-0.738634z"/>
   <path id="_444891624" class="fil0" d="M2.52526 2.48953c0.177791,0 0.338776,0.0720787 0.455307,0.188606 0.116528,0.116528 0.188606,0.277508 0.188606,0.455307 0,0.177791 -0.0720787,0.338776 -0.188606,0.455303 -0.116531,0.116528 -0.277516,0.188606 -0.455307,0.188606 -0.177791,0 -0.338776,-0.0720787 -0.455303,-0.188606 -0.116528,-0.116528 -0.188606,-0.277512 -0.188606,-0.455303 0,-0.177791 0.0720787,-0.338776 0.188606,-0.455307 0.116528,-0.116528 0.277512,-0.188606 0.455303,-0.188606zm0.304472 0.339441c-0.0779134,-0.0779094 -0.185567,-0.126102 -0.304472,-0.126102 -0.118906,0 -0.226559,0.0481929 -0.304469,0.126102 -0.0779094,0.0779134 -0.126102,0.185567 -0.126102,0.304472 0,0.118906 0.0481929,0.226559 0.126102,0.304469 0.0779094,0.0779094 0.185563,0.126102 0.304469,0.126102 0.118906,0 0.226559,-0.0481929 0.304472,-0.126102 0.0779094,-0.0779094 0.126102,-0.185563 0.126102,-0.304469 0,-0.118909 -0.0481929,-0.226563 -0.126102,-0.304472z"/>
   <path id="_444891432" class="fil0" d="M4.56458 2.6152c-0.215787,0 -0.41115,0.0874646 -0.552547,0.228858 -0.141394,0.141398 -0.228858,0.336756 -0.228858,0.552547 0,0.215791 0.0874646,0.41115 0.228858,0.552547 0.141398,0.141394 0.33676,0.228858 0.552547,0.228858 0.215791,0 0.41115,-0.0874646 0.552547,-0.228858 0.141394,-0.141398 0.228858,-0.336756 0.228858,-0.552547 0,-0.215791 -0.0874646,-0.41115 -0.228858,-0.552547 -0.141398,-0.141394 -0.336756,-0.228858 -0.552547,-0.228858zm-0.703382 0.0780236c0.180016,-0.180012 0.428709,-0.291362 0.703382,-0.291362 0.274677,0 0.523366,0.11135 0.703382,0.291362 0.180012,0.180016 0.291362,0.428705 0.291362,0.703382 0,0.274677 -0.11135,0.523366 -0.291362,0.703382 -0.180016,0.180012 -0.428705,0.291362 -0.703382,0.291362 -0.274673,0 -0.523366,-0.11135 -0.703382,-0.291362 -0.180012,-0.180016 -0.291362,-0.428705 -0.291362,-0.703382 0,-0.274677 0.11135,-0.523366 0.291362,-0.703382z"/>
   <path id="_444891864" class="fil0" d="M4.56458 3.08884c-0.0849961,0 -0.161949,0.0344488 -0.21763,0.0901339 -0.055685,0.0556811 -0.0901339,0.13263 -0.0901339,0.21763 0,0.0849961 0.0344488,0.161949 0.0901339,0.21763 0.0556811,0.055685 0.132634,0.0901339 0.21763,0.0901339 0.0849961,0 0.161945,-0.0344488 0.217626,-0.0901339 0.055685,-0.0556811 0.0901339,-0.132634 0.0901339,-0.21763 0,-0.0849961 -0.0344449,-0.161945 -0.0901299,-0.21763 -0.055685,-0.055685 -0.132634,-0.0901339 -0.21763,-0.0901339zm-0.368465 -0.0607008c0.0942992,-0.0943031 0.224583,-0.152638 0.368465,-0.152638 0.143882,0 0.274161,0.0583346 0.368465,0.152638 0.0943031,0.0943031 0.152634,0.224583 0.152634,0.368465 0,0.143886 -0.0583346,0.274165 -0.152638,0.368465 -0.0942992,0.0943031 -0.224575,0.152638 -0.368461,0.152638 -0.143882,0 -0.274165,-0.0583346 -0.368465,-0.152638 -0.0943031,-0.0942992 -0.152638,-0.224579 -0.152638,-0.368465 0,-0.14389 0.0583346,-0.274165 0.152638,-0.368465z"/>
  </g>
  <path class="fil1" d="M3.41333 4.3909l-0.853996 0c-0.0113228,0.00030315 -0.022685,0.000452756 -0.0340787,0.000452756 -0.0113937,0 -0.0227559,-0.000149606 -0.0340787,-0.000452756l-1.41834 0c0.0411772,0.35648 0.28685,0.679937 0.66322,0.922697 0.427594,0.275803 1.02048,0.446398 1.67727,0.446398 0.656795,0 1.24967,-0.170594 1.67727,-0.446398 0.376366,-0.242764 0.622043,-0.566217 0.66322,-0.922697l-1.15894 0c-0.010063,0.000299213 -0.0201614,0.000452756 -0.0302992,0.000452756 -0.0101378,0 -0.0202362,-0.000153543 -0.0302992,-0.000452756l-1.12095 0z"/>
  <g id="_444891144">
   <path id="_444891768" class="fil2" d="M2.55631 4.17756c0.276122,-0.00806299 0.525366,-0.123276 0.707579,-0.305488 0.189024,-0.18902 0.305941,-0.450169 0.305941,-0.73863 0,-0.288461 -0.116921,-0.549614 -0.305941,-0.738634 -0.18902,-0.18902 -0.450173,-0.305941 -0.738634,-0.305941 -0.288461,0 -0.549614,0.116921 -0.738634,0.305941 -0.18902,0.189024 -0.305937,0.450173 -0.305937,0.738634 0,0.288461 0.116917,0.54961 0.305937,0.738634 0.182217,0.182213 0.431457,0.297421 0.707579,0.305484l0.0621102 0zm0.424252 -0.588815c-0.116531,0.116528 -0.277516,0.188606 -0.455307,0.188606 -0.177791,0 -0.338776,-0.0720787 -0.455303,-0.188606 -0.116528,-0.116528 -0.188606,-0.277512 -0.188606,-0.455303 0,-0.177791 0.0720787,-0.338776 0.188606,-0.455307 0.116528,-0.116528 0.277512,-0.188606 0.455303,-0.188606 0.177791,0 0.338776,0.0720787 0.455307,0.188606 0.116528,0.116528 0.188606,0.277508 0.188606,0.455307 0,0.177791 -0.0720787,0.338776 -0.188606,0.455303z"/>
   <path id="_444891936" class="fil2" d="M4.01204 3.94915c0.135508,0.135504 0.320579,0.22148 0.525693,0.228406l0.0537087 0c0.205118,-0.0069252 0.390185,-0.0929016 0.525693,-0.228406 0.141394,-0.141398 0.228858,-0.336756 0.228858,-0.552547 0,-0.215791 -0.0874646,-0.41115 -0.228858,-0.552547 -0.141398,-0.141394 -0.336756,-0.228858 -0.552547,-0.228858 -0.215787,0 -0.41115,0.0874646 -0.552547,0.228858 -0.141394,0.141398 -0.228858,0.336756 -0.228858,0.552547 0,0.215791 0.0874646,0.41115 0.228858,0.552547zm0.921008 -0.184083c-0.0942992,0.0943031 -0.224575,0.152638 -0.368461,0.152638 -0.143882,0 -0.274165,-0.0583346 -0.368465,-0.152638 -0.0943031,-0.0942992 -0.152638,-0.224579 -0.152638,-0.368465 0,-0.14389 0.0583346,-0.274165 0.152638,-0.368465 0.0942992,-0.0943031 0.224583,-0.152638 0.368465,-0.152638 0.143882,0 0.274161,0.0583346 0.368465,0.152638 0.0943031,0.0943031 0.152634,0.224583 0.152634,0.368465 0,0.143886 -0.0583346,0.274165 -0.152638,0.368465z"/>
   <path id="_444891912" class="fil2" d="M4.34695 3.61424c0.0556811,0.055685 0.132634,0.0901339 0.21763,0.0901339 0.0849961,0 0.161945,-0.0344488 0.217626,-0.0901339 0.055685,-0.0556811 0.0901339,-0.132634 0.0901339,-0.21763 0,-0.0849961 -0.0344449,-0.161945 -0.0901299,-0.21763 -0.055685,-0.055685 -0.132634,-0.0901339 -0.21763,-0.0901339 -0.0849961,0 -0.161949,0.0344488 -0.21763,0.0901339 -0.055685,0.0556811 -0.0901339,0.13263 -0.0901339,0.21763 0,0.0849961 0.0344488,0.161949 0.0901339,0.21763z"/>
   <path id="_444891264" class="fil2" d="M2.82973 3.43791c0.0779094,-0.0779094 0.126102,-0.185563 0.126102,-0.304469 0,-0.118909 -0.0481929,-0.226563 -0.126102,-0.304472 -0.0779134,-0.0779094 -0.185567,-0.126102 -0.304472,-0.126102 -0.118906,0 -0.226559,0.0481929 -0.304469,0.126102 -0.0779094,0.0779134 -0.126102,0.185567 -0.126102,0.304472 0,0.118906 0.0481929,0.226559 0.126102,0.304469 0.0779094,0.0779094 0.185563,0.126102 0.304469,0.126102 0.118906,0 0.226559,-0.0481929 0.304472,-0.126102z"/>
  </g>
  <path class="fil2" d="M1.72313 1.60143c0.0566811,-0.0566772 0.0917402,-0.134996 0.0917402,-0.221508 0,-0.0865157 -0.0350591,-0.164835 -0.0917402,-0.221512 -0.0566772,-0.0566811 -0.134996,-0.0917402 -0.221508,-0.0917402 -0.0865157,0 -0.164835,0.0350591 -0.221512,0.0917402 -0.0566811,0.0566772 -0.0917402,0.134996 -0.0917402,0.221512 0,0.0865118 0.0350591,0.164831 0.0917402,0.221508 0.0566811,0.0566811 0.135,0.0917402 0.221512,0.0917402 0.0865118,0 0.164831,-0.0350591 0.221508,-0.0917402z"/>
  <path class="fil2" d="M2.70777 1.22924c0,0.0449055 0.0181969,0.0855551 0.0476102,0.114969 0.0294094,0.0294134 0.0700669,0.0476102 0.114969,0.0476102 0.0449055,0 0.0855551,-0.0181969 0.114969,-0.0476102 0.0294094,-0.0294094 0.0476063,-0.070063 0.0476063,-0.114969 0,-0.0449055 -0.0181969,-0.0855591 -0.0476063,-0.114969 -0.0294134,-0.0294134 -0.070063,-0.0476102 -0.114969,-0.0476102 -0.0449016,0 -0.0855591,0.0181969 -0.114969,0.0476102 -0.0294134,0.0294134 -0.0476102,0.070063 -0.0476102,0.114969z"/>
  <path class="fil2" d="M3.79324 1.65991c-0.0370079,0.0370079 -0.0599094,0.0881614 -0.0599094,0.144661 0,0.0565 0.0229016,0.107654 0.0599094,0.144661 0.0370079,0.0370079 0.0881614,0.0599094 0.144661,0.0599094 0.0565,0 0.107654,-0.0229016 0.144661,-0.0599094 0.0370157,-0.0370118 0.0599094,-0.0881614 0.0599094,-0.144661 0,-0.0565039 -0.0228937,-0.10765 -0.0599094,-0.144661 -0.0370118,-0.0370157 -0.0881575,-0.0599094 -0.144661,-0.0599094 -0.0565,0 -0.10765,0.0228937 -0.144661,0.0599094z"/>
  <path class="fil2" d="M5.1602 2.05989c0,0.0680984 0.0275984,0.129744 0.0722087,0.174354 0.0446102,0.0446102 0.106256,0.0722087 0.174354,0.0722087 0.0680984,0 0.129744,-0.0275984 0.174354,-0.0722087 0.0446102,-0.0446102 0.0722087,-0.106256 0.0722087,-0.174354 0,-0.0680984 -0.0275984,-0.129744 -0.0722087,-0.174354 -0.0446102,-0.0446102 -0.106256,-0.0722087 -0.174354,-0.0722087 -0.0680984,0 -0.129744,0.0275984 -0.174354,0.0722087 -0.0446102,0.0446102 -0.0722087,0.106256 -0.0722087,0.174354z"/>
 </g>
 <rect class="fil3" width="6.82666" height="6.82666"/>
</svg>
