<?xml version="1.0" encoding="UTF-8"?>
<!DOCTYPE svg PUBLIC "-//W3C//DTD SVG 1.1//EN" "http://www.w3.org/Graphics/SVG/1.1/DTD/svg11.dtd">
<!-- Creator: CorelDRAW -->
<svg xmlns="http://www.w3.org/2000/svg" xml:space="preserve" width="6.82666in" height="6.82666in" style="shape-rendering:geometricPrecision; text-rendering:geometricPrecision; image-rendering:optimizeQuality; fill-rule:evenodd; clip-rule:evenodd"
viewBox="0 0 6.82666 6.82666"
 xmlns:xlink="http://www.w3.org/1999/xlink">
 <defs>
  <style type="text/css">
   <![CDATA[
    .fil4 {fill:none}
    .fil3 {fill:#63CBE5}
    .fil0 {fill:#B38E85}
    .fil2 {fill:#EBE5DF}
    .fil1 {fill:#333333;fill-rule:nonzero}
   ]]>
  </style>
 </defs>
 <g id="Layer_x0020_1">
  <metadata id="CorelCorpID_0Corel-Layer"/>
  <path class="fil0" d="M4.07329 3.67093c-0.000653543,-0.000208661 -0.00130315,-0.000425197 -0.00194488,-0.000653543l-0.0423425 -0.0150591 -0.119547 -0.0512087 0.00512598 -0.0264016c0.0626772,-0.322811 0.0918307,-0.648004 0.099122,-0.976492 0.00785433,-0.353929 -0.00890945,-0.707819 -0.0274646,-1.06117 -0.00115748,-0.0220236 0.0106496,-0.0419055 0.0308622,-0.050748 0.0107717,-0.0047126 0.0225394,-0.00715354 0.0342913,-0.00724016 0.0119488,-8.66142e-005 0.0239685,0.00210236 0.0349685,0.0068189 0.0134843,0.00577953 0.0226496,0.0159173 0.0280709,0.0280787l0.153059 0.00480315 0.00798819 -0.246925c0.000834646,-0.0257717 0.0136732,-0.0498307 0.0388425,-0.0590039 0.00974803,-0.00355512 0.020189,-0.00512205 0.0305551,-0.00479134 0.0102283,0.000330709 0.0203622,0.00268898 0.0297283,0.00680709 0.0133583,0.00587795 0.0228386,0.0158858 0.0285787,0.0279567l0.153579 0.0048189 0.00496457 -0.15352c0.000834646,-0.0257756 0.0136732,-0.0498346 0.0388465,-0.0590079 0.00975197,-0.00355512 0.0201929,-0.00512205 0.0305551,-0.00479134 0.0102283,0.000330709 0.0203622,0.00268898 0.0297205,0.00680315 0.0245984,0.0108189 0.0360512,0.0356417 0.0352126,0.0615472l-0.0049685 0.153457 0.153512 0.0048189c0.00644882,-0.0116378 0.0164764,-0.0209921 0.0301299,-0.0259685 0.00975197,-0.00355512 0.0201929,-0.00512205 0.0305551,-0.00479134 0.0102323,0.000330709 0.0203622,0.00268898 0.0297283,0.00680709 0.0245945,0.0108228 0.0360394,0.0356378 0.0352047,0.0615433l-0.0256929 0.794047c0.00248819,0.037122 0.0328386,0.0671181 0.0707992,0.0683425 0.0221457,0.000716535 0.0419567,-0.0102323 0.0577165,-0.0250079l0.316795 -0.296937c0.0186417,-0.0174685 0.0445945,-0.0250866 0.0687008,-0.0143307l0.0305394 0.013622 -0.00317323 0.00705118c0.00601181,0.0068622 0.011,0.0146732 0.0143071,0.023185 0.00972441,0.0250236 0.000125984,0.0506969 -0.0186654,0.068437l-0.00407874 0.00385039c-0.00444488,0.00504331 -0.00818898,0.0108543 -0.0116102,0.0165157l-0.433925 0.717815c-0.00648819,0.0107323 -0.010063,0.0228189 -0.0104567,0.0353543l-0.00034252 0.0108307 -0.00664173 0.00855906c-0.0108189,0.0139409 -0.016185,0.0311378 -0.0152087,0.0487638 0.00516929,0.0933661 0.00701575,0.186815 0.00874409,0.280291 0.00187795,0.101886 0.00357874,0.204043 0.0102126,0.305748 0.00584646,0.0896063 0.0154528,0.181437 0.036437,0.26887l0.00574409 0.0239252 -0.0211732 0.0125354c-0.00540157,0.00320079 -0.0108031,0.00640945 -0.0161929,0.0096378 -0.0397008,0.0237559 -0.087185,0.0405551 -0.13161,0.0528898 -0.114496,0.0317953 -0.2395,0.0416417 -0.357898,0.0365039 -0.155394,-0.00674409 -0.309472,-0.0397717 -0.454811,-0.0949252l-0.00544882 -0.00206693z"/>
  <path class="fil0" d="M3.69371 5.75889l-0.00385039 0.00407874c-0.0177402,0.0187913 -0.0434134,0.0283898 -0.068437,0.0186654 -0.00851181,-0.00330709 -0.0163228,-0.00829528 -0.023185,-0.0143071l-0.00705118 0.00317323 -0.013622 -0.0305394c-0.0107559,-0.0241063 -0.0031378,-0.0500591 0.0143307,-0.0687008l0.296937 -0.316795c0.0147756,-0.0157598 0.0257244,-0.0355709 0.0250079,-0.0577165 -0.00122441,-0.0379606 -0.0312205,-0.068311 -0.0683425,-0.0707992l-0.794047 0.0256929c-0.0259055,0.000834646 -0.0507205,-0.0106102 -0.0615433,-0.0352047 -0.00411811,-0.00936614 -0.00647638,-0.0194961 -0.00680709,-0.0297283 -0.000330709,-0.0103622 0.00123622,-0.0208031 0.00479134,-0.0305551 0.00497638,-0.0136535 0.0143307,-0.0236811 0.0259685,-0.0301299l-0.0048189 -0.153512 -0.153457 0.0049685c-0.0259055,0.000838583 -0.0507283,-0.0106142 -0.0615472,-0.0352126 -0.00411417,-0.00935827 -0.00647244,-0.0194921 -0.00680315,-0.0297205 -0.000330709,-0.0103622 0.00123622,-0.0208031 0.00479134,-0.0305551 0.00917323,-0.0251732 0.0332323,-0.0380118 0.0590079,-0.0388465l0.15352 -0.00496457 -0.0048189 -0.153579c-0.0120709,-0.00574016 -0.0220787,-0.0152205 -0.0279567,-0.0285787 -0.00411811,-0.00936614 -0.00647638,-0.0195 -0.00680709,-0.0297283 -0.000330709,-0.0103661 0.00123622,-0.0208071 0.00479134,-0.0305551 0.00917323,-0.0251693 0.0332323,-0.0380079 0.0590039,-0.0388425l0.246925 -0.00798819 -0.00480315 -0.153059c-0.0121614,-0.00542126 -0.0222992,-0.0145866 -0.0280787,-0.0280709 -0.00471654,-0.011 -0.00690551,-0.0230197 -0.0068189,-0.0349685 8.66142e-005,-0.011752 0.00252756,-0.0235197 0.00724016,-0.0342913 0.00884252,-0.0202126 0.0287244,-0.0320197 0.050748,-0.0308622 0.353346,0.0185551 0.707236,0.0353189 1.06117,0.0274646 0.328488,-0.00729134 0.653681,-0.0364449 0.976492,-0.099122l0.0264016 -0.00512598 0.0512087 0.119547 0.0150591 0.0423425c0.000228346,0.000641732 0.000444882,0.00129134 0.000653543,0.00194488l0.00206693 0.00544882c0.0551535,0.145339 0.0881811,0.299417 0.0949252,0.454811 0.0051378,0.118398 -0.00470866,0.243402 -0.0365039,0.357898 -0.0123346,0.0444252 -0.0291339,0.0919094 -0.0528898,0.13161 -0.00322835,0.00538976 -0.00643701,0.0107913 -0.0096378,0.0161929l-0.0125354 0.0211732 -0.0239252 -0.00574409c-0.0874331,-0.0209843 -0.179264,-0.0305906 -0.26887,-0.036437 -0.101705,-0.00663386 -0.203862,-0.00833465 -0.305748,-0.0102126 -0.0934764,-0.00172835 -0.186925,-0.0035748 -0.280291,-0.00874409 -0.017626,-0.000976378 -0.0348228,0.00438976 -0.0487638,0.0152087l-0.00855906 0.00664173 -0.0108307 0.00034252c-0.0125354,0.000393701 -0.024622,0.0039685 -0.0353543,0.0104567l-0.717815 0.433925c-0.00566142,0.00342126 -0.0114724,0.00716535 -0.0165157,0.0116102z"/>
  <path class="fil1" d="M2.21099 1.9461c0.308551,0 0.589496,0.0321535 0.794264,0.0841339 0.246594,0.0625984 0.399122,0.167016 0.399122,0.298406 0,0.13139 -0.152528,0.235803 -0.399126,0.298406 -0.204768,0.0519803 -0.485709,0.0841339 -0.79426,0.0841339 -0.308551,0 -0.589492,-0.0321535 -0.79426,-0.0841339 -0.246598,-0.0626024 -0.39913,-0.167016 -0.39913,-0.298406 0,-0.13139 0.152528,-0.235807 0.399126,-0.298406 0.204768,-0.0519803 0.485713,-0.0841339 0.794264,-0.0841339zm0.742594 0.290803c-0.188539,-0.0478583 -0.450972,-0.0774646 -0.742594,-0.0774646 -0.291622,0 -0.554055,0.0296063 -0.742594,0.0774646 -0.146713,0.0372402 -0.237457,0.0707677 -0.237457,0.0917362 0,0.0209685 0.090752,0.0544921 0.237461,0.0917362 0.188539,0.0478583 0.450972,0.0774646 0.742591,0.0774646 0.291622,0 0.554051,-0.0296063 0.742591,-0.0774646 0.146709,-0.0372441 0.237457,-0.0707677 0.237457,-0.0917362 0,-0.0209685 -0.0907441,-0.0544961 -0.237453,-0.0917362z"/>
  <path class="fil1" d="M1.32661 2.42506c-0.0110433,-0.0577559 -0.0668268,-0.095626 -0.124583,-0.0845827 -0.0577559,0.0110433 -0.095626,0.0668268 -0.0845827,0.124583l0.2955 1.52214c0.00969685,0.158642 0.225244,0.251484 0.499433,0.284894 0.0931299,0.0113465 0.193488,0.0170197 0.293256,0.0170197 0.0997638,0 0.200126,-0.00567323 0.293256,-0.0170197 0.273256,-0.0332953 0.488268,-0.125622 0.499331,-0.283272l0.306299 -1.52783c0.0115039,-0.0577559 -0.0259921,-0.113913 -0.083748,-0.125417 -0.0577559,-0.0115039 -0.113913,0.0259921 -0.125417,0.083748l-0.307217 1.53242c-0.00181102,0.00779134 -0.00277165,0.0159094 -0.00277165,0.024252 0,0.0327047 -0.136614,0.0631339 -0.311476,0.084437 -0.0839921,0.0102323 -0.175835,0.0153504 -0.268256,0.0153504 -0.0924252,0 -0.184264,-0.00511811 -0.268256,-0.0153504 -0.174622,-0.0212756 -0.311091,-0.0516496 -0.311469,-0.0843031 3.93701e-006,-0.00674803 -0.000629921,-0.0135906 -0.00196457,-0.0204606l-0.000185039 3.54331e-005 -0.29715 -1.53063z"/>
  <path class="fil1" d="M3.19119 2.30912c0.00161024,0.0586811 0.0504882,0.104945 0.109169,0.103335 0.0586811,-0.00161024 0.104945,-0.0504882 0.103335,-0.109169 -0.0179213,-0.630469 -0.313547,-1.04028 -0.690638,-1.22792 -0.158063,-0.0786575 -0.330134,-0.117988 -0.502067,-0.117988 -0.171933,0 -0.344004,0.0393307 -0.502067,0.117988 -0.377091,0.187646 -0.67272,0.597461 -0.690638,1.22792 -0.00161024,0.0586811 0.0446535,0.107559 0.103335,0.109169 0.0586811,0.00161024 0.107559,-0.0446535 0.109169,-0.103335 0.0153543,-0.540244 0.260591,-0.887398 0.573134,-1.04292 0.127917,-0.0636535 0.267433,-0.0954843 0.407067,-0.0954843 0.139638,0 0.279154,0.0318307 0.407067,0.0954843 0.312539,0.155524 0.557776,0.502669 0.573134,1.04292z"/>
  <path class="fil1" d="M5.19306 2.76631c0.030374,-0.0503937 0.0141417,-0.115878 -0.036252,-0.146252 -0.0503937,-0.030374 -0.115878,-0.0141417 -0.146252,0.036252l-0.107638 0.178063c-0.030374,0.0503937 -0.0141417,0.115878 0.036252,0.146252 0.0503937,0.030374 0.115878,0.0141417 0.146252,-0.036252l0.107638 -0.178063z"/>
  <path class="fil1" d="M4.99531 2.70787c-0.0151614,0.0195354 -0.0236181,0.0444134 -0.0221575,0.0710433 0.00529134,0.0946693 0.00700394,0.187311 0.00869685,0.279063 0.00387402,0.209949 0.0076811,0.415598 0.0475669,0.581783 -0.00410236,0.00242913 -0.00956299,0.00566929 -0.0163268,0.00971654 -0.0297598,0.017811 -0.0715315,0.0349724 -0.123413,0.049378 -0.185323,0.0514606 -0.477445,0.061878 -0.791969,-0.0574685l9.05512e-005 -0.000240157c-0.00270079,-0.00102362 -0.00541339,-0.00192913 -0.0081378,-0.00272047l-0.0413543 -0.0147087 -0.00211417 -0.000905512 1.5748e-005 -3.93701e-005 -0.000531496 -0.000181102 -0.0912283 -0.0390787c0.0647795,-0.333646 0.0925118,-0.657169 0.0997244,-0.982106 0.00777953,-0.350622 -0.00835433,-0.699213 -0.0275039,-1.06365 -0.000492126,-0.00937795 0.00438583,-0.0155984 0.010937,-0.0184646 0.00659843,-0.00288583 0.0139055,-0.00438976 0.0211811,-0.00444488 0.00755906,-5.51181e-005 0.0150118,0.00130315 0.0215906,0.00412205 0.00828346,0.00355118 0.0145315,0.0131614 0.0139921,0.029937l0.212504 0.00666929 0.00906693 -0.280205c0.000519685,-0.0160748 0.00784646,-0.0254528 0.0169409,-0.0287677 0.00566142,-0.00206299 0.0118543,-0.00299213 0.0180709,-0.00279134 0.00580315,0.000185039 0.0117559,0.00152756 0.017374,0.004 0.00901181,0.00396457 0.0158346,0.0138543 0.015315,0.0299567l0.212504 0.00666929 0.00604331 -0.186799c0.000519685,-0.0160787 0.00785039,-0.0254567 0.0169449,-0.0287717 0.00566142,-0.00206299 0.0118543,-0.00299213 0.0180748,-0.00279134 0.00580315,0.000185039 0.0117559,0.0015315 0.0173701,0.004 0.00901181,0.00396457 0.0158346,0.0138543 0.015315,0.0299567l-0.00604724 0.186803 0.212504 0.00666929c0.000519685,-0.0160787 0.00785039,-0.0254567 0.0169449,-0.0287717 0.00566142,-0.00206299 0.0118543,-0.00299213 0.0180748,-0.00279134 0.00580315,0.000185039 0.011752,0.00152756 0.0173701,0.004 0.00901181,0.00396457 0.0158346,0.0138543 0.015315,0.0299567l-0.0254528 0.786736 -0.000362205 -1.1811e-005c-0.00190157,0.058878 0.0442835,0.108157 0.103161,0.110059 0.0320827,0.00103543 0.0613189,-0.0122087 0.0815866,-0.0340039l0.316795 -0.296937c0.0115118,-0.0107953 0.0233346,-0.0122244 0.0323268,-0.0082126l-7.08661e-005 0.00015748 1.5748e-005 7.87402e-006 -1.5748e-005 3.54331e-005 0.00125984 0.000566929c0.00505512,0.00253937 0.00961417,0.00597244 0.0134055,0.0100197 0.00429528,0.00458268 0.00761024,0.00961417 0.00959055,0.0147087 0.00355118,0.0091378 0.00133465,0.0209724 -0.0104803,0.032126l-0.000173228 -0.000185039c-0.00874803,0.00820079 -0.0158031,0.0175276 -0.0211575,0.0275433l-0.433925 0.717815c-0.00975197,0.0161811 -0.0146929,0.0339173 -0.015248,0.0515512zm0.197752 0.0584488l0.00134252 -0.00222441 0.428882 -0.709469c0.0745827,-0.0779724 0.0825276,-0.172071 0.0513386,-0.252276 -0.0121457,-0.0312323 -0.030378,-0.0598268 -0.0529213,-0.083874 -0.0218937,-0.0233622 -0.0479016,-0.0427953 -0.0764016,-0.0565748 -0.00107874,-0.000547244 -0.00216142,-0.00108268 -0.00326378,-0.00159449l-0.000417323 4.33071e-005c-0.0818504,-0.0380827 -0.181925,-0.0339843 -0.267673,0.0463858l-0.134547 0.126114 0.0171575 -0.530287c0.00379921,-0.117339 -0.0592441,-0.195217 -0.141984,-0.231626 -0.0300551,-0.0132244 -0.0631142,-0.0204252 -0.0965354,-0.0215039 -0.0130591,-0.00042126 -0.0261614,0.00011811 -0.0391457,0.00162205 -0.0143819,-0.086626 -0.0696024,-0.145673 -0.13848,-0.175984 -0.0300512,-0.0132244 -0.0631181,-0.0204252 -0.0965354,-0.0215039 -0.0330118,-0.00106299 -0.0662953,0.00400394 -0.097248,0.0152953 -0.0707559,0.025815 -0.129748,0.0811457 -0.149787,0.166567 -0.0129094,-0.00232677 -0.0260394,-0.00370079 -0.0392205,-0.00412598 -0.0330039,-0.00106299 -0.0662913,0.00400394 -0.0972441,0.0152953 -0.0850709,0.0310394 -0.15315,0.104736 -0.156941,0.222098l-0.00119291 0.0369016c-0.0146457,-0.00229134 -0.0294921,-0.00337402 -0.0442913,-0.00325984 -0.0364409,0.000279528 -0.072748,0.00767717 -0.105346,0.0219488 -0.0826929,0.0362047 -0.144339,0.111996 -0.138441,0.224299 0.0190276,0.362071 0.0350669,0.707768 0.0275039,1.04865 -0.00747244,0.336846 -0.0380354,0.672646 -0.111701,1.0218 -0.0139094,0.0505945 0.0112992,0.104965 0.0608858,0.126205l0.000334646 -0.000133858c0.337083,0.144398 0.733756,0.275764 1.15516,0.158748 0.0707874,-0.0196575 0.130551,-0.0447244 0.175909,-0.071874 0.0583937,-0.0349528 0.0983386,-0.0774567 0.115496,-0.122661 0.0118071,-0.0310866 0.0136614,-0.062815 0.00484646,-0.0945394 -0.0405984,-0.146189 -0.0443819,-0.350886 -0.0482441,-0.560134 -0.00170866,-0.092563 -0.00338189,-0.185984 -0.00788976,-0.272402l-5.11811e-005 -0.000980315 0.00664961 -0.0149449z"/>
  <path class="fil1" d="M4.30687 1.54432c-0.00437008,-0.0586811 -0.0554882,-0.102705 -0.114169,-0.0983346 -0.0586811,0.00437008 -0.102705,0.0554882 -0.0983346,0.114169l0.0374094 0.485831c0.00437008,0.0586811 0.0554882,0.102705 0.114169,0.0983346 0.0586811,-0.00437008 0.102705,-0.0554882 0.0983346,-0.114169l-0.0374094 -0.485831z"/>
  <path class="fil1" d="M4.59615 1.27818c-0.00161024,-0.0586811 -0.0504882,-0.104945 -0.109169,-0.103335 -0.0586811,0.00161024 -0.104945,0.0504882 -0.103335,0.109169l0.018748 0.682646c0.00161024,0.0586811 0.0504882,0.104945 0.109169,0.103335 0.0586811,-0.00161024 0.104945,-0.0504882 0.103335,-0.109169l-0.018748 -0.682646z"/>
  <path class="fil1" d="M4.87635 1.29391c0.00207087,-0.0586811 -0.0438189,-0.107933 -0.1025,-0.110004 -0.0586811,-0.00207087 -0.107933,0.0438189 -0.110004,0.1025l-0.0238268 0.654795c-0.00207087,0.0586811 0.0438189,0.107933 0.1025,0.110004 0.0586811,0.00207087 0.107933,-0.0438189 0.110004,-0.1025l0.0238268 -0.654795z"/>
  <path class="fil1" d="M4.52092 5.47449c-0.0503937,0.030374 -0.115878,0.0141417 -0.146252,-0.036252 -0.030374,-0.0503937 -0.0141417,-0.115878 0.036252,-0.146252l0.178063 -0.107638c0.0503937,-0.030374 0.115878,-0.0141417 0.146252,0.036252 0.030374,0.0503937 0.0141417,0.115878 -0.036252,0.146252l-0.178063 0.107638z"/>
  <path class="fil1" d="M4.46247 5.27674c0.0195354,-0.0151614 0.0444134,-0.0236181 0.0710433,-0.0221575 0.0946693,0.00529134 0.187311,0.00700394 0.279063,0.00869685 0.209949,0.00387402 0.415598,0.0076811 0.581783,0.0475669 0.00242913,-0.00410236 0.00566929,-0.00956299 0.00971654,-0.0163268 0.017811,-0.0297598 0.0349724,-0.0715315 0.049378,-0.123413 0.0514606,-0.185323 0.061878,-0.477445 -0.0574685,-0.791969l-0.000240157 9.05512e-005c-0.00102362,-0.00270079 -0.00192913,-0.00541339 -0.00272047,-0.0081378l-0.0147087 -0.0413543 -0.000905512 -0.00211417 -3.93701e-005 1.5748e-005 -0.000181102 -0.000531496 -0.0390787 -0.0912283c-0.333646,0.0647795 -0.657169,0.0925118 -0.982106,0.0997244 -0.350622,0.00777953 -0.699213,-0.00835433 -1.06365,-0.0275039 -0.00937795,-0.000492126 -0.0155984,0.00438583 -0.0184646,0.010937 -0.00288583,0.00659843 -0.00438976,0.0139055 -0.00444488,0.0211811 -5.51181e-005,0.00755906 0.00130315,0.0150118 0.00412205,0.0215906 0.00355118,0.00828346 0.0131614,0.0145315 0.029937,0.0139921l0.00666929 0.212504 -0.280205 0.00906693c-0.0160748,0.000519685 -0.0254528,0.00784646 -0.0287677,0.0169409 -0.00206299,0.00566142 -0.00299213,0.0118543 -0.00279134,0.0180709 0.000185039,0.00580315 0.00152756,0.0117559 0.004,0.017374 0.00396457,0.00901181 0.0138543,0.0158346 0.0299567,0.015315l0.00666929 0.212504 -0.186799 0.00604331c-0.0160787,0.000519685 -0.0254567,0.00785039 -0.0287717,0.0169449 -0.00206299,0.00566142 -0.00299213,0.0118543 -0.00279134,0.0180748 0.000185039,0.00580315 0.0015315,0.0117559 0.004,0.0173701 0.00396457,0.00901181 0.0138543,0.0158346 0.0299567,0.015315l0.186803 -0.00604724 0.00666929 0.212504c-0.0160787,0.000519685 -0.0254567,0.00785039 -0.0287717,0.0169449 -0.00206299,0.00566142 -0.00299213,0.0118543 -0.00279134,0.0180748 0.000185039,0.00580315 0.00152756,0.011752 0.004,0.0173701 0.00396457,0.00901181 0.0138543,0.0158346 0.0299567,0.015315l0.786736 -0.0254528 -1.1811e-005 -0.000362205c0.058878,-0.00190157 0.108157,0.0442835 0.110059,0.103161 0.00103543,0.0320827 -0.0122087,0.0613189 -0.0340039,0.0815866l-0.296937 0.316795c-0.0107953,0.0115118 -0.0122244,0.0233346 -0.0082126,0.0323268l0.00015748 -7.08661e-005 7.87402e-006 1.5748e-005 3.54331e-005 -1.5748e-005 0.000566929 0.00125984c0.00253937,0.00505512 0.00597244,0.00961417 0.0100197,0.0134055 0.00458268,0.00429528 0.00961417,0.00761024 0.0147087,0.00959055 0.0091378,0.00355118 0.0209724,0.00133465 0.032126,-0.0104803l-0.000185039 -0.000173228c0.00820079,-0.00874803 0.0175276,-0.0158031 0.0275433,-0.0211575l0.717815 -0.433925c0.0161811,-0.00975197 0.0339173,-0.0146929 0.0515512,-0.015248zm0.0584488 0.197752l-0.00222441 0.00134252 -0.709469 0.428882c-0.0779724,0.0745827 -0.172071,0.0825276 -0.252276,0.0513386 -0.0312323,-0.0121457 -0.0598268,-0.030378 -0.083874,-0.0529213 -0.0233622,-0.0218937 -0.0427953,-0.0479016 -0.0565748,-0.0764016 -0.000547244,-0.00107874 -0.00108268,-0.00216142 -0.00159449,-0.00326378l0.0967087 -0.045 -0.0966654 0.0445827c-0.0380827,-0.0818504 -0.0339843,-0.181925 0.0463858,-0.267673l0.126114 -0.134547 -0.530287 0.0171575c-0.117339,0.00379921 -0.195217,-0.0592441 -0.231626,-0.141984 -0.0132244,-0.0300551 -0.0204252,-0.0631142 -0.0215039,-0.0965354 -0.00042126,-0.0130591 0.00011811,-0.0261614 0.00162205,-0.0391457 -0.086626,-0.0143819 -0.145673,-0.0696024 -0.175984,-0.13848 -0.0132244,-0.0300512 -0.0204252,-0.0631181 -0.0215039,-0.0965354 -0.00106299,-0.0330118 0.00400394,-0.0662953 0.0152953,-0.097248 0.025815,-0.0707559 0.0811457,-0.129748 0.166567,-0.149787 -0.00232677,-0.0129094 -0.00370079,-0.0260394 -0.00412598,-0.0392205 -0.00106299,-0.0330039 0.00400394,-0.0662913 0.0152953,-0.0972441 0.0310394,-0.0850709 0.104736,-0.15315 0.222098,-0.156941l0.0369016 -0.00119291c-0.00229134,-0.0146457 -0.00337402,-0.0294921 -0.00325984,-0.0442913 0.000279528,-0.0364409 0.00767717,-0.072748 0.0219488,-0.105346 0.0362047,-0.0826929 0.111996,-0.144339 0.224299,-0.138441 0.362071,0.0190276 0.707768,0.0350669 1.04865,0.0275039 0.336846,-0.00747244 0.672646,-0.0380354 1.0218,-0.111701 0.0505945,-0.0139094 0.104965,0.0112992 0.126205,0.0608858l-0.0980512 0.042 0.0979173 -0.0416654 0.0730433 0.170512c0.00212992,0.00415748 0.00401575,0.0085 0.00562205,0.0130197l-0.0130039 0.00462598 0.000208661 0.000185039 0.0127126 -0.00448425 0.0154213 0.0433661c0.000507874,0.00120866 0.00100787,0.0024252 0.00147638,0.00366142l-0.000153543 5.90551e-005 0.000850394 0.00238583 -5.11811e-005 1.5748e-005c0.136858,0.361909 0.123327,0.703201 0.062622,0.921811 -0.0196575,0.0707874 -0.0447244,0.130551 -0.071874,0.175909 -0.0349528,0.0583937 -0.0774567,0.0983386 -0.122661,0.115496 -0.0310866,0.0118071 -0.062815,0.0136614 -0.0945394,0.00484646 -0.146189,-0.0405984 -0.350886,-0.0443819 -0.560134,-0.0482441 -0.092563,-0.00170866 -0.185984,-0.00338189 -0.272402,-0.00788976l-0.000980315 -5.11811e-005 -0.0149449 0.00664961z"/>
  <path class="fil1" d="M3.31476 4.3758c-0.0586811,-0.00437008 -0.109799,0.0396535 -0.114169,0.0983346 -0.00437008,0.0586811 0.0396535,0.109799 0.0983346,0.114169l0.485831 0.0374094c0.0586811,0.00437008 0.109799,-0.0396535 0.114169,-0.0983346 0.00437008,-0.0586811 -0.0396535,-0.109799 -0.0983346,-0.114169l-0.485831 -0.0374094z"/>
  <path class="fil1" d="M3.03861 4.66507c-0.0586811,-0.00161024 -0.107559,0.0446535 -0.109169,0.103335 -0.00161024,0.0586811 0.0446535,0.107559 0.103335,0.109169l0.682646 0.018752c0.0586811,0.00161024 0.107559,-0.0446535 0.109169,-0.103335 0.00161024,-0.0586811 -0.0446535,-0.107559 -0.103335,-0.109169l-0.682646 -0.018752z"/>
  <path class="fil1" d="M3.04101 4.94527c-0.0586811,0.00207087 -0.104571,0.0513228 -0.1025,0.110004 0.00207087,0.0586811 0.0513228,0.104571 0.110004,0.1025l0.654795 -0.0238228c0.0586811,-0.00207087 0.104571,-0.0513228 0.1025,-0.110004 -0.00207087,-0.0586811 -0.0513228,-0.104571 -0.110004,-0.1025l-0.654795 0.0238228z"/>
  <path class="fil2" d="M2.47389 4.06042c0.174862,-0.0213031 0.311476,-0.0517323 0.311476,-0.084437 0,-0.00834252 0.00096063,-0.0164606 0.00277165,-0.024252l0.268382 -1.3387c-0.0165984,0.00488189 -0.0336969,0.00955906 -0.0512756,0.0140197 -0.204768,0.0519803 -0.485709,0.0841339 -0.79426,0.0841339 -0.308551,0 -0.589492,-0.0321535 -0.79426,-0.0841339 -0.0184567,-0.00468504 -0.0363858,-0.0096063 -0.0537638,-0.014752l0.260799 1.34339 0.000185039 -3.54331e-005c0.00133465,0.00687008 0.0019685,0.0137126 0.00196457,0.0204606 0.000377953,0.0326535 0.136846,0.0630276 0.311469,0.0843031 0.0839921,0.0102323 0.175831,0.0153504 0.268256,0.0153504 0.0924213,0 0.184264,-0.00511811 0.268256,-0.0153504z"/>
  <path class="fil3" d="M1.4684 2.42038c0.188539,0.0478583 0.450972,0.0774646 0.742591,0.0774646 0.291622,0 0.554051,-0.0296063 0.742591,-0.0774646 0.0679646,-0.017252 0.123917,-0.0337087 0.164406,-0.0484882 0.0177087,-0.0212205 0.0432795,-0.0350591 0.0712598,-0.0378701 0.00118898,-0.00187402 0.00179134,-0.00366929 0.00179134,-0.00537795 0,-0.0209685 -0.0907441,-0.0544961 -0.237453,-0.0917362 -0.188539,-0.0478583 -0.450972,-0.0774646 -0.742594,-0.0774646 -0.291622,0 -0.554055,0.0296063 -0.742594,0.0774646 -0.146713,0.0372402 -0.237457,0.0707677 -0.237457,0.0917362 0,0.00338189 0.0023622,0.00709449 0.00694094,0.0110945 0.0224252,0.00337402 0.0430236,0.0138543 0.0589055,0.0294803 0.040937,0.0154567 0.0995197,0.0328583 0.171614,0.0511614z"/>
 </g>
 <rect class="fil4" width="6.82666" height="6.82666"/>
</svg>
