<?xml version="1.0" encoding="UTF-8"?>
<!DOCTYPE svg PUBLIC "-//W3C//DTD SVG 1.1//EN" "http://www.w3.org/Graphics/SVG/1.1/DTD/svg11.dtd">
<!-- Creator: CorelDRAW -->
<svg xmlns="http://www.w3.org/2000/svg" xml:space="preserve" width="6.82666in" height="6.82666in" style="shape-rendering:geometricPrecision; text-rendering:geometricPrecision; image-rendering:optimizeQuality; fill-rule:evenodd; clip-rule:evenodd"
viewBox="0 0 6.82666 6.82666"
 xmlns:xlink="http://www.w3.org/1999/xlink">
 <defs>
  <style type="text/css">
   <![CDATA[
    .fil6 {fill:none}
    .fil5 {fill:#63CBE5}
    .fil3 {fill:#949494}
    .fil1 {fill:#B38E85}
    .fil2 {fill:#FECA5F}
    .fil4 {fill:#FFEDDF}
    .fil0 {fill:#333333;fill-rule:nonzero}
   ]]>
  </style>
 </defs>
 <g id="Layer_x0020_1">
  <metadata id="CorelCorpID_0Corel-Layer"/>
  <path class="fil0" d="M1.7293 2.22028c0,-0.0589094 -0.0477598,-0.106669 -0.106669,-0.106669 -0.0589094,0 -0.106669,0.0477598 -0.106669,0.106669l0 3.72173 0.213339 0 0 -3.72173zm3.2737 3.72173l0.213339 0 0 -3.78253c0,-0.0589094 -0.0477598,-0.106669 -0.106669,-0.106669 -0.0589094,0 -0.106669,0.0477598 -0.106669,0.106669l0 3.78253z"/>
  <path class="fil0" d="M5.76 2.8235c0,0.0589094 0.0477598,0.106669 0.106669,0.106669 0.0589094,0 0.106669,-0.0477598 0.106669,-0.106669l0 -0.252307c0,-0.0401378 -0.0221772,-0.0750984 -0.0549449,-0.0933031l-2.44743 -1.57606 0.00011811 -0.000185039c-0.0384252,-0.0247441 -0.0867638,-0.0216811 -0.121402,0.00405906l-2.44719 1.57591 0.0575 0.0895827 -0.057752 -0.0896811c-0.0319016,0.0205433 -0.0491772,0.0552362 -0.0489173,0.0905669l0 0.251421c0,0.0589094 0.0477598,0.106669 0.106669,0.106669 0.0589094,0 0.106669,-0.0477598 0.106669,-0.106669l0 -0.19439 2.34667 -1.51118 2.34667 1.51118 0 0.19439z"/>
  <path class="fil0" d="M3.40183 4.4664c-0.0035748,-0.0225354 -0.0139921,-0.0422835 -0.0287874,-0.0574685l-3.93701e-006 0c-0.0252835,-0.00598425 -0.0392677,-0.00920472 -0.0392677,-0.00964173 0,-0.000318898 0.00735039,-0.00209843 0.0210354,-0.00533465 -0.0212874,-0.0138622 -0.0475827,-0.020189 -0.0746417,-0.0158898 -0.0579882,0.00920079 -0.0975354,0.0636772 -0.0883346,0.121665l0.211972 1.32057c0.00920079,0.0579882 0.0636772,0.0975354 0.121665,0.0883346 0.0579882,-0.00920079 0.0975354,-0.0636772 0.0883346,-0.121665l-0.211972 -1.32057zm0.981083 1.32015c-0.00943307,0.0579882 0.0299291,0.11265 0.0879173,0.122083 0.0579882,0.00943307 0.11265,-0.0299291 0.122083,-0.0879173l0.219598 -1.32481c0.00943307,-0.0579882 -0.0299291,-0.11265 -0.0879173,-0.122083 -0.0292087,-0.00475197 -0.0575709,0.00288189 -0.0797362,0.0190354 0.0166772,0.00393701 0.0257126,0.00608661 0.0257126,0.00643701 0,0.000464567 -0.0158425,0.00408661 -0.0442953,0.0108268 -0.0120709,0.014248 -0.0205512,0.0318543 -0.0237638,0.0516181l-0.219598 1.32481z"/>
  <path class="fil0" d="M4.6708 4.38579c0.00137795,0.0586811 0.0500709,0.10513 0.108752,0.103752 0.0586811,-0.00137795 0.10513,-0.0500709 0.103752,-0.108752 -0.0130157,-0.509472 -0.230862,-0.841319 -0.508315,-0.993394 -0.117476,-0.0643898 -0.245193,-0.0965906 -0.372823,-0.0965906 -0.12763,0 -0.255346,0.0322008 -0.372819,0.0965906 -0.277453,0.152075 -0.495295,0.483925 -0.508311,0.993394 -0.00137795,0.0586811 0.0450709,0.107374 0.103752,0.108752 0.0586811,0.00137795 0.107374,-0.0450709 0.108752,-0.103752 0.0108071,-0.422953 0.18139,-0.692827 0.398311,-0.811724 0.0850354,-0.0466102 0.177642,-0.0699213 0.270315,-0.0699213 0.0926732,0 0.185276,0.023311 0.270319,0.0699213 0.216921,0.118898 0.387508,0.388764 0.398315,0.811724z"/>
  <path class="fil0" d="M1.62263 2.05282c-0.0589094,0 -0.106669,0.0477598 -0.106669,0.106669 0,0.0589094 0.0477598,0.106669 0.106669,0.106669l3.48704 0c0.0589094,0 0.106669,-0.0477598 0.106669,-0.106669 0,-0.0589094 -0.0477598,-0.106669 -0.106669,-0.106669l-3.48704 0z"/>
  <path class="fil0" d="M3.54051 5.72868c-0.0589094,0 -0.106669,0.0477598 -0.106669,0.106669 0,0.0589094 0.0477598,0.106669 0.106669,0.106669l0.936327 0c0.0589094,0 0.106669,-0.0477598 0.106669,-0.106669 0,-0.0589094 -0.0477598,-0.106669 -0.106669,-0.106669l-0.936327 0z"/>
  <polygon class="fil1" points="1.96157,2.05282 4.86509,2.05282 3.41333,1.11793 "/>
  <path class="fil2" d="M4.00217 4.70272c-0.22161,0 -0.423906,-0.0231142 -0.572122,-0.0605157l0.174398 1.08648 0.788055 0 0.18002 -1.08604c-0.148055,0.0371417 -0.349622,0.0600709 -0.57035,0.0600709z"/>
  <path class="fil0" d="M2.51306 5.17069c0.183524,0 0.349697,0.0744055 0.469976,0.194685 0.12028,0.12028 0.194685,0.286449 0.194685,0.469972 0,0.0589094 -0.0477598,0.106669 -0.106669,0.106669l-1.11598 0c-0.0589094,0 -0.106669,-0.0477598 -0.106669,-0.106669 0,-0.183524 0.0744055,-0.349693 0.194685,-0.469972 0.12028,-0.12028 0.286449,-0.194685 0.469972,-0.194685zm0.319142 0.34552c-0.0816614,-0.0816614 -0.194504,-0.132181 -0.319142,-0.132181 -0.124638,0 -0.237476,0.0505197 -0.319138,0.132181 -0.0575827,0.0575827 -0.0996811,0.130677 -0.1195,0.212469l0.87728 0c-0.0198189,-0.0817913 -0.0619173,-0.154886 -0.1195,-0.212469z"/>
  <path class="fil0" d="M2.12357 5.36885c0.00782283,0.0582165 0.0613661,0.0990748 0.119583,0.091252 0.0582165,-0.00782283 0.0990748,-0.0613661 0.091252,-0.119583 -8.26772e-005,-0.000637795 -0.0298504,-0.217039 0.0227283,-0.236744l0.155917 0 0.155917 0c0.0525866,0.0197047 0.022815,0.236106 0.0227323,0.236744 -0.00782283,0.0582165 0.0330354,0.11176 0.091252,0.119583 0.0582165,0.00782283 0.11176,-0.0330354 0.119583,-0.091252 0.000165354,-0.00124803 0.0605787,-0.427531 -0.198776,-0.475106 -0.00845669,-0.00215748 -0.017315,-0.00330709 -0.0264449,-0.00330709l-0.164264 0 -0.163327 0c-0.00481102,-3.54331e-005 -0.00968504,0.000244094 -0.0145906,0.000877953l5.51181e-005 0.000413386c-0.274165,0.0356693 -0.211787,0.475854 -0.211618,0.477122z"/>
  <path class="fil0" d="M2.40639 4.99711c0,0.0589094 0.0477598,0.106669 0.106669,0.106669 0.0589094,0 0.106669,-0.0477598 0.106669,-0.106669l0 -1.67253c0,-0.0589094 -0.0477598,-0.106669 -0.106669,-0.106669 -0.0589094,0 -0.106669,0.0477598 -0.106669,0.106669l0 1.67253z"/>
  <path class="fil3" d="M2.8322 5.51621c-0.0816614,-0.0816614 -0.194504,-0.132181 -0.319142,-0.132181 -0.124638,0 -0.237476,0.0505197 -0.319138,0.132181 -0.0575827,0.0575827 -0.0996811,0.130677 -0.1195,0.212469l0.87728 0c-0.0198189,-0.0817913 -0.0619173,-0.154886 -0.1195,-0.212469z"/>
  <path class="fil3" d="M2.51306 5.17069c0.0648307,0 0.127492,0.00928346 0.186732,0.0265945 -0.00170866,-0.0451772 -0.00948819,-0.0855157 -0.030815,-0.0935079l-0.155917 0 -0.155917 0c-0.0213228,0.00799213 -0.0291024,0.0483307 -0.030811,0.0935079 0.0592402,-0.017311 0.121902,-0.0265945 0.186728,-0.0265945z"/>
  <path class="fil4" d="M2.70376 4.89375c0.194492,0.0356772 0.209157,0.284327 0.20426,0.406992 0.0265906,0.0196772 0.0516654,0.0412953 0.0750079,0.0646378 0.12028,0.12028 0.194685,0.286449 0.194685,0.469972 0,0.0584724 -0.0470551,0.105961 -0.105358,0.106661l0.466839 0c-0.0373504,-0.000448819 -0.0700827,-0.0200984 -0.0887835,-0.0495315 -0.0241181,-0.0158583 -0.0417362,-0.0414252 -0.0466142,-0.0721811l-0.205547 -1.28055c-0.0501693,-0.0400945 -0.0778228,-0.0873504 -0.0778228,-0.140461 0,-0.00454331 0.000200787,-0.00904724 0.000602362,-0.0135039 -3.54331e-005,-0.00165748 -3.54331e-005,-0.00332283 3.93701e-006,-0.00499606 0.0130157,-0.509469 0.230858,-0.841319 0.508311,-0.993394 0.117472,-0.0643898 0.245189,-0.0965906 0.372819,-0.0965906 0.12763,0 0.255346,0.0322008 0.372823,0.0965906 0.277453,0.152075 0.495299,0.483921 0.508315,0.993394 3.93701e-005,0.00168504 3.93701e-005,0.0033622 0,0.0050315 0.000401575,0.00444488 0.000602362,0.00893701 0.000602362,0.0134685 0,0.0534528 -0.0280118,0.100972 -0.0787953,0.141236l-0.212201 1.28019c-0.00190551,0.0117205 -0.00566142,0.0226811 -0.0109173,0.0326299 -0.00848425,0.0499213 -0.0516575,0.0880354 -0.103846,0.0886654l0.631524 0 -0.000307087 -3.93701e-006 -0.106362 0 0 -0.106665 0 -3.56919 -3.2737 0 0 3.56919 0 0.106665 -0.106362 0 -0.000307087 3.93701e-006 0.331122 0c-0.0583071,-0.000700787 -0.105358,-0.048189 -0.105358,-0.106661 0,-0.183524 0.0744055,-0.349693 0.194685,-0.469972 0.0233425,-0.0233425 0.0484173,-0.0449606 0.0750079,-0.0646378 -0.00500394,-0.125315 0.0104094,-0.382118 0.217102,-0.409008l-5.51181e-005 -0.000413386c0.00490551,-0.000633858 0.00977953,-0.000913386 0.0145906,-0.000877953l0.0566575 0 0 -1.56586c0,-0.0589094 0.0477598,-0.106669 0.106669,-0.106669 0.0589094,0 0.106669,0.0477598 0.106669,0.106669l0 1.56586 0.0575945 0c0.00912992,0 0.0179882,0.00114961 0.0264449,0.00330709zm0.724512 -0.736917c0.14837,-0.0376614 0.351398,-0.0609606 0.573894,-0.0609606 0.222488,0 0.42552,0.0232992 0.57389,0.0609606 0.0265276,0.00673228 0.0516417,0.0141732 0.0752205,0.0222913 -0.0519843,-0.305535 -0.199575,-0.506823 -0.378795,-0.605055 -0.0850433,-0.0466102 -0.177646,-0.0699213 -0.270319,-0.0699213 -0.0926732,0 -0.18528,0.023311 -0.270315,0.0699213 -0.17922,0.0982323 -0.326807,0.299524 -0.378791,0.605055 0.0235787,-0.00811811 0.0486929,-0.0155591 0.0752165,-0.0222913z"/>
  <path class="fil0" d="M4.00217 4.09587c0.222488,0 0.42552,0.0232992 0.57389,0.0609606 0.190201,0.0482835 0.307846,0.132933 0.307846,0.242461 0,0.109543 -0.11765,0.194185 -0.307843,0.242461 -0.148374,0.0376654 -0.351398,0.0609646 -0.573894,0.0609646 -0.222496,0 -0.42552,-0.0232992 -0.573898,-0.0609646 -0.190193,-0.0482756 -0.307843,-0.132917 -0.307843,-0.242461 0,-0.109528 0.117646,-0.194177 0.307846,-0.242461 0.14837,-0.0376614 0.351398,-0.0609606 0.573894,-0.0609606zm0.52222 0.26763c-0.132138,-0.0335394 -0.316661,-0.0542913 -0.52222,-0.0542913 -0.205563,0 -0.390087,0.020752 -0.522224,0.0542913 -0.090311,0.0229252 -0.146177,0.0349173 -0.146177,0.0357913 0,0.000874016 0.0558661,0.0128701 0.146173,0.0357913 0.132142,0.0335433 0.316665,0.0542953 0.522228,0.0542953 0.205563,0 0.390083,-0.020752 0.522224,-0.0542953 0.0903071,-0.0229213 0.146173,-0.0349173 0.146173,-0.0357913 0,-0.000874016 -0.0558661,-0.0128661 -0.146177,-0.0357913z"/>
  <path class="fil5" d="M4.00217 4.30921c-0.205563,0 -0.390087,0.020752 -0.522224,0.0542913 -0.0575472,0.0146063 -0.101106,0.0247756 -0.125142,0.0304567 -0.013685,0.00323622 -0.0210354,0.00501575 -0.0210354,0.00533465 0,0.000437008 0.0139843,0.00365748 0.0392677,0.0096378 0.025252,0.00597244 0.0617795,0.0147008 0.106906,0.0261535 0.132142,0.0335433 0.316665,0.0542953 0.522228,0.0542953 0.205563,0 0.390083,-0.020752 0.522224,-0.0542953 0.0422165,-0.0107165 0.0769055,-0.0190433 0.101878,-0.0249606 0.0284528,-0.00674409 0.0442953,-0.0103661 0.0442953,-0.0108307 0,-0.000350394 -0.00903543,-0.0025 -0.0257126,-0.00643701 -0.0247913,-0.00585039 -0.0664724,-0.0156496 -0.120465,-0.0293543 -0.132138,-0.0335394 -0.316661,-0.0542913 -0.52222,-0.0542913z"/>
 </g>
 <rect class="fil6" width="6.82666" height="6.82666"/>
</svg>
