<?xml version="1.0" encoding="UTF-8"?>
<!DOCTYPE svg PUBLIC "-//W3C//DTD SVG 1.1//EN" "http://www.w3.org/Graphics/SVG/1.1/DTD/svg11.dtd">
<!-- Creator: CorelDRAW -->
<svg xmlns="http://www.w3.org/2000/svg" xml:space="preserve" width="6.82666in" height="6.82666in" style="shape-rendering:geometricPrecision; text-rendering:geometricPrecision; image-rendering:optimizeQuality; fill-rule:evenodd; clip-rule:evenodd"
viewBox="0 0 6.82666 6.82666"
 xmlns:xlink="http://www.w3.org/1999/xlink">
 <defs>
  <style type="text/css">
   <![CDATA[
    .fil5 {fill:none}
    .fil3 {fill:#949494}
    .fil2 {fill:#AED581}
    .fil4 {fill:#EBE5DF}
    .fil1 {fill:#FECA5F}
    .fil0 {fill:#333333;fill-rule:nonzero}
   ]]>
  </style>
 </defs>
 <g id="Layer_x0020_1">
  <metadata id="CorelCorpID_0Corel-Layer"/>
  <path class="fil0" d="M4.10973 4.82619c-0.0589094,0 -0.106669,0.0477598 -0.106669,0.106669 0,0.0589094 0.0477598,0.106669 0.106669,0.106669l0.162004 0 0 0.459496c0,0.0716614 -0.0293937,0.136886 -0.0767441,0.184232 -0.0473465,0.0473504 -0.112571,0.0767441 -0.184232,0.0767441l-1.19486 0c-0.0716614,0 -0.136886,-0.0293937 -0.184232,-0.0767441 -0.0473504,-0.0473465 -0.0767441,-0.112571 -0.0767441,-0.184232l0 -0.459496 0.0808465 0c0.0589094,0 0.106669,-0.0477598 0.106669,-0.106669 0,-0.0589094 -0.0477598,-0.106669 -0.106669,-0.106669l-0.187516 0c-0.0589094,0 -0.106669,0.0477598 -0.106669,0.106669l0 0.566165c0,0.130551 0.0533307,0.249154 0.139248,0.335067 0.0859134,0.0859173 0.204516,0.139248 0.335067,0.139248l1.19486 0c0.130551,0 0.249154,-0.0533307 0.335067,-0.139248 0.0859173,-0.0859134 0.139248,-0.204516 0.139248,-0.335067l0 -0.566165c0,-0.0589094 -0.0477598,-0.106669 -0.106669,-0.106669l-0.268673 0z"/>
  <path class="fil0" d="M2.64683 4.82619l1.53299 0 0 -1.90063 -1.53299 0 0 1.90063zm1.63966 0.213339l-1.74633 0c-0.0589094,0 -0.106669,-0.0477598 -0.106669,-0.106669l0 -2.11397c0,-0.0589094 0.0477598,-0.106669 0.106669,-0.106669l1.74633 0c0.0589094,0 0.106669,0.0477598 0.106669,0.106669l0 2.11397c0,0.0589094 -0.0477598,0.106669 -0.106669,0.106669z"/>
  <path class="fil0" d="M2.55493 2.34462c0,-0.0589094 -0.0477598,-0.106669 -0.106669,-0.106669 -0.0589094,0 -0.106669,0.0477598 -0.106669,0.106669l0 0.47426c0,0.0589094 0.0477598,0.106669 0.106669,0.106669l0.125008 0c0.0589094,0 0.106669,-0.0477598 0.106669,-0.106669 0,-0.0589094 -0.0477598,-0.106669 -0.106669,-0.106669l-0.0183386 0 0 -0.367591zm1.66938 0.367591c-0.0589094,0 -0.106669,0.0477598 -0.106669,0.106669 0,0.0589094 0.0477598,0.106669 0.106669,0.106669l0.154102 0c0.0589094,0 0.106669,-0.0477598 0.106669,-0.106669l0 -0.47426c0,-0.0589094 -0.0477598,-0.106669 -0.106669,-0.106669 -0.0589094,0 -0.106669,0.0477598 -0.106669,0.106669l0 0.367591 -0.0474331 0z"/>
  <path class="fil0" d="M2.34326 2.33085c-0.00897244,0.0579882 0.0307598,0.11228 0.088748,0.121252 0.0579882,0.00897244 0.11228,-0.0307598 0.121252,-0.088748 0.0611299,-0.393724 0.464016,-0.542201 0.543346,-0.567799l0.633457 0c0.0793307,0.0255984 0.482217,0.174075 0.543346,0.567799 0.00897244,0.0579882 0.0632638,0.0977205 0.121252,0.088748 0.0579882,-0.00897244 0.0977205,-0.0632638 0.088748,-0.121252 -0.0840315,-0.541252 -0.639866,-0.72374 -0.702736,-0.742736 -0.0109764,-0.00381496 -0.0227677,-0.00589764 -0.0350433,-0.00589764l-0.662524 0c-0.0103701,-0.000200787 -0.0209449,0.00112205 -0.031437,0.00412598l2.75591e-005 9.44882e-005c-0.00814961,0.00228346 -0.619937,0.174398 -0.708437,0.744413z"/>
  <path class="fil0" d="M3.03608 0.853331l0.7545 0c0.0589094,0 0.106669,0.0477598 0.106669,0.106669l0 0.392047c0,0.0589094 -0.0477598,0.106669 -0.106669,0.106669l-0.7545 0c-0.0589094,0 -0.106669,-0.0477598 -0.106669,-0.106669l0 -0.392047c0,-0.0589094 0.0477598,-0.106669 0.106669,-0.106669zm0.647831 0.213339l-0.541161 0 0 0.178709 0.541161 0 0 -0.178709z"/>
  <path class="fil0" d="M3.26282 1.36619c0,-0.0589094 -0.0477598,-0.106669 -0.106669,-0.106669 -0.0589094,0 -0.106669,0.0477598 -0.106669,0.106669l0 0.322697c0,0.0589094 0.0477598,0.106669 0.106669,0.106669 0.0589094,0 0.106669,-0.0477598 0.106669,-0.106669l0 -0.322697z"/>
  <path class="fil0" d="M3.77718 1.36619c0,-0.0589094 -0.0477598,-0.106669 -0.106669,-0.106669 -0.0589094,0 -0.106669,0.0477598 -0.106669,0.106669l0 0.322697c0,0.0589094 0.0477598,0.106669 0.106669,0.106669 0.0589094,0 0.106669,-0.0477598 0.106669,-0.106669l0 -0.322697z"/>
  <path class="fil1" d="M4.10973 5.03952l-1.47396 0 -0.0808465 0 0 0.459496c0,0.0716614 0.0293937,0.136886 0.0767441,0.184232 0.0473465,0.0473504 0.112571,0.0767441 0.184232,0.0767441l1.19486 0c0.0716614,0 0.136886,-0.0293937 0.184232,-0.0767441 0.0473504,-0.0473465 0.0767441,-0.112571 0.0767441,-0.184232l0 -0.459496 -0.162004 0z"/>
  <polygon class="fil2" points="2.64683,4.82619 4.10973,4.82619 4.17983,4.82619 4.17983,2.92555 2.64683,2.92555 "/>
  <path class="fil1" d="M2.57419 2.71221l1.64919 0c0.000307087,-3.93701e-006 0.00061811,-3.93701e-006 0.000925197,-3.93701e-006l0.0474331 0 0 -0.359059c-0.0664331,-0.386094 -0.463035,-0.53222 -0.541677,-0.557598l-0.0595472 0 -0.514362 0 -0.0595472 0c-0.0786417,0.025378 -0.475244,0.171504 -0.541677,0.557598l0 0.359059 0.0183386 0c0.000307087,0 0.00061811,0 0.000925197,3.93701e-006z"/>
  <polygon class="fil3" points="3.14275,1.24538 3.68391,1.24538 3.68391,1.06667 3.14275,1.06667 "/>
  <polygon class="fil4" points="3.56384,1.45872 3.26282,1.45872 3.26282,1.58221 3.56384,1.58221 "/>
 </g>
 <rect class="fil5" width="6.82666" height="6.82666"/>
</svg>
