<?xml version="1.0" encoding="UTF-8"?>
<!DOCTYPE svg PUBLIC "-//W3C//DTD SVG 1.1//EN" "http://www.w3.org/Graphics/SVG/1.1/DTD/svg11.dtd">
<!-- Creator: CorelDRAW -->
<svg xmlns="http://www.w3.org/2000/svg" xml:space="preserve" width="6.82666in" height="6.82666in" style="shape-rendering:geometricPrecision; text-rendering:geometricPrecision; image-rendering:optimizeQuality; fill-rule:evenodd; clip-rule:evenodd"
viewBox="0 0 6.82666 6.82666"
 xmlns:xlink="http://www.w3.org/1999/xlink">
 <defs>
  <style type="text/css">
   <![CDATA[
    .fil3 {fill:none}
    .fil2 {fill:#949494}
    .fil1 {fill:#F19A7B}
    .fil0 {fill:#333333;fill-rule:nonzero}
   ]]>
  </style>
 </defs>
 <g id="Layer_x0020_1">
  <metadata id="CorelCorpID_0Corel-Layer"/>
  <g id="_444901464">
   <path id="_444903504" class="fil0" d="M5.73545 1.24104c0.0413701,-0.0413701 0.0413701,-0.108457 0,-0.149827 -0.041374,-0.041374 -0.108461,-0.041374 -0.149831,0l-3.00855 3.00855c-0.041374,0.0413701 -0.041374,0.108457 0,0.149827 0.0413701,0.041374 0.108457,0.041374 0.149827,0l3.00856 -3.00855z"/>
   <path id="_444902568" class="fil0" d="M2.57765 3.95052l0.299094 0.299094 7.87402e-006 -7.87402e-006c0.041374,0.041378 0.041374,0.108472 0,0.149846l-0.000602362 0.000586614 -1.54225 1.54226 7.87402e-006 7.87402e-006c-0.041378,0.041374 -0.108469,0.041374 -0.149846,0l-0.000586614 -0.000602362 -0.299098 -0.299098 -7.87402e-006 7.87402e-006c-0.041374,-0.041378 -0.041374,-0.108469 0,-0.149846l0.000602362 -0.000586614 1.54226 -1.54225 -7.87402e-006 -7.87402e-006c0.041374,-0.041374 0.108469,-0.041374 0.149846,0l0.000586614 0.000602362zm0.0743504 0.374012l-0.149862 -0.149862 -1.39302 1.39302 0.149862 0.149866 1.39302 -1.39302z"/>
   <path id="_444902472" class="fil0" d="M4.64479 1.12978c-0.0525748,-0.025374 -0.115768,-0.00332283 -0.141142,0.049252 -0.0253701,0.0525709 -0.0033189,0.115764 0.049252,0.141138l0.675976 0.32687c0.0525709,0.025374 0.115768,0.0033189 0.141138,-0.049252 0.025374,-0.0525709 0.00332283,-0.115768 -0.049252,-0.141138l-0.675972 -0.32687z"/>
   <path id="_444902592" class="fil0" d="M5.5065 2.27377c0.025374,0.0525709 0.0885669,0.074622 0.141138,0.049252 0.0525748,-0.025374 0.074626,-0.0885669 0.049252,-0.141142l-0.326874 -0.675976c-0.0253701,-0.0525748 -0.0885669,-0.074626 -0.141138,-0.049252 -0.0525709,0.0253701 -0.074626,0.0885669 -0.049252,0.141138l0.326874 0.67598z"/>
   <path id="_444902400" class="fil0" d="M4.33419 1.44038c-0.0525709,-0.0253701 -0.115764,-0.0033189 -0.141138,0.049252 -0.025374,0.0525748 -0.00332283,0.115768 0.049252,0.141142l0.675976 0.32687c0.0525709,0.0253701 0.115764,0.0033189 0.141138,-0.0492559 0.025374,-0.0525709 0.0033189,-0.115764 -0.049252,-0.141138l-0.675976 -0.32687z"/>
   <path id="_444902784" class="fil0" d="M5.19589 2.58437c0.025374,0.0525748 0.0885669,0.074626 0.141142,0.049252 0.0525709,-0.025374 0.074622,-0.0885669 0.049252,-0.141138l-0.326874 -0.67598c-0.025374,-0.0525709 -0.0885669,-0.074626 -0.141138,-0.049252 -0.0525748,0.025374 -0.074626,0.0885669 -0.049252,0.141138l0.32687 0.67598z"/>
   <path id="_444902760" class="fil0" d="M4.02358 1.75098c-0.0525748,-0.025374 -0.115768,-0.00332283 -0.141142,0.049252 -0.0253701,0.0525709 -0.0033189,0.115764 0.049252,0.141138l0.67598 0.326874c0.0525709,0.025374 0.115768,0.0033189 0.141138,-0.049252 0.025374,-0.0525709 0.00332283,-0.115768 -0.049252,-0.141138l-0.675976 -0.326874z"/>
   <path id="_444902424" class="fil0" d="M4.8853 2.89497c0.025374,0.0525709 0.0885669,0.074622 0.141138,0.049252 0.0525748,-0.025374 0.074626,-0.0885669 0.049252,-0.141142l-0.326874 -0.675972c-0.0253701,-0.0525748 -0.0885669,-0.074626 -0.141138,-0.049252 -0.0525709,0.0253701 -0.074626,0.0885669 -0.049252,0.141138l0.326874 0.675976z"/>
   <path id="_444902352" class="fil0" d="M3.71298 2.06158c-0.0525709,-0.0253701 -0.115764,-0.0033189 -0.141138,0.049252 -0.025374,0.0525748 -0.00332283,0.115768 0.049252,0.141142l0.67598 0.326874c0.0525709,0.0253701 0.115764,0.0033189 0.141138,-0.049252 0.025374,-0.0525748 0.0033189,-0.115768 -0.049252,-0.141142l-0.67598 -0.326874z"/>
   <path id="_444902304" class="fil0" d="M4.57469 3.20557c0.025374,0.0525748 0.0885669,0.074626 0.141142,0.049252 0.0525709,-0.025374 0.074622,-0.0885669 0.049252,-0.141138l-0.326874 -0.67598c-0.025374,-0.0525709 -0.0885669,-0.074626 -0.141138,-0.049252 -0.0525748,0.025374 -0.074626,0.0885669 -0.0492559,0.141142l0.326874 0.675976z"/>
   <path id="_444902808" class="fil0" d="M3.40238 2.37218c-0.0525748,-0.025374 -0.115768,-0.0033189 -0.141142,0.049252 -0.0253701,0.0525709 -0.0033189,0.115768 0.049252,0.141138l0.67598 0.326874c0.0525709,0.025374 0.115768,0.0033189 0.141138,-0.049252 0.025374,-0.0525709 0.00332283,-0.115768 -0.049252,-0.141138l-0.675976 -0.326874z"/>
   <path id="_444901704" class="fil0" d="M4.26409 3.51617c0.0253701,0.0525709 0.0885669,0.074622 0.141138,0.049252 0.0525748,-0.025374 0.074626,-0.0885669 0.049252,-0.141142l-0.32687 -0.675976c-0.0253701,-0.0525748 -0.0885669,-0.074626 -0.141138,-0.049252 -0.0525709,0.0253701 -0.074626,0.0885669 -0.049252,0.141138l0.32687 0.67598z"/>
   <path id="_444901800" class="fil0" d="M3.09178 2.68278c-0.0525709,-0.0253701 -0.115768,-0.0033189 -0.141138,0.049252 -0.025374,0.0525748 -0.00332283,0.115768 0.049252,0.141142l0.675972 0.32687c0.0525748,0.0253701 0.115768,0.0033189 0.141142,-0.049252 0.025374,-0.0525748 0.0033189,-0.115768 -0.049252,-0.141142l-0.675976 -0.32687z"/>
   <path id="_444901488" class="fil0" d="M3.95349 3.82677c0.025374,0.0525748 0.0885669,0.074626 0.141142,0.049252 0.0525709,-0.0253701 0.074622,-0.0885669 0.049252,-0.141138l-0.326874 -0.67598c-0.025374,-0.0525709 -0.0885669,-0.074626 -0.141142,-0.049252 -0.0525709,0.025374 -0.074622,0.0885669 -0.049252,0.141142l0.326874 0.675976z"/>
   <path id="_444901632" class="fil0" d="M5.58604 1.24147l-0.000956693 -0.000956693c-0.117126,-0.116839 -0.271512,-0.175264 -0.425976,-0.175264 -0.154693,0 -0.309315,0.0585984 -0.426508,0.175791l-1.73793 1.73793 0.85302 0.85302 1.73793 -1.73793c0.117193,-0.117193 0.175795,-0.271815 0.175795,-0.426508 0,-0.154512 -0.0584646,-0.308941 -0.175374,-0.426087zm0.150827 -0.148815c0.157634,0.158409 0.236465,0.366701 0.236465,0.574902 0,0.208831 -0.0792992,0.417752 -0.237882,0.576339l-1.81285 1.81284 7.87402e-006 7.87402e-006c-0.041378,0.041378 -0.108469,0.041378 -0.149846,0l-0.000586614 -0.000602362 -1.00225 -1.00225 -7.87402e-006 7.87402e-006c-0.041378,-0.041378 -0.041378,-0.108469 0,-0.149846l0.000602362 -0.000586614 1.81225 -1.81225c0.158587,-0.158587 0.367508,-0.237882 0.576339,-0.237882 0.208831,0 0.417756,0.0792953 0.576343,0.237882l7.87402e-006 -7.87402e-006 0.00140945 0.00144882zm-0.150827 0.148815l-0.000125984 -0.000122047 -0.00030315 -0.000299213"/>
  </g>
  <polygon class="fil1" points="2.652,4.32453 2.57707,4.24959 2.50213,4.17467 1.10911,5.56768 1.25898,5.71755 "/>
  <g id="_444900600">
   <path id="_444901944" class="fil2" d="M4.78252 1.19638l0.470449 0.227484 0.251087 -0.251087c-0.103024,-0.071685 -0.223961,-0.107528 -0.344949,-0.107528 -0.133606,0 -0.267157,0.0437126 -0.376587,0.13113z"/>
   <path id="_444901896" class="fil2" d="M5.65388 1.32261l-0.251087 0.251087 0.227488 0.470445c0.0874173,-0.109429 0.13113,-0.24298 0.13113,-0.376583 0,-0.120988 -0.0358465,-0.241925 -0.107531,-0.344949z"/>
   <polygon id="_444902064" class="fil2" points="5.47371,2.20597 5.24451,1.73198 5.0922,1.8843 5.3214,2.35829 "/>
   <polygon id="_444900768" class="fil2" points="4.94237,1.73446 5.09469,1.58215 4.62069,1.35295 4.46838,1.50527 "/>
   <polygon id="_444900744" class="fil2" points="4.78408,1.89275 4.31009,1.66355 4.15777,1.81587 4.63176,2.04507 "/>
   <polygon id="_444901104" class="fil2" points="4.93391,2.04258 4.78159,2.1949 5.0108,2.66889 5.16311,2.51657 "/>
   <polygon id="_444901056" class="fil2" points="4.85251,2.82717 4.62331,2.35318 4.47099,2.5055 4.7002,2.97949 "/>
   <polygon id="_444901032" class="fil2" points="4.32117,2.35567 4.47348,2.20335 3.99949,1.97415 3.84717,2.12647 "/>
   <polygon id="_444900696" class="fil2" points="4.16288,2.51396 3.68889,2.28476 3.53657,2.43707 4.01056,2.66627 "/>
   <polygon id="_444900624" class="fil2" points="4.31271,2.66378 4.16039,2.8161 4.38959,3.29009 4.54191,3.13778 "/>
   <polygon id="_444900840" class="fil2" points="4.23131,3.44838 4.00211,2.97438 3.84979,3.1267 4.07899,3.60069 "/>
   <polygon id="_444900576" class="fil2" points="3.69996,2.97687 3.85228,2.82456 3.37829,2.59535 3.22597,2.74767 "/>
   <polygon id="_444900144" class="fil2" points="3.54168,3.13516 3.06769,2.90596 2.99467,2.97898 3.34626,3.33057 "/>
   <polygon id="_444900528" class="fil2" points="3.6915,3.28498 3.49609,3.4804 3.84769,3.832 3.9207,3.75898 "/>
  </g>
 </g>
 <rect class="fil3" width="6.82666" height="6.82666"/>
</svg>
