<?xml version="1.0" encoding="UTF-8"?>
<!DOCTYPE svg PUBLIC "-//W3C//DTD SVG 1.1//EN" "http://www.w3.org/Graphics/SVG/1.1/DTD/svg11.dtd">
<!-- Creator: CorelDRAW -->
<svg xmlns="http://www.w3.org/2000/svg" xml:space="preserve" width="6.82666in" height="6.82666in" style="shape-rendering:geometricPrecision; text-rendering:geometricPrecision; image-rendering:optimizeQuality; fill-rule:evenodd; clip-rule:evenodd"
viewBox="0 0 6.82666 6.82666"
 xmlns:xlink="http://www.w3.org/1999/xlink">
 <defs>
  <style type="text/css">
   <![CDATA[
    .fil5 {fill:none}
    .fil1 {fill:#949494}
    .fil4 {fill:#9DD5C0}
    .fil3 {fill:#FECA5F}
    .fil2 {fill:#FFD3B3}
    .fil0 {fill:#333333;fill-rule:nonzero}
   ]]>
  </style>
 </defs>
 <g id="Layer_x0020_1">
  <metadata id="CorelCorpID_0Corel-Layer"/>
  <g id="_444903720">
   <path id="_444904968" class="fil0" d="M4.82974 4.64998c0.025311,0.0529252 0.0887441,0.075311 0.141669,0.05 0.0529252,-0.025311 0.075311,-0.0887441 0.05,-0.141669 -0.271602,-0.56687 -0.209957,-0.796783 -0.132343,-1.08627 0.0475236,-0.17726 0.100433,-0.374591 0.100433,-0.66713 0,-0.933205 -0.403343,-1.53141 -0.92024,-1.79549 -0.203961,-0.104205 -0.425366,-0.156098 -0.646823,-0.155866 -0.222059,0.000228346 -0.443661,0.0524213 -0.64737,0.15637 -0.519949,0.265323 -0.926673,0.865445 -0.926673,1.79499 0,0.292417 0.0528898,0.490437 0.100406,0.668346 0.0779685,0.291929 0.139839,0.523571 -0.13676,1.09384 -0.0255433,0.0529252 -0.00334252,0.116543 0.0495827,0.142087 0.0529252,0.0255433 0.116543,0.00334252 0.142087,-0.0495827 0.311138,-0.641488 0.240256,-0.906878 0.150925,-1.24135 -0.0439646,-0.164618 -0.0929016,-0.347831 -0.0929016,-0.613346 0,-0.837819 0.35552,-1.37307 0.810004,-1.60499 0.174402,-0.0889921 0.362882,-0.133673 0.550701,-0.133866 0.188413,-0.00019685 0.376736,0.0439252 0.550154,0.132528 0.451366,0.230606 0.803571,0.764346 0.803571,1.60633 0,0.265528 -0.0489567,0.448114 -0.0929291,0.61213 -0.0888346,0.331339 -0.159394,0.594488 0.146508,1.23294z"/>
   <path id="_444905208" class="fil0" d="M2.67787 4.69132c0.0589094,0 0.106669,-0.0477598 0.106669,-0.106669 0,-0.0589094 -0.0477598,-0.106669 -0.106669,-0.106669l-0.547543 0c-0.265283,0 -0.513051,0.108961 -0.693657,0.284413 -0.17887,0.173772 -0.292189,0.412839 -0.292189,0.676354l0 0.427701c0,0.0589094 0.0477598,0.106669 0.106669,0.106669l4.32437 0c0.0589094,0 0.106669,-0.0477598 0.106669,-0.106669l0 -0.427701c0,-0.265224 -0.102984,-0.506327 -0.272787,-0.680724 -0.168429,-0.17298 -0.401902,-0.280043 -0.665492,-0.280043l-0.583906 0c-0.0589094,0 -0.106669,0.0477598 -0.106669,0.106669 0,0.0589094 0.0477598,0.106669 0.106669,0.106669l0.583906 0c0.203728,0 0.383657,0.0822126 0.512988,0.215035 0.131937,0.135508 0.211953,0.324016 0.211953,0.532394l0 0.321031 -4.11103 0 0 -0.321031c0,-0.203528 0.0881063,-0.38874 0.227181,-0.52385 0.141976,-0.137925 0.336764,-0.223579 0.545327,-0.223579l0.547543 0z"/>
   <path id="_444904584" class="fil0" d="M2.72039 4.48715c-0.0538465,-0.0234685 -0.116531,0.00115354 -0.14,0.055 -0.0234685,0.0538465 0.00115354,0.116531 0.055,0.14l0.734673 0.320866 -0.000122047 0.000283465c0.0295591,0.0129094 0.0617913,0.0113583 0.0887756,-0.00155118l0.743366 -0.319181c0.0540748,-0.0232402 0.0790748,-0.0859252 0.0558346,-0.14 -0.0232402,-0.0540748 -0.0859252,-0.0790748 -0.14,-0.0558346l-0.705197 0.302791 -0.692331 -0.302374z"/>
   <path id="_444904704" class="fil0" d="M4.40219 2.31535c-0.0188661,-0.055689 -0.079311,-0.0855354 -0.135,-0.0666693 -0.055689,0.0188661 -0.0855354,0.079311 -0.0666693,0.135 0.0429882,0.125571 0.043689,0.258661 0.0215827,0.390776 -0.0232323,0.13887 -0.0716496,0.277622 -0.123819,0.406626 -0.0760984,0.188193 -0.171622,0.367031 -0.290366,0.497063 -0.10865,0.118988 -0.237382,0.195795 -0.388965,0.195795 -0.0119606,0 -0.0198701,-0.000102362 -0.0238386,-0.000295276 -0.204228,-0.0100945 -0.399748,-0.150972 -0.54652,-0.370732 -0.153917,-0.230465 -0.251984,-0.545134 -0.251984,-0.889661 0,-0.0335472 0.000633858,-0.0634449 0.00191732,-0.0894567 0.00275984,-0.0586811 -0.0425709,-0.108492 -0.101252,-0.111252 -0.0586811,-0.00275984 -0.108492,0.0425709 -0.111252,0.101252 -0.00184646,0.0373386 -0.00275197,0.0704567 -0.00275197,0.0994567 0,0.387177 0.112339,0.743988 0.288654,1.00799 0.183465,0.274701 0.438051,0.451303 0.713189,0.464906 0.0152047,0.000748031 0.0265354,0.00112992 0.0338386,0.00112992 0.219075,0 0.398969,-0.104268 0.546469,-0.265803 0.137413,-0.15048 0.245614,-0.351634 0.330366,-0.561228 0.0569449,-0.140815 0.110016,-0.293579 0.136315,-0.450791 0.0274331,-0.163957 0.0257402,-0.331543 -0.0299134,-0.494106z"/>
   <path id="_444904680" class="fil0" d="M4.02248 4.65257c0.0375079,0.0453307 0.104669,0.0516732 0.15,0.0141654 0.0453307,-0.0375079 0.0516732,-0.104669 0.0141654,-0.15 -0.000511811,-0.00061811 -0.179524,-0.212004 -0.241827,-0.662752 -0.00805118,-0.0582165 -0.0617835,-0.0988858 -0.12,-0.0908346 -0.0582165,0.00805118 -0.0988858,0.0617835 -0.0908346,0.12 0.0707598,0.511929 0.287874,0.768669 0.288496,0.769421z"/>
   <path id="_444904896" class="fil0" d="M2.65122 4.51674c-0.0375079,0.0453307 -0.0311654,0.112492 0.0141654,0.15 0.0453307,0.0375079 0.112492,0.0311654 0.15,-0.0141654 0.000622047,-0.000751969 0.21774,-0.257492 0.288496,-0.769421 0.00805118,-0.0582165 -0.0326181,-0.111949 -0.0908346,-0.12 -0.0582165,-0.00805118 -0.111949,0.0326181 -0.12,0.0908346 -0.0622992,0.450744 -0.241315,0.662134 -0.241827,0.662752z"/>
   <path id="_444904920" class="fil0" d="M1.95916 5.10493l2.90834 0c0.0589094,0 0.106669,0.0477598 0.106669,0.106669l0 0.654858c0,0.0589094 -0.0477598,0.106669 -0.106669,0.106669l-2.90834 0c-0.0589094,0 -0.106669,-0.0477598 -0.106669,-0.106669l0 -0.654858c0,-0.0589094 0.0477598,-0.106669 0.106669,-0.106669zm2.80167 0.213339l-2.695 0 0 0.44152 2.695 0 0 -0.44152z"/>
   <path id="_444904344" class="fil0" d="M2.48205 4.58465c0,-0.0589094 -0.0477598,-0.106669 -0.106669,-0.106669 -0.0589094,0 -0.106669,0.0477598 -0.106669,0.106669l0 0.961803c0,0.0589094 0.0477598,0.106669 0.106669,0.106669 0.0589094,0 0.106669,-0.0477598 0.106669,-0.106669l0 -0.961803z"/>
   <path id="_444904128" class="fil0" d="M4.55795 4.58465c0,-0.0589094 -0.0477598,-0.106669 -0.106669,-0.106669 -0.0589094,0 -0.106669,0.0477598 -0.106669,0.106669l0 0.961803c0,0.0589094 0.0477598,0.106669 0.106669,0.106669 0.0589094,0 0.106669,-0.0477598 0.106669,-0.106669l0 -0.961803z"/>
   <path id="_444904008" class="fil0" d="M3.06261 1.64179c-0.0342835,-0.0476339 -0.100701,-0.0584528 -0.148335,-0.0241693 -0.0476339,0.0342835 -0.0584528,0.100701 -0.0241693,0.148335 0.150866,0.209878 0.387862,0.361154 0.645181,0.470724 0.249949,0.106433 0.519311,0.17389 0.744465,0.217425 0.0577559,0.0110433 0.113539,-0.0268268 0.124583,-0.0845827 0.0110433,-0.0577559 -0.0268268,-0.113539 -0.0845827,-0.124583 -0.213579,-0.0412953 -0.468031,-0.104835 -0.701134,-0.204094 -0.225736,-0.096122 -0.431083,-0.225264 -0.556008,-0.399055z"/>
   <path id="_444904416" class="fil0" d="M3.32458 1.99229c0.024622,-0.0533858 0.00130315,-0.116626 -0.0520827,-0.141248 -0.0533858,-0.024622 -0.116626,-0.00130315 -0.141248,0.0520827 -0.0547559,0.118839 -0.15065,0.225886 -0.259236,0.311386 -0.127047,0.100031 -0.268035,0.168661 -0.379862,0.191618 -0.0575276,0.0117362 -0.0946496,0.0678898 -0.0829134,0.125417 0.0117362,0.0575276 0.0678898,0.0946496 0.125417,0.0829134 0.142398,-0.0292323 0.316799,-0.112587 0.469028,-0.232445 0.132571,-0.104382 0.250937,-0.237886 0.320898,-0.389724z"/>
  </g>
  <path class="fil1" d="M3.29457 1.86467c0.0971693,0.0685197 0.207913,0.126713 0.324055,0.176169 0.230843,0.0982992 0.482622,0.161563 0.694909,0.202886 0.0396142,0.00459055 0.0750079,0.0313504 0.0886535,0.071626 0.0556535,0.162563 0.0573465,0.33015 0.0299134,0.494106 -0.0262992,0.157213 -0.0793701,0.309976 -0.136315,0.450791 -0.084752,0.209594 -0.192953,0.410748 -0.330366,0.561228 -0.00732283,0.00801969 -0.0147244,0.0158976 -0.0222087,0.0236299 0.000653543,0.00290945 0.00118898,0.00586614 0.0016063,0.00887402 0.0470551,0.340437 0.160689,0.544335 0.213705,0.624012 0.000492126,-7.87402e-006 0.000984252,-1.1811e-005 0.00148031,-1.1811e-005l0.291283 0 0.292622 0c0.00288189,0 0.00575984,1.1811e-005 0.00863386,3.93701e-005 -0.215146,-0.517043 -0.149709,-0.761083 -0.0693031,-1.06099 0.0439724,-0.164016 0.0929291,-0.346602 0.0929291,-0.61213 0,-0.84198 -0.352205,-1.37572 -0.803571,-1.60633 -0.173417,-0.0886024 -0.36174,-0.132724 -0.550154,-0.132528 -0.187819,0.000192913 -0.376299,0.044874 -0.550701,0.133866 -0.454484,0.231917 -0.810004,0.767169 -0.810004,1.60499 0,0.265516 0.048937,0.448728 0.0929016,0.613346 0.0804528,0.301224 0.145941,0.546417 -0.0691102,1.06077 0.0148701,-0.000688976 0.0298031,-0.00103543 0.0447953,-0.00103543l0.245055 0 0.302488 0c0.000492126,0 0.000984252,3.93701e-006 0.00147638,1.1811e-005 0.0520512,-0.0782205 0.162524,-0.276173 0.211063,-0.605512 -0.0801969,-0.0696378 -0.153768,-0.154335 -0.218484,-0.251236 -0.176315,-0.264004 -0.288654,-0.620815 -0.288654,-1.00799 0,-0.029 0.000905512,-0.0621181 0.00275197,-0.0994567 0.0022126,-0.0470118 0.034622,-0.0854528 0.0775945,-0.0974646 0.00876378,-0.00464173 0.0183307,-0.00812205 0.0285394,-0.0102047 0.111827,-0.0229567 0.252815,-0.0915866 0.379862,-0.191618 0.0855787,-0.0673819 0.163272,-0.14815 0.219157,-0.237524 -0.0767047,-0.0627953 -0.144862,-0.13285 -0.201063,-0.211035 -0.0342835,-0.0476339 -0.0234646,-0.114051 0.0241693,-0.148335 0.0476339,-0.0342835 0.114051,-0.0234646 0.148335,0.0241693 0.0584843,0.0813583 0.134591,0.152933 0.222165,0.215913 0.00342126,0.00215748 0.00668504,0.00448819 0.0097874,0.00697244z"/>
  <path class="fil2" d="M3.53529 2.23668c-0.093689,-0.0398937 -0.184681,-0.085315 -0.269803,-0.137083 -0.0692402,0.107709 -0.161453,0.203409 -0.261803,0.282421 -0.130764,0.102961 -0.27789,0.17898 -0.407039,0.216902 -2.75591e-005,0.00470079 -3.93701e-005,0.00948425 -3.93701e-005,0.0143386 0,0.344528 0.0980669,0.659197 0.251984,0.889661 0.146772,0.21976 0.342291,0.360638 0.54652,0.370732 0.0039685,0.000192913 0.011878,0.000295276 0.0238386,0.000295276 0.151583,0 0.280315,-0.0768071 0.388965,-0.195795 0.118744,-0.130031 0.214268,-0.30887 0.290366,-0.497063 0.0521693,-0.129004 0.100587,-0.267756 0.123819,-0.406626 0.0187362,-0.111969 0.0210906,-0.224638 -0.00479921,-0.332835 -0.211512,-0.0436457 -0.454783,-0.108193 -0.682008,-0.204949z"/>
  <path class="fil2" d="M3.75272 3.99664c-0.0996614,0.0576417 -0.210516,0.0906457 -0.333772,0.0906457 -0.00730315,0 -0.0186339,-0.00038189 -0.0338386,-0.00112992 -0.104335,-0.00515748 -0.205713,-0.0337559 -0.301378,-0.082252 -0.0523228,0.266425 -0.142102,0.450862 -0.20328,0.553157l0.532272 0.232469 0.54402 -0.233587c-0.0617165,-0.103453 -0.152106,-0.289933 -0.204024,-0.559303z"/>
  <path class="fil3" d="M4.34461 5.31826l-1.86257 0 0 0.228193c0,0.0589094 -0.0477598,0.106669 -0.106669,0.106669 -0.0589094,0 -0.106669,-0.0477598 -0.106669,-0.106669l0 -0.228193 -0.202878 0 0 0.44152 2.695 0 0 -0.44152 -0.202882 0 0 0.228193c0,0.0589094 -0.0477598,0.106669 -0.106669,0.106669 -0.0589094,0 -0.106669,-0.0477598 -0.106669,-0.106669l0 -0.228193z"/>
  <path class="fil4" d="M2.48205 5.10493l1.86257 0 0 -0.413602 -0.162909 0 -0.722984 0.310429c-0.0269843,0.0129094 -0.0592165,0.0144606 -0.0887756,0.00155118l0.000122047 -0.000283465 -0.713677 -0.311697 -0.174343 0 0 0.413602z"/>
  <g id="_444903528">
   <path id="_444903312" class="fil4" d="M4.55795 4.69132l0 0.413602 0.309551 0c0.0589094,0 0.106669,0.0477598 0.106669,0.106669l0 0.548189 0.494673 0 0 -0.321031c0,-0.208378 -0.0800157,-0.396886 -0.211953,-0.532394 -0.129331,-0.132823 -0.30926,-0.215035 -0.512988,-0.215035l-0.185953 0z"/>
   <path id="_444903192" class="fil4" d="M2.26871 5.10493l0 -0.413602 -0.138386 0c-0.208563,0 -0.40335,0.0856535 -0.545327,0.223579 -0.139075,0.13511 -0.227181,0.320323 -0.227181,0.52385l0 0.321031 0.494677 0 0 -0.548189c0,-0.0589094 0.0477598,-0.106669 0.106669,-0.106669l0.309547 0z"/>
  </g>
 </g>
 <rect class="fil5" width="6.82666" height="6.82666"/>
</svg>
