<?xml version="1.0" encoding="UTF-8"?>
<!DOCTYPE svg PUBLIC "-//W3C//DTD SVG 1.1//EN" "http://www.w3.org/Graphics/SVG/1.1/DTD/svg11.dtd">
<!-- Creator: CorelDRAW -->
<svg xmlns="http://www.w3.org/2000/svg" xml:space="preserve" width="6.82666in" height="6.82666in" style="shape-rendering:geometricPrecision; text-rendering:geometricPrecision; image-rendering:optimizeQuality; fill-rule:evenodd; clip-rule:evenodd"
viewBox="0 0 6.82666 6.82666"
 xmlns:xlink="http://www.w3.org/1999/xlink">
 <defs>
  <style type="text/css">
   <![CDATA[
    .fil3 {fill:none}
    .fil2 {fill:#333333}
    .fil0 {fill:#EBE5DF}
    .fil1 {fill:#333333;fill-rule:nonzero}
   ]]>
  </style>
 </defs>
 <g id="Layer_x0020_1">
  <metadata id="CorelCorpID_0Corel-Layer"/>
  <path class="fil0" d="M1.45563 2.31489l0 3.53615 3.10475 0 0 -2.27231c0,-0.0589094 0.0477598,-0.106669 0.106669,-0.106669 0.013685,0 0.0267638,0.00257874 0.0387874,0.00727165l-3.28145 -1.23987c0.0193031,0.0193031 0.0312441,0.0459685 0.0312441,0.0754252z"/>
  <path class="fil1" d="M1.51273 2.22384c0,-0.0589094 -0.0477598,-0.106669 -0.106669,-0.106669 -0.0589094,0 -0.106669,0.0477598 -0.106669,0.106669l0 3.64282c0,0.0589094 0.0477598,0.106669 0.106669,0.106669l3.21142 0c0.0589094,0 0.106669,-0.0477598 0.106669,-0.106669l0 -2.37898c0,-0.0589094 -0.0477598,-0.106669 -0.106669,-0.106669 -0.0589094,0 -0.106669,0.0477598 -0.106669,0.106669l0 2.27231 -2.99808 0 0 -3.53615z"/>
  <path class="fil1" d="M1.99585 1.06667c-0.117886,0 -0.23185,0.117894 -0.320795,0.308496 -0.100291,0.214917 -0.162331,0.514795 -0.162331,0.848673 0,0.333882 0.0620394,0.633756 0.162331,0.848669 0.0889449,0.190602 0.202909,0.3085 0.320795,0.3085 0.117878,0 0.231846,-0.117898 0.320795,-0.3085 0.100291,-0.214913 0.162327,-0.514791 0.162327,-0.848669 0,-0.333878 -0.0620354,-0.633756 -0.162327,-0.848669 -0.0889488,-0.190602 -0.202917,-0.3085 -0.320795,-0.3085zm-0.513299 0.218496c0.124508,-0.266811 0.305449,-0.431835 0.513299,-0.431835 0.207843,0 0.388787,0.165031 0.513299,0.431839 0.113161,0.242496 0.183161,0.574551 0.183161,0.938669 0,0.364118 -0.07,0.696173 -0.183161,0.938669 -0.124512,0.266807 -0.305457,0.431839 -0.513299,0.431839 -0.20785,0 -0.388795,-0.165031 -0.513299,-0.431839 -0.113165,-0.242496 -0.183165,-0.574555 -0.183165,-0.938669 0,-0.364118 0.07,-0.696169 0.183165,-0.938673z"/>
  <path class="fil1" d="M1.99585 3.38101c-0.0589094,0 -0.106669,0.0477598 -0.106669,0.106669 0,0.0589094 0.0477598,0.106669 0.106669,0.106669l2.83496 0c0.20785,0 0.388795,-0.165031 0.513299,-0.431839 0.113165,-0.242496 0.183165,-0.574555 0.183165,-0.938669 0,-0.364118 -0.07,-0.696169 -0.183165,-0.938673 -0.124508,-0.266811 -0.305449,-0.431835 -0.513299,-0.431835l-2.83496 0c-0.0589094,0 -0.106669,0.0477598 -0.106669,0.106669 0,0.0589094 0.0477598,0.106669 0.106669,0.106669l2.83496 0c0.117886,0 0.23185,0.117894 0.320795,0.308496 0.100291,0.214917 0.162331,0.514795 0.162331,0.848673 0,0.333882 -0.0620394,0.633756 -0.162331,0.848669 -0.0889449,0.190602 -0.202909,0.3085 -0.320795,0.3085l-2.83496 0z"/>
  <ellipse class="fil2" cx="1.99585" cy="2.22384" rx="0.175871" ry="0.376866"/>
  <path class="fil0" d="M2.50915 1.28517c0.113161,0.242496 0.183161,0.574551 0.183161,0.938669 0,0.364118 -0.07,0.696173 -0.183161,0.938669 -0.0389331,0.0834291 -0.0833858,0.156909 -0.132453,0.2185l2.24078 0 0.213327 0c0.117886,0 0.23185,-0.117898 0.320795,-0.3085 0.100291,-0.214913 0.162331,-0.514787 0.162331,-0.848669 0,-0.333878 -0.0620394,-0.633756 -0.162331,-0.848673 -0.0889449,-0.190602 -0.202909,-0.308496 -0.320795,-0.308496l-2.45411 0c0.0490669,0.0615945 0.0935197,0.135071 0.132453,0.2185z"/>
  <path class="fil0" d="M2.47897 2.22384c0,-0.333878 -0.0620354,-0.633756 -0.162327,-0.848669 -0.0889488,-0.190602 -0.202917,-0.3085 -0.320795,-0.3085 -0.117886,0 -0.23185,0.117894 -0.320795,0.308496 -0.100201,0.214724 -0.162217,0.514252 -0.162331,0.847764 3.93701e-006,0.00030315 3.93701e-006,0.000606299 0,0.000909449 0,0.00153543 0,0.00307087 3.93701e-006,0.0046063 0.000566929,0.332031 0.0624961,0.630138 0.162327,0.844063 0.0889449,0.190602 0.202909,0.3085 0.320795,0.3085 0.117878,0 0.231846,-0.117898 0.320795,-0.3085 0.100291,-0.214913 0.162327,-0.514791 0.162327,-0.848669zm-0.658996 0c0,-0.208138 0.0787402,-0.376866 0.17587,-0.376866 0.0971339,0 0.175874,0.168728 0.175874,0.376866 0,0.208138 -0.0787402,0.376866 -0.175874,0.376866 -0.0971299,0 -0.17587,-0.168728 -0.17587,-0.376866z"/>
 </g>
 <rect class="fil3" width="6.82666" height="6.82666"/>
</svg>
