<?xml version="1.0" encoding="UTF-8"?>
<!DOCTYPE svg PUBLIC "-//W3C//DTD SVG 1.1//EN" "http://www.w3.org/Graphics/SVG/1.1/DTD/svg11.dtd">
<!-- Creator: CorelDRAW -->
<svg xmlns="http://www.w3.org/2000/svg" xml:space="preserve" width="6.82666in" height="6.82666in" style="shape-rendering:geometricPrecision; text-rendering:geometricPrecision; image-rendering:optimizeQuality; fill-rule:evenodd; clip-rule:evenodd"
viewBox="0 0 6.82666 6.82666"
 xmlns:xlink="http://www.w3.org/1999/xlink">
 <defs>
  <style type="text/css">
   <![CDATA[
    .fil3 {fill:none}
    .fil0 {fill:#9DD5C0}
    .fil1 {fill:#FFD3B3}
    .fil2 {fill:#333333;fill-rule:nonzero}
   ]]>
  </style>
 </defs>
 <g id="Layer_x0020_1">
  <metadata id="CorelCorpID_0Corel-Layer"/>
  <path class="fil0" d="M2.4183 3.61726l2.33148 -0.0848937c-0.0167244,-0.00870079 -0.0313937,-0.0218898 -0.0420197,-0.0390945 -0.0313898,-0.0508346 -0.015626,-0.117496 0.0352047,-0.148886l1.01703 -0.628028c-0.112736,-0.166622 -0.243469,-0.318992 -0.388949,-0.455343 -0.174063,-0.163138 -0.369205,-0.302969 -0.579835,-0.416469 -0.208878,-0.112555 -0.432902,-0.199717 -0.66652,-0.258496 -0.229331,-0.0577087 -0.468201,-0.0879764 -0.71137,-0.0879764 -0.243173,0 -0.482039,0.0302677 -0.711374,0.0879764 -0.233622,0.0587795 -0.457642,0.145945 -0.666516,0.258496 -0.21063,0.1135 -0.405772,0.253331 -0.579835,0.416469 -0.145476,0.136346 -0.276201,0.288709 -0.388941,0.455327l1.31824 0.813689c0.0325315,0.0200866 0.0402756,0.0528858 0.0334055,0.0872283z"/>
  <path class="fil1" d="M4.15495 4.31244c-0.0129173,0.0181063 -0.00425197,0.00555512 0.00273228,-0.00447638l-0.000933071 0.00192913 -0.0017126 0.00240157 -8.66142e-005 0.000145669zm-1.26678 -1.75581l0 0.90635c0,0.0589094 -0.0477598,0.106669 -0.106669,0.106669 -0.0589094,0 -0.106669,-0.0477598 -0.106669,-0.106669l0 -0.90635c0,-0.0589094 0.0477598,-0.106669 0.106669,-0.106669 0.0589094,0 0.106669,0.0477598 0.106669,0.106669zm0.411728 -0.333728l-0.0043937 1.24006c0,0.0586811 -0.0475709,0.106252 -0.106252,0.106252 -0.0586811,0 -0.106252,-0.0475709 -0.106252,-0.106252l0.0043937 -1.24006c0,-0.0586811 0.0475709,-0.106252 0.106252,-0.106252 0.0586811,0 0.106252,0.0475709 0.106252,0.106252zm0.0998228 -0.43313l0 0zm0.0993976 1.67321l0 -1.12884 0 -0.00129921c0,-0.0589094 0.0477598,-0.106669 0.106669,-0.106669 0.0589094,0 0.106669,0.0477598 0.106669,0.106669l0 0.00129921 0 1.12884c0,0.0589094 -0.0477598,0.106669 -0.106669,0.106669 -0.0589094,0 -0.106669,-0.0477598 -0.106669,-0.106669zm-1.08996 0.944551l0 0zm0.000389764 -0.000204724l0 0zm0.357071 -2.40538c-0.0566299,0.0566299 -0.0917874,0.134839 -0.0917874,0.220953l0 0.0372362c-0.031252,-0.0105315 -0.064685,-0.016248 -0.0994055,-0.016248 -0.0861102,0 -0.164327,0.0351535 -0.220957,0.0917835 -0.0566299,0.0566299 -0.0917835,0.134846 -0.0917835,0.220957l0 0.865441c-0.00023622,0.00120472 -0.000472441,0.00244882 -0.000716535,0.00372835 -0.00820079,0.0430591 -0.0211024,0.126476 -0.0236181,0.235185 -0.000807087,0.0347598 -0.000547244,0.0721063 0.00126378,0.111543 0.00834252,0.181425 0.0491614,0.408248 0.169543,0.635004 0.00135827,0.00255512 0.00280709,0.0050315 0.00433465,0.00742913 0.0389252,0.0761378 0.326335,0.660193 0.12824,0.940122l-0.000440945 -0.000311024c-0.0340433,0.0480748 -0.0226693,0.114654 0.0254055,0.148697 0.0188622,0.0133583 0.0405748,0.0197205 0.0620512,0.0196181l1.37439 0c0.0589094,0 0.106669,-0.0477598 0.106669,-0.106669 0,-0.0239843 -0.00791732,-0.0461181 -0.0212795,-0.063937 -0.0185079,-0.0304803 -0.126614,-0.239248 0.086752,-0.662819 0.00506299,-0.00562992 0.00999606,-0.0115394 0.0147835,-0.0177165 0.00800394,-0.0103071 0.0157953,-0.0219528 0.0233071,-0.0349488l0.000181102 0.000106299 8.66142e-005 -0.000149606 0.000220472 0.000125984c0.00122047,-0.00211417 0.00234646,-0.00425984 0.00340945,-0.00641732l0.119051 -0.206193 0.0010748 -0.00154724c0.00333858,-0.00480315 0.00242126,-0.00360236 -0.000102362,-0.000137795l0.00169685 -0.00293701 0.00057874 -0.000822835 0.000141732 8.26772e-005 0.000102362 -0.000181102 0.000326772 0.000232283c0.00501969,-0.00708661 0.00905118,-0.0145787 0.012122,-0.0223071l0.489543 -0.847902 -0.0422795 -0.0244882c3.54331e-005,-1.1811e-005 7.48031e-005,-1.9685e-005 0.000114173,-2.75591e-005l0.0424606 0.0245157c0.00205118,-0.00355118 0.00386614,-0.00717323 0.00546457,-0.0108465 0.00857874,-0.0162441 0.0155827,-0.0329291 0.0210591,-0.049878 0.018815,-0.0582362 0.0195984,-0.119539 0.00435827,-0.176417 -0.0056811,-0.0211929 -0.0135945,-0.041811 -0.0236457,-0.0614646 -0.0247205,-0.0483465 -0.0623504,-0.0908622 -0.111339,-0.121787 -0.00675591,-0.00504331 -0.0139685,-0.00918898 -0.0214843,-0.0124252 -0.0719764,-0.0379331 -0.152685,-0.0449291 -0.226031,-0.0252795 -0.0733189,0.0196417 -0.139748,0.0660709 -0.183252,0.134984 -0.00457874,0.00612992 -0.00840551,0.0126378 -0.0114921,0.0194016l-0.17113 0.296406 0 -1.2075c0,-0.0861142 -0.0351575,-0.164323 -0.0917874,-0.220953 -0.0566299,-0.0566299 -0.134839,-0.0917874 -0.220957,-0.0917874 -0.0347165,0 -0.0681496,0.0057126 -0.0994016,0.016248l0 -0.148476c0,-0.0861102 -0.0351535,-0.164327 -0.0917835,-0.220957 -0.0566299,-0.0566299 -0.134843,-0.0917835 -0.220961,-0.0917835 -0.0861102,0 -0.164323,0.0351535 -0.220953,0.0917835 -0.0566299,0.0566299 -0.0917835,0.134846 -0.0917835,0.220957l0 0.0372362c-0.031252,-0.0105354 -0.064685,-0.016248 -0.0994055,-0.016248 -0.0861142,0 -0.164323,0.0351575 -0.220953,0.0917874zm1.568 2.42451c-0.0079252,0.0109646 -0.0206614,0.0287362 -0.000212598,-0.000149606l0.000212598 0.000149606z"/>
  <path class="fil2" d="M2.29143 3.69375c0.0499331,0.0308346 0.0904173,0.011185 0.121252,-0.038748 0.0308346,-0.0499331 0.0403504,-0.111252 -0.00958268,-0.142087l-1.29491 -0.799291c0.110744,-0.163669 0.239157,-0.313339 0.382059,-0.447272 0.170984,-0.160252 0.362673,-0.297606 0.569575,-0.409098 0.205181,-0.110559 0.425236,-0.196185 0.654724,-0.253925 0.225276,-0.056685 0.459917,-0.0864173 0.698787,-0.0864173 0.238866,0 0.473512,0.0297323 0.698783,0.0864173 0.229484,0.0577402 0.449543,0.143362 0.654728,0.253925 0.206902,0.111492 0.398591,0.248846 0.569575,0.409098 0.142906,0.133937 0.271327,0.283614 0.382067,0.447287l-0.999035 0.616913c-0.0499331,0.0308346 -0.0654173,0.0963189 -0.0345827,0.146252 0.0308346,0.0499331 0.0963189,0.0654173 0.146252,0.0345827l1.08357 -0.66911c0.00273228,-0.00138189 0.00543701,-0.00288583 0.00809055,-0.00452756 0.0500984,-0.0309882 0.0655866,-0.0967283 0.0345984,-0.146827l-0.000338583 0.000208661c-0.133394,-0.215626 -0.293524,-0.409898 -0.474783,-0.57978 -0.184799,-0.173201 -0.39163,-0.321465 -0.614575,-0.441602 -0.220815,-0.118984 -0.457402,-0.211071 -0.703894,-0.273091 -0.242657,-0.0610591 -0.494669,-0.0930866 -0.750453,-0.0930866 -0.255783,0 -0.507795,0.0320276 -0.750457,0.0930866 -0.246492,0.0620197 -0.483075,0.154106 -0.70389,0.273091 -0.222945,0.120138 -0.429776,0.268402 -0.614575,0.441602 -0.179016,0.16778 -0.337417,0.359346 -0.469815,0.571783 -0.00188583,0.00252362 -0.00367717,0.00514567 -0.0053622,0.00787402 -0.0309409,0.050126 -0.0153858,0.115854 0.0347402,0.146795l0.000208661 -0.000338583 1.38725 0.856283z"/>
  <path class="fil2" d="M2.57543 2.45723l-3.93701e-006 0c-0.0272244,0 -0.0520591,0.0112165 -0.070122,0.0292795 -0.018063,0.018063 -0.0292795,0.0428976 -0.0292795,0.070122l0 0.874717c0,0.0100945 -0.00140157,0.0198622 -0.00402362,0.0291181 -0.00882677,0.0445 -0.0266457,0.15576 -0.0198819,0.302898 0.00714173,0.155374 0.0421417,0.349697 0.145402,0.544122l4.72441e-005 -2.3622e-005c0.00172835,0.00325197 0.00326772,0.00655118 0.00462992,0.00988976 0.0383543,0.0751732 0.297272,0.604327 0.190744,0.992398l1.05891 0c-0.031374,-0.148776 -0.0316378,-0.395079 0.140858,-0.730642l-0.000232283 -0.00011811c0.00633465,-0.0123189 0.0147323,-0.0228819 0.0245591,-0.0314843 0.00168504,-0.00184252 0.00325591,-0.00370079 0.00469685,-0.00555906 0.00320866,-0.00413386 0.0057874,-0.00785827 0.00765354,-0.0110945l0.00625984 0.00359843 0.000177165 -0.000102362 -0.00674409 -0.00388976c0.00123622,-0.00214173 0.00253937,-0.00422047 0.00389764,-0.00624016l0.122197 -0.211654 -0.000220472 -0.000125984 8.66142e-005 -0.000145669 0.0017126 -0.00240157 0.00101575 -0.00204724 -8.26772e-005 0.00011811 0.000122047 -0.000188976c0.00192913,-0.00376378 0.00407874,-0.00741339 0.00644094,-0.0109291l0.493315 -0.854437 -0.000220472 -0.000125984c0.00112205,-0.00194488 0.00230709,-0.00383465 0.0035315,-0.00568504 0.0107244,-0.0220748 0.0124055,-0.0468819 0.00627165,-0.0697874 -0.00668504,-0.0249449 -0.0224882,-0.0471614 -0.0457756,-0.0606063l0.0529173 -0.0920827 -0.0027126 0.00470079 -0.0502126 0.087374 -0.000173228 -9.84252e-005 -0.000232283 0.000401575c-0.00194882,-0.00112598 -0.00384646,-0.00231102 -0.00569685,-0.00353937 -0.0220748,-0.0107283 -0.0468819,-0.0124055 -0.0697795,-0.00627165 -0.0249449,0.0066811 -0.0471614,0.0224803 -0.0606024,0.0457677l-0.0920827 -0.0529173 0.00235039 0.00135827 0.0897283 0.051563 -0.000102362 0.000177165 0.000401575 0.000232283c-0.00167323,0.00290157 -0.0034685,0.00568898 -0.00536614,0.00836614l-0.307445 0.532512 -0.0920827 -0.0529173 0.092378 0.0533346c-0.0294528,0.0510157 -0.0946969,0.0684961 -0.145713,0.0390433 -0.0256339,-0.0147992 -0.0427913,-0.0386378 -0.0497953,-0.0651654 -0.00702362,-0.0212244 -0.0113346,-0.0332283 -0.0156142,-0.0451614 -0.0254606,-0.0709606 -0.0502677,-0.140075 -0.0502677,-0.222244l0 -1.25649c0,-0.0272205 -0.0112165,-0.0520512 -0.0292835,-0.0701181 -0.0180669,-0.0180669 -0.0428976,-0.0292835 -0.0701181,-0.0292835l-3.93701e-006 0c-0.0272205,0 -0.0520512,0.0112165 -0.0701181,0.0292835 -0.0180669,0.0180669 -0.0292835,0.0428976 -0.0292835,0.0701181l-0.213339 0 0 -0.444969c0,-0.0272244 -0.0112165,-0.0520591 -0.0292795,-0.070122 -0.018063,-0.018063 -0.0428937,-0.0292795 -0.0701181,-0.0292795l-7.87402e-006 0c-0.0272244,0 -0.0520551,0.0112165 -0.0701181,0.0292795 -0.018063,0.018063 -0.0292795,0.0428976 -0.0292795,0.070122l0 0.333728 -0.213339 0c0,-0.0272205 -0.0112165,-0.0520512 -0.0292835,-0.0701181 -0.0180669,-0.0180669 -0.0428976,-0.0292835 -0.0701181,-0.0292835l-3.93701e-006 0c-0.0272205,0 -0.0520512,0.0112165 -0.0701181,0.0292835 -0.0180669,0.0180669 -0.0292835,0.0428976 -0.0292835,0.0701181l0 0.333728 -0.213339 0c0,-0.0272244 -0.0112165,-0.0520591 -0.0292795,-0.070122 -0.018063,-0.018063 -0.0428976,-0.0292795 -0.070122,-0.0292795zm-3.93701e-006 -0.213339l3.93701e-006 0c0.0347165,0 0.0681496,0.00571654 0.0994016,0.016248l0 -0.0372362c0,-0.0861142 0.0351575,-0.164323 0.0917874,-0.220953 0.0566299,-0.0566299 0.134839,-0.0917874 0.220953,-0.0917874l3.93701e-006 0c0.0347165,0 0.0681496,0.0057126 0.0994016,0.016248l0 -0.0372362c0,-0.0861102 0.0351535,-0.164327 0.0917835,-0.220957 0.0566299,-0.0566299 0.134843,-0.0917835 0.220953,-0.0917835l7.87402e-006 0c0.0861102,0 0.164323,0.0351535 0.220953,0.0917835 0.0566299,0.0566299 0.0917835,0.134846 0.0917835,0.220957l0 0.148476c0.031252,-0.0105354 0.064685,-0.016248 0.0994016,-0.016248l3.93701e-006 0c0.0861142,0 0.164323,0.0351575 0.220953,0.0917874 0.0566299,0.0566299 0.0917874,0.134839 0.0917874,0.220953l0 1.2075 0.17113 -0.296406c0.00308661,-0.00676378 0.00691339,-0.0132717 0.0114921,-0.0194016 0.0435039,-0.0689134 0.109933,-0.115343 0.183252,-0.134984 0.0733465,-0.0196496 0.154055,-0.0126535 0.226031,0.0252795 0.00751575,0.00323622 0.0147283,0.00738189 0.0214843,0.0124252 0.0689055,0.0435 0.115335,0.109925 0.134984,0.183252 0.0196772,0.0734331 0.0126417,0.15424 -0.0254173,0.226295 -0.00159843,0.00367323 -0.00341339,0.00729528 -0.00546457,0.0108465l-0.092378 -0.0533346 0.0920827 0.0533346 -0.489543 0.847902c-0.00307087,0.00772835 -0.00710236,0.0152205 -0.012122,0.0223071l-0.000326772 -0.000232283 -0.000102362 0.000181102 -0.000141732 -8.26772e-005 -0.00057874 0.000822835 -0.00169685 0.00293701c0.00252362,-0.00346457 0.00344094,-0.00466535 0.000102362,0.000137795l-0.0010748 0.00154724 -0.119051 0.206193c-0.00106299,0.00215748 -0.00218898,0.00430315 -0.00340945,0.00641732l-0.000220472 -0.000125984 -8.66142e-005 0.000149606 -0.000181102 -0.000106299c-0.00751181,0.0129961 -0.0153031,0.0246417 -0.0233071,0.0349488 -0.0047874,0.00617717 -0.00972047,0.0120866 -0.0147835,0.0177165 -0.213366,0.423571 -0.10526,0.632339 -0.086752,0.662819 0.0133622,0.0178189 0.0212795,0.0399528 0.0212795,0.063937 0,0.0589094 -0.0477598,0.106669 -0.106669,0.106669l-1.37439 0c-0.0214764,0.000102362 -0.043189,-0.00625984 -0.0620512,-0.0196181 -0.0480748,-0.0340433 -0.0594488,-0.100622 -0.0254055,-0.148697l0.000440945 0.000311024c0.198094,-0.279929 -0.089315,-0.863984 -0.12824,-0.940122 -0.00152756,-0.00239764 -0.00297638,-0.00487402 -0.00433465,-0.00742913l0.000389764 -0.000204724 -7.87402e-006 -1.1811e-005 -0.00034252 0.000181102c-0.120421,-0.22672 -0.16124,-0.453543 -0.169583,-0.634969 -0.00764961,-0.166433 0.0123976,-0.295602 0.0230709,-0.350457l0 -0.865441c0,-0.0861102 0.0351535,-0.164327 0.0917835,-0.220957 0.0566299,-0.0566299 0.134846,-0.0917835 0.220957,-0.0917835zm1.57961 2.0684c0.000850394,-0.0014685 0.00173622,-0.00291339 0.00264567,-0.00433071 -0.007,0.0100551 -0.0156929,0.0226457 -0.00264567,0.00433071zm0.179583 0.114169l-0.000212598 -0.000149606c-0.0204488,0.0288858 -0.0077126,0.0111142 0.000212598,0.000149606z"/>
  <path class="fil2" d="M2.88817 2.55663c0,-0.0589094 -0.0477598,-0.106669 -0.106669,-0.106669 -0.0589094,0 -0.106669,0.0477598 -0.106669,0.106669l0 0.90635c0,0.0589094 0.0477598,0.106669 0.106669,0.106669 0.0589094,0 0.106669,-0.0477598 0.106669,-0.106669l0 -0.90635z"/>
  <path class="fil2" d="M3.2999 2.22291c0,-0.0586811 -0.0475709,-0.106252 -0.106252,-0.106252 -0.0586811,0 -0.106252,0.0475709 -0.106252,0.106252l-0.0043937 1.24006c0,0.0586811 0.0475709,0.106252 0.106252,0.106252 0.0586811,0 0.106252,-0.0475709 0.106252,-0.106252l0.0043937 -1.24006z"/>
  <path class="fil2" d="M3.71246 2.33285c0,-0.0589094 -0.0477598,-0.106669 -0.106669,-0.106669 -0.0589094,0 -0.106669,0.0477598 -0.106669,0.106669l0 1.13014c0,0.0589094 0.0477598,0.106669 0.106669,0.106669 0.0589094,0 0.106669,-0.0477598 0.106669,-0.106669l0 -1.13014z"/>
 </g>
 <rect class="fil3" width="6.82666" height="6.82666"/>
</svg>
