<?xml version="1.0" encoding="UTF-8"?>
<!DOCTYPE svg PUBLIC "-//W3C//DTD SVG 1.1//EN" "http://www.w3.org/Graphics/SVG/1.1/DTD/svg11.dtd">
<!-- Creator: CorelDRAW -->
<svg xmlns="http://www.w3.org/2000/svg" xml:space="preserve" width="6.82666in" height="6.82666in" style="shape-rendering:geometricPrecision; text-rendering:geometricPrecision; image-rendering:optimizeQuality; fill-rule:evenodd; clip-rule:evenodd"
viewBox="0 0 6.82666 6.82666"
 xmlns:xlink="http://www.w3.org/1999/xlink">
 <defs>
  <style type="text/css">
   <![CDATA[
    .fil6 {fill:none}
    .fil5 {fill:#949494}
    .fil2 {fill:#AED581}
    .fil4 {fill:#F19A7B}
    .fil1 {fill:#F45A52}
    .fil3 {fill:#FECA5F}
    .fil0 {fill:#333333;fill-rule:nonzero}
   ]]>
  </style>
 </defs>
 <g id="Layer_x0020_1">
  <metadata id="CorelCorpID_0Corel-Layer"/>
  <g id="_442805736">
   <path id="_442806888" class="fil0" d="M4.59764 0.853327c0.170075,0 0.277642,0.107866 0.323594,0.245929 0.0161024,0.048374 0.0241575,0.0992795 0.0241575,0.148807 0,0.0495315 -0.00805512,0.100437 -0.0241575,0.148807 -0.0459646,0.138063 -0.15352,0.245933 -0.323594,0.245933l-2.36862 0c-0.170075,0 -0.27763,-0.107866 -0.323591,-0.245925 -0.0161024,-0.048374 -0.0241614,-0.0992795 -0.0241614,-0.148807 0,-0.0495394 0.00805906,-0.100437 0.0241614,-0.148807 0.0459606,-0.138063 0.153516,-0.245937 0.323591,-0.245937l2.36862 0zm0.0758386 0.327835c-0.0122835,-0.0369016 -0.0378819,-0.0657402 -0.0758386,-0.0657402l0 -0.262094c0.072374,0 0.131047,0.0586772 0.131047,0.131047 0,0.072374 -0.0586732,0.131047 -0.131047,0.131047l-2.36862 0c-0.0379567,0 -0.0635512,0.0288425 -0.0758346,0.065748 -0.00654331,0.0196614 -0.00982283,0.0425984 -0.00982283,0.0669016 0,0.0242913 0.00327953,0.0472323 0.00982283,0.0669016 0.0122835,0.0369016 0.037878,0.0657402 0.0758346,0.0657402l2.36862 0c0.0379567,0 0.0635512,-0.0288425 0.0758386,-0.065748 0.00654331,-0.0196654 0.00982283,-0.0426063 0.00982283,-0.0669016 0,-0.0242953 -0.00327953,-0.0472402 -0.00982283,-0.0669016z"/>
   <path id="_442806720" class="fil0" d="M4.59764 1.90809c0.0379567,0 0.0635551,-0.0288346 0.0758386,-0.0657402 0.00654331,-0.0196654 0.00982283,-0.0426102 0.00982283,-0.0669055 0,-0.0242992 -0.00327953,-0.0472402 -0.00982283,-0.0669016 -0.0122835,-0.0369055 -0.0378819,-0.0657441 -0.0758386,-0.0657441l-2.36862 0c-0.0379567,0 -0.0635512,0.0288386 -0.0758346,0.0657441 -0.00654331,0.0196614 -0.00982283,0.0426063 -0.00982283,0.0669016 0,0.0242953 0.00327953,0.0472362 0.00982283,0.0669016 0.0122835,0.0369016 0.037878,0.0657441 0.0758346,0.0657441l2.36862 0zm0.323594 0.0161654c-0.0459528,0.138063 -0.15352,0.245929 -0.323594,0.245929l0 -0.262094c0.072374,0 0.131047,0.0586772 0.131047,0.131047 0,0.072374 -0.0586732,0.131047 -0.131047,0.131047l-2.36862 0c-0.170075,0 -0.27763,-0.107874 -0.323591,-0.245933 -0.0161024,-0.048374 -0.0241614,-0.0992756 -0.0241614,-0.148807 0,-0.0495276 0.00805906,-0.100437 0.0241614,-0.148807 0.0459606,-0.138059 0.153516,-0.245929 0.323591,-0.245929l2.36862 0c0.170075,0 0.277642,0.107862 0.323594,0.245929 0.0161024,0.0483701 0.0241575,0.0992677 0.0241575,0.148807 0,0.0495315 -0.00805512,0.100437 -0.0241575,0.148811z"/>
   <path id="_442806384" class="fil0" d="M4.59764 1.90809c0.170075,0 0.277642,0.107866 0.323594,0.245929 0.0161024,0.048374 0.0241575,0.0992795 0.0241575,0.148807 0,0.0495276 -0.00805512,0.100437 -0.0241575,0.148807 -0.0459646,0.138059 -0.15352,0.245933 -0.323594,0.245933l-2.36862 0c-0.170075,0 -0.27763,-0.107866 -0.323591,-0.245929 -0.0161024,-0.0483701 -0.0241614,-0.0992795 -0.0241614,-0.148807 0,-0.0495354 0.00805906,-0.100433 0.0241614,-0.148807 0.0459606,-0.138059 0.153516,-0.245933 0.323591,-0.245933l2.36862 0zm0.0758386 0.327835c-0.0122835,-0.0369055 -0.0378819,-0.0657402 -0.0758386,-0.0657402l0 -0.262094c0.072374,0 0.131047,0.0586772 0.131047,0.131047 0,0.072374 -0.0586732,0.131047 -0.131047,0.131047l-2.36862 0c-0.0379567,0 -0.0635512,0.0288425 -0.0758346,0.0657441 -0.00654331,0.0196614 -0.00982283,0.0426024 -0.00982283,0.0669016 0,0.0242953 0.00327953,0.0472362 0.00982283,0.0669016 0.0122835,0.0369055 0.037878,0.0657441 0.0758346,0.0657441l2.36862 0c0.0379567,0 0.0635512,-0.0288425 0.0758386,-0.065748 0.00654331,-0.0196654 0.00982283,-0.0426063 0.00982283,-0.0669016 0,-0.0242953 -0.00327953,-0.0472402 -0.00982283,-0.0669016z"/>
   <path id="_442807056" class="fil0" d="M2.22902 3.22496c-0.170075,0 -0.27763,-0.10787 -0.323591,-0.245929 -0.0161024,-0.048374 -0.0241614,-0.0992795 -0.0241614,-0.148807 0,-0.0495394 0.00805906,-0.100437 0.0241614,-0.148807 0.0459606,-0.138063 0.153516,-0.245933 0.323591,-0.245933l2.36862 0c0.170075,0 0.277642,0.107862 0.323594,0.245925 0.0161024,0.048374 0.0241575,0.0992795 0.0241575,0.148807 0,0.0495315 -0.00805512,0.100437 -0.0241575,0.148807 -0.0459646,0.138063 -0.15352,0.245937 -0.323594,0.245937l-2.36862 0zm-0.0758346 -0.327835c0.0122835,0.0369016 0.037878,0.0657402 0.0758346,0.0657402l0 0.262094c-0.0723701,0 -0.131047,-0.0586772 -0.131047,-0.131047 0,-0.072374 0.0586772,-0.131047 0.131047,-0.131047l2.36862 0c0.0379567,0 0.0635512,-0.0288425 0.0758386,-0.0657441 0.00654331,-0.0196693 0.00982283,-0.0426102 0.00982283,-0.0669055 0,-0.0242913 -0.00327953,-0.0472402 -0.00982283,-0.0669016 -0.0122835,-0.0369016 -0.0378819,-0.0657402 -0.0758386,-0.0657402l-2.36862 0c-0.0379567,0 -0.0635512,0.0288425 -0.0758346,0.065748 -0.00654331,0.0196614 -0.00982283,0.0426024 -0.00982283,0.0669016 0,0.0242953 0.00327953,0.0472362 0.00982283,0.0669016z"/>
   <path id="_442806264" class="fil1" d="M2.22902 1.11542c-0.0379606,0 -0.0635472,0.0288386 -0.0758346,0.0657441 -0.00654331,0.0196654 -0.00982283,0.0426063 -0.00982283,0.0669016 0,0.0242992 0.00327953,0.0472362 0.00982283,0.0669016 0.0122874,0.0369055 0.037874,0.0657402 0.0758346,0.0657402l2.36862 0c0.0379528,0 0.0635512,-0.0288386 0.0758346,-0.0657441 0.00654724,-0.0196654 0.00982677,-0.0426063 0.00982677,-0.0669016 0,-0.0242913 -0.00327953,-0.0472362 -0.00982677,-0.0669016 -0.0122756,-0.0369055 -0.0378819,-0.0657402 -0.0758346,-0.0657402l-2.36862 0z"/>
   <path id="_442806000" class="fil2" d="M4.59764 1.64281l-2.36862 0c-0.0379606,0 -0.0635472,0.0288346 -0.0758346,0.0657402 -0.00654331,0.0196575 -0.00982283,0.0426024 -0.00982283,0.0669016 0,0.0242953 0.00327953,0.0472362 0.00982283,0.0669016 0.0122874,0.0369016 0.037874,0.0657441 0.0758346,0.0657441l2.36862 0c0.0379528,0 0.0635591,-0.0288346 0.0758346,-0.0657402 0.00654724,-0.0196654 0.00982677,-0.0426102 0.00982677,-0.0669055 0,-0.0243031 -0.00327953,-0.0472441 -0.00982677,-0.0669016 -0.0122756,-0.0369055 -0.0378819,-0.0657402 -0.0758346,-0.0657402z"/>
   <path id="_442806048" class="fil3" d="M4.59764 2.17019l-2.36862 0c-0.0379606,0 -0.0635472,0.0288425 -0.0758346,0.065748 -0.00654331,0.0196575 -0.00982283,0.0425984 -0.00982283,0.0669016 0,0.0242913 0.00327953,0.0472323 0.00982283,0.0669016 0.0122874,0.0369055 0.037874,0.0657402 0.0758346,0.0657402l2.36862 0c0.0379528,0 0.0635512,-0.0288425 0.0758346,-0.0657441 0.00654724,-0.0196693 0.00982677,-0.0426102 0.00982677,-0.0669016 0,-0.0242992 -0.00327953,-0.0472441 -0.00982677,-0.0669055 -0.0122756,-0.0369016 -0.0378819,-0.0657402 -0.0758346,-0.0657402z"/>
   <path id="_442805904" class="fil4" d="M4.59764 2.69757l-2.36862 0c-0.0379606,0 -0.0635472,0.0288425 -0.0758346,0.0657441 -0.00654331,0.0196654 -0.00982283,0.0426063 -0.00982283,0.0669016 0,0.0242992 0.00327953,0.0472402 0.00982283,0.0669016 0.0122874,0.0369055 0.037874,0.0657402 0.0758346,0.0657402l2.36862 0c0.0379528,0 0.0635512,-0.0288386 0.0758346,-0.0657441 0.00654724,-0.0196654 0.00982677,-0.0426063 0.00982677,-0.0669016 0,-0.0242913 -0.00327953,-0.0472362 -0.00982677,-0.0669016 -0.0122756,-0.0369055 -0.0378819,-0.0657402 -0.0758346,-0.0657402z"/>
  </g>
  <path class="fil0" d="M2.24444 5.76739l2.3378 0c0.0971693,0 0.180028,-0.0437323 0.243539,-0.114299 0.0756732,-0.0840827 0.125484,-0.204701 0.142583,-0.337701l0.229051 -1.78152 -3.56814 0 0.229051 1.78152c0.0170984,0.132996 0.0669134,0.253614 0.142587,0.337701 0.0635118,0.0705669 0.14637,0.114299 0.243535,0.114299zm2.3378 0.205945l-2.3378 0c-0.160232,0 -0.29487,-0.0698898 -0.396382,-0.182677 -0.103378,-0.11487 -0.170878,-0.275346 -0.193268,-0.449524l-0.242744 -1.88802c-0.0015748,-0.00714961 -0.00240945,-0.0145827 -0.00240945,-0.0222087 0,-0.0568701 0.0461024,-0.102972 0.102972,-0.102972l3.80083 0c0.00453937,-2.3622e-005 0.00913386,0.000244094 0.0137559,0.00084252 0.0564016,0.00725197 0.096252,0.0588583 0.089,0.11526l-0.000393701 -4.72441e-005 -0.243917 1.89715c-0.0223898,0.174181 -0.0898858,0.334657 -0.193264,0.449524 -0.101512,0.112787 -0.23615,0.182677 -0.396386,0.182677z"/>
  <path class="fil0" d="M1.04501 3.32794c-0.0568661,0 -0.102972,0.0461024 -0.102972,0.102972 0,0.0568661 0.0461063,0.102972 0.102972,0.102972l4.73664 0c0.0568661,0 0.102972,-0.0461063 0.102972,-0.102972 0,-0.0568701 -0.0461063,-0.102972 -0.102972,-0.102972l-4.73664 0z"/>
  <path class="fil0" d="M2.63197 5.76739l1.56272 0c0.0460748,0 0.089315,-0.0375748 0.125791,-0.0982087 0.0517008,-0.0859291 0.0858583,-0.21074 0.0977756,-0.349366l0.153484 -1.78594 -2.31683 0 0.153484 1.78594c0.0119173,0.138622 0.0460748,0.263437 0.0977756,0.349366 0.0364764,0.0606339 0.0797165,0.0982087 0.125791,0.0982087zm1.56272 0.205945l-1.56272 0c-0.12598,0 -0.228138,-0.0760433 -0.301972,-0.198772 -0.0679921,-0.113016 -0.112244,-0.269295 -0.126732,-0.437854l-0.162736 -1.89355c-0.000476378,-0.00401575 -0.000732283,-0.00811024 -0.000732283,-0.0122559 0,-0.0568701 0.0461063,-0.102972 0.102972,-0.102972l2.54113 0 0 3.93701e-006c0.00291339,3.93701e-006 0.00585433,0.000122047 0.00881496,0.000374016 0.0566614,0.00487008 0.0986457,0.054752 0.0937756,0.111409l-5.11811e-005 -3.93701e-006 -0.163035 1.897c-0.0144882,0.168563 -0.0587402,0.324839 -0.126732,0.437854 -0.0738346,0.122728 -0.175992,0.198772 -0.301972,0.198772z"/>
  <path class="fil0" d="M3.08204 5.76739l0.662602 0c0.018748,0 -0.0202205,-0.0271102 -0.00906693,-0.0708543 0.0238307,-0.0934173 0.0394724,-0.226228 0.0447795,-0.371894l0.0652598 -1.79077 -0.864547 0 0.0652559 1.79077c0.00530709,0.145661 0.0209528,0.278469 0.0447795,0.37189 0.0111575,0.043748 -0.027811,0.0708583 -0.00906299,0.0708583zm0.662602 0.205945l-0.662602 0c-0.0916969,0 -0.154831,-0.0865039 -0.190445,-0.226118 -0.0269173,-0.105539 -0.0445276,-0.253823 -0.0504094,-0.415335l-0.0688346 -1.88889c-0.000464567,-0.0039685 -0.000708661,-0.008 -0.000708661,-0.0120945 0,-0.0568701 0.0461024,-0.102972 0.102972,-0.102972l1.07745 0 0 3.93701e-006c0.00124803,0 0.00249606,1.5748e-005 0.00375197,6.29921e-005 0.0568307,0.00207087 0.101224,0.0498268 0.0991535,0.106657l-0.000338583 -1.1811e-005 -0.0691417 1.89724c-0.00588189,0.16152 -0.0234882,0.309811 -0.0504094,0.415339 -0.0356063,0.13961 -0.0987362,0.226114 -0.190441,0.226114z"/>
  <path class="fil5" d="M2.04832 3.53387l-0.419059 0 0.229051 1.78152c0.0170984,0.132996 0.0669134,0.253614 0.142587,0.337701 0.0635118,0.0705669 0.14637,0.114299 0.243535,0.114299l0.081311 0c-0.0655866,-0.112409 -0.108299,-0.265661 -0.12248,-0.430681l-0.154945 -1.80283z"/>
  <path class="fil5" d="M2.25492 3.53387l0.153484 1.78594c0.0119173,0.138622 0.0460748,0.263437 0.0977756,0.349366 0.0364764,0.0606339 0.0797165,0.0982087 0.125791,0.0982087l0.265059 0c-0.00187795,-0.00659449 -0.00369291,-0.0133228 -0.00544094,-0.0201732 -0.0269173,-0.105539 -0.0445276,-0.253823 -0.0504094,-0.415335l-0.0655236 -1.798 -0.520736 -1.1811e-005z"/>
  <path class="fil5" d="M2.98106 3.53387l0.0652559 1.79077c0.00530709,0.145661 0.0209528,0.278469 0.0447795,0.37189 0.0111575,0.043748 -0.027811,0.0708583 -0.00906299,0.0708583l0.662602 0c0.018748,0 -0.0202205,-0.0271102 -0.00906693,-0.0708543 0.0238307,-0.0934173 0.0394724,-0.226228 0.0447795,-0.371894l0.0652598 -1.79077 -0.864547 0z"/>
  <path class="fil5" d="M4.05101 3.53387l-0.0655236 1.79801c-0.00588189,0.16152 -0.0234882,0.309811 -0.0504094,0.415339 -0.00174803,0.00685039 -0.00356299,0.0135748 -0.00544094,0.0201693l0.265059 0c0.0460748,0 0.089315,-0.0375748 0.125791,-0.0982087 0.0517008,-0.0859291 0.0858583,-0.21074 0.0977756,-0.349366l0.153484 -1.78594 -0.520736 0z"/>
  <path class="fil5" d="M4.77834 3.53387l-0.154941 1.80283c-0.014185,0.165024 -0.0568976,0.318272 -0.12248,0.430681l0.081311 0c0.0971693,0 0.180028,-0.0437323 0.243539,-0.114299 0.0756732,-0.0840827 0.125484,-0.204701 0.142583,-0.337701l0.229051 -1.78152 -0.419063 0z"/>
 </g>
 <rect class="fil6" width="6.82666" height="6.82666"/>
</svg>
