<?xml version="1.0" encoding="UTF-8"?>
<!DOCTYPE svg PUBLIC "-//W3C//DTD SVG 1.1//EN" "http://www.w3.org/Graphics/SVG/1.1/DTD/svg11.dtd">
<!-- Creator: CorelDRAW -->
<svg xmlns="http://www.w3.org/2000/svg" xml:space="preserve" width="6.82666in" height="6.82666in" style="shape-rendering:geometricPrecision; text-rendering:geometricPrecision; image-rendering:optimizeQuality; fill-rule:evenodd; clip-rule:evenodd"
viewBox="0 0 6.82666 6.82666"
 xmlns:xlink="http://www.w3.org/1999/xlink">
 <defs>
  <style type="text/css">
   <![CDATA[
    .fil4 {fill:none}
    .fil1 {fill:#333333}
    .fil3 {fill:#63CBE5}
    .fil0 {fill:#FFEDDF}
    .fil2 {fill:#333333;fill-rule:nonzero}
   ]]>
  </style>
 </defs>
 <g id="Layer_x0020_1">
  <metadata id="CorelCorpID_0Corel-Layer"/>
  <path class="fil0" d="M1.28004 4.64774c0,0.221106 0.0905276,0.422189 0.236378,0.568039 0.14585,0.14585 0.346933,0.236378 0.568039,0.236378l2.68158 0c0.221106,0 0.422189,-0.0905276 0.568039,-0.236378 0.14585,-0.14585 0.236378,-0.346933 0.236378,-0.568039l0 -0.804417 -4.29042 0 0 0.804417z"/>
  <path class="fil1" d="M3.35464 5.13671c0.0122598,-0.135681 0.121614,-0.243339 0.258047,-0.252945l0 -0.00142913c-0.140138,-0.0098622 -0.251717,-0.123173 -0.258843,-0.264047l-0.00073622 0c-0.00712598,0.140874 -0.118705,0.254185 -0.258843,0.264055l0 0.00142913c0.136433,0.00960236 0.245787,0.117256 0.258055,0.252937l0.0023189 0z"/>
  <path class="fil2" d="M2.03463 5.82328c0,0.0589094 0.0477598,0.106669 0.106669,0.106669 0.0589094,0 0.106669,-0.0477598 0.106669,-0.106669l0 -0.264449c0,-0.0589094 -0.0477598,-0.106669 -0.106669,-0.106669 -0.0589094,0 -0.106669,0.0477598 -0.106669,0.106669l0 0.264449z"/>
  <path class="fil2" d="M4.60251 5.82328c0,0.0589094 0.0477598,0.106669 0.106669,0.106669 0.0589094,0 0.106669,-0.0477598 0.106669,-0.106669l0 -0.264449c0,-0.0589094 -0.0477598,-0.106669 -0.106669,-0.106669 -0.0589094,0 -0.106669,0.0477598 -0.106669,0.106669l0 0.264449z"/>
  <path class="fil2" d="M2.08445 5.45216l2.68158 0c0.221106,0 0.422189,-0.0905276 0.568039,-0.236378 0.14585,-0.14585 0.236378,-0.346933 0.236378,-0.568039l0 -0.804417 -4.29042 0 0 0.804417c0,0.221106 0.0905276,0.422189 0.236378,0.568039 0.14585,0.14585 0.346933,0.236378 0.568039,0.236378zm2.68158 0.213339l-2.68158 0c-0.279992,0 -0.534461,-0.114469 -0.718874,-0.298882 -0.184413,-0.184413 -0.298882,-0.438882 -0.298882,-0.718874l0 -0.911087c0,-0.0589094 0.0477598,-0.106669 0.106669,-0.106669l4.50376 0c0.0589094,0 0.106669,0.0477598 0.106669,0.106669l0 0.911087c0,0.279992 -0.114469,0.534461 -0.298882,0.718874 -0.184413,0.184413 -0.438882,0.298882 -0.718874,0.298882z"/>
  <path class="fil2" d="M0.96 3.62999c-0.0589094,0 -0.106669,0.0477598 -0.106669,0.106669 0,0.0589094 0.0477598,0.106669 0.106669,0.106669l4.90666 0c0.0589094,0 0.106669,-0.0477598 0.106669,-0.106669 0,-0.0589094 -0.0477598,-0.106669 -0.106669,-0.106669l-4.90666 0z"/>
  <path class="fil1" d="M4.42877 4.72544c0.0172244,-0.190657 0.17089,-0.341933 0.362602,-0.355437l0 -0.00200394c-0.196917,-0.0138622 -0.353709,-0.173083 -0.36372,-0.371035l-0.00103543 0c-0.0100157,0.197953 -0.166803,0.357177 -0.36372,0.371043l0 0.00200787c0.191713,0.0134921 0.345378,0.164768 0.36261,0.355425l0.00326378 0z"/>
  <path class="fil2" d="M2.98264 2.57698l-0.464079 0c-0.0589094,0 -0.106669,-0.0477598 -0.106669,-0.106669 0,-0.157594 0.0638898,-0.300283 0.167177,-0.403571 0.103287,-0.103287 0.245976,-0.167177 0.403571,-0.167177 0.157591,0 0.30028,0.0638898 0.403567,0.167177 0.103287,0.103287 0.167177,0.245976 0.167177,0.403571 0,0.0589094 -0.0477598,0.106669 -0.106669,0.106669l-0.464075 0zm-0.341224 -0.213339l0.341224 0 0.34122 0c-0.0174252,-0.055811 -0.0481614,-0.10574 -0.0884882,-0.146067 -0.0646693,-0.0646693 -0.154028,-0.104673 -0.252732,-0.104673 -0.0987087,0 -0.188067,0.0400039 -0.252736,0.104673 -0.0403268,0.0403268 -0.071063,0.0902559 -0.0884882,0.146067z"/>
  <path class="fil2" d="M2.88876 1.91448c0,0.0589094 0.0477598,0.106669 0.106669,0.106669 0.0589094,0 0.106669,-0.0477598 0.106669,-0.106669 0,-0.279992 -0.114469,-0.534461 -0.298882,-0.718878 -0.184413,-0.184413 -0.438882,-0.298882 -0.71887,-0.298882l-3.93701e-006 0c-0.279992,0 -0.534465,0.114469 -0.718878,0.298882 -0.184413,0.184417 -0.298882,0.438886 -0.298882,0.718878l0 2.47294c0,0.0589094 0.0477598,0.106669 0.106669,0.106669 0.0589094,0 0.106669,-0.0477598 0.106669,-0.106669l0 -2.47294c0,-0.221106 0.0905315,-0.422193 0.236378,-0.568043 0.14585,-0.14585 0.346937,-0.236378 0.568043,-0.236378l3.93701e-006 0c0.221102,0 0.422185,0.0905276 0.568035,0.236378 0.145846,0.14585 0.236378,0.346937 0.236378,0.568043z"/>
  <path class="fil3" d="M2.7299 2.21757c-0.0403268,0.0403268 -0.071063,0.0902559 -0.0884882,0.146067l0.341224 0 0.34122 0c-0.0174252,-0.055811 -0.0481614,-0.10574 -0.0884882,-0.146067 -0.0646693,-0.0646693 -0.154028,-0.104673 -0.252732,-0.104673 -0.0987087,0 -0.188067,0.0400039 -0.252736,0.104673z"/>
 </g>
 <rect class="fil4" width="6.82666" height="6.82666"/>
</svg>
