<?xml version="1.0" encoding="UTF-8"?>
<!DOCTYPE svg PUBLIC "-//W3C//DTD SVG 1.1//EN" "http://www.w3.org/Graphics/SVG/1.1/DTD/svg11.dtd">
<!-- Creator: CorelDRAW -->
<svg xmlns="http://www.w3.org/2000/svg" xml:space="preserve" width="6.82666in" height="6.82666in" style="shape-rendering:geometricPrecision; text-rendering:geometricPrecision; image-rendering:optimizeQuality; fill-rule:evenodd; clip-rule:evenodd"
viewBox="0 0 6.82666 6.82666"
 xmlns:xlink="http://www.w3.org/1999/xlink">
 <defs>
  <style type="text/css">
   <![CDATA[
    .fil3 {fill:none}
    .fil1 {fill:#B38E85}
    .fil2 {fill:#FECA5F}
    .fil0 {fill:#333333;fill-rule:nonzero}
   ]]>
  </style>
 </defs>
 <g id="Layer_x0020_1">
  <metadata id="CorelCorpID_0Corel-Layer"/>
  <path class="fil0" d="M2.89222 3.38128c0.104283,0.157449 0.260449,0.421075 0.414016,0.785213 0.171504,0.406661 0.339724,0.938717 0.428063,1.58744 0.221319,-0.0240433 0.798201,-0.139843 1.3135,-0.69778l-2.75591e-005 -0.000287402c0.0033189,-0.00359055 0.00682677,-0.00689764 0.0104961,-0.00992913 0.554256,-0.514287 0.669567,-1.08878 0.693563,-1.30953 -0.648724,-0.0883346 -1.18078,-0.256555 -1.58744,-0.428059 -0.364142,-0.153567 -0.627764,-0.309732 -0.785217,-0.414016l-0.243476 0.243476 -0.243476 0.243476zm0.218181 0.867717c-0.170453,-0.404177 -0.344157,-0.678374 -0.439346,-0.81426 -0.0334843,-0.041878 -0.0308346,-0.103142 0.00796457,-0.141941l7.87402e-006 7.87402e-006 0.305835 -0.305835 0.304272 -0.304272c0.0358583,-0.0374685 0.0946811,-0.0441299 0.138382,-0.0133661l-0.000114173 0.000161417c0.13402,0.0943504 0.410079,0.270358 0.819492,0.443016 0.410539,0.173138 0.955173,0.342965 1.626,0.42461 0.0552559,0.00435433 0.0985551,0.0507598 0.0981732,0.107055l-0.000413386 -3.93701e-006c-1.1811e-005,0.0132835 -0.0022126,0.848618 -0.769224,1.55937 -0.669339,0.722315 -1.44923,0.766362 -1.54894,0.769047 -0.057815,0.00608661 -0.110024,-0.0353346 -0.117035,-0.093252l5.90551e-005 -0.000322835c-0.0814646,-0.672673 -0.251626,-1.21865 -0.42511,-1.63001z"/>
  <path class="fil0" d="M5.60196 4.54506c0.0579882,0.00943307 0.11265,-0.0299291 0.122083,-0.0879173 0.00943307,-0.0579882 -0.0299291,-0.11265 -0.0879173,-0.122083 -0.731705,-0.121283 -1.38065,-0.593232 -1.55122,-0.717287l-0.00935433 -0.00679921c-0.0476339,-0.0345157 -0.114236,-0.0238819 -0.148752,0.023752 -0.0345157,0.0476339 -0.0238819,0.114236 0.023752,0.148752l0.00935433 0.00679921c0.178894,0.130106 0.859488,0.625071 1.64206,0.754783zm-1.8303 -0.582689c-0.0345157,-0.0476339 -0.101118,-0.0582677 -0.148752,-0.023752 -0.0476339,0.0345157 -0.0582677,0.101118 -0.023752,0.148752l0.00679921 0.00935433c0.124055,0.170575 0.596004,0.819516 0.717291,1.55122 0.00943307,0.0579882 0.0640945,0.0973504 0.122083,0.0879173 0.0579882,-0.00943307 0.0973504,-0.0640945 0.0879173,-0.122083 -0.129717,-0.782571 -0.624685,-1.46316 -0.754787,-1.64205l-0.00679921 -0.00935433z"/>
  <path class="fil0" d="M2.75455 3.21728l0.460622 -0.460622 -0.0323228 -0.0323268c-0.0632362,-0.0632362 -0.146736,-0.0948622 -0.230311,-0.0948622 -0.0835709,0 -0.167071,0.031626 -0.230307,0.0948622l-3.93701e-006 3.93701e-006c-0.0632362,0.0632362 -0.0948622,0.146736 -0.0948622,0.230307 0,0.0835748 0.031626,0.167075 0.0948622,0.230311l0.0323228 0.0323268zm0.686874 -0.385205l-0.610858 0.610858 -0.000590551 0.000606299c-0.0416535,0.0416535 -0.109197,0.0416535 -0.15085,0l7.87402e-006 -7.87402e-006 -0.10774 -0.107744c-0.104906,-0.104906 -0.157366,-0.243071 -0.157366,-0.381146 0,-0.138071 0.0524606,-0.276236 0.157366,-0.381142l3.93701e-006 -3.93701e-006c0.104906,-0.104906 0.243071,-0.157366 0.381142,-0.157366 0.138075,0 0.27624,0.0524606 0.381146,0.157366l0.107142 0.107146 0.000606299 0.000590551c0.0416535,0.0416535 0.0416535,0.109197 0,0.15085l-7.87402e-006 -7.87402e-006z"/>
  <path class="fil0" d="M1.03737 0.88485c-0.0414213,-0.0416496 -0.108768,-0.0418386 -0.150417,-0.000417323 -0.0416496,0.0414213 -0.0418386,0.108768 -0.000417323,0.150417l1.68315 1.69156c0.0414213,0.0416496 0.108768,0.0418386 0.150417,0.000417323 0.0416496,-0.0414213 0.0418386,-0.108768 0.000417323,-0.150417l-1.68315 -1.69156z"/>
  <path class="fil1" d="M2.89222 3.38128c0.104283,0.157449 0.260449,0.421075 0.414016,0.785213 0.171504,0.406661 0.339724,0.938717 0.428063,1.58744 0.115665,-0.0125669 0.328445,-0.0501929 0.578791,-0.162894 -0.135437,-0.70822 -0.586299,-1.32817 -0.70713,-1.49431l-0.00679921 -0.00935433c-0.0345157,-0.0476339 -0.0238819,-0.114236 0.023752,-0.148752 0.0476339,-0.0345157 0.114236,-0.0238819 0.148752,0.023752l0.00679921 0.00935433c0.123197,0.169398 0.573567,0.788657 0.731161,1.51839 0.175299,-0.101626 0.360398,-0.241484 0.538169,-0.433965l-2.75591e-005 -0.000287402c0.0033189,-0.00359055 0.00682677,-0.00689764 0.0104961,-0.00992913 0.186465,-0.173016 0.323248,-0.35285 0.423591,-0.523732 -0.731264,-0.156894 -1.35227,-0.60852 -1.52194,-0.731921l-0.00935433 -0.00679921c-0.0476339,-0.0345157 -0.0582677,-0.101118 -0.023752,-0.148752 0.0345157,-0.0476339 0.101118,-0.0582677 0.148752,-0.023752l0.00935433 0.00679921c0.16652,0.121106 0.788921,0.573752 1.49916,0.708047 0.116469,-0.254949 0.155,-0.472126 0.167752,-0.589421 -0.648724,-0.0883346 -1.18078,-0.256555 -1.58744,-0.428059 -0.364142,-0.153567 -0.627764,-0.309732 -0.785217,-0.414016l-0.243476 0.243476 -0.243476 0.243476z"/>
  <path class="fil2" d="M2.71618 2.73054c-0.0592087,0.062437 -0.0888189,0.143236 -0.0888189,0.224098 0,0.0835748 0.031626,0.167075 0.0948622,0.230311l0.0323228 0.0323268 0.230311 -0.230311 0.230311 -0.230311 -0.0323228 -0.0323268c-0.0632362,-0.0632362 -0.146736,-0.0948622 -0.230311,-0.0948622 -0.0822598,0 -0.164457,0.0306417 -0.227319,0.0919134 -0.00162992,0.0018622 -0.00333465,0.00367717 -0.00511417,0.00544882 -0.00128346,0.00127559 -0.00259055,0.00251181 -0.00392126,0.0037126z"/>
 </g>
 <rect class="fil3" width="6.82666" height="6.82666"/>
</svg>
