<?xml version="1.0" encoding="UTF-8"?>
<!DOCTYPE svg PUBLIC "-//W3C//DTD SVG 1.1//EN" "http://www.w3.org/Graphics/SVG/1.1/DTD/svg11.dtd">
<!-- Creator: CorelDRAW -->
<svg xmlns="http://www.w3.org/2000/svg" xml:space="preserve" width="6.82666in" height="6.82666in" style="shape-rendering:geometricPrecision; text-rendering:geometricPrecision; image-rendering:optimizeQuality; fill-rule:evenodd; clip-rule:evenodd"
viewBox="0 0 6.82666 6.82666"
 xmlns:xlink="http://www.w3.org/1999/xlink">
 <defs>
  <style type="text/css">
   <![CDATA[
    .fil4 {fill:none}
    .fil2 {fill:#B38E85}
    .fil3 {fill:#FECA5F}
    .fil1 {fill:#FFD3B3}
    .fil0 {fill:#333333;fill-rule:nonzero}
   ]]>
  </style>
 </defs>
 <g id="Layer_x0020_1">
  <metadata id="CorelCorpID_0Corel-Layer"/>
  <path class="fil0" d="M3.59764 0.853331c0.161189,0 0.307138,0.0653465 0.412787,0.170992 0.105638,0.105642 0.170992,0.251591 0.170992,0.41278 0,0.161189 -0.0653465,0.307138 -0.170992,0.412783 -0.10565,0.105642 -0.251591,0.170992 -0.412787,0.170992 -0.161185,0 -0.307138,-0.0653504 -0.41278,-0.170992 -0.105646,-0.105646 -0.170992,-0.251594 -0.170992,-0.412783 0,-0.161189 0.0653465,-0.307138 0.170992,-0.41278 0.105642,-0.105646 0.251594,-0.170992 0.41278,-0.170992zm0.258146 0.325634c-0.0660551,-0.0660551 -0.157327,-0.106909 -0.258146,-0.106909 -0.100819,0 -0.192087,0.0408583 -0.258138,0.106909 -0.0660512,0.0660512 -0.106909,0.157323 -0.106909,0.258138 0,0.100819 0.0408543,0.192087 0.106909,0.258142 0.0660512,0.0660512 0.157323,0.106913 0.258138,0.106913 0.100819,0 0.192094,-0.0408622 0.258146,-0.106913 0.0660551,-0.0660551 0.106909,-0.157323 0.106909,-0.258142 0,-0.100815 -0.0408583,-0.192087 -0.106909,-0.258138z"/>
  <path class="fil0" d="M1.37025 3.28691c-0.0171811,0.0559094 0.00101969,0.0999803 0.0335906,0.126228 0.0144567,0.0116535 0.0314803,0.0204961 0.0496142,0.0260669 0.0178189,0.00547244 0.0369331,0.00764961 0.0559409,0.00608661 0.0415827,-0.00341339 0.0812953,-0.0295906 0.0984409,-0.0853622 0.000535433,-0.00174409 0.160705,-0.388051 0.420583,-0.647142 0.139594,-0.139169 0.309626,-0.245957 0.505559,-0.253126l-1.5748e-005 -0.000358268c0.0603583,-0.00219685 0.111071,0.0449567 0.113268,0.105311 0.000807087,0.022189 -0.00506299,0.0430709 -0.0157992,0.0607205l-0.582736 1.13244c-0.0661575,0.246394 -0.0914449,0.893205 -0.110827,1.38908 -0.00756299,0.193587 -0.0142638,0.364906 -0.0217283,0.477063l0.000185039 0.000429134c-0.000106299,0.00161024 -0.000255906,0.00320472 -0.000429134,0.00479528 -0.00248425,0.0561063 0.0247756,0.0935433 0.0615157,0.111323 0.0165197,0.00799213 0.0351417,0.0127283 0.0543346,0.0140787 0.0193268,0.00136614 0.0383701,-0.000661417 0.0555984,-0.00617323 0.0399764,-0.0127913 0.0729528,-0.0474803 0.0770866,-0.106071l2.75591e-005 3.93701e-006 0 -3.93701e-006 -0.000181102 -1.1811e-005c0.000149606,-0.00209843 0.000358268,-0.00417717 0.000622047,-0.00624016 0.0152756,-0.21502 0.0689488,-0.547299 0.130331,-0.845799 0.0625039,-0.303937 0.135091,-0.577591 0.186496,-0.666795l-0.000346457 -0.000346457c0.0301496,-0.0523268 0.0970236,-0.0703071 0.149354,-0.0401535 0.0258268,0.0148819 0.0432795,0.0387087 0.0507165,0.0653189l0.516815 1.37854c0.0068937,0.0183858 0.0140315,0.0405472 0.0243189,0.0577126 0.0232874,0.0388504 0.0591535,0.0555866 0.095,0.0555472 0.018122,-1.5748e-005 0.0368465,-0.00389764 0.0547441,-0.0110709 0.0176614,-0.0070748 0.0338937,-0.0172874 0.0472835,-0.0300512 0.0302953,-0.028874 0.0447913,-0.0743346 0.0230157,-0.128657l-0.51252 -1.2813 -0.000291339 3.14961e-005c-0.0109331,-0.0273268 -0.0100551,-0.0564488 0.000204724,-0.0817244 0.0417283,-0.136835 0.10124,-0.335689 0.162913,-0.543102 0.0847047,-0.284886 0.162756,-0.549917 0.203673,-0.690185l-0.000322835 -0.000299213c0.0169134,-0.0579803 0.0776339,-0.0912677 0.13561,-0.0743543 0.0140276,0.00409449 0.0265945,0.010748 0.037374,0.019311 0.19063,0.139197 0.297917,0.393583 0.324921,0.680043 0.0273031,0.289598 -0.027,0.616378 -0.159965,0.886504l0.000244094 0.000122047c-0.00432283,0.00877953 -0.00967323,0.0167165 -0.0158189,0.023748 -0.0314409,0.0443898 -0.0291339,0.0896969 -0.00867717,0.124343 0.00949606,0.0160827 0.0222835,0.0303268 0.0371693,0.0418268 0.014748,0.0113898 0.0317402,0.0201142 0.0497953,0.0252638 0.0385472,0.0109921 0.0827244,0.00197244 0.117598,-0.0390236 0.156579,-0.295366 0.244039,-0.604165 0.252457,-0.90063 0.00806299,-0.28385 -0.0566496,-0.556764 -0.202984,-0.795472 -0.217091,-0.354126 -0.553539,-0.629504 -0.916437,-0.740925 -0.145583,-0.0446969 -0.295154,-0.0627323 -0.442402,-0.0484094 -0.145575,0.0141654 -0.289827,0.060378 -0.426681,0.144272 -0.285028,0.174732 -0.538409,0.513449 -0.70824,1.06657zm-0.103106 0.296248c-0.0972362,-0.0783701 -0.153091,-0.205028 -0.105358,-0.360331 0.187031,-0.609134 0.47513,-0.987709 0.803075,-1.18875 0.165748,-0.101606 0.341547,-0.157685 0.519807,-0.175024 0.176591,-0.0171811 0.354697,0.00405906 0.526984,0.0569567 0.413177,0.126858 0.794445,0.437457 1.03861,0.835752 0.169047,0.27576 0.243839,0.589642 0.234598,0.915087 -0.00938976,0.330598 -0.105846,0.672705 -0.278409,0.997768 -0.00359843,0.00853543 -0.00833858,0.0167598 -0.0142717,0.0244409l-0.00026378 -0.000200787c-0.0993071,0.128594 -0.23485,0.156039 -0.354783,0.121839 -0.0442638,-0.0126299 -0.0863307,-0.0343228 -0.123272,-0.0628583 -0.0368071,-0.0284213 -0.0683898,-0.0636142 -0.0918504,-0.103343 -0.061811,-0.104677 -0.070752,-0.238453 0.0206063,-0.364134 0.112323,-0.232583 0.158004,-0.5125 0.134563,-0.761142 -0.0146575,-0.155457 -0.0560197,-0.296732 -0.124567,-0.402476 -0.0442756,0.150776 -0.098437,0.334319 -0.150366,0.508972 -0.0518858,0.174496 -0.106642,0.357217 -0.155469,0.517579l0.498335 1.24584c0.0604567,0.150827 0.0152795,0.281705 -0.0751299,0.367878 -0.0335472,0.0319685 -0.0735079,0.0572638 -0.116496,0.0744843 -0.042752,0.0171378 -0.0891811,0.0264055 -0.135906,0.0264528 -0.122398,0.00011811 -0.243012,-0.0608504 -0.30461,-0.205323 -0.00175591,-0.00349213 -0.00334646,-0.00711417 -0.00475197,-0.0108583l0.00030315 -0.000370079 -0.425673 -1.13542c-0.0241535,0.0959685 -0.0495512,0.20878 -0.0740354,0.327846 -0.0594921,0.289315 -0.111461,0.610709 -0.126106,0.817551 -2.75591e-005,0.00209843 -0.000110236,0.00420079 -0.000259843,0.00631496l-0.000153543 -1.1811e-005c-0.0114409,0.162138 -0.109268,0.260209 -0.228311,0.298311 -0.0446142,0.0142717 -0.0916929,0.0196654 -0.137618,0.0164213 -0.0460551,-0.00324803 -0.0918701,-0.0151496 -0.133795,-0.035437 -0.106575,-0.0515669 -0.186764,-0.153693 -0.185327,-0.302008 0.000251969,-0.0280118 0.00316142,-0.0575079 0.00473622,-0.0853819 0.00637795,-0.112736 0.0119094,-0.254016 0.0180197,-0.410421 0.0199685,-0.510894 0.0460551,-1.17805 0.119386,-1.44437 0.00199606,-0.00890551 0.00514567,-0.0177047 0.00951575,-0.0261969l0.000271654 5.90551e-005 0.470378 -0.914098c-0.0483307,0.031185 -0.094311,0.0699606 -0.137346,0.112866 -0.228421,0.227732 -0.365457,0.555114 -0.365909,0.556583 -0.0477756,0.155433 -0.165236,0.228913 -0.289811,0.239146 -0.0456063,0.00374803 -0.0924803,-0.00177559 -0.13711,-0.0154921 -0.0443031,-0.0136102 -0.0862165,-0.0354803 -0.122232,-0.0645079z"/>
  <path class="fil0" d="M1.76418 3.29628c-0.0528465,-0.0287835 -0.119024,-0.00927559 -0.147807,0.0435748 -0.0287835,0.0528465 -0.00927559,0.119024 0.0435709,0.147807l1.79998 0.983799c0.0528504,0.0287835 0.119028,0.00927559 0.147811,-0.0435709 0.0287835,-0.0528504 0.00927559,-0.119024 -0.0435748,-0.147807l-1.79998 -0.983803zm2.2076 1.2125c-0.0528504,-0.0290197 -0.11922,-0.00970472 -0.148236,0.0431417 -0.0290157,0.0528504 -0.00970472,0.11922 0.0431457,0.148236l0.488236 0.268217c0.0528465,0.0290197 0.119217,0.00970472 0.148236,-0.0431417 0.0290157,-0.0528504 0.00970079,-0.11922 -0.0431457,-0.148236l-0.488236 -0.268217z"/>
  <path class="fil0" d="M4.64025 4.84111l-0.338429 0.240406c0.166862,0.207665 0.335886,0.228579 0.535465,0.253232 0.180756,0.0223307 0.382646,0.0472913 0.626776,0.181665 -0.00640157,-0.404291 -0.0666772,-0.473732 -0.152819,-0.475374 -0.0269016,-0.000515748 -0.0614606,0.00315748 -0.0977441,0.00701181 -0.172835,0.0183622 -0.376287,0.0399173 -0.573248,-0.206941zm-0.499098 0.0870118l0.455087 -0.323276c0.00370079,-0.00307087 0.0076378,-0.00593701 0.0118228,-0.00856299 0.0511614,-0.0320984 0.118661,-0.0166417 0.15076,0.0345197l-0.000275591 0.000169291c0.144728,0.230567 0.301185,0.213953 0.431882,0.200071 0.0418465,-0.00444882 0.0817087,-0.0086811 0.124232,-0.00787402 0.22815,0.00435827 0.379953,0.124693 0.366764,0.882949 0.00174803,0.0245315 -0.00472441,0.0497874 -0.0201457,0.0713465 -0.0351417,0.0491181 -0.103453,0.0604449 -0.152571,0.0253071l0.000177165 -0.000251969c-0.278035,-0.198862 -0.502091,-0.226551 -0.698087,-0.25076 -0.248197,-0.0306654 -0.458244,-0.0566181 -0.681791,-0.336791 -0.0109724,-0.013752 -0.0191378,-0.0232835 -0.0260276,-0.0313425 -0.010563,-0.0123465 -0.0190197,-0.0222283 -0.0269724,-0.0334331 -0.0759409,-0.106941 -0.0569921,-0.135327 0.0651457,-0.222071z"/>
  <path class="fil1" d="M3.23259 1.4371c0,0.100819 0.0408543,0.192087 0.106909,0.258142 0.0660512,0.0660512 0.157323,0.106913 0.258138,0.106913 0.100819,0 0.192094,-0.0408622 0.258146,-0.106913 0.0660551,-0.0660551 0.106909,-0.157323 0.106909,-0.258142 0,-0.100815 -0.0408583,-0.192087 -0.106909,-0.258138 -0.0660551,-0.0660551 -0.157327,-0.106909 -0.258146,-0.106909 -0.100819,0 -0.192087,0.0408583 -0.258138,0.106909 -0.0660512,0.0660512 -0.106909,0.157323 -0.106909,0.258138z"/>
  <path class="fil2" d="M4.46626 4.9647l-0.164441 0.116811c0.166862,0.207665 0.335886,0.228579 0.535465,0.253232 0.180756,0.0223307 0.382646,0.0472913 0.626776,0.181665 -0.00640157,-0.404291 -0.0666772,-0.473732 -0.152819,-0.475374 -0.0269016,-0.000515748 -0.0614606,0.00315748 -0.0977441,0.00701181 -0.172835,0.0183622 -0.376287,0.0399173 -0.573248,-0.206941l-0.165122 0.117295c-0.00285827,0.00225591 -0.0058189,0.00435433 -0.00886614,0.00629921z"/>
  <path class="fil3" d="M2.63143 2.62534l-0.459843 0.893618 0.803587 0.439209c0.0349961,-0.116213 0.075878,-0.253114 0.11776,-0.393961 0.0847047,-0.284886 0.162756,-0.549917 0.203673,-0.690185l-0.000322835 -0.000299213c0.0209921,-0.0719606 0.108071,-0.104492 0.172984,-0.0550433 0.19063,0.139197 0.297917,0.393583 0.324921,0.680043 0.0273031,0.289598 -0.027,0.616378 -0.159965,0.886504l0.000244094 0.000122047c-0.00432283,0.00877953 -0.00967323,0.0167165 -0.0158189,0.023748 -0.00250787,0.00354331 -0.00480315,0.00709055 -0.00688976,0.0106417 -0.00121654,0.00274803 -0.00255512,0.0054685 -0.00401969,0.00815748 -0.000807087,0.00148031 -0.00164173,0.00293307 -0.00250394,0.00435827 -0.0166772,0.0366496 -0.0121654,0.0725591 0.00473622,0.101185 0.0190039,0.0321811 0.0508976,0.0568031 0.0869646,0.0670906 0.0385472,0.0109921 0.0827244,0.00197244 0.117598,-0.0390236 0.156579,-0.295366 0.244039,-0.604165 0.252457,-0.90063 0.00806299,-0.28385 -0.0566496,-0.556764 -0.202984,-0.795472 -0.217091,-0.354126 -0.553539,-0.629504 -0.916437,-0.740925 -0.295921,-0.0908543 -0.599071,-0.0696614 -0.869083,0.0958622 -0.285028,0.174732 -0.538409,0.513449 -0.70824,1.06657 -0.0171811,0.0559094 0.00101969,0.0999803 0.0335906,0.126228 0.0618425,0.0498425 0.172028,0.0508465 0.203996,-0.0532087 1.1811e-005,-3.93701e-005 0.000106299,-0.000279528 0.000287402,-0.000716535 0.00208268,-0.00658661 0.00482677,-0.0130669 0.00825197,-0.0193583 0.000137795,-0.000255906 0.000275591,-0.000507874 0.000417323,-0.000759843 0.0370748,-0.0838189 0.187157,-0.40252 0.411626,-0.626307 0.139594,-0.139169 0.309626,-0.245957 0.505559,-0.253126l-1.5748e-005 -0.000358268c0.0805551,-0.00293307 0.144134,0.0827795 0.0974685,0.166031z"/>
  <path class="fil3" d="M2.16446 5.64231l0 0zm-0.115764 -1.88453c-0.0661575,0.246394 -0.0914449,0.893205 -0.110827,1.38908 -0.00756299,0.193587 -0.0142638,0.364906 -0.0217283,0.477063l-0.000244094 0.00522441c-0.00248425,0.0561063 0.0247756,0.0935433 0.0615157,0.111323 0.0710984,0.0344016 0.179268,0.011685 0.187047,-0.0981654l-0.000181102 -1.1811e-005c0.0155787,-0.218512 0.0688937,-0.55026 0.130953,-0.852039 0.0625039,-0.303937 0.135091,-0.577591 0.186496,-0.666795l-0.000346457 -0.000346457c0.0301496,-0.0523268 0.0970236,-0.0703071 0.149354,-0.0401535 0.0258268,0.0148819 0.0432795,0.0387087 0.0507165,0.0653189l0.516815 1.37854c0.0068937,0.0183858 0.0140315,0.0405472 0.0243189,0.0577126 0.0470039,0.0784213 0.144417,0.0645709 0.197028,0.0144252 0.0302953,-0.028874 0.0447913,-0.0743346 0.0230157,-0.128657l-0.51252 -1.2813 -0.000291339 3.14961e-005c-0.00119685,-0.00299213 -0.00225591,-0.00600787 -0.00317323,-0.00903937l-0.854799 -0.467201 -0.0231496 0.0449882z"/>
 </g>
 <rect class="fil4" width="6.82666" height="6.82666"/>
</svg>
