<?xml version="1.0" encoding="UTF-8"?>
<!DOCTYPE svg PUBLIC "-//W3C//DTD SVG 1.1//EN" "http://www.w3.org/Graphics/SVG/1.1/DTD/svg11.dtd">
<!-- Creator: CorelDRAW -->
<svg xmlns="http://www.w3.org/2000/svg" xml:space="preserve" width="6.82666in" height="6.82666in" style="shape-rendering:geometricPrecision; text-rendering:geometricPrecision; image-rendering:optimizeQuality; fill-rule:evenodd; clip-rule:evenodd"
viewBox="0 0 6.82666 6.82666"
 xmlns:xlink="http://www.w3.org/1999/xlink">
 <defs>
  <style type="text/css">
   <![CDATA[
    .fil3 {fill:none}
    .fil0 {fill:#9DD5C0}
    .fil2 {fill:#FFD3B3}
    .fil1 {fill:#333333;fill-rule:nonzero}
   ]]>
  </style>
 </defs>
 <g id="Layer_x0020_1">
  <metadata id="CorelCorpID_0Corel-Layer"/>
  <g id="_442811400">
   <path id="_442811880" class="fil0" d="M1.795 2.5387c-0.288394,0.336961 -0.440933,0.787591 -0.501091,1.21046l-0.000177165 -2.75591e-005 -0.000122047 0.000866142 -7.08661e-005 -1.1811e-005 -0.000444882 0.00364567c-0.0241535,0.17126 0.051189,0.297248 0.161717,0.365524 0.0431732,0.0266693 0.0912795,0.0440039 0.140465,0.0512953 0.0493504,0.00731496 0.100488,0.00477165 0.149543,-0.00832283 0.127815,-0.034126 0.239386,-0.136606 0.266756,-0.318413l6.69291e-005 1.1811e-005c0.000275591,-0.00182677 0.0005,-0.00364567 0.000681102,-0.00546457 0.0325472,-0.218362 0.0652205,-0.396787 0.1125,-0.538937 0.00741339,-0.0222913 0.0152047,-0.0437441 0.0234291,-0.0643858 0.0313189,0.862469 0.0312165,1.64795 0.0311299,2.32168l-7.87402e-006 0.107028 -0.000417323 0c0,0.0882441 0.0404016,0.167382 0.105709,0.223969 0.0611063,0.0529567 0.144354,0.0857165 0.23524,0.0857165 0.0908858,0 0.174134,-0.0327598 0.23524,-0.0857165 0.0652638,-0.0565472 0.105654,-0.135618 0.105709,-0.223791l0.0809724 -1.26285 0.0817598 1.26185c7.48031e-005,0.0878425 0.0403268,0.166606 0.105343,0.222949 0.0608858,0.0527598 0.143827,0.0853976 0.234366,0.0853976 0.0905354,0 0.173472,-0.0326378 0.234358,-0.0853976 0.0650866,-0.0563898 0.105343,-0.135256 0.105343,-0.223201 0,-0.279976 -0.0139488,-0.603425 -0.0288583,-0.949197 -0.0215984,-0.500835 -0.0452362,-1.04941 -0.0300669,-1.60708 0.130402,0.0801457 0.299909,0.137083 0.485232,0.167075 0.194106,0.0314134 0.408075,0.0342244 0.612945,0.00383465l0 -0.215374 0 -0.295445 0 -0.215102c-0.0183504,0.0028622 -0.0372441,0.00584252 -0.0561063,0.0088189 -0.331862,0.0523661 -0.651106,0.10274 -0.905941,-0.17802 -0.127039,-0.139965 -0.277264,-0.240886 -0.443646,-0.302209 -0.167768,-0.0618307 -0.351197,-0.082878 -0.54302,-0.0625945 -0.436957,0.0462126 -0.762232,0.245335 -0.998535,0.521429zm0.00580315 1.27333l0 0z"/>
   <path id="_442810992" class="fil0" d="M4.95559 2.75722l0 0.252319c0.000527559,-0.000141732 0.00105118,-0.000275591 0.00157874,-0.000409449 0.0582008,-0.0203819 0.0886378,-0.0533504 0.0974449,-0.0883031 0.0046811,-0.0185787 0.00423622,-0.0381732 -0.000622047,-0.0570748 -0.00533465,-0.0207638 -0.0157559,-0.0409252 -0.0304409,-0.0586142 -0.0171535,-0.0206575 -0.0402047,-0.0375866 -0.0679606,-0.0479173z"/>
  </g>
  <g id="_442810560">
   <path id="_442811280" class="fil1" d="M2.95511 0.853327c0.158449,0 0.301909,0.0642323 0.40576,0.168083 0.10385,0.103846 0.168083,0.247311 0.168083,0.40576 0,0.158449 -0.0642362,0.301909 -0.168083,0.40576 -0.10385,0.103846 -0.247311,0.168083 -0.40576,0.168083 -0.158449,0 -0.301913,-0.0642402 -0.40576,-0.168083 -0.103846,-0.10385 -0.168083,-0.247315 -0.168083,-0.40576 0,-0.158449 0.0642402,-0.301913 0.168083,-0.40576 0.103846,-0.103843 0.247311,-0.168083 0.40576,-0.168083zm0.254925 0.318917c-0.0652283,-0.0652283 -0.155362,-0.105579 -0.254925,-0.105579 -0.099563,0 -0.189693,0.0403504 -0.254925,0.105579 -0.0652283,0.0652323 -0.105579,0.155362 -0.105579,0.254925 0,0.0995591 0.0403504,0.189693 0.105579,0.254925 0.0652323,0.0652283 0.155362,0.105579 0.254925,0.105579 0.099563,0 0.189693,-0.0403504 0.254925,-0.105579 0.0652283,-0.0652323 0.105579,-0.155362 0.105579,-0.254925 0,-0.099563 -0.0403504,-0.189701 -0.105579,-0.254925z"/>
   <path id="_442811064" class="fil1" d="M1.50416 3.7837c-0.0103504,0.0749843 0.0188504,0.127768 0.0623268,0.154622 0.0176417,0.0108976 0.0380866,0.0181024 0.0596299,0.0212953 0.0213701,0.00316535 0.0431693,0.00215748 0.0637087,-0.00332283 0.0521063,-0.0139094 0.0982362,-0.0599488 0.110925,-0.144276l5.90551e-005 7.87402e-006 7.87402e-006 -2.75591e-005 -0.000129921 -1.9685e-005c0.000255906,-0.00169291 0.000551181,-0.00336614 0.00088189,-0.0050315 0.033878,-0.227165 0.0687283,-0.415358 0.121591,-0.574291 0.0562008,-0.16898 0.131984,-0.301984 0.245874,-0.407181l-0.000145669 -0.00015748c0.0432835,-0.0399606 0.110772,-0.0372677 0.150732,0.00601575 0.0197717,0.0214173 0.0290945,0.0487598 0.0282323,0.0757598 0.0442598,0.988106 0.0441417,1.88952 0.0440394,2.64953l-7.87402e-006 0.107028 0.000417323 0c0,0.0238701 0.0120551,0.0462559 0.0315354,0.0631339 0.0236732,0.0205157 0.0575787,0.0332126 0.0960748,0.0332126 0.0384961,0 0.0724016,-0.0126969 0.0960748,-0.0332126 0.0194803,-0.016878 0.0315354,-0.0392638 0.0315354,-0.0631339 0,-0.00461417 0.000291339,-0.00916535 0.000862205,-0.013626l0.0917598 -1.43102 0.106252 0.00666535 -0.106449 -0.00682677c0.000622047,-0.00972047 0.00253543,-0.0190472 0.00555118,-0.0278386 0.0119921,-0.0429252 0.0359252,-0.0798071 0.0640118,-0.106996 0.039311,-0.0380472 0.0909803,-0.0602087 0.137102,-0.0587717l-0.00291732 0.106252 0.00332677 -0.106614c0.00473228,0.000145669 0.00938189,0.000606299 0.0139331,0.00134646 0.039248,0.00427165 0.0850079,0.0217244 0.121488,0.0587677 0.029311,0.0297677 0.0524291,0.0711811 0.0601772,0.126815l0.000244094 -3.54331e-005c0.000677165,0.00488189 0.00100787,0.00972441 0.00101969,0.0145197l0.0926142 1.42939 0.000208661 -1.1811e-005c0.000149606,0.00231496 0.000216535,0.00461417 0.000220472,0.00689764l3.93701e-006 0c0,0.0235709 0.0119134,0.0456811 0.0311693,0.0623661 0.0234528,0.0203228 0.0570433,0.0328937 0.0952008,0.0328937 0.0381496,0 0.0717441,-0.0125748 0.0951929,-0.0328937 0.0192559,-0.0166811 0.0311693,-0.0387992 0.0311693,-0.0623661 0,-0.290161 -0.0135433,-0.60426 -0.0280236,-0.940031 -0.0246457,-0.571618 -0.0519567,-1.20493 -0.0219252,-1.84712l0.106252 0.00458268 -0.106551 -0.00498425c0.00275197,-0.0588465 0.052689,-0.104319 0.111535,-0.101567 0.036622,0.0017126 0.068063,0.0217047 0.0859252,0.0507402 0.0892913,0.117236 0.288724,0.200815 0.525764,0.239177 0.252642,0.0408858 0.541921,0.0277953 0.787567,-0.0520236l0.0329173 0.101252 -0.0329646 -0.101445c0.00233071,-0.000755906 0.00466929,-0.00142126 0.00701181,-0.00201181 0.0582008,-0.0203819 0.0886378,-0.0533504 0.0974449,-0.0883031 0.0046811,-0.0185787 0.00423622,-0.0381732 -0.000622047,-0.0570748 -0.00533465,-0.0207638 -0.0157559,-0.0409252 -0.0304409,-0.0586142 -0.0336024,-0.0404685 -0.0898386,-0.0666299 -0.15974,-0.0568898 -0.0574449,0.008 -0.101413,0.0149409 -0.145161,0.0218425 -0.389598,0.0614764 -0.764374,0.120614 -1.09595,-0.244689 -0.103547,-0.114083 -0.225256,-0.196071 -0.359472,-0.245539 -0.137413,-0.0506457 -0.288756,-0.0677638 -0.44802,-0.0509252 -0.37585,0.039752 -0.655496,0.210858 -0.858535,0.448091 -0.259157,0.302799 -0.397028,0.71426 -0.452102,1.10252l-0.105417 -0.0145827 0.10561 0.0149803c-0.000177165,0.00125984 -0.000385827,0.00250787 -0.000606299,0.00375197zm-0.0493425 0.335457c-0.110528,-0.0682756 -0.18587,-0.194264 -0.161717,-0.365524 0.000129921,-0.0012126 0.000271654,-0.00242913 0.000444882,-0.00364567l7.08661e-005 1.1811e-005 0.000122047 -0.000866142 0.000177165 2.75591e-005c0.0601575,-0.42287 0.212697,-0.8735 0.501091,-1.21046 0.236303,-0.276094 0.561579,-0.475217 0.998535,-0.521429 0.191823,-0.0202835 0.375252,0.00076378 0.54302,0.0625945 0.166382,0.0613228 0.316606,0.162244 0.443646,0.302209 0.254835,0.28076 0.574079,0.230386 0.905941,0.17802 0.0537008,-0.00847244 0.107693,-0.0169961 0.1485,-0.0226772 0.150819,-0.0210197 0.275398,0.0393583 0.352236,0.13189 0.0348268,0.0419409 0.0597913,0.0907717 0.0729449,0.141945 0.013626,0.0530315 0.0147874,0.108354 0.00145669,0.161248 -0.0254291,0.100902 -0.100067,0.191406 -0.236472,0.238272 -0.00283858,0.00120079 -0.00574016,0.00229528 -0.00872441,0.00326378l-6.29921e-005 -0.000188976c-0.27787,0.0902874 -0.603441,0.105358 -0.886717,0.0595157 -0.185323,-0.0299921 -0.354831,-0.0869291 -0.485232,-0.167075 -0.0151693,0.557669 0.0084685,1.10625 0.0300669,1.60708 0.0149094,0.345772 0.0288583,0.66922 0.0288583,0.949197 0,0.0879449 -0.0402559,0.166811 -0.105343,0.223201 -0.0608858,0.0527598 -0.143823,0.0853976 -0.234358,0.0853976 -0.0905394,0 -0.17348,-0.0326378 -0.234366,-0.0853976 -0.0650157,-0.0563425 -0.105268,-0.135106 -0.105343,-0.222949l-0.0817598 -1.26185 -0.0809724 1.26285c-5.51181e-005,0.0881732 -0.0404449,0.167244 -0.105709,0.223791 -0.0611063,0.0529567 -0.144354,0.0857165 -0.23524,0.0857165 -0.0908858,0 -0.174134,-0.0327598 -0.23524,-0.0857165 -0.0653071,-0.0565866 -0.105709,-0.135724 -0.105709,-0.223969l0.000417323 0 7.87402e-006 -0.107028c8.66142e-005,-0.673732 0.000188976,-1.45921 -0.0311299,-2.32168 -0.00822441,0.0206417 -0.0160157,0.0420945 -0.0234291,0.0643858 -0.0472795,0.14215 -0.0799528,0.320575 -0.1125,0.538937 -0.000181102,0.0018189 -0.000405512,0.0036378 -0.000681102,0.00546457l-6.69291e-005 -1.1811e-005c-0.0273701,0.181807 -0.138941,0.284287 -0.266756,0.318413 -0.0490551,0.0130945 -0.100193,0.0156378 -0.149543,0.00832283 -0.049185,-0.00729134 -0.0972913,-0.024626 -0.140465,-0.0512953z"/>
   <path id="_442811208" class="fil1" d="M4.74225 5.85147c0,0.0589094 0.0477598,0.106669 0.106669,0.106669 0.0589094,0 0.106669,-0.0477598 0.106669,-0.106669l0 -4.13058c0,-0.0589094 -0.0477598,-0.106669 -0.106669,-0.106669 -0.0589094,0 -0.106669,0.0477598 -0.106669,0.106669l0 4.13058z"/>
   <path id="_442811184" class="fil1" d="M4.26643 1.5881c-0.0589094,0 -0.106669,0.0477598 -0.106669,0.106669 0,0.0589094 0.0477598,0.106669 0.106669,0.106669l1.16499 0c0.0589094,0 0.106669,-0.0477598 0.106669,-0.106669 0,-0.0589094 -0.0477598,-0.106669 -0.106669,-0.106669l-1.16499 0z"/>
   <path id="_442811592" class="fil1" d="M4.33748 1.22686c0,-0.0294528 -0.0238819,-0.0533346 -0.0533346,-0.0533346 -0.0294528,0 -0.0533346,0.0238819 -0.0533346,0.0533346l0 0.467913c0,0.0294528 0.0238819,0.0533346 0.0533346,0.0533346 0.0294528,0 0.0533346,-0.0238819 0.0533346,-0.0533346l0 -0.467913z"/>
   <path id="_442811544" class="fil1" d="M4.52574 1.22686c0,-0.0294528 -0.0238819,-0.0533346 -0.0533346,-0.0533346 -0.0294528,0 -0.0533346,0.0238819 -0.0533346,0.0533346l0 0.467913c0,0.0294528 0.0238819,0.0533346 0.0533346,0.0533346 0.0294528,0 0.0533346,-0.0238819 0.0533346,-0.0533346l0 -0.467913z"/>
   <path id="_442811472" class="fil1" d="M4.71399 1.22686c0,-0.0294528 -0.0238819,-0.0533346 -0.0533346,-0.0533346 -0.0294528,0 -0.0533346,0.0238819 -0.0533346,0.0533346l0 0.467913c0,0.0294528 0.0238819,0.0533346 0.0533346,0.0533346 0.0294528,0 0.0533346,-0.0238819 0.0533346,-0.0533346l0 -0.467913z"/>
   <path id="_442811112" class="fil1" d="M4.90226 1.22686c0,-0.0294528 -0.0238819,-0.0533346 -0.0533346,-0.0533346 -0.0294528,0 -0.0533346,0.0238819 -0.0533346,0.0533346l0 0.467913c0,0.0294528 0.0238819,0.0533346 0.0533346,0.0533346 0.0294528,0 0.0533346,-0.0238819 0.0533346,-0.0533346l0 -0.467913z"/>
   <path id="_442810728" class="fil1" d="M5.09052 1.22686c0,-0.0294528 -0.0238819,-0.0533346 -0.0533346,-0.0533346 -0.0294528,0 -0.0533346,0.0238819 -0.0533346,0.0533346l0 0.467913c0,0.0294528 0.0238819,0.0533346 0.0533346,0.0533346 0.0294528,0 0.0533346,-0.0238819 0.0533346,-0.0533346l0 -0.467913z"/>
   <path id="_442810272" class="fil1" d="M5.27878 1.22686c0,-0.0294528 -0.0238819,-0.0533346 -0.0533346,-0.0533346 -0.0294528,0 -0.0533346,0.0238819 -0.0533346,0.0533346l0 0.467913c0,0.0294528 0.0238819,0.0533346 0.0533346,0.0533346 0.0294528,0 0.0533346,-0.0238819 0.0533346,-0.0533346l0 -0.467913z"/>
   <path id="_442810296" class="fil1" d="M5.46704 1.22686c0,-0.0294528 -0.0238819,-0.0533346 -0.0533346,-0.0533346 -0.0294528,0 -0.0533346,0.0238819 -0.0533346,0.0533346l0 0.467913c0,0.0294528 0.0238819,0.0533346 0.0533346,0.0533346 0.0294528,0 0.0533346,-0.0238819 0.0533346,-0.0533346l0 -0.467913z"/>
  </g>
  <path class="fil2" d="M2.5946 1.42717c0,0.0995591 0.0403504,0.189693 0.105579,0.254925 0.0652323,0.0652283 0.155362,0.105579 0.254925,0.105579 0.099563,0 0.189693,-0.0403504 0.254925,-0.105579 0.0652283,-0.0652323 0.105579,-0.155362 0.105579,-0.254925 0,-0.099563 -0.0403504,-0.189701 -0.105579,-0.254925 -0.0652283,-0.0652283 -0.155362,-0.105579 -0.254925,-0.105579 -0.099563,0 -0.189693,0.0403504 -0.254925,0.105579 -0.0652283,0.0652323 -0.105579,0.155362 -0.105579,0.254925z"/>
 </g>
 <rect class="fil3" width="6.82666" height="6.82666"/>
</svg>
