<?xml version="1.0" encoding="UTF-8"?>
<!DOCTYPE svg PUBLIC "-//W3C//DTD SVG 1.1//EN" "http://www.w3.org/Graphics/SVG/1.1/DTD/svg11.dtd">
<!-- Creator: CorelDRAW -->
<svg xmlns="http://www.w3.org/2000/svg" xml:space="preserve" width="6.82666in" height="6.82666in" style="shape-rendering:geometricPrecision; text-rendering:geometricPrecision; image-rendering:optimizeQuality; fill-rule:evenodd; clip-rule:evenodd"
viewBox="0 0 6.82666 6.82666"
 xmlns:xlink="http://www.w3.org/1999/xlink">
 <defs>
  <style type="text/css">
   <![CDATA[
    .fil7 {fill:none}
    .fil2 {fill:#333333}
    .fil0 {fill:#949494}
    .fil3 {fill:#EBE5DF}
    .fil5 {fill:#F45A52}
    .fil4 {fill:#FECA5F}
    .fil6 {fill:#FFD3B3}
    .fil1 {fill:#333333;fill-rule:nonzero}
   ]]>
  </style>
 </defs>
 <g id="Layer_x0020_1">
  <metadata id="CorelCorpID_0Corel-Layer"/>
  <path class="fil0" d="M3.7987 2.65639c0.0480394,0.0472874 0.0933819,0.0879488 0.132862,0.117051 0.0525512,0.0387402 0.102358,0.060815 0.147106,0.0594921l0.559465 0.0206339c-0.00135827,0.0836969 -0.00243307,0.172004 -0.00352756,0.262315 -0.00388189,0.320055 -0.00808268,0.665831 -0.0280906,0.958386 -0.0142992,0.209134 -0.0343386,0.416976 -0.0620394,0.662512 -0.0264764,0.234685 -0.0626614,0.524319 -0.108685,0.892543 -0.0177598,0.14552 0.0520433,0.249213 0.150961,0.303457 0.0737992,0.0404764 0.161697,0.0512126 0.243071,0.029689 0.109185,-0.0288937 0.201965,-0.112764 0.21972,-0.258236l0.140685 -1.12548 0.0691378 1.10615c0.00858268,0.146012 0.0958189,0.235378 0.202839,0.271012 0.0398622,0.0132717 0.0820079,0.0186063 0.123209,0.016185 0.0412756,-0.0024252 0.0825394,-0.0126575 0.120524,-0.0304921 0.102067,-0.0479213 0.178189,-0.146894 0.169602,-0.292953 -0.0351102,-0.561772 -0.0607008,-1.06079 -0.0773819,-1.55358 -0.0165512,-0.489157 -0.0245079,-0.982894 -0.0245079,-1.53895 0,-0.14463 -0.0651654,-0.274878 -0.170524,-0.368528 -0.10215,-0.0907992 -0.242402,-0.146965 -0.39652,-0.146965 -0.135878,0 -0.470713,0.0740709 -0.736547,0.132878 -0.0843543,0.0186575 -0.161484,0.0357244 -0.222406,0.0481969l-0.254835 -0.273374 -0.197744 0.0298858c-0.0421969,0.00633858 -0.0815551,-0.0227402 -0.0878937,-0.0649409 -0.00633465,-0.0422008 0.0227402,-0.0815591 0.0649409,-0.0878937l0.0929843 -0.0140551 -0.0320591 -0.0343898c-0.0434724,-0.0672953 -0.109173,-0.112398 -0.181681,-0.131256 -0.0730354,-0.0190039 -0.153055,-0.0113425 -0.22422,0.0270906 -0.00661024,0.00296063 -0.0128465,0.00661024 -0.0186339,0.0108386l-0.000401575 0.000291339 -0.000295276 0.000212598c-0.0683543,0.0434567 -0.114118,0.109713 -0.133157,0.182902 -0.0190079,0.0730433 -0.0113425,0.153067 0.0270984,0.224236 0.00292913,0.00653543 0.0065315,0.0127205 0.0107047,0.0184449l0.0005 0.000688976 0.000814961 0.00108268 0.000901575 0.00116929 0.000220472 0.000283465 0.0013622 0.00169291 0.0370669 -0.0303858c0.0328622,-0.0270197 0.0814134,-0.0222913 0.108433,0.0105709 0.0270236,0.0328622 0.0222913,0.0814134 -0.0105709,0.108437l-0.0347402 0.0284764c0.104354,0.123146 0.25413,0.298551 0.382252,0.424677z"/>
  <g id="_442816080">
   <path id="_442816152" class="fil1" d="M4.84369 2.84746c-0.00146063,0.0873819 -0.00256299,0.178035 -0.00368504,0.270835 -0.00396063,0.326642 -0.00824803,0.679528 -0.0280906,0.969654 -0.0145157,0.212311 -0.034815,0.422894 -0.0628465,0.671374 -0.0292559,0.259331 -0.0642362,0.539339 -0.108685,0.894961 -0.00588189,0.0482283 0.0152402,0.0815 0.0454449,0.098063 0.0133622,0.00733071 0.0285472,0.0120354 0.0442953,0.0139528l0.000401575 -4.33071e-005 0.00221654 0.000295276c0.0154331,0.0016378 0.0307205,0.000665354 0.0447362,-0.00303937 0.0331811,-0.00878346 0.0615945,-0.0359921 0.0674843,-0.0842559l0.171583 -1.37265 0.102291 0.0124843 -0.102299 -0.0127913c0.000751969,-0.00603543 0.00201969,-0.0118819 0.00374409,-0.0175079 0.0134764,-0.0555394 0.0460866,-0.0955512 0.0865748,-0.119315 0.0281969,-0.0165354 0.0592992,-0.0248386 0.0900669,-0.0248386 0.0307874,0 0.0618504,0.00815354 0.0899331,0.0244882 0.0439055,0.0255433 0.0791339,0.070063 0.0914213,0.13302l0.000181102 -3.54331e-005c0.0013189,0.00679134 0.00193307,0.0135512 0.00190157,0.0202165l0.0844055 1.35048c0.00285039,0.0484843 0.0294213,0.0773701 0.0618858,0.0881772 0.014378,0.0047874 0.030374,0.00666535 0.0466811,0.0057126 0.0162205,-0.000952756 0.0318622,-0.00470079 0.045622,-0.0111614 0.0310118,-0.0145591 0.0540433,-0.0463504 0.0511969,-0.0948031 -0.0348386,-0.557449 -0.0604016,-1.05762 -0.0773819,-1.55922 -0.0170984,-0.505252 -0.025315,-1.00121 -0.025315,-1.54539 0,-0.0831181 -0.0386929,-0.159079 -0.101252,-0.214685 -0.0657559,-0.0584488 -0.157488,-0.0946063 -0.259591,-0.0946063 -0.117071,0 -0.437693,0.0709291 -0.692248,0.12724 -0.116051,0.0256732 -0.218909,0.0484252 -0.284358,0.0605433l6.29921e-005 0.000330709c-0.0384331,0.00711024 -0.0758307,-0.00808661 -0.0988583,-0.0364331l-0.454961 -0.488059 -0.000165354 0.00015748c-0.00681496,-0.00731102 -0.0123583,-0.0153465 -0.0166457,-0.0238425 -0.0145039,-0.0215197 -0.0359764,-0.0359921 -0.0596142,-0.0421378 -0.0256969,-0.00668504 -0.0539094,-0.00360236 -0.0785236,0.0108307l0.00019685 0.000338583c-0.00185433,0.00108661 -0.00372835,0.00210236 -0.00561811,0.00306299 -0.0215984,0.0145039 -0.0361102,0.0360118 -0.0422677,0.0597008 -0.0059685,0.022937 -0.00414961,0.047874 0.00657087,0.0704724 0.0164724,0.0190039 0.0431654,0.0505236 0.0745157,0.0875472 0.102555,0.121114 0.259937,0.306965 0.388181,0.433213 0.0412323,0.0405906 0.0790748,0.0746929 0.110315,0.0977205 0.0162362,0.0119685 0.010811,0.0200276 0.0168071,0.0198228l-1.1811e-005 -0.000192913c0.00643701,-0.00042126 0.0127677,-0.000228346 0.0189488,0.000503937l0.696398 0.0256811 0.00240157 -2.75591e-005c0.0044252,0 0.00878346,0.000275591 0.013063,0.000807087 0.0535236,0.00529528 0.0944016,0.051374 0.0924764,0.105874 -0.000216535,0.00612992 -0.000964567,0.0121142 -0.00220079,0.0179134 -0.00547638,0.0292677 -0.0230709,0.0542598 -0.0473858,0.0695709zm-0.209079 0.268413c0.00109449,-0.090311 0.00216929,-0.178618 0.00352756,-0.262315l-0.559465 -0.0206339c-0.044748,0.00132283 -0.0945551,-0.020752 -0.147106,-0.0594921 -0.0394803,-0.0291024 -0.0848228,-0.0697638 -0.132862,-0.117051 -0.136047,-0.133925 -0.296508,-0.323417 -0.401075,-0.446902 -0.0293268,-0.0346339 -0.0537992,-0.0635354 -0.0760827,-0.0889213 -0.00232283,-0.00241732 -0.00453937,-0.00497244 -0.00664567,-0.00764567l-0.000220472 -0.000283465 -0.000901575 -0.00116929 -0.000814961 -0.00108268 -0.0005 -0.000688976c-0.00417323,-0.00572441 -0.00777559,-0.0119094 -0.0107047,-0.0184449 -0.0384409,-0.0711693 -0.0461063,-0.151193 -0.0270984,-0.224236 0.0190394,-0.073189 0.0648031,-0.139445 0.133157,-0.182902l0.000295276 -0.000212598 0.000401575 -0.000291339c0.0057874,-0.00422835 0.0120236,-0.00787795 0.0186339,-0.0108386 0.0711654,-0.0384331 0.151185,-0.0460945 0.22422,-0.0270906 0.0725079,0.0188583 0.138209,0.0639606 0.181681,0.131256l0.414606 0.444768c0.0609213,-0.0124724 0.138051,-0.0295394 0.222406,-0.0481969 0.265835,-0.0588071 0.600669,-0.132878 0.736547,-0.132878 0.154118,0 0.29437,0.0561654 0.39652,0.146965 0.105358,0.0936496 0.170524,0.223898 0.170524,0.368528 0,0.556055 0.00795669,1.04979 0.0245079,1.53895 0.0166811,0.492795 0.0422717,0.991811 0.0773819,1.55358 0.00858661,0.146059 -0.0675354,0.245031 -0.169602,0.292953 -0.0379843,0.0178346 -0.079248,0.0280669 -0.120524,0.0304921 -0.0412008,0.00242126 -0.0833465,-0.00291339 -0.123209,-0.016185 -0.10702,-0.0356339 -0.194256,-0.125 -0.202839,-0.271012l-0.0691378 -1.10615 -0.140685 1.12548c-0.0177559,0.145472 -0.110535,0.229343 -0.21972,0.258236 -0.081374,0.0215236 -0.169272,0.0107874 -0.243071,-0.029689 -0.0989173,-0.0542441 -0.16872,-0.157937 -0.150961,-0.303457 0.0460236,-0.368224 0.0822087,-0.657858 0.108685,-0.892543 0.0277008,-0.245535 0.0477402,-0.453378 0.0620394,-0.662512 0.0200079,-0.292555 0.0242087,-0.638331 0.0280906,-0.958386z"/>
   <path id="_442816008" class="fil1" d="M5.25958 1.00965c0.136539,0 0.260165,0.0553543 0.349657,0.144843 0.0894882,0.0894921 0.144846,0.213118 0.144846,0.349661 0,0.136531 -0.0553583,0.260165 -0.144846,0.349657 -0.0894921,0.0894882 -0.213118,0.144846 -0.349657,0.144846 -0.136535,0 -0.260169,-0.0553583 -0.349661,-0.144846 -0.0894882,-0.0894921 -0.144843,-0.213126 -0.144843,-0.349657 0,-0.136543 0.0553543,-0.260169 0.144843,-0.349661 0.0894921,-0.0894882 0.213126,-0.144843 0.349661,-0.144843zm0.20387 0.29063c-0.0521654,-0.0521614 -0.124248,-0.0844331 -0.20387,-0.0844331 -0.079622,0 -0.151705,0.0322717 -0.203874,0.0844331 -0.0521614,0.0521654 -0.0844291,0.124252 -0.0844291,0.203874 0,0.0796181 0.0322677,0.151705 0.0844291,0.20387 0.0521693,0.0521614 0.124252,0.0844331 0.203874,0.0844331 0.079622,0 0.151705,-0.0322717 0.20387,-0.0844331 0.0521614,-0.0521654 0.0844331,-0.124252 0.0844331,-0.20387 0,-0.079622 -0.0322717,-0.151709 -0.0844331,-0.203874z"/>
   <path id="_442816128" class="fil1" d="M3.45119 2.20323c0.0328622,-0.0270236 0.0375945,-0.0755748 0.0105709,-0.108437 -0.0270197,-0.0328622 -0.0755709,-0.0375906 -0.108433,-0.0105709l-0.329067 0.269748c-0.0831575,-0.266028 -0.259657,-0.285465 -0.430906,-0.30428 -0.0607244,-0.00667323 -0.120516,-0.013252 -0.168465,-0.0378307 0.125594,-0.0706969 0.221031,-0.17226 0.322079,-0.279815 0.126457,-0.134602 0.262606,-0.279524 0.478079,-0.369992l-0.0299016 -0.0712835 0.0299331 0.0712953c0.039374,-0.0165315 0.0578937,-0.0618543 0.0413661,-0.101228 -0.0079252,-0.018874 -0.0224646,-0.0329449 -0.0397953,-0.0406732l-0.147299 -0.0777874 0.0767165 -0.131429c0.0803937,-0.00857087 0.288118,-0.0156063 0.461031,0.108075 -0.0372441,0.135772 -0.00988189,0.211929 0.0728504,0.253677 0.0624094,0.0314921 0.152618,0.0286654 0.270087,0.0139567 0.083437,0.171957 0.0815079,0.324272 0.0730866,0.399272l-0.261 0.0394488c-0.0422008,0.00633465 -0.0712756,0.0456929 -0.0649409,0.0878937 0.00633858,0.0422008 0.0456969,0.0712795 0.0878937,0.0649409l0.31326 -0.0473425c0.0311772,-0.00346063 0.0583858,-0.0258189 0.0664764,-0.0580236l-0.0749921 -0.0188425 0.0749055 0.0187244c0.000212598,-0.000838583 0.0744488,-0.286161 -0.101154,-0.601748 -0.0138346,-0.0304055 -0.0464488,-0.0494213 -0.0812008,-0.0445118l2.75591e-005 0.000177165c-0.115728,0.0163465 -0.199457,0.0252362 -0.23298,0.0083189 -0.0119488,-0.00602756 -0.00764173,-0.0386024 0.0184724,-0.11322 0.0127441,-0.0300315 0.00543701,-0.0660827 -0.0205354,-0.0886102l-0.0506654 0.0584094 0.0504409 -0.0582913c-0.258697,-0.224398 -0.603134,-0.178988 -0.656016,-0.170409 -0.0240512,0.00219291 -0.0467205,0.0155866 -0.0598228,0.0380354l0.0667795 0.0389803 -0.066752 -0.0389606 -0.134961 0.231193c-0.000952756,0.00153543 -0.00186614,0.00311417 -0.00272047,0.00473622 -0.0199409,0.0377598 -0.00549606,0.0845433 0.0322638,0.104484l0.0361063 -0.068374 -0.0359449 0.0682638 0.0903031 0.047685c-0.166295,0.0974606 -0.28237,0.221 -0.39176,0.337441 -0.11378,0.121106 -0.219626,0.23376 -0.365071,0.288283 -0.00651181,0.00185827 -0.0128858,0.00460236 -0.0189488,0.00829134 -0.0364961,0.0221732 -0.0481063,0.0697402 -0.0259331,0.106232l0.000295276 -0.000181102c0.0882677,0.145185 0.218579,0.159508 0.352094,0.174177 0.136665,0.0150157 0.278079,0.0306024 0.323134,0.296421 0.00140157,0.0147835 0.00705906,0.0293268 0.0171772,0.0416693 0.0270709,0.0330276 0.0757913,0.0378504 0.108819,0.0107795l-0.0490197 -0.0597992 0.0489331 0.0595039 0.425102 -0.348472z"/>
   <path id="_442816104" class="fil1" d="M3.42481 5.75215l0 -2.01688 -2.26815 0 0 2.01688 2.26815 0zm0.206201 -2.11998l0 2.22308c0,0.0569409 -0.0461614,0.103102 -0.103098,0.103102l-2.47435 0c-0.056937,0 -0.103098,-0.0461614 -0.103098,-0.103102l0 -2.22308c0,-0.0569409 0.0461614,-0.103102 0.103098,-0.103102l2.47435 0c0.056937,0 0.103098,0.0461614 0.103098,0.103102z"/>
   <path id="_442815816" class="fil1" d="M1.05356 2.85985l2.47435 0c0.056937,0 0.103098,0.0461614 0.103098,0.103098l0 0.66922c0,0.056937 -0.0461614,0.103098 -0.103098,0.103098l-2.47435 0c-0.056937,0 -0.103098,-0.0461614 -0.103098,-0.103098l0 -0.66922c0,-0.056937 0.0461614,-0.103098 0.103098,-0.103098zm2.37125 0.206201l-2.26815 0 0 0.463016 2.26815 0 0 -0.463016z"/>
   <path id="_442815720" class="fil1" d="M2.29074 4.00383c0.204291,0 0.389264,0.0828189 0.523161,0.216713 0.133894,0.133894 0.216713,0.318866 0.216713,0.523161 0,0.204295 -0.0828228,0.389272 -0.216713,0.523161 -0.133898,0.133894 -0.31887,0.216713 -0.523161,0.216713 -0.204295,0 -0.389272,-0.0828228 -0.523161,-0.216713 -0.133894,-0.133898 -0.216713,-0.31887 -0.216713,-0.523161 0,-0.204295 0.0828189,-0.389268 0.216713,-0.523161 0.13389,-0.13389 0.318866,-0.216713 0.523161,-0.216713zm0.37737 0.362504c-0.0965669,-0.0965709 -0.229992,-0.156303 -0.37737,-0.156303 -0.147382,0 -0.280807,0.0597362 -0.37737,0.156303 -0.0965669,0.096563 -0.156303,0.229988 -0.156303,0.37737 0,0.147378 0.0597323,0.280803 0.156303,0.37737 0.096563,0.0965669 0.229988,0.156303 0.37737,0.156303 0.147378,0 0.280803,-0.0597323 0.37737,-0.156303 0.0965669,-0.0965591 0.156303,-0.229988 0.156303,-0.37737 0,-0.147382 -0.0597362,-0.280807 -0.156303,-0.37737z"/>
   <g>
    <circle id="_442815624" class="fil2" cx="1.53069" cy="3.29755" r="0.131996"/>
    <circle id="_442815576" class="fil2" cx="2.29074" cy="3.29755" r="0.131996"/>
    <circle id="_442816272" class="fil2" cx="3.05078" cy="3.29755" r="0.131996"/>
   </g>
  </g>
  <path class="fil3" d="M1.91337 4.36634c-0.0965669,0.096563 -0.156303,0.229988 -0.156303,0.37737 0,0.147378 0.0597323,0.280803 0.156303,0.37737 0.096563,0.0965669 0.229988,0.156303 0.37737,0.156303 0.147378,0 0.280803,-0.0597323 0.37737,-0.156303 0.0965669,-0.0965591 0.156303,-0.229988 0.156303,-0.37737 0,-0.147382 -0.0597362,-0.280807 -0.156303,-0.37737 -0.0965669,-0.0965709 -0.229992,-0.156303 -0.37737,-0.156303 -0.147382,0 -0.280807,0.0597362 -0.37737,0.156303z"/>
  <path class="fil4" d="M2.29074 4.00383c0.204291,0 0.389264,0.0828189 0.523161,0.216713 0.133894,0.133894 0.216713,0.318866 0.216713,0.523161 0,0.204295 -0.0828228,0.389272 -0.216713,0.523161 -0.133898,0.133894 -0.31887,0.216713 -0.523161,0.216713 -0.204295,0 -0.389272,-0.0828228 -0.523161,-0.216713 -0.133894,-0.133898 -0.216713,-0.31887 -0.216713,-0.523161 0,-0.204295 0.0828189,-0.389268 0.216713,-0.523161 0.13389,-0.13389 0.318866,-0.216713 0.523161,-0.216713zm-1.13407 -0.268567l0 2.01688 2.26815 0 0 -2.01688 -2.26815 0z"/>
  <path class="fil4" d="M2.29074 3.16556c0.0729016,0 0.131996,0.0590945 0.131996,0.131996 0,0.0728976 -0.0590945,0.131996 -0.131996,0.131996 -0.0729016,0 -0.131996,-0.0590984 -0.131996,-0.131996 0,-0.0729016 0.0590945,-0.131996 0.131996,-0.131996zm-0.760043 0c0.0728976,0 0.131996,0.0590945 0.131996,0.131996 0,0.0728976 -0.0590984,0.131996 -0.131996,0.131996 -0.0729016,0 -0.131996,-0.0590984 -0.131996,-0.131996 0,-0.0729016 0.0590945,-0.131996 0.131996,-0.131996zm-0.374031 -0.0995118l0 0.463016 2.26815 0 0 -0.463016 -2.26815 0zm1.76212 0.231508c0,-0.0729016 0.0590984,-0.131996 0.131996,-0.131996 0.0729016,0 0.131996,0.0590945 0.131996,0.131996 0,0.0728976 -0.0590945,0.131996 -0.131996,0.131996 -0.0728976,0 -0.131996,-0.0590984 -0.131996,-0.131996z"/>
  <path class="fil5" d="M3.22505 1.36206c-0.215472,0.0904685 -0.351622,0.23539 -0.478079,0.369992 -0.101047,0.107555 -0.196484,0.209118 -0.322079,0.279815 0.0479488,0.0245787 0.10774,0.0311575 0.168465,0.0378307 0.171248,0.018815 0.347748,0.038252 0.430906,0.30428l0.292 -0.239362c-0.00046063,-0.000559055 -0.000913386,-0.00112205 -0.0013622,-0.00169291l-0.000220472 -0.000283465 -0.000901575 -0.00116929 -0.000814961 -0.00108268 -0.0005 -0.000688976c-0.00417323,-0.00572441 -0.00777559,-0.0119094 -0.0107047,-0.0184449 -0.0384409,-0.0711693 -0.0461063,-0.151193 -0.0270984,-0.224236 0.0190394,-0.073189 0.0648031,-0.139445 0.133157,-0.182902l0.000295276 -0.000212598 0.000401575 -0.000291339c0.0057874,-0.00422835 0.0120236,-0.00787795 0.0186339,-0.0108386 0.0711654,-0.0384331 0.151185,-0.0460945 0.22422,-0.0270906 0.0725079,0.0188583 0.138209,0.0639606 0.181681,0.131256l0.0320591 0.0343898 0.168016 -0.0253937c0.00842126,-0.075 0.0103504,-0.227315 -0.0730866,-0.399272 -0.117469,0.0147087 -0.207677,0.0175354 -0.270087,-0.0139567 -0.0827323,-0.041748 -0.110094,-0.117906 -0.0728504,-0.253677 -0.172913,-0.123681 -0.380638,-0.116646 -0.461031,-0.108075l-0.0767165 0.131429 0.147299 0.0777874c0.0173307,0.00772835 0.0318701,0.0217992 0.0397953,0.0406732 0.0165276,0.039374 -0.00199213,0.0846969 -0.0413976,0.101217z"/>
  <path class="fil6" d="M5.05571 1.30028c-0.0521614,0.0521654 -0.0844291,0.124252 -0.0844291,0.203874 0,0.0796181 0.0322677,0.151705 0.0844291,0.20387 0.0521693,0.0521614 0.124252,0.0844331 0.203874,0.0844331 0.079622,0 0.151705,-0.0322717 0.20387,-0.0844331 0.0521614,-0.0521654 0.0844331,-0.124252 0.0844331,-0.20387 0,-0.079622 -0.0322717,-0.151709 -0.0844331,-0.203874 -0.0521654,-0.0521614 -0.124248,-0.0844331 -0.20387,-0.0844331 -0.079622,0 -0.151705,0.0322717 -0.203874,0.0844331z"/>
 </g>
 <rect class="fil7" width="6.82666" height="6.82666"/>
</svg>
