<?xml version="1.0" encoding="UTF-8"?>
<!DOCTYPE svg PUBLIC "-//W3C//DTD SVG 1.1//EN" "http://www.w3.org/Graphics/SVG/1.1/DTD/svg11.dtd">
<!-- Creator: CorelDRAW -->
<svg xmlns="http://www.w3.org/2000/svg" xml:space="preserve" width="6.82666in" height="6.82666in" style="shape-rendering:geometricPrecision; text-rendering:geometricPrecision; image-rendering:optimizeQuality; fill-rule:evenodd; clip-rule:evenodd"
viewBox="0 0 6.82666 6.82666"
 xmlns:xlink="http://www.w3.org/1999/xlink">
 <defs>
  <style type="text/css">
   <![CDATA[
    .fil6 {fill:none}
    .fil0 {fill:#949494}
    .fil3 {fill:#9DD5C0}
    .fil5 {fill:#EBE5DF}
    .fil1 {fill:#F39CC3}
    .fil4 {fill:#FFD3B3}
    .fil2 {fill:#333333;fill-rule:nonzero}
   ]]>
  </style>
 </defs>
 <g id="Layer_x0020_1">
  <metadata id="CorelCorpID_0Corel-Layer"/>
  <path class="fil0" d="M4.0005 1.10741c-0.0315748,0.0634409 -0.0396299,0.143315 -0.00507874,0.217685 0.00926378,0.0199409 0.0215906,0.0394882 0.0373465,0.0582126 0.0290315,0.0345197 0.0805551,0.0389685 0.115075,0.00993701 0.0345197,-0.0290315 0.0389646,-0.0805591 0.00993307,-0.115079 -0.0148386,-0.0176339 -0.0208268,-0.0375906 -0.0205512,-0.0568425l0.639665 0c0.000275591,0.019252 -0.0057126,0.0392087 -0.0205551,0.0568425 -0.0290315,0.0345197 -0.0245827,0.0860472 0.00993701,0.115079 0.0345197,0.0290315 0.0860433,0.0245827 0.115075,-0.00993701 0.0157559,-0.0187244 0.0280827,-0.0382638 0.0373465,-0.0582008 0.0345591,-0.074374 0.0265,-0.154256 -0.00508268,-0.217697 -0.0153504,-0.0308465 -0.0370433,-0.0583976 -0.062685,-0.0799488 -0.0278937,-0.0234409 -0.0603622,-0.0395433 -0.0948386,-0.045315 -0.0275591,-0.00461024 -0.0555197,-0.00320472 -0.0825591,0.00553937 -0.0116299,-0.0202835 -0.0253031,-0.0388189 -0.0406614,-0.0551654 -0.046374,-0.0493425 -0.10776,-0.0791929 -0.175811,-0.0791929 -0.0680433,0 -0.129433,0.0298504 -0.175807,0.0791929 -0.0153622,0.0163465 -0.0290315,0.0348858 -0.0406614,0.0551693 -0.0270394,-0.00874803 -0.055,-0.0101535 -0.0825591,-0.00554331 -0.0344803,0.00577165 -0.0669449,0.0218701 -0.0948386,0.045315 -0.0256457,0.0215472 -0.0473346,0.0491024 -0.062689,0.0799488z"/>
  <path class="fil1" d="M4.42906 2.96211c-0.000251969,-9.44882e-005 -0.0005,-0.000185039 -0.000751969,-0.000279528 -0.0110079,-0.0041063 -0.0207008,-0.0104173 -0.0286929,-0.0182874 -9.44882e-005,-9.44882e-005 -0.000185039,-0.000185039 -0.000279528,-0.000275591 0.00843307,0.00835039 0.0185984,0.0147835 0.0297244,0.0188425zm0.0859449 -0.0190709c-0.000224409,0.000228346 -0.000448819,0.000448819 -0.000677165,0.000673228 -0.00817717,0.0079685 -0.0179409,0.0141575 -0.0286102,0.0181496 -0.000307087,0.00011811 -0.000614173,0.000228346 -0.000925197,0.000338583 0.0116654,-0.00417717 0.0218858,-0.010811 0.0302126,-0.0191614zm-0.701409 0.0339843c0.282642,0.700528 0.126634,1.05483 0.00200394,1.33787 -0.0125551,0.0285079 -0.024752,0.0561929 -0.0358819,0.0830512l1.23331 1.9685e-005c-0.00655118,-0.0197598 -0.0128386,-0.0385394 -0.0189567,-0.056815 -0.127386,-0.380614 -0.190756,-0.57013 -0.0731693,-1.32525 0.00194488,-0.0295197 0.0157756,-0.0581614 0.0406614,-0.0781457 0.0471102,-0.0378386 0.11598,-0.0303189 0.153819,0.0167913l-0.000216535 0.000177165c0.0851575,0.106035 0.15324,0.209039 0.216059,0.339886 0.0603189,0.12563 0.114634,0.275264 0.173791,0.477283 0.00329921,0.00848819 0.00558661,0.0175276 0.00669685,0.0269961l-0.000106299 0.00034252c0.00928346,0.0792205 0.0369213,0.121697 0.0679724,0.134311 0.00844488,0.0034252 0.0171457,0.00450394 0.0254528,0.00337795 0.0091378,-0.00123622 0.0187874,-0.00532283 0.028189,-0.0120551 0.033622,-0.0240827 0.0564882,-0.0779055 0.0479213,-0.158575 -0.0824488,-0.387496 -0.203709,-0.735531 -0.392339,-0.995283 -0.15198,-0.20928 -0.349803,-0.361504 -0.609776,-0.430102l0.0275709 -0.109146c0.0109724,-0.0438976 -0.0157205,-0.0883937 -0.059622,-0.0993661 -0.0438976,-0.0109724 -0.0883937,0.0157205 -0.0993661,0.059622l-0.0298661 0.11824 -0.060685 0.240248 -0.0794921 0.314717c-0.00325984,0.0130394 -0.00319685,0.0261339 -0.00034252,0.0383858l-0.147488 -0.583898c-0.0504449,0.00924803 -0.0994488,0.0225945 -0.146748,0.0400276 -0.130547,0.0481102 -0.248937,0.127874 -0.349681,0.23887 -0.326201,0.359378 -0.694154,0.301319 -1.07666,0.240953 -0.0425433,-0.00670866 -0.0852795,-0.0134567 -0.141929,-0.0213465 -0.012752,-0.00180315 -0.0244173,-0.00249606 -0.0350118,-0.0021811 -0.0412756,0.00123228 -0.0757913,0.0168031 -0.10098,0.0401614 -0.0053189,0.00493307 -0.0102323,0.010189 -0.0147165,0.0157126 0.035752,-0.00777165 0.0728701,-0.0118661 0.110949,-0.0118661 0.143587,0 0.273591,0.0582087 0.367693,0.152307 0.0423031,0.0423071 0.0773543,0.0918661 0.103122,0.146654 0.00131496,0 0.0026378,2.3622e-005 0.00396457,7.08661e-005 0.160409,0.00618504 0.311165,-0.0101772 0.435165,-0.0506929 0.102217,-0.0334016 0.184138,-0.0825394 0.234185,-0.148031 0.0118228,-0.0192795 0.0297008,-0.0350787 0.0522835,-0.044189 0.0560354,-0.0226063 0.119795,0.00449606 0.142402,0.0605315l-0.000173228 0.000334646z"/>
  <path class="fil2" d="M4.18366 1.44015c-0.00246063,0.00677165 -0.00470079,0.013689 -0.00668898,0.0207362 -0.00702362,0.0248307 -0.0107835,0.0515236 -0.0107835,0.0796181 0,0.0803307 0.0325551,0.153055 0.0851811,0.205677 0.0526299,0.0526299 0.125354,0.0851811 0.205681,0.0851811 0.0803307,0 0.153059,-0.0325551 0.205681,-0.0851811 0.0526299,-0.052626 0.085185,-0.125346 0.085185,-0.205677 0,-0.0280906 -0.00375984,-0.0547835 -0.0107874,-0.0796142 -0.00199606,-0.00704724 -0.00422835,-0.0139646 -0.00669685,-0.0207402l-0.546772 0zm-0.216965 -0.038248c0.0118307,-0.0418386 0.0290945,-0.0817717 0.0509882,-0.119012 0.017752,-0.0364488 0.0551496,-0.0615709 0.0984173,-0.0615709l0.680634 0c0.0371024,-0.000393701 0.0734921,0.0181024 0.0943898,0.0519843l-0.000346457 0.000216535c0.0245906,0.0398858 0.0437992,0.0830197 0.056626,0.128386 0.0125945,0.0445276 0.0193386,0.0910433 0.0193386,0.138598 0,0.140736 -0.0570551,0.268157 -0.149295,0.360394 -0.0922362,0.0922362 -0.219665,0.149295 -0.360398,0.149295 -0.140724,0 -0.26815,-0.0570551 -0.360398,-0.149295 -0.0922362,-0.0922323 -0.149291,-0.219661 -0.149291,-0.360394 0,-0.0475551 0.00674409,-0.0940709 0.0193346,-0.138602z"/>
  <path class="fil2" d="M2.11381 2.9687c0.00164961,0.060189 0.0517874,0.107646 0.111976,0.105992 0.0601929,-0.00164961 0.107646,-0.0517874 0.105996,-0.111976 -0.00019685,-0.00657087 0.000267717,-0.0137756 0.00135827,-0.0214803 0.00443701,-0.0313031 0.0205,-0.0617795 0.0455787,-0.0850354 0.025189,-0.0233583 0.0597047,-0.0389291 0.10098,-0.0401614 0.0105945,-0.000314961 0.0222598,0.000377953 0.0350118,0.0021811 0.0566496,0.00788976 0.0993858,0.0146378 0.141929,0.0213465 0.382508,0.0603661 0.750461,0.118425 1.07666,-0.240953 0.100744,-0.110996 0.219134,-0.19076 0.349681,-0.23887 0.133217,-0.0490945 0.279933,-0.0658071 0.434335,-0.0497087l-1.9685e-005 0.000173228 0.00132283 0.000169291 -7.87402e-006 7.87402e-005 0.00235827 0.000220472c0.339728,0.0420433 0.586433,0.210555 0.767827,0.460339 0.18863,0.259752 0.30989,0.607787 0.392339,0.995283 0.00856693,0.0806693 -0.0142992,0.134492 -0.0479213,0.158575 -0.00940157,0.00673228 -0.0190512,0.0108189 -0.028189,0.0120551 -0.00830709,0.00112598 -0.0170079,4.72441e-005 -0.0254528,-0.00337795 -0.0310512,-0.0126142 -0.058689,-0.0550906 -0.0679724,-0.134311l0.000106299 -0.00034252c-0.00111024,-0.0094685 -0.00339764,-0.0185079 -0.00669685,-0.0269961 -0.0591575,-0.20202 -0.113472,-0.351654 -0.173791,-0.477283 -0.0628189,-0.130846 -0.130902,-0.23385 -0.216059,-0.339886l0.000216535 -0.000177165c-0.0378386,-0.0471102 -0.106709,-0.0546299 -0.153819,-0.0167913 -0.0248858,0.0199843 -0.0387165,0.048626 -0.0406614,0.0781457 -0.117587,0.755122 -0.0542165,0.944638 0.0731693,1.32525 0.00611811,0.0182756 0.0124055,0.0370551 0.0189567,0.056815 -0.0592795,0.000940945 -0.10724,0.0490827 -0.107634,0.108669 -2.75591e-005,0.00401181 0.000173228,0.00797244 0.000566929,0.011874 0.0030315,0.205634 0.00754331,0.367406 0.0117323,0.518378 0.00551969,0.198378 0.0105,0.37748 0.0105,0.628413 0,0.0218228 -0.011122,0.042378 -0.0290906,0.0579488 -0.0222717,0.0193031 -0.0542677,0.0312441 -0.090689,0.0312441 -0.0364213,0 -0.0684134,-0.0119449 -0.090689,-0.0312441 -0.0179646,-0.0155709 -0.0290866,-0.036122 -0.0290866,-0.0579488 0,-0.00477165 -0.000311024,-0.00946457 -0.000901575,-0.0140748l-0.0670118 -1.14985c-0.00330315,-0.0601929 -0.0547795,-0.106307 -0.114969,-0.103004 -0.0601929,0.00330315 -0.106307,0.0547795 -0.103004,0.114972l0.0670748 1.15084 -1.5748e-005 0.00111417c0,0.0878583 0.0401969,0.166622 0.105169,0.222921 0.0606693,0.0525748 0.143283,0.0851024 0.233433,0.0851024 0.0901575,0 0.172768,-0.0325276 0.233433,-0.0851024 0.0649803,-0.0562992 0.105177,-0.135063 0.105177,-0.222921 0,-0.22613 -0.0053937,-0.419843 -0.0113583,-0.634398 -0.0035,-0.126067 -0.00722441,-0.259571 -0.010063,-0.414213 0.00330709,-0.000137795 0.00619291,-0.000314961 0.00997638,-0.00053937 0.00695276,-0.000417323 0.0160591,-0.000964567 0.0244606,-0.00143307 0.0115669,0.000248031 0.023374,-0.00134646 0.0350276,-0.00498819 0.0576693,-0.0180315 0.0898031,-0.0794094 0.0717717,-0.137079l-0.000181102 5.51181e-005c-0.0210276,-0.0672283 -0.0442717,-0.136681 -0.0657283,-0.200795 -0.0995945,-0.297598 -0.156295,-0.467154 -0.101555,-0.952122 0.0120669,0.0221063 0.0237874,0.0449685 0.035252,0.0688465 0.0548543,0.114256 0.105165,0.253413 0.160902,0.443709 0.0217047,0.165484 0.104654,0.264248 0.201992,0.30378 0.0439764,0.0178583 0.0907047,0.0232756 0.136571,0.0170551 0.0450354,-0.0061063 0.0883661,-0.0232126 0.126488,-0.0505236 0.0912638,-0.0653701 0.155783,-0.189839 0.137953,-0.358587 -0.000311024,-0.0055 -0.00103937,-0.0110472 -0.0022126,-0.0166024l-0.000275591 5.51181e-005c-0.0884252,-0.417937 -0.220902,-0.796382 -0.430299,-1.08473 -0.216031,-0.297488 -0.510661,-0.498382 -0.917244,-0.549 -0.00226378,-0.00038189 -0.00455118,-0.000704724 -0.00686614,-0.000952756l-0.000393701 0.000248031c-0.188429,-0.0199331 -0.36863,0.000751969 -0.533469,0.0615039 -0.163539,0.0602717 -0.311181,0.159453 -0.436024,0.296996 -0.247484,0.272657 -0.558469,0.223587 -0.881764,0.172571 -0.0527835,-0.00832283 -0.105886,-0.0167087 -0.14535,-0.0222047 -0.0237677,-0.00336614 -0.0474685,-0.00459055 -0.0709134,-0.0038937 -0.0985827,0.00294882 -0.182008,0.0410591 -0.243728,0.0982913 -0.0618268,0.0573307 -0.101689,0.134394 -0.113106,0.214961 -0.00261024,0.0184331 -0.00365748,0.0376299 -0.00307087,0.0573819zm2.27245 1.55041c0.00330315,-0.0601929 -0.042811,-0.111669 -0.103,-0.114972 -0.0601929,-0.00330315 -0.111669,0.042811 -0.114972,0.103l-0.0659449 1.15087 -0.000259843 -1.5748e-005c-0.000122047,0.00209843 -0.000181102,0.00418504 -0.000181102,0.00625984l-3.93701e-006 0c0,0.0215236 -0.0109843,0.041815 -0.0287362,0.0571969 -0.0220512,0.0191024 -0.0537441,0.0309331 -0.0898268,0.0309331 -0.0360827,0 -0.0677717,-0.0118268 -0.0898228,-0.0309331 -0.017752,-0.015378 -0.0287362,-0.0356693 -0.0287362,-0.0571969l-0.000425197 0 3.14961e-005 -0.146996c0.000114173,-0.329291 0.000200787,-0.581303 -0.0056063,-1.01117l0.000417323 -0.00019685c-0.000673228,-0.0500827 -0.0349134,-0.0918504 -0.0810118,-0.104213 0.0115394,-0.0280197 0.0242835,-0.0569449 0.0374173,-0.0867717 0.12463,-0.283047 0.280638,-0.637346 -0.00200394,-1.33787l0.000173228 -0.000334646c-0.0226063,-0.0560354 -0.0863661,-0.0831378 -0.142402,-0.0605315 -0.0225827,0.00911024 -0.0404606,0.0249094 -0.0522835,0.044189 -0.0500472,0.0654921 -0.131969,0.11463 -0.234185,0.148031 -0.124,0.0405157 -0.274756,0.056878 -0.435165,0.0506929 -0.060189,-0.00212598 -0.110709,0.0449449 -0.112835,0.105138 -0.00212205,0.060189 0.0449449,0.110709 0.105138,0.112835 0.18552,0.00715354 0.362209,-0.0125315 0.51039,-0.0609528 0.080189,-0.0261969 0.152661,-0.0609606 0.214724,-0.104602 0.168736,0.514835 0.0472559,0.790925 -0.0515669,1.01537 -0.0368465,0.0836772 -0.0709134,0.161043 -0.0911457,0.246437 -0.00351181,0.0107244 -0.00542126,0.0221732 -0.00542126,0.0340709 0,0.0604252 0.0489921,0.109413 0.109417,0.109413l0.013752 0c0.00440157,0.365831 0.00432677,0.601091 0.00422441,0.900472l-3.14961e-005 0.146996 -0.000429134 0c0,0.0875669 0.0400591,0.166059 0.104815,0.222169 0.0604528,0.0523858 0.14276,0.0847874 0.232571,0.0847874 0.089815,0 0.172122,-0.0324094 0.232575,-0.0847874 0.0647598,-0.0561102 0.104819,-0.13461 0.104819,-0.222169l-8.66142e-005 0 0.0656181 -1.14514z"/>
  <polygon class="fil2" points="0.930165,3.98054 3.33029,3.98054 3.33029,4.19937 0.930165,4.19937 "/>
  <polygon class="fil2" points="3.06893,4.08996 3.06893,5.9683 2.8501,5.9683 2.8501,4.08996 "/>
  <path class="fil2" d="M1.03458 3.98054l1.6174 0c0.0604252,0 0.109413,0.0489882 0.109413,0.109413l0 0.365224c0,0.130638 -0.0533661,0.249331 -0.139339,0.335303 -0.0859764,0.0859724 -0.204661,0.139343 -0.335295,0.139343l-0.886949 0c-0.130634,0 -0.249323,-0.0533701 -0.335299,-0.139343 -0.0859724,-0.0859724 -0.139343,-0.204665 -0.139343,-0.335303l0 -0.365224c0,-0.0604252 0.0489882,-0.109413 0.109413,-0.109413zm1.50798 0.218827l-1.39857 0 0 0.255811c0,0.0702362 0.028815,0.134169 0.0752323,0.180587 0.0464173,0.0464173 0.11035,0.0752283 0.180583,0.0752283l0.886949 0c0.0702323,0 0.134165,-0.028815 0.180579,-0.0752283 0.0464173,-0.0464173 0.0752283,-0.11035 0.0752283,-0.180587l0 -0.255811z"/>
  <path class="fil2" d="M1.34257 4.08995c0,0.0604252 0.0489882,0.109413 0.109413,0.109413 0.0604252,0 0.109413,-0.0489882 0.109413,-0.109413l0 -0.847854c0,-0.0236024 0.00973622,-0.0451457 0.0254134,-0.0608228 0.0156772,-0.0156732 0.0372165,-0.0254094 0.0608189,-0.0254094 0.0236063,0 0.0451457,0.00973622 0.0608228,0.0254094 0.0156772,0.0156772 0.0254134,0.0372205 0.0254134,0.0608228 0,0.0604252 0.0489882,0.109413 0.109413,0.109413 0.0604252,0 0.109413,-0.0489882 0.109413,-0.109413 0,-0.0840039 -0.0342874,-0.160299 -0.0895236,-0.215535 -0.0552441,-0.0552362 -0.131539,-0.0895276 -0.215539,-0.0895276 -0.0840039,0 -0.160299,0.0342913 -0.215535,0.0895276 -0.0552362,0.0552362 -0.0895236,0.131531 -0.0895236,0.215535l0 0.847854z"/>
  <path class="fil2" d="M1.51583 3.58429c-0.0453189,0 -0.0820591,0.0367402 -0.0820591,0.0820591 0,0.0453189 0.0367402,0.0820591 0.0820591,0.0820591l0.14485 0c0.045315,0 0.0820551,-0.0367402 0.0820551,-0.0820591 0,-0.0453189 -0.0367402,-0.0820591 -0.0820551,-0.0820591l-0.14485 0z"/>
  <path class="fil2" d="M1.77622 3.53388c0,-0.0453189 -0.0367402,-0.0820591 -0.0820591,-0.0820591 -0.0453189,0 -0.0820591,0.0367402 -0.0820591,0.0820591l0 0.263252c0,0.0453189 0.0367402,0.0820591 0.0820591,0.0820591 0.0453189,0 0.0820591,-0.0367402 0.0820591,-0.0820591l0 -0.263252z"/>
  <path class="fil2" d="M2.47495 2.86004c0.143587,0 0.273591,0.0582087 0.367693,0.152307 0.0940984,0.0941024 0.152307,0.224102 0.152307,0.367685 0,0.143587 -0.0582087,0.273591 -0.152307,0.367693 -0.0941024,0.0940984 -0.224106,0.152307 -0.367693,0.152307 -0.143583,0 -0.273583,-0.0582087 -0.367685,-0.152307 -0.0941024,-0.0941024 -0.152307,-0.224106 -0.152307,-0.367693 0,-0.143583 0.0582047,-0.273583 0.152307,-0.367685 0.0941024,-0.0940984 0.224102,-0.152307 0.367685,-0.152307zm0.251654 0.268343c-0.0643937,-0.0643937 -0.153374,-0.104228 -0.251654,-0.104228 -0.0982756,0 -0.187252,0.0398346 -0.25165,0.104228 -0.0643937,0.0643976 -0.104228,0.153374 -0.104228,0.25165 0,0.0982795 0.0398346,0.18726 0.104228,0.251654 0.0643976,0.0643976 0.153374,0.104228 0.25165,0.104228 0.0982795,0 0.18726,-0.0398307 0.251654,-0.104228 0.0643976,-0.0643937 0.104228,-0.153374 0.104228,-0.251654 0,-0.0982756 -0.0398307,-0.187252 -0.104228,-0.25165z"/>
  <path class="fil2" d="M2.47495 3.09609c0.156815,0 0.283941,0.127134 0.283941,0.283945 0,0.156815 -0.127126,0.283941 -0.283941,0.283941 -0.0783976,0 -0.14939,-0.0317874 -0.200776,-0.0831693 -0.0513819,-0.0513858 -0.0831693,-0.122378 -0.0831693,-0.200772 0,-0.0784016 0.0317835,-0.149394 0.0831732,-0.200772 0.051378,-0.0513898 0.12237,-0.0831732 0.200772,-0.0831732zm0.174528 0.283945c0,-0.0963858 -0.0781378,-0.174531 -0.174528,-0.174531 -0.0481969,0 -0.0918386,0.0195354 -0.123417,0.0511181 -0.0315787,0.0315748 -0.0511142,0.0752165 -0.0511142,0.123413 0,0.0481969 0.0195354,0.0918346 0.0511102,0.123413 0.0315827,0.0315748 0.0752244,0.0511142 0.123421,0.0511142 0.0963898,0 0.174528,-0.0781378 0.174528,-0.174528z"/>
  <path class="fil2" d="M4.03277 1.38331c0.0290315,0.0345197 0.0805551,0.0389685 0.115075,0.00993701 0.0345197,-0.0290315 0.0389646,-0.0805591 0.00993307,-0.115079 -0.0259606,-0.0308504 -0.0248307,-0.0688071 -0.0104646,-0.0976693 0.00583071,-0.0117205 0.0130984,-0.0213701 0.0210197,-0.0280236 0.00566535,-0.00476772 0.0114055,-0.00789764 0.016626,-0.00876772 0.00638189,-0.00106693 0.0156654,0.00543307 0.0271457,0.0232362l0.0689173 -0.0442362 -0.0689685 0.0444646c0.0245591,0.0380866 0.0753465,0.0490591 0.113433,0.0245 0.0222598,-0.0143504 0.035248,-0.0376614 0.0373071,-0.0621614 0.00461811,-0.0344961 0.0183346,-0.064185 0.0377008,-0.0847953 0.0159685,-0.0169882 0.0357992,-0.0272677 0.056563,-0.0272677 0.0207677,0 0.0405984,0.0102795 0.0565669,0.0272677 0.0198937,0.0211693 0.0338189,0.0519173 0.0380551,0.0876102l0.0814173 -0.00961417 -0.0814843 0.0096811c0.00534252,0.045 0.0461614,0.0771457 0.0911654,0.0718031 0.0267874,-0.0031811 0.0490197,-0.018937 0.0615039,-0.0406614 0.0104331,-0.0152244 0.0189173,-0.0208228 0.024878,-0.0198268 0.00521654,0.000870079 0.0109606,0.004 0.016626,0.00876772 0.00791732,0.00664961 0.015185,0.0162992 0.0210197,0.0280236 0.0143701,0.0288622 0.0154961,0.0668189 -0.0104685,0.0976693 -0.0290315,0.0345197 -0.0245827,0.0860472 0.00993701,0.115079 0.0345197,0.0290315 0.0860433,0.0245827 0.115075,-0.00993701 0.0745354,-0.0885669 0.072315,-0.195449 0.0322638,-0.275898 -0.0153504,-0.0308465 -0.0370433,-0.0583976 -0.062685,-0.0799488 -0.0278937,-0.0234409 -0.0603622,-0.0395433 -0.0948386,-0.045315 -0.0275591,-0.00461024 -0.0555197,-0.00320472 -0.0825591,0.00553937 -0.0116299,-0.0202835 -0.0253031,-0.0388189 -0.0406614,-0.0551654 -0.046374,-0.0493425 -0.10776,-0.0791929 -0.175811,-0.0791929 -0.0680433,0 -0.129433,0.0298504 -0.175807,0.0791929 -0.0153622,0.0163465 -0.0290315,0.0348858 -0.0406614,0.0551693 -0.0270394,-0.00874803 -0.055,-0.0101535 -0.0825591,-0.00554331 -0.0344803,0.00577165 -0.0669449,0.0218701 -0.0948386,0.045315 -0.0256457,0.0215472 -0.0473346,0.0491024 -0.062689,0.0799488 -0.0400394,0.0804488 -0.0422598,0.187331 0.0322677,0.275898z"/>
  <path class="fil2" d="M3.71774 4.39795c-0.0604252,0 -0.109417,0.0489882 -0.109417,0.109413 0,0.0604252 0.0489921,0.109413 0.109417,0.109413l1.40824 0c0.0604252,0 0.109413,-0.0489882 0.109413,-0.109413 0,-0.0604252 -0.0489882,-0.109413 -0.109413,-0.109413l-1.40824 0z"/>
  <path class="fil2" d="M4.3665 2.19202c-0.0109724,-0.0439016 -0.0554646,-0.0705945 -0.0993661,-0.059622 -0.0438976,0.0109724 -0.0705945,0.0554685 -0.059622,0.0993661l0.170047 0.673205c0.0109724,0.0439016 0.0554646,0.0705945 0.0993661,0.059622 0.0439016,-0.0109724 0.0705945,-0.0554685 0.059622,-0.0993661l-0.170047 -0.673205z"/>
  <path class="fil2" d="M4.70659 2.23176c0.0109724,-0.0438976 -0.0157205,-0.0883937 -0.059622,-0.0993661 -0.0438976,-0.0109724 -0.0883937,0.0157205 -0.0993661,0.059622l-0.170043 0.673205c-0.0109724,0.0438976 0.0157205,0.0883937 0.059622,0.0993661 0.0438976,0.0109724 0.0883937,-0.0157205 0.0993661,-0.059622l0.170043 -0.673205z"/>
  <path class="fil3" d="M1.14399 4.19937l0 0.255811c0,0.0702362 0.028815,0.134169 0.0752323,0.180587 0.0464173,0.0464173 0.11035,0.0752283 0.180583,0.0752283l0.886949 0c0.0702323,0 0.134165,-0.028815 0.180579,-0.0752283 0.0464173,-0.0464173 0.0752283,-0.11035 0.0752283,-0.180587l0 -0.255811 -1.09058 0 -0.307992 0z"/>
  <path class="fil4" d="M4.16619 1.54051c0,0.0803307 0.0325551,0.153055 0.0851811,0.205677 0.0526299,0.0526299 0.125354,0.0851811 0.205681,0.0851811 0.0803307,0 0.153059,-0.0325551 0.205681,-0.0851811 0.0526299,-0.052626 0.085185,-0.125346 0.085185,-0.205677 0,-0.0280906 -0.00375984,-0.0547835 -0.0107874,-0.0796142 -0.00199606,-0.00704724 -0.00422835,-0.0139646 -0.00669685,-0.0207402l-0.546772 0c-0.00246063,0.00677165 -0.00470079,0.013689 -0.00668898,0.0207362 -0.00702362,0.0248307 -0.0107835,0.0515236 -0.0107835,0.0796181z"/>
  <path class="fil4" d="M4.39482 2.30415l0.0622283 0.246358 0.060685 -0.240248 -0.000440945 -5.51181e-005 1.9685e-005 -0.000173228c-0.0414213,-0.0043189 -0.0822874,-0.00627559 -0.122492,-0.00588189z"/>
  <path class="fil1" d="M3.86019 4.61678c0.00437795,0.364626 0.00429528,0.60048 0.00419291,0.900472l-3.14961e-005 0.146996 0.000425197 0c0,0.0215276 0.0109843,0.0418189 0.0287362,0.0571969 0.0220512,0.0191063 0.0537402,0.0309331 0.0898228,0.0309331 0.0360827,0 0.0677756,-0.0118307 0.0898268,-0.0309331 0.017752,-0.0153819 0.0287362,-0.0356732 0.0287402,-0.0571969 0,-0.0020748 5.90551e-005,-0.00416142 0.000181102,-0.00625984l0.000259843 1.5748e-005 0.0596614 -1.04122 -0.301815 0z"/>
  <path class="fil1" d="M4.62744 4.61678l0.0602874 1.03445c0.000590551,0.00461024 0.000901575,0.00930315 0.000901575,0.0140748 0,0.0218268 0.011122,0.042378 0.0290866,0.0579488 0.0222756,0.0192992 0.0542677,0.0312441 0.090689,0.0312441 0.0364213,0 0.0684173,-0.0119409 0.090689,-0.0312441 0.0179685,-0.0155709 0.0290906,-0.036126 0.0290906,-0.0579488 0,-0.250933 -0.00498031,-0.430035 -0.0105,-0.628413 -0.0035,-0.126087 -0.00722047,-0.259705 -0.010122,-0.420114l-0.280122 0z"/>
  <path class="fil5" d="M2.35154 3.25663c-0.0315787,0.0315748 -0.0511142,0.0752165 -0.0511142,0.123413 0,0.0481969 0.0195354,0.0918346 0.0511102,0.123413 0.0315827,0.0315748 0.0752244,0.0511142 0.123421,0.0511142 0.0963898,0 0.174528,-0.0781378 0.174528,-0.174528 0,-0.0963858 -0.0781378,-0.174531 -0.174528,-0.174531 -0.0481969,0 -0.0918386,0.0195354 -0.123417,0.0511181z"/>
  <path class="fil5" d="M2.47495 3.09609c0.156815,0 0.283941,0.127134 0.283941,0.283945 0,0.156815 -0.127126,0.283941 -0.283941,0.283941 -0.0783976,0 -0.14939,-0.0317874 -0.200776,-0.0831693 -0.0513819,-0.0513858 -0.0831693,-0.122378 -0.0831693,-0.200772 0,-0.0784016 0.0317835,-0.149394 0.0831732,-0.200772 0.051378,-0.0513898 0.12237,-0.0831732 0.200772,-0.0831732zm-0.251654 0.0322913c-0.0643937,0.0643976 -0.104228,0.153374 -0.104228,0.25165 0,0.0982795 0.0398346,0.18726 0.104228,0.251654 0.0643976,0.0643976 0.153374,0.104228 0.25165,0.104228 0.0982795,0 0.18726,-0.0398307 0.251654,-0.104228 0.0643976,-0.0643937 0.104228,-0.153374 0.104228,-0.251654 0,-0.0982756 -0.0398307,-0.187252 -0.104228,-0.25165 -0.0643937,-0.0643937 -0.153374,-0.104228 -0.251654,-0.104228 -0.0982756,0 -0.187252,0.0398346 -0.25165,0.104228z"/>
 </g>
 <rect class="fil6" width="6.82666" height="6.82666"/>
</svg>
