<?xml version="1.0" encoding="UTF-8"?>
<!DOCTYPE svg PUBLIC "-//W3C//DTD SVG 1.1//EN" "http://www.w3.org/Graphics/SVG/1.1/DTD/svg11.dtd">
<!-- Creator: CorelDRAW -->
<svg xmlns="http://www.w3.org/2000/svg" xml:space="preserve" width="6.82666in" height="6.82666in" style="shape-rendering:geometricPrecision; text-rendering:geometricPrecision; image-rendering:optimizeQuality; fill-rule:evenodd; clip-rule:evenodd"
viewBox="0 0 6.82666 6.82666"
 xmlns:xlink="http://www.w3.org/1999/xlink">
 <defs>
  <style type="text/css">
   <![CDATA[
    .fil5 {fill:none}
    .fil0 {fill:#949494}
    .fil4 {fill:#9DD5C0}
    .fil1 {fill:#F45A52}
    .fil3 {fill:#FFD3B3}
    .fil2 {fill:#333333;fill-rule:nonzero}
   ]]>
  </style>
 </defs>
 <g id="Layer_x0020_1">
  <metadata id="CorelCorpID_0Corel-Layer"/>
  <path class="fil0" d="M1.96401 1.23711l0.644142 0c-0.000759843,0.0183898 -0.00717323,0.0371811 -0.0212953,0.0539646 -0.0275591,0.0327677 -0.0233386,0.081685 0.00943307,0.109244 0.0327717,0.027563 0.081685,0.0233425 0.109244,-0.00942913 0.0146575,-0.0174173 0.0262874,-0.0355591 0.0351969,-0.0540669 0.0355079,-0.0737677 0.027811,-0.153386 -0.00358268,-0.216453 -0.015063,-0.0302638 -0.036311,-0.0572795 -0.0614331,-0.0783858 -0.027252,-0.0229016 -0.0589528,-0.0386339 -0.0925984,-0.0442638 -0.027811,-0.00465354 -0.0560551,-0.00300394 -0.0832953,0.00638583 -0.011752,-0.0209921 -0.0257126,-0.0401339 -0.0414843,-0.0569213 -0.0454606,-0.048378 -0.10561,-0.0776339 -0.172256,-0.0776339 -0.0666457,0 -0.126791,0.0292559 -0.172248,0.0776339 -0.0157717,0.0167874 -0.0297362,0.0359252 -0.0414921,0.0569213 -0.0272402,-0.00938976 -0.0554803,-0.0110433 -0.0832913,-0.00638583 -0.0336417,0.00562992 -0.0653465,0.0213583 -0.0926024,0.0442598 -0.025122,0.0211063 -0.0463701,0.048122 -0.061437,0.0783898 -0.0313937,0.0630669 -0.0390866,0.142701 -0.00357087,0.216469 0.00890945,0.0185039 0.0205354,0.0366378 0.035189,0.0540512 0.0275591,0.0327717 0.0764764,0.0369921 0.109244,0.00942913 0.0327717,-0.0275591 0.0369921,-0.0764764 0.00943307,-0.109244 -0.014122,-0.0167795 -0.0205315,-0.0355748 -0.0212953,-0.0539646z"/>
  <path class="fil1" d="M1.72574 4.39908l0.0066811 1.1811e-005c-0.000807087,-1.1811e-005 -0.00161417,-1.1811e-005 -0.00242126,-3.93701e-006 -0.00144094,1.5748e-005 -0.00287795,5.90551e-005 -0.00430709,0.000129921 1.5748e-005,-4.72441e-005 3.14961e-005,-9.05512e-005 4.72441e-005,-0.000137795zm0.633512 -1.48446c-0.00389764,0.0108228 -0.0100236,0.0203346 -0.0177205,0.0281339 -6.69291e-005,7.08661e-005 -0.000137795,0.000137795 -0.000204724,0.000208661 0.00795669,-0.00803937 0.0140787,-0.0177283 0.0179252,-0.0283425zm-0.148937 -0.00879134l0.000307087 0.00120866c-0.000106299,-0.000370079 -0.00019685,-0.000744094 -0.000283465,-0.00111417 -7.87402e-006,-3.14961e-005 -1.5748e-005,-6.29921e-005 -2.3622e-005,-9.44882e-005zm-0.39235 0.10385c0.118878,0.758394 0.0559055,0.946551 -0.0711693,1.32624 -0.00677165,0.0202283 -0.013748,0.0410748 -0.0210551,0.0631614l-0.10548 0c-0.0573622,0 -0.10387,0.0465079 -0.10387,0.10387 0,0.0528701 0.0395039,0.0965157 0.0905984,0.103035 0.00139764,8.26772e-005 0.00274016,0.000165354 0.00400787,0.000240157 0.00434252,0.000259843 0.00750787,0.000448819 0.0114213,0.000598425l0.210311 0 0.289083 0 0.207594 0 0.0374724 0 0.207579 0 0.310827 0 0.136713 0c0.0573661,0 0.103874,-0.0465079 0.103874,-0.103874 0,-0.0573622 -0.0465079,-0.10387 -0.103874,-0.10387l-0.0541772 0c-0.0118583,-0.0289567 -0.0250315,-0.0588661 -0.038626,-0.0897323 -0.12324,-0.279882 -0.277339,-0.630024 -0.000862205,-1.32046 0.00648031,-0.0206417 0.0194409,-0.0394331 0.0383386,-0.0530551 0.0465354,-0.0335433 0.111453,-0.0230157 0.144996,0.0235197l-0.000267717 0.000283465c0.200906,0.278713 0.404524,0.228559 0.615787,0.17652 0.0902205,-0.0222244 0.181594,-0.0447323 0.280205,-0.0502835 0.0643228,-0.0217205 0.0968189,-0.0513307 0.105929,-0.0812677 0.00373228,-0.0122835 0.00344094,-0.0258189 -0.000153543,-0.0394291 -0.00427165,-0.0161575 -0.013126,-0.0321378 -0.0256142,-0.046563 -0.0331969,-0.0383543 -0.0895236,-0.0632913 -0.154827,-0.0540433 -0.0549094,0.00764961 -0.0914213,0.0133504 -0.125181,0.0186181 -0.342083,0.0533976 -0.472929,0.0738228 -0.797319,-0.283567 -0.100827,-0.111094 -0.21935,-0.190937 -0.350055,-0.239106 -0.0484134,-0.0178425 -0.0985984,-0.0314134 -0.150287,-0.040689l-0.147996 0.585909c7.87402e-006,-2.3622e-005 1.1811e-005,-4.33071e-005 1.5748e-005,-6.69291e-005 0.00269291,-0.0116102 0.00274409,-0.0240118 -0.00034252,-0.0363661l-0.0754685 -0.298776 -0.0654213 -0.258996 -0.0283701 -0.112323c-0.0104173,-0.0416772 -0.0526575,-0.0670197 -0.0943346,-0.0566024 -0.0416772,0.0104173 -0.0670157,0.0526575 -0.0566024,0.0943307l0.0261929 0.103701c-0.261799,0.0681102 -0.460764,0.22078 -0.613441,0.431024 -0.18826,0.259244 -0.309228,0.606429 -0.391433,0.992906 -0.00880709,0.0824528 0.0149252,0.137732 0.049752,0.162677 0.0100118,0.00717323 0.0203898,0.0115354 0.030315,0.0128819 0.00913386,0.00123622 0.0186732,6.29921e-005 0.0278976,-0.0036811 0.0318307,-0.0129252 0.0601339,-0.0551181 0.0701772,-0.133039 0.000503937,-0.0073189 0.00178346,-0.014689 0.00392126,-0.0220197l0.000358268 0.000102362c0.0598543,-0.205496 0.114551,-0.356831 0.175382,-0.483524 0.0611614,-0.127382 0.12737,-0.228201 0.209701,-0.33139 0.0156102,-0.0226496 0.040126,-0.0390945 0.0694449,-0.0436929 0.0566772,-0.00888189 0.109823,0.0298583 0.118705,0.0865315l-0.000370079 0.00026378z"/>
  <path class="fil2" d="M2.71888 1.29552c0.0216811,0.0367992 0.0387638,0.0762835 0.0504606,0.117661 0.0124055,0.043878 0.0190512,0.0897165 0.0190512,0.136606 0,0.138693 -0.0562283,0.264268 -0.14713,0.355173 -0.0909016,0.0909016 -0.21648,0.147126 -0.355173,0.147126 -0.138693,0 -0.264272,-0.0562323 -0.355169,-0.14713 -0.0909055,-0.0908976 -0.14713,-0.21648 -0.14713,-0.355169 0,-0.0468898 0.00664173,-0.0927283 0.0190472,-0.136602 0.0126457,-0.0447126 0.0315787,-0.0872165 0.0557953,-0.126504l-0.000334646 -0.000208661c0.019874,-0.0322323 0.0545118,-0.0497992 0.089811,-0.0493583l0.677358 0c0.0410591,0 0.0765551,0.0238307 0.0934134,0.0584055zm-0.149161 0.173657c-0.00234252,-0.00829134 -0.00501969,-0.0164055 -0.00801181,-0.0243189l-0.551228 0c-0.00299213,0.00791732 -0.00566929,0.0160315 -0.00801575,0.0243228 -0.00711811,0.0251693 -0.0109331,0.0521929 -0.0109331,0.0806063 0,0.0813465 0.0329724,0.154992 0.0862677,0.208291 0.0532992,0.0532953 0.126941,0.0862638 0.208291,0.0862638 0.0813543,0 0.155,-0.0329646 0.208295,-0.0862598 0.0532953,-0.0532992 0.0862638,-0.126945 0.0862638,-0.208295 0,-0.0284134 -0.00381102,-0.055437 -0.0109291,-0.0806102z"/>
  <path class="fil2" d="M2.33513 4.50863c0.00313386,-0.0571417 -0.0406417,-0.106008 -0.0977835,-0.109146 -0.0571417,-0.00313386 -0.106012,0.0406417 -0.10915,0.0977835l-0.0671496 1.15226 -0.000248031 -1.5748e-005c-0.000122047,0.00202362 -0.000169291,0.00403937 -0.000173228,0.00604331l-3.93701e-006 0c0,0.0232441 -0.0117402,0.0450394 -0.0307087,0.0614764 -0.0230512,0.0199764 -0.0560709,0.0323425 -0.0935551,0.0323425 -0.0374882,0 -0.0705039,-0.0123661 -0.0935551,-0.0323425 -0.0189685,-0.016437 -0.0307087,-0.0382323 -0.0307087,-0.0614764 0,-0.249201 0.0049685,-0.427819 0.0104685,-0.625665 0.00424409,-0.152642 0.00880315,-0.316374 0.0118228,-0.525445l0.000397638 7.87402e-006c0.000822835,-0.0573583 -0.0450039,-0.104535 -0.102362,-0.105358 -0.00225984,-3.14961e-005 -0.00450394,1.5748e-005 -0.00672835,0.000125984 0.00732677,-0.0221378 0.014315,-0.0430276 0.0211024,-0.0632992 0.127075,-0.379693 0.190047,-0.56785 0.0711693,-1.32624l0.000370079 -0.00026378c-0.00888189,-0.0566732 -0.0620276,-0.0954134 -0.118705,-0.0865315 -0.0293189,0.00459843 -0.0538346,0.0210433 -0.0694449,0.0436929 -0.0823307,0.103189 -0.148539,0.204008 -0.209701,0.33139 -0.0608307,0.126693 -0.115528,0.278028 -0.175382,0.483524l-0.000358268 -0.000102362c-0.0021378,0.00733071 -0.00341732,0.0147008 -0.00392126,0.0220197 -0.0100433,0.0779213 -0.0383465,0.120114 -0.0701772,0.133039 -0.00922441,0.00374409 -0.0187638,0.00491732 -0.0278976,0.0036811 -0.0099252,-0.00134646 -0.0203031,-0.00570866 -0.030315,-0.0128819 -0.0348268,-0.0249449 -0.0585591,-0.0802244 -0.049752,-0.162677 0.0822047,-0.386476 0.203173,-0.733661 0.391433,-0.992906 0.182012,-0.250638 0.429807,-0.419453 0.771417,-0.460728l-1.5748e-005 -0.000165354 0.000275591 -2.75591e-005 3.14961e-005 0.000255906c0.00187402,-0.000228346 0.00372441,-0.000503937 0.00555906,-0.000826772 0.15235,-0.0150906 0.297138,0.00182283 0.428787,0.0503465 0.130705,0.0481693 0.249228,0.128012 0.350055,0.239106 0.32439,0.35739 0.455236,0.336965 0.797319,0.283567 0.0337598,-0.00526772 0.0702717,-0.0109685 0.125181,-0.0186181 0.0653031,-0.00924803 0.12163,0.015689 0.154827,0.0540433 0.0124882,0.0144252 0.0213425,0.0304055 0.0256142,0.046563 0.00359449,0.0136102 0.00388583,0.0271457 0.000153543,0.0394291 -0.00911024,0.029937 -0.0416063,0.0595472 -0.105929,0.0812677 -0.0986102,0.00555118 -0.189984,0.0280591 -0.280205,0.0502835 -0.211264,0.0520394 -0.414882,0.102193 -0.615787,-0.17652l0.000267717 -0.000283465c-0.0335433,-0.0465354 -0.0984606,-0.057063 -0.144996,-0.0235197 -0.0188976,0.013622 -0.0318583,0.0324134 -0.0383386,0.0530551 -0.276476,0.690437 -0.122378,1.04058 0.000862205,1.32046 0.0139409,0.0316496 0.027437,0.0622953 0.0395276,0.091937 -0.0471102,0.00985433 -0.0825,0.0516299 -0.0825,0.101665 0,0.00259843 0.000102362,0.0051811 0.000287402,0.00772835 -0.00565748,0.422402 -0.0055748,0.672031 -0.00546063,0.997437 0.000200787,0.506122 -0.000374016,-0.723378 -0.000374016,0.146382 0,0.0229488 -0.0115984,0.0444882 -0.0303504,0.0607283 -0.0228346,0.0197874 -0.0555433,0.0320315 -0.0926969,0.0320315 -0.0371575,0 -0.0698661,-0.0122402 -0.0927047,-0.0320315 -0.018748,-0.0162441 -0.0303504,-0.0377756 -0.0303504,-0.0607283 0,-0.00449213 -0.000283465,-0.0089252 -0.000838583,-0.0132677l-0.0652244 -1.13822c-0.0031378,-0.0571417 -0.0520039,-0.100921 -0.109146,-0.0977835 -0.0571417,0.00313386 -0.100921,0.0520039 -0.0977835,0.109146l0.0652638 1.13898 -1.5748e-005 0.00114961c0,0.0856378 0.0392087,0.162429 0.102579,0.217346 0.0592913,0.051374 0.140055,0.0831575 0.22822,0.0831575 0.0881614,0 0.168921,-0.0317835 0.228213,-0.0831575 0.0600236,-0.0520039 0.0983543,-0.123642 0.102244,-0.203831 2.75591e-005,0.0182874 5.90551e-005,0.0148583 8.66142e-005,-0.00176772l-8.66142e-005 0.00176772 -1.9685e-005 -0.0135157 0.000122047 0c0.000137795,-0.112461 0.000232283,-0.53002 0.000232283,0 0,0.00393307 -8.66142e-005,0.00785039 -0.000248031,0.011748l1.5748e-005 -0.011748 -0.000122047 0c-2.75591e-005,-0.0256535 -5.51181e-005,-0.0719843 -8.66142e-005,-0.146382 -9.84252e-005,-0.299354 -0.000181102,-0.534307 0.00426772,-0.901291l0.0169055 0c0.00797638,0.000125984 0.0160866,-0.000661417 0.0242126,-0.00246457 0.0560079,-0.0124094 0.0913465,-0.067874 0.078937,-0.123882l-0.000393701 8.66142e-005c-0.0196457,-0.0886102 -0.0547441,-0.168311 -0.0928268,-0.254799 -0.0980472,-0.222677 -0.21848,-0.496217 -0.0549843,-1.00369 0.239689,0.231772 0.472417,0.174488 0.712591,0.115327 0.0823307,-0.0202795 0.165717,-0.0408228 0.244992,-0.0449449 0.0112992,0.000433071 0.0228622,-0.000976378 0.0342835,-0.00446063l-0.000122047 -0.000397638c0.147496,-0.045 0.227024,-0.129425 0.255476,-0.222945 0.0154724,-0.0508661 0.0153268,-0.102898 0.0022874,-0.152224 -0.0123661,-0.0467677 -0.0363504,-0.0911142 -0.0694331,-0.129335 -0.0751535,-0.0868268 -0.199224,-0.143752 -0.339846,-0.123831 -0.0368346,0.00512992 -0.0843583,0.0125512 -0.128429,0.0194291 -0.262193,0.0409252 -0.362484,0.0565787 -0.612295,-0.218646 -0.123705,-0.136299 -0.269996,-0.234575 -0.432024,-0.294291 -0.161193,-0.0594055 -0.337236,-0.0801457 -0.521327,-0.0617047 -0.00309843,9.44882e-005 -0.00620866,0.000318898 -0.00934646,0.000700787l1.1811e-005 9.44882e-005c-0.40587,0.0491102 -0.699618,0.248799 -0.91478,0.545091 -0.206701,0.284642 -0.337969,0.657862 -0.425846,1.07022 -0.00157874,0.00545276 -0.00274016,0.0111142 -0.0034252,0.0169409l0.000106299 0.000326772c-0.0198228,0.169134 0.0439094,0.293669 0.134555,0.358598 0.0372835,0.0267126 0.0796378,0.043437 0.123638,0.0494016 0.0447992,0.0060748 0.0904252,0.000791339 0.133386,-0.0166614 0.0954213,-0.0387559 0.176736,-0.135823 0.198008,-0.298701 0.0556063,-0.18989 0.105803,-0.328768 0.160571,-0.442835 0.0138504,-0.0288465 0.0280669,-0.0562126 0.0428189,-0.0825354 0.057622,0.495815 0.000909449,0.665382 -0.0995315,0.965492 -0.0206378,0.0616693 -0.0429291,0.128283 -0.0634252,0.193531 -0.00381102,0.00994094 -0.00615354,0.0206417 -0.00672835,0.0318543 -0.00294488,0.0572874 0.0411102,0.106126 0.0983976,0.109071l6.29921e-005 -0.000271654c0.0102795,0.000527559 0.0231457,0.00130315 0.0322756,0.00185433 0.0055,0.000326772 0.00911417,0.000547244 0.0147441,0.000708661 -0.00284252,0.156114 -0.00657874,0.290484 -0.0101063,0.417272 -0.0059252,0.213197 -0.0112835,0.405681 -0.0112835,0.631346 0,0.0859291 0.0393425,0.162992 0.102937,0.218094 0.0595039,0.0515669 0.140567,0.0834646 0.229071,0.0834646 0.0885,0 0.169567,-0.0318976 0.229071,-0.0834646 0.0635945,-0.0551024 0.102933,-0.132165 0.102933,-0.218094l-7.48031e-005 0 0.0668425 -1.14692z"/>
  <polygon class="fil2" points="5.86946,4.19134 3.17119,4.19134 3.17119,3.9836 5.86946,3.9836 "/>
  <path class="fil2" d="M5.40774 4.15807c0.0389882,-0.0419055 0.036626,-0.107484 -0.00527559,-0.146472 -0.0419016,-0.0389882 -0.107484,-0.0366299 -0.146472,0.00527559l-1.6231 1.74443c-0.0389882,0.0419016 -0.0366299,0.107484 0.00527559,0.146472 0.0419016,0.0389882 0.10748,0.036626 0.146472,-0.00527559l1.6231 -1.74443z"/>
  <path class="fil2" d="M3.78465 4.01687c-0.0389921,-0.0419055 -0.104571,-0.0442638 -0.146472,-0.00527559 -0.0419055,0.0389882 -0.0442638,0.104567 -0.00527559,0.146472l1.6231 1.74443c0.0389882,0.0419016 0.104571,0.0442638 0.146472,0.00527559 0.0419016,-0.0389882 0.0442638,-0.104571 0.00527559,-0.146472l-1.6231 -1.74443z"/>
  <path class="fil2" d="M2.58686 1.29107c-0.0275591,0.0327677 -0.0233386,0.081685 0.00943307,0.109244 0.0327717,0.027563 0.081685,0.0233425 0.109244,-0.00942913 0.0730748,-0.0868346 0.0708858,-0.19163 0.0316142,-0.27052 -0.015063,-0.0302638 -0.036311,-0.0572795 -0.0614331,-0.0783858 -0.027252,-0.0229016 -0.0589528,-0.0386339 -0.0925984,-0.0442638 -0.027811,-0.00465354 -0.0560551,-0.00300394 -0.0832953,0.00638583 -0.011752,-0.0209921 -0.0257126,-0.0401339 -0.0414843,-0.0569213 -0.0454606,-0.048378 -0.10561,-0.0776339 -0.172256,-0.0776339 -0.0666457,0 -0.126791,0.0292559 -0.172248,0.0776339 -0.0157717,0.0167874 -0.0297362,0.0359252 -0.0414921,0.0569213 -0.0272402,-0.00938976 -0.0554803,-0.0110433 -0.0832913,-0.00638583 -0.0336417,0.00562992 -0.0653465,0.0213583 -0.0926024,0.0442598 -0.025122,0.0211063 -0.0463701,0.048122 -0.061437,0.0783898 -0.0392677,0.0788858 -0.0414528,0.183689 0.0316181,0.27052 0.0275591,0.0327717 0.0764764,0.0369921 0.109244,0.00942913 0.0327717,-0.0275591 0.0369921,-0.0764764 0.00943307,-0.109244 -0.0269646,-0.0320394 -0.025811,-0.0714094 -0.0109213,-0.101323 0.00602362,-0.0121102 0.0135906,-0.0221339 0.021878,-0.0290945 0.00614961,-0.00516929 0.0124843,-0.00858268 0.0183504,-0.00956693 0.00732283,-0.00122047 0.0171929,0.00482677 0.0286535,0.021563 0.0118465,0.0206339 0.0329646,0.0355945 0.0584055,0.0386181 0.0427244,0.00507087 0.0814685,-0.0254488 0.0865433,-0.0681732l-0.0773583 -0.00918504 0.0772913 0.00912598c0.00431496,-0.0363425 0.0185472,-0.0676969 0.0388858,-0.0893425 0.0165945,-0.0176614 0.0372913,-0.0283386 0.0590472,-0.0283386 0.0217598,0 0.0424606,0.0106772 0.0590512,0.0283386 0.0198386,0.0211142 0.0338622,0.0514685 0.0385433,0.0866811 0.00195669,0.0232559 0.0142913,0.0453819 0.0354173,0.0590039 0.0361575,0.023311 0.084374,0.0128976 0.107685,-0.0232598l-0.0654724 -0.0422126 0.0654291 0.0419961c0.0123819,-0.0192087 0.0230394,-0.0261142 0.0308189,-0.024815 0.0058622,0.000984252 0.0121929,0.00439764 0.0183465,0.00957087 0.0082874,0.00696063 0.0158504,0.0169843 0.021878,0.0290906 0.0148937,0.0299173 0.0160433,0.0692835 -0.0109213,0.101323z"/>
  <path class="fil2" d="M3.02199 4.60682c0.0573661,0 0.103874,-0.0465079 0.103874,-0.103874 0,-0.0573622 -0.0465079,-0.10387 -0.103874,-0.10387l-1.40174 0c-0.0573622,0 -0.10387,0.0465079 -0.10387,0.10387 0,0.0573661 0.0465079,0.103874 0.10387,0.103874l1.40174 0z"/>
  <path class="fil2" d="M2.53081 2.23693c0.0104173,-0.0416732 -0.0149252,-0.0839134 -0.0566024,-0.0943307 -0.0416772,-0.0104173 -0.0839173,0.0149252 -0.0943346,0.0566024l-0.16926 0.670094c-0.0104134,0.0416772 0.0149252,0.0839173 0.0566024,0.0943346 0.0416772,0.0104134 0.0839173,-0.0149252 0.0943346,-0.0566024l0.16926 -0.670098z"/>
  <path class="fil2" d="M2.1923 2.1992c-0.0104173,-0.0416772 -0.0526575,-0.0670197 -0.0943346,-0.0566024 -0.0416772,0.0104173 -0.0670157,0.0526575 -0.0566024,0.0943307l0.16926 0.670098c0.0104173,0.0416772 0.0526575,0.0670157 0.0943346,0.0566024 0.0416772,-0.0104173 0.0670197,-0.0526575 0.0566024,-0.0943346l-0.16926 -0.670094z"/>
  <path class="fil2" d="M5.03207 3.72583c-0.0573622,0 -0.10387,0.0465079 -0.10387,0.10387 0,0.0573661 0.0465079,0.103874 0.10387,0.103874l0.837394 0c0.0573661,0 0.10387,-0.0465079 0.10387,-0.103874 0,-0.0573622 -0.0465039,-0.10387 -0.10387,-0.10387l-0.837394 0z"/>
  <path class="fil2" d="M5.03207 3.45231c-0.0573622,0 -0.10387,0.0465079 -0.10387,0.103874 0,0.0573622 0.0465079,0.10387 0.10387,0.10387l0.837394 0c0.0573661,0 0.10387,-0.0465079 0.10387,-0.10387 0,-0.0573661 -0.0465039,-0.103874 -0.10387,-0.103874l-0.837394 0z"/>
  <path class="fil2" d="M5.03207 3.17878c-0.0573622,0 -0.10387,0.0465079 -0.10387,0.10387 0,0.0573661 0.0465079,0.10387 0.10387,0.10387l0.837394 0c0.0573661,0 0.10387,-0.0465039 0.10387,-0.10387 0,-0.0573622 -0.0465039,-0.10387 -0.10387,-0.10387l-0.837394 0z"/>
  <path class="fil2" d="M4.83107 2.91862l0 0.953224c0,0.0397717 -0.0322441,0.0720157 -0.0720157,0.0720157l-0.439866 0c-0.0397717,0 -0.0720197,-0.0322441 -0.0720197,-0.0720157 0,-0.0113976 0.00265354,-0.0221732 0.00736614,-0.031752 0.00288976,-0.0104134 -0.00240551,-0.0257992 -0.0103228,-0.0487795 -0.0174567,-0.050685 -0.0419134,-0.121689 -0.0419134,-0.251185 0,-0.13526 0.0685197,-0.316083 0.178831,-0.45752 0.0956535,-0.122642 0.224051,-0.21828 0.369768,-0.235445 0.0394606,-0.00450394 0.0751102,0.0238346 0.0796102,0.0632953 0.000314961,0.00274409 0.000464567,0.00546457 0.000464567,0.00816142l9.84252e-005 0zm-0.144035 0.881205l0 -0.78789c-0.0722205,0.0308189 -0.138315,0.0891339 -0.192811,0.159004 -0.0912283,0.116965 -0.147886,0.262764 -0.147886,0.369189 0,0.105677 0.0198583,0.163335 0.0340315,0.204488 0.00698819,0.0202874 0.0130866,0.0380039 0.0167992,0.0552087l0.289866 0z"/>
  <path class="fil2" d="M4.37564 3.45566c0,-0.0430197 0.0348819,-0.0779016 0.0779016,-0.0779016 0.0430236,0 0.0779016,0.0348819 0.0779016,0.0779016l0 0.172449c0,0.0430197 -0.034878,0.0779016 -0.0779016,0.0779016 -0.0430197,0 -0.0779016,-0.0348819 -0.0779016,-0.0779016l0 -0.172449z"/>
  <path class="fil3" d="M2.22067 2.31153l0.0654213 0.258996 0.0670827 -0.265587c-0.0399724,-0.000590551 -0.0806063,0.00114961 -0.121791,0.00522835 -0.00183465,0.000322835 -0.00368504,0.000598425 -0.00555906,0.000826772l-3.14961e-005 -0.000255906 -0.000275591 2.75591e-005 1.5748e-005 0.000165354c-0.00162205,0.00019685 -0.00324409,0.000393701 -0.0048622,0.000598425z"/>
  <path class="fil3" d="M1.99153 1.54978c0,0.0813465 0.0329724,0.154992 0.0862677,0.208291 0.0532992,0.0532953 0.126941,0.0862638 0.208291,0.0862638 0.0813543,0 0.155,-0.0329646 0.208295,-0.0862598 0.0532953,-0.0532992 0.0862638,-0.126945 0.0862638,-0.208295 0,-0.0284134 -0.00381102,-0.055437 -0.0109291,-0.0806102 -0.00234252,-0.00829134 -0.00501969,-0.0164055 -0.00801181,-0.0243189l-0.551228 0c-0.00299213,0.00791732 -0.00566929,0.0160315 -0.00801575,0.0243228 -0.00711811,0.0251693 -0.0109331,0.0521929 -0.0109331,0.0806063z"/>
  <path class="fil1" d="M2.57445 4.60682l0.0592756 1.03441c0.000555118,0.00434252 0.000838583,0.00877559 0.000838583,0.0132677 0,0.0229528 0.0116024,0.0444843 0.0303504,0.0607283 0.0228386,0.0197913 0.0555472,0.0320315 0.0927047,0.0320315 0.0371535,0 0.0698622,-0.0122441 0.0926969,-0.0320315 0.018752,-0.0162402 0.0303504,-0.0377795 0.0303504,-0.0607283 0,-0.86976 0.000574803,0.35974 0.000374016,-0.146382 -0.000106299,-0.299933 -0.000185039,-0.535488 0.00423622,-0.901291l-0.310827 0z"/>
  <path class="fil1" d="M1.83272 4.60682c-0.00289764,0.161772 -0.0066378,0.296244 -0.0101654,0.423063 -0.0055,0.197846 -0.0104685,0.376465 -0.0104685,0.625665 0,0.0232441 0.0117402,0.0450394 0.0307087,0.0614764 0.0230512,0.0199764 0.0560669,0.0323425 0.0935551,0.0323425 0.0374843,0 0.0705039,-0.0123661 0.0935551,-0.0323425 0.0189685,-0.016437 0.0307087,-0.0382323 0.0307126,-0.0614764 3.93701e-006,-0.00200394 5.11811e-005,-0.00401969 0.000173228,-0.00604331l0.000248031 1.5748e-005 0.0607638 -1.0427 -0.289083 0z"/>
  <path class="fil4" d="M4.49422 3.17094c-0.0912283,0.116965 -0.147886,0.262764 -0.147886,0.369189 0,0.105677 0.0198583,0.163335 0.0340315,0.204488 0.00698819,0.0202874 0.0130866,0.0380039 0.0167992,0.0552087l0.289866 0 0 -0.78789c-0.0722205,0.0308189 -0.138315,0.0891339 -0.192811,0.159004zm-0.040685 0.206815c0.0430236,0 0.0779016,0.0348819 0.0779016,0.0779016l0 0.172449c0,0.0430197 -0.034878,0.0779016 -0.0779016,0.0779016 -0.0430197,0 -0.0779016,-0.0348819 -0.0779016,-0.0779016l0 -0.172449c0,-0.0430197 0.0348819,-0.0779016 0.0779016,-0.0779016z"/>
 </g>
 <rect class="fil5" width="6.82666" height="6.82666"/>
</svg>
