<?xml version="1.0" encoding="UTF-8"?>
<!DOCTYPE svg PUBLIC "-//W3C//DTD SVG 1.1//EN" "http://www.w3.org/Graphics/SVG/1.1/DTD/svg11.dtd">
<!-- Creator: CorelDRAW -->
<svg xmlns="http://www.w3.org/2000/svg" xml:space="preserve" width="6.82666in" height="6.82666in" style="shape-rendering:geometricPrecision; text-rendering:geometricPrecision; image-rendering:optimizeQuality; fill-rule:evenodd; clip-rule:evenodd"
viewBox="0 0 6.82666 6.82666"
 xmlns:xlink="http://www.w3.org/1999/xlink">
 <defs>
  <style type="text/css">
   <![CDATA[
    .fil4 {fill:none}
    .fil0 {fill:#949494}
    .fil2 {fill:#FECA5F}
    .fil3 {fill:#FFD3B3}
    .fil1 {fill:#333333;fill-rule:nonzero}
   ]]>
  </style>
 </defs>
 <g id="Layer_x0020_1">
  <metadata id="CorelCorpID_0Corel-Layer"/>
  <path class="fil0" d="M3.69885 1.2332l0.640579 0c-3.14961e-005,0.0190039 -0.00614567,0.038622 -0.0207717,0.0560039 -0.0286024,0.0340118 -0.0242244,0.0847717 0.0097874,0.113374 0.0340079,0.0286024 0.0847717,0.0242244 0.113374,-0.0097874 0.015437,-0.0183425 0.0275591,-0.0374803 0.0367205,-0.057 0.0347992,-0.0741614 0.0268504,-0.153921 -0.00465748,-0.21722 -0.0152717,-0.0306693 -0.0368228,-0.0580551 -0.0622992,-0.0794646 -0.0276969,-0.0232756 -0.0599291,-0.0392677 -0.0941535,-0.0449921 -0.0276142,-0.00461811 -0.0556339,-0.00314961 -0.0827126,0.00576772 -0.0116575,-0.0204685 -0.0254055,-0.0391535 -0.0408701,-0.0556142 -0.0460866,-0.0490472 -0.107091,-0.0787087 -0.174705,-0.0787087 -0.0676181,0 -0.128622,0.0296654 -0.174709,0.0787047 -0.0154646,0.0164606 -0.0292165,0.0351457 -0.040874,0.0556142 -0.0270748,-0.00891339 -0.0550945,-0.0103819 -0.0827047,-0.00576378 -0.031122,0.00520866 -0.0605866,0.0189016 -0.0864921,0.0388307 -0.00270472,0.00176772 -0.00533858,0.0037126 -0.00787795,0.00584646l8.66142e-005 0.000102362c-0.025252,0.021248 -0.0467559,0.0487047 -0.0621732,0.0796811 -0.0315039,0.0632953 -0.0394528,0.143055 -0.00466142,0.217205 0.00916142,0.0195276 0.0212874,0.0386654 0.0367283,0.0570118 0.0286024,0.0340118 0.0793661,0.0383898 0.113378,0.0097874 0.0340079,-0.0286024 0.0383898,-0.0793622 0.0097874,-0.113374 -0.0146339,-0.0173858 -0.020748,-0.037 -0.0207795,-0.0560039z"/>
  <path class="fil1" d="M3.7453 1.44879c-0.00261024,0.00709449 -0.00496457,0.0143386 -0.00705512,0.0217323 -0.00704331,0.0249094 -0.0108189,0.0516811 -0.0108189,0.0798425 0,0.0805669 0.0326535,0.153508 0.0854331,0.206287 0.0527795,0.0527795 0.12572,0.0854331 0.206287,0.0854331 0.0805669,0 0.153504,-0.0326496 0.206283,-0.0854331 0.0527795,-0.0527795 0.0854331,-0.12572 0.0854331,-0.206287 0,-0.0281614 -0.00377559,-0.0549331 -0.0108189,-0.0798425 -0.00208661,-0.0073937 -0.00444488,-0.0146378 -0.00705512,-0.0217323l-0.547689 0zm-0.21422 -0.0363819c0.0117874,-0.041689 0.0289882,-0.0814843 0.0508189,-0.118591 0.0174961,-0.0358898 0.0543307,-0.060622 0.0969449,-0.060622l0.679362 0c0.0365591,-0.000385827 0.0724094,0.0178386 0.0929961,0.0512205l-0.000346457 0.000212598c0.0244724,0.0396969 0.0435866,0.0826299 0.0563543,0.12778 0.0125354,0.0443189 0.0192441,0.0906142 0.0192441,0.137957 0,0.140075 -0.0567835,0.266906 -0.148594,0.358717 -0.0918071,0.0918071 -0.218634,0.148594 -0.358713,0.148594 -0.140075,0 -0.266906,-0.0567874 -0.358717,-0.148594 -0.091811,-0.091811 -0.148594,-0.218642 -0.148594,-0.358717 0,-0.0473425 0.00670866,-0.0936378 0.0192441,-0.137957z"/>
  <path class="fil1" d="M4.18109 4.50567c-0.00325197,-0.0592992 -0.0539685,-0.104732 -0.113272,-0.101476 -0.0592992,0.00325197 -0.104732,0.0539685 -0.101476,0.113272l0.0670118 1.14984 -7.87402e-005 0c0,0.0872598 0.0399331,0.165496 0.10448,0.221437 0.0603071,0.0522598 0.142437,0.0845906 0.232071,0.0845906 0.0896339,0 0.171764,-0.0323307 0.232071,-0.0845906 0.0645472,-0.0559409 0.10448,-0.134177 0.10448,-0.221437 0,-0.225854 -0.00537795,-0.419126 -0.0113268,-0.633181 -0.00351181,-0.126177 -0.00722441,-0.259831 -0.010063,-0.41478 0.00387402,-0.000145669 0.00698819,-0.000338583 0.0112795,-0.000590551 0.00922047,-0.000555118 0.0223898,-0.00135039 0.0323543,-0.00185827l6.69291e-005 0.000275591c0.0594528,-0.00305512 0.105169,-0.0537362 0.102114,-0.113189 -0.000598425,-0.0116378 -0.00302756,-0.022748 -0.00698819,-0.0330669 -0.0204606,-0.0651417 -0.0428465,-0.132024 -0.0635551,-0.193906 -0.0997756,-0.298126 -0.156445,-0.467571 -0.100929,-0.955307 0.0128071,0.0232835 0.0252205,0.0474134 0.0373504,0.0726732 0.0547992,0.114134 0.105047,0.253126 0.160709,0.443193 0.0215748,0.16465 0.104012,0.262878 0.200756,0.302165 0.0436693,0.0177323 0.0900512,0.0231102 0.135594,0.016937 0.0447244,-0.00605906 0.0877441,-0.0230512 0.12561,-0.0501772 0.0918622,-0.0658031 0.156469,-0.191874 0.136421,-0.362949l0.000106299 -0.000334646c-0.000708661,-0.00604724 -0.00191339,-0.0119134 -0.00355118,-0.0175748 -0.0882165,-0.413839 -0.220012,-0.788449 -0.427563,-1.07426 -0.216331,-0.297902 -0.511677,-0.498669 -0.919776,-0.548051l1.1811e-005 -0.000102362c-0.00325197,-0.000393701 -0.00648425,-0.000625984 -0.00969291,-0.000728346 -0.185051,-0.0185079 -0.362031,0.00236614 -0.524114,0.0620984 -0.163016,0.0600827 -0.310189,0.158953 -0.434634,0.296063 -0.249189,0.274531 -0.349217,0.258917 -0.61072,0.218102 -0.0443504,-0.00692126 -0.092252,-0.0144016 -0.128835,-0.0194961 -0.142319,-0.0201614 -0.267921,0.0374803 -0.344016,0.125394 -0.0335315,0.0387323 -0.0578504,0.0836969 -0.0703898,0.131138 -0.0132323,0.0500827 -0.0133898,0.102937 0.00233858,0.154618 0.0288583,0.0948543 0.109366,0.180437 0.258583,0.225965l-0.000125984 0.000413386c0.0118504,0.00361417 0.0238425,0.00507874 0.0355669,0.00462992 0.0790236,0.00415354 0.162374,0.024689 0.244661,0.0449567 0.236394,0.0582283 0.465622,0.114622 0.701362,-0.100953 0.107453,0.461929 0.0140748,0.729264 -0.0605354,0.942748 -0.0386535,0.110606 -0.0728858,0.208551 -0.0797047,0.316689l-0.000232283 -1.5748e-005c-0.00370866,0.0594173 0.0414488,0.110598 0.100866,0.114307 0.00225197,0.000137795 0.00449213,0.000200787 0.00671654,0.000204724l0 3.93701e-006 0.015122 0c0.00440945,0.365996 0.00433071,0.601047 0.00422835,0.900319l-3.14961e-005 0.146567 -0.00042126 0c0,0.0869764 0.0397913,0.164945 0.104122,0.220685 0.0600906,0.0520669 0.141913,0.0842795 0.231209,0.0842795 0.0892953,0 0.171122,-0.0322126 0.231213,-0.0842795 0.0643307,-0.055748 0.10413,-0.133717 0.10413,-0.220685l-1.5748e-005 -0.00119291 0.0654291 -1.14184c0.00325197,-0.0593031 -0.0421772,-0.110016 -0.10148,-0.113272 -0.0592992,-0.00325591 -0.110016,0.0421772 -0.113272,0.10148l-0.0653819 1.14106c-0.00057874,0.00450787 -0.000874016,0.00911024 -0.000874016,0.0137717 0,0.0219134 -0.0111496,0.0425354 -0.0291693,0.0581496 -0.0222559,0.0192874 -0.0542165,0.0312205 -0.0905787,0.0312205 -0.0363583,0 -0.068315,-0.0119291 -0.0905709,-0.0312205 -0.0180197,-0.0156102 -0.0291693,-0.0362362 -0.0291693,-0.0581496l-0.00042126 0 3.14961e-005 -0.146567c0.000114173,-0.326335 0.00019685,-0.576642 -0.0054685,-1.00008 0.000192913,-0.00264961 0.000295276,-0.00533071 0.000295276,-0.0080315 0,-0.0571969 -0.0445551,-0.103984 -0.100843,-0.107571 0.0125,-0.0457165 0.029311,-0.0938268 0.0472283,-0.145083 0.0944685,-0.270303 0.215732,-0.61739 0.012311,-1.2629 -0.00629134,-0.022878 -0.0201339,-0.0438425 -0.040878,-0.0587953 -0.0482913,-0.0348071 -0.115669,-0.023878 -0.15048,0.0244134l0.000283465 0.000295276c-0.200016,0.27748 -0.40302,0.227476 -0.61365,0.175594 -0.0904803,-0.0222874 -0.182106,-0.0448622 -0.28115,-0.0504882 -0.0629213,-0.0213268 -0.0946339,-0.0500394 -0.103425,-0.0789409 -0.00353937,-0.0116417 -0.00324803,-0.0245512 0.000188976,-0.037563 0.00414173,-0.0156654 0.0127559,-0.0311929 0.0249173,-0.0452362 0.0325551,-0.0376142 0.0878504,-0.0620551 0.152004,-0.0529685 0.0554094,0.00771654 0.0917717,0.0133976 0.125465,0.0186535 0.344409,0.0537559 0.476154,0.0743228 0.802736,-0.28548 0.100705,-0.110949 0.219059,-0.190689 0.349571,-0.238791 0.131421,-0.0484331 0.275965,-0.0653346 0.428075,-0.0503031 0.00190551,0.000330709 0.00382283,0.00061811 0.00576378,0.000854331l3.14961e-005 -0.00026378 0.000287402 2.75591e-005 -1.9685e-005 0.000173228c0.341413,0.041248 0.589079,0.20998 0.771,0.460504 0.188413,0.259449 0.309516,0.607028 0.391846,0.993996 0.00862598,0.081126 -0.0144646,0.135319 -0.0484094,0.159634 -0.00956693,0.00685433 -0.0194094,0.0110118 -0.0287638,0.0122756 -0.0085315,0.00115748 -0.0174646,5.11811e-005 -0.026122,-0.00346457 -0.0307717,-0.0124961 -0.0582087,-0.0537717 -0.0680984,-0.130264 -0.000523622,-0.00759449 -0.00185039,-0.015252 -0.00406693,-0.0228583l-0.000374016 0.000106299c-0.0600748,-0.206248 -0.114988,-0.358165 -0.176075,-0.48539 -0.0614213,-0.127937 -0.127902,-0.229193 -0.210535,-0.332787 -0.0161969,-0.0235118 -0.0416496,-0.0405787 -0.0720787,-0.0453504 -0.058815,-0.00921654 -0.113969,0.0309882 -0.123189,0.0898031l0.000385827 0.000267717c-0.119339,0.761331 -0.0561024,0.950272 0.0715039,1.33156 0.00629921,0.0188189 0.0127717,0.0381614 0.0195315,0.0585551l-0.00172835 3.93701e-006c-0.0595236,0.000854331 -0.107083,0.049815 -0.106228,0.109339l0.000413386 -7.87402e-006c0.00302756,0.209732 0.00759843,0.373882 0.0118543,0.526906 0.00550787,0.198118 0.0104843,0.376972 0.0104843,0.627283 0,0.0222087 -0.0112874,0.0430945 -0.0295276,0.0589016 -0.0224724,0.0194764 -0.0547362,0.0315315 -0.0914331,0.0315315 -0.0366969,0 -0.0689606,-0.0120551 -0.0914331,-0.0315315 -0.0182402,-0.0158071 -0.0295276,-0.0366929 -0.0295276,-0.0589016l-3.93701e-006 0c-3.93701e-006,-0.00207874 -5.51181e-005,-0.00416929 -0.000177165,-0.00627165l-0.000259843 1.5748e-005 -0.0673346 -1.15538z"/>
  <path class="fil1" d="M3.59647 1.39279c0.0286024,0.0340118 0.0793661,0.0383898 0.113378,0.0097874 0.0340079,-0.0286024 0.0383898,-0.0793622 0.0097874,-0.113374 -0.0262283,-0.0311654 -0.0250945,-0.0694882 -0.0105945,-0.098626 0.00570472,-0.0114567 0.0130512,-0.0211024 0.021248,-0.0279882l-0.0517953 -0.0619016 0.0520039 0.0619016c0.00131496,-0.00110236 0.00257874,-0.00224803 0.00380709,-0.00341339 0.0044685,-0.0031378 0.00892913,-0.00519685 0.0130827,-0.0058937 0.00677165,-0.00112992 0.0164331,0.00548031 0.0281575,0.0236654l0.0678976 -0.0435827 -0.0679449 0.043811c0.0241929,0.0375197 0.0742323,0.0483307 0.111756,0.0241378 0.0219291,-0.0141417 0.0347283,-0.0371142 0.036752,-0.0612559 0.00464173,-0.0346693 0.0184213,-0.0645236 0.0379134,-0.0852598 0.0161299,-0.0171654 0.0361969,-0.0275512 0.0572283,-0.0275512 0.0210276,0 0.0410906,0.0103858 0.0572244,0.0275551 0.0200039,0.0212835 0.0340079,0.052185 0.0382677,0.0880394l0.0802126 -0.00947244 -0.0802795 0.00953937c0.00525984,0.0443346 0.0454764,0.0760039 0.089815,0.0707441 0.0263937,-0.0031378 0.0482953,-0.0186614 0.0605945,-0.040063 0.0107205,-0.0156417 0.0195866,-0.0213661 0.0259252,-0.0203071 0.0053937,0.000901575 0.0112992,0.00411417 0.0170945,0.00898425 0.00801575,0.00673622 0.0153622,0.0164843 0.021248,0.0283071 0.0145,0.0291378 0.0156339,0.0674685 -0.0105866,0.0986299 -0.0286024,0.0340118 -0.0242244,0.0847717 0.0097874,0.113374 0.0340079,0.0286024 0.0847717,0.0242244 0.113374,-0.0097874 0.0740709,-0.0880276 0.0718661,-0.19426 0.032063,-0.27422 -0.0152717,-0.0306693 -0.0368228,-0.0580551 -0.0622992,-0.0794646 -0.0276969,-0.0232756 -0.0599291,-0.0392677 -0.0941535,-0.0449921 -0.0276142,-0.00461811 -0.0556339,-0.00314961 -0.0827126,0.00576772 -0.0116575,-0.0204685 -0.0254055,-0.0391535 -0.0408701,-0.0556142 -0.0460866,-0.0490472 -0.107091,-0.0787087 -0.174705,-0.0787087 -0.0676181,0 -0.128622,0.0296654 -0.174709,0.0787047 -0.0154646,0.0164606 -0.0292165,0.0351457 -0.040874,0.0556142 -0.0270748,-0.00891339 -0.0550945,-0.0103819 -0.0827047,-0.00576378 -0.031122,0.00520866 -0.0605866,0.0189016 -0.0864921,0.0388307 -0.00270472,0.00176772 -0.00533858,0.0037126 -0.00787795,0.00584646l8.66142e-005 0.000102362c-0.025252,0.021248 -0.0467559,0.0487047 -0.0621732,0.0796811 -0.0397992,0.0799606 -0.0420079,0.186201 0.0320669,0.274217z"/>
  <path class="fil1" d="M3.28123 4.40378c-0.0595315,0 -0.107795,0.0482638 -0.107795,0.107795 0,0.0595315 0.0482638,0.107795 0.107795,0.107795l1.40555 0c0.0595315,0 0.107799,-0.0482638 0.107799,-0.107795 0,-0.0595315 -0.0482677,-0.107795 -0.107799,-0.107795l-1.40555 0z"/>
  <path class="fil1" d="M3.92774 2.20089c-0.0108071,-0.043252 -0.0546457,-0.0695512 -0.0978976,-0.0587402 -0.043252,0.0108071 -0.0695472,0.0546457 -0.0587402,0.0978976l0.16972 0.671917c0.010811,0.043252 0.0546457,0.0695512 0.0978976,0.0587402 0.043252,-0.0108071 0.0695512,-0.0546457 0.0587402,-0.0978976l-0.16972 -0.671917z"/>
  <path class="fil1" d="M4.26718 2.24005c0.010811,-0.043252 -0.0154882,-0.0870906 -0.0587402,-0.0978976 -0.043252,-0.010811 -0.0870866,0.0154882 -0.0978976,0.0587402l-0.16972 0.671917c-0.010811,0.043252 0.0154882,0.0870906 0.0587402,0.0978976 0.043252,0.010811 0.0870866,-0.0154882 0.0978976,-0.0587402l0.16972 -0.671917z"/>
  <path class="fil1" d="M1.92395 1.42178c-0.0144724,-0.0422047 -0.0604291,-0.064685 -0.102634,-0.0502126 -0.0422087,0.0144724 -0.064689,0.0604291 -0.0502165,0.102638l0.453886 1.31995c0.0144724,0.0422087 0.0604291,0.064689 0.102634,0.0502165 0.0422047,-0.0144764 0.064689,-0.0604331 0.0502165,-0.102638l-0.453886 -1.31995zm0.625996 1.80181c-0.0149961,-0.0420315 -0.0612362,-0.0639449 -0.103264,-0.0489488 -0.0420315,0.0149961 -0.0639449,0.0612362 -0.0489488,0.103264l0.0760945 0.213051c0.0149921,0.0420315 0.0612323,0.0639449 0.103264,0.0489488 0.0420315,-0.0149961 0.0639449,-0.0612323 0.0489488,-0.103264l-0.0760945 -0.213051z"/>
  <path class="fil1" d="M1.85198 1.38594c-0.0259252,0.0142992 -0.0353504,0.0469213 -0.0210512,0.0728465 0.0142992,0.0259213 0.0469213,0.0353504 0.0728465,0.0210512l0.33963 -0.188008c0.0259213,-0.0142992 0.0353504,-0.0469173 0.0210512,-0.0728425 -0.0142992,-0.0259252 -0.0469213,-0.0353504 -0.0728465,-0.0210512l-0.33963 0.188004z"/>
  <path class="fil1" d="M1.82705 1.39722c-0.0154606,0.0253465 -0.00745276,0.058437 0.0178937,0.0738976 0.0253504,0.0154606 0.0584409,0.00745276 0.0739016,-0.0178937l0.215791 -0.353098c0.0154606,-0.0253465 0.00745276,-0.058437 -0.0178976,-0.0738976 -0.0253465,-0.0154606 -0.058437,-0.00745276 -0.0738976,0.0178937l-0.215791 0.353098z"/>
  <path class="fil1" d="M1.81242 1.414c-0.00372047,0.0294134 0.0171142,0.0562795 0.0465315,0.06 0.0294134,0.00372047 0.0562795,-0.0171142 0.06,-0.0465315l0.0603858 -0.466543c0.00372047,-0.0294134 -0.0171142,-0.0562795 -0.0465276,-0.06 -0.0294134,-0.00372047 -0.0562835,0.0171142 -0.0600039,0.0465276l-0.0603858 0.466547z"/>
  <path class="fil1" d="M1.80588 1.42929c0.00581102,0.0290669 0.0340906,0.0479213 0.0631575,0.0421063 0.0290709,-0.00581102 0.0479213,-0.0340906 0.0421063,-0.0631614l-0.103854 -0.51174c-0.00581102,-0.0290669 -0.0340906,-0.0479173 -0.0631575,-0.0421063 -0.0290709,0.00581496 -0.0479213,0.0340945 -0.0421063,0.0631614l0.103854 0.51174z"/>
  <path class="fil1" d="M1.80443 1.4449c0.0137165,0.0262756 0.0461457,0.0364567 0.0724213,0.0227362 0.0262756,-0.0137165 0.0364567,-0.0461457 0.0227362,-0.0724213l-0.252898 -0.482083c-0.0137205,-0.0262717 -0.0461496,-0.0364567 -0.0724252,-0.0227362 -0.0262717,0.0137165 -0.0364528,0.0461496 -0.0227362,0.0724213l0.252902 0.482083z"/>
  <path class="fil1" d="M1.80817 1.46148c0.0204606,0.0215079 0.0544882,0.0223543 0.0759961,0.0018937 0.0215118,-0.0204646 0.0223583,-0.0544921 0.00189764,-0.076l-0.364957 -0.381898c-0.0204606,-0.0215118 -0.0544921,-0.0223583 -0.076,-0.0018937 -0.0215079,0.0204606 -0.0223543,0.0544882 -0.0018937,0.0759961l0.364957 0.381902z"/>
  <path class="fil1" d="M1.81929 1.47861c0.0261614,0.0139528 0.0586811,0.00405512 0.0726339,-0.0221024 0.0139528,-0.0261614 0.00405512,-0.0586811 -0.0221063,-0.0726339l-0.423626 -0.225858c-0.0261575,-0.0139528 -0.0586811,-0.00405512 -0.0726339,0.0221024 -0.0139528,0.0261614 -0.00405118,0.0586811 0.0221063,0.0726339l0.423626 0.225858z"/>
  <path class="fil1" d="M1.84006 1.49319c0.0296496,0.00255512 0.0557638,-0.0194094 0.0583189,-0.0490551 0.00255512,-0.0296496 -0.0194055,-0.0557638 -0.0490551,-0.0583189l-0.420323 -0.0367756c-0.0296496,-0.00255512 -0.0557677,0.0194094 -0.0583189,0.0490551 -0.00255512,0.0296496 0.0194055,0.0557677 0.0490551,0.0583189l0.420323 0.0367756z"/>
  <path class="fil1" d="M1.8692 1.49725c0.0272047,-0.0119724 0.0395512,-0.0437402 0.0275787,-0.0709488 -0.0119724,-0.0272047 -0.0437402,-0.0395512 -0.0709449,-0.0275787l-0.355539 0.157685c-0.0272047,0.0119724 -0.0395512,0.0437402 -0.0275787,0.0709449 0.0119724,0.0272087 0.0437402,0.0395512 0.0709449,0.0275827l0.355539 -0.157685z"/>
  <path class="fil2" d="M3.37972 2.99602c0.203421,0.645508 0.0821575,0.992594 -0.012311,1.2629 -0.0178898,0.0511732 -0.0346732,0.0992087 -0.0471654,0.144858l1.25402 1.1811e-005 0.00172835 -3.93701e-006c-0.00675984,-0.0203937 -0.0132323,-0.0397362 -0.0195315,-0.0585551 -0.127606,-0.381283 -0.190843,-0.570224 -0.0715039,-1.33156l-0.000385827 -0.000267717c0.00922047,-0.058815 0.064374,-0.0990197 0.123189,-0.0898031 0.0304291,0.00477165 0.0558819,0.0218386 0.0720787,0.0453504 0.0826339,0.103594 0.149114,0.20485 0.210535,0.332787 0.0610866,0.127224 0.116,0.279142 0.176075,0.48539l0.000374016 -0.000106299c0.00221654,0.0076063 0.00354331,0.0152638 0.00406693,0.0228583 0.00988976,0.0764921 0.0373268,0.117768 0.0680984,0.130264 0.00865748,0.00351575 0.0175906,0.00462205 0.026122,0.00346457 0.00935433,-0.00126378 0.0191969,-0.00542126 0.0287638,-0.0122756 0.0339449,-0.024315 0.0570354,-0.0785079 0.0484094,-0.159634 -0.0823307,-0.386969 -0.203433,-0.734547 -0.391846,-0.993996 -0.152079,-0.209425 -0.350098,-0.361693 -0.610421,-0.430114l-0.142209 0.563008c-0.000106299,0.00046063 -0.000216535,0.000917323 -0.000346457,0.00137008 -0.000681102,0.00277559 -0.00152362,0.0055 -0.0025,0.00816929 -5.90551e-005,0.000161417 -0.000122047,0.000326772 -0.000181102,0.000488189 -0.00405906,0.0109094 -0.0103071,0.0205118 -0.0181102,0.0284173 -0.00828346,0.00842913 -0.0185079,0.015126 -0.0302008,0.0193189 -0.00253543,0.000913386 -0.00511811,0.00170079 -0.00774803,0.00234646 -0.00632677,0.00160236 -0.0128976,0.00243307 -0.0195787,0.00242913 -0.000181102,0 -0.000362205,0 -0.00053937,-3.93701e-006 -0.00649606,-3.54331e-005 -0.0128819,-0.000866142 -0.0190394,-0.0024252 -0.00262992,-0.000645669 -0.0052126,-0.00143307 -0.00774803,-0.00234646 -0.000248031,-9.05512e-005 -0.000496063,-0.000181102 -0.000744094,-0.000271654 -0.0113819,-0.00420472 -0.0213465,-0.0107953 -0.0294567,-0.0190472 -4.72441e-005,-4.72441e-005 -9.05512e-005,-9.44882e-005 -0.000137795,-0.000137795 -0.00801575,-0.00820079 -0.0142087,-0.0180236 -0.0181535,-0.0287677 -0.000976378,-0.00266929 -0.0018189,-0.0053937 -0.0025,-0.00816929 -0.000129921,-0.000452756 -0.000240157,-0.000909449 -0.000350394,-0.00138976l-0.147528 -0.584055c-0.0507598,0.00925197 -0.100063,0.0226535 -0.147646,0.040189 -0.130512,0.0481024 -0.248866,0.127843 -0.349571,0.238791 -0.326583,0.359803 -0.458327,0.339236 -0.802736,0.28548 -0.0336929,-0.00525591 -0.0700551,-0.010937 -0.125465,-0.0186535 -0.0641535,-0.00908661 -0.119449,0.0153543 -0.152004,0.0529685 -0.0121614,0.0140433 -0.0207756,0.0295709 -0.0249173,0.0452362 -0.00343701,0.0130118 -0.00372835,0.0259213 -0.000188976,0.037563 0.00879134,0.0289016 0.0405039,0.0576142 0.103425,0.0789409 0.0990433,0.00562598 0.190669,0.0282008 0.28115,0.0504882 0.21063,0.0518819 0.413634,0.101886 0.61365,-0.175594l-0.000283465 -0.000295276c0.034811,-0.0482913 0.102189,-0.0592205 0.15048,-0.0244134 0.0207441,0.0149528 0.0345866,0.0359173 0.040878,0.0587953z"/>
  <path class="fil2" d="M4.18772 4.61937l0.0607087 1.04169 0.000259843 -1.5748e-005c0.000122047,0.00210236 0.000173228,0.00419291 0.000181102,0.00627165 0,0.0222087 0.0112874,0.0430945 0.0295276,0.0589016 0.0224724,0.0194764 0.0547362,0.0315315 0.0914331,0.0315315 0.0366969,0 0.0689606,-0.0120551 0.0914331,-0.0315315 0.0182402,-0.0158071 0.0295276,-0.0366929 0.0295276,-0.0589016 0,-0.250311 -0.00497638,-0.429165 -0.0104843,-0.627283 -0.00351181,-0.126209 -0.00723622,-0.259984 -0.0101299,-0.420657l-0.282457 0z"/>
  <path class="fil2" d="M3.42199 4.61937c0.00438583,0.364787 0.00430709,0.600457 0.00420079,0.900319l-3.14961e-005 0.146567 0.00042126 0c0,0.0219134 0.0111496,0.0425394 0.0291693,0.0581496 0.0222559,0.0192913 0.0542126,0.0312205 0.0905709,0.0312205 0.0363622,0 0.0683228,-0.0119331 0.0905787,-0.0312205 0.0180197,-0.0156142 0.0291693,-0.0362362 0.0291693,-0.0581496 0,-0.00466142 0.000295276,-0.00926378 0.000874016,-0.0137717l0.0591969 -1.03311 -0.30415 0z"/>
  <path class="fil3" d="M3.72742 1.55037c0,0.0805669 0.0326535,0.153508 0.0854331,0.206287 0.0527795,0.0527795 0.12572,0.0854331 0.206287,0.0854331 0.0805669,0 0.153504,-0.0326496 0.206283,-0.0854331 0.0527795,-0.0527795 0.0854331,-0.12572 0.0854331,-0.206287 0,-0.0281614 -0.00377559,-0.0549331 -0.0108189,-0.0798425 -0.00208661,-0.0073937 -0.00444488,-0.0146378 -0.00705512,-0.0217323l-0.547689 0c-0.00261024,0.00709449 -0.00496457,0.0143386 -0.00705512,0.0217323 -0.00704331,0.0249094 -0.0108189,0.0516811 -0.0108189,0.0798425z"/>
  <path class="fil3" d="M3.95559 2.31116l0.0635472 0.251587 0.0619724 -0.245343c-0.000559055,-7.08661e-005 -0.00111811,-0.000137795 -0.00167717,-0.000204724l1.9685e-005 -0.000173228 -0.000287402 -2.75591e-005 -3.14961e-005 0.00026378c-0.00194094,-0.00023622 -0.00385827,-0.000523622 -0.00576378,-0.000854331 -0.039811,-0.00393307 -0.0791063,-0.0056811 -0.11778,-0.00524803z"/>
 </g>
 <rect class="fil4" width="6.82666" height="6.82666"/>
</svg>
