<?xml version="1.0" encoding="UTF-8"?>
<!DOCTYPE svg PUBLIC "-//W3C//DTD SVG 1.1//EN" "http://www.w3.org/Graphics/SVG/1.1/DTD/svg11.dtd">
<!-- Creator: CorelDRAW -->
<svg xmlns="http://www.w3.org/2000/svg" xml:space="preserve" width="6.82666in" height="6.82666in" style="shape-rendering:geometricPrecision; text-rendering:geometricPrecision; image-rendering:optimizeQuality; fill-rule:evenodd; clip-rule:evenodd"
viewBox="0 0 6.82666 6.82666"
 xmlns:xlink="http://www.w3.org/1999/xlink">
 <defs>
  <style type="text/css">
   <![CDATA[
    .fil0 {fill:none}
    .fil2 {fill:#FECA5F}
    .fil3 {fill:#FFD3B3}
    .fil1 {fill:#333333;fill-rule:nonzero}
   ]]>
  </style>
 </defs>
 <g id="Layer_x0020_1">
  <metadata id="CorelCorpID_0Corel-Layer"/>
  <g id="_226901944">
   <rect id="_226901656" class="fil0" width="6.82666" height="6.82666"/>
   <rect id="_226901536" class="fil0" x="0.853331" y="0.853331" width="5.12" height="5.12"/>
  </g>
  <path class="fil1" d="M4.14831 5.29845c-0.372114,-0.139598 -0.744642,-0.285559 -1.12159,-0.439524 -0.38315,-0.1565 -0.760276,-0.316646 -1.13545,-0.482098l-0.0560906 -0.0247402 -0.00682677 -0.0610945c-0.0336732,-0.301516 -0.194283,-0.62772 -0.351244,-0.946524 -0.106634,-0.216571 -0.211657,-0.429886 -0.279287,-0.638472l-0.000122047 3.93701e-005c-0.0509055,-0.155075 -0.016185,-0.331295 0.073122,-0.453846 0.0424921,-0.058315 0.097437,-0.105445 0.161878,-0.134169 0.0671378,-0.0299331 0.142906,-0.0400079 0.223894,-0.0225472 0.151413,0.0326417 0.3215,0.164512 0.479697,0.453929l0.000417323 0c0.0369724,0.0681417 0.0677047,0.124571 0.0960472,0.163165 0.0204213,0.027811 0.0399843,0.0475472 0.0615276,0.0581535 0.131717,0.0325827 0.306772,-0.469862 0.445252,-0.867409 0.0710236,-0.203882 0.133602,-0.383528 0.191909,-0.477646 0.103004,-0.166567 0.234618,-0.294831 0.38413,-0.388323 0.240315,-0.150268 0.525988,-0.210083 0.812236,-0.194323 0.28265,0.015563 0.566843,0.10528 0.808201,0.254539 0.191795,0.118602 0.357004,0.274866 0.47378,0.461622 0.640638,1.02732 -0.106681,2.14014 -0.735579,3.07662 -0.145445,0.216575 -0.284323,0.423374 -0.396736,0.616398l-0.0452677 0.0777205 -0.0838976 -0.0314724zm-1.04159 -0.636193c0.343323,0.140232 0.6865,0.275055 1.03265,0.405752 0.105472,-0.17426 0.229283,-0.358626 0.358165,-0.550535 0.593803,-0.88422 1.29942,-1.93494 0.731413,-2.84579 -0.0990787,-0.158453 -0.240209,-0.291626 -0.404614,-0.393291 -0.211291,-0.130665 -0.460323,-0.209224 -0.708201,-0.22287 -0.24428,-0.0134488 -0.486461,0.0365945 -0.688063,0.162654 -0.122969,0.0768937 -0.231181,0.182323 -0.315799,0.319157 -0.0457756,0.0738898 -0.104858,0.243492 -0.171909,0.435976 -0.169425,0.486382 -0.383953,1.10219 -0.712425,1l-0.00875197 -0.00333071c-0.0647008,-0.0265433 -0.113378,-0.0706693 -0.158106,-0.131579 -0.0386102,-0.0525787 -0.071937,-0.113713 -0.111882,-0.187331l0.000322835 -0.000173228c-0.12389,-0.226587 -0.240764,-0.326327 -0.337098,-0.347094 -0.0346969,-0.00748031 -0.0660945,-0.00364173 -0.0930591,0.00838189 -0.0296614,0.0132205 -0.0558189,0.0361024 -0.076878,0.0650039 -0.0517205,0.0709724 -0.0718031,0.173094 -0.0422874,0.263012l0 0.000417323c0.0624449,0.192724 0.164315,0.399622 0.26774,0.609685 0.155173,0.315173 0.313724,0.637217 0.363748,0.955559 0.370287,0.162776 0.727504,0.314445 1.07503,0.456394z"/>
  <path class="fil1" d="M4.28164 5.24429c-0.0136496,0.0287362 -0.0325827,0.085315 -0.0549488,0.152181 -0.0200551,0.0599528 -0.0425197,0.127106 -0.0621772,0.180106 -0.0887913,0.239441 -0.212835,0.467882 -0.401492,0.397921l-0.00291732 -0.00166535c-0.0359567,-0.0146929 -0.131677,-0.0520157 -0.257531,-0.101079 -0.576445,-0.224724 -1.79397,-0.699382 -1.86191,-0.844177l-0.000185039 8.66142e-005c-0.0748858,-0.161406 0.0382126,-0.41963 0.127244,-0.622913 0.0273346,-0.0624094 0.0520906,-0.118929 0.0656299,-0.159169l0.201669 0.0675039c-0.0168307,0.0500276 -0.0431929,0.110209 -0.0722992,0.176665 -0.0721063,0.164638 -0.163701,0.373772 -0.128913,0.448748l0 0.000417323c0.0302165,0.0658307 1.19445,0.519709 1.74544,0.734508 0.114665,0.0447047 0.202394,0.0789094 0.257791,0.101488l0.000153543 -0.000413386c0.0196339,0.00727953 0.0754764,-0.132268 0.127327,-0.272087 0.025378,-0.0684331 0.0439291,-0.12389 0.0605079,-0.173445 0.0248386,-0.0742598 0.0458661,-0.137098 0.0641142,-0.175512l0.192504 0.0908346z"/>
  <path class="fil2" d="M4.13937 5.06801c0.105472,-0.17426 0.229283,-0.358626 0.358165,-0.550535 0.593803,-0.88422 1.29942,-1.93494 0.731413,-2.84579 -0.0990787,-0.158453 -0.240209,-0.291626 -0.404614,-0.393291 -0.211291,-0.130665 -0.460323,-0.209224 -0.708201,-0.22287 -0.24428,-0.0134488 -0.486461,0.0365945 -0.688063,0.162654 -0.122969,0.0768937 -0.231181,0.182323 -0.315799,0.319157 -0.0457756,0.0738898 -0.104858,0.243492 -0.171909,0.435976 -0.169425,0.486382 -0.383953,1.10219 -0.712425,1l-0.00875197 -0.00333071c-0.0647008,-0.0265433 -0.113378,-0.0706693 -0.158106,-0.131579 -0.0386102,-0.0525787 -0.071937,-0.113713 -0.111882,-0.187331l0.000322835 -0.000173228c-0.12389,-0.226587 -0.240764,-0.326327 -0.337098,-0.347094 -0.0346969,-0.00748031 -0.0660945,-0.00364173 -0.0930591,0.00838189 -0.0296614,0.0132205 -0.0558189,0.0361024 -0.076878,0.0650039 -0.0517205,0.0709724 -0.0718031,0.173094 -0.0422874,0.263012l0 0.000417323c0.0624449,0.192724 0.164315,0.399622 0.26774,0.609685 0.155173,0.315173 0.313724,0.637217 0.363748,0.955559 0.370287,0.162776 0.727504,0.314445 1.07503,0.456394 0.343323,0.140232 0.6865,0.275055 1.03265,0.405752z"/>
  <path class="fil3" d="M4.04805 5.26069c-0.338795,-0.128114 -0.678232,-0.261622 -1.02133,-0.40176 -0.348717,-0.142437 -0.692445,-0.28789 -1.03426,-0.437618 -0.0093622,0.0219016 -0.019378,0.0447717 -0.0297441,0.068437 -0.0721063,0.164638 -0.163701,0.373772 -0.128913,0.448748l0 0.000417323c0.0302165,0.0658307 1.19445,0.519709 1.74544,0.734508 0.114665,0.0447047 0.202394,0.0789094 0.257791,0.101488l0.000153543 -0.000413386c0.0196339,0.00727953 0.0754764,-0.132268 0.127327,-0.272087 0.025378,-0.0684331 0.0439291,-0.12389 0.0605079,-0.173445 0.00806299,-0.0241102 0.0157283,-0.0470197 0.0230236,-0.0682756z"/>
 </g>
</svg>
