<?xml version="1.0" encoding="UTF-8"?>
<!DOCTYPE svg PUBLIC "-//W3C//DTD SVG 1.1//EN" "http://www.w3.org/Graphics/SVG/1.1/DTD/svg11.dtd">
<!-- Creator: CorelDRAW -->
<svg xmlns="http://www.w3.org/2000/svg" xml:space="preserve" width="6.82666in" height="6.82666in" style="shape-rendering:geometricPrecision; text-rendering:geometricPrecision; image-rendering:optimizeQuality; fill-rule:evenodd; clip-rule:evenodd"
viewBox="0 0 6.82666 6.82666"
 xmlns:xlink="http://www.w3.org/1999/xlink">
 <defs>
  <style type="text/css">
   <![CDATA[
    .fil0 {fill:none}
    .fil2 {fill:#63CBE5}
    .fil1 {fill:#333333;fill-rule:nonzero}
   ]]>
  </style>
 </defs>
 <g id="Layer_x0020_1">
  <metadata id="CorelCorpID_0Corel-Layer"/>
  <g id="_226904032">
   <rect id="_226903864" class="fil0" width="6.82666" height="6.82666"/>
   <rect id="_226904056" class="fil0" x="0.853331" y="0.853331" width="5.12" height="5.12"/>
  </g>
  <g id="_226902784">
   <path id="_226902928" class="fil1" d="M3.40843 0.935449c0.205886,0 0.395181,0.0719921 0.544118,0.192224 0.122232,0.0986732 0.217142,0.22987 0.271606,0.380425 0.0151693,-0.00376772 0.0304567,-0.00712205 0.0458543,-0.0100512 0.0535039,-0.0101772 0.107878,-0.0155118 0.162571,-0.0155118 0.23952,0 0.45639,0.0971024 0.613366,0.254075 0.156972,0.156976 0.254075,0.373843 0.254075,0.613362 0,0.23952 -0.0970984,0.456382 -0.254079,0.613362 -0.156972,0.156976 -0.373843,0.254079 -0.613362,0.254079l-2.03851 0c-0.23952,0 -0.45639,-0.0971024 -0.613362,-0.254079 -0.15698,-0.15698 -0.254079,-0.373843 -0.254079,-0.613362 0,-0.23952 0.0971024,-0.456386 0.254075,-0.613362 0.156976,-0.156972 0.373846,-0.254075 0.613366,-0.254075 0.0524606,0 0.105087,0.00502756 0.157343,0.0146299 0.0141811,0.0026063 0.028185,0.00552756 0.042,0.00875591 0.0548228,-0.150248 0.149949,-0.281079 0.272295,-0.37937 0.148815,-0.119555 0.337563,-0.191102 0.54272,-0.191102zm0.410787 0.358059c-0.11213,-0.0905197 -0.25502,-0.14472 -0.410787,-0.14472 -0.15522,0 -0.297567,0.0537638 -0.40939,0.143598 -0.114228,0.0917677 -0.196976,0.221094 -0.229476,0.369185l-0.0265945 0.121189 -0.115488 -0.0441063c-0.0375118,-0.0143268 -0.0757874,-0.0252283 -0.114398,-0.0323228 -0.0373504,-0.0068622 -0.0770984,-0.0104567 -0.119012,-0.0104567 -0.180638,0 -0.344169,0.0732126 -0.462531,0.191571 -0.118358,0.118362 -0.191571,0.281894 -0.191571,0.462528 0,0.180634 0.0732126,0.344165 0.191575,0.462528 0.118354,0.118358 0.28189,0.191575 0.462528,0.191575l2.03851 0c0.180638,0 0.344173,-0.0732165 0.462528,-0.191575 0.118362,-0.118362 0.191575,-0.281894 0.191575,-0.462528 0,-0.180634 -0.0732126,-0.344165 -0.191571,-0.462528 -0.118362,-0.118358 -0.281894,-0.191571 -0.462531,-0.191571 -0.043063,0 -0.0842992,0.00390157 -0.123406,0.0113386 -0.041185,0.00783465 -0.0805709,0.0193307 -0.117791,0.0340906l-0.116933 0.0463819 -0.0263976 -0.123051c-0.0319252,-0.148811 -0.114516,-0.278839 -0.228835,-0.371126z"/>
   <polygon id="_226903552" class="fil1" points="2.32505,3.60212 2.32505,4.76343 2.15171,4.76343 2.15171,3.60212 "/>
   <polygon id="_226903504" class="fil1" points="2.84669,4.26944 1.63007,4.26944 1.63007,4.09611 2.84669,4.09611 "/>
   <polygon id="_226903480" class="fil1" points="2.71024,3.83346 1.88907,4.65464 1.76652,4.53209 2.58769,3.71091 "/>
   <polygon id="_226902832" class="fil1" points="2.58769,4.65464 1.76652,3.83346 1.88907,3.71091 2.71024,4.53209 "/>
   <polygon id="_226903432" class="fil1" points="4.85336,3.38878 4.85336,4.31826 4.68002,4.31826 4.68002,3.38878 "/>
   <polygon id="_226902976" class="fil1" points="5.25355,3.94019 4.27982,3.94019 4.27982,3.76685 5.25355,3.76685 "/>
   <polygon id="_226903192" class="fil1" points="5.15658,3.58618 4.49934,4.24342 4.37679,4.12087 5.03403,3.46363 "/>
   <polygon id="_226903336" class="fil1" points="5.03403,4.24342 4.37679,3.58618 4.49934,3.46363 5.15658,4.12087 "/>
   <polygon id="_226903216" class="fil1" points="4.05144,4.77545 4.05144,5.89121 3.8781,5.89121 3.8781,4.77545 "/>
   <polygon id="_226902712" class="fil1" points="4.54921,5.42 3.38032,5.42 3.38032,5.24666 4.54921,5.24666 "/>
   <polygon id="_226902592" class="fil1" points="4.42052,5.00013 3.63156,5.78909 3.50901,5.66654 4.29797,4.87757 "/>
   <polygon id="_226902112" class="fil1" points="4.29797,5.78909 3.50901,5.00013 3.63156,4.87757 4.42052,5.66654 "/>
  </g>
  <path class="fil2" d="M2.39407 3.00407l2.03851 0c0.180638,0 0.344173,-0.0732165 0.462528,-0.191575 0.118362,-0.118362 0.191575,-0.281894 0.191575,-0.462528 0,-0.180634 -0.0732126,-0.344165 -0.191571,-0.462528 -0.118362,-0.118358 -0.281894,-0.191571 -0.462531,-0.191571 -0.043063,0 -0.0842992,0.00390157 -0.123406,0.0113386 -0.041185,0.00783465 -0.0805709,0.0193307 -0.117791,0.0340906l-0.116933 0.0463819 -0.0263976 -0.123051c-0.0319252,-0.148811 -0.114516,-0.278839 -0.228835,-0.371126 -0.11213,-0.0905197 -0.25502,-0.14472 -0.410787,-0.14472 -0.15522,0 -0.297567,0.0537638 -0.40939,0.143598 -0.114228,0.0917677 -0.196976,0.221094 -0.229476,0.369185l-0.0265945 0.121189 -0.115488 -0.0441063c-0.0375118,-0.0143268 -0.0757874,-0.0252283 -0.114398,-0.0323228 -0.0373504,-0.0068622 -0.0770984,-0.0104567 -0.119012,-0.0104567 -0.180638,0 -0.344169,0.0732126 -0.462531,0.191571 -0.118358,0.118362 -0.191571,0.281894 -0.191571,0.462528 0,0.180634 0.0732126,0.344165 0.191575,0.462528 0.118354,0.118358 0.28189,0.191575 0.462528,0.191575z"/>
 </g>
</svg>
