<?xml version="1.0" encoding="UTF-8"?>
<!DOCTYPE svg PUBLIC "-//W3C//DTD SVG 1.1//EN" "http://www.w3.org/Graphics/SVG/1.1/DTD/svg11.dtd">
<!-- Creator: CorelDRAW -->
<svg xmlns="http://www.w3.org/2000/svg" xml:space="preserve" width="6.82666in" height="6.82666in" style="shape-rendering:geometricPrecision; text-rendering:geometricPrecision; image-rendering:optimizeQuality; fill-rule:evenodd; clip-rule:evenodd"
viewBox="0 0 6.82666 6.82666"
 xmlns:xlink="http://www.w3.org/1999/xlink">
 <defs>
  <style type="text/css">
   <![CDATA[
    .fil0 {fill:none}
    .fil2 {fill:#EBE5DF}
    .fil1 {fill:#333333;fill-rule:nonzero}
   ]]>
  </style>
 </defs>
 <g id="Layer_x0020_1">
  <metadata id="CorelCorpID_0Corel-Layer"/>
  <g id="_226904656">
   <rect id="_226905400" class="fil0" width="6.82666" height="6.82666"/>
   <rect id="_226905856" class="fil0" x="0.853331" y="0.853331" width="5.12" height="5.12"/>
  </g>
  <g id="_226904632">
   <path id="_226905040" class="fil1" d="M1.98569 2.12276l0.76485 0.790563 0.0275 0.0577087 0.287795 2.52106 0.0100709 0.0881969 -0.0867559 0.0194764 -0.294366 0.0660787 -0.294374 0.0660866 -0.0928504 0.0208425 -0.0245039 -0.0917205 -0.651661 -2.43937 -0.00154724 -0.0437677 0.187748 -1.00442 0.0351693 -0.18813 0.132925 0.137394zm0.599386 0.903937l-0.608217 -0.628661 -0.148409 0.793949 0.621433 2.32622 0.20152 -0.0452402 0.20761 -0.0466063 -0.273937 -2.39966z"/>
   <path id="_226904992" class="fil1" d="M4.84008 1.16849l0.356724 1.43231 -0.0054252 0.0631299 -1.36072 3.12122 -0.0355394 0.0815079 -0.0845236 -0.0265118 -0.386283 -0.121157 -0.386283 -0.121165 -0.0909449 -0.0285315 0.0247126 -0.0915315 0.883244 -3.27099 0.0205276 -0.0387283 0.893323 -1.04022 0.124854 -0.145386 0.0463386 0.186051zm0.156579 1.44731l-0.30235 -1.214 -0.75378 0.877732 -0.852685 3.15783 0.295335 0.0926378 0.301752 0.0946457 1.31173 -3.00884z"/>
   <polygon id="_226905112" class="fil1" points="2.5809,2.97374 2.73839,1.17619 2.75733,0.959996 2.90803,1.11576 3.92159,2.16339 3.77983,2.30127 2.91697,1.40941 2.77843,2.99078 "/>
   <polygon id="_226904728" class="fil1" points="4.99065,1.93703 3.42201,5.65325 3.28548,5.59573 4.85413,1.87952 "/>
   <polygon id="_226904416" class="fil1" points="2.00723,2.32697 2.59883,5.58938 2.453,5.61552 1.86141,2.35311 "/>
  </g>
  <polygon class="fil2" points="2.0301,2.45306 2.5806,5.48886 2.65141,5.47296 2.85902,5.42636 2.58508,3.0267 "/>
  <polygon class="fil2" points="2.40465,5.34889 1.9224,2.68941 1.82845,3.19199 "/>
  <polygon class="fil2" points="2.91697,1.40941 2.77924,2.98152 3.00703,4.97694 3.7405,2.26062 "/>
  <polygon class="fil2" points="4.69431,1.40179 3.94053,2.27952 3.08785,5.43735 3.32141,5.51061 4.82844,1.94037 "/>
  <polygon class="fil2" points="4.88811,2.17995 3.46341,5.55515 3.68493,5.62463 4.99666,2.6158 "/>
 </g>
</svg>
