<?xml version="1.0" encoding="UTF-8"?>
<!DOCTYPE svg PUBLIC "-//W3C//DTD SVG 1.1//EN" "http://www.w3.org/Graphics/SVG/1.1/DTD/svg11.dtd">
<!-- Creator: CorelDRAW -->
<svg xmlns="http://www.w3.org/2000/svg" xml:space="preserve" width="6.82666in" height="6.82666in" style="shape-rendering:geometricPrecision; text-rendering:geometricPrecision; image-rendering:optimizeQuality; fill-rule:evenodd; clip-rule:evenodd"
viewBox="0 0 6.82666 6.82666"
 xmlns:xlink="http://www.w3.org/1999/xlink">
 <defs>
  <style type="text/css">
   <![CDATA[
    .fil0 {fill:none}
    .fil2 {fill:#63CBE5}
    .fil1 {fill:#333333;fill-rule:nonzero}
   ]]>
  </style>
 </defs>
 <g id="Layer_x0020_1">
  <metadata id="CorelCorpID_0Corel-Layer"/>
  <g id="_226906840">
   <rect id="_226906888" class="fil0" width="6.82666" height="6.82666"/>
   <rect id="_226906720" class="fil0" x="0.853331" y="0.853331" width="5.12" height="5.12"/>
  </g>
  <polygon class="fil1" points="3.86633,1.11837 3.47179,1.51291 3.41051,1.57419 3.34924,1.51291 2.9547,1.11837 3.07725,0.995819 3.41051,1.32909 3.74378,0.995819 "/>
  <polygon class="fil1" points="3.86633,1.62503 3.47179,2.01957 3.41051,2.08085 3.34924,2.01957 2.9547,1.62503 3.07725,1.50248 3.41051,1.83575 3.74378,1.50248 "/>
  <path class="fil1" d="M3.51718 0.853335l0 1.66956 -0.213339 0 0 -1.66956 0.213339 0zm0 3.45043l0 1.66956 -0.213339 0 0 -1.66956 0.213339 0z"/>
  <polygon class="fil1" points="3.74378,5.7368 3.41051,5.40353 3.07725,5.7368 2.9547,5.61425 3.34924,5.2197 3.41051,5.15843 3.47179,5.2197 3.86633,5.61425 "/>
  <polygon class="fil1" points="3.74378,5.23013 3.41051,4.89687 3.07725,5.23013 2.9547,5.10758 3.34924,4.71304 3.41051,4.65176 3.47179,4.71304 3.86633,5.10758 "/>
  <polygon class="fil1" points="5.626,2.66052 5.08705,2.5161 5.00338,2.49369 5.02577,2.41014 5.17018,1.87119 5.33743,1.91587 5.2154,2.37128 5.67069,2.49327 "/>
  <polygon class="fil1" points="5.18722,2.91385 4.64826,2.76943 4.56459,2.74702 4.58698,2.66347 4.7314,2.12452 4.89865,2.1692 4.77661,2.62461 5.2319,2.7466 "/>
  <path class="fil1" d="M5.68045 2.22541l-1.44588 0.83478 -0.105835 -0.184165 1.44588 -0.83478 0.105835 0.184165zm-2.98775 1.72522l-1.44588 0.834783 -0.106669 -0.184165 1.44588 -0.834783 0.106669 0.184165z"/>
  <polygon class="fil1" points="1.56504,4.86376 1.68707,4.40836 1.23178,4.28637 1.27647,4.11913 1.81542,4.26354 1.89909,4.28595 1.8767,4.3695 1.73229,4.90845 "/>
  <polygon class="fil1" points="2.00383,4.61043 2.12585,4.15503 1.67057,4.03304 1.71525,3.8658 2.2542,4.0102 2.33787,4.03262 2.31548,4.11617 2.17107,4.65512 "/>
  <polygon class="fil1" points="5.15502,4.93471 5.01061,4.39576 4.98822,4.3122 5.07189,4.28979 5.61084,4.14539 5.65553,4.31263 5.20024,4.43462 5.32227,4.89002 "/>
  <polygon class="fil1" points="4.71624,4.68138 4.57183,4.14243 4.54944,4.05887 4.63311,4.03646 5.17206,3.89206 5.21674,4.0593 4.76146,4.18129 4.88348,4.63669 "/>
  <path class="fil1" d="M5.55904 4.76465l-1.44388 -0.833626 0.106669 -0.184165 1.44388 0.833626 -0.106669 0.184165zm-2.94938 -1.70306l-1.48425 -0.856933 0.105835 -0.184165 1.48425 0.856933 -0.105835 0.184165z"/>
  <polygon class="fil1" points="1.21663,2.51953 1.67191,2.39754 1.54988,1.94213 1.71713,1.89744 1.86154,2.4364 1.88393,2.51994 1.80026,2.54236 1.26131,2.68677 "/>
  <polygon class="fil1" points="1.65541,2.77286 2.11069,2.65087 1.98867,2.19546 2.15591,2.15078 2.30032,2.68973 2.32271,2.77328 2.23904,2.79569 1.70009,2.94011 "/>
  <path class="fil1" d="M3.50551 2.47539l0.208831 0.417571 0.460228 -0.0311063 0.214319 -0.0144843 -0.118484 0.179488 -0.257291 0.389764 0.256874 0.38276 0.11963 0.178256 -0.214217 -0.0128386 -0.466551 -0.0279646 -0.202921 0.413594 -0.0945039 0.192618 -0.0959134 -0.191783 -0.208831 -0.417571 -0.460228 0.0311063 -0.214319 0.0144843 0.118484 -0.179488 0.257291 -0.389764 -0.256874 -0.38276 -0.11963 -0.178256 0.214217 0.0128386 0.466551 0.0279646 0.202921 -0.413594 0.0945079 -0.192618 0.0959094 0.191783zm0.0505906 0.576075l-0.144677 -0.289291 -0.13972 0.28478 -0.0313031 0.0638071 -0.0703661 -0.00422047 -0.322701 -0.0193425 0.176697 0.263287 0.0394528 0.0587874 -0.0390354 0.0591299 -0.177843 0.269409 0.316232 -0.021374 0.0703268 -0.00475591 0.0317559 0.0635079 0.144677 0.289291 0.13972 -0.28478 0.0313031 -0.0638071 0.0703661 0.00422047 0.322701 0.0193425 -0.176697 -0.263287 -0.0394528 -0.0587874 0.0390354 -0.0591299 0.177843 -0.269409 -0.316232 0.021374 -0.0703268 0.00475591 -0.0317559 -0.0635079z"/>
  <polygon class="fil2" points="3.5561,3.05147 3.41143,2.76218 3.2717,3.04696 3.2404,3.11076 3.17004,3.10654 2.84733,3.0872 3.02403,3.35049 3.06348,3.40928 3.02445,3.46841 2.84661,3.73781 3.16284,3.71644 3.23317,3.71169 3.26492,3.77519 3.4096,4.06448 3.54932,3.7797 3.58062,3.7159 3.65099,3.72012 3.97369,3.73946 3.79699,3.47617 3.75754,3.41739 3.79657,3.35826 3.97442,3.08885 3.65819,3.11022 3.58786,3.11498 "/>
 </g>
</svg>
