<?xml version="1.0" encoding="UTF-8"?>
<!DOCTYPE svg PUBLIC "-//W3C//DTD SVG 1.1//EN" "http://www.w3.org/Graphics/SVG/1.1/DTD/svg11.dtd">
<!-- Creator: CorelDRAW -->
<svg xmlns="http://www.w3.org/2000/svg" xml:space="preserve" width="6.82666in" height="6.82666in" style="shape-rendering:geometricPrecision; text-rendering:geometricPrecision; image-rendering:optimizeQuality; fill-rule:evenodd; clip-rule:evenodd"
viewBox="0 0 6.82666 6.82666"
 xmlns:xlink="http://www.w3.org/1999/xlink">
 <defs>
  <style type="text/css">
   <![CDATA[
    .fil0 {fill:none}
    .fil2 {fill:#9DD5C0}
    .fil3 {fill:#F45A52}
    .fil1 {fill:#333333;fill-rule:nonzero}
   ]]>
  </style>
 </defs>
 <g id="Layer_x0020_1">
  <metadata id="CorelCorpID_0Corel-Layer"/>
  <g id="_226907728">
   <rect id="_226907608" class="fil0" width="6.82666" height="6.82666"/>
   <rect id="_226907584" class="fil0" x="0.853331" y="0.853331" width="5.12" height="5.12"/>
  </g>
  <path class="fil1" d="M3.10666 0.853327l0.400008 0c0.12111,0 0.231138,0.0494724 0.310831,0.129169 0.0796969,0.0796929 0.129169,0.18972 0.129169,0.310831l0 2.4168c0.154457,0.100768 0.283839,0.23724 0.376543,0.397846 0.0997244,0.172752 0.156787,0.372693 0.156787,0.585358 0,0.323996 -0.131335,0.617331 -0.343669,0.829665 -0.212335,0.212335 -0.505669,0.343669 -0.829665,0.343669 -0.323996,0 -0.617331,-0.131335 -0.829665,-0.343669 -0.212335,-0.212335 -0.343669,-0.505669 -0.343669,-0.829665 0,-0.212665 0.057063,-0.412606 0.156787,-0.585358 0.0927047,-0.160606 0.222087,-0.297079 0.376543,-0.397846l0 -2.4168c0,-0.12111 0.0494724,-0.231138 0.129169,-0.310831 0.0796929,-0.0796969 0.18972,-0.129169 0.310831,-0.129169zm0.400008 0.213339l-0.400008 0c-0.0622205,0 -0.118866,0.0255354 -0.159996,0.0666654 -0.0411299,0.0411299 -0.0666654,0.0977756 -0.0666654,0.159996l0 2.47607 0 0.0612283 -0.0533346 0.0308543c-0.146362,0.0846693 -0.268189,0.206469 -0.352382,0.352323 -0.0811654,0.140606 -0.127614,0.304339 -0.127614,0.479524 0,0.26511 0.107449,0.505114 0.281165,0.678831 0.173717,0.173717 0.41372,0.281165 0.678831,0.281165 0.26511,0 0.505114,-0.107449 0.678831,-0.281165 0.173717,-0.173717 0.281165,-0.41372 0.281165,-0.678831 0,-0.175185 -0.0464488,-0.338917 -0.127614,-0.479524 -0.0841929,-0.145854 -0.20602,-0.267654 -0.352382,-0.352323l-0.0533346 -0.0308543 0 -0.0612283 0 -2.47607c0,-0.0622205 -0.0255354,-0.118866 -0.0666654,-0.159996 -0.0411299,-0.0411299 -0.0977756,-0.0666654 -0.159996,-0.0666654z"/>
  <path class="fil1" d="M3.30667 4.26666c0.117807,0 0.224476,0.0477638 0.301693,0.124976 0.0772165,0.0772165 0.124976,0.183886 0.124976,0.301693 0,0.117807 -0.0477598,0.224476 -0.124976,0.301693 -0.0772165,0.0772165 -0.183886,0.124976 -0.301693,0.124976 -0.117807,0 -0.224476,-0.0477598 -0.301693,-0.124976 -0.0772165,-0.0772165 -0.124976,-0.183886 -0.124976,-0.301693 0,-0.117807 0.0477598,-0.224476 0.124976,-0.301693 0.0772165,-0.0772126 0.183886,-0.124976 0.301693,-0.124976zm0.150858 0.275811c-0.0385945,-0.0385906 -0.0919409,-0.0624724 -0.150858,-0.0624724 -0.0589173,0 -0.11226,0.023878 -0.150858,0.0624724 -0.0385984,0.0385984 -0.0624724,0.0919409 -0.0624724,0.150858 0,0.0589173 0.023874,0.11226 0.0624724,0.150858 0.0385984,0.0385984 0.0919409,0.0624724 0.150858,0.0624724 0.0589173,0 0.11226,-0.023874 0.150858,-0.0624724 0.0385984,-0.0385984 0.0624724,-0.0919409 0.0624724,-0.150858 0,-0.0589173 -0.023874,-0.11226 -0.0624724,-0.150858z"/>
  <polygon class="fil1" points="3.41333,3.62666 3.41333,4.37333 3.2,4.37333 3.2,3.62666 "/>
  <path class="fil2" d="M3.2 3.62666l0.213339 0 0 0.653441c0.0749567,0.0192992 0.141949,0.0584606 0.195024,0.111531 0.0772165,0.0772165 0.124976,0.183886 0.124976,0.301693 0,0.117807 -0.0477598,0.224476 -0.124976,0.301693 -0.0772165,0.0772165 -0.183886,0.124976 -0.301693,0.124976 -0.117807,0 -0.224476,-0.0477598 -0.301693,-0.124976 -0.0772165,-0.0772165 -0.124976,-0.183886 -0.124976,-0.301693 0,-0.117807 0.0477598,-0.224476 0.124976,-0.301693 0.0530748,-0.0530709 0.120067,-0.0922323 0.195024,-0.111531l0 -0.653441zm0.306673 -2.56l-0.400008 0c-0.0622205,0 -0.118866,0.0255354 -0.159996,0.0666654 -0.0411299,0.0411299 -0.0666654,0.0977756 -0.0666654,0.159996l0 2.47607 0 0.0612283 -0.0533346 0.0308543c-0.146362,0.0846693 -0.268189,0.206469 -0.352382,0.352323 -0.0811654,0.140606 -0.127614,0.304339 -0.127614,0.479524 0,0.26511 0.107449,0.505114 0.281165,0.678831 0.173717,0.173717 0.41372,0.281165 0.678831,0.281165 0.26511,0 0.505114,-0.107449 0.678831,-0.281165 0.173717,-0.173717 0.281165,-0.41372 0.281165,-0.678831 0,-0.175185 -0.0464488,-0.338917 -0.127614,-0.479524 -0.0841929,-0.145854 -0.20602,-0.267654 -0.352382,-0.352323l-0.0533346 -0.0308543 0 -0.0612283 0 -2.47607c0,-0.0622205 -0.0255354,-0.118866 -0.0666654,-0.159996 -0.0411299,-0.0411299 -0.0977756,-0.0666654 -0.159996,-0.0666654z"/>
  <path class="fil3" d="M3.45752 4.54247c-0.0385945,-0.0385906 -0.0919409,-0.0624724 -0.150858,-0.0624724 -0.0589173,0 -0.11226,0.023878 -0.150858,0.0624724 -0.0385984,0.0385984 -0.0624724,0.0919409 -0.0624724,0.150858 0,0.0589173 0.023874,0.11226 0.0624724,0.150858 0.0385984,0.0385984 0.0919409,0.0624724 0.150858,0.0624724 0.0589173,0 0.11226,-0.023874 0.150858,-0.0624724 0.0385984,-0.0385984 0.0624724,-0.0919409 0.0624724,-0.150858 0,-0.0589173 -0.023874,-0.11226 -0.0624724,-0.150858z"/>
 </g>
</svg>
