<?xml version="1.0" encoding="UTF-8"?>
<!DOCTYPE svg PUBLIC "-//W3C//DTD SVG 1.1//EN" "http://www.w3.org/Graphics/SVG/1.1/DTD/svg11.dtd">
<!-- Creator: CorelDRAW -->
<svg xmlns="http://www.w3.org/2000/svg" xml:space="preserve" width="6.82666in" height="6.82666in" style="shape-rendering:geometricPrecision; text-rendering:geometricPrecision; image-rendering:optimizeQuality; fill-rule:evenodd; clip-rule:evenodd"
viewBox="0 0 6.82666 6.82666"
 xmlns:xlink="http://www.w3.org/1999/xlink">
 <defs>
  <style type="text/css">
   <![CDATA[
    .fil0 {fill:none}
    .fil1 {fill:#333333}
    .fil3 {fill:#EBE5DF}
    .fil2 {fill:#333333;fill-rule:nonzero}
   ]]>
  </style>
 </defs>
 <g id="Layer_x0020_1">
  <metadata id="CorelCorpID_0Corel-Layer"/>
  <g id="_226909312">
   <rect id="_226894000" class="fil0" width="6.82666" height="6.82666"/>
   <rect id="_226909744" class="fil0" x="0.853331" y="0.853331" width="5.12" height="5.12"/>
  </g>
  <circle class="fil1" cx="3.35652" cy="3.36" r="0.16"/>
  <circle class="fil1" cx="3.35652" cy="4.10666" r="0.16"/>
  <circle class="fil1" cx="3.35652" cy="4.85333" r="0.16"/>
  <g id="_226909000">
   <circle id="_226909120" class="fil1" cx="3.11829" cy="1.72465" r="0.12465"/>
   <circle id="_226909552" class="fil1" cx="3.65162" cy="1.72465" r="0.12465"/>
  </g>
  <path class="fil2" d="M3.38496 0.853327c0.294539,0 0.561209,0.119398 0.75424,0.312429 0.193031,0.193031 0.312429,0.459701 0.312429,0.75424 0,0.186429 -0.0480236,0.361866 -0.132398,0.514622 -0.0570827,0.103346 -0.130862,0.196232 -0.217705,0.275035 0.243898,0.128921 0.452744,0.321445 0.607398,0.557181 0.183122,0.27913 0.290626,0.618921 0.290626,0.985236 0,0.473669 -0.179772,0.902988 -0.470409,1.21419 -0.292594,0.313287 -0.69711,0.507071 -1.14418,0.507071 -0.447071,0 -0.851587,-0.193783 -1.14418,-0.507071 -0.290638,-0.311201 -0.470409,-0.74052 -0.470409,-1.21419 0,-0.366315 0.107504,-0.706106 0.290626,-0.985236 0.154654,-0.235736 0.3635,-0.42826 0.607398,-0.557181 -0.0868425,-0.0788031 -0.160622,-0.171689 -0.217705,-0.275035 -0.084374,-0.152756 -0.132398,-0.328193 -0.132398,-0.514622 0,-0.294539 0.119398,-0.561209 0.312429,-0.75424 0.193031,-0.193031 0.459701,-0.312429 0.75424,-0.312429zm0.603406 0.463264c-0.154413,-0.154413 -0.367752,-0.249925 -0.603406,-0.249925 -0.235654,0 -0.448992,0.0955118 -0.603406,0.249925 -0.154413,0.154413 -0.249925,0.367752 -0.249925,0.603406 0,0.149661 0.0383504,0.290134 0.105728,0.412118 0.0699843,0.126713 0.171173,0.233701 0.293138,0.310575l0.17922 0.112961 -0.197551 0.0762047c-0.273492,0.1055 -0.507882,0.300209 -0.672839,0.55165 -0.161063,0.245504 -0.255618,0.54502 -0.255618,0.868567 0,0.418047 0.157795,0.796028 0.412906,1.06919 0.253161,0.271067 0.602618,0.438732 0.988346,0.438732 0.385728,0 0.735185,-0.167665 0.988346,-0.438732 0.25511,-0.273161 0.412906,-0.651142 0.412906,-1.06919 0,-0.323547 -0.0945551,-0.623063 -0.255618,-0.868567 -0.164957,-0.251441 -0.399346,-0.44615 -0.672839,-0.55165l-0.197551 -0.0762047 0.17922 -0.112961c0.121965,-0.076874 0.223154,-0.183862 0.293138,-0.310575 0.067378,-0.121984 0.105728,-0.262457 0.105728,-0.412118 0,-0.235654 -0.0955118,-0.448992 -0.249925,-0.603406z"/>
  <polygon class="fil2" points="2.47096,3.60057 0.986063,3.01822 1.04903,2.85707 2.53393,3.43942 "/>
  <polygon class="fil2" points="1.45723,2.56089 1.77171,3.08517 1.81646,3.15978 1.74158,3.204 1.26101,3.48781 1.17299,3.33885 1.57867,3.09926 1.30894,2.64959 "/>
  <polygon class="fil2" points="4.29273,3.43942 5.77763,2.85707 5.8406,3.01822 4.3557,3.60057 "/>
  <polygon class="fil2" points="5.51772,2.64959 5.24799,3.09926 5.65367,3.33885 5.56565,3.48781 5.08508,3.204 5.0102,3.15978 5.05495,3.08517 5.36943,2.56089 "/>
  <path class="fil2" d="M3.49727 2.02444l0.195276 0.443535c-0.00497244,0.0221654 -0.0169409,0.0284213 -0.0378976,0.0142402l-0.445937 -0.446835 -0.00870866 -0.00872047c0.086937,-0.0550551 0.208185,-0.0731417 0.297268,-0.00222047z"/>
  <path class="fil3" d="M3.49727 2.02444l0.195276 0.443535c-0.00497244,0.0221654 -0.0169409,0.0284213 -0.0378976,0.0142402l-0.445937 -0.446835 -0.00870866 -0.00872047c0.086937,-0.0550551 0.208185,-0.0731417 0.297268,-0.00222047zm0.491091 -0.70785c-0.154413,-0.154413 -0.367752,-0.249925 -0.603406,-0.249925 -0.235654,0 -0.448992,0.0955118 -0.603406,0.249925 -0.154413,0.154413 -0.249925,0.367752 -0.249925,0.603406 0,0.149661 0.0383504,0.290134 0.105728,0.412118 0.0699843,0.126713 0.171173,0.233701 0.293138,0.310575l0.17922 0.112961 -0.197551 0.0762047c-0.256193,0.0988268 -0.478075,0.275933 -0.640713,0.504626l0.26248 0.102941 -0.0629685 0.16115 -0.293067 -0.114933c-0.123406,0.224543 -0.194189,0.486492 -0.194189,0.766433 0,0.418047 0.157795,0.796028 0.412906,1.06919 0.253161,0.271067 0.602618,0.438732 0.988346,0.438732 0.385728,0 0.735185,-0.167665 0.988346,-0.438732 0.25511,-0.273161 0.412906,-0.651142 0.412906,-1.06919 0,-0.272346 -0.0669961,-0.527661 -0.18426,-0.748075l-0.246248 0.0965748 -0.0629685 -0.16115 0.217965 -0.0854803c-0.163661,-0.237138 -0.390268,-0.42076 -0.652945,-0.522087l-0.197551 -0.0762047 0.17922 -0.112961c0.121965,-0.076874 0.223154,-0.183862 0.293138,-0.310575 0.067378,-0.121984 0.105728,-0.262457 0.105728,-0.412118 0,-0.235654 -0.0955118,-0.448992 -0.249925,-0.603406zm-0.33674 0.283406c0.0688386,0 0.12465,0.055811 0.12465,0.12465 0,0.0688386 -0.055811,0.12465 -0.12465,0.12465 -0.0688386,0 -0.12465,-0.055811 -0.12465,-0.12465 0,-0.0688386 0.055811,-0.12465 0.12465,-0.12465zm-0.533335 0c0.0688386,0 0.12465,0.055811 0.12465,0.12465 0,0.0688386 -0.055811,0.12465 -0.12465,0.12465 -0.0688386,0 -0.12465,-0.055811 -0.12465,-0.12465 0,-0.0688386 0.055811,-0.12465 0.12465,-0.12465zm0.238232 3.09333c0.0883661,0 0.16,0.0716339 0.16,0.16 0,0.0883661 -0.0716339,0.16 -0.16,0.16 -0.0883661,0 -0.16,-0.0716339 -0.16,-0.16 0,-0.0883661 0.0716339,-0.16 0.16,-0.16zm0 -0.746665c0.0883661,0 0.16,0.0716339 0.16,0.16 0,0.0883661 -0.0716339,0.16 -0.16,0.16 -0.0883661,0 -0.16,-0.0716339 -0.16,-0.16 0,-0.0883661 0.0716339,-0.16 0.16,-0.16zm0 -0.746665c0.0883661,0 0.16,0.0716339 0.16,0.16 0,0.0883661 -0.0716339,0.16 -0.16,0.16 -0.0883661,0 -0.16,-0.0716339 -0.16,-0.16 0,-0.0883661 0.0716339,-0.16 0.16,-0.16z"/>
 </g>
</svg>
