<?xml version="1.0" encoding="UTF-8"?>
<!DOCTYPE svg PUBLIC "-//W3C//DTD SVG 1.1//EN" "http://www.w3.org/Graphics/SVG/1.1/DTD/svg11.dtd">
<!-- Creator: CorelDRAW -->
<svg xmlns="http://www.w3.org/2000/svg" xml:space="preserve" width="6.82666in" height="6.82666in" style="shape-rendering:geometricPrecision; text-rendering:geometricPrecision; image-rendering:optimizeQuality; fill-rule:evenodd; clip-rule:evenodd"
viewBox="0 0 6.82666 6.82666"
 xmlns:xlink="http://www.w3.org/1999/xlink">
 <defs>
  <style type="text/css">
   <![CDATA[
    .fil0 {fill:none}
    .fil2 {fill:#B38E85}
    .fil3 {fill:#FFD3B3}
    .fil4 {fill:#FFEDDF}
    .fil1 {fill:#333333;fill-rule:nonzero}
   ]]>
  </style>
 </defs>
 <g id="Layer_x0020_1">
  <metadata id="CorelCorpID_0Corel-Layer"/>
  <g id="_226894864">
   <rect id="_226894936" class="fil0" width="6.82666" height="6.82666"/>
   <rect id="_226894912" class="fil0" x="0.853331" y="0.853331" width="5.12" height="5.12"/>
  </g>
  <g id="_226894888">
   <path id="_226894792" class="fil1" d="M5.10099 4.70426l0.0512559 0c0.075752,0 0.144957,0.0298937 0.195413,0.0780433 0.0518976,0.0495236 0.0841102,0.118039 0.0841102,0.193587l0 0.725815c0,0.0755433 -0.0322165,0.144063 -0.0841102,0.193583 -0.0504567,0.0481496 -0.119661,0.0780433 -0.195413,0.0780433l-1.73892 0 -1.73891 0c-0.075752,0 -0.144957,-0.0298937 -0.195413,-0.0780433 -0.0518937,-0.0495197 -0.0841102,-0.118039 -0.0841102,-0.193583l0 -0.725815c0,-0.0755472 0.0322126,-0.144063 0.0841102,-0.193587 0.0504528,-0.0481575 0.119657,-0.0780433 0.195413,-0.0780433l0.0395945 0c-0.303354,-1.1592 -0.00613386,-2.01856 0.518547,-2.51668 0.318,-0.301906 0.719646,-0.470772 1.12341,-0.49385 0.405657,-0.0231929 0.81339,0.100673 1.14127,0.384417 0.52311,0.452693 0.839559,1.31174 0.60376,2.62611zm0.0512559 0.213339l-0.179744 0 -0.129929 0 0.0257638 -0.127504c0.262417,-1.2987 -0.0227559,-2.12922 -0.510272,-2.55111 -0.283917,-0.245701 -0.637811,-0.352906 -0.990433,-0.332748 -0.354528,0.0202638 -0.707874,0.169181 -0.988406,0.435512 -0.493059,0.468102 -0.760862,1.29993 -0.422988,2.43919l0.0405354 0.136669 -0.142618 0 -0.17974 0c-0.019311,0 -0.0365472,0.00722835 -0.0487441,0.0188701 -0.0107598,0.0102677 -0.0174409,0.0242362 -0.0174409,0.0394213l0 0.725815c0,0.0151811 0.0066811,0.0291496 0.0174409,0.0394173 0.0121969,0.0116378 0.0294331,0.0188701 0.0487441,0.0188701l1.73891 0 1.73892 0c0.019311,0 0.0365472,-0.00723228 0.0487441,-0.0188701 0.0107598,-0.0102677 0.0174409,-0.0242362 0.0174409,-0.0394173l0 -0.725815c0,-0.015185 -0.0066811,-0.0291535 -0.0174409,-0.0394213 -0.0121969,-0.0116378 -0.0294331,-0.0188701 -0.0487441,-0.0188701z"/>
   <polygon id="_226894960" class="fil1" points="1.83951,4.69826 4.9494,4.69826 4.9494,4.9116 1.83951,4.9116 "/>
   <path id="_226895080" class="fil1" d="M3.41333 0.853327c0.145071,0 0.276417,0.058815 0.371488,0.15389 0.0950748,0.0950709 0.15389,0.226417 0.15389,0.371488 0,0.145063 -0.058815,0.276413 -0.15389,0.371488 -0.0950709,0.0950748 -0.226417,0.15389 -0.371488,0.15389 -0.145071,0 -0.276417,-0.058815 -0.371488,-0.15389 -0.0950748,-0.0950748 -0.15389,-0.226425 -0.15389,-0.371488 0,-0.145071 0.058815,-0.276417 0.15389,-0.371488 0.0950709,-0.0950748 0.226417,-0.15389 0.371488,-0.15389zm0.220654 0.304724c-0.0564567,-0.0564606 -0.134472,-0.0913858 -0.220654,-0.0913858 -0.0861811,0 -0.164197,0.0349252 -0.220654,0.0913858 -0.0564606,0.0564567 -0.0913858,0.134472 -0.0913858,0.220654 0,0.0861772 0.0349291,0.164197 0.0913858,0.220654 0.0564567,0.0564606 0.134472,0.0913858 0.220654,0.0913858 0.0861811,0 0.164197,-0.0349252 0.220654,-0.0913858 0.0564567,-0.0564567 0.0913858,-0.134476 0.0913858,-0.220654 0,-0.0861811 -0.0349252,-0.164197 -0.0913858,-0.220654z"/>
  </g>
  <path class="fil2" d="M4.84379 4.9116l-2.84879 0 0.00177953 0.00599606 -0.142618 0 -0.17974 0c-0.019311,0 -0.0365472,0.00722835 -0.0487441,0.0188701 -0.0107598,0.0102677 -0.0174409,0.0242362 -0.0174409,0.0394213l0 0.725815c0,0.0151811 0.0066811,0.0291496 0.0174409,0.0394173 0.0121969,0.0116378 0.0294331,0.0188701 0.0487441,0.0188701l1.73891 0 1.73892 0c0.019311,0 0.0365472,-0.00723228 0.0487441,-0.0188701 0.0107598,-0.0102677 0.0174409,-0.0242362 0.0174409,-0.0394173l0 -0.725815c0,-0.015185 -0.0066811,-0.0291535 -0.0174409,-0.0394213 -0.0121969,-0.0116378 -0.0294331,-0.0188701 -0.0487441,-0.0188701l-0.179744 0 -0.129929 0 0.0012126 -0.00599606z"/>
  <path class="fil3" d="M1.93263 4.69826l2.9535 0c0.230953,-1.24613 -0.0521378,-2.04742 -0.528063,-2.45928 -0.283917,-0.245701 -0.637811,-0.352906 -0.990433,-0.332748 -0.354528,0.0202638 -0.707874,0.169181 -0.988406,0.435512 -0.481055,0.456705 -0.747689,1.25964 -0.446594,2.35652z"/>
  <path class="fil4" d="M3.41333 1.69074c0.0861811,0 0.164197,-0.0349252 0.220654,-0.0913858 0.0564567,-0.0564567 0.0913858,-0.134476 0.0913858,-0.220654 0,-0.0861811 -0.0349252,-0.164197 -0.0913858,-0.220654 -0.0564567,-0.0564606 -0.134472,-0.0913858 -0.220654,-0.0913858 -0.0861811,0 -0.164197,0.0349252 -0.220654,0.0913858 -0.0564606,0.0564567 -0.0913858,0.134472 -0.0913858,0.220654 0,0.0861772 0.0349291,0.164197 0.0913858,0.220654 0.0564567,0.0564606 0.134472,0.0913858 0.220654,0.0913858z"/>
 </g>
</svg>
