<?xml version="1.0" encoding="UTF-8"?>
<!DOCTYPE svg PUBLIC "-//W3C//DTD SVG 1.1//EN" "http://www.w3.org/Graphics/SVG/1.1/DTD/svg11.dtd">
<!-- Creator: CorelDRAW -->
<svg xmlns="http://www.w3.org/2000/svg" xml:space="preserve" width="6.82666in" height="6.82666in" style="shape-rendering:geometricPrecision; text-rendering:geometricPrecision; image-rendering:optimizeQuality; fill-rule:evenodd; clip-rule:evenodd"
viewBox="0 0 6.82666 6.82666"
 xmlns:xlink="http://www.w3.org/1999/xlink">
 <defs>
  <style type="text/css">
   <![CDATA[
    .fil1 {fill:none}
    .fil4 {fill:#AED581}
    .fil0 {fill:#FFFFFE}
    .fil3 {fill:#333333;fill-rule:nonzero}
    .fil2 {fill:#FFFFFE;fill-rule:nonzero}
   ]]>
  </style>
 </defs>
 <g id="Layer_x0020_1">
  <metadata id="CorelCorpID_0Corel-Layer"/>
  <circle class="fil0" cx="3.64161" cy="4.01253" r="0.158984"/>
  <g id="_226898128">
   <rect id="_294579008" class="fil1" width="6.82666" height="6.82666"/>
   <rect id="_226901680" class="fil1" x="0.853331" y="0.853331" width="5.12" height="5.12"/>
  </g>
  <polygon class="fil2" points="3.97041,3.53557 3.62963,3.53557 3.62963,3.32359 3.97041,3.32359 "/>
  <polygon class="fil2" points="2.95156,4.1715 2.61077,4.1715 2.61077,3.95952 2.95156,3.95952 "/>
  <path class="fil3" d="M3.4789 1.2632c0.175543,0.67924 0.351043,1.3385 0.558898,1.97769 0.206791,0.635886 0.444776,1.2489 0.745354,1.8365l0.0787874 0.15402 -0.172768 0 -2.54978 0 -0.174665 0 0.080685 -0.154846c0.599122,-1.14984 0.867157,-2.28477 1.13203,-3.40634 0.023,-0.0973937 0.0460827,-0.195106 0.0965197,-0.404953l0.0990197 -0.411937 0.105925 0.409866zm0.357681 2.04311c-0.166374,-0.511618 -0.312697,-1.03854 -0.455087,-1.57906 -0.255531,1.082 -0.514815,2.17632 -1.06935,3.29217l2.20592 0c-0.271118,-0.552902 -0.489953,-1.12416 -0.68148,-1.71311z"/>
  <polygon class="fil3" points="3.48263,5.12541 3.48263,5.97333 3.27064,5.97333 3.27064,5.12541 "/>
  <circle class="fil0" cx="2.79369" cy="4.59547" r="0.158984"/>
  <circle class="fil0" cx="4.01257" cy="4.6914" r="0.158984"/>
  <circle class="fil0" cx="3.36083" cy="2.88344" r="0.158984"/>
  <path class="fil4" d="M3.20185 2.88344c0,-0.0878031 0.0711811,-0.158984 0.158984,-0.158984 0.0878071,0 0.158984,0.0711811 0.158984,0.158984 0,0.0878071 -0.0711772,0.158984 -0.158984,0.158984 -0.0878031,0 -0.158984,-0.0711772 -0.158984,-0.158984zm-0.440295 1.07608l0.190004 0 0 0.211984 -0.268591 0c-0.107689,0.281346 -0.229693,0.563933 -0.370823,0.847917l2.20592 0c-0.235799,-0.480874 -0.432051,-0.975638 -0.605185,-1.48385l-0.283248 0 0 -0.211984 0.212583 0c-0.00188189,-0.00575984 -0.00375591,-0.0115197 -0.00562992,-0.0172795 -0.166374,-0.511618 -0.312697,-1.03854 -0.455087,-1.57906 -0.17415,0.737398 -0.350039,1.48052 -0.619941,2.23227zm0.0321417 0.476965c0.0878031,0 0.158984,0.0711811 0.158984,0.158984 0,0.0878071 -0.0711811,0.158984 -0.158984,0.158984 -0.0878071,0 -0.158984,-0.0711772 -0.158984,-0.158984 0,-0.0878031 0.0711772,-0.158984 0.158984,-0.158984zm1.21888 0.0959331c0.0878071,0 0.158984,0.0711811 0.158984,0.158984 0,0.0878071 -0.0711772,0.158984 -0.158984,0.158984 -0.0878031,0 -0.158984,-0.0711772 -0.158984,-0.158984 0,-0.0878031 0.0711811,-0.158984 0.158984,-0.158984zm-0.370965 -0.678878c0.0878071,0 0.158984,0.0711811 0.158984,0.158984 0,0.0878071 -0.0711772,0.158984 -0.158984,0.158984 -0.0878031,0 -0.15898,-0.0711772 -0.15898,-0.158984 0,-0.0878031 0.0711772,-0.158984 0.15898,-0.158984z"/>
 </g>
</svg>
