<?xml version="1.0" encoding="UTF-8"?>
<!DOCTYPE svg PUBLIC "-//W3C//DTD SVG 1.1//EN" "http://www.w3.org/Graphics/SVG/1.1/DTD/svg11.dtd">
<!-- Creator: CorelDRAW -->
<svg xmlns="http://www.w3.org/2000/svg" xml:space="preserve" width="6.82666in" height="6.82666in" style="shape-rendering:geometricPrecision; text-rendering:geometricPrecision; image-rendering:optimizeQuality; fill-rule:evenodd; clip-rule:evenodd"
viewBox="0 0 6.82666 6.82666"
 xmlns:xlink="http://www.w3.org/1999/xlink">
 <defs>
  <style type="text/css">
   <![CDATA[
    .fil0 {fill:none}
    .fil2 {fill:#F39CC3}
    .fil1 {fill:#333333;fill-rule:nonzero}
   ]]>
  </style>
 </defs>
 <g id="Layer_x0020_1">
  <metadata id="CorelCorpID_0Corel-Layer"/>
  <g id="_294580280">
   <rect id="_294580232" class="fil0" width="6.82666" height="6.82666"/>
   <rect id="_294580352" class="fil0" x="0.853331" y="0.853331" width="5.12" height="5.12"/>
  </g>
  <path class="fil1" d="M1.21809 2.66666l3.39053 0 0.0594724 0 0.0313622 0.051252c0.15685,0.256339 0.227098,0.632256 0.227098,1.01642 0,0.314862 -0.0468504,0.638067 -0.131476,0.90615 -0.0886969,0.28098 -0.221815,0.50622 -0.390787,0.609614 -0.0681378,0.041689 -0.141445,0.0643307 -0.219484,0.0643307l-2.5429 0c-0.0764094,0 -0.148528,-0.021748 -0.215886,-0.061878 -0.169587,-0.101043 -0.303547,-0.324579 -0.393028,-0.605008 -0.0853937,-0.267634 -0.13274,-0.590394 -0.13274,-0.90552 0,-0.383276 0.0700433,-0.760535 0.226587,-1.02327l0.0310354 -0.0520866 0.0602165 0zm3.32865 0.213339l-3.26613 0c-0.115098,0.224909 -0.167016,0.538748 -0.167016,0.86202 0,0.295673 0.0434803,0.595563 0.121906,0.841354 0.0743425,0.232996 0.177236,0.413709 0.299689,0.486669 0.0337913,0.0201299 0.0694724,0.0310433 0.10672,0.0310433l2.5429 0c0.0377205,0 0.0740591,-0.0115 0.10865,-0.0326614 0.121772,-0.0745118 0.224177,-0.257323 0.298291,-0.49211 0.078185,-0.247677 0.121469,-0.547996 0.121469,-0.841984 0,-0.322965 -0.0517795,-0.634791 -0.166476,-0.854331z"/>
  <path class="fil1" d="M4.75683 3.05307l0.427921 0c0.193886,0 0.370079,0.0792441 0.49774,0.206909 0.127665,0.127661 0.206909,0.303854 0.206909,0.49774l0 3.93701e-006c0,0.193886 -0.0792441,0.370079 -0.206909,0.49774 -0.127661,0.127665 -0.303854,0.206909 -0.49774,0.206909l-0.433512 0 0 -0.213339 0.433512 0c0.135,0 0.257811,-0.0553071 0.346906,-0.144406 0.0890984,-0.0890945 0.144406,-0.211906 0.144406,-0.346906l0 -3.93701e-006c0,-0.135 -0.0553071,-0.257811 -0.144406,-0.346906 -0.0890945,-0.0890984 -0.211906,-0.144406 -0.346906,-0.144406l-0.427921 0 0 -0.213339z"/>
  <polygon class="fil1" points="0.904996,5.46625 4.92181,5.46625 4.92181,5.67959 0.904996,5.67959 "/>
  <path class="fil1" d="M2.22775 1.3525c-0.165,0.177776 -0.0674173,0.340898 0.0223425,0.490937 0.12848,0.21476 0.246386,0.411846 -0.0348425,0.632445l-0.130835 -0.167504c0.133409,-0.104646 0.0615157,-0.224827 -0.0168268,-0.355776 -0.129051,-0.215717 -0.26935,-0.450232 0.00432677,-0.745102l0.155835 0.145z"/>
  <path class="fil1" d="M2.95792 1.3525c-0.165,0.177776 -0.0674173,0.340898 0.0223425,0.490937 0.12848,0.21476 0.246386,0.411846 -0.0348425,0.632445l-0.130835 -0.167504c0.133409,-0.104646 0.0615157,-0.224827 -0.0168268,-0.355776 -0.129051,-0.215717 -0.26935,-0.450232 0.00432677,-0.745102l0.155835 0.145z"/>
  <path class="fil1" d="M3.68808 1.3525c-0.165004,0.17778 -0.0674173,0.340898 0.0223425,0.490937 0.12848,0.21476 0.24639,0.411843 -0.0348425,0.632445l-0.130835 -0.167504c0.133406,-0.104646 0.0615157,-0.224827 -0.0168268,-0.355776 -0.129051,-0.215717 -0.26935,-0.450232 0.00432677,-0.745102l0.155835 0.145z"/>
  <path class="fil2" d="M4.54673 2.88l-3.26613 0c-0.115098,0.224909 -0.167016,0.538748 -0.167016,0.86202 0,0.295673 0.0434803,0.595563 0.121906,0.841354 0.0743425,0.232996 0.177236,0.413709 0.299689,0.486669 0.0337913,0.0201299 0.0694724,0.0310433 0.10672,0.0310433l2.5429 0c0.0377205,0 0.0740591,-0.0115 0.10865,-0.0326614 0.121772,-0.0745118 0.224177,-0.257323 0.298291,-0.49211 0.078185,-0.247677 0.121469,-0.547996 0.121469,-0.841984 0,-0.322965 -0.0517795,-0.634791 -0.166476,-0.854331z"/>
 </g>
</svg>
