<?xml version="1.0" encoding="UTF-8"?>
<!DOCTYPE svg PUBLIC "-//W3C//DTD SVG 1.1//EN" "http://www.w3.org/Graphics/SVG/1.1/DTD/svg11.dtd">
<!-- Creator: CorelDRAW -->
<svg xmlns="http://www.w3.org/2000/svg" xml:space="preserve" width="6.82666in" height="6.82666in" style="shape-rendering:geometricPrecision; text-rendering:geometricPrecision; image-rendering:optimizeQuality; fill-rule:evenodd; clip-rule:evenodd"
viewBox="0 0 6.82666 6.82666"
 xmlns:xlink="http://www.w3.org/1999/xlink">
 <defs>
  <style type="text/css">
   <![CDATA[
    .fil0 {fill:none}
    .fil2 {fill:#F19A7B}
    .fil1 {fill:#333333;fill-rule:nonzero}
   ]]>
  </style>
 </defs>
 <g id="Layer_x0020_1">
  <metadata id="CorelCorpID_0Corel-Layer"/>
  <g id="_294580568">
   <rect id="_294581648" class="fil0" width="6.82666" height="6.82666"/>
   <rect id="_294580784" class="fil0" x="0.853331" y="0.853331" width="5.12" height="5.12"/>
  </g>
  <g id="_294580448">
   <path id="_294581072" class="fil1" d="M5.63441 5.28202c0.0589094,0 0.106669,-0.0477598 0.106669,-0.106669 0,-0.0589094 -0.0477598,-0.106669 -0.106669,-0.106669l-4.00181 0c-0.224543,0 -0.372417,-0.0860787 -0.439654,-0.197882 -0.0253386,-0.0421339 -0.0392087,-0.0877559 -0.0412244,-0.133146 -0.002,-0.0450472 0.00746457,-0.090189 0.028748,-0.13174 0.0544724,-0.106331 0.186622,-0.192319 0.404008,-0.20676 0.0586811,-0.0036811 0.103268,-0.0542362 0.0995866,-0.112917 -0.0036811,-0.0586811 -0.0542362,-0.103268 -0.112917,-0.0995866 -0.302346,0.0200827 -0.493835,0.154705 -0.579843,0.322594 -0.0385354,0.0752244 -0.0556811,0.156618 -0.0520866,0.237575 0.00358268,0.0806102 0.0275433,0.160508 0.0712244,0.233146 0.102634,0.170661 0.313685,0.302055 0.622157,0.302055l4.00181 0z"/>
   <polygon id="_294581000" class="fil1" points="3.05752,4.0948 2.7587,5.20997 2.55287,5.15497 2.85168,4.0398 "/>
   <polygon id="_294580688" class="fil1" points="4.1681,4.0398 4.46691,5.15497 4.26107,5.20997 3.96226,4.0948 "/>
   <path id="_294580472" class="fil1" d="M1.7493 1.53794c0.780803,0.0459252 1.27343,0.388331 1.75728,0.724638 0.588016,0.408709 1.16235,0.807906 2.25415,0.589547l0.168669 -0.0337323 -0.0453346 0.166232 -0.30289 1.11059 -0.0214803 0.078752 -0.0810197 0 -3.26828 0 -0.0878661 0 -0.0167165 -0.0866693 -0.467339 -2.42311 -0.0258976 -0.134291 0.136732 0.00803937zm1.63561 0.899638c-0.42974,-0.298697 -0.866787,-0.602429 -1.51065,-0.675323l0.423996 2.19837 3.09939 0 0.237181 -0.86965c-1.07211,0.165181 -1.65444,-0.239508 -2.24992,-0.653402z"/>
  </g>
  <path class="fil2" d="M3.38491 2.43758c-0.42974,-0.298697 -0.866787,-0.602429 -1.51065,-0.675323l0.423996 2.19837 3.09939 0 0.237181 -0.86965c-1.07211,0.165181 -1.65444,-0.239508 -2.24992,-0.653402z"/>
 </g>
</svg>
