<?xml version="1.0" encoding="UTF-8"?>
<!DOCTYPE svg PUBLIC "-//W3C//DTD SVG 1.1//EN" "http://www.w3.org/Graphics/SVG/1.1/DTD/svg11.dtd">
<!-- Creator: CorelDRAW -->
<svg xmlns="http://www.w3.org/2000/svg" xml:space="preserve" width="6.82666in" height="6.82666in" style="shape-rendering:geometricPrecision; text-rendering:geometricPrecision; image-rendering:optimizeQuality; fill-rule:evenodd; clip-rule:evenodd"
viewBox="0 0 6.82666 6.82666"
 xmlns:xlink="http://www.w3.org/1999/xlink">
 <defs>
  <style type="text/css">
   <![CDATA[
    .fil0 {fill:none}
    .fil3 {fill:#949494}
    .fil2 {fill:#AED581}
    .fil1 {fill:#333333;fill-rule:nonzero}
   ]]>
  </style>
 </defs>
 <g id="Layer_x0020_1">
  <metadata id="CorelCorpID_0Corel-Layer"/>
  <g id="_294581912">
   <rect id="_294582008" class="fil0" width="6.82666" height="6.82666"/>
   <rect id="_294582296" class="fil0" x="0.853331" y="0.853331" width="5.12" height="5.12"/>
  </g>
  <g id="_294582488">
   <path id="_294582536" class="fil1" d="M1.41541 2.35129c0,-0.0589094 -0.0477598,-0.106669 -0.106669,-0.106669 -0.0589094,0 -0.106669,0.0477598 -0.106669,0.106669l0 1.48724c-0.0345433,0.0536417 -0.0807874,0.108169 -0.127028,0.162693 -0.124071,0.146287 -0.248114,0.292598 -0.241028,0.504358l-0.000283465 0 0 1.41077c0,0.0589094 0.0477598,0.106669 0.106669,0.106669l2.011 0c0.0589094,0 0.106669,-0.0477598 0.106669,-0.106669l0 -0.173063 2.67322 0c0.0589094,0 0.106669,-0.0477598 0.106669,-0.106669l0 -0.379079c0,-0.0589094 -0.0477598,-0.106669 -0.106669,-0.106669l-0.14828 0c-0.0206535,-0.484902 -0.185819,-0.780197 -0.488846,-0.952567 -0.299689,-0.170465 -0.728461,-0.208161 -1.28369,-0.186547 -0.156213,-0.207854 -0.262535,-0.456075 -0.319354,-0.721244 -0.0635039,-0.29635 -0.0651142,-0.613327 -0.00545669,-0.918799 0.0112756,-0.0577559 -0.0264094,-0.113724 -0.0841654,-0.125 -0.0577559,-0.0112756 -0.113724,0.0264094 -0.125,0.0841654 -0.0650709,0.333209 -0.0632008,0.679504 0.00629134,1.0038 0.0668819,0.312118 0.196484,0.60437 0.389406,0.845988 0.0201772,0.0293465 0.0545748,0.0479291 0.0927677,0.0462087l-1.5748e-005 -0.000314961c0.544083,-0.0245276 0.956067,0.00422047 1.22421,0.156744 0.253024,0.143925 0.382744,0.412217 0.382744,0.874236 0,0.0589094 0.0477598,0.106669 0.106669,0.106669l0.146043 0 0 0.16574 -2.67322 0c-0.0589094,0 -0.106669,0.0477598 -0.106669,0.106669l0 0.173063 -1.79766 0 0 -1.3041 -7.87402e-006 0c-3.93701e-006,-0.0014685 -2.3622e-005,-0.00294094 -8.66142e-005,-0.00442126l-0.000330709 1.1811e-005c-0.00530315,-0.131087 0.0927953,-0.246768 0.190902,-0.362445 0.0561063,-0.0661575 0.11222,-0.132323 0.157744,-0.208783 0.0126535,-0.0175394 0.0201181,-0.0390709 0.0201181,-0.0623465l0 -1.5163z"/>
   <path id="_294582104" class="fil1" d="M2.76013 3.11468l0.580496 -0.0907244 0.0863071 -0.0134882 0.0125512 0.0866142 0.0595039 0.410728 0.0121063 0.0835787 -0.0835394 0.0139252 -0.64 0.106665c-0.0122008,0.00203543 -0.0235787,0.00301575 -0.0341339,0.00301575 -0.060689,0 -0.114933,-0.0265276 -0.155972,-0.0679843 -0.0379252,-0.038311 -0.0646496,-0.0900906 -0.0737402,-0.14465 -0.00243701,-0.014626 -0.00370866,-0.0288307 -0.00370866,-0.0423622l0 -0.0933386c0,-0.0686299 0.0270669,-0.12611 0.0707283,-0.169772 0.0435394,-0.0435394 0.104071,-0.072 0.169402,-0.0822087zm0.520594 0.0933937l-0.494185 0.0772362c-0.029315,0.00457874 -0.0555433,0.0164134 -0.0732598,0.0341299 -0.0123071,0.0123071 -0.0199409,0.0283189 -0.0199409,0.0472205l0 0.0933386c0,0.00533071 0.000346457,0.00998031 0.001,0.0139213 0.00327559,0.0196693 0.0125787,0.038 0.0256614,0.0512165 0.0099685,0.0100709 0.0217441,0.0165197 0.0334213,0.0165197 0.0025315,0 0.00445669,-0.000102362 0.00569291,-0.000307087l0.556457 -0.0927402 -0.0348465 -0.240535z"/>
   <path id="_294582320" class="fil1" d="M2.96195 3.75705l0.516091 -0.155638 0.0673937 -0.0203268 0.0334921 0.0626457 0.168028 0.314283 0.0458346 0.0857323 -0.0905236 0.0354685 -0.684118 0.268024c-0.0214646,0.00840945 -0.0427677,0.0122913 -0.0635984,0.0122913 -0.0491024,0 -0.093622,-0.0207165 -0.129894,-0.0536811 -0.0307835,-0.0279803 -0.0557913,-0.065626 -0.0715827,-0.105949 -0.0126063,-0.0321614 -0.0197441,-0.0666102 -0.0197441,-0.0999016l0 -0.0933386c0,-0.0738583 0.0313858,-0.129988 0.0802165,-0.172783 0.041311,-0.0362047 0.0940709,-0.0604409 0.148406,-0.0768268zm0.498122 0.0305748l-0.448697 0.135315c-0.0334291,0.0100787 -0.0640157,0.0233504 -0.0840827,0.040937 -0.0125551,0.0110039 -0.020626,0.0249764 -0.020626,0.0427835l0 0.0933386c0,0.0118661 0.00273228,0.024626 0.00755512,0.0369331 0.00637402,0.0162756 0.0157874,0.0308583 0.0268898,0.0409488 0.00561417,0.00510236 0.0104646,0.00831102 0.013437,0.00831102 0.00023622,0 0.000456693,-3.54331e-005 0.000629921,-0.000102362l0.593591 -0.232559 -0.0886969 -0.165906z"/>
   <path id="_294582080" class="fil1" d="M1.05333 1.0187l2.64001 0c0.0844409,0 0.161138,0.0344724 0.216665,0.09 0.0555276,0.0555354 0.09,0.132224 0.09,0.216665l0 0.706673c0,0.102772 -0.0419724,0.196142 -0.109587,0.263748 -0.0676063,0.0676142 -0.160969,0.109587 -0.263748,0.109587l-2.50667 0c-0.102776,0 -0.196138,-0.0419724 -0.263752,-0.109583 -0.0676102,-0.0676142 -0.109583,-0.160976 -0.109583,-0.263752l0 -0.706673c0,-0.0844409 0.0344724,-0.161138 0.09,-0.216665 0.0555276,-0.0555276 0.132224,-0.09 0.216665,-0.09zm2.64001 0.213339l-2.64001 0c-0.0255551,0 -0.0488661,0.0105315 -0.0658307,0.0274961 -0.0169646,0.0169646 -0.0274961,0.0402756 -0.0274961,0.0658307l0 0.706673c0,0.0438898 0.0180354,0.0838701 0.0470787,0.112917 0.0290472,0.0290433 0.0690276,0.0470787 0.112917,0.0470787l2.50667 0c0.0438858,0 0.0838661,-0.0180354 0.112913,-0.0470827 0.0290472,-0.0290472 0.0470827,-0.0690315 0.0470827,-0.112913l0 -0.706673c0,-0.0255551 -0.0105354,-0.0488661 -0.0274961,-0.0658307 -0.0169646,-0.0169646 -0.0402756,-0.0274961 -0.0658307,-0.0274961z"/>
  </g>
  <path class="fil2" d="M3.69333 1.23204l-2.64001 0c-0.0255551,0 -0.0488661,0.0105315 -0.0658307,0.0274961 -0.0169646,0.0169646 -0.0274961,0.0402756 -0.0274961,0.0658307l0 0.706673c0,0.0438898 0.0180354,0.0838701 0.0470787,0.112917 0.0290472,0.0290433 0.0690276,0.0470787 0.112917,0.0470787l2.50667 0c0.0438858,0 0.0838661,-0.0180354 0.112913,-0.0470827 0.0290472,-0.0290472 0.0470827,-0.0690315 0.0470827,-0.112913l0 -0.706673c0,-0.0255551 -0.0105354,-0.0488661 -0.0274961,-0.0658307 -0.0169646,-0.0169646 -0.0402756,-0.0274961 -0.0658307,-0.0274961z"/>
  <path class="fil2" d="M1.04707 4.50558l0 0zm2.21604 -2.10021l-1.84769 0 0 1.46222c0,0.0232756 -0.00746457,0.0448071 -0.0201181,0.0623465 -0.0455236,0.0764606 -0.101638,0.142626 -0.157744,0.208783 -0.0981063,0.115677 -0.196205,0.231358 -0.190902,0.362445l0.000330709 -1.1811e-005 9.44882e-005 0.00442126 0 1.3041 1.79766 0 0 -0.173063c0,-0.0589094 0.0477598,-0.106669 0.106669,-0.106669l2.67322 0 0 -0.16574 -0.146043 0c-0.0589094,0 -0.106669,-0.0477598 -0.106669,-0.106669 0,-0.46202 -0.12972,-0.730311 -0.382744,-0.874236 -0.268146,-0.152524 -0.68013,-0.181272 -1.22421,-0.156744l1.5748e-005 0.000314961c-0.0381929,0.00172047 -0.0725906,-0.0168622 -0.0927677,-0.0462087 -0.0180472,-0.0226024 -0.0355354,-0.0456457 -0.0524764,-0.0691063l-0.601571 0.235685c-0.0214646,0.00840945 -0.0427677,0.0122913 -0.0635984,0.0122913 -0.0491024,0 -0.093622,-0.0207165 -0.129894,-0.0536811 -0.0307835,-0.0279803 -0.0557913,-0.065626 -0.0715827,-0.105949 -0.0126063,-0.0321614 -0.0197441,-0.0666102 -0.0197441,-0.0999016l0 -0.0933386c0,-0.0738583 0.0313858,-0.129988 0.0802165,-0.172783 0.041311,-0.0362047 0.0940709,-0.0604409 0.148406,-0.0768268l0.406925 -0.122717c-0.00220472,-0.00603937 -0.00438583,-0.0120906 -0.00653937,-0.0181535l-0.574783 0.0957953c-0.0122008,0.00203543 -0.0235787,0.00301575 -0.0341339,0.00301575 -0.060689,0 -0.114933,-0.0265276 -0.155972,-0.0679843 -0.0379252,-0.038311 -0.0646496,-0.0900906 -0.0737402,-0.14465 -0.00243701,-0.014626 -0.00370866,-0.0288307 -0.00370866,-0.0423622l0 -0.0933386c0,-0.0686299 0.0270669,-0.12611 0.0707283,-0.169772 0.0435394,-0.0435394 0.104071,-0.072 0.169402,-0.0822087l0.478539 -0.0747913c-0.0183661,-0.209846 -0.0101693,-0.424248 0.0244331,-0.634516z"/>
  <path class="fil3" d="M3.25978 3.21134l-0.47324 0.0739646c-0.029315,0.00457874 -0.0555433,0.0164134 -0.0732598,0.0341299 -0.0123071,0.0123071 -0.0199409,0.0283189 -0.0199409,0.0472205l0 0.0933386c0,0.00533071 0.000346457,0.00998031 0.001,0.0139213 0.00327559,0.0196693 0.0125787,0.038 0.0256614,0.0512165 0.0099685,0.0100709 0.0217441,0.0165197 0.0334213,0.0165197 0.0025315,0 0.00445669,-0.000102362 0.00569291,-0.000307087l0.551358 -0.0918898c-0.010185,-0.0379173 -0.0194134,-0.0762008 -0.0276811,-0.114783 -0.00874016,-0.0407874 -0.0164094,-0.0819173 -0.0230118,-0.123331z"/>
  <path class="fil3" d="M3.43528 3.7951l-0.423906 0.127839c-0.0334291,0.0100787 -0.0640157,0.0233504 -0.0840827,0.040937 -0.0125551,0.0110039 -0.020626,0.0249764 -0.020626,0.0427835l0 0.0933386c0,0.0118661 0.00273228,0.024626 0.00755512,0.0369331 0.00637402,0.0162756 0.0157874,0.0308583 0.0268898,0.0409488 0.00561417,0.00510236 0.0104646,0.00831102 0.013437,0.00831102l0.000629921 -0.000102362 0.568106 -0.222575c-0.0319449,-0.0544921 -0.0612795,-0.110713 -0.0880039,-0.168413z"/>
 </g>
</svg>
