<?xml version="1.0" encoding="UTF-8"?>
<!DOCTYPE svg PUBLIC "-//W3C//DTD SVG 1.1//EN" "http://www.w3.org/Graphics/SVG/1.1/DTD/svg11.dtd">
<!-- Creator: CorelDRAW -->
<svg xmlns="http://www.w3.org/2000/svg" xml:space="preserve" width="6.82666in" height="6.82666in" style="shape-rendering:geometricPrecision; text-rendering:geometricPrecision; image-rendering:optimizeQuality; fill-rule:evenodd; clip-rule:evenodd"
viewBox="0 0 6.82666 6.82666"
 xmlns:xlink="http://www.w3.org/1999/xlink">
 <defs>
  <style type="text/css">
   <![CDATA[
    .fil1 {fill:none}
    .fil3 {fill:#63CBE5}
    .fil2 {fill:#C794BE}
    .fil0 {fill:#333333;fill-rule:nonzero}
   ]]>
  </style>
 </defs>
 <g id="Layer_x0020_1">
  <metadata id="CorelCorpID_0Corel-Layer"/>
  <g id="_294568472">
   <polygon id="_294568208" class="fil0" points="1.38794,3.48143 5.43872,3.48143 5.43872,3.69477 1.38794,3.69477 "/>
   <path id="_294568400" class="fil0" d="M1.38794 4.24095l1.27873 0 0 0.213339 -1.27873 0 0 -0.213339zm2.77206 0l1.27872 0 0 0.213339 -1.27872 0 0 -0.213339z"/>
   <polygon id="_294568328" class="fil0" points="1.38794,5.00047 5.43872,5.00047 5.43872,5.21381 1.38794,5.21381 "/>
  </g>
  <g id="_294583808">
   <rect id="_294584216" class="fil1" width="6.82666" height="6.82666"/>
   <rect id="_294583832" class="fil1" x="0.853331" y="0.853331" width="5.12" height="5.12"/>
  </g>
  <polygon class="fil0" points="5.82256,3.24572 3.41333,1.10259 1.00411,3.24572 0.862437,3.08656 3.3425,0.880417 3.41333,0.817409 3.48417,0.880417 5.96422,3.08656 "/>
  <path class="fil0" d="M1.38794 2.72191l4.05079 0 0.106669 0 0 0.106669 0 3.03809 0 0.106669 -0.106669 0 -4.05079 0 -0.106669 0 0 -0.106669 0 -3.03809 0 -0.106669 0.106669 0zm3.94412 0.213339l-3.83745 0 0 2.82475 3.83745 0 0 -2.82475z"/>
  <polygon class="fil0" points="2.05722,1.3658 2.05722,2.26596 1.84389,2.26596 1.84389,1.3658 "/>
  <polygon class="fil0" points="1.38794,2.72191 5.43872,2.72191 5.43872,2.93524 1.38794,2.93524 "/>
  <polygon class="fil0" points="1.38794,5.75998 5.43872,5.75998 5.43872,5.97332 1.38794,5.97332 "/>
  <path class="fil0" d="M2.66667 3.48143l1.49333 0 0.106669 0 0 0.106669 0 1.51904 0 0.106669 -0.106669 0 -1.49333 0 -0.106669 0 0 -0.106669 0 -1.51904 0 -0.106669 0.106669 0zm1.38667 0.213339l-1.28 0 0 1.3057 1.28 0 0 -1.3057z"/>
  <polygon class="fil2" points="1.59296,2.72191 5.2337,2.72191 3.41333,1.10259 "/>
  <polygon class="fil2" points="5.33206,2.93524 1.49461,2.93524 1.49461,3.48143 2.56,3.48143 2.66667,3.48143 4.16,3.48143 4.26667,3.48143 5.33206,3.48143 "/>
  <polygon class="fil2" points="2.56,4.24095 2.56,3.69477 1.49461,3.69477 1.49461,4.24095 "/>
  <polygon class="fil2" points="4.26667,3.69477 4.26667,4.24095 5.33206,4.24095 5.33206,3.69477 "/>
  <polygon class="fil2" points="5.33206,4.45429 4.26667,4.45429 4.26667,5.00047 5.33206,5.00047 "/>
  <polygon class="fil2" points="2.56,5.00047 2.56,4.45429 1.49461,4.45429 1.49461,5.00047 "/>
  <polygon class="fil2" points="4.16,5.21381 2.66667,5.21381 2.56,5.21381 1.49461,5.21381 1.49461,5.75999 5.33206,5.75999 5.33206,5.21381 4.26667,5.21381 "/>
  <polygon class="fil3" points="2.77333,5.00047 4.05333,5.00047 4.05333,3.69477 2.77333,3.69477 "/>
 </g>
</svg>
