<?xml version="1.0" encoding="UTF-8"?>
<!DOCTYPE svg PUBLIC "-//W3C//DTD SVG 1.1//EN" "http://www.w3.org/Graphics/SVG/1.1/DTD/svg11.dtd">
<!-- Creator: CorelDRAW -->
<svg xmlns="http://www.w3.org/2000/svg" xml:space="preserve" width="6.82666in" height="6.82666in" style="shape-rendering:geometricPrecision; text-rendering:geometricPrecision; image-rendering:optimizeQuality; fill-rule:evenodd; clip-rule:evenodd"
viewBox="0 0 6.82666 6.82666"
 xmlns:xlink="http://www.w3.org/1999/xlink">
 <defs>
  <style type="text/css">
   <![CDATA[
    .fil1 {fill:none}
    .fil0 {fill:#EBE5DF}
    .fil3 {fill:#F45A52}
    .fil4 {fill:#FECA5F}
    .fil2 {fill:#333333;fill-rule:nonzero}
   ]]>
  </style>
 </defs>
 <g id="Layer_x0020_1">
  <metadata id="CorelCorpID_0Corel-Layer"/>
  <path class="fil0" d="M3.29241 2.01549c0.0671535,0 0.135291,0.00364173 0.204138,0.0107205 0.0259567,0.00266929 0.0517598,0.00583858 0.0773898,0.00949606l0 -0.000279528c-0.0919882,-0.0131378 -0.185984,-0.019937 -0.281528,-0.019937zm0.299634 -0.438776c-0.076685,0.076685 -0.182626,0.124122 -0.299634,0.124122 -0.117004,0 -0.222945,-0.047437 -0.29963,-0.124122 -0.0132165,-0.0132165 -0.0255669,-0.0273071 -0.0369528,-0.0421693l-0.0481732 0 -0.103228 0 0 0.103228 0 0.438343 0 0.0821811 0 0.126701 0.124197 -0.0258937c0.0592559,-0.0123543 0.119524,-0.0217638 0.180622,-0.0280512 0.0584685,-0.00600787 0.119547,-0.00910236 0.183165,-0.00910236 0.063622,0 0.124701,0.00309449 0.183165,0.00910236 0.0611024,0.0062874 0.12137,0.0156969 0.180626,0.0280512l0.124197 0.0258937 0 -0.126701 0 -0.0820236 0 -0.4385 0 -0.103228 -0.103232 0 -0.0481693 0c-0.0113858,0.0148622 -0.0237362,0.0289528 -0.0369528,0.0421693z"/>
  <g id="_294569816">
   <rect id="_294570128" class="fil1" width="6.82666" height="6.82666"/>
   <rect id="_294570200" class="fil1" x="0.853331" y="0.853331" width="5.12" height="5.12"/>
  </g>
  <g id="_294569216">
   <path id="_294569000" class="fil2" d="M3.29241 2.01549c0.269831,0 0.527303,0.0542205 0.762122,0.152362 0.243705,0.101858 0.462807,0.251193 0.645772,0.436457l0.0866929 0.0877874 -0.102421 0.0694724 -0.198882 0.134902 0.209469 0.128165 0.0451614 0.0584724 0.0641654 0.214827 0.0458622 -0.170228 0.041937 -0.0584685 0.0148189 -0.0100551 0.0966772 -0.0655866 0.0529213 0.103894c0.0691378,0.135736 0.12324,0.28161 0.160012,0.435362 0.0356969,0.149268 0.0546102,0.303858 0.0546102,0.461555 0,0.546453 -0.2215,1.04118 -0.579622,1.3993 -0.358114,0.358118 -0.852843,0.579622 -1.3993,0.579622 -0.546449,0 -1.04118,-0.221504 -1.3993,-0.579622 -0.358118,-0.358118 -0.579622,-0.852846 -0.579622,-1.3993 0,-0.546445 0.221504,-1.04118 0.579622,-1.3993 0.358118,-0.358118 0.852846,-0.579622 1.3993,-0.579622zm0.683087 0.342689c-0.209957,-0.087748 -0.440701,-0.136228 -0.683087,-0.136228 -0.489461,0 -0.932579,0.198386 -1.25332,0.519134 -0.320748,0.320744 -0.519134,0.763866 -0.519134,1.25332 0,0.489465 0.198386,0.932583 0.519134,1.25333 0.320744,0.320748 0.763862,0.519134 1.25332,0.519134 0.489465,0 0.932583,-0.198386 1.25333,-0.519134 0.320744,-0.320744 0.51913,-0.763862 0.51913,-1.25333 0,-0.143772 -0.0166732,-0.282354 -0.0481535,-0.413972 -0.0109449,-0.0457677 -0.0237362,-0.0909488 -0.0382992,-0.135469l-0.0692126 0.256894 -0.19839 0.00282283 -0.156799 -0.524969 -0.311783 -0.190768 -0.136201 -0.0833307 0.132169 -0.0896575 0.224972 -0.152598c-0.143713,-0.126516 -0.308181,-0.230157 -0.487673,-0.305181z"/>
   <path id="_294568976" class="fil2" d="M2.90765 1.53455l0.769512 0 0.103232 0 0 0.103228 0 0.520524 0 0.126701 -0.124197 -0.0258937c-0.0592559,-0.0123543 -0.119524,-0.0217638 -0.180626,-0.0280512 -0.0584646,-0.00600787 -0.119543,-0.00910236 -0.183165,-0.00910236 -0.0636181,0 -0.124697,0.00309449 -0.183165,0.00910236 -0.0610984,0.0062874 -0.121366,0.0156969 -0.180622,0.0280512l-0.124197 0.0258937 0 -0.126701 0 -0.520524 0 -0.103228 0.103228 0zm0.666283 0.206457l-0.563051 0 0 0.294705c0.0256299,-0.00365748 0.0514331,-0.00682677 0.0773898,-0.00949606 0.0688425,-0.00707874 0.136984,-0.0107205 0.204134,-0.0107205 0.0671535,0 0.135291,0.00364173 0.204138,0.0107205 0.0259567,0.00266929 0.0517598,0.00583858 0.0773898,0.00949606l0 -0.294705z"/>
   <path id="_294569144" class="fil2" d="M3.29241 0.853331c0.117008,0 0.222949,0.047437 0.299634,0.124122 0.076685,0.076685 0.124122,0.182626 0.124122,0.29963 0,0.117 -0.047437,0.222949 -0.124122,0.299634 -0.076685,0.076685 -0.182626,0.124122 -0.299634,0.124122 -0.117004,0 -0.222945,-0.047437 -0.29963,-0.124122 -0.076685,-0.076685 -0.124126,-0.182634 -0.124126,-0.299634 0,-0.117004 0.0474409,-0.222945 0.124126,-0.29963 0.076685,-0.076685 0.182626,-0.124122 0.29963,-0.124122zm0.181031 0.24272c-0.0463189,-0.0463189 -0.110327,-0.0749724 -0.181031,-0.0749724 -0.0707008,0 -0.134713,0.0286535 -0.181031,0.0749724 -0.0463189,0.0463189 -0.0749724,0.110331 -0.0749724,0.181031 0,0.0707047 0.0286535,0.134713 0.0749724,0.181031 0.0463189,0.0463189 0.110331,0.0749764 0.181031,0.0749764 0.0707047,0 0.134713,-0.0286575 0.181031,-0.0749764 0.0463189,-0.0463189 0.0749764,-0.110327 0.0749764,-0.181031 0,-0.0707008 -0.0286575,-0.134713 -0.0749764,-0.181031z"/>
   <path id="_294569264" class="fil2" d="M2.76216 5.51641c-0.285937,-0.13911 -0.526646,-0.356504 -0.694185,-0.62422 -0.162185,-0.259169 -0.255941,-0.565402 -0.255941,-0.893354 0,-0.206193 0.0370472,-0.403835 0.104843,-0.58661 0.0701457,-0.189091 0.173728,-0.362638 0.303685,-0.513555l0.15565 0.134681c-0.113232,0.131492 -0.203874,0.283756 -0.265783,0.45065 -0.0594488,0.160268 -0.0919331,0.33372 -0.0919331,0.514835 0,0.288268 0.0822323,0.557161 0.224484,0.784476 0.147055,0.234992 0.35813,0.425705 0.608701,0.54761l-0.0895197 0.185488z"/>
   <path id="_294569576" class="fil2" d="M4.90839 2.0974l0.156799 0.524972 0.31178 0.190764 0.136197 0.0833386 -0.132165 0.0896496 -0.341354 0.231547 -0.130449 0.484189 -0.0944882 0.350697 -0.103902 -0.347874 -0.156799 -0.524969 -0.311783 -0.190768 -0.136201 -0.0833307 0.132169 -0.0896575 0.341354 -0.231543 0.130453 -0.484193 0.0944803 -0.350697 0.103909 0.347874zm-0.0295157 0.621579l-0.0641654 -0.214827 -0.0458622 0.170228 -0.00989764 0.0367362 -0.0320394 0.0217323 -0.24122 0.163622 0.209469 0.128165 0.0338858 0.0207402 0.0112756 0.0377323 0.0641654 0.214827 0.0458622 -0.170228 0.0098937 -0.0367323 0.0320433 -0.0217362 0.24122 -0.163622 -0.209469 -0.128169 -0.0338898 -0.0207323 -0.0112717 -0.0377362z"/>
   <path id="_294569600" class="fil2" d="M3.89834 3.58053l0.14026 0.393232 0.281157 0.144051 0.137886 0.0706417 -0.13461 0.0764646 -0.30772 0.174791 -0.116315 0.361516 -0.0756496 0.235118 -0.0829252 -0.2325 -0.14026 -0.393236 -0.281157 -0.144051 -0.137886 -0.0706496 0.13461 -0.0764567 0.307724 -0.174787 0.116311 -0.361512 0.0756457 -0.235118 0.0829291 0.232496zm-0.00665354 0.480437l-0.0683386 -0.191587 -0.0506654 0.15748 -0.0100039 0.0310866 -0.0283307 0.0160945 -0.201445 0.114417 0.17322 0.088752 0.0299488 0.0153425 0.0110079 0.0308543 0.0683346 0.191591 0.0506654 -0.15748 0.0100039 -0.0310906 0.0283307 -0.0160906 0.201445 -0.114425 -0.17322 -0.088748 -0.0299488 -0.0153465 -0.0110039 -0.0308504z"/>
  </g>
  <path class="fil3" d="M3.73976 3.58315l0.0756457 -0.235118 0.0829291 0.232496 0.14026 0.393232 0.281157 0.144051 0.137886 0.0706417 -0.13461 0.0764646 -0.30772 0.174791 -0.116315 0.361516 -0.0756496 0.235118 -0.0829252 -0.2325 -0.14026 -0.393236 -0.281157 -0.144051 -0.137886 -0.0706496 0.13461 -0.0764567 0.307724 -0.174787 0.116311 -0.361512zm0.235732 -1.22497c-0.209957,-0.087748 -0.440701,-0.136228 -0.683087,-0.136228 -0.489461,0 -0.932579,0.198386 -1.25332,0.519134 -0.320748,0.320744 -0.519134,0.763866 -0.519134,1.25332 0,0.489465 0.198386,0.932583 0.519134,1.25333 0.320744,0.320748 0.763862,0.519134 1.25332,0.519134 0.489465,0 0.932583,-0.198386 1.25333,-0.519134 0.320744,-0.320744 0.51913,-0.763862 0.51913,-1.25333 0,-0.143772 -0.0166732,-0.282354 -0.0481535,-0.413972 -0.0109449,-0.0457677 -0.0237362,-0.0909488 -0.0382992,-0.135469l-0.0692126 0.256894 -0.0944882 0.350697 -0.103902 -0.347874 -0.156799 -0.524969 -0.311783 -0.190768 -0.136201 -0.0833307 0.132169 -0.0896575 0.224972 -0.152598c-0.143713,-0.126516 -0.308181,-0.230157 -0.487673,-0.305181zm-1.75493 0.540484l0.15565 0.134681c-0.113232,0.131492 -0.203874,0.283756 -0.265783,0.45065 -0.0594488,0.160268 -0.0919331,0.33372 -0.0919331,0.514835 0,0.288268 0.0822323,0.557161 0.224484,0.784476 0.147055,0.234992 0.35813,0.425705 0.608701,0.54761l-0.0895197 0.185488c-0.285937,-0.13911 -0.526646,-0.356504 -0.694185,-0.62422 -0.162185,-0.259169 -0.255941,-0.565402 -0.255941,-0.893354 0,-0.206193 0.0370472,-0.403835 0.104843,-0.58661 0.0701457,-0.189091 0.173728,-0.362638 0.303685,-0.513555z"/>
  <polygon class="fil4" points="3.93264,4.10717 3.90269,4.09182 3.89169,4.06097 3.82335,3.86938 3.77268,4.02686 3.76268,4.05795 3.73435,4.07404 3.5329,4.18846 3.70612,4.27721 3.73607,4.29256 3.74708,4.32341 3.81541,4.515 3.86608,4.35752 3.87608,4.32643 3.90441,4.31034 4.10586,4.19591 "/>
  <polygon class="fil4" points="4.74032,3.08311 4.80449,3.29794 4.85035,3.12771 4.86024,3.09098 4.89229,3.06924 4.90711,3.05919 5.00378,2.9936 5.13351,2.90562 4.92404,2.77745 4.89015,2.75672 4.87888,2.71898 4.81471,2.50415 4.76899,2.67387 4.787,2.6921 4.75895,2.71112 4.72691,2.73285 4.68457,2.76157 4.48569,2.89647 4.69516,3.02464 4.72905,3.04538 "/>
  <path class="fil0" d="M3.47344 1.45811c0.0463189,-0.0463189 0.0749764,-0.110327 0.0749764,-0.181031 0,-0.0707008 -0.0286575,-0.134713 -0.0749764,-0.181031 -0.0463189,-0.0463189 -0.110327,-0.0749724 -0.181031,-0.0749724 -0.0707008,0 -0.134713,0.0286535 -0.181031,0.0749724 -0.0463189,0.0463189 -0.0749724,0.110331 -0.0749724,0.181031 0,0.0707047 0.0286535,0.134713 0.0749724,0.181031 0.0463189,0.0463189 0.110331,0.0749764 0.181031,0.0749764 0.0707047,0 0.134713,-0.0286575 0.181031,-0.0749764z"/>
 </g>
</svg>
