<?xml version="1.0" encoding="UTF-8"?>
<!DOCTYPE svg PUBLIC "-//W3C//DTD SVG 1.1//EN" "http://www.w3.org/Graphics/SVG/1.1/DTD/svg11.dtd">
<!-- Creator: CorelDRAW -->
<svg xmlns="http://www.w3.org/2000/svg" xml:space="preserve" width="6.82666in" height="6.82666in" style="shape-rendering:geometricPrecision; text-rendering:geometricPrecision; image-rendering:optimizeQuality; fill-rule:evenodd; clip-rule:evenodd"
viewBox="0 0 6.82666 6.82666"
 xmlns:xlink="http://www.w3.org/1999/xlink">
 <defs>
  <style type="text/css">
   <![CDATA[
    .fil0 {fill:none}
    .fil2 {fill:#AED581}
    .fil1 {fill:#333333;fill-rule:nonzero}
   ]]>
  </style>
 </defs>
 <g id="Layer_x0020_1">
  <metadata id="CorelCorpID_0Corel-Layer"/>
  <g id="_294570512">
   <rect id="_294571040" class="fil0" width="6.82666" height="6.82666"/>
   <rect id="_294571088" class="fil0" x="0.853331" y="0.853331" width="5.12" height="5.12"/>
  </g>
  <g id="_294570968">
   <path id="_294570416" class="fil1" d="M5.29395 3.98206l0.453657 0.921232 0.0757126 0.153752 -0.17113 0 -1.20313 0 -1.20312 0 -0.17113 0 0.0757126 -0.153752 0.453661 -0.921232 -0.486575 0 -0.187209 0 0.0955433 -0.160835 1.65822 -2.79132 0.11524 -0.193988 0.0764252 0.212319 1.00468 2.79132 0.0512913 0.142504 -0.151291 0 -0.486567 0zm0.187106 0.861646l-0.453657 -0.921232 -0.0757165 -0.153752 0.171134 0 0.506409 0 -0.876969 -2.43649 -1.44743 2.43649 0.470496 0 0.17113 0 -0.0757126 0.153752 -0.453661 0.921232 1.03199 0 1.03199 0z"/>
   <polygon id="_294570488" class="fil1" points="4.55574,4.95038 4.55574,5.99074 4.3424,5.99074 4.3424,4.95038 "/>
   <path id="_294570680" class="fil1" d="M1.3288 1.99417c-0.0589094,0 -0.106669,0.0477598 -0.106669,0.106669 0,0.0589094 0.0477598,0.106669 0.106669,0.106669l1.8955 0c0.24085,0 0.40637,-0.103803 0.487453,-0.238634 0.0349252,-0.0580748 0.0540866,-0.122059 0.0569567,-0.186681 0.00288583,-0.0649685 -0.0108858,-0.130315 -0.0418307,-0.19072 -0.068185,-0.133106 -0.218618,-0.239744 -0.455028,-0.255445 -0.0586811,-0.0036811 -0.109236,0.0409055 -0.112917,0.0995866 -0.0036811,0.0586811 0.0409055,0.109236 0.0995866,0.112917 0.151453,0.0100591 0.242543,0.068063 0.279193,0.13961 0.0136929,0.0267323 0.0197835,0.0558268 0.0184921,0.0848858 -0.00130709,0.0294094 -0.010374,0.0591102 -0.0269567,0.0866811 -0.045685,0.0759685 -0.148028,0.134461 -0.304949,0.134461l-1.8955 0z"/>
   <path id="_294570992" class="fil1" d="M1.00152 2.87501c-0.0589094,0 -0.106669,0.0477598 -0.106669,0.106669 0,0.0589094 0.0477598,0.106669 0.106669,0.106669l1.71497 0c0.221531,0 0.374264,-0.0895748 0.449083,-0.205528 0.0330394,-0.0512047 0.0510827,-0.107949 0.0536378,-0.165598 0.0025748,-0.0581417 -0.010815,-0.116276 -0.0406654,-0.169709 -0.0637047,-0.114035 -0.20239,-0.205283 -0.418815,-0.218465 -0.0586811,-0.00345276 -0.109051,0.0413189 -0.112504,0.1 -0.00345276,0.0586811 0.0413189,0.109051 0.1,0.112504 0.134496,0.00819291 0.214339,0.0535433 0.245484,0.109291 0.0102402,0.0183307 0.0148504,0.0379213 0.0139961,0.0572126 -0.000874016,0.0197874 -0.00770472,0.0402441 -0.0202992,0.0597638 -0.0390157,0.0604724 -0.129386,0.107189 -0.269917,0.107189l-1.71497 0z"/>
  </g>
  <polygon class="fil2" points="4.75226,1.33223 3.30483,3.76872 3.77532,3.76872 3.94645,3.76872 3.87074,3.92248 3.41708,4.84371 4.44907,4.84371 5.48106,4.84371 5.0274,3.92248 4.95169,3.76872 5.12282,3.76872 5.62923,3.76872 "/>
 </g>
</svg>
