<?xml version="1.0" encoding="UTF-8"?>
<!DOCTYPE svg PUBLIC "-//W3C//DTD SVG 1.1//EN" "http://www.w3.org/Graphics/SVG/1.1/DTD/svg11.dtd">
<!-- Creator: CorelDRAW -->
<svg xmlns="http://www.w3.org/2000/svg" xml:space="preserve" width="6.82666in" height="6.82666in" style="shape-rendering:geometricPrecision; text-rendering:geometricPrecision; image-rendering:optimizeQuality; fill-rule:evenodd; clip-rule:evenodd"
viewBox="0 0 6.82666 6.82666"
 xmlns:xlink="http://www.w3.org/1999/xlink">
 <defs>
  <style type="text/css">
   <![CDATA[
    .fil0 {fill:none}
    .fil2 {fill:#333333}
    .fil3 {fill:#B38E85}
    .fil1 {fill:#333333;fill-rule:nonzero}
   ]]>
  </style>
 </defs>
 <g id="Layer_x0020_1">
  <metadata id="CorelCorpID_0Corel-Layer"/>
  <g id="_294572360">
   <rect id="_294572072" class="fil0" width="6.82666" height="6.82666"/>
   <rect id="_294572528" class="fil0" x="0.853331" y="0.853331" width="5.12" height="5.12"/>
  </g>
  <g id="_294571760">
   <path id="_294572456" class="fil1" d="M3.80117 1.75354c0.24965,-0.010378 0.396882,0.00648425 0.46798,0.0414173 0.139783,0.068685 0.13676,0.15985 0.0320118,0.263642 -0.0474016,0.0469724 -0.13063,0.0975984 -0.234654,0.148126 -0.37185,0.180618 -1.0665,0.38824 -1.24121,0.387134l0 3.93701e-006 -0.000244094 0 -0.000173228 0 0 -3.93701e-006 -0.0384055 -0.000271654c-0.187843,-0.00129921 -0.375587,-0.00259843 -0.562665,-0.0224016l-0.000417323 0c-0.0349528,-0.00370866 -0.0701417,-0.0108465 -0.105268,-0.0179724 -0.00852756,-0.00172835 -0.0169055,-0.00343307 -0.0462126,-0.00862992l-0.000417323 -0.000417323c-0.0429685,-0.00777559 -0.0878228,-0.0118031 -0.133543,-0.0122047 -0.162823,-0.00142913 -0.335354,0.0426929 -0.47426,0.12672 -0.130843,0.0791457 -0.229705,0.193528 -0.255665,0.336996 -0.00430709,0.0238189 -0.00669685,0.0485118 -0.00696457,0.0740354l0.000409449 0 0 0.00998819 -0.000405512 0c0.00026378,0.0210197 0.00293701,0.0519449 0.00562205,0.0830472l5.90551e-005 0.000669291c0.0332205,0.383358 0.025689,0.597551 0.0177165,0.824169l-1.5748e-005 0c-0.00487008,0.138571 -0.00990551,0.281984 -0.00527559,0.47348l-0.00125197 0.0195827c-0.0218622,0.132035 -0.0184724,0.567618 0.0192402,0.910299 0.0218268,0.198315 0.0414961,0.35474 0.0485315,0.35611l0.00166535 0.000417323c0.0264291,0.00554331 0.052378,0.010122 0.0769646,0.0119961 -0.0115906,-0.0216614 -0.0222244,-0.0460945 -0.0310945,-0.0793386l-0.000106299 2.75591e-005c-0.0537795,-0.201236 -0.0689173,-0.479579 -0.0584409,-0.752531 0.0119685,-0.311921 0.0578346,-0.621024 0.117819,-0.800976l0.1975 -0.0116654c0.0785276,0.168713 0.185634,0.555972 0.26187,0.920898 0.0556969,0.266618 0.0950669,0.525315 0.0955787,0.685795 0.0474331,0.014063 0.0862441,0.0250984 0.13439,0.0255906 -0.0165394,-0.0290157 -0.0334646,-0.0749803 -0.0530472,-0.151008 -0.0330906,-0.128563 -0.130268,-0.554043 -0.184685,-0.889063 -0.0352953,-0.217295 -0.0520354,-0.405543 -0.0232795,-0.479287 0.0155906,-0.0398228 0.0249016,-0.0660748 0.0326969,-0.0880669 0.015248,-0.0430039 0.0251654,-0.0709764 0.0637244,-0.151394l0 -0.000830709c0.0133307,-0.0273071 0.0290197,-0.0464764 0.0445669,-0.0654724 0.00370079,-0.00451575 0.00729921,-0.00890945 0.00858661,-0.0105079l-5.11811e-005 -3.93701e-005c0.00069685,-0.000897638 0.0118661,-0.014437 0.0229606,-0.0278858 0.0224291,-0.0271929 0.044689,-0.0541811 0.0431654,-0.0734961l-0.0127283 -0.160984 0.153146 0.051815 0.0284646 0.00962992c0.325957,0.110327 0.337543,0.114244 0.710476,0.0529724l-1.1811e-005 -6.69291e-005c0.0160315,-0.00270866 0.0315945,-0.00268898 0.0466969,-0.000161417 0.0706181,0.011878 0.106087,0.0611339 0.117228,0.132795l6.69291e-005 -1.1811e-005c0.00539764,0.0350276 0.00390157,0.0777756 -0.0015315,0.122437 -0.0125197,0.102917 -0.0474567,0.227181 -0.0595433,0.263929 -0.0126339,0.0385236 -0.0252638,0.0787126 -0.0379173,0.11898l-0.0125236 0.0397795 0 0.000417323c-0.0418701,0.132555 -0.117394,0.47472 -0.179898,0.757902 -0.0310039,0.140469 -0.0590906,0.267693 -0.0735276,0.329035l-0.000417323 0.000417323c-0.000232283,0.000980315 -0.000102362,0.00219291 0.000338583,0.00354331 0.00131496,0.00400394 0.00475984,0.00879921 0.00999213,0.0141063 0.0182795,0.0181693 0.031126,0.0419409 0.0381654,0.0658858 0.00650787,0.0221142 0.00869291,0.0474331 0.00584646,0.0693819l0 0.00124803c-0.0017874,0.0127559 -0.00722835,0.0121339 -0.00533858,0.0151614 0.00285827,0.00457087 0.000590551,-0.00526772 0.0102087,-0.00270472l0.00409843 0.00108661c0.0162677,0.00430709 0.0333622,0.00883465 0.0461969,0.0104961 -0.0115039,-0.0134606 -0.021563,-0.0304331 -0.0264961,-0.046811l0.000267717 -7.87402e-005c-0.00529921,-0.0176417 -0.00665354,-0.0305472 -0.00795669,-0.043374l-4.33071e-005 3.93701e-006c-0.000173228,-0.00172441 -0.000350394,-0.00343701 -0.00105512,-0.0074252l0.000255906 -4.33071e-005c-0.00214961,-0.0117756 -0.00257874,-0.0146142 -0.00297244,-0.0172835 -0.000901575,-0.00612205 0.00110236,-0.00641732 -0.000358268,-0.0093622l-0.000417323 -0.000417323c-0.0103228,-0.0211299 -0.0177205,-0.0435394 -0.0215827,-0.0677795 -0.00413386,-0.0259055 -0.00377165,-0.0517835 0.00187008,-0.0778661l8.66142e-005 1.9685e-005c0.0573898,-0.266839 0.136858,-0.509902 0.217319,-0.756016 0.0368937,-0.112858 0.0739921,-0.226339 0.104299,-0.326035 0.0253031,-0.083248 0.0555118,-0.164437 0.0953268,-0.242138 0.041122,-0.0802441 0.0918268,-0.155874 0.156815,-0.224949l0.183335 0.0833346c-0.00212205,0.0215551 -0.00269291,0.0279173 -0.00331102,0.0348031l-3.54331e-005 -3.93701e-006c-0.00293701,0.0326535 -0.00580315,0.0644094 -0.00954724,0.090189l0 0.000417323c-0.0074685,0.0510433 -0.0108228,0.100768 -0.0113937,0.149638 -0.00057874,0.0490551 0.00169291,0.101181 0.00543307,0.154937l5.90551e-005 -3.93701e-006c0.00197244,0.0257835 -0.00212992,0.046311 -0.00625197,0.0668386l0.000401575 7.87402e-005c-0.00127953,0.00638976 -0.00232677,0.0110787 -0.00244488,0.0119331l-0.00561811 0.0399331c-0.00533071,0.0380197 -0.0106575,0.0759567 -0.0120079,0.0851811 -0.00218504,0.0146929 -0.00144094,0.0303425 0.00100787,0.0463504 0.00297638,0.0194724 0.00838189,0.0392874 0.0144528,0.0587953 0.0515039,0.164035 0.0317717,0.438689 0.0166378,0.649295 -0.00387008,0.0538701 -0.00745276,0.103638 -0.00904331,0.135858l-1.9685e-005 0c-3.93701e-005,0.00339764 0.000429134,0.0086063 0.000897638,0.0138228 0.000838583,0.00937795 0.00168504,0.0187756 0.00180709,0.0302795 1.5748e-005,0.00182677 0.000173228,0.00282677 0.000425197,0.00317717 0.00215354,0.00296457 0.00676772,0.00610236 0.013063,0.00929134l8.26772e-005 -0.000165354c0.0380157,0.0188976 0.0618071,0.044 0.0742677,0.0791575 0.0115945,0.0327323 0.00976378,0.0632559 -0.00294882,0.0954882 0.0048622,0.00506299 0.00972047,0.0112008 0.0145827,0.0188819l0.000291339 -0.00749606c-0.000700787,-0.00277165 -0.000897638,-0.00483071 0.000188976,-0.0047874l0.00709449 0.000295276c0.0174094,0.000720472 0.0256693,0.00124803 0.0337756,0.00176772 0.0214843,0.00137008 0.043,0.00274803 0.060874,0.00164961l0.000417323 0c0.00363386,-0.000208661 0.0073189,-0.000468504 0.0110551,-0.000767717 -0.0176614,-0.085437 -0.0435394,-0.199764 -0.0675118,-0.264346 -0.0745866,-0.199217 -0.0724134,-0.474421 -0.0705039,-0.716421 0.000771654,-0.0977953 0.00149606,-0.189768 -0.00351181,-0.268587l0 -0.000413386c-0.00114173,-0.0193465 -0.00105118,-0.0387008 0.000185039,-0.0577126 0.00125984,-0.0193425 0.00375591,-0.0388976 0.00737008,-0.0582598l7.48031e-005 1.5748e-005c0.00837402,-0.0455512 0.0217402,-0.0883228 0.0382047,-0.129331 0.0164213,-0.0409173 0.0346575,-0.0780118 0.0535748,-0.113591l0.000338583 0.000181102c0.038815,-0.0745827 0.078626,-0.17689 0.122783,-0.290378 0.226614,-0.582394 0.558382,-1.43501 1.64732,-1.1412l0.0619921 0.0167283 0.00701969 0.0309488c0.0660276,-0.000519685 0.0961929,-0.0209331 0.105047,-0.0511496 0.0173307,-0.059126 -0.0021378,-0.152665 -0.0297795,-0.243898l0 -0.000417323c-0.0118228,-0.0394173 -0.0812913,-0.0717953 -0.137547,-0.0980118 -0.0916614,-0.0427165 -0.167118,-0.0779055 -0.165524,-0.17726l-0.000244094 3.14961e-005c-3.93701e-006,2.75591e-005 -7.87402e-006,2.75591e-005 -1.1811e-005,0 -0.00126772,-0.0102441 -0.00252362,-0.0205 -0.000433071,-0.0384567l-0.000165354 -1.5748e-005c5.90551e-005,-0.000555118 8.66142e-005,-0.000952756 7.87402e-005,-0.00122047l-0.0010315 0.000826772c-0.00108268,0.00196457 -0.00282677,0.00529528 -0.00430315,0.00346063 -0.0108346,-0.0134528 -0.0251102,-0.0242835 -0.0369528,-0.0288504l-0.033748 -0.021248c-0.568693,-0.525894 -1.02086,-0.623689 -1.29233,-0.565374 -0.0952953,0.0204685 -0.163839,0.059374 -0.202756,0.103287 -0.0250709,0.0282874 -0.0354016,0.0551142 -0.0280118,0.0730709 0.00985433,0.0239409 0.0464882,0.0447677 0.114697,0.0552008zm0.267063 0.212213c-0.0625472,-0.00437795 -0.150394,-0.00445276 -0.267902,0.000716535l-0.018748 -0.000834646c-0.158457,-0.0213622 -0.253835,-0.0942874 -0.29178,-0.186461 -0.039374,-0.0956417 -0.0151339,-0.203744 0.0655157,-0.29474 0.0668031,-0.0753819 0.175173,-0.140157 0.317756,-0.170783 0.32163,-0.0690906 0.841854,0.0326181 1.46729,0.605634 0.0379055,0.0188189 0.0773268,0.049563 0.10574,0.0848386 0.0331732,0.041185 0.0547402,0.0911929 0.051811,0.14389 0.000866142,0.00701969 0.00167323,0.0143465 0.00111811,0.0279252 -0.00161811,0.0383937 0.0202087,-0.0297402 0.0428701,-0.0191811 0.0948701,0.0442165 0.212,0.0988031 0.251594,0.230126l0.00011811 -3.54331e-005c0.037378,0.123366 0.0615945,0.257035 0.0297795,0.365567 -0.0388976,0.132713 -0.142157,0.219012 -0.358697,0.202402 -0.0953622,-0.00714961 -0.117264,-0.0113937 -0.13476,-0.0679567 -0.857878,-0.195626 -1.13985,0.528547 -1.33376,1.02689 -0.0462913,0.118969 -0.0880118,0.226185 -0.133122,0.312693l0 0.000834646c-0.0169961,0.0319646 -0.032563,0.0632598 -0.0444016,0.0927559 -0.011752,0.0292835 -0.0211181,0.0588661 -0.0266181,0.0888976l0 0.000417323c-0.00194094,0.0103937 -0.00330315,0.0212756 -0.0040315,0.0324252 -0.000704724,0.0107953 -0.000783465,0.0213543 -0.000208661,0.0314646l2.3622e-005 0c0.00511417,0.0804764 0.00433465,0.178913 0.00351181,0.283587 -0.00176378,0.223579 -0.00377165,0.477827 0.0571654,0.640587 0.0464606,0.125177 0.0944291,0.385079 0.0988189,0.408882l0.00030315 0.0016378 0.0204094 0.110268 -0.111657 0.014315 -0.0370472 0.00525591c-0.0330827,0.00468898 -0.0658268,0.00933465 -0.101449,0.0114016l0 2.3622e-005c-0.0310551,0.00190551 -0.0588937,0.000125984 -0.0867087,-0.00164961 -0.012752,-0.000814961 -0.0253622,-0.00162598 -0.0287756,-0.00176772l-0.00709449 -0.000295276c-0.055563,-0.00222441 -0.110933,-0.00444882 -0.157941,-0.0657441 -0.0305669,-0.0213661 -0.0519409,-0.0488661 -0.0634646,-0.0815709 -0.0102008,-0.0288937 -0.0119961,-0.0593819 -0.00495669,-0.0907756 -0.0139882,-0.0117008 -0.0265354,-0.0249055 -0.0373386,-0.0397835 -0.0252165,-0.0347205 -0.0399016,-0.0763976 -0.0404252,-0.126508 -3.14961e-005,-0.00312992 -0.000507874,-0.00838976 -0.000972441,-0.0136181 -0.00117323,-0.013063 -0.00234252,-0.0261063 -0.0017126,-0.0413189l0 -0.000834646c0.00238976,-0.0483071 0.00558661,-0.0927244 0.00904331,-0.140858 0.0138858,-0.193256 0.0319961,-0.445287 -0.00746457,-0.570965 -0.0090315,-0.0290118 -0.0171575,-0.0590787 -0.0219567,-0.0904567 -0.00533465,-0.0348425 -0.00663386,-0.0710591 -0.00100787,-0.108854 0.00688189,-0.0469921 0.00945669,-0.0653031 0.0120079,-0.0835118l0.00561811 -0.0399331c0.00181102,-0.0129606 0.0029685,-0.0187047 0.00411417,-0.024437l0.000417323 0c0.00101969,-0.00507874 0.00214961,-0.0086811 0.00209449,-0.00941339l0 -0.000834646 -0.000133858 -0.00190157 -0.000712598 0.00234646c-0.0373898,0.123 -0.0713583,0.226902 -0.105126,0.330201 -0.0787835,0.240984 -0.156594,0.478988 -0.211579,0.734744l0 0.000417323c-7.87402e-006,4.33071e-005 -2.75591e-005,2.75591e-005 -4.72441e-005,-1.1811e-005l-5.51181e-005 -1.1811e-005c0.000350394,0.00132283 0.00144094,0.00383465 0.00315354,0.00733858l-0.000173228 8.26772e-005c0.0132835,0.0269764 0.0167205,0.0492283 0.0199685,0.071189 0.0035315,0.00243307 0.00696063,0.00502362 0.0102913,0.00776378 0.0219449,0.0180591 0.0347874,0.0391181 0.0438307,0.0602047l0.000417323 0.000830709c0.00904331,0.0215945 0.0180197,0.0461142 0.0279173,0.0731693l0.0126614 0.0346024 0.040252 0.107303 -0.110252 0.0318622c-0.00899606,0.00259843 -0.0260827,0.00817717 -0.0427559,0.0136181 -0.0373622,0.012189 -0.0727402,0.0237323 -0.115937,0.0291929l-0.000417323 0.000417323c-0.0517126,0.00635827 -0.0968583,-0.00560236 -0.139059,-0.0167756l-0.00409843 -0.00108661c-0.0648937,-0.017311 -0.108386,-0.0450315 -0.136878,-0.090626 -0.0242323,-0.0387756 -0.0317835,-0.0818701 -0.0271929,-0.13472 -0.019315,-0.0236772 -0.0339606,-0.0497362 -0.0431417,-0.0777323 -0.0122323,-0.0372874 -0.0143543,-0.0769843 -0.00461811,-0.118055l-0.00030315 -7.08661e-005c0.0232638,-0.0988346 0.0471575,-0.207067 0.0735276,-0.326539 0.0642008,-0.290878 0.14178,-0.642339 0.184071,-0.776232l0.00011811 3.93701e-005 0.0124055 -0.0394016c0.0125866,-0.040063 0.0251614,-0.080063 0.0387441,-0.121484 0.0102362,-0.031126 0.039815,-0.13628 0.050378,-0.223094 0.000271654,-0.00222047 0.000527559,-0.00440945 0.000767717,-0.0065748 -0.318087,0.050752 -0.374126,0.0447087 -0.651205,-0.0480236 -0.0166417,0.028685 -0.0376378,0.0541339 -0.0587008,0.0796693 -0.00299606,0.00362992 -0.00595276,0.0072126 -0.0187953,0.0237205l-0.000413386 0.000417323c-0.00586614,0.0074685 -0.00872047,0.0109606 -0.0114528,0.0142953 -0.00774409,0.00946063 -0.0155551,0.0190039 -0.0178976,0.0238031l-0.000322835 -0.00015748c-0.0314685,0.0656772 -0.0404567,0.0910157 -0.0542362,0.129886 -0.00826378,0.023311 -0.0181339,0.0511496 -0.0352008,0.0947362 -0.0130512,0.0334646 0.00500394,0.18328 0.0349488,0.367618 0.0537362,0.330811 0.148406,0.745953 0.18052,0.870724 0.0182323,0.0707953 -0.0248228,0.0551496 -0.0087126,0.0610039 0.0312992,0.011374 0.0710787,0.0258268 0.124331,0.143421l0 0.000417323c0.0103976,0.0231811 0.0123819,0.0504055 0.00794094,0.0731299 -0.0043189,0.0221181 -0.0160472,0.0461457 -0.0331535,0.0633228l0 0.000417323c-0.00862205,0.00862205 -0.00837402,0.00825984 -0.00662598,0.00641732 -0.0185315,0.0190906 -0.0393661,0.0390551 -0.0784764,0.0485315l-0.000417323 0.000417323c-0.167358,0.0398425 -0.243988,0.0170945 -0.357295,-0.0165433 -0.0235827,-0.00700394 -0.0489685,-0.0145394 -0.0728031,-0.0207559l-0.0956654 -0.0249528 0.017748 -0.0971299c0.0191299,-0.104701 -0.0234646,-0.393504 -0.0879567,-0.70224 -0.0370906,-0.177555 -0.0813701,-0.359677 -0.125472,-0.516437 -0.0151417,0.116157 -0.0259409,0.243567 -0.0308819,0.372354 -0.00974016,0.253756 0.00357874,0.509689 0.0517717,0.690028l0 0.000417323c0.00652756,0.0245394 0.0171102,0.0420157 0.0284213,0.060622l0.000185039 -0.000114173c0.0183425,0.0301614 0.0378189,0.0621929 0.0556299,0.11665l0.0283346 0.0866102 -0.081252 0.0413071c-0.0579488,0.0294606 -0.116,0.0410433 -0.174098,0.042189 -0.0524409,0.0010315 -0.101894,-0.00655906 -0.150472,-0.016685l-1.1811e-005 6.69291e-005c-0.121075,-0.0235787 -0.18878,-0.256441 -0.220201,-0.541945 -0.038622,-0.350941 -0.0414843,-0.803102 -0.0190551,-0.95813 -0.00439764,-0.193571 0.000649606,-0.336976 0.00552362,-0.47565l0 -0.000417323c0.0076378,-0.217169 0.0148583,-0.422433 -0.0177165,-0.798335l-5.90551e-005 -0.000669291c-0.00262992,-0.0304567 -0.00524803,-0.0607402 -0.00563386,-0.100543l-0.000417323 -0.000834646 0 -0.00998819 0.000417323 -0.000834646c0.000330709,-0.0381693 0.00386614,-0.0750866 0.010311,-0.110705 0.0380669,-0.210366 0.174972,-0.373201 0.354831,-0.481996 0.171787,-0.103917 0.384929,-0.158484 0.585929,-0.15672 0.0575827,0.000507874 0.114295,0.0056063 0.168902,0.0154567l5.90551e-005 -0.000330709c0.00317717,0.000562992 0.0272677,0.00544882 0.0512126,0.0102992 0.0283858,0.00575984 0.0568268,0.0115276 0.0861024,0.0146339l-3.93701e-006 4.33071e-005c0.179961,0.0190236 0.360642,0.0202756 0.541417,0.0215236l0.0388228 0.000275591 0.000417323 0c0.153976,0.00125984 0.795563,-0.195378 1.14746,-0.366303 0.0353858,-0.017189 0.067126,-0.0337283 0.0942283,-0.0493031zm-1.09463 3.51566l0 3.93701e-006 2.3622e-005 3.93701e-006c-3.54331e-005,-0.000145669 -5.51181e-005,-0.000216535 -2.3622e-005,-7.87402e-006zm0 3.93701e-006l9.84252e-005 0.000437008 5.51181e-005 1.1811e-005c-3.93701e-005,-8.66142e-005 -9.44882e-005,-0.00030315 -0.000129921,-0.000444882l-2.3622e-005 -3.93701e-006zm0.629547 0.26385c0.000751969,0.00118898 0.00150394,0.00241339 0.00225591,0.0036811l-3.93701e-005 2.3622e-005c0.00544882,0.00867323 -4.72441e-005,-0.00380709 -0.0019252,-0.0112008l-0.000291339 0.00749606zm1.68323 -3.57244c2.75591e-005,-0.00172047 7.48031e-005,-0.00346063 0.000149606,-0.00522047 0.000248031,-0.00607874 -0.000279528,0.00470472 -0.000393701,0.00525197l0.000244094 -3.14961e-005zm-0.000775591 -0.0396614c-1.5748e-005,-0.000964567 -0.000417323,-0.000291339 -0.0010315,0.000826772l0.0010315 -0.000826772z"/>
   <circle id="_294572000" class="fil2" cx="4.72696" cy="2.20243" r="0.103534"/>
   <path id="_294571400" class="fil1" d="M4.81858 1.68747c0.106445,-0.0792795 0.178331,-0.173614 0.208819,-0.266579 0.0142402,-0.0434252 0.019252,-0.0858071 0.0142087,-0.125091 -0.0047874,-0.0373031 -0.0189606,-0.0731654 -0.0432677,-0.105799 -0.0389843,-0.0523425 -0.104795,-0.0972717 -0.200768,-0.128748l0.0658346 -0.202504c0.140374,0.0460394 0.241122,0.117791 0.305768,0.204583 0.0465472,0.0624961 0.0738307,0.132295 0.0832677,0.205799 0.00918898,0.0715276 0.0012126,0.145173 -0.0225394,0.217594 -0.043811,0.133583 -0.141906,0.26526 -0.284654,0.371579l-0.126669 -0.170835z"/>
   <polygon id="_294571328" class="fil1" points="4.86069,1.22146 5.17465,1.30559 5.11965,1.51143 4.80569,1.4273 "/>
   <path id="_294571520" class="fil1" d="M3.96397 1.74928c0.106445,-0.0792835 0.178331,-0.173618 0.208819,-0.266579 0.0142402,-0.0434252 0.019252,-0.0858071 0.0142087,-0.125091 -0.0047874,-0.0373031 -0.0189606,-0.0731654 -0.0432677,-0.105799 -0.0389843,-0.0523425 -0.104795,-0.0972717 -0.200768,-0.128744l0.0658346 -0.202504c0.14037,0.0460354 0.241122,0.117787 0.305768,0.204579 0.0465472,0.0624961 0.0738307,0.132295 0.0832677,0.205799 0.00918898,0.0715276 0.0012126,0.145173 -0.0225394,0.217594 -0.043811,0.133579 -0.141909,0.26526 -0.284654,0.371579l-0.126669 -0.170835z"/>
   <polygon id="_294571832" class="fil1" points="4.00607,1.28328 4.32004,1.3674 4.26504,1.57324 3.95107,1.48911 "/>
  </g>
  <path class="fil3" d="M1.22444 3.98759l0 0zm2.29486 0.0183031l0 0zm-0.0183346 1.48944l0 0zm0.565535 -3.28861c-0.37185,0.180618 -1.0665,0.38824 -1.24121,0.387138l-0.000417323 -3.93701e-006 -0.0384055 -0.000271654c-0.187843,-0.00129921 -0.375587,-0.00259843 -0.562665,-0.0224016 -0.0218386,-0.00115354 -0.081252,-0.0130157 -0.105685,-0.0179724 -0.0598583,-0.0121378 -0.109917,-0.0206339 -0.180173,-0.021252 -0.162823,-0.00142913 -0.335354,0.0426929 -0.47426,0.12672 -0.155346,0.0939724 -0.260768,0.233524 -0.26263,0.411031l0.000409449 0 0 0.00998819 -0.000405512 0 0.0056811 0.0837165c0.0332205,0.383358 0.025689,0.597551 0.0177008,0.824169 -0.00487008,0.138571 -0.00990551,0.281984 -0.00527559,0.47348l-0.00125197 0.0195827c-0.0218622,0.132035 -0.0184724,0.567618 0.0192402,0.910299 0.0218268,0.198315 0.0414961,0.35474 0.0485315,0.35611l0.0786299 0.0124134c-0.0115906,-0.0216614 -0.0222244,-0.0460945 -0.0310945,-0.0793386l-0.000106299 2.75591e-005c-0.0537795,-0.201236 -0.0689173,-0.479579 -0.0584409,-0.752531 0.0119685,-0.311921 0.0578346,-0.621024 0.117819,-0.800976l0.1975 -0.0116654c0.134098,0.288106 0.356232,1.22502 0.357449,1.60669 0.0474331,0.014063 0.0862441,0.0250984 0.13439,0.0255906 -0.0165394,-0.0290157 -0.0334646,-0.0749803 -0.0530472,-0.151008 -0.0330906,-0.128563 -0.130268,-0.554043 -0.184685,-0.889063 -0.0352953,-0.217295 -0.0520354,-0.405543 -0.0232795,-0.479287 0.0155906,-0.0398228 0.0249016,-0.0660748 0.0326969,-0.0880669 0.015248,-0.0430039 0.0251654,-0.0709764 0.0637244,-0.151394 0.00342913,-0.0150787 0.0368268,-0.0568543 0.0445669,-0.0663031l0.00858661 -0.0105079 -5.11811e-005 -3.93701e-005c0.0190276,-0.0245118 0.0682165,-0.0749213 0.066126,-0.101382l-0.0127283 -0.160984 0.18161 0.0614449c0.325957,0.110327 0.337543,0.114244 0.710476,0.0529724l-1.1811e-005 -6.69291e-005c0.0160315,-0.00270866 0.0315945,-0.00268898 0.0466969,-0.000161417 0.0706181,0.011878 0.106087,0.0611339 0.117228,0.132795l6.69291e-005 -1.1811e-005c0.0172047,0.111661 -0.0394291,0.320453 -0.0610748,0.386366l-0.0504409 0.159177c-0.0418701,0.132555 -0.117394,0.47472 -0.179898,0.757902l-0.0739449 0.329453c-0.00477953,0.00856693 0.0324567,0.029 0.0484961,0.0835354 0.00785433,0.0266969 0.00764567,0.0448425 0.00584646,0.0706299 -0.0017874,0.0127559 -0.00722835,0.0121339 -0.00533858,0.0151614 0.00285827,0.00457087 0.000590551,-0.00526772 0.0102087,-0.00270472l0.0502953 0.0115827c-0.0115039,-0.0134606 -0.021563,-0.0304331 -0.0264961,-0.046811l0.000267717 -7.87402e-005c-0.00529921,-0.0176417 -0.00665354,-0.0305472 -0.00795669,-0.043374l-4.33071e-005 3.93701e-006c-0.000173228,-0.00172441 -0.000350394,-0.00343701 -0.00105512,-0.0074252l0.000255906 -4.33071e-005c-0.00214961,-0.0117756 -0.00257874,-0.0146142 -0.00297244,-0.0172835 -0.000984252,-0.0066811 0.00147638,-0.00662598 -0.000775591,-0.00977953 -0.0103228,-0.0211299 -0.0177205,-0.0435394 -0.0215827,-0.0677795 -0.00413386,-0.0259055 -0.00377165,-0.0517835 0.00187008,-0.0778661l8.66142e-005 1.9685e-005c0.0825394,-0.383776 0.212472,-0.722988 0.321618,-1.08205 0.0525866,-0.172996 0.125591,-0.332575 0.252142,-0.467087l0.183335 0.0833346c-0.00212205,0.0215551 -0.00269291,0.0279173 -0.00334646,0.0347992 -0.00293701,0.0326535 -0.00580315,0.0644094 -0.00954724,0.090189l0 0.000417323c-0.0074685,0.0510433 -0.0108228,0.100768 -0.0113937,0.149638 -0.00057874,0.0490551 0.00169291,0.101181 0.00543307,0.154937l5.90551e-005 -3.93701e-006c0.00197244,0.0257835 -0.00212992,0.046311 -0.00625197,0.0668386l0.000401575 7.87402e-005 -0.0200709 0.137047c-0.00491732,0.033315 0.00531102,0.0726811 0.0154606,0.105146 0.0515039,0.164035 0.0317717,0.438689 0.0166378,0.649295 -0.00387008,0.0538701 -0.00745276,0.103638 -0.00906299,0.135858l0.00312992 0.0472795c0.00215354,0.00296457 0.00676772,0.00610236 0.013063,0.00929134l8.26772e-005 -0.000165354c0.0380157,0.0188976 0.0618071,0.044 0.0742677,0.0791575 0.0115945,0.0327323 0.00976378,0.0632559 -0.00294882,0.0954882 0.0048622,0.00506299 0.00972047,0.0112008 0.0145827,0.0188819 0.000582677,-0.0149764 -0.00330315,-0.0124409 0.0075748,-0.0119882 0.0412638,0.0017126 0.0695039,0.00558268 0.106122,0.00264961 -0.0176614,-0.085437 -0.0435394,-0.199764 -0.0675118,-0.264346 -0.0745866,-0.199217 -0.0724134,-0.474421 -0.0705039,-0.716421 0.000771654,-0.0977953 0.00149606,-0.189768 -0.00351181,-0.268587 -0.00140945,-0.0443583 -0.000708661,-0.072122 0.00755512,-0.116386l7.48031e-005 1.5748e-005c0.0160866,-0.0875118 0.0514606,-0.167091 0.0917795,-0.242921l0.000338583 0.000181102c0.038815,-0.0745827 0.078626,-0.17689 0.122783,-0.290378 0.226614,-0.582394 0.558382,-1.43501 1.64732,-1.1412l0.0619921 0.0167283 0.00701969 0.0309488c0.0660276,-0.000519685 0.0961929,-0.0209331 0.105047,-0.0511496 0.0173307,-0.059126 -0.0021378,-0.152665 -0.0297795,-0.243898l0 -0.000417323c-0.0118228,-0.0394173 -0.0812913,-0.0717953 -0.137547,-0.0980118 -0.0916614,-0.0427165 -0.167118,-0.0779055 -0.165524,-0.17726l-0.000244094 3.14961e-005c-0.000102362,0.000704724 -0.00254724,-0.0203976 -0.000444882,-0.0384567l-0.000165354 -1.5748e-005c5.90551e-005,-0.000555118 8.66142e-005,-0.000952756 7.87402e-005,-0.00122047 -0.00222441,0.00178346 -0.00353543,0.00652362 -0.00533465,0.0042874 -0.0108346,-0.0134528 -0.0251102,-0.0242835 -0.0369528,-0.0288504l-0.033748 -0.021248c-0.319803,-0.295732 -0.602756,-0.456091 -0.837445,-0.529433 -0.0268425,0.0772953 -0.071815,0.153772 -0.133043,0.22487 0.0112323,0.00376378 0.0212402,0.00782677 0.0300709,0.0121654 0.139783,0.068685 0.13676,0.15985 0.0320118,0.263642 -0.0474016,0.0469724 -0.13063,0.0975984 -0.234654,0.148126zm0.660449 0.0992362c-0.0571811,0 -0.103535,-0.0463543 -0.103535,-0.103535 0,-0.0571811 0.0463543,-0.103535 0.103535,-0.103535 0.0571811,0 0.103531,0.0463543 0.103531,0.103535 0,0.0571811 -0.0463504,0.103535 -0.103531,0.103535z"/>
  <path class="fil3" d="M3.80117 1.75354c0.0605,-0.00251575 0.114984,-0.00342913 0.163827,-0.00287795l-0.00102756 -0.00138583c0.083878,-0.0624764 0.146299,-0.134299 0.183913,-0.207429l-0.125504 -0.0336299c-0.037563,0.00203937 -0.0726457,0.00678346 -0.105138,0.0137638 -0.0952953,0.0204685 -0.163839,0.059374 -0.202756,0.103287 -0.0250709,0.0282874 -0.0354016,0.0551142 -0.0280118,0.0730709 0.00985433,0.0239409 0.0464882,0.0447677 0.114697,0.0552008z"/>
 </g>
</svg>
