<?xml version="1.0" encoding="UTF-8"?>
<!DOCTYPE svg PUBLIC "-//W3C//DTD SVG 1.1//EN" "http://www.w3.org/Graphics/SVG/1.1/DTD/svg11.dtd">
<!-- Creator: CorelDRAW -->
<svg xmlns="http://www.w3.org/2000/svg" xml:space="preserve" width="6.82666in" height="6.82666in" style="shape-rendering:geometricPrecision; text-rendering:geometricPrecision; image-rendering:optimizeQuality; fill-rule:evenodd; clip-rule:evenodd"
viewBox="0 0 6.82666 6.82666"
 xmlns:xlink="http://www.w3.org/1999/xlink">
 <defs>
  <style type="text/css">
   <![CDATA[
    .fil0 {fill:none}
    .fil2 {fill:#63CBE5}
    .fil3 {fill:#AED581}
    .fil4 {fill:#F45A52}
    .fil1 {fill:#333333;fill-rule:nonzero}
   ]]>
  </style>
 </defs>
 <g id="Layer_x0020_1">
  <metadata id="CorelCorpID_0Corel-Layer"/>
  <g id="_294574928">
   <rect id="_294575576" class="fil0" x="-0.106665" width="6.82666" height="6.82666"/>
   <rect id="_294574328" class="fil0" x="0.746665" y="0.853327" width="5.12" height="5.12"/>
  </g>
  <g id="_294574256">
   <polygon id="_294574760" class="fil1" points="1.97409,1.0157 1.97409,3.2557 1.76075,3.2557 1.76075,1.0157 "/>
   <path id="_294574352" class="fil1" d="M1.96658 3.07298l0.176579 0.44861 0.508606 0.0472126 0.257043 0.0238583 -0.199126 0.164059 -0.372067 0.306543 0.112386 0.498835 0.0566811 0.251567 -0.217516 -0.13865 -0.406472 -0.259098 -0.439949 0.261181 -0.221811 0.131681 0.0647283 -0.250012 0.120866 -0.466843 -0.383882 -0.337287 -0.194102 -0.170547 0.25785 -0.0157047 0.480894 -0.0292913 0.202209 -0.469445 0.102295 -0.237484 0.0947874 0.240815zm0.00225591 0.58711l-0.105799 -0.268787 -0.125827 0.292122 -0.0259134 0.0601614 -0.065752 0.00400787 -0.288791 0.0175906 0.239091 0.210071 0.0493189 0.0433268 -0.0164016 0.0633386 -0.0725354 0.280165 0.274047 -0.162693 0.0559134 -0.0331929 0.0553346 0.0352756 0.244299 0.155724 -0.0700669 -0.310988 -0.0143543 -0.0637244 0.0506063 -0.0416929 0.223551 -0.184185 -0.317138 -0.029437 -0.0655709 -0.00609055 -0.0240118 -0.0609921z"/>
   <polygon id="_294574712" class="fil1" points="5.0634,1.0157 5.0634,4.10903 4.85006,4.10903 4.85006,1.0157 "/>
   <path id="_294574808" class="fil1" d="M5.05589 4.07028l0.176579 0.44861 0.508606 0.0472126 0.257039 0.0238583 -0.199122 0.164059 -0.372067 0.306543 0.112386 0.498835 0.0566772 0.251567 -0.217512 -0.13865 -0.406472 -0.259098 -0.439949 0.261181 -0.221815 0.131681 0.0647323 -0.250012 0.120866 -0.466843 -0.383882 -0.337287 -0.194106 -0.170547 0.257854 -0.0157047 0.480894 -0.0292913 0.202209 -0.469445 0.102291 -0.237488 0.0947913 0.240819zm0.00225591 0.58711l-0.105799 -0.268787 -0.125827 0.292122 -0.0259173 0.0601614 -0.065748 0.00400787 -0.288791 0.0175906 0.239091 0.210071 0.049315 0.0433268 -0.0163976 0.0633386 -0.0725354 0.280165 0.274047 -0.162693 0.0559094 -0.0331929 0.0553386 0.0352756 0.244299 0.155724 -0.0700669 -0.310988 -0.0143583 -0.0637244 0.0506102 -0.0416929 0.223551 -0.184185 -0.317138 -0.029437 -0.0655748 -0.00609055 -0.0240079 -0.0609921z"/>
   <g>
    <polygon id="_294574616" class="fil1" points="3.75529,1.0157 3.75529,2.97839 3.54195,2.97839 3.54195,1.0157 "/>
    <path id="_294574904" class="fil1" d="M3.74779 2.77784l0.13739 0.349043 0.396421 0.0367992 0.257039 0.0238622 -0.199122 0.164055 -0.289484 0.238504 0.087622 0.388925 0.0566772 0.251563 -0.217512 -0.138646 -0.316244 -0.201583 -0.343067 0.203665 -0.221811 0.131681 0.0647283 -0.250012 0.0940472 -0.363256 -0.299244 -0.262925 -0.194102 -0.170547 0.25785 -0.0157047 0.374091 -0.0227835 0.157638 -0.365972 0.102291 -0.237484 0.0947913 0.240815zm-0.0369331 0.487543l-0.0666063 -0.16922 -0.0812598 0.18865 -0.0259173 0.0601654 -0.065748 0.00400394 -0.181988 0.0110827 0.154453 0.135709 0.049315 0.0433307 -0.0163976 0.0633346 -0.0457165 0.176579 0.177165 -0.105177 0.0559094 -0.0331929 0.0553386 0.0352756 0.154071 0.0982087 -0.0453031 -0.201079 -0.0143583 -0.0637205 0.0506102 -0.0416969 0.140969 -0.116146 -0.204953 -0.0190236 -0.0655748 -0.00608661 -0.0240079 -0.0609961z"/>
   </g>
  </g>
  <polygon class="fil2" points="2.37556,3.75661 2.05842,3.72717 1.99285,3.72108 1.96884,3.66009 1.86304,3.3913 1.73721,3.68343 1.7113,3.74359 1.64555,3.74759 1.35676,3.76519 1.59585,3.97526 1.64517,4.01858 1.62876,4.08192 1.55623,4.36209 1.83028,4.19939 1.88619,4.1662 1.94152,4.20148 2.18582,4.3572 2.11576,4.04621 2.1014,3.98249 2.15201,3.9408 "/>
  <polygon class="fil3" points="3.44379,3.49578 3.4931,3.53911 3.4767,3.60244 3.43099,3.77902 3.60815,3.67384 3.66406,3.64065 3.7194,3.67593 3.87347,3.77413 3.82817,3.57306 3.81381,3.50933 3.86442,3.46764 4.00539,3.35149 3.80044,3.33247 3.73486,3.32638 3.71085,3.26539 3.64425,3.09617 3.56299,3.28481 3.53707,3.34498 3.47132,3.34898 3.28933,3.36007 "/>
  <polygon class="fil4" points="4.73486,4.74489 4.44607,4.76248 4.68516,4.97256 4.73447,5.01588 4.71807,5.07922 4.64554,5.35939 4.91959,5.19669 4.9755,5.1635 5.03083,5.19878 5.27513,5.3545 5.20507,5.04351 5.19071,4.97979 5.24132,4.93809 5.46487,4.75391 5.14773,4.72447 5.08216,4.71838 5.05815,4.65739 4.95235,4.3886 4.82652,4.68072 4.80061,4.74089 "/>
 </g>
</svg>
