<?xml version="1.0" encoding="UTF-8"?>
<!DOCTYPE svg PUBLIC "-//W3C//DTD SVG 1.1//EN" "http://www.w3.org/Graphics/SVG/1.1/DTD/svg11.dtd">
<!-- Creator: CorelDRAW -->
<svg xmlns="http://www.w3.org/2000/svg" xml:space="preserve" width="6.82666in" height="6.82666in" style="shape-rendering:geometricPrecision; text-rendering:geometricPrecision; image-rendering:optimizeQuality; fill-rule:evenodd; clip-rule:evenodd"
viewBox="0 0 6.82666 6.82666"
 xmlns:xlink="http://www.w3.org/1999/xlink">
 <defs>
  <style type="text/css">
   <![CDATA[
    .fil0 {fill:none}
    .fil4 {fill:#63CBE5}
    .fil3 {fill:#AED581}
    .fil2 {fill:#EBE5DF}
    .fil1 {fill:#333333;fill-rule:nonzero}
   ]]>
  </style>
 </defs>
 <g id="Layer_x0020_1">
  <metadata id="CorelCorpID_0Corel-Layer"/>
  <g id="_294578048">
   <rect id="_294577352" class="fil0" width="6.82666" height="6.82666"/>
   <rect id="_294577472" class="fil0" x="0.853331" y="0.853331" width="5.12" height="5.12"/>
  </g>
  <path class="fil1" d="M5.82256 3.24572l-0.878205 -0.781209 0.141669 -0.159165 0.878205 0.781209 -0.141669 0.159165zm-1.73923 -1.54714l-0.669992 -0.595992 -0.868941 0.772965 -0.141669 -0.159165 0.939776 -0.835976 0.0708346 -0.0630079 0.0708346 0.0630079 0.740827 0.659004 -0.141669 0.159165zm-1.81379 0.421472l-1.26543 1.12567 -0.141669 -0.159165 1.26543 -1.12567 0.141669 0.159165z"/>
  <path class="fil1" d="M1.38794 2.72191l4.05079 0 0.106669 0 0 0.106669 0 3.03809 0 0.106669 -0.106669 0 -4.05079 0 -0.106669 0 0 -0.106669 0 -3.03809 0 -0.106669 0.106669 0zm3.94412 0.213339l-3.83745 0 0 2.82475 3.83745 0 0 -2.82475z"/>
  <polygon class="fil1" points="2.05722,1.3658 2.05722,2.26596 1.84389,2.26596 1.84389,1.3658 "/>
  <polygon class="fil1" points="1.38794,2.72191 5.43872,2.72191 5.43872,2.93525 1.38794,2.93525 "/>
  <path class="fil1" d="M2.66667 3.48143l1.49333 0 0.106669 0 0 0.106669 0 1.51904 0 0.106669 -0.106669 0 -1.49333 0 -0.106669 0 0 -0.106669 0 -1.51904 0 -0.106669 0.106669 0zm1.38667 0.213339l-1.28 0 0 1.3057 1.28 0 0 -1.3057z"/>
  <path class="fil1" d="M3.61472 1.17333c0.141091,0 0.269272,0.0563543 0.363323,0.14785 0.0572126,0.0556654 0.101685,0.124457 0.128602,0.201567 0.00223622,-0.000779528 0.00447638,-0.00154724 0.00672835,-0.00229921 0.0526378,-0.0175906 0.108236,-0.0271181 0.165236,-0.0271181 0.109744,0 0.211862,0.0342638 0.296264,0.0927283 0.0636496,0.0440945 0.117031,0.102098 0.155803,0.169654l0.00342126 -1.9685e-005c0.122472,0 0.233354,0.0496496 0.313622,0.129921 0.0802717,0.0802677 0.129921,0.19115 0.129921,0.313622 0,0.122465 -0.0496496,0.233354 -0.129921,0.313622 -0.0802677,0.0802717 -0.19115,0.129921 -0.313622,0.129921 -0.0741693,0 -0.144429,-0.0184961 -0.206413,-0.0511693 -0.0384409,-0.0202598 -0.0735512,-0.0460197 -0.104287,-0.0762283 -0.0099685,0.00287008 -0.0200827,0.00545669 -0.0303307,0.00775591 -0.0378189,0.00848819 -0.0761654,0.0129724 -0.114457,0.0129724 -0.340181,0 -0.370878,-0.113453 -0.402626,-0.230835 -0.0118425,-0.0437913 -0.024126,-0.0891654 -0.261264,-0.0891654 -0.143957,0 -0.274307,-0.0583661 -0.368669,-0.15272 -0.0943583,-0.0943583 -0.15272,-0.224709 -0.15272,-0.368669 0,-0.143965 0.0583622,-0.274311 0.15272,-0.368669 0.0943583,-0.0943583 0.224709,-0.15272 0.368669,-0.15272zm0.214992 0.300354c-0.0553504,-0.0538465 -0.131181,-0.0870157 -0.214992,-0.0870157 -0.0850748,0 -0.162098,0.0344803 -0.217835,0.0902165 -0.0557362,0.0557362 -0.0902165,0.132756 -0.0902165,0.217835 0,0.0850748 0.0344803,0.162098 0.0902165,0.217835 0.0557402,0.0557362 0.13276,0.0902165 0.217835,0.0902165 0.40015,0 0.434217,0.125941 0.467098,0.247504 0.0099685,0.0368622 0.0196102,0.0724961 0.196791,0.0724961 0.0243189,0 0.0469764,-0.0024685 0.0677874,-0.0071378 0.0221654,-0.00497244 0.0437205,-0.0125079 0.0643346,-0.0222874l0.081815 -0.0388189 0.0515197 0.0750709c0.0211102,0.0307638 0.0495354,0.0561575 0.0827835,0.0736811 0.031689,0.0167008 0.0681654,0.0261614 0.107248,0.0261614 0.0635827,0 0.121138,-0.0257638 0.162787,-0.0674173 0.0416535,-0.0416496 0.0674173,-0.0992087 0.0674173,-0.162787 0,-0.0635827 -0.0257638,-0.121138 -0.0674173,-0.162787 -0.0416496,-0.0416535 -0.0992047,-0.0674173 -0.162787,-0.0674173 -0.0100394,0 -0.0178071,0.000287402 -0.023374,0.000838583 -0.00840551,0.000838583 -0.0160433,0.00196063 -0.0228937,0.00334646l-0.0885315 0.0179055 -0.0318858 -0.0849882c-0.0221535,-0.0590394 -0.0621024,-0.109555 -0.113374,-0.145075 -0.0495039,-0.0342913 -0.109937,-0.0543898 -0.175429,-0.0543898 -0.0349134,0 -0.067752,0.00542913 -0.0977323,0.0154488 -0.0314882,0.0105197 -0.0609646,0.0262441 -0.0874331,0.046189l-0.164835 0.124209 -0.00558268 -0.206709c-0.00224016,-0.0829567 -0.0375669,-0.157882 -0.093315,-0.212122z"/>
  <path class="fil1" d="M2.43763 1.68663c0.0934606,0 0.178449,0.0373976 0.240862,0.0981181 0.0279134,0.0271575 0.051248,0.0590472 0.0687362,0.0943898 0.0238858,-0.00525591 0.0483622,-0.00802756 0.0731299,-0.00802756 0.0726378,0 0.140335,0.022752 0.196382,0.0615748 0.035126,0.0243346 0.0655394,0.0550866 0.0895827,0.0905748 0.073752,0.00567323 0.140071,0.0379409 0.189366,0.0872362 0.0544528,0.0544449 0.0881339,0.129665 0.0881339,0.21274 0,0.0830709 -0.0336811,0.158291 -0.0881339,0.212744 -0.0544528,0.0544528 -0.129673,0.0881339 -0.212744,0.0881339 -0.050189,0 -0.0978465,-0.0125827 -0.139996,-0.0347953 -0.018374,-0.00968504 -0.0356299,-0.0212244 -0.0515157,-0.0343701 -0.023811,0.00501969 -0.047622,0.00766929 -0.0710748,0.00766929 -0.230634,0 -0.252787,-0.0818858 -0.275697,-0.166602 -0.00237402,-0.00877559 -0.00483858,-0.017874 -0.107031,-0.017874 -0.0954685,0 -0.181909,-0.0387047 -0.244476,-0.10128 -0.0625748,-0.0625748 -0.10128,-0.149016 -0.10128,-0.244476 0,-0.0954685 0.0387047,-0.181909 0.10128,-0.244476 0.0625669,-0.0625748 0.149008,-0.10128 0.244476,-0.10128zm0.0925315 0.250622c-0.0237126,-0.0230709 -0.0563465,-0.0372835 -0.0925315,-0.0372835 -0.0365748,0 -0.069689,0.0148228 -0.0936417,0.0387756 -0.0239528,0.0239528 -0.0387756,0.0570669 -0.0387756,0.0936417 0,0.0365748 0.0148189,0.069685 0.0387756,0.0936417 0.0239528,0.0239528 0.0570669,0.0387756 0.0936417,0.0387756 0.0553583,0 0.100193,0.00391732 0.136728,0.0108898l-0.00398819 -0.147386c-0.00096063,-0.0355039 -0.0161811,-0.0676811 -0.0402087,-0.0910551zm0.210626 0.173555l-0.107661 0.081122c0.0859646,0.0331024 0.10187,0.0917756 0.11737,0.149087 0.00113386,0.00419685 0.00224016,0.00826378 0.0698622,0.00826378 0.011063,0 0.0208071,-0.000996063 0.0291969,-0.00287795 0.00938189,-0.0021063 0.018685,-0.00538189 0.0277362,-0.00967323l0.0818228 -0.038811 0.0515118 0.075063c0.00801575,0.0116811 0.0188346,0.0213386 0.0314882,0.0280079 0.0118543,0.00624803 0.0257323,0.0097874 0.0408307,0.0097874 0.024185,0 0.0460748,-0.00979528 0.0619094,-0.0256299 0.0158346,-0.0158346 0.0256299,-0.0377244 0.0256299,-0.0619094 0,-0.0241811 -0.00979528,-0.0460748 -0.0256299,-0.0619055 -0.0158346,-0.0158346 -0.0377244,-0.0256299 -0.0619094,-0.0256299 -0.00520866,0 -0.00820472,4.72441e-005 -0.00906299,0.000129921 -0.0036378,0.000362205 -0.00656693,0.000775591 -0.00878346,0.00122047l-0.0885315 0.0178858 -0.0318858 -0.0849685c-0.00948819,-0.0252835 -0.0266772,-0.0469724 -0.0487756,-0.0622835 -0.0211496,-0.0146496 -0.0471654,-0.0232362 -0.0755472,-0.0232362 -0.0154488,0 -0.0295591,0.00226378 -0.0420472,0.00643307 -0.0133504,0.00446063 -0.0260079,0.011248 -0.0375236,0.0199252z"/>
  <polygon class="fil1" points="1.38794,5.75998 5.43872,5.75998 5.43872,5.97332 1.38794,5.97332 "/>
  <polygon class="fil1" points="1.38794,3.48143 5.43872,3.48143 5.43872,3.69477 1.38794,3.69477 "/>
  <path class="fil1" d="M1.38794 4.24095l1.27873 0 0 0.213339 -1.27873 0 0 -0.213339zm2.77206 0l1.27872 0 0 0.213339 -1.27872 0 0 -0.213339z"/>
  <polygon class="fil1" points="1.38794,5.00047 5.43872,5.00047 5.43872,5.21381 1.38794,5.21381 "/>
  <path class="fil2" d="M3.39689 1.91255c0.0557402,0.0557362 0.13276,0.0902165 0.217835,0.0902165 0.40015,0 0.434217,0.125941 0.467098,0.247504 0.0099685,0.0368622 0.0196102,0.0724961 0.196791,0.0724961 0.0243189,0 0.0469764,-0.0024685 0.0677874,-0.0071378 0.0221654,-0.00497244 0.0437205,-0.0125079 0.0643346,-0.0222874l0.081815 -0.0388189 0.0515197 0.0750709c0.0211102,0.0307638 0.0495354,0.0561575 0.0827835,0.0736811 0.031689,0.0167008 0.0681654,0.0261614 0.107248,0.0261614 0.0635827,0 0.121138,-0.0257638 0.162787,-0.0674173 0.0416535,-0.0416496 0.0674173,-0.0992087 0.0674173,-0.162787 0,-0.0635827 -0.0257638,-0.121138 -0.0674173,-0.162787 -0.0416496,-0.0416535 -0.0992047,-0.0674173 -0.162787,-0.0674173 -0.0100394,0 -0.0178071,0.000287402 -0.023374,0.000838583 -0.00840551,0.000838583 -0.0160433,0.00196063 -0.0228937,0.00334646l-0.0885315 0.0179055 -0.0318858 -0.0849882c-0.0221535,-0.0590394 -0.0621024,-0.109555 -0.113374,-0.145075 -0.0495039,-0.0342913 -0.109937,-0.0543898 -0.175429,-0.0543898 -0.0349134,0 -0.067752,0.00542913 -0.0977323,0.0154488 -0.0314882,0.0105197 -0.0609646,0.0262441 -0.0874331,0.046189l-0.164835 0.124209 -0.00558268 -0.206709c-0.00224016,-0.0829567 -0.0375669,-0.157882 -0.093315,-0.212122 -0.0553504,-0.0538465 -0.131181,-0.0870157 -0.214992,-0.0870157 -0.0850748,0 -0.162098,0.0344803 -0.217835,0.0902165 -0.0557362,0.0557362 -0.0902165,0.132756 -0.0902165,0.217835 0,0.0850748 0.0344803,0.162098 0.0902165,0.217835z"/>
  <path class="fil2" d="M2.94469 2.16996c-0.00948819,-0.0252835 -0.0266772,-0.0469724 -0.0487756,-0.0622835 -0.0211496,-0.0146496 -0.0471654,-0.0232362 -0.0755472,-0.0232362 -0.0154488,0 -0.0295591,0.00226378 -0.0420472,0.00643307 -0.0133504,0.00446063 -0.0260079,0.011248 -0.0375236,0.0199252l-0.107661 0.081122c0.0859646,0.0331024 0.10187,0.0917756 0.11737,0.149087 0.00113386,0.00419685 0.00224016,0.00826378 0.0698622,0.00826378 0.011063,0 0.0208071,-0.000996063 0.0291969,-0.00287795 0.00938189,-0.0021063 0.018685,-0.00538189 0.0277362,-0.00967323l0.0818228 -0.038811 0.0515118 0.075063c0.00801575,0.0116811 0.0188346,0.0213386 0.0314882,0.0280079 0.0118543,0.00624803 0.0257323,0.0097874 0.0408307,0.0097874 0.024185,0 0.0460748,-0.00979528 0.0619094,-0.0256299 0.0158346,-0.0158346 0.0256299,-0.0377244 0.0256299,-0.0619094 0,-0.0241811 -0.00979528,-0.0460748 -0.0256299,-0.0619055 -0.0158346,-0.0158346 -0.0377244,-0.0256299 -0.0619094,-0.0256299 -0.00520866,0 -0.00820472,4.72441e-005 -0.00906299,0.000129921 -0.0036378,0.000362205 -0.00656693,0.000775591 -0.00878346,0.00122047l-0.0885315 0.0178858 -0.0318858 -0.0849685z"/>
  <path class="fil2" d="M2.57436 2.17569l-0.00398819 -0.147386c-0.00096063,-0.0355039 -0.0161811,-0.0676811 -0.0402087,-0.0910551 -0.0237126,-0.0230709 -0.0563465,-0.0372835 -0.0925315,-0.0372835 -0.0365748,0 -0.069689,0.0148228 -0.0936417,0.0387756 -0.0239528,0.0239528 -0.0387756,0.0570669 -0.0387756,0.0936417 0,0.0365748 0.0148189,0.069685 0.0387756,0.0936417 0.0239528,0.0239528 0.0570669,0.0387756 0.0936417,0.0387756 0.0553583,0 0.100193,0.00391732 0.136728,0.0108898z"/>
  <path class="fil3" d="M2.43763 2.37814c-0.0954685,0 -0.181909,-0.0387047 -0.244476,-0.10128 -0.0156654,-0.0156654 -0.0298346,-0.0328268 -0.0422756,-0.051252l-0.557929 0.496307 3.64076 0 -0.209969 -0.186776c-0.0777126,0.0670748 -0.178941,0.107638 -0.289642,0.107638 -0.0741693,0 -0.144429,-0.0184961 -0.206413,-0.0511693 -0.0384409,-0.0202598 -0.0735512,-0.0460197 -0.104287,-0.0762283 -0.0099685,0.00287008 -0.0200827,0.00545669 -0.0303307,0.00775591 -0.0378189,0.00848819 -0.0761654,0.0129724 -0.114457,0.0129724 -0.340181,0 -0.370878,-0.113453 -0.402626,-0.230835 -0.0118425,-0.0437913 -0.024126,-0.0891654 -0.261264,-0.0891654 -0.143957,0 -0.274307,-0.0583661 -0.368669,-0.15272 -0.0943583,-0.0943583 -0.15272,-0.224709 -0.15272,-0.368669 0,-0.143965 0.0583622,-0.274311 0.15272,-0.368669 0.0698465,-0.0698465 0.159417,-0.119972 0.259634,-0.141299l-0.0923543 -0.0821535 -0.750614 0.667709c0.00540551,0.00465354 0.0106693,0.0094685 0.0157795,0.0144409 0.0279134,0.0271575 0.051248,0.0590472 0.0687362,0.0943898 0.0238858,-0.00525591 0.0483622,-0.00802756 0.0731299,-0.00802756 0.0726378,0 0.140335,0.022752 0.196382,0.0615748 0.035126,0.0243346 0.0655394,0.0550866 0.0895827,0.0905748 0.073752,0.00567323 0.140071,0.0379409 0.189366,0.0872362 0.0544528,0.0544449 0.0881339,0.129665 0.0881339,0.21274 0,0.0830709 -0.0336811,0.158291 -0.0881339,0.212744 -0.0544528,0.0544528 -0.129673,0.0881339 -0.212744,0.0881339 -0.050189,0 -0.0978465,-0.0125827 -0.139996,-0.0347953 -0.018374,-0.00968504 -0.0356299,-0.0212244 -0.0515157,-0.0343701 -0.023811,0.00501969 -0.047622,0.00766929 -0.0710748,0.00766929 -0.230634,0 -0.252787,-0.0818858 -0.275697,-0.166602 -0.00237402,-0.00877559 -0.00483858,-0.017874 -0.107031,-0.017874z"/>
  <polygon class="fil3" points="5.33206,2.93524 1.49461,2.93524 1.49461,3.48143 2.56,3.48143 2.66667,3.48143 4.16,3.48143 4.26667,3.48143 5.33206,3.48143 "/>
  <polygon class="fil3" points="5.33206,3.69477 4.26667,3.69477 4.26667,4.24095 5.33206,4.24095 "/>
  <polygon class="fil3" points="2.56,4.24095 2.56,3.69477 1.49461,3.69477 1.49461,4.24095 "/>
  <polygon class="fil3" points="2.56,4.45429 1.49461,4.45429 1.49461,5.00047 2.56,5.00047 "/>
  <polygon class="fil3" points="4.26667,4.45429 4.26667,5.00047 5.33206,5.00047 5.33206,4.45429 "/>
  <polygon class="fil3" points="4.16,5.21381 2.66667,5.21381 2.56,5.21381 1.49461,5.21381 1.49461,5.75999 5.33206,5.75999 5.33206,5.21381 4.26667,5.21381 "/>
  <polygon class="fil4" points="2.77333,5.00047 4.05333,5.00047 4.05333,3.69477 2.77333,3.69477 "/>
 </g>
</svg>
