<?xml version="1.0" encoding="UTF-8"?>
<!DOCTYPE svg PUBLIC "-//W3C//DTD SVG 1.1//EN" "http://www.w3.org/Graphics/SVG/1.1/DTD/svg11.dtd">
<!-- Creator: CorelDRAW -->
<svg xmlns="http://www.w3.org/2000/svg" xml:space="preserve" width="6.82666in" height="6.82666in" style="shape-rendering:geometricPrecision; text-rendering:geometricPrecision; image-rendering:optimizeQuality; fill-rule:evenodd; clip-rule:evenodd"
viewBox="0 0 6.82666 6.82666"
 xmlns:xlink="http://www.w3.org/1999/xlink">
 <defs>
  <style type="text/css">
   <![CDATA[
    .fil0 {fill:none}
    .fil2 {fill:#B38E85}
    .fil3 {fill:#EBE5DF}
    .fil1 {fill:#333333;fill-rule:nonzero}
   ]]>
  </style>
 </defs>
 <g id="Layer_x0020_1">
  <metadata id="CorelCorpID_0Corel-Layer"/>
  <g id="_294578720">
   <rect id="_294578456" class="fil0" width="6.82666" height="6.82666"/>
   <rect id="_294578432" class="fil0" x="0.853331" y="0.853331" width="5.12" height="5.12"/>
  </g>
  <path class="fil1" d="M2.15355 2.82458c0.166854,0.27389 0.310425,0.561343 0.435421,0.859575 0.0691732,0.165031 0.132795,0.333898 0.191665,0.506039 0.0767165,-0.407799 0.165969,-0.803815 0.271398,-1.1846 0.142303,-0.513953 0.314224,-1.00028 0.524717,-1.4506l0.10124 -0.216587 0.0929291 0.220335c0.205504,0.487264 0.373031,1.51038 0.514886,2.37673 0.0281969,0.172197 0.0553622,0.338098 0.0816181,0.492287 0.0182087,-0.113417 0.0369882,-0.234358 0.056374,-0.359252 0.108677,-0.700114 0.236201,-1.5216 0.392169,-1.85527l0.10124 -0.216583 0.0929291 0.220331c0.221276,0.52465 0.393594,1.08986 0.532685,1.68257 0.138614,0.590657 0.244713,1.21056 0.333701,1.84585l0.0169843 0.121252 -0.122402 0 -4.72872 0 -0.126394 0 0.0213937 -0.124587c0.092185,-0.536768 0.210409,-1.05729 0.375748,-1.54835 0.166248,-0.493772 0.379638,-0.956224 0.661252,-1.37331l0.0928543 -0.13752 0.086315 0.141685zm0.238752 0.941244c-0.0987795,-0.235685 -0.209268,-0.463965 -0.333874,-0.683295 -0.22576,0.363024 -0.402335,0.759039 -0.54363,1.1787 -0.148295,0.440437 -0.258181,0.908236 -0.345484,1.39209l4.47915 0c-0.0843898,-0.585547 -0.184583,-1.15761 -0.313142,-1.70543 -0.11385,-0.485146 -0.249642,-0.949957 -0.415984,-1.38643 -0.1065,0.386268 -0.201732,0.999689 -0.285535,1.53955 -0.0594173,0.382776 -0.113217,0.729307 -0.161685,0.936476l-0.207917 -0.00166535c-0.0569764,-0.263598 -0.119677,-0.646539 -0.18839,-1.06619 -0.118866,-0.725957 -0.255996,-1.56334 -0.414165,-2.08316 -0.157091,0.369772 -0.29039,0.763268 -0.404606,1.17578 -0.139736,0.504701 -0.250799,1.03776 -0.341858,1.59057l-0.207083 0.0125c-0.0900906,-0.307811 -0.193807,-0.60848 -0.315791,-0.899512z"/>
  <polygon class="fil1" points="1.6024,3.8574 1.77998,4.0831 2.03103,3.83205 2.11578,3.7473 2.1695,3.85473 2.2968,4.10934 2.43874,3.7545 2.59921,3.81882 2.38588,4.35216 2.31448,4.53065 2.22845,4.35859 2.06883,4.03935 1.83358,4.2746 1.76464,4.34355 1.70426,4.26681 1.46631,3.96438 "/>
  <polygon class="fil1" points="3.19598,3.06933 3.37356,3.29503 3.62461,3.04398 3.70936,2.95923 3.76308,3.06666 3.90024,3.34099 3.9818,3.18249 4.1355,3.26171 3.97607,3.57154 3.8982,3.72286 3.82204,3.57052 3.66242,3.25128 3.42717,3.48653 3.35822,3.55548 3.29784,3.47874 3.05989,3.17631 "/>
  <polygon class="fil1" points="4.61333,3.97632 4.67007,4.07301 4.91103,3.83205 4.99578,3.7473 5.0495,3.85473 5.1768,4.10934 5.31874,3.7545 5.47921,3.81882 5.26588,4.35215 5.19448,4.53064 5.10845,4.35859 4.94883,4.03935 4.71358,4.2746 4.63454,4.35364 4.57783,4.257 4.46437,4.06367 "/>
  <path class="fil2" d="M4.26419 5.03583c-0.0569764,-0.263598 -0.119677,-0.646539 -0.18839,-1.06619 -0.0239134,-0.146039 -0.048563,-0.296587 -0.0739764,-0.448154l-0.025752 0.0500472 -0.0778701 0.151323 -0.0761693 -0.152339 -0.159618 -0.31924 -0.235252 0.235252 -0.0689449 0.0689449 -0.060378 -0.0767323 -0.112949 -0.143555c-0.10661,0.422705 -0.194913,0.863512 -0.26972,1.31765l-0.207083 0.0125c-0.0607953,-0.20772 -0.127795,-0.412185 -0.202429,-0.612634l-0.119783 0.299457 -0.0713937 0.178488 -0.0860315 -0.172055 -0.159618 -0.31924 -0.235252 0.235252 -0.0689449 0.0689449 -0.060378 -0.0767323 -0.132433 -0.168323c-0.0196299,0.0538307 -0.0386299,0.108087 -0.0570315,0.16274 -0.148295,0.440437 -0.258181,0.908236 -0.345484,1.39209l4.47915 0c-0.0768898,-0.533508 -0.166898,-1.05581 -0.279528,-1.5588l-0.103051 0.257626 -0.0713976 0.178488 -0.0860276 -0.172055 -0.159618 -0.31924 -0.235252 0.235252 -0.0790433 0.0790394 -0.0316693 -0.0539685c-0.047311,0.302063 -0.0908425,0.567205 -0.13076,0.737823l-0.207917 -0.00166535z"/>
  <path class="fil3" d="M2.3923 3.76582c-0.0987795,-0.235685 -0.209268,-0.463965 -0.333874,-0.683295 -0.161732,0.260063 -0.29822,0.537059 -0.414579,0.827551l0.136134 0.173024 0.251051 -0.251051 0.084752 -0.084752 0.0537126 0.107433 0.127307 0.25461 0.116831 -0.292075c-0.00705118,-0.0171811 -0.0141614,-0.0343307 -0.0213346,-0.0514449z"/>
  <path class="fil3" d="M3.66164 1.88648c-0.157091,0.369772 -0.29039,0.763268 -0.404606,1.17578 -0.00578346,0.0208858 -0.0115157,0.041815 -0.0172008,0.0627953l0.133732 0.169972 0.251051 -0.251051 0.084748 -0.084748 0.0537165 0.107429 0.137165 0.274327 0.0531614 -0.103311c-0.0882795,-0.507071 -0.185252,-1.00114 -0.291768,-1.35119z"/>
  <path class="fil3" d="M4.91933 2.56146c-0.101854,0.369421 -0.193406,0.946614 -0.274504,1.46852l0.0252441 0.0430197 0.240961 -0.240961 0.084748 -0.084752 0.0537165 0.107433 0.127307 0.25461 0.123256 -0.308138c-0.106398,-0.432264 -0.231224,-0.847445 -0.380728,-1.23974z"/>
 </g>
</svg>
