<?xml version="1.0" encoding="UTF-8"?>
<!DOCTYPE svg PUBLIC "-//W3C//DTD SVG 1.1//EN" "http://www.w3.org/Graphics/SVG/1.1/DTD/svg11.dtd">
<!-- Creator: CorelDRAW -->
<svg xmlns="http://www.w3.org/2000/svg" xml:space="preserve" width="6.82666in" height="6.82666in" style="shape-rendering:geometricPrecision; text-rendering:geometricPrecision; image-rendering:optimizeQuality; fill-rule:evenodd; clip-rule:evenodd"
viewBox="0 0 6.82666 6.82666"
 xmlns:xlink="http://www.w3.org/1999/xlink">
 <defs>
  <style type="text/css">
   <![CDATA[
    .fil0 {fill:none}
    .fil2 {fill:#F45A52}
    .fil3 {fill:#FECA5F}
    .fil1 {fill:#333333;fill-rule:nonzero}
   ]]>
  </style>
 </defs>
 <g id="Layer_x0020_1">
  <metadata id="CorelCorpID_0Corel-Layer"/>
  <g id="_431833192">
   <rect id="_431833696" class="fil0" width="6.82666" height="6.82666"/>
   <rect id="_431833264" class="fil0" x="0.853331" y="0.853331" width="5.12" height="5.12"/>
  </g>
  <g id="_431833744">
   <g>
    <path id="_431833168" class="fil1" d="M5.62022 5.24307c-0.260902,0.00656299 -0.52263,0.00890157 -0.788016,0.00699606 -0.266614,-0.00192126 -0.534709,-0.00806693 -0.80711,-0.0184488l-0.0649724 -0.00248031 -0.0275276 -0.0583543c-0.0903465,-0.191512 -0.263976,-0.367594 -0.433665,-0.539677 -0.117591,-0.119248 -0.233413,-0.236705 -0.325256,-0.361425l7.48031e-005 -5.51181e-005c-0.0764646,-0.103386 -0.0969409,-0.250827 -0.0625591,-0.367732 0.0158622,-0.0539567 0.0433465,-0.103051 0.0824567,-0.14126 0.0419409,-0.0409646 0.0957323,-0.0683543 0.161213,-0.0751732 0.108563,-0.0113031 0.248157,0.0383425 0.412461,0.191075l0 0.000417323c0.0369843,0.0345984 0.0676811,0.0632205 0.0933543,0.081189 0.0107756,0.00753937 0.0194567,0.0125945 0.026063,0.0145591 0.0513583,-0.0249134 0.0388937,-0.391091 0.0289764,-0.682043 -0.00542126,-0.159126 -0.0102008,-0.299343 0.00305118,-0.380488 0.0294094,-0.180921 0.101933,-0.33315 0.202579,-0.455445 0.115886,-0.140811 0.268657,-0.240878 0.435457,-0.298583 0.165528,-0.0572598 0.345106,-0.0728071 0.516035,-0.0450197 0.162933,0.0264882 0.318728,0.0923189 0.448224,0.198894 0.647957,0.534657 0.457165,1.5015 0.296602,2.31515 -0.0371654,0.188346 -0.0726614,0.368193 -0.0945236,0.526236l-0.0123661 0.0893898 -0.0905512 0.00227953zm-0.787181 -0.205508c0.232217,0.00166929 0.462429,2.75591e-005 0.692579,-0.00490945 0.0225276,-0.142512 0.0521339,-0.292516 0.082878,-0.448323 0.149409,-0.757134 0.326949,-1.65683 -0.222437,-2.11015 -0.0992402,-0.0816732 -0.220067,-0.132362 -0.34739,-0.153059 -0.136894,-0.0222559 -0.28052,-0.00987402 -0.412705,0.0358543 -0.130913,0.0452913 -0.250398,0.123315 -0.340457,0.232748 -0.0775945,0.0942835 -0.133677,0.212717 -0.156744,0.35461 -0.0100276,0.0614094 -0.00558661,0.19174 -0.000547244,0.339654 0.0132126,0.38774 0.0299409,0.878669 -0.227732,0.901717l-0.01 0.000417323c-0.0555551,-0.000488189 -0.103043,-0.0199134 -0.15148,-0.053815 -0.0367323,-0.0257087 -0.0729685,-0.0594606 -0.116476,-0.100161l-0.000208661 0.000224409c-0.112917,-0.104969 -0.193165,-0.14072 -0.245791,-0.13524 -0.0141102,0.0014685 -0.0256378,0.00730315 -0.0345512,0.0160079 -0.0117402,0.0114685 -0.0206811,0.0285394 -0.026622,0.0487559 -0.0172087,0.0585236 -0.00761811,0.131425 0.0295709,0.181535l0.000417323 0.000417323c0.0829764,0.112681 0.193276,0.224535 0.305256,0.338094 0.166213,0.168559 0.335941,0.340697 0.444677,0.539492 0.251449,0.00901969 0.496642,0.0143976 0.737764,0.0161299z"/>
    <path id="_431833072" class="fil1" d="M5.72397 5.14349c-0.00140551,0.0224606 0.000535433,0.0655 0.00283071,0.116354 0.00133071,0.0295197 0.0027874,0.0616575 0.00394094,0.100933 0.00616535,0.209614 -0.0116457,0.441476 -0.183492,0.446528l-0.00333465 0c-0.0314331,-0.000232283 -0.0959685,0.000464567 -0.180803,0.00137795 -0.409961,0.00442126 -1.27536,0.013748 -1.3639,-0.0783661l-1.5748e-005 1.5748e-005 -0.000181102 -0.00019685 -0.00023622 -0.000220472 1.9685e-005 -1.9685e-005c-0.0914213,-0.0977835 -0.0839961,-0.309008 -0.0781417,-0.475343 0.00172835,-0.0490709 0.0032874,-0.0935 0.00193701,-0.124598l0.212504 -0.00916535c0.00167717,0.0385394 -3.93701e-005,0.0873622 -0.00193701,0.141268 -0.00448031,0.127413 -0.0101772,0.289276 0.0210354,0.322441l0.000417323 0.000417323c0.0224331,0.0240354 0.826323,0.0153661 1.20683,0.0112638 0.0827205,-0.000889764 0.14626,-0.00157874 0.180091,-0.00139764 0.0140591,-0.0011063 -0.0201063,-0.119732 -0.0232953,-0.228169 -0.000874016,-0.029752 -0.00247244,-0.0651063 -0.00394094,-0.0976024 -0.00261417,-0.0579449 -0.00483071,-0.106969 -0.00283071,-0.13885l0.212504 0.0133307z"/>
   </g>
   <path id="_431833024" class="fil1" d="M1.30104 3.94966c0.23015,0.00493701 0.460362,0.00657874 0.692579,0.00490551 0.241122,-0.00173228 0.486319,-0.0071063 0.737772,-0.016126 0.108744,-0.198807 0.278469,-0.370949 0.444685,-0.539512 0.111976,-0.113555 0.222264,-0.225402 0.30524,-0.338079l0.000417323 -0.000417323c0.037189,-0.0501102 0.0467795,-0.123008 0.0295709,-0.181535 -0.00594094,-0.0202165 -0.0148819,-0.0372874 -0.026622,-0.0487559 -0.00890945,-0.00870472 -0.0204409,-0.0145394 -0.0345512,-0.0160079 -0.052626,-0.00548031 -0.132874,0.0302717 -0.245787,0.135236l-0.000208661 -0.000224409c-0.0435039,0.0407047 -0.0797441,0.0744567 -0.116476,0.100169 -0.048437,0.0339016 -0.0959331,0.0533228 -0.151484,0.0538189l-0.01 -0.000417323c-0.257673,-0.0230512 -0.240945,-0.513988 -0.227732,-0.90172 0.00503937,-0.147913 0.00948031,-0.278244 -0.000547244,-0.339657 -0.0230709,-0.141902 -0.0791535,-0.260331 -0.156748,-0.354614 -0.0900591,-0.109429 -0.209543,-0.187453 -0.340457,-0.23274 -0.132185,-0.0457283 -0.275807,-0.0581102 -0.412701,-0.0358543 -0.127323,0.0206929 -0.248146,0.0713819 -0.34739,0.153059 -0.549386,0.453315 -0.371843,1.35302 -0.222433,2.11016 0.0307441,0.155807 0.0603425,0.305803 0.082874,0.448311zm0.693413 0.217409c-0.265386,0.00190945 -0.527114,-0.000429134 -0.788012,-0.00699213l-0.0905472 -0.00227953 -0.0123701 -0.0893898c-0.0218661,-0.158031 -0.0573543,-0.337874 -0.0945236,-0.526224 -0.160563,-0.81365 -0.351358,-1.78051 0.296598,-2.31516 0.129496,-0.106575 0.285295,-0.172409 0.448224,-0.198894 0.170929,-0.0277874 0.350508,-0.0122441 0.516031,0.0450197 0.166799,0.0577008 0.319567,0.15776 0.435457,0.298575 0.10065,0.122295 0.173169,0.274524 0.202583,0.455449 0.013252,0.0811496 0.00847244,0.221366 0.00305118,0.380492 -0.00991732,0.290949 -0.0223819,0.657134 0.0289764,0.682047 0.0066063,-0.00196457 0.0152913,-0.00701969 0.0260669,-0.014563 0.0256693,-0.0179685 0.0563701,-0.0465945 0.0933543,-0.0811969l0 -0.000417323c0.164299,-0.152732 0.303894,-0.202374 0.412457,-0.191071 0.0654803,0.0068189 0.119272,0.0342008 0.161213,0.0751732 0.0391102,0.0382008 0.0665945,0.0873031 0.0824567,0.14126 0.034374,0.116906 0.0139055,0.264346 -0.0625591,0.367732l7.48031e-005 5.51181e-005c-0.0918425,0.124717 -0.207657,0.242169 -0.32524,0.361409 -0.169693,0.172091 -0.343327,0.348177 -0.433677,0.539697l-0.0275276 0.0583543 -0.0649724 0.00248031c-0.272406,0.0103819 -0.5405,0.0165276 -0.807114,0.0184449z"/>
   <path id="_431833600" class="fil1" d="M1.3152 4.04757c0.00198425,0.0317047 -0.000220472,0.0806181 -0.00283071,0.138417 -0.0014685,0.0325039 -0.00306693,0.0678622 -0.00394094,0.0976181 -0.00319291,0.108437 -0.0373583,0.227063 -0.0232992,0.228173 0.033815,-0.000181102 0.097311,0.000507874 0.179976,0.00139764 0.380465,0.00410236 1.18451,0.0127756 1.20695,-0.0112677l0.000417323 -0.000417323c0.0312165,-0.0331693 0.0255157,-0.195035 0.0210315,-0.322453l0 -0.000417323c-0.00188976,-0.0537756 -0.0036063,-0.10248 -0.00193701,-0.140835l0.212504 0.00916535c-0.00135433,0.031185 0.000200787,0.075563 0.00192126,0.124583l1.5748e-005 0c0.00585827,0.166339 0.0132913,0.377567 -0.0781378,0.475354l1.9685e-005 1.9685e-005 -0.00023622 0.000216535 -0.000181102 0.000200787 -1.5748e-005 -1.5748e-005c-0.088563,0.0921299 -0.95411,0.0827913 -1.36402,0.0783701 -0.0847795,-0.000913386 -0.149272,-0.00161024 -0.180689,-0.00137795l-0.00333465 0c-0.171846,-0.00505118 -0.189661,-0.236909 -0.183488,-0.446531 0.00115354,-0.0392795 0.00261024,-0.0714252 0.00394094,-0.100949 0.00229921,-0.0509764 0.00424409,-0.0941181 0.00283071,-0.116748l0.212504 -0.0125039z"/>
  </g>
  <path class="fil2" d="M1.30104 3.94966c0.23015,0.00493701 0.460362,0.00657874 0.692579,0.00490551 0.241122,-0.00173228 0.486319,-0.0071063 0.737772,-0.016126 0.108744,-0.198807 0.278469,-0.370949 0.444685,-0.539512 0.111976,-0.113555 0.222264,-0.225402 0.30524,-0.338079l0.000417323 -0.000417323c0.037189,-0.0501102 0.0467795,-0.123008 0.0295709,-0.181535 -0.00594094,-0.0202165 -0.0148819,-0.0372874 -0.026622,-0.0487559 -0.00890945,-0.00870472 -0.0204409,-0.0145394 -0.0345512,-0.0160079 -0.052626,-0.00548031 -0.132874,0.0302717 -0.245787,0.135236l-0.000208661 -0.000224409c-0.0435039,0.0407047 -0.0797441,0.0744567 -0.116476,0.100169 -0.048437,0.0339016 -0.0959331,0.0533228 -0.151484,0.0538189l-0.01 -0.000417323c-0.257673,-0.0230512 -0.240945,-0.513988 -0.227732,-0.90172 0.00503937,-0.147913 0.00948031,-0.278244 -0.000547244,-0.339657 -0.0230709,-0.141902 -0.0791535,-0.260331 -0.156748,-0.354614 -0.0900591,-0.109429 -0.209543,-0.187453 -0.340457,-0.23274 -0.132185,-0.0457283 -0.275807,-0.0581102 -0.412701,-0.0358543 -0.127323,0.0206929 -0.248146,0.0713819 -0.34739,0.153059 -0.549386,0.453315 -0.371843,1.35302 -0.222433,2.11016 0.0307441,0.155807 0.0603425,0.305803 0.082874,0.448311z"/>
  <path class="fil3" d="M2.6926 4.15256c-0.235055,0.00801575 -0.467154,0.0128504 -0.698142,0.0145118 -0.229134,0.00164961 -0.455539,0.000129921 -0.681039,-0.00453937 -0.000334646,0.00763386 -0.000688976,0.0154646 -0.00105118,0.0234606 -0.0014685,0.0325039 -0.00306693,0.0678622 -0.00394094,0.0976181 -0.00319291,0.108437 -0.0373583,0.227063 -0.0232992,0.228173 0.033815,-0.000181102 0.097311,0.000507874 0.179976,0.00139764 0.380465,0.00410236 1.18451,0.0127756 1.20695,-0.0112677l0.000417323 -0.000417323c0.0312165,-0.0331693 0.0255157,-0.195035 0.0210315,-0.322453l0 -0.000417323c-0.000311024,-0.00883465 -0.00061811,-0.0175315 -0.000901575,-0.0260669z"/>
  <path class="fil2" d="M3.34534 4.14385c0.0829764,0.112681 0.193276,0.224535 0.305256,0.338094 0.166213,0.168559 0.335941,0.340697 0.444677,0.539492 0.251449,0.00901969 0.496642,0.0143976 0.737764,0.0161299 0.232217,0.00166929 0.462429,2.75591e-005 0.692579,-0.00490945 0.0225276,-0.142512 0.0521339,-0.292516 0.082878,-0.448323 0.149409,-0.757134 0.326949,-1.65683 -0.222437,-2.11015 -0.0992402,-0.0816732 -0.220067,-0.132362 -0.34739,-0.153059 -0.136894,-0.0222559 -0.28052,-0.00987402 -0.412705,0.0358543 -0.130913,0.0452913 -0.250398,0.123315 -0.340457,0.232748 -0.0775945,0.0942835 -0.133677,0.212717 -0.156744,0.35461 -0.0100276,0.0614094 -0.00558661,0.19174 -0.000547244,0.339654 0.0132126,0.38774 0.0299409,0.878669 -0.227732,0.901717l-0.01 0.000417323c-0.0555551,-0.000488189 -0.103043,-0.0199134 -0.15148,-0.053815 -0.0367323,-0.0257087 -0.0729685,-0.0594606 -0.116476,-0.100161l-0.000208661 0.000224409c-0.112917,-0.104969 -0.193165,-0.14072 -0.245791,-0.13524 -0.0141102,0.0014685 -0.0256378,0.00730315 -0.0345512,0.0160079 -0.0117402,0.0114685 -0.0206811,0.0285394 -0.026622,0.0487559 -0.0172087,0.0585236 -0.00761811,0.131425 0.0295709,0.181535l0.000417323 0.000417323z"/>
  <path class="fil3" d="M4.8322 5.25007c-0.230984,-0.00166535 -0.463079,-0.0065 -0.698126,-0.0145118 -0.000291339,0.00867323 -0.000602362,0.0175157 -0.000917323,0.0264961 -0.00448031,0.127413 -0.0101772,0.289276 0.0210354,0.322441l0.000417323 0.000417323c0.0224331,0.0240354 0.826323,0.0153661 1.20683,0.0112638 0.0827205,-0.000889764 0.14626,-0.00157874 0.180091,-0.00139764 0.0140591,-0.0011063 -0.0201063,-0.119732 -0.0232953,-0.228169 -0.000874016,-0.029752 -0.00247244,-0.0651063 -0.00394094,-0.0976024 -0.000362205,-0.00800394 -0.000716535,-0.0158386 -0.00105118,-0.0234803 -0.225504,0.00466929 -0.451909,0.00618898 -0.681043,0.00454331z"/>
 </g>
</svg>
