<?xml version="1.0" encoding="UTF-8"?>
<!DOCTYPE svg PUBLIC "-//W3C//DTD SVG 1.1//EN" "http://www.w3.org/Graphics/SVG/1.1/DTD/svg11.dtd">
<!-- Creator: CorelDRAW -->
<svg xmlns="http://www.w3.org/2000/svg" xml:space="preserve" width="6.82666in" height="6.82666in" style="shape-rendering:geometricPrecision; text-rendering:geometricPrecision; image-rendering:optimizeQuality; fill-rule:evenodd; clip-rule:evenodd"
viewBox="0 0 6.82666 6.82666"
 xmlns:xlink="http://www.w3.org/1999/xlink">
 <defs>
  <style type="text/css">
   <![CDATA[
    .fil0 {fill:none}
    .fil2 {fill:#63CBE5}
    .fil3 {fill:#F19A7B}
    .fil1 {fill:#333333;fill-rule:nonzero}
   ]]>
  </style>
 </defs>
 <g id="Layer_x0020_1">
  <metadata id="CorelCorpID_0Corel-Layer"/>
  <g id="_431835232">
   <rect id="_431834728" class="fil0" width="6.82666" height="6.82666"/>
   <rect id="_431834608" class="fil0" x="0.853331" y="0.853331" width="5.12" height="5.12"/>
  </g>
  <polygon class="fil1" points="0.853331,1.46241 5.97333,1.46241 5.97333,1.67574 0.853331,1.67574 "/>
  <polygon class="fil1" points="3.52,1.56907 3.52,3.30666 3.30666,3.30666 3.30666,1.56907 "/>
  <path class="fil1" d="M1.35112 3.19999l4.12442 0c0.12111,0 0.231138,0.0494724 0.310831,0.129169 0.0796969,0.0796929 0.129169,0.18972 0.129169,0.310831l0 1.89334c0,0.12111 -0.0494724,0.231138 -0.129169,0.310831 -0.0796929,0.0796969 -0.18972,0.129169 -0.310831,0.129169l-4.12442 0c-0.12111,0 -0.231138,-0.0494724 -0.310831,-0.129169 -0.0796969,-0.0796929 -0.129169,-0.18972 -0.129169,-0.310831l0 -1.89334c0,-0.121102 0.0494724,-0.231138 0.129165,-0.310835 0.0796969,-0.0796929 0.189724,-0.129165 0.310835,-0.129165zm4.12442 0.213339l-4.12442 0c-0.0622205,0 -0.11887,0.0255315 -0.16,0.0666614 -0.0411299,0.0411299 -0.0666614,0.0977795 -0.0666614,0.16l0 1.89334c0,0.0622205 0.0255354,0.118866 0.0666654,0.159996 0.0411299,0.0411299 0.0977756,0.0666654 0.159996,0.0666654l4.12442 0c0.0622205,0 0.118866,-0.0255354 0.159996,-0.0666654 0.0411299,-0.0411299 0.0666654,-0.0977756 0.0666654,-0.159996l0 -1.89334c0,-0.0622205 -0.0255354,-0.118866 -0.0666654,-0.159996 -0.0411299,-0.0411299 -0.0977756,-0.0666654 -0.159996,-0.0666654z"/>
  <polygon class="fil1" points="1.01779,4.58665 5.80887,4.58665 5.80887,4.79999 1.01779,4.79999 "/>
  <g id="_431833888">
   <polygon id="_431835040" class="fil1" points="2.56,3.30666 2.56,4.69332 2.34666,4.69332 2.34666,3.30666 "/>
   <polygon id="_431833936" class="fil1" points="4.48,3.30666 4.48,4.69332 4.26666,4.69332 4.26666,3.30666 "/>
  </g>
  <path class="fil2" d="M2.34666 4.58665l0 -1.17332 -0.995539 0c-0.0622205,0 -0.11887,0.0255315 -0.16,0.0666614 -0.0411299,0.0411299 -0.0666614,0.0977795 -0.0666614,0.16l0 0.946657 1.2222 0z"/>
  <polygon class="fil2" points="2.56,3.41333 2.56,4.58665 4.26666,4.58665 4.26666,3.41333 "/>
  <path class="fil2" d="M4.48 3.41333l0 1.17332 1.2222 0 0 -0.946657c0,-0.0622205 -0.0255354,-0.118866 -0.0666654,-0.159996 -0.0411299,-0.0411299 -0.0977756,-0.0666654 -0.159996,-0.0666654l-0.995543 0z"/>
  <path class="fil3" d="M5.7022 4.79999l-4.57774 0 0 0.733343c0,0.0622205 0.0255354,0.118866 0.0666654,0.159996 0.0411299,0.0411299 0.0977756,0.0666654 0.159996,0.0666654l4.12442 0c0.0622205,0 0.118866,-0.0255354 0.159996,-0.0666654 0.0411299,-0.0411299 0.0666654,-0.0977756 0.0666654,-0.159996l0 -0.733343z"/>
 </g>
</svg>
