<?xml version="1.0" encoding="UTF-8"?>
<!DOCTYPE svg PUBLIC "-//W3C//DTD SVG 1.1//EN" "http://www.w3.org/Graphics/SVG/1.1/DTD/svg11.dtd">
<!-- Creator: CorelDRAW -->
<svg xmlns="http://www.w3.org/2000/svg" xml:space="preserve" width="6.82666in" height="6.82666in" style="shape-rendering:geometricPrecision; text-rendering:geometricPrecision; image-rendering:optimizeQuality; fill-rule:evenodd; clip-rule:evenodd"
viewBox="0 0 6.82666 6.82666"
 xmlns:xlink="http://www.w3.org/1999/xlink">
 <defs>
  <style type="text/css">
   <![CDATA[
    .fil0 {fill:none}
    .fil1 {fill:#C794BE}
    .fil3 {fill:#FFD3B3}
    .fil2 {fill:#333333;fill-rule:nonzero}
   ]]>
  </style>
 </defs>
 <g id="Layer_x0020_1">
  <metadata id="CorelCorpID_0Corel-Layer"/>
  <g id="_431828176">
   <rect id="_431827792" class="fil0" width="6.82666" height="6.82666"/>
   <rect id="_431828080" class="fil0" x="0.853331" y="0.853331" width="5.12" height="5.12"/>
  </g>
  <path class="fil1" d="M4.08402 3.23331c0.0122441,0.0121378 0.0257441,0.0230079 0.0402913,0.032374 0.0385748,0.0248504 0.0843346,0.0392717 0.133236,0.0392717 0.0381614,0 0.0742992,-0.00866929 0.106555,-0.0241457l-0.0299685 -0.0556063 0.093748 -0.0504173 0.0210669 0.0390906c0.0345512,-0.0424528 0.0552677,-0.0966102 0.0552677,-0.155591 0,-0.0347165 -0.00743701,-0.0681142 -0.0208307,-0.0986811 -0.00731496,-0.016685 -0.0163819,-0.0323819 -0.0269528,-0.0468504 0.0166142,-0.173299 -0.0268189,-0.301138 -0.126071,-0.386705 -0.0951693,-0.0820512 -0.2375,-0.117941 -0.423339,-0.111228 -0.134323,-0.119425 -0.313933,-0.212752 -0.506461,-0.287795 -0.20115,-0.0784055 -0.415941,-0.13685 -0.606343,-0.184268l5.11811e-005 -0.00019685c-0.0428504,-0.0106693 -0.0861969,0.0125748 -0.101732,0.0527087l-0.0200827 0.0401654 0.084622 0.0385157 -0.0441654 0.0970787 -0.088189 -0.0401378 -0.035252 0.0705079 -0.000326772 -0.000165354c-0.0214055,0.0428071 -0.00405118,0.0948701 0.0387559,0.116276 0.00387402,0.00193701 0.00782283,0.00354724 0.0118189,0.0048622 0.108083,0.040874 0.224122,0.0735315 0.342012,0.106697 0.182291,0.0512874 0.369236,0.103898 0.529945,0.190189l-0.402894 0.323039 -0.000141732 -0.000177165c-0.00641732,0.00514567 -0.0119055,0.0110118 -0.0164488,0.0173976 -0.218913,0.25985 -0.082685,0.460185 0.103705,0.62076 0.0328661,0.028311 0.0664409,0.0545433 0.0992835,0.0792913l-0.453772 0.271504 -0.0558071 0.0333898 -0.000149606 -0.000228346c-0.0410709,0.0245748 -0.0544449,0.0777992 -0.0298701,0.11887 0.0127598,0.0213268 0.033248,0.0351811 0.055748,0.0401378l0.65963 0.194008 -5.90551e-005 0.000208661c0.0316929,0.00932283 0.0644646,-0.000314961 0.0861654,-0.0222756 0.0438031,-0.037626 0.0934606,-0.0749488 0.143622,-0.111382 0.0192638,-0.0139921 0.0386024,-0.0278543 0.0577126,-0.0415512 0.119874,-0.0859173 0.231362,-0.165831 0.292224,-0.256882 0.0902126,-0.134965 0.0780039,-0.268579 -0.138665,-0.413409l-5.11811e-005 7.48031e-005 -6.69291e-005 -4.72441e-005 0.000204724 -0.000307087c-0.00209055,-0.00139764 -0.00422441,-0.00268504 -0.00638976,-0.00388189l-0.130142 -0.0881654 0.308504 -0.146323zm-1.01699 0.764122l0.427031 0.125598c-0.00629921,0.00503543 -0.0125827,0.0101142 -0.0188425,0.015248l-0.431484 -0.126909 0.0232953 -0.013937z"/>
  <polygon class="fil2" points="1.09667,3.41791 4.70774,4.47999 5.97333,4.47999 5.97333,4.69333 4.69333,4.69333 4.66333,4.68874 1.03667,3.62208 "/>
  <path class="fil2" d="M4.28103 2.92352c0.0174094,-0.128071 -0.00483071,-0.216 -0.0637362,-0.266787 -0.0649567,-0.0560039 -0.1785,-0.0775197 -0.336626,-0.0673701l1.1811e-005 0.000165354c-0.027437,0.00175984 -0.0527087,-0.00944882 -0.0698346,-0.0283543 -0.11828,-0.112287 -0.287965,-0.201035 -0.472571,-0.272992 -0.169177,-0.0659409 -0.351165,-0.117748 -0.518858,-0.160709l-0.031752 0.0635c0.0775433,0.0256063 0.158701,0.0484409 0.240787,0.0715354 0.235528,0.0662677 0.47839,0.134606 0.682425,0.276106l-0.0490906 0.0710945 0.0493898 -0.0712165c0.0393307,0.0272756 0.0491024,0.0812756 0.0218268,0.120606 -0.00617323,0.00890157 -0.0137165,0.0162835 -0.0221457,0.0220669l-0.487504 0.390874c-0.123858,0.149555 -0.0337835,0.274705 0.0856181,0.377567 0.0448268,0.0386142 0.0958031,0.0762126 0.14315,0.111122 0.0196811,0.0145118 0.0389291,0.0287047 0.0505433,0.0374646l8.26772e-005 -0.000106299c0.0382126,0.028815 0.0458307,0.0831654 0.0170157,0.121378 -0.00844488,0.0112008 -0.0190827,0.0197677 -0.0308661,0.025563l-0.445157 0.266346 0.431484 0.126909c0.0600866,-0.0492717 0.122291,-0.0938622 0.182291,-0.136862 0.107157,-0.0768031 0.206819,-0.148236 0.249571,-0.212197 0.0316929,-0.0474134 0.0170118,-0.101319 -0.0912008,-0.173669l-0.00015748 0.000232283c-0.00241339,-0.00161417 -0.00471654,-0.00332677 -0.00691339,-0.00512992l-0.255291 -0.172953 -0.000208661 0.000311024c-0.039626,-0.0268465 -0.0499882,-0.0807362 -0.0231417,-0.120362 0.0101811,-0.0150315 0.0242559,-0.0258465 0.0399685,-0.0320236l0.504618 -0.239335 -8.26772e-005 -0.000177165c0.0432441,-0.0205118 0.094937,-0.00207874 0.115449,0.0411654 0.000712598,0.00150394 0.00137795,0.00301969 0.00199606,0.00454331 0.00588189,0.0115157 0.0147677,0.0212913 0.0256339,0.0282874 0.0112992,0.00727953 0.0249567,0.0115079 0.0397953,0.0115079 0.0202598,0 0.0386024,-0.00820866 0.0518622,-0.0214685 0.0132598,-0.0132598 0.0214685,-0.0316024 0.0214685,-0.0518622 0,-0.0109094 -0.00212205,-0.0209173 -0.00593307,-0.0296181 -0.00401575,-0.00916142 -0.0100236,-0.0174528 -0.0175197,-0.0243661l0.0585669 -0.0636457 -0.0587559 0.0637087c-0.0230709,-0.0212756 -0.0319685,-0.0521772 -0.0262087,-0.0808504zm0.0493346 -0.397465c0.099252,0.0855669 0.142685,0.213406 0.126071,0.386705 0.0105709,0.0144685 0.0196378,0.0301654 0.0269528,0.0468504 0.0133937,0.0305669 0.0208307,0.0639646 0.0208307,0.0986811 0,0.0680984 -0.0276142,0.129768 -0.0722559,0.174413 -0.0446378,0.0446378 -0.106307,0.0722559 -0.174413,0.0722559 -0.0489016,0 -0.0946614,-0.0144213 -0.133236,-0.0392717 -0.0145472,-0.00936614 -0.0280472,-0.0202362 -0.0402913,-0.032374l-0.308504 0.146323 0.130142 0.0881654c0.00216535,0.00119685 0.00429921,0.00248425 0.00638976,0.00388189l-0.000204724 0.000307087 6.69291e-005 4.72441e-005 5.11811e-005 -7.48031e-005c0.216669,0.144831 0.228878,0.278445 0.138665,0.413409 -0.0608622,0.0910512 -0.17235,0.170965 -0.292224,0.256882 -0.0688701,0.0493622 -0.140709,0.100854 -0.201335,0.152933 -0.0217008,0.0219606 -0.0544724,0.0315984 -0.0861654,0.0222756l5.90551e-005 -0.000208661 -0.65963 -0.194008c-0.0225,-0.00495669 -0.0429882,-0.018811 -0.055748,-0.0401378 -0.0245748,-0.0410709 -0.0112008,-0.0942953 0.0298701,-0.11887l0.0445 0.0743701 -0.0443504 -0.0741417 0.509579 -0.304894c-0.0328425,-0.024748 -0.0664173,-0.0509803 -0.0992835,-0.0792913 -0.18639,-0.160575 -0.322618,-0.360909 -0.103705,-0.62076 0.00454331,-0.00638583 0.0100315,-0.012252 0.0164488,-0.0173976l0.000141732 0.000177165 0.402894 -0.323039c-0.160709,-0.0862913 -0.347654,-0.138902 -0.529945,-0.190189 -0.11789,-0.0331654 -0.233929,-0.0658228 -0.342012,-0.106697 -0.00399606,-0.00131496 -0.00794488,-0.0029252 -0.0118189,-0.0048622 -0.0428071,-0.0214055 -0.0601614,-0.0734685 -0.0387559,-0.116276l0.000326772 0.000165354 0.103067 -0.20613c0.0155354,-0.0401339 0.0588819,-0.063378 0.101732,-0.0527087l-5.11811e-005 0.00019685c0.190402,0.0474173 0.405193,0.105862 0.606343,0.184268 0.192528,0.0750433 0.372138,0.16837 0.506461,0.287795 0.185839,-0.0067126 0.328169,0.0291772 0.423339,0.111228z"/>
  <polygon class="fil2" points="2.71292,2.17103 1.25289,1.50654 1.29706,1.40946 2.75708,2.07395 "/>
  <path class="fil2" d="M4.83016 2.34666c0.096811,0 0.184472,0.039252 0.247929,0.102705 0.0634528,0.0634567 0.102705,0.151118 0.102705,0.247929 0,0.096811 -0.039252,0.184472 -0.102705,0.247925 -0.0634567,0.0634567 -0.151118,0.102709 -0.247929,0.102709 -0.096815,0 -0.184476,-0.0392559 -0.247925,-0.102709 -0.0634528,-0.0634488 -0.102709,-0.15111 -0.102709,-0.247925 0,-0.096811 0.039252,-0.184472 0.102709,-0.247929 0.0634528,-0.0634528 0.151114,-0.102705 0.247925,-0.102705zm0.0970945 0.253539c-0.0248386,-0.0248346 -0.0591693,-0.0402008 -0.0970945,-0.0402008 -0.0379252,0 -0.0722559,0.0153661 -0.0970906,0.0402008 -0.0248346,0.0248346 -0.0402047,0.0591693 -0.0402047,0.0970945 0,0.0379213 0.0153661,0.0722559 0.0402047,0.0970906 0.0248346,0.0248386 0.0591693,0.0402047 0.0970906,0.0402047 0.0379252,0 0.0722598,-0.0153701 0.0970945,-0.0402047 0.0248346,-0.0248346 0.0402008,-0.0591654 0.0402008,-0.0970906 0,-0.0379252 -0.0153661,-0.0722559 -0.0402008,-0.0970945z"/>
  <polygon class="fil2" points="4.96646,4.39854 4.33414,3.2252 4.42789,3.17479 5.06021,4.34812 "/>
  <path class="fil3" d="M4.83016 2.83459c0.0379252,0 0.0722598,-0.0153701 0.0970945,-0.0402047 0.0248346,-0.0248346 0.0402008,-0.0591654 0.0402008,-0.0970906 0,-0.0379252 -0.0153661,-0.0722559 -0.0402008,-0.0970945 -0.0248386,-0.0248346 -0.0591693,-0.0402008 -0.0970945,-0.0402008 -0.0379252,0 -0.0722559,0.0153661 -0.0970906,0.0402008 -0.0248346,0.0248346 -0.0402047,0.0591693 -0.0402047,0.0970945 0,0.0379213 0.0153661,0.0722559 0.0402047,0.0970906 0.0248346,0.0248386 0.0591693,0.0402047 0.0970906,0.0402047z"/>
 </g>
</svg>
