<?xml version="1.0" encoding="UTF-8"?>
<!DOCTYPE svg PUBLIC "-//W3C//DTD SVG 1.1//EN" "http://www.w3.org/Graphics/SVG/1.1/DTD/svg11.dtd">
<!-- Creator: CorelDRAW -->
<svg xmlns="http://www.w3.org/2000/svg" xml:space="preserve" width="6.82666in" height="6.82666in" style="shape-rendering:geometricPrecision; text-rendering:geometricPrecision; image-rendering:optimizeQuality; fill-rule:evenodd; clip-rule:evenodd"
viewBox="0 0 6.82666 6.82666"
 xmlns:xlink="http://www.w3.org/1999/xlink">
 <defs>
  <style type="text/css">
   <![CDATA[
    .fil0 {fill:none}
    .fil3 {fill:#FFD3B3}
    .fil2 {fill:#333333;fill-rule:nonzero}
    .fil1 {fill:#63CBE5;fill-rule:nonzero}
   ]]>
  </style>
 </defs>
 <g id="Layer_x0020_1">
  <metadata id="CorelCorpID_0Corel-Layer"/>
  <g id="_431829160">
   <rect id="_431829208" class="fil0" width="6.82666" height="6.82666"/>
   <rect id="_431828992" class="fil0" x="0.853331" y="0.853331" width="5.12" height="5.12"/>
  </g>
  <path class="fil1" d="M4.09704 2.27681c0.0047874,0.00803543 0.0093622,0.015937 0.0137323,0.0237008l0.447346 0.151937c0.0172992,0.00465748 0.0336575,0.0137402 0.0472835,0.0272598l-0.075126 0.0757244 0.075 -0.0754173 0.607638 0.602827c0.014752,0.0125236 0.0262835,0.0292047 0.032563,0.0490118l-0.101677 0.0322441 0.101665 -0.0320827c0.0468898,0.147854 0.0384724,0.258181 -0.0289882,0.328398 -0.0665945,0.069315 -0.175213,0.0834764 -0.328457,0.0390276 -0.0161575,-0.00376378 -0.0316693,-0.0113622 -0.0451299,-0.0229094l0.000181102 -0.000212598 -0.555177 -0.476173 -0.32161 -0.0694764 -0.334402 0.730189 0.605913 0.605913c0.0121457,0.0116102 0.0217205,0.0262638 0.0274016,0.043311l-0.101193 0.0337323 0.100835 -0.0333346 0.326528 0.979587c0.00587795,0.0132244 0.00914567,0.0278622 0.00914567,0.0432638 0,0.0589094 -0.0477598,0.106669 -0.106669,0.106669l-0.437543 0c-0.0455079,0.000972441 -0.0882913,-0.0274882 -0.103437,-0.072937l0.101193 -0.0337323 -0.100835 0.0333346 -0.210244 -0.63074 -0.386138 -0.32178 0.0295906 0.118366c0.00838189,0.0274252 0.00575591,0.0581339 -0.00981102,0.0848701l-0.000220472 -0.000125984 -0.444244 0.763035c-0.0173701,0.0353622 -0.0537402,0.0597087 -0.0957953,0.0597087l-0.53974 0c-0.0150394,0.000248031 -0.0303701,-0.00268504 -0.0450197,-0.00919685 -0.0538307,-0.0239252 -0.0780748,-0.0869646 -0.0541496,-0.140795l0.000476378 0.000212598 0.427417 -0.961697 -0.105945 -0.847571c-0.00275591,-0.0172992 -0.00129134,-0.0355236 0.00511811,-0.0531575l0.000279528 0.000102362 0.192091 -0.528252 -0.864465 0.221307c-0.0107795,0.00320079 -0.0222559,0.00474409 -0.0341181,0.00432677l1.1811e-005 -0.000366142c-0.163311,-0.0057874 -0.263823,-0.0539055 -0.305287,-0.141795 -0.0407677,-0.0864213 -0.0150236,-0.191579 0.0730709,-0.314276 0.0130118,-0.0207795 0.0332008,-0.0372087 0.0584252,-0.045126l0.0319528 0.101768 -0.0316654 -0.101665 1.3238 -0.415626c0.00877953,-0.0180945 0.0227559,-0.0339134 0.0413189,-0.0449764l0.000173228 0.000291339c0.0465984,-0.0277677 0.090063,-0.051689 0.130378,-0.0717638 0.208819,-0.103965 0.392937,-0.142071 0.552236,-0.114067 0.168236,0.0295748 0.303059,0.129205 0.404323,0.299134z"/>
  <polygon class="fil2" points="1.25333,5.22666 5.25981,5.22666 5.86509,4.62139 6.01593,4.77222 5.37939,5.40875 5.30398,5.44 1.25333,5.44 "/>
  <path class="fil2" d="M3.93935 2.43184c-0.0089685,-0.017874 -0.017248,-0.0331693 -0.024811,-0.0458661 -0.0678701,-0.113894 -0.154063,-0.179941 -0.258488,-0.198299 -0.113362,-0.0199291 -0.253594,0.0117717 -0.420567,0.0949016 -0.0284567,0.0141732 -0.0565039,0.0290984 -0.0841181,0.0447677l-0.00111811 0.0030748 -0.00261811 -0.000948819 -0.000106299 5.90551e-005 0.00297244 0.00108268c-0.0125866,0.034626 -0.0412441,0.0587717 -0.0744921,0.0670748l-1.33361 0.418709c-0.0284803,0.0413898 -0.0410591,0.0669803 -0.0368583,0.0758858 0.0046811,0.0099252 0.0388189,0.0165 0.10413,0.0195079l1.04971 -0.268736 -1.1811e-005 -4.72441e-005c0.0570669,-0.0146063 0.115181,0.019815 0.129787,0.0768819 0.00624016,0.0243858 0.00352362,0.0489606 -0.00608268,0.0702559l-0.24939 0.685835 0.106823 0.854606 4.72441e-005 -3.93701e-006c0.00297244,0.0237717 -0.00212205,0.0466929 -0.0131457,0.0660157l-0.368913 0.830063 0.316839 0 0.395307 -0.67898 -0.0994803 -0.397921 0.103335 -0.0258346 -0.103484 0.0258701c-0.0142874,-0.0571496 0.0204646,-0.115067 0.0776142,-0.129354 0.0377598,-0.00944094 0.0758543,0.0025315 0.101476,0.0282283l0.651988 0.543319 -0.0679173 0.0816654 0.0682874 -0.0819449c0.0185748,0.0154764 0.0305472,0.035937 0.0356102,0.0578031l0.192382 0.57715 0.215894 0 -0.274835 -0.824512 -0.642594 -0.642594 -7.87402e-006 7.87402e-006c-0.0347283,-0.0347283 -0.0404961,-0.0874567 -0.017311,-0.128169l0.400587 -0.874709 0.0966654 0.0441654 -0.0969803 -0.0444134c0.0245276,-0.0535591 0.0878346,-0.0770945 0.141394,-0.0525669 0.00594488,0.00272441 0.0115197,0.00592913 0.0167008,0.00953937l0.388953 0.0840276 -0.0225 0.104165 0.0225236 -0.104264c0.020752,0.00448031 0.0387795,0.0147165 0.0527677,0.0286811l0.552154 0.473579c0.0593858,0.0166732 0.0920118,0.0208898 0.0992913,0.013311 0.00709843,-0.00738976 0.00236614,-0.0386535 -0.0135551,-0.0924488l-0.576614 -0.572051 -0.470693 -0.159866 0.0341654 -0.100835 -0.0343031 0.101c-0.0290315,-0.00985827 -0.0510394,-0.0309961 -0.0627992,-0.0568661zm0.157693 -0.155031c0.0047874,0.00803543 0.0093622,0.015937 0.0137323,0.0237008l0.447346 0.151937c0.0172992,0.00465748 0.0336575,0.0137402 0.0472835,0.0272598l-0.075126 0.0757244 0.075 -0.0754173 0.607638 0.602827c0.014752,0.0125236 0.0262835,0.0292047 0.032563,0.0490118l-0.101677 0.0322441 0.101665 -0.0320827c0.0468898,0.147854 0.0384724,0.258181 -0.0289882,0.328398 -0.0665945,0.069315 -0.175213,0.0834764 -0.328457,0.0390276 -0.0161575,-0.00376378 -0.0316693,-0.0113622 -0.0451299,-0.0229094l0.000181102 -0.000212598 -0.555177 -0.476173 -0.32161 -0.0694764 -0.334402 0.730189 0.605913 0.605913c0.0121457,0.0116102 0.0217205,0.0262638 0.0274016,0.043311l-0.101193 0.0337323 0.100835 -0.0333346 0.326528 0.979587c0.00587795,0.0132244 0.00914567,0.0278622 0.00914567,0.0432638 0,0.0589094 -0.0477598,0.106669 -0.106669,0.106669l-0.437543 0c-0.0455079,0.000972441 -0.0882913,-0.0274882 -0.103437,-0.072937l0.101193 -0.0337323 -0.100835 0.0333346 -0.210244 -0.63074 -0.386138 -0.32178 0.0295906 0.118366c0.00838189,0.0274252 0.00575591,0.0581339 -0.00981102,0.0848701l-0.000220472 -0.000125984 -0.444244 0.763035c-0.0173701,0.0353622 -0.0537402,0.0597087 -0.0957953,0.0597087l-0.53974 0c-0.0150394,0.000248031 -0.0303701,-0.00268504 -0.0450197,-0.00919685 -0.0538307,-0.0239252 -0.0780748,-0.0869646 -0.0541496,-0.140795l0.000476378 0.000212598 0.427417 -0.961697 -0.105945 -0.847571c-0.00275591,-0.0172992 -0.00129134,-0.0355236 0.00511811,-0.0531575l0.000279528 0.000102362 0.192091 -0.528252 -0.864465 0.221307c-0.0107795,0.00320079 -0.0222559,0.00474409 -0.0341181,0.00432677l1.1811e-005 -0.000366142c-0.163311,-0.0057874 -0.263823,-0.0539055 -0.305287,-0.141795 -0.0407677,-0.0864213 -0.0150236,-0.191579 0.0730709,-0.314276 0.0130118,-0.0207795 0.0332008,-0.0372087 0.0584252,-0.045126l0.0319528 0.101768 -0.0316654 -0.101665 1.3238 -0.415626c0.00877953,-0.0180945 0.0227559,-0.0339134 0.0413189,-0.0449764l0.000173228 0.000291339c0.0465984,-0.0277677 0.090063,-0.051689 0.130378,-0.0717638 0.208819,-0.103965 0.392937,-0.142071 0.552236,-0.114067 0.168236,0.0295748 0.303059,0.129205 0.404323,0.299134zm-0.998469 0.0349252l-3.93701e-005 -6.29921e-005 -0.00015748 -5.51181e-005 3.93701e-005 6.29921e-005 0.00015748 5.51181e-005z"/>
  <path class="fil2" d="M3.94667 1.02316c0.136366,0 0.259835,0.0552835 0.349201,0.144657 0.089374,0.0893661 0.144657,0.212835 0.144657,0.349201 0,0.136362 -0.0552835,0.259835 -0.144657,0.349201 -0.0893661,0.089374 -0.212835,0.144657 -0.349201,0.144657 -0.136362,0 -0.259835,-0.0552835 -0.349201,-0.144657 -0.089374,-0.0893661 -0.144657,-0.212839 -0.144657,-0.349201 0,-0.136366 0.0552835,-0.259835 0.144657,-0.349201 0.0893661,-0.089374 0.212839,-0.144657 0.349201,-0.144657zm0.209531 0.284327c-0.0536142,-0.0536102 -0.127697,-0.0867795 -0.209531,-0.0867795 -0.0818346,0 -0.155917,0.0331693 -0.209531,0.0867795 -0.0536102,0.0536142 -0.0867795,0.127697 -0.0867795,0.209531 0,0.0818346 0.0331693,0.155917 0.0867795,0.209531 0.0536142,0.0536102 0.127697,0.0867795 0.209531,0.0867795 0.0818346,0 0.155917,-0.0331693 0.209531,-0.0867795 0.0536102,-0.0536142 0.0867795,-0.127697 0.0867795,-0.209531 0,-0.0818346 -0.0331693,-0.155917 -0.0867795,-0.209531z"/>
  <path class="fil3" d="M4.1562 1.30748c-0.0536142,-0.0536102 -0.127697,-0.0867795 -0.209531,-0.0867795 -0.0818346,0 -0.155917,0.0331693 -0.209531,0.0867795 -0.0536102,0.0536142 -0.0867795,0.127697 -0.0867795,0.209531 0,0.0818346 0.0331693,0.155917 0.0867795,0.209531 0.0536142,0.0536102 0.127697,0.0867795 0.209531,0.0867795 0.0818346,0 0.155917,-0.0331693 0.209531,-0.0867795 0.0536102,-0.0536142 0.0867795,-0.127697 0.0867795,-0.209531 0,-0.0818346 -0.0331693,-0.155917 -0.0867795,-0.209531z"/>
 </g>
</svg>
