<?xml version="1.0" encoding="UTF-8"?>
<!DOCTYPE svg PUBLIC "-//W3C//DTD SVG 1.1//EN" "http://www.w3.org/Graphics/SVG/1.1/DTD/svg11.dtd">
<!-- Creator: CorelDRAW -->
<svg xmlns="http://www.w3.org/2000/svg" xml:space="preserve" width="6.82666in" height="6.82666in" style="shape-rendering:geometricPrecision; text-rendering:geometricPrecision; image-rendering:optimizeQuality; fill-rule:evenodd; clip-rule:evenodd"
viewBox="0 0 6.82666 6.82666"
 xmlns:xlink="http://www.w3.org/1999/xlink">
 <defs>
  <style type="text/css">
   <![CDATA[
    .fil0 {fill:none}
    .fil4 {fill:#FFD3B3}
    .fil1 {fill:#333333;fill-rule:nonzero}
    .fil3 {fill:#AED581;fill-rule:nonzero}
    .fil2 {fill:#F19A7B;fill-rule:nonzero}
   ]]>
  </style>
 </defs>
 <g id="Layer_x0020_1">
  <metadata id="CorelCorpID_0Corel-Layer"/>
  <g id="_431830024">
   <rect id="_431830072" class="fil0" width="6.82666" height="6.82666"/>
   <rect id="_431830480" class="fil0" x="0.853331" y="0.853331" width="5.12" height="5.12"/>
  </g>
  <path class="fil1" d="M5.81333 5.42629c0.0589094,0 0.106669,-0.0477598 0.106669,-0.106669 0,-0.0589094 -0.0477598,-0.106669 -0.106669,-0.106669l-4.23407 0c-0.0589094,0 -0.106669,0.0477598 -0.106669,0.106669 0,0.0589094 0.0477598,0.106669 0.106669,0.106669l4.23407 0z"/>
  <polygon class="fil1" points="2.36506,4.83837 2.06625,5.3717 1.88041,5.26754 2.17922,4.7342 "/>
  <polygon class="fil1" points="4.83958,4.7342 5.13839,5.26754 4.95256,5.3717 4.65375,4.83837 "/>
  <path class="fil2" d="M2.77327 3.56279c0.0510354,-0.141614 0.100232,-0.278114 0.172839,-0.388945l0.0663976 -0.101346 0.0919331 0.0788465 0.139512 0.119654c0.026185,0.00926772 0.0368858,0.0159528 0.0383189,0.0144567 0.00178346,-0.00185433 -0.00925984,-0.0180866 -0.0220551,-0.058437l0.0743583 -0.0234646 0.0823386 -0.101063 2.45517 1.63141 -0.058752 0.195421 -4.8 0 -0.170445 0 0.0750276 -0.153335 0.32 -0.653969 0.0428031 -0.0874724 0.0905315 0.0345551c0.204409,0.0780157 0.376807,0.124776 0.522878,0.146287 0.140248,0.0206535 0.254992,0.0178898 0.349764,-0.0027126l0.0179173 -0.00208661c0.0160315,-0.000740157 0.0366102,-0.00186614 0.0618228,-0.00338189 0.0167953,-0.00100394 0.0382205,-0.00246457 0.0641378,-0.00435433l0.0820354 -0.00598819 0.0262992 0.0789055 0.137854 0.413559 0.100705 0 -0.192484 -0.577457 -0.0180315 -0.0541024 0.0347008 -0.0446496c0.0972008,-0.125075 0.157102,-0.29128 0.214425,-0.450335z"/>
  <path class="fil1" d="M2.40131 1.40037c0.113268,0 0.215839,0.0459252 0.290087,0.120169 0.0742402,0.074248 0.120169,0.176811 0.120169,0.290087 0,0.113276 -0.0459291,0.215846 -0.120169,0.290087 -0.074248,0.074248 -0.176811,0.120173 -0.290087,0.120173 -0.113276,0 -0.215843,-0.0459252 -0.290091,-0.120173 -0.0742402,-0.0742402 -0.120169,-0.176811 -0.120169,-0.290087 0,-0.113276 0.0459252,-0.215839 0.120173,-0.290087 0.0742402,-0.0742402 0.176811,-0.120169 0.290087,-0.120169zm0.139252 0.271004c-0.035626,-0.035626 -0.0848661,-0.0576654 -0.139252,-0.0576654 -0.0543898,0 -0.103626,0.0220394 -0.139252,0.0576654 -0.0356299,0.0356299 -0.0576693,0.0848622 -0.0576693,0.139252 0,0.0543898 0.0220394,0.103626 0.0576654,0.139252 0.0356299,0.0356299 0.0848661,0.0576693 0.139256,0.0576693 0.0543898,0 0.103622,-0.0220394 0.139252,-0.0576693 0.035626,-0.035626 0.0576654,-0.0848622 0.0576654,-0.139252 0,-0.0543858 -0.0220394,-0.103626 -0.0576654,-0.139252z"/>
  <path class="fil3" d="M2.6132 2.52576c0.00176378,0.00296063 0.00348425,0.00588189 0.00516142,0.00876772l0.318539 0.108189c0.0172992,0.00466142 0.0336575,0.0137402 0.0472835,0.0272598l-0.075126 0.0757244 0.075 -0.0754173 0.446945 0.443402c0.014752,0.0125236 0.0262835,0.0292047 0.032563,0.0490118l-0.101677 0.0322441 0.101665 -0.0320827c0.0378898,0.119488 0.0296142,0.210189 -0.0279449,0.270106 -0.056626,0.0589409 -0.145559,0.0721339 -0.268776,0.0367126 -0.016189,-0.00375984 -0.0317402,-0.0113622 -0.0452283,-0.0229291l0.000181102 -0.000212598 -0.404331 -0.346791 -0.208709 -0.0450866 -0.229362 0.500835 0.43313 0.43313c0.0121457,0.0116102 0.0217205,0.0262638 0.0274016,0.043311l-0.101193 0.0337323 0.100835 -0.0333346 0.240134 0.720413c0.00587795,0.0132244 0.00914567,0.0278622 0.00914567,0.0432638 0,0.0589094 -0.0477598,0.106669 -0.106669,0.106669l-0.32235 0c-0.0455079,0.000972441 -0.0882913,-0.0274882 -0.103437,-0.072937l0.101193 -0.0337323 -0.100835 0.0333346 -0.136213 -0.408634c-0.312004,0.0176732 -0.562543,0.000720472 -0.726063,-0.0652441 -0.222543,-0.0897677 -0.304917,-0.250012 -0.203004,-0.50289l0.197791 -0.977402c0.000905512,-0.00836614 0.0028189,-0.0167598 0.00582283,-0.0250197l0.000279528 0.000102362 0.121327 -0.333642 0.00788189 -0.0216772c0.0071378,-0.025374 0.0236339,-0.0481654 0.048063,-0.0627244l0.000173228 0.000287402c0.0355157,-0.0211575 0.0682008,-0.0391693 0.0980394,-0.0540276 0.15961,-0.0794606 0.301252,-0.108425 0.424843,-0.0867008 0.132528,0.0232953 0.238406,0.101224 0.31752,0.233988z"/>
  <path class="fil1" d="M3.06573 3.39846c-0.0333228,0.0719173 -0.0625433,0.152984 -0.0924606,0.236 -0.0569331,0.157969 -0.116169,0.322319 -0.212083,0.462776l0.206248 0.618752 2.49305 0 -1.99478 -1.3255c-0.0078189,0.0155354 -0.0178386,0.0297047 -0.0300984,0.0424685 -0.0575709,0.0599252 -0.148539,0.0725669 -0.274976,0.0349016l-0.038748 -0.021248 -0.0561457 -0.0481535zm-0.292461 0.164331c0.0510354,-0.141614 0.100232,-0.278114 0.172839,-0.388945l0.0663976 -0.101346 0.0919331 0.0788465 0.139512 0.119654c0.026185,0.00926772 0.0368858,0.0159528 0.0383189,0.0144567 0.00178346,-0.00185433 -0.00925984,-0.0180866 -0.0220551,-0.058437l0.0743583 -0.0234646 0.0823386 -0.101063 2.45517 1.63141 -0.058752 0.195421 -4.8 0 -0.170445 0 0.0750276 -0.153335 0.32 -0.653969 0.0428031 -0.0874724 0.0905315 0.0345551c0.204409,0.0780157 0.376807,0.124776 0.522878,0.146287 0.140248,0.0206535 0.254992,0.0178898 0.349764,-0.0027126l0.0179173 -0.00208661c0.0160315,-0.000740157 0.0366102,-0.00186614 0.0618228,-0.00338189 0.0167953,-0.00100394 0.0382205,-0.00246457 0.0641378,-0.00435433l0.0820354 -0.00598819 0.0262992 0.0789055 0.137854 0.413559 0.100705 0 -0.192484 -0.577457 -0.0180315 -0.0541024 0.0347008 -0.0446496c0.0972008,-0.125075 0.157102,-0.29128 0.214425,-0.450335zm-0.354323 1.1532l-0.0984606 -0.295374c-0.0116929,0.000645669 -0.024748,0.00131496 -0.0391496,0.002 -0.117043,0.0243465 -0.254587,0.027689 -0.418047,0.00361417 -0.138402,-0.0203819 -0.296157,-0.0605236 -0.476831,-0.124453l-0.202681 0.414213 1.23517 0z"/>
  <path class="fil1" d="M2.44748 2.66606c-0.00635039,-0.0126299 -0.0119567,-0.0230157 -0.0167913,-0.0311339 -0.0457205,-0.0767244 -0.102969,-0.121075 -0.171685,-0.133154 -0.0776535,-0.0136496 -0.175406,0.00890945 -0.293173,0.0675354 -0.0177047,0.00881496 -0.035,0.0179134 -0.051878,0.0272913l-0.116283 0.319776 -0.200169 0.989161 -0.104165 -0.0208346 0.104547 0.0211575c-0.00181102,0.00895276 -0.00469685,0.0174094 -0.00849213,0.0252756 -0.0462717,0.115984 -0.0117638,0.188102 0.0842323,0.226827 0.144929,0.0584646 0.393961,0.0682717 0.713886,0.0449213l-1.1811e-005 -0.000153543c0.0532087,-0.00388583 0.100154,0.0319646 0.111724,0.0824055l0.134736 0.404205 0.100701 0 -0.188445 -0.565343 -0.469807 -0.469807 -7.87402e-006 7.87402e-006c-0.0347283,-0.0347283 -0.0404961,-0.0874567 -0.017311,-0.128169l0.294634 -0.643354 0.0966654 0.0441654 -0.0969803 -0.0444134c0.0245276,-0.0535591 0.0878346,-0.0770945 0.141394,-0.0525669 0.00407874,0.00187008 0.00798425,0.00396457 0.0117087,0.00626378l0.281957 0.0609134 -0.0225 0.104165 0.0225236 -0.104264c0.020752,0.00448031 0.0387795,0.0147165 0.0527677,0.0286811l0.402697 0.345386c0.026185,0.00926772 0.0368858,0.0159528 0.0383189,0.0144567 0.00133465,-0.00138976 -0.00453543,-0.0108622 -0.0129528,-0.0325276l-0.417567 -0.414256 -0.341346 -0.115937 0.0341654 -0.100835 -0.0343031 0.101c-0.0290236,-0.00985827 -0.0510236,-0.0309882 -0.0627874,-0.0568465zm0.165713 -0.140299c0.00176378,0.00296063 0.00348425,0.00588189 0.00516142,0.00876772l0.318539 0.108189c0.0172992,0.00466142 0.0336575,0.0137402 0.0472835,0.0272598l-0.075126 0.0757244 0.075 -0.0754173 0.446945 0.443402c0.014752,0.0125236 0.0262835,0.0292047 0.032563,0.0490118l-0.101677 0.0322441 0.101665 -0.0320827c0.0378898,0.119488 0.0296142,0.210189 -0.0279449,0.270106 -0.056626,0.0589409 -0.145559,0.0721339 -0.268776,0.0367126 -0.016189,-0.00375984 -0.0317402,-0.0113622 -0.0452283,-0.0229291l0.000181102 -0.000212598 -0.404331 -0.346791 -0.208709 -0.0450866 -0.229362 0.500835 0.43313 0.43313c0.0121457,0.0116102 0.0217205,0.0262638 0.0274016,0.043311l-0.101193 0.0337323 0.100835 -0.0333346 0.240134 0.720413c0.00587795,0.0132244 0.00914567,0.0278622 0.00914567,0.0432638 0,0.0589094 -0.0477598,0.106669 -0.106669,0.106669l-0.32235 0c-0.0455079,0.000972441 -0.0882913,-0.0274882 -0.103437,-0.072937l0.101193 -0.0337323 -0.100835 0.0333346 -0.136213 -0.408634c-0.312004,0.0176732 -0.562543,0.000720472 -0.726063,-0.0652441 -0.222543,-0.0897677 -0.304917,-0.250012 -0.203004,-0.50289l0.197791 -0.977402c0.000905512,-0.00836614 0.0028189,-0.0167598 0.00582283,-0.0250197l0.000279528 0.000102362 0.121327 -0.333642 0.00788189 -0.0216772c0.0071378,-0.025374 0.0236339,-0.0481654 0.048063,-0.0627244l0.000173228 0.000287402c0.0355157,-0.0211575 0.0682008,-0.0391693 0.0980394,-0.0540276 0.15961,-0.0794606 0.301252,-0.108425 0.424843,-0.0867008 0.132528,0.0232953 0.238406,0.101224 0.31752,0.233988z"/>
  <path class="fil4" d="M2.40131 2.00754c0.0543898,0 0.103622,-0.0220394 0.139252,-0.0576693 0.035626,-0.035626 0.0576654,-0.0848622 0.0576654,-0.139252 0,-0.0543858 -0.0220394,-0.103626 -0.0576654,-0.139252 -0.035626,-0.035626 -0.0848661,-0.0576654 -0.139252,-0.0576654 -0.0543898,0 -0.103626,0.0220394 -0.139252,0.0576654 -0.0356299,0.0356299 -0.0576693,0.0848622 -0.0576693,0.139252 0,0.0543898 0.0220394,0.103626 0.0576654,0.139252 0.0356299,0.0356299 0.0848661,0.0576693 0.139256,0.0576693z"/>
 </g>
</svg>
