<?xml version="1.0" encoding="UTF-8"?>
<!DOCTYPE svg PUBLIC "-//W3C//DTD SVG 1.1//EN" "http://www.w3.org/Graphics/SVG/1.1/DTD/svg11.dtd">
<!-- Creator: CorelDRAW -->
<svg xmlns="http://www.w3.org/2000/svg" xml:space="preserve" width="6.82666in" height="6.82666in" style="shape-rendering:geometricPrecision; text-rendering:geometricPrecision; image-rendering:optimizeQuality; fill-rule:evenodd; clip-rule:evenodd"
viewBox="0 0 6.82666 6.82666"
 xmlns:xlink="http://www.w3.org/1999/xlink">
 <defs>
  <style type="text/css">
   <![CDATA[
    .fil0 {fill:none}
    .fil2 {fill:#333333}
    .fil4 {fill:#AED581}
    .fil3 {fill:#F45A52}
    .fil5 {fill:#FFD3B3}
    .fil1 {fill:#333333;fill-rule:nonzero}
   ]]>
  </style>
 </defs>
 <g id="Layer_x0020_1">
  <metadata id="CorelCorpID_0Corel-Layer"/>
  <g id="_223508504">
   <rect id="_226894624" class="fil0" width="6.82666" height="6.82666"/>
   <rect id="_294572624" class="fil0" x="0.853331" y="0.853331" width="5.12" height="5.12"/>
  </g>
  <g id="_431831632">
   <path id="_223508480" class="fil1" d="M3.41333 1.39569c0.326409,0 0.621591,0.142965 0.834945,0.374102 0.211138,0.228732 0.341736,0.544055 0.341736,0.891744 0,0.0479409 -0.00273228,0.0967165 -0.00802362,0.146083 -0.00534252,0.0498071 -0.013122,0.0978228 -0.0231732,0.143913l-0.0183622 0.0841693 -0.0858031 0 -2.08264 0 -0.0858071 0 -0.0183583 -0.0841693c-0.0100472,-0.0460787 -0.0178268,-0.0940906 -0.0231654,-0.143886 -0.0052874,-0.049378 -0.00801969,-0.0981654 -0.00801969,-0.14611 0,-0.347689 0.130594,-0.663012 0.341732,-0.891744 0.213354,-0.231138 0.508531,-0.374102 0.834941,-0.374102zm0.678276 0.518268c-0.173906,-0.188398 -0.413744,-0.304929 -0.678276,-0.304929 -0.264531,0 -0.504366,0.116531 -0.678272,0.304929 -0.176122,0.190803 -0.285063,0.455075 -0.285063,0.747579 0,0.0432835 0.00216142,0.0845079 0.00635039,0.123606 0.00132677,0.0123858 0.00287795,0.0247953 0.00464173,0.0372205l1.90468 0c0.00176772,-0.012437 0.0033189,-0.0248543 0.00464961,-0.037248 0.00419291,-0.0390945 0.00635433,-0.0803071 0.00635433,-0.123579 0,-0.292504 -0.108945,-0.556776 -0.285067,-0.747579z"/>
   <path id="_223508528" class="fil1" d="M3.41333 0.853331c0.103307,0 0.196854,0.0418858 0.264571,0.109602 0.0677165,0.0677165 0.109602,0.161264 0.109602,0.264571 0,0.103307 -0.0418858,0.19685 -0.109602,0.264567 -0.0677165,0.0677087 -0.161264,0.109598 -0.264571,0.109598 -0.103307,0 -0.196854,-0.0418898 -0.264571,-0.109598 -0.0677087,-0.0677165 -0.109598,-0.16126 -0.109598,-0.264567 0,-0.103307 0.0418858,-0.196854 0.109602,-0.264571 0.0677087,-0.0677165 0.161252,-0.109602 0.264567,-0.109602zm0.113736 0.260437c-0.0290984,-0.0290984 -0.069311,-0.0470984 -0.113736,-0.0470984 -0.0444173,0 -0.0846378,0.0180039 -0.113732,0.0470984 -0.0290984,0.0290984 -0.0470984,0.069311 -0.0470984,0.113736 0,0.0444252 0.018,0.0846378 0.0470945,0.113732 0.0290945,0.0290945 0.069311,0.0470945 0.113736,0.0470945 0.0444252,0 0.0846417,-0.018 0.113736,-0.0470945 0.0290984,-0.0290984 0.0470984,-0.069311 0.0470984,-0.113732 0,-0.0444252 -0.018,-0.0846378 -0.0470984,-0.113736z"/>
   <path id="_223508648" class="fil1" d="M2.27744 2.84379l2.27178 0c0.072626,0 0.138579,0.0296378 0.186327,0.077378 0.0477402,0.0477402 0.077378,0.113697 0.077378,0.186323l0 0.355949c0,0.072622 -0.0296417,0.138575 -0.0773819,0.186319 -0.0477441,0.0477402 -0.113701,0.0773819 -0.186323,0.0773819l-2.27178 0c-0.072622,0 -0.138579,-0.0296378 -0.186319,-0.0773819 -0.0477441,-0.0477402 -0.0773819,-0.113697 -0.0773819,-0.186319l0 -0.355949c0,-0.0726339 0.0296378,-0.138583 0.077378,-0.186323 0.0477402,-0.0477402 0.113697,-0.077378 0.186323,-0.077378zm2.27178 0.213339l-2.27178 0c-0.0137402,0 -0.026315,0.00570079 -0.0354882,0.014874 -0.00917323,0.00917323 -0.014874,0.021748 -0.014874,0.0354882l0 0.355949c0,0.0137362 0.00570079,0.0263071 0.014878,0.0354843 0.00917717,0.00917717 0.021748,0.014878 0.0354843,0.014878l2.27178 0c0.0137362,0 0.026311,-0.00570079 0.0354882,-0.014878 0.00917717,-0.00917717 0.014878,-0.021748 0.014878,-0.0354843l0 -0.355949c0,-0.0137402 -0.00570079,-0.026315 -0.014874,-0.0354882 -0.00917717,-0.00917717 -0.021752,-0.014874 -0.0354921,-0.014874z"/>
   <polygon id="_223508720" class="fil1" points="2.76623,3.0342 2.76623,3.62047 2.55289,3.62047 2.55289,3.0342 "/>
   <polygon id="_431830552" class="fil1" points="3.26874,3.0342 3.26874,3.62047 3.0554,3.62047 3.0554,3.0342 "/>
   <polygon id="_431834944" class="fil1" points="3.77125,3.0342 3.77125,3.62047 3.55791,3.62047 3.55791,3.0342 "/>
   <polygon id="_431831680" class="fil1" points="4.27376,3.0342 4.27376,3.62047 4.06042,3.62047 4.06042,3.0342 "/>
   <g>
    <circle id="_431831824" class="fil2" cx="2.91087" cy="4.19676" r="0.149601"/>
    <circle id="_431832208" class="fil2" cx="3.91579" cy="4.19676" r="0.149601"/>
   </g>
   <path id="_431831728" class="fil1" d="M2.26863 3.60815c-0.133941,1.01772 0.117508,1.64561 0.499992,1.94424 0.20152,0.157343 0.440689,0.222752 0.677504,0.204831 0.23876,-0.0180748 0.475465,-0.120787 0.66978,-0.299433 0.3765,-0.346146 0.593343,-0.976583 0.367937,-1.83322l0.205835 -0.0541654c0.248646,0.944965 -0.00123228,1.65022 -0.429606,2.04406 -0.230343,0.211768 -0.512445,0.333646 -0.79811,0.355268 -0.287602,0.0217677 -0.578512,-0.0580236 -0.824173,-0.249831 -0.435957,-0.340382 -0.725358,-1.03472 -0.579992,-2.13925l0.210835 0.0275039z"/>
   <path id="_431832160" class="fil1" d="M2.90726 4.88965c0.131646,0.117307 0.278811,0.172047 0.437862,0.172047 0.175024,0 0.367559,-0.0647677 0.572634,-0.184547l0.107504 0.184165c-0.237492,0.138717 -0.46587,0.21372 -0.680138,0.21372 -0.211598,0 -0.406437,-0.0719764 -0.579531,-0.22622l0.141669 -0.159165z"/>
  </g>
  <path class="fil3" d="M3.2996 1.34124c0.0290945,0.0290945 0.069311,0.0470945 0.113736,0.0470945 0.0444252,0 0.0846417,-0.018 0.113736,-0.0470945 0.0290984,-0.0290984 0.0470984,-0.069311 0.0470984,-0.113732 0,-0.0444252 -0.018,-0.0846378 -0.0470984,-0.113736 -0.0290984,-0.0290984 -0.069311,-0.0470984 -0.113736,-0.0470984 -0.0444173,0 -0.0846378,0.0180039 -0.113732,0.0470984 -0.0290984,0.0290984 -0.0470984,0.069311 -0.0470984,0.113736 0,0.0444252 0.018,0.0846378 0.0470945,0.113732z"/>
  <path class="fil4" d="M3.41333 1.60903c-0.264531,0 -0.504366,0.116531 -0.678272,0.304929 -0.176122,0.190803 -0.285063,0.455075 -0.285063,0.747579 0,0.0432835 0.00216142,0.0845079 0.00635039,0.123606 0.00132677,0.0123858 0.00287795,0.0247953 0.00464173,0.0372205l1.90468 0c0.00176772,-0.012437 0.0033189,-0.0248543 0.00464961,-0.037248 0.00419291,-0.0390945 0.00635433,-0.0803071 0.00635433,-0.123579 0,-0.292504 -0.108945,-0.556776 -0.285067,-0.747579 -0.173906,-0.188398 -0.413744,-0.304929 -0.678276,-0.304929z"/>
  <path class="fil4" d="M2.55289 3.5138l0 -0.456673 -0.275449 0c-0.0137402,0 -0.026315,0.00570079 -0.0354882,0.014874 -0.00917323,0.00917323 -0.014874,0.021748 -0.014874,0.0354882l0 0.355949c0,0.0137362 0.00570079,0.0263071 0.014878,0.0354843 0.00917717,0.00917717 0.021748,0.014878 0.0354843,0.014878l0.275449 0z"/>
  <polygon class="fil4" points="2.76623,3.05713 2.76623,3.5138 3.0554,3.5138 3.0554,3.05713 "/>
  <polygon class="fil4" points="3.26874,3.05713 3.26874,3.5138 3.55791,3.5138 3.55791,3.05713 "/>
  <polygon class="fil4" points="3.77125,3.05713 3.77125,3.5138 4.06042,3.5138 4.06042,3.05713 "/>
  <path class="fil4" d="M4.27376 3.05713l0 0.456673 0.275469 0c0.0137362,0 0.026311,-0.00570079 0.0354882,-0.014878 0.00917717,-0.00917717 0.014878,-0.021748 0.014878,-0.0354843l0 -0.355949c0,-0.0137402 -0.00570079,-0.026315 -0.014874,-0.0354882 -0.00917717,-0.00917717 -0.021752,-0.014874 -0.0354921,-0.014874l-0.275469 0z"/>
  <path class="fil5" d="M4.50898 3.72714l-2.23154 0c-0.00768504,0 -0.0152913,-0.000330709 -0.022815,-0.000980315 -0.1,0.948476 0.14652,1.53931 0.513996,1.82623 0.20152,0.157343 0.440689,0.222752 0.677504,0.204831 0.23876,-0.0180748 0.475465,-0.120787 0.66978,-0.299433 0.361311,-0.332181 0.575587,-0.926177 0.393079,-1.73065zm-0.742795 0.469622c0,-0.082622 0.0669803,-0.149598 0.149602,-0.149598 0.082622,0 0.149602,0.0669764 0.149602,0.149598 0,0.082622 -0.0669803,0.149602 -0.149602,0.149602 -0.082622,0 -0.149602,-0.0669803 -0.149602,-0.149602zm-0.858933 0.69289c0.131646,0.117307 0.278811,0.172047 0.437862,0.172047 0.175024,0 0.367559,-0.0647677 0.572634,-0.184547l0.107504 0.184165c-0.237492,0.138717 -0.46587,0.21372 -0.680138,0.21372 -0.211598,0 -0.406437,-0.0719764 -0.579531,-0.22622l0.141669 -0.159165zm0.00361417 -0.842488c0.082626,0 0.149602,0.0669764 0.149602,0.149598 0,0.082622 -0.0669764,0.149602 -0.149602,0.149602 -0.082622,0 -0.149598,-0.0669803 -0.149598,-0.149602 0,-0.082622 0.0669764,-0.149598 0.149598,-0.149598z"/>
 </g>
</svg>
