<?xml version="1.0" encoding="UTF-8"?>
<!DOCTYPE svg PUBLIC "-//W3C//DTD SVG 1.1//EN" "http://www.w3.org/Graphics/SVG/1.1/DTD/svg11.dtd">
<!-- Creator: CorelDRAW -->
<svg xmlns="http://www.w3.org/2000/svg" xml:space="preserve" width="6.82666in" height="6.82666in" style="shape-rendering:geometricPrecision; text-rendering:geometricPrecision; image-rendering:optimizeQuality; fill-rule:evenodd; clip-rule:evenodd"
viewBox="0 0 6.82666 6.82666"
 xmlns:xlink="http://www.w3.org/1999/xlink">
 <defs>
  <style type="text/css">
   <![CDATA[
    .fil1 {fill:none}
    .fil2 {fill:#9DD5C0}
    .fil0 {fill:#333333;fill-rule:nonzero}
   ]]>
  </style>
 </defs>
 <g id="Layer_x0020_1">
  <metadata id="CorelCorpID_0Corel-Layer"/>
  <g id="_286483160">
   <polygon id="_286483208" class="fil0" points="1.65629,0.767783 1.65629,1.9291 1.48295,1.9291 1.48295,0.767783 "/>
   <polygon id="_286483736" class="fil0" points="2.17793,1.43511 0.961315,1.43511 0.961315,1.26177 2.17793,1.26177 "/>
   <polygon id="_286483544" class="fil0" points="2.04148,0.99913 1.22031,1.82031 1.09776,1.69776 1.91893,0.876579 "/>
   <polygon id="_286483592" class="fil0" points="1.91893,1.82031 1.09776,0.99913 1.22031,0.876579 2.04148,1.69776 "/>
  </g>
  <g id="_286483448">
   <rect id="_286483688" class="fil1" width="6.82666" height="6.82666"/>
   <rect id="_286483088" class="fil1" x="0.853331" y="0.853331" width="5.12" height="5.12"/>
  </g>
  <g id="_286482416">
   <path id="_286483472" class="fil0" d="M2.00979 4.52747l-0.00109449 -0.00270866c-0.00177559,-0.00452756 -0.00356693,-0.00979921 -0.00534252,-0.015811l0 -7.87402e-006c-0.157744,-0.532886 -0.0839488,-1.08038 0.162559,-1.5342 0.246433,-0.453681 0.665638,-0.813571 1.1988,-0.971394l7.87402e-006 0c0.532894,-0.157744 1.08039,-0.0839488 1.5342,0.162559 0.453685,0.246433 0.813571,0.665642 0.971394,1.1988 0.00270472,0.0091378 0.00473622,0.0191417 0.00612598,0.0298504 0.000307087,0.00237402 0.000566929,0.00473622 0.000783465,0.00708661 0.00192913,0.00598819 0.00345669,0.0108425 0.00448031,0.014311 0.0148661,0.0502244 0.00788189,0.101957 -0.0154764,0.14498 -0.0232717,0.042878 -0.0629331,0.076874 -0.113492,0.0918386 -0.0502598,0.014874 -0.10198,0.00785827 -0.144976,-0.0154961 -0.0428819,-0.0233031 -0.076874,-0.0629724 -0.0918307,-0.113484l0 -7.87402e-006c-0.0213661,-0.0721772 -0.069315,-0.128882 -0.129461,-0.162181 -0.0597913,-0.0331024 -0.131898,-0.0432087 -0.202028,-0.0224488l-7.87402e-006 0c-0.069748,0.0206417 -0.124535,0.0683228 -0.156677,0.128638 -0.0324055,0.0608189 -0.0417835,0.13465 -0.020374,0.206972l0 7.87402e-006c0.0148701,0.0502441 0.0078622,0.101976 -0.0154921,0.14498 -0.0232913,0.042874 -0.0629567,0.076878 -0.113469,0.0918307l-3.93701e-006 0 -7.87402e-006 3.93701e-006c-0.0502874,0.014878 -0.102004,0.00787008 -0.144992,-0.0155 -0.0428701,-0.0233031 -0.0768583,-0.0629724 -0.0918031,-0.113469l-3.93701e-006 -7.87402e-006m-2.63826 0.726331l0 -3.93701e-006m0.349228 -1.43253c-0.195429,0.359772 -0.269335,0.785654 -0.185118,1.21011 0.00905118,-0.0499449 0.0258346,-0.0979134 0.0494173,-0.142157 0.0581142,-0.109039 0.157524,-0.195331 0.284331,-0.232866 0.126551,-0.0374606 0.256843,-0.0191102 0.365024,0.0407874 0.0664488,0.0367953 0.124484,0.0893819 0.168047,0.154402 0.00118898,-0.0782362 0.021315,-0.154024 0.0571142,-0.221213 0.0580945,-0.109024 0.157453,-0.195295 0.284181,-0.232803l7.87402e-006 0c0.126354,-0.0374016 0.256547,-0.0190591 0.364681,0.0407953 0.0639567,0.0353976 0.120126,0.0852835 0.163114,0.146677 -0.000519685,-0.0818898 0.0197362,-0.161421 0.0570827,-0.231598 0.0580394,-0.109051 0.157378,-0.19537 0.284217,-0.232917l7.87402e-006 0c0.126559,-0.0374606 0.256843,-0.019063 0.365016,0.0408661 0.0693425,0.0384173 0.129524,0.0940315 0.173661,0.162988 0.00261024,-0.0748622 0.0225394,-0.147236 0.0568858,-0.211693 0.0580984,-0.109024 0.157457,-0.195295 0.284185,-0.232803l7.87402e-006 0c0.126335,-0.0373976 0.256441,-0.0190591 0.364528,0.0407795 0.0469055,0.0259685 0.089622,0.0597323 0.12602,0.100118 -0.159528,-0.406051 -0.455122,-0.726343 -0.81774,-0.923311 -0.40572,-0.220386 -0.895512,-0.286268 -1.37254,-0.145063l-7.87402e-006 0c-0.476756,0.141126 -0.851669,0.463047 -1.07212,0.868898zm1.07213 -0.868898l-3.93701e-006 0m-0.0599921 -0.204165l3.93701e-006 0m2.35538 1.46044l0 7.87402e-006m-0.204165 0.0599921l0 -3.93701e-006m-0.391488 -0.388795l3.93701e-006 0m0.0599921 0.204165l-3.93701e-006 0m-0.381217 0.395614l0 -7.87402e-006m0.204165 -0.0599921l0 3.93701e-006m-0.365776 0.107831l-0.00533465 -0.0180118c-0.021311,-0.0719961 -0.0694291,-0.12876 -0.129898,-0.16226 -0.0597362,-0.0330945 -0.131728,-0.0432441 -0.201689,-0.0225354l-7.87402e-006 0c-0.0697992,0.0206614 -0.124583,0.0683858 -0.156709,0.128752 -0.032374,0.0608386 -0.0417008,0.134689 -0.0202913,0.207024l0 7.87402e-006 0.00533465 0.0180118c0.0148701,0.050248 0.00782677,0.101972 -0.0155118,0.144965 -0.0232953,0.0428937 -0.0629882,0.0769173 -0.113445,0.0918543 -0.0502559,0.0148701 -0.101988,0.00787008 -0.144996,-0.0155 -0.0428819,-0.0232953 -0.076878,-0.0629724 -0.0918228,-0.11348 -0.0213543,-0.0721457 -0.069311,-0.128827 -0.129472,-0.162126 -0.0598386,-0.033122 -0.132016,-0.0432323 -0.202181,-0.0224646l-7.87402e-006 0c-0.069748,0.0206417 -0.124535,0.0683228 -0.156673,0.128638 -0.0324094,0.0608228 -0.0417835,0.134654 -0.020374,0.206972l0 3.93701e-006 3.93701e-006 7.87402e-006c0.0148622,0.050252 0.0078622,0.10198 -0.0155,0.14498 -0.0232835,0.042874 -0.0629567,0.076878 -0.113469,0.0918268l-0.00076378 -0.00259449 -1.1811e-005 3.93701e-006 0.00076378 0.00259449c-0.0502835,0.0148858 -0.102,0.00787402 -0.144988,-0.0154921 -0.0428819,-0.023311 -0.0768583,-0.0629803 -0.091811,-0.113484l0 -7.87402e-006c-0.0213071,-0.0719843 -0.0694016,-0.128697 -0.129846,-0.162165 -0.0597165,-0.033063 -0.131709,-0.0431732 -0.201693,-0.0224567 -0.0698346,0.0206693 -0.124673,0.0683701 -0.156827,0.128701 -0.0324213,0.0608268 -0.0417953,0.134646 -0.0203898,0.206961 0.014878,0.050248 0.0078622,0.101984 -0.0154921,0.144988 -0.0232795,0.042874 -0.0629488,0.076878 -0.113469,0.0918307l-7.87402e-006 0c-0.0502559,0.0148701 -0.101984,0.00786614 -0.144984,-0.0154961 -0.042878,-0.0233031 -0.076874,-0.0629764 -0.0918228,-0.11348l0 -7.87402e-006c-0.00108661,-0.00366535 -0.0030315,-0.0109331 -0.00576378,-0.0215197l-9.84252e-005 2.75591e-005c-0.000913386,-0.0035315 -0.00176772,-0.00693307 -0.00256693,-0.0102047m2.23489 -1.15183l3.93701e-006 0m0.0599921 0.204165l-3.93701e-006 0m-0.381165 0.39578l0 -7.87402e-006m0.204165 -0.0599921l0 3.93701e-006m-0.752094 -0.262906l3.93701e-006 0m0.0599921 0.204165l-3.93701e-006 0m-0.378618 0.394846l-0.00137008 0.000405512 -3.93701e-006 1.1811e-005 0.00137795 -0.000405512 -3.93701e-006 -1.1811e-005zm0.0399606 -0.0113937l0 7.87402e-006m-0.204165 0.0599921l0 -3.93701e-006m-0.69772 0.183693l7.87402e-006 0m0.0599921 0.204165l-3.93701e-006 0m-0.0326417 -0.18898l0 7.87402e-006m-0.204165 0.0599921l0 -3.93701e-006"/>
   <path id="_286483616" class="fil0" d="M4.05377 3.95705l0.506535 1.71119 7.87402e-006 -3.93701e-006c0.0136969,0.0462717 0.0475433,0.0880197 0.0898031,0.114248l0.000417323 0c0.0357559,0.0221929 0.0762756,0.0320709 0.11237,0.0213898 0.0411575,-0.0121811 0.0734961,-0.0399173 0.0924961,-0.0748937 0.0189291,-0.0348465 0.0245039,-0.077126 0.0122441,-0.118547l0.204165 -0.06c0.0287953,0.0972874 0.0153268,0.197256 -0.0297402,0.280217 -0.0449961,0.0828346 -0.121606,0.148512 -0.219165,0.17739 -0.0986063,0.029185 -0.200441,0.00768504 -0.284874,-0.0447205l0.00011811 -0.000188976c-0.0796929,-0.0495551 -0.144933,-0.128079 -0.176248,-0.217142l-0.000464567 0.000137795 -0.511831 -1.72907 0.204165 -0.06z"/>
  </g>
  <g id="_286482584">
   <polygon id="_286482968" class="fil0" points="3.9465,0.801807 3.9465,1.74978 3.77316,1.74978 3.77316,0.801807 "/>
   <polygon id="_286482872" class="fil0" points="4.35639,1.36246 3.36327,1.36246 3.36327,1.18913 4.35639,1.18913 "/>
   <polygon id="_286482728" class="fil0" points="4.25627,1.00191 3.58594,1.67223 3.46339,1.54968 4.13372,0.879358 "/>
   <polygon id="_286482488" class="fil0" points="4.13372,1.67223 3.46339,1.00191 3.58594,0.879358 4.25627,1.54968 "/>
  </g>
  <g id="_286482776">
   <polygon id="_286482656" class="fil0" points="1.43656,2.46535 1.43656,3.41333 1.26322,3.41333 1.26322,2.46535 "/>
   <polygon id="_286482560" class="fil0" points="1.84645,3.02601 0.853335,3.02601 0.853335,2.85267 1.84645,2.85267 "/>
   <polygon id="_286482848" class="fil0" points="1.74633,2.66545 1.07601,3.33578 0.953457,3.21322 1.62378,2.5429 "/>
   <polygon id="_286482320" class="fil0" points="1.62378,3.33578 0.953457,2.66545 1.07601,2.5429 1.74633,3.21322 "/>
  </g>
  <path class="fil2" d="M3.37559 3.65268l0 0zm0.869102 -0.277043l0 0zm0.879756 -0.240642l0 0zm-1.69974 -0.927476l0 0zm-1.07212 0.868898c-0.195429,0.359772 -0.269335,0.785654 -0.185118,1.21011 0.0582087,-0.321193 0.410079,-0.494091 0.698772,-0.334236 0.0664488,0.0367953 0.124484,0.0893819 0.168047,0.154402 0.00118898,-0.0782362 0.021315,-0.154024 0.0571142,-0.221213 0.0580945,-0.109024 0.157453,-0.195295 0.284189,-0.232803 0.126354,-0.0374016 0.256547,-0.0190591 0.364681,0.0407953 0.0639567,0.0353976 0.120126,0.0852835 0.163114,0.146677 -0.000519685,-0.0818898 0.0197362,-0.161421 0.0570827,-0.231598 0.0580394,-0.109051 0.157378,-0.19537 0.284224,-0.232917 0.126559,-0.0374606 0.256843,-0.019063 0.365016,0.0408661 0.0693425,0.0384173 0.129524,0.0940315 0.173661,0.162988 0.00261024,-0.0748622 0.0225394,-0.147236 0.0568858,-0.211693 0.0580984,-0.109024 0.157457,-0.195295 0.284193,-0.232803 0.126335,-0.0373976 0.256441,-0.0190591 0.364528,0.0407795 0.0469055,0.0259685 0.089622,0.0597323 0.12602,0.100118 -0.159528,-0.406051 -0.455122,-0.726343 -0.81774,-0.923311 -0.40572,-0.220386 -0.895512,-0.286268 -1.37255,-0.145063 -0.476756,0.141126 -0.851669,0.463047 -1.07212,0.868898z"/>
 </g>
</svg>
