<?xml version="1.0" encoding="UTF-8"?>
<!DOCTYPE svg PUBLIC "-//W3C//DTD SVG 1.1//EN" "http://www.w3.org/Graphics/SVG/1.1/DTD/svg11.dtd">
<!-- Creator: CorelDRAW -->
<svg xmlns="http://www.w3.org/2000/svg" xml:space="preserve" width="6.82666in" height="6.82666in" style="shape-rendering:geometricPrecision; text-rendering:geometricPrecision; image-rendering:optimizeQuality; fill-rule:evenodd; clip-rule:evenodd"
viewBox="0 0 6.82666 6.82666"
 xmlns:xlink="http://www.w3.org/1999/xlink">
 <defs>
  <style type="text/css">
   <![CDATA[
    .fil0 {fill:none}
    .fil2 {fill:#B38E85}
    .fil4 {fill:#F45A52}
    .fil3 {fill:#FFD3B3}
    .fil1 {fill:#333333;fill-rule:nonzero}
   ]]>
  </style>
 </defs>
 <g id="Layer_x0020_1">
  <metadata id="CorelCorpID_0Corel-Layer"/>
  <g id="_286485104">
   <rect id="_286485176" class="fil0" width="6.82666" height="6.82666"/>
   <rect id="_286484720" class="fil0" x="0.853331" y="0.853331" width="5.12" height="5.12"/>
  </g>
  <g id="_286484504">
   <path id="_286485056" class="fil1" d="M1.23659 2.18719l0.00769291 0 0.106669 0 0 0.106669 0 3.93701e-006c0,0.0625236 0.158433,0.133752 0.414571,0.198362 0.297917,0.0751496 0.71152,0.121634 1.17018,0.121634 0.458657,0 0.87226,-0.0464843 1.17018,-0.121634 0.256138,-0.0646102 0.414571,-0.135839 0.414571,-0.198362l0 -3.93701e-006 0.197504 -0.0554173c0.15685,0.256339 0.227098,0.632256 0.227098,1.01642 0,0.314862 -0.0468504,0.638067 -0.131476,0.90615 -0.0886969,0.28098 -0.221815,0.50622 -0.390787,0.609614 -0.0681378,0.041689 -0.141445,0.0643307 -0.219484,0.0643307l-2.5429 0c-0.0764094,0 -0.148528,-0.021748 -0.215886,-0.061878 -0.169587,-0.101043 -0.303547,-0.324579 -0.393028,-0.605008 -0.0853937,-0.267634 -0.13274,-0.590394 -0.13274,-0.90552 0,-0.383276 0.0700433,-0.760535 0.226587,-1.02327l0.0310354 -0.0520866 0.0602165 0zm0.477264 0.511705c-0.201894,-0.0509252 -0.360083,-0.118677 -0.459236,-0.199358 -0.0840787,0.213567 -0.122528,0.484803 -0.122528,0.763012 0,0.295673 0.0434803,0.595563 0.121906,0.841354 0.0743425,0.232996 0.177236,0.413709 0.299689,0.486669 0.0337913,0.0201299 0.0694724,0.0310433 0.10672,0.0310433l2.5429 0c0.0377205,0 0.0740591,-0.0115 0.10865,-0.0326614 0.121772,-0.0745118 0.224177,-0.257323 0.298291,-0.49211 0.078185,-0.247677 0.121469,-0.547996 0.121469,-0.841984 0,-0.275327 -0.0376378,-0.542543 -0.119795,-0.751409 -0.0994291,0.0789606 -0.255752,0.145343 -0.45437,0.195445 -0.314252,0.0792717 -0.74637,0.128303 -1.22185,0.128303 -0.475476,0 -0.907594,-0.0490315 -1.22185,-0.128303z"/>
   <path id="_286484768" class="fil1" d="M4.77533 2.5736l0.427921 0c0.193886,0 0.370079,0.0792441 0.49774,0.206909 0.127665,0.127661 0.206909,0.303854 0.206909,0.49774l0 3.93701e-006c0,0.193886 -0.0792441,0.370079 -0.206909,0.49774 -0.127661,0.127665 -0.303854,0.206909 -0.49774,0.206909l-0.433512 0 0 -0.213339 0.433512 0c0.135,0 0.257811,-0.0553071 0.346906,-0.144406 0.0890984,-0.0890945 0.144406,-0.211906 0.144406,-0.346906l0 -3.93701e-006c0,-0.135 -0.0553071,-0.257811 -0.144406,-0.346906 -0.0890945,-0.0890984 -0.211906,-0.144406 -0.346906,-0.144406l-0.427921 0 0 -0.213339z"/>
   <path id="_286484792" class="fil1" d="M2.92844 1.7997c0.474803,0 0.906634,0.0478701 1.22096,0.125264 0.356169,0.0876929 0.576465,0.227185 0.576465,0.397697 0,0.170508 -0.220295,0.310004 -0.576465,0.397697 -0.314331,0.0773937 -0.746161,0.125264 -1.22096,0.125264 -0.474803,0 -0.906634,-0.0478701 -1.22096,-0.125264 -0.356169,-0.0876929 -0.576465,-0.227189 -0.576465,-0.397697 0,-0.170512 0.220295,-0.310004 0.576465,-0.397697 0.314331,-0.0773937 0.746161,-0.125264 1.22096,-0.125264zm1.17013 0.331933c-0.297598,-0.0732717 -0.711157,-0.118594 -1.17013,-0.118594 -0.458972,0 -0.872531,0.0453228 -1.17013,0.118594 -0.25576,0.0629724 -0.413961,0.131626 -0.413961,0.191028 0,0.0594016 0.158201,0.128055 0.413961,0.191028 0.297598,0.0732717 0.711157,0.118594 1.17013,0.118594 0.458972,0 0.872531,-0.0453228 1.17013,-0.118594 0.25576,-0.0629724 0.413961,-0.131626 0.413961,-0.191028 0,-0.0594016 -0.158201,-0.128055 -0.413961,-0.191028z"/>
   <polygon id="_286485296" class="fil1" points="0.923504,4.96052 4.94031,4.96052 4.94031,5.17385 0.923504,5.17385 "/>
   <path id="_286484888" class="fil1" d="M1.80918 2.5916c0.465657,-0.920843 0.883244,-1.04276 1.21452,-0.875232 0.331106,0.167433 0.545697,0.639016 0.639756,0.845732 0.0041378,0.00909449 -0.0327323,0.0191417 -0.0564213,0.0256654l-0.0153898 0.00700394c0.00308268,5.51181e-005 0.00823622,-0.000169291 0.0160039,-0.000716535 0.0248465,-0.00179921 0.0198031,0.0184213 0.00297638,0.0421417l0.00342126 0.0485039 0.109421 -0.00772441c0.0058937,0.0829488 -0.027622,0.124287 -0.100819,0.129583 -0.0798031,0.00563386 -0.107913,-0.0562598 -0.153358,-0.156126 -0.0847047,-0.186157 -0.277945,-0.610831 -0.541425,-0.744063 -0.229043,-0.115827 -0.537657,0.00781102 -0.928681,0.781067l-0.19 -0.0958346zm1.79785 -0.00383465c-0.0149921,0.00412598 -0.024685,0.00683858 -0.0153898,0.00700394l0.0153898 -0.00700394zm0.00359055 0.0484291c-0.0129016,0.018185 -0.0327283,0.0384134 -0.0513189,0.0523661l0.0547402 -0.0038622 -0.00342126 -0.0485039z"/>
   <path id="_286484744" class="fil1" d="M2.34055 2.2423c0.132209,-0.0632559 0.275469,-0.0266063 0.441421,0.0158504 0.237,0.0606339 0.532205,0.136157 0.826654,-0.147622l0.147504 0.153331c-0.380142,0.366366 -0.738752,0.274618 -1.02666,0.200961 -0.126496,-0.0323622 -0.235701,-0.0602992 -0.297248,-0.0308504l-0.0916693 -0.191669z"/>
   <path id="_286483928" class="fil2" d="M2.34055 2.2423c0.132209,-0.0632559 0.275469,-0.0266063 0.441421,0.0158504 0.150433,0.0384882 0.324319,0.0829724 0.506575,0.0377638 -0.0954803,-0.159213 -0.217748,-0.317264 -0.360685,-0.389543 -0.0944724,-0.0477756 -0.20248,-0.054811 -0.324224,0.00767323 -0.155366,0.0797402 -0.333102,0.272697 -0.533622,0.638685 0.251189,0.0387717 0.547606,0.0611299 0.865693,0.0611299 0.17735,0 0.347969,-0.00694882 0.507764,-0.0198189 -0.0142874,-0.0308937 -0.0305512,-0.0653661 -0.0486929,-0.102047 -0.243937,0.0806299 -0.470764,0.0225984 -0.665311,-0.0271732 -0.126496,-0.0323622 -0.235701,-0.0602992 -0.297248,-0.0308504l-0.0916693 -0.191669z"/>
   <path id="_286484000" class="fil3" d="M3.75613 2.26386c-0.0569528,0.0548858 -0.113417,0.0994921 -0.16924,0.135417 0.0309764,0.0626378 0.0565079,0.118752 0.076563,0.162827 0.00164961,0.00362992 -0.00322441,0.00740945 -0.011189,0.0110551 0.169543,-0.020437 0.322744,-0.0479213 0.453622,-0.0809331 0.222382,-0.0560945 0.371114,-0.117181 0.406457,-0.173224 -0.00632283,-0.0585512 -0.16324,-0.125685 -0.413764,-0.187366 -0.19948,-0.0491142 -0.451059,-0.0856693 -0.733492,-0.104437 0.0440591,0.0594016 0.0840394,0.121437 0.119921,0.182461 0.0411142,-0.0266772 0.082374,-0.059378 0.123618,-0.0991299l0.147504 0.153331z"/>
   <path id="_286483880" class="fil3" d="M1.85028 2.51215c0.0966024,-0.182469 0.191063,-0.33078 0.283031,-0.449567 -0.138528,0.0185906 -0.264724,0.0419055 -0.374996,0.0690551 -0.224134,0.055185 -0.373343,0.114732 -0.406819,0.168594 0.0102756,0.0609646 0.166547,0.129567 0.414031,0.191996 0.0272992,0.00688583 0.0555669,0.0135315 0.084752,0.0199213z"/>
   <path id="_286484216" class="fil4" d="M2.92844 2.84562c-0.474803,0 -0.906634,-0.0478701 -1.22096,-0.125264 -0.20361,-0.0501299 -0.362819,-0.117193 -0.46185,-0.197299 -0.0778307,0.20978 -0.113535,0.471398 -0.113535,0.739488 0,0.295673 0.0434803,0.595563 0.121906,0.841354 0.0743425,0.232996 0.177236,0.413709 0.299689,0.486669 0.0337913,0.0201299 0.0694724,0.0310433 0.10672,0.0310433l2.5429 0c0.0377205,0 0.0740591,-0.0115 0.10865,-0.0326614 0.121772,-0.0745118 0.224177,-0.257323 0.298291,-0.49211 0.078185,-0.247677 0.121469,-0.547996 0.121469,-0.841984 0,-0.269008 -0.0359291,-0.530276 -0.114209,-0.736937 -0.0985157,0.082378 -0.26015,0.151236 -0.468098,0.202437 -0.314331,0.0773937 -0.746161,0.125264 -1.22096,0.125264z"/>
  </g>
 </g>
</svg>
