<?xml version="1.0" encoding="UTF-8"?>
<!DOCTYPE svg PUBLIC "-//W3C//DTD SVG 1.1//EN" "http://www.w3.org/Graphics/SVG/1.1/DTD/svg11.dtd">
<!-- Creator: CorelDRAW -->
<svg xmlns="http://www.w3.org/2000/svg" xml:space="preserve" width="6.82666in" height="6.82666in" style="shape-rendering:geometricPrecision; text-rendering:geometricPrecision; image-rendering:optimizeQuality; fill-rule:evenodd; clip-rule:evenodd"
viewBox="0 0 6.82666 6.82666"
 xmlns:xlink="http://www.w3.org/1999/xlink">
 <defs>
  <style type="text/css">
   <![CDATA[
    .fil0 {fill:none}
    .fil4 {fill:#333333}
    .fil6 {fill:#AED581}
    .fil5 {fill:#EBE5DF}
    .fil2 {fill:#FFFFFE}
    .fil1 {fill:#333333;fill-rule:nonzero}
    .fil3 {fill:#FFFFFE;fill-rule:nonzero}
   ]]>
  </style>
 </defs>
 <g id="Layer_x0020_1">
  <metadata id="CorelCorpID_0Corel-Layer"/>
  <g id="_286488440">
   <rect id="_286489040" class="fil0" width="6.82666" height="6.82666"/>
   <rect id="_286489136" class="fil0" x="0.853331" y="0.853331" width="5.12" height="5.12"/>
  </g>
  <path class="fil1" d="M2.16222 2.06213c0.147437,0.570496 0.294854,1.12426 0.469555,1.66148 0.173618,0.53389 0.373343,1.04841 0.625465,1.54128l0.0792913 0.155004 -0.173874 0 -2.14342 0 -0.17578 0 0.0811969 -0.155835c0.502654,-0.964701 0.727709,-1.91763 0.950106,-2.85934 0.0179449,-0.0759961 0.0360197,-0.152516 0.0812087,-0.3405l0.0996535 -0.414555 0.106598 0.412472zm0.267051 1.72731c-0.132953,-0.408839 -0.250724,-0.829488 -0.364917,-1.26059 -0.208047,0.880173 -0.424787,1.77022 -0.871634,2.6777l1.79805 0c-0.222693,-0.457854 -0.403209,-0.930366 -0.561496,-1.41711z"/>
  <polygon class="fil1" points="2.16598,5.31322 2.16598,6.026 1.95264,6.026 1.95264,5.31322 "/>
  <circle class="fil2" cx="1.56927" cy="4.86773" r="0.133647"/>
  <circle class="fil2" cx="2.28205" cy="4.37769" r="0.133647"/>
  <circle class="fil2" cx="2.5939" cy="4.94837" r="0.133647"/>
  <circle class="fil2" cx="2.04602" cy="3.42855" r="0.133647"/>
  <polygon class="fil3" points="5.15231,3.55581 4.83772,3.55581 4.83772,3.34247 5.15231,3.34247 "/>
  <polygon class="fil3" points="4.21175,4.20002 3.89715,4.20002 3.89715,3.98668 4.21175,3.98668 "/>
  <path class="fil1" d="M4.70791 1.25724c0.162634,0.690531 0.325012,1.36004 0.515815,2.00389 0.190406,0.642512 0.410189,1.26329 0.688776,1.86091l0.0707008 0.151669 -0.167366 0 -2.35385 0 -0.168465 0 0.0722126 -0.152087c0.55328,-1.1652 0.80087,-2.31563 1.04554,-3.4525 0.0319882,-0.14865 0.0639055,-0.296957 0.0887165,-0.410217l0.100382 -0.458244 0.107535 0.456579zm0.31165 2.06389c-0.15052,-0.507902 -0.282575,-1.02729 -0.410528,-1.55871 -0.233331,1.0839 -0.473264,2.18012 -0.980252,3.29796l2.02115 0c-0.250205,-0.559484 -0.452709,-1.13976 -0.630366,-1.73924z"/>
  <polygon class="fil1" points="4.71083,5.16704 4.71083,6.026 4.49749,6.026 4.49749,5.16704 "/>
  <ellipse class="fil2" cx="4.06602" cy="4.6302" rx="0.146767" ry="0.161053"/>
  <ellipse class="fil2" cx="4.84878" cy="4.03967" rx="0.146767" ry="0.161053"/>
  <ellipse class="fil2" cx="5.19123" cy="4.72739" rx="0.146767" ry="0.161053"/>
  <ellipse class="fil2" cx="4.58958" cy="2.8959" rx="0.146767" ry="0.161053"/>
  <ellipse class="fil2" cx="3.16521" cy="2.17646" rx="0.0813657" ry="0.0892856"/>
  <path class="fil1" d="M3.3236 1.43098c0.0898071,0.381339 0.167949,0.708008 0.261941,1.02104 0.0932677,0.310634 0.202768,0.609472 0.356161,0.938531l0.0707008 0.151669 -0.167366 0 -1.30494 0 -0.168465 0 0.0722126 -0.152087c0.171543,-0.361272 0.301283,-0.675925 0.407201,-0.987469 0.10565,-0.310764 0.187902,-0.619697 0.264642,-0.970024l0.100386 -0.458252 0.107531 0.456587zm0.0577756 1.08188c-0.0578543,-0.192685 -0.109575,-0.389433 -0.161457,-0.599933 -0.0499528,0.190472 -0.104508,0.373638 -0.167209,0.558075 -0.0933543,0.274594 -0.204567,0.551118 -0.345339,0.857886l0.97239 0c-0.122854,-0.280189 -0.216543,-0.543461 -0.298386,-0.816028z"/>
  <polygon class="fil1" points="3.27997,3.43556 3.27997,3.91174 3.06663,3.91174 3.06663,3.43556 "/>
  <ellipse class="fil2" cx="2.87496" cy="3.13794" rx="0.0813657" ry="0.0892856"/>
  <ellipse class="fil2" cx="3.30891" cy="2.81056" rx="0.0813657" ry="0.0892856"/>
  <ellipse class="fil2" cx="3.49876" cy="3.19181" rx="0.0813657" ry="0.0892856"/>
  <path class="fil1" d="M1.38274 1.01266c0.116598,0 0.222181,0.0472717 0.298606,0.123701 0.0764252,0.0764252 0.123697,0.182008 0.123697,0.298606 0,0.116598 -0.0472756,0.222177 -0.123701,0.298602 -0.0764252,0.0764252 -0.182004,0.123701 -0.298602,0.123701 -0.116598,0 -0.222185,-0.0472717 -0.29861,-0.123697 -0.0764252,-0.0764291 -0.123701,-0.182008 -0.123701,-0.298606 0,-0.116606 0.0472756,-0.222185 0.123701,-0.298606 0.0764213,-0.0764252 0.182,-0.123701 0.29861,-0.123701zm0.147772 0.274535c-0.0378031,-0.0378071 -0.0900551,-0.0611969 -0.147772,-0.0611969 -0.0577205,0 -0.109972,0.0233898 -0.147776,0.0611969 -0.0378071,0.0378031 -0.0611969,0.0900551 -0.0611969,0.147772 0,0.0577126 0.0233898,0.109961 0.0611969,0.147772 0.0378071,0.0378071 0.0900591,0.0611929 0.147776,0.0611929 0.0577126,0 0.109961,-0.0233898 0.147768,-0.0611969 0.0378071,-0.0378071 0.0611969,-0.0900551 0.0611969,-0.147768 0,-0.0577165 -0.0233858,-0.109965 -0.0611929,-0.147772z"/>
  <circle class="fil4" cx="1.3632" cy="2.4473" r="0.157816"/>
  <circle class="fil4" cx="1.22492" cy="3.12264" r="0.157816"/>
  <circle class="fil4" cx="2.48748" cy="1.54444" r="0.157816"/>
  <path class="fil1" d="M5.38085 1.06953c0.116606,0 0.222185,0.0472756 0.298606,0.123701 0.0764252,0.0764213 0.123701,0.182 0.123701,0.298606 0,0.116598 -0.0472717,0.222181 -0.123701,0.298606 -0.0764252,0.0764252 -0.182008,0.123701 -0.298606,0.123701 -0.116598,0 -0.222181,-0.0472756 -0.29861,-0.123701 -0.0764252,-0.0764252 -0.123701,-0.182008 -0.123701,-0.298606 0,-0.116598 0.0472756,-0.222181 0.123701,-0.298606 0.0764291,-0.0764252 0.182012,-0.123701 0.29861,-0.123701zm0.147772 0.274535c-0.0378031,-0.0378071 -0.0900551,-0.0611969 -0.147772,-0.0611969 -0.0577165,0 -0.109965,0.0233898 -0.147776,0.0611969 -0.0378071,0.0378071 -0.0611969,0.0900551 -0.0611969,0.147772 0,0.0577165 0.0233898,0.109965 0.0611969,0.147772 0.037811,0.0378071 0.0900591,0.0611969 0.147776,0.0611969 0.0577165,0 0.109965,-0.0233898 0.147772,-0.0611969 0.0378071,-0.0378031 0.0611969,-0.0900551 0.0611969,-0.147772 0,-0.0577165 -0.0233898,-0.109969 -0.0611969,-0.147772z"/>
  <circle class="fil4" cx="5.38086" cy="2.59658" r="0.157816"/>
  <path class="fil5" d="M1.53051 1.58274c0.0378071,-0.0378071 0.0611969,-0.0900551 0.0611969,-0.147768 0,-0.0577165 -0.0233858,-0.109965 -0.0611929,-0.147772 -0.0378031,-0.0378071 -0.0900551,-0.0611969 -0.147772,-0.0611969 -0.0577205,0 -0.109972,0.0233898 -0.147776,0.0611969 -0.0378071,0.0378031 -0.0611969,0.0900551 -0.0611969,0.147772 0,0.0577126 0.0233898,0.109961 0.0611969,0.147772 0.0378071,0.0378071 0.0900591,0.0611929 0.147776,0.0611929 0.0577126,0 0.109961,-0.0233898 0.147768,-0.0611969z"/>
  <path class="fil5" d="M5.17188 1.49184c0,0.0577165 0.0233898,0.109965 0.0611969,0.147772 0.037811,0.0378071 0.0900591,0.0611969 0.147776,0.0611969 0.0577165,0 0.109965,-0.0233898 0.147772,-0.0611969 0.0378071,-0.0378031 0.0611969,-0.0900551 0.0611969,-0.147772 0,-0.0577165 -0.0233898,-0.109969 -0.0611969,-0.147772 -0.0378031,-0.0378071 -0.0900551,-0.0611969 -0.147772,-0.0611969 -0.0577165,0 -0.109965,0.0233898 -0.147776,0.0611969 -0.0378071,0.0378071 -0.0611969,0.0900551 -0.0611969,0.147772z"/>
  <path class="fil6" d="M2.42653 3.78098c-0.131831,-0.406181 -0.248764,-0.824 -0.362169,-1.25213 -0.139547,0.59037 -0.283004,1.18518 -0.497185,1.78671l0.134799 0 0 0.213339 -0.213724 0c-0.0864291,0.22487 -0.18378,0.450717 -0.295524,0.67765l1.79805 0c-0.191319,-0.39335 -0.351508,-0.79752 -0.493217,-1.21223l-0.225575 0 0 -0.213339 0.154547 0zm-0.380504 -0.486079c0.073811,0 0.133646,0.0598346 0.133646,0.13365 0,0.073811 -0.0598346,0.133646 -0.133646,0.133646 -0.073811,0 -0.133646,-0.0598346 -0.133646,-0.133646 0,-0.073815 0.0598346,-0.13365 0.133646,-0.13365zm-0.476756 1.43918c0.073815,0 0.13365,0.0598346 0.13365,0.133646 0,0.073815 -0.0598346,0.13365 -0.13365,0.13365 -0.073811,0 -0.133646,-0.0598346 -0.133646,-0.13365 0,-0.073811 0.0598346,-0.133646 0.133646,-0.133646zm1.02463 0.0806457c0.073811,0 0.133646,0.0598346 0.133646,0.133646 0,0.073811 -0.0598346,0.13365 -0.133646,0.13365 -0.073815,0 -0.13365,-0.0598386 -0.13365,-0.13365 0,-0.073811 0.0598346,-0.133646 0.13365,-0.133646zm-0.311846 -0.570685c0.073811,0 0.13365,0.0598346 0.13365,0.133646 0,0.073811 -0.0598386,0.13365 -0.13365,0.13365 -0.073811,0 -0.133646,-0.0598386 -0.133646,-0.13365 0,-0.073811 0.0598346,-0.133646 0.133646,-0.133646z"/>
  <path class="fil6" d="M4.60904 1.76242c-0.158177,0.734791 -0.319394,1.47525 -0.564783,2.22426l0.167496 0 0 0.213339 -0.239654 0c-0.0996654,0.285453 -0.212614,0.572185 -0.343311,0.860354l2.02115 0c-0.217417,-0.486169 -0.398815,-0.988035 -0.559193,-1.50456l-0.25302 0 0 -0.213339 0.188185 0c-0.00211811,-0.00711024 -0.00422835,-0.0142244 -0.00633858,-0.0213425 -0.15052,-0.507902 -0.282575,-1.02729 -0.410528,-1.55871zm-0.166228 1.13348c0,-0.0889488 0.0657087,-0.161055 0.146768,-0.161055 0.0810591,0 0.146768,0.0721063 0.146768,0.161055 0,0.0889449 -0.0657087,0.161051 -0.146768,0.161051 -0.0810591,0 -0.146768,-0.0721063 -0.146768,-0.161051zm-0.376791 1.57325c0.0810591,0 0.146768,0.0721063 0.146768,0.161055 0,0.0889488 -0.0657087,0.161051 -0.146768,0.161051 -0.0810591,0 -0.146768,-0.0721024 -0.146768,-0.161051 0,-0.0889488 0.0657087,-0.161055 0.146768,-0.161055zm1.12522 0.097185c0.0810551,0 0.146764,0.0721063 0.146764,0.161051 0,0.0889488 -0.0657087,0.161055 -0.146764,0.161055 -0.0810591,0 -0.146768,-0.0721063 -0.146768,-0.161055 0,-0.0889449 0.0657087,-0.161051 0.146768,-0.161051zm-0.342461 -0.687713c0.0810591,0 0.146768,0.0721063 0.146768,0.161051 0,0.0889488 -0.0657087,0.161055 -0.146768,0.161055 -0.0810591,0 -0.146768,-0.0721063 -0.146768,-0.161055 0,-0.0889449 0.0657087,-0.161051 0.146768,-0.161051z"/>
  <path class="fil6" d="M3.67976 3.32889c-0.122854,-0.280189 -0.216543,-0.543461 -0.298386,-0.816028 -0.0578543,-0.192685 -0.109575,-0.389433 -0.161457,-0.599933 -0.0154213,0.0588071 -0.0312835,0.116913 -0.047685,0.174579 0.0416535,0.00390945 0.0743425,0.0422402 0.0743425,0.0889567 0,0.049311 -0.0364252,0.0892874 -0.0813661,0.0892874 -0.0153425,0 -0.0296929,-0.00466142 -0.0419409,-0.0127598 -0.0223976,0.0728228 -0.0458465,0.145319 -0.0705591,0.218012 -0.0663858,0.195268 -0.141803,0.391512 -0.230457,0.598913 0.0141969,-0.0132598 0.0325984,-0.0212598 0.0527047,-0.0212598 0.044937,0 0.0813661,0.0399724 0.0813661,0.0892835 0,0.049311 -0.0364291,0.0892874 -0.0813661,0.0892874 -0.044937,0 -0.0813661,-0.0399764 -0.0813661,-0.0892874 0,-0.000559055 3.93701e-006,-0.00111811 1.5748e-005,-0.00167323 -0.0274764,0.0630118 -0.0561811,0.12713 -0.0862362,0.192622l0.97239 0zm-0.452217 -0.518331c0,-0.049311 0.0364291,-0.0892835 0.0813661,-0.0892835 0.044937,0 0.0813661,0.0399724 0.0813661,0.0892835 0,0.049311 -0.0364291,0.0892874 -0.0813661,0.0892874 -0.044937,0 -0.0813661,-0.0399764 -0.0813661,-0.0892874zm0.27122 0.291972c0.044937,0 0.0813622,0.0399764 0.0813622,0.0892874 0,0.049311 -0.0364252,0.0892835 -0.0813622,0.0892835 -0.0449409,0 -0.0813661,-0.0399724 -0.0813661,-0.0892835 0,-0.049311 0.0364252,-0.0892874 0.0813661,-0.0892874z"/>
  <path class="fil3" d="M1.70197 4.5289l-0.215906 0 0.0802087 -0.213339 0.135697 0c0.088811,0.0739331 0.086189,0.144961 0,0.213339z"/>
  <path class="fil3" d="M2.49752 3.99431l-0.225535 0c-0.0699291,-0.0673661 -0.0856457,-0.137634 0,-0.213339l0.156783 0 0.068752 0.213339z"/>
 </g>
</svg>
