<?xml version="1.0" encoding="UTF-8"?>
<!DOCTYPE svg PUBLIC "-//W3C//DTD SVG 1.1//EN" "http://www.w3.org/Graphics/SVG/1.1/DTD/svg11.dtd">
<!-- Creator: CorelDRAW -->
<svg xmlns="http://www.w3.org/2000/svg" xml:space="preserve" width="6.82666in" height="6.82666in" style="shape-rendering:geometricPrecision; text-rendering:geometricPrecision; image-rendering:optimizeQuality; fill-rule:evenodd; clip-rule:evenodd"
viewBox="0 0 6.82666 6.82666"
 xmlns:xlink="http://www.w3.org/1999/xlink">
 <defs>
  <style type="text/css">
   <![CDATA[
    .fil0 {fill:none}
    .fil2 {fill:#F19A7B}
    .fil1 {fill:#333333;fill-rule:nonzero}
   ]]>
  </style>
 </defs>
 <g id="Layer_x0020_1">
  <metadata id="CorelCorpID_0Corel-Layer"/>
  <g id="_286489256">
   <rect id="_286489376" class="fil0" x="-0.106661" width="6.82666" height="6.82666"/>
   <rect id="_286489496" class="fil0" x="0.746669" y="0.853331" width="5.12" height="5.12"/>
  </g>
  <g id="_286489784">
   <path id="_286489808" class="fil1" d="M1.1817 4.7558c-0.0589094,0 -0.106669,0.0477598 -0.106669,0.106669 0,0.0589094 0.0477598,0.106669 0.106669,0.106669l4.00181 0c0.252051,0 0.423551,-0.098437 0.502882,-0.217161 0.0370472,-0.0554488 0.0553465,-0.116063 0.0542402,-0.175787 -0.00116535,-0.0630236 -0.0232165,-0.12326 -0.0668307,-0.174252 -0.0804173,-0.0940276 -0.236894,-0.154957 -0.470189,-0.127331 -0.0584488,0.00690157 -0.100236,0.0598858 -0.0933346,0.118335 0.00690157,0.0584488 0.0598858,0.100236 0.118335,0.0933346 0.153256,-0.0181496 0.245043,0.00900394 0.28352,0.0539921 0.0104685,0.0122362 0.015748,0.0257795 0.0159961,0.039252 0.000307087,0.0167756 -0.00590157,0.0354094 -0.0184055,0.054126 -0.044622,0.0667795 -0.153902,0.122154 -0.326213,0.122154l-4.00181 0z"/>
   <polygon id="_286489304" class="fil1" points="2.74394,4.08999 2.44513,4.89913 2.24513,4.8258 2.54394,4.01666 "/>
   <polygon id="_286489712" class="fil1" points="3.85453,4.01666 4.15333,4.8258 3.95333,4.89913 3.65453,4.08999 "/>
   <path id="_286489280" class="fil1" d="M1.18305 1.53794c0.345177,0.0178937 0.540783,0.236008 0.719626,0.435433 0.137445,0.153256 0.262571,0.292772 0.428571,0.267874 1.26697,-0.190047 1.51429,0.141244 1.56467,0.477177 0.0110157,0.0734685 0.0108504,0.146654 0.0106969,0.21372 -0.000208661,0.0910197 -0.000374016,0.161972 0.0392126,0.161598l1.58502 -0.0149764 0.122091 -0.00115354 -0.0158386 0.121157 -0.115362 0.88228 -0.0121496 0.0929173 -0.0932677 0 -3.70842 0 -0.0857441 0 -0.0184213 -0.0841693 -0.530272 -2.42311 -0.0297559 -0.135976 0.139339 0.00722441zm0.561295 0.577102c-0.120394,-0.134252 -0.249835,-0.278551 -0.428484,-0.337693l0.477787 2.18328 3.52941 0 0.0873701 -0.668205 -1.46293 0.0138228c-0.254252,0.00240157 -0.253874,-0.16252 -0.253386,-0.374102 0.000133858,-0.0577874 0.000275591,-0.120846 -0.00902756,-0.182886 -0.0350787,-0.233886 -0.238193,-0.459898 -1.323,-0.297177 -0.278059,0.0417087 -0.439929,-0.13878 -0.617736,-0.337039z"/>
   <polygon id="_286489184" class="fil1" points="3.33058,4.0673 3.33058,4.86247 3.11724,4.86247 3.11724,4.0673 "/>
  </g>
  <path class="fil2" d="M1.79365 3.96063l3.52941 0 0.0873701 -0.668205 -1.46293 0.0138228c-0.254252,0.00240157 -0.253874,-0.16252 -0.253386,-0.374102 0.000133858,-0.0577874 0.000275591,-0.120846 -0.00902756,-0.182886 -0.0350787,-0.233886 -0.238193,-0.459898 -1.323,-0.297177 -0.278059,0.0417087 -0.439929,-0.13878 -0.617736,-0.337039 -0.120394,-0.134252 -0.249835,-0.278551 -0.428484,-0.337693l0.477787 2.18328z"/>
 </g>
</svg>
