<?xml version="1.0" encoding="UTF-8"?>
<!DOCTYPE svg PUBLIC "-//W3C//DTD SVG 1.1//EN" "http://www.w3.org/Graphics/SVG/1.1/DTD/svg11.dtd">
<!-- Creator: CorelDRAW -->
<svg xmlns="http://www.w3.org/2000/svg" xml:space="preserve" width="6.82666in" height="6.82666in" style="shape-rendering:geometricPrecision; text-rendering:geometricPrecision; image-rendering:optimizeQuality; fill-rule:evenodd; clip-rule:evenodd"
viewBox="0 0 6.82666 6.82666"
 xmlns:xlink="http://www.w3.org/1999/xlink">
 <defs>
  <style type="text/css">
   <![CDATA[
    .fil0 {fill:none}
    .fil2 {fill:#FECA5F}
    .fil3 {fill:#FFD3B3}
    .fil1 {fill:#333333;fill-rule:nonzero}
   ]]>
  </style>
 </defs>
 <g id="Layer_x0020_1">
  <metadata id="CorelCorpID_0Corel-Layer"/>
  <g id="_430796400">
   <rect id="_430796880" class="fil0" width="6.82666" height="6.82666"/>
   <rect id="_430796448" class="fil0" x="0.853331" y="0.853331" width="5.12" height="5.12"/>
  </g>
  <g id="_430796160">
   <path id="_430796112" class="fil1" d="M3.51208 0.920835l0.538976 1.35439 1.47892 0.110626 0.262673 0.0196496 -0.202673 0.168268 -1.12188 0.931425 0.351839 1.4409 0.0624094 0.255602 -0.222409 -0.140602 -1.2327 -0.77928 -1.26134 0.779697 -0.224236 0.13861 0.0650669 -0.25528 0.360169 -1.41303 -1.13104 -0.958457 -0.201173 -0.170476 0.26326 -0.0170276 1.45491 -0.0940906 0.56215 -1.37217 0.0997205 -0.243413 0.0973661 0.244665zm0.366201 1.49486l-0.466339 -1.17186 -0.487638 1.1903 -0.0252087 0.0615394 -0.0664606 0.00429528 -1.25811 0.0813622 0.980839 0.831177 0.0509764 0.0431929 -0.0163937 0.064311 -0.311488 1.22205 1.09365 -0.676035 0.0565433 -0.0349567 0.0559567 0.035374 1.06624 0.674047 -0.30511 -1.24953 -0.015689 -0.0642402 0.0511063 -0.0424252 0.970307 -0.805587 -1.28235 -0.0959213 -0.0661063 -0.00494094 -0.0247283 -0.0621457z"/>
   <polygon id="_430796592" class="fil1" points="3.79335,4.37743 3.79335,5.86667 3.79335,5.97333 3.68668,5.97333 3.13998,5.97333 3.03331,5.97333 3.03331,5.86667 3.03331,4.37743 3.24665,4.37743 3.24665,5.76 3.58001,5.76 3.58001,4.37743 "/>
  </g>
  <polygon class="fil2" points="2.27846,4.74206 3.37211,4.06602 3.42865,4.03106 3.48461,4.06644 4.55085,4.74048 4.24574,3.49095 4.23005,3.42671 4.28116,3.38429 5.25146,2.5787 3.96912,2.48278 3.90301,2.47784 3.87828,2.41569 3.41194,1.24383 2.92431,2.43413 2.8991,2.49567 2.83264,2.49996 1.57453,2.58132 2.55537,3.4125 2.60635,3.45569 2.58995,3.52 "/>
  <polygon class="fil3" points="3.24665,4.39344 3.24665,5.76 3.58001,5.76 3.58001,4.37839 3.42723,4.28181 "/>
 </g>
</svg>
