<?xml version="1.0" encoding="UTF-8"?>
<!DOCTYPE svg PUBLIC "-//W3C//DTD SVG 1.1//EN" "http://www.w3.org/Graphics/SVG/1.1/DTD/svg11.dtd">
<!-- Creator: CorelDRAW -->
<svg xmlns="http://www.w3.org/2000/svg" xml:space="preserve" width="6.82666in" height="6.82666in" style="shape-rendering:geometricPrecision; text-rendering:geometricPrecision; image-rendering:optimizeQuality; fill-rule:evenodd; clip-rule:evenodd"
viewBox="0 0 6.82666 6.82666"
 xmlns:xlink="http://www.w3.org/1999/xlink">
 <defs>
  <style type="text/css">
   <![CDATA[
    .fil0 {fill:none}
    .fil2 {fill:#F45A52}
    .fil4 {fill:#FECA5F}
    .fil3 {fill:#333333;fill-rule:nonzero}
    .fil1 {fill:#FECA5F;fill-rule:nonzero}
   ]]>
  </style>
 </defs>
 <g id="Layer_x0020_1">
  <metadata id="CorelCorpID_0Corel-Layer"/>
  <g id="_430791336">
   <rect id="_430791144" class="fil0" width="6.82666" height="6.82666"/>
   <rect id="_430790640" class="fil0" x="0.853331" y="0.853331" width="5.12" height="5.12"/>
  </g>
  <path class="fil1" d="M5.2348 2.88642c-0.0468622,0.0743898 -0.108228,0.122319 -0.17461,0.147579 -0.0647441,0.0246457 -0.133681,0.0273661 -0.198429,0.0118268 -0.0635906,-0.0152598 -0.122921,-0.0482283 -0.169815,-0.095315 -0.0548346,-0.0550551 -0.0931457,-0.12935 -0.102051,-0.217181l-0.000322835 3.14961e-005c-0.00259843,-0.0257756 0.00421654,-0.0503268 0.0176457,-0.0702559l0.249886 -0.439697 0.0925 0.0525 -0.0927362 -0.0527047c0.00161024,-0.00283071 0.00333465,-0.00555118 0.00515354,-0.00817717 0.0872087,-0.157543 0.0593661,-0.307366 -0.0236772,-0.413882 -0.0331102,-0.0424685 -0.075378,-0.0787677 -0.123071,-0.106642 -0.0472126,-0.0275906 -0.0988583,-0.0462323 -0.15124,-0.0536811 -0.128287,-0.0182598 -0.265173,0.032437 -0.354323,0.186744l0.000216535 0.000125984c-0.00120472,0.00208268 -0.00247244,0.00411024 -0.00379134,0.00607874l-2.2951 4.04889 0.000267717 0.000149606c-0.0140551,0.0247913 -0.0365433,0.0418031 -0.0618228,0.0494685 -0.145122,0.0523425 -0.268705,0.0557362 -0.367339,0.00252362 -0.102453,-0.0552835 -0.167059,-0.163984 -0.188579,-0.333425l-0.000409449 5.11811e-005c-0.00350394,-0.0275906 0.00387795,-0.0540591 0.0187835,-0.0750945l2.32888 -4.03374 0.0920827 0.0529173 -0.092378 -0.0533346c0.00140551,-0.00243307 0.0028937,-0.00479134 0.00445669,-0.00707087 0.254079,-0.434185 0.660807,-0.592386 1.03866,-0.549992 0.173783,0.0194961 0.341295,0.0818386 0.48478,0.179591 0.144067,0.0981496 0.264165,0.232173 0.34248,0.394634 0.171354,0.355453 0.142669,0.842398 -0.276091,1.37708z"/>
  <polygon class="fil2" points="3.73333,1.49333 4.26667,1.6 3.91326,2.0685 3.45071,2.05019 "/>
  <path class="fil3" d="M5.2348 2.88642c-0.0468622,0.0743898 -0.108228,0.122319 -0.17461,0.147579 -0.0647441,0.0246457 -0.133681,0.0273661 -0.198429,0.0118268 -0.0635906,-0.0152598 -0.122921,-0.0482283 -0.169815,-0.095315 -0.0548346,-0.0550551 -0.0931457,-0.12935 -0.102051,-0.217181l-0.000322835 3.14961e-005c-0.00259843,-0.0257756 0.00421654,-0.0503268 0.0176457,-0.0702559l0.249886 -0.439697 0.0925 0.0525 -0.0927362 -0.0527047c0.00161024,-0.00283071 0.00333465,-0.00555118 0.00515354,-0.00817717 0.0872087,-0.157543 0.0593661,-0.307366 -0.0236772,-0.413882 -0.0331102,-0.0424685 -0.075378,-0.0787677 -0.123071,-0.106642 -0.0472126,-0.0275906 -0.0988583,-0.0462323 -0.15124,-0.0536811 -0.128287,-0.0182598 -0.265173,0.032437 -0.354323,0.186744l0.000216535 0.000125984c-0.00120472,0.00208268 -0.00247244,0.00411024 -0.00379134,0.00607874l-2.2951 4.04889 0.000267717 0.000149606c-0.0140551,0.0247913 -0.0365433,0.0418031 -0.0618228,0.0494685 -0.145122,0.0523425 -0.268705,0.0557362 -0.367339,0.00252362 -0.102453,-0.0552835 -0.167059,-0.163984 -0.188579,-0.333425l-0.000409449 5.11811e-005c-0.00350394,-0.0275906 0.00387795,-0.0540591 0.0187835,-0.0750945l2.32888 -4.03374 0.0920827 0.0529173 -0.092378 -0.0533346c0.00140551,-0.00243307 0.0028937,-0.00479134 0.00445669,-0.00707087 0.254079,-0.434185 0.660807,-0.592386 1.03866,-0.549992 0.173783,0.0194961 0.341295,0.0818386 0.48478,0.179591 0.144067,0.0981496 0.264165,0.232173 0.34248,0.394634 0.171354,0.355453 0.142669,0.842398 -0.276091,1.37708zm-0.250445 -0.0515866c0.0252874,-0.00962205 0.0493858,-0.0286732 0.0691142,-0.0588071 0.00325197,-0.00666142 0.00724803,-0.0130906 0.0120118,-0.0191614l0.0839055 0.0658622 -0.083752 -0.0658346c0.361394,-0.460406 0.392807,-0.866248 0.253587,-1.15505 -0.061563,-0.127709 -0.156551,-0.233461 -0.270811,-0.311303 -0.114846,-0.0782402 -0.248957,-0.128146 -0.38811,-0.143756 -0.300902,-0.0337598 -0.626272,0.0947835 -0.831957,0.446346 -0.00096063,0.0019252 -0.00198031,0.00383071 -0.00307087,0.00571654l-0.000220472 -0.000125984 -7.48031e-005 0.000125984 -0.000181102 -0.000106299 -2.31516 4.00998c0.0137795,0.0747126 0.038622,0.119854 0.0733346,0.138583 0.0363937,0.0196339 0.0914921,0.0171102 0.163075,-0.00494882l2.275 -4.01343c0.00125984,-0.00266142 0.00262598,-0.00529921 0.00412598,-0.0078937l0.092374 0.0533346 -0.0920827 -0.0533346c0.139736,-0.24202 0.360059,-0.320713 0.568563,-0.291035 0.0804961,0.0114488 0.158567,0.0393386 0.228744,0.0803504 0.0697008,0.0407323 0.132535,0.0951535 0.183071,0.159972 0.132043,0.16937 0.177516,0.405134 0.0410827,0.649248 -0.00137402,0.00305906 -0.00290157,0.00607874 -0.00459055,0.00905512l-0.000267717 -0.000149606 -0.234689 0.412953c0.00711811,0.0232087 0.0195512,0.043185 0.0353976,0.0590945 0.0191575,0.0192402 0.0429646,0.0326024 0.0681457,0.0386457 0.0240118,0.00576378 0.0495315,0.00477559 0.0734291,-0.00432283z"/>
  <polygon class="fil3" points="1.6103,5.1153 2.1466,5.1153 2.1466,5.32863 1.6103,5.32863 "/>
  <polygon class="fil3" points="1.91703,4.58667 2.45333,4.58667 2.45333,4.8 1.91703,4.8 "/>
  <polygon class="fil3" points="2.22377,4.05804 2.76007,4.05804 2.76007,4.27137 2.22377,4.27137 "/>
  <polygon class="fil3" points="2.5305,3.52941 3.06681,3.52941 3.06681,3.74274 2.5305,3.74274 "/>
  <polygon class="fil3" points="2.83724,3.00078 3.37354,3.00078 3.37354,3.21411 2.83724,3.21411 "/>
  <polygon class="fil3" points="3.14398,2.47215 3.68028,2.47215 3.68028,2.68548 3.14398,2.68548 "/>
  <polygon class="fil3" points="3.45071,1.94352 3.98702,1.94352 3.98702,2.15685 3.45071,2.15685 "/>
  <polygon class="fil3" points="3.7732,1.41089 4.51547,1.43478 4.30198,1.64122 3.76596,1.62358 "/>
  <path class="fil4" d="M1.98056 5.32863l-0.309217 0 -0.161705 0.280079c0.0137795,0.0747126 0.038622,0.119854 0.0733346,0.138583 0.0363937,0.0196339 0.0914921,0.0171102 0.163075,-0.00494882l0.234512 -0.413713z"/>
  <polygon class="fil2" points="1.79452,5.1153 2.10149,5.1153 2.28022,4.8 1.97655,4.8 "/>
  <polygon class="fil4" points="2.09972,4.58667 2.40115,4.58667 2.57987,4.27137 2.28175,4.27137 "/>
  <polygon class="fil2" points="2.40493,4.05804 2.7008,4.05804 2.87952,3.74274 2.58696,3.74274 "/>
  <polygon class="fil4" points="2.71013,3.52941 3.00045,3.52941 3.17917,3.21411 2.89216,3.21411 "/>
  <polygon class="fil2" points="3.01533,3.00078 3.3001,3.00078 3.47883,2.68548 3.19737,2.68548 "/>
  <polygon class="fil4" points="3.32054,2.47215 3.59976,2.47215 3.77848,2.15685 3.50257,2.15685 "/>
 </g>
</svg>
