<?xml version="1.0" encoding="UTF-8"?>
<!DOCTYPE svg PUBLIC "-//W3C//DTD SVG 1.1//EN" "http://www.w3.org/Graphics/SVG/1.1/DTD/svg11.dtd">
<!-- Creator: CorelDRAW -->
<svg xmlns="http://www.w3.org/2000/svg" xml:space="preserve" width="6.82666in" height="6.82666in" style="shape-rendering:geometricPrecision; text-rendering:geometricPrecision; image-rendering:optimizeQuality; fill-rule:evenodd; clip-rule:evenodd"
viewBox="0 0 6.82666 6.82666"
 xmlns:xlink="http://www.w3.org/1999/xlink">
 <defs>
  <style type="text/css">
   <![CDATA[
    .fil0 {fill:none}
    .fil3 {fill:#EBE5DF}
    .fil2 {fill:#F45A52}
    .fil4 {fill:#FFD3B3}
    .fil1 {fill:#333333;fill-rule:nonzero}
   ]]>
  </style>
 </defs>
 <g id="Layer_x0020_1">
  <metadata id="CorelCorpID_0Corel-Layer"/>
  <g id="_430792680">
   <rect id="_430792824" class="fil0" width="6.82666" height="6.82666"/>
   <rect id="_430792584" class="fil0" x="0.853331" y="0.853331" width="5.12" height="5.12"/>
  </g>
  <g id="_430791432">
   <path id="_430792656" class="fil1" d="M5.24295 5.34592c-0.018374,-0.593201 -0.060063,-1.09277 -0.112224,-1.50835 -0.068189,-0.54324 -0.153673,-0.936193 -0.228,-1.20583 -0.0687913,-0.24952 -0.134972,-0.42263 -0.185693,-0.535902 -0.0484488,-0.108185 -0.0808031,-0.157618 -0.0872008,-0.167008l-0.00208268 -0.00374803c-0.00548031,-0.00874409 -0.0327441,-0.0497008 -0.0937126,-0.102299 -0.0631378,-0.0544724 -0.158902,-0.116894 -0.295579,-0.158657l-0.132492 -0.0404843 0.0729094 -0.117433c0.0139724,-0.0225039 0.0279173,-0.0502283 0.037185,-0.081622 0.00704331,-0.0238504 0.0115709,-0.0498504 0.011622,-0.0772677l-1.1811e-005 0c-0.00470866,-0.120622 -0.221768,-0.208193 -0.493134,-0.252587 -0.124343,-0.0203425 -0.258417,-0.0299173 -0.39026,-0.0282953 -0.131169,0.00161024 -0.260437,0.0143307 -0.375917,0.0385787 -0.215366,0.0452165 -0.374902,0.125106 -0.374358,0.238134l0 0.00125197c-0.000279528,0.0284528 0.00431102,0.0554055 0.0115827,0.0800591 0.00946457,0.0320866 0.0233543,0.0598504 0.0371339,0.0821102l0.0724882 0.117094 -0.132071 0.0404055c-0.0962402,0.0294449 -0.172626,0.0695 -0.23174,0.109902 -0.104933,0.0717165 -0.150008,0.13928 -0.157417,0.15111l-0.00208268 0.00374803c-0.00840551,0.0122835 -0.0612638,0.0932087 -0.13574,0.283504 -0.0417047,0.106563 -0.089,0.244681 -0.137169,0.419406 -0.0743268,0.269634 -0.159807,0.662587 -0.227992,1.20582 -0.0521063,0.415142 -0.0937638,0.914106 -0.112165,1.50649l0.000326772 0 0 0.405244c0,0.0278307 0.0170866,-0.0327402 0.0398228,-0.0268307 0.0886339,0.0230433 0.210441,0.0333819 0.272417,0.0364764l0.122161 -0.355488 0.00166929 -0.00416929 0.0430591 -0.144469 0.205835 0.00666535 0.0500591 0.221138 2.19332 0 0.0501024 -0.221138 0.205835 -0.00666535c0.000122047,0.000417323 0.043815,0.146331 0.0438976,0.146555l0.000834646 0.00208268 0.122472 0.356421c0.281579,-0.00201575 0.316862,-0.0317992 0.316862,-0.141232 0,-0.0382323 -0.000822835,-0.0638071 -0.00173228,-0.0921063 -0.00166535,-0.051748 -0.00356693,-0.110819 -0.0028189,-0.180618zm0.0994449 -1.53418c0.0523622,0.417193 0.0943386,0.92285 0.113091,1.5294l0 0.00416929c-0.000755906,0.0644528 0.00113386,0.123193 0.0027874,0.174563 0.00134646,0.0419331 0.00256693,0.0797953 0.00256693,0.0987756 0,0.284933 -0.0610866,0.354689 -0.563004,0.354689 -0.035185,0 -0.0689409,-0.0113425 -0.0968898,-0.0313228 -0.0276496,-0.0197756 -0.0494252,-0.0478976 -0.0611102,-0.0817717l-0.000129921 4.33071e-005 -0.0745748 -0.217028c-0.00532677,0.00561417 -0.0110354,0.0108543 -0.0170787,0.015685 -0.0291614,0.023315 -0.0655472,0.0370197 -0.104051,0.0370197l-2.26629 0c-0.0388701,0 -0.0752126,-0.0135472 -0.104055,-0.0365827l0 -0.000417323c-0.00604331,-0.00482677 -0.011748,-0.0100669 -0.0170748,-0.0156811l-0.0745709 0.217004c-0.0115945,0.0336969 -0.0334488,0.0618307 -0.0612677,0.0817205 -0.0279409,0.0199803 -0.0617008,0.0313307 -0.0968465,0.0313307 -0.0410591,0 -0.227,-0.0109094 -0.358248,-0.0450315 -0.114094,-0.0296614 -0.199831,-0.0839173 -0.199831,-0.179004l0 -0.405244 0.000417323 -0.00291732c0.018752,-0.606551 0.0607283,-1.11221 0.113091,-1.52941 0.069378,-0.55276 0.157622,-0.957173 0.234661,-1.23666 0.0508189,-0.184339 0.100343,-0.329094 0.143839,-0.44024 0.0828976,-0.211811 0.147839,-0.310811 0.158236,-0.326l0.000216535 0.000149606c0.0163386,-0.0251811 0.0836417,-0.12098 0.215118,-0.210843 0.0487165,-0.0332953 0.106945,-0.0664331 0.175677,-0.0957441 -0.00197244,-0.00587795 -0.0038622,-0.0118583 -0.00565354,-0.0179331 -0.0125315,-0.0424882 -0.0204331,-0.0899803 -0.0199213,-0.141728l1.1811e-005 0c-0.000311024,-0.235315 0.231102,-0.380457 0.54352,-0.446047 0.127965,-0.0268661 0.271272,-0.0409646 0.416744,-0.042752 0.144807,-0.00178346 0.291488,0.00864173 0.426929,0.0307992 0.367067,0.0600512 0.662012,0.212839 0.671472,0.455083l0 0.00291732c0.000511811,0.0518071 -0.0073937,0.0993386 -0.0199488,0.141854 -0.00179134,0.00607087 -0.0036811,0.0120433 -0.00564173,0.0179094 0.112488,0.0480394 0.197362,0.106602 0.258618,0.159453 0.0770394,0.0664606 0.119638,0.127591 0.132248,0.147031l0.000216535 -0.000149606c0.00815354,0.0119685 0.0491024,0.0743307 0.105531,0.200339 0.0541457,0.120921 0.124441,0.304429 0.196528,0.565902 0.0770394,0.279484 0.165287,0.683898 0.234669,1.23667z"/>
   <polygon id="_430792128" class="fil1" points="3.51752,2.02444 3.51752,5.58929 3.30419,5.58929 3.30419,2.02444 "/>
   <path id="_430792488" class="fil1" d="M3.30666 5.24914l0 -1.09923 0 -0.106669 0.106669 0 0.521535 0 0.094126 0 0.0117087 0.093752c0.0178346,0.142823 0.0557362,0.278437 0.0987756,0.396437 0.0746772,0.204748 0.16402,0.356307 0.193177,0.403339l0.016252 0.0558346 0 0.256539 0 0.106669 -0.106669 0 -0.828906 0 -0.106669 0 0 -0.106669zm0.213339 -0.992563l0 0.885894 0.615567 0 0 -0.120866c-0.0420157,-0.070811 -0.125547,-0.22226 -0.196091,-0.415673 -0.0386063,-0.105846 -0.0735039,-0.224311 -0.0960906,-0.349354l-0.323386 0z"/>
   <path id="_430791552" class="fil1" d="M3.30666 5.14247l0 -0.885894 -0.323386 0c-0.0225866,0.125043 -0.0574843,0.243508 -0.0960906,0.349354 -0.0705433,0.193413 -0.154075,0.344862 -0.196091,0.415673l0 0.120866 0.615567 0zm0.213339 -0.992563l0 1.09923 0 0.106669 -0.106669 0 -0.828906 0 -0.106669 0 0 -0.106669 0 -0.256539 0.016252 -0.0558346c0.0291575,-0.0470315 0.1185,-0.198591 0.193177,-0.403339 0.0430394,-0.118 0.0809409,-0.253614 0.0987756,-0.396437l0.0117087 -0.093752 0.094126 0 0.521535 0 0.106669 0 0 0.106669z"/>
   <path id="_430791888" class="fil1" d="M4.56396 5.37575c0.00920079,0.0579882 0.0636772,0.0975354 0.121665,0.0883346 0.0579882,-0.00920079 0.0975354,-0.0636772 0.0883346,-0.121665l-0.418083 -2.63638c-0.00920079,-0.0579882 -0.0636772,-0.0975354 -0.121665,-0.0883346 -0.0579882,0.00920079 -0.0975354,0.0636772 -0.0883346,0.121665l0.418083 2.63638z"/>
   <path id="_430791576" class="fil1" d="M2.0346 5.34242c-0.00920079,0.0579882 0.0303465,0.112465 0.0883346,0.121665 0.0579882,0.00920079 0.112465,-0.0303465 0.121665,-0.0883346l0.418079 -2.63638c0.00920079,-0.0579882 -0.0303465,-0.112465 -0.0883346,-0.121665 -0.0579882,-0.00920079 -0.112465,0.0303465 -0.121665,0.0883346l-0.418079 2.63638z"/>
   <path id="_430791456" class="fil1" d="M4.32291 1.66674c-0.0798937,0.12826 -0.224547,0.260028 -0.400476,0.353185 -0.152358,0.0806732 -0.330228,0.13365 -0.512413,0.131882 -0.173236,-0.00167323 -0.347551,-0.0536102 -0.500531,-0.134055 -0.166783,-0.0877047 -0.310528,-0.210543 -0.401469,-0.339917l0.174165 -0.122504c0.072311,0.10287 0.189165,0.201886 0.326469,0.274091 0.125476,0.0659843 0.266142,0.108559 0.403035,0.109882 0.144012,0.0013937 0.28722,-0.0418622 0.411579,-0.107709 0.142358,-0.075378 0.257358,-0.178709 0.318807,-0.277358l0.180835 0.112504z"/>
  </g>
  <path class="fil2" d="M4.30866 1.68865c-0.0821929,0.121217 -0.220299,0.243421 -0.386224,0.33128 -0.122205,0.0647047 -0.260819,0.111594 -0.404909,0.126709l0 1.8966 0.00247244 0 0.414866 0 0.094126 0 0.0117087 0.093752c0.0178346,0.142823 0.0557362,0.278437 0.0987756,0.396437 0.0746772,0.204748 0.16402,0.356307 0.193177,0.403339l0.016252 0.0558346 0 0.256539 0 0.106669 -0.106669 0 -0.722236 0 -0.00247244 0 0 0.126815 0.989972 0 0.0431811 -0.190598 -0.404803 -2.55265c-0.00920079,-0.0579882 0.0303465,-0.112465 0.0883346,-0.121665 0.0579882,-0.00920079 0.112465,0.0303465 0.121665,0.0883346l0.404209 2.54889 0.00335039 -0.000110236 0.0438976 0.146555 0.000834646 0.00208268 0.122472 0.356421c0.281579,-0.00201575 0.316862,-0.0317992 0.316862,-0.141232 0,-0.0382323 -0.000822835,-0.0638071 -0.00173228,-0.0921063 -0.00166535,-0.051748 -0.00356693,-0.110819 -0.0028189,-0.180618 -0.018374,-0.593201 -0.060063,-1.09277 -0.112224,-1.50835 -0.068189,-0.54324 -0.153673,-0.936193 -0.228,-1.20583 -0.0687913,-0.24952 -0.134972,-0.42263 -0.185693,-0.535902 -0.0484488,-0.108185 -0.0808031,-0.157618 -0.0872008,-0.167008l-0.00208268 -0.00374803c-0.00548031,-0.00874409 -0.0327441,-0.0497008 -0.0937126,-0.102299 -0.0517165,-0.0446181 -0.125327,-0.0945709 -0.225378,-0.134138z"/>
  <path class="fil2" d="M3.30419 4.04324l0 -1.89852c-0.137547,-0.0169213 -0.272886,-0.0629016 -0.394697,-0.126957 -0.1625,-0.0854528 -0.30313,-0.204256 -0.394358,-0.329965 -0.0650748,0.025626 -0.119287,0.0558071 -0.163736,0.086185 -0.104933,0.0717165 -0.150008,0.13928 -0.157417,0.15111l-0.00208268 0.00374803c-0.00840551,0.0122835 -0.0612638,0.0932087 -0.13574,0.283504 -0.0417047,0.106563 -0.089,0.244681 -0.137169,0.419406 -0.0743268,0.269634 -0.159807,0.662587 -0.227992,1.20582 -0.0521063,0.415142 -0.0937638,0.914106 -0.112165,1.50649l0.000326772 0 0 0.405244c0,0.0278307 0.0170866,-0.0327402 0.0398228,-0.0268307 0.0886339,0.0230433 0.210441,0.0333819 0.272417,0.0364764l0.122161 -0.355488 0.00166929 -0.00416929 0.0221378 -0.0742795 0.415319 -2.61897c0.00920079,-0.0579882 0.0636772,-0.0975354 0.121665,-0.0883346 0.0579882,0.00920079 0.0975354,0.0636772 0.0883346,0.121665l-0.399953 2.52207 0.00138976 4.33071e-005 0.0500591 0.221138 0.990008 0 0 -0.126815 -0.719764 0 -0.106669 0 0 -0.106669 0 -0.256539 0.016252 -0.0558346c0.0291575,-0.0470315 0.1185,-0.198591 0.193177,-0.403339 0.0430394,-0.118 0.0809409,-0.253614 0.0987756,-0.396437l0.0117087 -0.093752 0.094126 0 0.412394 0z"/>
  <path class="fil3" d="M4.22768 1.34732l0 0zm-0.815992 0.591984c0.144012,0.0013937 0.28722,-0.0418622 0.411579,-0.107709 0.142358,-0.075378 0.257358,-0.178709 0.318807,-0.277358l0.00503543 0.00313386 0.0317638 -0.0511614c0.0139724,-0.0225039 0.0279173,-0.0502283 0.037185,-0.081622 0.00704331,-0.0238504 0.0115709,-0.0498504 0.0116102,-0.0772677 -0.00470866,-0.120622 -0.221768,-0.208193 -0.493134,-0.252587 -0.124343,-0.0203425 -0.258417,-0.0299173 -0.39026,-0.0282953 -0.131169,0.00161024 -0.260437,0.0143307 -0.375917,0.0385787 -0.215366,0.0452165 -0.374902,0.125106 -0.374358,0.238134l0 0.00125197c-0.000279528,0.0284528 0.00431102,0.0554055 0.0115827,0.0800591 0.00946457,0.0320866 0.0233543,0.0598504 0.0371339,0.0821102l0.033 0.0533071 0.0064685 -0.00454724c0.072311,0.10287 0.189165,0.201886 0.326469,0.274091 0.125476,0.0659843 0.266142,0.108559 0.403035,0.109882z"/>
  <path class="fil4" d="M3.84338 4.25657l-0.323386 0 0 0.885894 0.615567 0 0 -0.120866c-0.0420157,-0.070811 -0.125547,-0.22226 -0.196091,-0.415673 -0.0386063,-0.105846 -0.0735039,-0.224311 -0.0960906,-0.349354z"/>
  <path class="fil4" d="M3.30419 5.14247l0 -0.885894 -0.320913 0c-0.0225866,0.125043 -0.0574843,0.243508 -0.0960906,0.349354 -0.0705433,0.193413 -0.154075,0.344862 -0.196091,0.415673l0 0.120866 0.613094 0z"/>
 </g>
</svg>
