<?xml version="1.0" encoding="UTF-8"?>
<!DOCTYPE svg PUBLIC "-//W3C//DTD SVG 1.1//EN" "http://www.w3.org/Graphics/SVG/1.1/DTD/svg11.dtd">
<!-- Creator: CorelDRAW -->
<svg xmlns="http://www.w3.org/2000/svg" xml:space="preserve" width="6.82666in" height="6.82666in" style="shape-rendering:geometricPrecision; text-rendering:geometricPrecision; image-rendering:optimizeQuality; fill-rule:evenodd; clip-rule:evenodd"
viewBox="0 0 6.82666 6.82666"
 xmlns:xlink="http://www.w3.org/1999/xlink">
 <defs>
  <style type="text/css">
   <![CDATA[
    .fil0 {fill:none}
    .fil4 {fill:#F19A7B}
    .fil2 {fill:#F39CC3}
    .fil3 {fill:#FFD3B3}
    .fil1 {fill:#333333;fill-rule:nonzero}
   ]]>
  </style>
 </defs>
 <g id="Layer_x0020_1">
  <metadata id="CorelCorpID_0Corel-Layer"/>
  <g id="_430794528">
   <rect id="_430795416" class="fil0" width="6.82666" height="6.82666"/>
   <rect id="_430794576" class="fil0" x="0.853331" y="0.853331" width="5.12" height="5.12"/>
  </g>
  <path class="fil1" d="M3.41333 1.49949c0.351772,0 0.669906,0.154102 0.899878,0.40324 0.227756,0.246736 0.36863,0.586933 0.36863,0.962087 0,0.0518622 -0.00294094,0.104504 -0.00864173,0.157665 -0.00575197,0.0536654 -0.0141535,0.105484 -0.0250118,0.155291l-0.0183543 0.0841693 -0.085811 0 -2.26138 0 -0.085811 0 -0.0183543 -0.0841693c-0.0108583,-0.049811 -0.0192559,-0.101622 -0.0250118,-0.155295 -0.00569685,-0.0531614 -0.0086378,-0.105803 -0.0086378,-0.157661 0,-0.375154 0.140874,-0.71535 0.36863,-0.962087 0.229972,-0.249138 0.548106,-0.40324 0.899878,-0.40324zm0.743209 0.547406c-0.190524,-0.206398 -0.453315,-0.334067 -0.743209,-0.334067 -0.289894,0 -0.552685,0.127669 -0.743209,0.334067 -0.192744,0.208803 -0.311961,0.497945 -0.311961,0.817921 0,0.0471969 0.00237008,0.0922717 0.0069685,0.135157 0.00173622,0.016189 0.00381496,0.0324016 0.00622441,0.0486299l2.08395 0c0.00241339,-0.0162244 0.00448819,-0.032437 0.00622441,-0.048626 0.00460236,-0.0428937 0.00697244,-0.0879724 0.00697244,-0.135161 0,-0.319976 -0.119217,-0.609118 -0.311961,-0.817921z"/>
  <path class="fil1" d="M3.41333 0.910579c0.10965,0 0.208933,0.0444567 0.280803,0.116327 0.0718701,0.0718701 0.116327,0.171154 0.116327,0.280803 0,0.10965 -0.0444567,0.208933 -0.116327,0.280803 -0.0718701,0.0718622 -0.171154,0.116323 -0.280803,0.116323 -0.10965,0 -0.208933,-0.0444606 -0.280803,-0.116323 -0.0718701,-0.0718701 -0.116327,-0.171154 -0.116327,-0.280803 0,-0.10965 0.0444567,-0.208933 0.116327,-0.280803 0.0718701,-0.0718701 0.171154,-0.116327 0.280803,-0.116327zm0.129969 0.267161c-0.033252,-0.033252 -0.0792087,-0.0538228 -0.129969,-0.0538228 -0.0507598,0 -0.0967165,0.0205709 -0.129969,0.0538228 -0.033252,0.033252 -0.0538228,0.0792087 -0.0538228,0.129969 0,0.0507598 0.0205709,0.0967165 0.0538228,0.129969 0.033248,0.033248 0.0792126,0.0538189 0.129969,0.0538189 0.0507559,0 0.0967205,-0.0205709 0.129969,-0.0538189 0.033252,-0.033252 0.0538228,-0.0792087 0.0538228,-0.129969 0,-0.0507598 -0.0205709,-0.0967165 -0.0538228,-0.129969z"/>
  <path class="fil1" d="M2.17995 3.07187l2.46676 0c0.0763307,0 0.145654,0.0311535 0.195839,0.0813386 0.050185,0.050185 0.0813386,0.119508 0.0813386,0.195839l0 0.386504c0,0.0763307 -0.0311535,0.145654 -0.0813386,0.195839 -0.050185,0.050185 -0.119508,0.0813386 -0.195839,0.0813386l-2.46676 0c-0.0763307,0 -0.145654,-0.0311535 -0.195839,-0.0813386 -0.050185,-0.050185 -0.0813386,-0.119508 -0.0813386,-0.195839l0 -0.386504c0,-0.0763307 0.0311535,-0.145657 0.0813386,-0.195839 0.050185,-0.050185 0.119508,-0.0813386 0.195839,-0.0813386zm2.46676 0.213339l-2.46676 0c-0.0174449,0 -0.0333858,0.00721654 -0.0450039,0.0188346 -0.0116181,0.0116181 -0.0188346,0.0275591 -0.0188346,0.0450039l0 0.386504c0,0.0174449 0.00721654,0.0333858 0.0188346,0.0450039 0.0116181,0.0116181 0.0275591,0.0188346 0.0450039,0.0188346l2.46676 0c0.0174449,0 0.0333858,-0.00721654 0.0450039,-0.0188346 0.0116181,-0.0116181 0.0188346,-0.0275591 0.0188346,-0.0450039l0 -0.386504c0,-0.0174449 -0.00721654,-0.0333858 -0.0188346,-0.0450039 -0.0116181,-0.0116181 -0.0275591,-0.0188346 -0.0450039,-0.0188346z"/>
  <polygon class="fil1" points="2.70154,3.26947 2.70154,3.90606 2.4882,3.90606 2.4882,3.26947 "/>
  <polygon class="fil1" points="3.24718,3.26947 3.24718,3.90606 3.03384,3.90606 3.03384,3.26947 "/>
  <polygon class="fil1" points="3.79281,3.26947 3.79281,3.90606 3.57947,3.90606 3.57947,3.26947 "/>
  <polygon class="fil1" points="4.33844,3.26947 4.33844,3.90606 4.12511,3.90606 4.12511,3.26947 "/>
  <path class="fil1" d="M5.41283 5.25106l-0.47337 0.61422 -0.0447953 0.058122 -0.0702047 -0.0214567c-0.548854,-0.167748 -1.06504,-0.372217 -1.53181,-0.632197 -0.470217,-0.261902 -0.890276,-0.57974 -1.24315,-0.972437l-0.159878 -0.177921 0.239043 0 1.28 0 0.0441654 0 0.031252 0.031252c0.330638,0.330638 0.635642,0.421882 0.960126,0.518949 0.289059,0.0864685 0.592567,0.177264 0.946122,0.429803l0.0898976 0.0642087 -0.0673976 0.0874567zm-0.59674 0.425882l0.359461 -0.466417c-0.287185,-0.185697 -0.545268,-0.262909 -0.792177,-0.336768 -0.341295,-0.102094 -0.662697,-0.198268 -1.01828,-0.541028l-0.987232 0c0.299189,0.294669 0.641752,0.541559 1.01812,0.751185 0.43337,0.241382 0.911591,0.433768 1.42011,0.593028z"/>
  <path class="fil1" d="M4.98546 5.61235c-0.0413189,-0.0237441 -0.0940709,-0.00949606 -0.117815,0.0318228 -0.0237441,0.0413189 -0.00949606,0.0940709 0.0318228,0.117815l0.211736 0.122244c0.0413189,0.0237441 0.0940709,0.00949606 0.117815,-0.0318228 0.0237441,-0.0413189 0.00949606,-0.0940709 -0.0318228,-0.117815l-0.211736 -0.122244z"/>
  <path class="fil1" d="M5.15993 5.43151c-0.0413189,-0.0237441 -0.0940709,-0.00949606 -0.117815,0.0318228 -0.0237441,0.0413189 -0.00949606,0.0940709 0.0318228,0.117815l0.211736 0.122244c0.0413189,0.0237441 0.0940709,0.00949606 0.117815,-0.0318228 0.0237441,-0.0413189 0.00949606,-0.0940709 -0.0318228,-0.117815l-0.211736 -0.122244z"/>
  <path class="fil1" d="M5.33439 5.25066c-0.0413189,-0.0237441 -0.0940709,-0.00949606 -0.117815,0.0318228 -0.0237441,0.0413189 -0.00949606,0.0940709 0.0318228,0.117815l0.211736 0.122244c0.0413189,0.0237441 0.0940709,0.00949606 0.117815,-0.0318228 0.0237441,-0.0413189 0.00949606,-0.0940709 -0.0318228,-0.117815l-0.211736 -0.122244z"/>
  <path class="fil1" d="M1.65111 5.21052l0.359461 0.466417c0.228906,-0.0717087 0.452492,-0.1505 0.669606,-0.23787 0.174705,-0.0703071 0.344646,-0.146098 0.509126,-0.228146 -0.0812283,-0.0474173 -0.16063,-0.0964528 -0.238094,-0.147205 -0.115823,-0.0758819 -0.228594,-0.156457 -0.338059,-0.242102 -0.0588189,0.0188976 -0.114035,0.0354173 -0.169819,0.0521024 -0.246929,0.0738701 -0.505016,0.151091 -0.79222,0.336803zm0.236091 0.654756l-0.47337 -0.61422 -0.0673976 -0.0874528 0.0898976 -0.0642126c0.353579,-0.252555 0.657091,-0.343358 0.946165,-0.429839 0.0764488,-0.0228661 0.151894,-0.0454409 0.218165,-0.0676535l0.0550669 -0.0184606 0.0453504 0.036378c0.116331,0.0933071 0.238776,0.181697 0.366799,0.265571 0.128122,0.0839409 0.260209,0.16226 0.395874,0.235465l0.17374 0.093752 -0.17374 0.093752c-0.224067,0.120906 -0.459496,0.229654 -0.704409,0.328217 -0.24263,0.0976417 -0.495697,0.185465 -0.757142,0.26537l-0.0702047 0.0214567 -0.0447953 -0.058122zm2.28381 -1.28239c0.0722362,-0.0595276 0.142508,-0.121315 0.210693,-0.185472 0.0225945,-0.0212598 0.0449961,-0.0428189 0.0671929,-0.0646929l-0.755858 0c0.0564409,0.0420709 0.112287,0.0782992 0.167803,0.110039 0.104012,0.0594685 0.206811,0.10324 0.310169,0.140126zm0.356528 -0.0304724c-0.0863071,0.0812087 -0.175917,0.158882 -0.268614,0.233232l-0.0453543 0.036374 -0.055063 -0.0184567c-0.134858,-0.0452008 -0.268323,-0.0985197 -0.4035,-0.175803 -0.135969,-0.0777323 -0.273791,-0.179642 -0.416669,-0.321713l-0.0764134 -0.0759882 0.0768307 -0.0752638 0.00212205 -0.00207874 0.00253937 -0.0025 0.0745827 -0.0308346 1.28 0 0.239039 0 -0.159874 0.177921c-0.0792717,0.0882165 -0.162567,0.173193 -0.249626,0.25511z"/>
  <path class="fil1" d="M1.92719 5.76199c0.0413189,-0.0237441 0.0555669,-0.0764961 0.0318228,-0.117815 -0.0237441,-0.0413189 -0.0764961,-0.0555669 -0.117815,-0.0318228l-0.211736 0.122244c-0.0413189,0.0237441 -0.0555669,0.0764961 -0.0318228,0.117815 0.0237441,0.0413189 0.0764961,0.0555669 0.117815,0.0318228l0.211736 -0.122244z"/>
  <path class="fil1" d="M1.75273 5.58115c0.0413189,-0.0237441 0.0555669,-0.0764961 0.0318228,-0.117815 -0.0237441,-0.0413189 -0.0764961,-0.0555669 -0.117815,-0.0318228l-0.211736 0.122244c-0.0413189,0.0237441 -0.0555669,0.0764961 -0.0318228,0.117815 0.0237441,0.0413189 0.0764961,0.0555669 0.117815,0.0318228l0.211736 -0.122244z"/>
  <path class="fil1" d="M1.57826 5.4003c0.0413189,-0.0237441 0.0555669,-0.0764961 0.0318228,-0.117815 -0.0237441,-0.0413189 -0.0764961,-0.0555669 -0.117815,-0.0318228l-0.211736 0.122244c-0.0413189,0.0237441 -0.0555669,0.0764961 -0.0318228,0.117815 0.0237441,0.0413189 0.0764961,0.0555669 0.117815,0.0318228l0.211736 -0.122244z"/>
  <path class="fil2" d="M2.37136 3.04861l2.08395 0c0.00241339,-0.0162244 0.00448819,-0.032437 0.00622441,-0.048626 0.00460236,-0.0428937 0.00697244,-0.0879724 0.00697244,-0.135161 0,-0.319976 -0.119217,-0.609118 -0.311961,-0.817921 -0.190524,-0.206398 -0.453315,-0.334067 -0.743209,-0.334067 -0.289894,0 -0.552685,0.127669 -0.743209,0.334067 -0.192744,0.208803 -0.311961,0.497945 -0.311961,0.817921 0,0.0471969 0.00237008,0.0922717 0.0069685,0.135157 0.00173622,0.016189 0.00381496,0.0324016 0.00622441,0.0486299z"/>
  <path class="fil3" d="M2.4882 3.79939l0 -0.514181 -0.308248 0c-0.0174449,0 -0.0333858,0.00721654 -0.0450039,0.0188346 -0.0116181,0.0116181 -0.0188346,0.0275591 -0.0188346,0.0450039l0 0.386504c0,0.0174449 0.00721654,0.0333858 0.0188346,0.0450039 0.0116181,0.0116181 0.0275591,0.0188346 0.0450039,0.0188346l0.308248 0z"/>
  <polygon class="fil3" points="2.70154,3.2852 2.70154,3.79939 3.03384,3.79939 3.03384,3.2852 "/>
  <polygon class="fil3" points="3.24718,3.2852 3.24718,3.79939 3.57947,3.79939 3.57947,3.2852 "/>
  <polygon class="fil3" points="3.79281,3.2852 3.79281,3.79939 4.12511,3.79939 4.12511,3.2852 "/>
  <path class="fil3" d="M4.33844 3.2852l0 0.514181 0.308268 0c0.0174449,0 0.0333858,-0.00721654 0.0450039,-0.0188346 0.0116181,-0.0116181 0.0188346,-0.0275591 0.0188346,-0.0450039l0 -0.386504c0,-0.0174449 -0.00721654,-0.0333858 -0.0188346,-0.0450039 -0.0116181,-0.0116181 -0.0275591,-0.0188346 -0.0450039,-0.0188346l-0.308268 0z"/>
  <path class="fil3" d="M3.41333 1.4915c0.0507559,0 0.0967205,-0.0205709 0.129969,-0.0538189 0.033252,-0.033252 0.0538228,-0.0792087 0.0538228,-0.129969 0,-0.0507598 -0.0205709,-0.0967165 -0.0538228,-0.129969 -0.033252,-0.033252 -0.0792087,-0.0538228 -0.129969,-0.0538228 -0.0507598,0 -0.0967165,0.0205709 -0.129969,0.0538228 -0.033252,0.033252 -0.0538228,0.0792087 -0.0538228,0.129969 0,0.0507598 0.0205709,0.0967165 0.0538228,0.129969 0.033248,0.033248 0.0792126,0.0538189 0.129969,0.0538189z"/>
  <path class="fil4" d="M4.20166 4.81804c-0.275764,-0.0887205 -0.544646,-0.203921 -0.836559,-0.485311l-0.987232 0c0.100197,0.098685 0.20526,0.192012 0.314831,0.280374l0.00837402 0.00671654c0.116331,0.0933071 0.238776,0.181697 0.366799,0.265571 0.128122,0.0839409 0.260209,0.16226 0.395874,0.235465l0.0409646 0.0221063c0.404165,0.214012 0.845031,0.387925 1.31138,0.53398l0.359461 -0.466417c-0.287185,-0.185697 -0.545268,-0.262909 -0.792177,-0.336768 -0.0570236,-0.0170591 -0.113492,-0.0339488 -0.169657,-0.0518543l-0.00015748 0.000125984 -0.0118189 -0.00396063 -8.26772e-005 -2.75591e-005z"/>
  <path class="fil4" d="M3.69369 4.33272c0.161327,0.119972 0.318638,0.192969 0.47763,0.249909 0.072126,-0.0594488 0.142295,-0.12115 0.210382,-0.185217 0.0225945,-0.0212598 0.0449961,-0.0428189 0.0671929,-0.0646929l-0.755205 0z"/>
  <path class="fil4" d="M3.1893 5.21092c-0.0812283,-0.0474173 -0.16063,-0.0964528 -0.238094,-0.147205 -0.0742677,-0.0486575 -0.14728,-0.0992441 -0.218972,-0.151858 -0.000251969,-0.000185039 -0.000503937,-0.000370079 -0.000755906,-0.000555118 -0.0399882,-0.029315 -0.0794685,-0.0591969 -0.118429,-0.0896575 -0.0587835,0.0188858 -0.113969,0.0353937 -0.16972,0.0520709 -0.246929,0.0738701 -0.505016,0.151091 -0.79222,0.336803l0.359461 0.466417c0.228906,-0.0717087 0.452492,-0.1505 0.669606,-0.23787 0.174705,-0.0703071 0.344646,-0.146098 0.509126,-0.228146z"/>
 </g>
</svg>
