<?xml version="1.0" encoding="UTF-8"?>
<!DOCTYPE svg PUBLIC "-//W3C//DTD SVG 1.1//EN" "http://www.w3.org/Graphics/SVG/1.1/DTD/svg11.dtd">
<!-- Creator: CorelDRAW -->
<svg xmlns="http://www.w3.org/2000/svg" xml:space="preserve" width="6.82666in" height="6.82666in" style="shape-rendering:geometricPrecision; text-rendering:geometricPrecision; image-rendering:optimizeQuality; fill-rule:evenodd; clip-rule:evenodd"
viewBox="0 0 6.82666 6.82666"
 xmlns:xlink="http://www.w3.org/1999/xlink">
 <defs>
  <style type="text/css">
   <![CDATA[
    .fil0 {fill:none}
    .fil2 {fill:#FECA5F}
    .fil1 {fill:#333333;fill-rule:nonzero}
   ]]>
  </style>
 </defs>
 <g id="Layer_x0020_1">
  <metadata id="CorelCorpID_0Corel-Layer"/>
  <g id="_224236112">
   <rect id="_224236136" class="fil0" width="6.82666" height="6.82666"/>
   <rect id="_224236256" class="fil0" x="0.853331" y="0.853331" width="5.12" height="5.12"/>
  </g>
  <path class="fil1" d="M2.20326 3.29269l1.33071 1.33071 0.0754134 0.0754173 -0.0754134 0.0754173 -1.05348 1.05348 -3.93701e-006 3.93701e-006c-0.0970669,0.0970669 -0.224902,0.14561 -0.352642,0.14561 -0.127748,0 -0.255575,-0.0485433 -0.352646,-0.14561l-3.93701e-006 -3.93701e-006 -0.776252 -0.776256 -7.87402e-006 -7.87402e-006c-0.0970709,-0.0970709 -0.145602,-0.224898 -0.145602,-0.352638 0,-0.12774 0.0485315,-0.255567 0.145602,-0.352638l7.87402e-006 -7.87402e-006 1.05348 -1.05348 0.0754173 -0.0754134 0.0754173 0.0754134zm1.10446 1.40613l-1.17988 -1.17988 -0.978067 0.978067 -7.87402e-006 7.87402e-006c-0.0553976,0.0553976 -0.0830984,0.128563 -0.0830984,0.201803 0,0.0732402 0.0277008,0.146406 0.0830984,0.201803l7.87402e-006 7.87402e-006 0.776252 0.776256 3.93701e-006 3.93701e-006c0.0554016,0.0553976 0.128571,0.0831063 0.201811,0.0831063 0.0732402,0 0.146406,-0.0277047 0.201807,-0.0831063l3.93701e-006 -3.93701e-006 0.978067 -0.978067z"/>
  <path class="fil1" d="M5.45415 0.884583l0.487925 0.487929 0.0754134 0.0754213 -0.0754134 0.0754134 -0.373571 0.373571c-0.052,0.052 -0.120811,0.0780079 -0.189776,0.0780118l0 0.000417323c-0.0687008,0 -0.137492,-0.0261457 -0.189772,-0.0784252l-0.259217 -0.259217c-0.0522795,-0.0522795 -0.0784252,-0.121067 -0.0784252,-0.189776l0.000417323 0c3.93701e-006,-0.0689567 0.0260118,-0.137776 0.0780118,-0.189776l0.373571 -0.373571 0.0754173 -0.0754173 0.0754173 0.0754173zm0.261673 0.563346l-0.337091 -0.337094 -0.298154 0.298154c-0.0108898,0.0108898 -0.0163425,0.0250039 -0.0163425,0.0389409l0.000417323 0c0,0.0142008 0.00531102,0.0283307 0.0159213,0.0389409l0.259217 0.259217c0.0106102,0.0106102 0.0247362,0.0159213 0.038937,0.0159213l0 0.000417323c0.013937,0 0.0280512,-0.00545276 0.0389409,-0.0163425l0.298154 -0.298154z"/>
  <polygon class="fil1" points="5.21019,1.76731 2.80751,4.16999 2.65667,4.01915 5.05935,1.61648 "/>
  <polygon class="fil1" points="2.52285,3.76312 1.19214,5.09383 1.07902,4.98071 2.40973,3.64999 "/>
  <polygon class="fil1" points="2.84976,4.09002 1.51904,5.42074 1.40592,5.30762 2.73664,3.9769 "/>
  <polygon class="fil1" points="3.17667,4.41693 1.84595,5.74765 1.73283,5.63452 3.06354,4.30381 "/>
  <path class="fil2" d="M1.14977 4.90062l0 0zm0.00466535 0.00466535l1.17988 -1.17988 -0.206469 -0.206469 -0.978075 0.978075c-0.0553976,0.0553976 -0.0830984,0.128563 -0.0830984,0.201803 0,0.0732402 0.0277008,0.146406 0.0831063,0.201811l0.00465748 0.00465748z"/>
  <path class="fil2" d="M3.10125 4.49235l-1.17988 1.17988 0.00466142 0.00466142c0.0554016,0.0553976 0.128571,0.0831063 0.201811,0.0831063 0.0732402,0 0.146406,-0.0277047 0.201811,-0.0831102l0.978067 -0.978067 -0.206469 -0.206469z"/>
  <polygon class="fil2" points="1.48134,5.2322 2.66122,4.05232 2.44744,3.83854 1.26756,5.01842 "/>
  <polygon class="fil2" points="2.77434,4.16544 1.59446,5.34532 1.80824,5.5591 2.98813,4.37922 "/>
 </g>
</svg>
