<?xml version="1.0" encoding="UTF-8"?>
<!DOCTYPE svg PUBLIC "-//W3C//DTD SVG 1.1//EN" "http://www.w3.org/Graphics/SVG/1.1/DTD/svg11.dtd">
<!-- Creator: CorelDRAW -->
<svg xmlns="http://www.w3.org/2000/svg" xml:space="preserve" width="6.82666in" height="6.82666in" style="shape-rendering:geometricPrecision; text-rendering:geometricPrecision; image-rendering:optimizeQuality; fill-rule:evenodd; clip-rule:evenodd"
viewBox="0 0 6.82666 6.82666"
 xmlns:xlink="http://www.w3.org/1999/xlink">
 <defs>
  <style type="text/css">
   <![CDATA[
    .fil0 {fill:none}
    .fil2 {fill:#C794BE}
    .fil1 {fill:#333333;fill-rule:nonzero}
   ]]>
  </style>
 </defs>
 <g id="Layer_x0020_1">
  <metadata id="CorelCorpID_0Corel-Layer"/>
  <g id="_224237312">
   <rect id="_224229656" class="fil0" width="6.82666" height="6.82666"/>
   <rect id="_224237336" class="fil0" x="0.853331" y="0.853331" width="5.12" height="5.12"/>
  </g>
  <path class="fil1" d="M5.06555 4.58346c-0.0222559,-0.0939016 -0.0675984,-0.187992 -0.145063,-0.265756 -0.0667795,-0.0670433 -0.158264,-0.123138 -0.280563,-0.15848 -0.0817441,-0.0236417 -0.18374,-0.0538346 -0.294457,-0.0895984 -0.111882,-0.0361457 -0.234602,-0.0785118 -0.358677,-0.126732 -0.0974291,-0.030252 -1.59548,-0.522657 -1.37988,-2.18174l0 -0.000830709 0.0718071 -0.520823 -1.36956 0.124606c0.0174764,0.186492 0.0755866,0.831772 0.0527559,1.17196 -0.00215354,0.0318622 -0.00464567,0.0783071 -0.00794094,0.139701 -0.016815,0.31339 -0.0527087,0.982205 -0.100394,1.12329 -0.029063,0.0860748 -0.0168346,0.250343 0.013315,0.433244 0.0434882,0.263827 0.125453,0.559181 0.178965,0.731921l3.90045 -0.0134685c-0.0108583,-0.0480315 -0.0289449,-0.0929764 -0.0529606,-0.133441 -0.0417874,-0.0704055 -0.101598,-0.127386 -0.172382,-0.163437l-0.0440433 -0.022437 -0.011374 -0.0479803zm0.00577165 -0.415756c0.0953661,0.0957362 0.155539,0.207496 0.189331,0.320323 0.0878307,0.0540512 0.162106,0.130106 0.216028,0.220957 0.0599724,0.101043 0.0947008,0.220295 0.0947008,0.347614l0 0.105882 -0.106669 0.000370079 -4.09678 0.0141457 -0.077126 0.00026378 -0.024126 -0.0731811c-0.0510079,-0.154732 -0.156736,-0.515744 -0.209791,-0.83761 -0.0350591,-0.212693 -0.0465945,-0.411669 -0.00498425,-0.534913 0.0384213,-0.113673 0.0732441,-0.762567 0.0895591,-1.06662 0.0037874,-0.0705787 0.00666535,-0.124134 0.00794094,-0.143031 0.0231102,-0.344378 -0.0414961,-1.02766 -0.0544528,-1.1647 -0.00162992,-0.0172402 -0.00259449,-0.0274291 -0.00264961,-0.0284331l0 -0.000417323c-0.000870079,-0.0165551 0.000370079,-0.0375433 0.00715748,-0.0610236 0.00657087,-0.022748 0.018185,-0.0470984 0.0378583,-0.070437l0.0716693 -0.0370827 1.58378 -0.144098 0.133217 -0.0121181 -0.0182165 0.132118 -0.0900236 0.652945 -9.44882e-005 -1.1811e-005c-0.198571,1.53217 1.23166,1.95119 1.23577,1.95243l0.0075 0.0025c0.12037,0.0468543 0.240126,0.0881969 0.349547,0.123547 0.111366,0.0359724 0.210185,0.065252 0.288622,0.087937 0.159894,0.0462087 0.281571,0.12163 0.372232,0.212646z"/>
  <path class="fil1" d="M0.917906 5.59846l4.67983 0c0.105445,-0.0304764 0.17274,-0.104161 0.195854,-0.184047 0.00944488,-0.0326417 0.0113661,-0.0663346 0.0052874,-0.0981969 -0.00568504,-0.0298031 -0.0187559,-0.0579685 -0.0396181,-0.0817992 -0.0552283,-0.0630906 -0.166276,-0.0995315 -0.343791,-0.0721772l-0.0316693 -0.210835c0.259543,-0.0399961 0.435941,0.0293228 0.535461,0.143012 0.046878,0.0535472 0.0761417,0.116394 0.0887835,0.182634 0.012248,0.0641772 0.0085,0.131594 -0.0102874,0.196528 -0.0434055,0.150012 -0.16787,0.286681 -0.360689,0.334886l-0.0258346 0.00333465 -4.69333 0 0 -0.213339z"/>
  <polygon class="fil1" points="3.84368,5.06256 3.84368,5.70513 3.63034,5.70513 3.63034,5.06256 "/>
  <polygon class="fil1" points="2.19792,5.06256 2.19792,5.70513 1.98458,5.70513 1.98458,5.06256 "/>
  <path class="fil1" d="M2.30457 1.75846c-0.0589094,0 -0.106669,0.0477598 -0.106669,0.106669 0,0.0589094 0.0477598,0.106669 0.106669,0.106669l0.395547 0c0.0589094,0 0.106669,-0.0477598 0.106669,-0.106669 0,-0.0589094 -0.0477598,-0.106669 -0.106669,-0.106669l-0.395547 0z"/>
  <path class="fil1" d="M2.30457 2.18512c-0.0589094,0 -0.106669,0.0477598 -0.106669,0.106669 0,0.0589094 0.0477598,0.106669 0.106669,0.106669l0.395547 0c0.0589094,0 0.106669,-0.0477598 0.106669,-0.106669 0,-0.0589094 -0.0477598,-0.106669 -0.106669,-0.106669l-0.395547 0z"/>
  <path class="fil1" d="M2.32239 2.69715c-0.0575276,0.0121929 -0.0942756,0.0687205 -0.0820827,0.126248 0.0121929,0.0575276 0.0687205,0.0942756 0.126248,0.0820827l0.386768 -0.0828583c0.0575276,-0.0121929 0.0942756,-0.0687205 0.0820827,-0.126248 -0.0121929,-0.0575276 -0.0687205,-0.0942756 -0.126248,-0.0820827l-0.386768 0.0828583z"/>
  <path class="fil1" d="M2.52761 3.05958c-0.0540748,0.0230079 -0.0792598,0.0855079 -0.056252,0.139583 0.0230079,0.0540748 0.0855079,0.0792598 0.139583,0.056252l0.363815 -0.15522c0.0540748,-0.0230079 0.0792598,-0.0855079 0.056252,-0.139583 -0.0230079,-0.0540748 -0.0855079,-0.0792598 -0.139583,-0.056252l-0.363815 0.15522z"/>
  <path class="fil1" d="M2.76499 3.49429c-0.0427992,0.0402677 -0.0448504,0.107618 -0.00458268,0.150417 0.0402677,0.0427992 0.107618,0.0448504 0.150417,0.00458268l0.288437 -0.270661c0.0427992,-0.0402677 0.0448504,-0.107618 0.00458268,-0.150417 -0.0402677,-0.0427992 -0.107618,-0.0448504 -0.150417,-0.00458268l-0.288437 0.270661z"/>
  <path class="fil1" d="M3.07408 3.79774c-0.0289921,0.0510827 -0.0110827,0.116008 0.04,0.145 0.0510827,0.0289921 0.116008,0.0110827 0.145,-0.04l0.19598 -0.343579c0.0289921,-0.0510827 0.0110827,-0.116008 -0.04,-0.145 -0.0510827,-0.0289921 -0.116008,-0.0110827 -0.145,0.04l-0.19598 0.343579z"/>
  <path class="fil1" d="M3.47944 4.07274c-0.0395787,0.0432598 -0.0365906,0.110421 0.00666929,0.15 0.0432598,0.0395787 0.110421,0.0365906 0.15,-0.00666929l0.266941 -0.291886c0.0395787,-0.0432598 0.0365906,-0.110421 -0.00666929,-0.15 -0.0432598,-0.0395787 -0.110421,-0.0365906 -0.15,0.00666929l-0.266941 0.291886z"/>
  <path class="fil1" d="M3.97669 4.27846c-0.0220906,0.0543071 0.00402756,0.116244 0.0583346,0.138335 0.0543071,0.0220906 0.116244,-0.00402756 0.138335,-0.0583346l0.149543 -0.366185c0.0220906,-0.0543071 -0.00402756,-0.116244 -0.0583346,-0.138335 -0.0543071,-0.0220906 -0.116244,0.00402756 -0.138335,0.0583346l-0.149543 0.366185z"/>
  <path class="fil2" d="M4.03503 4.41679c-0.0543071,-0.0220906 -0.0804252,-0.0840276 -0.0583346,-0.138335l0.120118 -0.294134c-0.0363858,-0.0132874 -0.0731457,-0.0271024 -0.11002,-0.0414331 -0.0105472,-0.00327559 -0.0375,-0.0119646 -0.0769173,-0.0269606 -0.00211417,0.00283465 -0.00438976,0.00558661 -0.00682677,0.00825197l-0.266941 0.291886c-0.0395787,0.0432598 -0.10674,0.046248 -0.15,0.00666929 -0.0432598,-0.0395787 -0.046248,-0.10674 -0.00666929,-0.15l0.226134 -0.247268c-0.0893661,-0.0449409 -0.192795,-0.104035 -0.299957,-0.179622l-0.146535 0.256898c-0.0289921,0.0510827 -0.0939173,0.0689921 -0.145,0.04 -0.0510827,-0.0289921 -0.0689921,-0.0939173 -0.04,-0.145l0.162079 -0.284142c-0.030689,-0.0264961 -0.0612402,-0.0544134 -0.0914213,-0.083811l-0.233913 0.2195c-0.0427992,0.0402677 -0.11015,0.0382165 -0.150417,-0.00458268 -0.0402677,-0.0427992 -0.0382165,-0.11015 0.00458268,-0.150417l0.235512 -0.220996c-0.0362047,-0.0439213 -0.0711772,-0.0903937 -0.104425,-0.139531l-0.28513 0.12165c-0.0540748,0.0230079 -0.116575,-0.00217717 -0.139583,-0.056252 -0.0230079,-0.0540748 0.00217717,-0.116575 0.056252,-0.139583l0.259059 -0.110528c-0.0200551,-0.0390866 -0.0389724,-0.0795591 -0.0565748,-0.121453l-0.363543 0.0778819c-0.0575276,0.0121929 -0.114055,-0.0245551 -0.126248,-0.0820827 -0.0121929,-0.0575276 0.0245551,-0.114055 0.0820827,-0.126248l0.336677 -0.072126c-0.0204646,-0.0719055 -0.0371417,-0.147378 -0.0493937,-0.226563l-0.305102 0c-0.0589094,0 -0.106669,-0.0477598 -0.106669,-0.106669 0,-0.0589094 0.0477598,-0.106669 0.106669,-0.106669l0.283685 0c-0.00331496,-0.068626 -0.00343701,-0.139709 -3.93701e-005,-0.213327l-0.283646 0c-0.0589094,0 -0.106669,-0.0477598 -0.106669,-0.106669 0,-0.0589094 0.0477598,-0.106669 0.106669,-0.106669l0.302598 0 0.0715512 -0.518961 -1.36956 0.124606c0.0174764,0.186492 0.0755866,0.831772 0.0527559,1.17196 -0.00215354,0.0318622 -0.00464567,0.0783071 -0.00794094,0.139701 -0.016815,0.31339 -0.0527087,0.982205 -0.100394,1.12329 -0.029063,0.0860748 -0.0168346,0.250343 0.013315,0.433244 0.0434882,0.263827 0.125453,0.559181 0.178965,0.731921l3.90045 -0.0134685c-0.0108583,-0.0480315 -0.0289449,-0.0929764 -0.0529606,-0.133441 -0.0417874,-0.0704055 -0.101598,-0.127386 -0.172382,-0.163437l-0.0440433 -0.022437 -0.011374 -0.0479803c-0.0222559,-0.0939016 -0.0675984,-0.187992 -0.145063,-0.265756 -0.0667795,-0.0670433 -0.158264,-0.123138 -0.280563,-0.15848 -0.0817441,-0.0236417 -0.18374,-0.0538346 -0.294457,-0.0895984 -0.0157205,-0.00507874 -0.0316575,-0.0102795 -0.0477795,-0.0156063l-0.124327 0.304441c-0.0220906,0.0543071 -0.0840276,0.0804252 -0.138335,0.0583346z"/>
 </g>
</svg>
