<?xml version="1.0" encoding="UTF-8"?>
<!DOCTYPE svg PUBLIC "-//W3C//DTD SVG 1.1//EN" "http://www.w3.org/Graphics/SVG/1.1/DTD/svg11.dtd">
<!-- Creator: CorelDRAW -->
<svg xmlns="http://www.w3.org/2000/svg" xml:space="preserve" width="6.82666in" height="6.82666in" style="shape-rendering:geometricPrecision; text-rendering:geometricPrecision; image-rendering:optimizeQuality; fill-rule:evenodd; clip-rule:evenodd"
viewBox="0 0 6.82666 6.82666"
 xmlns:xlink="http://www.w3.org/1999/xlink">
 <defs>
  <style type="text/css">
   <![CDATA[
    .fil0 {fill:none}
    .fil2 {fill:#B38E85}
    .fil1 {fill:#333333;fill-rule:nonzero}
   ]]>
  </style>
 </defs>
 <g id="Layer_x0020_1">
  <metadata id="CorelCorpID_0Corel-Layer"/>
  <g id="_224231144">
   <rect id="_224231408" class="fil0" width="6.82666" height="6.82666"/>
   <rect id="_224231456" class="fil0" x="0.853331" y="0.853331" width="5.12" height="5.12"/>
  </g>
  <g id="_224229896">
   <path id="_224230472" class="fil1" d="M1.01333 2.34707c-0.0586811,0 -0.106252,0.0475709 -0.106252,0.106252 0,0.0586811 0.0475709,0.106252 0.106252,0.106252 0.92863,0.0014252 1.51386,0.35615 1.87874,0.913205 0.372283,0.568354 0.52272,1.35009 0.575012,2.1868 0.00345276,0.0586811 0.0538228,0.103453 0.112504,0.1 0.0586811,-0.00345276 0.103453,-0.0538228 0.1,-0.112504 -0.0543661,-0.869941 -0.213409,-1.68674 -0.609185,-2.29096 -0.403181,-0.615531 -1.04463,-1.00748 -2.05707,-1.00904z"/>
   <path id="_224230256" class="fil1" d="M5.81917 1.67609c0.0586811,-0.00322047 0.103638,-0.0534055 0.100417,-0.112087 -0.00322047,-0.0586811 -0.0534055,-0.103638 -0.112087,-0.100417 -0.496039,0.0281654 -0.616646,0.380524 -0.746134,0.758843 -0.111114,0.32463 -0.230059,0.672142 -0.657614,0.76715 -0.366197,0.081374 -0.637744,0.194791 -0.823705,0.420717 -0.183976,0.223516 -0.274681,0.548268 -0.278311,1.05059 -0.000228346,0.0586811 0.0471535,0.106441 0.105835,0.106669 0.0586811,0.000228346 0.106441,-0.0471535 0.106669,-0.105835 0.00324803,-0.449142 0.078189,-0.732024 0.229972,-0.916429 0.149803,-0.182 0.384169,-0.276835 0.705374,-0.348213 0.544665,-0.121031 0.68363,-0.527039 0.813449,-0.906323 0.105382,-0.307886 0.203535,-0.59465 0.556134,-0.614669z"/>
   <path id="_224230184" class="fil1" d="M2.91583 5.655c0.403236,-0.0677874 0.795264,-0.102626 1.17556,-0.103098 0.381394,-0.000472441 0.749043,0.0335669 1.10235,0.103516l-0.0408346 0.209165c-0.341898,-0.067689 -0.695906,-0.10063 -1.06152,-0.100177 -0.366701,0.000452756 -0.747087,0.0344488 -1.14056,0.100594l-0.035 -0.21z"/>
   <path id="_224230376" class="fil1" d="M4.96 2.66667c-0.0589094,0 -0.106669,0.0477598 -0.106669,0.106669 0,0.0589094 0.0477598,0.106669 0.106669,0.106669l0.59028 0c0.0589094,0 0.106669,-0.0477598 0.106669,-0.106669 0,-0.0589094 -0.0477598,-0.106669 -0.106669,-0.106669l-0.59028 0z"/>
   <path id="_224230424" class="fil1" d="M4.49625 3.11958c-0.0444094,-0.0384291 -0.111571,-0.0335748 -0.15,0.0108346 -0.0384291,0.0444094 -0.0335748,0.111571 0.0108346,0.15l0.446606 0.385972c0.0444094,0.0384291 0.111571,0.0335748 0.15,-0.0108346 0.0384291,-0.0444094 0.0335748,-0.111571 -0.0108346,-0.15l-0.446606 -0.385972z"/>
   <path id="_224230232" class="fil1" d="M4.50546 2.42903c-0.0289921,-0.0510827 -0.0939173,-0.0689921 -0.145,-0.04 -0.0510827,0.0289921 -0.0689921,0.0939173 -0.04,0.145l0.29222 0.51287c0.0289921,0.0510827 0.0939173,0.0689921 0.145,0.04 0.0510827,-0.0289921 0.0689921,-0.0939173 0.04,-0.145l-0.29222 -0.51287z"/>
   <path id="_224230664" class="fil1" d="M2.03041 0.977079c-0.0494724,-0.0315236 -0.115142,-0.0169724 -0.146665,0.0325 -0.0315236,0.0494724 -0.0169724,0.115142 0.0325,0.146665 0.472799,0.300874 0.791047,0.732461 1.00185,1.19664 0.294886,0.649331 0.38035,1.36131 0.384055,1.87417 0.000228346,0.0586811 0.0479882,0.106063 0.106669,0.105835 0.0586811,-0.000228346 0.106063,-0.0479882 0.105835,-0.106669 -0.00387402,-0.535941 -0.0934134,-1.28046 -0.402394,-1.96083 -0.226169,-0.498012 -0.569472,-0.962244 -1.08185,-1.2883z"/>
   <path id="_224230832" class="fil1" d="M4.80375 1.26291c0.0494724,-0.0315236 0.0640236,-0.0971929 0.0325,-0.146665 -0.0315236,-0.0494724 -0.0971929,-0.0640236 -0.146665,-0.0325 -0.609524,0.387878 -0.956079,0.909756 -1.15105,1.45193 -0.19287,0.536343 -0.235945,1.09018 -0.23928,1.55149 -0.000228346,0.0586811 0.0471535,0.106441 0.105835,0.106669 0.0586811,0.000228346 0.106441,-0.0471535 0.106669,-0.105835 0.00319685,-0.442539 0.0440472,-0.972512 0.226776,-1.48065 0.180642,-0.502323 0.501413,-0.985646 1.06521,-1.34443z"/>
   <path id="_224230592" class="fil1" d="M2.16952 2.74708c0.0444094,-0.0384291 0.0492638,-0.105591 0.0108346,-0.15 -0.0384291,-0.0444094 -0.105591,-0.0492638 -0.15,-0.0108346l-0.446606 0.385972c-0.0444094,0.0384291 -0.0492638,0.105591 -0.0108346,0.15 0.0384291,0.0444094 0.105591,0.0492638 0.15,0.0108346l0.446606 -0.385972z"/>
   <path id="_224230544" class="fil1" d="M2.78437 2.02291c0.0568386,-0.0147244 0.0909764,-0.0727441 0.076252,-0.129583 -0.0147244,-0.0568386 -0.0727441,-0.0909764 -0.129583,-0.076252l-0.571039 0.149492c-0.0568386,0.0147244 -0.0909764,0.0727441 -0.076252,0.129583 0.0147244,0.0568386 0.0727441,0.0909764 0.129583,0.076252l0.571039 -0.149492z"/>
   <path id="_224230448" class="fil1" d="M4.06333 1.83252c0.0536142,0.0239291 0.116488,-0.000133858 0.140417,-0.053748 0.0239291,-0.0536142 -0.000133858,-0.116488 -0.053748,-0.140417l-0.538346 -0.242106c-0.0536142,-0.0239291 -0.116488,0.000133858 -0.140417,0.053748 -0.0239291,0.0536142 0.000133858,0.116488 0.053748,0.140417l0.538346 0.242106z"/>
   <polygon id="_224229968" class="fil1" points="3.50217,4.04299 4.23085,5.61366 4.03752,5.70283 3.30884,4.13216 "/>
  </g>
  <path class="fil2" d="M3.96813 5.55324l-0.404008 -0.870843c0.053874,0.28274 0.0886614,0.579508 0.110067,0.883429 0.0987283,-0.00638976 0.196713,-0.0105906 0.293941,-0.0125866z"/>
 </g>
</svg>
