<?xml version="1.0" encoding="UTF-8"?>
<!DOCTYPE svg PUBLIC "-//W3C//DTD SVG 1.1//EN" "http://www.w3.org/Graphics/SVG/1.1/DTD/svg11.dtd">
<!-- Creator: CorelDRAW -->
<svg xmlns="http://www.w3.org/2000/svg" xml:space="preserve" width="6.82666in" height="6.82666in" style="shape-rendering:geometricPrecision; text-rendering:geometricPrecision; image-rendering:optimizeQuality; fill-rule:evenodd; clip-rule:evenodd"
viewBox="0 0 6.82666 6.82666"
 xmlns:xlink="http://www.w3.org/1999/xlink">
 <defs>
  <style type="text/css">
   <![CDATA[
    .fil0 {fill:none}
    .fil4 {fill:#63CBE5}
    .fil5 {fill:#EBE5DF}
    .fil2 {fill:#F19A7B}
    .fil3 {fill:#FFD3B3}
    .fil1 {fill:#333333;fill-rule:nonzero}
   ]]>
  </style>
 </defs>
 <g id="Layer_x0020_1">
  <metadata id="CorelCorpID_0Corel-Layer"/>
  <g id="_224232680">
   <rect id="_224232512" class="fil0" width="6.82666" height="6.82666"/>
   <rect id="_224233184" class="fil0" x="0.853331" y="0.853331" width="5.12" height="5.12"/>
  </g>
  <g id="_224232392">
   <path id="_224232944" class="fil1" d="M2.87103 2.81724c-0.00706693,-0.00472047 -0.0149961,-0.00783858 -0.0232087,-0.00909449 -0.0106024,-0.00162205 -0.0216535,-6.69291e-005 -0.0316969,0.00525591l-0.411256 0.217728 -0.0605591 0.0320669 -0.0544409 -0.0424803 -0.310555 -0.242319 -0.0283346 -0.033752c-0.0123307,-0.0231299 -0.0274882,-0.042811 -0.0462874,-0.0595748 -0.0197126,-0.0175787 -0.0434213,-0.0321299 -0.0719764,-0.0442126 -0.00796457,-0.00336614 -0.0281339,-0.00975197 -0.0548937,-0.0121929 -0.0154213,-0.00140551 -0.0323583,-0.0011378 -0.0486496,0.0026378 -0.041248,0.00955906 -0.0802441,0.0271929 -0.111972,0.0531693 -0.0268465,0.0219764 -0.0483268,0.0499173 -0.0610079,0.0838583 -0.000724409,0.00193307 -0.220157,0.584732 -0.376846,1.00698 -0.00866929,0.0233583 -0.0125433,0.0462205 -0.0125433,0.0679213 0,0.0388465 0.0122126,0.0744843 0.031374,0.102929 0.017937,0.0266339 0.0409764,0.0461299 0.0644803,0.0548504 0.00732677,0.00271654 0.0143661,0.00417717 0.0208071,0.00417717l0.00111811 0 0 0.000413386 0.780807 -0.0037126 0.0724291 -0.000346457 0.0267402 0.0674331 0.26261 0.662161c0.0105197,0.026437 0.0282638,0.047748 0.0500039,0.0625157 0.0221772,0.0150669 0.0490236,0.0233622 0.0770118,0.0233622 0.00905118,0 0.0175512,-0.00073622 0.0253622,-0.00223622 0.0078189,-0.0015 0.0161614,-0.00397244 0.0249528,-0.00744882l0.000141732 0.000358268c0.0350472,-0.0139409 0.0611063,-0.0407008 0.0749291,-0.072689 0.0137559,-0.0318346 0.0152402,-0.0692598 0.00122047,-0.104693l0.000358268 -0.000141732 -0.32376 -0.816067c-0.0103307,-0.0260669 -0.0280354,-0.0476102 -0.0501102,-0.0625984 -0.0217874,-0.0147874 -0.0484134,-0.023189 -0.0769094,-0.023189l-0.00126378 0 0 -0.000413386 -0.414945 0.00198031 -0.154 0.000732283 0.054 -0.144067 0.202567 -0.540441 0.0509016 -0.135791 0.114098 0.089122 0.222091 0.173472 0.000200787 -0.000255906c0.00499606,0.00388189 0.0104724,0.0068189 0.0161614,0.00877559 0.00570079,0.00195669 0.0117992,0.00295669 0.0180118,0.00295669 0.00520079,0 0.00981102,-0.000480315 0.013689,-0.00144094 0.00413386,-0.00102362 0.00836614,-0.00265748 0.0125945,-0.00489764l0.503602 -0.266602 -9.05512e-005 -0.000173228c0.00496063,-0.00263386 0.00881102,-0.0056811 0.011685,-0.00895669 0.00419291,-0.00478346 0.00779134,-0.0108976 0.0107913,-0.0178189 0.00149213,-0.00443307 0.00175984,-0.0102126 0.000401575,-0.0177559 -0.00237402,-0.0131772 -0.00870472,-0.0294567 -0.0198346,-0.0494961zm0.00846063 -0.219929c0.0551654,0.00844882 0.107287,0.0343701 0.148398,0.0743307l0.0166693 0.0208346c0.0302953,0.0495118 0.0479134,0.094811 0.0554724,0.136756 0.00901575,0.0499764 0.00392913,0.0940157 -0.0115591,0.133657l-0.000830709 0.00208268c-0.0114685,0.0273976 -0.0272756,0.0537402 -0.0479685,0.0773386 -0.0201024,0.0229055 -0.0439055,0.0425394 -0.071685,0.0572874l-0.000417323 0 -0.503929 0.266776c-0.0193858,0.0102677 -0.0398622,0.0180079 -0.0609252,0.0232362 -0.0218386,0.00542126 -0.0435079,0.00811024 -0.0645236,0.00811024 -0.0294843,0 -0.0589528,-0.00492913 -0.0871772,-0.014626 -0.0276496,-0.00950394 -0.0539843,-0.0235906 -0.0778307,-0.0421142l0 -0.000413386 -0.108189 -0.0845039 -0.0976693 0.260575 0.261362 -0.00124803 0.000417323 -0.000417323 0.00126378 0c0.0711063,0 0.139043,0.0219764 0.196075,0.0606929 0.0567126,0.0385079 0.102094,0.0936102 0.128449,0.160102l0.323815 0.816209 0.000413386 0c0.0353307,0.0892913 0.0310236,0.18487 -0.00455118,0.267189 -0.0354488,0.0820354 -0.102146,0.150551 -0.19174,0.186083l0 0.000413386c-0.0202953,0.00802362 -0.0414803,0.0140945 -0.0632835,0.0182835 -0.0223976,0.00429921 -0.044252,0.00640945 -0.0653622,0.00640945 -0.0699921,0 -0.138394,-0.0216063 -0.196177,-0.0608661 -0.0559528,-0.0380039 -0.101496,-0.0925591 -0.128343,-0.16002l-0.235866 -0.594728 -0.708799 0.00337008 -0.000417323 0.000417323 -0.00111811 0c-0.0322402,0 -0.0642559,-0.00611811 -0.0949724,-0.0175157 -0.0645276,-0.0239449 -0.12422,-0.072185 -0.166984,-0.135685 -0.0415512,-0.061689 -0.0680433,-0.138622 -0.0680433,-0.222094 0,-0.0460157 0.00799606,-0.0938819 0.0258819,-0.142087 0.0255354,-0.068815 0.376764,-1.00454 0.377681,-1.00698 0.0270079,-0.0722874 0.0709803,-0.130323 0.125173,-0.174693 0.0576417,-0.047189 0.127012,-0.0788819 0.199469,-0.0956732 0.0398858,-0.00924803 0.0797323,-0.0100512 0.115319,-0.00680315 0.0533465,0.00487008 0.0991102,0.0199449 0.118232,0.0280276 0.0515669,0.0218189 0.0947598,0.048437 0.131142,0.0808819 0.0315669,0.0281496 0.0580276,0.0605787 0.0803622,0.0979213l0.239543 0.186909 0.350693 -0.185665c0.0523307,-0.0277402 0.108886,-0.0359685 0.162531,-0.0277598z"/>
   <path id="_224233208" class="fil1" d="M1.99859 2.24676c0.0711339,0 0.135287,-0.0285827 0.18148,-0.0747874 0.0464331,-0.0464449 0.0751654,-0.110772 0.0751654,-0.181961 0,-0.0708661 -0.0287362,-0.135031 -0.0751732,-0.181469 -0.0464449,-0.0464449 -0.110618,-0.0751811 -0.181472,-0.0751811 -0.0709331,0 -0.135114,0.0287165 -0.181543,0.0751378 -0.0464488,0.0464409 -0.0751732,0.110622 -0.0751732,0.181512l-0.000417323 0c1.5748e-005,0.0706575 0.0289016,0.13489 0.0756102,0.181598 0.0464252,0.0464291 0.110594,0.0751496 0.181524,0.0751496zm0.332315 0.0752126c-0.085315,0.0853386 -0.202846,0.138126 -0.332315,0.138126 -0.129831,0 -0.247311,-0.0526024 -0.332358,-0.137654 -0.0848071,-0.084811 -0.137244,-0.202335 -0.13728,-0.332433l-0.000417323 0c0,-0.12978 0.0526063,-0.247291 0.137677,-0.332346 0.0850551,-0.0850394 0.202555,-0.137642 0.332378,-0.137642 0.12974,0 0.247248,0.052626 0.332307,0.137685 0.0850512,0.0850512 0.137677,0.202551 0.137677,0.332303 0,0.129516 -0.0526181,0.24689 -0.137669,0.331961z"/>
   <path id="_224231888" class="fil1" d="M2.90081 2.65581c-0.0508543,0.0292244 -0.0683898,0.0941457 -0.0391654,0.145 0.0292244,0.0508543 0.0941457,0.0683898 0.145,0.0391654l1.60715 -0.92789c0.0508543,-0.0292244 0.0683898,-0.0941457 0.0391654,-0.145 -0.0292244,-0.0508543 -0.0941457,-0.0683898 -0.145,-0.0391654l-1.60715 0.92789z"/>
   <path id="_224231816" class="fil1" d="M4.38039 1.97389c-0.229587,0.514752 -0.344358,0.999902 -0.344346,1.45542 7.87402e-006,0.453685 0.11398,0.87874 0.341846,1.27514l-0.0920787 0.0529134c-0.237315,-0.412843 -0.356008,-0.855531 -0.35602,-1.32806 -1.5748e-005,-0.470689 0.117815,-0.97028 0.35352,-1.49875l0.0970787 0.0433307z"/>
   <path id="_224232320" class="fil1" d="M4.51483 4.21906c0.241862,0 0.462039,0.0417913 0.622488,0.109346 0.17424,0.0733622 0.282008,0.179953 0.282008,0.30237 0,0.122421 -0.107768,0.229008 -0.282008,0.30237 -0.160449,0.0675551 -0.380626,0.109346 -0.622488,0.109346 -0.241854,0 -0.462035,-0.0417874 -0.622484,-0.109346 -0.17424,-0.0733622 -0.282008,-0.179949 -0.282008,-0.30237 0,-0.122417 0.107768,-0.229008 0.282008,-0.30237 0.160449,-0.0675591 0.38063,-0.109346 0.622484,-0.109346zm0.581236 0.20726c-0.147606,-0.0621457 -0.353016,-0.100591 -0.581236,-0.100591 -0.22822,0 -0.43363,0.0384449 -0.581232,0.100591 -0.133815,0.0563425 -0.216591,0.128949 -0.216591,0.204457 0,0.0755039 0.0827756,0.148114 0.216591,0.204457 0.147602,0.0621457 0.353012,0.100591 0.581232,0.100591 0.22822,0 0.43363,-0.0384449 0.581236,-0.100591 0.133815,-0.0563425 0.216591,-0.128953 0.216591,-0.204457 0,-0.0755079 -0.0827756,-0.148114 -0.216591,-0.204457z"/>
   <path id="_224231936" class="fil1" d="M4.51483 3.95491c0.386949,0 0.739677,0.0670551 0.99715,0.175465 0.285047,0.12002 0.461358,0.296303 0.461358,0.500398 0,0.204091 -0.176311,0.380378 -0.461362,0.500398 -0.257472,0.108409 -0.610197,0.175465 -0.997146,0.175465 -0.386937,0 -0.739673,-0.0670551 -0.997146,-0.175465 -0.285047,-0.12002 -0.461358,-0.296311 -0.461358,-0.500398 0,-0.204094 0.176311,-0.380378 0.461358,-0.500398 0.257472,-0.108409 0.610209,-0.175465 0.997146,-0.175465zm0.914646 0.371299c-0.231787,-0.0975945 -0.554988,-0.157961 -0.914646,-0.157961 -0.359654,0 -0.682854,0.0603661 -0.914642,0.157961 -0.204213,0.0859843 -0.330524,0.194299 -0.330524,0.304563 0,0.110256 0.126311,0.218579 0.330524,0.304563 0.231787,0.0975945 0.554988,0.157961 0.914642,0.157961 0.359657,0 0.682854,-0.0603661 0.914642,-0.157961 0.204217,-0.0859843 0.330528,-0.194307 0.330528,-0.304563 0,-0.110264 -0.126311,-0.218579 -0.330524,-0.304563z"/>
   <path id="_224231768" class="fil1" d="M1.05387 4.02343l0.613343 0c0.0552559,0 0.105421,0.0225315 0.141717,0.0588268 0.0362953,0.0362953 0.0588268,0.0864606 0.0588268,0.141717l0 0.613343c0,0.0547638 -0.0225197,0.104783 -0.0588307,0.141291l3.93701e-006 3.93701e-006 -0.000208661 0.000208661 -0.000208661 0.000208661 -3.93701e-006 -3.93701e-006c-0.0365079,0.036311 -0.0865236,0.0588307 -0.141295,0.0588307l-0.613343 0c-0.0547756,0 -0.104787,-0.0225197 -0.141295,-0.0588307l-3.93701e-006 3.93701e-006 -0.000208661 -0.000208661 -0.000208661 -0.000208661 3.93701e-006 -3.93701e-006c-0.036311,-0.0365079 -0.0588307,-0.0865276 -0.0588307,-0.141291l0 -0.613343c0,-0.0552559 0.0225315,-0.105421 0.0588268,-0.141717l0.000208661 0.000208661c0.0365276,-0.0364331 0.086626,-0.0590354 0.141508,-0.0590354zm0.600547 0.213339l-0.587752 0 0 0.587748 0.587752 0 0 -0.587748z"/>
  </g>
  <path class="fil2" d="M1.28458 4.0056l0.780807 -0.0037126 0.0724291 -0.000346457 0.0267402 0.0674331 0.26261 0.662161c0.0105197,0.026437 0.0282638,0.047748 0.0500039,0.0625157 0.0221772,0.0150669 0.0490236,0.0233622 0.0770118,0.0233622 0.00905118,0 0.0175512,-0.00073622 0.0253622,-0.00223622 0.0078189,-0.0015 0.0161614,-0.00397244 0.0249528,-0.00744882l0.000141732 0.000358268c0.0350472,-0.0139409 0.0611063,-0.0407008 0.0749291,-0.072689 0.0137559,-0.0318346 0.0152402,-0.0692598 0.00122047,-0.104693l0.000358268 -0.000141732 -0.32376 -0.816067c-0.0103307,-0.0260669 -0.0280354,-0.0476102 -0.0501102,-0.0625984 -0.0217874,-0.0147874 -0.0484134,-0.023189 -0.0769094,-0.023189l-0.00126378 0 0 -0.000413386 -0.414945 0.00198031 -0.154 0.000732283 0.054 -0.144067 0.202567 -0.540441 0.0509016 -0.135791 0.114098 0.089122 0.222091 0.173472 0.000200787 -0.000255906c0.00499606,0.00388189 0.0104724,0.0068189 0.0161614,0.00877559 0.00570079,0.00195669 0.0117992,0.00295669 0.0180118,0.00295669 0.00520079,0 0.00981102,-0.000480315 0.013689,-0.00144094 0.00413386,-0.00102362 0.00836614,-0.00265748 0.0125945,-0.00489764l0.503602 -0.266602 -9.05512e-005 -0.000173228c0.00496063,-0.00263386 0.00881102,-0.0056811 0.011685,-0.00895669 0.00419291,-0.00478346 0.00779134,-0.0108976 0.0107913,-0.0178189 0.00149213,-0.00443307 0.00175984,-0.0102126 0.000401575,-0.0177559 -0.00237402,-0.0131772 -0.00870472,-0.0294567 -0.0198346,-0.0494961 -0.00706693,-0.00472047 -0.0149961,-0.00783858 -0.0232087,-0.00909449 -0.0106024,-0.00162205 -0.0216535,-6.69291e-005 -0.0316969,0.00525591l-0.411256 0.217728 -0.0605591 0.0320669 -0.0544409 -0.0424803 -0.310555 -0.242319 -0.0283346 -0.033752c-0.0123307,-0.0231299 -0.0274882,-0.042811 -0.0462874,-0.0595748 -0.0197126,-0.0175787 -0.0434213,-0.0321299 -0.0719764,-0.0442126 -0.00796457,-0.00336614 -0.0281339,-0.00975197 -0.0548937,-0.0121929 -0.0154213,-0.00140551 -0.0323583,-0.0011378 -0.0486496,0.0026378 -0.041248,0.00955906 -0.0802441,0.0271929 -0.111972,0.0531693 -0.0268465,0.0219764 -0.0483268,0.0499173 -0.0610079,0.0838583 -0.000724409,0.00193307 -0.220157,0.584732 -0.376846,1.00698 -0.00866929,0.0233583 -0.0125433,0.0462205 -0.0125433,0.0679213 0,0.0388465 0.0122126,0.0744843 0.031374,0.102929 0.017937,0.0266339 0.0409764,0.0461299 0.0644803,0.0548504 0.00732677,0.00271654 0.0143661,0.00417717 0.0208071,0.00417717l0.00111811 0 0 0.000413386z"/>
  <path class="fil3" d="M1.81707 2.17161c0.0464252,0.0464291 0.110594,0.0751496 0.181524,0.0751496 0.0711339,0 0.135287,-0.0285827 0.18148,-0.0747874 0.0464331,-0.0464449 0.0751654,-0.110772 0.0751654,-0.181961 0,-0.0708661 -0.0287362,-0.135031 -0.0751732,-0.181469 -0.0464449,-0.0464449 -0.110618,-0.0751811 -0.181472,-0.0751811 -0.0709331,0 -0.135114,0.0287165 -0.181543,0.0751378 -0.0464488,0.0464409 -0.0751732,0.110622 -0.0751732,0.181512l-0.000417323 0c1.5748e-005,0.0706575 0.0289016,0.13489 0.0756102,0.181598z"/>
  <path class="fil4" d="M5.42947 4.32621c-0.231787,-0.0975945 -0.554988,-0.157961 -0.914646,-0.157961 -0.126591,0 -0.248661,0.00748031 -0.363823,0.0214252 0.00622047,0.0197953 0.0126969,0.0395276 0.0194213,0.0591929 0.106039,-0.019189 0.222465,-0.029811 0.344402,-0.029811 0.241862,0 0.462039,0.0417913 0.622488,0.109346 0.17424,0.0733622 0.282008,0.179953 0.282008,0.30237 0,0.122421 -0.107768,0.229008 -0.282008,0.30237 -0.160449,0.0675551 -0.380626,0.109346 -0.622488,0.109346 -0.241854,0 -0.462035,-0.0417874 -0.622484,-0.109346 -0.17424,-0.0733622 -0.282008,-0.179949 -0.282008,-0.30237 0,-0.122417 0.107768,-0.229008 0.282008,-0.30237 0.0519921,-0.0218937 0.11026,-0.0410787 0.173504,-0.0570157 -0.00745669,-0.0221378 -0.0146063,-0.0443543 -0.0214528,-0.0666496 -0.168772,0.0273543 -0.319681,0.0690394 -0.444209,0.121472 -0.204213,0.0859843 -0.330524,0.194299 -0.330524,0.304563 0,0.110256 0.126311,0.218579 0.330524,0.304563 0.231787,0.0975945 0.554988,0.157961 0.914642,0.157961 0.359657,0 0.682854,-0.0603661 0.914642,-0.157961 0.204217,-0.0859843 0.330528,-0.194307 0.330528,-0.304563 0,-0.110264 -0.126311,-0.218579 -0.330524,-0.304563z"/>
  <path class="fil4" d="M5.09606 4.42631c-0.147606,-0.0621457 -0.353016,-0.100591 -0.581236,-0.100591 -0.108866,0 -0.212539,0.00874803 -0.307224,0.0246417 0.0470748,0.120465 0.103839,0.238496 0.170283,0.354087l-0.0920787 0.0529134c-0.0722638,-0.125713 -0.133531,-0.254197 -0.183795,-0.385445 -0.0618583,0.0150354 -0.118449,0.0333543 -0.168417,0.0543937 -0.133815,0.0563425 -0.216591,0.128949 -0.216591,0.204457 0,0.0755039 0.0827756,0.148114 0.216591,0.204457 0.147602,0.0621457 0.353012,0.100591 0.581232,0.100591 0.22822,0 0.43363,-0.0384449 0.581236,-0.100591 0.133815,-0.0563425 0.216591,-0.128953 0.216591,-0.204457 0,-0.0755079 -0.0827756,-0.148114 -0.216591,-0.204457z"/>
  <polygon class="fil5" points="1.65442,4.82451 1.65442,4.23676 1.06667,4.23676 1.06667,4.82451 "/>
 </g>
</svg>
