<?xml version="1.0" encoding="UTF-8"?>
<!DOCTYPE svg PUBLIC "-//W3C//DTD SVG 1.1//EN" "http://www.w3.org/Graphics/SVG/1.1/DTD/svg11.dtd">
<!-- Creator: CorelDRAW -->
<svg xmlns="http://www.w3.org/2000/svg" xml:space="preserve" width="6.82666in" height="6.82666in" style="shape-rendering:geometricPrecision; text-rendering:geometricPrecision; image-rendering:optimizeQuality; fill-rule:evenodd; clip-rule:evenodd"
viewBox="0 0 6.82666 6.82666"
 xmlns:xlink="http://www.w3.org/1999/xlink">
 <defs>
  <style type="text/css">
   <![CDATA[
    .fil0 {fill:none}
    .fil4 {fill:#949494}
    .fil3 {fill:#EBE5DF}
    .fil2 {fill:#F45A52}
    .fil1 {fill:#333333;fill-rule:nonzero}
   ]]>
  </style>
 </defs>
 <g id="Layer_x0020_1">
  <metadata id="CorelCorpID_0Corel-Layer"/>
  <g id="_224234960">
   <rect id="_224235032" class="fil0" width="6.82666" height="6.82666"/>
   <rect id="_224235008" class="fil0" x="0.853331" y="0.853331" width="5.12" height="5.12"/>
  </g>
  <g id="_224234000">
   <path id="_224235488" class="fil1" d="M4.30885 3.63303c-0.0253858,0.045878 -0.0519606,0.0898465 -0.076685,0.124295 -0.0255236,0.0355709 -0.0517717,0.0647047 -0.0774724,0.0826339 -0.0740945,0.0517047 -0.138886,0.0473504 -0.187988,-0.0352598 -0.0180669,-0.0304173 -0.0271496,-0.0768268 -0.0239488,-0.143303l1.9685e-005 -0.000417323 -1.9685e-005 0 0.000173228 -0.00323228 -0.000153543 0.00323228 -1.9685e-005 0c0.0109646,-0.201598 0.00429528,-0.396047 -0.0427244,-0.573201 -0.020622,-0.0776969 -0.0492402,-0.152461 -0.0878898,-0.2235 -0.0229646,0.0917598 -0.0682598,0.16385 -0.125929,0.21622 -0.0477244,0.0433386 -0.103803,0.0727756 -0.163118,0.0885591 -0.0582205,0.0154882 -0.11961,0.0175394 -0.179157,0.00641339 -0.0799094,-0.0149331 -0.156378,-0.0534331 -0.217169,-0.114811 -0.0406417,0.154598 0.0122323,0.276969 0.0470945,0.357598 0.0213701,0.0494213 0.0382283,0.0884252 0.0395039,0.130626 0.00284252,0.0940354 -0.0391535,0.144815 -0.161965,0.148528l-0.00291732 8.66142e-005 0 0.000330709 -0.0108819 0 0.00234252 -7.08661e-005c-0.116437,-0.00174016 -0.221906,-0.0389921 -0.313634,-0.0989173 -0.0420945,-0.0275 -0.0811693,-0.0598622 -0.116937,-0.0957402 -0.119602,0.450547 -0.0351535,0.761858 0.14826,0.950972 0.168661,0.173906 0.422811,0.249327 0.678965,0.236917 0.259043,-0.0125472 0.517567,-0.114594 0.691339,-0.295287 0.170449,-0.177236 0.258236,-0.434567 0.180913,-0.762673zm-0.149008 -0.170984c0.031685,-0.0622913 0.0565118,-0.118602 0.0632087,-0.140953l0.0831142 -0.277465 0.116469 0.265382c0.235768,0.537224 0.124453,0.957791 -0.141366,1.2342 -0.212311,0.220764 -0.524228,0.345248 -0.834669,0.360287 -0.313335,0.0151772 -0.627772,-0.080748 -0.841469,-0.301091 -0.260858,-0.268965 -0.368984,-0.716016 -0.136205,-1.36036l0.0763819 -0.211425 0.11487 0.192677c0.0466693,0.0782795 0.108752,0.148839 0.182803,0.197217 0.0381693,0.024937 0.0797087,0.0437992 0.124055,0.054374 -0.063752,-0.150283 -0.146929,-0.390071 0.0618228,-0.701795l0.131378 -0.196181 0.059874 0.228681c0.024374,0.0930945 0.0910827,0.14728 0.162992,0.160717 0.0285079,0.00532677 0.0579213,0.00433858 0.0858268,-0.00308268 0.0268071,-0.00713386 0.0522323,-0.0205039 0.0739528,-0.0402283 0.0637795,-0.0579173 0.0969449,-0.171969 0.0527638,-0.349169l-0.0865512 -0.347118 0.262386 0.243783c0.176602,0.164083 0.279185,0.355134 0.334386,0.563122 0.0364291,0.137248 0.0517165,0.280933 0.0539764,0.428433zm-1.11136 0.235453l-0.00853937 0.000259843c0.00283858,4.33071e-005 0.00568504,7.08661e-005 0.00853937,7.08661e-005l0 -0.000330709z"/>
   <path id="_224234984" class="fil1" d="M5.19865 5.38931l0.313185 0 0 -3.11102c0,-0.099626 0.0350433,-0.191394 0.0934567,-0.263669 0.0412638,-0.0510551 0.0942008,-0.092311 0.154697,-0.119681l0 -0.457598 -4.69333 0 0 0.457571c0.0605197,0.0273543 0.113461,0.0686024 0.154717,0.119654 0.0584213,0.0722913 0.0934409,0.164083 0.0934409,0.263732l0 3.11101 0.313181 0 0 -2.72978c0,-0.221094 0.0899252,-0.421594 0.235118,-0.566787 0.145173,-0.145173 0.345646,-0.235102 0.56678,-0.235102l1.967 0c0.221091,0 0.421528,0.0899331 0.566673,0.235106 0.145169,0.145197 0.235083,0.345705 0.235083,0.566783l0 2.72978zm0.419854 0.213339l-0.634059 0 0.000866142 -0.106669 0 -2.83645c0,-0.162209 -0.0660079,-0.309358 -0.172579,-0.415949 -0.106555,-0.106575 -0.253646,-0.172602 -0.415839,-0.172602l-1.967 0c-0.16224,0 -0.30937,0.0660236 -0.415945,0.172598 -0.106594,0.106594 -0.172614,0.253744 -0.172614,0.415953l0 2.83645 0 0.106669 -0.106669 0 -0.52652 0 -0.106669 0 0 -0.106669 0 -3.21768c0,-0.0494882 -0.0172165,-0.0948661 -0.045937,-0.130402 -0.0292598,-0.0362047 -0.0704882,-0.0623858 -0.117634,-0.0724843l-0.0845866 -0.0181142 0 -0.0860512 0 -0.640575 0 -0.106669 0.106669 0 4.90667 0 0.106669 0 0 0.106669 0 0.640575 0 0.0860276 -0.0845866 0.0181378c-0.0470906,0.0100984 -0.0883268,0.0363031 -0.117614,0.0725394 -0.0287205,0.0355354 -0.0459528,0.0808898 -0.0459528,0.130339l0 3.21769 0 0.106669 -0.106669 0z"/>
   <path id="_224235464" class="fil1" d="M1.49333 4.30483c-0.0589094,0 -0.106669,0.0477598 -0.106669,0.106669 0,0.0589094 0.0477598,0.106669 0.106669,0.106669l3.84 0c0.0589094,0 0.106669,-0.0477598 0.106669,-0.106669 0,-0.0589094 -0.0477598,-0.106669 -0.106669,-0.106669l-3.84 0z"/>
   <path id="_224234192" class="fil1" d="M2.24 3.98483c0,-0.0589094 -0.0477598,-0.106669 -0.106669,-0.106669 -0.0589094,0 -0.106669,0.0477598 -0.106669,0.106669l0 1.49333c0,0.0589094 0.0477598,0.106669 0.106669,0.106669 0.0589094,0 0.106669,-0.0477598 0.106669,-0.106669l0 -1.49333z"/>
   <path id="_224234168" class="fil1" d="M2.88 3.98483c0,-0.0589094 -0.0477598,-0.106669 -0.106669,-0.106669 -0.0589094,0 -0.106669,0.0477598 -0.106669,0.106669l0 1.49333c0,0.0589094 0.0477598,0.106669 0.106669,0.106669 0.0589094,0 0.106669,-0.0477598 0.106669,-0.106669l0 -1.49333z"/>
   <path id="_224234024" class="fil1" d="M3.52 3.98483c0,-0.0589094 -0.0477598,-0.106669 -0.106669,-0.106669 -0.0589094,0 -0.106669,0.0477598 -0.106669,0.106669l0 1.49333c0,0.0589094 0.0477598,0.106669 0.106669,0.106669 0.0589094,0 0.106669,-0.0477598 0.106669,-0.106669l0 -1.49333z"/>
   <path id="_224234216" class="fil1" d="M4.16 3.98483c0,-0.0589094 -0.0477598,-0.106669 -0.106669,-0.106669 -0.0589094,0 -0.106669,0.0477598 -0.106669,0.106669l0 1.49333c0,0.0589094 0.0477598,0.106669 0.106669,0.106669 0.0589094,0 0.106669,-0.0477598 0.106669,-0.106669l0 -1.49333z"/>
   <path id="_224234480" class="fil1" d="M4.8 3.98483c0,-0.0589094 -0.0477598,-0.106669 -0.106669,-0.106669 -0.0589094,0 -0.106669,0.0477598 -0.106669,0.106669l0 1.49333c0,0.0589094 0.0477598,0.106669 0.106669,0.106669 0.0589094,0 0.106669,-0.0477598 0.106669,-0.106669l0 -1.49333z"/>
  </g>
  <path class="fil2" d="M3.94277 3.66098l0 0zm0.0239291 0.14372c-0.0180669,-0.0304173 -0.0271496,-0.0768268 -0.0239488,-0.143303l0 -0.000417323 0.000173228 -0.00323228c0.0107205,-0.200445 0.00387008,-0.393764 -0.0428976,-0.569969 -0.020622,-0.0776969 -0.0492402,-0.152461 -0.0878898,-0.2235 -0.0229646,0.0917598 -0.0682598,0.16385 -0.125929,0.21622 -0.0477244,0.0433386 -0.103803,0.0727756 -0.163118,0.0885591 -0.0582205,0.0154882 -0.11961,0.0175394 -0.179157,0.00641339 -0.0799094,-0.0149331 -0.156378,-0.0534331 -0.217169,-0.114811 -0.0406417,0.154598 0.0122323,0.276969 0.0470945,0.357598 0.0213701,0.0494213 0.0382283,0.0884252 0.0395039,0.130626 0.00284252,0.0940354 -0.0391535,0.144815 -0.161965,0.148528l-0.00291732 8.66142e-005 0 0.000330709 -0.0108819 0 0.00234252 -7.08661e-005c-0.116437,-0.00174016 -0.221906,-0.0389921 -0.313634,-0.0989173 -0.0420945,-0.0275 -0.0811693,-0.0598622 -0.116937,-0.0957402 -0.0922323,0.347437 -0.0631181,0.612075 0.0391417,0.801728l0.0181535 0 0 -0.32c0,-0.0589094 0.0477598,-0.106669 0.106669,-0.106669 0.0589094,0 0.106669,0.0477598 0.106669,0.106669l0 0.32 0.426661 0 0 -0.32c0,-0.0589094 0.0477598,-0.106669 0.106669,-0.106669 0.0589094,0 0.106669,0.0477598 0.106669,0.106669l0 0.32 0.426661 0 0 -0.32c0,-0.0589094 0.0477598,-0.106669 0.106669,-0.106669 0.0589094,0 0.106669,0.0477598 0.106669,0.106669l0 0.32 0.0428386 0c0.119343,-0.170244 0.170996,-0.39602 0.106004,-0.671799 -0.0253858,0.045878 -0.0519606,0.0898465 -0.076685,0.124295 -0.0255236,0.0355709 -0.0517717,0.0647047 -0.0774724,0.0826339 -0.0740945,0.0517047 -0.138886,0.0473504 -0.187988,-0.0352598z"/>
  <path class="fil2" d="M3.94667 4.51817l-0.426661 0 0 0.165689c0.151157,-0.0185551 0.299028,-0.067437 0.426661,-0.144469l0 -0.0212205z"/>
  <path class="fil2" d="M3.30667 4.68966l0 -0.171492 -0.426661 0 0 0.0361929c0.123488,0.0801772 0.272055,0.124469 0.426661,0.135299z"/>
  <path class="fil3" d="M2.66017 3.2233c0.0466693,0.0782795 0.108752,0.148839 0.182803,0.197217 0.0381693,0.024937 0.0797087,0.0437992 0.124055,0.054374 -0.063752,-0.150283 -0.146929,-0.390071 0.0618228,-0.701795l0.131378 -0.196181 0.059874 0.228681c0.024374,0.0930945 0.0910827,0.14728 0.162992,0.160717 0.0285079,0.00532677 0.0579213,0.00433858 0.0858268,-0.00308268 0.0268071,-0.00713386 0.0522323,-0.0205039 0.0739528,-0.0402283 0.0637795,-0.0579173 0.0969449,-0.171969 0.0527638,-0.349169l-0.0865512 -0.347118 0.262386 0.243783c0.176602,0.164083 0.279185,0.355134 0.334386,0.563122 0.0364291,0.137248 0.0517165,0.280933 0.0539764,0.428433 0.031685,-0.0622913 0.0565118,-0.118602 0.0632087,-0.140953l0.0831142 -0.277465 0.116469 0.265382c0.175815,0.40061 0.158622,0.736354 0.0282835,0.995819l0.135752 0 0 -0.32c0,-0.0589094 0.0477598,-0.106669 0.106669,-0.106669 0.0589094,0 0.106669,0.0477598 0.106669,0.106669l0 0.32 0.185311 0 0 -1.6453c0,-0.162209 -0.0660079,-0.309358 -0.172579,-0.415949 -0.106555,-0.106575 -0.253646,-0.172602 -0.415839,-0.172602l-1.967 0c-0.16224,0 -0.30937,0.0660236 -0.415945,0.172598 -0.106594,0.106594 -0.172614,0.253744 -0.172614,0.415953l0 1.6453 0.185323 0 0 -0.32c0,-0.0589094 0.0477598,-0.106669 0.106669,-0.106669 0.0589094,0 0.106669,0.0477598 0.106669,0.106669l0 0.32 0.173913 0c-0.103902,-0.263539 -0.106528,-0.615661 0.0550039,-1.06279l0.0763819 -0.211425 0.11487 0.192677z"/>
  <path class="fil4" d="M4.3969 1.85764c0.221091,0 0.421528,0.0899331 0.566673,0.235106 0.145169,0.145197 0.235083,0.345705 0.235083,0.566783l0 1.6453 0.134681 0c0.0589094,0 0.106669,0.0477598 0.106669,0.106669 0,0.0589094 -0.0477598,0.106669 -0.106669,0.106669l-0.134681 0 0 0.871146 0.313185 0 0 -3.11102c0,-0.099626 0.0350433,-0.191394 0.0934567,-0.263669 0.0412638,-0.0510551 0.0942008,-0.092311 0.154697,-0.119681l0 -0.457598 -4.69333 0 0 0.457571c0.0605197,0.0273543 0.113461,0.0686024 0.154717,0.119654 0.0584213,0.0722913 0.0934409,0.164083 0.0934409,0.263732l0 3.11101 0.313181 0 0 -0.871146 -0.134669 0c-0.0589094,0 -0.106669,-0.0477598 -0.106669,-0.106669 0,-0.0589094 0.0477598,-0.106669 0.106669,-0.106669l0.134669 0 0 -1.6453c0,-0.221094 0.0899252,-0.421594 0.235118,-0.566787 0.145173,-0.145173 0.345646,-0.235102 0.56678,-0.235102l1.967 0z"/>
  <polygon class="fil1" points="1.67686,5.38931 5.12026,5.38931 5.12026,5.60265 1.67686,5.60265 "/>
  <polygon class="fil3" points="2.02667,5.38931 2.02667,4.51817 1.84134,4.51817 1.84134,5.38931 "/>
  <path class="fil3" d="M2.24 4.51817l0 0.871138 0.426661 0 0 -0.729165c-0.021315,-0.0181969 -0.0418543,-0.037437 -0.0615394,-0.0577362 -0.0255669,-0.0263622 -0.0496693,-0.0544331 -0.072122,-0.0842362l-0.293 0z"/>
  <path class="fil3" d="M2.88 4.79725l0 0.592055 0.426661 0 0 -0.48648c-0.149185,-0.00874409 -0.295142,-0.0434488 -0.426661,-0.105575z"/>
  <path class="fil3" d="M3.52 4.89791l0 0.491402 0.426661 0 0 -0.609315c-0.133528,0.0628307 -0.279362,0.102606 -0.426661,0.117913z"/>
  <path class="fil3" d="M4.16 4.6511l0 0.738209 0.426661 0 0 -0.871138 -0.282102 0c-0.00762598,0.00847244 -0.0153937,0.0168189 -0.0232992,0.0250394 -0.0375,0.0389921 -0.0781024,0.0749803 -0.12126,0.10789z"/>
  <polygon class="fil3" points="4.8,4.51817 4.8,5.38931 4.98531,5.38931 4.98531,4.51817 "/>
 </g>
</svg>
