<?xml version="1.0" encoding="UTF-8"?>
<!DOCTYPE svg PUBLIC "-//W3C//DTD SVG 1.1//EN" "http://www.w3.org/Graphics/SVG/1.1/DTD/svg11.dtd">
<!-- Creator: CorelDRAW -->
<svg xmlns="http://www.w3.org/2000/svg" xml:space="preserve" width="6.82666in" height="6.82666in" style="shape-rendering:geometricPrecision; text-rendering:geometricPrecision; image-rendering:optimizeQuality; fill-rule:evenodd; clip-rule:evenodd"
viewBox="0 0 6.82666 6.82666"
 xmlns:xlink="http://www.w3.org/1999/xlink">
 <defs>
  <style type="text/css">
   <![CDATA[
    .fil0 {fill:none}
    .fil2 {fill:#63CBE5}
    .fil3 {fill:#EBE5DF}
    .fil1 {fill:#333333;fill-rule:nonzero}
   ]]>
  </style>
 </defs>
 <g id="Layer_x0020_1">
  <metadata id="CorelCorpID_0Corel-Layer"/>
  <g id="_431822688">
   <rect id="_431822376" class="fil0" width="6.82666" height="6.82666"/>
   <rect id="_431822952" class="fil0" x="0.853331" y="0.853331" width="5.12" height="5.12"/>
  </g>
  <path class="fil1" d="M5.73275 4.43152l-1.53722 -1.98913 -0.0225039 -0.065 0 -0.000531496 0 -0.0441654 0.031252 -0.031252 0.288701 -0.288701 0.000208661 0.000208661 0.000377953 -0.00038189c0.0252008,-0.0255039 0.0378268,-0.0590236 0.0378031,-0.0924724 -2.3622e-005,-0.0329606 -0.0126457,-0.0660551 -0.0379173,-0.0913268l0.000208661 -0.000208661 -0.000795276 -0.000787402 -0.000417323 -0.000417323 -0.536713 -0.537394c-0.148673,-0.148618 -0.343689,-0.22287 -0.538831,-0.22287 -0.195291,0 -0.390476,0.0743425 -0.539268,0.222878l-0.536815 0.537386 0 0.000417323 -7.87402e-006 7.87402e-006c-0.0252953,0.0252953 -0.0379449,0.0588425 -0.0379449,0.0924764 0,0.0336339 0.0126496,0.0671811 0.0379449,0.0924764l7.87402e-006 7.87402e-006 0 0.000417323 0.283783 0.284354 0.000208661 -0.000208661 0.000531496 0.000531496 0.0661457 0.0661457 -0.0573976 0.0742717 -1.5404 1.99327c-0.0359331,0.0465591 -0.0145512,0.12126 0.0336024,0.192807 0.0265039,0.0393858 0.0606102,0.0767441 0.0988622,0.10889 0.037752,0.0317244 0.0795,0.0582362 0.121835,0.076374 0.0724764,0.0310551 0.143909,0.0351732 0.185465,-0.0112047l0 -0.000417323 0.692563 -0.770906 0.185417 0.0675 0.060122 1.54082c0.00126772,0.0347441 0.0161575,0.0656299 0.0393898,0.0878386 0.0236181,0.0225827 0.0560551,0.0363386 0.0918937,0.0363386l0.703508 0c-0.000559055,-0.109193 -0.00180709,-0.251146 -0.00334252,-0.425598 -0.00631496,-0.718165 -0.0169134,-1.92344 0.00183858,-2.46623l-0.00015748 -0.208591 -0.000417323 0c0,-0.0477835 -0.107157,-0.0417402 -0.233752,-0.147394 -0.200465,-0.167299 -0.442594,-0.36937 -0.476673,-0.403476 -0.0517559,-0.0522008 -0.077437,-0.120193 -0.0772835,-0.188154 0.000153543,-0.0682362 0.0261732,-0.136366 0.077815,-0.188409l0.000417323 -0.000417323c0.315114,-0.314406 0.541953,-0.489441 0.793768,-0.499055 0.251854,-0.00962205 0.499374,0.147949 0.85048,0.499055l0 0.000417323c0.0519567,0.0523976 0.077937,0.120429 0.077937,0.188268 0,0.0678228 -0.0259764,0.135862 -0.077937,0.188295l-0.0075 0.00666535 -0.714315 0.593469 0.00227953 3.05116 0.711606 0c0.0355,0 0.067626,-0.013626 0.0909528,-0.0359921 0.023374,-0.0224134 0.038378,-0.0534252 0.0396457,-0.088185l0.0592126 -1.53463 0.185417 -0.0675 0.686791 0.764717 0 0.000417323c0.0417953,0.0467323 0.113701,0.0424016 0.186472,0.0109409 0.0418504,-0.0180945 0.0834764,-0.0446969 0.121457,-0.0766693 0.0375827,-0.0316339 0.0714685,-0.0688976 0.0982717,-0.108661 0.048063,-0.0712992 0.0693976,-0.145756 0.0334134,-0.192059l0 -0.000417323zm-1.31172 -2.04516l1.47985 1.9149 0.000200787 -0.00015748c0.102252,0.131579 0.0719134,0.298177 -0.0250748,0.442059 -0.0367953,0.0545827 -0.0844882,0.106728 -0.138272,0.152 -0.0533819,0.0449409 -0.112961,0.0827913 -0.173961,0.109165 -0.152909,0.0661142 -0.31476,0.0632047 -0.42876,-0.0640433l-0.000208661 0.000188976 -0.511508 -0.569547 -0.0490787 1.27196c-0.00338189,0.092622 -0.0429764,0.174874 -0.104646,0.234012 -0.0622244,0.0596614 -0.146512,0.096 -0.238457,0.096l-0.711449 0 -0.106331 0 -0.106669 0 -0.703823 0c-0.0922244,0 -0.176476,-0.0361496 -0.238563,-0.0955118 -0.0620748,-0.0593425 -0.101835,-0.141783 -0.105224,-0.2345l-0.049878 -1.27833 -0.51739 0.575913 -0.000208661 -0.000188976c-0.113827,0.126823 -0.274748,0.130346 -0.426917,0.0651417 -0.0610394,-0.0261535 -0.121055,-0.0642244 -0.175173,-0.109705 -0.0536142,-0.0450551 -0.101516,-0.0975669 -0.138862,-0.153063 -0.0965472,-0.143461 -0.12678,-0.309614 -0.0252638,-0.441138l1.48324 -1.91931 -0.218409 -0.218846 -0.000208661 0.000208661 -7.87402e-006 -7.87402e-006c-0.0669685,-0.0669685 -0.100449,-0.155193 -0.100449,-0.243311 0,-0.0881181 0.0334803,-0.176343 0.100449,-0.243311l7.87402e-006 -7.87402e-006 0.000208661 0.000208661 0.536992 -0.537567 0.000417323 -0.000417323c0.190516,-0.190217 0.439992,-0.285409 0.689299,-0.285409 0.249205,0 0.498504,0.0950866 0.68887,0.285409l0.000417323 0.000417323 0.536732 0.537417 0.000944882 0.000937008 0.000417323 0c0.066378,0.066378 0.0995197,0.154165 0.0995866,0.242161 6.69291e-005,0.0875079 -0.0328701,0.175083 -0.0986378,0.241638l-0.000417323 0.000417323 -0.00100394 0.00100787 0 0.000417323 -0.222787 0.222787zm-1.21384 -0.0379449c0.0763268,0.0636969 0.147327,0.122933 0.20211,0.173472l0.680776 -0.565602c0.00903543,-0.010126 0.0135669,-0.0231339 0.0135669,-0.036311 0,-0.0139449 -0.0050748,-0.0277087 -0.0152244,-0.0380591l-0.000208661 0.000208661c-0.306374,-0.306374 -0.509567,-0.444358 -0.692142,-0.437386 -0.182539,0.0069685 -0.373811,0.160571 -0.650949,0.437063 -0.0106535,0.0107874 -0.0160197,0.024626 -0.0160512,0.038315 -3.14961e-005,0.013811 0.00516142,0.0276102 0.0156142,0.0381535 0.0250079,0.0250276 0.26435,0.224772 0.462508,0.390146z"/>
  <path class="fil2" d="M2.34081 1.82778l0 0zm0 0.184953l0 0zm1.17641 0.695673l0.00227953 3.05116 0.711606 0c0.0355,0 0.067626,-0.013626 0.0909528,-0.0359921 0.023374,-0.0224134 0.038378,-0.0534252 0.0396457,-0.088185l0.0592126 -1.53463 0.185417 -0.0675 0.686791 0.764717 0 0.000417323c0.0417953,0.0467323 0.113701,0.0424016 0.186472,0.0109409 0.0418504,-0.0180945 0.0834764,-0.0446969 0.121457,-0.0766693 0.0375827,-0.0316339 0.0714685,-0.0688976 0.0982717,-0.108661 0.048063,-0.0712992 0.0693976,-0.145756 0.0334134,-0.192059l0 -0.000417323 -1.53722 -1.98913 -0.0225039 -0.065 0 -0.000531496 0 -0.0441654 0.031252 -0.031252 0.288701 -0.288701 0.000208661 0.000208661 0.000377953 -0.00038189c0.0252008,-0.0255039 0.0378268,-0.0590236 0.0378031,-0.0924724 -2.3622e-005,-0.0329606 -0.0126457,-0.0660551 -0.0379173,-0.0913268l0.000208661 -0.000208661 -0.000795276 -0.000787402 -0.000417323 -0.000417323 -0.536713 -0.537394c-0.148673,-0.148618 -0.343689,-0.22287 -0.538831,-0.22287 -0.195291,0 -0.390476,0.0743425 -0.539268,0.222878l-0.536815 0.537386 -7.87402e-006 0.000425197c-0.0252953,0.0252953 -0.0379449,0.0588425 -0.0379449,0.0924764 0,0.0336339 0.0126496,0.0671811 0.0379528,0.0924843l0 0.000417323 0.283783 0.284354 0.000208661 -0.000208661 0.000531496 0.000531496 0.0661457 0.0661457 -0.0573976 0.0742717 -1.5404 1.99327c-0.0359331,0.0465591 -0.0145512,0.12126 0.0336024,0.192807 0.0265039,0.0393858 0.0606102,0.0767441 0.0988622,0.10889 0.037752,0.0317244 0.0795,0.0582362 0.121835,0.076374 0.0724764,0.0310551 0.143909,0.0351732 0.185465,-0.0112047l0 -0.000417323 0.692563 -0.770906 0.185417 0.0675 0.060122 1.54082c0.00126772,0.0347441 0.0161575,0.0656299 0.0393898,0.0878386 0.0236181,0.0225827 0.0560551,0.0363386 0.0918937,0.0363386l0.703508 0c-0.000559055,-0.109193 -0.00180709,-0.251146 -0.00334252,-0.425598 -0.00631496,-0.718165 -0.0169134,-1.92344 0.00183858,-2.46623l-0.00015748 -0.208591 -0.000417323 0c0,-0.0477835 -0.107157,-0.0417402 -0.233752,-0.147394 -0.200465,-0.167299 -0.442594,-0.36937 -0.476673,-0.403476 -0.0517559,-0.0522008 -0.077437,-0.120193 -0.0772835,-0.188154 0.000153543,-0.0682362 0.0261732,-0.136366 0.077815,-0.188409l0.000417323 -0.000417323c0.315114,-0.314406 0.541953,-0.489441 0.793768,-0.499055 0.251854,-0.00962205 0.499374,0.147949 0.85048,0.499055l0 0.000417323c0.0519567,0.0523976 0.077937,0.120429 0.077937,0.188268 0,0.0678228 -0.0259764,0.135862 -0.077937,0.188295l-0.0075 0.00666535 -0.714315 0.593469z"/>
  <path class="fil3" d="M3.4093 2.52189l0.680776 -0.565602c0.00903543,-0.010126 0.0135669,-0.0231339 0.0135669,-0.036311 0,-0.0139449 -0.0050748,-0.0277087 -0.0152244,-0.0380591l-0.000208661 0.000208661c-0.306374,-0.306374 -0.509567,-0.444358 -0.692142,-0.437386 -0.182539,0.0069685 -0.373811,0.160571 -0.650949,0.437063 -0.0106535,0.0107874 -0.0160197,0.024626 -0.0160512,0.038315 -3.14961e-005,0.013811 0.00516142,0.0276102 0.0156142,0.0381535 0.0250079,0.0250276 0.26435,0.224772 0.462508,0.390146 0.0763268,0.0636969 0.147327,0.122933 0.20211,0.173472z"/>
 </g>
</svg>
