<?xml version="1.0" encoding="UTF-8"?>
<!DOCTYPE svg PUBLIC "-//W3C//DTD SVG 1.1//EN" "http://www.w3.org/Graphics/SVG/1.1/DTD/svg11.dtd">
<!-- Creator: CorelDRAW -->
<svg xmlns="http://www.w3.org/2000/svg" xml:space="preserve" width="6.82666in" height="6.82666in" style="shape-rendering:geometricPrecision; text-rendering:geometricPrecision; image-rendering:optimizeQuality; fill-rule:evenodd; clip-rule:evenodd"
viewBox="0 0 6.82666 6.82666"
 xmlns:xlink="http://www.w3.org/1999/xlink">
 <defs>
  <style type="text/css">
   <![CDATA[
    .fil0 {fill:none}
    .fil2 {fill:#AED581}
    .fil4 {fill:#EBE5DF}
    .fil3 {fill:#F45A52}
    .fil5 {fill:#FECA5F}
    .fil1 {fill:#333333;fill-rule:nonzero}
   ]]>
  </style>
 </defs>
 <g id="Layer_x0020_1">
  <metadata id="CorelCorpID_0Corel-Layer"/>
  <g id="_431816064">
   <rect id="_431816352" class="fil0" width="6.82666" height="6.82666"/>
   <rect id="_431816112" class="fil0" x="0.853331" y="0.853331" width="5.12" height="5.12"/>
  </g>
  <g id="_431823288">
   <g>
    <path id="_431816088" class="fil1" d="M1.83407 2.36197l1.27426 0c0.0589094,0 0.106669,0.0477598 0.106669,0.106669l0 3.39803c0,0.0589094 -0.0477598,0.106669 -0.106669,0.106669l-1.27426 0c-0.0589094,0 -0.106669,-0.0477598 -0.106669,-0.106669l0 -3.39803c0,-0.0589094 0.0477598,-0.106669 0.106669,-0.106669zm1.16759 0.213339l-1.06092 0 0 3.18469 1.06092 0 0 -3.18469z"/>
    <polygon id="_431816736" class="fil1" points="2.57787,2.04389 2.57787,2.46864 2.36453,2.46864 2.36453,2.04389 "/>
    <path id="_431816280" class="fil1" d="M2.54721 0.900413c0.313846,0.463819 0.359512,0.800583 0.289886,1.0058 -0.061811,0.182173 -0.208268,0.270134 -0.358193,0.266811 -0.14628,-0.00324803 -0.293665,-0.0949213 -0.362945,-0.27215 -0.0820433,-0.209874 -0.0512087,-0.548539 0.254583,-1.00046l0.0883346 -0.130543 0.0883346 0.130543zm0.0882165 0.937469c0.0452047,-0.133232 0.0147598,-0.356102 -0.176063,-0.678469 -0.178402,0.308748 -0.197831,0.529004 -0.145075,0.663957 0.0349961,0.0895236 0.103118,0.135693 0.16878,0.13715 0.0620315,0.00137402 0.124008,-0.0390866 0.152358,-0.122638z"/>
    <path id="_431823840" class="fil1" d="M1.87574 2.79548c0.151429,0.0645787 0.324705,0.0985787 0.521626,0.0994331 0.201512,0.000874016 0.428276,-0.0329094 0.682217,-0.104016l0.0575039 0.205c-0.272354,0.0762598 -0.518594,0.112484 -0.740555,0.11152 -0.226559,-0.000984252 -0.427276,-0.040685 -0.604122,-0.116102l0.0833307 -0.195835z"/>
   </g>
   <path id="_431824080" class="fil1" d="M3.71833 2.36197l1.27426 0c0.0589094,0 0.106669,0.0477598 0.106669,0.106669l0 3.39803c0,0.0589094 -0.0477598,0.106669 -0.106669,0.106669l-1.27426 0c-0.0589094,0 -0.106669,-0.0477598 -0.106669,-0.106669l0 -3.39803c0,-0.0589094 0.0477598,-0.106669 0.106669,-0.106669zm1.16759 0.213339l-1.06092 0 0 3.18469 1.06092 0 0 -3.18469z"/>
   <polygon id="_431824056" class="fil1" points="4.46213,2.04389 4.46213,2.46864 4.24879,2.46864 4.24879,2.04389 "/>
   <path id="_431824008" class="fil1" d="M4.43146 0.900413c0.313846,0.463819 0.359512,0.800583 0.289886,1.0058 -0.061811,0.182173 -0.208268,0.270134 -0.358193,0.266811 -0.14628,-0.00324803 -0.293665,-0.0949213 -0.362945,-0.27215 -0.0820433,-0.209874 -0.0512087,-0.548539 0.254583,-1.00046l0.0883307 -0.130543 0.0883386 0.130543zm0.0882165 0.937469c0.0452047,-0.133232 0.0147598,-0.356102 -0.176063,-0.678469 -0.178402,0.308752 -0.197831,0.529004 -0.145075,0.663957 0.0349961,0.0895236 0.103118,0.135693 0.16878,0.13715 0.0620315,0.00137402 0.124008,-0.0390866 0.152358,-0.122638z"/>
   <path id="_431823960" class="fil1" d="M3.75999 2.79548c0.151429,0.0645787 0.324709,0.0985787 0.521626,0.0994331 0.201516,0.000874016 0.428276,-0.0329094 0.682217,-0.104016l0.0575039 0.205c-0.272354,0.0762598 -0.518591,0.112484 -0.740555,0.11152 -0.226555,-0.000984252 -0.427276,-0.040685 -0.604122,-0.116102l0.0833307 -0.195835z"/>
  </g>
  <path class="fil2" d="M3.00166 5.76l0 -2.72896c-0.219205,0.0522638 -0.420563,0.0771772 -0.605134,0.076374 -0.165457,-0.000720472 -0.31713,-0.0220866 -0.455787,-0.0629331l0 2.71552 1.06092 0z"/>
  <path class="fil3" d="M3.825 3.04448l0 2.71552 1.06092 0 0 -2.72896c-0.219201,0.0522638 -0.420559,0.0771772 -0.605134,0.076374 -0.165453,-0.000720472 -0.317126,-0.0220866 -0.455787,-0.0629331z"/>
  <path class="fil4" d="M2.39736 2.89491c0.180673,0.000783465 0.381642,-0.0262913 0.604299,-0.0831496l0 -0.236453 -1.06092 0 0 0.245528c0.135492,0.0481063 0.287319,0.0733386 0.456622,0.0740748z"/>
  <path class="fil4" d="M3.825 2.57531l0 0.245528c0.135492,0.0481063 0.287319,0.0733386 0.456622,0.0740748 0.180673,0.000783465 0.381642,-0.0262913 0.604299,-0.0831496l0 -0.236453 -1.06092 0z"/>
  <path class="fil5" d="M2.63543 1.83788c0.0452047,-0.133232 0.0147598,-0.356102 -0.176063,-0.678469 -0.178402,0.308748 -0.197831,0.529004 -0.145075,0.663957 0.0349961,0.0895236 0.103118,0.135693 0.16878,0.13715 0.0620315,0.00137402 0.124008,-0.0390866 0.152358,-0.122638z"/>
  <path class="fil5" d="M4.34362 1.15941c-0.178402,0.308752 -0.197831,0.529004 -0.145075,0.663957 0.0349961,0.0895236 0.103118,0.135693 0.16878,0.13715 0.0620315,0.00137402 0.124008,-0.0390866 0.152358,-0.122638 0.0452047,-0.133232 0.0147598,-0.356102 -0.176063,-0.678469z"/>
 </g>
</svg>
