<?xml version="1.0" encoding="UTF-8"?>
<!DOCTYPE svg PUBLIC "-//W3C//DTD SVG 1.1//EN" "http://www.w3.org/Graphics/SVG/1.1/DTD/svg11.dtd">
<!-- Creator: CorelDRAW -->
<svg xmlns="http://www.w3.org/2000/svg" xml:space="preserve" width="6.82666in" height="6.82666in" style="shape-rendering:geometricPrecision; text-rendering:geometricPrecision; image-rendering:optimizeQuality; fill-rule:evenodd; clip-rule:evenodd"
viewBox="0 0 6.82666 6.82666"
 xmlns:xlink="http://www.w3.org/1999/xlink">
 <defs>
  <style type="text/css">
   <![CDATA[
    .fil0 {fill:none}
    .fil2 {fill:#949494}
    .fil1 {fill:#333333;fill-rule:nonzero}
   ]]>
  </style>
 </defs>
 <g id="Layer_x0020_1">
  <metadata id="CorelCorpID_0Corel-Layer"/>
  <g id="_431818128">
   <rect id="_431818344" class="fil0" width="6.82666" height="6.82666"/>
   <rect id="_431817792" class="fil0" x="0.853331" y="0.853331" width="5.12" height="5.12"/>
  </g>
  <g id="_431816856">
   <g>
    <path id="_431818152" class="fil1" d="M3.72745 4.8693c0.0675118,0.0809567 0.13689,0.127528 0.208126,0.139476 0.0780118,0.0130827 0.165984,-0.0146654 0.263953,-0.0835157l0.061252 -0.0195866 0.213335 0 0.0304173 0.00458661c0.4215,0.126449 0.768567,0.159819 1.00161,0.115906 0.0980197,-0.0184685 0.172055,-0.0498819 0.218374,-0.0928307 0.037622,-0.0348819 0.0564094,-0.0800945 0.0535591,-0.134539 -0.00334646,-0.0638898 -0.0331732,-0.141315 -0.0926732,-0.231591l-1.14088 -0.414862 -0.0704173 -0.0256063 0 -0.0743937 0 -2.20026c-0.149469,-0.0510433 -0.263626,-0.0722717 -0.374827,-0.0697087 -0.110315,0.00254331 -0.224429,0.0290709 -0.371835,0.0735354l0 3.01339zm0.173126 0.349476c-0.13426,-0.0225197 -0.255697,-0.105638 -0.364378,-0.248937l-0.0220866 -0.0641654 0 -3.12823 0 -0.0780079 0.0750039 -0.0236575c0.20176,-0.063626 0.35013,-0.102311 0.506004,-0.105902 0.156358,-0.00360236 0.311232,0.0289016 0.522744,0.107984l0.0695866 0.0260197 0 0.073563 0 2.20051 1.10292 0.401059 0.0508307 0.038748c0.0956811,0.135839 0.143626,0.260236 0.149386,0.370205 0.00635039,0.121209 -0.0361142,0.222449 -0.121063,0.301209 -0.076248,0.0706969 -0.186138,0.120146 -0.324209,0.146161 -0.261606,0.0492953 -0.638469,0.0161929 -1.08618,-0.116319l-0.166098 0c-0.135362,0.0877913 -0.266181,0.120945 -0.392461,0.0997638z"/>
    <path id="_431817480" class="fil1" d="M4.67578 1.98494c-0.0741811,0.148354 -0.182602,0.253307 -0.305224,0.314618 -0.086063,0.0430315 -0.178157,0.0645512 -0.269772,0.0645512 -0.0916181,0 -0.183705,-0.0215197 -0.269776,-0.0645472 -0.122622,-0.061311 -0.231047,-0.166268 -0.305228,-0.314622l0.19 -0.095c0.0524291,0.104858 0.126984,0.178 0.210228,0.219622 0.0549449,0.0274685 0.11463,0.0412087 0.174776,0.0412087 0.0601457,0 0.119827,-0.0137402 0.174772,-0.0412126 0.0832441,-0.041622 0.157795,-0.11476 0.210224,-0.219618l0.19 0.095z"/>
   </g>
   <g>
    <path id="_431817384" class="fil1" d="M3.29046 4.96984c-0.108681,0.143299 -0.230118,0.226417 -0.364378,0.248937 -0.12628,0.0211811 -0.257098,-0.0119724 -0.392461,-0.0997638l-0.166098 0c-0.447709,0.132512 -0.824571,0.165614 -1.08618,0.116319 -0.138071,-0.0260157 -0.247961,-0.0754646 -0.324209,-0.146161 -0.0849488,-0.0787598 -0.127413,-0.18 -0.121063,-0.301209 0.00575984,-0.109969 0.0537047,-0.234366 0.149386,-0.370205l0.0508307 -0.038748 1.10292 -0.401059 0 -2.20051 0 -0.073563 0.0695866 -0.0260197c0.211512,-0.0790827 0.366386,-0.111587 0.522744,-0.107984 0.155874,0.00359055 0.304244,0.0422756 0.506004,0.105902l0.0750039 0.0236575 0 0.0780079 0 3.12823 -0.0220866 0.0641654zm-0.399378 0.038937c0.0712362,-0.0119488 0.140614,-0.0585197 0.208126,-0.139476l0 -3.01339c-0.147406,-0.0444646 -0.26152,-0.0709921 -0.371835,-0.0735354 -0.111201,-0.00256299 -0.225358,0.0186654 -0.374827,0.0697087l0 2.20026 0 0.0743937 -0.0704173 0.0256063 -1.14088 0.414862c-0.0595,0.0902756 -0.0893268,0.167701 -0.0926732,0.231591 -0.00285039,0.0544449 0.015937,0.0996575 0.0535591,0.134539 0.0463189,0.0429488 0.120354,0.0743622 0.218374,0.0928307 0.233047,0.0439134 0.580114,0.0105433 1.00161,-0.115906l0.0304173 -0.00458661 0.213335 0 0.061252 0.0195866c0.0979685,0.0688504 0.185941,0.0965984 0.263953,0.0835157z"/>
    <path id="_431817336" class="fil1" d="M2.34087 1.88994c0.0524291,0.104858 0.12698,0.177996 0.210224,0.219618 0.0549449,0.0274724 0.114626,0.0412126 0.174772,0.0412126 0.0601457,0 0.119831,-0.0137402 0.174776,-0.0412087 0.0832441,-0.041622 0.157799,-0.114764 0.210228,-0.219622l0.19 0.095c-0.0741811,0.148354 -0.182606,0.253311 -0.305228,0.314622 -0.0860709,0.0430276 -0.178157,0.0645472 -0.269776,0.0645472 -0.0916142,0 -0.183709,-0.0215197 -0.269772,-0.0645512 -0.122622,-0.061311 -0.231043,-0.166264 -0.305224,-0.314618l0.19 -0.095z"/>
   </g>
  </g>
  <path class="fil2" d="M2.72587 2.36411c-0.0916142,0 -0.183709,-0.0215197 -0.269772,-0.0645512 -0.0359016,-0.0179528 -0.0705906,-0.0396457 -0.103555,-0.0650748l0 1.81786 0 0.0743937 -0.0704173 0.0256063 -1.14088 0.414862c-0.0595,0.0902756 -0.0893268,0.167701 -0.0926732,0.231591 -0.00285039,0.0544449 0.015937,0.0996575 0.0535591,0.134539 0.0463189,0.0429488 0.120354,0.0743622 0.218374,0.0928307 0.233047,0.0439134 0.580114,0.0105433 1.00161,-0.115906l0.0304173 -0.00458661 0.213335 0 0.061252 0.0195866c0.0979685,0.0688504 0.185941,0.0965984 0.263953,0.0835157 0.0712362,-0.0119488 0.140614,-0.0585197 0.208126,-0.139476l0 -2.63481c-0.0329685,0.0254291 -0.0676535,0.047122 -0.103559,0.0650748 -0.0860709,0.0430276 -0.178157,0.0645472 -0.269776,0.0645472z"/>
  <path class="fil2" d="M2.5511 2.10956c0.0549449,0.0274724 0.114626,0.0412126 0.174772,0.0412126 0.0601457,0 0.119831,-0.0137402 0.174776,-0.0412087 0.077248,-0.038622 0.147012,-0.10439 0.198559,-0.197457l0 -0.056189c-0.147406,-0.0444646 -0.26152,-0.0709921 -0.371835,-0.0735354 -0.111201,-0.00256299 -0.225358,0.0186654 -0.374827,0.0697087l0 0.0600157c0.0515433,0.0930669 0.121307,0.158831 0.198555,0.197453z"/>
  <path class="fil2" d="M3.72745 1.9121c0.0515472,0.0930669 0.121311,0.158835 0.198559,0.197457 0.0549449,0.0274685 0.11463,0.0412087 0.174776,0.0412087 0.0601457,0 0.119827,-0.0137402 0.174772,-0.0412126 0.077248,-0.038622 0.147008,-0.104386 0.198555,-0.197453l0 -0.0600157c-0.149469,-0.0510433 -0.263626,-0.0722717 -0.374827,-0.0697087 -0.110315,0.00254331 -0.224429,0.0290709 -0.371835,0.0735354l0 0.056189z"/>
  <path class="fil2" d="M4.10079 2.36411c-0.0916181,0 -0.183705,-0.0215197 -0.269776,-0.0645472 -0.0359055,-0.0179528 -0.0705906,-0.0396457 -0.103559,-0.0650748l0 2.63481c0.0675118,0.0809567 0.13689,0.127528 0.208126,0.139476 0.0780118,0.0130827 0.165984,-0.0146654 0.263953,-0.0835157l0.061252 -0.0195866 0.213335 0 0.0304173 0.00458661c0.4215,0.126449 0.768567,0.159819 1.00161,0.115906 0.0980197,-0.0184685 0.172055,-0.0498819 0.218374,-0.0928307 0.037622,-0.0348819 0.0564094,-0.0800945 0.0535591,-0.134539 -0.00334646,-0.0638898 -0.0331732,-0.141315 -0.0926732,-0.231591l-1.14088 -0.414862 -0.0704173 -0.0256063 0 -0.0743937 0 -1.81786c-0.0329646,0.0254291 -0.0676496,0.047122 -0.103555,0.0650748 -0.086063,0.0430315 -0.178157,0.0645512 -0.269772,0.0645512z"/>
 </g>
</svg>
