<?xml version="1.0" encoding="UTF-8"?>
<!DOCTYPE svg PUBLIC "-//W3C//DTD SVG 1.1//EN" "http://www.w3.org/Graphics/SVG/1.1/DTD/svg11.dtd">
<!-- Creator: CorelDRAW -->
<svg xmlns="http://www.w3.org/2000/svg" xml:space="preserve" width="6.82666in" height="6.82666in" style="shape-rendering:geometricPrecision; text-rendering:geometricPrecision; image-rendering:optimizeQuality; fill-rule:evenodd; clip-rule:evenodd"
viewBox="0 0 6.82666 6.82666"
 xmlns:xlink="http://www.w3.org/1999/xlink">
 <defs>
  <style type="text/css">
   <![CDATA[
    .fil0 {fill:none}
    .fil3 {fill:#B38E85}
    .fil2 {fill:#EBE5DF}
    .fil1 {fill:#333333;fill-rule:nonzero}
   ]]>
  </style>
 </defs>
 <g id="Layer_x0020_1">
  <metadata id="CorelCorpID_0Corel-Layer"/>
  <g id="_431818368">
   <rect id="_431818776" class="fil0" width="6.82666" height="6.82666"/>
   <rect id="_431818464" class="fil0" x="0.853331" y="0.853331" width="5.12" height="5.12"/>
  </g>
  <g id="_431818824">
   <path id="_431818536" class="fil1" d="M5.28079 1.37467l-2.09379 3.1269 -0.0346811 0.0517953 -0.0615709 -0.00470866 -1.42219 -0.108843 -0.539366 0.516598 0.397488 0.629441 1.89259 -0.335524 2.20155 -3.9625 -0.340039 0.0868425zm-2.23577 2.95677l2.08197 -3.10926 0.0620827 -0.0441693 0.618484 -0.157957 0.239232 -0.0610945 -0.120063 0.216094 -2.34633 4.2231 -0.0247244 0.0444921 -0.0498583 0.00884252 -2.01243 0.356768 -0.0699764 0.0124055 -0.0383583 -0.0607402 -0.482189 -0.763563 -0.0463386 -0.0733858 0.0625866 -0.0599449 0.636606 -0.609732 0.0346496 -0.033189 0.0470197 0.00360236 1.40764 0.107728z"/>
   <g>
    <path id="_431818920" class="fil1" d="M2.03223 3.76136c0.207035,0 0.396894,-0.0556063 0.548248,-0.149291 0.145524,-0.0900787 0.255169,-0.215047 0.308957,-0.358575l0 -0.403736c-0.0537795,-0.143528 -0.163429,-0.268492 -0.308957,-0.358567 -0.151358,-0.093689 -0.341213,-0.149295 -0.548248,-0.149295 -0.207028,0 -0.396882,0.0556063 -0.54824,0.149295 -0.14552,0.0900748 -0.255165,0.215047 -0.308953,0.358575l0 0.403728c0.0537874,0.143528 0.163433,0.268496 0.308953,0.358575 0.151354,0.093685 0.341213,0.149291 0.54824,0.149291zm0.659917 0.0315433c-0.184315,0.114087 -0.412996,0.181795 -0.659917,0.181795 -0.246909,0 -0.475594,-0.0677087 -0.659909,-0.181795 -0.192681,-0.119272 -0.337142,-0.289543 -0.404787,-0.487331l-0.00583465 -0.0341654 0 -0.439555 0.00583465 -0.0341654c0.0676457,-0.197787 0.212106,-0.368063 0.404787,-0.487331 0.184315,-0.114087 0.413,-0.181799 0.659909,-0.181799 0.246921,0 0.475602,0.0677126 0.659917,0.181799 0.192693,0.119268 0.33715,0.289539 0.404791,0.487331l0.00583465 0.0341654 0 0.439555 -0.00583465 0.0341654c-0.0676457,0.197787 -0.212106,0.368059 -0.404791,0.487331z"/>
    <path id="_431818392" class="fil1" d="M1.42708 3.13539c0.237803,0.199772 0.454012,0.292807 0.650689,0.289492 0.192299,-0.00324409 0.373461,-0.100343 0.544665,-0.281161l0.154165 0.146669c-0.211047,0.222898 -0.442083,0.342717 -0.6955,0.346996 -0.249024,0.00420079 -0.512098,-0.104626 -0.790689,-0.338665l0.136669 -0.163331z"/>
   </g>
  </g>
  <path class="fil2" d="M1.42708 3.13539c0.237803,0.199772 0.454012,0.292807 0.650689,0.289492 0.192299,-0.00324409 0.373461,-0.100343 0.544665,-0.281161l0.154165 0.146669c-0.211047,0.222898 -0.442083,0.342717 -0.6955,0.346996 -0.249024,0.00420079 -0.512098,-0.104626 -0.790689,-0.338665l0.136669 -0.163331zm1.46235 0.118102l0 -0.403736c-0.0537795,-0.143528 -0.163429,-0.268492 -0.308957,-0.358567 -0.151358,-0.093689 -0.341213,-0.149295 -0.548248,-0.149295 -0.207028,0 -0.396882,0.0556063 -0.54824,0.149295 -0.14552,0.0900748 -0.255165,0.215047 -0.308953,0.358575l0 0.403728c0.0537874,0.143528 0.163433,0.268496 0.308953,0.358575 0.151354,0.093685 0.341213,0.149291 0.54824,0.149291 0.207035,0 0.396894,-0.0556063 0.548248,-0.149291 0.145524,-0.0900787 0.255169,-0.215047 0.308957,-0.358575z"/>
  <polygon class="fil3" points="3.09075,4.54866 1.66856,4.43982 1.12919,4.95642 1.52668,5.58586 3.41928,5.25033 5.62083,1.28783 5.28079,1.37467 3.187,4.50157 3.15232,4.55337 "/>
 </g>
</svg>
