<?xml version="1.0" encoding="UTF-8"?>
<!DOCTYPE svg PUBLIC "-//W3C//DTD SVG 1.1//EN" "http://www.w3.org/Graphics/SVG/1.1/DTD/svg11.dtd">
<!-- Creator: CorelDRAW -->
<svg xmlns="http://www.w3.org/2000/svg" xml:space="preserve" width="6.82666in" height="6.82666in" style="shape-rendering:geometricPrecision; text-rendering:geometricPrecision; image-rendering:optimizeQuality; fill-rule:evenodd; clip-rule:evenodd"
viewBox="0 0 6.82666 6.82666"
 xmlns:xlink="http://www.w3.org/1999/xlink">
 <defs>
  <style type="text/css">
   <![CDATA[
    .fil0 {fill:none}
    .fil2 {fill:#9DD5C0}
    .fil1 {fill:#333333;fill-rule:nonzero}
   ]]>
  </style>
 </defs>
 <g id="Layer_x0020_1">
  <metadata id="CorelCorpID_0Corel-Layer"/>
  <g id="_431819520">
   <rect id="_431819928" class="fil0" width="6.82666" height="6.82666"/>
   <rect id="_431819640" class="fil0" x="0.853331" y="0.853331" width="5.12" height="5.12"/>
  </g>
  <path class="fil1" d="M2.56893 0.904516l2.52881 0c0.0906654,0 0.173972,0.0322402 0.235142,0.0841654 0.0660984,0.0561024 0.107126,0.134791 0.107126,0.2225l0 0.346677c0,0.0877087 -0.0410276,0.16639 -0.107126,0.2225 -0.0611693,0.0519252 -0.14448,0.0841654 -0.235142,0.0841654l-2.52881 0c-0.0906614,0 -0.173972,-0.0322402 -0.235142,-0.0841654 -0.0660984,-0.0561102 -0.107126,-0.134791 -0.107126,-0.2225l0 -0.346677c0,-0.0877087 0.0410315,-0.166398 0.107122,-0.2225 0.0611772,-0.0519291 0.144484,-0.0841654 0.235146,-0.0841654zm2.52881 0.213339l-2.52881 0c-0.0389134,0 -0.0734173,0.0127677 -0.0976417,0.0333307 -0.0193031,0.0163858 -0.0312874,0.0377087 -0.0312874,0.0599961l0 0.346677c0,0.0222874 0.0119843,0.0436063 0.0312913,0.0599961 0.0242205,0.020563 0.0587244,0.0333307 0.0976378,0.0333307l2.52881 0c0.0389134,0 0.0734173,-0.0127677 0.0976378,-0.0333307 0.0193071,-0.0163898 0.0312913,-0.0377087 0.0312913,-0.0599961l0 -0.346677c0,-0.0222874 -0.0119882,-0.0436102 -0.0312913,-0.0599961 -0.0242205,-0.020563 -0.0587244,-0.0333307 -0.0976378,-0.0333307z"/>
  <path class="fil1" d="M2.83457 1.65119l2.0721 0c0.0589094,0 0.106669,0.0477598 0.106669,0.106669l0 2.05943c0,0.0317835 -0.0139055,0.060315 -0.0359646,0.0798583 -0.312031,0.320402 -0.632634,0.63176 -0.95935,0.936602 -0.326661,0.304787 -0.662496,0.60576 -1.00384,0.904413 -0.275728,0.241244 -0.643067,0.186276 -0.959043,-0.0133268 -0.116449,-0.0735591 -0.225772,-0.166697 -0.320028,-0.271161 -0.0942598,-0.104472 -0.17448,-0.221634 -0.23274,-0.34326 -0.149236,-0.311531 -0.15339,-0.647984 0.109839,-0.884874l1.11569 -1.00403 0 -1.46366c0,-0.0589094 0.0477598,-0.106669 0.106669,-0.106669zm1.96543 0.213339l-1.85876 0 0 1.40428 -7.87402e-006 0c-7.87402e-006,0.0291772 -0.0119134,0.0582362 -0.0353071,0.0792874l-0.000106299 -0.00011811 -1.15111 1.0359c-0.179913,0.161913 -0.170843,0.40489 -0.0606732,0.634874 0.0487795,0.101831 0.117543,0.201697 0.199402,0.292425 0.0818661,0.0907323 0.175835,0.171004 0.275028,0.233665 0.241228,0.152382 0.513768,0.201268 0.705713,0.0333268 0.336047,-0.294016 0.669563,-0.593016 0.998843,-0.900248 0.316583,-0.29539 0.626445,-0.595933 0.926976,-0.903594l0 -1.9098z"/>
  <path class="fil2" d="M2.83457 1.65119l2.0721 0 0.191067 0c0.0389134,0 0.0734173,-0.0127677 0.0976378,-0.0333307 0.0193071,-0.0163898 0.0312913,-0.0377087 0.0312913,-0.0599961l0 -0.346677c0,-0.0222874 -0.0119882,-0.0436102 -0.0312913,-0.0599961 -0.0242205,-0.020563 -0.0587244,-0.0333307 -0.0976378,-0.0333307l-2.52881 0c-0.0389134,0 -0.0734173,0.0127677 -0.0976417,0.0333307 -0.0193031,0.0163858 -0.0312874,0.0377087 -0.0312874,0.0599961l0 0.346677c0,0.0222874 0.0119843,0.0436063 0.0312913,0.0599961 0.0242205,0.020563 0.0587244,0.0333307 0.0976378,0.0333307l0.265642 0z"/>
  <path class="fil2" d="M2.94123 3.2688l0 0zm1.85877 -1.40428l-1.85876 0 -7.87402e-006 1.40428c-7.87402e-006,0.0291772 -0.0119134,0.0582362 -0.0353071,0.0792874l-0.000106299 -0.00011811 -1.15111 1.0359c-0.179913,0.161913 -0.170843,0.40489 -0.0606732,0.634874 0.0487795,0.101831 0.117543,0.201697 0.199402,0.292425 0.0818661,0.0907323 0.175835,0.171004 0.275028,0.233665 0.241228,0.152382 0.513768,0.201268 0.705713,0.0333268 0.336047,-0.294016 0.669563,-0.593016 0.998843,-0.900248 0.316583,-0.29539 0.626445,-0.595933 0.926976,-0.903594l0 -1.9098z"/>
 </g>
</svg>
