<?xml version="1.0" encoding="UTF-8"?>
<!DOCTYPE svg PUBLIC "-//W3C//DTD SVG 1.1//EN" "http://www.w3.org/Graphics/SVG/1.1/DTD/svg11.dtd">
<!-- Creator: CorelDRAW -->
<svg xmlns="http://www.w3.org/2000/svg" xml:space="preserve" width="6.82666in" height="6.82666in" style="shape-rendering:geometricPrecision; text-rendering:geometricPrecision; image-rendering:optimizeQuality; fill-rule:evenodd; clip-rule:evenodd"
viewBox="0 0 6.82666 6.82666"
 xmlns:xlink="http://www.w3.org/1999/xlink">
 <defs>
  <style type="text/css">
   <![CDATA[
    .fil0 {fill:none}
    .fil2 {fill:#F19A7B}
    .fil3 {fill:#FECA5F}
    .fil1 {fill:#333333;fill-rule:nonzero}
   ]]>
  </style>
 </defs>
 <g id="Layer_x0020_1">
  <metadata id="CorelCorpID_0Corel-Layer"/>
  <g id="_431821416">
   <rect id="_431821680" class="fil0" width="6.82666" height="6.82666"/>
   <rect id="_431820672" class="fil0" x="0.853331" y="0.853331" width="5.12" height="5.12"/>
  </g>
  <g id="_431821296">
   <path id="_431821056" class="fil1" d="M0.96 1.91999l4.90667 0 0.106669 0 0 0.106669 0 1.17333 0 0.106669 -0.106669 0 -4.90667 0 -0.106669 0 0 -0.106669 0 -1.17333 0 -0.106669 0.106669 0zm4.8 0.213339l-4.69333 0 0 0.959996 4.69333 0 0 -0.959996z"/>
   <path id="_431821128" class="fil1" d="M1.23609 3.09333l4.35448 0 0.106669 0 0 0.106669 0 2.66667 0 0.106669 -0.106669 0 -4.35448 0 -0.106669 0 0 -0.106669 0 -2.66667 0 -0.106669 0.106669 0zm4.24781 0.213339l-4.14115 0 0 2.45333 4.14115 0 0 -2.45333z"/>
   <polygon id="_431820864" class="fil1" points="3.52,2.02666 3.52,3.2 3.30666,3.2 3.30666,2.02666 "/>
   <polygon id="_431821200" class="fil1" points="3.52,3.2 3.52,5.86666 3.30666,5.86666 3.30666,3.2 "/>
  </g>
  <path class="fil1" d="M3.88549 1.30477c0.184346,-0.089374 0.366791,-0.141693 0.512717,-0.154016 0.178764,-0.0150984 0.316083,0.0307402 0.369579,0.141079 0.0532362,0.109803 0.00393307,0.245846 -0.118803,0.37702 -0.100504,0.107409 -0.254555,0.218402 -0.438319,0.307492 -0.184346,0.089374 -0.366791,0.141693 -0.512717,0.154016 -0.17876,0.0150984 -0.316083,-0.0307402 -0.369579,-0.141079 -0.0532362,-0.109803 -0.00393307,-0.245846 0.118803,-0.37702 0.100504,-0.107409 0.254555,-0.218402 0.438319,-0.307492zm0.53022 0.0584882c-0.121965,0.0102992 -0.277516,0.0555118 -0.437717,0.133181 -0.160791,0.0779528 -0.292642,0.171925 -0.375823,0.260823 -0.0609528,0.0651457 -0.0931457,0.116799 -0.0821339,0.139516 0.010752,0.0221732 0.0712638,0.0286063 0.160406,0.0210787 0.121965,-0.0102992 0.277516,-0.0555118 0.437717,-0.133181 0.160791,-0.0779528 0.292642,-0.171925 0.375823,-0.260823 0.0609488,-0.0651417 0.0931457,-0.116799 0.0821339,-0.139516 -0.010748,-0.0221693 -0.0712677,-0.0286063 -0.160406,-0.0210787z"/>
  <path class="fil1" d="M2.84867 1.49644c-0.160201,-0.0776693 -0.315752,-0.122882 -0.437717,-0.133181 -0.0891378,-0.00752756 -0.149657,-0.00109055 -0.160406,0.0210787 -0.0110118,0.0227165 0.021185,0.074374 0.0821339,0.139516 0.0831811,0.0888976 0.215031,0.18287 0.375823,0.260823 0.160201,0.0776693 0.315752,0.122882 0.437717,0.133181 0.0891417,0.00752756 0.149654,0.00109449 0.160406,-0.0210787 0.0110118,-0.0227165 -0.0211811,-0.0743701 -0.0821339,-0.139516 -0.0831811,-0.0888976 -0.215031,-0.18287 -0.375823,-0.260823zm-0.420213 -0.345685c0.145925,0.0123228 0.32837,0.0646417 0.512717,0.154016 0.183764,0.0890906 0.337815,0.200083 0.438319,0.307492 0.122736,0.131173 0.172039,0.267217 0.118803,0.37702 -0.0534961,0.110339 -0.190819,0.156177 -0.369579,0.141079 -0.145925,-0.0123228 -0.32837,-0.0646417 -0.512717,-0.154016 -0.183764,-0.0890906 -0.337815,-0.200083 -0.438319,-0.307492 -0.122736,-0.131173 -0.172039,-0.267217 -0.118803,-0.37702 0.0534961,-0.110339 0.190815,-0.156177 0.369579,-0.141079z"/>
  <polygon class="fil2" points="3.30666,2.13333 1.06667,2.13333 1.06667,3.09333 1.12942,3.09333 1.23609,3.09333 3.30666,3.09333 "/>
  <polygon class="fil2" points="3.52,2.13333 3.52,3.09333 5.59057,3.09333 5.69724,3.09333 5.76,3.09333 5.76,2.13333 "/>
  <polygon class="fil3" points="3.30666,3.30667 1.34276,3.30667 1.34276,5.75999 3.30666,5.75999 "/>
  <polygon class="fil3" points="3.52,3.30667 3.52,5.75999 5.4839,5.75999 5.4839,3.30667 "/>
 </g>
</svg>
