<?xml version="1.0" encoding="UTF-8"?>
<!DOCTYPE svg PUBLIC "-//W3C//DTD SVG 1.1//EN" "http://www.w3.org/Graphics/SVG/1.1/DTD/svg11.dtd">
<!-- Creator: CorelDRAW -->
<svg xmlns="http://www.w3.org/2000/svg" xml:space="preserve" width="6.82666in" height="6.82666in" style="shape-rendering:geometricPrecision; text-rendering:geometricPrecision; image-rendering:optimizeQuality; fill-rule:evenodd; clip-rule:evenodd"
viewBox="0 0 6.82666 6.82666"
 xmlns:xlink="http://www.w3.org/1999/xlink">
 <defs>
  <style type="text/css">
   <![CDATA[
    .fil0 {fill:none}
    .fil2 {fill:#9DD5C0}
    .fil3 {fill:#C794BE}
    .fil1 {fill:#333333;fill-rule:nonzero}
   ]]>
  </style>
 </defs>
 <g id="Layer_x0020_1">
  <metadata id="CorelCorpID_0Corel-Layer"/>
  <g id="_298660048">
   <rect id="_298659856" class="fil0" width="6.82666" height="6.82666"/>
   <rect id="_298660000" class="fil0" x="0.853331" y="0.853331" width="5.12" height="5.12"/>
  </g>
  <g id="_431822616">
   <path id="_298659784" class="fil1" d="M0.96 1.39852l4.90666 0 0.106669 0 0 0.106669 0 0.872291 0 0.106669 -0.106669 0 -4.90666 0 -0.106669 0 0 -0.106669 0 -0.872291 0 -0.106669 0.106669 0zm4.79999 0.213339l-4.69332 0 0 0.658953 4.69332 0 0 -0.658953z"/>
   <path id="_298660216" class="fil1" d="M1.06667 5.75999l4.69332 0 0 -3.27585 -4.69332 0 0 3.27585zm4.79999 0.213339l-4.90666 0 -0.106669 0 0 -0.106669 0 -3.48919 0 -0.106669 0.106669 0 4.90666 0 0.106669 0 0 0.106669 0 3.48919 0 0.106669 -0.106669 0z"/>
   <polygon id="_431816400" class="fil1" points="1.72089,0.96 1.72089,1.94133 1.50756,1.94133 1.50756,0.96 "/>
   <polygon id="_431820432" class="fil1" points="5.31911,0.96 5.31911,1.94133 5.10577,1.94133 5.10577,0.96 "/>
   <path id="_224237432" class="fil1" d="M3.31534 4.72436l0 0.341445 -1.23707 0c0.0130669,-0.128988 0.0538268,-0.251732 0.121776,-0.368224 0.0679409,-0.116051 0.199646,-0.269142 0.39563,-0.458386 0.15522,-0.150413 0.250858,-0.252626 0.286402,-0.30574 0.0533071,-0.0776654 0.079437,-0.155772 0.079437,-0.234327 0,-0.0834646 -0.0219528,-0.146846 -0.0653268,-0.189248 -0.0439016,-0.0428465 -0.101913,-0.0642717 -0.173516,-0.0642717 -0.155744,0 -0.240406,0.0999803 -0.252425,0.299492l-0.350689 -0.0365984c0.0214331,-0.195496 0.085189,-0.338772 0.190764,-0.430268 0.105567,-0.0915 0.246157,-0.137472 0.421756,-0.137472 0.192854,0 0.338142,0.0540079 0.436398,0.16113 0.0977362,0.107118 0.146862,0.229862 0.146862,0.368669 0,0.0785551 -0.0125433,0.154433 -0.0376339,0.228079 -0.0245591,0.0736457 -0.0632362,0.147736 -0.1155,0.222276 -0.0517402,0.0745394 -0.138492,0.170051 -0.260268,0.285654 -0.113409,0.10935 -0.185008,0.181213 -0.214803,0.216028 -0.0303071,0.034811 -0.0543543,0.0687362 -0.0731654,0.101764l0.70137 0zm0.834638 -1.5836c0.178217,0 0.32298,0.0727559 0.433256,0.217815 0.110276,0.145059 0.165154,0.39902 0.165154,0.761894 0,0.361531 -0.054878,0.615051 -0.165154,0.76011 -0.110276,0.1455 -0.25452,0.217807 -0.431693,0.217807 -0.178736,0 -0.323504,-0.0718583 -0.43378,-0.215579 -0.110276,-0.14372 -0.165154,-0.399472 -0.165154,-0.766358 0,-0.360189 0.054878,-0.612815 0.165154,-0.757874 0.110276,-0.145059 0.25452,-0.217815 0.432217,-0.217815zm0 0.304846c-0.0695118,0 -0.124909,0.0392795 -0.166197,0.117835 -0.0412913,0.0785551 -0.0621969,0.264228 -0.0621969,0.557028 0,0.292791 0.0209055,0.478472 0.0621969,0.55613 0.0412874,0.0781102 0.096685,0.11739 0.166197,0.11739 0.0700276,0 0.125949,-0.0392795 0.166717,-0.117835 0.0407638,-0.0785551 0.0611496,-0.263783 0.0611496,-0.555685 0,-0.292799 -0.0203858,-0.478472 -0.0611496,-0.557028 -0.0407677,-0.0785551 -0.096689,-0.117835 -0.166717,-0.117835z"/>
  </g>
  <polygon class="fil2" points="1.06667,2.27081 5.75999,2.27081 5.75999,1.61185 5.31911,1.61185 5.31911,1.94133 5.10577,1.94133 5.10577,1.61185 1.72089,1.61185 1.72089,1.94133 1.50756,1.94133 1.50756,1.61185 1.06667,1.61185 "/>
  <path class="fil3" d="M5.75999 2.48415l-4.69332 0 0 3.27585 4.69332 0 0 -3.27585zm-1.61002 0.656618c0.178217,0 0.32298,0.0727559 0.433256,0.217815 0.110276,0.145059 0.165154,0.39902 0.165154,0.761894 0,0.361531 -0.054878,0.615051 -0.165154,0.76011 -0.110276,0.1455 -0.25452,0.217807 -0.431693,0.217807 -0.178736,0 -0.323504,-0.0718583 -0.43378,-0.215579 -0.110276,-0.14372 -0.165154,-0.399472 -0.165154,-0.766358 0,-0.360189 0.054878,-0.612815 0.165154,-0.757874 0.110276,-0.145059 0.25452,-0.217815 0.432217,-0.217815zm-0.834638 1.5836l0 0.341445 -1.23707 0c0.0130669,-0.128988 0.0538268,-0.251732 0.121776,-0.368224 0.0679409,-0.116051 0.199646,-0.269142 0.39563,-0.458386 0.15522,-0.150413 0.250858,-0.252626 0.286402,-0.30574 0.0533071,-0.0776654 0.079437,-0.155772 0.079437,-0.234327 0,-0.0834646 -0.0219528,-0.146846 -0.0653268,-0.189248 -0.0439016,-0.0428465 -0.101913,-0.0642717 -0.173516,-0.0642717 -0.155744,0 -0.240406,0.0999803 -0.252425,0.299492l-0.350689 -0.0365984c0.0214331,-0.195496 0.085189,-0.338772 0.190764,-0.430268 0.105567,-0.0915 0.246157,-0.137472 0.421756,-0.137472 0.192854,0 0.338142,0.0540079 0.436398,0.16113 0.0977362,0.107118 0.146862,0.229862 0.146862,0.368669 0,0.0785551 -0.0125433,0.154433 -0.0376339,0.228079 -0.0245591,0.0736457 -0.0632362,0.147736 -0.1155,0.222276 -0.0517402,0.0745394 -0.138492,0.170051 -0.260268,0.285654 -0.113409,0.10935 -0.185008,0.181213 -0.214803,0.216028 -0.0303071,0.034811 -0.0543543,0.0687362 -0.0731654,0.101764l0.70137 0z"/>
  <path class="fil3" d="M4.14998 3.44561c-0.0695118,0 -0.124909,0.0392795 -0.166197,0.117835 -0.0412913,0.0785551 -0.0621969,0.264228 -0.0621969,0.557028 0,0.292791 0.0209055,0.478472 0.0621969,0.55613 0.0412874,0.0781102 0.096685,0.11739 0.166197,0.11739 0.0700276,0 0.125949,-0.0392795 0.166717,-0.117835 0.0407638,-0.0785551 0.0611496,-0.263783 0.0611496,-0.555685 0,-0.292799 -0.0203858,-0.478472 -0.0611496,-0.557028 -0.0407677,-0.0785551 -0.096689,-0.117835 -0.166717,-0.117835z"/>
 </g>
</svg>
