<?xml version="1.0" encoding="UTF-8"?>
<!DOCTYPE svg PUBLIC "-//W3C//DTD SVG 1.1//EN" "http://www.w3.org/Graphics/SVG/1.1/DTD/svg11.dtd">
<!-- Creator: CorelDRAW -->
<svg xmlns="http://www.w3.org/2000/svg" xml:space="preserve" width="6.82666in" height="6.82666in" style="shape-rendering:geometricPrecision; text-rendering:geometricPrecision; image-rendering:optimizeQuality; fill-rule:evenodd; clip-rule:evenodd"
viewBox="0 0 6.82666 6.82666"
 xmlns:xlink="http://www.w3.org/1999/xlink">
 <defs>
  <style type="text/css">
   <![CDATA[
    .fil0 {fill:none}
    .fil2 {fill:#63CBE5}
    .fil1 {fill:#333333;fill-rule:nonzero}
   ]]>
  </style>
 </defs>
 <g id="Layer_x0020_1">
  <metadata id="CorelCorpID_0Corel-Layer"/>
  <g id="_298662616">
   <rect id="_298663120" class="fil0" width="6.82666" height="6.82666"/>
   <rect id="_298662688" class="fil0" x="0.853331" y="0.853331" width="5.12" height="5.12"/>
  </g>
  <polygon class="fil1" points="2.99241,1.05044 2.72939,1.31347 2.66811,1.37475 2.60683,1.31347 2.34381,1.05044 2.46636,0.92789 2.66811,1.12965 2.86986,0.92789 "/>
  <polygon class="fil1" points="2.99241,1.38822 2.72939,1.65125 2.66811,1.71253 2.60683,1.65125 2.34381,1.38822 2.46636,1.26567 2.66811,1.46742 2.86986,1.26567 "/>
  <path class="fil1" d="M2.77478 0.853327l0 1.11304 -0.213339 0 0 -1.11304 0.213339 0zm0 2.3003l0 1.11305 -0.213339 0 0 -1.11305 0.213339 0z"/>
  <polygon class="fil1" points="2.86986,4.12941 2.66811,3.92765 2.46636,4.12941 2.34381,4.00685 2.60683,3.74382 2.66811,3.68254 2.72939,3.74382 2.99241,4.00685 "/>
  <polygon class="fil1" points="2.86986,3.79163 2.66811,3.58987 2.46636,3.79163 2.34381,3.66907 2.60683,3.40605 2.66811,3.34477 2.72939,3.40605 2.99241,3.66907 "/>
  <polygon class="fil1" points="4.13766,2.08599 3.77835,1.98972 3.69469,1.9673 3.71707,1.88375 3.81335,1.52445 3.98059,1.56914 3.9067,1.84489 4.18234,1.91875 "/>
  <polygon class="fil1" points="3.84513,2.25488 3.48583,2.1586 3.40217,2.13619 3.42455,2.05264 3.52083,1.69334 3.68807,1.73802 3.61418,2.01378 3.88982,2.08763 "/>
  <path class="fil1" d="M4.19905 1.79874l-0.963925 0.55652 -0.105835 -0.184165 0.963925 -0.55652 0.105835 0.184165zm-1.9917 1.15015l-0.963921 0.556524 -0.106669 -0.184165 0.963921 -0.556524 0.106669 0.184165z"/>
  <polygon class="fil1" points="1.40992,3.51951 1.48381,3.24375 1.20817,3.1699 1.25286,3.00265 1.61216,3.09893 1.69583,3.12135 1.67344,3.20489 1.57716,3.56419 "/>
  <polygon class="fil1" points="1.70244,3.35062 1.77633,3.07487 1.50069,3.00101 1.54538,2.83377 1.90468,2.93004 1.98835,2.95246 1.96596,3.036 1.86969,3.3953 "/>
  <polygon class="fil1" points="3.80325,3.5817 3.70697,3.22239 3.68458,3.13885 3.76825,3.11643 4.12755,3.02016 4.17224,3.18741 3.8966,3.26126 3.97049,3.53701 "/>
  <polygon class="fil1" points="3.51072,3.41281 3.41445,3.05351 3.39206,2.96996 3.47573,2.94754 3.83503,2.85127 3.87972,3.01852 3.60408,3.09237 3.67797,3.36813 "/>
  <path class="fil1" d="M4.08269 3.49157l-0.962591 -0.555752 0.106669 -0.184165 0.962591 0.555752 -0.106669 0.184165zm-1.96654 -1.13538l-0.989504 -0.571291 0.106669 -0.184165 0.989504 0.571291 -0.106669 0.184165z"/>
  <polygon class="fil1" points="1.19807,1.93625 1.4737,1.8624 1.39981,1.58664 1.56706,1.54196 1.66333,1.90126 1.68572,1.98481 1.60205,2.00722 1.24275,2.1035 "/>
  <polygon class="fil1" points="1.49059,2.10514 1.76622,2.03128 1.69233,1.75553 1.85958,1.71085 1.95585,2.07015 1.97824,2.15369 1.89457,2.17611 1.53528,2.27239 "/>
  <path class="fil1" d="M2.76311 1.91887l0.128634 0.257213 0.283378 -0.0191535 0.214319 -0.0144843 -0.118484 0.179488 -0.158516 0.240134 0.158098 0.235579 0.119634 0.17826 -0.21422 -0.0128425 -0.287579 -0.0172362 -0.124846 0.254461 -0.0945039 0.192622 -0.0959134 -0.191787 -0.128634 -0.257213 -0.283382 0.0191535 -0.214315 0.0144882 0.11848 -0.179492 0.158516 -0.240134 -0.158098 -0.235579 -0.11963 -0.178252 0.214217 0.0128346 0.287583 0.0172362 0.124846 -0.254461 0.0945079 -0.192618 0.0959094 0.191783zm-0.0296063 0.415717l-0.0644803 -0.128933 -0.0616457 0.125646 -0.0313031 0.0638071 -0.0703661 -0.00422047 -0.143732 -0.00861417 0.0779213 0.116106 0.0394528 0.0587874 -0.0390354 0.0591299 -0.0790669 0.11978 0.139386 -0.00942126 0.0703268 -0.00475197 0.0317559 0.0635039 0.0644803 0.128933 0.0616457 -0.125646 0.0313071 -0.0638031 0.0703622 0.00421654 0.143728 0.00861417 -0.0779213 -0.116106 -0.0394488 -0.0587835 0.0390315 -0.0591339 0.0790669 -0.11978 -0.139382 0.00942126 -0.0703228 0.00475591 -0.0317598 -0.0635079z"/>
  <g id="_298660600">
   <polygon id="_298661680" class="fil1" points="4.35122,4.11253 4.27897,4.33652 4.26876,4.36819 4.23717,4.358 4.01319,4.28576 4.0335,4.22247 4.22591,4.28453 4.28794,4.09222 "/>
   <path id="_298661344" class="fil1" d="M4.1117 3.87227l0.321051 0.626776 -0.153701 0.0785433 -0.321051 -0.626776 0.153701 -0.0785433zm0.663512 1.29534l0.321055 0.626776 -0.153701 0.0785433 -0.321055 -0.626776 0.153701 -0.0785433z"/>
   <polygon id="_298661296" class="fil1" points="5.00268,5.48742 4.81028,5.42536 4.74824,5.61767 4.68496,5.59736 4.75721,5.37338 4.76742,5.3417 4.79901,5.35189 5.02299,5.42414 "/>
   <polygon id="_298661752" class="fil1" points="5.09729,4.3403 4.86719,4.38972 4.83474,4.39669 4.82774,4.36407 4.77831,4.13396 4.84342,4.12016 4.88583,4.31765 5.08349,4.27519 "/>
   <path id="_298661728" class="fil1" d="M5.18574 4.01246l-0.382276 0.591433 -0.144898 -0.0934409 0.382276 -0.591433 0.144898 0.0934409zm-0.790043 1.22229l-0.382272 0.591429 -0.144898 -0.0934409 0.382272 -0.591429 0.144898 0.0934409z"/>
   <polygon id="_298661392" class="fil1" points="4.23239,5.59172 4.18997,5.39424 3.99231,5.4367 3.9785,5.37159 4.20861,5.32217 4.24106,5.3152 4.24806,5.34782 4.29749,5.57792 "/>
   <polygon id="_298661512" class="fil1" points="5.26365,5.09535 5.1058,4.92079 5.08353,4.89617 5.10814,4.87392 5.2827,4.71606 5.32723,4.76528 5.17728,4.90088 5.31287,5.05082 "/>
   <path id="_298661104" class="fil1" d="M5.59183 5.00825l-0.702358 -0.0352992 0.00812598 -0.172661 0.702358 0.0352992 -0.00812598 0.172661zm-1.43489 -0.0721102l-0.722 -0.0362874 0.00812598 -0.172661 0.722 0.0362874 -0.00812598 0.172661z"/>
   <polygon id="_298660336" class="fil1" points="3.74729,4.97215 3.89724,4.83655 3.76165,4.68662 3.81087,4.64209 3.96872,4.81664 3.99098,4.84126 3.96637,4.86352 3.79181,5.02137 "/>
   <path id="_298661032" class="fil1" d="M4.40702 4.46858l0.136598 0.100362 0.143043 -0.0859094 0.149508 -0.0897953 -0.0191654 0.173417 -0.0186181 0.168433 0.145835 0.0808701 0.152453 0.0845394 -0.159902 0.0701772 -0.154961 0.0680039 0.00287795 0.16685 0.00300394 0.174295 -0.140457 -0.103201 -0.136594 -0.100362 -0.143047 0.0859134 -0.149512 0.0897913 0.0191693 -0.173413 0.0186181 -0.168433 -0.145835 -0.0808701 -0.152457 -0.0845472 0.159906 -0.0701693 0.154969 -0.0680079 -0.00288583 -0.16685 -0.00301575 -0.174303 0.140469 0.103209zm0.0805906 0.273815l-0.0423661 -0.0311299 0.000862205 0.0499606 0.000992126 0.0574055 -0.0527913 0.0231693 -0.0478543 0.021 0.0436969 0.0242323 0.0503189 0.0279016 -0.00630709 0.0570748 -0.00575591 0.0520866 0.0427717 -0.025689 0.0492323 -0.0295709 0.0462402 0.0339724 0.042374 0.0311339 -0.000862205 -0.0499646 -0.000992126 -0.0574094 0.0527913 -0.0231654 0.0478425 -0.0209961 -0.0436969 -0.0242323 -0.0503228 -0.0279055 0.00631102 -0.0570709 0.00575591 -0.0520866 -0.0427677 0.025685 -0.0492362 0.0295669 -0.0462362 -0.0339685z"/>
  </g>
  <path class="fil1" d="M4.88227 0.983319l0.248441 0.182543 0.260669 -0.156563 0.149508 -0.0897953 -0.0191654 0.173417 -0.0338622 0.306386 0.265831 0.147417 0.152453 0.0845472 -0.159902 0.0701693 -0.282055 0.123776 0.00524803 0.304039 0.00300787 0.174299 -0.140461 -0.103205 -0.248437 -0.182539 -0.260673 0.156559 -0.149512 0.0897953 0.0191693 -0.173417 0.0338622 -0.306386 -0.265831 -0.147417 -0.152461 -0.0845433 0.159909 -0.0701732 0.282059 -0.123772 -0.00525197 -0.304043 -0.00301181 -0.174299 0.140465 0.103205zm0.192433 0.355996l-0.154213 -0.113311 0.00323228 0.187154 0.000988189 0.0574094 -0.0527874 0.0231654 -0.174945 0.0767677 0.163693 0.0907756 0.0503189 0.0279055 -0.00630709 0.0570709 -0.0210039 0.190039 0.160402 -0.0963346 0.0492323 -0.0295669 0.0462402 0.0339685 0.154213 0.113307 -0.00323228 -0.18715 -0.000992126 -0.0574055 0.0527913 -0.0231693 0.174941 -0.0767717 -0.163693 -0.0907756 -0.0503228 -0.0279016 0.00631102 -0.0570748 0.0210039 -0.190039 -0.160398 0.0963386 -0.0492362 0.0295748 -0.0462362 -0.0339764z"/>
  <path class="fil1" d="M1.43456 4.62359l0.248441 0.182543 0.260669 -0.156563 0.149512 -0.0897992 -0.0191693 0.173421 -0.0338622 0.306386 0.265831 0.147417 0.152457 0.0845433 -0.159906 0.0701732 -0.282055 0.123776 0.00524803 0.304039 0.00301181 0.174295 -0.140465 -0.103201 -0.248437 -0.182539 -0.260673 0.156559 -0.149508 0.0897913 0.0191654 -0.173413 0.0338622 -0.306386 -0.265831 -0.147417 -0.152457 -0.0845472 0.159906 -0.0701693 0.282059 -0.123772 -0.00525197 -0.304043 -0.00300787 -0.174303 0.140461 0.103209zm0.192433 0.355996l-0.154213 -0.113311 0.00323228 0.187154 0.000992126 0.0574055 -0.0527913 0.0231693 -0.174945 0.0767677 0.163693 0.0907756 0.0503228 0.0279016 -0.00631102 0.0570748 -0.0210039 0.190039 0.160402 -0.0963346 0.0492362 -0.0295709 0.0462362 0.0339724 0.154213 0.113307 -0.00323228 -0.18715 -0.000988189 -0.0574094 0.0527874 -0.0231654 0.174941 -0.0767717 -0.163693 -0.0907756 -0.0503189 -0.0279055 0.00630709 -0.0570709 0.0210039 -0.190039 -0.160398 0.0963386 -0.0492323 0.0295709 -0.0462402 -0.0339724z"/>
  <polygon class="fil2" points="4.90469,1.74625 4.88368,1.93629 5.04408,1.83996 5.09331,1.81039 5.13956,1.84436 5.29377,1.95767 5.29054,1.77052 5.28954,1.71311 5.34233,1.68994 5.51728,1.61317 5.35358,1.52239 5.30326,1.49449 5.30957,1.43742 5.33057,1.24738 5.17018,1.34372 5.12094,1.37329 5.0747,1.33931 4.92049,1.226 4.92372,1.41316 4.92471,1.47057 4.87193,1.49373 4.69698,1.5705 4.86067,1.66128 4.91099,1.68918 "/>
  <polygon class="fil2" points="2.8959,2.5037 2.97497,2.38392 2.83559,2.39334 2.76526,2.39809 2.7335,2.33459 2.66902,2.20565 2.60738,2.3313 2.57607,2.39511 2.50571,2.39089 2.36198,2.38227 2.4399,2.49838 2.47935,2.55717 2.44031,2.6163 2.36125,2.73607 2.50063,2.72665 2.57096,2.7219 2.60272,2.78541 2.6672,2.91434 2.72884,2.78869 2.76015,2.72489 2.83051,2.72911 2.97424,2.73772 2.89632,2.62161 2.85687,2.56283 "/>
  <polygon class="fil2" points="4.44525,4.71126 4.44611,4.76122 4.4471,4.81863 4.39431,4.8418 4.34646,4.8628 4.39015,4.88703 4.44047,4.91493 4.43417,4.97201 4.42841,5.02409 4.47118,4.99841 4.52041,4.96883 4.56665,5.00281 4.60903,5.03394 4.60817,4.98398 4.60717,4.92657 4.65996,4.9034 4.70781,4.88241 4.66411,4.85817 4.61379,4.83027 4.6201,4.7732 4.62585,4.72111 4.58309,4.7468 4.53385,4.77636 4.48761,4.74239 "/>
  <polygon class="fil2" points="1.89462,5.33021 2.06956,5.25344 1.90587,5.16266 1.85555,5.13476 1.86186,5.07769 1.88286,4.88765 1.72246,4.98398 1.67323,5.01356 1.62699,4.97958 1.47278,4.86627 1.47601,5.05343 1.477,5.11083 1.42421,5.134 1.24927,5.21077 1.41296,5.30154 1.46328,5.32944 1.45697,5.38652 1.43597,5.57656 1.59637,5.48022 1.64561,5.45065 1.69184,5.48463 1.84606,5.59793 1.84282,5.41078 1.84183,5.35337 "/>
 </g>
</svg>
