<?xml version="1.0" encoding="UTF-8"?>
<!DOCTYPE svg PUBLIC "-//W3C//DTD SVG 1.1//EN" "http://www.w3.org/Graphics/SVG/1.1/DTD/svg11.dtd">
<!-- Creator: CorelDRAW -->
<svg xmlns="http://www.w3.org/2000/svg" xml:space="preserve" width="6.82666in" height="6.82666in" style="shape-rendering:geometricPrecision; text-rendering:geometricPrecision; image-rendering:optimizeQuality; fill-rule:evenodd; clip-rule:evenodd"
viewBox="0 0 6.82666 6.82666"
 xmlns:xlink="http://www.w3.org/1999/xlink">
 <defs>
  <style type="text/css">
   <![CDATA[
    .fil0 {fill:none}
    .fil1 {fill:#333333}
    .fil3 {fill:#EBE5DF}
    .fil4 {fill:#F45A52}
    .fil2 {fill:#333333;fill-rule:nonzero}
   ]]>
  </style>
 </defs>
 <g id="Layer_x0020_1">
  <metadata id="CorelCorpID_0Corel-Layer"/>
  <g id="_298665136">
   <rect id="_298664944" class="fil0" width="6.82666" height="6.82666"/>
   <rect id="_298665040" class="fil0" x="0.853331" y="0.853331" width="5.12" height="5.12"/>
  </g>
  <circle class="fil1" cx="3.35652" cy="3.73333" r="0.16"/>
  <circle class="fil1" cx="3.35652" cy="4.33305" r="0.16"/>
  <circle class="fil1" cx="3.35652" cy="4.95999" r="0.16"/>
  <circle class="fil1" cx="3.07395" cy="1.72465" r="0.12465"/>
  <circle class="fil1" cx="3.60728" cy="1.72465" r="0.12465"/>
  <polygon class="fil2" points="3.33937,1.99871 3.8727,2.29727 3.76853,2.48311 3.2352,2.18455 "/>
  <path class="fil2" d="M3.38496 0.853327c0.294539,0 0.561209,0.119398 0.75424,0.312429 0.193031,0.193031 0.312429,0.459701 0.312429,0.75424 0,0.186429 -0.0480236,0.361866 -0.132398,0.514622 -0.0756654,0.136992 -0.180673,0.255606 -0.306555,0.347398l-0.0217283 0.0979803 -1.21198 0 -0.0217283 -0.0979803c-0.125882,-0.0917913 -0.23089,-0.210402 -0.306555,-0.347398 -0.084374,-0.152756 -0.132398,-0.328193 -0.132398,-0.514622 0,-0.294539 0.119398,-0.561209 0.312429,-0.75424 0.193031,-0.193031 0.459701,-0.312429 0.75424,-0.312429zm0.603406 0.463264c-0.154413,-0.154413 -0.367752,-0.249925 -0.603406,-0.249925 -0.235654,0 -0.448992,0.0955118 -0.603406,0.249925 -0.154413,0.154413 -0.249925,0.367752 -0.249925,0.603406 0,0.149661 0.0383504,0.290134 0.105728,0.412118 0.0699843,0.126713 0.171173,0.233701 0.293138,0.310575l0.0380276 0.0239685 0.832874 0 0.0380276 -0.0239685c0.121965,-0.076874 0.223154,-0.183862 0.293138,-0.310575 0.067378,-0.121984 0.105728,-0.262457 0.105728,-0.412118 0,-0.235654 -0.0955118,-0.448992 -0.249925,-0.603406zm0.457472 1.63832c0.172961,0.16085 0.313488,0.360492 0.409665,0.586209 0.0925,0.217075 0.144047,0.457858 0.144047,0.710953 0,0.473669 -0.179772,0.902988 -0.470409,1.21419 -0.292594,0.313287 -0.69711,0.507071 -1.14418,0.507071 -0.447071,0 -0.851587,-0.193783 -1.14418,-0.507071 -0.290638,-0.311201 -0.470409,-0.74052 -0.470409,-1.21419 0,-0.239508 0.0462126,-0.468106 0.12965,-0.676106 0.0866614,-0.216043 0.213634,-0.409382 0.370815,-0.569217l0.182504 0.0745827 0 0.0586614c0,0.0163898 0.00678346,0.031374 0.0177047,0.0422913 0.0109213,0.0109213 0.0259016,0.0177047 0.0422913,0.0177047l1.69334 0c0.0163898,0 0.0313701,-0.00678346 0.0422913,-0.0177047 0.0109213,-0.0109173 0.0177047,-0.0259016 0.0177047,-0.0422913l0 -0.107165 0 -0.244539 0.179169 0.166622zm0.213831 0.669539c-0.0551299,-0.129378 -0.126799,-0.248921 -0.212102,-0.355524 -0.012752,0.0236969 -0.0288937,0.0453228 -0.0477677,0.0641929 -0.0494882,0.0494882 -0.11785,0.0802087 -0.193126,0.0802087l-1.69334 0c-0.0752756,0 -0.143638,-0.0307205 -0.193126,-0.0802087 -0.00906693,-0.00906693 -0.0175039,-0.0187717 -0.0252362,-0.0290315 -0.0797992,0.106083 -0.146504,0.224039 -0.197449,0.351043 -0.073248,0.182598 -0.113815,0.384374 -0.113815,0.596941 0,0.418047 0.157795,0.796028 0.412906,1.06919 0.253161,0.271067 0.602618,0.438732 0.988346,0.438732 0.385728,0 0.735185,-0.167665 0.988346,-0.438732 0.25511,-0.273161 0.412906,-0.651142 0.412906,-1.06919 0,-0.224417 -0.0452835,-0.436925 -0.126543,-0.627622z"/>
  <g id="_298664224">
   <polygon id="_298664680" class="fil2" points="2.25832,3.85686 0.94287,4.37276 0.879902,4.21161 2.19535,3.69571 "/>
   <polygon id="_298664704" class="fil2" points="1.16107,4.54231 1.39491,4.15246 1.04407,3.94527 1.13209,3.79631 1.55782,4.04773 1.6327,4.09195 1.58795,4.16656 1.30935,4.63101 "/>
  </g>
  <g id="_298663840">
   <polygon id="_298664056" class="fil2" points="4.49591,3.76672 5.88443,4.02862 5.8526,4.19857 4.46409,3.93667 "/>
   <polygon id="_298663480" class="fil2" points="5.54053,4.52078 5.18032,4.11633 5.1225,4.05141 5.18811,3.99378 5.55957,3.66748 5.67331,3.79748 5.36746,4.06615 5.66985,4.40568 "/>
  </g>
  <path class="fil2" d="M2.51333 2.66666l1.69334 0c0.0752756,0 0.143638,0.0307205 0.193126,0.0802087 0.0494882,0.0494803 0.0802087,0.11785 0.0802087,0.193126l0 0.2c0,0.0752756 -0.0307165,0.143642 -0.0802087,0.193126 -0.0494882,0.0494882 -0.11785,0.0802087 -0.193126,0.0802087l-1.69334 0c-0.0752756,0 -0.143638,-0.0307205 -0.193126,-0.0802087 -0.0494921,-0.0494843 -0.0802087,-0.11785 -0.0802087,-0.193126l0 -0.2c0,-0.0752756 0.0307205,-0.143646 0.0802087,-0.193126 0.0494882,-0.0494882 0.11785,-0.0802087 0.193126,-0.0802087zm1.69334 0.213339l-1.69334 0c-0.0163898,0 -0.0313701,0.00678346 -0.0422913,0.0177047 -0.0109213,0.0109213 -0.0177047,0.0259016 -0.0177047,0.0422913l0 0.2c0,0.0163898 0.00678346,0.031374 0.0177047,0.0422913 0.0109213,0.0109213 0.0259016,0.0177047 0.0422913,0.0177047l1.69334 0c0.0163898,0 0.0313701,-0.00678346 0.0422913,-0.0177047 0.0109213,-0.0109173 0.0177047,-0.0259016 0.0177047,-0.0422913l0 -0.2c0,-0.0163898 -0.00678346,-0.0313701 -0.0177047,-0.0422913 -0.0109213,-0.0109213 -0.0259016,-0.0177047 -0.0422913,-0.0177047z"/>
  <path class="fil2" d="M4.02512 3.26041l0.435815 0.897594c0.0281732,0.0580276 0.0300157,0.122413 0.0102913,0.179386 -0.0198031,0.057185 -0.0612677,0.106839 -0.119598,0.135165l-0.139319 0.0676417c-0.0580315,0.0281732 -0.122409,0.0300157 -0.179382,0.0102913 -0.0571732,-0.0198031 -0.106835,-0.0612677 -0.135161,-0.119598l-0.523394 -1.07798 -0.074248 -0.152921 0.170083 0 0.459079 0 0.0664961 0 0.0293386 0.0604173zm0.244146 0.990098l-0.40648 -0.837177 -0.222496 0 0.449146 0.925055c0.00267717,0.00551181 0.00732677,0.00942126 0.0126575,0.0112677 0.00553937,0.00191732 0.0118976,0.00169685 0.0177126,-0.00112598l0.139319 -0.0676417c0.00551181,-0.00267717 0.0094252,-0.00733071 0.0112677,-0.0126614 0.00191732,-0.00553937 0.00169685,-0.0119016 -0.00112598,-0.0177165z"/>
  <path class="fil3" d="M3.60728 1.6c0.0688386,0 0.12465,0.055811 0.12465,0.12465 0,0.0688386 -0.055811,0.12465 -0.12465,0.12465 -0.0688386,0 -0.12465,-0.055811 -0.12465,-0.12465 0,-0.0688386 0.055811,-0.12465 0.12465,-0.12465zm-0.267917 0.398717l0.533331 0.298559 -0.104165 0.185835 -0.533331 -0.298559 0.104165 -0.185835zm0.500055 0.643976c0.121965,-0.076874 0.223154,-0.183862 0.293138,-0.310575 0.067378,-0.121984 0.105728,-0.262457 0.105728,-0.412118 0,-0.235654 -0.0955118,-0.448992 -0.249925,-0.603406 -0.154413,-0.154413 -0.367752,-0.249925 -0.603406,-0.249925 -0.235654,0 -0.448992,0.0955118 -0.603406,0.249925 -0.154413,0.154413 -0.249925,0.367752 -0.249925,0.603406 0,0.149661 0.0383504,0.290134 0.105728,0.412118 0.0699843,0.126713 0.171173,0.233701 0.293138,0.310575l0.0380276 0.0239685 0.832874 0 0.0380276 -0.0239685zm-0.765472 -1.04269c0.0688386,0 0.12465,0.055811 0.12465,0.12465 0,0.0688386 -0.055811,0.12465 -0.12465,0.12465 -0.0688386,0 -0.12465,-0.055811 -0.12465,-0.12465 0,-0.0688386 0.055811,-0.12465 0.12465,-0.12465z"/>
  <path class="fil4" d="M3.99094 2.88l-1.21198 0 -0.265638 0c-0.0163898,0 -0.0313701,0.00678346 -0.0422913,0.0177047 -0.0109213,0.0109213 -0.0177047,0.0259016 -0.0177047,0.0422913l0 0.141339 0 0.0586614c0,0.0163898 0.00678346,0.031374 0.0177047,0.0422913 0.0109213,0.0109213 0.0259016,0.0177047 0.0422913,0.0177047l0.786795 0 0.170083 0 0.459079 0 0.0664961 0 0.210886 0c0.0163898,0 0.0313701,-0.00678346 0.0422913,-0.0177047 0.0109213,-0.0109173 0.0177047,-0.0259016 0.0177047,-0.0422913l0 -0.107165 0 -0.0928346c0,-0.0163898 -0.00678346,-0.0313701 -0.0177047,-0.0422913 -0.0109213,-0.0109213 -0.0259016,-0.0177047 -0.0422913,-0.0177047l-0.215724 0z"/>
  <path class="fil4" d="M3.86279 3.41333l-0.222496 0 0.449146 0.925055c0.00267717,0.00551181 0.00732677,0.00942126 0.0126575,0.0112677 0.00553937,0.00191732 0.0118976,0.00169685 0.0177126,-0.00112598l0.139319 -0.0676417c0.00551181,-0.00267717 0.0094252,-0.00733071 0.0112677,-0.0126614 0.00191732,-0.00553937 0.00169685,-0.0119016 -0.00112598,-0.0177165l-0.40648 -0.837177z"/>
  <path class="fil3" d="M3.51652 3.73333c0,0.0883661 -0.0716339,0.16 -0.16,0.16 -0.0883661,0 -0.16,-0.0716339 -0.16,-0.16 0,-0.0883661 0.0716339,-0.16 0.16,-0.16 0.0883661,0 0.16,0.0716339 0.16,0.16zm0.381248 0.697559l-0.494059 -1.01756 -0.890378 0c-0.0752756,0 -0.143638,-0.0307205 -0.193126,-0.0802087 -0.00906693,-0.00906693 -0.0175039,-0.0187717 -0.0252362,-0.0290315 -0.0797992,0.106083 -0.146504,0.224039 -0.197449,0.351043 -0.0121142,0.0302008 -0.0233346,0.0609291 -0.033626,0.0921378l0.131461 -0.0515551 0.0629685 0.16115 -0.247358 0.0970118c-0.0178819,0.0962835 -0.0272598,0.195992 -0.0272598,0.298197 0,0.418047 0.157795,0.796028 0.412906,1.06919 0.253161,0.271067 0.602618,0.438732 0.988346,0.438732 0.385728,0 0.735185,-0.167665 0.988346,-0.438732 0.25511,-0.273161 0.412906,-0.651142 0.412906,-1.06919 0,-0.0882047 -0.00699606,-0.174567 -0.0204213,-0.258492l-0.301701 -0.0569055 0.0318268 -0.169953 0.229295 0.043248c-0.0181181,-0.0637795 -0.040063,-0.12572 -0.0655433,-0.18552 -0.0551299,-0.129378 -0.126799,-0.248921 -0.212098,-0.355524 -0.012752,0.0237008 -0.0288976,0.0453189 -0.0477717,0.0641929 -0.0494882,0.0494882 -0.11785,0.0802087 -0.193126,0.0802087l-0.107299 0 0.361567 0.744673c0.0281732,0.0580276 0.0300157,0.122413 0.0102913,0.179386 -0.0198031,0.057185 -0.0612677,0.106839 -0.119598,0.135165l-0.139319 0.0676417c-0.0580315,0.0281732 -0.122409,0.0300157 -0.179382,0.0102913 -0.0571732,-0.0198031 -0.106835,-0.0612677 -0.135161,-0.119598zm-0.541248 0.0621654c-0.0883661,0 -0.16,-0.0716339 -0.16,-0.16 0,-0.0883661 0.0716339,-0.16 0.16,-0.16 0.0883661,0 0.16,0.0716339 0.16,0.16 0,0.0883661 -0.0716339,0.16 -0.16,0.16zm-0.16 0.466937c0,-0.0883661 0.0716339,-0.16 0.16,-0.16 0.0883661,0 0.16,0.0716339 0.16,0.16 0,0.0883661 -0.0716339,0.16 -0.16,0.16 -0.0883661,0 -0.16,-0.0716339 -0.16,-0.16z"/>
 </g>
</svg>
