<?xml version="1.0" encoding="UTF-8"?>
<!DOCTYPE svg PUBLIC "-//W3C//DTD SVG 1.1//EN" "http://www.w3.org/Graphics/SVG/1.1/DTD/svg11.dtd">
<!-- Creator: CorelDRAW -->
<svg xmlns="http://www.w3.org/2000/svg" xml:space="preserve" width="6.82666in" height="6.82666in" style="shape-rendering:geometricPrecision; text-rendering:geometricPrecision; image-rendering:optimizeQuality; fill-rule:evenodd; clip-rule:evenodd"
viewBox="0 0 6.82666 6.82666"
 xmlns:xlink="http://www.w3.org/1999/xlink">
 <defs>
  <style type="text/css">
   <![CDATA[
    .fil0 {fill:none}
    .fil3 {fill:#FFD3B3}
    .fil1 {fill:#333333;fill-rule:nonzero}
    .fil2 {fill:#AED581;fill-rule:nonzero}
   ]]>
  </style>
 </defs>
 <g id="Layer_x0020_1">
  <metadata id="CorelCorpID_0Corel-Layer"/>
  <g id="_298665880">
   <rect id="_298665808" class="fil0" width="6.82666" height="6.82666"/>
   <rect id="_298666360" class="fil0" x="0.853331" y="0.853331" width="5.12" height="5.12"/>
  </g>
  <polygon class="fil1" points="3.31773,5.26231 4.89717,5.26231 5.16469,4.99478 5.31552,5.14561 5.01675,5.4444 4.9855,5.47565 4.94133,5.47565 3.31773,5.47565 "/>
  <path class="fil1" d="M3.4318 1.3855c0.107465,-0.0460236 0.223555,-0.0440787 0.324343,-0.00373622 0.100732,0.0403189 0.18613,0.119154 0.232283,0.226925 0.0460236,0.107465 0.0440827,0.223551 0.00374016,0.324346 -0.0403189,0.100732 -0.119154,0.186122 -0.226929,0.232283 -0.107469,0.0460236 -0.223547,0.0440787 -0.324346,0.00373622 -0.100736,-0.0403228 -0.186126,-0.119154 -0.23228,-0.226925 -0.0460236,-0.107465 -0.0440827,-0.223551 -0.00374016,-0.324346 0.0403189,-0.100732 0.119154,-0.186122 0.226929,-0.232283zm0.245177 0.193768c-0.0501417,-0.0200709 -0.108063,-0.0209646 -0.161846,0.00206693 -0.0534882,0.0229094 -0.0926654,0.0654173 -0.112756,0.115614 -0.0200669,0.0501417 -0.0209646,0.108063 0.00207087,0.16185 0.0229016,0.0534803 0.0654134,0.0926614 0.11561,0.112752 0.0501417,0.0200669 0.108063,0.0209685 0.16185,-0.00206693 0.0534843,-0.0229055 0.0926654,-0.0654173 0.112756,-0.115614 0.0200669,-0.0501417 0.0209646,-0.108063 -0.00207087,-0.16185 -0.0229016,-0.0534803 -0.0654173,-0.0926614 -0.115614,-0.112752z"/>
  <path class="fil2" d="M3.89169 2.49624c0.00408661,0.00685827 0.008,0.0135984 0.0117559,0.0202244l0.417213 0.141701c0.0172992,0.00465748 0.0336575,0.0137402 0.0472835,0.0272598l-0.075126 0.0757244 0.075 -0.0754173 0.570079 0.565563c0.014752,0.0125236 0.0262835,0.0292047 0.032563,0.0490118l-0.101677 0.0322441 0.101665 -0.0320827c0.0447835,0.141224 0.0364016,0.246961 -0.028748,0.314772 -0.0642638,0.0668898 -0.168276,0.0808268 -0.314492,0.0384882 -0.0161654,-0.00376378 -0.0316969,-0.0113622 -0.0451654,-0.0229173l0.000181102 -0.000212598 -0.519913 -0.445929 -0.295224 -0.0637756 -0.309846 0.676579 0.565524 0.565528c0.0121457,0.0116142 0.0217205,0.0262638 0.0274016,0.043311l-0.101193 0.0337323 0.100835 -0.0333346 0.306335 0.919004c0.00587795,0.0132244 0.00914567,0.0278622 0.00914567,0.0432638 0,0.0589094 -0.0477598,0.106669 -0.106669,0.106669l-0.410618 0c-0.0455079,0.000972441 -0.0882913,-0.0274882 -0.103437,-0.072937l0.101193 -0.0337323 -0.100835 0.0333346 -0.19678 -0.590354 -0.345752 -0.288126 0.0228583 0.0914409c0.00838189,0.0274252 0.00575591,0.0581339 -0.00981102,0.0848701l-0.000220472 -0.000125984 -0.416807 0.715921c-0.0173701,0.0353622 -0.0537402,0.0597087 -0.0957953,0.0597087l-0.506591 0c-0.0150394,0.000248031 -0.0303701,-0.00268504 -0.0450197,-0.00919685 -0.0538307,-0.0239252 -0.0780748,-0.0869646 -0.0541496,-0.140795l0.000476378 0.000212598 0.400488 -0.901114 -0.0992126 -0.79372c-0.00275591,-0.0172992 -0.00129134,-0.0355236 0.00511811,-0.0531575l0.000279528 0.000102362 0.118567 -0.326059 -0.435287 0.339709c-0.0199528,0.0185276 -0.0469567,0.0294685 -0.0763189,0.0284409l1.1811e-005 -0.000366142c-0.155988,-0.00553543 -0.25222,-0.0519724 -0.29226,-0.136843 -0.0392953,-0.0832874 -0.0150787,-0.183957 0.0686654,-0.300882 0.00701969,-0.0113346 0.0162953,-0.0215276 0.0277205,-0.029878l0.000145669 0.00019685 1.03288 -0.754937c0.00435433,-0.00365748 0.00904724,-0.00701575 0.0140906,-0.0100197l0.000173228 0.000287402c0.0440039,-0.0262165 0.0849567,-0.0487638 0.122827,-0.0676181 0.197315,-0.0982323 0.3715,-0.134201 0.522445,-0.107669 0.15989,0.0281063 0.287945,0.122665 0.384028,0.283902z"/>
  <path class="fil1" d="M3.73211 2.6478c-0.00835433,-0.0166417 -0.0159961,-0.0307677 -0.0229252,-0.0423898 -0.062689,-0.105205 -0.142118,-0.166177 -0.238193,-0.183067 -0.105008,-0.0184567 -0.235307,0.0111024 -0.390776,0.0885039 -0.035437,0.0176457 -0.0700748,0.0364646 -0.103894,0.0564606l-1.02193 0.746925c-0.0317717,0.0444055 -0.0465197,0.0707205 -0.0431811,0.0777953 0.00288189,0.00611024 0.0256181,0.0106063 0.0692008,0.0133898l0.703205 -0.548795 0.0654173 0.083752 -0.065626 -0.0840906c0.0464409,-0.0362441 0.113472,-0.0279764 0.149717,0.0184646 0.025248,0.0323504 0.0288898,0.0746929 0.0130787,0.109657l-0.233327 0.641657 0.100091 0.80076 4.72441e-005 -3.93701e-006c0.0029685,0.0237638 -0.00212205,0.0466772 -0.0131378,0.066l-0.341996 0.769492 0.283693 0 0.367874 -0.631866 -0.092748 -0.370992 0.103335 -0.0258346 -0.103484 0.0258701c-0.0142874,-0.0571496 0.0204646,-0.115067 0.0776142,-0.129354 0.0377598,-0.00944094 0.0758543,0.0025315 0.101476,0.0282283l0.611598 0.509661 -0.0679173 0.0816654 0.0682874 -0.0819449c0.0185748,0.0154764 0.0305472,0.0359331 0.0356102,0.0578031l0.178917 0.536764 0.188969 0 -0.254646 -0.763933 -0.602201 -0.602205 -7.87402e-006 7.87402e-006c-0.0347283,-0.0347283 -0.0404961,-0.0874567 -0.017311,-0.128169l0.375819 -0.82063 0.0966654 0.0441654 -0.0969803 -0.0444134c0.0245276,-0.0535591 0.0878346,-0.0770945 0.141394,-0.0525669 0.00552756,0.0025315 0.0107283,0.00548425 0.0155984,0.0087874l0.363882 0.0786102 -0.0225 0.104165 0.0225236 -0.104264c0.020752,0.00448031 0.0387795,0.0147165 0.0527677,0.0286811l0.516921 0.443362c0.0521772,0.0147441 0.0801969,0.0191732 0.0853307,0.0138307 0.00499213,-0.00519685 0.000224409,-0.0318543 -0.0137598,-0.0787913l-0.539091 -0.534819 -0.440457 -0.149598 0.0341654 -0.100835 -0.0343031 0.101c-0.0290433,-0.0098622 -0.0510512,-0.0310157 -0.062811,-0.0568976zm0.159579 -0.151555c0.00408661,0.00685827 0.008,0.0135984 0.0117559,0.0202244l0.417213 0.141701c0.0172992,0.00465748 0.0336575,0.0137402 0.0472835,0.0272598l-0.075126 0.0757244 0.075 -0.0754173 0.570079 0.565563c0.014752,0.0125236 0.0262835,0.0292047 0.032563,0.0490118l-0.101677 0.0322441 0.101665 -0.0320827c0.0447835,0.141224 0.0364016,0.246961 -0.028748,0.314772 -0.0642638,0.0668898 -0.168276,0.0808268 -0.314492,0.0384882 -0.0161654,-0.00376378 -0.0316969,-0.0113622 -0.0451654,-0.0229173l0.000181102 -0.000212598 -0.519913 -0.445929 -0.295224 -0.0637756 -0.309846 0.676579 0.565524 0.565528c0.0121457,0.0116142 0.0217205,0.0262638 0.0274016,0.043311l-0.101193 0.0337323 0.100835 -0.0333346 0.306335 0.919004c0.00587795,0.0132244 0.00914567,0.0278622 0.00914567,0.0432638 0,0.0589094 -0.0477598,0.106669 -0.106669,0.106669l-0.410618 0c-0.0455079,0.000972441 -0.0882913,-0.0274882 -0.103437,-0.072937l0.101193 -0.0337323 -0.100835 0.0333346 -0.19678 -0.590354 -0.345752 -0.288126 0.0228583 0.0914409c0.00838189,0.0274252 0.00575591,0.0581339 -0.00981102,0.0848701l-0.000220472 -0.000125984 -0.416807 0.715921c-0.0173701,0.0353622 -0.0537402,0.0597087 -0.0957953,0.0597087l-0.506591 0c-0.0150394,0.000248031 -0.0303701,-0.00268504 -0.0450197,-0.00919685 -0.0538307,-0.0239252 -0.0780748,-0.0869646 -0.0541496,-0.140795l0.000476378 0.000212598 0.400488 -0.901114 -0.0992126 -0.79372c-0.00275591,-0.0172992 -0.00129134,-0.0355236 0.00511811,-0.0531575l0.000279528 0.000102362 0.118567 -0.326059 -0.435287 0.339709c-0.0199528,0.0185276 -0.0469567,0.0294685 -0.0763189,0.0284409l1.1811e-005 -0.000366142c-0.155988,-0.00553543 -0.25222,-0.0519724 -0.29226,-0.136843 -0.0392953,-0.0832874 -0.0150787,-0.183957 0.0686654,-0.300882 0.00701969,-0.0113346 0.0162953,-0.0215276 0.0277205,-0.029878l0.000145669 0.00019685 1.03288 -0.754937c0.00435433,-0.00365748 0.00904724,-0.00701575 0.0140906,-0.0100197l0.000173228 0.000287402c0.0440039,-0.0262165 0.0849567,-0.0487638 0.122827,-0.0676181 0.197315,-0.0982323 0.3715,-0.134201 0.522445,-0.107669 0.15989,0.0281063 0.287945,0.122665 0.384028,0.283902z"/>
  <polygon class="fil1" points="1.34441,5.26231 2.92385,5.26231 3.19137,4.99478 3.3422,5.14561 3.04343,5.4444 3.01218,5.47565 2.96801,5.47565 1.34441,5.47565 "/>
  <polygon class="fil1" points="4.85774,3.54648 5.95812,4.67801 5.88187,4.75218 4.78149,3.62065 "/>
  <polygon class="fil1" points="1.82593,3.51895 1.0577,4.67649 0.968957,4.61774 1.73719,3.4602 "/>
  <path class="fil3" d="M3.79466 1.85387c0.0200669,-0.0501417 0.0209646,-0.108063 -0.00207087,-0.16185 -0.0229016,-0.0534803 -0.0654173,-0.0926614 -0.115614,-0.112752 -0.0501417,-0.0200709 -0.108063,-0.0209646 -0.161846,0.00206693 -0.0534882,0.0229094 -0.0926654,0.0654173 -0.112756,0.115614 -0.0200669,0.0501417 -0.0209646,0.108063 0.00207087,0.16185 0.0229016,0.0534803 0.0654134,0.0926614 0.11561,0.112752 0.0501417,0.0200669 0.108063,0.0209685 0.16185,-0.00206693 0.0534843,-0.0229055 0.0926654,-0.0654173 0.112756,-0.115614z"/>
 </g>
</svg>
