<?xml version="1.0" encoding="UTF-8"?>
<!DOCTYPE svg PUBLIC "-//W3C//DTD SVG 1.1//EN" "http://www.w3.org/Graphics/SVG/1.1/DTD/svg11.dtd">
<!-- Creator: CorelDRAW -->
<svg xmlns="http://www.w3.org/2000/svg" xml:space="preserve" width="6.82666in" height="6.82666in" style="shape-rendering:geometricPrecision; text-rendering:geometricPrecision; image-rendering:optimizeQuality; fill-rule:evenodd; clip-rule:evenodd"
viewBox="0 0 6.82666 6.82666"
 xmlns:xlink="http://www.w3.org/1999/xlink">
 <defs>
  <style type="text/css">
   <![CDATA[
    .fil0 {fill:none}
    .fil3 {fill:#FFD3B3}
    .fil2 {fill:#333333;fill-rule:nonzero}
    .fil1 {fill:#C794BE;fill-rule:nonzero}
   ]]>
  </style>
 </defs>
 <g id="Layer_x0020_1">
  <metadata id="CorelCorpID_0Corel-Layer"/>
  <g id="_298666960">
   <rect id="_298667608" class="fil0" width="6.82666" height="6.82666"/>
   <rect id="_298667440" class="fil0" x="0.853331" y="0.853331" width="5.12" height="5.12"/>
  </g>
  <path class="fil1" d="M2.55804 1.65545c0.0206063,0.00358268 0.0414134,0.00786614 0.0624055,0.0128465l1.64482 -0.0982559c0.0181772,-0.00233465 0.0371969,-2.3622e-005 0.0552756,0.00767323l-9.84252e-005 0.00023622c0.155575,0.0662283 0.240732,0.150496 0.250685,0.254 0.00979921,0.101992 -0.0555276,0.20061 -0.200701,0.295598 -0.014874,0.0111339 -0.0328425,0.0185276 -0.0526614,0.0206142l-0.0111811 -0.106079 0.0108346 0.105835 -1.28649 0.135594 0.359756 0.780787 0.964744 -0.0732953c0.017622,-0.00223622 0.0360433,-9.84252e-005 0.0536575,0.00709843l-0.000192913 0.000468504 1.07372 0.438626c0.0199606,0.00593307 0.0383976,0.017752 0.0524764,0.0351693l-0.0829567 0.0670551 0.0829173 -0.0666654c0.0459488,0.0568425 0.079563,0.124343 0.092248,0.192063 0.0119724,0.0639252 0.00592126,0.128307 -0.0241378,0.186429 -0.0299764,0.0579606 -0.0814528,0.106331 -0.159567,0.13726 -0.0745551,0.0295236 -0.176697,0.0430866 -0.312201,0.0319409 -0.013685,0.000102362 -0.0276181,-0.00244094 -0.0410787,-0.00794094l0.000192913 -0.000468504 -0.693791 -0.283421 -0.599646 0.100764 0.154736 0.0775512c0.0280394,0.0109764 0.0512835,0.0336929 0.0619291,0.0643701l-0.100772 0.0349685 0.100417 -0.0345827 0.324177 0.934248c0.00283858,0.00622835 0.00512205,0.0128228 0.00675984,0.0197402l-4.33071e-005 1.1811e-005c0.0235433,0.0994016 0.0260354,0.197508 0.00706299,0.284343 -0.0162126,0.0742126 -0.0479409,0.140646 -0.0954606,0.193937 -0.0478976,0.0537165 -0.110571,0.0930984 -0.188154,0.112783 -0.00202756,0.000606299 -0.00407874,0.00116929 -0.00616142,0.00166142l-1.1811e-005 -4.33071e-005c-0.0677953,0.0160591 -0.146114,0.0166811 -0.234677,-0.00207087 -0.0331024,-0.00565354 -0.0630197,-0.0267992 -0.0785079,-0.0594409l0.0963701 -0.0457244 -0.096252 0.0454173 -0.508004 -1.07071 -0.798425 -0.529079c-0.0162598,-0.00924803 -0.0302953,-0.0228898 -0.0401339,-0.040378l0.0929646 -0.0522992 -0.0929173 0.0520827 -0.238469 -0.423882 -0.0344291 0.733772c0.000783465,0.026874 -0.00851969,0.0540709 -0.0281772,0.0754016l-0.00015748 -0.000145669c-0.120492,0.130724 -0.230504,0.179846 -0.330654,0.152264 -0.0991772,-0.0273189 -0.16715,-0.123602 -0.205878,-0.284488 -0.00362205,-0.0122008 -0.00511417,-0.025252 -0.00405906,-0.0386929l8.66142e-005 7.87402e-006 0.120091 -1.52859c0.000177165,-0.00476772 0.000673228,-0.00958268 0.00151181,-0.0144134l0.000149606 2.75591e-005c0.00994488,-0.0571575 0.0213583,-0.111213 0.0342323,-0.162134 0.0634252,-0.25089 0.164205,-0.433197 0.302453,-0.546654 0.145358,-0.119291 0.325114,-0.160449 0.539378,-0.123197z"/>
  <path class="fil2" d="M1.21601 1.1941c0.0403937,-0.128346 0.128835,-0.228098 0.239157,-0.285598 0.110193,-0.0574331 0.242327,-0.0728228 0.370276,-0.0325551 0.128346,0.0403937 0.228098,0.128831 0.285598,0.239157 0.0574331,0.110193 0.0728228,0.242327 0.0325551,0.370276 -0.0403937,0.128346 -0.128835,0.228098 -0.239157,0.285598 -0.110193,0.0574331 -0.242331,0.0728228 -0.370276,0.0325551 -0.128346,-0.0403937 -0.228098,-0.128835 -0.285598,-0.239157 -0.0574331,-0.110193 -0.0728228,-0.242327 -0.0325551,-0.370276zm0.337488 -0.0964331c-0.0619843,0.0323071 -0.11161,0.0881181 -0.134157,0.159764 -0.0226732,0.0720472 -0.0139843,0.1465 0.0183898,0.208614 0.0323071,0.0619882 0.088122,0.11161 0.159764,0.134157 0.0720472,0.0226732 0.1465,0.0139843 0.208614,-0.0183898 0.0619882,-0.0323071 0.11161,-0.0881181 0.134157,-0.159764 0.0226732,-0.0720472 0.0139843,-0.146496 -0.0183898,-0.208614 -0.0323071,-0.0619843 -0.0881181,-0.11161 -0.159764,-0.134157 -0.0720472,-0.0226732 -0.146496,-0.0139843 -0.208614,0.0183898z"/>
  <path class="fil2" d="M2.57884 1.87741c-0.0194567,-0.0047874 -0.0383386,-0.00877559 -0.0566378,-0.0119567 -0.150972,-0.026248 -0.273791,-0.000397638 -0.368543,0.0773622 -0.101866,0.0835984 -0.178764,0.228398 -0.230783,0.434157 -0.0112756,0.0446024 -0.0212953,0.0917638 -0.0300551,0.141469l-0.118787 1.512c0.0181496,0.0735276 0.0354685,0.113622 0.051874,0.118138 0.0151693,0.00417717 0.045622,-0.0167323 0.0921693,-0.0640709l0.0502992 -1.072 0.106252 0.00458268 -0.106551 -0.005c0.00275984,-0.0588465 0.0527047,-0.104311 0.111551,-0.101551 0.0401811,0.00188583 0.074122,0.0257717 0.0907323,0.0594685l0.40485 0.719626 0.807472 0.535079 -0.058752 0.088752 0.0589213 -0.0889173c0.0189449,0.0125512 0.0325748,0.0301181 0.0403071,0.0497717l0.493831 1.04084c0.0364173,0.00387008 0.0681614,0.00215354 0.0953937,-0.00429528l0.0245827 0.103752 -0.0245866 -0.103795c0.00143701,-0.000338583 0.00287402,-0.000641732 0.00431102,-0.00092126 0.0334606,-0.00866142 0.0600827,-0.025252 0.0800118,-0.0476024 0.0224173,-0.0251378 0.0378346,-0.0585354 0.0462953,-0.0972677 0.0121417,-0.0555787 0.0100433,-0.120768 -0.00595669,-0.188988l-0.310268 -0.894157 -0.416031 -0.208508 0.0475 -0.095 -0.0477913 0.0953622c-0.0526654,-0.0263937 -0.0739646,-0.0904882 -0.0475709,-0.143154 0.0169724,-0.0338661 0.0495315,-0.0547559 0.0846181,-0.0583425l0.943248 -0.158508 -3.54331e-005 -0.000216535c0.0239921,-0.0040315 0.0474567,0.000291339 0.0674291,0.0108425l0.697311 0.284862c0.0958465,0.00724409 0.163913,-0.000870079 0.209803,-0.0190472 0.0263583,-0.010437 0.0417992,-0.0230276 0.0487323,-0.0364331 0.00684646,-0.0132402 0.0077126,-0.0306614 0.0041378,-0.0497598 -0.00477953,-0.0255315 -0.0168425,-0.0523307 -0.0339173,-0.0776339l-1.03161 -0.421425 -1.01952 0.0774567 7.87402e-006 0.000122047c-0.048189,0.00365748 -0.0913228,-0.0253031 -0.107728,-0.0682559l-0.453169 -0.983524 0.0966654 -0.0445827 -0.096878 0.0446378c-0.0246496,-0.0535039 -0.00126378,-0.116866 0.0522402,-0.141516 0.0241024,-0.0111063 0.0502087,-0.0124567 0.0738701,-0.00570079l1.37156 -0.144563c0.0620591,-0.0416496 0.0914094,-0.070437 0.089811,-0.0870512 -0.00158268,-0.0164961 -0.0354803,-0.0393976 -0.0998228,-0.0683228l-1.64281 0.0981378 1.1811e-005 0.000228346c-0.0132283,0.000791339 -0.0260394,-0.000874016 -0.0379882,-0.00458661zm-0.0208031 -0.221957c0.0206063,0.00358268 0.0414134,0.00786614 0.0624055,0.0128465l1.64482 -0.0982559c0.0181772,-0.00233465 0.0371969,-2.3622e-005 0.0552756,0.00767323l-9.84252e-005 0.00023622c0.155575,0.0662283 0.240732,0.150496 0.250685,0.254 0.00979921,0.101992 -0.0555276,0.20061 -0.200701,0.295598 -0.014874,0.0111339 -0.0328425,0.0185276 -0.0526614,0.0206142l-0.0111811 -0.106079 0.0108346 0.105835 -1.28649 0.135594 0.359756 0.780787 0.964744 -0.0732953c0.017622,-0.00223622 0.0360433,-9.84252e-005 0.0536575,0.00709843l-0.000192913 0.000468504 1.07372 0.438626c0.0199606,0.00593307 0.0383976,0.017752 0.0524764,0.0351693l-0.0829567 0.0670551 0.0829173 -0.0666654c0.0459488,0.0568425 0.079563,0.124343 0.092248,0.192063 0.0119724,0.0639252 0.00592126,0.128307 -0.0241378,0.186429 -0.0299764,0.0579606 -0.0814528,0.106331 -0.159567,0.13726 -0.0745551,0.0295236 -0.176697,0.0430866 -0.312201,0.0319409 -0.013685,0.000102362 -0.0276181,-0.00244094 -0.0410787,-0.00794094l0.000192913 -0.000468504 -0.693791 -0.283421 -0.599646 0.100764 0.154736 0.0775512c0.0280394,0.0109764 0.0512835,0.0336929 0.0619291,0.0643701l-0.100772 0.0349685 0.100417 -0.0345827 0.324177 0.934248c0.00283858,0.00622835 0.00512205,0.0128228 0.00675984,0.0197402l-4.33071e-005 1.1811e-005c0.0235433,0.0994016 0.0260354,0.197508 0.00706299,0.284343 -0.0162126,0.0742126 -0.0479409,0.140646 -0.0954606,0.193937 -0.0478976,0.0537165 -0.110571,0.0930984 -0.188154,0.112783 -0.00202756,0.000606299 -0.00407874,0.00116929 -0.00616142,0.00166142l-1.1811e-005 -4.33071e-005c-0.0677953,0.0160591 -0.146114,0.0166811 -0.234677,-0.00207087 -0.0331024,-0.00565354 -0.0630197,-0.0267992 -0.0785079,-0.0594409l0.0963701 -0.0457244 -0.096252 0.0454173 -0.508004 -1.07071 -0.798425 -0.529079c-0.0162598,-0.00924803 -0.0302953,-0.0228898 -0.0401339,-0.040378l0.0929646 -0.0522992 -0.0929173 0.0520827 -0.238469 -0.423882 -0.0344291 0.733772c0.000783465,0.026874 -0.00851969,0.0540709 -0.0281772,0.0754016l-0.00015748 -0.000145669c-0.120492,0.130724 -0.230504,0.179846 -0.330654,0.152264 -0.0991772,-0.0273189 -0.16715,-0.123602 -0.205878,-0.284488 -0.00362205,-0.0122008 -0.00511417,-0.025252 -0.00405906,-0.0386929l8.66142e-005 7.87402e-006 0.120091 -1.52859c0.000177165,-0.00476772 0.000673228,-0.00958268 0.00151181,-0.0144134l0.000149606 2.75591e-005c0.00994488,-0.0571575 0.0213583,-0.111213 0.0342323,-0.162134 0.0634252,-0.25089 0.164205,-0.433197 0.302453,-0.546654 0.145358,-0.119291 0.325114,-0.160449 0.539378,-0.123197z"/>
  <polygon class="fil2" points="1.5019,5.75998 4.81652,5.75998 4.81652,5.97332 1.5019,5.97332 "/>
  <path class="fil3" d="M1.80611 1.58181c0.0619882,-0.0323071 0.11161,-0.0881181 0.134157,-0.159764 0.0226732,-0.0720472 0.0139843,-0.146496 -0.0183898,-0.208614 -0.0323071,-0.0619843 -0.0881181,-0.11161 -0.159764,-0.134157 -0.0720472,-0.0226732 -0.146496,-0.0139843 -0.208614,0.0183898 -0.0619843,0.0323071 -0.11161,0.0881181 -0.134157,0.159764 -0.0226732,0.0720472 -0.0139843,0.1465 0.0183898,0.208614 0.0323071,0.0619882 0.088122,0.11161 0.159764,0.134157 0.0720472,0.0226732 0.1465,0.0139843 0.208614,-0.0183898z"/>
 </g>
</svg>
