<?xml version="1.0" encoding="UTF-8"?>
<!DOCTYPE svg PUBLIC "-//W3C//DTD SVG 1.1//EN" "http://www.w3.org/Graphics/SVG/1.1/DTD/svg11.dtd">
<!-- Creator: CorelDRAW -->
<svg xmlns="http://www.w3.org/2000/svg" xml:space="preserve" width="6.82666in" height="6.82666in" style="shape-rendering:geometricPrecision; text-rendering:geometricPrecision; image-rendering:optimizeQuality; fill-rule:evenodd; clip-rule:evenodd"
viewBox="0 0 6.82666 6.82666"
 xmlns:xlink="http://www.w3.org/1999/xlink">
 <defs>
  <style type="text/css">
   <![CDATA[
    .fil0 {fill:none}
    .fil2 {fill:#333333;fill-rule:nonzero}
    .fil1 {fill:#63CBE5;fill-rule:nonzero}
   ]]>
  </style>
 </defs>
 <g id="Layer_x0020_1">
  <metadata id="CorelCorpID_0Corel-Layer"/>
  <g id="_431687840">
   <rect id="_431687768" class="fil0" width="6.82666" height="6.82666"/>
   <rect id="_431687552" class="fil0" x="0.853331" y="0.853331" width="5.12" height="5.12"/>
  </g>
  <path class="fil1" d="M1.81096 2.99537l-0.538461 2.48291c-0.00814173,0.048374 -0.0490472,0.0862835 -0.100051,0.0887402 -0.0588386,0.00283465 -0.108843,-0.0425709 -0.111677,-0.101409l0.106543 -0.00513386 -0.106252 0.005 -0.206917 -4.29341c-0.000531496,-0.0043189 -0.000811024,-0.00871654 -0.000811024,-0.0131772 0,-0.0589094 0.0477598,-0.106669 0.106669,-0.106669l4.90631 0 0.000354331 0 0 3.93701e-006c0.00170079,0 0.00341339,3.54331e-005 0.00513386,0.000122047 0.0588386,0.00283465 0.104244,0.0528386 0.101409,0.111677l-0.000295276 -1.5748e-005 -0.206921 4.29347c0.0014685,0.0503425 -0.0330315,0.0961772 -0.0840315,0.107236 -0.0575709,0.0124843 -0.114366,-0.0240669 -0.12685,-0.0816378l0.104244 -0.0226063 -0.104165 0.0225 -0.53948 -2.4876 -0.0788898 1.12766c-0.000338583,0.0447323 -0.0290118,0.086185 -0.0739094,0.100685 -0.0560591,0.0181024 -0.116185,-0.0126693 -0.134287,-0.0687283l0.101508 -0.0327795 -0.101252 0.0325 -0.575209 -1.78124 -0.234567 3.29612c-0.000826772,0.0524685 -0.0402717,0.0975984 -0.0938268,0.104087 -0.0584803,0.00708268 -0.111642,-0.0345827 -0.118724,-0.093063l0.105894 -0.0128307 -0.105835 0.0125 -0.337461 -2.78551 -0.370287 1.2429c-0.0106693,0.0449291 -0.0498976,0.0793661 -0.0983386,0.0818425 -0.0588307,0.00300787 -0.108972,-0.0422441 -0.11198,-0.101075l0.106528 -0.00545276 -0.106252 0.00541732 -0.0936457 -1.82895 -0.594732 1.85697c-0.0103386,0.0444094 -0.0486024,0.0788425 -0.0964606,0.082189 -0.0587638,0.00411024 -0.10974,-0.0401969 -0.11385,-0.0989606l0.106406 -0.00744488 -0.106252 0.00708268 -0.0793268 -1.13392z"/>
  <path class="fil2" d="M1.23461 4.64731l0.526291 -2.42679 0.104165 0.0225 -0.104244 -0.0226063c0.0124843,-0.0575709 0.0692795,-0.094122 0.12685,-0.0816378 0.0496654,0.0107717 0.083685,0.0545197 0.0840748,0.103295l0.092374 1.32044 0.606232 -1.89286 -0.000311024 -9.84252e-005c0.0179685,-0.0561024 0.0780157,-0.0870157 0.134118,-0.0690472 0.046126,0.0147756 0.0752205,0.0579921 0.074122,0.104079l0.0913898 1.78491 0.341575 -1.14652 -0.000145669 -4.33071e-005c0.0168189,-0.0564567 0.0762283,-0.0885906 0.132685,-0.0717717 0.0436693,0.0130079 0.0727756,0.0514961 0.0759449,0.0943937l0.265161 2.18875 0.195197 -2.74287 0.106252 0.0075 -0.106398 -0.00757087c0.0041811,-0.0587598 0.0552087,-0.103008 0.113969,-0.0988268 0.047748,0.00339764 0.0859134,0.0377283 0.0962992,0.0820039l0.572071 1.77153 0.0930551 -1.33013 0.106252 0.00708268 -0.106406 -0.00744488c0.00411024,-0.0587638 0.0550866,-0.103071 0.11385,-0.0989606 0.0501614,0.00350787 0.0897795,0.0411693 0.097752,0.0886654l0.52526 2.42203 0.16298 -3.38175 -4.6834 0 0.16298 3.38175zm0.576343 -1.65194l-0.538461 2.48291c-0.00814173,0.048374 -0.0490472,0.0862835 -0.100051,0.0887402 -0.0588386,0.00283465 -0.108843,-0.0425709 -0.111677,-0.101409l0.106543 -0.00513386 -0.106252 0.005 -0.206917 -4.29341c-0.000531496,-0.0043189 -0.000811024,-0.00871654 -0.000811024,-0.0131772 0,-0.0589094 0.0477598,-0.106669 0.106669,-0.106669l4.90631 0 0.000354331 0 0 3.93701e-006c0.00170079,0 0.00341339,3.54331e-005 0.00513386,0.000122047 0.0588386,0.00283465 0.104244,0.0528386 0.101409,0.111677l-0.000295276 -1.5748e-005 -0.206921 4.29347c0.0014685,0.0503425 -0.0330315,0.0961772 -0.0840315,0.107236 -0.0575709,0.0124843 -0.114366,-0.0240669 -0.12685,-0.0816378l0.104244 -0.0226063 -0.104165 0.0225 -0.53948 -2.4876 -0.0788898 1.12766c-0.000338583,0.0447323 -0.0290118,0.086185 -0.0739094,0.100685 -0.0560591,0.0181024 -0.116185,-0.0126693 -0.134287,-0.0687283l0.101508 -0.0327795 -0.101252 0.0325 -0.575209 -1.78124 -0.234567 3.29612c-0.000826772,0.0524685 -0.0402717,0.0975984 -0.0938268,0.104087 -0.0584803,0.00708268 -0.111642,-0.0345827 -0.118724,-0.093063l0.105894 -0.0128307 -0.105835 0.0125 -0.337461 -2.78551 -0.370287 1.2429c-0.0106693,0.0449291 -0.0498976,0.0793661 -0.0983386,0.0818425 -0.0588307,0.00300787 -0.108972,-0.0422441 -0.11198,-0.101075l0.106528 -0.00545276 -0.106252 0.00541732 -0.0936457 -1.82895 -0.594732 1.85697c-0.0103386,0.0444094 -0.0486024,0.0788425 -0.0964606,0.082189 -0.0587638,0.00411024 -0.10974,-0.0401969 -0.11385,-0.0989606l0.106406 -0.00744488 -0.106252 0.00708268 -0.0793268 -1.13392z"/>
 </g>
</svg>
