<?xml version="1.0" encoding="UTF-8"?>
<!DOCTYPE svg PUBLIC "-//W3C//DTD SVG 1.1//EN" "http://www.w3.org/Graphics/SVG/1.1/DTD/svg11.dtd">
<!-- Creator: CorelDRAW -->
<svg xmlns="http://www.w3.org/2000/svg" xml:space="preserve" width="6.82666in" height="6.82666in" style="shape-rendering:geometricPrecision; text-rendering:geometricPrecision; image-rendering:optimizeQuality; fill-rule:evenodd; clip-rule:evenodd"
viewBox="0 0 6.82666 6.82666"
 xmlns:xlink="http://www.w3.org/1999/xlink">
 <defs>
  <style type="text/css">
   <![CDATA[
    .fil6 {fill:none}
    .fil3 {fill:#949494}
    .fil4 {fill:#B38E85}
    .fil5 {fill:#EBE5DF}
    .fil1 {fill:#F45A52}
    .fil2 {fill:#FECA5F}
    .fil0 {fill:#212121;fill-rule:nonzero}
   ]]>
  </style>
 </defs>
 <g id="Layer_x0020_1">
  <metadata id="CorelCorpID_0Corel-Layer"/>
  <path class="fil0" d="M1.26624 3.48071l0.100642 0c0.0111063,0.0651654 0.0273976,0.124878 0.0477953,0.179575 0.00427953,0.0114803 0.00874016,0.0227283 0.013374,0.0337638l-0.0551417 0 0 2.06594 4.08085 0 0 -2.06594 -2.38047 0c0.0190512,-0.0418189 0.0468031,-0.114992 0.0620748,-0.213339l2.42506 0c0.0589094,0 0.106669,0.0477598 0.106669,0.106669l0 2.27928c0,0.0589094 -0.0477598,0.106669 -0.106669,0.106669l-4.29419 0c-0.0589094,0 -0.106669,-0.0477598 -0.106669,-0.106669l0 -2.27928c0,-0.0589094 0.0477598,-0.106669 0.106669,-0.106669z"/>
  <path class="fil0" d="M2.66736 2.24971l0.684724 -0.484173c0.0384606,-0.0270551 0.0886457,-0.0250669 0.124504,0.00141339l2.45133 1.73335c0.0480906,0.0338268 0.0596575,0.100244 0.0258307,0.148335 -0.0207087,0.0294409 -0.0536299,0.045189 -0.0870827,0.0452165l0 0.000200787 -2.79338 0c0.0190512,-0.041815 0.0468071,-0.114992 0.0620787,-0.213339l2.39604 0 -2.11807 -1.4977 -0.641579 0.453665c-0.0397165,-0.0640512 -0.074311,-0.126496 -0.104398,-0.186969z"/>
  <path class="fil0" d="M0.903972 3.49661l0.450547 -0.318583c-0.00230315,0.0272598 -0.00365748,0.0532717 -0.00419685,0.0780079 -0.000200787,0.00187795 -0.000307087,0.0037874 -0.000307087,0.00572047l0 0.0380039 0.000204724 0 3.93701e-006 0.000834646c0.000192913,0.0109094 0.000488189,0.0204488 0.000862205,0.0286969 0.000543307,0.0119606 0.00107874,0.0213228 0.00159449,0.0282598l5.11811e-005 -3.93701e-006c0.00166535,0.0265591 0.00412598,0.0523346 0.00732677,0.0773504l-0.0647992 0.0458189 0.071622 0c0.0111063,0.0651614 0.0273976,0.12487 0.0477953,0.179571 0.00427953,0.0114803 0.00874016,0.0227323 0.013374,0.0337677l-0.468051 0c-0.0589094,0 -0.106669,-0.0477598 -0.106669,-0.106669 0,-0.0383583 0.020252,-0.0719803 0.0506417,-0.0907756z"/>
  <path class="fil0" d="M4.37333 2.02666l0.533335 0c0.0589094,0 0.106669,0.0477598 0.106669,0.106669l0 0.77524c0,0.0589094 -0.0477598,0.106669 -0.106669,0.106669 -0.0252717,0 -0.0484882,-0.00879528 -0.0667677,-0.0234843l-0.527819 -0.373228c-0.0294409,-0.0207087 -0.045189,-0.0536299 -0.0452165,-0.0870827l-0.000200787 0 0 -0.398114c0,-0.0589094 0.0477598,-0.106669 0.106669,-0.106669zm0.426665 0.213339l-0.319996 0 0 0.236476 0.319996 0.226272 0 -0.462748z"/>
  <path class="fil0" d="M1.5603 3.91103c-0.0578268,-0.0685984 -0.108528,-0.151252 -0.145622,-0.250744 -0.032622,-0.0874882 -0.0547441,-0.187799 -0.0619449,-0.30274l-5.11811e-005 3.93701e-006c-0.000515748,-0.00693701 -0.00105118,-0.0162992 -0.00159449,-0.0282598 -0.000374016,-0.00824803 -0.000669291,-0.0177874 -0.000862205,-0.0286969l-3.93701e-006 -0.000834646 -0.000204724 0 0 -0.0380039c0,-0.00193307 0.000106299,-0.00384252 0.000307087,-0.00572047 0.00138189,-0.0632008 0.00807087,-0.134705 0.022311,-0.214134 0.0128071,-0.0714331 0.0317835,-0.149469 0.0585748,-0.23387l5.90551e-005 -0.000185039 -5.90551e-005 -1.9685e-005c0.0394567,-0.122555 0.0828701,-0.218161 0.125004,-0.292331 0.0602795,-0.106126 0.118807,-0.169693 0.160098,-0.205807 0.0176614,-0.0154567 0.0386063,-0.0215709 0.0587953,-0.0203228 0.0111024,0.000688976 0.0218898,0.00361024 0.0316693,0.00842913 0.00960236,0.00473228 0.0184094,0.011437 0.0257205,0.0198031 0.0134921,0.0154055 0.0215906,0.0358543 0.0201575,0.0591417 -0.00737008,0.119205 0.00576378,0.197728 0.0275827,0.235752 0.00120079,0.00209449 0.00226772,0.00387795 0.00319685,0.00535433 0.00874409,-0.00890551 0.0185,-0.0265591 0.0285551,-0.0534252 0.0115945,-0.0309528 0.0209803,-0.0750787 0.0276457,-0.129433 0.00675591,-0.0551142 0.0103898,-0.119815 0.0103898,-0.191181 0,-0.132067 0.0198583,-0.266433 0.0616614,-0.395283 0.000279528,-0.000866142 0.000586614,-0.00172047 0.000905512,-0.00255906 0.0393661,-0.120374 0.0978622,-0.235606 0.177154,-0.339303 0.0222047,-0.0290433 0.0464803,-0.0572441 0.0728268,-0.0840354 0.0254331,-0.0258622 0.0522717,-0.0500079 0.0804567,-0.0718976 0.00156299,-0.00121654 0.00317717,-0.00232677 0.00482677,-0.00334252 0.00619685,-0.00417323 0.0126929,-0.00736614 0.0193504,-0.0096378 0.00875984,-0.00298425 0.0179488,-0.00433465 0.0271654,-0.00420866l0.00479921 7.08661e-005c0.0202205,0.00146063 0.0394449,0.0105315 0.0535236,0.0249843 0.0143307,0.0147008 0.0234409,0.034874 0.0231299,0.0582087l-7.87402e-005 0.00475591 -1.5748e-005 0.000204724 1.5748e-005 0c-0.00709843,0.0979921 -0.0058189,0.308161 0.0890984,0.584098 0.0607323,0.176563 0.15963,0.379406 0.318768,0.596106 0.000716535,0.000976378 0.0013937,0.0019685 0.0020315,0.00297638 0.196047,0.274126 0.256224,0.517972 0.260575,0.707882 0.00441339,0.192823 -0.0489252,0.330791 -0.0768504,0.389669 -0.0161181,0.0340433 -0.0334016,0.0661929 -0.0516299,0.0965236 -0.0192638,0.0320472 -0.0391102,0.0613583 -0.0593661,0.0881417 -0.0542323,0.071685 -0.112559,0.13335 -0.173917,0.185075 -0.0010748,0.000909449 -0.00217323,0.00177559 -0.00329921,0.00258268 -0.156492,0.13085 -0.332059,0.196965 -0.509665,0.199839 -0.178634,0.0028937 -0.358094,-0.0580984 -0.521067,-0.18139 -0.0661654,-0.0500591 -0.129941,-0.110843 -0.190122,-0.182236zm-0.0460394 -0.287831c0.0325748,0.0873701 0.076874,0.159689 0.127291,0.2195 0.054315,0.064437 0.112374,0.119673 0.173035,0.165567 0.143811,0.108795 0.300571,0.162642 0.455232,0.160138 0.153492,-0.00248819 0.306181,-0.0604291 0.443374,-0.17515 0.000807087,-0.000775591 0.00164173,-0.00153543 0.00251181,-0.00227165 0.0553346,-0.0466496 0.108209,-0.102614 0.157665,-0.167988 0.0186969,-0.0247205 0.0364764,-0.0508858 0.0531142,-0.0785591 0.0161969,-0.0269528 0.0317953,-0.0560276 0.0466299,-0.0873583 0.024315,-0.0512638 0.070748,-0.171724 0.0668504,-0.342165 -0.00394882,-0.172283 -0.0595433,-0.394902 -0.240933,-0.64839 -0.000425197,-0.00053937 -0.000846457,-0.00108268 -0.00125591,-0.00164173 -0.166492,-0.226713 -0.270071,-0.439256 -0.333768,-0.624437 -0.0859134,-0.24976 -0.0996063,-0.450921 -0.0970591,-0.570677 -0.00987008,0.0089685 -0.0193858,0.018126 -0.0285433,0.0274409 -0.0229606,0.0233504 -0.0443307,0.0482047 -0.0640787,0.0740354 -0.0719685,0.0941181 -0.12502,0.198661 -0.160681,0.307819 -0.000216535,0.000791339 -0.000452756,0.00158268 -0.000708661,0.00237402 -0.0381299,0.117531 -0.0562441,0.24074 -0.0562441,0.36237 0,0.0754528 -0.00392913,0.144555 -0.0112244,0.204094 -0.00755906,0.0616654 -0.019063,0.114008 -0.0338976,0.153606 -0.0217677,0.0581575 -0.0507756,0.0961024 -0.0818386,0.113791 -0.0276299,0.0157323 -0.0561378,0.0175551 -0.0838543,0.00572441 -0.0225945,-0.00964961 -0.0424488,-0.0282874 -0.0581378,-0.0556181 -0.026185,-0.0456299 -0.0440157,-0.124358 -0.0434409,-0.233752 -0.0283701,0.0318386 -0.0612835,0.075937 -0.0955906,0.136339 -0.0389724,0.0686063 -0.0792953,0.157551 -0.116248,0.272331l-5.90551e-005 -1.9685e-005c-0.025248,0.0795709 -0.043122,0.153083 -0.055185,0.220346 -0.0132008,0.073622 -0.0193858,0.139551 -0.0206535,0.197571 7.48031e-005,0.00116929 0.000122047,0.00234646 0.000122047,0.00353543l0 0.0380039 -0.000192913 0c0.000137795,0.0074685 0.000429134,0.0158268 0.000846457,0.0249488 0.000279528,0.00622835 0.000822835,0.0146142 0.00159449,0.0249291l-5.90551e-005 3.93701e-006 5.90551e-005 0.000826772c0.00647244,0.104417 0.0262283,0.194701 0.0553268,0.272732z"/>
  <path class="fil0" d="M1.92291 4.04609c0.110622,0.0769134 0.223335,0.117213 0.330898,0.11785 0.103591,0.000614173 0.203874,-0.0357874 0.294264,-0.111965 0.0447835,-0.0714567 0.087252,-0.169071 0.0941693,-0.288252 0.00538976,-0.0928583 -0.010622,-0.19928 -0.0635,-0.317484 -0.133646,-0.298756 -0.235417,-0.509823 -0.294752,-0.629555 -0.0406457,0.115039 -0.114965,0.29013 -0.234224,0.453457 -0.0955866,0.130886 -0.167803,0.279319 -0.189543,0.427311 -0.0175669,0.119575 -0.00167323,0.23913 0.062689,0.348638zm0.33048 0.224102c-0.132008,-0.000775591 -0.267744,-0.049248 -0.398189,-0.141673 -0.0070315,-0.00425197 -0.0131772,-0.0102008 -0.0177756,-0.0176811 -0.0831339,-0.135173 -0.104142,-0.282331 -0.082622,-0.428803 0.0243661,-0.165862 0.103984,-0.330421 0.209126,-0.47439 0.182201,-0.249524 0.25239,-0.528591 0.256276,-0.544413 0.00336614,-0.0145551 0.0128031,-0.0276142 0.0270551,-0.0351181 0.026,-0.013689 0.058185,-0.00370866 0.071874,0.0222913 0.000393701,0.000748031 0.13478,0.256445 0.356685,0.752504 0.0606378,0.135559 0.0789409,0.25863 0.0726732,0.36665 -0.00842126,0.145031 -0.0608465,0.262177 -0.114886,0.346291l-3.54331e-005 -2.3622e-005c-0.00268898,0.00418504 -0.00601181,0.00806299 -0.00996457,0.0114843 -0.112236,0.0972402 -0.238583,0.143661 -0.370217,0.142882z"/>
  <path class="fil0" d="M3.9493 4.06861l1.06667 0c0.0441811,0 0.08,0.0358189 0.08,0.08l0 1.71805c0,0.0441811 -0.0358189,0.08 -0.08,0.08l-1.06667 0c-0.0441811,0 -0.08,-0.0358189 -0.08,-0.08l0 -1.71805c0,-0.0441811 0.0358189,-0.08 0.08,-0.08zm0.986669 0.16l-0.906669 0 0 1.55805 0.906669 0 0 -1.55805z"/>
  <path class="fil0" d="M2.0933 4.40359l1.31945 0c0.0441811,0 0.08,0.0358189 0.08,0.08l0 0.67361c0,0.0441811 -0.0358189,0.08 -0.08,0.08l-1.31945 0c-0.0441811,0 -0.08,-0.0358189 -0.08,-0.08l0 -0.67361c0,-0.0441811 0.0358189,-0.08 0.08,-0.08zm1.23945 0.16l-1.15945 0 0 0.51361 1.15945 0 0 -0.51361z"/>
  <path class="fil0" d="M2.64872 4.48359c0,-0.0441811 0.0358189,-0.08 0.08,-0.08 0.0441811,0 0.08,0.0358189 0.08,0.08l0 0.621528c0,0.0441811 -0.0358189,0.08 -0.08,0.08 -0.0441811,0 -0.08,-0.0358189 -0.08,-0.08l0 -0.621528z"/>
  <path class="fil1" d="M2.31914 2.6504c0.000393701,0.000748031 0.13478,0.256445 0.356685,0.752504 0.0606378,0.135559 0.0789409,0.25863 0.0726732,0.36665 -0.0053937,0.0928819 -0.0288346,0.174327 -0.059189,0.24298 0.00801181,-0.00623622 0.0159764,-0.0126654 0.0238858,-0.0192795l0.00251181 -0.00227165c0.0553346,-0.0466496 0.108209,-0.102614 0.157665,-0.167988 0.0186969,-0.0247205 0.0364764,-0.0508858 0.0531142,-0.0785591 0.0161969,-0.0269528 0.0317953,-0.0560276 0.0466299,-0.0873583 0.024315,-0.0512638 0.070748,-0.171724 0.0668504,-0.342165 -0.00394882,-0.172283 -0.0595433,-0.394902 -0.240933,-0.64839l-0.00125591 -0.00164173c-0.166492,-0.226713 -0.270071,-0.439256 -0.333768,-0.624437 -0.0859134,-0.24976 -0.0996063,-0.450921 -0.0970591,-0.570677 -0.00987008,0.0089685 -0.0193858,0.018126 -0.0285433,0.0274409 -0.0229606,0.0233504 -0.0443307,0.0482047 -0.0640787,0.0740354 -0.0719685,0.0941181 -0.12502,0.198661 -0.160681,0.307819l-0.000708661 0.00237402c-0.0381299,0.117531 -0.0562441,0.24074 -0.0562441,0.36237 0,0.0754528 -0.00392913,0.144555 -0.0112244,0.204094 -0.00755906,0.0616654 -0.019063,0.114008 -0.0338976,0.153606 -0.0217677,0.0581575 -0.0507756,0.0961024 -0.0818386,0.113791 -0.0276299,0.0157323 -0.0561378,0.0175551 -0.0838543,0.00572441 -0.0225945,-0.00964961 -0.0424488,-0.0282874 -0.0581378,-0.0556181 -0.026185,-0.0456299 -0.0440157,-0.124358 -0.0434409,-0.233752 -0.0283701,0.0318386 -0.0612835,0.075937 -0.0955906,0.136339 -0.0389724,0.0686063 -0.0792953,0.157551 -0.116248,0.272331l-5.90551e-005 -1.9685e-005c-0.025248,0.0795709 -0.043122,0.153083 -0.055185,0.220346 -0.0132008,0.073622 -0.0193858,0.139551 -0.0206535,0.197571 7.48031e-005,0.00116929 0.000122047,0.00234646 0.000122047,0.00353543l0 0.0380039 -0.000192913 0c0.000137795,0.0074685 0.000429134,0.0158268 0.000846457,0.0249488 0.000279528,0.00622835 0.000822835,0.0146142 0.00159449,0.0249291l-5.90551e-005 3.93701e-006 5.90551e-005 0.000826772c0.00647244,0.104417 0.0262283,0.194701 0.0553268,0.272732 0.0325748,0.0873701 0.076874,0.159689 0.127291,0.2195 0.0426772,0.0506299 0.0876654,0.0955787 0.134409,0.13478 -0.0307677,-0.0961535 -0.0357717,-0.195957 -0.0211535,-0.295449 0.0243661,-0.165862 0.103984,-0.330421 0.209126,-0.47439 0.182201,-0.249524 0.25239,-0.528591 0.256276,-0.544413 0.00336614,-0.0145551 0.0128031,-0.0276142 0.0270551,-0.0351181 0.026,-0.013689 0.058185,-0.00370866 0.071874,0.0222913z"/>
  <path class="fil2" d="M2.57874 3.44624c-0.133646,-0.298756 -0.235417,-0.509823 -0.294752,-0.629555 -0.0406457,0.115039 -0.114965,0.29013 -0.234224,0.453457 -0.0955866,0.130886 -0.167803,0.279319 -0.189543,0.427311 -0.0175669,0.119575 -0.00167323,0.23913 0.062689,0.348638 0.110622,0.0769134 0.223335,0.117213 0.330898,0.11785 0.103591,0.000614173 0.203874,-0.0357874 0.294264,-0.111965 0.0447835,-0.0714567 0.087252,-0.169071 0.0941693,-0.288252 0.00538976,-0.0928583 -0.010622,-0.19928 -0.0635,-0.317484z"/>
  <polygon class="fil3" points="4.48,2.24 4.48,2.47647 4.8,2.70274 4.8,2.24 "/>
  <path class="fil4" d="M5.45376 3.69405l-2.38047 0c-0.00135433,0.00297244 -0.00266535,0.00579134 -0.0039252,0.00844488 -0.0161181,0.0340433 -0.0334016,0.0661929 -0.0516299,0.0965236 -0.0192638,0.0320472 -0.0391102,0.0613583 -0.0593661,0.0881417 -0.0542323,0.071685 -0.112559,0.13335 -0.173917,0.185075 -0.0010748,0.000909449 -0.00217323,0.00177559 -0.00329921,0.00258268 -0.156492,0.13085 -0.332059,0.196965 -0.509665,0.199839 -0.178634,0.0028937 -0.358094,-0.0580984 -0.521067,-0.18139 -0.0661654,-0.0500591 -0.129941,-0.110843 -0.190122,-0.182236 -0.0511535,-0.060685 -0.0967323,-0.132366 -0.132248,-0.21698l-0.0551417 0 0 2.06594 2.49639 0 0 -1.61138c0,-0.0441811 0.0358189,-0.08 0.08,-0.08l1.06667 0c0.0441811,0 0.08,0.0358189 0.08,0.08l0 1.61138 0.357791 0 0 -2.06594zm-3.36046 0.709535l0.635417 0 0.684031 0c0.0441811,0 0.08,0.0358189 0.08,0.08l0 0.67361c0,0.0441811 -0.0358189,0.08 -0.08,0.08l-1.31945 0c-0.0441811,0 -0.08,-0.0358189 -0.08,-0.08l0 -0.67361c0,-0.0441811 0.0358189,-0.08 0.08,-0.08z"/>
  <polygon class="fil5" points="4.93597,4.22861 4.0293,4.22861 4.0293,5.75999 4.93597,5.75999 "/>
  <polygon class="fil5" points="3.33275,5.0772 3.33275,4.56359 2.80872,4.56359 2.80872,5.0772 "/>
  <polygon class="fil5" points="2.64872,5.0772 2.64872,4.56359 2.1733,4.56359 2.1733,5.0772 "/>
  <g id="_516426136">
   <path id="_516425536" class="fil4" d="M2.88564 2.60494c0.196047,0.274126 0.256224,0.517972 0.260575,0.707882 0.00141732,0.061878 -0.00311417,0.118106 -0.0108504,0.16789l2.39604 0 -0.680724 -0.481346c-0.00375197,-0.0023189 -0.00735433,-0.00486614 -0.0107795,-0.00761811l-0.527819 -0.373228c-0.000141732,-9.84252e-005 -0.000283465,-0.000200787 -0.000425197,-0.000299213l-0.898323 -0.635213 -0.641583 0.453669c0.0335039,0.0540236 0.0706614,0.109189 0.111858,0.165287 0.000716535,0.000976378 0.0013937,0.0019685 0.0020315,0.00297638z"/>
   <path id="_516425512" class="fil4" d="M1.29526 3.48072l0.071622 0c-0.00255118,-0.0149843 -0.00483071,-0.0302559 -0.00682283,-0.0458189l-0.0647992 0.0458189z"/>
  </g>
 </g>
 <rect class="fil6" width="6.82666" height="6.82666"/>
</svg>
