<?xml version="1.0" encoding="UTF-8"?>
<!DOCTYPE svg PUBLIC "-//W3C//DTD SVG 1.1//EN" "http://www.w3.org/Graphics/SVG/1.1/DTD/svg11.dtd">
<!-- Creator: CorelDRAW -->
<svg xmlns="http://www.w3.org/2000/svg" xml:space="preserve" width="6.82666in" height="6.82666in" style="shape-rendering:geometricPrecision; text-rendering:geometricPrecision; image-rendering:optimizeQuality; fill-rule:evenodd; clip-rule:evenodd"
viewBox="0 0 6.82666 6.82666"
 xmlns:xlink="http://www.w3.org/1999/xlink">
 <defs>
  <style type="text/css">
   <![CDATA[
    .fil4 {fill:none}
    .fil3 {fill:#F45A52}
    .fil1 {fill:#FECA5F}
    .fil2 {fill:#FFD3B3}
    .fil0 {fill:#212121;fill-rule:nonzero}
   ]]>
  </style>
 </defs>
 <g id="Layer_x0020_1">
  <metadata id="CorelCorpID_0Corel-Layer"/>
  <g id="_516428680">
   <g>
    <path id="_516430336" class="fil0" d="M3.2479 1.04l0 0.202811c0,0.0405354 -0.0301496,0.0740236 -0.0692441,0.0792795 -0.154185,0.0356063 -0.295413,0.105843 -0.415094,0.202126 -0.122976,0.0989331 -0.222878,0.225157 -0.290394,0.369346 -0.0118701,0.0253937 -0.0354252,0.0415906 -0.0612677,0.045189l1.5748e-005 0.000122047c-0.0505433,0.00699606 -0.0902953,0.0197165 -0.120583,0.0372047 -0.0601693,0.0347402 -0.0845315,0.0944685 -0.0842992,0.168161 0.000283465,0.0894094 0.0340709,0.198854 0.0860709,0.313571 0.0447402,0.0987047 0.102449,0.199795 0.164197,0.295311 -0.0497165,-0.173417 -0.0942205,-0.360516 -0.0942205,-0.491673 0,-0.159819 0.283291,-0.253953 0.645894,-0.288268 0.129587,-0.0122598 0.267949,-0.0183976 0.404354,-0.0183976 0.136406,0 0.274768,0.0061378 0.404354,0.0183976 0.362602,0.034315 0.645894,0.128449 0.645894,0.288268 0,0.131157 -0.0445039,0.31826 -0.0942244,0.491681 0.061748,-0.0955197 0.119457,-0.196614 0.164201,-0.295323 0.052,-0.11472 0.0857874,-0.224161 0.0860669,-0.313567 0.000232283,-0.0736969 -0.0241299,-0.133421 -0.0842992,-0.168161 -0.0302835,-0.0174843 -0.0700354,-0.0302087 -0.120579,-0.0372047 -0.0293583,-0.00405906 -0.0527677,-0.0236102 -0.0631181,-0.0492598 -0.0674843,-0.142543 -0.166677,-0.26737 -0.288528,-0.365398 -0.121343,-0.097622 -0.264835,-0.168472 -0.421528,-0.203594 -0.0372087,-0.00822047 -0.0625394,-0.0412126 -0.0625079,-0.077811l-0.00030315 0 0 -0.202811 -0.330858 0zm-0.16 0.14089l0 -0.22089c0,-0.0441811 0.0358189,-0.08 0.08,-0.08l0.490858 0c0.0441811,0 0.08,0.0358189 0.08,0.08l0 0.22089c0.157075,0.0442835 0.30089,0.11963 0.424339,0.218949 0.130701,0.105154 0.238898,0.237382 0.316161,0.388248 0.052878,0.0109921 0.0979843,0.0278819 0.136063,0.0498661 0.116783,0.0674331 0.164094,0.175661 0.163677,0.306287 -0.000362205,0.114906 -0.0395433,0.246201 -0.0998228,0.379189 -0.11676,0.257594 -0.315575,0.52935 -0.457311,0.691457l-3.14961e-005 -2.75591e-005c-0.0181732,0.0207323 -0.046622,0.0314488 -0.0755945,0.0256535 -0.0431457,-0.00862992 -0.0711299,-0.0506063 -0.0625,-0.093752 0.00724016,-0.035811 0.0268268,-0.0975157 0.052122,-0.177232 0.0646024,-0.203575 0.167717,-0.528524 0.167717,-0.708079 0,-0.0577756 -0.219697,-0.102909 -0.500894,-0.12952 -0.120772,-0.0114291 -0.254098,-0.0171457 -0.389354,-0.0171457 -0.135256,0 -0.268583,0.00571654 -0.389354,0.0171457 -0.281197,0.0266102 -0.500894,0.0717441 -0.500894,0.12952 0,0.179555 0.103114,0.504504 0.167717,0.708079 0.0243858,0.0768465 0.0434606,0.136949 0.0512874,0.17326 0.00711024,0.0281457 -0.00144882,0.0591732 -0.0247913,0.0795984 -0.0331339,0.0289921 -0.0835079,0.0256339 -0.1125,-0.0075 -0.14174,-0.16211 -0.340551,-0.433862 -0.457311,-0.691453 -0.0602835,-0.132988 -0.0994606,-0.264283 -0.0998268,-0.379193 -0.000409449,-0.130622 0.0468937,-0.238858 0.163677,-0.306287 0.0380827,-0.0219882 0.0831929,-0.038874 0.136067,-0.0498661 0.0772638,-0.150862 0.185461,-0.283094 0.316161,-0.388248 0.123449,-0.0993189 0.267264,-0.174665 0.424339,-0.218949z"/>
    <path id="_516430240" class="fil0" d="M4.07269 2.13057c0,-0.0441811 0.0358189,-0.08 0.08,-0.08 0.0441811,0 0.08,0.0358189 0.08,0.08l0 0.85311c0,0.390008 -0.213713,0.640201 -0.487256,0.750146 -0.105236,0.0422992 -0.218906,0.0634528 -0.332102,0.0634528 -0.113201,0 -0.226866,-0.0211535 -0.332106,-0.0634528 -0.273539,-0.109945 -0.487252,-0.360138 -0.487252,-0.750146l0 -0.85311c0,-0.0441811 0.0358189,-0.08 0.08,-0.08 0.0441811,0 0.08,0.0358189 0.08,0.08l0 0.85311c0,0.314244 0.169579,0.51478 0.38663,0.60202 0.0855472,0.0343819 0.178909,0.0515787 0.272728,0.0515787 0.093815,0 0.187181,-0.0171969 0.272724,-0.0515787 0.217055,-0.0872402 0.386634,-0.28778 0.386634,-0.60202l0 -0.85311z"/>
    <path id="_516429448" class="fil0" d="M3.41333 1.36246c0.0618386,0 0.117827,0.0250709 0.158358,0.0655984 0.0405276,0.0405315 0.0655984,0.0965197 0.0655984,0.158358 0,0.0618307 -0.0250709,0.117827 -0.0655984,0.158358 -0.0405315,0.0405276 -0.0965197,0.0655984 -0.158358,0.0655984 -0.0618386,0 -0.117827,-0.0250709 -0.158358,-0.0655984 -0.0405276,-0.0405315 -0.0655984,-0.0965276 -0.0655984,-0.158358 0,-0.0618386 0.0250709,-0.117827 0.0655984,-0.158358 0.0405315,-0.0405276 0.0965197,-0.0655984 0.158358,-0.0655984zm0.0829409 0.141016c-0.0212205,-0.0212165 -0.0505472,-0.0343465 -0.0829409,-0.0343465 -0.0323937,0 -0.0617205,0.0131299 -0.0829409,0.0343465 -0.0212165,0.0212205 -0.0343465,0.0505472 -0.0343465,0.0829409 0,0.0323898 0.0131299,0.0617205 0.0343465,0.0829409 0.0212205,0.0212165 0.0505472,0.0343465 0.0829409,0.0343465 0.0323937,0 0.0617205,-0.0131299 0.0829409,-0.0343465 0.0212165,-0.0212205 0.0343465,-0.0505512 0.0343465,-0.0829409 0,-0.0323937 -0.0131299,-0.0617205 -0.0343465,-0.0829409z"/>
   </g>
   <path id="_516429424" class="fil0" d="M3.93297 3.82877c0.326634,0.0184173 0.620756,0.154866 0.833283,0.363835 0.21435,0.210764 0.346205,0.494937 0.346205,0.806732l0 0.867323c0,0.0589094 -0.0477598,0.106669 -0.106669,0.106669l-3.18492 0c-0.0589094,0 -0.106669,-0.0477598 -0.106669,-0.106669l0 -0.867323c0,-0.311787 0.13185,-0.595969 0.346205,-0.806728 0.213496,-0.209921 0.509339,-0.346685 0.837764,-0.364102 0.0425118,-0.00216535 0.0804606,0.0209291 0.0992874,0.0561339 0.0528701,0.0919567 0.119177,0.164661 0.19302,0.213421 0.062063,0.0409803 0.129287,0.0646969 0.197732,0.0680512 0.0684449,0.00335433 0.139709,-0.0134961 0.210055,-0.0536181 0.0812008,-0.046315 0.161531,-0.123626 0.236059,-0.236488 0.0224134,-0.0338622 0.0608583,-0.0507323 0.0986496,-0.0472362zm0.684118 0.515504c-0.165189,-0.162425 -0.390134,-0.272252 -0.641559,-0.298673 -0.0842283,0.114492 -0.176618,0.197335 -0.272268,0.251894 -0.106823,0.0609252 -0.21722,0.0864094 -0.325055,0.081122 -0.107846,-0.0052874 -0.211559,-0.0411969 -0.305236,-0.103051 -0.0850039,-0.056126 -0.161807,-0.133917 -0.225626,-0.229571 -0.249902,0.027122 -0.473413,0.136673 -0.637776,0.298283 -0.174618,0.171693 -0.282031,0.402492 -0.282031,0.655059l0 0.760654 2.97158 0 0 -0.760654c0,-0.252575 -0.107413,-0.48337 -0.282031,-0.655063z"/>
   <g>
    <polygon id="_516429808" class="fil0" points="2.61004,4.71365 2.61004,5.50989 2.3967,5.50989 2.3967,4.71365 "/>
    <polygon id="_516429664" class="fil0" points="3.06313,4.71365 3.06313,5.50989 2.8498,5.50989 2.8498,4.71365 "/>
   </g>
   <g>
    <polygon id="_516429952" class="fil0" points="3.97317,4.71365 3.97317,5.50989 3.75983,5.50989 3.75983,4.71365 "/>
    <polygon id="_516428728" class="fil0" points="4.42627,4.71365 4.42627,5.50989 4.21293,5.50989 4.21293,4.71365 "/>
   </g>
   <polygon id="_516428704" class="fil0" points="3.52,4.30084 3.52,5.79681 3.30666,5.79681 3.30666,4.30084 "/>
   <path id="_516429040" class="fil0" d="M3.72844 3.66169c0,-0.0589094 0.0477598,-0.106669 0.106669,-0.106669 0.0589094,0 0.106669,0.0477598 0.106669,0.106669l0 0.349906c0,0.0263307 -0.00954331,0.0504252 -0.0253583,0.0690315 -0.0624213,0.0838543 -0.129303,0.148776 -0.198453,0.196307 -0.106756,0.0733819 -0.218398,0.105461 -0.327846,0.101953 -0.109425,-0.00350394 -0.214264,-0.0424291 -0.307811,-0.111067 -0.0658465,-0.048311 -0.126126,-0.111488 -0.178268,-0.187346 -0.012752,-0.0184685 -0.0188543,-0.0395512 -0.0188346,-0.0604173l-0.000334646 0 0 -0.358366c0,-0.0589094 0.0477598,-0.106669 0.106669,-0.106669 0.0589094,0 0.106669,0.0477598 0.106669,0.106669l0 0.324457c0.033626,0.0441929 0.0706299,0.0811693 0.109933,0.110004 0.0593268,0.0435315 0.123646,0.0681496 0.188646,0.0702323 0.0649764,0.00207874 0.133067,-0.0182047 0.200343,-0.0644488 0.0443898,-0.0305118 0.0884764,-0.072185 0.131307,-0.125984l0 -0.31426z"/>
  </g>
  <path class="fil1" d="M3.41333 1.95478c0.136406,0 0.274768,0.0061378 0.404354,0.0183976 0.362602,0.034315 0.645894,0.128449 0.645894,0.288268 0,0.131157 -0.0445039,0.31826 -0.0942244,0.491681 0.061748,-0.0955197 0.119457,-0.196614 0.164201,-0.295323 0.052,-0.11472 0.0857874,-0.224161 0.0860669,-0.313567 0.000232283,-0.0736969 -0.0241299,-0.133421 -0.0842992,-0.168161 -0.0302835,-0.0174843 -0.0700354,-0.0302087 -0.120579,-0.0372047 -0.0293583,-0.00405906 -0.0527677,-0.0236102 -0.0631181,-0.0492598 -0.0674843,-0.142543 -0.166677,-0.26737 -0.288528,-0.365398 -0.121343,-0.097622 -0.264835,-0.168472 -0.421528,-0.203594 -0.0372087,-0.00822047 -0.0625394,-0.0412126 -0.0625079,-0.077811l-0.00030315 0 0 -0.202811 -0.330858 0 0 0.202811c0,0.0405354 -0.0301496,0.0740236 -0.0692441,0.0792795 -0.154185,0.0356063 -0.295413,0.105843 -0.415094,0.202126 -0.122976,0.0989331 -0.222878,0.225157 -0.290394,0.369346 -0.0118701,0.0253937 -0.0354252,0.0415906 -0.0612677,0.045189l1.5748e-005 0.000122047c-0.0505433,0.00699606 -0.0902953,0.0197165 -0.120583,0.0372047 -0.0601693,0.0347402 -0.0845315,0.0944685 -0.0842992,0.168161 0.000283465,0.0894094 0.0340709,0.198854 0.0860709,0.313571 0.0447402,0.0987047 0.102449,0.199795 0.164197,0.295311 -0.0497165,-0.173417 -0.0942205,-0.360516 -0.0942205,-0.491673 0,-0.159819 0.283291,-0.253953 0.645894,-0.288268 0.129587,-0.0122598 0.267949,-0.0183976 0.404354,-0.0183976zm0.158358 -0.52672c0.0405276,0.0405315 0.0655984,0.0965197 0.0655984,0.158358 0,0.0618307 -0.0250709,0.117827 -0.0655984,0.158358 -0.0405315,0.0405276 -0.0965197,0.0655984 -0.158358,0.0655984 -0.0618386,0 -0.117827,-0.0250709 -0.158358,-0.0655984 -0.0405276,-0.0405315 -0.0655984,-0.0965276 -0.0655984,-0.158358 0,-0.0618386 0.0250709,-0.117827 0.0655984,-0.158358 0.0405315,-0.0405276 0.0965197,-0.0655984 0.158358,-0.0655984 0.0618386,0 0.117827,0.0250709 0.158358,0.0655984z"/>
  <path class="fil2" d="M3.80269 2.13193c-0.120772,-0.0114291 -0.254098,-0.0171457 -0.389354,-0.0171457 -0.135256,0 -0.268583,0.00571654 -0.389354,0.0171457 -0.100197,0.00948031 -0.192583,0.021315 -0.270004,0.0352323l0 0.816516c0,0.314244 0.169579,0.51478 0.38663,0.60202 0.0855472,0.0343819 0.178909,0.0515787 0.272728,0.0515787 0.093815,0 0.187181,-0.0171969 0.272724,-0.0515787 0.217055,-0.0872402 0.386634,-0.28778 0.386634,-0.60202l0 -0.816516c-0.0774213,-0.0139173 -0.169811,-0.025752 -0.270004,-0.0352323z"/>
  <path class="fil1" d="M3.97553 4.0456c-0.0842283,0.114492 -0.176618,0.197335 -0.272268,0.251894 -0.060315,0.0344016 -0.121772,0.0575039 -0.183264,0.0701457l0 1.39235 1.37912 0 0 -0.760654c0,-0.252575 -0.107413,-0.48337 -0.282031,-0.655063 -0.165189,-0.162425 -0.390134,-0.272252 -0.641559,-0.298673zm0.237398 1.46429l0 -0.796236 0.213339 0 0 0.796236 -0.213339 0zm-0.453098 -0.796236l0.213339 0 0 0.796236 -0.213339 0 0 -0.796236z"/>
  <path class="fil1" d="M3.30666 5.75999l0 -1.38944c-0.0821063,-0.0145472 -0.160925,-0.0469409 -0.233689,-0.0949843 -0.0850039,-0.056126 -0.161807,-0.133917 -0.225626,-0.229571 -0.249902,0.027122 -0.473413,0.136673 -0.637776,0.298283 -0.174618,0.171693 -0.282031,0.402492 -0.282031,0.655059l0 0.760654 1.37912 0zm-0.456866 -0.250102l0 -0.796236 0.213339 0 0 0.796236 -0.213339 0zm-0.23976 -0.796236l0 0.796236 -0.213339 0 0 -0.796236 0.213339 0z"/>
  <path class="fil2" d="M3.3968 4.16638c0.0649764,0.00207874 0.133067,-0.0182047 0.200343,-0.0644488 0.0443898,-0.0305118 0.0884764,-0.072185 0.131307,-0.125984l0 -0.235504c-0.100429,0.0378858 -0.207984,0.0568346 -0.315114,0.0568346 -0.107134,0 -0.214685,-0.0189488 -0.315114,-0.0568346l0 0.245701c0.033626,0.0441929 0.0706299,0.0811693 0.109933,0.110004 0.0593268,0.0435315 0.123646,0.0681496 0.188646,0.0702323z"/>
  <path class="fil3" d="M3.33039 1.66936c0.0212205,0.0212165 0.0505472,0.0343465 0.0829409,0.0343465 0.0323937,0 0.0617205,-0.0131299 0.0829409,-0.0343465 0.0212165,-0.0212205 0.0343465,-0.0505512 0.0343465,-0.0829409 0,-0.0323937 -0.0131299,-0.0617205 -0.0343465,-0.0829409 -0.0212205,-0.0212165 -0.0505472,-0.0343465 -0.0829409,-0.0343465 -0.0323937,0 -0.0617205,0.0131299 -0.0829409,0.0343465 -0.0212165,0.0212205 -0.0343465,0.0505472 -0.0343465,0.0829409 0,0.0323898 0.0131299,0.0617205 0.0343465,0.0829409z"/>
  <path class="fil2" d="M2.59397 2.64848l0 -0.441689c-0.0451457,0.0165787 -0.0708898,0.034874 -0.0708898,0.0546535 0,0.0994961 0.0316614,0.243638 0.0708898,0.387035z"/>
  <path class="fil2" d="M4.23269 2.2068l0 0.441689c0.0392283,-0.143398 0.0708898,-0.287539 0.0708898,-0.387035 0,-0.0197795 -0.0257441,-0.0380748 -0.0708898,-0.0546535z"/>
 </g>
 <rect class="fil4" width="6.82666" height="6.82666"/>
</svg>
