<?xml version="1.0" encoding="UTF-8"?>
<!DOCTYPE svg PUBLIC "-//W3C//DTD SVG 1.1//EN" "http://www.w3.org/Graphics/SVG/1.1/DTD/svg11.dtd">
<!-- Creator: CorelDRAW -->
<svg xmlns="http://www.w3.org/2000/svg" xml:space="preserve" width="6.82666in" height="6.82666in" style="shape-rendering:geometricPrecision; text-rendering:geometricPrecision; image-rendering:optimizeQuality; fill-rule:evenodd; clip-rule:evenodd"
viewBox="0 0 6.82666 6.82666"
 xmlns:xlink="http://www.w3.org/1999/xlink">
 <defs>
  <style type="text/css">
   <![CDATA[
    .fil5 {fill:none}
    .fil2 {fill:#949494}
    .fil0 {fill:#EBE5DF}
    .fil3 {fill:#F45A52}
    .fil4 {fill:#FECA5F}
    .fil1 {fill:#212121;fill-rule:nonzero}
   ]]>
  </style>
 </defs>
 <g id="Layer_x0020_1">
  <metadata id="CorelCorpID_0Corel-Layer"/>
  <path class="fil0" d="M4.41935 3.46666l-1.17333 0 0 1.6 1.17333 0 0 -1.6zm-0.932441 1.06268l0 0zm0.148059 -0.298602l0 0zm0.136744 -0.341736l0 0zm0.24563 1.00932l0 0zm-0.182 0.0764921c-0.000188976,0 -0.000374016,-3.93701e-006 -0.000562992,-3.93701e-006 -0.001,-3.93701e-006 -0.00200394,-1.5748e-005 -0.00300394,-3.54331e-005 -7.87402e-005,0 -0.00015748,-3.93701e-006 -0.00023622,-3.93701e-006 -0.060248,-0.00110236 -0.121677,-0.0231181 -0.18039,-0.064437 -0.00576772,-0.00348425 -0.0108071,-0.0083622 -0.0145787,-0.0144921 -0.0234764,-0.0381693 -0.0363701,-0.0783189 -0.0407008,-0.119157 -0.00978346,-0.00983465 -0.0194449,-0.0203937 -0.0289567,-0.0316811l-0.00187402 -0.00207087c-0.0105315,-0.0127441 -0.0205591,-0.0270118 -0.0298268,-0.0429724 -0.00914961,-0.0157559 -0.0172835,-0.0327283 -0.0240866,-0.0509803 -0.00647638,-0.0173819 -0.0119173,-0.0361929 -0.0160787,-0.0565276 -0.00392913,-0.0192047 -0.00670079,-0.0400354 -0.00811417,-0.0626024l-3.93701e-005 -0.000511811 -0.000330709 -0.00456299 -0.00034252 -0.00635827 -0.000224409 -0.0052126 -0.000141732 -0.00538189 0.00015748 0 0 -0.000362205 -9.05512e-005 -0.00275591 0 -0.0137638 -3.93701e-006 -0.000173228c7.08661e-005,-0.00135433 8.66142e-005,-0.00269291 3.54331e-005,-0.00401969 0.000326772,-0.0119409 0.00118898,-0.0250354 0.0026811,-0.0393346 0.00150394,-0.0144567 0.00356693,-0.0292874 0.00626772,-0.0443583 0.00250394,-0.0139843 0.00588976,-0.0296496 0.0102677,-0.0471496 0.00382283,-0.015252 0.00845669,-0.0315866 0.0139961,-0.0490472l0.00084252 -0.00305118c0.00730709,-0.0223819 0.0150079,-0.0427087 0.0228819,-0.0611181 0.00897638,-0.0209921 0.0180236,-0.0390787 0.0268583,-0.0546299 0.011815,-0.0208031 0.0233071,-0.0372441 0.0337953,-0.0501654 0.00448819,-0.00553937 0.00876378,-0.0104016 0.0127795,-0.0146575 -0.000456693,0.019 0.000275591,0.0356102 0.00193307,0.0497992 0.00287795,0.024622 0.00879921,0.0438583 0.0165433,0.0573583l0.000192913 0.000330709 0.000716535 0.00127559c0.000795276,0.00136614 0.00165354,0.00266535 0.00256693,0.00390945 0.0130551,0.0188307 0.0387008,0.0244331 0.0585157,0.0123504 0.00402756,-0.00246063 0.00751969,-0.0054685 0.0104291,-0.00887402 0.00399213,-0.00449606 0.00782283,-0.0100827 0.0113898,-0.0167677 0.00293307,-0.00548425 0.00585433,-0.0120276 0.00869291,-0.0196063 0.0033937,-0.00905906 0.00629528,-0.0192598 0.00867717,-0.0304094 0.0023622,-0.0110669 0.00434646,-0.0230551 0.00590157,-0.0357559 0.00148425,-0.0121102 0.0026811,-0.0262677 0.00354724,-0.0423031 0.000858268,-0.015874 0.00131102,-0.0313307 0.00131102,-0.0460906 0,-0.0275827 0.00198819,-0.0547087 0.00607874,-0.0809094 0.00400394,-0.025689 0.0101181,-0.0515512 0.0184449,-0.0772402l7.87402e-005 -0.000240157 0.000350394 -0.00107087c0.00809449,-0.0246772 0.0179921,-0.0484961 0.0297717,-0.0710669 0.0113858,-0.0218031 0.0248346,-0.0430472 0.0404252,-0.0634409 0.00455118,-0.00595276 0.00911417,-0.0115866 0.0136654,-0.0168307 0.00453937,-0.00524016 0.00934646,-0.0104488 0.0144094,-0.0156024 0.00535039,-0.00544094 0.010437,-0.0103228 0.0152126,-0.0145945l0.00191339 -0.00169291c-0.000944882,0.0277402 3.54331e-005,0.0668701 0.0073189,0.11465 0.00616142,0.040374 0.0168071,0.0871535 0.034563,0.138776 0.0145354,0.0422677 0.0341417,0.0882795 0.0603937,0.13737 0.0230039,0.0430197 0.0507953,0.0877126 0.084315,0.133358l0.000574803 0.000759843c0.0399331,0.0559016 0.0659173,0.108299 0.0820472,0.156165 0.0159134,0.0472283 0.022315,0.0899528 0.0231654,0.127154 0.000854331,0.0374331 -0.00390551,0.0695945 -0.0102362,0.0952559 -0.0061811,0.0250551 -0.0138307,0.0436063 -0.0190748,0.0546654 -0.0035748,0.00755906 -0.00682283,0.0140394 -0.00974016,0.0194961 -0.00319685,0.00598819 -0.00676772,0.0122402 -0.0106496,0.0187047 -0.00311811,0.00518898 -0.00693701,0.0111299 -0.0113976,0.0177441 -0.00404331,0.00600787 -0.00799606,0.0115512 -0.0118504,0.0166457 -0.0108819,0.0143858 -0.022,0.0275866 -0.0332874,0.0395984 -0.00302756,0.00322441 -0.00605512,0.00635827 -0.0090748,0.00940157 -0.00961811,0.0456457 -0.0279921,0.0835827 -0.046815,0.112815 -0.00220079,0.00342913 -0.0049252,0.0066063 -0.00816535,0.00940945 -0.0525394,0.0455157 -0.111862,0.067315 -0.173835,0.0670827z"/>
  <path class="fil1" d="M4.83752 2.97867l0 2.94184c0,0.0589094 -0.0477598,0.106669 -0.106669,0.106669l-1.79634 0c-0.0589094,0 -0.106669,-0.0477598 -0.106669,-0.106669l0 -2.94184c0,-0.478264 0.262232,-0.78515 0.597878,-0.920059 0.129016,-0.0518543 0.268295,-0.0777835 0.406957,-0.0777835 0.138661,0 0.277941,0.0259291 0.406957,0.0777835 0.33565,0.134909 0.597886,0.441787 0.597886,0.920059zm-0.213339 2.83517l0 -2.83517c0,-0.377256 -0.203386,-0.617921 -0.463713,-0.722555 -0.102748,-0.0412992 -0.214965,-0.0619488 -0.327791,-0.0619488 -0.112827,0 -0.225043,0.0206496 -0.327791,0.0619488 -0.260323,0.104634 -0.463705,0.345303 -0.463705,0.722555l0 2.83517 1.583 0z"/>
  <path class="fil1" d="M3.93935 1.38749c0,0.0589094 -0.0477598,0.106669 -0.106669,0.106669 -0.0589094,0 -0.106669,-0.0477598 -0.106669,-0.106669l0 -0.426665c0,-0.0589094 0.0477598,-0.106669 0.106669,-0.106669 0.0589094,0 0.106669,0.0477598 0.106669,0.106669l0 0.426665z"/>
  <path class="fil1" d="M3.0918 1.48474c-0.0589094,0 -0.106669,-0.0477598 -0.106669,-0.106669 0,-0.0589094 0.0477598,-0.106669 0.106669,-0.106669l1.1443 0 0.494965 -0.304161c0.0501654,-0.0308346 0.115835,-0.0151654 0.146669,0.035 0.0308346,0.0501654 0.0151654,0.115835 -0.035,0.146669l-0.517988 0.318307c-0.016815,0.0110709 -0.0369409,0.0175236 -0.0585787,0.0175236l-1.17437 0z"/>
  <path class="fil1" d="M1.69476 0.808004l1.46057 0.464622c0.0559173,0.0177165 0.0868858,0.0774173 0.0691693,0.133335 -0.010878,0.0343386 -0.0375984,0.0592638 -0.0695433,0.0692874l-1.46995 0.467606c-0.0559173,0.0177165 -0.115618,-0.013252 -0.133335,-0.0691693 -0.00337795,-0.0106614 -0.00498425,-0.0214646 -0.00498425,-0.0320827l-0.000433071 0 0 -0.935449c0,-0.0589094 0.0477598,-0.106669 0.106669,-0.106669 0.0148504,0 0.0289882,0.00303937 0.0418346,0.00851969zm1.07811 0.565874l-1.01328 -0.322335 0 0.644669 1.01328 -0.322335z"/>
  <path class="fil1" d="M4.14611 1.49261c-0.0589094,0 -0.106669,-0.0477598 -0.106669,-0.106669 0,-0.0589094 0.0477598,-0.106669 0.106669,-0.106669 0.295602,0 0.566012,0.115031 0.768752,0.302634 0.204201,0.188957 0.339366,0.451492 0.362039,0.744165 0.000669291,0.00869291 0.00125197,0.144035 0.00172441,0.320087 0.00116929,0.436472 0.00176772,0.824709 0.00176772,0.834051 0,0.0589094 -0.0477598,0.106669 -0.106669,0.106669 -0.0589094,0 -0.106669,-0.0477598 -0.106669,-0.106669 0,-0.0260157 -0.000318898,-0.603665 -0.000933071,-0.834051 -0.000444882,-0.166689 -0.00101969,-0.29513 -0.00172441,-0.304252 -0.0184173,-0.237764 -0.128067,-0.450898 -0.293701,-0.604165 -0.164213,-0.151957 -0.383874,-0.24513 -0.624587,-0.24513z"/>
  <path class="fil1" d="M3.61935 1.28082l0.426669 0c0.0589094,0 0.106669,0.0477598 0.106669,0.106669l0 0.699539c0,0.0589094 -0.0477598,0.106669 -0.106669,0.106669l-0.426669 0c-0.0589094,0 -0.106669,-0.0477598 -0.106669,-0.106669l0 -0.699539c0,-0.0589094 0.0477598,-0.106669 0.106669,-0.106669zm0.32 0.213339l-0.213331 0 0 0.486201 0.213331 0 0 -0.486201z"/>
  <g id="_516431488">
   <path id="_516432136" class="fil1" d="M3.49823 4.79866c-0.0139882,-0.0168543 -0.0269528,-0.0351535 -0.0384724,-0.0549921 -0.0112874,-0.0194331 -0.0214843,-0.040811 -0.0302362,-0.0642913 -0.00805906,-0.021622 -0.0147756,-0.0447638 -0.0198386,-0.0695079 -0.00462598,-0.0226378 -0.00790945,-0.0464094 -0.00961417,-0.0713386 -0.000251969,-0.00187795 -0.000389764,-0.00379134 -0.000397638,-0.00573622l-0.000181102 -0.00323622c-4.72441e-005,-0.00084252 -0.000153543,-0.00306299 -0.00034252,-0.00738189 -4.33071e-005,-0.00092126 -0.00011811,-0.00311811 -0.000220472,-0.00658268l-7.08661e-005 -0.00259449c-0.000232283,-0.00181496 -0.000346457,-0.00366142 -0.000346457,-0.00553543l0 -0.0165197c0,-0.000208661 7.48031e-005,-0.00107087 0.000204724,-0.00347244 5.51181e-005,-0.00101969 0.000110236,-0.00190157 0.000165354,-0.00261417 0.000389764,-0.0149291 0.0013622,-0.0304134 0.00302362,-0.0463228 0.00162598,-0.0156339 0.00401575,-0.032563 0.00729528,-0.0508425 0.00320079,-0.017878 0.00694882,-0.0355984 0.0112953,-0.0529528 0.00446063,-0.0178228 0.00956299,-0.0359173 0.0153543,-0.0541732 0.000311024,-0.000976378 0.000653543,-0.00193307 0.00101969,-0.00287008 0.00836614,-0.0257283 0.0170315,-0.048685 0.0257835,-0.0691535 0.0102717,-0.0240157 0.0208346,-0.0450787 0.0312953,-0.0634961 0.0143819,-0.0253228 0.0287244,-0.0457677 0.0419921,-0.0621181 0.0136063,-0.0167717 0.0262677,-0.0293819 0.0368189,-0.0386181 0.00805512,-0.00704331 0.0170394,-0.0121102 0.0264646,-0.0153622 0.0101772,-0.00351575 0.0204606,-0.00483465 0.0303386,-0.00422441 0.00535433,0.000330709 0.0105827,0.00118504 0.0155866,0.00251575 0.00479921,0.00127559 0.00962992,0.00310236 0.0143937,0.00541732 0.000692913,-0.0256063 0.00308268,-0.0518307 0.00722835,-0.0784291 0.00484252,-0.0310354 0.012,-0.0615591 0.0215787,-0.0910827l0.000173228 -0.000511811 0 0 0.000188976 -0.000562992 0.000240157 -0.000677165c0.00929528,-0.028311 0.0210472,-0.0563543 0.0353465,-0.083752 0.0139331,-0.0266811 0.0300039,-0.0521732 0.0482795,-0.0760748 0.00522835,-0.00684252 0.0109213,-0.0138307 0.0170748,-0.0209291 0.00587795,-0.00678346 0.011937,-0.0133622 0.0181693,-0.0197008 0.00584252,-0.00594094 0.0122795,-0.0120669 0.0193071,-0.0183504 0.00683858,-0.00611024 0.0135591,-0.0117402 0.0201024,-0.0168268l0.00274409 -0.00212598c0.000925197,-0.000645669 0.00186614,-0.00124803 0.00282283,-0.00180709l0.00011811 -8.26772e-005c0.000527559,-0.000326772 0.00105906,-0.000641732 0.00159449,-0.000944882 0.00204724,-0.00126378 0.00409055,-0.00240157 0.00611811,-0.00341732l-3.54331e-005 -6.69291e-005c0.00291339,-0.00145276 0.00619685,-0.00280315 0.00978346,-0.00402756 0.00447638,-0.00152756 0.00892126,-0.00262205 0.0132756,-0.0032874 0.0016811,-0.000251969 0.00335433,-0.000401575 0.00501969,-0.00046063 0.00268504,-0.00023622 0.00537008,-0.00034252 0.00802362,-0.00030315l0.00208661 3.14961e-005c0.000858268,1.1811e-005 0.00170472,5.11811e-005 0.00255118,0.000106299l7.87402e-006 -0.000106299c0.00959449,0.000692913 0.0190866,0.00324803 0.0279606,0.0073937 0.00875984,0.00408661 0.0167559,0.00972047 0.0234764,0.0166142 0.00703937,0.00721654 0.012815,0.0159764 0.0167874,0.0259724 0.00348425,0.00877559 0.0054685,0.0183307 0.00556299,0.0284331 8.66142e-005,0.00113386 0.000133858,0.00228346 0.000133858,0.00344094 0,0.00181496 -0.000114173,0.00360236 -0.000326772,0.0053622 -0.00153543,0.023252 -0.00172835,0.0612087 0.00585827,0.110957 0.00544882,0.035685 0.0149252,0.0772283 0.0308071,0.123413 0.0134803,0.0391969 0.0312559,0.0811063 0.0545866,0.124736 0.0208307,0.0389528 0.0464409,0.0800315 0.0778307,0.122776 0.000468504,0.000637795 0.000917323,0.00128346 0.00134252,0.00193701l0.00030315 0.000456693c0.0450157,0.0630591 0.0746024,0.123051 0.0932677,0.178429 0.018937,0.0561969 0.0265709,0.10776 0.0276063,0.153098 0.00105906,0.046374 -0.00481496,0.0861181 -0.0126299,0.117799 -0.00796457,0.0322717 -0.0179843,0.0565197 -0.024874,0.0710512 -0.00335433,0.00708268 -0.00730709,0.0148622 -0.0117913,0.0232559 -0.00435433,0.0081378 -0.00859055,0.015622 -0.0127008,0.0224567 -0.00514961,0.0085748 -0.00974016,0.0158346 -0.0137874,0.0218425 -0.00465748,0.00691339 -0.00952362,0.0137165 -0.0145787,0.0203976 -0.0125157,0.0165433 -0.025689,0.0321378 -0.0394409,0.0467677 -0.0134606,0.0143307 -0.0278228,0.0278976 -0.0429921,0.040685l-0.000452756 0.000374016 0.000110236 0.000133858 -0.000704724 0.00057874c-0.000622047,0.000507874 -0.00125591,0.000992126 -0.0018937,0.00146457 -0.0368937,0.0305906 -0.0761654,0.0538268 -0.116827,0.0697717 -0.0423071,0.0165866 -0.0861772,0.0251969 -0.13052,0.0259094 -0.0442087,0.000712598 -0.0883976,-0.00647638 -0.131472,-0.0214685 -0.0422283,-0.0147008 -0.083248,-0.0367677 -0.122004,-0.0660906 -0.0156181,-0.011811 -0.0311417,-0.0250827 -0.0464882,-0.0397913 -0.0148701,-0.014252 -0.0292835,-0.029622 -0.0431614,-0.0460787 -0.00073622,-0.000874016 -0.00143701,-0.00177165 -0.00209843,-0.00268504zm0.0369803 -0.0986969c0.00926772,0.0159606 0.0192953,0.0302283 0.0298268,0.0429724 0.000641732,0.000669291 0.00126772,0.00135433 0.00187402,0.00207087 0.0121142,0.014374 0.0244764,0.0275709 0.0370118,0.0395906 0.0124055,0.0118858 0.025311,0.0228858 0.0386339,0.0329646 0.0316811,0.0239646 0.0646575,0.041811 0.0981063,0.0534567 0.0334567,0.0116417 0.0675512,0.0172323 0.101421,0.016685 0.033626,-0.000543307 0.0672795,-0.00722441 0.100138,-0.0201024 0.0324567,-0.0127244 0.0640906,-0.0316024 0.0940945,-0.0566929l7.87402e-006 1.5748e-005 0.00105906 -0.000897638 0.000704724 -0.00057874 9.05512e-005 0.000110236 1.5748e-005 -1.1811e-005 0.000374016 -0.000283465c0.0114291,-0.00969291 0.023,-0.0207402 0.0346614,-0.0331535 0.0112874,-0.0120118 0.0224055,-0.0252126 0.0332874,-0.0395984 0.00385433,-0.00509449 0.00780709,-0.0106378 0.0118504,-0.0166457 0.00446063,-0.00661417 0.00827953,-0.0125551 0.0113976,-0.0177441 0.00388189,-0.00646457 0.00745276,-0.0127165 0.0106496,-0.0187047 0.00291732,-0.00545669 0.00616535,-0.011937 0.00974016,-0.0194961 0.00524409,-0.0110591 0.0128937,-0.0296102 0.0190748,-0.0546654 0.00633071,-0.0256614 0.0110906,-0.0578228 0.0102362,-0.0952559 -0.000850394,-0.0372008 -0.00725197,-0.0799252 -0.0231654,-0.127154 -0.0161299,-0.0478661 -0.0421142,-0.100264 -0.0820787,-0.156142l3.14961e-005 -2.3622e-005 -0.000574803 -0.000759843c-0.0335197,-0.0456457 -0.061311,-0.0903386 -0.084315,-0.133358 -0.026252,-0.0490906 -0.0458583,-0.0951024 -0.0603937,-0.13737 -0.0177559,-0.051622 -0.0284016,-0.0984016 -0.034563,-0.138776 -0.00728346,-0.0477795 -0.00826378,-0.0869094 -0.0073189,-0.11465l-0.00191339 0.00169291c-0.00477559,0.00427165 -0.0098622,0.00915354 -0.0152126,0.0145945 -0.00506299,0.00515354 -0.00987008,0.0103622 -0.0144094,0.0156024 -0.00455118,0.00524409 -0.00911417,0.010878 -0.0136654,0.0168307 -0.0155906,0.0203937 -0.0290394,0.0416378 -0.0404252,0.0634409 -0.0117795,0.0225709 -0.0216772,0.0463898 -0.029752,0.0710748l-1.9685e-005 -7.87402e-006 -0.000350394 0.00107087 -7.87402e-005 0.000240157c-0.00832677,0.025689 -0.0144409,0.0515512 -0.0184449,0.0772402 -0.00409055,0.0262008 -0.00607874,0.0533268 -0.00607874,0.0809094 0,0.0147598 -0.000452756,0.0302165 -0.00131102,0.0460906 -0.000866142,0.0160354 -0.00206299,0.0301929 -0.00354724,0.0423031 -0.00155512,0.0127008 -0.00353937,0.024689 -0.00590157,0.0357559 -0.00238189,0.0111496 -0.00528346,0.0213504 -0.00867717,0.0304094 -0.00283858,0.00757874 -0.00575984,0.014122 -0.00869291,0.0196063 -0.00356693,0.00668504 -0.00739764,0.0122717 -0.0113898,0.0167677 -0.00290945,0.00340551 -0.00640157,0.00641339 -0.0104291,0.00887402 -0.019815,0.0120827 -0.0454606,0.00648031 -0.0585157,-0.0123504 -0.000913386,-0.00124409 -0.00177165,-0.00254331 -0.00256693,-0.00390945l-0.000740157 -0.00126378 2.3622e-005 -1.1811e-005 -0.000192913 -0.000330709c-0.00774409,-0.0135 -0.0136654,-0.0327362 -0.0165433,-0.0573583 -0.00165748,-0.014189 -0.00238976,-0.0307992 -0.00193307,-0.0497992 -0.00401575,0.00425591 -0.00829134,0.00911811 -0.0127795,0.0146575 -0.0104882,0.0129213 -0.0219803,0.0293622 -0.0337953,0.0501654 -0.00883465,0.0155512 -0.0178819,0.0336378 -0.0268583,0.0546299 -0.00787402,0.0184094 -0.0155748,0.0387362 -0.0228819,0.0611181 -0.000244094,0.00101969 -0.000523622,0.00203543 -0.00084252,0.00305118 -0.00553937,0.0174606 -0.0101732,0.0337953 -0.0139961,0.0490472 -0.00437795,0.0175 -0.00776378,0.0331654 -0.0102677,0.0471496 -0.00270079,0.0150709 -0.00476378,0.0299016 -0.00626772,0.0443583 -0.00149213,0.0142992 -0.00235433,0.0273937 -0.0026811,0.0393346 5.11811e-005,0.00132677 3.54331e-005,0.00266535 -3.54331e-005,0.00401969l3.93701e-006 0.000173228 0 0.0137638c5.90551e-005,0.000909449 9.05512e-005,0.00182677 9.05512e-005,0.00275591l0 0.000362205 -0.00015748 0 0.000141732 0.00538189 0.000224409 0.0052126c3.14961e-005,0.000783465 0.000165354,0.00315748 0.00034252,0.00635827l0.000346457 0.00456299 -1.5748e-005 0 3.93701e-005 0.000511811c0.00141339,0.0225669 0.00418504,0.0433976 0.00811417,0.0626024 0.00416142,0.0203346 0.00960236,0.0391457 0.0160787,0.0565276 0.00680315,0.018252 0.014937,0.0352244 0.0240866,0.0509803z"/>
   <path id="_516431368" class="fil1" d="M3.70673 4.84278c0.0434213,0.0293465 0.0871063,0.0447126 0.128394,0.0449567 0.0392165,0.000232283 0.0773858,-0.0133622 0.112146,-0.0417913 0.0173858,-0.0284685 0.0335039,-0.0666929 0.0361811,-0.112854 0.00217323,-0.0374528 -0.00435039,-0.0805079 -0.0258386,-0.128551 -0.0447598,-0.100063 -0.0811457,-0.177217 -0.107213,-0.231024 -0.0195,0.0468937 -0.0479921,0.104008 -0.0875354,0.158165 -0.0397126,0.054378 -0.0696811,0.115799 -0.078626,0.176689 -0.00677559,0.0461575 -0.00109449,0.0921969 0.0224921,0.134409zm0.128051 0.132028c-0.0612835,-0.000358268 -0.123866,-0.0224173 -0.18363,-0.0644764 -0.00576772,-0.00348425 -0.0108071,-0.0083622 -0.0145787,-0.0144921 -0.0388858,-0.0632283 -0.0487402,-0.131886 -0.0387205,-0.200102 0.0110945,-0.0755354 0.0471299,-0.150173 0.0946732,-0.215268 0.0790197,-0.10822 0.108031,-0.229327 0.108114,-0.229673l3.54331e-005 1.1811e-005c0.00285039,-0.0117756 0.0105787,-0.0223031 0.0221575,-0.0283504 0.0213071,-0.011122 0.0476024,-0.00286614 0.0587283,0.0184409 0.000169291,0.000322835 0.0592559,0.112752 0.155602,0.328134 0.0278504,0.0622638 0.036252,0.118969 0.0333583,0.168839 -0.00390945,0.0673228 -0.0281575,0.121571 -0.0531457,0.160469l-3.14961e-005 -1.9685e-005c-0.00220079,0.00342913 -0.0049252,0.0066063 -0.00816535,0.00940945 -0.0526969,0.0456535 -0.11222,0.0674449 -0.174398,0.0670787z"/>
  </g>
  <polygon class="fil2" points="1.7596,1.69621 2.77288,1.37388 1.7596,1.05154 "/>
  <polygon class="fil3" points="3.72602,1.49416 3.72602,1.98036 3.93935,1.98036 3.93935,1.49416 3.83269,1.49416 "/>
  <path class="fil3" d="M3.77169 3.88899l0 0zm-0.136701 0.341732l0 0zm-0.148098 0.298614l0 0zm0.587331 -0.298638l0 0zm-0.189047 -0.523244c-0.00477559,0.00427165 -0.0098622,0.00915354 -0.0152126,0.0145945 -0.00506299,0.00515354 -0.00987008,0.0103622 -0.0144094,0.0156024 -0.00455118,0.00524409 -0.00911417,0.010878 -0.0136654,0.0168307 -0.0155906,0.0203937 -0.0290394,0.0416378 -0.0404252,0.0634409 -0.0117795,0.0225709 -0.0216772,0.0463898 -0.0297717,0.0710669l-0.000350394 0.00107087 -7.87402e-005 0.000240157c-0.00832677,0.025689 -0.0144409,0.0515512 -0.0184449,0.0772402 -0.00409055,0.0262008 -0.00607874,0.0533268 -0.00607874,0.0809094 0,0.0147598 -0.000452756,0.0302165 -0.00131102,0.0460906 -0.000866142,0.0160354 -0.00206299,0.0301929 -0.00354724,0.0423031 -0.00155512,0.0127008 -0.00353937,0.024689 -0.00590157,0.0357559 -0.00238189,0.0111496 -0.00528346,0.0213504 -0.00867717,0.0304094 -0.00283858,0.00757874 -0.00575984,0.014122 -0.00869291,0.0196063 -0.00356693,0.00668504 -0.00739764,0.0122717 -0.0113898,0.0167677 -0.00290945,0.00340551 -0.00640157,0.00641339 -0.0104291,0.00887402 -0.019815,0.0120827 -0.0454606,0.00648031 -0.0585157,-0.0123504 -0.000913386,-0.00124409 -0.00177165,-0.00254331 -0.00256693,-0.00390945l-0.000716535 -0.00127559 -0.000192913 -0.000330709c-0.00774409,-0.0135 -0.0136654,-0.0327362 -0.0165433,-0.0573583 -0.00165748,-0.014189 -0.00238976,-0.0307992 -0.00193307,-0.0497992 -0.00401575,0.00425591 -0.00829134,0.00911811 -0.0127795,0.0146575 -0.0104882,0.0129213 -0.0219803,0.0293622 -0.0337953,0.0501654 -0.00883465,0.0155512 -0.0178819,0.0336378 -0.0268583,0.0546299 -0.00787402,0.0184094 -0.0155748,0.0387362 -0.0228819,0.0611181 -0.000244094,0.00101969 -0.000523622,0.00203543 -0.00084252,0.00305118 -0.00553937,0.0174606 -0.0101732,0.0337953 -0.0139961,0.0490472 -0.00437795,0.0175 -0.00776378,0.0331654 -0.0102677,0.0471496 -0.00270079,0.0150709 -0.00476378,0.0299016 -0.00626772,0.0443583 -0.00149213,0.0142992 -0.00235433,0.0273937 -0.0026811,0.0393346 5.11811e-005,0.00132677 3.54331e-005,0.00266535 -3.54331e-005,0.00401969l3.93701e-006 0.000173228 0 0.0137638 9.05512e-005 0.00275591 0 0.000362205 -0.00015748 0 0.000141732 0.00538189 0.000224409 0.0052126 0.00034252 0.00635827 0.000330709 0.00456299 3.93701e-005 0.000511811c0.00141339,0.0225669 0.00418504,0.0433976 0.00811417,0.0626024 0.00416142,0.0203346 0.00960236,0.0391457 0.0160787,0.0565276 0.00680315,0.018252 0.014937,0.0352244 0.0240866,0.0509803 0.00926772,0.0159606 0.0192953,0.0302283 0.0298268,0.0429724l0.00187402 0.00207087c0.00951181,0.0112874 0.0191732,0.0218465 0.0289567,0.0316811 -0.00283858,-0.0268071 -0.00199213,-0.0539094 0.00198031,-0.0809449 0.0110945,-0.0755354 0.0471299,-0.150173 0.0946732,-0.215268 0.0790197,-0.10822 0.108031,-0.229327 0.108114,-0.229673l3.54331e-005 1.1811e-005c0.00285039,-0.0117756 0.0105787,-0.0223031 0.0221575,-0.0283504 0.0213071,-0.011122 0.0476024,-0.00286614 0.0587283,0.0184409 0.000169291,0.000322835 0.0592559,0.112752 0.155602,0.328134 0.0278504,0.0622638 0.036252,0.118969 0.0333583,0.168839 -0.000968504,0.0166929 -0.00318898,0.0325827 -0.00635827,0.0476339 0.00301575,-0.00304331 0.00604331,-0.00617717 0.00907087,-0.00940157 0.0112874,-0.0120118 0.0224055,-0.0252126 0.0332874,-0.0395984 0.00385433,-0.00509449 0.00780709,-0.0106378 0.0118504,-0.0166457 0.00446063,-0.00661417 0.00827953,-0.0125551 0.0113976,-0.0177441 0.00388189,-0.00646457 0.00745276,-0.0127165 0.0106496,-0.0187047 0.00291732,-0.00545669 0.00616535,-0.011937 0.00974016,-0.0194961 0.00524409,-0.0110591 0.0128937,-0.0296102 0.0190748,-0.0546654 0.00633071,-0.0256614 0.0110906,-0.0578228 0.0102362,-0.0952559 -0.000850394,-0.0372008 -0.00725197,-0.0799252 -0.0231654,-0.127154 -0.0161299,-0.0478661 -0.0421142,-0.100264 -0.0820472,-0.156165l-0.000574803 -0.000759843c-0.0335197,-0.0456457 -0.061311,-0.0903386 -0.084315,-0.133358 -0.026252,-0.0490906 -0.0458583,-0.0951024 -0.0603937,-0.13737 -0.0177559,-0.051622 -0.0284016,-0.0984016 -0.034563,-0.138776 -0.00728346,-0.0477795 -0.00826378,-0.0869094 -0.0073189,-0.11465l-0.00191339 0.00169291z"/>
  <path class="fil4" d="M3.83512 4.88774c0.000759843,3.93701e-006 0.00151181,3.93701e-006 0.00226772,-3.93701e-006 -0.000755906,7.87402e-006 -0.00151181,7.87402e-006 -0.00226772,3.93701e-006zm0.122488 -0.283197c-0.0447598,-0.100063 -0.0811457,-0.177217 -0.107213,-0.231024 -0.0195,0.0468937 -0.0479921,0.104008 -0.0875354,0.158165 -0.0397126,0.054378 -0.0696811,0.115799 -0.078626,0.176689 -0.00677559,0.0461575 -0.00109449,0.0921969 0.0224921,0.134409 0.0418031,0.0282559 0.0838504,0.0435472 0.123764,0.0448661l0.00462992 9.05512e-005c0.000755906,-7.87402e-006 0.00151181,-3.93701e-006 0.00226772,-3.93701e-006 0.0384173,-0.000291339 0.0757874,-0.0139094 0.109878,-0.0417874 0.0173858,-0.0284685 0.0335039,-0.0666929 0.0361811,-0.112854 0.00217323,-0.0374528 -0.00435039,-0.0805079 -0.0258386,-0.128551z"/>
  <path class="fil1" d="M3.19269 3.35999l1.28 0c0.0294528,0 0.0533346,0.0238819 0.0533346,0.0533346l0 1.70667c0,0.0294528 -0.0238819,0.0533346 -0.0533346,0.0533346l-1.28 0c-0.0294528,0 -0.0533346,-0.0238819 -0.0533346,-0.0533346l0 -1.70667c0,-0.0294528 0.0238819,-0.0533346 0.0533346,-0.0533346zm1.22667 0.106669l-1.17333 0 0 1.6 1.17333 0 0 -1.6z"/>
  <path class="fil3" d="M3.19269 3.35999l1.28 0c0.0294528,0 0.0533346,0.0238819 0.0533346,0.0533346l0 1.70667c0,0.0294528 -0.0238819,0.0533346 -0.0533346,0.0533346l-1.28 0c-0.0294528,0 -0.0533346,-0.0238819 -0.0533346,-0.0533346l0 -1.70667c0,-0.0294528 0.0238819,-0.0533346 0.0533346,-0.0533346zm1.4315 2.45385l0 -2.83517c0,-0.377256 -0.203386,-0.617921 -0.463713,-0.722555 -0.102748,-0.0412992 -0.214965,-0.0619488 -0.327791,-0.0619488 -0.112827,0 -0.225043,0.0206496 -0.327791,0.0619488 -0.260323,0.104634 -0.463705,0.345303 -0.463705,0.722555l0 2.83517 1.583 0z"/>
 </g>
 <rect class="fil5" width="6.82666" height="6.82666"/>
</svg>
