<?xml version="1.0" encoding="UTF-8"?>
<!DOCTYPE svg PUBLIC "-//W3C//DTD SVG 1.1//EN" "http://www.w3.org/Graphics/SVG/1.1/DTD/svg11.dtd">
<!-- Creator: CorelDRAW -->
<svg xmlns="http://www.w3.org/2000/svg" xml:space="preserve" width="6.82666in" height="6.82666in" style="shape-rendering:geometricPrecision; text-rendering:geometricPrecision; image-rendering:optimizeQuality; fill-rule:evenodd; clip-rule:evenodd"
viewBox="0 0 6.82666 6.82666"
 xmlns:xlink="http://www.w3.org/1999/xlink">
 <defs>
  <style type="text/css">
   <![CDATA[
    .fil3 {fill:none}
    .fil2 {fill:#949494}
    .fil1 {fill:#F45A52}
    .fil0 {fill:#212121;fill-rule:nonzero}
   ]]>
  </style>
 </defs>
 <g id="Layer_x0020_1">
  <metadata id="CorelCorpID_0Corel-Layer"/>
  <g id="_516432760">
   <path id="_516433456" class="fil0" d="M3.89333 0.853331c0.530181,0 1.01019,0.214913 1.35764,0.562362 0.347449,0.347453 0.562362,0.827457 0.562362,1.35764 0,0.530177 -0.214913,1.01019 -0.562362,1.35764 -0.347453,0.347449 -0.827457,0.562362 -1.35764,0.562362 -0.530181,0 -1.01019,-0.214913 -1.35764,-0.562362 -0.347449,-0.347453 -0.562362,-0.827461 -0.562362,-1.35764 0,-0.530181 0.214913,-1.01019 0.562362,-1.35764 0.347453,-0.347449 0.827457,-0.562362 1.35764,-0.562362zm1.2068 0.713197c-0.308839,-0.308835 -0.735508,-0.499858 -1.2068,-0.499858 -0.471295,0 -0.897965,0.191024 -1.2068,0.499858 -0.308835,0.308839 -0.499858,0.735508 -0.499858,1.2068 0,0.471291 0.191024,0.897965 0.499858,1.2068 0.308839,0.308835 0.735508,0.499858 1.2068,0.499858 0.471295,0 0.897965,-0.191024 1.2068,-0.499858 0.308835,-0.308839 0.499858,-0.735512 0.499858,-1.2068 0,-0.471295 -0.191024,-0.897965 -0.499858,-1.2068z"/>
   <path id="_516433192" class="fil0" d="M3.89333 2.34666c0.117807,0 0.224476,0.0477598 0.301693,0.124976 0.0772165,0.0772165 0.124976,0.183886 0.124976,0.301693 0,0.117807 -0.0477598,0.224476 -0.124976,0.301693 -0.0772165,0.0772126 -0.183886,0.124976 -0.301693,0.124976 -0.117807,0 -0.224476,-0.0477638 -0.301693,-0.124976 -0.0772126,-0.0772165 -0.124976,-0.183886 -0.124976,-0.301693 0,-0.117807 0.0477638,-0.224476 0.124976,-0.301693 0.0772165,-0.0772165 0.183886,-0.124976 0.301693,-0.124976zm0.150858 0.275811c-0.0385984,-0.0385984 -0.0919409,-0.0624724 -0.150858,-0.0624724 -0.0589173,0 -0.11226,0.023874 -0.150858,0.0624724 -0.0385945,0.0385984 -0.0624724,0.0919409 -0.0624724,0.150858 0,0.0589173 0.023878,0.11226 0.0624724,0.150858 0.0385984,0.0385945 0.0919409,0.0624724 0.150858,0.0624724 0.0589173,0 0.11226,-0.023878 0.150858,-0.0624724 0.0385984,-0.0385984 0.0624724,-0.0919409 0.0624724,-0.150858 0,-0.0589173 -0.023874,-0.11226 -0.0624724,-0.150858z"/>
   <path id="_516433696" class="fil0" d="M3.83613 5.11999c0.117807,0 0.224476,0.0477638 0.301693,0.124976 0.0772165,0.0772165 0.124976,0.183886 0.124976,0.301693 0,0.117807 -0.0477598,0.224476 -0.124976,0.301693 -0.0772165,0.0772165 -0.183886,0.124976 -0.301693,0.124976 -0.117807,0 -0.224476,-0.0477598 -0.301693,-0.124976 -0.0772126,-0.0772165 -0.124976,-0.183886 -0.124976,-0.301693 0,-0.117807 0.0477638,-0.224476 0.124976,-0.301693 0.0772165,-0.0772126 0.183886,-0.124976 0.301693,-0.124976zm0.150858 0.275811c-0.0385984,-0.0385945 -0.0919409,-0.0624724 -0.150858,-0.0624724 -0.0589173,0 -0.11226,0.023878 -0.150858,0.0624724 -0.0385945,0.0385984 -0.0624724,0.0919409 -0.0624724,0.150858 0,0.0589173 0.023878,0.11226 0.0624724,0.150858 0.0385984,0.0385984 0.0919409,0.0624724 0.150858,0.0624724 0.0589173,0 0.11226,-0.023874 0.150858,-0.0624724 0.0385984,-0.0385984 0.0624724,-0.0919409 0.0624724,-0.150858 0,-0.0589173 -0.023874,-0.11226 -0.0624724,-0.150858z"/>
   <path id="_516433480" class="fil0" d="M3.51613 5.43999c0.0589094,0 0.106669,0.0477598 0.106669,0.106669 0,0.0589094 -0.0477598,0.106669 -0.106669,0.106669l-0.63613 0c-0.454772,0 -0.868134,-0.185972 -1.16775,-0.485587 -0.299614,-0.29961 -0.485587,-0.712972 -0.485587,-1.16775l0 -0.678035c0,-0.0589094 0.0477598,-0.106669 0.106669,-0.106669 0.0589094,0 0.106669,0.0477598 0.106669,0.106669l0 0.678035c0,0.39589 0.162035,0.75587 0.423083,1.01691 0.261047,0.261047 0.621028,0.423083 1.01691,0.423083l0.63613 0z"/>
   <path id="_516432616" class="fil0" d="M1.33333 2.12038l3.93701e-006 0c0.0881063,0 0.168138,0.0359724 0.226083,0.0939173 0.0579449,0.0579449 0.0939173,0.137969 0.0939173,0.226083l0 0.652949c0,0.0881063 -0.0359724,0.168138 -0.0939173,0.226083 -0.0579449,0.0579449 -0.137976,0.0939173 -0.226083,0.0939173l-3.93701e-006 0c-0.0881142,0 -0.168138,-0.0359724 -0.226083,-0.0939173 -0.0579449,-0.0579449 -0.0939173,-0.137976 -0.0939173,-0.226083l0 -0.652949c0,-0.0881142 0.0359724,-0.168138 0.0939173,-0.226083 0.0579449,-0.0579449 0.137969,-0.0939173 0.226083,-0.0939173zm3.93701e-006 0.213339l-3.93701e-006 0c-0.0292205,0 -0.0558701,0.0120354 -0.075248,0.0314134 -0.019378,0.019378 -0.0314134,0.0460276 -0.0314134,0.075248l0 0.652949c0,0.0292205 0.0120354,0.0558701 0.0314134,0.075248 0.019378,0.019378 0.0460276,0.0314134 0.075248,0.0314134l3.93701e-006 0c0.0292205,0 0.0558701,-0.0120354 0.075248,-0.0314134 0.019378,-0.019378 0.0314134,-0.0460276 0.0314134,-0.075248l0 -0.652949c0,-0.0292205 -0.0120354,-0.0558701 -0.0314134,-0.075248 -0.019378,-0.019378 -0.0460276,-0.0314134 -0.075248,-0.0314134z"/>
  </g>
  <path class="fil1" d="M2.18667 2.77333c0,0.471291 0.191024,0.897965 0.499858,1.2068 0.308839,0.308835 0.735508,0.499858 1.2068,0.499858 0.471295,0 0.897965,-0.191024 1.2068,-0.499858 0.308835,-0.308839 0.499858,-0.735512 0.499858,-1.2068 0,-0.471295 -0.191024,-0.897965 -0.499858,-1.2068 -0.308839,-0.308835 -0.735508,-0.499858 -1.2068,-0.499858 -0.471295,0 -0.897965,0.191024 -1.2068,0.499858 -0.308835,0.308839 -0.499858,0.735508 -0.499858,1.2068zm1.70666 0.426669c-0.117807,0 -0.224476,-0.0477638 -0.301693,-0.124976 -0.0772126,-0.0772165 -0.124976,-0.183886 -0.124976,-0.301693 0,-0.117807 0.0477638,-0.224476 0.124976,-0.301693 0.0772165,-0.0772165 0.183886,-0.124976 0.301693,-0.124976 0.117807,0 0.224476,0.0477598 0.301693,0.124976 0.0772165,0.0772165 0.124976,0.183886 0.124976,0.301693 0,0.117807 -0.0477598,0.224476 -0.124976,0.301693 -0.0772165,0.0772126 -0.183886,0.124976 -0.301693,0.124976z"/>
  <path class="fil2" d="M1.44 3.09333l0 -0.652949c0,-0.0292205 -0.0120354,-0.0558701 -0.0314134,-0.075248 -0.019378,-0.019378 -0.0460276,-0.0314134 -0.075252,-0.0314134 -0.0292205,0 -0.0558701,0.0120354 -0.075248,0.0314134 -0.019378,0.019378 -0.0314134,0.0460276 -0.0314134,0.075248l0 0.652949c0,0.0292205 0.0120354,0.0558701 0.0314134,0.075248 0.019378,0.019378 0.0460276,0.0314134 0.075252,0.0314134 0.0292205,0 0.0558701,-0.0120354 0.075248,-0.0314134 0.019378,-0.019378 0.0314134,-0.0460276 0.0314134,-0.075248z"/>
  <path class="fil2" d="M3.68527 5.3958c-0.0385945,0.0385984 -0.0624724,0.0919409 -0.0624724,0.150858 0,0.0589173 0.023878,0.11226 0.0624724,0.150858 0.0385984,0.0385984 0.0919409,0.0624724 0.150858,0.0624724 0.0589173,0 0.11226,-0.023874 0.150858,-0.0624724 0.0385984,-0.0385984 0.0624724,-0.0919409 0.0624724,-0.150858 0,-0.0589173 -0.023874,-0.11226 -0.0624724,-0.150858 -0.0385984,-0.0385945 -0.0919409,-0.0624724 -0.150858,-0.0624724 -0.0589173,0 -0.11226,0.023878 -0.150858,0.0624724z"/>
  <path class="fil2" d="M3.74248 2.92419c0.0385984,0.0385945 0.0919409,0.0624724 0.150858,0.0624724 0.0589173,0 0.11226,-0.023878 0.150858,-0.0624724 0.0385984,-0.0385984 0.0624724,-0.0919409 0.0624724,-0.150858 0,-0.0589173 -0.023874,-0.11226 -0.0624724,-0.150858 -0.0385984,-0.0385984 -0.0919409,-0.0624724 -0.150858,-0.0624724 -0.0589173,0 -0.11226,0.023874 -0.150858,0.0624724 -0.0385945,0.0385984 -0.0624724,0.0919409 -0.0624724,0.150858 0,0.0589173 0.023878,0.11226 0.0624724,0.150858z"/>
 </g>
 <rect class="fil3" width="6.82666" height="6.82666"/>
</svg>
