<?xml version="1.0" encoding="UTF-8"?>
<!DOCTYPE svg PUBLIC "-//W3C//DTD SVG 1.1//EN" "http://www.w3.org/Graphics/SVG/1.1/DTD/svg11.dtd">
<!-- Creator: CorelDRAW -->
<svg xmlns="http://www.w3.org/2000/svg" xml:space="preserve" width="6.82666in" height="6.82666in" style="shape-rendering:geometricPrecision; text-rendering:geometricPrecision; image-rendering:optimizeQuality; fill-rule:evenodd; clip-rule:evenodd"
viewBox="0 0 6.82666 6.82666"
 xmlns:xlink="http://www.w3.org/1999/xlink">
 <defs>
  <style type="text/css">
   <![CDATA[
    .fil3 {fill:none}
    .fil1 {fill:#949494}
    .fil2 {fill:#9DD5C0}
    .fil0 {fill:#212121;fill-rule:nonzero}
   ]]>
  </style>
 </defs>
 <g id="Layer_x0020_1">
  <metadata id="CorelCorpID_0Corel-Layer"/>
  <path class="fil0" d="M1.32028 5.4033c0,0.0589094 -0.0477598,0.106669 -0.106669,0.106669 -0.0589094,0 -0.106669,-0.0477598 -0.106669,-0.106669l0 -4.18229c0,-0.0589094 0.0477598,-0.106669 0.106669,-0.106669 0.0589094,0 0.106669,0.0477598 0.106669,0.106669l0 4.18229z"/>
  <path class="fil0" d="M0.906665 5.64218c-0.0589094,0 -0.106669,-0.0477598 -0.106669,-0.106669 0,-0.0589094 0.0477598,-0.106669 0.106669,-0.106669l0.511567 0c0.0589094,0 0.106669,0.0477598 0.106669,0.106669 0,0.0589094 -0.0477598,0.106669 -0.106669,0.106669l-0.511567 0z"/>
  <g id="_516436432">
   <path id="_516436504" class="fil0" d="M4.9959 1.22101c0,-0.0589094 0.0477598,-0.106669 0.106669,-0.106669 0.0589094,0 0.106669,0.0477598 0.106669,0.106669l0 4.18229c0,0.0589094 -0.0477598,0.106669 -0.106669,0.106669 -0.0589094,0 -0.106669,-0.0477598 -0.106669,-0.106669l0 -4.18229z"/>
   <path id="_516436672" class="fil0" d="M5.40952 5.42884c0.0589094,0 0.106669,0.0477598 0.106669,0.106669 0,0.0589094 -0.0477598,0.106669 -0.106669,0.106669l-0.511567 0c-0.0589094,0 -0.106669,-0.0477598 -0.106669,-0.106669 0,-0.0589094 0.0477598,-0.106669 0.106669,-0.106669l0.511567 0z"/>
  </g>
  <path class="fil0" d="M1.5162 1.46628c0,-0.0589094 0.0477598,-0.106669 0.106669,-0.106669 0.0589094,0 0.106669,0.0477598 0.106669,0.106669l0 3.31239c0,0.0589094 -0.0477598,0.106669 -0.106669,0.106669 -0.0589094,0 -0.106669,-0.0477598 -0.106669,-0.106669l0 -3.31239z"/>
  <path class="fil0" d="M4.57501 1.46628c0,-0.0589094 0.0477598,-0.106669 0.106669,-0.106669 0.0589094,0 0.106669,0.0477598 0.106669,0.106669l0 3.31239c0,0.0589094 -0.0477598,0.106669 -0.106669,0.106669 -0.0589094,0 -0.106669,-0.0477598 -0.106669,-0.106669l0 -3.31239z"/>
  <path class="fil0" d="M1.21361 3.22915c-0.0589094,0 -0.106669,-0.0477598 -0.106669,-0.106669 0,-0.0589094 0.0477598,-0.106669 0.106669,-0.106669l0.40926 0c0.0589094,0 0.106669,0.0477598 0.106669,0.106669 0,0.0589094 -0.0477598,0.106669 -0.106669,0.106669l-0.40926 0z"/>
  <path class="fil0" d="M5.40844 3.01583c0.0589094,0 0.106669,0.0477598 0.106669,0.106669 0,0.0589094 -0.0477598,0.106669 -0.106669,0.106669l-0.726756 0c-0.0589094,0 -0.106669,-0.0477598 -0.106669,-0.106669 0,-0.0589094 0.0477598,-0.106669 0.106669,-0.106669l0.726756 0z"/>
  <path class="fil0" d="M1.72955 3.68084l2.84548 0 0 -1.11673 -2.84548 0 0 1.11673zm2.95215 0.213339l-3.05881 0c-0.0589094,0 -0.106669,-0.0477598 -0.106669,-0.106669l0 -1.33007c0,-0.0589094 0.0477598,-0.106669 0.106669,-0.106669l3.05881 0c0.0589094,0 0.106669,0.0477598 0.106669,0.106669l0 1.33007c0,0.0589094 -0.0477598,0.106669 -0.106669,0.106669z"/>
  <path class="fil0" d="M4.57349 3.98212c0.00690157,0.0584488 -0.0348858,0.111433 -0.0933346,0.118335 -0.0584488,0.00690157 -0.111433,-0.0348858 -0.118335,-0.0933346l-0.209594 -1.74428c-0.00690157,-0.0584488 0.0348858,-0.111433 0.0933346,-0.118335 0.0584488,-0.00690157 0.111433,0.0348858 0.118335,0.0933346l0.209594 1.74428z"/>
  <path class="fil0" d="M4.28352 3.98212c0.00690157,0.0584488 -0.0348858,0.111433 -0.0933346,0.118335 -0.0584488,0.00690157 -0.111433,-0.0348858 -0.118335,-0.0933346l-0.209594 -1.74428c-0.00690157,-0.0584488 0.0348858,-0.111433 0.0933346,-0.118335 0.0584488,-0.00690157 0.111433,0.0348858 0.118335,0.0933346l0.209594 1.74428z"/>
  <path class="fil0" d="M3.99354 3.98212c0.00690157,0.0584488 -0.0348858,0.111433 -0.0933346,0.118335 -0.0584488,0.00690157 -0.111433,-0.0348858 -0.118335,-0.0933346l-0.209591 -1.74428c-0.00690157,-0.0584488 0.0348858,-0.111433 0.0933346,-0.118335 0.0584488,-0.00690157 0.111433,0.0348858 0.118335,0.0933346l0.209591 1.74428z"/>
  <path class="fil0" d="M3.70357 3.98212c0.00690157,0.0584488 -0.0348858,0.111433 -0.0933346,0.118335 -0.0584488,0.00690157 -0.111433,-0.0348858 -0.118335,-0.0933346l-0.209591 -1.74428c-0.00690157,-0.0584488 0.0348858,-0.111433 0.0933346,-0.118335 0.0584488,-0.00690157 0.111433,0.0348858 0.118335,0.0933346l0.209591 1.74428z"/>
  <path class="fil0" d="M3.4136 3.98212c0.00690157,0.0584488 -0.0348858,0.111433 -0.0933346,0.118335 -0.0584488,0.00690157 -0.111433,-0.0348858 -0.118335,-0.0933346l-0.209591 -1.74428c-0.00690157,-0.0584488 0.0348858,-0.111433 0.0933346,-0.118335 0.0584488,-0.00690157 0.111433,0.0348858 0.118335,0.0933346l0.209591 1.74428z"/>
  <path class="fil0" d="M3.12363 3.98212c0.00690157,0.0584488 -0.0348858,0.111433 -0.0933346,0.118335 -0.0584488,0.00690157 -0.111433,-0.0348858 -0.118335,-0.0933346l-0.209594 -1.74428c-0.00690157,-0.0584488 0.0348858,-0.111433 0.0933346,-0.118335 0.0584488,-0.00690157 0.111433,0.0348858 0.118335,0.0933346l0.209594 1.74428z"/>
  <path class="fil0" d="M2.83366 3.98212c0.00690157,0.0584488 -0.0348858,0.111433 -0.0933346,0.118335 -0.0584488,0.00690157 -0.111433,-0.0348858 -0.118335,-0.0933346l-0.209594 -1.74428c-0.00690157,-0.0584488 0.0348858,-0.111433 0.0933346,-0.118335 0.0584488,-0.00690157 0.111433,0.0348858 0.118335,0.0933346l0.209594 1.74428z"/>
  <path class="fil0" d="M2.54369 3.98212c0.00690157,0.0584488 -0.0348858,0.111433 -0.0933346,0.118335 -0.0584488,0.00690157 -0.111433,-0.0348858 -0.118335,-0.0933346l-0.209594 -1.74428c-0.00690157,-0.0584488 0.0348858,-0.111433 0.0933346,-0.118335 0.0584488,-0.00690157 0.111433,0.0348858 0.118335,0.0933346l0.209594 1.74428z"/>
  <path class="fil0" d="M2.23446 3.98212c0.00690157,0.0584488 -0.0348858,0.111433 -0.0933346,0.118335 -0.0584488,0.00690157 -0.111433,-0.0348858 -0.118335,-0.0933346l-0.209591 -1.74428c-0.00690157,-0.0584488 0.0348858,-0.111433 0.0933346,-0.118335 0.0584488,-0.00690157 0.111433,0.0348858 0.118335,0.0933346l0.209591 1.74428z"/>
  <path class="fil0" d="M5.32938 3.1225c0,-0.0589094 0.0477598,-0.106669 0.106669,-0.106669 0.0589094,0 0.106669,0.0477598 0.106669,0.106669l0 0.86528 0.377283 0c0.0589094,0 0.106669,0.0477598 0.106669,0.106669 0,0.0589094 -0.0477598,0.106669 -0.106669,0.106669l-0.483953 0c-0.0589094,0 -0.106669,-0.0477598 -0.106669,-0.106669l0 -0.971949z"/>
  <path class="fil0" d="M3.2525 5.05755c0.00690157,0.0584488 -0.0348858,0.111433 -0.0933346,0.118335 -0.0584488,0.00690157 -0.111433,-0.0348858 -0.118335,-0.0933346 -0.0556535,-0.464319 -0.282382,-0.445091 -0.514768,-0.42539 -0.373874,0.0317008 -0.758035,0.0642756 -0.812524,-0.860854 -0.00345276,-0.0586811 0.0413189,-0.109051 0.1,-0.112504 0.0586811,-0.00345276 0.109051,0.0413189 0.112504,0.1 0.041626,0.706717 0.315744,0.683472 0.582516,0.660854 0.335953,-0.0284843 0.663732,-0.0562795 0.743941,0.612894z"/>
  <path class="fil0" d="M2.98271 5.17672c-0.0589094,0 -0.106669,-0.0477598 -0.106669,-0.106669 0,-0.0589094 0.0477598,-0.106669 0.106669,-0.106669l0.304945 0c0.0589094,0 0.106669,0.0477598 0.106669,0.106669 0,0.0589094 -0.0477598,0.106669 -0.106669,0.106669l-0.304945 0z"/>
  <path class="fil0" d="M3.02172 5.01671l0.230173 0c0.0294528,0 0.0533346,0.0238819 0.0533346,0.0533346 0,0.00232283 -0.000149606,0.00461024 -0.000437008,0.00685433l-0.032622 0.530858c-0.0017126,0.0291614 -0.0266102,0.0514528 -0.0557244,0.0500236l-0.122693 0.000988189c-0.0271535,0.000212598 -0.0497087,-0.0199882 -0.0531024,-0.0462559l-2.3622e-005 3.93701e-006 -0.0716142 -0.535598c-0.00379528,-0.0291063 0.0167283,-0.0557874 0.0458346,-0.0595827 0.00231102,-0.00030315 0.0046063,-0.000448819 0.00687402,-0.000452756l0 -0.000173228zm0.173579 0.106669l-0.112819 0 0.0573268 0.42876 0.0291575 -0.000232283 0.0263346 -0.428528z"/>
  <polygon class="fil1" points="3.19202,5.17672 3.08962,5.17672 3.13981,5.55214 3.16897,5.55191 "/>
  <g id="_516433240">
   <polygon id="_516434800" class="fil2" points="1.98359,3.68084 1.8494,2.56411 1.72955,2.56411 1.72954,3.12248 1.72955,3.68084 "/>
   <polygon id="_516435064" class="fil2" points="2.06407,2.56411 2.19826,3.68084 2.29281,3.68084 2.15862,2.56411 "/>
   <polygon id="_516434080" class="fil2" points="2.3733,2.56411 2.50748,3.68084 2.58278,3.68084 2.44859,2.56411 "/>
   <polygon id="_516434584" class="fil2" points="2.66327,2.56411 2.79746,3.68084 2.87276,3.68084 2.73857,2.56411 "/>
   <polygon id="_516434344" class="fil2" points="2.95324,2.56411 3.08743,3.68084 3.16272,3.68084 3.02854,2.56411 "/>
   <polygon id="_516434488" class="fil2" points="3.24321,2.56411 3.3774,3.68084 3.4527,3.68084 3.31851,2.56411 "/>
   <polygon id="_516434272" class="fil2" points="3.53319,2.56411 3.66737,3.68084 3.74267,3.68084 3.60848,2.56411 "/>
   <polygon id="_516433984" class="fil2" points="3.82316,2.56411 3.95734,3.68084 4.03264,3.68084 3.89845,2.56411 "/>
   <polygon id="_516433936" class="fil2" points="4.11313,2.56411 4.24731,3.68084 4.32261,3.68084 4.18843,2.56411 "/>
   <path id="_516434320" class="fil2" d="M4.57501 3.1225l1.5748e-005 -0.00185039c-1.1811e-005,0.000614173 -1.5748e-005,0.00123228 -1.5748e-005,0.00185039zm-0.171913 -0.558386l0.134189 1.11673 0.0377402 0 0 -0.556496c-1.1811e-005,-0.000614173 -1.5748e-005,-0.00123228 -1.5748e-005,-0.00185039l1.5748e-005 -0.00185039 0 -0.556535 -0.171929 0z"/>
  </g>
 </g>
 <rect class="fil3" width="6.82666" height="6.82666"/>
</svg>
