<?xml version="1.0" encoding="UTF-8"?>
<!DOCTYPE svg PUBLIC "-//W3C//DTD SVG 1.1//EN" "http://www.w3.org/Graphics/SVG/1.1/DTD/svg11.dtd">
<!-- Creator: CorelDRAW -->
<svg xmlns="http://www.w3.org/2000/svg" xml:space="preserve" width="6.82666in" height="6.82666in" style="shape-rendering:geometricPrecision; text-rendering:geometricPrecision; image-rendering:optimizeQuality; fill-rule:evenodd; clip-rule:evenodd"
viewBox="0 0 6.82666 6.82666"
 xmlns:xlink="http://www.w3.org/1999/xlink">
 <defs>
  <style type="text/css">
   <![CDATA[
    .fil3 {fill:none}
    .fil1 {fill:#949494}
    .fil2 {fill:#B38E85}
    .fil0 {fill:#212121;fill-rule:nonzero}
   ]]>
  </style>
 </defs>
 <g id="Layer_x0020_1">
  <metadata id="CorelCorpID_0Corel-Layer"/>
  <g id="_516437200">
   <g>
    <path id="_516438088" class="fil0" d="M4.97677 2.15596c-0.0729724,-0.0222008 -0.160161,-0.0239331 -0.259413,-0.0258898 -0.228638,-0.00451181 -0.511417,-0.0100984 -0.880157,-0.227689 -0.268354,-0.158354 -0.389724,-0.31637 -0.499598,-0.459425 -0.0170748,-0.0222283 -0.0338228,-0.0440354 -0.0509173,-0.0653386 0.0418858,0.136819 0.0526417,0.29763 0.0202362,0.491681 -0.00227559,0.0136614 -0.00705906,0.0262795 -0.0138031,0.0374567l-0.117642 0.199362c0.0367362,0.0159173 0.0759055,0.0340276 0.115445,0.053122 0.112193,0.0541732 0.22926,0.116949 0.300902,0.159224 0.368886,0.217681 0.510386,0.462358 0.624795,0.660197 0.0489331,0.0846142 0.0920276,0.159114 0.145437,0.21211 0.155673,-0.144736 0.28798,-0.301512 0.391898,-0.472902 0.103669,-0.17098 0.179583,-0.357382 0.222819,-0.561909zm-0.255248 -0.238394c0.161972,0.00319685 0.297937,0.00588583 0.429543,0.0835433l-3.54331e-005 5.90551e-005c0.0366024,0.0216417 0.0581102,0.064185 0.0508701,0.108689 -0.0437559,0.26387 -0.135173,0.501776 -0.26628,0.718012 -0.129091,0.212909 -0.296055,0.403748 -0.493354,0.576902 -0.0335551,0.0332402 -0.0864961,0.0411142 -0.129063,0.0159606 -0.13174,-0.0777362 -0.19974,-0.195319 -0.280752,-0.335402 -0.101882,-0.176177 -0.227898,-0.394075 -0.548961,-0.583535 -0.0680591,-0.0401614 -0.179,-0.0996654 -0.285075,-0.150886 -0.0793622,-0.0383228 -0.154874,-0.0716181 -0.20511,-0.0876693 -0.00943701,-0.00244488 -0.018689,-0.00623228 -0.0275,-0.011437 -0.050622,-0.0299134 -0.0674134,-0.0952087 -0.0375,-0.145831l0.171685 -0.290945c0.0292913,-0.193012 0.00677559,-0.340673 -0.049374,-0.458874 -0.057563,-0.121173 -0.152732,-0.215764 -0.264638,-0.2985 -0.0364016,-0.0251142 -0.0546378,-0.0714331 -0.0420276,-0.116394 0.015878,-0.0566063 0.0746457,-0.089626 0.131252,-0.073748 0.368972,0.104402 0.491165,0.26348 0.631563,0.44628 0.0976811,0.127177 0.205583,0.267661 0.438764,0.40526 0.321197,0.189535 0.572669,0.194504 0.775992,0.198516z"/>
    <path id="_516437416" class="fil0" d="M3.37087 2.44156l-0.154626 -0.0912441c-0.333287,0.558165 -0.644843,1.01975 -0.95935,1.48572 -0.320677,0.475102 -0.644461,0.954819 -0.99472,1.54178l0.403173 0.237909c0.346929,-0.594437 0.609232,-1.10764 0.869008,-1.61591 0.256937,-0.502709 0.511469,-1.00069 0.836516,-1.55826zm-0.137807 -0.328575l0.337531 0.199177c0.050622,0.0299134 0.0674134,0.0952087 0.0375,0.145831 -0.352094,0.596677 -0.617008,1.11498 -0.884575,1.63849 -0.276421,0.540839 -0.555661,1.08719 -0.928697,1.71935 -0.0299134,0.050622 -0.0952087,0.0674134 -0.145831,0.0375l-0.58702 -0.346398c-0.050622,-0.0299134 -0.0674134,-0.0952087 -0.0375,-0.145831 0.37578,-0.636807 0.717488,-1.14307 1.05575,-1.64423 0.330465,-0.48961 0.65765,-0.974346 1.00701,-1.56639 0.0299134,-0.050622 0.0952087,-0.0674134 0.145831,-0.0375z"/>
   </g>
   <path id="_516437272" class="fil0" d="M5.48527 1.09963c0.0104685,-0.0273819 0.0411575,-0.0410945 0.0685394,-0.030626 0.0273819,0.0104685 0.0410945,0.0411575 0.030626,0.0685394l-0.395539 1.02844 0.373508 0.991394c0.00585039,0.0155394 0.00394882,0.0320984 -0.00376378,0.0454291l-0.36737 0.732449 0.566756 1.11254c0.0121929,0.0239724 0.00451969,0.0528386 -0.0169173,0.067815l-0.964122 0.782299c-0.0227795,0.0185197 -0.0562677,0.0150709 -0.0747874,-0.00770866 -0.0185197,-0.0227795 -0.0150709,-0.0562677 0.00770866,-0.0747874l0.933622 -0.757555 -0.55937 -1.09804 0.000169291 -8.66142e-005c-0.00735827,-0.0144961 -0.00799606,-0.0321693 -0.000169291,-0.0478268l0.3705 -0.738685 -0.372417 -0.988508 0.000114173 -4.33071e-005c-0.00441732,-0.0117205 -0.00472835,-0.0250433 9.44882e-005,-0.0376614l0.402819 -1.04737z"/>
  </g>
  <path class="fil1" d="M4.71735 2.13007c-0.228638,-0.00451181 -0.511417,-0.0100984 -0.880157,-0.227689 -0.268354,-0.158354 -0.389724,-0.31637 -0.499598,-0.459425 -0.0170748,-0.0222283 -0.0338228,-0.0440354 -0.0509173,-0.0653386 0.0418858,0.136819 0.0526417,0.29763 0.0202362,0.491681 -0.00227559,0.0136614 -0.00705906,0.0262795 -0.0138031,0.0374567l-0.112949 0.191413c0.0180315,0.00019685 0.0362598,0.00498031 0.0528976,0.014815l0.198512 0.117142c0.062126,0.0325512 0.118791,0.063878 0.160244,0.0883386 0.368886,0.217681 0.510386,0.462358 0.624795,0.660197 0.0489331,0.0846142 0.0920276,0.159114 0.145437,0.21211 0.155673,-0.144736 0.28798,-0.301512 0.391898,-0.472902 0.103669,-0.17098 0.179583,-0.357382 0.222819,-0.561909 -0.0729724,-0.0222008 -0.160161,-0.0239331 -0.259413,-0.0258898z"/>
  <path class="fil2" d="M2.53435 3.99981c0.256937,-0.502709 0.511469,-1.00069 0.836516,-1.55826l-0.0444016 -0.0262008c-0.0370276,-0.0193504 -0.0759528,-0.0390787 -0.114508,-0.057874 -0.331673,0.554953 -0.641906,1.01458 -0.955067,1.47855 -0.320677,0.475102 -0.644461,0.954819 -0.99472,1.54178l0.403173 0.237909c0.346929,-0.594437 0.609232,-1.10764 0.869008,-1.61591z"/>
 </g>
 <rect class="fil3" width="6.82666" height="6.82666"/>
</svg>
