<?xml version="1.0" encoding="UTF-8"?>
<!DOCTYPE svg PUBLIC "-//W3C//DTD SVG 1.1//EN" "http://www.w3.org/Graphics/SVG/1.1/DTD/svg11.dtd">
<!-- Creator: CorelDRAW -->
<svg xmlns="http://www.w3.org/2000/svg" xml:space="preserve" width="6.82666in" height="6.82666in" style="shape-rendering:geometricPrecision; text-rendering:geometricPrecision; image-rendering:optimizeQuality; fill-rule:evenodd; clip-rule:evenodd"
viewBox="0 0 6.82666 6.82666"
 xmlns:xlink="http://www.w3.org/1999/xlink">
 <defs>
  <style type="text/css">
   <![CDATA[
    .fil4 {fill:none}
    .fil2 {fill:#949494}
    .fil3 {fill:#EBE5DF}
    .fil1 {fill:#F45A52}
    .fil0 {fill:#212121;fill-rule:nonzero}
   ]]>
  </style>
 </defs>
 <g id="Layer_x0020_1">
  <metadata id="CorelCorpID_0Corel-Layer"/>
  <path class="fil0" d="M1.47985 2.54185l0.945346 0c0.0597559,0 0.0796024,-0.000330709 0.0978189,-0.000629921 0.0387165,-0.000637795 0.0704606,-0.00122835 0.0725079,-0.00122835l0 0.000417323c0.246134,3.93701e-006 0.329236,0.0334646 0.329236,0.335303l0 1.79665c0,0.0589094 -0.0477598,0.106669 -0.106669,0.106669l-0.669055 0c-0.0577913,0 -0.104843,-0.0459646 -0.10661,-0.103327 -0.00933071,-0.0770591 -0.0464646,-0.145472 -0.101039,-0.194882 -0.0554724,-0.0502205 -0.129457,-0.0808189 -0.210992,-0.0808189 -0.0815394,0 -0.155524,0.0305945 -0.210992,0.080815 -0.0562362,0.0509173 -0.0939606,0.12202 -0.101819,0.201961 -0.00540945,0.0549488 -0.0517362,0.0959961 -0.105835,0.0959331l0 0.000318898 -0.458421 0c-0.0589094,0 -0.106669,-0.0477598 -0.106669,-0.106669l0 -0.832402c0,-0.223236 0.0753543,-0.617622 0.227008,-0.906024 0.118492,-0.225335 0.285445,-0.392083 0.506185,-0.392083zm0.945346 0.213339l-0.945346 0c-0.126343,0 -0.233866,0.118193 -0.317854,0.277909 -0.134945,0.25663 -0.202,0.607906 -0.202,0.806858l0 0.725732 0.264583 0c0.0277047,-0.0944685 0.0811811,-0.177972 0.152319,-0.242378 0.0937953,-0.0849173 0.217811,-0.13665 0.353496,-0.13665 0.135681,0 0.259697,0.0517323 0.353496,0.136654 0.0711378,0.0644055 0.124614,0.147906 0.152319,0.242374l0.475213 0 0 -1.68998c0,-0.110539 -0.0292559,-0.122799 -0.115898,-0.122799l0 0.000417323c-0.0454488,0 -0.0567677,0.000192913 -0.0691772,0.000393701 -0.0423622,0.00069685 -0.0887165,0.00146457 -0.10115,0.00146457z"/>
  <path class="fil0" d="M3.23879 2.60559l2.73454 0c0.0589094,0 0.106669,0.0477598 0.106669,0.106669l0 1.96011c0,0.0589094 -0.0477598,0.106669 -0.106669,0.106669l-0.527929 0c-0.0577913,0 -0.104843,-0.0459646 -0.10661,-0.103327 -0.00933071,-0.0770591 -0.0464646,-0.145472 -0.101039,-0.194882 -0.0554724,-0.0502205 -0.129457,-0.0808189 -0.210992,-0.0808189 -0.0815394,0 -0.155524,0.0305945 -0.210992,0.080815 -0.0562362,0.0509173 -0.0939606,0.12202 -0.101819,0.201961 -0.00540945,0.0549488 -0.0517362,0.0959961 -0.105835,0.0959331l0 0.000318898 -1.36933 0c-0.0589094,0 -0.106669,-0.0477598 -0.106669,-0.106669l0 -1.96011c0,-0.0589094 0.0477598,-0.106669 0.106669,-0.106669zm2.62787 0.213339l-2.5212 0 0 1.74677 1.17549 0c0.0277047,-0.0944685 0.0811811,-0.177972 0.152319,-0.242378 0.0937953,-0.0849173 0.217815,-0.13665 0.353496,-0.13665 0.135681,0 0.259697,0.0517323 0.353496,0.136654 0.0711378,0.0644055 0.124614,0.147906 0.152319,0.242374l0.334087 0 0 -1.74677z"/>
  <path class="fil0" d="M3.56037 2.97444l0.576449 0c0.0294528,0 0.0533346,0.0238819 0.0533346,0.0533346l0 1.36728c0,0.0294528 -0.0238819,0.0533346 -0.0533346,0.0533346l-0.576449 0c-0.0294528,0 -0.0533346,-0.0238819 -0.0533346,-0.0533346l0 -1.36728c0,-0.0294528 0.0238819,-0.0533346 0.0533346,-0.0533346zm0.523114 0.106669l-0.46978 0 0 1.26061 0.46978 0 0 -1.26061z"/>
  <path class="fil0" d="M5.18115 2.30701c0,-0.0589094 0.0477598,-0.106669 0.106669,-0.106669 0.0589094,0 0.106669,0.0477598 0.106669,0.106669l0 0.297858c0,0.0589094 -0.0477598,0.106669 -0.106669,0.106669 -0.0589094,0 -0.106669,-0.0477598 -0.106669,-0.106669l0 -0.297858z"/>
  <g id="_516439744">
   <path id="_516441016" class="fil0" d="M1.43064 2.17724c-0.0586811,-0.00207087 -0.104571,-0.0513228 -0.1025,-0.110004 0.00207087,-0.0586811 0.0513228,-0.104571 0.110004,-0.1025l4.43376 0.171839c0.0586811,0.00207087 0.104571,0.0513228 0.1025,0.110004 -0.00207087,0.0586811 -0.0513228,0.104571 -0.110004,0.1025l-4.43376 -0.171839z"/>
   <path id="_516440368" class="fil0" d="M1.25459 1.79818c-0.0586811,-0.00207087 -0.104571,-0.0513228 -0.1025,-0.110004 0.00207087,-0.0586811 0.0513228,-0.104571 0.110004,-0.1025l4.43376 0.171839c0.0586811,0.00207087 0.104571,0.0513228 0.1025,0.110004 -0.00207087,0.0586811 -0.0513228,0.104571 -0.110004,0.1025l-4.43376 -0.171839z"/>
   <path id="_516440176" class="fil0" d="M1.51759 1.75276c-0.026,-0.0526969 -0.0043622,-0.1165 0.0483346,-0.1425 0.0526969,-0.026 0.1165,-0.0043622 0.1425,0.0483346l0.158598 0.321898c0.026,0.0526969 0.0043622,0.1165 -0.0483346,0.1425 -0.0526969,0.026 -0.1165,0.0043622 -0.1425,-0.0483346l-0.158598 -0.321898z"/>
   <path id="_516440344" class="fil0" d="M1.93797 1.76905c-0.026,-0.0526969 -0.0043622,-0.1165 0.0483346,-0.1425 0.0526969,-0.026 0.1165,-0.0043622 0.1425,0.0483346l0.158598 0.321898c0.026,0.0526969 0.0043622,0.1165 -0.0483346,0.1425 -0.0526969,0.026 -0.1165,0.0043622 -0.1425,-0.0483346l-0.158598 -0.321898z"/>
   <path id="_516440704" class="fil0" d="M2.35835 1.78534c-0.026,-0.0526969 -0.0043622,-0.1165 0.0483346,-0.1425 0.0526969,-0.026 0.1165,-0.0043622 0.1425,0.0483346l0.158598 0.321902c0.026,0.0526969 0.0043622,0.1165 -0.0483346,0.1425 -0.0526969,0.026 -0.1165,0.0043622 -0.1425,-0.0483346l-0.158598 -0.321902z"/>
   <path id="_516440392" class="fil0" d="M2.77874 1.80163c-0.026,-0.0526969 -0.0043622,-0.1165 0.0483346,-0.1425 0.0526969,-0.026 0.1165,-0.0043622 0.1425,0.0483346l0.158598 0.321902c0.026,0.0526969 0.0043622,0.1165 -0.0483346,0.1425 -0.0526969,0.026 -0.1165,0.0043622 -0.1425,-0.0483346l-0.158598 -0.321902z"/>
   <path id="_516440512" class="fil0" d="M3.19912 1.81793c-0.026,-0.0526969 -0.0043622,-0.1165 0.0483346,-0.1425 0.0526969,-0.026 0.1165,-0.0043622 0.1425,0.0483346l0.158598 0.321898c0.026,0.0526969 0.0043622,0.1165 -0.0483346,0.1425 -0.0526969,0.026 -0.1165,0.0043622 -0.1425,-0.0483346l-0.158598 -0.321898z"/>
   <path id="_516440056" class="fil0" d="M3.6195 1.83422c-0.026,-0.0526969 -0.0043622,-0.1165 0.0483346,-0.1425 0.0526969,-0.026 0.1165,-0.0043622 0.1425,0.0483346l0.158598 0.321902c0.026,0.0526969 0.0043622,0.1165 -0.0483346,0.1425 -0.0526969,0.026 -0.1165,0.0043622 -0.1425,-0.0483346l-0.158598 -0.321902z"/>
   <path id="_516440320" class="fil0" d="M4.03988 1.85051c-0.026,-0.0526969 -0.0043622,-0.1165 0.0483346,-0.1425 0.0526969,-0.026 0.1165,-0.0043622 0.1425,0.0483346l0.158598 0.321902c0.026,0.0526969 0.0043622,0.1165 -0.0483346,0.1425 -0.0526969,0.026 -0.1165,0.0043622 -0.1425,-0.0483346l-0.158598 -0.321902z"/>
   <path id="_516440584" class="fil0" d="M4.46026 1.8668c-0.026,-0.0526969 -0.0043622,-0.1165 0.0483346,-0.1425 0.0526969,-0.026 0.1165,-0.0043622 0.1425,0.0483346l0.158598 0.321898c0.026,0.0526969 0.0043622,0.1165 -0.0483346,0.1425 -0.0526969,0.026 -0.1165,0.0043622 -0.1425,-0.0483346l-0.158598 -0.321898z"/>
   <path id="_516440560" class="fil0" d="M4.88065 1.88309c-0.026,-0.0526969 -0.0043622,-0.1165 0.0483346,-0.1425 0.0526969,-0.026 0.1165,-0.0043622 0.1425,0.0483346l0.158598 0.321902c0.026,0.0526969 0.0043622,0.1165 -0.0483346,0.1425 -0.0526969,0.026 -0.1165,0.0043622 -0.1425,-0.0483346l-0.158598 -0.321902z"/>
   <path id="_516439816" class="fil0" d="M5.30103 1.89939c-0.026,-0.0526969 -0.0043622,-0.1165 0.0483346,-0.1425 0.0526969,-0.026 0.1165,-0.0043622 0.1425,0.0483346l0.158598 0.321902c0.026,0.0526969 0.0043622,0.1165 -0.0483346,0.1425 -0.0526969,0.026 -0.1165,0.0043622 -0.1425,-0.0483346l-0.158598 -0.321902z"/>
  </g>
  <path class="fil0" d="M2.34405 2.16066c0,-0.0294528 0.0238819,-0.0533346 0.0533346,-0.0533346 0.0294528,0 0.0533346,0.0238819 0.0533346,0.0533346l0 0.444205c0,0.0294528 -0.0238819,0.0533346 -0.0533346,0.0533346 -0.0294528,0 -0.0533346,-0.0238819 -0.0533346,-0.0533346l0 -0.444205z"/>
  <path class="fil0" d="M1.63081 2.49446c0,-0.0589094 0.0477598,-0.106669 0.106669,-0.106669 0.0589094,0 0.106669,0.0477598 0.106669,0.106669l0 0.154063c0,0.0589094 -0.0477598,0.106669 -0.106669,0.106669 -0.0589094,0 -0.106669,-0.0477598 -0.106669,-0.106669l0 -0.154063z"/>
  <path class="fil0" d="M2.47358 4.77903c-0.0589094,0 -0.106669,-0.0477598 -0.106669,-0.106669 0,-0.0589094 0.0477598,-0.106669 0.106669,-0.106669l0.741031 0c0.0589094,0 0.106669,0.0477598 0.106669,0.106669 0,0.0589094 -0.0477598,0.106669 -0.106669,0.106669l-0.741031 0z"/>
  <path class="fil0" d="M2.81809 3.16347c-0.0589094,0 -0.106669,-0.0477598 -0.106669,-0.106669 0,-0.0589094 0.0477598,-0.106669 0.106669,-0.106669l0.420693 0c0.0589094,0 0.106669,0.0477598 0.106669,0.106669 0,0.0589094 -0.0477598,0.106669 -0.106669,0.106669l-0.420693 0z"/>
  <g id="_516439672">
   <path id="_516439600" class="fil0" d="M5.03238 3.44327c0.0243898,0.0164528 0.0308268,0.0495669 0.014374,0.0739567 -0.0164528,0.0243898 -0.0495669,0.0308268 -0.0739567,0.014374 -0.0413031,-0.0279331 -0.0689291,-0.0683661 -0.080185,-0.111142 -0.0119134,-0.045252 -0.00583071,-0.093126 0.0210512,-0.132882 0.0269803,-0.0398976 0.0692205,-0.0634449 0.115693,-0.0692402 0.0437323,-0.00545669 0.0914488,0.0051378 0.132768,0.0330787 0.0715787,0.0484016 0.119346,0.11811 0.138705,0.191661 0.0200079,0.0760236 0.00998425,0.156185 -0.034811,0.222429 -0.0448898,0.0663819 -0.115618,0.10561 -0.193669,0.115354 -0.0753071,0.00940157 -0.157701,-0.00899213 -0.229291,-0.0574094 -0.101846,-0.068874 -0.169768,-0.167854 -0.197224,-0.272181 -0.0281102,-0.106799 -0.0141378,-0.219236 0.0485709,-0.311969 0.0628071,-0.092878 0.162028,-0.147787 0.27165,-0.161472 0.10689,-0.0133465 0.223941,0.0128465 0.325811,0.0817323 0.132126,0.0893504 0.220189,0.217598 0.255744,0.352705 0.0362087,0.137575 0.0182913,0.282291 -0.0623307,0.401516 -0.0807205,0.119366 -0.208433,0.189957 -0.349634,0.207587 -0.138465,0.0172874 -0.290193,-0.0167047 -0.422331,-0.106063 -0.0243898,-0.0164528 -0.0308268,-0.0495669 -0.014374,-0.0739567 0.0164528,-0.0243898 0.0495669,-0.0308268 0.0739567,-0.014374 0.110039,0.0744134 0.235681,0.102811 0.349835,0.0885591 0.111417,-0.0139094 0.211638,-0.0687953 0.274217,-0.161335 0.0626772,-0.092689 0.0763346,-0.206224 0.047748,-0.314846 -0.0292362,-0.111098 -0.102358,-0.217035 -0.212413,-0.291461 -0.0797717,-0.0539409 -0.170736,-0.0745394 -0.253315,-0.0642283 -0.0798386,0.00996457 -0.151567,0.0491693 -0.196232,0.11522 -0.0447677,0.0662008 -0.0544764,0.147453 -0.0339882,0.225299 0.0211378,0.0803189 0.0741102,0.156984 0.153894,0.210937 0.0494961,0.0334764 0.105799,0.0462717 0.156795,0.0399055 0.0482598,-0.00602362 0.0915,-0.0295433 0.118252,-0.0691024 0.0268504,-0.0397087 0.0326142,-0.0886929 0.0202283,-0.13576 -0.0130394,-0.0495433 -0.0458661,-0.096937 -0.095374,-0.130417 -0.0192205,-0.0129961 -0.0408543,-0.0179961 -0.0602717,-0.0155748 -0.016689,0.00207874 -0.031437,0.00991732 -0.0402756,0.0229882 -0.00893701,0.0132205 -0.0107559,0.0299213 -0.0064685,0.0462126 0.00493701,0.0187638 0.0176181,0.0368898 0.0368543,0.0498976z"/>
   <path id="_516440008" class="fil0" d="M4.6931 3.94474c-0.0164528,0.0243898 -0.0495669,0.0308268 -0.0739567,0.014374 -0.0243898,-0.0164528 -0.0308268,-0.0495669 -0.014374,-0.0739567l0.0834016 -0.123331c0.0164528,-0.0243898 0.0495669,-0.0308268 0.0739567,-0.014374 0.0243898,0.0164528 0.0308268,0.0495669 0.014374,0.0739567l-0.0834016 0.123331z"/>
   <path id="_516439576" class="fil0" d="M4.65475 3.83504l0.00758661 -0.0112205 -0.0295354 -0.0125787 0.0219488 0.0237992zm0.100937 -0.0066063l-0.0629528 0.0930906 -2.3622e-005 -1.5748e-005c-0.00170472,0.00252362 -0.00373228,0.0048937 -0.00607087,0.00704724 -0.0162205,0.0149252 -0.0414803,0.013878 -0.0564055,-0.00234252l-0.182138 -0.197461c-0.0102756,-0.011185 -0.0136811,-0.0277717 -0.00734646,-0.0426575 0.00862992,-0.0202795 0.0320669,-0.0297244 0.0523465,-0.0210945l0.243161 0.103547c0.00298819,0.00109449 0.00588976,0.00255906 0.00864567,0.00441732 0.0182913,0.0123386 0.023122,0.0371772 0.0107835,0.0554685z"/>
  </g>
  <path class="fil0" d="M0.924945 3.76549c-0.0589094,0 -0.106669,-0.0477598 -0.106669,-0.106669 0,-0.0589094 0.0477598,-0.106669 0.106669,-0.106669l1.89315 0c0.0589094,0 0.106669,0.0477598 0.106669,0.106669 0,0.0589094 -0.0477598,0.106669 -0.106669,0.106669l-1.89315 0z"/>
  <path class="fil0" d="M1.3112 2.7105c0,-0.0589094 0.0477598,-0.106669 0.106669,-0.106669 0.0589094,0 0.106669,0.0477598 0.106669,0.106669l0 0.948319c0,0.0589094 -0.0477598,0.106669 -0.106669,0.106669 -0.0589094,0 -0.106669,-0.0477598 -0.106669,-0.106669l0 -0.948319z"/>
  <path class="fil0" d="M2.08037 2.71225c0,-0.0589094 0.0477598,-0.106669 0.106669,-0.106669 0.0589094,0 0.106669,0.0477598 0.106669,0.106669l0 0.87998c0,0.0589094 -0.0477598,0.106669 -0.106669,0.106669 -0.0589094,0 -0.106669,-0.0477598 -0.106669,-0.106669l0 -0.87998z"/>
  <path class="fil0" d="M1.7304 4.18667c0.145618,0 0.277457,0.0590315 0.372894,0.154472 0.0954409,0.095437 0.154472,0.227276 0.154472,0.372894 0,0.145618 -0.0590315,0.277461 -0.154472,0.372898 -0.095437,0.0954409 -0.227276,0.154472 -0.372894,0.154472 -0.145618,0 -0.277457,-0.0590315 -0.372894,-0.154472 -0.0954409,-0.095437 -0.154472,-0.22728 -0.154472,-0.372898 0,-0.145618 0.0590315,-0.277457 0.154472,-0.372894 0.095437,-0.0954409 0.227276,-0.154472 0.372894,-0.154472zm0.222059 0.305307c-0.0568189,-0.0568228 -0.135331,-0.0919685 -0.222059,-0.0919685 -0.0867283,0 -0.16524,0.0351457 -0.222059,0.0919685 -0.0568228,0.0568189 -0.0919685,0.135331 -0.0919685,0.222059 0,0.0867283 0.0351457,0.165244 0.0919685,0.222063 0.0568189,0.0568228 0.135331,0.0919685 0.222059,0.0919685 0.0867283,0 0.16524,-0.0351457 0.222059,-0.0919685 0.0568228,-0.0568189 0.0919685,-0.135335 0.0919685,-0.222063 0,-0.0867283 -0.0351457,-0.16524 -0.0919685,-0.222059z"/>
  <path class="fil0" d="M5.02676 4.18667c0.145614,0 0.277457,0.0590354 0.372894,0.154472 0.0954409,0.095437 0.154472,0.227283 0.154472,0.372894 0,0.145614 -0.0590315,0.277457 -0.154472,0.372898 -0.095437,0.095437 -0.22728,0.154472 -0.372894,0.154472 -0.145614,0 -0.277457,-0.0590315 -0.372898,-0.154472 -0.095437,-0.095437 -0.154472,-0.227283 -0.154472,-0.372898 0,-0.145614 0.0590354,-0.277457 0.154472,-0.372894 0.0954409,-0.0954409 0.227283,-0.154472 0.372898,-0.154472zm0.222059 0.305307c-0.0568189,-0.0568189 -0.135331,-0.0919685 -0.222059,-0.0919685 -0.0867283,0 -0.165244,0.0351496 -0.222063,0.0919685 -0.0568189,0.0568189 -0.0919685,0.135331 -0.0919685,0.222059 0,0.0867283 0.0351496,0.165244 0.0919685,0.222063 0.0568189,0.0568189 0.135335,0.0919685 0.222063,0.0919685 0.0867283,0 0.16524,-0.0351496 0.222059,-0.0919685 0.0568189,-0.0568189 0.0919685,-0.135335 0.0919685,-0.222063 0,-0.0867244 -0.0351457,-0.16524 -0.0919685,-0.222059z"/>
  <path class="fil0" d="M3.93501 3.60624c0,-0.0220906 0.0179094,-0.04 0.04,-0.04 0.0220906,0 0.04,0.0179094 0.04,0.04l0 0.21035c0,0.0220906 -0.0179094,0.04 -0.04,0.04 -0.0220906,0 -0.04,-0.0179094 -0.04,-0.04l0 -0.21035z"/>
  <path class="fil1" d="M2.71143 4.56569l0 -0.800201 -1.29355 0 -0.455201 0c-0.00178346,0.0265945 -0.00267323,0.0515433 -0.00267323,0.0744685l0 0.725732 0.264185 0c0.0251575,-0.0859843 0.0716339,-0.162874 0.133319,-0.224555 0.095437,-0.0954409 0.227276,-0.154472 0.372894,-0.154472 0.145618,0 0.277457,0.0590315 0.372894,0.154472 0.061685,0.0616811 0.108161,0.138571 0.133319,0.224555l0.236969 0 0.237846 0z"/>
  <path class="fil2" d="M2.04278 4.68166c-0.00755512,-0.0738031 -0.0406614,-0.140031 -0.0903228,-0.189689 -0.0568189,-0.0568228 -0.135331,-0.0919685 -0.222059,-0.0919685 -0.0867283,0 -0.16524,0.0351457 -0.222059,0.0919685 -0.0568228,0.0568189 -0.0919685,0.135331 -0.0919685,0.222059 0,0.0867283 0.0351457,0.165244 0.0919685,0.222063 0.0568189,0.0568228 0.135331,0.0919685 0.222059,0.0919685 0.0867283,0 0.16524,-0.0351457 0.222059,-0.0919685 0.0568228,-0.0568189 0.0919685,-0.135335 0.0919685,-0.222063 0,-0.0100669 -0.000472441,-0.0200236 -0.00139764,-0.0298465 -9.44882e-005,-0.000838583 -0.000177165,-0.0016811 -0.000248031,-0.00252362z"/>
  <path class="fil2" d="M4.71273 4.71403c0,0.0867283 0.0351496,0.165244 0.0919685,0.222063 0.0568189,0.0568189 0.135335,0.0919685 0.222063,0.0919685 0.0867283,0 0.16524,-0.0351496 0.222059,-0.0919685 0.0568189,-0.0568189 0.0919685,-0.135335 0.0919685,-0.222063 0,-0.0100709 -0.000472441,-0.0200276 -0.00140157,-0.0298543 -9.05512e-005,-0.000834646 -0.000173228,-0.00166929 -0.000244094,-0.00250787 -0.00755512,-0.0738031 -0.0406614,-0.140035 -0.0903228,-0.189697 -0.0568189,-0.0568189 -0.135331,-0.0919685 -0.222059,-0.0919685 -0.0867283,0 -0.165244,0.0351496 -0.222063,0.0919685 -0.0568189,0.0568189 -0.0919685,0.135331 -0.0919685,0.222059z"/>
  <path class="fil1" d="M5.02676 4.18667c0.145614,0 0.277457,0.0590354 0.372894,0.154472 0.061685,0.0616811 0.108157,0.138571 0.133319,0.224555l0.333689 0 0 -1.74677 -2.5212 0 0 0.237878 0 1.50889 1.17509 0c0.0251614,-0.0859843 0.0716378,-0.162874 0.133319,-0.224555 0.0954409,-0.0954409 0.227283,-0.154472 0.372898,-0.154472zm0.45852 -0.372886c-0.0807205,0.119366 -0.208433,0.189957 -0.349634,0.207587 -0.138465,0.0172874 -0.290193,-0.0167047 -0.422331,-0.106063 -7.08661e-005,-4.72441e-005 -0.000141732,-9.44882e-005 -0.000212598,-0.000141732l-0.0200039 0.0295827c-0.0164528,0.0243898 -0.0495669,0.0308268 -0.0739567,0.014374 -0.0216811,-0.014626 -0.0291772,-0.0424213 -0.0190157,-0.0655472l-0.152031 -0.164823c-0.0102756,-0.011185 -0.0136811,-0.0277717 -0.00734646,-0.0426575 0.00862992,-0.0202795 0.0320669,-0.0297244 0.0523465,-0.0210945l0.203839 0.0867992c0.017748,-0.0157992 0.0445866,-0.0182402 0.0651929,-0.00433858 0.0243898,0.0164528 0.0308268,0.0495669 0.014374,0.0739567l-0.00370866 0.00548819c3.54331e-005,2.3622e-005 7.08661e-005,4.72441e-005 0.000106299,7.08661e-005 0.110039,0.0744134 0.235681,0.102811 0.349835,0.0885591 0.111417,-0.0139094 0.211638,-0.0687953 0.274217,-0.161335 0.0626772,-0.092689 0.0763346,-0.206224 0.047748,-0.314846 -0.0292362,-0.111098 -0.102358,-0.217035 -0.212413,-0.291461 -0.0797717,-0.0539409 -0.170736,-0.0745394 -0.253315,-0.0642283 -0.0798386,0.00996457 -0.151567,0.0491693 -0.196232,0.11522 -0.0447677,0.0662008 -0.0544764,0.147453 -0.0339882,0.225299 0.0211378,0.0803189 0.0741102,0.156984 0.153894,0.210937 0.0494961,0.0334764 0.105799,0.0462717 0.156795,0.0399055 0.0482598,-0.00602362 0.0915,-0.0295433 0.118252,-0.0691024 0.0268504,-0.0397087 0.0326142,-0.0886929 0.0202283,-0.13576 -0.0130394,-0.0495433 -0.0458661,-0.096937 -0.095374,-0.130417 -0.0192205,-0.0129961 -0.0408543,-0.0179961 -0.0602717,-0.0155748 -0.016689,0.00207874 -0.031437,0.00991732 -0.0402756,0.0229882 -0.00893701,0.0132205 -0.0107559,0.0299213 -0.0064685,0.0462126 0.00493701,0.0187638 0.0176181,0.0368898 0.0368543,0.0498976 0.0243898,0.0164528 0.0308268,0.0495669 0.014374,0.0739567 -0.0164528,0.0243898 -0.0495669,0.0308268 -0.0739567,0.014374 -0.0413031,-0.0279331 -0.0689291,-0.0683661 -0.080185,-0.111142 -0.0119134,-0.045252 -0.00583071,-0.093126 0.0210512,-0.132882 0.0269803,-0.0398976 0.0692205,-0.0634449 0.115693,-0.0692402 0.0437323,-0.00545669 0.0914488,0.0051378 0.132768,0.0330787 0.0715787,0.0484016 0.119346,0.11811 0.138705,0.191661 0.0200079,0.0760236 0.00998425,0.156185 -0.034811,0.222429 -0.0448898,0.0663819 -0.115618,0.10561 -0.193669,0.115354 -0.0753071,0.00940157 -0.157701,-0.00899213 -0.229291,-0.0574094 -0.101846,-0.068874 -0.169768,-0.167854 -0.197224,-0.272181 -0.0281102,-0.106799 -0.0141378,-0.219236 0.0485709,-0.311969 0.0628071,-0.092878 0.162028,-0.147787 0.27165,-0.161472 0.10689,-0.0133465 0.223941,0.0128465 0.325811,0.0817323 0.132126,0.0893504 0.220189,0.217598 0.255744,0.352705 0.0362087,0.137575 0.0182913,0.282291 -0.0623307,0.401516zm-1.29512 -0.786004l0 1.36728c0,0.0294528 -0.0238819,0.0533346 -0.0533346,0.0533346l-0.576449 0c-0.0294528,0 -0.0533346,-0.0238819 -0.0533346,-0.0533346l0 -1.36728c0,-0.0294528 0.0238819,-0.0533346 0.0533346,-0.0533346l0.576449 0c0.0294528,0 0.0533346,0.0238819 0.0533346,0.0533346z"/>
  <path class="fil3" d="M4.08349 4.34172l0 -1.26061 -0.46978 0 0 1.26061 0.46978 0zm-0.148476 -0.73548c0,-0.0220906 0.0179094,-0.04 0.04,-0.04 0.0220906,0 0.04,0.0179094 0.04,0.04l0 0.21035c0,0.0220906 -0.0179094,0.04 -0.04,0.04 -0.0220906,0 -0.04,-0.0179094 -0.04,-0.04l0 -0.21035z"/>
  <polygon class="fil3" points="2.08037,3.55215 2.08037,2.75519 1.73748,2.75519 1.52454,2.75519 1.52454,3.55215 "/>
  <path class="fil3" d="M1.3112 3.55215l0 -0.723524c-0.0556417,0.0498071 -0.105594,0.121543 -0.149205,0.204472 -0.0822874,0.156488 -0.139331,0.348173 -0.171319,0.519051l0.320524 0z"/>
  <path class="fil3" d="M2.29371 2.75519l0 0.796961 0.417717 0 0 -0.49535 0 -0.181087c0,-0.110539 -0.0292559,-0.122799 -0.115898,-0.122799l0 0.000417323c-0.0454488,0 -0.0567677,0.000192913 -0.0691772,0.000393701 -0.0423622,0.00069685 -0.0887165,0.00146457 -0.10115,0.00146457l-0.131492 0z"/>
 </g>
 <rect class="fil4" width="6.82666" height="6.82666"/>
</svg>
