<?xml version="1.0" encoding="UTF-8"?>
<!DOCTYPE svg PUBLIC "-//W3C//DTD SVG 1.1//EN" "http://www.w3.org/Graphics/SVG/1.1/DTD/svg11.dtd">
<!-- Creator: CorelDRAW -->
<svg xmlns="http://www.w3.org/2000/svg" xml:space="preserve" width="6.82666in" height="6.82666in" style="shape-rendering:geometricPrecision; text-rendering:geometricPrecision; image-rendering:optimizeQuality; fill-rule:evenodd; clip-rule:evenodd"
viewBox="0 0 6.82666 6.82666"
 xmlns:xlink="http://www.w3.org/1999/xlink">
 <defs>
  <style type="text/css">
   <![CDATA[
    .fil4 {fill:none}
    .fil2 {fill:#949494}
    .fil1 {fill:#FECA5F}
    .fil3 {fill:#FFD3B3}
    .fil0 {fill:#212121;fill-rule:nonzero}
   ]]>
  </style>
 </defs>
 <g id="Layer_x0020_1">
  <metadata id="CorelCorpID_0Corel-Layer"/>
  <g id="_516441928">
   <path id="_516443032" class="fil0" d="M5.94609 3.75138c0.0331339,0.0289921 0.0364921,0.0793661 0.0075,0.1125 -0.0289921,0.0331339 -0.0793661,0.0364921 -0.1125,0.0075 -0.145563,-0.126976 -0.293449,-0.220567 -0.46315,-0.256776 -0.169713,-0.0362087 -0.365354,-0.0159803 -0.608272,0.0842323 -0.077752,0.0320787 -0.0914606,0.0425709 -0.103638,0.0520236l0.00011811 0.000149606c-0.0120748,0.00937795 -0.0235,0.018248 -0.051874,0.0323071 -0.0395197,0.0195 -0.087374,0.00326772 -0.106874,-0.036252 -0.0195,-0.0395197 -0.00326772,-0.087374 0.036252,-0.106874 0.0124213,-0.00615354 0.0182323,-0.0106693 0.0243701,-0.0154331l0.00011811 0.000153543 0.000192913 -0.000153543c0.0201417,-0.0156339 0.0422598,-0.032811 0.140713,-0.0734252 0.275555,-0.113673 0.501843,-0.135689 0.70202,-0.0929803 0.200181,0.0427126 0.370185,0.149236 0.535024,0.293028zm-1.88737 0.0723622c0.0386575,-0.0212244 0.0872126,-0.00709449 0.108437,0.031563 0.0212244,0.0386575 0.00709449,0.0872126 -0.031563,0.108437 -0.154697,0.0848701 -0.290295,0.114976 -0.414677,0.108114 -0.12478,-0.00688976 -0.235008,-0.0507756 -0.340236,-0.113831 -0.0377953,-0.0226063 -0.0501063,-0.0715787 -0.0275,-0.109374 0.0226063,-0.0377953 0.0715787,-0.0501063 0.109374,-0.0275 0.0847835,0.0508031 0.171866,0.0860709 0.26711,0.0913268 0.0956339,0.00527559 0.202819,-0.0194803 0.329055,-0.0887362zm-1.09635 -0.189602c0.0386575,0.0212244 0.0527874,0.0697795 0.031563,0.108437 -0.0212244,0.0386575 -0.0697795,0.0527874 -0.108437,0.031563 -0.0344961,-0.0189173 -0.0695079,-0.0395669 -0.104961,-0.0619528 -0.033748,-0.021311 -0.0676063,-0.0441772 -0.101492,-0.0685984 -0.0357244,-0.0257126 -0.0438386,-0.0755276 -0.018126,-0.111252 0.0257126,-0.0357244 0.0755276,-0.0438386 0.111252,-0.018126 0.0301969,0.0217598 0.0613583,0.0427638 0.0933661,0.0629764 0.0310669,0.0196142 0.063378,0.0386063 0.0968346,0.0569528z"/>
   <path id="_516442936" class="fil0" d="M2.63883 3.79596c-0.0257126,0.0357244 -0.0755276,0.0438386 -0.111252,0.018126 -0.0357244,-0.0257126 -0.0438386,-0.0755276 -0.018126,-0.111252l0.272685 -0.378366c0.0257126,-0.0357244 0.0755276,-0.0438386 0.111252,-0.018126 0.0357244,0.0257126 0.0438386,0.0755276 0.018126,0.111252l-0.272685 0.378366z"/>
   <path id="_516442456" class="fil0" d="M2.60452 3.57094l0.0825472 -0.114535 -0.247461 -0.0838661 0.164913 0.198402zm0.275031 -0.108972l-0.205827 0.285591 -1.5748e-005 -1.1811e-005c-0.00385433,0.00534252 -0.00843701,0.0102953 -0.0137362,0.0147008 -0.0338268,0.0281299 -0.0840591,0.0235118 -0.112189,-0.010315l-0.40765 -0.490425c-0.0198819,-0.020811 -0.027811,-0.0516969 -0.017937,-0.0808465 0.0141496,-0.0417638 0.0594882,-0.0641496 0.101252,-0.05l0.617039 0.209118 -4.33071e-005 0.000122047c0.00731102,0.00248031 0.0143898,0.00607087 0.0209803,0.010815 0.0357244,0.0257126 0.0438386,0.0755276 0.018126,0.111252z"/>
   <path id="_516442552" class="fil0" d="M3.97772 3.3602l0.23172 0.462839c0.0193504,0.0387008 0.0128465,0.0835709 -0.0129488,0.114976l3.14961e-005 2.3622e-005 -0.419783 0.509874c-0.000181102,0.00222047 -0.00019685,0.00441732 -5.51181e-005,0.00658661 0.000433071,0.00664173 0.00216142,0.012878 0.00499213,0.0182992 0.00101181,0.00194094 0.00194882,0.00390157 0.00283071,0.00587008l8.66142e-005 -3.93701e-005 0.205764 0.459134 0.166031 0.370504 8.66142e-005 -3.93701e-005c0.0091063,0.0192677 0.0239252,0.0267205 0.0379646,0.0258622 0.0073189,-0.000448819 0.0149055,-0.0025315 0.0221614,-0.00595669 0.00720079,-0.00340157 0.0136535,-0.00799606 0.0187677,-0.0134961 0.0094685,-0.0101811 0.0130118,-0.0263031 0.00386614,-0.0456614 -0.00152362,-0.00322835 -0.00286614,-0.00649213 -0.00403937,-0.00978346l-0.226602 -0.536449 -0.0496575 -0.117551c-0.0177992,-0.042252 -0.00620079,-0.0895394 0.0255197,-0.119059l-0.000102362 -0.000110236c0.138819,-0.128941 0.257484,-0.239764 0.351035,-0.33 0.093248,-0.0899449 0.163795,-0.161425 0.208165,-0.213299 0.00917717,-0.0107283 0.0169409,-0.0202323 0.0232441,-0.0284803l-0.0815827 -0.152492 -0.518933 -0.970012 -0.000259843 -0.000503937 -0.000153543 8.26772e-005c-0.0160236,-0.0303937 -0.042752,-0.0513858 -0.0729921,-0.060748 -0.0304921,-0.00943701 -0.0645945,-0.00724409 -0.0950512,0.00881102l-6.69291e-005 3.54331e-005c-0.0635945,0.0335669 -0.0659961,0.0980787 -0.0686378,0.169291 -0.00136614,0.036937 -0.0027874,0.075 -0.00833465,0.112969 -0.0141929,0.0971181 -0.0288346,0.177508 -0.049437,0.262969 -0.000350394,0.00144094 -0.000728346,0.0028622 -0.00113386,0.00427559 -0.0199134,0.0818819 -0.0449961,0.166 -0.0802913,0.272295 -0.0118268,0.0357756 -0.0408386,0.0610354 -0.0748465,0.0696496l-0.486303 0.12472 -9.84252e-005 2.3622e-005 9.84252e-005 0.000393701c-0.0124213,0.00315748 -0.0222795,0.0108543 -0.0281535,0.0207362 -0.00605906,0.010189 -0.00822835,0.0227323 -0.00506693,0.0351772 0.00315748,0.0124213 0.0108583,0.0222795 0.0207362,0.0281535 0.010189,0.00605906 0.0227323,0.00822441 0.0351772,0.00506299 0.00294094,-0.000748031 0.00588189,-0.00135433 0.00882283,-0.00184646l0.558425 -0.14322 9.84252e-005 -2.3622e-005 -9.84252e-005 -0.000393701c0.00854724,-0.00216929 0.0157638,-0.0063189 0.0212402,-0.0117283 0.00562992,-0.00556299 0.00977559,-0.0128425 0.0119606,-0.0210118 0.0012874,-0.00481102 0.00288976,-0.00944882 0.00476772,-0.0139173l0.163122 -0.49122c0.0184094,-0.055689 0.0784803,-0.0859094 0.134169,-0.0675 0.055689,0.0184094 0.0859094,0.0784803 0.0675,0.134169l-0.0437559 0.13176zm0.0108031 0.496083l-0.105535 -0.210799 -0.0247638 0.0745669 -0.000472441 0.00185827c-0.0118661,0.0443504 -0.0356378,0.0850709 -0.0686299,0.117681 -0.0318346,0.0314567 -0.0719449,0.0550551 -0.117902,0.0667283l-9.84252e-005 -0.000393701 -0.558031 0.143122c-0.00297244,0.00103937 -0.00600787,0.00196457 -0.00911811,0.00275591 -0.0692205,0.0175945 -0.139067,0.00545669 -0.196012,-0.0284016 -0.057248,-0.0340394 -0.101472,-0.0897323 -0.119075,-0.15898 -0.0175906,-0.0692323 -0.00544882,-0.139075 0.0284055,-0.196012 0.0340394,-0.057252 0.0897323,-0.101472 0.15898,-0.119075l9.84252e-005 0.000393701 0.429874 -0.110248c0.0242402,-0.0755709 0.0425709,-0.139122 0.0574961,-0.200539 0.000287402,-0.00143307 0.000594488,-0.0028622 0.000940945,-0.00429528 0.0180472,-0.0748583 0.0315394,-0.14985 0.0452717,-0.243803 0.00447244,-0.0306024 0.00559055,-0.060563 0.00666535,-0.0896378 0.00497244,-0.134079 0.0095,-0.255693 0.174677,-0.346193 0.0049252,-0.00311811 0.010122,-0.00584646 0.0155512,-0.00813386 0.0801693,-0.0395591 0.168906,-0.0442874 0.248535,-0.0196378 0.0799055,0.0247402 0.150657,0.0788937 0.194488,0.156961 0.00325197,0.00506299 0.00608661,0.0104213 0.00845669,0.0160236l0.514394 0.961528 0.101488 0.189697c0.0011378,0.00187008 0.00223228,0.0037874 0.00326772,0.00575197 0.0223858,0.0424882 0.0183071,0.0890394 -0.0106457,0.140118 -0.0134173,0.0236614 -0.0340827,0.0515669 -0.0616063,0.0837362 -0.0491102,0.0574134 -0.12424,0.133685 -0.222331,0.228299 -0.084626,0.0816299 -0.184685,0.175445 -0.299142,0.281937l0.0206772 0.0489488 0.22661 0.536469 0.000700787 0.00143307c0.0524449,0.110996 0.0240669,0.212031 -0.0405354,0.281496 -0.023689,0.0254724 -0.0524409,0.0461969 -0.0837677,0.061 -0.0312677,0.0147717 -0.0655866,0.0238189 -0.100492,0.0259567 -0.0945236,0.00579134 -0.190496,-0.0364724 -0.242972,-0.147531l0.000106299 -5.11811e-005 -0.000937008 -0.0020315 -0.166949 -0.372547 -0.205382 -0.45828c-0.0152205,-0.0306654 -0.0244016,-0.0640984 -0.0266299,-0.0983228 -0.00227165,-0.0349173 0.00251969,-0.0708228 0.0153071,-0.105657l0.000204724 7.48031e-005c0.00401181,-0.010937 0.0098937,-0.0214016 0.0177126,-0.0309094l0.391118 -0.475055z"/>
   <path id="_516442840" class="fil0" d="M3.48544 2.07465c-0.0397008,0.00906299 -0.072063,0.0334921 -0.0922835,0.0656535 -0.020189,0.0321102 -0.0281102,0.0720472 -0.0189646,0.112177 0.00905512,0.0397323 0.0334921,0.072122 0.0656693,0.0923543 0.0321142,0.020189 0.0720512,0.0281102 0.112177,0.0189646 0.0397323,-0.00905512 0.072126,-0.0334921 0.0923583,-0.0656693 0.020189,-0.0321102 0.0281063,-0.0720472 0.0189606,-0.112177l-1.5748e-005 -7.87402e-005c-0.00906693,-0.0397008 -0.0334961,-0.0720591 -0.0656535,-0.0922795 -0.0321063,-0.020189 -0.0720433,-0.0281063 -0.112169,-0.0189606l-7.87402e-005 1.5748e-005zm-0.272283 -0.0476772c0.0473898,-0.075374 0.122638,-0.13335 0.215264,-0.157303 0.0063622,-0.00211811 0.0129882,-0.00365748 0.0198189,-0.00455118 0.0938504,-0.0188189 0.187059,0.000866142 0.26278,0.0484764 0.0753661,0.0473898 0.133343,0.12263 0.157303,0.215264 0.00212205,0.00635827 0.00366142,0.0129843 0.00455118,0.019815 0.0188189,0.0938583 -0.000862205,0.187059 -0.0484764,0.262787 -0.0491575,0.0781811 -0.128283,0.137642 -0.225689,0.159843 -0.0970157,0.0221102 -0.193929,0.00272835 -0.272177,-0.0464685 -0.0781811,-0.0491575 -0.137642,-0.12828 -0.159843,-0.225685 -0.0221102,-0.0970236 -0.00272835,-0.193933 0.0464685,-0.272177z"/>
   <path id="_516443056" class="fil0" d="M4.4046 4.31674c-0.0250827,-0.0531575 -0.00232283,-0.116587 0.0508346,-0.141669 0.0531575,-0.0250827 0.116587,-0.00232283 0.141669,0.0508346l0.22328 0.472272c0.000397638,0.00084252 0.000783465,0.00168898 0.00115748,0.00253937l9.05512e-005 -3.93701e-005c0.000826772,0.00186614 0.00174409,0.00362992 0.00274016,0.00529921l0.577984 0.0439724c0.0205,-0.00103543 0.034248,-0.00506693 0.0423307,-0.0110354 0.00306299,-0.00226378 0.00498031,-0.00538583 0.00584646,-0.00890157 0.00198031,-0.00800394 0.00108661,-0.0181654 -0.00231102,-0.0292087 -0.00423622,-0.013748 -0.0118898,-0.0274252 -0.0225748,-0.0396654l-0.50663 -0.0334213c-0.0432205,-0.0027126 -0.0787913,-0.0308543 -0.0930669,-0.0689409l-0.241807 -0.613244c-0.0214016,-0.0547638 0.00564961,-0.116516 0.0604134,-0.137917 0.0547638,-0.0214016 0.116516,0.00564961 0.137917,0.0604134l0.21752 0.551646 0.475693 0.0313819 -7.87402e-006 0.00011811c0.0198228,0.00122441 0.0395354,0.00800394 0.0566772,0.0207165 0.0588858,0.0437441 0.100004,0.104094 0.119197,0.166409 0.0145866,0.0473898 0.0169882,0.0967323 0.00564961,0.142547 -0.0124409,0.0503071 -0.0404764,0.095374 -0.0858465,0.128902 -0.0409528,0.0302598 -0.0949409,0.0497953 -0.162677,0.0526417 -0.00626772,0.000661417 -0.0126811,0.000771654 -0.019189,0.000287402l-0.615429 -0.0468189c-0.0180787,-0.000992126 -0.0361496,-0.00661024 -0.0523937,-0.0172362 -0.0203346,-0.0133031 -0.0391142,-0.0298228 -0.0556102,-0.0492677 -0.0157874,-0.0186142 -0.0291575,-0.0396496 -0.0394252,-0.0628425l5.51181e-005 -2.3622e-005 -0.222087 -0.469748z"/>
   <path id="_516442960" class="fil0" d="M4.19294 3.09565c-0.0584488,-0.00575197 -0.101169,-0.0578031 -0.0954173,-0.116252 0.00575197,-0.0584488 0.0578031,-0.101169 0.116252,-0.0954173l0.304732 0.0307165c0.0302362,0.00297638 0.0562638,0.0183425 0.0735472,0.0405748l0.000200787 -0.00015748 0.321331 0.413717c0.00509055,0.00655118 0.00929921,0.0135079 0.0126417,0.0207323 0.00581496,0.00948425 0.0147126,0.0161929 0.0247559,0.0194764 0.0113976,0.00372835 0.024185,0.0031378 0.035626,-0.00265748 0.0111969,-0.00567323 0.0190591,-0.0154173 0.0227087,-0.0265669 0.00309055,-0.00944882 0.0032126,-0.0198504 -0.000137795,-0.0296496l-0.3525 -0.478909c-0.00383071,-0.00522835 -0.00711417,-0.010689 -0.0098622,-0.016315 -0.00374016,-0.00681496 -0.00905512,-0.0123465 -0.0152756,-0.0163425 -0.00712205,-0.0045748 -0.0151378,-0.00718504 -0.0231457,-0.00751575 -0.00294094,-0.000114173 -0.00584646,-0.000354331 -0.00871654,-0.000700787l-3.54331e-005 0.000283465 -0.652406 -0.0813701c-0.0584488,-0.00713386 -0.100051,-0.0603031 -0.0929173,-0.118752 0.00713386,-0.0584488 0.0603031,-0.100051 0.118752,-0.0929173l0.652406 0.0813701 -1.1811e-005 9.05512e-005c0.0432244,0.00323622 0.0849331,0.0171299 0.121075,0.0403465 0.0347717,0.0223504 0.0646535,0.0533346 0.0860866,0.0918031l0.354866 0.482122 -1.1811e-005 7.87402e-006c0.00340945,0.00466142 0.00648819,0.00966535 0.00917717,0.0149921 0.0322913,0.0637244 0.0357244,0.134465 0.0151614,0.197291 -0.0206457,0.0630787 -0.0654094,0.118311 -0.129378,0.150732 -0.0637362,0.0322992 -0.134469,0.0357244 -0.197295,0.0151614 -0.0591929,-0.0193701 -0.111488,-0.06 -0.144492,-0.117799l-0.288937 -0.372012 -0.25878 -0.0260827z"/>
   <path id="_516442672" class="fil0" d="M2.06023 3.0348c0.0268465,0.0386614 0.0864409,0.0266929 0.0962402,-0.0194173 0.00287795,-0.0143898 1.9685e-005,-0.0287362 -0.00824803,-0.0408819l-0.0602953 -0.0879882c-0.018185,-0.026185 -0.0507402,-0.0289213 -0.0731772,-0.0144724 0.0102087,-0.00724016 0.0180787,-0.0182835 0.0211299,-0.0326339 0.00287795,-0.0143898 1.9685e-005,-0.0287362 -0.00824803,-0.0408819l-0.0602953 -0.0879882c-0.018185,-0.026185 -0.0507402,-0.0289213 -0.0731772,-0.0144724 0.0102087,-0.00724016 0.0180787,-0.0182835 0.0211299,-0.0326339 0.00287795,-0.0143898 1.9685e-005,-0.0287362 -0.00824803,-0.0408819l-0.0602953 -0.0879882c-0.018185,-0.026185 -0.0507402,-0.0289213 -0.0731772,-0.0144724 0.0102087,-0.00724016 0.0180787,-0.0182835 0.0211299,-0.0326339 0.00287795,-0.0143898 1.9685e-005,-0.0287362 -0.00824803,-0.0408819l-0.0602953 -0.0879882c-0.018185,-0.026185 -0.0507402,-0.0289213 -0.0731772,-0.0144724 0.0102087,-0.00724016 0.0180787,-0.0182835 0.0211299,-0.0326339 0.00287795,-0.0143898 1.9685e-005,-0.0287362 -0.00824803,-0.0408819l-0.0602953 -0.0879882c-0.018185,-0.026185 -0.0507402,-0.0289213 -0.0731772,-0.0144724 0.0102087,-0.00724016 0.0180787,-0.0182835 0.0211299,-0.0326339 0.00287795,-0.0143898 1.9685e-005,-0.0287362 -0.00824803,-0.0408819l-0.0602953 -0.0879882c-0.018185,-0.026185 -0.0507402,-0.0289213 -0.0731772,-0.0144724 0.0102087,-0.00724016 0.0180787,-0.0182835 0.0211299,-0.0326339 0.00287795,-0.0143898 1.9685e-005,-0.0287362 -0.00824803,-0.0408819l-0.0602953 -0.0879882c-0.018185,-0.026185 -0.0507402,-0.0289213 -0.0731772,-0.0144724 0.0102087,-0.00724016 0.0180787,-0.0182835 0.0211299,-0.0326339 0.00287795,-0.0143898 1.9685e-005,-0.0287362 -0.00824803,-0.0408819l-0.0602953 -0.0879882c-0.018185,-0.026185 -0.0507402,-0.0289213 -0.0731772,-0.0144724 0.0102087,-0.00724016 0.0180787,-0.0182835 0.0211299,-0.0326339 0.00287795,-0.0143898 1.9685e-005,-0.0287362 -0.00824803,-0.0408819l-0.0602953 -0.0879882c-0.018185,-0.026185 -0.0507402,-0.0289213 -0.0731772,-0.0144724 0.0102087,-0.00724016 0.0180787,-0.0182835 0.0211299,-0.0326339 0.00287795,-0.0143898 1.9685e-005,-0.0287362 -0.00824803,-0.0408819l-0.0602992 -0.0879882c-0.0284803,-0.0410079 -0.092189,-0.0245157 -0.097122,0.0254291 -0.00107874,0.0124961 0.00207087,0.0245 0.00912992,0.0348701l0.0602992 0.0879882c0.0179724,0.0258819 0.0506181,0.0290709 0.0731772,0.0145197 -0.0117205,0.00829134 -0.0203189,0.0214764 -0.0220118,0.0385984 -0.00107874,0.0124961 0.00207087,0.0245 0.00912992,0.0348701l0.0602953 0.0879882c0.0179724,0.0258819 0.0506181,0.0290709 0.0731772,0.0145197 -0.0117205,0.00829134 -0.0203189,0.0214764 -0.0220118,0.0385984 -0.00107874,0.0124961 0.00207087,0.0245 0.00912992,0.0348701l0.0602953 0.0879882c0.0179724,0.0258819 0.0506181,0.0290709 0.0731772,0.0145197 -0.0117205,0.00829134 -0.0203189,0.0214764 -0.0220118,0.0385984 -0.00107874,0.0124961 0.00207087,0.0245 0.00912992,0.0348701l0.0602953 0.0879882c0.0179724,0.0258819 0.0506181,0.0290709 0.0731772,0.0145197 -0.0117205,0.00829134 -0.0203189,0.0214764 -0.0220118,0.0385984 -0.00107874,0.0124961 0.00207087,0.0245 0.00912992,0.0348701l0.0602953 0.0879882c0.0179724,0.0258819 0.0506181,0.0290709 0.0731772,0.0145197 -0.0117205,0.00829134 -0.0203189,0.0214764 -0.0220118,0.0385984 -0.00107874,0.0124961 0.00207087,0.0245 0.00912992,0.0348701l0.0602953 0.0879882c0.0179724,0.0258819 0.0506181,0.0290709 0.0731772,0.0145197 -0.0117205,0.00829134 -0.0203189,0.0214764 -0.0220118,0.0385984 -0.00107874,0.0124961 0.00207087,0.0245 0.00912992,0.0348701l0.0602953 0.0879882c0.0179724,0.0258819 0.0506181,0.0290709 0.0731772,0.0145197 -0.0117205,0.00829134 -0.0203189,0.0214764 -0.0220118,0.0385984 -0.00107874,0.0124961 0.00207087,0.0245 0.00912992,0.0348701l0.0602953 0.0879882c0.0179724,0.0258819 0.0506181,0.0290709 0.0731772,0.0145197 -0.0117205,0.00829134 -0.0203189,0.0214764 -0.0220118,0.0385984 -0.00107874,0.0124961 0.00207087,0.0245 0.00912992,0.0348701l0.0602953 0.0879882c0.0179724,0.0258819 0.0506181,0.0290709 0.0731772,0.0145197 -0.0117205,0.00829134 -0.0203189,0.0214764 -0.0220118,0.0385984 -0.00107874,0.0124961 0.00207087,0.0245 0.00912992,0.0348701l0.0602953 0.0879882z"/>
   <path id="_516442288" class="fil0" d="M1.99449 3.12789c0.0366693,0.0286969 0.0893386,0.00107874 0.0864685,-0.0454055 -0.00112205,-0.0151378 -0.0081378,-0.0284252 -0.0199331,-0.0379646l-0.0833701 -0.0665315c-0.0245236,-0.0191929 -0.0562008,-0.0131929 -0.0736378,0.00679134 0.0070315,-0.00948425 0.0110472,-0.0215945 0.0102008,-0.0353583 -0.00112205,-0.0151378 -0.0081378,-0.0284252 -0.0199331,-0.0379646l-0.0833701 -0.0665315c-0.0245236,-0.0191929 -0.0562008,-0.0131929 -0.0736378,0.00679134 0.0070315,-0.00948425 0.0110472,-0.0215945 0.0102008,-0.0353583 -0.00112205,-0.0151378 -0.0081378,-0.0284252 -0.0199331,-0.0379646l-0.0833701 -0.0665315c-0.0245236,-0.0191929 -0.0562008,-0.0131929 -0.0736378,0.00679134 0.0070315,-0.00948425 0.0110472,-0.0215945 0.0102008,-0.0353583 -0.00112205,-0.0151378 -0.0081378,-0.0284252 -0.0199331,-0.0379646l-0.0833701 -0.0665315c-0.0245236,-0.0191929 -0.0562008,-0.0131929 -0.0736378,0.00679134 0.0070315,-0.00948425 0.0110472,-0.0215945 0.0102008,-0.0353583 -0.00112205,-0.0151378 -0.0081378,-0.0284252 -0.0199331,-0.0379646l-0.0833701 -0.0665354c-0.0245394,-0.0192047 -0.0562402,-0.013189 -0.0736732,0.00682677 0.00705118,-0.00949213 0.0110827,-0.0216142 0.0102323,-0.0353976 -0.00112205,-0.0151378 -0.0081378,-0.0284252 -0.0199331,-0.0379646l-0.083374 -0.0665354c-0.0245394,-0.0192047 -0.0562402,-0.013189 -0.0736732,0.00682677 0.00705118,-0.00949213 0.0110827,-0.0216142 0.0102323,-0.0353976 -0.00112205,-0.0151378 -0.0081378,-0.0284252 -0.0199331,-0.0379646l-0.083374 -0.0665354c-0.0366693,-0.0286969 -0.0893386,-0.00107874 -0.0864685,0.0454055 0.00112205,0.0151378 0.0081378,0.0284252 0.0199331,0.0379646l0.083374 0.0665354c0.0245394,0.0192047 0.0562441,0.013189 0.0736732,-0.00682677 -0.00705118,0.00948819 -0.0110827,0.0216142 -0.0102323,0.0353976 0.00112205,0.0151378 0.0081378,0.0284252 0.0199331,0.0379646l0.083374 0.0665354c0.0245394,0.0192047 0.0562441,0.013189 0.0736732,-0.00682677 -0.00705118,0.00948819 -0.0110827,0.0216142 -0.0102323,0.0353976 0.00112205,0.0151378 0.0081378,0.0284252 0.0199331,0.0379646l0.0833701 0.0665354c0.0245236,0.0191929 0.0562008,0.0131929 0.0736378,-0.00679134 -0.0070315,0.00948425 -0.0110512,0.0215945 -0.0102008,0.0353583 0.00112205,0.0151378 0.0081378,0.0284252 0.0199331,0.0379646l0.0833701 0.0665315c0.0245236,0.0191929 0.0562008,0.0131929 0.0736378,-0.00679134 -0.0070315,0.00948425 -0.0110512,0.0215945 -0.0102008,0.0353583 0.00112205,0.0151378 0.0081378,0.0284252 0.0199331,0.0379646l0.0833701 0.0665315c0.0245236,0.0191929 0.0562008,0.0131929 0.0736378,-0.00679134 -0.0070315,0.00948425 -0.0110512,0.0215945 -0.0102008,0.0353583 0.00112205,0.0151378 0.0081378,0.0284252 0.0199331,0.0379646l0.0833701 0.0665315c0.0245236,0.0191929 0.0562008,0.0131929 0.0736378,-0.00679134 -0.0070315,0.00948425 -0.0110512,0.0215945 -0.0102008,0.0353583 0.00112205,0.0151378 0.0081378,0.0284252 0.0199331,0.0379646l0.0833701 0.0665315z"/>
   <path id="_516442024" class="fil0" d="M1.96286 3.24803c0.0261102,0.00746063 0.0531142,-0.00523622 0.0639685,-0.0301339 0.0126969,-0.0295 -0.00334252,-0.0631063 -0.0340394,-0.0722441l-0.102378 -0.0299291c-0.0261102,-0.00746063 -0.0531142,0.00523622 -0.0639685,0.0301339 -0.000700787,0.00162992 -0.00131102,0.00327165 -0.00183858,0.00492126 0.00746063,-0.0275433 -0.00837008,-0.0565866 -0.0365709,-0.0649843l-0.102378 -0.0299291c-0.0261102,-0.00746063 -0.0531142,0.00523622 -0.0639685,0.0301339 -0.000700787,0.00162992 -0.00131102,0.00327165 -0.00183858,0.00492126 0.00746063,-0.0275433 -0.00837008,-0.0565866 -0.0365709,-0.0649843l-0.102378 -0.0299291c-0.0261102,-0.00746063 -0.0531142,0.00523622 -0.0639685,0.0301339 -0.000700787,0.00162992 -0.00131102,0.00327165 -0.00183858,0.00492126 0.00746063,-0.0275433 -0.00837008,-0.0565866 -0.0365709,-0.0649843l-0.102382 -0.0299291c-0.0261102,-0.00746063 -0.0531142,0.00523622 -0.0639685,0.0301339 -0.000712598,0.00165748 -0.00133465,0.00332677 -0.00186614,0.00500787 0.00751969,-0.0275709 -0.00831102,-0.0566693 -0.0365472,-0.0650748l-0.102382 -0.0299331c-0.0261102,-0.00746063 -0.0531142,0.00523622 -0.0639685,0.0301339 -0.000712598,0.00165748 -0.00133465,0.00332677 -0.00186614,0.00500787 0.00751969,-0.0275709 -0.00831102,-0.0566693 -0.0365472,-0.0650748l-0.0473071 -0.0138307c-0.0261102,-0.00746063 -0.0531142,0.00523622 -0.0639685,0.0301339 -0.0126969,0.0295 0.00334252,0.0631063 0.0340394,0.0722441l0.0473071 0.0138307c0.0261102,0.00746063 0.0531142,-0.00523622 0.0639685,-0.0301339 0.000712598,-0.00165748 0.00133465,-0.00333071 0.00186614,-0.00500787 -0.00751969,0.0275709 0.00831496,0.0566693 0.0365472,0.0650748l0.102382 0.0299331c0.0261102,0.00746063 0.0531142,-0.00523622 0.0639685,-0.0301339 0.000712598,-0.00165748 0.00133465,-0.00333071 0.00186614,-0.00500787 -0.00751969,0.0275709 0.00831496,0.0566693 0.0365472,0.0650748l0.102382 0.0299291c0.0261102,0.00746063 0.0531142,-0.00523622 0.0639685,-0.0301339 0.000700787,-0.00162992 0.00131102,-0.00327165 0.00183858,-0.00492126 -0.00746063,0.0275433 0.00837008,0.0565906 0.0365709,0.0649843l0.102378 0.0299291c0.0261102,0.00746063 0.0531142,-0.00523622 0.0639685,-0.0301339 0.000700787,-0.00162992 0.00131102,-0.00327165 0.00183858,-0.00492126 -0.00746063,0.0275433 0.00837008,0.0565906 0.0365709,0.0649843l0.102378 0.0299291c0.0261102,0.00746063 0.0531142,-0.00523622 0.0639685,-0.0301339 0.000700787,-0.00162992 0.00131102,-0.00327165 0.00183858,-0.00492126 -0.00746063,0.0275433 0.00837008,0.0565906 0.0365709,0.0649843l0.102378 0.0299291z"/>
  </g>
  <g id="_516441736">
   <path id="_516441904" class="fil1" d="M4.19649 3.93801l0 0zm-0.218772 -0.577815l0.23172 0.462839c0.0193504,0.0387008 0.0128465,0.0835709 -0.0129173,0.115l-0.419783 0.509874c-0.000181102,0.00222047 -0.00019685,0.00441732 -5.51181e-005,0.00658661 0.000433071,0.00664173 0.00216142,0.012878 0.00499213,0.0182992 0.00101181,0.00194094 0.00194882,0.00390157 0.00283071,0.00587008l8.66142e-005 -3.93701e-005 0.205764 0.459134 0.166031 0.370504 8.66142e-005 -3.93701e-005c0.0091063,0.0192677 0.0239252,0.0267205 0.0379646,0.0258622 0.0073189,-0.000448819 0.0149055,-0.0025315 0.0221614,-0.00595669 0.00720079,-0.00340157 0.0136535,-0.00799606 0.0187677,-0.0134961 0.0094685,-0.0101811 0.0130118,-0.0263031 0.00386614,-0.0456614 -0.00152362,-0.00322835 -0.00286614,-0.00649213 -0.00403937,-0.00978346l-0.226602 -0.536449 -0.0496575 -0.117551c-0.0177992,-0.042252 -0.00620079,-0.0895394 0.0255197,-0.119059l-0.000102362 -0.000110236c0.138819,-0.128941 0.257484,-0.239764 0.351035,-0.33 0.093248,-0.0899449 0.163795,-0.161425 0.208165,-0.213299 0.00917717,-0.0107283 0.0169409,-0.0202323 0.0232441,-0.0284803l-0.0815827 -0.152492 -0.518933 -0.970012 -0.000259843 -0.000503937 -0.000153543 8.26772e-005c-0.0115354,-0.0218819 -0.0286181,-0.0388898 -0.0485669,-0.0501929 -0.00358661,-0.0015748 -0.00706299,-0.00333465 -0.0104173,-0.00527165 -0.00456299,-0.00204331 -0.00924016,-0.00380709 -0.0140079,-0.00528346 -0.0304921,-0.00943701 -0.0645945,-0.00724409 -0.0950512,0.00881102l-6.69291e-005 3.54331e-005c-0.0635945,0.0335669 -0.0659961,0.0980787 -0.0686378,0.169291 -0.00136614,0.036937 -0.0027874,0.075 -0.00833465,0.112969 -0.0141929,0.0971181 -0.0288346,0.177508 -0.049437,0.262969l-0.00113386 0.00427559c-0.0199134,0.0818819 -0.0449961,0.166 -0.0802913,0.272295 -0.0118268,0.0357756 -0.0408386,0.0610354 -0.0748465,0.0696496l-0.486303 0.12472 -9.84252e-005 2.3622e-005 9.84252e-005 0.000393701c-0.0124213,0.00315748 -0.0222795,0.0108543 -0.0281535,0.0207362 -0.00605906,0.010189 -0.00822835,0.0227323 -0.00506693,0.0351772 0.00315748,0.0124213 0.0108583,0.0222795 0.0207362,0.0281535 0.010189,0.00605906 0.0227323,0.00822441 0.0351772,0.00506299 0.00294094,-0.000748031 0.00588189,-0.00135433 0.00882283,-0.00184646l0.558425 -0.14322 9.84252e-005 -2.3622e-005 -9.84252e-005 -0.000393701c0.00854724,-0.00216929 0.0157638,-0.0063189 0.0212402,-0.0117283 0.00562992,-0.00556299 0.00977559,-0.0128425 0.0119606,-0.0210118 0.0012874,-0.00481102 0.00288976,-0.00944882 0.00476772,-0.0139173l0.163122 -0.49122c0.0184094,-0.055689 0.0784803,-0.0859094 0.134169,-0.0675 0.055689,0.0184094 0.0859094,0.0784803 0.0675,0.134169l-0.0437559 0.13176z"/>
   <path id="_516441640" class="fil1" d="M4.65822 4.13338c-0.0212008,0.0227165 -0.0452244,0.0475236 -0.0719488,0.0744094 0.00412598,0.00556299 0.00777165,0.0116102 0.0108386,0.0181142l0.22328 0.472272 0.00115748 0.00253937 9.05512e-005 -3.93701e-005c0.000826772,0.00186614 0.00174409,0.00362992 0.00274016,0.00529921l0.577984 0.0439724c0.0205,-0.00103543 0.034248,-0.00506693 0.0423307,-0.0110354 0.00306299,-0.00226378 0.00498031,-0.00538583 0.00584646,-0.00890157 0.00198031,-0.00800394 0.00108661,-0.0181654 -0.00231102,-0.0292087 -0.00423622,-0.013748 -0.0118898,-0.0274252 -0.0225748,-0.0396654l-0.50663 -0.0334213c-0.0432205,-0.0027126 -0.0787913,-0.0308543 -0.0930669,-0.0689409l-0.167736 -0.425394z"/>
   <path id="_516441976" class="fil1" d="M4.59226 2.95512l0.321331 0.413717c0.00509055,0.00655118 0.00929921,0.0135079 0.0126417,0.0207323 0.00581496,0.00948425 0.0147126,0.0161929 0.0247559,0.0194764 0.0113976,0.00372835 0.024185,0.0031378 0.035626,-0.00265748 0.0111969,-0.00567323 0.0190591,-0.0154173 0.0227087,-0.0265669 0.00309055,-0.00944882 0.0032126,-0.0198504 -0.000137795,-0.0296496l-0.3525 -0.478909c-0.00383071,-0.00522835 -0.00711417,-0.010689 -0.0098622,-0.016315 -0.00374016,-0.00681496 -0.00905512,-0.0123465 -0.0152756,-0.0163425 -0.00712205,-0.0045748 -0.0151378,-0.00718504 -0.0231457,-0.00751575 -0.00294094,-0.000114173 -0.00584646,-0.000354331 -0.00871654,-0.000700787l-3.54331e-005 0.000283465 -0.398098 -0.0496535 0.0575276 0.107535 0.259433 0.0261496c0.0302362,0.00297638 0.0562638,0.0183425 0.0735472,0.0405748l0.000200787 -0.00015748z"/>
  </g>
  <polygon class="fil2" points="2.60452,3.57094 2.68707,3.45641 2.43961,3.37254 "/>
  <path class="fil3" d="M3.43986 2.34483c0.0321142,0.020189 0.0720512,0.0281102 0.112177,0.0189646 0.0397323,-0.00905512 0.072126,-0.0334921 0.0923583,-0.0656693 0.020189,-0.0321102 0.0281063,-0.0720472 0.0189606,-0.112177l-1.5748e-005 -7.87402e-005c-0.00906693,-0.0397008 -0.0334961,-0.0720591 -0.0656535,-0.0922795 -0.0321063,-0.020189 -0.0720433,-0.0281063 -0.112169,-0.0189606l-7.87402e-005 1.5748e-005c-0.0397008,0.00906299 -0.072063,0.0334921 -0.0922835,0.0656535 -0.020189,0.0321102 -0.0281102,0.0720472 -0.0189646,0.112177 0.00905512,0.0397323 0.0334921,0.072122 0.0656693,0.0923543z"/>
 </g>
 <rect class="fil4" width="6.82666" height="6.82666"/>
</svg>
