<?xml version="1.0" encoding="UTF-8"?>
<!DOCTYPE svg PUBLIC "-//W3C//DTD SVG 1.1//EN" "http://www.w3.org/Graphics/SVG/1.1/DTD/svg11.dtd">
<!-- Creator: CorelDRAW -->
<svg xmlns="http://www.w3.org/2000/svg" xml:space="preserve" width="6.82666in" height="6.82666in" style="shape-rendering:geometricPrecision; text-rendering:geometricPrecision; image-rendering:optimizeQuality; fill-rule:evenodd; clip-rule:evenodd"
viewBox="0 0 6.82666 6.82666"
 xmlns:xlink="http://www.w3.org/1999/xlink">
 <defs>
  <style type="text/css">
   <![CDATA[
    .fil3 {fill:none}
    .fil1 {fill:#F45A52}
    .fil2 {fill:#FECA5F}
    .fil0 {fill:#212121;fill-rule:nonzero}
   ]]>
  </style>
 </defs>
 <g id="Layer_x0020_1">
  <metadata id="CorelCorpID_0Corel-Layer"/>
  <g id="_516444544">
   <path id="_516445216" class="fil0" d="M5.58556 5.97333l-4.34444 0c-0.106748,0 -0.20372,-0.0435945 -0.273953,-0.113827 -0.0702283,-0.0702283 -0.113827,-0.167201 -0.113827,-0.273949l0 -4.34445c0,-0.106748 0.0435984,-0.20372 0.113827,-0.273949 0.0702323,-0.0702323 0.167205,-0.113827 0.273953,-0.113827l4.34444 0c0.106752,0 0.20372,0.0435945 0.273949,0.113827 0.0702323,0.0702283 0.113827,0.167197 0.113827,0.273949l0 4.34445c0,0.106752 -0.0435945,0.20372 -0.113827,0.273949 -0.0702283,0.0702323 -0.167197,0.113827 -0.273949,0.113827zm-4.34444 -0.213339l4.34444 0c0.0478622,0 0.0914488,-0.0196575 0.123114,-0.0513228 0.0316654,-0.0316654 0.0513228,-0.075252 0.0513228,-0.123114l0 -4.34445c0,-0.0478622 -0.0196575,-0.0914488 -0.0513228,-0.123114 -0.0316654,-0.0316654 -0.075252,-0.0513228 -0.123114,-0.0513228l-4.34444 0c-0.0478622,0 -0.0914528,0.0196575 -0.123118,0.0513228 -0.0316614,0.0316614 -0.0513228,0.075252 -0.0513228,0.123114l0 4.34445c0,0.0478622 0.0196614,0.0914528 0.0513228,0.123114 0.0316654,0.0316654 0.0752559,0.0513228 0.123118,0.0513228z"/>
   <path id="_516444760" class="fil0" d="M0.959996 2.70222c-0.0589094,0 -0.106669,-0.0477598 -0.106669,-0.106669 0,-0.0589094 0.0477598,-0.106669 0.106669,-0.106669l4.90667 0c0.0589094,0 0.106669,0.0477598 0.106669,0.106669 0,0.0589094 -0.0477598,0.106669 -0.106669,0.106669l-4.90667 0z"/>
   <path id="_516445144" class="fil0" d="M1.47111 3.10222l3.88444 0c0.0589094,0 0.106669,0.0477598 0.106669,0.106669l0 2.04444c0,0.0589094 -0.0477598,0.106669 -0.106669,0.106669l-3.88444 0c-0.0589094,0 -0.106669,-0.0477598 -0.106669,-0.106669l0 -2.04444c0,-0.0589094 0.0477598,-0.106669 0.106669,-0.106669zm3.77778 0.213339l-3.67111 0 0 1.8311 3.67111 0 0 -1.8311z"/>
   <path id="_516444400" class="fil0" d="M2.0586 3.77224l0.498484 0.373862c0.0469409,0.0352087 0.0564567,0.101811 0.021248,0.148752 -0.00667323,0.0088937 -0.0144724,0.0164449 -0.0230512,0.0226024l-0.504169 0.378126c-0.0469409,0.0352087 -0.113543,0.0256929 -0.148752,-0.021248 -0.0143543,-0.0191378 -0.0212717,-0.0415394 -0.021252,-0.063752l-0.000417323 0 0 -0.758957c0,-0.0589094 0.0477598,-0.106669 0.106669,-0.106669 0.0273819,0 0.0523504,0.0103228 0.0712402,0.0272835zm0.257646 0.458862l-0.222217 -0.166661 0 0.333327 0.222217 -0.166665z"/>
   <path id="_516444472" class="fil0" d="M4.73777 4.06444l-0.222217 0.166661 0.222217 0.166665 0 -0.333327zm-0.463055 0.0816614l0.498484 -0.373862c0.0188898,-0.0169606 0.0438583,-0.0272835 0.0712402,-0.0272835 0.0589094,0 0.106669,0.0477598 0.106669,0.106669l0 0.758957 -0.000417323 0c1.9685e-005,0.0222126 -0.00689764,0.0446142 -0.021252,0.063752 -0.0352087,0.0469409 -0.101811,0.0564567 -0.148752,0.021248l-0.504169 -0.378126c-0.00857874,-0.00615748 -0.016378,-0.0137087 -0.0230512,-0.0226024 -0.0352087,-0.0469409 -0.0256929,-0.113543 0.021248,-0.148752z"/>
   <path id="_516444448" class="fil0" d="M3.41333 3.81777c0.114126,0 0.217465,0.0462717 0.292264,0.121071 0.0747992,0.0747992 0.121071,0.178138 0.121071,0.292264 0,0.114126 -0.0462717,0.217465 -0.121071,0.292264 -0.0747992,0.0747992 -0.178138,0.121071 -0.292264,0.121071 -0.114126,0 -0.217465,-0.0462717 -0.292264,-0.121071 -0.0747992,-0.0747992 -0.121071,-0.178138 -0.121071,-0.292264 0,-0.114126 0.0462717,-0.217465 0.121071,-0.292264 0.0747992,-0.0747992 0.178138,-0.121071 0.292264,-0.121071zm0.141429 0.271906c-0.0361811,-0.0361811 -0.086189,-0.0585669 -0.141429,-0.0585669 -0.0552402,0 -0.105248,0.0223858 -0.141429,0.0585669 -0.0361811,0.0361811 -0.0585669,0.086189 -0.0585669,0.141429 0,0.0552402 0.0223858,0.105248 0.0585669,0.141429 0.0361811,0.0361811 0.086189,0.0585669 0.141429,0.0585669 0.0552402,0 0.105248,-0.0223858 0.141429,-0.0585669 0.0361811,-0.0361811 0.0585669,-0.086189 0.0585669,-0.141429 0,-0.0552402 -0.0223858,-0.105248 -0.0585669,-0.141429z"/>
   <path id="_516444040" class="fil0" d="M1.56535 2.24737l0 -0.915807 0.627953 0 0 0.155016 -0.44287 0 0 0.216638 0.382315 0 0 0.155016 -0.382315 0 0 0.389138 -0.185083 0zm1.11934 0l0 -0.915807 0.184866 0 0 0.915807 -0.184866 0zm0.706319 0l0 -0.915807 0.38935 0c0.0978701,0 0.168874,0.00831496 0.213224,0.0247362 0.0443504,0.0164173 0.0799606,0.0456299 0.106614,0.0876339 0.0266535,0.0422205 0.039874,0.0901969 0.039874,0.144354 0,0.0686614 -0.0202559,0.125591 -0.0605551,0.17037 -0.0403031,0.044563 -0.100858,0.0729213 -0.181244,0.084437 0.0400866,0.0234528 0.0731378,0.0490394 0.0991535,0.0769724 0.0260079,0.0279331 0.0609803,0.0774016 0.105118,0.148622l0.111941 0.178681 -0.221114 0 -0.133693 -0.199366c-0.0475472,-0.0712165 -0.0799606,-0.115996 -0.0974449,-0.134543 -0.0174843,-0.0185512 -0.0360354,-0.0311339 -0.0556535,-0.0381732 -0.0196142,-0.0068189 -0.0505315,-0.0102323 -0.0931811,-0.0102323l-0.037311 0 0 0.382315 -0.185079 0zm0.185079 -0.528587l0.136677 0c0.0887047,0 0.144142,-0.00362598 0.166315,-0.0110906 0.0219646,-0.00746063 0.0392362,-0.0204685 0.051815,-0.0388031 0.0123701,-0.0183425 0.0187638,-0.0411575 0.0187638,-0.0686614 0,-0.0309173 -0.00831496,-0.0556496 -0.0247323,-0.0746299 -0.0164213,-0.0189764 -0.0396614,-0.0309173 -0.0697283,-0.0360354 -0.0149252,-0.00192126 -0.0599134,-0.00298425 -0.134969,-0.00298425l-0.144142 0 0 0.232205zm1.08309 0.528587l0 -0.915807 0.678913 0 0 0.155016 -0.494043 0 0 0.202992 0.459717 0 0 0.154161 -0.459717 0 0 0.249264 0.511531 0 0 0.154374 -0.696402 0z"/>
  </g>
  <path class="fil1" d="M5.24889 3.31556l-3.67111 0 0 1.8311 3.67111 0 0 -1.8311zm-1.83556 0.502217c0.114126,0 0.217465,0.0462717 0.292264,0.121071 0.0747992,0.0747992 0.121071,0.178138 0.121071,0.292264 0,0.114126 -0.0462717,0.217465 -0.121071,0.292264 -0.0747992,0.0747992 -0.178138,0.121071 -0.292264,0.121071 -0.114126,0 -0.217465,-0.0462717 -0.292264,-0.121071 -0.0747992,-0.0747992 -0.121071,-0.178138 -0.121071,-0.292264 0,-0.114126 0.0462717,-0.217465 0.121071,-0.292264 0.0747992,-0.0747992 0.178138,-0.121071 0.292264,-0.121071zm-1.35473 -0.0455276l0.498484 0.373862c0.0469409,0.0352087 0.0564567,0.101811 0.021248,0.148752 -0.00667323,0.0088937 -0.0144724,0.0164449 -0.0230512,0.0226024l-0.504169 0.378126c-0.0469409,0.0352087 -0.113543,0.0256929 -0.148752,-0.021248 -0.0143543,-0.0191378 -0.0212717,-0.0415394 -0.021252,-0.063752l-0.000417323 0 0 -0.758957c0,-0.0589094 0.0477598,-0.106669 0.106669,-0.106669 0.0273819,0 0.0523504,0.0103228 0.0712402,0.0272835zm2.21611 0.373862l0.498484 -0.373862c0.0188898,-0.0169606 0.0438583,-0.0272835 0.0712402,-0.0272835 0.0589094,0 0.106669,0.0477598 0.106669,0.106669l0 0.758957 -0.000417323 0c1.9685e-005,0.0222126 -0.00689764,0.0446142 -0.021252,0.063752 -0.0352087,0.0469409 -0.101811,0.0564567 -0.148752,0.021248l-0.504169 -0.378126c-0.00857874,-0.00615748 -0.016378,-0.0137087 -0.0230512,-0.0226024 -0.0352087,-0.0469409 -0.0256929,-0.113543 0.021248,-0.148752z"/>
  <path class="fil2" d="M3.61333 4.23111c0,-0.0552402 -0.0223858,-0.105248 -0.0585669,-0.141429 -0.0361811,-0.0361811 -0.086189,-0.0585669 -0.141429,-0.0585669 -0.0552402,0 -0.105248,0.0223858 -0.141429,0.0585669 -0.0361811,0.0361811 -0.0585669,0.086189 -0.0585669,0.141429 0,0.0552402 0.0223858,0.105248 0.0585669,0.141429 0.0361811,0.0361811 0.086189,0.0585669 0.141429,0.0585669 0.0552402,0 0.105248,-0.0223858 0.141429,-0.0585669 0.0361811,-0.0361811 0.0585669,-0.086189 0.0585669,-0.141429z"/>
  <polygon class="fil2" points="4.51555,4.23111 4.73777,4.39777 4.73777,4.06444 "/>
  <polygon class="fil2" points="2.31625,4.23111 2.09403,4.06444 2.09403,4.39777 "/>
  <path class="fil1" d="M1.47111 3.10222l3.88444 0c0.0589094,0 0.106669,0.0477598 0.106669,0.106669l0 2.04444c0,0.0589094 -0.0477598,0.106669 -0.106669,0.106669l-3.88444 0c-0.0589094,0 -0.106669,-0.0477598 -0.106669,-0.106669l0 -2.04444c0,-0.0589094 0.0477598,-0.106669 0.106669,-0.106669zm-0.23 2.65778l4.34444 0c0.0478622,0 0.0914488,-0.0196575 0.123114,-0.0513228 0.0316654,-0.0316654 0.0513228,-0.075252 0.0513228,-0.123114l0 -2.88333 -4.69332 0 0 2.88333c0,0.0478622 0.0196614,0.0914528 0.0513228,0.123114 0.0316654,0.0316654 0.0752559,0.0513228 0.123118,0.0513228z"/>
  <g id="_516443368">
   <path id="_516443512" class="fil1" d="M1.06667 2.48888l4.69332 0 0 -1.24778c0,-0.0478622 -0.0196575,-0.0914488 -0.0513228,-0.123114 -0.0316654,-0.0316654 -0.075252,-0.0513228 -0.123114,-0.0513228l-4.34444 0c-0.0478622,0 -0.0914528,0.0196575 -0.123118,0.0513228 -0.0316614,0.0316614 -0.0513228,0.075252 -0.0513228,0.123114l0 1.24778zm1.80289 -1.15732l0 0.915807 -0.184866 0 0 -0.915807 0.184866 0zm-1.11913 0.526669l0 0.389138 -0.185083 0 0 -0.915807 0.627953 0 0 0.155016 -0.44287 0 0 0.216638 0.382315 0 0 0.155016 -0.382315 0zm1.64058 0.389138l0 -0.915807 0.38935 0c0.0978701,0 0.168874,0.00831496 0.213224,0.0247362 0.0443504,0.0164173 0.0799606,0.0456299 0.106614,0.0876339 0.0266535,0.0422205 0.039874,0.0901969 0.039874,0.144354 0,0.0686614 -0.0202559,0.125591 -0.0605551,0.17037 -0.0403031,0.044563 -0.100858,0.0729213 -0.181244,0.084437 0.0400866,0.0234528 0.0731378,0.0490394 0.0991535,0.0769724 0.0260079,0.0279331 0.0609803,0.0774016 0.105118,0.148622l0.111941 0.178681 -0.221114 0 -0.133693 -0.199366c-0.0475472,-0.0712165 -0.0799606,-0.115996 -0.0974449,-0.134543 -0.0174843,-0.0185512 -0.0360354,-0.0311339 -0.0556535,-0.0381732 -0.0196142,-0.0068189 -0.0505315,-0.0102323 -0.0931811,-0.0102323l-0.037311 0 0 0.382315 -0.185079 0zm1.26817 0l0 -0.915807 0.678913 0 0 0.155016 -0.494043 0 0 0.202992 0.459717 0 0 0.154161 -0.459717 0 0 0.249264 0.511531 0 0 0.154374 -0.696402 0z"/>
   <path id="_516443752" class="fil1" d="M3.57609 1.71878l0.136677 0c0.0887047,0 0.144142,-0.00362598 0.166315,-0.0110906 0.0219646,-0.00746063 0.0392362,-0.0204685 0.051815,-0.0388031 0.0123701,-0.0183425 0.0187638,-0.0411575 0.0187638,-0.0686614 0,-0.0309173 -0.00831496,-0.0556496 -0.0247323,-0.0746299 -0.0164213,-0.0189764 -0.0396614,-0.0309173 -0.0697283,-0.0360354 -0.0149252,-0.00192126 -0.0599134,-0.00298425 -0.134969,-0.00298425l-0.144142 0 0 0.232205z"/>
  </g>
 </g>
 <rect class="fil3" width="6.82666" height="6.82666"/>
</svg>
