<?xml version="1.0" encoding="UTF-8"?>
<!DOCTYPE svg PUBLIC "-//W3C//DTD SVG 1.1//EN" "http://www.w3.org/Graphics/SVG/1.1/DTD/svg11.dtd">
<!-- Creator: CorelDRAW -->
<svg xmlns="http://www.w3.org/2000/svg" xml:space="preserve" width="6.82666in" height="6.82666in" style="shape-rendering:geometricPrecision; text-rendering:geometricPrecision; image-rendering:optimizeQuality; fill-rule:evenodd; clip-rule:evenodd"
viewBox="0 0 6.82666 6.82666"
 xmlns:xlink="http://www.w3.org/1999/xlink">
 <defs>
  <style type="text/css">
   <![CDATA[
    .fil3 {fill:none}
    .fil1 {fill:#F45A52}
    .fil2 {fill:#FECA5F}
    .fil0 {fill:#212121;fill-rule:nonzero}
   ]]>
  </style>
 </defs>
 <g id="Layer_x0020_1">
  <metadata id="CorelCorpID_0Corel-Layer"/>
  <g id="_516445480">
   <path id="_516446008" class="fil0" d="M3.41333 2.02666c0.486,0 0.926004,0.197004 1.2445,0.5155 0.318496,0.3185 0.5155,0.758504 0.5155,1.2445 0,0.485996 -0.197,0.926 -0.5155,1.2445 -0.3185,0.318496 -0.758508,0.5155 -1.2445,0.5155 -0.485996,0 -0.926,-0.197 -1.2445,-0.5155 -0.3185,-0.3185 -0.5155,-0.758504 -0.5155,-1.2445 0,-0.485996 0.197004,-0.926004 0.5155,-1.2445 0.3185,-0.3185 0.758504,-0.5155 1.2445,-0.5155zm1.09367 0.666335c-0.279882,-0.279878 -0.666555,-0.452996 -1.09367,-0.452996 -0.42711,0 -0.813783,0.173114 -1.09367,0.452996 -0.279878,0.279882 -0.452996,0.666559 -0.452996,1.09367 0,0.42711 0.173114,0.813783 0.452996,1.09367 0.279882,0.279882 0.666555,0.452996 1.09367,0.452996 0.42711,0 0.813787,-0.173118 1.09367,-0.452996 0.279882,-0.279882 0.452996,-0.666555 0.452996,-1.09367 0,-0.427114 -0.173118,-0.813787 -0.452996,-1.09367z"/>
   <path id="_516445888" class="fil0" d="M3.41333 3.31258c0.130902,0 0.249421,0.0530709 0.335217,0.138866 0.0857953,0.0857913 0.138866,0.204319 0.138866,0.335217 0,0.130898 -0.0530709,0.249421 -0.138866,0.335217 -0.0857953,0.0857953 -0.204319,0.138862 -0.335217,0.138862 -0.130898,0 -0.249421,-0.0530669 -0.335217,-0.138862 -0.0857953,-0.0857953 -0.138862,-0.204319 -0.138862,-0.335217 0,-0.130898 0.0530669,-0.249421 0.138862,-0.335217 0.0857953,-0.0857953 0.204319,-0.138866 0.335217,-0.138866zm0.184382 0.289701c-0.0471772,-0.0471772 -0.112366,-0.0763622 -0.184382,-0.0763622 -0.0720118,0 -0.137205,0.029185 -0.184382,0.0763622 -0.0471772,0.0471772 -0.0763583,0.11237 -0.0763583,0.184382 0,0.0720118 0.0291811,0.137205 0.0763583,0.184382 0.0471772,0.0471772 0.11237,0.0763583 0.184382,0.0763583 0.0720118,0 0.137205,-0.0291811 0.184382,-0.0763583 0.0471772,-0.0471772 0.0763622,-0.11237 0.0763622,-0.184382 0,-0.0720118 -0.029185,-0.137209 -0.0763622,-0.184382z"/>
   <g>
    <path id="_516445768" class="fil0" d="M2.57116 4.1455c0.0237008,0.0536142 -0.000551181,0.116299 -0.0541654,0.14 -0.0536142,0.0237008 -0.116299,-0.000551181 -0.14,-0.0541654 -0.0312323,-0.0702756 -0.0547165,-0.142472 -0.0701811,-0.215366 -0.0158071,-0.0745 -0.0238465,-0.150075 -0.0238465,-0.225469 0,-0.0772559 0.00833858,-0.154354 0.0247283,-0.229996 0.0162874,-0.0751654 0.0406339,-0.148717 0.072748,-0.219339 0.0241614,-0.0536142 0.0872205,-0.0774921 0.140835,-0.0533307 0.0536142,0.0241614 0.0774921,0.0872205 0.0533307,0.140835 -0.0258031,0.0567441 -0.0454094,0.116043 -0.0585827,0.176835 -0.0130709,0.0603228 -0.0197205,0.122335 -0.0197205,0.184996 0,0.061685 0.00635039,0.122449 0.0188386,0.181303 0.0128268,0.0604685 0.0315748,0.118705 0.0560157,0.173697z"/>
    <path id="_516445600" class="fil0" d="M4.44967 4.23133c-0.0237008,0.0536142 -0.0863858,0.0778661 -0.14,0.0541654 -0.0536142,-0.0237008 -0.0778661,-0.0863858 -0.0541654,-0.14 0.0244409,-0.0549921 0.043189,-0.113228 0.0560157,-0.173697 0.0124882,-0.0588543 0.0188386,-0.119618 0.0188386,-0.181303 0,-0.0626614 -0.00664961,-0.124673 -0.0197205,-0.184996 -0.0131732,-0.0607913 -0.0327795,-0.120091 -0.0585827,-0.176835 -0.0241614,-0.0536142 -0.000283465,-0.116673 0.0533307,-0.140835 0.0536142,-0.0241614 0.116673,-0.000283465 0.140835,0.0533307 0.0321142,0.070622 0.0564606,0.144173 0.072748,0.219339 0.0163898,0.0756417 0.0247283,0.15274 0.0247283,0.229996 0,0.0753937 -0.00803937,0.150969 -0.0238465,0.225469 -0.0154646,0.0728937 -0.0389488,0.145091 -0.0701811,0.215366z"/>
   </g>
  </g>
  <path class="fil0" d="M0.96 0.853331l4.90666 0c0.0589094,0 0.106669,0.0477598 0.106669,0.106669l0 4.90666c0,0.0589094 -0.0477598,0.106669 -0.106669,0.106669l-4.90666 0c-0.0589094,0 -0.106669,-0.0477598 -0.106669,-0.106669l0 -4.90666c0,-0.0589094 0.0477598,-0.106669 0.106669,-0.106669zm4.79999 0.213339l-4.69332 0 0 4.69332 4.69332 0 0 -4.69332z"/>
  <path class="fil0" d="M0.959996 1.81333c-0.0589094,0 -0.106669,-0.0477598 -0.106669,-0.106669 0,-0.0589094 0.0477598,-0.106669 0.106669,-0.106669l4.90667 0c0.0589094,0 0.106669,0.0477598 0.106669,0.106669 0,0.0589094 -0.0477598,0.106669 -0.106669,0.106669l-4.90667 0z"/>
  <path class="fil1" d="M3.41333 2.24c-0.42711,0 -0.813783,0.173114 -1.09367,0.452996 -0.279878,0.279882 -0.452996,0.666559 -0.452996,1.09367 0,0.42711 0.173114,0.813783 0.452996,1.09367 0.279882,0.279882 0.666555,0.452996 1.09367,0.452996 0.42711,0 0.813787,-0.173118 1.09367,-0.452996 0.279882,-0.279882 0.452996,-0.666555 0.452996,-1.09367 0,-0.427114 -0.173118,-0.813787 -0.452996,-1.09367 -0.279882,-0.279878 -0.666555,-0.452996 -1.09367,-0.452996zm-0.842173 1.9055c0.0237008,0.0536142 -0.000551181,0.116299 -0.0541654,0.14 -0.0536142,0.0237008 -0.116299,-0.000551181 -0.14,-0.0541654 -0.0312323,-0.0702756 -0.0547165,-0.142472 -0.0701811,-0.215366 -0.0158071,-0.0745 -0.0238465,-0.150075 -0.0238465,-0.225469 0,-0.0772559 0.00833858,-0.154354 0.0247283,-0.229996 0.0162874,-0.0751654 0.0406339,-0.148717 0.072748,-0.219339 0.0241614,-0.0536142 0.0872205,-0.0774921 0.140835,-0.0533307 0.0536142,0.0241614 0.0774921,0.0872205 0.0533307,0.140835 -0.0258031,0.0567441 -0.0454094,0.116043 -0.0585827,0.176835 -0.0130709,0.0603228 -0.0197205,0.122335 -0.0197205,0.184996 0,0.061685 0.00635039,0.122449 0.0188386,0.181303 0.0128268,0.0604685 0.0315748,0.118705 0.0560157,0.173697zm0.842173 -0.832913c0.130902,0 0.249421,0.0530709 0.335217,0.138866 0.0857953,0.0857913 0.138866,0.204319 0.138866,0.335217 0,0.130898 -0.0530709,0.249421 -0.138866,0.335217 -0.0857953,0.0857953 -0.204319,0.138862 -0.335217,0.138862 -0.130898,0 -0.249421,-0.0530669 -0.335217,-0.138862 -0.0857953,-0.0857953 -0.138862,-0.204319 -0.138862,-0.335217 0,-0.130898 0.0530669,-0.249421 0.138862,-0.335217 0.0857953,-0.0857953 0.204319,-0.138866 0.335217,-0.138866zm0.842177 0.832913c0.0244409,-0.0549921 0.043189,-0.113228 0.0560157,-0.173697 0.0124882,-0.0588543 0.0188386,-0.119618 0.0188386,-0.181303 0,-0.0626614 -0.00664961,-0.124673 -0.0197205,-0.184996 -0.0131732,-0.0607913 -0.0327795,-0.120091 -0.0585827,-0.176835 -0.0241614,-0.0536142 -0.000283465,-0.116673 0.0533307,-0.140835 0.0536142,-0.0241614 0.116673,-0.000283465 0.140835,0.0533307 0.0321142,0.070622 0.0564606,0.144173 0.072748,0.219339 0.0163898,0.0756417 0.0247283,0.15274 0.0247283,0.229996 0,0.0753937 -0.00803937,0.150969 -0.0238465,0.225469 -0.0154646,0.0728937 -0.0389488,0.145091 -0.0701811,0.215366 -0.0237008,0.0536142 -0.0863858,0.0778661 -0.14,0.0541654 -0.0536142,-0.0237008 -0.0778661,-0.0863858 -0.0541654,-0.14z"/>
  <path class="fil1" d="M3.22895 3.60228c-0.0471772,0.0471772 -0.0763583,0.11237 -0.0763583,0.184382 0,0.0720118 0.0291811,0.137205 0.0763583,0.184382 0.0471772,0.0471772 0.11237,0.0763583 0.184382,0.0763583 0.0720118,0 0.137205,-0.0291811 0.184382,-0.0763583 0.0471772,-0.0471772 0.0763622,-0.11237 0.0763622,-0.184382 0,-0.0720118 -0.029185,-0.137209 -0.0763622,-0.184382 -0.0471772,-0.0471772 -0.112366,-0.0763622 -0.184382,-0.0763622 -0.0720118,0 -0.137205,0.029185 -0.184382,0.0763622z"/>
  <path class="fil2" d="M4.65783 2.54216c0.318496,0.3185 0.5155,0.758504 0.5155,1.2445 0,0.485996 -0.197,0.926 -0.5155,1.2445 -0.3185,0.318496 -0.758508,0.5155 -1.2445,0.5155 -0.485996,0 -0.926,-0.197 -1.2445,-0.5155 -0.3185,-0.3185 -0.5155,-0.758504 -0.5155,-1.2445 0,-0.485996 0.197004,-0.926004 0.5155,-1.2445 0.3185,-0.3185 0.758504,-0.5155 1.2445,-0.5155 0.486,0 0.926004,0.197004 1.2445,0.5155zm1.10216 -0.728831l-4.69332 0 0 3.94666 4.69332 0 0 -3.94666z"/>
  <polygon class="fil2" points="1.06667,1.59999 5.75999,1.59999 5.75999,1.06667 1.06667,1.06667 "/>
 </g>
 <rect class="fil3" width="6.82666" height="6.82666"/>
</svg>
