<?xml version="1.0" encoding="UTF-8"?>
<!DOCTYPE svg PUBLIC "-//W3C//DTD SVG 1.1//EN" "http://www.w3.org/Graphics/SVG/1.1/DTD/svg11.dtd">
<!-- Creator: CorelDRAW -->
<svg xmlns="http://www.w3.org/2000/svg" xml:space="preserve" width="6.82666in" height="6.82666in" style="shape-rendering:geometricPrecision; text-rendering:geometricPrecision; image-rendering:optimizeQuality; fill-rule:evenodd; clip-rule:evenodd"
viewBox="0 0 6.82666 6.82666"
 xmlns:xlink="http://www.w3.org/1999/xlink">
 <defs>
  <style type="text/css">
   <![CDATA[
    .fil2 {fill:none}
    .fil1 {fill:#F45A52}
    .fil0 {fill:#212121;fill-rule:nonzero}
   ]]>
  </style>
 </defs>
 <g id="Layer_x0020_1">
  <metadata id="CorelCorpID_0Corel-Layer"/>
  <path class="fil0" d="M4.8 2.45333l0 2.87998 0.357579 0c0.0589094,0 0.106669,0.0477598 0.106669,0.106669l0 0.426673c0,0.0589094 -0.0477598,0.106669 -0.106669,0.106669l-0.464248 0 -2.24 0 -0.464248 0c-0.0589094,0 -0.106669,-0.0477598 -0.106669,-0.106669l0 -0.426673c0,-0.0589094 0.0477598,-0.106669 0.106669,-0.106669l0.357579 0 0 -2.87998c0,-0.0589094 0.0477598,-0.106669 0.106669,-0.106669l2.24 0c0.0589094,0 0.106669,0.0477598 0.106669,0.106669zm-0.213339 2.98665l0 -2.87998 -2.02666 0 0 2.87998c0,0.0589094 -0.0477598,0.106669 -0.106669,0.106669l-0.357579 0 0 0.213335 0.357579 0 2.24 0 0.357579 0 0 -0.213335 -0.357579 0c-0.0589094,0 -0.106669,-0.0477598 -0.106669,-0.106669z"/>
  <path class="fil0" d="M3.57334 1.07292c0.332807,0 0.642669,0.0996614 0.901402,0.270803 0.266354,0.176189 0.478157,0.428339 0.604567,0.725602 0.000787402,0.00185039 0.00151575,0.00370866 0.00218898,0.00557874 0.0194803,0.0525236 -0.00525984,0.11174 -0.057252,0.134402 -0.0138543,0.00603937 -0.0282953,0.00888583 -0.0425,0.00887795l0 0.000291339 -2.81681 0c-0.0589094,0 -0.106669,-0.0477598 -0.106669,-0.106669 0,-0.0177165 0.00432283,-0.0344173 0.0119685,-0.049122l0.000240157 -0.0005c0.126972,-0.294563 0.337835,-0.544343 0.602445,-0.719094 0.258563,-0.17076 0.568067,-0.270169 0.900425,-0.270169zm0.783898 0.448307c-0.224496,-0.148496 -0.493929,-0.234969 -0.783898,-0.234969 -0.289579,0 -0.558654,0.0862244 -0.782921,0.234335 -0.18685,0.123398 -0.342862,0.289591 -0.454047,0.484543l2.47395 0c-0.111024,-0.194661 -0.266689,-0.360614 -0.453083,-0.483909z"/>
  <path class="fil0" d="M1.92 2.00514l3.30667 0c0.0589094,0 0.106669,0.0477598 0.106669,0.106669l0 0.341528c0,0.0589094 -0.0477598,0.106669 -0.106669,0.106669l-3.30667 0c-0.0589094,0 -0.106669,-0.0477598 -0.106669,-0.106669l0 -0.341528c0,-0.0589094 0.0477598,-0.106669 0.106669,-0.106669zm3.2 0.213339l-3.09333 0 0 0.128189 3.09333 0 0 -0.128189z"/>
  <path class="fil0" d="M3.57333 2.98666c0.191445,0 0.36478,0.0776102 0.490252,0.203083 0.125472,0.125472 0.203083,0.298807 0.203083,0.490252 0,0.191445 -0.0776102,0.36478 -0.203083,0.490252 -0.125472,0.125472 -0.298807,0.203083 -0.490252,0.203083 -0.191445,0 -0.36478,-0.0776102 -0.490252,-0.203083 -0.125472,-0.125472 -0.203083,-0.298807 -0.203083,-0.490252 0,-0.191445 0.0776102,-0.36478 0.203083,-0.490252 0.125472,-0.125472 0.298807,-0.203083 0.490252,-0.203083zm0.339417 0.353917c-0.0868543,-0.0868543 -0.206858,-0.140579 -0.339417,-0.140579 -0.132559,0 -0.252563,0.0537244 -0.339417,0.140579 -0.0868543,0.0868543 -0.140579,0.206858 -0.140579,0.339417 0,0.132559 0.0537244,0.252563 0.140579,0.339417 0.0868543,0.0868543 0.206858,0.140579 0.339417,0.140579 0.132559,0 0.252563,-0.0537244 0.339417,-0.140579 0.0868543,-0.0868543 0.140579,-0.206858 0.140579,-0.339417 0,-0.132559 -0.0537244,-0.252563 -0.140579,-0.339417z"/>
  <path class="fil0" d="M3.57333 3.41332c0.073626,0 0.140299,0.0298583 0.188555,0.0781142 0.0482598,0.0482638 0.0781142,0.114933 0.0781142,0.188555 0,0.073626 -0.0298583,0.140299 -0.0781142,0.188555 -0.0482559,0.0482559 -0.114929,0.0781142 -0.188555,0.0781142 -0.073622,0 -0.140291,-0.0298543 -0.188555,-0.0781142 -0.0482559,-0.0482559 -0.0781142,-0.114929 -0.0781142,-0.188555 0,-0.073622 0.0298543,-0.140291 0.0781142,-0.188555 0.0482638,-0.0482598 0.114933,-0.0781142 0.188555,-0.0781142zm0.0377205 0.228949c-0.00964173,-0.00964173 -0.0229803,-0.0156102 -0.0377205,-0.0156102 -0.0147402,0 -0.0280787,0.0059685 -0.0377205,0.0156102 -0.00964173,0.00964173 -0.0156102,0.0229803 -0.0156102,0.0377205 0,0.0147402 0.0059685,0.0280787 0.0156102,0.0377205 0.00964173,0.00964173 0.0229803,0.0156102 0.0377205,0.0156102 0.0147402,0 0.0280787,-0.0059685 0.0377205,-0.0156102 0.00964173,-0.00964173 0.0156102,-0.0229803 0.0156102,-0.0377205 0,-0.0147402 -0.0059685,-0.0280787 -0.0156102,-0.0377205z"/>
  <path class="fil0" d="M2.13333 3.18057l0.32 0c0.0589094,0 0.106669,0.0477598 0.106669,0.106669l0 0.785504c0,0.0589094 -0.0477598,0.106669 -0.106669,0.106669l-0.32 0c-0.0589094,0 -0.106669,-0.0477598 -0.106669,-0.106669l0 -0.785504c0,-0.0589094 0.0477598,-0.106669 0.106669,-0.106669zm0.213331 0.213339l-0.106661 0 0 0.572165 0.106661 0 0 -0.572165z"/>
  <path class="fil0" d="M4.69333 3.18057l0.32 0c0.0589094,0 0.106669,0.0477598 0.106669,0.106669l0 0.785504c0,0.0589094 -0.0477598,0.106669 -0.106669,0.106669l-0.32 0c-0.0589094,0 -0.106669,-0.0477598 -0.106669,-0.106669l0 -0.785504c0,-0.0589094 0.0477598,-0.106669 0.106669,-0.106669zm0.213331 0.213339l-0.106661 0 0 0.572165 0.106661 0 0 -0.572165z"/>
  <path class="fil0" d="M1.92 3.78666c-0.0589094,0 -0.106669,-0.0477598 -0.106669,-0.106669 0,-0.0589094 0.0477598,-0.106669 0.106669,-0.106669l0.213335 0c0.0589094,0 0.106669,0.0477598 0.106669,0.106669 0,0.0589094 -0.0477598,0.106669 -0.106669,0.106669l-0.213335 0z"/>
  <path class="fil0" d="M5.22667 3.57332c0.0589094,0 0.106669,0.0477598 0.106669,0.106669 0,0.0589094 -0.0477598,0.106669 -0.106669,0.106669l-0.213335 0c-0.0589094,0 -0.106669,-0.0477598 -0.106669,-0.106669 0,-0.0589094 0.0477598,-0.106669 0.106669,-0.106669l0.213335 0z"/>
  <path class="fil0" d="M3.68 1.12713c0,0.0589094 -0.0477598,0.106669 -0.106669,0.106669 -0.0589094,0 -0.106669,-0.0477598 -0.106669,-0.106669l0 -0.213335c0,-0.0589094 0.0477598,-0.106669 0.106669,-0.106669 0.0589094,0 0.106669,0.0477598 0.106669,0.106669l0 0.213335z"/>
  <g id="_516446224">
   <path id="_516447064" class="fil1" d="M3.61106 3.64227c-0.00964173,-0.00964173 -0.0229803,-0.0156102 -0.0377205,-0.0156102 -0.0147402,0 -0.0280787,0.0059685 -0.0377205,0.0156102 -0.00964173,0.00964173 -0.0156102,0.0229803 -0.0156102,0.0377205 0,0.0147402 0.0059685,0.0280787 0.0156102,0.0377205 0.00964173,0.00964173 0.0229803,0.0156102 0.0377205,0.0156102 0.0147402,0 0.0280787,-0.0059685 0.0377205,-0.0156102 0.00964173,-0.00964173 0.0156102,-0.0229803 0.0156102,-0.0377205 0,-0.0147402 -0.0059685,-0.0280787 -0.0156102,-0.0377205z"/>
   <g>
    <path id="_516447448" class="fil1" d="M4.35724 1.52123c-0.224496,-0.148496 -0.493929,-0.234969 -0.783898,-0.234969 -0.289579,0 -0.558654,0.0862244 -0.782921,0.234335 -0.18685,0.123398 -0.342862,0.289591 -0.454047,0.484543l2.47395 0c-0.111024,-0.194661 -0.266689,-0.360614 -0.453083,-0.483909z"/>
    <path id="_516447016" class="fil1" d="M3.57333 3.2c-0.132559,0 -0.252563,0.0537244 -0.339417,0.140579 -0.0868543,0.0868543 -0.140579,0.206858 -0.140579,0.339417 0,0.132559 0.0537244,0.252563 0.140579,0.339417 0.0868543,0.0868543 0.206858,0.140579 0.339417,0.140579 0.132559,0 0.252563,-0.0537244 0.339417,-0.140579 0.0868543,-0.0868543 0.140579,-0.206858 0.140579,-0.339417 0,-0.132559 -0.0537244,-0.252563 -0.140579,-0.339417 -0.0868543,-0.0868543 -0.206858,-0.140579 -0.339417,-0.140579zm0 0.213327c0.073626,0 0.140299,0.0298583 0.188555,0.0781142 0.0482598,0.0482638 0.0781142,0.114933 0.0781142,0.188555 0,0.073626 -0.0298583,0.140299 -0.0781142,0.188555 -0.0482559,0.0482559 -0.114929,0.0781142 -0.188555,0.0781142 -0.073622,0 -0.140291,-0.0298543 -0.188555,-0.0781142 -0.0482559,-0.0482559 -0.0781142,-0.114929 -0.0781142,-0.188555 0,-0.073622 0.0298543,-0.140291 0.0781142,-0.188555 0.0482638,-0.0482598 0.114933,-0.0781142 0.188555,-0.0781142z"/>
    <polygon id="_516446968" class="fil1" points="2.45333,2.34667 4.69333,2.34667 5.12,2.34667 5.12,2.21848 4.98174,2.21848 2.16493,2.21848 2.02667,2.21848 2.02667,2.34667 "/>
    <path id="_516446560" class="fil1" d="M4.58667 2.56l-2.02666 0 0 0.727236 0 0.785504 0 1.36724c0,0.0589094 -0.0477598,0.106669 -0.106669,0.106669l-0.357579 0 0 0.213335 0.357579 0 2.24 0 0.357579 0 0 -0.213335 -0.357579 0c-0.0589094,0 -0.106669,-0.0477598 -0.106669,-0.106669l0 -1.36724 0 -0.785504 0 -0.727236zm-1.50358 0.629736c0.125472,-0.125472 0.298807,-0.203083 0.490252,-0.203083 0.191445,0 0.36478,0.0776102 0.490252,0.203083 0.125472,0.125472 0.203083,0.298807 0.203083,0.490252 0,0.191445 -0.0776102,0.36478 -0.203083,0.490252 -0.125472,0.125472 -0.298807,0.203083 -0.490252,0.203083 -0.191445,0 -0.36478,-0.0776102 -0.490252,-0.203083 -0.125472,-0.125472 -0.203083,-0.298807 -0.203083,-0.490252 0,-0.191445 0.0776102,-0.36478 0.203083,-0.490252z"/>
    <polygon id="_516446368" class="fil1" points="4.8,3.39391 4.8,3.96607 4.90667,3.96607 4.90667,3.67999 4.90667,3.39391 "/>
    <polygon id="_516446272" class="fil1" points="2.34667,3.96607 2.34667,3.39391 2.24,3.39391 2.24,3.67999 2.24,3.96607 "/>
   </g>
  </g>
 </g>
 <rect class="fil2" width="6.82666" height="6.82666"/>
</svg>
