<?xml version="1.0" encoding="UTF-8"?>
<!DOCTYPE svg PUBLIC "-//W3C//DTD SVG 1.1//EN" "http://www.w3.org/Graphics/SVG/1.1/DTD/svg11.dtd">
<!-- Creator: CorelDRAW -->
<svg xmlns="http://www.w3.org/2000/svg" xml:space="preserve" width="6.82666in" height="6.82666in" style="shape-rendering:geometricPrecision; text-rendering:geometricPrecision; image-rendering:optimizeQuality; fill-rule:evenodd; clip-rule:evenodd"
viewBox="0 0 6.82666 6.82666"
 xmlns:xlink="http://www.w3.org/1999/xlink">
 <defs>
  <style type="text/css">
   <![CDATA[
    .fil5 {fill:none}
    .fil2 {fill:#63CBE5}
    .fil1 {fill:#EBE5DF}
    .fil4 {fill:#F45A52}
    .fil3 {fill:#FECA5F}
    .fil0 {fill:#212121;fill-rule:nonzero}
   ]]>
  </style>
 </defs>
 <g id="Layer_x0020_1">
  <metadata id="CorelCorpID_0Corel-Layer"/>
  <g id="_516412456">
   <path id="_516413608" class="fil0" d="M3.98819 3.68666c0,-0.0589094 0.0477598,-0.106669 0.106669,-0.106669 0.0589094,0 0.106669,0.0477598 0.106669,0.106669l0 2.01893c0,0.0752756 -0.0307205,0.143638 -0.0802087,0.193126 -0.0494882,0.0494882 -0.117854,0.0802087 -0.19313,0.0802087l-2.65399 0c-0.0752756,0 -0.143638,-0.0307205 -0.193126,-0.0802087 -0.0494882,-0.0494882 -0.0802087,-0.11785 -0.0802087,-0.193126l0 -4.58452c0,-0.0752756 0.0307205,-0.143638 0.0802087,-0.193126 0.0494882,-0.0494882 0.11785,-0.0802087 0.193126,-0.0802087l2.65399 0c0.0752756,0 0.143642,0.0307205 0.19313,0.0802087 0.0494882,0.0494882 0.0802087,0.11785 0.0802087,0.193126l0 0.798925c0,0.0589094 -0.0477598,0.106669 -0.106669,0.106669 -0.0589094,0 -0.106669,-0.0477598 -0.106669,-0.106669l0 -0.798925c0,-0.0163898 -0.00678346,-0.0313701 -0.0177047,-0.0422913 -0.0109213,-0.0109213 -0.0259055,-0.0177047 -0.0422953,-0.0177047l-2.65399 0c-0.0163898,0 -0.0313701,0.00678346 -0.0422913,0.0177047 -0.0109213,0.0109213 -0.0177047,0.0259016 -0.0177047,0.0422913l0 4.58452c0,0.0163898 0.00678346,0.0313701 0.0177047,0.0422913 0.0109213,0.0109213 0.0259016,0.0177047 0.0422913,0.0177047l2.65399 0c0.0163898,0 0.031374,-0.00678346 0.0422953,-0.0177047 0.0109213,-0.0109213 0.0177047,-0.0259016 0.0177047,-0.0422913l0 -2.01893z"/>
   <path id="_516413920" class="fil0" d="M1.10754 1.55272c-0.0589094,0 -0.106669,-0.0477598 -0.106669,-0.106669 0,-0.0589094 0.0477598,-0.106669 0.106669,-0.106669l2.98732 0c0.0589094,0 0.106669,0.0477598 0.106669,0.106669 0,0.0589094 -0.0477598,0.106669 -0.106669,0.106669l-2.98732 0z"/>
   <path id="_516413224" class="fil0" d="M1.10754 5.12559c-0.0589094,0 -0.106669,-0.0477598 -0.106669,-0.106669 0,-0.0589094 0.0477598,-0.106669 0.106669,-0.106669l2.98732 0c0.0589094,0 0.106669,0.0477598 0.106669,0.106669 0,0.0589094 -0.0477598,0.106669 -0.106669,0.106669l-2.98732 0z"/>
   <path id="_516413440" class="fil0" d="M2.2812 5.54107c-0.0589094,0 -0.106669,-0.0477598 -0.106669,-0.106669 0,-0.0589094 0.0477598,-0.106669 0.106669,-0.106669l0.64 0c0.0589094,0 0.106669,0.0477598 0.106669,0.106669 0,0.0589094 -0.0477598,0.106669 -0.106669,0.106669l-0.64 0z"/>
   <path id="_516412432" class="fil0" d="M2.31213 1.25166c-0.0220906,0 -0.04,-0.0179094 -0.04,-0.04 0,-0.0220906 0.0179094,-0.04 0.04,-0.04l0.57813 0c0.0220906,0 0.04,0.0179094 0.04,0.04 0,0.0220906 -0.0179094,0.04 -0.04,0.04l-0.57813 0z"/>
   <path id="_516412912" class="fil0" d="M2.83311 1.81333l2.66537 0c0.090122,0 0.17198,0.0367953 0.231244,0.0960669 0.0592717,0.0592717 0.0960669,0.141126 0.0960669,0.231244l0 1.32538c0,0.0901102 -0.0367992,0.171969 -0.0960748,0.231236 -0.0592677,0.0592756 -0.141126,0.0960748 -0.231236,0.0960748l-1.97409 0 -0.734362 0.625236c-0.0446417,0.0379685 -0.111618,0.0325591 -0.149587,-0.0120827 -0.0247559,-0.0291063 -0.031063,-0.0676969 -0.0200906,-0.101563l-0.000326772 -0.000106299 0.168583 -0.514516c-0.0723898,-0.00992126 -0.137398,-0.043689 -0.186744,-0.0930354 -0.0592717,-0.0592717 -0.0960669,-0.141126 -0.0960669,-0.231244l0 -1.32538c0,-0.0901181 0.0367953,-0.171976 0.096063,-0.231248 0.0592717,-0.0592677 0.14113,-0.096063 0.231248,-0.096063zm2.66537 0.213339l-2.66537 0c-0.0312323,0 -0.0597087,0.0128543 -0.0804134,0.0335591 -0.0207047,0.0207047 -0.0335591,0.0491811 -0.0335591,0.0804134l0 1.32538c0,0.0312323 0.0128583,0.0597047 0.033563,0.0804094 0.0207047,0.0207047 0.0491811,0.033563 0.0804094,0.033563l0.101496 0 0 0.000181102c0.0109016,0 0.0219882,0.00168504 0.0329173,0.00523622 0.0559173,0.0181772 0.0865118,0.078252 0.0683346,0.134169l-0.0958622 0.292567 0.468988 -0.399295c0.0194173,-0.020248 0.0467362,-0.0328583 0.077,-0.0328583l2.0125 0c0.0312165,0 0.0596929,-0.0128583 0.0804016,-0.0335709 0.0207126,-0.0207087 0.0335709,-0.049185 0.0335709,-0.0804016l0 -1.32538c0,-0.0312323 -0.0128583,-0.0597047 -0.033563,-0.0804094 -0.0207047,-0.0207047 -0.0491811,-0.033563 -0.0804094,-0.033563z"/>
   <g>
    <g>
     <path id="_516412960" class="fil0" d="M3.14439 3.17022c-0.012122,-0.014378 -0.0234921,-0.0303189 -0.0337402,-0.0479606 -0.00931102,-0.0160394 -0.0177559,-0.0337559 -0.0250394,-0.0532992 -0.00666535,-0.017878 -0.0122047,-0.0369646 -0.0163661,-0.057315 -0.00370472,-0.018122 -0.00636614,-0.0371299 -0.00779134,-0.0570197 -0.000330709,-0.00240551 -0.000507874,-0.0048622 -0.000507874,-0.00735827l0 -0.000110236 -6.29921e-005 -0.00117717 -6.69291e-005 -0.00171654 -0.000204724 -0.00412598 -0.000173228 -0.00538189 -7.87402e-006 -0.000413386 0 -4.33071e-005 0 -0.000110236 -7.87402e-006 -0.00019685c-0.000251969,-0.00210236 -0.000385827,-0.00423622 -0.000385827,-0.00641339l0 -0.0129488c0,-0.00181102 0.000137795,-0.00404724 0.000409449,-0.0067126 0.000346457,-0.011874 0.00111811,-0.0240079 0.00239764,-0.0362953 0.00129921,-0.0125079 0.00324803,-0.0262441 0.00594094,-0.0412756 0.00266535,-0.014874 0.00568504,-0.0292126 0.00908268,-0.0427835 0.0036378,-0.0145236 0.00773622,-0.0290866 0.0123307,-0.0435709 0.000405512,-0.00128346 0.000854331,-0.00254331 0.00134646,-0.00377165 0.00662598,-0.020252 0.0134567,-0.0383189 0.0203346,-0.0543976 0.00832677,-0.0194803 0.0169449,-0.0366457 0.0255,-0.0517087 0.0106969,-0.0188307 0.0209724,-0.0339803 0.0304173,-0.046122 0.0127087,-0.0163386 0.0250669,-0.0287362 0.035378,-0.037748 0.00820079,-0.0071811 0.0173898,-0.0123504 0.0270748,-0.0156969 0.0104724,-0.00361417 0.0210039,-0.00498031 0.0310866,-0.00435433 0.00155118,9.44882e-005 0.00309055,0.00023622 0.00461417,0.000413386 0.00101969,-0.0129724 0.00256693,-0.0261811 0.00465354,-0.0395748 0.00393307,-0.0252165 0.00976772,-0.0500709 0.0175827,-0.0741614l0.000358268 -0.00106693 -5.11811e-005 -1.5748e-005c0.00758661,-0.0232008 0.0172677,-0.046315 0.0291378,-0.0690512 0.0114764,-0.0219764 0.0246496,-0.0428898 0.0395591,-0.0623898 0.00424409,-0.00555118 0.00896063,-0.0113307 0.0141417,-0.017315 0.0048937,-0.00564567 0.00992126,-0.0111063 0.0150472,-0.0163189 0.00468898,-0.00477165 0.0100394,-0.00985039 0.0160394,-0.0152126 0.00583071,-0.00520866 0.0114449,-0.0099252 0.0167913,-0.0140748l0.00106693 -0.00080315 -2.3622e-005 -3.14961e-005 0.000811024 -0.000594488c0.00076378,-0.000562992 0.00153937,-0.00110236 0.00232677,-0.00161417l-3.54331e-005 -5.11811e-005 0.000830709 -0.000543307c0.00172835,-0.00112992 0.00349606,-0.00214173 0.00529921,-0.00304724 0.00107087,-0.000590551 0.00217717,-0.00116929 0.00332283,-0.00174016l8.26772e-005 -3.93701e-005 -8.26772e-005 -0.000169291c0.003,-0.00149213 0.00636614,-0.00287008 0.0100551,-0.00412205 0.00396457,-0.00135433 0.00848819,-0.00241339 0.0134724,-0.00319291l0.00023622 -3.14961e-005 -2.75591e-005 -0.000177165c0.00370472,-0.000566929 0.00815748,-0.000818898 0.0132835,-0.000744094l0.000208661 3.93701e-006 0 -3.93701e-006 0.00163386 2.75591e-005c0.000976378,1.5748e-005 0.00194488,5.90551e-005 0.00290551,0.000125984l7.87402e-006 -0.000125984c0.00976378,0.000700787 0.0194606,0.00330709 0.0285472,0.00754724l7.87402e-005 -0.000173228c0.00871654,0.00405906 0.0168858,0.0098937 0.0239882,0.0171811 0.00718898,0.00737008 0.0131063,0.0163425 0.0171811,0.0266181 0.00335433,0.00843701 0.00535827,0.0175787 0.00566535,0.0272126 0.000141732,0.0015748 0.000216535,0.00316535 0.000216535,0.00477559 0,0.00218898 -0.000137795,0.00434252 -0.000393701,0.00646457 -0.000897638,0.0145315 -0.00107087,0.0364134 0.00212205,0.0644685 0.00344488,0.0303031 0.0108976,0.0677165 0.0257126,0.110787 0.0103386,0.0300512 0.0238701,0.0620079 0.0415197,0.0950157 0.0158504,0.0296417 0.0354528,0.0610472 0.0595906,0.0939213l0.000602362 0.00084252 1.9685e-005 -1.1811e-005 0.000354331 0.000503937c0.000448819,0.000633858 0.000874016,0.00127165 0.0012874,0.00192126 0.0359724,0.0506142 0.0597362,0.0989449 0.074811,0.143693 0.0155039,0.0460039 0.0217559,0.0883504 0.0226063,0.125665 0.000874016,0.0382992 -0.00397244,0.0711142 -0.0104213,0.097252 -0.00662598,0.0268701 -0.015,0.0471181 -0.0207638,0.0592677 -0.00257874,0.00544488 -0.00583071,0.0118307 -0.00969685,0.0190591 -0.00366142,0.00684646 -0.00712598,0.0129764 -0.0103937,0.0184134 -0.00448425,0.00745669 -0.00826772,0.0134685 -0.0113425,0.0180315 -0.000677165,0.00100394 -0.00138583,0.00197244 -0.00211811,0.00291732 -0.00374409,0.00549213 -0.00703937,0.0101024 -0.0098937,0.013874 -0.0101654,0.0134409 -0.0209449,0.0261929 -0.0322598,0.0382283 -0.0108819,0.0115787 -0.022689,0.0227165 -0.0353307,0.0333701l-0.000677165 0.000559055 5.11811e-005 6.29921e-005 -0.000527559 0.000429134 3.14961e-005 3.93701e-005c-0.0308622,0.0258031 -0.0638307,0.0453858 -0.0980472,0.0588031 -0.0352205,0.013811 -0.0718386,0.0209803 -0.108933,0.0215748 -0.0369016,0.000594488 -0.073748,-0.00538976 -0.109606,-0.0178701 -0.0350118,-0.012185 -0.0689213,-0.0304094 -0.10085,-0.0545591 -0.0127362,-0.0096378 -0.0254803,-0.0205394 -0.0381496,-0.0326811 -0.0121654,-0.0116575 -0.0239134,-0.0241772 -0.0351732,-0.0375354zm0.0583386 -0.101291c0.0069252,0.0119213 0.0146535,0.0227441 0.0229134,0.0325433 0.00911417,0.010811 0.0183543,0.020689 0.0276693,0.0296142 0.00908268,0.00870472 0.0186299,0.0168307 0.0285669,0.0243504 0.0232874,0.0176142 0.0473819,0.030685 0.071685,0.0391417 0.024126,0.00839764 0.0486417,0.0124291 0.072937,0.0120354 0.0240157,-0.000385827 0.0481693,-0.00520079 0.0718543,-0.0144882 0.0233346,-0.00914961 0.0461654,-0.022752 0.0679252,-0.0408583 0.000846457,-0.000724409 0.00172047,-0.00143307 0.00262205,-0.00211417l0.000566929 -0.000429134 5.51181e-005 7.48031e-005c0.00791732,-0.00679134 0.016126,-0.014685 0.0245827,-0.023685 0.00831496,-0.00884646 0.0165827,-0.0186732 0.0247559,-0.0294803 0.00275197,-0.00363386 0.0051063,-0.00685433 0.00703543,-0.00961024 0.000523622,-0.000877953 0.00106693,-0.00174409 0.00164567,-0.00259843 0.00359843,-0.00533858 0.00641732,-0.00969685 0.00842126,-0.0130315 0.00299606,-0.00498819 0.00564567,-0.00961811 0.00789764,-0.0138307 0.00194094,-0.00362992 0.00433858,-0.00844488 0.00719291,-0.0144764 0.00374803,-0.00790551 0.00922835,-0.0212008 0.013685,-0.0392677 0.0046378,-0.0187992 0.00812598,-0.0423543 0.0075,-0.069748 -0.000625984,-0.0273858 -0.00537402,-0.0589449 -0.017189,-0.0940039 -0.0119449,-0.0354488 -0.0312165,-0.0743661 -0.0608386,-0.116039 -0.000468504,-0.000614173 -0.00092126,-0.00124016 -0.00136614,-0.00188189l-0.000137795 -0.000188976 -0.000354331 -0.000503937 7.87402e-006 -7.87402e-006c-0.0264606,-0.036126 -0.0485276,-0.0716575 -0.0668898,-0.105996 -0.0212126,-0.0396693 -0.0369803,-0.0766339 -0.0486063,-0.110433 -0.0175197,-0.050937 -0.0264685,-0.0963543 -0.0307126,-0.133701 -0.000964567,-0.00848819 -0.00168504,-0.0165669 -0.00220472,-0.0242008l-0.00217717 0.00281496c-0.0116378,0.0152205 -0.0216102,0.0309488 -0.0299764,0.0469724 -0.00866142,0.0165906 -0.016,0.0342953 -0.0220512,0.0527992l-5.90551e-005 -1.9685e-005 -0.000358268 0.00106299 -0.000149606 0.00042126c-0.00610236,0.0189646 -0.0106102,0.0380945 -0.0135748,0.0571181 -0.003,0.0192441 -0.00446457,0.0395472 -0.00446457,0.0605118 0,0.011311 -0.000377953,0.023748 -0.00110236,0.0370866 -0.000732283,0.0134528 -0.00169291,0.025 -0.00285433,0.0345079 -0.00126772,0.0103386 -0.00292126,0.0202874 -0.0049252,0.0296772 -0.00202756,0.0095 -0.00457874,0.0183937 -0.00762205,0.0265118 -0.00252362,0.00673622 -0.00516535,0.0126457 -0.00785433,0.0176811 -0.00333071,0.00622835 -0.00694488,0.0115787 -0.0107717,0.0160315 -0.00364173,0.00437402 -0.00805512,0.00823228 -0.013185,0.0113622 -0.0249173,0.0151969 -0.0573898,0.00747244 -0.072815,-0.0172165 -0.000783465,-0.00115354 -0.0015315,-0.00233858 -0.00223228,-0.00356693 -0.00593307,-0.0103465 -0.010689,-0.023937 -0.0136339,-0.0405315 -0.00142913,0.00235433 -0.00285039,0.00477953 -0.00426772,0.00727165 -0.00656693,0.011563 -0.0133307,0.0250906 -0.0200827,0.0408819 -0.00585039,0.0136811 -0.0115591,0.0286811 -0.0169528,0.0450866 -0.000283465,0.00116929 -0.000606299,0.00233465 -0.000972441,0.0035 -0.00428346,0.0135118 -0.0078189,0.0259331 -0.0106693,0.0373189 -0.00344094,0.013752 -0.00601969,0.0255906 -0.00783071,0.0356969 -0.00198819,0.0111181 -0.00353543,0.0222835 -0.00468898,0.0333622 -0.00108268,0.0104213 -0.00172441,0.0198228 -0.00199606,0.0282638 4.72441e-005,0.00129528 5.11811e-005,0.00259843 0,0.00390945l7.87402e-006 0c7.87402e-006,-7.08661e-005 1.5748e-005,-7.87402e-005 1.5748e-005,0l0 0.0102047c4.72441e-005,0.000909449 7.08661e-005,0.00182283 7.08661e-005,0.00274409l0 0.000283465 -0.000185039 0 8.26772e-005 0.00322835 1.5748e-005 0.000334646 0.000173228 0.0037126 0.00019685 0.00390157 7.48031e-005 0.0011063c5.90551e-005,0.00105906 3.54331e-005,2.75591e-005 0.000271654,0.00316535l-4.33071e-005 3.93701e-006 5.90551e-005 0.000826772c0.00104331,0.0167087 0.00309449,0.0320984 0.00598819,0.046252 0.00306299,0.0149803 0.00705118,0.0287795 0.0117835,0.0414803 0.00490551,0.0131654 0.0108346,0.0255118 0.0175354,0.0370551zm-0.0360551 -0.154181l1.5748e-005 -0.00011811 -7.87402e-006 0 -7.87402e-006 0.00011811z"/>
     <path id="_516412696" class="fil0" d="M3.33527 3.17724c0.0295787,0.0192047 0.0588465,0.0292441 0.0861457,0.0294055 0.0253543,0.000145669 0.0502441,-0.00846063 0.0732323,-0.0264409 0.0116654,-0.0198465 0.0221575,-0.0458583 0.0239488,-0.0768189 0.00154724,-0.0266417 -0.00315354,-0.0574173 -0.0186102,-0.0919685 -0.0258701,-0.0578346 -0.048126,-0.105811 -0.066185,-0.143858 -0.0140787,0.0289213 -0.031815,0.0601339 -0.053748,0.0901772 -0.0294173,0.0402795 -0.0515866,0.0855472 -0.058126,0.130075 -0.00451575,0.0307677 -0.00116535,0.0613465 0.0133425,0.0894291zm0.0857283 0.135657c-0.051626,-0.000307087 -0.10398,-0.0184961 -0.153661,-0.0531811 -0.00707087,-0.00425591 -0.013252,-0.0102205 -0.0178701,-0.0177362 -0.0330394,-0.0537165 -0.0414331,-0.11189 -0.0329567,-0.169587 0.00916535,-0.0624016 0.0387362,-0.123795 0.0777087,-0.177154 0.0576811,-0.0789961 0.0799961,-0.166563 0.0815236,-0.172748 0.00337402,-0.0145906 0.0128543,-0.0276772 0.0271693,-0.0351496 0.026,-0.0135748 0.0580906,-0.0035 0.0716654,0.0225 0.000133858,0.000255906 0.0468307,0.0891142 0.122488,0.258244 0.0232165,0.0519055 0.0302087,0.0993307 0.0277835,0.141134 -0.0032874,0.056752 -0.0236575,0.102358 -0.0446378,0.135016l-3.54331e-005 -2.3622e-005c-0.00268898,0.00418504 -0.00601181,0.00806299 -0.00996457,0.0114843 -0.044937,0.0389291 -0.095874,0.0575118 -0.149213,0.0572008z"/>
    </g>
    <g>
     <path id="_516413008" class="fil0" d="M4.11254 2.49205c-0.0589094,0 -0.106669,-0.0477598 -0.106669,-0.106669 0,-0.0589094 0.0477598,-0.106669 0.106669,-0.106669l0.596209 0c0.0589094,0 0.106669,0.0477598 0.106669,0.106669 0,0.0589094 -0.0477598,0.106669 -0.106669,0.106669l-0.596209 0z"/>
     <path id="_516413152" class="fil0" d="M4.11254 2.83933c-0.0589094,0 -0.106669,-0.0477598 -0.106669,-0.106669 0,-0.0589094 0.0477598,-0.106669 0.106669,-0.106669l1.10569 0c0.0589094,0 0.106669,0.0477598 0.106669,0.106669 0,0.0589094 -0.0477598,0.106669 -0.106669,0.106669l-1.10569 0z"/>
     <path id="_516412504" class="fil0" d="M4.11254 3.23871c-0.0589094,0 -0.106669,-0.0477598 -0.106669,-0.106669 0,-0.0589094 0.0477598,-0.106669 0.106669,-0.106669l1.10569 0c0.0589094,0 0.106669,0.0477598 0.106669,0.106669 0,0.0589094 -0.0477598,0.106669 -0.106669,0.106669l-1.10569 0z"/>
    </g>
   </g>
  </g>
  <path class="fil1" d="M2.5058 3.46602l0 -1.32538c0,-0.0901181 0.0367953,-0.171976 0.096063,-0.231248 0.0592717,-0.0592677 0.14113,-0.096063 0.231248,-0.096063l1.15507 0 0 -0.26061 -2.77398 0 0 3.35954 2.77398 0 0 -1.11893 -0.463791 0 -0.734362 0.625236c-0.0446417,0.0379685 -0.111618,0.0325591 -0.149587,-0.0120827 -0.0247559,-0.0291063 -0.031063,-0.0676969 -0.0200906,-0.101563l-0.000326772 -0.000106299 0.168583 -0.514516c-0.0723898,-0.00992126 -0.137398,-0.043689 -0.186744,-0.0930354 -0.0592717,-0.0592717 -0.0960669,-0.141126 -0.0960669,-0.231244z"/>
  <path class="fil2" d="M3.98819 5.12559l-2.77398 0 0 0.579996c0,0.0163898 0.00678346,0.0313701 0.0177047,0.0422913 0.0109213,0.0109213 0.0259016,0.0177047 0.0422913,0.0177047l2.65399 0c0.0163898,0 0.031374,-0.00678346 0.0422953,-0.0177047 0.0109213,-0.0109213 0.0177047,-0.0259016 0.0177047,-0.0422913l0 -0.579996zm-0.960323 0.308811c0,0.0589094 -0.0477598,0.106669 -0.106669,0.106669l-0.64 0c-0.0589094,0 -0.106669,-0.0477598 -0.106669,-0.106669 0,-0.0589094 0.0477598,-0.106669 0.106669,-0.106669l0.64 0c0.0589094,0 0.106669,0.0477598 0.106669,0.106669z"/>
  <path class="fil2" d="M1.2142 1.33938l2.77398 0 0 -0.218307c0,-0.0163898 -0.00678346,-0.0313701 -0.0177047,-0.0422913 -0.0109213,-0.0109213 -0.0259055,-0.0177047 -0.0422953,-0.0177047l-2.65399 0c-0.0163898,0 -0.0313701,0.00678346 -0.0422913,0.0177047 -0.0109213,0.0109213 -0.0177047,0.0259016 -0.0177047,0.0422913l0 0.218307zm1.67606 -0.0877165l-0.57813 0c-0.0220906,0 -0.04,-0.0179094 -0.04,-0.04 0,-0.0220906 0.0179094,-0.04 0.04,-0.04l0.57813 0c0.0220906,0 0.04,0.0179094 0.04,0.04 0,0.0220906 -0.0179094,0.04 -0.04,0.04z"/>
  <path class="fil3" d="M3.67941 2.65921l0 0zm-0.0442953 0.573236l0 0zm-0.214843 -1.01183l0 0zm0.198945 0.343827c0.0158504,0.0296417 0.0354528,0.0610472 0.0595906,0.0939213l0.000622047 0.000830709 0.000354331 0.000503937 0.0012874 0.00192126c0.0359724,0.0506142 0.0597362,0.0989449 0.074811,0.143693 0.0155039,0.0460039 0.0217559,0.0883504 0.0226063,0.125665 0.000874016,0.0382992 -0.00397244,0.0711142 -0.0104213,0.097252 -0.00662598,0.0268701 -0.015,0.0471181 -0.0207638,0.0592677 -0.00257874,0.00544488 -0.00583071,0.0118307 -0.00969685,0.0190591 -0.00366142,0.00684646 -0.00712598,0.0129764 -0.0103937,0.0184134 -0.00448425,0.00745669 -0.00826772,0.0134685 -0.0113425,0.0180315 -0.000677165,0.00100394 -0.00138583,0.00197244 -0.00211811,0.00291732 -0.00374409,0.00549213 -0.00703937,0.0101024 -0.0098937,0.013874 -0.0101654,0.0134409 -0.0209449,0.0261929 -0.0322598,0.0382283 -0.0108819,0.0115787 -0.022689,0.0227165 -0.0353307,0.0333701l-0.000677165 0.000559055 5.11811e-005 6.29921e-005 -0.000496063 0.000468504c-0.0308622,0.0258031 -0.0638307,0.0453858 -0.0980472,0.0588031 -0.0352205,0.013811 -0.0718386,0.0209803 -0.108933,0.0215394 -0.00238583,5.90551e-005 -0.00477559,8.66142e-005 -0.00717323,7.08661e-005 -0.00102756,-7.87402e-006 -0.00205512,-1.9685e-005 -0.00308268,-3.93701e-005 -2.3622e-005,0 -4.72441e-005,0 -6.69291e-005,0 -0.0334449,-0.000574803 -0.0667717,-0.00655118 -0.0992835,-0.0178661 -0.0350118,-0.012185 -0.0689213,-0.0304094 -0.10085,-0.0545591 -0.0127362,-0.0096378 -0.0254803,-0.0205394 -0.0381496,-0.0326811 -0.0121654,-0.0116575 -0.0239134,-0.0241772 -0.0351732,-0.0375354 -0.012122,-0.014378 -0.0234921,-0.0303189 -0.0337402,-0.0479606 -0.00931102,-0.0160394 -0.0177559,-0.0337559 -0.0250394,-0.0532992 -0.00666535,-0.017878 -0.0122047,-0.0369646 -0.0163661,-0.057315 -0.00370472,-0.018122 -0.00636614,-0.0371299 -0.00779134,-0.0570197 -0.000330709,-0.00240551 -0.000507874,-0.0048622 -0.000507874,-0.00735827l0 -0.000110236 -6.29921e-005 -0.00117717 -6.69291e-005 -0.00171654 -0.000204724 -0.00412598 -0.000173228 -0.00538189 -7.87402e-006 -0.000413386 0 -4.33071e-005 0 -0.000110236 -7.87402e-006 -0.00019685c-0.000251969,-0.00210236 -0.000385827,-0.00423622 -0.000385827,-0.00641339l0 -0.0129488c0,-0.00181102 0.000137795,-0.00404724 0.000409449,-0.0067126 0.000346457,-0.011874 0.00111811,-0.0240079 0.00239764,-0.0362953 0.00129921,-0.0125079 0.00324803,-0.0262441 0.00594094,-0.0412756 0.00266535,-0.014874 0.00568504,-0.0292126 0.00908268,-0.0427835 0.0036378,-0.0145236 0.00773622,-0.0290866 0.0123307,-0.0435709 0.000405512,-0.00128346 0.000854331,-0.00254331 0.00134646,-0.00377165 0.00662598,-0.020252 0.0134567,-0.0383189 0.0203346,-0.0543976 0.00832677,-0.0194803 0.0169449,-0.0366457 0.0255,-0.0517087 0.0106969,-0.0188307 0.0209724,-0.0339803 0.0304173,-0.046122 0.0127087,-0.0163386 0.0250669,-0.0287362 0.035378,-0.037748 0.00820079,-0.0071811 0.0173898,-0.0123504 0.0270748,-0.0156969 0.0104724,-0.00361417 0.0210039,-0.00498031 0.0310866,-0.00435433 0.00155118,9.44882e-005 0.00309055,0.00023622 0.00461417,0.000413386 0.00101969,-0.0129724 0.00256693,-0.0261811 0.00465354,-0.0395748 0.00393307,-0.0252165 0.00976772,-0.0500709 0.0175827,-0.0741614l0.000358268 -0.00106693 -5.11811e-005 -1.5748e-005c0.00758661,-0.0232008 0.0172677,-0.046315 0.0291378,-0.0690512 0.0114764,-0.0219764 0.0246496,-0.0428898 0.0395591,-0.0623898 0.00424409,-0.00555118 0.00896063,-0.0113307 0.0141417,-0.017315 0.0048937,-0.00564567 0.00992126,-0.0111063 0.0150472,-0.0163189 0.00468898,-0.00477165 0.0100394,-0.00985039 0.0160394,-0.0152126 0.00583071,-0.00520866 0.0114449,-0.0099252 0.0167913,-0.0140748l0.00104331 -0.000834646 0.000811024 -0.000594488 0.00232677 -0.00161417 -3.54331e-005 -5.11811e-005 0.000830709 -0.000543307c0.00172835,-0.00112992 0.00349606,-0.00214173 0.00529921,-0.00304724l0.00332283 -0.00174016 8.26772e-005 -3.93701e-005 -8.26772e-005 -0.000169291c0.003,-0.00149213 0.00636614,-0.00287008 0.0100551,-0.00412205 0.00396457,-0.00135433 0.00848819,-0.00241339 0.0134724,-0.00319291l0.00023622 -3.14961e-005 -2.75591e-005 -0.000177165c0.00370472,-0.000566929 0.00815748,-0.000818898 0.0132835,-0.000744094l0.000208661 0 0.00163386 2.75591e-005 0.00290551 0.000125984 7.87402e-006 -0.000125984c0.00976378,0.000700787 0.0194606,0.00330709 0.0285472,0.00754724l7.87402e-005 -0.000173228c0.00871654,0.00405906 0.0168858,0.0098937 0.0239882,0.0171811 0.00718898,0.00737008 0.0131063,0.0163425 0.0171811,0.0266181 0.00335433,0.00843701 0.00535827,0.0175787 0.00566535,0.0272126 0.000141732,0.0015748 0.000216535,0.00316535 0.000216535,0.00477559 0,0.00218898 -0.000137795,0.00434252 -0.000393701,0.00646457 -0.000897638,0.0145315 -0.00107087,0.0364134 0.00212205,0.0644685 0.00344488,0.0303031 0.0108976,0.0677165 0.0257126,0.110787 0.0103386,0.0300512 0.0238701,0.0620079 0.0415197,0.0950157zm-0.67922 1.44769l0.468988 -0.399295c0.0194173,-0.020248 0.0467362,-0.0328583 0.077,-0.0328583l0.60887 0 1.40363 0c0.0312165,0 0.0596929,-0.0128583 0.0804016,-0.0335709 0.0207126,-0.0207087 0.0335709,-0.049185 0.0335709,-0.0804016l0 -1.32538c0,-0.0312323 -0.0128583,-0.0597047 -0.033563,-0.0804094 -0.0207047,-0.0207047 -0.0491811,-0.033563 -0.0804094,-0.033563l-1.40363 0 -1.26174 0c-0.0312323,0 -0.0597087,0.0128543 -0.0804134,0.0335591 -0.0207047,0.0207047 -0.0335591,0.0491811 -0.0335591,0.0804134l0 1.32538c0,0.0312323 0.0128583,0.0597047 0.033563,0.0804094 0.0207047,0.0207047 0.0491811,0.033563 0.0804094,0.033563l0.101496 0 0 0.000181102c0.0109016,0 0.0219882,0.00168504 0.0329173,0.00523622 0.0559173,0.0181772 0.0865118,0.078252 0.0683346,0.134169l-0.0958622 0.292567zm1.06587 -0.880098c0,-0.0589094 0.0477598,-0.106669 0.106669,-0.106669l1.10569 0c0.0589094,0 0.106669,0.0477598 0.106669,0.106669 0,0.0589094 -0.0477598,0.106669 -0.106669,0.106669l-1.10569 0c-0.0589094,0 -0.106669,-0.0477598 -0.106669,-0.106669zm0 -0.399382c0,-0.0589094 0.0477598,-0.106669 0.106669,-0.106669l1.10569 0c0.0589094,0 0.106669,0.0477598 0.106669,0.106669 0,0.0589094 -0.0477598,0.106669 -0.106669,0.106669l-1.10569 0c-0.0589094,0 -0.106669,-0.0477598 -0.106669,-0.106669zm0.106669 -0.24061c-0.0589094,0 -0.106669,-0.0477598 -0.106669,-0.106669 0,-0.0589094 0.0477598,-0.106669 0.106669,-0.106669l0.596209 0c0.0589094,0 0.106669,0.0477598 0.106669,0.106669 0,0.0589094 -0.0477598,0.106669 -0.106669,0.106669l-0.596209 0z"/>
  <path class="fil4" d="M3.4338 2.86756c-0.0140787,0.0289213 -0.031815,0.0601339 -0.053748,0.0901772 -0.0294173,0.0402795 -0.0515866,0.0855472 -0.058126,0.130075 -0.00451575,0.0307677 -0.00116535,0.0613465 0.0133425,0.0894291 0.028126,0.0182598 0.0559685,0.0282362 0.0821063,0.029311 0.00134646,3.93701e-005 0.00269291,6.29921e-005 0.00403937,9.44882e-005 0.00073622,-1.1811e-005 0.00147244,-7.87402e-006 0.00220866,-7.87402e-006 0.0245906,-0.000354331 0.0487047,-0.00897638 0.0710236,-0.0264331 0.0116654,-0.0198465 0.0221575,-0.0458583 0.0239488,-0.0768189 0.00154724,-0.0266417 -0.00315354,-0.0574173 -0.0186102,-0.0919685 -0.0258701,-0.0578346 -0.048126,-0.105811 -0.066185,-0.143858z"/>
  <path class="fil4" d="M3.59236 2.72044l0 0zm-0.425673 0.194185c7.87402e-006,-7.08661e-005 1.5748e-005,-7.87402e-005 0,0zm-7.87402e-006 0l0 0zm0.307894 -0.204783c0.000133858,0.000255906 0.0468307,0.0891142 0.122488,0.258244 0.0191929,0.0429055 0.0272953,0.082752 0.0281614,0.11889 0.000228346,-0.000326772 0.000452756,-0.000645669 0.000673228,-0.000956693l0.00164567 -0.00259843c0.00359843,-0.00533858 0.00641732,-0.00969685 0.00842126,-0.0130315 0.00299606,-0.00498819 0.00564567,-0.00961811 0.00789764,-0.0138307 0.00194094,-0.00362992 0.00433858,-0.00844488 0.00719291,-0.0144764 0.00374803,-0.00790551 0.00922835,-0.0212008 0.013685,-0.0392677 0.0046378,-0.0187992 0.00812598,-0.0423543 0.0075,-0.069748 -0.000625984,-0.0273858 -0.00537402,-0.0589449 -0.017189,-0.0940039 -0.0119449,-0.0354488 -0.0312165,-0.0743661 -0.0608386,-0.116039l-0.00136614 -0.00188189 -0.000137795 -0.000188976 -0.000346457 -0.000511811c-0.0264606,-0.036126 -0.0485276,-0.0716575 -0.0668898,-0.105996 -0.0212126,-0.0396693 -0.0369803,-0.0766339 -0.0486063,-0.110433 -0.0175197,-0.050937 -0.0264685,-0.0963543 -0.0307126,-0.133701 -0.000964567,-0.00848819 -0.00168504,-0.0165669 -0.00220472,-0.0242008l-0.00217717 0.00281496c-0.0116378,0.0152205 -0.0216102,0.0309488 -0.0299764,0.0469724 -0.00866142,0.0165906 -0.016,0.0342953 -0.0220512,0.0527992l-5.90551e-005 -1.9685e-005 -0.000358268 0.00106299 -0.000149606 0.00042126c-0.00610236,0.0189646 -0.0106102,0.0380945 -0.0135748,0.0571181 -0.003,0.0192441 -0.00446457,0.0395472 -0.00446457,0.0605118 0,0.011311 -0.000377953,0.023748 -0.00110236,0.0370866 -0.000732283,0.0134528 -0.00169291,0.025 -0.00285433,0.0345079 -0.00126772,0.0103386 -0.00292126,0.0202874 -0.0049252,0.0296772 -0.00202756,0.0095 -0.00457874,0.0183937 -0.00762205,0.0265118 -0.00252362,0.00673622 -0.00516535,0.0126457 -0.00785433,0.0176811 -0.00333071,0.00622835 -0.00694488,0.0115787 -0.0107717,0.0160315 -0.00364173,0.00437402 -0.00805512,0.00823228 -0.013185,0.0113622 -0.0249173,0.0151969 -0.0573898,0.00747244 -0.072815,-0.0172165 -0.000783465,-0.00115354 -0.0015315,-0.00233858 -0.00223228,-0.00356693 -0.00593307,-0.0103465 -0.010689,-0.023937 -0.0136339,-0.0405315 -0.00142913,0.00235433 -0.00285039,0.00477953 -0.00426772,0.00727165 -0.00656693,0.011563 -0.0133307,0.0250906 -0.0200827,0.0408819 -0.00585039,0.0136811 -0.0115591,0.0286811 -0.0169528,0.0450866 -0.000283465,0.00116929 -0.000606299,0.00233465 -0.000972441,0.0035 -0.00428346,0.0135118 -0.0078189,0.0259331 -0.0106693,0.0373189 -0.00344094,0.013752 -0.00601969,0.0255906 -0.00783071,0.0356969 -0.00198819,0.0111181 -0.00353543,0.0222835 -0.00468898,0.0333622 -0.00108268,0.0104213 -0.00172441,0.0198228 -0.00199606,0.0282638 4.72441e-005,0.00129528 5.11811e-005,0.00259843 7.87402e-006,0.00390945l-1.5748e-005 0.00011811 3.14961e-005 0.0100866 7.08661e-005 0.00274409 0 0.000283465 -0.000185039 0 8.26772e-005 0.00322835 1.5748e-005 0.000334646 0.000173228 0.0037126 0.00019685 0.00390157 7.48031e-005 0.0011063 0.000271654 0.00316535 -4.33071e-005 3.93701e-006 5.90551e-005 0.000826772c0.00104331,0.0167087 0.00309449,0.0320984 0.00598819,0.046252 0.00306299,0.0149803 0.00705118,0.0287795 0.0117835,0.0414803 0.00490551,0.0131654 0.0108346,0.0255118 0.0175354,0.0370551 0.00376378,0.00648031 0.00776378,0.0126339 0.0119606,0.0184764 0.000476378,-0.00500394 0.00108268,-0.0100079 0.0018189,-0.0150079 0.00916535,-0.0624016 0.0387362,-0.123795 0.0777087,-0.177154 0.0576811,-0.0789961 0.0799961,-0.166563 0.0815236,-0.172748 0.00337402,-0.0145906 0.0128543,-0.0276772 0.0271693,-0.0351496 0.026,-0.0135748 0.0580906,-0.0035 0.0716654,0.0225z"/>
 </g>
 <rect class="fil5" width="6.82666" height="6.82666"/>
</svg>
