<?xml version="1.0" encoding="UTF-8"?>
<!DOCTYPE svg PUBLIC "-//W3C//DTD SVG 1.1//EN" "http://www.w3.org/Graphics/SVG/1.1/DTD/svg11.dtd">
<!-- Creator: CorelDRAW -->
<svg xmlns="http://www.w3.org/2000/svg" xml:space="preserve" width="6.82666in" height="6.82666in" style="shape-rendering:geometricPrecision; text-rendering:geometricPrecision; image-rendering:optimizeQuality; fill-rule:evenodd; clip-rule:evenodd"
viewBox="0 0 6.82666 6.82666"
 xmlns:xlink="http://www.w3.org/1999/xlink">
 <defs>
  <style type="text/css">
   <![CDATA[
    .fil6 {fill:none}
    .fil3 {fill:#212121}
    .fil4 {fill:#949494}
    .fil5 {fill:#EBE5DF}
    .fil0 {fill:#F45A52}
    .fil1 {fill:#FECA5F}
    .fil2 {fill:#212121;fill-rule:nonzero}
   ]]>
  </style>
 </defs>
 <g id="Layer_x0020_1">
  <metadata id="CorelCorpID_0Corel-Layer"/>
  <path class="fil0" d="M1.49646 3.00655c0.0194843,-0.0177323 0.0227795,-0.0466181 0.00901575,-0.0680748 0.000397638,0.000673228 0.000791339,0.00135433 0.00118898,0.00203543 0.0127874,0.0220787 0.00792913,0.0495354 -0.0102047,0.0660394zm-0.399055 0.333795l2.25467 -1.5943c0.0384606,-0.0270551 0.0886457,-0.0250669 0.124504,0.00141339l0.790079 0.558669 0 -0.192291c0,-0.0589094 0.0477598,-0.106669 0.106669,-0.106669l0.483232 0c0.00870866,-0.100909 0.0689213,-0.204531 0.135114,-0.318457 0.0385669,-0.066374 0.0794409,-0.136724 0.111563,-0.21124 -0.134047,0.124311 -0.248764,0.167724 -0.355441,0.208087 -0.12537,0.0474331 -0.238299,0.0901614 -0.361232,0.286217 -0.0155315,0.0248504 -0.0482756,0.0324055 -0.073126,0.016874 -0.0181575,-0.0113504 -0.0270827,-0.0318898 -0.0245118,-0.0518228 -0.000527559,-0.00511417 -0.000318898,-0.0103937 0.000716535,-0.0157047 0.0147244,-0.0752795 0.0148071,-0.159744 0.0148937,-0.251756 0.000149606,-0.158929 0.000322835,-0.339024 0.0691181,-0.541705 -0.112921,0.100335 -0.177386,0.192843 -0.227142,0.26426 -0.0813346,0.116744 -0.130154,0.186807 -0.263783,0.169173 -0.00498031,0.000515748 -0.010122,0.000330709 -0.0152953,-0.000637795 -0.028878,-0.00540551 -0.0479055,-0.0332047 -0.0425,-0.0620827 0.00289764,-0.0152362 0.00753543,-0.0415906 0.0123701,-0.0690551 0.00409843,-0.0233031 0.00837402,-0.0476024 0.0131535,-0.073122 -0.121075,0.102657 -0.223453,0.149772 -0.320622,0.19448 -0.0560591,0.0257953 -0.110291,0.050748 -0.163492,0.0849134 -0.0019685,0.00884646 -0.00419291,0.0178898 -0.00669685,0.0271339 -0.00759055,0.0284173 -0.0367874,0.0452992 -0.0652047,0.0377087 -0.0284173,-0.00759055 -0.0452992,-0.0367874 -0.0377087,-0.0652047 0.0455354,-0.168248 -0.0369094,-0.251449 -0.122248,-0.337559 -0.0549213,-0.0554173 -0.110791,-0.111823 -0.145583,-0.186539 -0.0194961,0.101181 -0.0190787,0.194559 -0.0186693,0.284783 0.00109843,0.24126 0.00210236,0.462047 -0.319976,0.748094 -0.0150197,0.0146339 -0.0379724,0.0195591 -0.0583661,0.0106339 -0.0068937,-0.00299606 -0.013252,-0.00751181 -0.0185591,-0.0135079 -0.0141378,-0.0159764 -0.0169094,-0.0380906 -0.0089252,-0.0564409 0.00299606,-0.0068937 0.00751181,-0.013252 0.0135079,-0.0185591 0.0490472,-0.0434291 0.0897165,-0.0852087 0.123429,-0.125717 -0.0084685,-0.102197 -0.0774488,-0.169083 -0.156996,-0.246213 -0.112622,-0.109193 -0.251213,-0.243602 -0.206673,-0.588315 0.00291732,-0.017752 -0.00323622,-0.0365512 -0.0179016,-0.0490984 -0.0223189,-0.0190984 -0.0559016,-0.0164843 -0.075,0.00583465 -0.318118,0.371102 -0.310878,0.591071 -0.303224,0.8235 0.00542126,0.164594 0.0110512,0.336051 -0.12163,0.584646 0.00271654,-0.12026 -0.010248,-0.241276 -0.0501614,-0.34989 -0.068063,-0.185209 -0.211197,-0.332724 -0.480807,-0.379543l-1.1811e-005 5.90551e-005c-0.0093622,-0.0016063 -0.0192717,-0.000728346 -0.0287362,0.00306693 -0.0272677,0.0109291 -0.0405118,0.0418976 -0.0295827,0.0691654 0.129736,0.324339 0.137835,0.661307 0.14328,0.88776 0.00118898,0.0495157 0.00226378,0.0942402 0.00464961,0.133579 0.0038622,0.0637559 0.0111654,0.113362 0.0279685,0.146256 -0.0287559,-0.0406417 -0.0630276,-0.0458701 -0.100909,-0.0516417 -0.094878,-0.0144606 -0.204669,-0.0312559 -0.322768,-0.297591 -0.0511417,0.326551 -0.0131496,0.381283 0.0523937,0.475555 0.0131654,0.018937 0.027374,0.039374 0.0448858,0.0676575 0.032374,0.0522835 0.0361457,0.10502 0.0172835,0.165138zm0.69172 -0.620083l0 0zm-0.294114 0.201496c0.00350787,0.00525591 0.00699606,0.0108189 0.0104646,0.0167165 -0.00159449,-0.00248819 -0.00342126,-0.00487402 -0.00547638,-0.00713386 -0.00185433,-0.00204331 -0.00350787,-0.00525984 -0.00498819,-0.00958268z"/>
  <path class="fil0" d="M5.24419 2.71909c-0.0508307,0.0492835 -0.0915157,0.0887362 -0.0544291,0.173874 0.00888976,0.0204016 0.00397244,0.0433425 -0.0106457,0.0583622l0.418291 0.295776c-0.132071,-0.209524 -0.127634,-0.344185 -0.123402,-0.472823 0.00325591,-0.098811 0.00635039,-0.193539 -0.0739567,-0.326657 -0.019563,0.139276 -0.0931024,0.210622 -0.155858,0.271469z"/>
  <path class="fil0" d="M5.74877 2.95334c-0.0349409,0.0950866 -0.0304882,0.21224 -0.0137638,0.31685 0.00362598,0.0228425 -0.00788189,0.0446024 -0.0271102,0.0550512l0.115567 0.0817205c0.00243701,-0.0187717 0.00352756,-0.0640787 0.00494488,-0.123004 0.003,-0.124937 0.00724803,-0.301425 0.0609173,-0.484024 -0.073315,0.0338346 -0.116843,0.0888701 -0.140555,0.153406z"/>
  <path class="fil0" d="M3.66183 3.46123c-0.156587,-0.259209 -0.150988,-0.429165 -0.145638,-0.591732 0.00480709,-0.145906 0.00938189,-0.285209 -0.133016,-0.492606 -0.0200197,0.159898 -0.101665,0.276839 -0.178693,0.387126 -0.127795,0.182984 -0.240728,0.344693 0.0747205,0.697213l0.382626 0z"/>
  <path class="fil0" d="M3.97101 3.04089c-0.217476,0.0666693 -0.192807,0.205697 -0.158299,0.400106l0.00357874 0.0202362 0.113661 0c-0.0051378,-0.0518346 -0.00746457,-0.109165 -0.00383465,-0.171689 0.00440157,-0.0757677 0.0175197,-0.15889 0.0448937,-0.248654z"/>
  <path class="fil1" d="M2.97348 5.02098c0.00331102,-0.0570709 -0.00659055,-0.122606 -0.0392402,-0.195602 -0.0729528,-0.163087 -0.130933,-0.285181 -0.170063,-0.365346 -0.0285118,0.0725709 -0.073063,0.166685 -0.137846,0.255409 -0.0598228,0.0819173 -0.104992,0.174594 -0.11852,0.266669 -0.00988189,0.0672559 -0.00245276,0.134406 0.0294567,0.196602 0.107634,0.0585472 0.230941,0.0765472 0.358268,0.0266181 0.00625197,-0.00245276 0.0124882,-0.00506299 0.0186969,-0.00783858 0.00101575,-0.000818898 0.00202756,-0.00164567 0.00303937,-0.00248425 0.0269016,-0.0436102 0.052063,-0.102551 0.0562087,-0.174028z"/>
  <path class="fil0" d="M3.08254 4.28301l0 0zm-0.281331 0.013752c0.000251969,0.000484252 0.0875315,0.166547 0.230114,0.485283 0.0404134,0.0903504 0.0526024,0.172531 0.0484134,0.244768 -0.00118898,0.0204528 -0.00367717,0.0400748 -0.00720079,0.0588346 0.0220866,-0.0229606 0.0448031,-0.0497677 0.0596732,-0.0694291 0.0699173,-0.0924606 0.107858,-0.194102 0.104976,-0.320004 -0.00122835,-0.0536693 -0.0104882,-0.115382 -0.0335276,-0.183752 -0.0250433,-0.0743071 -0.061248,-0.144555 -0.121118,-0.229453 -0.162098,-0.221142 -0.275693,-0.487 -0.27872,-0.747969 -0.0611732,0.0626457 -0.114894,0.156004 -0.140008,0.237953l-0.00159843 0.00503543 -8.26772e-005 -2.75591e-005c-0.0242835,0.0752795 -0.0352323,0.149272 -0.0352323,0.228531 0,0.0776693 -0.00618504,0.263063 -0.0813031,0.308894 -0.0394213,0.0240512 -0.0885039,0.010752 -0.112992,-0.0318858 -0.0188701,-0.0328543 -0.0270551,-0.0783661 -0.0290354,-0.124673 -0.0315236,0.0412441 -0.0571693,0.088374 -0.0797835,0.141264 -0.0106654,0.0249449 -0.0251378,0.0619331 -0.0342795,0.0923976l-0.000149606 -4.33071e-005 -0.000476378 0.00147638 -5.11811e-005 -1.5748e-005c-0.0210354,0.0663031 -0.0372795,0.137827 -0.0442598,0.204933l-0.00392126 0.0628976 3.14961e-005 0.0244646 -0.000165354 0 0.00157087 0.0312598 -5.51181e-005 3.93701e-006c0.00627165,0.0900591 0.0252008,0.169768 0.0695551,0.246154 0.0137402,0.0236575 0.0290394,0.0450945 0.0453898,0.0644882l-0.000153543 0.000129921c0.0133543,0.015748 0.0272913,0.0308976 0.0417677,0.0453386 -0.00291339,-0.0354488 -0.00143307,-0.0712244 0.00381102,-0.106925 0.0161535,-0.109953 0.0687283,-0.218752 0.138102,-0.313748 0.118362,-0.162098 0.161835,-0.343575 0.161961,-0.344098l4.33071e-005 1.1811e-005c0.00348031,-0.0143701 0.0129094,-0.0272165 0.0270394,-0.0345945 0.026,-0.0135748 0.0580906,-0.0035 0.0716654,0.0225z"/>
  <path class="fil2" d="M1.26624 3.46123l0.100642 0c0.0111063,0.0651654 0.0273976,0.124878 0.0477953,0.179575 0.00427953,0.0114803 0.00874016,0.0227283 0.013374,0.0337638l-0.0551417 0 0 2.06594 4.08085 0 0 -2.06594c-1.59072,7.87402e-006 -1.18346,-0.213335 0.106669,-0.213339 0.0589094,0 0.106669,0.0477598 0.106669,0.106669l0 2.27928c0,0.0589094 -0.0477598,0.106669 -0.106669,0.106669l-4.29419 0c-0.0589094,0 -0.106669,-0.0477598 -0.106669,-0.106669l0 -2.27928c0,-0.0589094 0.0477598,-0.106669 0.106669,-0.106669z"/>
  <path class="fil2" d="M3.35208 1.74605c0.0384606,-0.0270551 0.0886457,-0.0250669 0.124504,0.00141339l2.45133 1.73335c0.0480906,0.0338268 0.0596575,0.100244 0.0258307,0.148335 -0.0207087,0.0294409 -0.0536299,0.045189 -0.0870827,0.0452165l0 0.000200787 -2.78021 0c-0.0110827,-0.053563 -0.0205787,-0.12363 -0.0155472,-0.177457 0.000988189,-0.0105512 0.00105906,-0.00503937 0.00105906,-0.0197205 0,-0.00918898 -9.84252e-005,-0.00587402 -0.000413386,-0.0120866l-0.00023622 -0.0040748 2.46009 0 -2.11807 -1.4977 -2.11807 1.4977 1.22733 0c-0.0190472,0.0282756 -0.0364646,0.0576417 -0.0522441,0.087874 -0.0211654,0.0405394 -0.038374,0.082622 -0.0541142,0.125465l-1.45623 0c-0.0589094,0 -0.106669,-0.0477598 -0.106669,-0.106669 0,-0.0383583 0.020252,-0.0719803 0.0506417,-0.0907756 0.816039,-0.57702 1.63207,-1.15405 2.44811,-1.73107z"/>
  <path class="fil2" d="M4.37333 2.00717l0.533335 0c0.0589094,0 0.106669,0.0477598 0.106669,0.106669l0 0.77524c0,0.0589094 -0.0477598,0.106669 -0.106669,0.106669 -0.0252717,0 -0.0484882,-0.00879528 -0.0667677,-0.0234843l-0.527819 -0.373228c-0.0294409,-0.0207087 -0.045189,-0.0536299 -0.0452165,-0.0870827l-0.000200787 0 0 -0.398114c0,-0.0589094 0.0477598,-0.106669 0.106669,-0.106669zm0.426665 0.213339l-0.319996 0 0 0.236476 0.319996 0.226272 0 -0.462748z"/>
  <path class="fil2" d="M2.2351 5.13128c-0.0221654,-0.0262913 -0.0429331,-0.0554055 -0.0616417,-0.0876142 -0.0170787,-0.0294094 -0.0325354,-0.0618268 -0.0458465,-0.0975394 -0.0122126,-0.0327598 -0.022374,-0.0677795 -0.0300276,-0.105185 -0.00689764,-0.0337126 -0.011815,-0.0691614 -0.0144213,-0.106406 -0.0005,-0.00359843 -0.00076378,-0.00727165 -0.000767717,-0.0110039l-0.000200787 -0.00365354 -0.000515748 -0.011185c-4.33071e-005,-0.000976378 -0.00015748,-0.00440945 -0.000322835,-0.00996457l-6.69291e-005 -0.00256693c-0.000401575,-0.00324803 -0.000610236,-0.00655512 -0.000610236,-0.00991339l0 -0.0244646 0.000362205 -0.00622047 8.66142e-005 -0.00126378 0.000181102 -0.00279921c0.000610236,-0.0223346 0.00206693,-0.0453504 0.00451181,-0.0688661 0.00243307,-0.023378 0.0060315,-0.0488189 0.0109803,-0.0764291 0.00486614,-0.0271732 0.0104843,-0.0537638 0.0169094,-0.0794331 0.00582283,-0.0232677 0.0133228,-0.0495787 0.0226969,-0.0792244l0.000165354 -0.000574803 -0.000192913 -5.90551e-005 3.54331e-005 -0.00011811c0.000566929,-0.00189764 0.00119291,-0.00375591 0.00188583,-0.00557874 0.0125472,-0.0386024 0.0255276,-0.0729843 0.0386102,-0.103583 0.0154331,-0.0360945 0.0313504,-0.067815 0.047122,-0.0955827 0.0195472,-0.0344252 0.0384252,-0.0622402 0.0558425,-0.084626 0.0232008,-0.0298268 0.0455394,-0.0522598 0.0640827,-0.0684764 0.013437,-0.0117559 0.0284685,-0.0202205 0.0442638,-0.0256772 0.0170591,-0.0058937 0.0342677,-0.00811024 0.0507717,-0.00709449 0.00898819,0.000555118 0.0177283,0.00198031 0.0260827,0.00420079l0.00300394 0.000834646c0.00163386,-0.0315709 0.00497638,-0.063811 0.0100787,-0.0965276 0.00731102,-0.0468819 0.0180906,-0.0928819 0.0324921,-0.137276l0.000409449 -0.0012126 -9.84252e-005 -3.54331e-005 0.000283465 -0.000826772c0.00038189,-0.00111811 0.000795276,-0.00221654 0.00122047,-0.00330709 0.0138425,-0.0416614 0.0312717,-0.0830197 0.0524331,-0.123555 0.0210669,-0.0403543 0.0453228,-0.0788425 0.0728661,-0.114862 0.00785433,-0.0102756 0.0164764,-0.0208543 0.025874,-0.0316969 0.00892913,-0.0102992 0.018126,-0.0202953 0.0275669,-0.0298976 0.00875984,-0.00890551 0.0185197,-0.018189 0.029315,-0.0278307 0.0118858,-0.010622 0.0220315,-0.0192244 0.0302874,-0.0256378 0.00163386,-0.00126772 0.00329528,-0.00246457 0.00499213,-0.00358661l-2.3622e-005 -3.54331e-005c0.00218898,-0.00151969 0.00394488,-0.00267717 0.00532677,-0.00352756 0.000688976,-0.000425197 0.00138189,-0.000830709 0.00207874,-0.00123228 0.00314567,-0.00188583 0.00658268,-0.00375984 0.0102874,-0.00561024l-6.29921e-005 -0.000125984c0.00488976,-0.00244094 0.0103819,-0.00469291 0.0164016,-0.00673622 0.00656693,-0.00223228 0.013937,-0.00397244 0.0219685,-0.00521654 0.00740945,-0.00114173 0.0148071,-0.00165748 0.0220787,-0.00155512l0.00309055 4.72441e-005c0.00157087,1.9685e-005 0.00312598,9.05512e-005 0.00467323,0.00019685l1.5748e-005 -0.00019685c0.0160197,0.00115354 0.0319016,0.00543701 0.0467795,0.012378 0.0146496,0.00683465 0.0280118,0.016248 0.0392362,0.0277638 0.0117598,0.012063 0.0214291,0.0267283 0.0280827,0.0434764 0.00567323,0.0142874 0.00897244,0.0297992 0.00929134,0.0461654 0.000181102,0.00218898 0.000275591,0.00440551 0.000275591,0.00664567 0,0.00331496 -0.000200787,0.00658268 -0.000594488,0.0097874 -0.00182283,0.0283268 -0.00225984,0.0713268 0.00401575,0.1265 0.00666929,0.0586102 0.0210315,0.130843 0.0495551,0.213756 0.0197795,0.0575118 0.0457795,0.118846 0.0798189,0.182504 0.0304646,0.0569685 0.0680039,0.117157 0.114118,0.179953l0.000909449 0.00127165 2.75591e-005 -1.9685e-005 0.000669291 0.000948819c0.000712598,0.00101575 0.00140157,0.00204724 0.00206299,0.00308661 0.0669606,0.0941063 0.111087,0.18376 0.139028,0.266661 0.0285709,0.0847835 0.0400827,0.162685 0.0416535,0.231248 0.0016063,0.0702402 -0.0072874,0.130421 -0.0191181,0.178374 -0.0120984,0.0490472 -0.0273543,0.0859488 -0.0378504,0.108079 -0.00492126,0.0103976 -0.0108898,0.0221299 -0.0178031,0.0350591 -0.00664567,0.0124252 -0.0130433,0.0237244 -0.0191811,0.0339449 -0.00803543,0.0133701 -0.0149606,0.0243465 -0.0208268,0.0330551 -0.00699213,0.0103819 -0.0143661,0.0206772 -0.0220709,0.0308701 -0.0188268,0.0248858 -0.0386929,0.0483976 -0.0594685,0.0705118 -0.020189,0.0214843 -0.0418976,0.0419803 -0.0649803,0.0614331l-0.00102362 0.000838583 8.26772e-005 9.84252e-005 -0.00105118 0.000854331 -0.000173228 0.000137795 3.93701e-005 4.72441e-005c-0.056563,0.0472953 -0.116909,0.0831535 -0.179472,0.107685 -0.0642953,0.0252126 -0.131055,0.0382953 -0.198594,0.0393858 -0.0672638,0.00108661 -0.134465,-0.00983858 -0.199937,-0.0326299 -0.0640669,-0.0222992 -0.126217,-0.0557126 -0.184846,-0.100067 -0.0235079,-0.0177835 -0.0469488,-0.0378307 -0.0702126,-0.060126 -0.0214764,-0.0205906 -0.0431142,-0.043752 -0.0648228,-0.0694961l-0.000153543 0.000129921zm0.0764843 -0.167614c0.0137402,0.0236575 0.0290394,0.0450945 0.0453898,0.0644882l-0.000153543 0.000129921 0.000153543 0.000181102c0.0167205,0.0198386 0.0346772,0.0389213 0.0537244,0.0571811 0.0178425,0.0171024 0.0364921,0.0329882 0.0558425,0.047622 0.0456811,0.0345591 0.0931063,0.0602441 0.141098,0.0769488 0.0478622,0.0166614 0.0965748,0.0246575 0.144929,0.023874 0.0479173,-0.000771654 0.0959764,-0.0103268 0.142972,-0.0287559 0.0465276,-0.0182441 0.0919409,-0.0453583 0.135094,-0.0814409l0.000114173 0.000137795 0.00111417 -0.000909449 0.000787402 -0.00065748 0.00105118 -0.000854331 3.54331e-005 4.33071e-005 0.000338583 -0.000259843 0.000413386 -0.000311024c0.0161535,-0.0137402 0.0326693,-0.0295551 0.0495039,-0.0474724 0.0162953,-0.0173425 0.0323937,-0.0364685 0.0482165,-0.0573858 0.00547638,-0.00724409 0.0111693,-0.0152323 0.0170709,-0.0239961 0.00672047,-0.00997638 0.012248,-0.0185433 0.0164567,-0.0255512 0.00571654,-0.00951575 0.0108819,-0.0185591 0.0154331,-0.0270709 0.00404331,-0.00755906 0.0087126,-0.0169094 0.0140472,-0.028185 0.00747244,-0.0157598 0.0183858,-0.0422283 0.0272283,-0.0780787 0.00911811,-0.0369528 0.0159724,-0.083252 0.0147402,-0.137122 -0.00122835,-0.0536693 -0.0104882,-0.115382 -0.0335276,-0.183752 -0.0232205,-0.0688937 -0.0605748,-0.14435 -0.117906,-0.224957 -0.000862205,-0.00112598 -0.00169291,-0.00227953 -0.0025,-0.00346457l-5.51181e-005 -7.48031e-005 -0.000669291 -0.000948819 1.1811e-005 -7.87402e-006c-0.0496024,-0.0676693 -0.0908346,-0.134055 -0.125067,-0.198071 -0.0393858,-0.0736496 -0.0687362,-0.1425 -0.0904488,-0.20563 -0.0325748,-0.0946929 -0.0491811,-0.178933 -0.0570512,-0.248126 -0.00414173,-0.0363858 -0.00583465,-0.0686496 -0.00615354,-0.0961417 -0.00687008,0.00703543 -0.0133937,0.0141299 -0.0195591,0.0212441 -0.00644882,0.00744094 -0.0130039,0.0155354 -0.019622,0.0241929 -0.022622,0.0295827 -0.0420748,0.0602953 -0.0584882,0.0917362 -0.0166535,0.0318976 -0.0307402,0.0656693 -0.0423386,0.10078 -0.000397638,0.00140551 -0.000834646,0.00281102 -0.00131496,0.00420866l-0.000283465 0.000826772 -8.26772e-005 -2.75591e-005c-0.0119528,0.0370551 -0.0207283,0.0742402 -0.0264685,0.111055 -0.00588976,0.0377795 -0.00876378,0.0771732 -0.00876378,0.117476 0,0.021689 -0.000681102,0.0448346 -0.002,0.0690472 -0.00132283,0.0244291 -0.00311417,0.0457402 -0.00531496,0.0637047 -0.00234646,0.0191417 -0.00535827,0.0373346 -0.00897638,0.0542677 -0.00364961,0.0171181 -0.00817323,0.0329409 -0.0135039,0.0471693 -0.00444094,0.0118701 -0.00905512,0.0221811 -0.0137087,0.0308898 -0.0056378,0.0105551 -0.0117244,0.0195197 -0.018122,0.0268898 -0.00544488,0.00651181 -0.0120315,0.0122598 -0.0196772,0.0169252 -0.037622,0.0229528 -0.0867362,0.0110591 -0.109689,-0.026563l-0.000251969 -0.000409449c-0.00106693,-0.00158661 -0.00208268,-0.00322835 -0.00305118,-0.00491339 -0.0124291,-0.0216575 -0.021878,-0.0521378 -0.0264055,-0.0907913 -0.00122047,-0.0104449 -0.00211024,-0.0217402 -0.00262992,-0.0338819 -0.0133031,0.0174055 -0.0271654,0.0379331 -0.0407874,0.0619252 -0.0127953,0.0225276 -0.0259331,0.0487835 -0.0389961,0.0793386 -0.0115118,0.0269252 -0.022752,0.0565669 -0.033378,0.089122 -0.000267717,0.00105118 -0.000551181,0.0021063 -0.000866142,0.00315748l-3.54331e-005 0.00011811 -0.000149606 -4.33071e-005 -0.000476378 0.00147638 -5.11811e-005 -1.5748e-005c-0.00711811,0.022437 -0.0138228,0.0464252 -0.0201181,0.0715669 -0.00649606,0.0259528 -0.0114528,0.0487992 -0.0150354,0.068811 -0.00390551,0.0217756 -0.00690157,0.0433701 -0.0091063,0.0645551 -0.0021378,0.0205709 -0.00338976,0.0392874 -0.00388583,0.0562598 7.87402e-005,0.00219685 6.29921e-005,0.00440945 -4.33071e-005,0.0066378l7.87402e-006 0c2.3622e-005,-0.000185039 3.14961e-005,-0.000216535 3.14961e-005,0l0 0.0244646 -0.000165354 0c3.93701e-005,0.0019685 0.000110236,0.00457087 0.000220472,0.00810236l0.000322835 0.0074685 0.000515748 0.00931102c6.29921e-005,0.00111024 9.84252e-005,0.000862205 0.000511811,0.00637795l-5.51181e-005 3.93701e-006 8.66142e-005 0.00124409c0.0020315,0.0324882 0.00603937,0.0625394 0.0117205,0.090311 0.00600394,0.0293425 0.0138346,0.056437 0.0231535,0.081437 0.00973228,0.0261063 0.0214134,0.0504606 0.0345945,0.0731614zm-0.0709449 -0.301843l7.87402e-006 -3.93701e-005 -7.87402e-006 0 0 3.93701e-005z"/>
  <path class="fil2" d="M2.54374 5.19065c0.0669055,0.0457283 0.134551,0.0696732 0.19872,0.0700551 0.0612913,0.000362205 0.120827,-0.0210118 0.174819,-0.0657008 0.0269016,-0.0436102 0.052063,-0.102551 0.0562087,-0.174028 0.00331102,-0.0570709 -0.00659055,-0.122606 -0.0392402,-0.195602 -0.0729528,-0.163087 -0.130933,-0.285181 -0.170063,-0.365346 -0.0285118,0.0725709 -0.073063,0.166685 -0.137846,0.255409 -0.0598228,0.0819173 -0.104992,0.174594 -0.11852,0.266669 -0.0105157,0.0715827 -0.0014252,0.143047 0.0359213,0.208543zm0.198303 0.176307c-0.0885866,-0.000519685 -0.179276,-0.0326417 -0.266079,-0.093874 -0.0070315,-0.00425197 -0.0131811,-0.0102008 -0.0177835,-0.017685 -0.0560551,-0.0911496 -0.070252,-0.190213 -0.0557795,-0.288709 0.0161535,-0.109953 0.0687283,-0.218752 0.138102,-0.313748 0.118362,-0.162098 0.161835,-0.343575 0.161961,-0.344098l4.33071e-005 1.1811e-005c0.00348031,-0.0143701 0.0129094,-0.0272165 0.0270394,-0.0345945 0.026,-0.0135748 0.0580906,-0.0035 0.0716654,0.0225 0.000251969,0.000484252 0.0875315,0.166547 0.230114,0.485283 0.0404134,0.0903504 0.0526024,0.172531 0.0484134,0.244768 -0.00564961,0.0973189 -0.040748,0.175803 -0.0769213,0.23211l-3.54331e-005 -2.3622e-005c-0.00268898,0.00418504 -0.00601181,0.00806299 -0.00996457,0.0114843 -0.0758622,0.0657205 -0.161457,0.0971024 -0.250776,0.0965748z"/>
  <path class="fil2" d="M3.9493 4.04913l1.06667 0c0.0441811,0 0.08,0.0358189 0.08,0.08l0 1.71805c0,0.0441811 -0.0358189,0.08 -0.08,0.08l-1.06667 0c-0.0441811,0 -0.08,-0.0358189 -0.08,-0.08l0 -1.71805c0,-0.0441811 0.0358189,-0.08 0.08,-0.08zm0.986669 0.16l-0.906669 0 0 1.55805 0.906669 0 0 -1.55805z"/>
  <path class="fil2" d="M0.982535 3.54277c-0.0169134,0.0240433 -0.050122,0.0298268 -0.0741654,0.0129134 -0.0240433,-0.0169134 -0.0298268,-0.050122 -0.0129134,-0.0741654 0.0476024,-0.0673701 0.0821142,-0.120945 0.0977362,-0.16448 0.0120433,-0.033563 0.0119843,-0.0610157 -0.00348425,-0.0859961 -0.013,-0.0209961 -0.0280236,-0.0426102 -0.0419646,-0.0626575 -0.0935787,-0.134606 -0.141224,-0.203142 -0.0357047,-0.746315 0.00551969,-0.028878 0.0334134,-0.047811 0.0622913,-0.0422913 0.0200315,0.00383071 0.0352756,0.0184252 0.0408937,0.0366457 0.123862,0.379933 0.22285,0.395035 0.306224,0.407744 0.068126,0.0103819 0.129146,0.019689 0.18522,0.116343 0.0147244,0.0254252 0.00605118,0.0579803 -0.019374,0.0727047 -0.0254252,0.0147244 -0.0579803,0.00605118 -0.0727047,-0.019374 -0.0303228,-0.0522638 -0.0674843,-0.0579331 -0.108976,-0.0642559 -0.094878,-0.0144606 -0.204669,-0.0312559 -0.322768,-0.297591 -0.0511417,0.326551 -0.0131496,0.381283 0.0523937,0.475555 0.0131654,0.018937 0.027374,0.039374 0.0448858,0.0676575 0.0346024,0.0558819 0.0365315,0.112283 0.0130669,0.177665 -0.0198819,0.0553976 -0.0583819,0.115913 -0.110657,0.189898z"/>
  <path class="fil2" d="M1.5 2.93134c0.0197874,0.0217441 0.0182047,0.0554213 -0.00353937,0.0752087 -0.0217441,0.0197874 -0.0554213,0.0182047 -0.0752087,-0.00353937 -0.041189,-0.0453661 -0.0437441,-0.151484 -0.0473504,-0.301618 -0.00544488,-0.226453 -0.0135433,-0.563421 -0.14328,-0.88776 -0.0109291,-0.0272677 0.00231496,-0.0582362 0.0295827,-0.0691654 0.00946457,-0.00379528 0.019374,-0.00467323 0.0287362,-0.00306693l1.1811e-005 -5.90551e-005c0.26961,0.0468189 0.412744,0.194335 0.480807,0.379543 0.0399134,0.108614 0.052878,0.22963 0.0501614,0.34989 0.132681,-0.248594 0.127051,-0.420051 0.12163,-0.584646 -0.00765354,-0.232429 -0.0148937,-0.452398 0.303224,-0.8235 0.0190984,-0.0223189 0.0526811,-0.0249331 0.075,-0.00583465 0.0146654,0.0125472 0.0208189,0.0313465 0.0179016,0.0490984 -0.0445394,0.344713 0.0940512,0.479122 0.206673,0.588315 0.119551,0.115917 0.215228,0.208697 0.117524,0.432969 -0.0117323,0.0269213 -0.0430748,0.0392323 -0.0699961,0.0275 -0.0269213,-0.0117323 -0.0392323,-0.0430748 -0.0275,-0.0699961 0.0682638,-0.156689 -0.00395669,-0.226728 -0.0941929,-0.31422 -0.109299,-0.105972 -0.239827,-0.232571 -0.247469,-0.507618 -0.186618,0.263291 -0.180925,0.437406 -0.174913,0.619957 0.00726378,0.220504 0.0149016,0.452323 -0.258661,0.837476l-1.5748e-005 -1.1811e-005c-0.0113386,0.0159094 -0.0310512,0.0249488 -0.0516535,0.0216772 -0.0289921,-0.00460236 -0.0487677,-0.0318425 -0.0441654,-0.0608346 0.0275039,-0.172031 0.0346299,-0.365236 -0.0235472,-0.523551 -0.047378,-0.128925 -0.14037,-0.235681 -0.305661,-0.288614 0.103563,0.310512 0.110945,0.617327 0.116055,0.829957 0.00304331,0.126736 0.00520079,0.216315 0.0198465,0.232445z"/>
  <path class="fil2" d="M2.64834 2.14572c-0.0219724,0.0194449 -0.0555551,0.0173898 -0.075,-0.00458268 -0.0194449,-0.0219724 -0.0173898,-0.0555551 0.00458268,-0.075 0.287953,-0.254957 0.287055,-0.453173 0.286067,-0.669803 -0.00073622,-0.162772 -0.00152756,-0.335024 0.101047,-0.546646 0.0127717,-0.0264606 0.0445827,-0.037563 0.0710433,-0.0247913 0.0215197,0.0103858 0.032878,0.0333701 0.0295,0.0558228l8.26772e-005 1.1811e-005c-0.0259528,0.170189 0.0605197,0.257449 0.144248,0.341941 0.107406,0.108378 0.211173,0.213091 0.149744,0.440055 -0.00759055,0.0284173 -0.0367874,0.0452992 -0.0652047,0.0377087 -0.0284173,-0.00759055 -0.0452992,-0.0367874 -0.0377087,-0.0652047 0.0455354,-0.168248 -0.0369094,-0.251449 -0.122248,-0.337559 -0.0549213,-0.0554173 -0.110791,-0.111823 -0.145583,-0.186539 -0.0194961,0.101181 -0.0190787,0.194559 -0.0186693,0.284783 0.00110236,0.24174 0.0021063,0.462925 -0.321902,0.749803z"/>
  <path class="fil2" d="M3.35145 1.64543c-0.0242756,0.0164528 -0.0572953,0.0101102 -0.073748,-0.0141654 -0.0164528,-0.0242756 -0.0101102,-0.0572953 0.0141654,-0.073748 0.0664646,-0.0451024 0.128776,-0.0737717 0.193394,-0.103504 0.120913,-0.0556339 0.250469,-0.115248 0.416071,-0.294071 0.0199016,-0.0215118 0.0534843,-0.0228189 0.0749961,-0.00291732 0.0148425,0.0137323 0.0200669,0.0339724 0.0153425,0.0522717l7.48031e-005 1.9685e-005c-0.0230394,0.0883504 -0.0370472,0.167917 -0.0494331,0.238339 -0.00370472,0.0210591 -0.00723228,0.0410984 -0.0127874,0.0703071 -0.00540551,0.028878 -0.0332047,0.0479055 -0.0620827,0.0425 -0.028878,-0.00540551 -0.0479055,-0.0332047 -0.0425,-0.0620827 0.00289764,-0.0152362 0.00753543,-0.0415906 0.0123701,-0.0690551 0.00409843,-0.0233031 0.00837402,-0.0476024 0.0131535,-0.073122 -0.121075,0.102657 -0.223453,0.149772 -0.320622,0.19448 -0.0613031,0.0282087 -0.120417,0.0554055 -0.178394,0.094748z"/>
  <path class="fil2" d="M3.87902 1.56059c-0.0291063,-0.00414173 -0.0493504,-0.0311024 -0.0452087,-0.0602087 0.00414173,-0.0291063 0.0311024,-0.0493504 0.0602087,-0.0452087 0.0714606,0.0101772 0.106413,-0.0399803 0.165004,-0.124079 0.0743819,-0.106768 0.179512,-0.257661 0.416748,-0.415437 0.0245039,-0.0162205 0.0575276,-0.00950394 0.073748,0.015 0.0111929,0.0169094 0.0114606,0.0378819 0.00249606,0.0545827l3.93701e-006 0c-0.140819,0.260059 -0.141043,0.489063 -0.141224,0.684134 -9.05512e-005,0.0982362 -0.000181102,0.188421 -0.016563,0.272173 -0.0056378,0.028878 -0.033622,0.0477205 -0.0625,0.0420827 -0.028878,-0.0056378 -0.0477205,-0.033622 -0.0420827,-0.0625 0.0147244,-0.0752795 0.0148071,-0.159744 0.0148937,-0.251756 0.000149606,-0.158929 0.000322835,-0.339024 0.0691181,-0.541705 -0.112921,0.100335 -0.177386,0.192843 -0.227142,0.26426 -0.0820827,0.117819 -0.131051,0.188094 -0.2675,0.168661z"/>
  <path class="fil2" d="M4.99804 2.13281c0.0173701,0.0237008 0.0122402,0.0570039 -0.0114606,0.074374 -0.0237008,0.0173701 -0.0570039,0.0122402 -0.074374,-0.0114606 -0.120114,-0.163516 -0.0282441,-0.321626 0.0794724,-0.507012 0.0385669,-0.066374 0.0794409,-0.136724 0.111563,-0.21124 -0.134047,0.124311 -0.248764,0.167724 -0.355441,0.208087 -0.12537,0.0474331 -0.238299,0.0901614 -0.361232,0.286217 -0.0155315,0.0248504 -0.0482756,0.0324055 -0.073126,0.016874 -0.0248504,-0.0155315 -0.0324055,-0.0482756 -0.016874,-0.073126 0.142228,-0.226823 0.270894,-0.275504 0.413736,-0.329547 0.131295,-0.0496772 0.27602,-0.104433 0.460646,-0.342047l9.44882e-005 7.48031e-005c0.0108346,-0.0139134 0.0283504,-0.0221378 0.0471969,-0.0202835 0.0292244,0.00287402 0.0505827,0.0289016 0.0477087,0.058126 -0.0177598,0.177209 -0.104358,0.326236 -0.182193,0.460197 -0.0888504,0.152917 -0.164634,0.283339 -0.0857165,0.390768z"/>
  <path class="fil2" d="M5.89993 3.48776c-0.0197874,0.0217441 -0.0534646,0.0233268 -0.0752087,0.00353937 -0.0217441,-0.0197874 -0.0233268,-0.0534646 -0.00353937,-0.0752087 0.00415748,-0.00457874 0.00543307,-0.0574055 0.00722835,-0.132134 0.003,-0.124937 0.00724803,-0.301425 0.0609173,-0.484024 -0.073315,0.0338346 -0.116843,0.0888701 -0.140555,0.153406 -0.0349409,0.0950866 -0.0304882,0.21224 -0.0137638,0.31685 0.00460236,0.0289921 -0.0151732,0.0562323 -0.0441654,0.0608346 -0.0206024,0.00327165 -0.040315,-0.00576772 -0.0516535,-0.0216772l-1.5748e-005 1.1811e-005c-0.174693,-0.245953 -0.169811,-0.39413 -0.165173,-0.535075 0.00325591,-0.098811 0.00635039,-0.193539 -0.0739567,-0.326657 -0.019563,0.139276 -0.0931024,0.210622 -0.155858,0.271469 -0.0508307,0.0492835 -0.0915157,0.0887362 -0.0544291,0.173874 0.0117323,0.0269213 -0.00057874,0.0582638 -0.0275,0.0699961 -0.0269213,0.0117323 -0.0582638,-0.00057874 -0.0699961,-0.0275 -0.0665315,-0.152717 -0.00238583,-0.214913 0.0777598,-0.292622 0.0670197,-0.0649803 0.14948,-0.144965 0.123248,-0.34972 -0.00291732,-0.017752 0.00323622,-0.0365551 0.0179016,-0.0491024 0.0223189,-0.0190984 0.0559016,-0.0164843 0.075,0.00583465 0.203642,0.237563 0.198992,0.378665 0.194083,0.52776 -0.0027126,0.0823661 -0.0055,0.167559 0.0385906,0.279453 0.00424409,-0.0484606 0.0136024,-0.0959646 0.0299291,-0.140398 0.0448268,-0.121992 0.138827,-0.219102 0.315602,-0.249799l1.1811e-005 5.90551e-005c0.0093622,-0.0016063 0.0192717,-0.000728346 0.0287362,0.00306693 0.0272677,0.0109291 0.0405118,0.0418976 0.0295827,0.0691654 -0.0796772,0.199193 -0.0846811,0.407386 -0.0880433,0.547291 -0.00235827,0.0981299 -0.00402756,0.167496 -0.0347323,0.201307z"/>
  <path class="fil3" d="M3.73168 3.56731l0 0zm-0.527193 -0.803287c0.0770276,-0.110287 0.158673,-0.227228 0.178693,-0.387126 0.142398,0.207398 0.137823,0.346701 0.133016,0.492606 -0.00535039,0.162567 -0.0109488,0.332524 0.145638,0.591732 0.0204055,0.0337835 0.0435709,0.0690787 0.0698622,0.106063 0.0113386,0.0159094 0.0310512,0.0249488 0.0516535,0.0216772 0.0289921,-0.00460236 0.0487677,-0.0318425 0.0441654,-0.0608346 -0.00442913,-0.027689 -0.00797638,-0.0484134 -0.0112205,-0.0669055 -0.00122441,-0.00698031 -0.00240945,-0.0136378 -0.00357874,-0.0202362 -0.0345079,-0.194409 -0.0591772,-0.333437 0.158299,-0.400106 -0.027374,0.0897638 -0.0404921,0.172886 -0.0448937,0.248654 -0.00362992,0.0625236 -0.00130315,0.119854 0.00383465,0.171689 0.00315748,0.0318701 0.00737795,0.0616654 0.0119252,0.089311 0.00471654,0.0289921 0.0320512,0.0486732 0.0610433,0.0439567 0.0289921,-0.00471654 0.0486732,-0.0320512 0.0439567,-0.0610433 -0.0037126,-0.0225591 -0.00718504,-0.0466575 -0.00994882,-0.0722244 -0.00538976,-0.0498543 -0.0080748,-0.105299 -0.00455906,-0.165854 0.00529134,-0.0911339 0.0247205,-0.194366 0.0703386,-0.308413 0.0109291,-0.0272677 -0.00231496,-0.0582362 -0.0295827,-0.0691654 -0.00946457,-0.00379528 -0.019374,-0.00467323 -0.0287362,-0.00306693l-1.1811e-005 -5.90551e-005c-0.313531,0.0544528 -0.37435,0.174516 -0.364354,0.34848 -0.0652559,-0.157598 -0.0613425,-0.275972 -0.0575787,-0.390323 0.00638976,-0.193941 0.0124331,-0.377472 -0.252815,-0.686902 -0.0180827,-0.0211299 -0.0491457,-0.0245945 -0.0713425,-0.00870079 -0.00124409,0.000893701 -0.0024685,0.00185039 -0.00365748,0.00286614 -0.0241496,0.0199803 -0.0174488,0.0527441 -0.0172323,0.0545787 0.0241417,0.204819 -0.0713701,0.341626 -0.159992,0.468512 -0.144705,0.207193 -0.273528,0.391654 0.0219213,0.758047 0.0269921,0.0334724 0.0575236,0.0684646 0.0919094,0.10513 0.0201339,0.0213976 0.0538071,0.0224252 0.0752047,0.00229134 0.0213976,-0.0201339 0.0224252,-0.0538071 0.00229134,-0.0752047 -0.0102362,-0.0109134 -0.0200748,-0.0216496 -0.0295276,-0.0322165 -0.315449,-0.35252 -0.202516,-0.514228 -0.0747205,-0.697213z"/>
  <polygon class="fil4" points="4.48,2.22051 4.48,2.45699 4.8,2.68326 4.8,2.22051 "/>
  <polygon class="fil5" points="4.93597,4.20913 4.0293,4.20913 4.0293,5.74051 4.93597,5.74051 "/>
  <path class="fil4" d="M2.7558 3.36496l0 0zm0.45735 0.826189c0.113382,0.160736 0.179374,0.325402 0.183413,0.501945 0.00346457,0.151413 -0.0383268,0.275004 -0.11478,0.388512 -0.0384449,0.0570748 -0.0947087,0.12037 -0.147543,0.163654l8.26772e-005 9.84252e-005 -0.00122441 0.000992126 3.93701e-005 4.72441e-005c-0.261217,0.218413 -0.591075,0.186209 -0.833063,-0.045752 -0.0214764,-0.0205906 -0.0431142,-0.043752 -0.0648228,-0.0694961l-0.000153543 0.000129921c-0.0699488,-0.0829724 -0.11522,-0.181366 -0.137516,-0.290339 -0.00951969,-0.0465236 -0.014874,-0.0936339 -0.0162283,-0.142213l-4.72441e-005 -0.0472283c0.00539764,-0.117311 0.0206772,-0.189929 0.0550984,-0.303953l0.000165354 -0.000574803 -0.000192913 -5.90551e-005c0.0201102,-0.0670315 0.0560906,-0.149287 0.0876535,-0.204862 0.0351496,-0.0618937 0.0739685,-0.112906 0.119925,-0.153102 0.0349055,-0.0305315 0.0805079,-0.0398543 0.124122,-0.0277362 0.00391732,-0.0756575 0.0188346,-0.163508 0.0429803,-0.235016l-9.84252e-005 -3.54331e-005c0.0431575,-0.125882 0.10935,-0.242453 0.209559,-0.331976l0.0352559 -0.0292598 0.0176929 -0.0103701 -6.29921e-005 -0.000125984c0.0202559,-0.0101102 0.0451339,-0.0148504 0.0682126,-0.0132638l1.5748e-005 -0.00019685c0.0504528,0.00363386 0.095311,0.036311 0.114098,0.0836181 0.0075,0.018878 0.0109291,0.0416614 0.00897244,0.0625984 -0.00182283,0.0283268 -0.00225984,0.0713268 0.00401575,0.1265 0.0146732,0.128972 0.0602362,0.266965 0.129374,0.39626 0.0344921,0.0645 0.0650827,0.11139 0.115055,0.181205zm-0.796921 -0.516575l-0.988177 -3.93701e-006 -0.0551417 0 0 2.06594 2.49639 0 0 -1.61138c0,-0.0441811 0.0358189,-0.08 0.08,-0.08l1.06667 0c0.0441811,0 0.08,0.0358189 0.08,0.08l0 1.61138 0.357791 0 0 -2.06594 -2.36731 3.93701e-006c-0.0110827,-0.053563 -0.0205787,-0.12363 -0.0155472,-0.177457 0.000988189,-0.0105512 0.00105906,-0.00503937 0.00105906,-0.0197205 0,-0.00918898 -9.84252e-005,-0.00587402 -0.000413386,-0.0120866l-0.00023622 -0.0040748 0.0680118 0c-0.295449,-0.366394 -0.166626,-0.550854 -0.0219213,-0.758047 0.088622,-0.126886 0.184134,-0.263693 0.159992,-0.468512 -0.000216535,-0.00183465 -0.00691732,-0.0345984 0.0172323,-0.0545787 0.00118898,-0.00101575 0.00241339,-0.00197244 0.00365748,-0.00286614 0.0221969,-0.0158937 0.0532598,-0.0124291 0.0713425,0.00870079 0.265248,0.309429 0.259205,0.492961 0.252815,0.686902 -0.00376378,0.11435 -0.00767717,0.232724 0.0575787,0.390323 -0.00999606,-0.173965 0.0508228,-0.294028 0.364354,-0.34848l1.1811e-005 5.90551e-005c0.0093622,-0.0016063 0.0192717,-0.000728346 0.0287362,0.00306693 0.0272677,0.0109291 0.0405118,0.0418976 0.0295827,0.0691654 -0.0456181,0.114047 -0.0650472,0.21728 -0.0703386,0.308413 -0.00351575,0.0605551 -0.000830709,0.116 0.00455906,0.165854l1.49448 0 -0.680724 -0.481346c-0.00375197,-0.0023189 -0.00735433,-0.00486614 -0.0107795,-0.00761811l-0.527819 -0.373228c-0.000141732,-9.84252e-005 -0.000283465,-0.000200787 -0.000425197,-0.000299213l-0.898323 -0.635213 -2.11807 1.4977 0.071622 -3.93701e-006 1.1557 3.93701e-006c-0.0190472,0.0282756 -0.0364646,0.0576417 -0.0522441,0.087874 -0.0211654,0.0405394 -0.038374,0.082622 -0.0541142,0.125465z"/>
 </g>
 <rect class="fil6" width="6.82666" height="6.82666"/>
</svg>
