<?xml version="1.0" encoding="UTF-8"?>
<!DOCTYPE svg PUBLIC "-//W3C//DTD SVG 1.1//EN" "http://www.w3.org/Graphics/SVG/1.1/DTD/svg11.dtd">
<!-- Creator: CorelDRAW -->
<svg xmlns="http://www.w3.org/2000/svg" xml:space="preserve" width="6.82666in" height="6.82666in" style="shape-rendering:geometricPrecision; text-rendering:geometricPrecision; image-rendering:optimizeQuality; fill-rule:evenodd; clip-rule:evenodd"
viewBox="0 0 6.82666 6.82666"
 xmlns:xlink="http://www.w3.org/1999/xlink">
 <defs>
  <style type="text/css">
   <![CDATA[
    .fil4 {fill:none}
    .fil2 {fill:#949494}
    .fil3 {fill:#F45A52}
    .fil0 {fill:#FFEDDF}
    .fil1 {fill:#212121;fill-rule:nonzero}
   ]]>
  </style>
 </defs>
 <g id="Layer_x0020_1">
  <metadata id="CorelCorpID_0Corel-Layer"/>
  <path class="fil0" d="M2.88108 5.97332l0.424047 0c-0.0583071,-0.000700787 -0.105358,-0.048189 -0.105358,-0.106661l0 -1.43507 -0.106665 0c-0.117366,0 -0.225102,-0.000248031 -0.320004,-0.0467913l0 1.48187c0,0.0584724 0.0470512,0.105961 0.105358,0.106661l0.00131102 7.87402e-006 0.00131102 -7.87402e-006z"/>
  <path class="fil1" d="M2.03883 3.98033c-0.0471575,-0.0454528 -0.0914252,-0.0958937 -0.131398,-0.151827 -0.037063,-0.0518543 -0.0704567,-0.108724 -0.0990669,-0.171075 -0.0267874,-0.0583898 -0.0489724,-0.120413 -0.0655433,-0.186228 -0.0158031,-0.0627638 -0.0268543,-0.129571 -0.0323307,-0.200646 -0.00011811,-0.00156299 -0.000188976,-0.00312205 -0.000240157,-0.00467323l-0.000980315 -0.0107087c-0.000149606,-0.00222047 -0.000507874,-0.00829921 -0.00112205,-0.0194291 -0.000122047,-0.00220866 -0.000370079,-0.0082126 -0.000724409,-0.0177953 -7.08661e-005,-0.0019685 -0.000153543,-0.00453543 -0.00023622,-0.00770866 -0.000645669,-0.00475197 -0.000988189,-0.00960236 -0.000988189,-0.0145315l0 -0.0440157c0,-0.00174016 0.000185039,-0.00527165 0.000531496,-0.0104213 0.000125984,-0.00190945 0.000307087,-0.00380315 0.000531496,-0.0056811 0.00127559,-0.039315 0.00454724,-0.0810118 0.010185,-0.125016 0.00553937,-0.0432362 0.0133898,-0.0887441 0.0239055,-0.136429 0.0101496,-0.0460118 0.0225394,-0.093311 0.0374488,-0.141689 0.0140394,-0.0455591 0.0300906,-0.0919961 0.0483386,-0.139134 0.00164173,-0.00512598 0.00364961,-0.0100551 0.00598425,-0.0147638 0.0274843,-0.0685866 0.055748,-0.129437 0.0841378,-0.183382 0.0332362,-0.0631654 0.0678465,-0.119169 0.102417,-0.168614 0.0415157,-0.0593976 0.0822402,-0.108067 0.120224,-0.147748 0.0497677,-0.0519882 0.0958307,-0.0897638 0.13337,-0.116441 0.0226811,-0.0161299 0.0471102,-0.0274606 0.0721063,-0.0344882 0.0258031,-0.00724016 0.0523898,-0.00993701 0.0783661,-0.0086378 0.0147244,0.00073622 0.0283386,0.00248031 0.0406417,0.00514567 0.0127717,0.00275984 0.0258819,0.00683465 0.0390748,0.0121181 0.0130394,0.00522047 0.0252559,0.0113661 0.0363583,0.0183071 0.00744488,0.00465748 0.0146535,0.0097874 0.021563,0.0153622 0.00015748,-0.0826496 0.0081063,-0.166638 0.024252,-0.25074 0.0155984,-0.081252 0.039248,-0.162693 0.0713465,-0.243181l-0.000216535 -8.26772e-005 0.00229134 -0.00524409 3.14961e-005 -6.69291e-005c0.0310079,-0.0767598 0.0694409,-0.15163 0.115634,-0.223524 0.0449134,-0.0699016 0.097315,-0.137311 0.157496,-0.201264 0.0175197,-0.018626 0.0358425,-0.0369528 0.0549409,-0.0548583 0.0197559,-0.0185276 0.0392677,-0.0357953 0.0584409,-0.0516378 0.0198898,-0.016437 0.0405669,-0.0324882 0.0620039,-0.0480551 0.0193346,-0.0140394 0.040622,-0.0284291 0.0639173,-0.0431299 0.0044252,-0.00279921 0.00700787,-0.0043937 0.00798031,-0.00494094 0.00331102,-0.00186614 0.0060315,-0.00333858 0.00806693,-0.00435039 0.00166929,-0.000830709 0.00335039,-0.00161024 0.00503937,-0.00234646 0.00583465,-0.00297638 0.011122,-0.00542126 0.015874,-0.00734252 0.00252362,-0.00101969 0.00505512,-0.00194094 0.0076063,-0.00275591 0.00583465,-0.00211811 0.0119173,-0.00405118 0.0182244,-0.00579921 0.0107598,-0.00297638 0.0221102,-0.00519291 0.0338898,-0.00667717l0.00046063 -5.11811e-005 -4.33071e-005 -0.000366142c0.00934252,-0.00117323 0.0206181,-0.00167717 0.0335827,-0.0015315l0.000417323 7.87402e-006 0 -7.87402e-006 0.00684252 8.26772e-005c0.00153543,1.9685e-005 0.00305512,7.48031e-005 0.0045748,0.00015748l7.87402e-006 -0.00015748c0.0254921,0.00149213 0.050252,0.00683071 0.0729685,0.0154488 0.023748,0.00900394 0.0460157,0.0219016 0.0653976,0.0380709 0.021811,0.018185 0.0398189,0.0404291 0.0523228,0.0659921 0.0121102,0.0247677 0.0189094,0.0520039 0.019,0.0810591 0.000185039,0.00256693 0.000283465,0.00516142 0.000283465,0.00777559 0,0.00632283 -0.000551181,0.0125118 -0.0016063,0.0185354 -0.00390157,0.0510512 -0.00462992,0.128201 0.00932677,0.227843 0.0150472,0.107453 0.0471378,0.239126 0.11052,0.388858 0.043626,0.103071 0.101906,0.214429 0.179331,0.332083 0.0690433,0.104917 0.153272,0.214815 0.255835,0.328307l0.000181102 0.000208661 0.000232283 -0.000208661c0.00100394,0.00111417 0.00224803,0.00255512 0.0037126,0.00430315l1.9685e-005 -1.5748e-005c0.0263386,0.0299252 0.051063,0.0595984 0.0742677,0.0889961l-3.93701e-006 3.93701e-006c0.00545669,0.00691339 -0.0821693,0.094374 -0.145232,0.160539 -0.0266575,-0.0351535 -0.0558268,-0.0709055 -0.0877323,-0.107224 -0.00188976,-0.00207087 -0.00371654,-0.00422835 -0.00546457,-0.00648031 -0.0016378,-0.00210236 -0.000929134,-0.00139764 0.00019685,-0.000153543l1.9685e-005 -1.5748e-005c-0.109256,-0.12115 -0.199358,-0.238874 -0.273535,-0.351591 -0.0851496,-0.129394 -0.149409,-0.25226 -0.197661,-0.366248 -0.0718937,-0.169839 -0.108366,-0.319681 -0.12552,-0.442197 -0.0160591,-0.114646 -0.0152283,-0.207016 -0.0105945,-0.26987 -0.00261417,-0.000838583 -0.00529528,-0.0013622 -0.00793307,-0.00151575l3.93701e-006 -5.51181e-005 -0.00193701 -2.3622e-005c-0.000515748,2.75591e-005 -0.00250394,0.000255906 -0.00598819,0.000692913l-4.33071e-005 -0.000350394c-0.000925197,0.000141732 -0.00205118,0.000397638 -0.00336614,0.000759843 -0.000846457,0.000370079 -0.00170079,0.000724409 -0.00256299,0.0010748l-0.000870079 0.000338583c-0.00164567,0.000933071 -0.00332677,0.00182677 -0.00504331,0.0026811 -3.93701e-005,1.9685e-005 -3.54331e-005,1.1811e-005 -3.93701e-006,-7.87402e-006l-3.14961e-005 -6.69291e-005c-0.015685,0.00998031 -0.0323701,0.0214173 -0.0499291,0.0341654 -0.0172953,0.0125591 -0.0343661,0.0258307 -0.0511693,0.0397165 -0.0178858,0.0147795 -0.0340157,0.0289449 -0.0484409,0.0424724 -0.0159843,0.0149882 -0.031248,0.030248 -0.0457756,0.0456929 -0.0508819,0.0540709 -0.095248,0.111154 -0.133331,0.170429 -0.0394016,0.0613268 -0.0719449,0.124693 -0.0979094,0.189205l-0.000106299 -4.33071e-005 -0.000125984 0.00030315 -0.000728346 0.00184252 -2.75591e-005 -1.1811e-005 -0.001 0.00226772 6.69291e-005 2.75591e-005c-0.000669291,0.0015315 0.000688976,-0.00156693 0.00101969,-0.00225984l-5.90551e-005 -2.3622e-005 -0.00096063 0.00228346 -6.69291e-005 -2.75591e-005 -9.84252e-005 0.000224409 -0.000125984 0.000275591c-0.0261457,0.0659173 -0.0457008,0.133941 -0.0589646,0.203035 -0.0135039,0.0703504 -0.0200827,0.141827 -0.0200827,0.213291 0,0.0415669 -0.00142126,0.0830866 -0.00415354,0.123984 -0.00275591,0.0412323 -0.00675984,0.0791457 -0.0119055,0.113272 -0.00516535,0.034248 -0.0117441,0.0665906 -0.0196063,0.0965157 -0.00818504,0.031126 -0.0177362,0.058685 -0.0285512,0.0821417 -0.0088189,0.0191496 -0.0184409,0.0364921 -0.0285669,0.0518898 -0.0133071,0.0202244 -0.0270551,0.0360433 -0.040878,0.0474843l-0.000129921 -0.000153543c-0.000917323,0.000755906 -0.00183858,0.00150394 -0.0027874,0.00223622 -0.0464803,0.0358976 -0.113268,0.027315 -0.149165,-0.0191654l-0.00380315 -0.00491732 -0.00177953 -0.00243307c-0.000641732,-0.000854331 -0.00127559,-0.00172047 -0.0018937,-0.00260236 -0.0255315,-0.0361535 -0.0450709,-0.0879528 -0.0546535,-0.154508 -0.00694488,-0.0482283 -0.00911417,-0.106047 -0.00484252,-0.173146 -0.00073622,-0.000185039 -0.0016063,-0.000389764 -0.00261417,-0.000606299 -0.00272441,-0.000590551 -0.0046378,-0.000925197 -0.00564173,-0.000972441 -0.00371654,-0.000185039 -0.00741732,0.000169291 -0.0108622,0.00113386 -0.00244488,0.000685039 -0.00459843,0.00162598 -0.00627953,0.0028189 -0.0284961,0.020252 -0.0639567,0.0494409 -0.10337,0.0906142 -0.0317598,0.0331772 -0.0655,0.0734291 -0.0993898,0.121913 -0.0287008,0.0410551 -0.0583858,0.0893504 -0.088252,0.14611 -0.0260551,0.0495118 -0.0513898,0.103807 -0.0752165,0.163181 -0.000846457,0.00272441 -0.00181102,0.00542913 -0.00288976,0.00811811 -0.0178583,0.0457717 -0.0328858,0.0888465 -0.0453543,0.129319 -0.0137165,0.0445039 -0.0246969,0.0861378 -0.0332756,0.12502 -0.00908268,0.041189 -0.0158386,0.0802913 -0.0205748,0.117264 -0.00483465,0.0377441 -0.00759055,0.073252 -0.00861024,0.106472 2.75591e-005,0.00264567 -3.54331e-005,0.00530315 -0.000204724,0.00797638l6.69291e-005 0c3.93701e-006,-3.14961e-005 3.93701e-006,-3.54331e-005 3.93701e-006,0l0 0.0440157 -9.44882e-005 0c8.66142e-005,0.00354724 0.000251969,0.00846457 0.000484252,0.0147362 5.90551e-005,0.00166929 0.000299213,0.00614961 0.000724409,0.0136299 0.000129921,0.00240157 0.00053937,0.00844488 0.00112205,0.0169331l0.000409449 0.00633465c0.000350394,0.00243307 0.000625984,0.00488976 0.000811024,0.00737795 0.00451969,0.0586181 0.0135709,0.113488 0.0264961,0.164811 0.0136693,0.0542953 0.031315,0.104035 0.0522047,0.149567 0.0224252,0.0488701 0.0491024,0.0941535 0.0790669,0.136075 0.0318661,0.0445906 0.0674488,0.0850827 0.105571,0.121827 0.0404646,0.0390039 0.081563,0.0746929 0.123114,0.107055 0.0406339,0.0316457 0.0840394,0.0616181 0.129949,0.0898346 0.00646457,0.00397638 0.202531,0.0933071 0.209031,0.0971575 0.01,0.100323 0.182358,0.202276 0.233776,0.285228 -0.262295,-0.0751654 -0.488177,-0.136945 -0.703591,-0.304717 -0.0483228,-0.0376378 -0.0950079,-0.0780669 -0.139783,-0.121228zm2.32747 -1.23332c0.00770472,0.0166969 0.0149488,0.033248 0.021752,0.0496496 0.0625236,0.150752 0.0877244,0.289299 0.0911575,0.411264 0.00350787,0.124634 -0.0160512,0.231894 -0.0420669,0.317579 -0.0266142,0.0876575 -0.0592717,0.152083 -0.0816299,0.190394 -0.00116929,0.00200394 -0.00240551,0.00394882 -0.0036811,0.00585039 -0.0102992,0.0173819 -0.0219685,0.0359646 -0.0349409,0.0556693 -0.014378,0.0218425 -0.0282559,0.0417638 -0.0416339,0.0598543 -0.0161654,0.0218543 -0.0310236,0.0409094 -0.044626,0.0573268 -0.014815,0.0178701 -0.030685,0.0358622 -0.0474882,0.0539213 -0.0406378,0.0436496 -0.0832402,0.0846535 -0.127563,0.12298 -0.0451535,0.0390433 -0.0913031,0.0746339 -0.138236,0.106783 -0.00251181,0.0017126 -0.0050748,0.00329921 -0.00767323,0.00476772l-0.00177165 0.00114567c-0.0881378,0.0594449 -0.385161,0.195614 -0.673803,0.243969 0.0550354,-0.0823228 0.268795,-0.180839 0.280169,-0.282228 0.0654331,-0.00890945 0.25302,-0.123157 0.273307,-0.136791 0.00311417,-0.00239764 0.00638976,-0.00464961 0.00982283,-0.00673228 0.0411299,-0.0281732 0.080874,-0.0587677 0.11902,-0.091748 0.0377835,-0.0326772 0.074811,-0.0683898 0.110894,-0.107146 0.0123898,-0.013315 0.0254331,-0.0282008 0.0391575,-0.0447559 0.0142795,-0.0172323 0.0269882,-0.0333307 0.0379567,-0.0481614 0.0128622,-0.0173937 0.0245551,-0.0340433 0.0349646,-0.0498543 0.0047874,-0.00727559 0.00979921,-0.0151496 0.0150276,-0.0236299 0.116815,-0.120008 0.246484,-0.517224 0.211886,-0.890106zm-2.44714 0.408421l1.1811e-005 0 5.51181e-005 -0.000413386 -2.75591e-005 -3.93701e-006 -3.93701e-005 0.000417323zm7.48031e-005 3.93701e-006c-0.000185039,0.00273622 0.000244094,-0.0033189 0.000299213,-0.00374409l-6.69291e-005 0 -0.00011811 0.00167323 -0.000114173 0.00207087zm-6.29921e-005 -3.93701e-006l-1.1811e-005 0 -2.75591e-005 0.000299213 3.93701e-005 -0.000299213zm0.935906 -1.60176c7.87402e-005,-0.000165354 9.84252e-005,-0.000192913 1.9685e-005,7.87402e-006l-1.9685e-005 -7.87402e-006zm0.429776 -0.525276l-0.00124409 0.000787402 3.14961e-005 5.90551e-005c0.000700787,-0.000492126 0.00283465,-0.00187402 0.0012126,-0.000846457zm-0.00124409 0.000787402l-0.0010748 0.000681102 3.14961e-005 6.69291e-005c0.000232283,-0.000145669 0.002,-0.00114567 0.00110236,-0.000641732 -0.00034252,0.000192913 -0.000275591,0.000129921 -2.75591e-005,-4.72441e-005l-3.14961e-005 -5.90551e-005zm0.636126 1.42941l-0.00104724 -0.00116142 -2.3622e-005 1.9685e-005 0.00103937 0.00116929 3.14961e-005 -2.75591e-005zm-0.00104724 -0.00116142l-0.00106693 -0.00118504 -1.9685e-005 1.5748e-005 0.00106299 0.00118898 2.3622e-005 -1.9685e-005zm-0.000192913 0.000161417l0.00101181 0.00120472 1.1811e-005 -1.1811e-005 -0.00102362 -0.00119291zm-0.0105945 1.72661c-0.00114961,0.000751969 -0.00167323,0.00109843 -0.0019252,0.00124409"/>
  <path class="fil1" d="M4.364 3.6942c-0.034748,0.0474016 -0.10135,0.0576654 -0.148752,0.0229173 -0.0474016,-0.034748 -0.0576654,-0.10135 -0.0229173,-0.148752 0.265591,-0.423028 0.173972,-0.821354 0.0498543,-1.31485 -0.0268307,0.0583622 -0.0569843,0.111646 -0.0894567,0.16078 -0.0132087,0.0199803 -0.0385276,0.0332126 -0.0524449,0.0518858 -0.0349764,0.0471732 -0.0898583,0.0631339 -0.137031,0.0281575 -0.0471732,-0.0349764 -0.0570591,-0.101579 -0.0220827,-0.148752 0.0444921,-0.0597047 0.0847126,-0.12613 0.11735,-0.201661 0.0322126,-0.0745394 0.0576102,-0.158819 0.0732362,-0.255406 0.00377559,-0.0410984 0.0313937,-0.0780079 0.0731299,-0.0915748 0.0559173,-0.0181772 0.115992,0.0124173 0.134169,0.0683346 0.00227559,0.00694488 0.0179843,0.0542953 0.0384055,0.116039 0.177094,0.685283 0.321429,1.18614 -0.0134606,1.71288z"/>
  <path class="fil1" d="M2.98644 5.86666c0,0.0589094 -0.0477598,0.106669 -0.106669,0.106669 -0.0589094,0 -0.106669,-0.0477598 -0.106669,-0.106669l0 -1.54174c0,-0.0589094 0.0477598,-0.106669 0.106669,-0.106669l0.426669 0c0.0589094,0 0.106669,0.0477598 0.106669,0.106669l0 1.54174c0,0.0589094 -0.0477598,0.106669 -0.106669,0.106669 -0.0589094,0 -0.106669,-0.0477598 -0.106669,-0.106669l0 -1.43507 -0.213331 0 0 1.43507z"/>
  <path class="fil1" d="M3.09311 3.05825c0.159008,0 0.298016,0.104118 0.394197,0.272445 0.0859646,0.150441 0.139138,0.355965 0.139138,0.58089 0,0.248146 -0.0659134,0.378173 -0.172472,0.449642 -0.104413,0.0700354 -0.226315,0.0703622 -0.360862,0.0703622 -0.134555,0 -0.256449,-0.000326772 -0.360862,-0.0703622 -0.106559,-0.0714685 -0.172472,-0.201496 -0.172472,-0.449642 0,-0.224925 0.0531732,-0.430449 0.139138,-0.58089 0.0961811,-0.168327 0.235189,-0.272445 0.394197,-0.272445zm0.209197 0.37828c-0.0582283,-0.101906 -0.132567,-0.164941 -0.209197,-0.164941 -0.0766299,0 -0.150969,0.0630354 -0.209197,0.164941 -0.0684567,0.119799 -0.110799,0.287618 -0.110799,0.475055 0,0.16422 0.0296063,0.240874 0.0774646,0.272972 0.0499961,0.0335354 0.141445,0.0336929 0.242531,0.0336929 0.101087,0 0.192535,-0.00015748 0.242531,-0.0336929 0.0478583,-0.0320984 0.0774646,-0.108752 0.0774646,-0.272972 0,-0.187437 -0.0423425,-0.355256 -0.110799,-0.475055z"/>
  <path class="fil2" d="M3.3023 3.43653c-0.0582283,-0.101906 -0.132567,-0.164941 -0.209197,-0.164941 -0.0766299,0 -0.150969,0.0630354 -0.209197,0.164941 -0.0684567,0.119799 -0.110799,0.287618 -0.110799,0.475055 0,0.16422 0.0296063,0.240874 0.0774646,0.272972 0.0499961,0.0335354 0.141445,0.0336929 0.242531,0.0336929 0.101087,0 0.192535,-0.00015748 0.242531,-0.0336929 0.0478583,-0.0320984 0.0774646,-0.108752 0.0774646,-0.272972 0,-0.187437 -0.0423425,-0.355256 -0.110799,-0.475055z"/>
  <path class="fil3" d="M3.91763 2.45624l0 0zm-1.06252 -0.902563c7.87402e-005,-0.000200787 5.90551e-005,-0.000173228 0,0zm-1.9685e-005 -7.87402e-006l0 0zm0.238024 1.50458c0.159008,0 0.298016,0.104118 0.394197,0.272445 0.0859646,0.150441 0.139138,0.355965 0.139138,0.58089 0,0.0770276 -0.00635039,0.142673 -0.0182992,0.19872 0.0768307,-0.0375315 0.165819,-0.0920118 0.179437,-0.101161 0.00311417,-0.00239764 0.00638976,-0.00464961 0.00982283,-0.00673228 0.0411299,-0.0281732 0.080874,-0.0587677 0.11902,-0.091748 0.0841102,-0.0727323 0.161429,-0.156409 0.222972,-0.249917 0.0047874,-0.00727559 0.00979921,-0.0151496 0.0150276,-0.0236299 0.0061063,-0.00627165 0.0122441,-0.0132992 0.0183937,-0.0210433 0.00240157,-0.0167283 0.00883071,-0.033126 0.0195197,-0.0477087 0.0421181,-0.0670866 0.075252,-0.133551 0.100701,-0.19987 0.0302165,-0.0923189 0.0546299,-0.199378 0.0679409,-0.31215 0.0170394,-0.250799 -0.0451575,-0.510067 -0.118787,-0.802827 -0.0259724,0.0564961 -0.0550591,0.108232 -0.0863504,0.156059 0.00545669,0.00691339 -0.0821693,0.094374 -0.145232,0.160539 -0.0266575,-0.0351535 -0.0558268,-0.0709055 -0.0877323,-0.107224l-0.00524803 -0.00664961c-0.303016,-0.336004 -0.537469,-0.736976 -0.596717,-1.16004 -0.0160591,-0.114646 -0.0152283,-0.207016 -0.0105945,-0.26987 -0.00261417,-0.000838583 -0.00529528,-0.0013622 -0.00793307,-0.00151575l3.93701e-006 -5.51181e-005 -0.0079252 0.000669291 -4.33071e-005 -0.000350394 -0.0118465 0.00484646 -3.14961e-005 -6.69291e-005c-0.191563,0.12189 -0.343185,0.314543 -0.426555,0.521681l-0.000106299 -4.33071e-005 -0.000854331 0.00214567 5.90551e-005 2.3622e-005c-0.000330709,0.000692913 -0.00168898,0.00379134 -0.00101969,0.00225984l-6.69291e-005 -2.75591e-005 -0.000224409 0.0005c-0.0261457,0.0659173 -0.0457008,0.133941 -0.0589646,0.203035 -0.0135039,0.0703504 -0.0200827,0.141827 -0.0200827,0.213291 0,0.125661 -0.0126417,0.303988 -0.0642165,0.415913 -0.016937,0.036752 -0.0409331,0.0757756 -0.0694449,0.099374l-0.000129921 -0.000153543 -0.0027874 0.00223622c-0.0464803,0.0358976 -0.113268,0.027315 -0.149165,-0.0191654 -0.0656417,-0.0849331 -0.0746417,-0.21713 -0.0669724,-0.337606 -0.00870472,-0.00218898 -0.0182362,-0.0027126 -0.0253976,0.00237402 -0.119087,0.0845709 -0.217685,0.219291 -0.291012,0.358638 -0.0858937,0.163232 -0.154244,0.362831 -0.177311,0.542902 -0.00483465,0.0377441 -0.00759055,0.073252 -0.00861024,0.106472 2.75591e-005,0.00264567 -3.54331e-005,0.00530315 -0.000204724,0.00797638l6.69291e-005 0 3.93701e-006 0.0440157 -9.44882e-005 0c0.00308661,0.126461 0.0308858,0.261437 0.082252,0.37339 0.0699094,0.152362 0.17852,0.264307 0.307752,0.364957 0.0406339,0.0316457 0.0840394,0.0616181 0.129949,0.0898346 0.00386614,0.00237795 0.0755669,0.0352953 0.133961,0.062189 -0.00890157,-0.0505118 -0.0135906,-0.108299 -0.0135906,-0.174492 0,-0.224925 0.0531732,-0.430449 0.139138,-0.58089 0.0961811,-0.168327 0.235189,-0.272445 0.394197,-0.272445z"/>
 </g>
 <rect class="fil4" width="6.82666" height="6.82666"/>
</svg>
