<?xml version="1.0" encoding="UTF-8"?>
<!DOCTYPE svg PUBLIC "-//W3C//DTD SVG 1.1//EN" "http://www.w3.org/Graphics/SVG/1.1/DTD/svg11.dtd">
<!-- Creator: CorelDRAW -->
<svg xmlns="http://www.w3.org/2000/svg" xml:space="preserve" width="6.82666in" height="6.82666in" style="shape-rendering:geometricPrecision; text-rendering:geometricPrecision; image-rendering:optimizeQuality; fill-rule:evenodd; clip-rule:evenodd"
viewBox="0 0 6.82666 6.82666"
 xmlns:xlink="http://www.w3.org/1999/xlink">
 <defs>
  <style type="text/css">
   <![CDATA[
    .fil4 {fill:none}
    .fil3 {fill:#63CBE5}
    .fil2 {fill:#F45A52}
    .fil1 {fill:#FECA5F}
    .fil0 {fill:#212121;fill-rule:nonzero}
   ]]>
  </style>
 </defs>
 <g id="Layer_x0020_1">
  <metadata id="CorelCorpID_0Corel-Layer"/>
  <g id="_516418240">
   <g>
    <path id="_516418552" class="fil0" d="M3.41333 1.80307c0.343303,0 0.655327,0.14037 0.881465,0.366508 0.226142,0.226142 0.366512,0.538161 0.366512,0.881461l0 1.82609c0,0.0589094 -0.0477598,0.106669 -0.106669,0.106669l-2.28261 0c-0.0589094,0 -0.106669,-0.0477598 -0.106669,-0.106669l0 -1.82609c0,-0.343299 0.14037,-0.655323 0.366508,-0.881461 0.226142,-0.226142 0.538165,-0.366508 0.881465,-0.366508zm0.73063 0.517343c-0.187571,-0.187571 -0.446213,-0.304004 -0.73063,-0.304004 -0.284413,0 -0.543055,0.116429 -0.73063,0.304004 -0.187571,0.187571 -0.304004,0.446213 -0.304004,0.730626l0 1.71942 2.06927 0 0 -1.71942c0,-0.284413 -0.116433,-0.543051 -0.304008,-0.730626z"/>
    <path id="_516418816" class="fil0" d="M1.95174 4.98379c-0.0589094,0 -0.106669,-0.0477598 -0.106669,-0.106669 0,-0.0589094 0.0477598,-0.106669 0.106669,-0.106669l2.92317 0c0.0589094,0 0.106669,0.0477598 0.106669,0.106669 0,0.0589094 -0.0477598,0.106669 -0.106669,0.106669l-2.92317 0z"/>
    <path id="_516418960" class="fil0" d="M5.39239 5.32619l-3.95813 0 -0.153012 0.433803 4.26415 0 -0.153012 -0.433803zm-4.03341 -0.213339l4.1087 0 0 0.000169291c0.0438898,0 0.0849882,0.0273386 0.100417,0.0710827l0.226008 0.640772c0.0054685,0.0128346 0.0085,0.0269567 0.0085,0.0417874 0,0.0589094 -0.0477598,0.106669 -0.106669,0.106669l-4.56521 0 0 -0.000169291c-0.011752,0 -0.0237047,-0.00195276 -0.0354173,-0.00608268 -0.0554567,-0.0195591 -0.0845591,-0.080378 -0.065,-0.135835l0.226012 -0.64078c0.0126535,-0.0447874 0.0538228,-0.0776142 0.102661,-0.0776142z"/>
    <path id="_516419296" class="fil0" d="M3.30666 4.07822c0,-0.0589094 0.0477598,-0.106669 0.106669,-0.106669 0.0589094,0 0.106669,0.0477598 0.106669,0.106669l0 0.798909c0,0.0589094 -0.0477598,0.106669 -0.106669,0.106669 -0.0589094,0 -0.106669,-0.0477598 -0.106669,-0.106669l0 -0.798909z"/>
    <path id="_516419272" class="fil0" d="M3.41333 3.97155c0.124402,0 0.239961,-0.0779764 0.326213,-0.204043 0.0943937,-0.137965 0.152787,-0.330622 0.152787,-0.545268 0,-0.214642 -0.0583937,-0.407303 -0.152787,-0.545268 -0.086252,-0.126063 -0.201811,-0.204039 -0.326213,-0.204039 -0.124402,0 -0.239961,0.0779764 -0.326213,0.204039 -0.0943937,0.137965 -0.152787,0.330626 -0.152787,0.545268 0,0.214646 0.0583937,0.407303 0.152787,0.545268 0.086252,0.126067 0.201811,0.204043 0.326213,0.204043zm0.502047 -0.0840433c-0.125709,0.183736 -0.303004,0.297382 -0.502047,0.297382 -0.199043,0 -0.376339,-0.113646 -0.502047,-0.297382 -0.117567,-0.171831 -0.190291,-0.407165 -0.190291,-0.665268 0,-0.258098 0.0727244,-0.493437 0.190291,-0.665268 0.125709,-0.183732 0.302996,-0.297378 0.502047,-0.297378 0.199051,0 0.376339,0.113646 0.502047,0.297378 0.117567,0.171831 0.190291,0.407169 0.190291,0.665268 0,0.258102 -0.0727244,0.493437 -0.190291,0.665268z"/>
   </g>
   <path id="_516418408" class="fil0" d="M3.36 0.96c0,-0.0294528 0.0238819,-0.0533346 0.0533346,-0.0533346 0.0294528,0 0.0533346,0.0238819 0.0533346,0.0533346l0 0.556382c0,0.0294528 -0.0238819,0.0533346 -0.0533346,0.0533346 -0.0294528,0 -0.0533346,-0.0238819 -0.0533346,-0.0533346l0 -0.556382z"/>
   <path id="_516417832" class="fil0" d="M1.17657 3.25009c-0.0294528,0 -0.0533346,-0.0238819 -0.0533346,-0.0533346 0,-0.0294528 0.0238819,-0.0533346 0.0533346,-0.0533346l0.556382 0c0.0294528,0 0.0533346,0.0238819 0.0533346,0.0533346 0,0.0294528 -0.0238819,0.0533346 -0.0533346,0.0533346l-0.556382 0z"/>
   <path id="_516418192" class="fil0" d="M1.794 1.65284c-0.0208228,-0.0208228 -0.0208228,-0.0545945 0,-0.0754173 0.0208228,-0.0208228 0.0545945,-0.0208228 0.0754173,0l0.393417 0.393421c0.0208228,0.0208228 0.0208228,0.0545945 0,0.0754173 -0.0208228,0.0208228 -0.0545945,0.0208228 -0.0754173,0l-0.393417 -0.393421z"/>
   <path id="_516418144" class="fil0" d="M4.95725 1.57742c0.0208228,-0.0208228 0.0545945,-0.0208228 0.0754173,0 0.0208228,0.0208228 0.0208228,0.0545945 0,0.0754173l-0.393417 0.393421c-0.0208228,0.0208228 -0.0545945,0.0208228 -0.0754173,0 -0.0208228,-0.0208228 -0.0208228,-0.0545945 0,-0.0754173l0.393417 -0.393421z"/>
   <path id="_516417952" class="fil0" d="M4.13707 1.28152c0.0110433,-0.0272677 0.0421063,-0.0404173 0.069374,-0.029374 0.0272677,0.0110433 0.0404173,0.0421063 0.029374,0.069374l-0.138421 0.339335c-0.0110433,0.0272677 -0.0421063,0.0404173 -0.069374,0.029374 -0.0272677,-0.0110433 -0.0404173,-0.0421063 -0.029374,-0.069374l0.138421 -0.339335z"/>
   <path id="_516417880" class="fil0" d="M5.32228 2.38577c0.0269213,-0.0116181 0.0581732,0.000783465 0.0697913,0.0277047 0.0116181,0.0269213 -0.000783465,0.0581732 -0.0277047,0.0697913l-0.336374 0.145469c-0.0269213,0.0116181 -0.0581732,-0.000783465 -0.0697913,-0.0277047 -0.0116181,-0.0269213 0.000783465,-0.0581732 0.0277047,-0.0697913l0.336374 -0.145469z"/>
   <path id="_516418072" class="fil0" d="M1.48245 2.46213c-0.0269213,-0.0116181 -0.0393228,-0.0428701 -0.0277047,-0.0697913 0.0116181,-0.0269213 0.0428701,-0.0393228 0.0697913,-0.0277047l0.336374 0.145472c0.0269213,0.0116181 0.0393228,0.0428701 0.0277047,0.0697913 -0.0116181,0.0269213 -0.0428701,0.0393228 -0.0697913,0.0277047l-0.336374 -0.145472z"/>
   <path id="_516417976" class="fil0" d="M2.60895 1.28462c-0.00977953,-0.0277283 0.00477165,-0.0581378 0.0325,-0.0679173 0.0277283,-0.00977953 0.0581378,0.00477165 0.0679173,0.0325l0.122909 0.34526c0.00977953,0.0277283 -0.00477165,0.0581378 -0.0325,0.0679173 -0.0277283,0.00977953 -0.0581378,-0.00477165 -0.0679173,-0.0325l-0.122909 -0.34526z"/>
   <path id="_516418288" class="fil0" d="M5.65009 3.14343c0.0294528,0 0.0533346,0.0238819 0.0533346,0.0533346 0,0.0294528 -0.0238819,0.0533346 -0.0533346,0.0533346l-0.556382 0c-0.0294528,0 -0.0533346,-0.0238819 -0.0533346,-0.0533346 0,-0.0294528 0.0238819,-0.0533346 0.0533346,-0.0533346l0.556382 0z"/>
  </g>
  <path class="fil1" d="M3.89233 3.22224c0,-0.214642 -0.0583937,-0.407303 -0.152787,-0.545268 -0.086252,-0.126063 -0.201811,-0.204039 -0.326213,-0.204039 -0.124402,0 -0.239961,0.0779764 -0.326213,0.204039 -0.0943937,0.137965 -0.152787,0.330626 -0.152787,0.545268 0,0.214646 0.0583937,0.407303 0.152787,0.545268 0.086252,0.126067 0.201811,0.204043 0.326213,0.204043 0.124402,0 0.239961,-0.0779764 0.326213,-0.204043 0.0943937,-0.137965 0.152787,-0.330622 0.152787,-0.545268z"/>
  <path class="fil2" d="M4.10567 3.22224c0,0.258102 -0.0727244,0.493437 -0.190291,0.665268 -0.102756,0.150189 -0.239984,0.253547 -0.395382,0.286283l0 0.596661 0.927965 7.87402e-006 0 -1.71942c0,-0.284413 -0.116433,-0.543051 -0.304008,-0.730626 -0.187571,-0.187571 -0.446213,-0.304004 -0.73063,-0.304004 -0.284413,0 -0.543055,0.116429 -0.73063,0.304004 -0.187571,0.187571 -0.304004,0.446213 -0.304004,0.730626l0 1.71942 0.927969 0 0 -0.596673c-0.155394,-0.0327362 -0.292618,-0.136091 -0.395374,-0.28628 -0.117567,-0.171831 -0.190291,-0.407165 -0.190291,-0.665268 0,-0.258098 0.0727244,-0.493437 0.190291,-0.665268 0.125709,-0.183732 0.302996,-0.297378 0.502047,-0.297378 0.199051,0 0.376339,0.113646 0.502047,0.297378 0.117567,0.171831 0.190291,0.407169 0.190291,0.665268z"/>
  <polygon class="fil3" points="5.39239,5.32619 1.43427,5.32619 1.28126,5.76 5.54541,5.76 "/>
 </g>
 <rect class="fil4" width="6.82666" height="6.82666"/>
</svg>
