<?xml version="1.0" encoding="UTF-8"?>
<!DOCTYPE svg PUBLIC "-//W3C//DTD SVG 1.1//EN" "http://www.w3.org/Graphics/SVG/1.1/DTD/svg11.dtd">
<!-- Creator: CorelDRAW -->
<svg xmlns="http://www.w3.org/2000/svg" xml:space="preserve" width="6.82666in" height="6.82666in" style="shape-rendering:geometricPrecision; text-rendering:geometricPrecision; image-rendering:optimizeQuality; fill-rule:evenodd; clip-rule:evenodd"
viewBox="0 0 6.82666 6.82666"
 xmlns:xlink="http://www.w3.org/1999/xlink">
 <defs>
  <style type="text/css">
   <![CDATA[
    .fil3 {fill:none}
    .fil1 {fill:#949494}
    .fil2 {fill:#EBE5DF}
    .fil0 {fill:#212121;fill-rule:nonzero}
   ]]>
  </style>
 </defs>
 <g id="Layer_x0020_1">
  <metadata id="CorelCorpID_0Corel-Layer"/>
  <g id="_516420832">
   <path id="_516448120" class="fil0" d="M2.08593 4.46034c0.0289921,0.0510827 0.0110827,0.116008 -0.04,0.145 -0.0510827,0.0289921 -0.116008,0.0110827 -0.145,-0.04 -0.179276,-0.314622 -0.322528,-0.663295 -0.421988,-1.00249 -0.104402,-0.356051 -0.161043,-0.702654 -0.161043,-0.990028 0,-0.564307 0.0974646,-0.934913 0.286898,-1.19719 0.192035,-0.265866 0.470626,-0.412331 0.832854,-0.529713 0.0314409,-0.0100906 0.0641339,-0.00478346 0.0899213,0.0117441 0.140224,0.0801063 0.28711,0.143531 0.43926,0.186524 0.144398,0.0408071 0.293642,0.0628504 0.4465,0.0628504 0.152858,0 0.302102,-0.0220433 0.4465,-0.0628504 0.15378,-0.0434528 0.302181,-0.107776 0.443764,-0.189098 0.0269764,-0.0155039 0.0579094,-0.0178465 0.085374,-0.00903937l4.33071e-005 -0.000129921c0.362228,0.117382 0.640819,0.263846 0.832854,0.529713 0.189433,0.262276 0.286898,0.632882 0.286898,1.19719 0,0.287374 -0.0566378,0.633988 -0.161039,0.990043 -0.0994528,0.339185 -0.242709,0.687862 -0.42198,1.00248 -0.0289921,0.0510827 -0.0939173,0.0689921 -0.145,0.04 -0.0510827,-0.0289921 -0.0689921,-0.0939173 -0.04,-0.145 0.170909,-0.299941 0.307677,-0.633008 0.402815,-0.957476 0.0984528,-0.335776 0.151866,-0.661386 0.151866,-0.930043 0,-0.516602 -0.0835906,-0.848079 -0.246063,-1.07302 -0.152591,-0.211264 -0.382,-0.335583 -0.681894,-0.436988 -0.144732,0.0793819 -0.295197,0.142598 -0.450134,0.186378 -0.163555,0.0462205 -0.332051,0.071189 -0.504004,0.071189 -0.171953,0 -0.340449,-0.0249685 -0.504004,-0.071189 -0.154937,-0.0437795 -0.305402,-0.106996 -0.450134,-0.186378 -0.299894,0.101406 -0.529303,0.225724 -0.681894,0.436988 -0.162472,0.224945 -0.246063,0.556421 -0.246063,1.07302 0,0.268661 0.0534173,0.59426 0.15187,0.930028 0.0951417,0.324472 0.231906,0.657535 0.402823,0.957488zm2.43157 0.344232c0.0349764,-0.0471732 0.101579,-0.0570591 0.148752,-0.0220827 0.0471732,0.0349764 0.0570591,0.101579 0.0220827,0.148752 -0.177677,0.239665 -0.380386,0.442622 -0.603803,0.582524 -0.208067,0.130287 -0.432961,0.20572 -0.671197,0.20572 -0.234461,0 -0.455543,-0.0725433 -0.660067,-0.198217 -0.21911,-0.13463 -0.418921,-0.330724 -0.595236,-0.56339 -0.035437,-0.0469409 -0.0261063,-0.113728 0.0208346,-0.149165 0.0469409,-0.035437 0.113728,-0.0261063 0.149165,0.0208346 0.160709,0.212071 0.341114,0.389748 0.536906,0.510051 0.171843,0.105594 0.355709,0.166547 0.548398,0.166547 0.197035,0 0.384343,-0.0632087 0.558693,-0.172382 0.198996,-0.12461 0.382402,-0.309228 0.545472,-0.529193z"/>
   <path id="_516418888" class="fil0" d="M3.19328 2.73282c0,0.191425 -0.11772,0.496012 -0.281028,0.731035 -0.142531,0.20511 -0.323858,0.362291 -0.503114,0.362291 -0.173524,0 -0.32126,-0.19178 -0.43339,-0.442709 -0.147327,-0.329685 -0.242425,-0.772453 -0.242425,-0.970614 0,-0.268858 0.11815,-0.42426 0.289768,-0.491752 0.0841024,-0.0330748 0.18037,-0.0431732 0.28078,-0.0337992 0.0967126,0.00902756 0.197728,0.0362795 0.295291,0.0784449 0.312193,0.134917 0.594118,0.426315 0.594118,0.767102zm-0.41228 0.639783c0.146602,-0.21098 0.25228,-0.477594 0.25228,-0.639783 0,-0.271083 -0.235957,-0.507933 -0.497244,-0.62085 -0.0823268,-0.0355787 -0.166689,-0.0584921 -0.246543,-0.0659488 -0.0761457,-0.00711024 -0.147673,-3.54331e-005 -0.208276,0.0237992 -0.11128,0.0437638 -0.187894,0.151496 -0.187894,0.343004 0,0.182969 0.0894567,0.59548 0.228047,0.905614 0.0880669,0.197087 0.190244,0.347709 0.287768,0.347709 0.119724,0 0.256378,-0.127358 0.371862,-0.293543z"/>
   <path id="_516442312" class="fil0" d="M3.79338 2.73282c0,0.162189 0.105677,0.428803 0.25228,0.639783 0.115484,0.166185 0.252138,0.293543 0.371862,0.293543 0.0975236,0 0.199701,-0.150622 0.287768,-0.347709 0.138591,-0.310134 0.228047,-0.722646 0.228047,-0.905614 0,-0.191508 -0.0766142,-0.29924 -0.187894,-0.343004 -0.0606024,-0.0238346 -0.13213,-0.0309094 -0.208276,-0.0237992 -0.0798543,0.00745669 -0.164217,0.0303701 -0.246543,0.0659488 -0.261287,0.112917 -0.497244,0.349768 -0.497244,0.62085zm0.121028 0.731035c-0.163307,-0.235024 -0.281028,-0.53961 -0.281028,-0.731035 0,-0.340787 0.281925,-0.632185 0.594118,-0.767102 0.097563,-0.0421654 0.198579,-0.0694173 0.295291,-0.0784449 0.100409,-0.00937402 0.196677,0.000724409 0.28078,0.0337992 0.171618,0.0674921 0.289768,0.222894 0.289768,0.491752 0,0.198161 -0.0950984,0.640929 -0.242425,0.970614 -0.11213,0.250929 -0.259866,0.442709 -0.43339,0.442709 -0.179256,0 -0.360583,-0.157181 -0.503114,-0.362291z"/>
   <path id="_516433384" class="fil0" d="M3.41333 3.90215c0.169358,0 0.322697,0.0686575 0.433685,0.179646 0.110996,0.110996 0.179646,0.264327 0.179646,0.433685 0,0.169358 -0.0686535,0.322697 -0.179646,0.433685 -0.110988,0.110992 -0.264327,0.179646 -0.433685,0.179646 -0.169358,0 -0.322697,-0.0686535 -0.433685,-0.179646 -0.110992,-0.110988 -0.179646,-0.264327 -0.179646,-0.433685 0,-0.169358 0.0686496,-0.322689 0.179646,-0.433685 0.110988,-0.110988 0.264327,-0.179646 0.433685,-0.179646zm0.320559 0.292772c-0.0820276,-0.0820276 -0.19537,-0.132772 -0.320559,-0.132772 -0.125189,0 -0.238531,0.0507441 -0.320559,0.132772 -0.0820315,0.0820315 -0.132772,0.19537 -0.132772,0.320559 0,0.125189 0.0507402,0.238531 0.132772,0.320559 0.0820276,0.0820315 0.19537,0.132772 0.320559,0.132772 0.125189,0 0.238531,-0.0507402 0.320559,-0.132772 0.0820315,-0.0820276 0.132772,-0.19537 0.132772,-0.320559 0,-0.125189 -0.0507402,-0.238528 -0.132772,-0.320559z"/>
   <path id="_516429736" class="fil0" d="M3.41333 4.24881c0.0736339,0 0.140303,0.0298543 0.188559,0.0781102 0.0482559,0.0482559 0.0781102,0.114929 0.0781102,0.188559 0,0.0736339 -0.0298543,0.140303 -0.0781102,0.188559 -0.0482559,0.0482559 -0.114925,0.0781102 -0.188559,0.0781102 -0.0736339,0 -0.140303,-0.0298543 -0.188559,-0.0781102 -0.0482559,-0.0482559 -0.0781102,-0.114925 -0.0781102,-0.188559 0,-0.0736299 0.0298543,-0.140303 0.0781102,-0.188559 0.0482559,-0.0482559 0.114925,-0.0781102 0.188559,-0.0781102zm0.113142 0.153528c-0.0289488,-0.0289488 -0.0689528,-0.0468583 -0.113142,-0.0468583 -0.044189,0 -0.0841929,0.0179094 -0.113142,0.0468583 -0.0289488,0.0289488 -0.0468583,0.0689567 -0.0468583,0.113142 0,0.044189 0.0179094,0.0841929 0.0468583,0.113142 0.0289488,0.0289488 0.0689528,0.0468583 0.113142,0.0468583 0.044189,0 0.0841929,-0.0179094 0.113142,-0.0468583 0.0289488,-0.0289488 0.0468583,-0.0689528 0.0468583,-0.113142 0,-0.044185 -0.0179094,-0.0841929 -0.0468583,-0.113142z"/>
   <path id="_516422800" class="fil0" d="M1.9092 4.71028l0.126283 0.166665 0.336894 -0.255264 -0.126283 -0.166669 -0.336894 0.255268zm0.0207165 0.380031l-0.254917 -0.336433c-0.035437,-0.0469409 -0.0261063,-0.113728 0.0208346,-0.149165l0.506661 -0.383906c0.0469409,-0.035437 0.113728,-0.0261063 0.149165,0.0208346l0.254917 0.336441c0.035437,0.0469409 0.0261063,0.113728 -0.0208346,0.149165l-0.506661 0.383898c-0.0469409,0.035437 -0.113728,0.0261063 -0.149165,-0.0208346z"/>
   <path id="_516420280" class="fil0" d="M1.02112 4.81246c0.0373346,0.215811 0.127551,0.426429 0.258358,0.599067 0.120031,0.158409 0.273945,0.283654 0.45161,0.349185l0.427362 -0.323819 -0.71539 -0.944142 -0.421941 0.319709zm0.0883583 0.727398c-0.163102,-0.21526 -0.271488,-0.482272 -0.307193,-0.753047 -0.0078937,-0.0389252 0.00640157,-0.0807205 0.0402165,-0.106248l0.556961 -0.422012c0.0469409,-0.035437 0.113728,-0.0261063 0.149165,0.0208346l0.844024 1.11391c0.035437,0.0469409 0.0261063,0.113728 -0.0208346,0.149165l-0.555106 0.420614c-0.0262913,0.0207244 -0.0619134,0.0287677 -0.0964331,0.0184843 -0.244677,-0.0729094 -0.45339,-0.233957 -0.610799,-0.441701z"/>
   <path id="_516420208" class="fil0" d="M5.15167 4.75388l-0.254917 0.336433c-0.035437,0.0469409 -0.102224,0.0562717 -0.149165,0.0208346l-0.506661 -0.383898c-0.0469409,-0.035437 -0.0562717,-0.102224 -0.0208346,-0.149165l0.254917 -0.336441c0.035437,-0.0469409 0.102224,-0.0562717 0.149165,-0.0208346l0.506661 0.383906c0.0469409,0.035437 0.0562717,0.102224 0.0208346,0.149165zm-0.360484 0.123067l0.126283 -0.166665 -0.336894 -0.255268 -0.126283 0.166669 0.336894 0.255264z"/>
   <path id="_516420304" class="fil0" d="M6.02438 4.78681c-0.0357047,0.270776 -0.144091,0.537787 -0.307193,0.753047 -0.157409,0.207744 -0.366122,0.368791 -0.610799,0.441701 -0.0345197,0.0102835 -0.0701417,0.00224016 -0.0964331,-0.0184843l-0.555106 -0.420614c-0.0469409,-0.035437 -0.0562717,-0.102224 -0.0208346,-0.149165l0.844024 -1.11391c0.035437,-0.0469409 0.102224,-0.0562717 0.149165,-0.0208346l0.556961 0.422012c0.033815,0.0255276 0.0481102,0.0673228 0.0402165,0.106248zm-0.477193 0.624717c0.130807,-0.172638 0.221024,-0.383256 0.258358,-0.599067l-0.421941 -0.319709 -0.71539 0.944142 0.427362 0.323819c0.177665,-0.0655315 0.331579,-0.190776 0.45161,-0.349185z"/>
   <g>
    <path id="_516420136" class="fil0" d="M1.41337 2.6649c0.0589094,0 0.106669,0.0477598 0.106669,0.106669 0,0.0589094 -0.0477598,0.106669 -0.106669,0.106669l-0.373402 0c-0.0589094,0 -0.106669,-0.0477598 -0.106669,-0.106669l0 -0.564122c0,-0.0589094 0.0477598,-0.106669 0.106669,-0.106669l0.373402 0c0.0589094,0 0.106669,0.0477598 0.106669,0.106669 0,0.0589094 -0.0477598,0.106669 -0.106669,0.106669l-0.266732 0 0 0.350783 0.266732 0z"/>
    <path id="_516420760" class="fil0" d="M5.4133 2.87824c-0.0589094,0 -0.106669,-0.0477598 -0.106669,-0.106669 0,-0.0589094 0.0477598,-0.106669 0.106669,-0.106669l0.266732 0 0 -0.350783 -0.266732 0c-0.0589094,0 -0.106669,-0.0477598 -0.106669,-0.106669 0,-0.0589094 0.0477598,-0.106669 0.106669,-0.106669l0.373402 0c0.0589094,0 0.106669,0.0477598 0.106669,0.106669l0 0.564122c0,0.0589094 -0.0477598,0.106669 -0.106669,0.106669l-0.373402 0z"/>
   </g>
  </g>
  <path class="fil1" d="M3.63338 2.73282c0,-0.340787 0.281925,-0.632185 0.594118,-0.767102 0.097563,-0.0421654 0.198579,-0.0694173 0.295291,-0.0784449 0.100409,-0.00937402 0.196677,0.000724409 0.28078,0.0337992 0.171618,0.0674921 0.289768,0.222894 0.289768,0.491752 0,0.198161 -0.0950984,0.640929 -0.242425,0.970614 -0.11213,0.250929 -0.259866,0.442709 -0.43339,0.442709 -0.179256,0 -0.360583,-0.157181 -0.503114,-0.362291 -0.163307,-0.235024 -0.281028,-0.53961 -0.281028,-0.731035zm1.51018 0.770047c0.0984528,-0.335776 0.151866,-0.661386 0.151866,-0.930043 0,-0.516602 -0.0835906,-0.848079 -0.246063,-1.07302 -0.152591,-0.211264 -0.382,-0.335583 -0.681894,-0.436988 -0.144732,0.0793819 -0.295197,0.142598 -0.450134,0.186378 -0.163555,0.0462205 -0.332051,0.071189 -0.504004,0.071189 -0.171953,0 -0.340449,-0.0249685 -0.504004,-0.071189 -0.154937,-0.0437795 -0.305402,-0.106996 -0.450134,-0.186378 -0.299894,0.101406 -0.529303,0.225724 -0.681894,0.436988 -0.162472,0.224945 -0.246063,0.556421 -0.246063,1.07302 0,0.268661 0.0534173,0.59426 0.15187,0.930028 0.0839921,0.286445 0.200421,0.579587 0.34415,0.850732l0.17524 -0.13278c0.0469409,-0.035437 0.113728,-0.0261063 0.149165,0.0208346l0.254917 0.336441c0.035437,0.0469409 0.0261063,0.113728 -0.0208346,0.149165l-0.212197 0.16078c0.149008,0.186268 0.313874,0.342504 0.491386,0.451575 0.171843,0.105594 0.355709,0.166547 0.548398,0.166547 0.197035,0 0.384343,-0.0632087 0.558693,-0.172382 0.173256,-0.108492 0.334697,-0.262476 0.481185,-0.445669l-0.212287 -0.16085c-0.0469409,-0.035437 -0.0562717,-0.102224 -0.0208346,-0.149165l0.254917 -0.336441c0.035437,-0.0469409 0.102224,-0.0562717 0.149165,-0.0208346l0.175244 0.132787c0.143724,-0.271138 0.260157,-0.564283 0.344146,-0.850724zm-1.95028 -0.770047c0,0.191425 -0.11772,0.496012 -0.281028,0.731035 -0.142531,0.20511 -0.323858,0.362291 -0.503114,0.362291 -0.173524,0 -0.32126,-0.19178 -0.43339,-0.442709 -0.147327,-0.329685 -0.242425,-0.772453 -0.242425,-0.970614 0,-0.268858 0.11815,-0.42426 0.289768,-0.491752 0.0841024,-0.0330748 0.18037,-0.0431732 0.28078,-0.0337992 0.0967126,0.00902756 0.197728,0.0362795 0.295291,0.0784449 0.312193,0.134917 0.594118,0.426315 0.594118,0.767102zm0.220051 1.16933c0.169358,0 0.322697,0.0686575 0.433685,0.179646 0.110996,0.110996 0.179646,0.264327 0.179646,0.433685 0,0.169358 -0.0686535,0.322697 -0.179646,0.433685 -0.110988,0.110992 -0.264327,0.179646 -0.433685,0.179646 -0.169358,0 -0.322697,-0.0686535 -0.433685,-0.179646 -0.110992,-0.110988 -0.179646,-0.264327 -0.179646,-0.433685 0,-0.169358 0.0686496,-0.322689 0.179646,-0.433685 0.110988,-0.110988 0.264327,-0.179646 0.433685,-0.179646z"/>
  <path class="fil2" d="M3.03328 2.73282c0,-0.271083 -0.235957,-0.507933 -0.497244,-0.62085 -0.0823268,-0.0355787 -0.166689,-0.0584921 -0.246543,-0.0659488 -0.0761457,-0.00711024 -0.147673,-3.54331e-005 -0.208276,0.0237992 -0.11128,0.0437638 -0.187894,0.151496 -0.187894,0.343004 0,0.182969 0.0894567,0.59548 0.228047,0.905614 0.0880669,0.197087 0.190244,0.347709 0.287768,0.347709 0.119724,0 0.256378,-0.127358 0.371862,-0.293543 0.146602,-0.21098 0.25228,-0.477594 0.25228,-0.639783z"/>
  <path class="fil2" d="M4.29062 2.11197c-0.261287,0.112917 -0.497244,0.349768 -0.497244,0.62085 0,0.162189 0.105677,0.428803 0.25228,0.639783 0.115484,0.166185 0.252138,0.293543 0.371862,0.293543 0.0975236,0 0.199701,-0.150622 0.287768,-0.347709 0.138591,-0.310134 0.228047,-0.722646 0.228047,-0.905614 0,-0.191508 -0.0766142,-0.29924 -0.187894,-0.343004 -0.0606024,-0.0238346 -0.13213,-0.0309094 -0.208276,-0.0237992 -0.0798543,0.00745669 -0.164217,0.0303701 -0.246543,0.0659488z"/>
  <path class="fil2" d="M5.38361 4.49276l-0.71539 0.944142 0.427362 0.323819c0.177665,-0.0655315 0.331579,-0.190776 0.45161,-0.349185 0.130807,-0.172638 0.221024,-0.383256 0.258358,-0.599067l-0.421941 -0.319709z"/>
  <polygon class="fil2" points="4.79118,4.87694 4.91746,4.71028 4.58057,4.45501 4.45429,4.62168 "/>
  <path class="fil2" d="M3.73389 4.83604c0.0820315,-0.0820276 0.132772,-0.19537 0.132772,-0.320559 0,-0.125189 -0.0507402,-0.238528 -0.132772,-0.320559 -0.0820276,-0.0820276 -0.19537,-0.132772 -0.320559,-0.132772 -0.125189,0 -0.238531,0.0507441 -0.320559,0.132772 -0.0820315,0.0820315 -0.132772,0.19537 -0.132772,0.320559 0,0.125189 0.0507402,0.238531 0.132772,0.320559 0.0820276,0.0820315 0.19537,0.132772 0.320559,0.132772 0.125189,0 0.238531,-0.0507402 0.320559,-0.132772zm-0.0538898 -0.320559c0,0.0736339 -0.0298543,0.140303 -0.0781102,0.188559 -0.0482559,0.0482559 -0.114925,0.0781102 -0.188559,0.0781102 -0.0736339,0 -0.140303,-0.0298543 -0.188559,-0.0781102 -0.0482559,-0.0482559 -0.0781102,-0.114925 -0.0781102,-0.188559 0,-0.0736299 0.0298543,-0.140303 0.0781102,-0.188559 0.0482559,-0.0482559 0.114925,-0.0781102 0.188559,-0.0781102 0.0736339,0 0.140303,0.0298543 0.188559,0.0781102 0.0482559,0.0482559 0.0781102,0.114929 0.0781102,0.188559z"/>
  <path class="fil2" d="M3.41333 4.67548c0.044189,0 0.0841929,-0.0179094 0.113142,-0.0468583 0.0289488,-0.0289488 0.0468583,-0.0689528 0.0468583,-0.113142 0,-0.044185 -0.0179094,-0.0841929 -0.0468583,-0.113142 -0.0289488,-0.0289488 -0.0689528,-0.0468583 -0.113142,-0.0468583 -0.044189,0 -0.0841929,0.0179094 -0.113142,0.0468583 -0.0289488,0.0289488 -0.0468583,0.0689567 -0.0468583,0.113142 0,0.044189 0.0179094,0.0841929 0.0468583,0.113142 0.0289488,0.0289488 0.0689528,0.0468583 0.113142,0.0468583z"/>
  <path class="fil2" d="M2.15845 5.4369l-0.71539 -0.944142 -0.421941 0.319709c0.0373346,0.215811 0.127551,0.426429 0.258358,0.599067 0.120031,0.158409 0.273945,0.283654 0.45161,0.349185l0.427362 -0.323819z"/>
  <polygon class="fil2" points="1.9092,4.71028 2.03548,4.87694 2.37238,4.62168 2.24609,4.45501 "/>
  <path class="fil2" d="M5.50115 2.31412c0.00506693,0.0814213 0.00761024,0.167535 0.00761024,0.258709 0,0.030063 -0.00061811,0.0607717 -0.00185039,0.0920748l0.173118 0 0 -0.350783 -0.178878 0z"/>
  <path class="fil2" d="M1.3179 2.57283c0,-0.0911732 0.00254331,-0.177287 0.00761024,-0.258709l-0.178874 0 0 0.350783 0.173114 0c-0.00123228,-0.0313031 -0.00185039,-0.0620118 -0.00185039,-0.0920748z"/>
 </g>
 <rect class="fil3" width="6.82666" height="6.82666"/>
</svg>
