<?xml version="1.0" encoding="UTF-8"?>
<!DOCTYPE svg PUBLIC "-//W3C//DTD SVG 1.1//EN" "http://www.w3.org/Graphics/SVG/1.1/DTD/svg11.dtd">
<!-- Creator: CorelDRAW -->
<svg xmlns="http://www.w3.org/2000/svg" xml:space="preserve" width="6.82666in" height="6.82666in" style="shape-rendering:geometricPrecision; text-rendering:geometricPrecision; image-rendering:optimizeQuality; fill-rule:evenodd; clip-rule:evenodd"
viewBox="0 0 6.82666 6.82666"
 xmlns:xlink="http://www.w3.org/1999/xlink">
 <defs>
  <style type="text/css">
   <![CDATA[
    .fil3 {fill:none}
    .fil2 {fill:#F45A52}
    .fil1 {fill:#FECA5F}
    .fil0 {fill:#212121;fill-rule:nonzero}
   ]]>
  </style>
 </defs>
 <g id="Layer_x0020_1">
  <metadata id="CorelCorpID_0Corel-Layer"/>
  <path class="fil0" d="M2.76785 3.59022c-0.0170276,0.0561457 -0.0763543,0.0878583 -0.1325,0.0708307 -0.0561457,-0.0170276 -0.0878583,-0.0763543 -0.0708307,-0.1325l0.458008 -1.51151c0.0278189,-0.091811 0.0750118,-0.178898 0.146476,-0.241378 0.0654764,-0.0572402 0.148256,-0.0929449 0.25087,-0.0929449l1.37449 0c0.0589094,0 0.106669,0.0477598 0.106669,0.106669 0,0.0216063 -0.00643307,0.0417126 -0.0174764,0.0585118 -0.0239528,0.0528346 -0.0859882,0.0768071 -0.139346,0.0535512 -0.00370472,-0.00161417 -0.00727165,-0.00342126 -0.0106929,-0.0053937l-1.31364 0c-0.0465394,0 -0.0829724,0.0152165 -0.11087,0.0396063 -0.0387835,0.0339055 -0.065874,0.0860472 -0.0831457,0.143047l-0.458008 1.51151z"/>
  <path class="fil0" d="M4.37085 2.48493l0.31835 -0.723894c0.0339724,-0.077252 0.106614,-0.12702 0.188016,-0.148496 0.037122,-0.00979528 0.0765984,-0.0137677 0.114827,-0.011752 0.0402559,0.00212598 0.0797205,0.0107638 0.114638,0.026122 0.0641693,0.0282165 0.114213,0.0776811 0.133287,0.149961l0.475646 1.80263c0.0115276,0.0437087 0.00774409,0.0825472 -0.0081063,0.116555 -0.0222756,0.0478031 -0.0637598,0.0774646 -0.11676,0.0920315 -0.0360591,0.00990945 -0.077374,0.0123976 -0.119421,0.00872441 -0.0975945,-0.00852756 -0.21515,-0.0517598 -0.280646,-0.111476l-0.793996 -0.723894c-0.0795866,-0.0725669 -0.101602,-0.16011 -0.0929291,-0.253102 0.00718504,-0.0770551 0.0358504,-0.152358 0.0670945,-0.223413zm0.51335 -0.638059l-0.31835 0.723894c-0.024185,0.055 -0.0461575,0.11098 -0.0504252,0.156744 -0.00277953,0.0298307 0.00292913,0.056685 0.0245906,0.0764331l0.793996 0.723894c0.0322953,0.0294449 0.0979055,0.0514331 0.155646,0.0564764 0.00247244,0.000216535 0.00488976,0.000401575 0.00724409,0.000551181l-0.462768 -1.75383c-0.000685039,-0.00259449 -0.00583858,-0.00585039 -0.0132874,-0.00912598 -0.0113504,-0.00499213 -0.0250354,-0.00785039 -0.0396378,-0.00861811 -0.016622,-0.000877953 -0.0337559,0.00084252 -0.0498268,0.00508268 -0.0229843,0.00606299 -0.0416693,0.0159646 -0.0471811,0.0284961z"/>
  <path class="fil0" d="M5.57499 3.75292c-0.0549961,-0.0207087 -0.0827913,-0.0820866 -0.0620827,-0.137083 0.0207087,-0.0549961 0.0820866,-0.0827913 0.137083,-0.0620827 0.075315,0.0284134 0.0825512,0.0311142 0.0896654,0.0337717 0.170685,0.0637559 0.247579,0.0924843 0.293921,0.144465 0.0544173,0.0610472 0.0499803,0.108854 0.0419173,0.195831 -0.00267717,0.0288543 -0.00604724,0.065185 -0.00604724,0.118433 0,0.171224 -0.0576969,0.229091 -0.246303,0.229091 -0.0725669,0 -0.170181,-0.0122402 -0.30735,-0.0294331 -0.312429,-0.0391693 -0.83776,-0.105031 -1.70614,-0.105031 -1.37713,0 -2.34104,0.506106 -2.72213,0.706197 -0.110224,0.057878 -0.178929,0.0939488 -0.225677,0.0939488 -0.0765551,0 -0.115181,-0.0366457 -0.115181,-0.113732 0,-0.0712047 0.490492,-0.716965 1.36093,-1.13485 0.463783,-0.222657 1.03703,-0.391098 1.70206,-0.391098 0.266854,0 0.508339,0.0101575 0.726315,0.0286417 0.231657,0.0196417 0.43828,0.0492283 0.621764,0.0864252 0.0575276,0.0115039 0.0948346,0.0674724 0.0833307,0.125 -0.0115039,0.0575276 -0.0674724,0.0948346 -0.125,0.0833307 -0.171921,-0.0348543 -0.370185,-0.0629685 -0.597598,-0.082252 -0.211626,-0.0179449 -0.44722,-0.0278071 -0.708811,-0.0278071 -0.630157,0 -1.1723,0.159106 -1.61039,0.369429 -0.447232,0.214705 -0.784307,0.471 -0.993134,0.662835 0.485969,-0.240815 1.38913,-0.619409 2.60352,-0.619409 0.880894,0 1.41458,0.0669094 1.73197,0.106701 0.12939,0.0162205 0.221469,0.0277638 0.281516,0.0277638 0.0252402,0 0.0329646,-0.00398031 0.0329646,-0.015752 0,-0.0544173 0.00430315,-0.10078 0.00771654,-0.137598 0.00253937,-0.0273937 0.0172362,-0.0275354 0.0105866,-0.0349961 -0.0119331,-0.0133819 -0.0731181,-0.0362402 -0.208921,-0.0869685 -0.0474252,-0.0177165 -0.0809094,-0.0301535 -0.0905,-0.0337717z"/>
  <path class="fil1" d="M5.47133 3.79681c-0.0975945,-0.00852756 -0.21515,-0.0517598 -0.280646,-0.111476l-0.0648189 -0.0590945c-0.00325591,-0.00034252 -0.00652756,-0.00084252 -0.00980315,-0.00149606 -0.171921,-0.0348543 -0.370185,-0.0629685 -0.597598,-0.082252 -0.211626,-0.0179449 -0.44722,-0.0278071 -0.708811,-0.0278071 -0.630157,0 -1.1723,0.159106 -1.61039,0.369429 -0.447232,0.214705 -0.784307,0.471 -0.993134,0.662835 0.485969,-0.240815 1.38913,-0.619409 2.60352,-0.619409 0.880894,0 1.41458,0.0669094 1.73197,0.106701 0.12939,0.0162205 0.221469,0.0277638 0.281516,0.0277638 0.0252402,0 0.0329646,-0.00398031 0.0329646,-0.015752 0,-0.0544173 0.00430315,-0.10078 0.00771654,-0.137598 0.00253937,-0.0273937 0.0172362,-0.0275354 0.0105866,-0.0349961 -0.0119331,-0.0133819 -0.0731181,-0.0362402 -0.208921,-0.0869685l-0.0355118 -0.013252c-0.012189,0.00596063 -0.025311,0.0108268 -0.0392244,0.0146496 -0.0360591,0.00990945 -0.077374,0.0123976 -0.119421,0.00872441z"/>
  <path class="fil2" d="M4.54002 2.80394l0.793996 0.723894c0.0322953,0.0294449 0.0979055,0.0514331 0.155646,0.0564764l0.00724409 0.000551181 -0.462768 -1.75383c-0.000685039,-0.00259449 -0.00583858,-0.00585039 -0.0132874,-0.00912598 -0.0113504,-0.00499213 -0.0250354,-0.00785039 -0.0396378,-0.00861811 -0.016622,-0.000877953 -0.0337559,0.00084252 -0.0498268,0.00508268 -0.019685,0.00519291 -0.0362165,0.0132008 -0.0440197,0.0232638 -0.001,0.00177953 -0.00205118,0.00352756 -0.00316142,0.00523228 -3.93701e-006,3.14961e-005 -1.9685e-005,5.51181e-005 -3.54331e-005,7.87402e-005l-0.318315 0.723815c-0.024185,0.055 -0.0461575,0.11098 -0.0504252,0.156744 -0.00277953,0.0298307 0.00292913,0.056685 0.0245906,0.0764331z"/>
  <path class="fil1" d="M4.83688 3.36276l-0.440189 -0.401323c-0.0795866,-0.0725669 -0.101602,-0.16011 -0.0929291,-0.253102 0.00718504,-0.0770551 0.0358504,-0.152358 0.0670945,-0.223413l0.258969 -0.58887 -1.20995 0c-0.0465394,0 -0.0829724,0.0152165 -0.11087,0.0396063 -0.0387835,0.0339055 -0.065874,0.0860472 -0.0831457,0.143047l-0.409606 1.35178c0.302571,-0.0801142 0.634634,-0.129138 0.993406,-0.129138 0.266854,0 0.508339,0.0101575 0.726315,0.0286417 0.105429,0.00894094 0.205673,0.019937 0.300909,0.0327756z"/>
 </g>
 <rect class="fil3" width="6.82666" height="6.82666"/>
</svg>
