<?xml version="1.0" encoding="UTF-8"?>
<!DOCTYPE svg PUBLIC "-//W3C//DTD SVG 1.1//EN" "http://www.w3.org/Graphics/SVG/1.1/DTD/svg11.dtd">
<!-- Creator: CorelDRAW -->
<svg xmlns="http://www.w3.org/2000/svg" xml:space="preserve" width="6.82666in" height="6.82666in" style="shape-rendering:geometricPrecision; text-rendering:geometricPrecision; image-rendering:optimizeQuality; fill-rule:evenodd; clip-rule:evenodd"
viewBox="0 0 6.82666 6.82666"
 xmlns:xlink="http://www.w3.org/1999/xlink">
 <defs>
  <style type="text/css">
   <![CDATA[
    .fil3 {fill:none}
    .fil2 {fill:#F45A52}
    .fil1 {fill:#FECA5F}
    .fil0 {fill:#212121;fill-rule:nonzero}
   ]]>
  </style>
 </defs>
 <g id="Layer_x0020_1">
  <metadata id="CorelCorpID_0Corel-Layer"/>
  <g id="_517328568">
   <path id="_517329144" class="fil0" d="M2.716 4.68032c-0.00690157,0.0584488 -0.0598858,0.100236 -0.118335,0.0933346 -0.0584488,-0.00690157 -0.100236,-0.0598858 -0.0933346,-0.118335l0.392547 -3.2938c0.0173031,-0.145185 0.0700866,-0.279862 0.151197,-0.377331 0.0822913,-0.0988898 0.19211,-0.160161 0.323555,-0.160161l0.0834213 0c0.131441,0 0.241268,0.0612835 0.323555,0.160165 0.0811142,0.0974764 0.133902,0.232161 0.151201,0.377327l0.392535 3.2938c0.00690157,0.0584488 -0.0348858,0.111433 -0.0933346,0.118335 -0.0584488,0.00690157 -0.111433,-0.0348858 -0.118335,-0.0933346l-0.392535 -3.2938c-0.0126339,-0.106024 -0.0485748,-0.201252 -0.102862,-0.266492 -0.0424685,-0.0510315 -0.0970591,-0.0826614 -0.160224,-0.0826614l-0.0834213 0c-0.0631654,0 -0.117756,0.031622 -0.160224,0.0826575 -0.0542874,0.0652362 -0.0902205,0.160453 -0.102858,0.266496l-0.392547 3.2938z"/>
   <path id="_517328832" class="fil0" d="M2.40629 4.56115l2.01408 0c0.0589094,0 0.106669,0.0477598 0.106669,0.106669 0,0.320406 0.162799,0.503874 0.340961,0.704657 0.120736,0.136063 0.24778,0.279232 0.346996,0.475563 0.0264606,0.0524646 0.00538189,0.116457 -0.0470827,0.142917 -0.0153937,0.00776378 -0.0317795,0.0114291 -0.0479173,0.0114173l0 0.000251969 -3.41334 0c-0.0589094,0 -0.106669,-0.0477598 -0.106669,-0.106669 0,-0.0202047 0.00562205,-0.0390984 0.0153819,-0.0552047 0.0986614,-0.192591 0.224043,-0.333894 0.343283,-0.468276 0.178165,-0.20078 0.340965,-0.38424 0.340965,-0.704657 0,-0.0589094 0.0477598,-0.106669 0.106669,-0.106669zm1.91215 0.213339l-1.81022 0c-0.0304173,0.333134 -0.203075,0.527724 -0.390398,0.738823 -0.075815,0.0854409 -0.154319,0.173917 -0.224205,0.275976l3.03943 0c-0.0698858,-0.102055 -0.148386,-0.190535 -0.224205,-0.275976 -0.187319,-0.211098 -0.359976,-0.405693 -0.390394,-0.738823z"/>
   <g>
    <path id="_517328688" class="fil0" d="M2.73364 4.17426c-0.0589094,0 -0.106669,-0.0477598 -0.106669,-0.106669 0,-0.0589094 0.0477598,-0.106669 0.106669,-0.106669l1.35938 0c0.0589094,0 0.106669,0.0477598 0.106669,0.106669 0,0.0589094 -0.0477598,0.106669 -0.106669,0.106669l-1.35938 0z"/>
    <path id="_517328664" class="fil0" d="M2.78456 3.52754c-0.0589094,0 -0.106669,-0.0477598 -0.106669,-0.106669 0,-0.0589094 0.0477598,-0.106669 0.106669,-0.106669l1.25755 0c0.0589094,0 0.106669,0.0477598 0.106669,0.106669 0,0.0589094 -0.0477598,0.106669 -0.106669,0.106669l-1.25755 0z"/>
    <path id="_517328784" class="fil0" d="M2.85342 2.88081c-0.0589094,0 -0.106669,-0.0477598 -0.106669,-0.106669 0,-0.0589094 0.0477598,-0.106669 0.106669,-0.106669l1.11982 0c0.0589094,0 0.106669,0.0477598 0.106669,0.106669 0,0.0589094 -0.0477598,0.106669 -0.106669,0.106669l-1.11982 0z"/>
    <path id="_517328808" class="fil0" d="M2.98597 2.23409c-0.0589094,0 -0.106669,-0.0477598 -0.106669,-0.106669 0,-0.0589094 0.0477598,-0.106669 0.106669,-0.106669l0.85472 0c0.0589094,0 0.106669,0.0477598 0.106669,0.106669 0,0.0589094 -0.0477598,0.106669 -0.106669,0.106669l-0.85472 0z"/>
    <path id="_517328328" class="fil0" d="M3.03278 1.58736c-0.0589094,0 -0.106669,-0.0477598 -0.106669,-0.106669 0,-0.0589094 0.0477598,-0.106669 0.106669,-0.106669l0.761106 0c0.0589094,0 0.106669,0.0477598 0.106669,0.106669 0,0.0589094 -0.0477598,0.106669 -0.106669,0.106669l-0.761106 0z"/>
   </g>
  </g>
  <g id="_517328112">
   <polygon id="_517328208" class="fil1" points="2.7302,4.56115 4.09647,4.56115 4.05036,4.17426 2.77631,4.17426 "/>
   <polygon id="_517328592" class="fil1" points="2.87881,3.3142 3.94786,3.3142 3.89621,2.88081 2.93046,2.88081 "/>
   <polygon id="_517328472" class="fil1" points="3.03296,2.02075 3.79372,2.02075 3.74207,1.58736 3.08461,1.58736 "/>
  </g>
  <g id="_517327800">
   <path id="_517328424" class="fil2" d="M4.31844 4.77449l-1.81022 0c-0.0304173,0.333134 -0.203075,0.527724 -0.390398,0.738823 -0.075815,0.0854409 -0.154319,0.173917 -0.224205,0.275976l3.03943 0c-0.0698858,-0.102055 -0.148386,-0.190535 -0.224205,-0.275976 -0.187319,-0.211098 -0.359976,-0.405693 -0.390394,-0.738823z"/>
   <polygon id="_517328088" class="fil2" points="2.80173,3.96092 4.02494,3.96092 3.97329,3.52754 2.85338,3.52754 "/>
   <polygon id="_517327872" class="fil2" points="2.95588,2.66747 3.87079,2.66747 3.81914,2.23409 3.00753,2.23409 "/>
   <path id="_517327464" class="fil2" d="M3.11015 1.37402l0.606386 0c-0.0138976,-0.100996 -0.0491142,-0.191331 -0.10126,-0.253996 -0.0424685,-0.0510315 -0.0970591,-0.0826614 -0.160224,-0.0826614l-0.0834213 0c-0.0631654,0 -0.117756,0.031622 -0.160224,0.0826575 -0.0521457,0.0626614 -0.0873583,0.152988 -0.101256,0.254z"/>
  </g>
 </g>
 <rect class="fil3" width="6.82666" height="6.82666"/>
</svg>
