<?xml version="1.0" encoding="UTF-8"?>
<!DOCTYPE svg PUBLIC "-//W3C//DTD SVG 1.1//EN" "http://www.w3.org/Graphics/SVG/1.1/DTD/svg11.dtd">
<!-- Creator: CorelDRAW -->
<svg xmlns="http://www.w3.org/2000/svg" xml:space="preserve" width="6.82666in" height="6.82666in" style="shape-rendering:geometricPrecision; text-rendering:geometricPrecision; image-rendering:optimizeQuality; fill-rule:evenodd; clip-rule:evenodd"
viewBox="0 0 6.82666 6.82666"
 xmlns:xlink="http://www.w3.org/1999/xlink">
 <defs>
  <style type="text/css">
   <![CDATA[
    .str0 {stroke:#212121;stroke-width:0.106665;stroke-linecap:round;stroke-linejoin:round}
    .fil4 {fill:none}
    .fil0 {fill:#949494}
    .fil2 {fill:#B38E85}
    .fil3 {fill:#EBE5DF}
    .fil1 {fill:#212121;fill-rule:nonzero}
   ]]>
  </style>
 </defs>
 <g id="Layer_x0020_1">
  <metadata id="CorelCorpID_0Corel-Layer"/>
  <g id="_517331568">
   <path id="_517331808" class="fil0" d="M3.48873 3.48612l1.93515 0c-0.0117992,-0.0334882 -0.0248543,-0.0670591 -0.0391457,-0.100713l-1.85686 0c-0.0142913,0.0336535 -0.0273465,0.0672244 -0.0391457,0.100713z"/>
   <path id="_517331088" class="fil0" d="M5.48198 3.69946l-2.05135 0c-0.00640551,0.0336614 -0.0114488,0.0672362 -0.0151024,0.100713l2.08155 0c-0.00365354,-0.0334764 -0.00869685,-0.0670512 -0.0151024,-0.100713z"/>
   <path id="_517331448" class="fil0" d="M5.50124 4.01351l-2.08987 0c0.00244882,0.0336732 0.0063937,0.067248 0.011874,0.100717l2.06612 0c0.00548031,-0.0334685 0.0094252,-0.0670433 0.011874,-0.100717z"/>
   <path id="_517331712" class="fil0" d="M5.43292 4.32756l-1.95324 0c0.0108346,0.0294291 0.022937,0.0587717 0.0363268,0.0880276l1.87354 0c0.00233071,0 0.00464567,7.48031e-005 0.00694094,0.000220472 0.0134291,-0.0293307 0.025563,-0.0587441 0.0364252,-0.088248z"/>
  </g>
  <g id="_517330752">
   <path id="_517331064" class="fil1" d="M0.936665 1.86505l1.72067 0c0.0589094,0 0.106669,0.0477598 0.106669,0.106669l0 2.88323c0,0.0589094 -0.0477598,0.106669 -0.106669,0.106669l-1.72067 0c-0.0589094,0 -0.106669,-0.0477598 -0.106669,-0.106669l0 -2.88323c0,-0.0589094 0.0477598,-0.106669 0.106669,-0.106669zm1.614 0.213339l-1.50733 0 0 2.66989 1.50733 0 0 -2.66989z"/>
   <path id="_517331304" class="fil1" d="M1.797 2.47285c0.106587,0 0.203098,0.0432087 0.272949,0.113067 0.0698583,0.0698504 0.113067,0.166358 0.113067,0.272949 0,0.106587 -0.0432087,0.203091 -0.113067,0.272949 -0.0698504,0.0698504 -0.166362,0.113063 -0.272949,0.113063 -0.106587,0 -0.203091,-0.0432087 -0.272949,-0.113067 -0.0698504,-0.0698504 -0.113063,-0.166358 -0.113063,-0.272945 0,-0.106587 0.0432126,-0.203098 0.113063,-0.272949 0.0698583,-0.0698583 0.166362,-0.113067 0.272949,-0.113067zm0.197531 0.188484c-0.0505433,-0.0505472 -0.12039,-0.081815 -0.197531,-0.081815 -0.0771417,0 -0.146984,0.0312677 -0.197531,0.081815 -0.0505433,0.0505433 -0.081811,0.12039 -0.081811,0.197531 0,0.0771417 0.0312677,0.146984 0.081811,0.197528 0.0505472,0.0505472 0.12039,0.081815 0.197531,0.081815 0.0771417,0 0.146988,-0.0312677 0.197531,-0.081811 0.0505472,-0.0505472 0.081815,-0.12039 0.081815,-0.197531 0,-0.0771457 -0.0312677,-0.146988 -0.081815,-0.197531z"/>
   <path id="_517331184" class="fil1" d="M1.74367 2.47343c0,-0.0294528 0.0238819,-0.0533346 0.0533346,-0.0533346 0.0294528,0 0.0533346,0.0238819 0.0533346,0.0533346l0 0.770874c0,0.0294528 -0.0238819,0.0533346 -0.0533346,0.0533346 -0.0294528,0 -0.0533346,-0.0238819 -0.0533346,-0.0533346l0 -0.770874z"/>
   <path id="_517331016" class="fil1" d="M1.41156 2.9122c-0.0294528,0 -0.0533346,-0.0238819 -0.0533346,-0.0533346 0,-0.0294528 0.0238819,-0.0533346 0.0533346,-0.0533346l0.770874 0c0.0294528,0 0.0533346,0.0238819 0.0533346,0.0533346 0,0.0294528 -0.0238819,0.0533346 -0.0533346,0.0533346l-0.770874 0z"/>
   <path id="_517331136" class="fil1" d="M1.797 2.72084c0.0762126,0 0.13802,0.061811 0.13802,0.138024 0,0.0760827 -0.0619843,0.13802 -0.13802,0.13802 -0.0759134,0 -0.13802,-0.0621063 -0.13802,-0.13802 0,-0.0760984 0.0619921,-0.138024 0.13802,-0.138024z"/>
   <path id="_517331280" class="fil1" d="M1.69075 3.45639c-0.00046063,-0.0586811 0.0467362,-0.106626 0.105417,-0.107087 0.0586811,-0.00046063 0.106626,0.0467362 0.107087,0.105417 0.00287402,0.304567 0.10198,0.53161 0.249244,0.687843 0.174661,0.185295 0.418638,0.273024 0.649976,0.273024l2.58708 0c0.0589094,0 0.106669,0.0477598 0.106669,0.106669 0,0.0589094 -0.0477598,0.106669 -0.106669,0.106669l-2.58708 0c-0.285177,0 -0.58713,-0.109413 -0.804976,-0.340528 -0.181327,-0.19237 -0.303311,-0.467626 -0.306748,-0.832008z"/>
   <g>
    <path id="_517330872" class="fil1" d="M3.40729 4.32756c-0.0589094,0 -0.106669,-0.0477598 -0.106669,-0.106669 0,-0.0589094 0.0477598,-0.106669 0.106669,-0.106669l2.1143 0c0.0589094,0 0.106669,0.0477598 0.106669,0.106669 0,0.0589094 -0.0477598,0.106669 -0.106669,0.106669l-2.1143 0z"/>
    <path id="_517330704" class="fil1" d="M3.32464 4.01351c-0.0589094,0 -0.106669,-0.0477598 -0.106669,-0.106669 0,-0.0589094 0.0477598,-0.106669 0.106669,-0.106669l2.2796 0c0.0589094,0 0.106669,0.0477598 0.106669,0.106669 0,0.0589094 -0.0477598,0.106669 -0.106669,0.106669l-2.2796 0z"/>
    <path id="_517330296" class="fil1" d="M3.40729 3.69946c-0.0589094,0 -0.106669,-0.0477598 -0.106669,-0.106669 0,-0.0589094 0.0477598,-0.106669 0.106669,-0.106669l2.1143 0c0.0589094,0 0.106669,0.0477598 0.106669,0.106669 0,0.0589094 -0.0477598,0.106669 -0.106669,0.106669l-2.1143 0z"/>
    <path id="_517330728" class="fil1" d="M3.50339 3.38541c-0.0589094,0 -0.106669,-0.0477598 -0.106669,-0.106669 0,-0.0589094 0.0477598,-0.106669 0.106669,-0.106669l1.92209 0c0.0589094,0 0.106669,0.0477598 0.106669,0.106669 0,0.0589094 -0.0477598,0.106669 -0.106669,0.106669l-1.92209 0z"/>
    <path id="_517330320" class="fil1" d="M4.39122 3.23424c0.00505906,0.0584488 -0.0382205,0.109941 -0.0966693,0.115 -0.0584488,0.00505906 -0.109941,-0.0382205 -0.115,-0.0966693 -0.0212677,-0.237315 0.00327953,-0.439083 0.100567,-0.587083 0.102799,-0.156378 0.276417,-0.245984 0.547106,-0.245984l0.477618 0c0.0589094,0 0.106669,0.0477598 0.106669,0.106669 0,0.0589094 -0.0477598,0.106669 -0.106669,0.106669l-0.477618 0c-0.190654,0 -0.307201,0.0543937 -0.369602,0.149315 -0.0679055,0.103303 -0.0836024,0.260161 -0.0664016,0.452083z"/>
    <path id="_517330560" class="fil1" d="M5.43986 2.69388c0,0.0589094 -0.0477598,0.106669 -0.106669,0.106669 -0.0589094,0 -0.106669,-0.0477598 -0.106669,-0.106669l0 -0.317028c0,-0.0589094 0.0477598,-0.106669 0.106669,-0.106669 0.0589094,0 0.106669,0.0477598 0.106669,0.106669l0 0.317028z"/>
    <path id="_517330896" class="fil1" d="M5.27985 2.65332l0 -0.239295c0,-0.0294528 0.0238819,-0.0533346 0.0533346,-0.0533346 0.00556299,0 0.0109252,0.000850394 0.0159685,0.00243307l0.552516 0.124886c0.0286457,0.00644094 0.0466496,0.0348937 0.0402087,0.0635394 -0.0048622,0.021622 -0.0222638,0.0371811 -0.0428228,0.0407402l-0.555244 0.113114c-0.0287638,0.00586614 -0.0568425,-0.0126929 -0.0627087,-0.0414567 -0.000728346,-0.00356693 -0.00107874,-0.00712205 -0.00108268,-0.010626l-0.000169291 0zm0.106669 -0.172728l0 0.107614 0.250413 -0.0510157 -0.250413 -0.0565984z"/>
   </g>
  </g>
  <path class="fil2" d="M1.9975 4.2884c-0.181327,-0.19237 -0.303311,-0.467626 -0.306748,-0.832008 -0.00046063,-0.0586811 0.0467362,-0.106626 0.105417,-0.107087 0.0586811,-0.00046063 0.106626,0.0467362 0.107087,0.105417 0.00287402,0.304567 0.10198,0.53161 0.249244,0.687843 0.111559,0.118354 0.251398,0.196902 0.398161,0.238209l0 -2.30239 -1.50733 0 0 2.66989 1.50733 0 0 -0.147689c-0.202673,-0.0460079 -0.39898,-0.148614 -0.553161,-0.312185zm-0.253835 -1.04718c-0.085252,-0.0117874 -0.161618,-0.0514173 -0.219614,-0.109413 -0.0579921,-0.0579921 -0.097622,-0.134358 -0.109406,-0.21961l-0.00308268 0c-0.0294528,0 -0.0533346,-0.0238819 -0.0533346,-0.0533346 0,-0.0294528 0.0238819,-0.0533346 0.0533346,-0.0533346l0.00307874 0c0.0117874,-0.085252 0.0514173,-0.161622 0.109409,-0.219614 0.0579961,-0.0579961 0.134362,-0.097626 0.219614,-0.109413l0 -0.0030748c0,-0.0294528 0.0238819,-0.0533346 0.0533346,-0.0533346 0.0294528,0 0.0533346,0.0238819 0.0533346,0.0533346l0 0.0030748c0.085252,0.0117874 0.161622,0.0514134 0.219614,0.109413 0.058,0.0579921 0.097626,0.134358 0.109413,0.219614l0.0030748 0c0.0294528,0 0.0533346,0.0238819 0.0533346,0.0533346 0,0.0294528 -0.0238819,0.0533346 -0.0533346,0.0533346l-0.0030748 0c-0.0117874,0.085252 -0.0514134,0.161614 -0.109413,0.219614 -0.0579921,0.0579921 -0.134362,0.097622 -0.219614,0.109409l0 0.00307874c0,0.0294528 -0.0238819,0.0533346 -0.0533346,0.0533346 -0.0294528,0 -0.0533346,-0.0238819 -0.0533346,-0.0533346l0 -0.00307874z"/>
  <g id="_517329936">
   <path id="_517330608" class="fil3" d="M1.85033 3.13312c0.0557559,-0.0107756 0.105602,-0.0381299 0.144197,-0.0767244 0.0385945,-0.0385945 0.0659528,-0.0884409 0.0767283,-0.144197l-0.146976 0c-0.0140039,0.0332677 -0.040689,0.0599449 -0.0739488,0.0739488l0 0.146972z"/>
   <path id="_517329648" class="fil3" d="M1.74367 3.13312l0 -0.147016c-0.0332008,-0.0140276 -0.059878,-0.0407047 -0.0739055,-0.0739055l-0.147016 0c0.0107756,0.0557559 0.0381299,0.105598 0.0767244,0.144193 0.0385945,0.0385945 0.0884409,0.0659528 0.144197,0.0767283z"/>
   <path id="_517329480" class="fil3" d="M1.52274 2.80553l0.146969 0c0.0140039,-0.0332717 0.0406929,-0.0599528 0.0739528,-0.0739528l0 -0.146972c-0.0557559,0.0107756 -0.105602,0.0381339 -0.144197,0.0767283 -0.0385945,0.0385945 -0.0659488,0.0884409 -0.0767244,0.144197z"/>
   <path id="_517330152" class="fil3" d="M1.85033 2.73153c0.0333307,0.0139803 0.0600157,0.0406693 0.074,0.074l0.146925 0c-0.0107756,-0.0557559 -0.0381299,-0.105602 -0.0767283,-0.144197 -0.0385945,-0.0385945 -0.0884409,-0.0659528 -0.144197,-0.0767283l0 0.146925z"/>
  </g>
  <polygon class="fil0" points="5.43986,2.49265 5.43986,2.57734 5.63693,2.53719 "/>
  <g id="_517329528">
   <path id="_517329912" class="fil4 str0" d="M3.57927 3.27444c-0.218339,0.435563 -0.23722,0.857661 0,1.2625"/>
   <path id="_517329840" class="fil4 str0" d="M5.33333 3.27444c0.218339,0.435563 0.23722,0.857661 0,1.2625"/>
  </g>
 </g>
 <rect class="fil4" width="6.82666" height="6.82666"/>
</svg>
