<?xml version="1.0" encoding="UTF-8"?>
<!DOCTYPE svg PUBLIC "-//W3C//DTD SVG 1.1//EN" "http://www.w3.org/Graphics/SVG/1.1/DTD/svg11.dtd">
<!-- Creator: CorelDRAW -->
<svg xmlns="http://www.w3.org/2000/svg" xml:space="preserve" width="6.82666in" height="6.82666in" style="shape-rendering:geometricPrecision; text-rendering:geometricPrecision; image-rendering:optimizeQuality; fill-rule:evenodd; clip-rule:evenodd"
viewBox="0 0 6.82666 6.82666"
 xmlns:xlink="http://www.w3.org/1999/xlink">
 <defs>
  <style type="text/css">
   <![CDATA[
    .str0 {stroke:#212121;stroke-width:0.106665;stroke-linecap:round;stroke-linejoin:round}
    .fil5 {fill:none}
    .fil4 {fill:#949494}
    .fil0 {fill:#EBE5DF}
    .fil1 {fill:#F45A52}
    .fil3 {fill:#FECA5F}
    .fil2 {fill:#212121;fill-rule:nonzero}
   ]]>
  </style>
 </defs>
 <g id="Layer_x0020_1">
  <metadata id="CorelCorpID_0Corel-Layer"/>
  <path class="fil0" d="M3.37233 3.52l-0.768547 0 0 1.11111 0.768547 0 0 -1.11111zm-0.480303 0.297268l0 0zm0.102665 0.673886c-0.00178346,4.72441e-005 -0.00356693,6.69291e-005 -0.00535827,5.51181e-005 0.0017874,7.87402e-006 0.00357087,0 0.00535827,-5.51181e-005zm0.112472 -0.0504961l0 0zm-0.149205 -0.392504l0 0zm-0.238177 0.141335l0 0zm0.126425 -0.280528c0.00751969,-0.00259843 0.0151142,-0.00358268 0.0223819,-0.00313386 0.00212205,0.000129921 0.00420866,0.000370079 0.00625197,0.000712598 0.000748031,-0.0106969 0.00198031,-0.0216063 0.00370472,-0.0326732 0.00297638,-0.0190709 0.00735039,-0.037752 0.0131811,-0.0557205l0.000291339 -0.000877953 0.000177165 -0.000492126c0.00564961,-0.0171535 0.0128228,-0.0342323 0.0215787,-0.051 0.00858268,-0.016437 0.0184409,-0.0320906 0.0296142,-0.0467008 0.0031811,-0.00416535 0.00669685,-0.00847638 0.0105512,-0.0129213 0.00365748,-0.00422047 0.00741339,-0.00830315 0.0112559,-0.0122087 0.0035315,-0.00359055 0.00751969,-0.00737795 0.0119843,-0.0113701 0.0043189,-0.0038622 0.00850787,-0.00737795 0.0125157,-0.0104921 0.000984252,-0.000759843 0.00208661,-0.00153543 0.00329134,-0.00232283 0.00220472,-0.00147638 0.0043937,-0.00276378 0.00654331,-0.00384252l-2.75591e-005 -5.51181e-005c0.00212598,-0.00105512 0.00455118,-0.00205118 0.00723622,-0.0029685 0.00288583,-0.000980315 0.00614173,-0.00174409 0.00972047,-0.00229921l-2.3622e-005 -0.000145669c0.00267717,-0.000409449 0.00593307,-0.000590551 0.00972441,-0.00053937l0.000145669 0 0.00123622 1.9685e-005 0.00203937 8.66142e-005 3.93701e-006 -8.66142e-005c0.00703937,0.000507874 0.0140236,0.00238976 0.020563,0.00543307l5.51181e-005 -0.000122047c0.0062874,0.00292913 0.0121732,0.00712598 0.0172835,0.012378 0.00517717,0.00531102 0.00943701,0.0117756 0.012374,0.0191654 0.00245276,0.00616929 0.00390157,0.0128504 0.00409055,0.0198937 9.05512e-005,0.00105906 0.000141732,0.00213386 0.000141732,0.00322047 0,0.00153543 -9.44882e-005,0.00305118 -0.000275591,0.0045315 -0.00069685,0.0110945 -0.00084252,0.0278543 0.00160236,0.0493425 0.00262205,0.0230709 0.0082874,0.0515315 0.0195472,0.0842677 0.00784252,0.0227913 0.0181181,0.0470551 0.0315394,0.0721575 0.0120433,0.0225157 0.0269094,0.0463465 0.0452087,0.0712638l0.00122047 0.00177165c0.0272559,0.0382165 0.0452126,0.074685 0.0565827,0.108417 0.0116102,0.0344488 0.0162874,0.0661378 0.0169252,0.0940512 0.000653543,0.0286299 -0.0029685,0.0531614 -0.0077874,0.0727008 -0.00495276,0.0200591 -0.0111969,0.0351654 -0.0154921,0.0442244 -0.00195669,0.00412992 -0.00438189,0.0088937 -0.00724409,0.014248 -0.00273228,0.0051063 -0.00533071,0.00970079 -0.00779528,0.0138031 -0.0033189,0.00551969 -0.0061378,0.01 -0.00847244,0.0134646 -0.00283858,0.0042126 -0.00584252,0.00840945 -0.00899606,0.0125748 -0.00762205,0.0100748 -0.015689,0.019626 -0.0241535,0.0286299 -0.00816929,0.00869685 -0.0170118,0.0170354 -0.0264409,0.0249843l-0.000547244 0.000448819 0.000106299 0.000133858 -0.00042126 0.000338583 -0.00162205 0.00124409c-0.0225945,0.0186142 -0.0466614,0.0327992 -0.0716142,0.0425787 -0.0262835,0.0103071 -0.0536102,0.0156614 -0.0812717,0.0161063 0.0376417,-0.00101969 0.0735709,-0.0148583 0.105453,-0.0424803 0.00277165,-0.00240157 0.0051063,-0.00512205 0.00701969,-0.00804331 0.0156339,-0.0243346 0.0308071,-0.058315 0.0332638,-0.100579 0.000153543,-0.00265748 0.000255906,-0.00534252 0.000307087,-0.00805906 0.000519685,-0.0291496 -0.00519685,-0.0617677 -0.0210472,-0.0972047 -0.0575551,-0.128669 -0.092315,-0.194803 -0.0924134,-0.194996 -0.00961024,-0.018248 -0.0322008,-0.0252559 -0.0504488,-0.0156496 -0.00979134,0.00515748 -0.0163386,0.0140433 -0.0188661,0.0239843 -4.72441e-005,0.000200787 -0.016811,0.0701496 -0.0620906,0.132165 -0.0291693,0.0399409 -0.0513031,0.0858701 -0.0581575,0.132516 -0.000913386,0.00620866 -0.00156299,0.0124213 -0.00193307,0.0186339 -0.00218898,0.036752 0.00541339,0.0733622 0.0264331,0.107531 0.00324016,0.00527165 0.00758268,0.00945669 0.0125394,0.0124449 0.0362323,0.0253307 0.0743189,0.0389016 0.111909,0.0397283 -0.0248425,-0.00046063 -0.0495984,-0.00492126 -0.0737598,-0.0133307 -0.0261535,-0.00910236 -0.0515,-0.0227244 -0.075374,-0.0407874 -0.00954724,-0.00722441 -0.0190906,-0.0153819 -0.0285591,-0.0244646 -0.00911024,-0.00872835 -0.0179134,-0.0181102 -0.0263543,-0.028126 -0.00862205,-0.0102244 -0.0168268,-0.0216929 -0.0243898,-0.0345354 -0.0073622,-0.0125 -0.0139528,-0.0261654 -0.0195079,-0.0410866 -0.00498031,-0.0133543 -0.00912205,-0.0276339 -0.0122362,-0.0428543 -0.00278346,-0.0136181 -0.00477953,-0.0279016 -0.00584252,-0.042878 -0.000232283,-0.00169291 -0.000358268,-0.00341732 -0.000358268,-0.00517323l0 -4.72441e-005 -5.90551e-005 -0.00110236 -0.000204724 -0.00451181 -0.000133858 -0.00409843 -3.93701e-006 -0.000377953 -3.93701e-006 -0.000133858c-0.000181102,-0.00150394 -0.000283465,-0.00303937 -0.000283465,-0.00459449l0 -0.00977953c0,-0.00128346 6.29921e-005,-0.00255118 0.000165354,-0.00380315l6.29921e-005 -0.00073622 8.26772e-005 -0.000877953c0.00026378,-0.00874409 0.00084252,-0.0177008 0.00179134,-0.0267835 0.000976378,-0.00940551 0.00244094,-0.0197047 0.00445276,-0.0309409 0.00198425,-0.0110906 0.00425197,-0.0218622 0.0068189,-0.0321063 0.00272441,-0.0108937 0.00580709,-0.0218307 0.00927165,-0.032748l0.000929134 -0.0026063c0.00499213,-0.0152874 0.0101457,-0.0289213 0.0153386,-0.0410591 0.00624803,-0.0146142 0.0127047,-0.0274803 0.0191142,-0.0387598 0.00798425,-0.014063 0.0156693,-0.0253898 0.0227441,-0.0344882 0.00948819,-0.012189 0.0186811,-0.0214213 0.0263425,-0.0281142 0.00591339,-0.00517323 0.0125315,-0.00890157 0.0195039,-0.0113071zm0.140531 0.507602c-1.5748e-005,0 -3.14961e-005,-3.93701e-006 -4.72441e-005,0l4.72441e-005 0zm-0.0306181 -0.192378c0.0178386,-0.0244291 0.0319646,-0.0497913 0.0429055,-0.0728583 0.0141181,0.0296063 0.0318268,0.0676457 0.0525197,0.113906 0.011874,0.0265512 0.0154921,0.0502323 0.0142992,0.070752 -0.00140157,0.0241535 -0.00964173,0.0443819 -0.0187441,0.0597441 -0.0175118,0.0138307 -0.0364882,0.0206417 -0.055878,0.0208898 -5.11811e-005,3.93701e-006 -0.000102362,3.93701e-006 -0.000153543,3.93701e-006 -0.000480315,3.93701e-006 -0.000964567,7.87402e-006 -0.00144488,3.93701e-006 -0.000940945,-3.93701e-006 -0.00188583,-2.75591e-005 -0.00283071,-6.29921e-005 -1.9685e-005,0 -3.54331e-005,0 -5.51181e-005,0 -1.5748e-005,0 -3.14961e-005,0 -4.72441e-005,0 -6.29921e-005,-3.93701e-006 -0.000125984,-7.87402e-006 -0.000188976,-7.87402e-006 -0.0204606,-0.000834646 -0.0422008,-0.00866535 -0.0640906,-0.023 -0.0115394,-0.0219488 -0.0142362,-0.0458583 -0.0107047,-0.0698976 0.00500787,-0.0341024 0.0219449,-0.0687087 0.0444134,-0.0994724z"/>
  <path class="fil1" d="M2.60378 3.52l0.768547 0 0 1.11111 -0.768547 0 0 -1.11111zm0.89822 1.57219l0 -1.92608c0,-0.245063 -0.131441,-0.40113 -0.299685,-0.468752 -0.066937,-0.0269016 -0.140295,-0.0403583 -0.214264,-0.0403583 -0.0739685,0 -0.147327,0.0134528 -0.214264,0.0403583 -0.16824,0.0676181 -0.299681,0.223689 -0.299681,0.468752l0 1.92608 1.02789 0z"/>
  <path class="fil2" d="M1.93143 5.40738c0,-0.0589094 0.0477598,-0.106669 0.106669,-0.106669 0.0589094,0 0.106669,0.0477598 0.106669,0.106669 0,0.0163701 0.00679134,0.0313504 0.0177165,0.0422756 0.0109291,0.0109291 0.0259094,0.0177205 0.0422795,0.0177205l1.71346 0c0.0589094,0 0.106669,0.0477598 0.106669,0.106669 0,0.0589094 -0.0477598,0.106669 -0.106669,0.106669l-1.71346 0c-0.0752559,0 -0.143618,-0.0307362 -0.193114,-0.0802244 -0.0494843,-0.0494843 -0.0802205,-0.117846 -0.0802205,-0.19311zm2.56001 -0.308685c0,0.0589094 -0.0477598,0.106669 -0.106669,0.106669 -0.0589094,0 -0.106669,-0.0477598 -0.106669,-0.106669l0 -3.68755c0,-0.188866 0.0625276,-0.347705 0.17598,-0.460382 0.111622,-0.110858 0.269394,-0.174047 0.462091,-0.174047l0 0.000417323 0.428602 0.000669291c0.0586811,0 0.106252,0.0475709 0.106252,0.106252 0,0.0586811 -0.0475709,0.106252 -0.106252,0.106252l-0.428602 -0.000669291 0 0.000417323c-0.134213,0 -0.240555,0.0404961 -0.312091,0.111543 -0.0726181,0.072122 -0.112642,0.178827 -0.112642,0.309547l0 3.68755z"/>
  <path class="fil2" d="M3.71534 3.16611l0 2.03275c0,0.0589094 -0.0477598,0.106669 -0.106669,0.106669l-1.24123 0c-0.0589094,0 -0.106669,-0.0477598 -0.106669,-0.106669l0 -2.03275c0,-0.346083 0.190291,-0.568362 0.433854,-0.666256 0.0932047,-0.0374606 0.193626,-0.0561929 0.293429,-0.0561929 0.0998031,0 0.200224,0.0187323 0.293429,0.0561929 0.243571,0.0979016 0.433858,0.320177 0.433858,0.666256zm-0.213339 1.92608l0 -1.92608c0,-0.245063 -0.131441,-0.40113 -0.299685,-0.468752 -0.066937,-0.0269016 -0.140295,-0.0403583 -0.214264,-0.0403583 -0.0739685,0 -0.147327,0.0134528 -0.214264,0.0403583 -0.16824,0.0676181 -0.299681,0.223689 -0.299681,0.468752l0 1.92608 1.02789 0z"/>
  <path class="fil2" d="M3.09472 2.06664c0,0.0589094 -0.0477598,0.106669 -0.106669,0.106669 -0.0589094,0 -0.106669,-0.0477598 -0.106669,-0.106669l0 -0.294815c0,-0.0589094 0.0477598,-0.106669 0.106669,-0.106669 0.0589094,0 0.106669,0.0477598 0.106669,0.106669l0 0.294815z"/>
  <path class="fil2" d="M2.47612 2.1668c-0.0589094,0 -0.106669,-0.0477598 -0.106669,-0.106669 0,-0.0589094 0.0477598,-0.106669 0.106669,-0.106669l0.781398 0 0.334047 -0.205276c0.0501654,-0.0308346 0.115835,-0.0151654 0.146669,0.035 0.0308346,0.0501654 0.0151654,0.115835 -0.035,0.146669l-0.357071 0.219421c-0.016815,0.0110709 -0.0369409,0.0175236 -0.0585787,0.0175236l-0.811465 0z"/>
  <path class="fil2" d="M1.52373 1.6359l1.00621 0.320087c0.0559173,0.0177165 0.0868858,0.0774173 0.0691693,0.133335 -0.010878,0.0343386 -0.0375984,0.0592638 -0.0695433,0.0692874l-1.01559 0.323067c-0.0559173,0.0177165 -0.115618,-0.013252 -0.133335,-0.0691693 -0.00337795,-0.0106614 -0.00498425,-0.0214646 -0.00498425,-0.0320827l-0.000433071 0 0 -0.646374c0,-0.0589094 0.0477598,-0.106669 0.106669,-0.106669 0.0148504,0 0.0289882,0.00303937 0.0418346,0.00851969zm0.623752 0.421339l-0.558917 -0.177799 0 0.355594 0.558917 -0.177795z"/>
  <path class="fil2" d="M3.20463 2.17224c-0.0589094,0 -0.106669,-0.0477598 -0.106669,-0.106669 0,-0.0589094 0.0477598,-0.106669 0.106669,-0.106669 0.212732,0 0.407425,0.0828583 0.553469,0.218 0.147059,0.136079 0.244394,0.325118 0.260717,0.535835 0.000456693,0.00594094 0.000862205,0.100524 0.00119291,0.223614 0.000893701,0.333429 0.00135039,0.572417 0.00135039,0.576315 0,0.0589094 -0.0477598,0.106669 -0.106669,0.106669 -0.0589094,0 -0.106669,-0.0477598 -0.106669,-0.106669 0,-0.0205315 -0.000177165,-0.448972 -0.000515748,-0.576315 -0.00030315,-0.113728 -0.000700787,-0.201409 -0.00119291,-0.20778 -0.0120669,-0.155807 -0.0838898,-0.295445 -0.192378,-0.395835 -0.10752,-0.0994921 -0.251461,-0.160496 -0.409303,-0.160496z"/>
  <path class="fil2" d="M2.84065 1.95997l0.294823 0c0.0589094,0 0.106669,0.0477598 0.106669,0.106669l0 0.483366c0,0.0589094 -0.0477598,0.106669 -0.106669,0.106669l-0.294823 0c-0.0589094,0 -0.106669,-0.0477598 -0.106669,-0.106669l0 -0.483366c0,-0.0589094 0.0477598,-0.106669 0.106669,-0.106669zm0.188154 0.213339l-0.0814843 0 0 0.270028 0.0814843 0 0 -0.270028z"/>
  <path class="fil2" d="M4.33832 5.20282c-0.0875157,0 -0.166744,0.0354685 -0.224083,0.0928071 -0.0573386,0.0573386 -0.0928071,0.136567 -0.0928071,0.224083 0,0.0875197 0.0354724,0.166748 0.0928071,0.224083 0.0573386,0.0573386 0.136567,0.0928071 0.224083,0.0928071 0.0875197,0 0.166748,-0.0354724 0.224083,-0.0928071 0.0573346,-0.0573346 0.0928071,-0.136563 0.0928071,-0.224083 0,-0.0875157 -0.0354685,-0.166744 -0.0928071,-0.224083 -0.0573346,-0.0573346 -0.136563,-0.0928071 -0.224083,-0.0928071zm-0.374917 -0.0580276c0.0959567,-0.0959567 0.228516,-0.155311 0.374917,-0.155311 0.146409,0 0.278969,0.0593543 0.374917,0.155311 0.0959567,0.0959567 0.155311,0.228516 0.155311,0.374917 0,0.146409 -0.0593543,0.278969 -0.155311,0.374917 -0.0959488,0.0959567 -0.228508,0.155311 -0.374917,0.155311 -0.146402,0 -0.278961,-0.0593543 -0.374917,-0.155311 -0.0959567,-0.0959488 -0.155311,-0.228508 -0.155311,-0.374917 0,-0.146402 0.0593543,-0.278961 0.155311,-0.374917z"/>
  <path class="fil2" d="M4.33832 5.47494c-0.0123661,0 -0.0235709,0.00501575 -0.0316654,0.0131102 -0.00809449,0.00809449 -0.0131102,0.0192992 -0.0131102,0.0316654 0,0.0125079 0.00493307,0.0236969 0.0129016,0.0316654l0.000102362 0.000106299 0.000106299 -0.000106299c0.00809449,0.00809449 0.0192992,0.0131102 0.0316654,0.0131102 0.0125079,0 0.0236969,-0.00493307 0.0316654,-0.0129016l0.000212598 -0.000204724 -3.93701e-006 -3.93701e-006c0.0079685,-0.0079685 0.0129016,-0.0191575 0.0129016,-0.0316654 0,-0.0123661 -0.00501575,-0.0235709 -0.0131102,-0.0316654 -0.000649606,-0.000649606 -0.00127559,-0.00130709 -0.00188583,-0.00198425 -0.00780315,-0.00691732 -0.0182283,-0.011126 -0.0297795,-0.011126zm-0.107083 -0.0623071c0.0274094,-0.0274094 0.0652717,-0.0443622 0.107083,-0.0443622 0.0398465,0 0.0762087,0.015563 0.103386,0.0409961 0.00127165,0.00105512 0.00250787,0.00217717 0.00369685,0.00336614 0.0274094,0.0274094 0.0443622,0.0652717 0.0443622,0.107083 0,0.0414921 -0.0168898,0.0792126 -0.0442087,0.106717l-0.000153543 0.00015748 -0.000106299 0.000102362 -0.000102362 0.000106299c-0.0275118,0.0274173 -0.0652992,0.0443622 -0.106874,0.0443622 -0.041811,0 -0.0796732,-0.0169528 -0.107083,-0.0443622l0.000106299 -0.000106299c-0.0274764,-0.0275236 -0.0444685,-0.0653504 -0.0444685,-0.106976 0,-0.041811 0.0169528,-0.0796732 0.0443622,-0.107083z"/>
  <path class="fil2" d="M2.78261 4.38446c-0.00862205,-0.0102244 -0.0168268,-0.0216929 -0.0243898,-0.0345354 -0.0073622,-0.0125 -0.0139528,-0.0261654 -0.0195079,-0.0410866 -0.00498031,-0.0133543 -0.00912205,-0.0276339 -0.0122362,-0.0428543 -0.00278346,-0.0136181 -0.00477953,-0.0279016 -0.00584252,-0.042878 -0.000232283,-0.00169291 -0.000358268,-0.00341732 -0.000358268,-0.00517323l0 -4.72441e-005 -5.90551e-005 -0.00110236 -0.000204724 -0.00451181 -0.000133858 -0.00409843 -3.93701e-006 -0.000377953 -3.93701e-006 -0.000122047m0.102697 0.104524c0.00505906,0.00859055 0.0108228,0.0165906 0.0170748,0.0240079 0.00693701,0.00822835 0.0139803,0.0157559 0.0210866,0.0225669 0.00695669,0.00666929 0.0142559,0.012878 0.0218346,0.0186181 0.017811,0.0134724 0.0362638,0.0234764 0.0549016,0.0299646 0.0185276,0.00644882 0.0373701,0.00954331 0.0560512,0.00924409 0.0184843,-0.000299213 0.0370551,-0.004 0.055248,-0.0111339 0.0177992,-0.00697638 0.0352008,-0.0173228 0.0517756,-0.0310709 0.000511811,-0.000456693 0.00103543,-0.000909449 0.0015748,-0.00134252l0.00042126 -0.00034252 3.14961e-005 4.33071e-005 0.000141732 -0.000110236 0.000429134 -0.000326772 3.93701e-005 5.51181e-005c0.00612992,-0.00524409 0.0124409,-0.0113071 0.0189252,-0.0182087 0.00635433,-0.00675984 0.0126614,-0.0142598 0.0188898,-0.0224882 0.00211417,-0.00279921 0.00433465,-0.00591732 0.00665354,-0.00935827 0.00269685,-0.004 0.00485433,-0.00733858 0.0064252,-0.00995669 0.00227559,-0.00378346 0.00429528,-0.00732283 0.00603937,-0.0105866 0.00151969,-0.00283465 0.00334646,-0.00650394 0.00548819,-0.0110315 0.00288583,-0.00607874 0.00709843,-0.0163071 0.0105236,-0.0301811 0.00354724,-0.0143898 0.00621654,-0.0324213 0.00574016,-0.0533976 -0.000484252,-0.0209409 -0.0041063,-0.0450591 -0.013126,-0.0718268 -0.00920079,-0.0273071 -0.0240906,-0.0572913 -0.0470433,-0.0893858l1.1811e-005 -7.87402e-006 -0.000240157 -0.000322835c-0.020122,-0.0273976 -0.0368622,-0.0543307 -0.0507638,-0.0803268 -0.0159252,-0.0297835 -0.0277717,-0.057563 -0.0365157,-0.0829803 -0.0131575,-0.0382559 -0.019874,-0.0723346 -0.0230591,-0.10035 -0.00103543,-0.00912598 -0.00169685,-0.0176181 -0.0020748,-0.0254094 -0.00205512,0.00242913 -0.00415748,0.00505512 -0.00629528,0.00785433 -0.00887402,0.0116024 -0.0164843,0.0236142 -0.0228858,0.035878 -0.00657087,0.0125787 -0.0121339,0.0259764 -0.0167244,0.0399449l-0.000409449 0.00123622 -0.000133858 0.000374016c-0.00468504,0.0145433 -0.00811417,0.0290866 -0.0103543,0.0434291 -0.00229528,0.0147244 -0.00341732,0.0301969 -0.00341732,0.046122 0,0.00857874 -0.000279528,0.0179331 -0.000818898,0.027878 -0.000543307,0.0100197 -0.00126378,0.0186654 -0.00214567,0.0258425 -0.000944882,0.00774409 -0.00218504,0.0151811 -0.00367323,0.0221575 -0.00150394,0.00705512 -0.00339764,0.0136457 -0.00563386,0.019626 -0.0018622,0.00498031 -0.00380709,0.00932283 -0.00577953,0.0130079 -0.00216929,0.00406299 -0.00450787,0.0076063 -0.0069685,0.0106142 -0.00264173,0.00341339 -0.0059252,0.0064252 -0.00980709,0.00884252 -0.0175236,0.0109016 -0.0405748,0.0055315 -0.0514764,-0.0119921 -0.000212598,-0.00034252 -0.000259843,-0.000429134 -0.000295276,-0.000511811 -0.000437008,-0.000661417 -0.000858268,-0.00133858 -0.00125591,-0.00203543 -0.00517717,-0.00902756 -0.00912992,-0.0215079 -0.0110827,-0.0371496 -0.00245669,0.00374803 -0.00492126,0.00775984 -0.00735433,0.0120433 -0.00501181,0.00882677 -0.0101693,0.0191378 -0.015311,0.0311614 -0.00446457,0.0104409 -0.00882283,0.0219055 -0.0129409,0.0344528 -0.000200787,0.000834646 -0.000429134,0.00166142 -0.000688976,0.00248819 -0.00324409,0.0102323 -0.00593307,0.0196732 -0.0081063,0.0283583 -0.00259843,0.010374 -0.00455118,0.0193701 -0.00594094,0.0271299 -0.00151969,0.00849213 -0.00269685,0.0169843 -0.0035748,0.0253898 -0.00080315,0.00775197 -0.00129528,0.0147835 -0.00150394,0.0211417 6.69291e-005,0.00134646 6.69291e-005,0.0027126 -1.1811e-005,0.00409055l0 0.00716929c3.54331e-005,0.000653543 5.51181e-005,0.00131102 5.51181e-005,0.00197244l0 0.000212598 -0.000125984 0 6.29921e-005 0.00264173 7.87402e-006 0.000204724 0.000129921 0.00292913 0.000204724 0.00363386c3.54331e-005,0.000614173 3.93701e-005,0.000228346 0.000208661,0.0024685l-3.14961e-005 0 4.33071e-005 0.000582677c0.000795276,0.0127402 0.0023622,0.0244961 0.0045748,0.0353228 0.00234646,0.0114528 0.0053937,0.0220157 0.00901969,0.0317441 0.00397638,0.0106732 0.00869291,0.0204488 0.0139567,0.0293898zm-0.102697 -0.104535c-0.000181102,-0.00150394 -0.000283465,-0.00303937 -0.000283465,-0.00459449l0 -0.00977953c0,-0.00128346 6.29921e-005,-0.00255118 0.000192913,-0.00380315l-2.75591e-005 0 6.29921e-005 -0.00073622 8.26772e-005 -0.000877953c0.00026378,-0.00874409 0.00084252,-0.0177008 0.00179134,-0.0267835 0.000976378,-0.00940551 0.00244094,-0.0197047 0.00445276,-0.0309409 0.00198425,-0.0110906 0.00425197,-0.0218622 0.0068189,-0.0321063 0.00272441,-0.0108937 0.00580709,-0.0218307 0.00927165,-0.032748 0.000279528,-0.000885827 0.000590551,-0.00175591 0.000929134,-0.0026063 0.00499213,-0.0152874 0.0101457,-0.0289213 0.0153386,-0.0410591 0.00624803,-0.0146142 0.0127047,-0.0274803 0.0191142,-0.0387598 0.00798425,-0.014063 0.0156693,-0.0253898 0.0227441,-0.0344882 0.00948819,-0.012189 0.0186811,-0.0214213 0.0263425,-0.0281142 0.00591339,-0.00517323 0.0125315,-0.00890157 0.0195039,-0.0113071 0.00751969,-0.00259843 0.0151142,-0.00358268 0.0223819,-0.00313386 0.00212205,0.000129921 0.00420866,0.000370079 0.00625197,0.000712598 0.000748031,-0.0106969 0.00198031,-0.0216063 0.00370472,-0.0326732 0.00297638,-0.0190709 0.00735039,-0.037752 0.0131811,-0.0557205l0.000299213 -0.000877953 -7.87402e-006 0 0.000177165 -0.000492126c0.00564961,-0.0171535 0.0128228,-0.0342323 0.0215787,-0.051 0.00858268,-0.016437 0.0184409,-0.0320906 0.0296142,-0.0467008 0.0031811,-0.00416535 0.00669685,-0.00847638 0.0105512,-0.0129213 0.00365748,-0.00422047 0.00741339,-0.00830315 0.0112559,-0.0122087 0.0035315,-0.00359055 0.00751969,-0.00737795 0.0119843,-0.0113701 0.0043189,-0.0038622 0.00850787,-0.00737795 0.0125157,-0.0104921 0.000984252,-0.000759843 0.00208661,-0.00153543 0.00329528,-0.0023189l-3.93701e-006 -3.93701e-006c0.00220472,-0.00147638 0.0043937,-0.00276378 0.00654331,-0.00384252l-2.75591e-005 -5.51181e-005c0.00212598,-0.00105512 0.00455118,-0.00205118 0.00723622,-0.0029685 0.00288583,-0.000980315 0.00614173,-0.00174409 0.00969685,-0.00229528l2.3622e-005 -3.93701e-006 -2.3622e-005 -0.000145669c0.00267717,-0.000409449 0.00593307,-0.000590551 0.00972441,-0.00053937l0.000145669 0 0 0 0.00123622 1.9685e-005c0.000685039,7.87402e-006 0.0013622,3.93701e-005 0.00203937,8.66142e-005l3.93701e-006 -8.66142e-005c0.00703937,0.000507874 0.0140236,0.00238976 0.020563,0.00543307l5.51181e-005 -0.000122047c0.0062874,0.00292913 0.0121732,0.00712598 0.0172835,0.012378 0.00517717,0.00531102 0.00943701,0.0117756 0.012374,0.0191654 0.00245276,0.00616929 0.00390157,0.0128504 0.00409055,0.0198937 9.05512e-005,0.00105906 0.000141732,0.00213386 0.000141732,0.00322047 0,0.00153543 -9.44882e-005,0.00305118 -0.000275591,0.0045315 -0.00069685,0.0110945 -0.00084252,0.0278543 0.00160236,0.0493425 0.00262205,0.0230709 0.0082874,0.0515315 0.0195472,0.0842677 0.00784252,0.0227913 0.0181181,0.0470551 0.0315394,0.0721575 0.0120433,0.0225157 0.0269094,0.0463465 0.0452087,0.0712638 0.000425197,0.000586614 0.000830709,0.00117323 0.00122047,0.00177165 0.0272559,0.0382165 0.0452126,0.074685 0.0565827,0.108417 0.0116102,0.0344488 0.0162874,0.0661378 0.0169252,0.0940512 0.000653543,0.0286299 -0.0029685,0.0531614 -0.0077874,0.0727008 -0.00495276,0.0200591 -0.0111969,0.0351654 -0.0154921,0.0442244 -0.00195669,0.00412992 -0.00438189,0.0088937 -0.00724409,0.014248 -0.00273228,0.0051063 -0.00533071,0.00970079 -0.00779528,0.0138031 -0.0033189,0.00551969 -0.0061378,0.01 -0.00847244,0.0134646 -0.00283858,0.0042126 -0.00584252,0.00840945 -0.00899606,0.0125748 -0.00762205,0.0100748 -0.015689,0.019626 -0.0241535,0.0286299 -0.00816929,0.00869685 -0.0170118,0.0170354 -0.0264409,0.0249843l-0.000547244 0.000448819 0.000106299 0.000133858 -0.00042126 0.000338583c-0.000531496,0.000433071 -0.0010748,0.000846457 -0.00162205,0.00124409 -0.0225945,0.0186142 -0.0466614,0.0327992 -0.0716142,0.0425787 -0.0262835,0.0103071 -0.0536102,0.0156614 -0.0812717,0.0161063 -0.0275315,0.000444882 -0.0550276,-0.00402362 -0.0817913,-0.0133386 -0.0261535,-0.00910236 -0.0515,-0.0227244 -0.075374,-0.0407874 -0.00954724,-0.00722441 -0.0190906,-0.0153819 -0.0285591,-0.0244646 -0.00911024,-0.00872835 -0.0179134,-0.0181102 -0.0263543,-0.028126m0.180535 -0.544232l-0.00011811 0.000358268"/>
  <path class="fil2" d="M2.92241 4.39355c0.0230079,0.015063 0.0458465,0.0229449 0.0672126,0.0230709 0.0199449,0.000114173 0.0394843,-0.00668898 0.0574764,-0.0208976 0.00910236,-0.0153622 0.0173425,-0.0355906 0.0187441,-0.0597441 0.00119291,-0.0205197 -0.0024252,-0.0442008 -0.0142992,-0.070752 -0.0206929,-0.0462598 -0.0384016,-0.0842992 -0.0525197,-0.113906 -0.0109409,0.0230669 -0.0250669,0.0484291 -0.0429055,0.0728583 -0.0224685,0.0307638 -0.0394055,0.0653701 -0.0444134,0.0994724 -0.0035315,0.0240394 -0.000834646,0.0479488 0.0107047,0.0698976zm0.0669213 0.0976535c-0.0384567,-0.000224409 -0.0774921,-0.0138307 -0.114583,-0.0397638 -0.00495669,-0.00298819 -0.00929921,-0.00717323 -0.0125394,-0.0124449 -0.0245709,-0.0399449 -0.0308071,-0.0832205 -0.0245,-0.126165 0.00685039,-0.0466457 0.0289882,-0.0925748 0.0581575,-0.132516 0.0452795,-0.0620157 0.0620433,-0.131965 0.0620906,-0.132165l3.54331e-005 7.87402e-006c0.00249213,-0.00994882 0.00903937,-0.0188346 0.0188307,-0.0239882 0.018248,-0.00961024 0.0408425,-0.00260236 0.0504488,0.0156457 9.84252e-005,0.000192913 0.0348583,0.0663268 0.0924134,0.194996 0.0173268,0.0387362 0.0225472,0.0741024 0.0207402,0.105264 -0.00245669,0.0422638 -0.0176299,0.0762441 -0.0332638,0.100579l-2.75591e-005 -1.5748e-005c-0.00188583,0.00293701 -0.00422047,0.00565748 -0.00699213,0.00805906 -0.0333898,0.0289291 -0.0712205,0.0427402 -0.110811,0.0425079z"/>
  <path class="fil3" d="M3.06585 4.33598c0.00119291,-0.0205197 -0.0024252,-0.0442008 -0.0142992,-0.070752 -0.0206929,-0.0462598 -0.0384016,-0.0842992 -0.0525197,-0.113906 -0.0109409,0.0230669 -0.0250669,0.0484291 -0.0429055,0.0728583 -0.0224685,0.0307638 -0.0394055,0.0653701 -0.0444134,0.0994724 -0.0035315,0.0240394 -0.000834646,0.0479488 0.0107047,0.0698976 0.0219567,0.014378 0.0437638,0.0222126 0.0642795,0.0230039 0.000980315,2.75591e-005 0.00195669,4.72441e-005 0.00293307,6.69291e-005 0.000515748,-7.87402e-006 0.0010315,-7.87402e-006 0.00154724,-7.87402e-006 1.5748e-005,0 3.54331e-005,0 5.11811e-005,0 0.0193898,-0.000248031 0.0383661,-0.00705906 0.055878,-0.0208898 0.00910236,-0.0153622 0.0173425,-0.0355906 0.0187441,-0.0597441z"/>
  <path class="fil1" d="M3.12171 4.04594l0 0zm-0.0944331 -0.00612598c9.84252e-005,0.000192913 0.0348583,0.0663268 0.0924134,0.194996 0.0158504,0.035437 0.0215669,0.0680512 0.0210472,0.0972047 8.26772e-005,-0.000114173 0.000173228,-0.000228346 0.000259843,-0.00034252 0.00211417,-0.00279921 0.00433465,-0.00591732 0.00665354,-0.00935827 0.00269685,-0.004 0.00485433,-0.00733858 0.0064252,-0.00995669 0.00227559,-0.00378346 0.00429528,-0.00732283 0.00603937,-0.0105866 0.00151969,-0.00283465 0.00334646,-0.00650394 0.00548819,-0.0110315 0.00288583,-0.00607874 0.00709843,-0.0163071 0.0105236,-0.0301811 0.00354724,-0.0143898 0.00621654,-0.0324213 0.00574016,-0.0533976 -0.000484252,-0.0209409 -0.0041063,-0.0450591 -0.013126,-0.0718268 -0.00920079,-0.0273071 -0.0240906,-0.0572913 -0.0470315,-0.0893937l-0.000240157 -0.000322835c-0.020122,-0.0273976 -0.0368622,-0.0543307 -0.0507638,-0.0803268 -0.0159252,-0.0297835 -0.0277717,-0.057563 -0.0365157,-0.0829803 -0.0131575,-0.0382559 -0.019874,-0.0723346 -0.0230591,-0.10035 -0.00103543,-0.00912598 -0.00169685,-0.0176181 -0.0020748,-0.0254094 -0.00205512,0.00242913 -0.00415748,0.00505512 -0.00629528,0.00785433 -0.00887402,0.0116024 -0.0164843,0.0236142 -0.0228858,0.035878 -0.00657087,0.0125787 -0.0121339,0.0259764 -0.0167244,0.0399449l-0.00011811 0.000358268 -0.000291339 0.000877953 -0.000133858 0.000374016c-0.00468504,0.0145433 -0.00811417,0.0290866 -0.0103543,0.0434291 -0.00229528,0.0147244 -0.00341732,0.0301969 -0.00341732,0.046122 0,0.00857874 -0.000279528,0.0179331 -0.000818898,0.027878 -0.000543307,0.0100197 -0.00126378,0.0186654 -0.00214567,0.0258425 -0.000944882,0.00774409 -0.00218504,0.0151811 -0.00367323,0.0221575 -0.00150394,0.00705512 -0.00339764,0.0136457 -0.00563386,0.019626 -0.0018622,0.00498031 -0.00380709,0.00932283 -0.00577953,0.0130079 -0.00216929,0.00406299 -0.00450787,0.0076063 -0.0069685,0.0106142 -0.00264173,0.00341339 -0.0059252,0.0064252 -0.00980709,0.00884252 -0.0175236,0.0109016 -0.0405748,0.0055315 -0.0514764,-0.0119921l-0.000295276 -0.000511811 -0.00125591 -0.00203543c-0.00517717,-0.00902756 -0.00912992,-0.0215079 -0.0110827,-0.0371496 -0.00245669,0.00374803 -0.00492126,0.00775984 -0.00735433,0.0120433 -0.00501181,0.00882677 -0.0101693,0.0191378 -0.015311,0.0311614 -0.00446457,0.0104409 -0.00882283,0.0219055 -0.0129409,0.0344528 -0.000200787,0.000834646 -0.000429134,0.00166142 -0.000688976,0.00248819 -0.00324409,0.0102323 -0.00593307,0.0196732 -0.0081063,0.0283583 -0.00259843,0.010374 -0.00455118,0.0193701 -0.00594094,0.0271299 -0.00151969,0.00849213 -0.00269685,0.0169843 -0.0035748,0.0253898 -0.00080315,0.00775197 -0.00129528,0.0147835 -0.00150394,0.0211417 6.69291e-005,0.00134646 6.69291e-005,0.0027126 -1.1811e-005,0.00409055l0 0.00716929 5.51181e-005 0.00197244 0 0.000212598 -0.000125984 0 6.29921e-005 0.00264173 7.87402e-006 0.000204724 0.000129921 0.00292913 0.000204724 0.00363386 0.000208661 0.0024685 -3.14961e-005 0 4.33071e-005 0.000582677c0.000795276,0.0127402 0.0023622,0.0244961 0.0045748,0.0353228 0.00234646,0.0114528 0.0053937,0.0220157 0.00901969,0.0317441 0.00397638,0.0106732 0.00869291,0.0204488 0.0139567,0.0293898 0.004,0.00679134 0.00843701,0.0132126 0.0132087,0.0192677 0.000370079,-0.00620866 0.00101969,-0.0124252 0.00193307,-0.0186339 0.00685039,-0.0466457 0.0289882,-0.0925748 0.0581575,-0.132516 0.0452795,-0.0620157 0.0620433,-0.131965 0.0620906,-0.132165l3.54331e-005 7.87402e-006c0.00249213,-0.00994882 0.00903937,-0.0188346 0.0188307,-0.0239882 0.018248,-0.00961024 0.0408425,-0.00260236 0.0504488,0.0156457z"/>
  <path class="fil4" d="M4.11424 5.29563c-0.0573386,0.0573386 -0.0928071,0.136567 -0.0928071,0.224083 0,0.0134843 0.00084252,0.0267717 0.00247638,0.039815 7.48031e-005,0.000559055 0.000149606,0.00111811 0.000216535,0.0016811 0.00927165,0.0709213 0.0419921,0.134465 0.0901142,0.182587 0.0573386,0.0573386 0.136567,0.0928071 0.224083,0.0928071 0.0875197,0 0.166748,-0.0354724 0.224083,-0.0928071 0.0573346,-0.0573346 0.0928071,-0.136563 0.0928071,-0.224083 0,-0.0875157 -0.0354685,-0.166744 -0.0928071,-0.224083 -0.0491811,-0.0491811 -0.114469,-0.0822756 -0.187283,-0.0906929 -0.00137402,-0.000122047 -0.00274409,-0.000271654 -0.00410236,-0.000448819 -0.010748,-0.00110236 -0.0216575,-0.00166535 -0.0326969,-0.00166535 -0.0875157,0 -0.166744,0.0354685 -0.224083,0.0928071zm0.0726378 0.224083c0,-0.041811 0.0169528,-0.0796732 0.0443622,-0.107083 0.0274094,-0.0274094 0.0652717,-0.0443622 0.107083,-0.0443622 0.0398465,0 0.0762087,0.015563 0.103386,0.0409961 0.00127165,0.00105512 0.00250787,0.00217717 0.00369685,0.00336614 0.0274094,0.0274094 0.0443622,0.0652717 0.0443622,0.107083 0,0.0414921 -0.0168898,0.0792126 -0.0442087,0.106717l-0.000153543 0.00015748 -0.000106299 0.000102362 -0.000102362 0.000106299c-0.0275118,0.0274173 -0.0652992,0.0443622 -0.106874,0.0443622 -0.041811,0 -0.0796732,-0.0169528 -0.107083,-0.0443622l0.000106299 -0.000106299c-0.0274764,-0.0275236 -0.0444685,-0.0653504 -0.0444685,-0.106976z"/>
  <path class="fil0" d="M4.30666 5.48805c-0.00809449,0.00809449 -0.0131102,0.0192992 -0.0131102,0.0316654 0,0.0125079 0.00493307,0.0236969 0.0129016,0.0316654l0.000102362 0.000106299 0.000106299 -0.000106299c0.00809449,0.00809449 0.0192992,0.0131102 0.0316654,0.0131102 0.0125079,0 0.0236969,-0.00493307 0.0316654,-0.0129016l0.000208661 -0.000208661c0.0079685,-0.0079685 0.0129016,-0.0191575 0.0129016,-0.0316654 0,-0.0123661 -0.00501575,-0.0235709 -0.0131102,-0.0316654l-0.00188583 -0.00198425c-0.00780315,-0.00691732 -0.0182283,-0.011126 -0.0297795,-0.011126 -0.0123661,0 -0.0235709,0.00501575 -0.0316654,0.0131102z"/>
  <polygon class="fil4" points="1.58856,2.23503 2.14748,2.05724 1.58856,1.87944 "/>
  <polygon class="fil1" points="2.94731,2.17331 2.94731,2.44334 3.0288,2.44334 3.0288,2.17331 2.98806,2.17331 "/>
  <rect class="fil5 str0" x="2.60378" y="3.52" width="0.768547" height="1.11111"/>
 </g>
 <rect class="fil5" width="6.82666" height="6.82666"/>
</svg>
