<?xml version="1.0" encoding="UTF-8"?>
<!DOCTYPE svg PUBLIC "-//W3C//DTD SVG 1.1//EN" "http://www.w3.org/Graphics/SVG/1.1/DTD/svg11.dtd">
<!-- Creator: CorelDRAW -->
<svg xmlns="http://www.w3.org/2000/svg" xml:space="preserve" width="6.82666in" height="6.82666in" style="shape-rendering:geometricPrecision; text-rendering:geometricPrecision; image-rendering:optimizeQuality; fill-rule:evenodd; clip-rule:evenodd"
viewBox="0 0 6.82666 6.82666"
 xmlns:xlink="http://www.w3.org/1999/xlink">
 <defs>
  <style type="text/css">
   <![CDATA[
    .fil8 {fill:none}
    .fil3 {fill:#949494}
    .fil4 {fill:#AED581}
    .fil1 {fill:#B38E85}
    .fil2 {fill:#EBE5DF}
    .fil7 {fill:#F45A52}
    .fil6 {fill:#FECA5F}
    .fil5 {fill:#FFD3B3}
    .fil0 {fill:#212121;fill-rule:nonzero}
   ]]>
  </style>
 </defs>
 <g id="Layer_x0020_1">
  <metadata id="CorelCorpID_0Corel-Layer"/>
  <g id="_517300464">
   <path id="_517301424" class="fil0" d="M2.17831 3.3756l0.0935866 0.629949c0.00403937,0.0276063 -0.00656299,0.0539724 -0.025937,0.071252l-0.514169 0.457079c-0.00270472,0.0044252 -0.00466142,0.00909843 -0.00588583,0.0138622 -0.00177165,0.0068937 -0.00200787,0.014315 -0.000775591,0.0217323 0.000425197,0.00256299 0.000724409,0.00511811 0.000901575,0.00765748l0.0818543 0.779476 0.000161417 -1.9685e-005c0.00175197,0.0139843 0.00909055,0.0260039 0.0195236,0.0341063 0.0104291,0.00810236 0.0240551,0.0122165 0.0383898,0.0104213 0.0139882,-0.00175197 0.026,-0.00909055 0.0341063,-0.0195197 0.00810236,-0.0104291 0.0122165,-0.0240591 0.0104213,-0.0383937 -0.000275591,-0.00225591 -0.000448819,-0.0045 -0.000535433,-0.00672835l-0.0753937 -0.72898c-0.00261811,-0.0255748 0.00715748,-0.049563 0.0244528,-0.066 0.0537835,-0.0571378 0.161193,-0.138102 0.277421,-0.225709 0.183256,-0.138126 0.391102,-0.294799 0.38689,-0.319575 -0.000169291,-0.00100787 -0.000311024,-0.00201575 -0.000440945,-0.00301969l-0.171276 -1.05147 -5.11811e-005 7.87402e-006c-0.00551969,-0.0324606 -0.0237638,-0.0596772 -0.0487795,-0.0774213 -0.0248937,-0.0176535 -0.0567087,-0.0257835 -0.0895276,-0.0202047 -0.000787402,0.000129921 -0.0015748,0.000251969 -0.0023622,0.000358268 -0.0186535,0.0034685 -0.033122,0.0123465 -0.0459646,0.0254291 -0.0189646,0.0193228 -0.0367953,0.0481654 -0.0566614,0.0825787l-0.000137795 0.000232283 0.000137795 7.87402e-005c-0.0482717,0.0836063 -0.108024,0.183154 -0.166102,0.273224 -0.0472362,0.0732638 -0.0937835,0.140945 -0.133063,0.190248 -0.0184488,0.0232047 -0.0471969,0.0334016 -0.0745472,0.0292559l-0.421925 -0.0427874c-0.0033937,-7.87402e-005 -0.00673622,-0.000370079 -0.0100118,-0.000858268 -0.0130118,-0.000429134 -0.0251614,0.00393307 -0.0345748,0.0115787 -0.00947638,0.00769685 -0.0162717,0.0187008 -0.0184921,0.0314685 -0.000137795,0.00248819 -0.000389764,0.00494094 -0.000751969,0.00736614 -0.000429134,0.0130118 0.00393701,0.0251654 0.0115866,0.0345827 0.00841339,0.0103583 0.0207756,0.0175118 0.0350709,0.0189921 0.000712598,7.48031e-005 0.0014252,0.000153543 0.00213386,0.000248031l0.501291 0.0508386 0.000311024 3.54331e-005 3.93701e-006 -3.54331e-005c0.00974016,0.00100787 0.0189449,-0.000594488 0.0269055,-0.00421654 0.00840157,-0.00382283 0.0157441,-0.00995669 0.0212008,-0.0177008 0.000905512,-0.0012874 0.00184646,-0.00253543 0.00281102,-0.00375197l0.283453 -0.355772c0.0274409,-0.0345157 0.0776732,-0.040252 0.112189,-0.012811 0.0345157,0.0274409 0.040252,0.0776732 0.012811,0.112189l-0.080248 0.100724zm-0.0708622 0.610504l-0.0653071 -0.439594 -0.0658031 0.0825906c-0.0214724,0.0296575 -0.0504882,0.0533661 -0.0839921,0.068622 -0.033311,0.0151654 -0.0707874,0.0219606 -0.109409,0.0179646l3.93701e-006 -3.14961e-005 -0.501457 -0.0508543 -0.0022874 -0.000200787c-0.0581772,-0.00602756 -0.108406,-0.0350669 -0.142567,-0.0771181 -0.0341732,-0.0420669 -0.052315,-0.0970984 -0.0463425,-0.155114l1.1811e-005 -0.000114173c0.00603543,-0.0581732 0.0350591,-0.108394 0.0771142,-0.142559 0.0420984,-0.0341929 0.0971654,-0.0523307 0.155213,-0.0463228l-3.93701e-006 3.14961e-005 0.387606 0.0393071c0.0299213,-0.0404921 0.0634094,-0.0900079 0.0975512,-0.142957 0.0571181,-0.0885787 0.115441,-0.18572 0.162354,-0.266972l0.000133858 7.87402e-005c0.0259409,-0.0449252 0.0501417,-0.0834921 0.0809055,-0.114843 0.0358189,-0.0364961 0.0774291,-0.0612205 0.133047,-0.0708976 0.000917323,-0.000185039 0.00184252,-0.000366142 0.00277559,-0.000519685 0.0758189,-0.0128937 0.14987,0.00628346 0.208283,0.0477087 0.0582874,0.0413386 0.100823,0.105 0.11378,0.181169l-5.51181e-005 7.87402e-006 5.51181e-005 0.000307087 0.171327 1.05178c0.000153543,0.000791339 0.000307087,0.00158661 0.000440945,0.00238583 0.020437,0.120138 -0.228587,0.307843 -0.448142,0.473331 -0.0956654,0.0721063 -0.185094,0.13952 -0.235476,0.185665l0.0714803 0.691138c0.000208661,0.00123228 0.000393701,0.00247638 0.000547244,0.00373228 0.00724803,0.0577835 -0.00968898,0.113138 -0.0429173,0.155898 -0.0332283,0.0427598 -0.0828504,0.0728583 -0.14098,0.0801417 -0.0577756,0.00724803 -0.113134,-0.00968898 -0.155894,-0.0429173 -0.0427559,-0.0332165 -0.0728543,-0.0828425 -0.0801457,-0.14098l0.000177165 -2.3622e-005 -0.000177165 -0.00153937 -0.0819488 -0.780366c-0.00443701,-0.0280906 -0.00312205,-0.0572835 0.00417717,-0.0856732 0.00648425,-0.0252402 0.0177165,-0.049622 0.0338307,-0.0717598 0.00390157,-0.00617717 0.00872441,-0.0119134 0.0144528,-0.0170118l0.487638 -0.433488z"/>
   <path id="_517301040" class="fil0" d="M2.14664 2.05429l7.87402e-006 0 0 4.72441e-005c0.0023622,0.000165354 0.00473228,0.000350394 0.0071063,0.000570866l8.26772e-005 7.87402e-006c0.0825472,0.00766142 0.154146,0.0480197 0.20315,0.107059 0.049063,0.0591063 0.0755906,0.136831 0.0679488,0.219142 -0.00766929,0.0825472 -0.0480276,0.154146 -0.107059,0.20315 -0.0591063,0.049063 -0.136835,0.0755906 -0.219142,0.0679488 -0.0825472,-0.00766929 -0.15415,-0.0480236 -0.203154,-0.107063 -0.0475236,-0.0572559 -0.0739016,-0.13198 -0.068563,-0.211421l-7.87402e-006 -0.000527559 0 -7.87402e-006 4.72441e-005 0c0.000161417,-0.0023622 0.000350394,-0.00473622 0.000570866,-0.0071063l7.87402e-006 -8.26772e-005c0.00766929,-0.0825433 0.0480197,-0.154134 0.107059,-0.203142 0.0572559,-0.0475236 0.131976,-0.0739055 0.211417,-0.0685669l0.000527559 -7.87402e-006zm-0.00179921 0.159976c-0.00377165,-8.26772e-005 -0.00748031,-0.000429134 -0.0111063,-0.00101575 -0.0366378,-0.00193307 -0.0709094,0.0103268 -0.0971654,0.0321181 -0.0263898,0.0219055 -0.044815,0.0533622 -0.0495827,0.0896339 -8.26772e-005,0.00377165 -0.000429134,0.00747638 -0.00101575,0.0111063 -0.00193307,0.0366417 0.0103228,0.0709134 0.0321142,0.0971693 0.0229803,0.027685 0.0564843,0.0466102 0.0950276,0.050189 0.0387874,0.00359843 0.0752717,-0.00878346 0.10289,-0.0317047 0.0276811,-0.0229803 0.0466063,-0.0564764 0.050185,-0.0950236 0.00359843,-0.0387874 -0.00878346,-0.0752717 -0.0317047,-0.10289 -0.0219055,-0.0263898 -0.0533622,-0.044815 -0.0896417,-0.0495827z"/>
   <path id="_517300296" class="fil0" d="M2.31633 4.27449c-0.0127717,-0.0422835 0.0111535,-0.0869173 0.053437,-0.099689 0.0422835,-0.0127717 0.0869173,0.0111535 0.099689,0.053437l0.155591 0.515087c0.00165354,0.00309055 0.00364961,0.00603937 0.00593307,0.00880315 0.00345276,0.0041811 0.00708268,0.0075315 0.0107559,0.0100039 0.00509843,0.00341339 0.00967323,0.0073189 0.0137126,0.0116024l3.93701e-005 -3.93701e-005 0.385791 0.408988c0.0105512,0.00657087 0.0227047,0.00894094 0.0343071,0.00738583 0.0131614,-0.00176378 0.0256811,-0.00858661 0.0344134,-0.0200276 0.00872047,-0.0114291 0.0119921,-0.0252835 0.0102283,-0.0384331 -0.00176378,-0.0131575 -0.00858661,-0.0256772 -0.0200276,-0.0344094 -0.00391732,-0.00299213 -0.00748031,-0.00627559 -0.0106811,-0.00979528l-0.368976 -0.39763c-0.00890945,-0.0095748 -0.0150118,-0.020752 -0.0183504,-0.0325236l-8.66142e-005 2.3622e-005 -0.181343 -0.631917c-0.0120787,-0.0424528 0.0125472,-0.0866693 0.055,-0.098748 0.0424528,-0.0120787 0.0866693,0.0125472 0.098748,0.055l0.176094 0.61363 0.35248 0.37985c0.0427835,0.0351378 0.068378,0.0839488 0.0752677,0.135268 0.00720866,0.0537008 -0.00604724,0.110134 -0.0414803,0.156559 -0.0354213,0.0464055 -0.0863504,0.0740748 -0.140035,0.0812795 -0.0532323,0.00714567 -0.109154,-0.00582677 -0.155346,-0.0405709 -0.00385039,-0.00283465 -0.00750394,-0.00605118 -0.0108976,-0.00965748l-0.386165 -0.40939c-0.013626,-0.0101299 -0.0259409,-0.0217047 -0.0365748,-0.0345748 -0.0111654,-0.0135197 -0.0208583,-0.0287874 -0.0286929,-0.0456654 -0.0023937,-0.00451181 -0.00438976,-0.00932283 -0.00592126,-0.0143976l-0.156909 -0.519449z"/>
   <path id="_517300896" class="fil0" d="M2.44908 3.24415c-0.0403858,-0.0177756 -0.0587126,-0.0649291 -0.040937,-0.105315 0.0177756,-0.0403858 0.0649291,-0.0587126 0.105315,-0.040937l0.242102 0.107287c0.027811,0.0122402 0.0451575,0.0384134 0.0474606,0.0667126l0.0659449 0.42335 5.11811e-005 0.000354331 0.000259843 -3.93701e-005c0.00216929,0.0141299 0.00984646,0.0260433 0.0204882,0.0338504 0.0106772,0.00783071 0.0245354,0.0115709 0.0390197,0.00934646 0.0141339,-0.00216929 0.0260433,-0.00984646 0.0338504,-0.0204882 0.00783071,-0.0106772 0.0115669,-0.0245354 0.00934252,-0.0390197 -0.000299213,-0.002 -0.000519685,-0.00399213 -0.000669291,-0.00597638l-0.0769488 -0.494 -5.11811e-005 -0.000354331 -0.000259843 3.93701e-005c-0.0014685,-0.00957087 -0.00530709,-0.0179843 -0.0107717,-0.0247008 -0.0059252,-0.00728346 -0.0136299,-0.0128543 -0.0222598,-0.0160827 -0.00253543,-0.000944882 -0.00499213,-0.00200394 -0.00737008,-0.00316929l-0.470287 -0.220551c-0.0398661,-0.0186378 -0.0570748,-0.0660748 -0.038437,-0.105941 0.0186378,-0.0398661 0.0660748,-0.0570748 0.105941,-0.038437l0.469122 0.220004c0.0340276,0.0133858 0.0640827,0.0353346 0.0870394,0.0635551 0.0231496,0.0284567 0.0392441,0.0630866 0.0451496,0.101575l-0.000255906 3.93701e-005 0.076874 0.49352c0.000523622,0.00220472 0.000968504,0.00444882 0.00131102,0.00673228 0.00883465,0.0575276 -0.00661417,0.113378 -0.0387205,0.157146 -0.0321378,0.0438031 -0.0809724,0.0753465 -0.13885,0.0842362 -0.0575354,0.00883465 -0.113382,-0.00661811 -0.157146,-0.0387244 -0.0438031,-0.0321378 -0.0753465,-0.0809724 -0.0842362,-0.13885l0.000255906 -3.93701e-005 -0.0600433 -0.38548 -0.202283 -0.0896417z"/>
  </g>
  <path class="fil0" d="M4.03519 1.45694c-0.0589094,0 -0.106669,-0.0477598 -0.106669,-0.106669 0,-0.0589094 0.0477598,-0.106669 0.106669,-0.106669l1.77136 0c0.0589094,0 0.106669,0.0477598 0.106669,0.106669l0 3.68683c0,0.0589094 -0.0477598,0.106669 -0.106669,0.106669l-1.90245 0c-0.0589094,0 -0.106669,-0.0477598 -0.106669,-0.106669l0 -2.13094c0,-0.0589094 0.0477598,-0.106669 0.106669,-0.106669 0.0589094,0 0.106669,0.0477598 0.106669,0.106669l0 2.02427 1.68911 0 0 -3.4735 -1.66469 0z"/>
  <path class="fil0" d="M4.83389 5.04061c0,0.0589094 -0.0477598,0.106669 -0.106669,0.106669 -0.0589094,0 -0.106669,-0.0477598 -0.106669,-0.106669l0 -3.25591c0,-0.0476614 0.0312598,-0.0880157 0.0743976,-0.101693l1.07202 -0.431484c0.0545354,-0.0218583 0.116476,0.00463386 0.138335,0.0591693 0.0218583,0.0545354 -0.00463386,0.116476 -0.0591693,0.138335l-1.01225 0.407425 0 3.18416z"/>
  <path class="fil0" d="M3.48134 4.93394l2.32522 0c0.0589094,0 0.106669,0.0477598 0.106669,0.106669l0 0.422768c0,0.0589094 -0.0477598,0.106669 -0.106669,0.106669l-2.32522 0c-0.0589094,0 -0.106669,-0.0477598 -0.106669,-0.106669l0 -0.422768c0,-0.0589094 0.0477598,-0.106669 0.106669,-0.106669zm2.21855 0.213339l-2.11188 0 0 0.209429 2.11188 0 0 -0.209429z"/>
  <path class="fil0" d="M3.16524 5.77948l2.53465 0 0 -0.209429 -2.53465 0 0 0.209429zm2.64131 0.213339l-2.74798 0c-0.0589094,0 -0.106669,-0.0477598 -0.106669,-0.106669l0 -0.422768c0,-0.0589094 0.0477598,-0.106669 0.106669,-0.106669l2.74798 0c0.0589094,0 0.106669,0.0477598 0.106669,0.106669l0 0.422768c0,0.0589094 -0.0477598,0.106669 -0.106669,0.106669z"/>
  <path class="fil0" d="M4.9643 3.04103c0,-0.0441811 0.0358189,-0.08 0.08,-0.08 0.0441811,0 0.08,0.0358189 0.08,0.08l0 0.422768c0,0.0441811 -0.0358189,0.08 -0.08,0.08 -0.0441811,0 -0.08,-0.0358189 -0.08,-0.08l0 -0.422768z"/>
  <path class="fil0" d="M3.29151 2.69302c-0.0226457,-0.0268622 -0.043878,-0.0566142 -0.0629921,-0.0895315 -0.0174606,-0.0300669 -0.0332559,-0.0632008 -0.0468622,-0.099689 -0.0124843,-0.0334882 -0.022874,-0.0692953 -0.0306969,-0.107539 -0.00711024,-0.0347795 -0.0121654,-0.0712047 -0.0148031,-0.109307 -0.000468504,-0.00348031 -0.000716535,-0.00702362 -0.000720472,-0.0106299l-0.000208661 -0.00382283 -0.000535433 -0.0115079c-4.33071e-005,-0.00102362 -0.000161417,-0.00457874 -0.000334646,-0.0102874l-7.08661e-005 -0.00271654c-0.000401575,-0.00324803 -0.000610236,-0.00655906 -0.000610236,-0.00992126l0 -0.0250787 0.000362205 -0.00627559c7.48031e-005,-0.0013189 0.000161417,-0.00259843 0.00026378,-0.0038189 0.000622047,-0.0229567 0.00211417,-0.0466378 0.00462992,-0.0708583 0.00249213,-0.0239409 0.00617323,-0.0499724 0.0112323,-0.0781969 0.00497638,-0.0277638 0.0107244,-0.0549921 0.017311,-0.0813031 0.00687008,-0.0274331 0.014685,-0.0551614 0.0235276,-0.0830315 0.000574803,-0.00182283 0.00121654,-0.00361024 0.00190945,-0.0053622 0.0127638,-0.0391732 0.0259567,-0.0741024 0.0392559,-0.105205 0.0157992,-0.036937 0.0320709,-0.0693858 0.0482087,-0.0977913 0.0199764,-0.0351732 0.0392756,-0.0636102 0.0570906,-0.0865118 0.0237087,-0.0304843 0.0465118,-0.0533858 0.0654331,-0.0699331 0.0135827,-0.0118858 0.0287638,-0.0204252 0.0447087,-0.025937 0.0172283,-0.00594882 0.0346142,-0.00818898 0.0512795,-0.00716142 0.0090748,0.000559055 0.0179055,0.00200394 0.0263386,0.00424016l0.000291339 8.26772e-005 2.3622e-005 -8.26772e-005c0.00172047,0.00046063 0.00344488,0.00096063 0.00517323,0.00150394 0.00162598,-0.0331063 0.00507874,-0.0669291 0.0104291,-0.101244 0.00747638,-0.047937 0.0185039,-0.0949961 0.0332402,-0.140421l0.000314961 -0.000937008 -3.93701e-006 0 0.000291339 -0.000850394 0.000429134 -0.00121654 0.000212598 -0.000649606 -1.5748e-005 -7.87402e-006 0.000192913 -0.000523622c0.0142323,-0.0430787 0.0322047,-0.0858268 0.0540669,-0.127701 0.0215433,-0.0412598 0.0463465,-0.080622 0.0745197,-0.117465 0.00803937,-0.0105157 0.0168583,-0.0213386 0.0264567,-0.0324134 0.00912205,-0.0105276 0.0185236,-0.0207323 0.0281654,-0.0305394 0.00896063,-0.00911024 0.018937,-0.0186024 0.0299528,-0.0284449 0.0120906,-0.0108031 0.0224724,-0.0196063 0.0309528,-0.0261929 0.00284252,-0.00220866 0.0057874,-0.00418898 0.00881102,-0.00595669 0.00527953,-0.00351181 0.00995669,-0.00628346 0.0140157,-0.00830709 0.00207874,-0.00103543 0.00418504,-0.00196457 0.00630315,-0.00280315 0.00342126,-0.00150394 0.00684252,-0.00283858 0.0102598,-0.004 0.00664567,-0.00225984 0.0140906,-0.00401181 0.022185,-0.00526772 0.00748819,-0.00115748 0.0149646,-0.00167323 0.0223071,-0.00157087l0.00316535 4.72441e-005c0.00157087,1.9685e-005 0.00312598,9.05512e-005 0.00467323,0.00019685l1.5748e-005 -0.00019685c0.0161969,0.00116929 0.0322402,0.00549213 0.047252,0.0125039 0.0147992,0.00690551 0.0282953,0.0164134 0.0396339,0.0280472 0.011874,0.0121811 0.0216417,0.0269882 0.0283661,0.0439094 0.00574803,0.0144724 0.00908268,0.0302008 0.00938583,0.0468031 0.000177165,0.00217717 0.000271654,0.00437402 0.000271654,0.00659843 0,0.0033189 -0.000204724,0.00659055 -0.000598425,0.00980315 -0.00187795,0.0291142 -0.00233071,0.0733622 0.00412598,0.130138 0.00685039,0.0602283 0.0216063,0.134429 0.0508937,0.219579 0.0203031,0.0590276 0.0469961,0.122008 0.0819606,0.187394 0.0312874,0.0585039 0.0698189,0.120287 0.11715,0.184736l0.000909449 0.00127165 2.75591e-005 -1.9685e-005 0.000688976 0.000976378c0.000744094,0.00105512 0.00145276,0.00212598 0.0021378,0.00320472 0.0685157,0.0962913 0.113669,0.188024 0.142248,0.272823 0.0292244,0.0867126 0.041,0.16637 0.0426024,0.23648 0.00164173,0.0718031 -0.00744882,0.133327 -0.0195433,0.182346 -0.0123661,0.0501142 -0.0279488,0.087815 -0.0386732,0.110429 -0.00505906,0.010685 -0.0111496,0.0226654 -0.0182126,0.0358661 -0.00677953,0.0126772 -0.0133189,0.0242362 -0.0196102,0.0347047 -0.00818898,0.0136181 -0.0152835,0.0248661 -0.0212992,0.0337953 -0.00715354,0.010622 -0.0146929,0.0211457 -0.022563,0.0315591 -0.0192559,0.0254606 -0.0395748,0.0495118 -0.0608228,0.0721181 -0.0214606,0.0228346 -0.0435472,0.0437795 -0.0661378,0.0628268 -0.000826772,0.000700787 -0.00173622,0.00144882 -0.00273622,0.00222835 -0.0577441,0.0482402 -0.119339,0.0848268 -0.183189,0.109862 -0.0657008,0.0257598 -0.133909,0.0391299 -0.202902,0.0402441 -0.0687205,0.00111024 -0.137386,-0.0100551 -0.204283,-0.0333386 -0.0654803,-0.0227953 -0.129012,-0.0569528 -0.188953,-0.102299 -0.0240512,-0.0181929 -0.0480236,-0.0386969 -0.0717992,-0.0614882 -0.0219882,-0.0210787 -0.0441299,-0.0447756 -0.0663228,-0.0710945l-0.000153543 0.000129921zm0.0751339 -0.169531c0.0141496,0.0243622 0.0299055,0.046437 0.0467402,0.0664055l-0.000153543 0.000129921 0.000153543 0.000181102c0.0172047,0.0204134 0.0356654,0.0400315 0.0552244,0.0587795 0.0183583,0.0175984 0.0375433,0.0339409 0.0574291,0.0489843 0.0469921,0.0355512 0.0957953,0.0619803 0.145205,0.0791811 0.0492874,0.0171535 0.0994646,0.0253898 0.149276,0.0245827 0.049374,-0.000795276 0.098878,-0.0106378 0.14728,-0.0296142 0.0479016,-0.0187835 0.0946496,-0.0466929 0.139059,-0.0838268l5.51181e-005 6.69291e-005c0.000629921,-0.000527559 0.00127559,-0.00103937 0.0019252,-0.00155118 0.0181496,-0.015311 0.035815,-0.0320591 0.0528976,-0.0502362 0.0167638,-0.0178346 0.033315,-0.0374961 0.0495709,-0.0589921 0.00564173,-0.00746457 0.0115,-0.0156811 0.017563,-0.024685 0.0068937,-0.0102323 0.0125551,-0.0190197 0.0169291,-0.0262913 0.0058622,-0.00975197 0.0111654,-0.0190512 0.0158622,-0.0278307 0.00417717,-0.00781102 0.00899213,-0.0174567 0.0144567,-0.0289921 0.00770079,-0.0162402 0.0189409,-0.0435079 0.0280512,-0.0804291 0.00938189,-0.0380197 0.0164331,-0.0856575 0.0151654,-0.141094 -0.00125984,-0.0552165 -0.0107835,-0.118685 -0.0344764,-0.188984 -0.0240276,-0.0712835 -0.0627559,-0.149402 -0.122346,-0.232839 -0.000480315,-0.000637795 -0.000948819,-0.00127953 -0.00140945,-0.00193701l-0.000688976 -0.000976378 1.1811e-005 -7.87402e-006c-0.050815,-0.069315 -0.0930433,-0.137303 -0.128098,-0.202854 -0.0403071,-0.075378 -0.0703543,-0.145874 -0.0925906,-0.21052 -0.0333425,-0.096937 -0.0503386,-0.183142 -0.0583898,-0.253949 -0.00448425,-0.0393858 -0.00616929,-0.0740472 -0.00634252,-0.103205l-0.00224016 0.00226772c-0.0075,0.00762992 -0.0146024,0.0153268 -0.0212913,0.0230433 -0.00664567,0.00767323 -0.0133976,0.0160079 -0.0202047,0.0249094 -0.023252,0.0304094 -0.0432559,0.0619961 -0.0601417,0.0943386 -0.017185,0.0329134 -0.0317047,0.0677402 -0.0436457,0.103929 -0.000468504,0.0015748 -0.000984252,0.00314567 -0.00155906,0.00470866l-0.000204724 0.000559055c-0.0122126,0.0379331 -0.021185,0.0760197 -0.0270669,0.11374 -0.00605906,0.0388701 -0.00901575,0.0793543 -0.00901575,0.120744 0,0.022248 -0.000700787,0.0459528 -0.00203937,0.070689 -0.00135433,0.0249567 -0.00318898,0.0467598 -0.00544488,0.0651654 -0.00240157,0.0195787 -0.00547638,0.0381654 -0.00916929,0.0554606 -0.00372835,0.0174724 -0.00833858,0.0335984 -0.0137598,0.0480748 -0.00451969,0.0120866 -0.00920472,0.0225709 -0.0139409,0.0314213 -0.00574409,0.0107559 -0.0119528,0.0198898 -0.0184764,0.027378 -0.00542126,0.00644882 -0.0119606,0.0121457 -0.0195512,0.0167756 -0.037622,0.0229528 -0.0867362,0.0110591 -0.109689,-0.026563l-0.000275591 -0.000448819c-0.00107874,-0.00160236 -0.00211024,-0.00325591 -0.00308268,-0.00496063 -0.0126181,-0.0219882 -0.0222165,-0.0529803 -0.026815,-0.092315 -0.00143307,-0.0122362 -0.00242126,-0.025622 -0.00289764,-0.0401339l-0.000771654 0.000992126c-0.0144764,0.0186102 -0.0296654,0.0408465 -0.0445945,0.0671339 -0.0131575,0.0231575 -0.0266575,0.0501496 -0.0400827,0.0815472 -0.0117362,0.0274409 -0.0231929,0.0576339 -0.0340394,0.0907874 -0.000433071,0.00180315 -0.000929134,0.0036063 -0.00149606,0.00540157 -0.00836614,0.0263622 -0.0153307,0.0508819 -0.0210315,0.0736535 -0.00666142,0.0266142 -0.0117441,0.0500787 -0.015437,0.0706811 -0.00401575,0.0223976 -0.00709449,0.0445748 -0.00935827,0.0663228 -0.00222441,0.0213937 -0.00351575,0.0408543 -0.00401575,0.0584921 5.90551e-005,0.00205118 4.33071e-005,0.00412598 -5.90551e-005,0.00620866l3.14961e-005 0c2.3622e-005,-0.000220472 3.93701e-005,-0.00026378 3.93701e-005,0l0 0.0250787 -0.000161417 0c3.93701e-005,0.00200394 0.000110236,0.00466142 0.000220472,0.00825984 1.9685e-005,0.00076378 0.000129921,0.00325197 0.000334646,0.00779134l0.000535433 0.00963386c4.72441e-005,0.000874016 0.000129921,0.0013189 0.000519685,0.00651575l-3.93701e-005 3.93701e-006 7.08661e-005 0.000933071c0.00211024,0.0337087 0.00623228,0.0647008 0.0120551,0.0931811 0.00617323,0.030189 0.0142323,0.0580669 0.0238228,0.0837913 0.0100197,0.026878 0.0220472,0.0519528 0.0356102,0.075311zm-0.0730748 -0.309776l6.69291e-005 -0.000724409 -3.14961e-005 0 -3.54331e-005 0.000724409z"/>
  <path class="fil0" d="M3.62562 2.73771c0.0627677,0.0418425 0.125535,0.0637362 0.184594,0.0640827 0.0556811,0.000326772 0.11002,-0.0188425 0.159752,-0.0589055 0.0250039,-0.0414803 0.0479291,-0.096685 0.0517795,-0.163024 0.00318504,-0.0549055 -0.00642126,-0.118142 -0.0380551,-0.188862 -0.0606299,-0.135531 -0.111291,-0.243618 -0.149669,-0.323409 -0.0292835,0.0662008 -0.0694331,0.142465 -0.122579,0.215248 -0.0590669,0.080878 -0.103614,0.172059 -0.116858,0.262213 -0.00972835,0.0662126 -0.0018937,0.132157 0.0310354,0.192657zm0.183972 0.223461c-0.095626,-0.000566929 -0.193004,-0.0347008 -0.285783,-0.0997992 -0.0105591,-0.00638189 -0.0197953,-0.0153071 -0.0267008,-0.0265433 -0.0608661,-0.0989685 -0.0763071,-0.206315 -0.0606496,-0.312902 0.017185,-0.116969 0.0728425,-0.232335 0.146236,-0.332835 0.109768,-0.150335 0.155075,-0.317189 0.161157,-0.340969 0.0046063,-0.0226693 0.0189764,-0.0431614 0.0410394,-0.0547795 0.0390039,-0.0205354 0.0872795,-0.00556693 0.107815,0.033437 0.000259843,0.000492126 0.0892835,0.169882 0.236606,0.49922 0.0432756,0.0967441 0.056315,0.184961 0.051811,0.26261 -0.00609843,0.105071 -0.043878,0.189626 -0.082815,0.250228l-5.51181e-005 -3.54331e-005c-0.0040315,0.00627953 -0.00901575,0.0120906 -0.0149449,0.0172205 -0.0825984,0.0715591 -0.176028,0.105724 -0.273717,0.105146z"/>
  <path class="fil1" d="M4.83389 1.85645l0 3.07399 0.865996 0 0 -3.42255 -0.865996 0.348559zm0.290406 1.60735c0,0.0441811 -0.0358189,0.08 -0.08,0.08 -0.0441811,0 -0.08,-0.0358189 -0.08,-0.08l0 -0.422768c0,-0.0441811 0.0358189,-0.08 0.08,-0.08 0.0441811,0 0.08,0.0358189 0.08,0.08l0 0.422768z"/>
  <path class="fil2" d="M4.291 1.73167l0 0zm0.329547 3.19878l0 -3.14574c0,-0.0476614 0.0312598,-0.0880157 0.0743976,-0.101693l0.561654 -0.226063 -1.12691 0c0.0127835,0.0289606 0.0271378,0.0585787 0.043252,0.0887126 0.0312874,0.0585039 0.0698189,0.120287 0.11715,0.184736l0.000937008 0.00125197 0.000688976 0.000976378 0.0021378 0.00320472c0.0685157,0.0962913 0.113669,0.188024 0.142248,0.272823 0.0292244,0.0867126 0.041,0.16637 0.0426024,0.23648 0.00164173,0.0718031 -0.00744882,0.133327 -0.0195433,0.182346 -0.0123661,0.0501142 -0.0279488,0.087815 -0.0386732,0.110429 -0.00505906,0.010685 -0.0111496,0.0226654 -0.0182126,0.0358661 -0.00677953,0.0126772 -0.0133189,0.0242362 -0.0196102,0.0347047 -0.00818898,0.0136181 -0.0152835,0.0248661 -0.0212992,0.0337953 -0.00715354,0.010622 -0.0146929,0.0211457 -0.022563,0.0315591 -0.0192559,0.0254606 -0.0395748,0.0495118 -0.0608228,0.0721181 -0.0214606,0.0228346 -0.0435472,0.0437795 -0.0661378,0.0628268l-0.00273622 0.00222835c-0.0577441,0.0482402 -0.119339,0.0848268 -0.183189,0.109862 -0.00503543,0.00197244 -0.0100827,0.00387402 -0.0151457,0.00570472l0 2.00387 0.609776 0z"/>
  <polygon class="fil3" points="4.72722,5.14728 3.58801,5.14728 3.58801,5.35671 5.69989,5.35671 5.69989,5.14728 "/>
  <polygon class="fil3" points="5.69989,5.57005 3.48134,5.57005 3.16524,5.57005 3.16524,5.77948 5.69989,5.77948 "/>
  <g id="_517299480">
   <path id="_517299960" class="fil4" d="M2.65545 4.77374l0 0zm0.0650945 -0.0839606c-0.00890945,-0.0095748 -0.0150118,-0.020752 -0.0183504,-0.0325236l-8.66142e-005 2.3622e-005 -0.138795 -0.483654c-0.0260669,0.0256732 -0.0553268,0.0519803 -0.086622,0.0785669l0.148358 0.491138c0.00165354,0.00309055 0.00364961,0.00603937 0.00593307,0.00880315 0.00345276,0.0041811 0.00708268,0.0075315 0.0107559,0.0100039 0.00509843,0.00341339 0.00967323,0.0073189 0.013752,0.011563l0.385791 0.408988c0.0105512,0.00657087 0.0227047,0.00894094 0.0343071,0.00738583 0.0131614,-0.00176378 0.0256811,-0.00858661 0.0344134,-0.0200276 0.00872047,-0.0114291 0.0119921,-0.0252835 0.0102283,-0.0384331 -0.00176378,-0.0131575 -0.00858661,-0.0256772 -0.0200276,-0.0344094 -0.00391732,-0.00299213 -0.00748031,-0.00627559 -0.0106811,-0.00979528l-0.368976 -0.39763z"/>
   <path id="_517299912" class="fil4" d="M1.79918 3.55698l0 0zm0.337248 0.758811c0.163909,-0.123543 0.347488,-0.261925 0.381413,-0.307496 -0.000570866,-0.00932283 0.000515748,-0.0185118 0.00306299,-0.0272047l-0.169303 -1.03936 -5.11811e-005 7.87402e-006c-0.00551969,-0.0324606 -0.0237638,-0.0596772 -0.0487795,-0.0774213 -0.0248937,-0.0176535 -0.0567087,-0.0257835 -0.0895276,-0.0202047l-0.0023622 0.000358268c-0.0186535,0.0034685 -0.033122,0.0123465 -0.0459646,0.0254291 -0.0189646,0.0193228 -0.0367953,0.0481654 -0.0566614,0.0825787l-0.000137795 0.000232283 0.000137795 7.87402e-005c-0.0482717,0.0836063 -0.108024,0.183154 -0.166102,0.273224 -0.0472362,0.0732638 -0.0937835,0.140945 -0.133063,0.190248 -0.0184488,0.0232047 -0.0471969,0.0334016 -0.0745472,0.0292559l-0.421925 -0.0427874c-0.0033937,-7.87402e-005 -0.00673622,-0.000370079 -0.0100118,-0.000858268 -0.0130118,-0.000429134 -0.0251614,0.00393307 -0.0345748,0.0115787 -0.00947638,0.00769685 -0.0162717,0.0187008 -0.0184921,0.0314685 -0.000137795,0.00248819 -0.000389764,0.00494094 -0.000751969,0.00736614 -0.000429134,0.0130118 0.00393701,0.0251654 0.0115866,0.0345827 0.00841339,0.0103583 0.0207756,0.0175118 0.0350709,0.0189921l0.00213386 0.000248031 0.501291 0.0508386 0.000314961 0c0.00974016,0.00100787 0.0189449,-0.000594488 0.0269055,-0.00421654 0.00840157,-0.00382283 0.0157441,-0.00995669 0.0212008,-0.0177008 0.000905512,-0.0012874 0.00184646,-0.00253543 0.00281102,-0.00375197l0.283453 -0.355772c0.0274409,-0.0345157 0.0776732,-0.040252 0.112189,-0.012811 0.0345157,0.0274409 0.040252,0.0776732 0.012811,0.112189l-0.080248 0.100724 0.0935866 0.629949c0.00403937,0.0276063 -0.00656299,0.0539724 -0.025937,0.071252l-0.514169 0.457079c-0.00270472,0.0044252 -0.00466142,0.00909843 -0.00588583,0.0138622 -0.00177165,0.0068937 -0.00200787,0.014315 -0.000775591,0.0217323 0.000425197,0.00256299 0.000724409,0.00511811 0.000901575,0.00765748l0.0818543 0.779476 0.000161417 -1.9685e-005c0.00175197,0.0139843 0.00909055,0.0260039 0.0195236,0.0341063 0.0104291,0.00810236 0.0240551,0.0122165 0.0383898,0.0104213 0.0139882,-0.00175197 0.026,-0.00909055 0.0341063,-0.0195197 0.00810236,-0.0104291 0.0122165,-0.0240591 0.0104213,-0.0383937 -0.000275591,-0.00225591 -0.000448819,-0.0045 -0.000535433,-0.00672835l-0.0753937 -0.72898c-0.00261811,-0.0255748 0.00715748,-0.049563 0.0244528,-0.066 0.0537835,-0.0571378 0.161193,-0.138102 0.277421,-0.225709z"/>
   <path id="_517299864" class="fil4" d="M2.80302 3.2719l0.0659449 0.42335 5.11811e-005 0.000354331 0.000259843 -3.93701e-005c0.00216929,0.0141299 0.00984646,0.0260433 0.0204882,0.0338504 0.0106772,0.00783071 0.0245354,0.0115709 0.0390197,0.00934646 0.0141339,-0.00216929 0.0260433,-0.00984646 0.0338504,-0.0204882 0.00783071,-0.0106772 0.0115669,-0.0245354 0.00934252,-0.0390197 -0.000299213,-0.002 -0.000519685,-0.00399213 -0.000669291,-0.00597638l-0.0769488 -0.494 -5.11811e-005 -0.000354331 -0.000259843 3.93701e-005c-0.0014685,-0.00957087 -0.00530709,-0.0179843 -0.0107717,-0.0247008 -0.0059252,-0.00728346 -0.0136299,-0.0128543 -0.0222598,-0.0160827 -0.00253543,-0.000944882 -0.00499213,-0.00200394 -0.00737008,-0.00316929l-0.334429 -0.156839 0.0214685 0.131795 0.214874 0.0952205c0.027811,0.0122402 0.0451575,0.0384134 0.0474606,0.0667126z"/>
  </g>
  <path class="fil5" d="M2.11311 2.49346c0.0387874,0.00359843 0.0752717,-0.00878346 0.10289,-0.0317047 0.0276811,-0.0229803 0.0466063,-0.0564764 0.050185,-0.0950236 0.00359843,-0.0387874 -0.00878346,-0.0752717 -0.0317047,-0.10289 -0.0219055,-0.0263898 -0.0533622,-0.044815 -0.0896417,-0.0495827 -0.00377165,-8.26772e-005 -0.00748031,-0.000429134 -0.0111063,-0.00101575 -0.0366378,-0.00193307 -0.0709094,0.0103268 -0.0971654,0.0321181 -0.0263898,0.0219055 -0.044815,0.0533622 -0.0495827,0.0896339 -8.26772e-005,0.00377165 -0.000429134,0.00747638 -0.00101575,0.0111063 -0.00193307,0.0366417 0.0103228,0.0709134 0.0321142,0.0971693 0.0229803,0.027685 0.0564843,0.0466102 0.0950276,0.050189z"/>
  <path class="fil6" d="M3.71144 2.28284c-0.0590669,0.080878 -0.103614,0.172059 -0.116858,0.262213 -0.00972835,0.0662126 -0.0018937,0.132157 0.0310354,0.192657 0.0602677,0.0401772 0.120535,0.0619606 0.17752,0.063937 0.00235827,6.29921e-005 0.00471654,0.000102362 0.0070748,0.000145669 0.00116142,-1.1811e-005 0.00232283,-3.93701e-006 0.00348819,-3.93701e-006 0.0544606,-0.000480315 0.107571,-0.0196772 0.156264,-0.0589016 0.0250039,-0.0414803 0.0479291,-0.096685 0.0517795,-0.163024 0.00318504,-0.0549055 -0.00642126,-0.118142 -0.0380551,-0.188862 -0.0606299,-0.135531 -0.111291,-0.243618 -0.149669,-0.323409 -0.0292835,0.0662008 -0.0694331,0.142465 -0.122579,0.215248z"/>
  <path class="fil7" d="M4.16042 1.82351l0 0zm-0.865299 0.446756l0 0zm0.597583 -0.443488c0.000259843,0.000492126 0.0892835,0.169882 0.236606,0.49922 0.0432756,0.0967441 0.056315,0.184961 0.051811,0.26261 -0.00057874,0.00997244 -0.00144488,0.0197638 -0.00256693,0.0293661 0.0110276,-0.0126575 0.0219528,-0.026122 0.032748,-0.0403976 0.00564173,-0.00746457 0.0115,-0.0156811 0.017563,-0.024685 0.0068937,-0.0102323 0.0125551,-0.0190197 0.0169291,-0.0262913 0.0058622,-0.00975197 0.0111654,-0.0190512 0.0158622,-0.0278307 0.00417717,-0.00781102 0.00899213,-0.0174567 0.0144567,-0.0289921 0.00770079,-0.0162402 0.0189409,-0.0435079 0.0280512,-0.0804291 0.00938189,-0.0380197 0.0164331,-0.0856575 0.0151654,-0.141094 -0.00125984,-0.0552165 -0.0107835,-0.118685 -0.0344764,-0.188984 -0.0240276,-0.0712835 -0.0627559,-0.149402 -0.122346,-0.232839l-0.00140945 -0.00193701 -0.000677165 -0.000984252c-0.050815,-0.069315 -0.0930433,-0.137303 -0.128098,-0.202854 -0.0403071,-0.075378 -0.0703543,-0.145874 -0.0925906,-0.21052 -0.0333425,-0.096937 -0.0503386,-0.183142 -0.0583898,-0.253949 -0.00448425,-0.0393858 -0.00616929,-0.0740472 -0.00634252,-0.103205l-0.00224016 0.00226772c-0.0075,0.00762992 -0.0146024,0.0153268 -0.0212913,0.0230433 -0.00664567,0.00767323 -0.0133976,0.0160079 -0.0202047,0.0249094 -0.023252,0.0304094 -0.0432559,0.0619961 -0.0601417,0.0943386 -0.017185,0.0329134 -0.0317047,0.0677402 -0.0436457,0.103929 -0.000468504,0.0015748 -0.000984252,0.00314567 -0.00155906,0.00470866l-0.000204724 0.000559055c-0.0122126,0.0379331 -0.021185,0.0760197 -0.0270669,0.11374 -0.00605906,0.0388701 -0.00901575,0.0793543 -0.00901575,0.120744 0,0.022248 -0.000700787,0.0459528 -0.00203937,0.070689 -0.00135433,0.0249567 -0.00318898,0.0467598 -0.00544488,0.0651654 -0.00240157,0.0195787 -0.00547638,0.0381654 -0.00916929,0.0554606 -0.00372835,0.0174724 -0.00833858,0.0335984 -0.0137598,0.0480748 -0.00451969,0.0120866 -0.00920472,0.0225709 -0.0139409,0.0314213 -0.00574409,0.0107559 -0.0119528,0.0198898 -0.0184764,0.027378 -0.00542126,0.00644882 -0.0119606,0.0121457 -0.0195512,0.0167756 -0.037622,0.0229528 -0.0867362,0.0110591 -0.109689,-0.026563l-0.000275591 -0.000448819c-0.00107874,-0.00160236 -0.00211024,-0.00325591 -0.00308268,-0.00496063 -0.0126181,-0.0219882 -0.0222165,-0.0529803 -0.026815,-0.092315 -0.00143307,-0.0122362 -0.00242126,-0.025622 -0.00289764,-0.0401339l-0.000771654 0.000992126c-0.0144764,0.0186102 -0.0296654,0.0408465 -0.0445945,0.0671339 -0.0131575,0.0231575 -0.0266575,0.0501496 -0.0400827,0.0815472 -0.0117362,0.0274409 -0.0231929,0.0576339 -0.0340394,0.0907874 -0.000433071,0.00180315 -0.000929134,0.0036063 -0.00149606,0.00540157 -0.00836614,0.0263622 -0.0153307,0.0508819 -0.0210315,0.0736535 -0.00666142,0.0266142 -0.0117441,0.0500787 -0.015437,0.0706811 -0.00401575,0.0223976 -0.00709449,0.0445748 -0.00935827,0.0663228 -0.00222441,0.0213937 -0.00351575,0.0408543 -0.00401575,0.0584921 5.90551e-005,0.00205118 4.33071e-005,0.00412598 -2.75591e-005,0.00620866 2.3622e-005,-0.000220472 3.93701e-005,-0.00026378 3.93701e-005,0l0 0.0250787 -0.000161417 0 0.000220472 0.00825984 0.000334646 0.00779134 0.000535433 0.00963386 0.000480315 0.00651969 7.08661e-005 0.000933071c0.00211024,0.0337087 0.00623228,0.0647008 0.0120551,0.0931811 0.00617323,0.030189 0.0142323,0.0580669 0.0238228,0.0837913 0.0100197,0.026878 0.0220472,0.0519528 0.0356102,0.075311 0.0141496,0.0243622 0.0299055,0.046437 0.0467402,0.0664055l-0.000153543 0.000129921 0.000153543 0.000181102c0.00570472,0.00676772 0.0115472,0.0134488 0.0175197,0.0200394 -0.000724409,-0.0293701 0.00122835,-0.058874 0.00555512,-0.0883189 0.017185,-0.116969 0.0728425,-0.232335 0.146236,-0.332835 0.109768,-0.150335 0.155075,-0.317189 0.161157,-0.340969 0.0046063,-0.0226693 0.0189764,-0.0431614 0.0410394,-0.0547795 0.0390039,-0.0205354 0.0872795,-0.00556693 0.107815,0.033437z"/>
 </g>
 <rect class="fil8" width="6.82666" height="6.82666"/>
</svg>
