<?xml version="1.0" encoding="UTF-8"?>
<!DOCTYPE svg PUBLIC "-//W3C//DTD SVG 1.1//EN" "http://www.w3.org/Graphics/SVG/1.1/DTD/svg11.dtd">
<!-- Creator: CorelDRAW -->
<svg xmlns="http://www.w3.org/2000/svg" xml:space="preserve" width="6.82666in" height="6.82666in" style="shape-rendering:geometricPrecision; text-rendering:geometricPrecision; image-rendering:optimizeQuality; fill-rule:evenodd; clip-rule:evenodd"
viewBox="0 0 6.82666 6.82666"
 xmlns:xlink="http://www.w3.org/1999/xlink">
 <defs>
  <style type="text/css">
   <![CDATA[
    .fil5 {fill:none}
    .fil1 {fill:#63CBE5}
    .fil2 {fill:#949494}
    .fil3 {fill:#EBE5DF}
    .fil4 {fill:#F19A7B}
    .fil0 {fill:#212121;fill-rule:nonzero}
   ]]>
  </style>
 </defs>
 <g id="Layer_x0020_1">
  <metadata id="CorelCorpID_0Corel-Layer"/>
  <path class="fil0" d="M1.27144 4.125c0.169803,-0.121547 0.338945,-0.225465 0.507854,-0.314441 0.153445,-0.0808228 0.306283,-0.148882 0.458906,-0.206256 0.160776,-0.377106 0.358984,-0.634028 0.583953,-0.798972 0.238693,-0.175004 0.504224,-0.24587 0.785268,-0.24587l1.97663 0c0.0575394,0 0.104433,0.045563 0.106583,0.102575l0.162488 1.28749c0.000622047,0.00490157 0.00088189,0.00976772 0.000834646,0.0145748l0.00111417 0.722807c0.116858,0.0286102 0.114929,0.111819 0.112685,0.207299 -0.000212598,0.0091378 -0.000437008,0.0185748 6.69291e-005,0.0283346 0.000555118,0.010752 0.00128346,0.0185276 0.002,0.0261693 0.00175984,0.0187559 0.00348425,0.0371339 0.00348425,0.0509724 0,0.108646 -0.0339094,0.192378 -0.223874,0.192378l-0.322937 0 -0.121366 0c-0.0522638,0 -0.095748,-0.0375945 -0.104894,-0.0872126 -0.0179331,-0.0718819 -0.059185,-0.134307 -0.11515,-0.178638 -0.0559646,-0.0443307 -0.12715,-0.0708071 -0.204961,-0.0708071 -0.077815,0 -0.149,0.0264764 -0.204961,0.0708031 -0.057185,0.0452992 -0.0990118,0.10948 -0.116291,0.18335 -0.0114567,0.0492047 -0.0553071,0.0824291 -0.103752,0.0823858l0 0.00011811 -2.02801 0c-0.0522638,0 -0.095748,-0.0375945 -0.104894,-0.0872126 -0.0179331,-0.0718858 -0.059185,-0.134307 -0.11515,-0.178642 -0.0559606,-0.0443268 -0.127146,-0.0708031 -0.204961,-0.0708031 -0.077815,0 -0.149,0.0264764 -0.204961,0.0708031 -0.057185,0.0452992 -0.0990118,0.10948 -0.116291,0.18335 -0.0114567,0.0492047 -0.0553071,0.0824291 -0.103752,0.0823858l0 0.00011811 -0.162209 0 -0.302406 0c-0.235272,0 -0.244067,-0.104154 -0.253949,-0.221197 -0.00112992,-0.0135039 -2.3622e-005,-0.00451181 -0.0011063,-0.0153504 -0.00564567,-0.0564764 -0.0108701,-0.114626 0.023815,-0.174453 0.0244094,-0.0421102 0.0628465,-0.0750669 0.124571,-0.0920591l0 -0.0135236c0,-0.0615512 -0.000787402,-0.0924724 -0.00145276,-0.118457 -0.00255512,-0.1 -0.00393307,-0.154008 0.0245394,-0.213748 0.0325866,-0.068378 0.0868386,-0.107028 0.204748,-0.19102 0.0301811,-0.0215 -0.059685,0.0425079 0.0377795,-0.0272559zm0.60702 -0.12611c-0.158945,0.0837283 -0.319681,0.182638 -0.482854,0.299441 -0.0704213,0.0504055 0.0154882,-0.0112835 -0.0386142,0.0272559 -0.0865394,0.0616457 -0.126354,0.0900118 -0.135575,0.109358 -0.00714567,0.0149921 -0.00623228,0.0507953 -0.00453937,0.117079 0.00104724,0.0409173 0.0022874,0.0893189 0.0022874,0.123457l0 0.107508c0,0.0589094 -0.0477598,0.106669 -0.106669,0.106669 -0.0361811,0 -0.0464134,-0.00306693 -0.0470748,-0.0019252 -0.00084252,0.00145276 0.00143307,0.024374 0.00368898,0.0469488 0.00222441,0.0222441 0.00175591,0.016437 0.00194094,0.0186811 0.00112992,0.0134134 0.00214173,0.0253622 0.0414449,0.0253622l0.302406 0 0.0849488 0c0.0356811,-0.0864488 0.0931614,-0.16178 0.165634,-0.219185 0.0928504,-0.0735472 0.209831,-0.117472 0.33663,-0.117472 0.126799,0 0.24378,0.0439252 0.33663,0.117472 0.0724724,0.0574055 0.129953,0.132736 0.165634,0.219185l1.87349 0c0.0356811,-0.0864488 0.0931614,-0.16178 0.165634,-0.219185 0.0928504,-0.0735472 0.209831,-0.117472 0.33663,-0.117472 0.126791,0 0.24378,0.0439252 0.33663,0.117476 0.0724724,0.0574016 0.129953,0.132732 0.165634,0.219181l0.0441063 0 0.322937 0c0.00893701,0 0.0105354,0.0327953 0.0105354,0.0209606 0,-0.0124646 -0.000901575,-0.0220394 -0.00181496,-0.0318071 -0.00116142,-0.0124094 -0.00234646,-0.025 -0.00283465,-0.0345 -0.000759843,-0.0147205 -0.000409449,-0.029685 -6.69291e-005,-0.0441693 3.93701e-006,-0.00023622 -1.1811e-005,0.000448819 -0.00628346,0.000448819l0 -0.000417323c-0.0586811,0 -0.106252,-0.0475709 -0.106252,-0.106252l-0.00125197 -0.813323 -0.151051 -1.19687 -1.883 0c-0.237945,0 -0.461193,0.0588543 -0.659433,0.204201 -0.202283,0.148311 -0.381827,0.387209 -0.529098,0.745476 -0.010063,0.0294449 -0.0328858,0.0542323 -0.0644173,0.0656614 -0.157795,0.0572402 -0.316276,0.12661 -0.476012,0.210752z"/>
  <path class="fil0" d="M2.00212 4.64207c0.149969,0 0.285764,0.0607992 0.384063,0.159094 0.0982953,0.0982992 0.159094,0.234094 0.159094,0.384063 0,0.149976 -0.0608031,0.285768 -0.159098,0.384059 -0.0982913,0.0982953 -0.234083,0.159098 -0.384059,0.159098 -0.149976,0 -0.285768,-0.0608031 -0.384059,-0.159098 -0.0982953,-0.0982913 -0.159098,-0.234083 -0.159098,-0.384059 0,-0.149969 0.0607992,-0.285764 0.159094,-0.384063 0.0982953,-0.0982953 0.234087,-0.159094 0.384063,-0.159094zm0.233228 0.309929c-0.0596772,-0.0596732 -0.142142,-0.0965906 -0.233228,-0.0965906 -0.0910906,0 -0.173551,0.0369134 -0.233228,0.0965906 -0.0596732,0.0596772 -0.0965906,0.142142 -0.0965906,0.233228 0,0.0910866 0.0369173,0.173551 0.0965945,0.233224 0.0596732,0.0596772 0.142138,0.0965945 0.233224,0.0965945 0.0910866,0 0.173551,-0.0369173 0.233224,-0.0965945 0.0596772,-0.0596732 0.0965945,-0.142138 0.0965945,-0.233224 0,-0.0910866 -0.0369173,-0.173551 -0.0965906,-0.233228z"/>
  <path class="fil0" d="M4.88013 4.64207c0.149976,0 0.285768,0.0607992 0.384063,0.159094 0.0982953,0.0982992 0.159094,0.234094 0.159094,0.384063 0,0.149976 -0.0608031,0.285768 -0.159098,0.384059 -0.0982913,0.0982953 -0.234083,0.159098 -0.384059,0.159098 -0.149976,0 -0.285768,-0.0608031 -0.384059,-0.159098 -0.0982953,-0.0982913 -0.159098,-0.234083 -0.159098,-0.384059 0,-0.149969 0.0607992,-0.285764 0.159094,-0.384063 0.0982992,-0.0982953 0.234094,-0.159094 0.384063,-0.159094zm0.233228 0.309929c-0.0596772,-0.0596772 -0.142138,-0.0965906 -0.233228,-0.0965906 -0.0910866,0 -0.173551,0.0369173 -0.233228,0.0965906 -0.0596732,0.0596772 -0.0965906,0.142142 -0.0965906,0.233228 0,0.0910866 0.0369173,0.173551 0.0965945,0.233224 0.0596732,0.0596772 0.142138,0.0965945 0.233224,0.0965945 0.0910866,0 0.173551,-0.0369173 0.233224,-0.0965945 0.0596772,-0.0596732 0.0965945,-0.142138 0.0965945,-0.233224 0,-0.0910866 -0.0369173,-0.173551 -0.0965906,-0.233228z"/>
  <path class="fil0" d="M2.31822 3.74147c-0.0294528,0 -0.0533346,-0.0238819 -0.0533346,-0.0533346 0,-0.0294528 0.0238819,-0.0533346 0.0533346,-0.0533346l3.35426 0c0.0294528,0 0.0533346,0.0238819 0.0533346,0.0533346 0,0.0294528 -0.0238819,0.0533346 -0.0533346,0.0533346l-3.35426 0z"/>
  <path class="fil0" d="M3.94377 2.66613c0,-0.0294528 0.0238819,-0.0533346 0.0533346,-0.0533346 0.0294528,0 0.0533346,0.0238819 0.0533346,0.0533346l0 2.41926c0,0.0294528 -0.0238819,0.0533346 -0.0533346,0.0533346 -0.0294528,0 -0.0533346,-0.0238819 -0.0533346,-0.0533346l0 -2.41926z"/>
  <path class="fil0" d="M2.33921 3.6942c0.00586614,-0.0287638 0.0339449,-0.0473228 0.0627087,-0.0414567 0.0287638,0.00586614 0.0473228,0.0339449 0.0414567,0.0627087 -0.0955787,0.461693 0.0428465,0.68974 0.157878,0.87924 0.0914528,0.150661 0.169646,0.27948 0.128685,0.473823 -0.00598031,0.0287638 -0.0341535,0.0472283 -0.0629173,0.041248 -0.0287638,-0.00598031 -0.0472283,-0.0341535 -0.041248,-0.0629173 0.0324016,-0.153732 -0.0357008,-0.265933 -0.115354,-0.397154 -0.124882,-0.205732 -0.275169,-0.453315 -0.171209,-0.955492z"/>
  <path class="fil0" d="M3.4458 3.99304c-0.0294528,0 -0.0533346,-0.0238819 -0.0533346,-0.0533346 0,-0.0294528 0.0238819,-0.0533346 0.0533346,-0.0533346l0.218244 0c0.0294528,0 0.0533346,0.0238819 0.0533346,0.0533346 0,0.0294528 -0.0238819,0.0533346 -0.0533346,0.0533346l-0.218244 0z"/>
  <path class="fil0" d="M5.11943 3.99304c-0.0294528,0 -0.0533346,-0.0238819 -0.0533346,-0.0533346 0,-0.0294528 0.0238819,-0.0533346 0.0533346,-0.0533346l0.218244 0c0.0294528,0 0.0533346,0.0238819 0.0533346,0.0533346 0,0.0294528 -0.0238819,0.0533346 -0.0533346,0.0533346l-0.218244 0z"/>
  <path class="fil0" d="M3.44614 2.0945c-0.00364567,-0.0638858 -0.00518898,-0.122689 -0.00466142,-0.176681 -0.00942126,0.0115591 -0.0184016,0.023311 -0.0270157,0.0352992 -0.0445669,0.0620276 -0.0808071,0.132512 -0.118122,0.214882 -0.0181181,0.0402087 -0.0654134,0.0581181 -0.105622,0.04 -0.0132992,-0.00599213 -0.0241614,-0.0151772 -0.0320827,-0.0262441l-0.0121693 -0.0148346c-0.176921,-0.215579 -0.336441,-0.409996 -0.322386,-0.645524 -0.0313189,0.0416535 -0.0566181,0.0866417 -0.076622,0.13315 -0.0698504,0.162374 -0.0762638,0.341614 -0.0502402,0.464772 0.0382087,0.180811 0.00116142,0.322965 -0.0599803,0.398713 -0.0347441,0.0430433 -0.0785394,0.0684449 -0.125362,0.0733976 -0.049811,0.00527165 -0.0987126,-0.012252 -0.139886,-0.0556299 -0.0378465,-0.0398819 -0.0695827,-0.106543 -0.0857638,-0.203094 -0.0685197,0.123693 -0.108531,0.274346 -0.119043,0.429461 -0.0108504,0.160118 0.00971654,0.323504 0.0627402,0.465709 0.00977953,0.0262323 0.0465236,0.0895591 0.141268,0.17311 -0.0300906,0.0544567 -0.0581181,0.103783 -0.0842795,0.159992 -0.122854,-0.0860827 -0.181902,-0.211862 -0.206366,-0.27748 -0.0611693,-0.164055 -0.0850276,-0.350606 -0.0727402,-0.531953 0.0122717,-0.181071 0.0605827,-0.358469 0.14378,-0.504921 0.0249291,-0.0438937 0.0491181,-0.0795079 0.0715118,-0.108303 0.0283819,-0.0364843 0.0554528,-0.0640276 0.0781496,-0.0841654 0.0154055,-0.014811 0.0366772,-0.0234409 0.0596969,-0.0221772 0.0440079,0.00241339 0.0777283,0.0400551 0.075315,0.084063 -0.0100748,0.174953 0.0153701,0.271843 0.0513543,0.30976 0.00451575,0.00475984 0.00717323,0.0069685 0.00801181,0.00688189 0.00382677,-0.000401575 0.00982677,-0.0054685 0.0172362,-0.0146496 0.0357559,-0.0442992 0.0553583,-0.13724 0.0281063,-0.266209 -0.0315472,-0.149283 -0.0241575,-0.365661 0.0596181,-0.560402 0.0645827,-0.15013 0.174031,-0.288307 0.345016,-0.376031 0.0240669,-0.0136575 0.0545748,-0.0144094 0.0801063,0.000677165 0.0379685,0.022437 0.050563,0.0714094 0.028126,0.109378 -0.14648,0.248358 -0.0211024,0.446268 0.152528,0.662606 0.0239488,-0.0450551 0.0495,-0.0873858 0.0787244,-0.128059 0.0526772,-0.0733071 0.115866,-0.13902 0.200713,-0.202106 0.0174094,-0.014437 0.0407913,-0.0214449 0.064815,-0.017248 0.0434921,0.00759449 0.0725945,0.0490118 0.065,0.0925039 -0.00759055,0.0433661 -0.0122717,0.0930906 -0.0139803,0.149654 -0.00177165,0.0587441 -0.000492126,0.126217 0.00388583,0.202957 0.00599213,0.104862 0.0415512,0.351728 0.0598937,0.475878l0.00253937 0.0172087 -0.0428189 0c-0.0397874,0 -0.0791614,0.00134646 -0.118118,0.0040748 -0.0186063,-0.125906 -0.0543661,-0.374484 -0.060874,-0.488413z"/>
  <path class="fil0" d="M5.02954 2.23948c0.00233465,-0.0409331 0.00332283,-0.0786024 0.00298819,-0.113193 0.00603543,0.00740157 0.0117874,0.0149331 0.0173071,0.0226142 0.0285551,0.0397362 0.0517677,0.0848937 0.0756772,0.137665 0.0116063,0.0257598 0.0419055,0.0372323 0.0676693,0.025626 0.00851969,-0.00383858 0.0154764,-0.00972441 0.0205512,-0.016811l0.00779921 -0.00950787c0.113346,-0.138114 0.215543,-0.262669 0.206535,-0.413563 0.0200669,0.026689 0.0362756,0.0555118 0.0490906,0.0853071 0.044748,0.104028 0.0488583,0.218858 0.032189,0.29776 -0.0167638,0.0793228 -0.0109134,0.147028 0.00701181,0.197413l0.0676969 0c0.0564016,0 0.106256,0.0219291 0.143661,0.0575669 0.0197717,-0.0261378 0.0360276,-0.0651417 0.0449331,-0.118272 0.0439016,0.0792441 0.0695354,0.175764 0.0762677,0.275138 0.00457874,0.0675472 0.00042126,0.136008 -0.0126417,0.200894 -0.00231496,0.0115118 -0.0330512,0.150008 -0.157807,0.29461l0.0480984 0.106768c0.117512,-0.136197 0.16489,-0.233492 0.177858,-0.268276 0.039185,-0.105102 0.0544724,-0.224618 0.0466024,-0.340799 -0.0078622,-0.116008 -0.038815,-0.229657 -0.0921181,-0.323484 -0.0159685,-0.028122 -0.0314646,-0.050937 -0.045811,-0.0693858 -0.018185,-0.023374 -0.0355276,-0.0410197 -0.0500709,-0.0539213 -0.00986614,-0.00949213 -0.0234961,-0.0150157 -0.0382402,-0.0142087 -0.0281969,0.00154724 -0.0497992,0.0256614 -0.0482559,0.0538583 0.00645276,0.112083 -0.00984252,0.174157 -0.0328976,0.198449 -0.0028937,0.00305118 -0.00459843,0.00446457 -0.00513386,0.00440945 -0.00245276,-0.000255906 -0.00629921,-0.00350394 -0.0110433,-0.00938583 -0.0229094,-0.028378 -0.0354646,-0.0879252 -0.0180039,-0.170551 0.0202087,-0.0956378 0.0154724,-0.234264 -0.0381969,-0.359028 -0.041378,-0.0961772 -0.111496,-0.184705 -0.221039,-0.240909 -0.0154173,-0.00874803 -0.0349646,-0.00922835 -0.0513189,0.000437008 -0.0243268,0.014374 -0.0323937,0.045748 -0.0180236,0.0700709 0.0938465,0.159118 0.0135236,0.285909 -0.0977165,0.424512 -0.0153425,-0.0288661 -0.0317126,-0.0559882 -0.0504331,-0.0820472 -0.033752,-0.0469646 -0.0742323,-0.089063 -0.128591,-0.12948 -0.0111535,-0.00925197 -0.0261339,-0.0137362 -0.0415236,-0.0110472 -0.0278661,0.0048622 -0.0465079,0.0313976 -0.0416457,0.0592598 0.00486614,0.0277835 0.00786614,0.0596417 0.00895669,0.095878 0.0011378,0.0376378 0.000314961,0.0808661 -0.00248819,0.130028 -0.00375591,0.0657126 -0.0439409,0.299539 -0.0554213,0.377248l0.103488 0c0.0109016,-0.0740394 0.0501969,-0.30435 0.0540394,-0.371642z"/>
  <path class="fil1" d="M3.94377 4.97872l0 -1.23725 -1.50558 0c-0.0851535,0.444311 0.0502126,0.667319 0.163063,0.853224 0.0766142,0.126217 0.143921,0.237102 0.139665,0.384028l1.20285 0zm-0.497965 -0.985689c-0.0294528,0 -0.0533346,-0.0238819 -0.0533346,-0.0533346 0,-0.0294528 0.0238819,-0.0533346 0.0533346,-0.0533346l0.218244 0c0.0294528,0 0.0533346,0.0238819 0.0533346,0.0533346 0,0.0294528 -0.0238819,0.0533346 -0.0533346,0.0533346l-0.218244 0z"/>
  <path class="fil2" d="M4.88013 4.85541c-0.0910866,0 -0.173551,0.0369173 -0.233228,0.0965906 -0.0596732,0.0596772 -0.0965906,0.142142 -0.0965906,0.233228 0,0.0910866 0.0369173,0.173551 0.0965945,0.233224 0.0596732,0.0596772 0.142138,0.0965945 0.233224,0.0965945 0.0910866,0 0.173551,-0.0369173 0.233224,-0.0965945 0.0596772,-0.0596732 0.0965945,-0.142138 0.0965945,-0.233224 0,-0.0254843 -0.00288976,-0.0502913 -0.00835827,-0.0741181 -0.000216535,-0.000877953 -0.000425197,-0.00175984 -0.000622047,-0.00264567 -0.0143583,-0.0602598 -0.045252,-0.114102 -0.0876102,-0.156465 -0.0596772,-0.0596772 -0.142138,-0.0965906 -0.233228,-0.0965906z"/>
  <path class="fil1" d="M4.88013 4.64207c0.149976,0 0.285768,0.0607992 0.384063,0.159094 0.0503819,0.0503819 0.0909134,0.110618 0.118457,0.177563l0.0438504 0 0.322937 0c0.00893701,0 0.0105354,0.0327953 0.0105354,0.0209606 0,-0.0124646 -0.000901575,-0.0220394 -0.00181496,-0.0318071 -0.00116142,-0.0124094 -0.00234646,-0.025 -0.00283465,-0.0345 -0.000759843,-0.0147205 -0.000409449,-0.029685 -6.69291e-005,-0.0441693 3.93701e-006,-0.00023622 -1.1811e-005,0.000448819 -0.00628346,0.000448819l0 -0.000417323c-0.0586811,0 -0.106252,-0.0475709 -0.106252,-0.106252l-0.00125197 -0.813323 -0.0287992 -0.228193 -1.56224 0 0 1.23725 0.327177 0c0.0275433,-0.0669449 0.0680748,-0.127177 0.118457,-0.177563 0.0982992,-0.0982953 0.234094,-0.159094 0.384063,-0.159094zm0.239291 -0.649031c-0.0294528,0 -0.0533346,-0.0238819 -0.0533346,-0.0533346 0,-0.0294528 0.0238819,-0.0533346 0.0533346,-0.0533346l0.218244 0c0.0294528,0 0.0533346,0.0238819 0.0533346,0.0533346 0,0.0294528 -0.0238819,0.0533346 -0.0533346,0.0533346l-0.218244 0z"/>
  <polygon class="fil3" points="4.05044,3.6348 5.59921,3.6348 5.49042,2.7728 4.05044,2.7728 "/>
  <path class="fil3" d="M3.94377 3.6348l0 -0.862004 -0.336343 0c-0.237945,0 -0.461193,0.0588543 -0.659433,0.204201 -0.185311,0.135866 -0.351539,0.34776 -0.491354,0.657803l1.48713 0z"/>
  <path class="fil2" d="M2.32296 5.10846c-0.0143583,-0.0602598 -0.045252,-0.114102 -0.0876102,-0.156465 -0.0596772,-0.0596732 -0.142142,-0.0965906 -0.233228,-0.0965906 -0.0910906,0 -0.173551,0.0369134 -0.233228,0.0965906 -0.0596732,0.0596772 -0.0965906,0.142142 -0.0965906,0.233228 0,0.0910866 0.0369173,0.173551 0.0965945,0.233224 0.0596732,0.0596772 0.142138,0.0965945 0.233224,0.0965945 0.0910866,0 0.173551,-0.0369173 0.233224,-0.0965945 0.0596772,-0.0596732 0.0965945,-0.142138 0.0965945,-0.233224 0,-0.0254843 -0.00288976,-0.0502913 -0.00835827,-0.0741181 -0.000216535,-0.000877953 -0.000425197,-0.00175984 -0.000622047,-0.00264567z"/>
  <path class="fil1" d="M2.00212 4.64207c0.149969,0 0.285764,0.0607992 0.384063,0.159094 0.0503819,0.0503819 0.0909134,0.110618 0.118457,0.177563l0.129272 0c0.00306693,-0.120528 -0.0560748,-0.217965 -0.123492,-0.329028 -0.11572,-0.190638 -0.253252,-0.417209 -0.190094,-0.848984 -0.146508,0.054748 -0.293642,0.120102 -0.441858,0.198177 -0.158945,0.0837283 -0.319681,0.182638 -0.482854,0.299441 -0.0704213,0.0504055 0.0154882,-0.0112835 -0.0386142,0.0272559 -0.0865394,0.0616457 -0.126354,0.0900118 -0.135575,0.109358 -0.00714567,0.0149921 -0.00623228,0.0507953 -0.00453937,0.117079 0.00104724,0.0409173 0.0022874,0.0893189 0.0022874,0.123457l0 0.107508c0,0.0589094 -0.0477598,0.106669 -0.106669,0.106669 -0.0361811,0 -0.0464134,-0.00306693 -0.0470748,-0.0019252 -0.00084252,0.00145276 0.00143307,0.024374 0.00368898,0.0469488 0.00222441,0.0222441 0.00175591,0.016437 0.00194094,0.0186811 0.00112992,0.0134134 0.00214173,0.0253622 0.0414449,0.0253622l0.302406 0 0.0846929 0c0.0275433,-0.0669449 0.0680748,-0.127177 0.118457,-0.177563 0.0982953,-0.0982953 0.234087,-0.159094 0.384063,-0.159094z"/>
  <path class="fil4" d="M4.98352 2.55946l0.600543 0c0.0575394,0 0.104433,0.045563 0.106583,0.102575l0.0523701 0.414957c0.0714567,-0.109555 0.0914213,-0.199681 0.0932677,-0.20887 0.013063,-0.0648858 0.0172205,-0.133346 0.0126417,-0.200894 -0.00673228,-0.099374 -0.0323661,-0.195894 -0.0762677,-0.275138 -0.00890551,0.0531299 -0.0251614,0.0921339 -0.0449331,0.118272 -0.0374055,-0.0356378 -0.0872598,-0.0575669 -0.143661,-0.0575669l-0.0676969 0c-0.0179252,-0.0503858 -0.0237756,-0.118091 -0.00701181,-0.197413 0.0166693,-0.0789016 0.0125591,-0.193732 -0.032189,-0.29776 -0.012815,-0.0297953 -0.0290236,-0.0586181 -0.0490906,-0.0853071 0.00900787,0.150894 -0.093189,0.275449 -0.206535,0.413563l-0.00779921 0.00950787c-0.0050748,0.00708661 -0.0120315,0.0129724 -0.0205512,0.016811 -0.0257638,0.0116063 -0.056063,0.000133858 -0.0676693,-0.025626 -0.0239094,-0.0527717 -0.047122,-0.0979291 -0.0756772,-0.137665 -0.00551969,-0.0076811 -0.0112717,-0.0152126 -0.0173071,-0.0226142 0.000334646,0.0345906 -0.000653543,0.0722598 -0.00298819,0.113193 -0.00316929,0.0554882 -0.0304409,0.221819 -0.0460276,0.319976z"/>
  <path class="fil4" d="M3.50405 2.56276c-0.0192047,-0.130717 -0.0517283,-0.360134 -0.0579055,-0.468264 -0.00364567,-0.0638858 -0.00518898,-0.122689 -0.00466142,-0.176681 -0.00942126,0.0115591 -0.0184016,0.023311 -0.0270157,0.0352992 -0.0445669,0.0620276 -0.0808071,0.132512 -0.118122,0.214882 -0.0181181,0.0402087 -0.0654134,0.0581181 -0.105622,0.04 -0.0132992,-0.00599213 -0.0241614,-0.0151772 -0.0320827,-0.0262441l-0.0121693 -0.0148346c-0.176921,-0.215579 -0.336441,-0.409996 -0.322386,-0.645524 -0.0313189,0.0416535 -0.0566181,0.0866417 -0.076622,0.13315 -0.0698504,0.162374 -0.0762638,0.341614 -0.0502402,0.464772 0.0382087,0.180811 0.00116142,0.322965 -0.0599803,0.398713 -0.0347441,0.0430433 -0.0785394,0.0684449 -0.125362,0.0733976 -0.049811,0.00527165 -0.0987126,-0.012252 -0.139886,-0.0556299 -0.0378465,-0.0398819 -0.0695827,-0.106543 -0.0857638,-0.203094 -0.0685197,0.123693 -0.108531,0.274346 -0.119043,0.429461 -0.0108504,0.160118 0.00971654,0.323504 0.0627402,0.465709 0.00887795,0.023815 0.0399843,0.0782087 0.116539,0.150551 0.138579,-0.256984 0.29887,-0.443449 0.475693,-0.573094 0.20922,-0.153394 0.439059,-0.22678 0.68189,-0.242567z"/>
 </g>
 <rect class="fil5" width="6.82666" height="6.82666"/>
</svg>
