<?xml version="1.0" encoding="UTF-8"?>
<!DOCTYPE svg PUBLIC "-//W3C//DTD SVG 1.1//EN" "http://www.w3.org/Graphics/SVG/1.1/DTD/svg11.dtd">
<!-- Creator: CorelDRAW -->
<svg xmlns="http://www.w3.org/2000/svg" xml:space="preserve" width="6.82666in" height="6.82666in" style="shape-rendering:geometricPrecision; text-rendering:geometricPrecision; image-rendering:optimizeQuality; fill-rule:evenodd; clip-rule:evenodd"
viewBox="0 0 6.82666 6.82666"
 xmlns:xlink="http://www.w3.org/1999/xlink">
 <defs>
  <style type="text/css">
   <![CDATA[
    .fil3 {fill:none}
    .fil2 {fill:#F45A52}
    .fil1 {fill:#FECA5F}
    .fil0 {fill:#212121;fill-rule:nonzero}
   ]]>
  </style>
 </defs>
 <g id="Layer_x0020_1">
  <metadata id="CorelCorpID_0Corel-Layer"/>
  <path class="fil0" d="M3.10495 5.13714c-0.717098,-0.0453976 -1.43202,-0.0849173 -2.15037,-0.123925 -0.0586811,-0.00298819 -0.103823,-0.0529882 -0.100835,-0.111669 0.00194488,-0.0382047 0.0238189,-0.0706614 0.0550394,-0.0878425l-3.93701e-005 -7.48031e-005 1.35003 -0.741205 -0.333043 -0.672063c-0.026,-0.0526969 -0.0043622,-0.1165 0.0483346,-0.1425 0.0171614,-0.0084685 0.0355039,-0.011874 0.0533346,-0.010811l0 -2.3622e-005 0.854917 0.0522205 0.428516 -1.49783c0.0161063,-0.0566063 0.0750591,-0.0894409 0.131665,-0.0733346 0.0372992,0.0106142 0.0642756,0.0398346 0.0737323,0.0747244l0.420957 1.47671 1.22336 -0.334571c0.0566063,-0.0154173 0.115,0.0179764 0.130417,0.0745827 0.00870079,0.0319488 0.00185039,0.0644646 -0.0159449,0.0895039l0.000110236 7.87402e-005 -0.69226 0.969882 1.33505 0.734638c0.0515472,0.0283031 0.0703858,0.0930394 0.0420827,0.144587 -0.019189,0.0349449 -0.055126,0.0548543 -0.0923425,0.0552362l-2.32411 0.127768c-0.201827,0.0111024 -0.232547,0.00895669 -0.438598,-0.00407874zm0.439657 -0.209134l1.94421 -0.107425 -1.11331 -0.612622 5.51181e-005 -9.84252e-005c-0.00357087,-0.0019685 -0.00706693,-0.00414961 -0.0104685,-0.00657087 -0.0478622,-0.0340551 -0.0590551,-0.100469 -0.025,-0.148331l0.588323 -0.82426 -1.02879 0.281354c-0.00227559,0.000818898 -0.00458661,0.00157087 -0.00694882,0.00224409 -0.0566063,0.0161063 -0.115559,-0.0167283 -0.131665,-0.0733346l-0.347866 -1.2203 -0.349374 1.2212 -0.000114173 -3.14961e-005c-0.0133228,0.0469882 -0.0578661,0.0801063 -0.108638,0.0771181l-0.756925 -0.0462362 0.294925 0.595142c0.0279488,0.0514724 0.0090748,0.115917 -0.0423228,0.144138l-1.11277 0.610941 1.82965 0.107984c0.12489,0.00736614 0.252087,0.00598425 0.377035,-0.000917323z"/>
  <path class="fil0" d="M3.71085 4.61063l0.671866 -0.0643189 -0.446335 -0.282102c-0.00764567,-0.00481496 -0.0136417,-0.0112559 -0.0178268,-0.0185906l-8.66142e-005 4.72441e-005c-0.0185157,-0.0323858 -0.0273189,-0.058248 -0.0255039,-0.0875945 0.00174409,-0.0282638 0.013063,-0.053189 0.0347441,-0.0839055l0.157378 -0.258563 -0.342858 0.150953c-0.0037874,0.00166535 -0.00766142,0.00285433 -0.0115591,0.00359449 -0.0494685,0.0131693 -0.083622,0.0153307 -0.11502,-0.00152756 -0.0327087,-0.017563 -0.0501457,-0.0488583 -0.0653583,-0.102232l-0.000433071 -0.00162992 -0.133827 -0.418071 -0.135571 0.473882c-0.0023189,0.00814961 -0.00641732,0.015315 -0.011748,0.0211929 -0.0628465,0.0756772 -0.24572,0.0234291 -0.396732,-0.0197205 -0.0167283,-0.00477953 -0.0329961,-0.00942913 -0.0484213,-0.0137323 0.0210551,0.0386693 0.0418701,0.0774606 0.0588583,0.114929 0.0719213,0.158614 0.0902953,0.307992 -0.12489,0.405555l-0.267862 0.121441 0.668909 0.0609291c0.241244,0.0174252 0.304614,0.0151299 0.552276,-0.000535433zm-0.567157 0.10589l-0.860669 -0.0783976c-0.0198189,-0.000492126 -0.0385669,-0.0120827 -0.0472559,-0.0313622 -0.0120787,-0.0268071 -0.000141732,-0.0583346 0.0266654,-0.0704134l0.451346 -0.20463c0.13352,-0.0605394 0.119433,-0.159142 0.0715591,-0.264728 -0.0182323,-0.0402165 -0.0401417,-0.0803976 -0.0618819,-0.120268 -0.0167992,-0.0308071 -0.0335079,-0.0614567 -0.0477165,-0.0900276 -0.0044685,-0.00835827 -0.00675984,-0.0180118 -0.00616142,-0.0281654 0.00172441,-0.0293386 0.0269134,-0.0517244 0.056252,-0.05 0.0404016,0.0024685 0.104047,0.0206575 0.175315,0.0410197 0.114311,0.0326614 0.251768,0.0719331 0.280555,0.0587913l0.180165 -0.629752 0.000106299 3.14961e-005c0.0047126,-0.0165118 0.0173228,-0.030437 0.0348937,-0.0360748 0.0279567,-0.00897244 0.0579016,0.00642126 0.066874,0.034378l0.187374 0.58535c0.000629921,0.0016063 0.00119291,0.00325984 0.00167323,0.00495276 0.00691339,0.0242598 0.0109803,0.0364173 0.0132795,0.0376496 0.0025748,0.00138189 0.0144409,-0.00120866 0.0359921,-0.00702362l0.495043 -0.217957 2.3622e-005 5.51181e-005c0.0153819,-0.00675591 0.0337126,-0.0061378 0.0491417,0.00327559 0.0250827,0.0152992 0.0330079,0.0480433 0.0177087,0.073126l-0.246256 0.404583 -1.5748e-005 -1.1811e-005c-0.000649606,0.00105906 -0.00133465,0.00211024 -0.00206693,0.0031378 -0.0106614,0.0149409 -0.0160551,0.0243346 -0.0164213,0.0302638 -0.00023622,0.00382283 0.0017126,0.00942913 0.00575984,0.0174252l0.565886 0.357661 -1.5748e-005 2.3622e-005c0.0134646,0.00849213 0.0229882,0.0229055 0.0245984,0.0399764 0.00275984,0.0292244 -0.0186929,0.0551575 -0.0479173,0.0579173l-0.811854 0.0777165c-0.288307,0.0186693 -0.314193,0.0216417 -0.59198,0.00147638z"/>
  <path class="fil1" d="M3.71085 4.61063l0.671866 -0.0643189 -0.446335 -0.282102c-0.00764567,-0.00481496 -0.0136417,-0.0112559 -0.0178268,-0.0185906l-8.66142e-005 4.72441e-005c-0.0185157,-0.0323858 -0.0273189,-0.058248 -0.0255039,-0.0875945 0.00174409,-0.0282638 0.013063,-0.053189 0.0347441,-0.0839055l0.157378 -0.258563 -0.342858 0.150953c-0.0037874,0.00166535 -0.00766142,0.00285433 -0.0115591,0.00359449 -0.0494685,0.0131693 -0.083622,0.0153307 -0.11502,-0.00152756 -0.0327087,-0.017563 -0.0501457,-0.0488583 -0.0653583,-0.102232l-0.000433071 -0.00162992 -0.133827 -0.418071 -0.135571 0.473882c-0.0023189,0.00814961 -0.00641732,0.015315 -0.011748,0.0211929 -0.0628465,0.0756772 -0.24572,0.0234291 -0.396732,-0.0197205 -0.0167283,-0.00477953 -0.0329961,-0.00942913 -0.0484213,-0.0137323 0.0210551,0.0386693 0.0418701,0.0774606 0.0588583,0.114929 0.0719213,0.158614 0.0902953,0.307992 -0.12489,0.405555l-0.267862 0.121441 0.668909 0.0609291c0.241244,0.0174252 0.304614,0.0151299 0.552276,-0.000535433z"/>
  <path class="fil2" d="M4.0177 4.13092l0 0zm0.553142 0.408512l0 0zm-0.0233189 0.0978937l-0.811854 0.0777165c-0.288307,0.0186693 -0.314193,0.0216417 -0.59198,0.00147638l-0.860669 -0.0783976c-0.0198189,-0.000492126 -0.0385669,-0.0120827 -0.0472559,-0.0313622 -0.0120787,-0.0268071 -0.000141732,-0.0583346 0.0266654,-0.0704134l0.451346 -0.20463c0.13352,-0.0605394 0.119433,-0.159142 0.0715591,-0.264728 -0.0182323,-0.0402165 -0.0401417,-0.0803976 -0.0618819,-0.120268 -0.0167992,-0.0308071 -0.0335079,-0.0614567 -0.0477165,-0.0900276 -0.0044685,-0.00835827 -0.00675984,-0.0180118 -0.00616142,-0.0281654 0.00172441,-0.0293386 0.0269134,-0.0517244 0.056252,-0.05 0.0404016,0.0024685 0.104047,0.0206575 0.175315,0.0410197 0.114311,0.0326614 0.251768,0.0719331 0.280555,0.0587913l0.180165 -0.629752 0.000106299 3.14961e-005c0.0047126,-0.0165118 0.0173228,-0.030437 0.0348937,-0.0360748 0.0279567,-0.00897244 0.0579016,0.00642126 0.066874,0.034378l0.187374 0.58535c0.000629921,0.0016063 0.00119291,0.00325984 0.00167323,0.00495276 0.00691339,0.0242598 0.0109803,0.0364173 0.0132795,0.0376496 0.0025748,0.00138189 0.0144409,-0.00120866 0.0359921,-0.00702362l0.495043 -0.217957 2.3622e-005 5.51181e-005c0.0153819,-0.00675591 0.0337126,-0.0061378 0.0491417,0.00327559 0.0250827,0.0152992 0.0330079,0.0480433 0.0177087,0.073126l-0.246272 0.404571c-0.000649606,0.00105906 -0.00133465,0.00211024 -0.00206693,0.0031378 -0.0106614,0.0149409 -0.0160551,0.0243346 -0.0164213,0.0302638 -0.00023622,0.00382283 0.0017126,0.00942913 0.00575984,0.0174252l0.56587 0.357685c0.0134646,0.00849213 0.0229882,0.0229055 0.0245984,0.0399764 0.00275984,0.0292244 -0.0186929,0.0551575 -0.0479173,0.0579173zm-1.37995 0.291602c0.12489,0.00736614 0.252087,0.00598425 0.377035,-0.000917323l1.94421 -0.107425 -1.11331 -0.612622 5.51181e-005 -9.84252e-005c-0.00357087,-0.0019685 -0.00706693,-0.00414961 -0.0104685,-0.00657087 -0.0478622,-0.0340551 -0.0590551,-0.100469 -0.025,-0.148331l0.588323 -0.82426 -1.02879 0.281354c-0.00227559,0.000818898 -0.00458661,0.00157087 -0.00694882,0.00224409 -0.0566063,0.0161063 -0.115559,-0.0167283 -0.131665,-0.0733346l-0.347866 -1.2203 -0.349374 1.2212 -0.000114173 -3.14961e-005c-0.0133228,0.0469882 -0.0578661,0.0801063 -0.108638,0.0771181l-0.756925 -0.0462362 0.294925 0.595142c0.0279488,0.0514724 0.0090748,0.115917 -0.0423228,0.144138l-1.11277 0.610941 1.82965 0.107984z"/>
 </g>
 <rect class="fil3" width="6.82666" height="6.82666"/>
</svg>
