<?xml version="1.0" encoding="UTF-8"?>
<!DOCTYPE svg PUBLIC "-//W3C//DTD SVG 1.1//EN" "http://www.w3.org/Graphics/SVG/1.1/DTD/svg11.dtd">
<!-- Creator: CorelDRAW -->
<svg xmlns="http://www.w3.org/2000/svg" xml:space="preserve" width="6.82666in" height="6.82666in" style="shape-rendering:geometricPrecision; text-rendering:geometricPrecision; image-rendering:optimizeQuality; fill-rule:evenodd; clip-rule:evenodd"
viewBox="0 0 6.82666 6.82666"
 xmlns:xlink="http://www.w3.org/1999/xlink">
 <defs>
  <style type="text/css">
   <![CDATA[
    .fil3 {fill:none}
    .fil2 {fill:#F45A52}
    .fil1 {fill:#FECA5F}
    .fil0 {fill:#212121;fill-rule:nonzero}
   ]]>
  </style>
 </defs>
 <g id="Layer_x0020_1">
  <metadata id="CorelCorpID_0Corel-Layer"/>
  <g id="_517305120">
   <path id="_517305576" class="fil0" d="M3.37388 5.76021c0.33928,-0.0055 0.617693,-0.162776 0.835205,-0.39485 0.277465,-0.296039 0.457098,-0.712587 0.540039,-1.09763 0.102264,-0.474736 0.0839685,-0.982071 -0.0460472,-1.43769 -0.094563,-0.331398 -0.248087,-0.634591 -0.457016,-0.876472 0.0051063,0.101732 0.00220472,0.195004 -0.00733071,0.276071 -0.0235827,0.200461 -0.0944843,0.341303 -0.194543,0.380823 -0.0751142,0.0296614 -0.153016,0.0118701 -0.228134,-0.0636102 -0.0468898,-0.0471142 -0.094685,-0.121232 -0.141051,-0.226272 -0.00088189,-0.00200394 -0.00168898,-0.00402362 -0.00243701,-0.00604724 -0.0918228,-0.212276 -0.151055,-0.436933 -0.186016,-0.665587 -0.0209173,-0.136819 -0.0331535,-0.275795 -0.0385197,-0.414917 -0.0292835,0.0394961 -0.0567126,0.0806378 -0.0822874,0.123142 -0.0775079,0.128795 -0.138315,0.269874 -0.182504,0.415634 -0.0689331,0.227398 -0.0765433,0.41615 -0.0845276,0.614228 -0.00469291,0.116469 -0.00951181,0.235965 -0.0252323,0.364252 -0.00974409,0.0795276 -0.0364646,0.222969 -0.0891102,0.346319 -0.0295236,0.0691693 -0.0677913,0.133205 -0.116957,0.180177 -0.0599449,0.0572677 -0.132874,0.0889685 -0.221252,0.0781339 -0.0265472,-0.00325197 -0.0542362,-0.0107559 -0.0830591,-0.0230591 -0.121205,-0.0517677 -0.184858,-0.173717 -0.217213,-0.306402 -0.00191339,-0.00784646 -0.0037126,-0.0157323 -0.00541339,-0.0236457 -0.0842402,0.144173 -0.155425,0.312685 -0.209878,0.488606 -0.0906614,0.292909 -0.134118,0.603724 -0.113894,0.855563 0.0317835,0.395646 0.187594,0.770996 0.444051,1.03552 0.22874,0.235925 0.538815,0.383772 0.913126,0.377713zm0.990205 -0.249016c-0.254142,0.271154 -0.582539,0.454961 -0.986874,0.46152 -0.438386,0.00709449 -0.80135,-0.165866 -1.06896,-0.441886 -0.291583,-0.300752 -0.468429,-0.723732 -0.504051,-1.16718 -0.0222795,-0.277429 0.0246929,-0.616913 0.123067,-0.934736 0.094622,-0.305697 0.237555,-0.593756 0.413236,-0.790921l0.000220472 0.00019685c0.0195551,-0.0219488 0.0480709,-0.0357362 0.0797795,-0.0356142 0.0586811,0.000228346 0.106063,0.0479882 0.105835,0.106669 -0.000366142,0.0693976 0.00343701,0.173776 0.0262205,0.267213 0.0182441,0.0748268 0.0473346,0.140689 0.093874,0.160567 0.00915354,0.00390551 0.0176654,0.00625984 0.025563,0.00722441 0.0172047,0.0021063 0.0335984,-0.00615748 0.048748,-0.0206299 0.0259252,-0.0247677 0.048563,-0.0642913 0.0677913,-0.109343 0.0427323,-0.100122 0.0649764,-0.221091 0.0732756,-0.288823 0.0155276,-0.126717 0.0200236,-0.238146 0.0243976,-0.346748 0.0085315,-0.211705 0.0166693,-0.413445 0.0937008,-0.667567 0.0492559,-0.162476 0.117004,-0.319677 0.203331,-0.46313 0.082378,-0.136898 0.181437,-0.261531 0.297232,-0.366764l0.000141732 0.000153543c0.0193937,-0.0176535 0.045315,-0.0282087 0.0736063,-0.0276535 0.0586811,0.00114961 0.105319,0.0496535 0.104169,0.108335 -0.0046063,0.216661 0.00574803,0.437724 0.0389961,0.655201 0.0324685,0.212335 0.0867677,0.419346 0.170346,0.612638 0.000791339,0.00158268 0.00155118,0.00319291 0.00227165,0.00483071 0.0355118,0.0804528 0.0680394,0.133122 0.0968858,0.162106 0.00726772,0.00729921 -0.0084252,0.0181969 -0.0010315,0.0152795 0.0246496,-0.00973622 0.0470512,-0.0863189 0.0612047,-0.206657 0.0162126,-0.137827 0.0103937,-0.31722 -0.026189,-0.514965 -0.00747638,-0.0314213 -0.000633858,-0.0658583 0.0215433,-0.0926614 0.0375079,-0.0453307 0.104669,-0.0516732 0.15,-0.0141654 0.352528,0.291516 0.600535,0.71448 0.735661,1.18803 0.139303,0.488161 0.158921,1.03166 0.049378,1.54019 -0.090063,0.418106 -0.287181,0.872614 -0.59337,1.1993z"/>
   <path id="_517305000" class="fil0" d="M4.10813 5.72369c-0.0317559,0.0494724 -0.0976102,0.0638386 -0.147083,0.0320827 -0.0494724,-0.0317559 -0.0638386,-0.0976102 -0.0320827,-0.147083 0.0841457,-0.130969 0.169917,-0.324146 0.185724,-0.558287 0.0117244,-0.173657 -0.0150551,-0.370217 -0.10948,-0.581323 -0.236,-0.527559 -0.416744,-0.90372 -0.52563,-1.12417 -0.0756811,0.209898 -0.209354,0.517972 -0.41948,0.80574 -0.151075,0.206862 -0.269858,0.437878 -0.323772,0.671433 -0.0456654,0.197835 -0.0442362,0.397441 0.0250551,0.584752 0.0167362,0.0452598 0.0613937,0.126339 0.111161,0.19637 0.0338583,0.0476496 0.0663701,0.0867244 0.0856063,0.0962402 0.0526969,0.026 0.0743346,0.0898031 0.0483346,0.1425 -0.026,0.0526969 -0.0898031,0.0743346 -0.1425,0.0483346 -0.0540866,-0.0267559 -0.113106,-0.0910315 -0.164772,-0.163744 -0.0603307,-0.0848976 -0.11587,-0.18698 -0.137831,-0.24637 -0.0846181,-0.228744 -0.0871063,-0.46928 -0.0325591,-0.705587 0.0606339,-0.262665 0.192469,-0.520071 0.359606,-0.748929 0.339547,-0.465016 0.464311,-0.985862 0.464677,-0.98737l9.05512e-005 2.3622e-005c0.00696457,-0.0287323 0.025811,-0.0544331 0.0540787,-0.069189 0.0520039,-0.0271496 0.116181,-0.00700394 0.143331,0.045 0.000716535,0.00137008 0.246445,0.468933 0.648768,1.36829 0.110394,0.246799 0.141626,0.477626 0.127819,0.682157 -0.0186772,0.276713 -0.119839,0.504677 -0.219063,0.659122z"/>
  </g>
  <path class="fil1" d="M3.37388 5.76021c0.21311,-0.00345276 0.402209,-0.0667913 0.56728,-0.170933 0.0800748,-0.130315 0.158484,-0.316043 0.173528,-0.538874 0.0117244,-0.173657 -0.0150551,-0.370217 -0.10948,-0.581323 -0.236,-0.527559 -0.416744,-0.90372 -0.52563,-1.12417 -0.0756811,0.209898 -0.209354,0.517972 -0.41948,0.80574 -0.151075,0.206862 -0.269858,0.437878 -0.323772,0.671433 -0.0456654,0.197835 -0.0442362,0.397441 0.0250551,0.584752 0.0167362,0.0452598 0.0613937,0.126339 0.111161,0.19637 0.0312953,0.0440433 0.0614409,0.0807598 0.0810157,0.0935787 0.128917,0.0432874 0.269398,0.0658661 0.420323,0.0634213z"/>
  <path class="fil2" d="M3.55061 3.01412c0.000716535,0.00137008 0.246445,0.468933 0.648768,1.36829 0.110394,0.246799 0.141626,0.477626 0.127819,0.682157 -0.00461811,0.0684134 -0.0142756,0.133846 -0.0277008,0.195925 0.226461,-0.285008 0.376075,-0.651276 0.449634,-0.992764 0.102264,-0.474736 0.0839685,-0.982071 -0.0460472,-1.43769 -0.094563,-0.331398 -0.248087,-0.634591 -0.457016,-0.876472 0.0051063,0.101732 0.00220472,0.195004 -0.00733071,0.276071 -0.0235827,0.200461 -0.0944843,0.341303 -0.194543,0.380823 -0.0751142,0.0296614 -0.153016,0.0118701 -0.228134,-0.0636102 -0.0468898,-0.0471142 -0.094685,-0.121232 -0.141051,-0.226272 -0.00088189,-0.00200394 -0.00168898,-0.00402362 -0.00243701,-0.00604724 -0.0918228,-0.212276 -0.151055,-0.436933 -0.186016,-0.665587 -0.0209173,-0.136819 -0.0331535,-0.275795 -0.0385197,-0.414917 -0.0292835,0.0394961 -0.0567126,0.0806378 -0.0822874,0.123142 -0.0775079,0.128795 -0.138315,0.269874 -0.182504,0.415634 -0.0689331,0.227398 -0.0765433,0.41615 -0.0845276,0.614228 -0.00469291,0.116469 -0.00951181,0.235965 -0.0252323,0.364252 -0.00974409,0.0795276 -0.0364646,0.222969 -0.0891102,0.346319 -0.0295236,0.0691693 -0.0677913,0.133205 -0.116957,0.180177 -0.0599449,0.0572677 -0.132874,0.0889685 -0.221252,0.0781339 -0.0265472,-0.00325197 -0.0542362,-0.0107559 -0.0830591,-0.0230591 -0.121205,-0.0517677 -0.184858,-0.173717 -0.217213,-0.306402 -0.00191339,-0.00784646 -0.0037126,-0.0157323 -0.00541339,-0.0236457 -0.0842402,0.144173 -0.155425,0.312685 -0.209878,0.488606 -0.0906614,0.292909 -0.134118,0.603724 -0.113894,0.855563 0.0317835,0.395646 0.187594,0.770996 0.444051,1.03552 0.031311,0.0322953 0.0641457,0.062937 0.0984567,0.0917598 -0.0824882,-0.226972 -0.0844685,-0.465402 -0.0303898,-0.699673 0.0606339,-0.262665 0.192469,-0.520071 0.359606,-0.748929 0.339547,-0.465016 0.464311,-0.985862 0.464677,-0.98737l9.05512e-005 2.3622e-005c0.00696457,-0.0287323 0.025811,-0.0544331 0.0540787,-0.069189 0.0520039,-0.0271496 0.116181,-0.00700394 0.143331,0.045z"/>
 </g>
 <rect class="fil3" width="6.82666" height="6.82666"/>
</svg>
