<?xml version="1.0" encoding="UTF-8"?>
<!DOCTYPE svg PUBLIC "-//W3C//DTD SVG 1.1//EN" "http://www.w3.org/Graphics/SVG/1.1/DTD/svg11.dtd">
<!-- Creator: CorelDRAW -->
<svg xmlns="http://www.w3.org/2000/svg" xml:space="preserve" width="6.82666in" height="6.82666in" style="shape-rendering:geometricPrecision; text-rendering:geometricPrecision; image-rendering:optimizeQuality; fill-rule:evenodd; clip-rule:evenodd"
viewBox="0 0 6.82666 6.82666"
 xmlns:xlink="http://www.w3.org/1999/xlink">
 <defs>
  <style type="text/css">
   <![CDATA[
    .fil3 {fill:none}
    .fil2 {fill:#949494}
    .fil0 {fill:#B38E85}
    .fil1 {fill:#212121;fill-rule:nonzero}
   ]]>
  </style>
 </defs>
 <g id="Layer_x0020_1">
  <metadata id="CorelCorpID_0Corel-Layer"/>
  <path class="fil0" d="M3.22661 4.14379l9.84252e-005 0.000185039c-3.14961e-005,-6.29921e-005 -6.29921e-005,-0.000125984 -9.84252e-005,-0.000185039zm0.186925 0.363843c-0.133323,-0.258709 -0.266114,-0.520622 -0.411531,-0.801311 -0.000893701,-0.00173228 -0.00179134,-0.00346063 -0.00268898,-0.00519291l-0.0426535 0.0632165c-0.338264,0.501165 -0.679976,1.00744 -1.05576,1.64425 -0.0299134,0.050622 -0.013122,0.115917 0.0375,0.145831l0.58702 0.346398c0.050622,0.0299134 0.115917,0.013122 0.145831,-0.0375 0.166531,-0.282217 0.31426,-0.546992 0.451276,-0.801579 0.0990984,-0.18413 0.195575,-0.368972 0.290803,-0.553717 7.08661e-005,-0.000129921 0.000137795,-0.00026378 0.000204724,-0.000393701z"/>
  <path class="fil0" d="M3.21433 3.65435c0.00106299,0.00179921 0.00208268,0.00364173 0.00305118,0.00552362 0.0369291,0.0715118 0.0930512,0.181161 0.153079,0.298583 0.00199213,0.00389764 0.00398819,0.00780315 0.00599213,0.0117165 -0.0537598,-0.105138 -0.107579,-0.210217 -0.162122,-0.315823zm-0.695685 -1.37673l-0.139008 0.0820276c-0.050622,0.0299134 -0.0674134,0.0952087 -0.0375,0.145831 0.0176378,0.0298858 0.0350551,0.0595787 0.0522638,0.0890827 0.22963,0.393673 0.422331,0.754213 0.604917,1.10656 0.0768937,0.148386 0.151992,0.295319 0.227295,0.442661 3.54331e-005,5.90551e-005 6.69291e-005,0.000122047 9.84252e-005,0.000185039l0.0672717 0.131571c0.0394921,0.0771732 0.079185,0.154591 0.11935,0.23248 0.219193,0.425083 0.452343,0.864307 0.742075,1.3553 0.0299134,0.050622 0.0952087,0.0674134 0.145831,0.0375l0.58702 -0.346398c0.050622,-0.0299134 0.0674134,-0.0952087 0.0375,-0.145831 -0.37578,-0.636807 -0.717488,-1.14307 -1.05575,-1.64423 -0.014189,-0.0210236 -0.028374,-0.0420394 -0.0425551,-0.0630551 -0.0451417,-0.0668976 -0.0902402,-0.133795 -0.135362,-0.200976 -2.3622e-005,3.93701e-005 -4.33071e-005,7.87402e-005 -6.29921e-005,0.00011811l-0.0449134 -0.0667559c-0.0315591,-0.0471181 -0.0664567,-0.0994646 -0.106205,-0.159409 2.3622e-005,-3.93701e-005 5.11811e-005,-7.48031e-005 7.48031e-005,-0.000114173 -0.0424252,-0.0639094 -0.084937,-0.12835 -0.127587,-0.193559 -0.156835,-0.239787 -0.315539,-0.489953 -0.478783,-0.762232 -0.0237717,-0.0396535 -0.0476417,-0.0797756 -0.0716142,-0.120402 -0.0200787,-0.0339803 -0.0561063,-0.0527205 -0.0929331,-0.052315 -0.0180315,0.00019685 -0.0362559,0.00498031 -0.0528976,0.014815l-0.198524 0.11715zm0.219626 0.12735c-0.0385551,0.0187953 -0.0774803,0.0385236 -0.114508,0.057874l0.110224 -0.0650433c0.00142913,0.00238976 0.00285433,0.00477953 0.00428346,0.00716929zm0.769087 1.82119c1.5748e-005,2.75591e-005 2.75591e-005,5.11811e-005 4.33071e-005,7.87402e-005 -1.5748e-005,-2.75591e-005 -2.75591e-005,-5.11811e-005 -4.33071e-005,-7.87402e-005z"/>
  <g id="_517305912">
   <path id="_517306152" class="fil1" d="M5.8532 2.20345c-0.0729724,-0.0222008 -0.160161,-0.0239331 -0.259413,-0.0258898 -0.228638,-0.00451181 -0.511417,-0.0100984 -0.880157,-0.227689 -0.268354,-0.158354 -0.389724,-0.31637 -0.499598,-0.459425 -0.0170748,-0.0222283 -0.0338268,-0.0440394 -0.0509173,-0.0653386 0.0418898,0.136815 0.0526457,0.29763 0.0202362,0.491681 -0.00227559,0.0136614 -0.00705906,0.0262795 -0.0138031,0.0374567l-0.117642 0.199362c0.0367323,0.0159213 0.0759055,0.0340276 0.115445,0.053122 0.112197,0.0541772 0.22926,0.116949 0.300902,0.159224 0.368886,0.217681 0.510386,0.462358 0.624795,0.660197 0.0489331,0.0846142 0.0920276,0.159114 0.145437,0.21211 0.155673,-0.144736 0.28798,-0.301512 0.391898,-0.472902 0.103669,-0.17098 0.179583,-0.357382 0.222819,-0.561909zm-0.255248 -0.238394c0.161972,0.00319685 0.297937,0.00588583 0.429543,0.0835433l-3.54331e-005 5.90551e-005c0.0366024,0.0216417 0.0581102,0.064185 0.0508701,0.108689 -0.0437559,0.26387 -0.135173,0.501776 -0.26628,0.718012 -0.129091,0.212909 -0.296055,0.403748 -0.493354,0.576902 -0.0335551,0.0332402 -0.0864961,0.0411142 -0.129063,0.0159606 -0.13174,-0.0777362 -0.19974,-0.195319 -0.280752,-0.335402 -0.101882,-0.176177 -0.227898,-0.394075 -0.548961,-0.583535 -0.0680591,-0.0401614 -0.179,-0.0996654 -0.285075,-0.150886 -0.0793622,-0.0383228 -0.154878,-0.0716181 -0.20511,-0.0876693 -0.00943701,-0.00244488 -0.018689,-0.00623228 -0.0275,-0.011437 -0.050622,-0.0299134 -0.0674134,-0.0952087 -0.0375,-0.145831l0.171685 -0.290945c0.0292913,-0.193016 0.00677165,-0.340677 -0.049374,-0.458874 -0.0575591,-0.121173 -0.152728,-0.215764 -0.264638,-0.2985 -0.0364016,-0.0251142 -0.0546378,-0.0714331 -0.0420276,-0.116394 0.015878,-0.0566063 0.0746457,-0.089626 0.131252,-0.073748 0.368972,0.104402 0.491165,0.26348 0.631563,0.44628 0.0976811,0.127177 0.205583,0.267661 0.438764,0.40526 0.321197,0.189535 0.572669,0.194504 0.775992,0.198516z"/>
   <path id="_517305792" class="fil1" d="M4.2473 2.48905l-0.154634 -0.091248c-0.0913701,0.152953 -0.182276,0.300465 -0.272898,0.444126 -0.095189,0.150906 -0.187764,0.293917 -0.278862,0.432354 0.039748,0.0599449 0.0746457,0.112291 0.106205,0.159409 0.0071378,0.0106575 0.0229528,0.0341575 0.0449134,0.0667559 0.0764803,-0.146563 0.155906,-0.296386 0.240791,-0.452378 0.0994921,-0.182827 0.203488,-0.368567 0.314484,-0.55902zm-0.137807 -0.328575l0.337531 0.199177c0.050622,0.0299134 0.0674134,0.0952087 0.0375,0.145831 -0.134114,0.22728 -0.253957,0.440134 -0.365039,0.644256 -0.10972,0.201626 -0.214902,0.402173 -0.3185,0.602732 -0.00785827,0.0174488 -0.0205079,0.0330039 -0.0375394,0.0444921 -0.0487835,0.0329055 -0.115012,0.0200315 -0.147917,-0.028752 -0.0244213,-0.0362165 -0.0639291,-0.0950157 -0.145087,-0.216189 -0.0547559,-0.081752 -0.104,-0.155579 -0.144571,-0.216925 -0.0240945,-0.0347402 -0.0260551,-0.0820551 -0.00129528,-0.119457 0.105425,-0.159465 0.2105,-0.321075 0.315193,-0.487043 0.104866,-0.16624 0.212382,-0.341646 0.323894,-0.530622 0.0299134,-0.050622 0.0952087,-0.0674134 0.145831,-0.0375zm-1.15283 1.60387c0.0259449,-0.0384409 0.0518819,-0.0768622 0.0777992,-0.115299l0.000106299 7.08661e-005c0.00967323,-0.0143701 0.0229921,-0.0265748 0.0394764,-0.0350709 0.0522362,-0.0269213 0.116413,-0.00640551 0.143335,0.0458307 0.046122,0.089311 0.122181,0.238118 0.198398,0.387244 0.0304449,0.0595709 0.0609409,0.11922 0.0915787,0.179039 0.0154764,0.0295079 0.0168701,0.0658268 0.000555118,0.097752 -0.12598,0.245933 -0.25335,0.492512 -0.385382,0.737831 -0.137016,0.254587 -0.284744,0.519362 -0.451276,0.801579 -0.0299134,0.050622 -0.0952087,0.0674134 -0.145831,0.0375l-0.58702 -0.346398c-0.050622,-0.0299134 -0.0674134,-0.0952087 -0.0375,-0.145831 0.375783,-0.636811 0.717496,-1.14308 1.05576,-1.64425zm0.153909 0.152886c-0.313248,0.464138 -0.629988,0.934988 -0.971969,1.50807l0.403173 0.237909c0.143543,-0.24598 0.272697,-0.478315 0.393248,-0.702307 0.130772,-0.242984 0.246906,-0.466937 0.358957,-0.685362 -0.0225079,-0.0439843 -0.0449528,-0.0878937 -0.0673701,-0.131756 -0.0358425,-0.070126 -0.071626,-0.140134 -0.116039,-0.226559z"/>
   <path id="_517306368" class="fil1" d="M0.799165 2.0486c0.131606,-0.0776575 0.267571,-0.0803465 0.429543,-0.0835433 0.203323,-0.00401181 0.454795,-0.00898031 0.775992,-0.198516 0.233181,-0.137598 0.341083,-0.278083 0.438764,-0.40526 0.140398,-0.182799 0.262591,-0.341878 0.631563,-0.44628 0.0566063,-0.015878 0.115374,0.0171417 0.131252,0.073748 0.0126102,0.0449606 -0.00562598,0.0912795 -0.0420276,0.116394 -0.111909,0.0827362 -0.207079,0.177327 -0.264638,0.2985 -0.0561457,0.118197 -0.0786654,0.265858 -0.049374,0.458874l0.171685 0.290945c0.0299134,0.050622 0.013122,0.115917 -0.0375,0.145831 -0.00881102,0.00520472 -0.018063,0.00899213 -0.0275,0.011437 -0.0502323,0.0160512 -0.125748,0.0493465 -0.20511,0.0876693 -0.106075,0.0512205 -0.217016,0.110724 -0.285075,0.150886 -0.321063,0.189461 -0.447079,0.407358 -0.548961,0.583535 -0.0810118,0.140083 -0.149012,0.257665 -0.280752,0.335402 -0.0425669,0.0251535 -0.0955079,0.0172795 -0.129063,-0.0159606 -0.197299,-0.173154 -0.364264,-0.363992 -0.493354,-0.576902 -0.131106,-0.216236 -0.222524,-0.454142 -0.26628,-0.718012 -0.00724016,-0.0445039 0.0142677,-0.0870472 0.0508701,-0.108689l-3.54331e-005 -5.90551e-005zm0.433709 0.128961c-0.099252,0.00195669 -0.186441,0.00368898 -0.259413,0.0258898 0.0432362,0.204528 0.11915,0.390929 0.222819,0.561909 0.103917,0.17139 0.236224,0.328165 0.391898,0.472902 0.0534094,-0.0529961 0.0965039,-0.127496 0.145437,-0.21211 0.114409,-0.197839 0.255909,-0.442516 0.624795,-0.660197 0.0716417,-0.0422756 0.188705,-0.105047 0.300902,-0.159224 0.0395394,-0.0190945 0.0787126,-0.0372008 0.115445,-0.053122l-0.117642 -0.199362c-0.00674409,-0.0111772 -0.0115276,-0.0237953 -0.0138031,-0.0374567 -0.0324094,-0.194051 -0.0216535,-0.354866 0.0202362,-0.491681 -0.0170906,0.0212992 -0.0338425,0.0431102 -0.0509173,0.0653386 -0.109874,0.143055 -0.231244,0.301071 -0.499598,0.459425 -0.36874,0.217591 -0.65152,0.223177 -0.880157,0.227689z"/>
   <path id="_517305840" class="fil1" d="M2.37963 2.35965l0.337531 -0.199177c0.050622,-0.0299134 0.115917,-0.013122 0.145831,0.0375 0.349358,0.592039 0.676543,1.07678 1.00701,1.56639 0.338264,0.501161 0.679972,1.00743 1.05575,1.64423 0.0299134,0.050622 0.013122,0.115917 -0.0375,0.145831l-0.58702 0.346398c-0.050622,0.0299134 -0.115917,0.013122 -0.145831,-0.0375 -0.373035,-0.632161 -0.652276,-1.17851 -0.928697,-1.71935 -0.267567,-0.523508 -0.53248,-1.04181 -0.884575,-1.63849 -0.0299134,-0.050622 -0.013122,-0.115917 0.0375,-0.145831zm0.35435 0.0381535l-0.154626 0.0912441c0.325047,0.557563 0.579579,1.05555 0.836516,1.55826 0.259776,0.508272 0.522079,1.02147 0.869008,1.61591l0.403173 -0.237909c-0.35026,-0.586961 -0.674043,-1.06668 -0.99472,-1.54178 -0.314508,-0.465969 -0.626063,-0.927555 -0.95935,-1.48572z"/>
  </g>
  <path class="fil2" d="M2.35841 2.36596c0.0414528,-0.0244606 0.0981102,-0.0557835 0.160232,-0.0883307l0.198524 -0.11715c0.0166417,-0.00983465 0.0348661,-0.0146181 0.0529094,-0.0147992l-0.112961 -0.191429c-0.00674409,-0.0111772 -0.0115276,-0.0237953 -0.0138031,-0.0374567 -0.0324094,-0.194051 -0.0216535,-0.354866 0.0202362,-0.491681 -0.0170906,0.0212992 -0.0338425,0.0431102 -0.0509173,0.0653386 -0.109874,0.143055 -0.231244,0.301071 -0.499598,0.459425 -0.36874,0.217591 -0.65152,0.223177 -0.880157,0.227689 -0.099252,0.00195669 -0.186441,0.00368898 -0.259413,0.0258898 0.0432362,0.204528 0.11915,0.390929 0.222819,0.561909 0.103917,0.17139 0.236224,0.328165 0.391898,0.472902 0.0534094,-0.0529961 0.0965039,-0.127496 0.145437,-0.21211 0.114409,-0.197839 0.255909,-0.442516 0.624795,-0.660197z"/>
  <path class="fil2" d="M4.46825 2.36596c0.368886,0.217681 0.510386,0.462358 0.624795,0.660197 0.0489331,0.0846142 0.0920276,0.159114 0.145437,0.21211 0.155673,-0.144736 0.28798,-0.301512 0.391898,-0.472902 0.103669,-0.17098 0.179583,-0.357382 0.222819,-0.561909 -0.0729724,-0.0222008 -0.160161,-0.0239331 -0.259413,-0.0258898 -0.228638,-0.00451181 -0.511417,-0.0100984 -0.880157,-0.227689 -0.268354,-0.158354 -0.389724,-0.31637 -0.499598,-0.459425 -0.0170748,-0.0222283 -0.0338268,-0.0440394 -0.0509173,-0.0653386 0.0418898,0.136815 0.0526457,0.29763 0.0202362,0.491681 -0.00227559,0.0136614 -0.00705906,0.0262795 -0.0138031,0.0374567l-0.112949 0.191413c0.0180315,0.00019685 0.0362598,0.00498031 0.0528976,0.014815l0.198512 0.117142c0.062126,0.0325512 0.118791,0.063878 0.160244,0.0883386z"/>
  <path class="fil0" d="M3.93281 3.04807c0.0994921,-0.182827 0.203488,-0.368567 0.314484,-0.55902l-0.0444055 -0.0262008c-0.0370276,-0.0193504 -0.0759567,-0.0390827 -0.114512,-0.057878 -0.0899291,0.150394 -0.179409,0.295539 -0.268614,0.436957 -0.0951614,0.150862 -0.187713,0.293839 -0.278787,0.43224 0.0101732,0.0153228 0.0203425,0.0306181 0.0305079,0.0458858l0.0874016 0.130807c0.0110669,0.0165079 0.0221339,0.0329961 0.0331969,0.0494685 0.0764606,-0.146528 0.155866,-0.296311 0.240728,-0.45226z"/>
 </g>
 <rect class="fil3" width="6.82666" height="6.82666"/>
</svg>
