<?xml version="1.0" encoding="UTF-8"?>
<!DOCTYPE svg PUBLIC "-//W3C//DTD SVG 1.1//EN" "http://www.w3.org/Graphics/SVG/1.1/DTD/svg11.dtd">
<!-- Creator: CorelDRAW -->
<svg xmlns="http://www.w3.org/2000/svg" xml:space="preserve" width="6.82666in" height="6.82666in" style="shape-rendering:geometricPrecision; text-rendering:geometricPrecision; image-rendering:optimizeQuality; fill-rule:evenodd; clip-rule:evenodd"
viewBox="0 0 6.82666 6.82666"
 xmlns:xlink="http://www.w3.org/1999/xlink">
 <defs>
  <style type="text/css">
   <![CDATA[
    .fil5 {fill:none}
    .fil2 {fill:#63CBE5}
    .fil1 {fill:#EBE5DF}
    .fil4 {fill:#F45A52}
    .fil3 {fill:#FECA5F}
    .fil0 {fill:#212121;fill-rule:nonzero}
   ]]>
  </style>
 </defs>
 <g id="Layer_x0020_1">
  <metadata id="CorelCorpID_0Corel-Layer"/>
  <path class="fil0" d="M1.28999 0.853327l4.24667 0c0.120189,0 0.229386,0.0490984 0.308476,0.128189 0.0790906,0.0790906 0.128189,0.188287 0.128189,0.308476l0 4.24667c0,0.120189 -0.0490984,0.229386 -0.128189,0.308476 -0.0790906,0.0790906 -0.188287,0.128189 -0.308476,0.128189l-4.24667 0c-0.120189,0 -0.229386,-0.0490984 -0.308476,-0.128189 -0.0790906,-0.0790906 -0.128189,-0.188287 -0.128189,-0.308476l0 -4.24667c0,-0.120197 0.0490945,-0.22939 0.128189,-0.308476 0.0790866,-0.0790945 0.18828,-0.128189 0.308476,-0.128189zm4.24667 0.213339l-4.24667 0c-0.0613071,0 -0.117118,0.0251575 -0.157642,0.065685 -0.0405276,0.0405236 -0.065685,0.0963346 -0.065685,0.157642l0 4.24667c0,0.0613031 0.0251575,0.117114 0.065685,0.157642 0.0405276,0.0405276 0.0963386,0.065685 0.157642,0.065685l4.24667 0c0.0613031,0 0.117114,-0.0251575 0.157642,-0.065685 0.0405276,-0.0405276 0.065685,-0.0963386 0.065685,-0.157642l0 -4.24667c0,-0.0613031 -0.0251575,-0.117114 -0.065685,-0.157642 -0.0405276,-0.0405276 -0.0963386,-0.065685 -0.157642,-0.065685z"/>
  <path class="fil0" d="M2.25813 1.62811l0.266677 0c0.0891378,0 0.197311,0.00629921 0.281906,0.0357402 0.127047,0.0442205 0.204213,0.127295 0.152882,0.278654l-0.230543 0.679776c-0.00879134,0.0259528 -0.0266142,0.0462913 -0.0487795,0.0587008l2.75591e-005 5.11811e-005c-0.0831339,0.0468661 -0.150213,0.0823976 -0.205657,0.11176 -0.0483268,0.0255945 -0.0871969,0.046185 -0.122925,0.067248 -0.0318701,0.196122 -0.0460079,0.385657 -0.0450197,0.569543 0.000984252,0.182098 0.0168386,0.360854 0.0450315,0.536823 0.0263858,0.0160433 0.0594882,0.0357283 0.0999173,0.0588701 0.0636024,0.0364055 0.144303,0.080622 0.242898,0.13078 0.0252756,0.0128622 0.0432205,0.0344213 0.0520512,0.059185 0.0324528,0.0759016 0.0670906,0.183591 0.103512,0.296846 0.0371457,0.115516 0.0762756,0.237181 0.116366,0.33272 0.0125197,0.0298346 0.018315,0.0587953 0.018315,0.0867874 0,0.056185 -0.0221024,0.103193 -0.0596378,0.142051 -0.0297283,0.0307677 -0.0681339,0.0547008 -0.111106,0.0727283 -0.0865827,0.0363307 -0.199705,0.052185 -0.289236,0.052185l-0.266677 0c-0.11528,0 -0.20265,-0.0491378 -0.26939,-0.125508 -0.0584528,-0.0668858 -0.0980472,-0.153559 -0.125606,-0.24324 -0.139949,-0.455291 -0.209567,-0.919299 -0.209386,-1.39192 0.000181102,-0.472449 0.069878,-0.95213 0.208551,-1.43895 0.0285787,-0.100323 0.074,-0.196138 0.143079,-0.265217 0.0650118,-0.0650118 0.147886,-0.105618 0.252752,-0.105618zm0.266677 0.213339l-0.266677 0c-0.0419094,0 -0.0753819,0.0165787 -0.101917,0.0431142 -0.040622,0.040622 -0.0693071,0.103882 -0.0889134,0.172713 -0.133685,0.469307 -0.200878,0.929551 -0.201047,1.38062 -0.000169291,0.450898 0.0663937,0.894071 0.200213,1.32941 0.0198268,0.0645236 0.046252,0.124524 0.0822756,0.165744 0.0277402,0.0317402 0.0633425,0.0521693 0.10939,0.0521693l0.266677 0c0.0662992,0 0.147811,-0.0107913 0.206732,-0.0355157 0.0170709,-0.00716142 0.0305748,-0.0145394 0.0385,-0.0218307l-0.00023622 -0.000562992c-0.0409724,-0.0976378 -0.0826417,-0.227205 -0.122201,-0.350224 -0.0300709,-0.0935157 -0.0588701,-0.183043 -0.0846496,-0.248929 -0.0860197,-0.0444134 -0.158354,-0.0842323 -0.217142,-0.117882 -0.0640118,-0.0366417 -0.113091,-0.0667717 -0.145744,-0.0871732 -0.0258228,-0.0154134 -0.0450039,-0.0415984 -0.0504567,-0.0735669 -0.0346535,-0.20011 -0.0542638,-0.406047 -0.0554173,-0.619118 -0.00114961,-0.213071 0.016185,-0.430693 0.0554173,-0.653701l0.000267717 4.72441e-005c0.00490945,-0.0280827 0.0210236,-0.054126 0.046815,-0.070878 0.0570157,-0.0369291 0.108441,-0.0641693 0.178783,-0.101425 0.0439409,-0.0232717 0.095811,-0.050748 0.165067,-0.0893189l0.217382 -0.640969c0.000476378,-0.00140945 -0.00866929,-0.00512205 -0.0212126,-0.00948819 -0.0549961,-0.0191378 -0.139717,-0.0232362 -0.211906,-0.0232362z"/>
  <path class="fil0" d="M4.92056 3.98998c0.0610079,-0.270795 0.0506969,-0.561102 -0.0239252,-0.822606 -0.0424173,-0.148646 -0.105543,-0.287366 -0.18802,-0.406972 -0.000968504,0.0143228 -0.00224409,0.0281654 -0.00381102,0.0414724 -0.0158583,0.134768 -0.0676496,0.231087 -0.142169,0.260516 -0.175689,0.0693858 -0.28289,-0.0184488 -0.346744,-0.180142 -0.0532362,-0.134803 -0.0691142,-0.332898 -0.0719961,-0.505543 -0.0256772,0.0522677 -0.0470079,0.107087 -0.0639921,0.163122 -0.0390433,0.128787 -0.0434291,0.237579 -0.0480276,0.351732 -0.00283858,0.070378 -0.00575197,0.142594 -0.0150709,0.218654 -0.00604724,0.0493701 -0.0227402,0.138661 -0.0558543,0.216252 -0.0195394,0.0457756 -0.0453346,0.0886063 -0.079122,0.120886 -0.0445669,0.0425827 -0.0992165,0.0660945 -0.165961,0.0579094 -0.0195,-0.00238189 -0.0397717,-0.00787795 -0.0608189,-0.0168583 -0.0579252,-0.0247362 -0.0970827,-0.0701181 -0.123264,-0.124362 -0.0281575,0.0597362 -0.0528268,0.124232 -0.0733937,0.190677 -0.051937,0.167803 -0.076874,0.345406 -0.065374,0.488843 0.0345276,0.239087 0.169146,0.416496 0.345575,0.520673 0.111394,0.0657756 0.239201,0.102764 0.369083,0.10811 0.129965,0.00535039 0.261941,-0.0208543 0.381579,-0.081437 0.197547,-0.100039 0.362567,-0.295823 0.431307,-0.600925zm0.181075 -0.880937c0.0839488,0.294197 0.0953858,0.621535 0.0264291,0.927606 -0.0843346,0.374323 -0.292437,0.617382 -0.542976,0.744256 -0.152634,0.0772913 -0.320618,0.110736 -0.485744,0.103941 -0.165209,-0.00679921 -0.327646,-0.0537677 -0.469083,-0.137283 -0.228575,-0.134972 -0.402965,-0.364465 -0.44776,-0.673469 -0.000944882,-0.00448425 -0.00161417,-0.00907874 -0.00198031,-0.0137717 -0.0135748,-0.169039 0.014878,-0.375358 0.0745394,-0.56811 0.057622,-0.186154 0.145106,-0.362071 0.253031,-0.483193l0.000220472 0.00019685c0.0195551,-0.0219488 0.0480709,-0.0357362 0.0797795,-0.0356142 0.0586811,0.000228346 0.106063,0.0479882 0.105835,0.106669 -0.000200787,0.0385748 0.00187008,0.0964213 0.0142874,0.147358 0.00751181,0.0308031 0.0170276,0.0571339 0.0284528,0.0640512 0.0100039,-0.0103346 0.0196457,-0.0279252 0.0284488,-0.0485472 0.0231969,-0.0543583 0.0354173,-0.121181 0.0400197,-0.158756 0.00912598,-0.0744961 0.0117165,-0.138634 0.0142362,-0.20115 0.00514567,-0.127783 0.0100591,-0.249563 0.0572008,-0.405071 0.0301181,-0.0993504 0.0715433,-0.195472 0.124315,-0.283169 0.0508622,-0.0845236 0.112028,-0.161476 0.18352,-0.226449l0.000141732 0.000153543c0.0193937,-0.0176535 0.045315,-0.0282087 0.0736063,-0.0276535 0.0586811,0.00114961 0.105319,0.0496535 0.104169,0.108335 -0.000346457,0.0162283 -0.000929134,0.0322362 -0.00164173,0.0516024 -0.00560236,0.153028 -0.0190197,0.519217 0.0535394,0.702941 0.017685,0.0447835 0.0405472,0.0718031 0.0700827,0.0601417 0.000889764,-0.000350394 0.00240157,-0.0317087 0.00883071,-0.0863504 0.00906693,-0.0770906 0.00583071,-0.177646 -0.0145512,-0.288925 -0.00749213,-0.0314331 -0.000649606,-0.0658858 0.0215354,-0.0927008 0.0375079,-0.0453307 0.104669,-0.0516732 0.15,-0.0141654 0.216043,0.178654 0.368949,0.437768 0.451516,0.727126z"/>
  <path class="fil0" d="M4.53987 4.73749c-0.0317559,0.0494724 -0.0976102,0.0638386 -0.147083,0.0320827 -0.0494724,-0.0317559 -0.0638386,-0.0976102 -0.0320827,-0.147083 0.0295591,-0.0460118 0.0596969,-0.113835 0.0652362,-0.195913 0.00412205,-0.0610827 -0.00538583,-0.130429 -0.0388465,-0.205228 -0.0595669,-0.133157 -0.110264,-0.24213 -0.150575,-0.326732 -0.0313346,0.0663189 -0.0718425,0.139236 -0.122992,0.209283 -0.0563504,0.0771575 -0.100539,0.162799 -0.120354,0.248642 -0.0158346,0.0686024 -0.0155709,0.137197 0.00790551,0.200665 0.00521654,0.0141063 0.0200472,0.0406693 0.0370394,0.0645827 0.00840157,0.0118189 0.00849606,0.0175748 0.0110827,0.0188543 0.0526969,0.026 0.0743346,0.0898031 0.0483346,0.1425 -0.026,0.0526969 -0.0898031,0.0743346 -0.1425,0.0483346 -0.0322677,-0.0159567 -0.0640315,-0.0494764 -0.090248,-0.0863583 -0.0275551,-0.0387795 -0.0532677,-0.0863425 -0.0637087,-0.114583 -0.0388031,-0.104898 -0.040126,-0.214421 -0.0154094,-0.3215 0.0265354,-0.114953 0.0837756,-0.226984 0.156189,-0.326138 0.129862,-0.177843 0.177488,-0.376669 0.177626,-0.37724l9.05512e-005 2.3622e-005c0.00696457,-0.0287323 0.025811,-0.0544331 0.0540787,-0.069189 0.0520039,-0.0271496 0.116181,-0.00700394 0.143331,0.045 0.000291339,0.000559055 0.101028,0.192256 0.264276,0.557185 0.0494252,0.110492 0.0633898,0.214106 0.057185,0.306063 -0.00841732,0.124646 -0.053937,0.227264 -0.0985748,0.296748z"/>
  <path class="fil1" d="M4.58508 4.78091c-0.152634,0.0772913 -0.320618,0.110736 -0.485744,0.103941 -0.165209,-0.00679921 -0.327646,-0.0537677 -0.469083,-0.137283 -0.228575,-0.134972 -0.402965,-0.364465 -0.44776,-0.673469 -0.000944882,-0.00448425 -0.00161417,-0.00907874 -0.00198031,-0.0137717 -0.0135748,-0.169039 0.014878,-0.375358 0.0745394,-0.56811 0.057622,-0.186154 0.145106,-0.362071 0.253031,-0.483193l0.000220472 0.00019685c0.0195551,-0.0219488 0.0480709,-0.0357362 0.0797795,-0.0356142 0.0586811,0.000228346 0.106063,0.0479882 0.105835,0.106669 -0.000200787,0.0385748 0.00187008,0.0964213 0.0142874,0.147358 0.00751181,0.0308031 0.0170276,0.0571339 0.0284528,0.0640512 0.0100039,-0.0103346 0.0196457,-0.0279252 0.0284488,-0.0485472 0.0231969,-0.0543583 0.0354173,-0.121181 0.0400197,-0.158756 0.00912598,-0.0744961 0.0117165,-0.138634 0.0142362,-0.20115 0.00514567,-0.127783 0.0100591,-0.249563 0.0572008,-0.405071 0.0301181,-0.0993504 0.0715433,-0.195472 0.124315,-0.283169 0.0508622,-0.0845236 0.112028,-0.161476 0.18352,-0.226449l0.000141732 0.000153543c0.0193937,-0.0176535 0.045315,-0.0282087 0.0736063,-0.0276535 0.0586811,0.00114961 0.105319,0.0496535 0.104169,0.108335 -0.000346457,0.0162283 -0.000929134,0.0322362 -0.00164173,0.0516024 -0.00560236,0.153028 -0.0190197,0.519217 0.0535394,0.702941 0.017685,0.0447835 0.0405472,0.0718031 0.0700827,0.0601417 0.000889764,-0.000350394 0.00240157,-0.0317087 0.00883071,-0.0863504 0.00906693,-0.0770906 0.00583071,-0.177646 -0.0145512,-0.288925 -0.00749213,-0.0314331 -0.000649606,-0.0658858 0.0215354,-0.0927008 0.0375079,-0.0453307 0.104669,-0.0516732 0.15,-0.0141654 0.216043,0.178654 0.368949,0.437768 0.451516,0.727126 0.0839488,0.294197 0.0953858,0.621535 0.0264291,0.927606 -0.0843346,0.374323 -0.292437,0.617382 -0.542976,0.744256zm0.951583 -3.71424l-4.24667 0c-0.0613071,0 -0.117118,0.0251575 -0.157642,0.065685 -0.0405276,0.0405236 -0.065685,0.0963346 -0.065685,0.157642l0 4.24667c0,0.0613031 0.0251575,0.117114 0.065685,0.157642 0.0405276,0.0405276 0.0963386,0.065685 0.157642,0.065685l4.24667 0c0.0613031,0 0.117114,-0.0251575 0.157642,-0.065685 0.0405276,-0.0405276 0.065685,-0.0963386 0.065685,-0.157642l0 -4.24667c0,-0.0613031 -0.0251575,-0.117114 -0.065685,-0.157642 -0.0405276,-0.0405276 -0.0963386,-0.065685 -0.157642,-0.065685zm-2.80761 1.55561c-0.00879134,0.0259528 -0.0266142,0.0462913 -0.0487795,0.0587008l2.75591e-005 5.11811e-005c-0.0831339,0.0468661 -0.150213,0.0823976 -0.205657,0.11176 -0.0483268,0.0255945 -0.0871969,0.046185 -0.122925,0.067248 -0.0318701,0.196122 -0.0460079,0.385657 -0.0450197,0.569543 0.000984252,0.182098 0.0168386,0.360854 0.0450315,0.536823 0.0263858,0.0160433 0.0594882,0.0357283 0.0999173,0.0588701 0.0636024,0.0364055 0.144303,0.080622 0.242898,0.13078 0.0252756,0.0128622 0.0432205,0.0344213 0.0520512,0.059185 0.0324528,0.0759016 0.0670906,0.183591 0.103512,0.296846 0.0371457,0.115516 0.0762756,0.237181 0.116366,0.33272 0.0125197,0.0298346 0.018315,0.0587953 0.018315,0.0867874 0,0.056185 -0.0221024,0.103193 -0.0596378,0.142051 -0.0297283,0.0307677 -0.0681339,0.0547008 -0.111106,0.0727283 -0.0865827,0.0363307 -0.199705,0.052185 -0.289236,0.052185l-0.266677 0c-0.11528,0 -0.20265,-0.0491378 -0.26939,-0.125508 -0.0584528,-0.0668858 -0.0980472,-0.153559 -0.125606,-0.24324 -0.139949,-0.455291 -0.209567,-0.919299 -0.209386,-1.39192 0.000181102,-0.472449 0.069878,-0.95213 0.208551,-1.43895 0.0285787,-0.100323 0.074,-0.196138 0.143079,-0.265217 0.0650118,-0.0650118 0.147886,-0.105618 0.252752,-0.105618l0.266677 0c0.0891378,0 0.197311,0.00629921 0.281906,0.0357402 0.127047,0.0442205 0.204213,0.127295 0.152882,0.278654l-0.230543 0.679776z"/>
  <path class="fil2" d="M2.7698 4.92731c-0.0409724,-0.0976378 -0.0826417,-0.227205 -0.122201,-0.350224 -0.0300709,-0.0935157 -0.0588701,-0.183043 -0.0846496,-0.248929 -0.0860197,-0.0444134 -0.158354,-0.0842323 -0.217142,-0.117882 -0.0640118,-0.0366417 -0.113091,-0.0667717 -0.145744,-0.0871732 -0.0258228,-0.0154134 -0.0450039,-0.0415984 -0.0504567,-0.0735669 -0.0346535,-0.20011 -0.0542638,-0.406047 -0.0554173,-0.619118 -0.00114961,-0.213071 0.016185,-0.430693 0.0554173,-0.653701l0.000267717 4.72441e-005c0.00490945,-0.0280827 0.0210236,-0.054126 0.046815,-0.070878 0.0570157,-0.0369291 0.108441,-0.0641693 0.178783,-0.101425 0.0439409,-0.0232717 0.095811,-0.050748 0.165067,-0.0893189l0.217382 -0.640969c0.000476378,-0.00140945 -0.00866929,-0.00512205 -0.0212126,-0.00948819 -0.0549961,-0.0191378 -0.139717,-0.0232362 -0.211906,-0.0232362l-0.266677 0c-0.0419094,0 -0.0753819,0.0165787 -0.101917,0.0431142 -0.040622,0.040622 -0.0693071,0.103882 -0.0889134,0.172713 -0.133685,0.469307 -0.200878,0.929551 -0.201047,1.38062 -0.000169291,0.450898 0.0663937,0.894071 0.200213,1.32941 0.0198268,0.0645236 0.046252,0.124524 0.0822756,0.165744 0.0277402,0.0317402 0.0633425,0.0521693 0.10939,0.0521693l0.266677 0c0.0662992,0 0.147811,-0.0107913 0.206732,-0.0355157 0.0170709,-0.00716142 0.0305748,-0.0145394 0.0385,-0.0218307l-0.00023622 -0.000562992z"/>
  <path class="fil3" d="M4.11352 4.1039c-0.0563504,0.0771575 -0.100539,0.162799 -0.120354,0.248642 -0.0158346,0.0686024 -0.0155709,0.137197 0.00790551,0.200665 0.00521654,0.0141063 0.0200472,0.0406693 0.0370394,0.0645827 0.00840157,0.0118189 0.00849606,0.0175748 0.0110827,0.0188543 0.0167756,0.00827559 0.0304055,0.0203858 0.0403504,0.034748 0.00603543,0.000385827 0.0120748,0.000704724 0.018122,0.000952756 0.0810827,0.00333858 0.162949,-0.0056063 0.242114,-0.0275197 0.00269685,-0.00768504 0.00632677,-0.0151811 0.0109173,-0.0223346 0.0295591,-0.0460118 0.0596969,-0.113835 0.0652362,-0.195913 0.00412205,-0.0610827 -0.00538583,-0.130429 -0.0388465,-0.205228 -0.0595669,-0.133157 -0.110264,-0.24213 -0.150575,-0.326732 -0.0313346,0.0663189 -0.0718425,0.139236 -0.122992,0.209283z"/>
  <path class="fil4" d="M4.31698 3.57749c0.000291339,0.000559055 0.101028,0.192256 0.264276,0.557185 0.0494252,0.110492 0.0633898,0.214106 0.057185,0.306063 -0.00128346,0.0190039 -0.00342913,0.0374961 -0.00630315,0.055437 0.132118,-0.111567 0.237098,-0.278417 0.288417,-0.506197 0.0610079,-0.270795 0.0506969,-0.561102 -0.0239252,-0.822606 -0.0424173,-0.148646 -0.105543,-0.287366 -0.18802,-0.406972 -0.000968504,0.0143228 -0.00224409,0.0281654 -0.00381102,0.0414724 -0.0158583,0.134768 -0.0676496,0.231087 -0.142169,0.260516 -0.175689,0.0693858 -0.28289,-0.0184488 -0.346744,-0.180142 -0.0532362,-0.134803 -0.0691142,-0.332898 -0.0719961,-0.505543 -0.0256772,0.0522677 -0.0470079,0.107087 -0.0639921,0.163122 -0.0390433,0.128787 -0.0434291,0.237579 -0.0480276,0.351732 -0.00283858,0.070378 -0.00575197,0.142594 -0.0150709,0.218654 -0.00604724,0.0493701 -0.0227402,0.138661 -0.0558543,0.216252 -0.0195394,0.0457756 -0.0453346,0.0886063 -0.079122,0.120886 -0.0445669,0.0425827 -0.0992165,0.0660945 -0.165961,0.0579094 -0.0195,-0.00238189 -0.0397717,-0.00787795 -0.0608189,-0.0168583 -0.0579252,-0.0247362 -0.0970827,-0.0701181 -0.123264,-0.124362 -0.0281575,0.0597362 -0.0528268,0.124232 -0.0733937,0.190677 -0.051937,0.167803 -0.076874,0.345406 -0.065374,0.488843 0.0345276,0.239087 0.169146,0.416496 0.345575,0.520673 0.0166614,0.00983858 0.0336929,0.0190354 0.0510433,0.0275748 -0.0273346,-0.0942008 -0.0259646,-0.191457 -0.00396457,-0.286772 0.0265354,-0.114953 0.0837756,-0.226984 0.156189,-0.326138 0.129862,-0.177843 0.177488,-0.376669 0.177626,-0.37724l9.05512e-005 2.3622e-005c0.00696457,-0.0287323 0.025811,-0.0544331 0.0540787,-0.069189 0.0520039,-0.0271496 0.116181,-0.00700394 0.143331,0.045z"/>
 </g>
 <rect class="fil5" width="6.82666" height="6.82666"/>
</svg>
