<?xml version="1.0" encoding="UTF-8"?>
<!DOCTYPE svg PUBLIC "-//W3C//DTD SVG 1.1//EN" "http://www.w3.org/Graphics/SVG/1.1/DTD/svg11.dtd">
<!-- Creator: CorelDRAW -->
<svg xmlns="http://www.w3.org/2000/svg" xml:space="preserve" width="6.82666in" height="6.82666in" style="shape-rendering:geometricPrecision; text-rendering:geometricPrecision; image-rendering:optimizeQuality; fill-rule:evenodd; clip-rule:evenodd"
viewBox="0 0 6.82666 6.82666"
 xmlns:xlink="http://www.w3.org/1999/xlink">
 <defs>
  <style type="text/css">
   <![CDATA[
    .fil5 {fill:none}
    .fil1 {fill:#63CBE5}
    .fil3 {fill:#949494}
    .fil4 {fill:#EBE5DF}
    .fil2 {fill:#F45A52}
    .fil0 {fill:#212121;fill-rule:nonzero}
   ]]>
  </style>
 </defs>
 <g id="Layer_x0020_1">
  <metadata id="CorelCorpID_0Corel-Layer"/>
  <path class="fil0" d="M1.22435 0.853331l4.37794 0c0.102142,0 0.194929,0.0417126 0.262126,0.108909 0.0671969,0.0671969 0.108909,0.159984 0.108909,0.262126l0 4.37793c0,0.102142 -0.0417126,0.194929 -0.108909,0.262126 -0.0671969,0.0671969 -0.159984,0.108909 -0.262126,0.108909l-4.37794 0c-0.102146,0 -0.194933,-0.0417126 -0.262122,-0.108909 -0.0671969,-0.0671969 -0.108909,-0.159984 -0.108909,-0.262126l0 -4.37793c0,-0.102142 0.0417126,-0.194929 0.108909,-0.262126 0.067189,-0.0671969 0.159976,-0.108909 0.262122,-0.108909zm4.37794 0.213339l-4.37794 0c-0.043252,0 -0.0826575,0.0177756 -0.111287,0.0464055 -0.0286299,0.0286299 -0.0464055,0.0680354 -0.0464055,0.111291l0 4.37793c0,0.0432559 0.0177756,0.0826614 0.0464055,0.111291 0.0286299,0.0286299 0.0680354,0.0464055 0.111287,0.0464055l4.37794 0c0.0432559,0 0.0826614,-0.0177756 0.111291,-0.0464055 0.0286299,-0.0286299 0.0464055,-0.0680354 0.0464055,-0.111291l0 -4.37793c0,-0.0432559 -0.0177756,-0.0826614 -0.0464055,-0.111291 -0.0286299,-0.0286299 -0.0680354,-0.0464055 -0.111291,-0.0464055z"/>
  <path class="fil0" d="M2.26239 4.39602c-0.0335512,-0.0985433 -0.0287362,-0.211984 0.000952756,-0.317362 0.0327717,-0.116283 0.0974134,-0.226799 0.174437,-0.297402 0.219862,-0.201535 0.299594,-0.478075 0.370697,-0.724689 0.104591,-0.362764 0.193378,-0.670693 0.61937,-0.706339 0.00716142,-0.000590551 0.0142087,-0.000452756 0.0210827,0.000338583 0.422882,0.0370827 0.5115,0.344268 0.615791,0.706004 0.0711024,0.24661 0.150839,0.52315 0.370697,0.724685 0.0658583,0.0603701 0.113677,0.1325 0.145791,0.20735 0.036126,0.0841969 0.052689,0.173287 0.0528819,0.253398 7.08661e-005,0.0304331 -0.00185827,0.058185 -0.0056378,0.0826969 -0.00406299,0.0263189 -0.0107323,0.0524291 -0.0198386,0.0776339 -0.0170512,0.0473976 -0.0613465,0.0705079 -0.128862,0.0723819 -0.0206299,0.000566929 -0.0532441,0.00107874 -0.0957598,0.00151969 -0.0925157,0.000964567 -0.230398,0.0015 -0.391626,0.00174409 -0.16063,0.00023622 -0.344366,0.000188976 -0.529378,-7.87402e-006 -0.319016,-0.00034252 -0.641866,-0.00115354 -0.856705,-0.0016811 -0.0231535,-5.51181e-005 -0.0339764,-9.84252e-005 -0.240543,-9.84252e-005 -0.0497638,0 -0.0915669,-0.0340787 -0.10335,-0.0801732zm0.205953 -0.259858c-0.0121339,0.0430669 -0.0183189,0.0867323 -0.0163819,0.126902 0.0153031,0.000165354 0.0316732,0.00042126 0.154323,0.000724409 0.214839,0.000527559 0.537689,0.00133858 0.856705,0.0016811 0.185012,0.00019685 0.368748,0.000244094 0.529378,7.87402e-006 0.160031,-0.000240157 0.297236,-0.000775591 0.389957,-0.00174409 0.0138031,-0.000145669 0.0266772,-0.00030315 0.0385433,-0.000472441 0.000492126,-0.00720079 0.00073622,-0.0142992 0.000720472,-0.0212559 -0.000125984,-0.0527283 -0.0114685,-0.112398 -0.0362126,-0.170067 -0.0211299,-0.049252 -0.051811,-0.0959921 -0.0932874,-0.134012 -0.264008,-0.242008 -0.352563,-0.549134 -0.431531,-0.823024 -0.0815748,-0.282957 -0.151,-0.523563 -0.423957,-0.551319 -0.272957,0.0277559 -0.342378,0.268358 -0.423957,0.551315 -0.0789646,0.273894 -0.16752,0.58102 -0.431531,0.823028 -0.0483583,0.0443307 -0.0901575,0.118008 -0.112768,0.198236z"/>
  <path class="fil0" d="M3.55065 4.42923c0,-0.0589094 0.0477598,-0.106669 0.106669,-0.106669 0.0589094,0 0.106669,0.0477598 0.106669,0.106669l0 0.153524c0,0.16324 -0.0852165,0.269146 -0.194358,0.316815 -0.0418386,0.0182717 -0.0872874,0.0273937 -0.13276,0.027378 -0.0455039,-1.9685e-005 -0.0909685,-0.00917717 -0.132799,-0.027437 -0.109362,-0.0477441 -0.194862,-0.153807 -0.194862,-0.316756l0 -0.153862c0,-0.0589094 0.0477598,-0.106669 0.106669,-0.106669 0.0589094,0 0.106669,0.0477598 0.106669,0.106669l0 0.153862c0,0.0652047 0.0291929,0.105461 0.0665236,0.121756 0.0151417,0.00661024 0.0315118,0.0099252 0.0477992,0.00993307 0.016315,3.93701e-006 0.0326732,-0.0032874 0.0477598,-0.00987402 0.0370709,-0.0161929 0.0660197,-0.056374 0.0660197,-0.121815l0 -0.153524z"/>
  <path class="fil0" d="M3.43661 2.29239c0.0248268,0 0.0473031,-0.0100591 0.0635591,-0.026315 0.0162559,-0.0162559 0.026315,-0.0387323 0.026315,-0.063563 0,-0.0248268 -0.0100591,-0.0473031 -0.026315,-0.0635591 -0.0162559,-0.0162559 -0.0387323,-0.026315 -0.0635591,-0.026315 -0.0248307,0 -0.0473071,0.0100591 -0.063563,0.026315 -0.0162559,0.0162559 -0.026315,0.0387323 -0.026315,0.0635591 0,0.0248307 0.0100591,0.0473071 0.026315,0.063563 0.0162559,0.0162559 0.0387323,0.026315 0.063563,0.026315zm0.214394 0.12452c-0.0548701,0.0548701 -0.130673,0.0888189 -0.214394,0.0888189 -0.0837165,0 -0.159528,-0.0339488 -0.214398,-0.0888189 -0.0548701,-0.0548701 -0.0888189,-0.130681 -0.0888189,-0.214398 0,-0.0837205 0.0339488,-0.159524 0.0888189,-0.214394 0.0548701,-0.0548701 0.130681,-0.0888189 0.214398,-0.0888189 0.0837205,0 0.159524,0.0339488 0.214394,0.0888189 0.0548701,0.0548701 0.0888189,0.130673 0.0888189,0.214394 0,0.0837165 -0.0339488,0.159528 -0.0888189,0.214398z"/>
  <path class="fil0" d="M2.00007 4.57297c0.0167953,0.0241575 0.0108268,0.0573701 -0.0133307,0.0741654 -0.0241575,0.0167953 -0.0573701,0.0108268 -0.0741654,-0.0133307 -0.0374882,-0.053815 -0.0663346,-0.112878 -0.0858386,-0.175004 -0.0194921,-0.0620866 -0.0295787,-0.126972 -0.0295787,-0.192488 0,-0.0668583 0.0105866,-0.133217 0.0310118,-0.196744 0.0204134,-0.0635 0.0504921,-0.123598 0.0894803,-0.177965 0.0171417,-0.0239291 0.0504449,-0.029437 0.074374,-0.0122953 0.0239291,0.0171417 0.029437,0.0504449 0.0122953,0.074374 -0.0328543,0.045815 -0.0580315,0.0959213 -0.0748976,0.148382 -0.0168543,0.0524252 -0.0255945,0.107819 -0.0255945,0.164248 0,0.0550197 0.00838189,0.109228 0.0245787,0.160819 0.0161811,0.0515394 0.0402638,0.10076 0.0716654,0.145839z"/>
  <path class="fil0" d="M4.91407 4.6338c-0.0167953,0.0241575 -0.0500079,0.030126 -0.0741654,0.0133307 -0.0241575,-0.0167953 -0.030126,-0.0500079 -0.0133307,-0.0741654 0.0314016,-0.0450787 0.0554843,-0.0942992 0.0716654,-0.145839 0.0161969,-0.0515906 0.0245787,-0.105799 0.0245787,-0.160819 0,-0.0564291 -0.00874016,-0.111823 -0.0255945,-0.164248 -0.0168661,-0.0524606 -0.0420433,-0.102567 -0.0748976,-0.148382 -0.0171417,-0.0239291 -0.0116339,-0.0572323 0.0122953,-0.074374 0.0239291,-0.0171417 0.0572323,-0.0116339 0.074374,0.0122953 0.0389882,0.0543661 0.0690669,0.114465 0.0894803,0.177965 0.0204252,0.0635276 0.0310118,0.129886 0.0310118,0.196744 0,0.0655157 -0.0100866,0.130402 -0.0295787,0.192488 -0.0195039,0.062126 -0.0483504,0.121189 -0.0858386,0.175004z"/>
  <path class="fil0" d="M1.76921 4.63617c0.0167953,0.0241575 0.0108268,0.0573701 -0.0133307,0.0741654 -0.0241575,0.0167953 -0.0573701,0.0108268 -0.0741654,-0.0133307 -0.0438898,-0.063 -0.0776496,-0.132114 -0.100465,-0.204795 -0.0228071,-0.0726378 -0.0346102,-0.148587 -0.0346102,-0.225291 0,-0.0783071 0.0123819,-0.155969 0.0362677,-0.230264 0.023874,-0.0742677 0.0590827,-0.144598 0.104744,-0.208264 0.0171417,-0.0239291 0.0504449,-0.029437 0.074374,-0.0122953 0.0239291,0.0171417 0.029437,0.0504449 0.0122953,0.074374 -0.0395276,0.0551181 -0.0698346,0.115457 -0.0901614,0.178681 -0.0203189,0.0631969 -0.0308504,0.129894 -0.0308504,0.197768 0,0.0662087 0.0100984,0.131476 0.0296102,0.193622 0.0194961,0.0620984 0.0484921,0.12137 0.0862913,0.17563z"/>
  <path class="fil0" d="M5.14493 4.69701c-0.0167953,0.0241575 -0.0500079,0.030126 -0.0741654,0.0133307 -0.0241575,-0.0167953 -0.030126,-0.0500079 -0.0133307,-0.0741654 0.0377992,-0.0542638 0.0667953,-0.113531 0.0862874,-0.175634 0.0195118,-0.0621457 0.0296102,-0.127409 0.0296102,-0.193618 0,-0.067874 -0.0105315,-0.134571 -0.0308504,-0.197768 -0.0203268,-0.0632244 -0.0506339,-0.123563 -0.0901614,-0.178681 -0.0171417,-0.0239291 -0.0116339,-0.0572323 0.0122953,-0.074374 0.0239291,-0.0171417 0.0572323,-0.0116339 0.074374,0.0122953 0.0456614,0.0636654 0.0808701,0.133996 0.104744,0.208264 0.0238858,0.0742953 0.0362677,0.151957 0.0362677,0.230264 0,0.0767047 -0.0118031,0.15265 -0.0346102,0.225287 -0.022815,0.072685 -0.0565709,0.141799 -0.100461,0.204799z"/>
  <path class="fil1" d="M4.83462 3.87931c0.0239291,-0.0171417 0.0572323,-0.0116339 0.074374,0.0122953 0.0389882,0.0543661 0.0690669,0.114465 0.0894803,0.177965 0.0204252,0.0635276 0.0310118,0.129886 0.0310118,0.196744 0,0.0655157 -0.0100866,0.130402 -0.0295787,0.192488 -0.0195039,0.062126 -0.0483504,0.121189 -0.0858386,0.175004 -0.0167953,0.0241575 -0.0500079,0.030126 -0.0741654,0.0133307 -0.0241575,-0.0167953 -0.030126,-0.0500079 -0.0133307,-0.0741654 0.0314016,-0.0450787 0.0554843,-0.0942992 0.0716654,-0.145839 0.0161969,-0.0515906 0.0245787,-0.105799 0.0245787,-0.160819 0,-0.0564291 -0.00874016,-0.111823 -0.0255945,-0.164248 -0.0168661,-0.0524606 -0.0420433,-0.102567 -0.0748976,-0.148382 -0.0171417,-0.0239291 -0.0116339,-0.0572323 0.0122953,-0.074374zm0.222815 0.756866c0.0377992,-0.0542638 0.0667953,-0.113531 0.0862874,-0.175634 0.0195118,-0.0621457 0.0296102,-0.127409 0.0296102,-0.193618 0,-0.067874 -0.0105315,-0.134571 -0.0308504,-0.197768 -0.0203268,-0.0632244 -0.0506339,-0.123563 -0.0901614,-0.178681 -0.0171417,-0.0239291 -0.0116339,-0.0572323 0.0122953,-0.074374 0.0239291,-0.0171417 0.0572323,-0.0116339 0.074374,0.0122953 0.0456614,0.0636654 0.0808701,0.133996 0.104744,0.208264 0.0238858,0.0742953 0.0362677,0.151957 0.0362677,0.230264 0,0.0767047 -0.0118031,0.15265 -0.0346102,0.225287 -0.022815,0.072685 -0.0565709,0.141799 -0.100461,0.204799 -0.0167953,0.0241575 -0.0500079,0.030126 -0.0741654,0.0133307 -0.0241575,-0.0167953 -0.030126,-0.0500079 -0.0133307,-0.0741654zm-0.992709 -1.57961c0.0711024,0.24661 0.150839,0.52315 0.370697,0.724685 0.0658583,0.0603701 0.113677,0.1325 0.145791,0.20735 0.036126,0.0841969 0.052689,0.173287 0.0528819,0.253398 7.08661e-005,0.0304331 -0.00185827,0.058185 -0.0056378,0.0826969 -0.00406299,0.0263189 -0.0107323,0.0524291 -0.0198386,0.0776339 -0.0170512,0.0473976 -0.0613465,0.0705079 -0.128862,0.0723819 -0.0206299,0.000566929 -0.0532441,0.00107874 -0.0957598,0.00151969 -0.0925157,0.000964567 -0.230398,0.0015 -0.391626,0.00174409 -0.072126,0.000106299 -0.148913,0.000153543 -0.228382,0.00015748l0 0.104622c0,0.16324 -0.0852165,0.269146 -0.194358,0.316815 -0.0418386,0.0182717 -0.0872874,0.0273937 -0.13276,0.027378 -0.0455039,-1.9685e-005 -0.0909685,-0.00917717 -0.132799,-0.027437 -0.109362,-0.0477441 -0.194862,-0.153807 -0.194862,-0.316756l0 -0.105331c-0.191673,-0.000366142 -0.368453,-0.000807087 -0.502921,-0.0011378 -0.0231535,-5.51181e-005 -0.0339764,-9.84252e-005 -0.240543,-9.84252e-005 -0.0497638,0 -0.0915669,-0.0340787 -0.10335,-0.0801732 -0.0335512,-0.0985433 -0.0287362,-0.211984 0.000952756,-0.317362 0.0327717,-0.116283 0.0974134,-0.226799 0.174437,-0.297402 0.219862,-0.201535 0.299594,-0.478075 0.370697,-0.724689 0.0835787,-0.289886 0.157067,-0.544756 0.400594,-0.65365 -0.0470984,-0.0534331 -0.0756772,-0.123591 -0.0756772,-0.200402 0,-0.0837205 0.0339488,-0.159524 0.0888189,-0.214394 0.0548701,-0.0548701 0.130681,-0.0888189 0.214398,-0.0888189 0.0837205,0 0.159524,0.0339488 0.214394,0.0888189 0.0548701,0.0548701 0.0888189,0.130673 0.0888189,0.214394 0,0.0768307 -0.0285906,0.147 -0.0757087,0.200437 0.243524,0.108894 0.317031,0.36374 0.400606,0.653618zm1.53756 -1.9899l-4.37794 0c-0.043252,0 -0.0826575,0.0177756 -0.111287,0.0464055 -0.0286299,0.0286299 -0.0464055,0.0680354 -0.0464055,0.111291l0 4.37793c0,0.0432559 0.0177756,0.0826614 0.0464055,0.111291 0.0286299,0.0286299 0.0680354,0.0464055 0.111287,0.0464055l4.37794 0c0.0432559,0 0.0826614,-0.0177756 0.111291,-0.0464055 0.0286299,-0.0286299 0.0464055,-0.0680354 0.0464055,-0.111291l0 -4.37793c0,-0.0432559 -0.0177756,-0.0826614 -0.0464055,-0.111291 -0.0286299,-0.0286299 -0.0680354,-0.0464055 -0.111291,-0.0464055zm-3.67388 3.36046c0.0161811,0.0515394 0.0402638,0.10076 0.0716654,0.145839 0.0167953,0.0241575 0.0108268,0.0573701 -0.0133307,0.0741654 -0.0241575,0.0167953 -0.0573701,0.0108268 -0.0741654,-0.0133307 -0.0374882,-0.053815 -0.0663346,-0.112878 -0.0858386,-0.175004 -0.0194921,-0.0620866 -0.0295787,-0.126972 -0.0295787,-0.192488 0,-0.0668583 0.0105866,-0.133217 0.0310118,-0.196744 0.0204134,-0.0635 0.0504921,-0.123598 0.0894803,-0.177965 0.0171417,-0.0239291 0.0504449,-0.029437 0.074374,-0.0122953 0.0239291,0.0171417 0.029437,0.0504449 0.0122953,0.074374 -0.0328543,0.045815 -0.0580315,0.0959213 -0.0748976,0.148382 -0.0168543,0.0524252 -0.0255945,0.107819 -0.0255945,0.164248 0,0.0550197 0.00838189,0.109228 0.0245787,0.160819zm-0.159193 0.209043c0.0167953,0.0241575 0.0108268,0.0573701 -0.0133307,0.0741654 -0.0241575,0.0167953 -0.0573701,0.0108268 -0.0741654,-0.0133307 -0.0438898,-0.063 -0.0776496,-0.132114 -0.100465,-0.204795 -0.0228071,-0.0726378 -0.0346102,-0.148587 -0.0346102,-0.225291 0,-0.0783071 0.0123819,-0.155969 0.0362677,-0.230264 0.023874,-0.0742677 0.0590827,-0.144598 0.104744,-0.208264 0.0171417,-0.0239291 0.0504449,-0.029437 0.074374,-0.0122953 0.0239291,0.0171417 0.029437,0.0504449 0.0122953,0.074374 -0.0395276,0.0551181 -0.0698346,0.115457 -0.0901614,0.178681 -0.0203189,0.0631969 -0.0308504,0.129894 -0.0308504,0.197768 0,0.0662087 0.0100984,0.131476 0.0296102,0.193622 0.0194961,0.0620984 0.0484921,0.12137 0.0862913,0.17563z"/>
  <path class="fil2" d="M4.29209 3.93792c-0.264008,-0.242008 -0.352563,-0.549134 -0.431531,-0.823024 -0.0815748,-0.282957 -0.151,-0.523563 -0.423957,-0.551319 -0.272957,0.0277559 -0.342378,0.268358 -0.423957,0.551315 -0.0789646,0.273894 -0.16752,0.58102 -0.431531,0.823028 -0.0483583,0.0443307 -0.0901575,0.118008 -0.112768,0.198236 -0.0121339,0.0430669 -0.0183189,0.0867323 -0.0163819,0.126902 0.0153031,0.000165354 0.0316732,0.00042126 0.154323,0.000724409 0.214839,0.000527559 0.537689,0.00133858 0.856705,0.0016811 0.185012,0.00019685 0.368748,0.000244094 0.529378,7.87402e-006 0.160031,-0.000240157 0.297236,-0.000775591 0.389957,-0.00174409l0.0385433 -0.000472441c0.000492126,-0.00720079 0.00073622,-0.0142992 0.000720472,-0.0212559 -0.000125984,-0.0527283 -0.0114685,-0.112398 -0.0362126,-0.170067 -0.0211299,-0.049252 -0.051811,-0.0959921 -0.0932874,-0.134012z"/>
  <path class="fil3" d="M3.55065 4.58276l0 -0.104705c-0.0291299,-2.3622e-005 -0.058378,-5.11811e-005 -0.0876575,-8.26772e-005 -0.0468504,-5.11811e-005 -0.0937835,-0.000110236 -0.140445,-0.000177165l0 0.104965c0,0.0652047 0.0291929,0.105461 0.0665236,0.121756 0.0151417,0.00661024 0.0315118,0.0099252 0.0477992,0.00993307 0.016315,3.93701e-006 0.0326732,-0.0032874 0.0477598,-0.00987402 0.0370709,-0.0161929 0.0660197,-0.056374 0.0660197,-0.121815z"/>
  <path class="fil4" d="M3.37305 2.26607c0.0162559,0.0162559 0.0387323,0.026315 0.063563,0.026315 0.0248268,0 0.0473031,-0.0100591 0.0635591,-0.026315 0.0162559,-0.0162559 0.026315,-0.0387323 0.026315,-0.063563 0,-0.0248268 -0.0100591,-0.0473031 -0.026315,-0.0635591 -0.0162559,-0.0162559 -0.0387323,-0.026315 -0.0635591,-0.026315 -0.0248307,0 -0.0473071,0.0100591 -0.063563,0.026315 -0.0162559,0.0162559 -0.026315,0.0387323 -0.026315,0.0635591 0,0.0248307 0.0100591,0.0473071 0.026315,0.063563z"/>
 </g>
 <rect class="fil5" width="6.82666" height="6.82666"/>
</svg>
