<?xml version="1.0" encoding="UTF-8"?>
<!DOCTYPE svg PUBLIC "-//W3C//DTD SVG 1.1//EN" "http://www.w3.org/Graphics/SVG/1.1/DTD/svg11.dtd">
<!-- Creator: CorelDRAW -->
<svg xmlns="http://www.w3.org/2000/svg" xml:space="preserve" width="6.82666in" height="6.82666in" style="shape-rendering:geometricPrecision; text-rendering:geometricPrecision; image-rendering:optimizeQuality; fill-rule:evenodd; clip-rule:evenodd"
viewBox="0 0 6.82666 6.82666"
 xmlns:xlink="http://www.w3.org/1999/xlink">
 <defs>
  <style type="text/css">
   <![CDATA[
    .fil3 {fill:none}
    .fil1 {fill:#F45A52}
    .fil2 {fill:#FECA5F}
    .fil0 {fill:#212121;fill-rule:nonzero}
   ]]>
  </style>
 </defs>
 <g id="Layer_x0020_1">
  <metadata id="CorelCorpID_0Corel-Layer"/>
  <path class="fil0" d="M0.945551 4.54825l2.09945 -2.92461c0.0372283,-0.0518622 0.0795118,-0.0941654 0.125016,-0.126827 0.0775197,-0.0556496 0.163374,-0.0834764 0.249618,-0.0834764 0.086248,0 0.172102,0.0278268 0.249622,0.0834764 0.0455039,0.0326614 0.0877874,0.0749646 0.125016,0.126827l2.09945 2.92461c0.0543819,0.0757598 0.0796063,0.170315 0.0796063,0.268591 0,0.0933622 -0.0228425,0.192031 -0.0649016,0.281094 -0.0425709,0.0901417 -0.105571,0.171382 -0.185469,0.228736 -0.075122,0.0539291 -0.163843,0.0866654 -0.263343,0.0866654l-4.07682 0c-0.123673,0 -0.226031,-0.0359449 -0.307461,-0.0943976 -0.076122,-0.0546457 -0.132055,-0.128346 -0.168724,-0.210228 -0.0357874,-0.0799094 -0.0532795,-0.167311 -0.0532795,-0.251724 0,-0.113047 0.0313701,-0.223972 0.0922165,-0.308736zm2.27196 -2.80045l-2.09945 2.92461c-0.0339016,0.0472283 -0.0513819,0.113713 -0.0513819,0.184571 0,0.0565276 0.0111969,0.113902 0.0341063,0.165055 0.0220236,0.0491811 0.0548189,0.092874 0.0987244,0.124394 0.0462008,0.0331654 0.106909,0.053563 0.183295,0.053563l4.07682 0c0.0525591,0 0.0994528,-0.017311 0.139177,-0.0458307 0.049185,-0.0353071 0.0890827,-0.0876772 0.11713,-0.147067 0.0285591,-0.0604724 0.0440669,-0.12726 0.0440669,-0.19026 0,-0.0563465 -0.0122874,-0.107531 -0.0387717,-0.144425l-2.09945 -2.92461c-0.0235354,-0.0327874 -0.0494409,-0.058937 -0.0766772,-0.0784882 -0.0395984,-0.0284252 -0.0827323,-0.0426417 -0.125457,-0.0426417 -0.0427205,0 -0.0858543,0.0142165 -0.125453,0.0426417 -0.0272362,0.0195512 -0.0531417,0.0457008 -0.0766772,0.0784882z"/>
  <path class="fil0" d="M4.02306 2.89542l-0.49674 0.605299 0.340614 0.0806614c0.0429724,0.0100079 0.0696929,0.0529646 0.059685,0.095937 -0.00370079,0.0158937 -0.0119134,0.029563 -0.0229606,0.0399724l-0.967925 1.07069c-0.0295118,0.0326181 -0.0798819,0.0351378 -0.1125,0.00562598 -0.0237559,-0.0214921 -0.0315394,-0.0540512 -0.0226181,-0.0827559l-0.00019685 -5.90551e-005 0.240736 -0.769815 -0.355665 -0.0842244c-0.0429724,-0.0100079 -0.0696929,-0.0529646 -0.059685,-0.095937 0.00180709,-0.00775591 0.00468898,-0.0149803 0.00844882,-0.0215551l-1.1811e-005 -7.87402e-006 0.732622 -1.27614c0.0219173,-0.038311 0.070752,-0.0516024 0.109063,-0.029685 0.00224409,0.00128346 0.00439764,0.00266535 0.0064685,0.00412598l0.525264 0.336358c0.0371063,0.023815 0.047878,0.0732087 0.024063,0.110315 -0.00259843,0.00405118 -0.00550394,0.00778346 -0.00866142,0.0111969zm-0.701051 0.602972l0.523933 -0.638429 -0.382114 -0.244693 -0.637591 1.1106 0.334858 0.0792992 -7.87402e-006 2.75591e-005c0.00187795,0.000440945 0.00375984,0.000948819 0.00563386,0.0015315 0.0421102,0.0131142 0.0656142,0.0578937 0.0525,0.100004l-0.157831 0.504705 0.637843 -0.705567 -0.333787 -0.0790433 3.93701e-005 -0.000173228c-0.0115787,-0.00268504 -0.0227362,-0.00801181 -0.0325394,-0.0160748 -0.034,-0.0279567 -0.0388937,-0.078189 -0.010937,-0.112189z"/>
  <path class="fil1" d="M3.16109 3.8052l0 0zm0.160921 -0.306807l0.523933 -0.638429 -0.382114 -0.244693 -0.637591 1.1106 0.33485 0.0793268c0.00187795,0.000440945 0.00375984,0.000948819 0.00563386,0.0015315 0.0421102,0.0131142 0.0656142,0.0578937 0.0525,0.100004l-0.157831 0.504705 0.637843 -0.705567 -0.333787 -0.0790433 3.93701e-005 -0.000173228c-0.0115787,-0.00268504 -0.0227362,-0.00801181 -0.0325394,-0.0160748 -0.034,-0.0279567 -0.0388937,-0.078189 -0.010937,-0.112189z"/>
  <path class="fil2" d="M2.63425 3.73926l0 0zm1.23268 -0.157878c0.0429724,0.0100079 0.0696929,0.0529646 0.059685,0.095937 -0.00370079,0.0158937 -0.0119134,0.029563 -0.0229606,0.0399724l-0.967925 1.07069c-0.0295118,0.0326181 -0.0798819,0.0351378 -0.1125,0.00562598 -0.0237559,-0.0214921 -0.0315394,-0.0540512 -0.0226181,-0.0827559l-0.00019685 -5.90551e-005 0.240736 -0.769815 -0.355665 -0.0842244c-0.0429724,-0.0100079 -0.0696929,-0.0529646 -0.059685,-0.095937 0.00180709,-0.00775591 0.00468898,-0.0149803 0.00843701,-0.021563l0.732622 -1.27614c0.0219173,-0.038311 0.070752,-0.0516024 0.109063,-0.029685 0.00224409,0.00128346 0.00439764,0.00266535 0.0064685,0.00412598l0.525264 0.336358c0.0371063,0.023815 0.047878,0.0732087 0.024063,0.110315 -0.00259843,0.00405118 -0.00550394,0.00778346 -0.00866142,0.0111969l-0.49674 0.605299 0.340614 0.0806614zm-0.649425 -1.83358l-2.09945 2.92461c-0.0339016,0.0472283 -0.0513819,0.113713 -0.0513819,0.184571 0,0.0565276 0.0111969,0.113902 0.0341063,0.165055 0.0220236,0.0491811 0.0548189,0.092874 0.0987244,0.124394 0.0462008,0.0331654 0.106909,0.053563 0.183295,0.053563l4.07682 0c0.0525591,0 0.0994528,-0.017311 0.139177,-0.0458307 0.049185,-0.0353071 0.0890827,-0.0876772 0.11713,-0.147067 0.0285591,-0.0604724 0.0440669,-0.12726 0.0440669,-0.19026 0,-0.0563465 -0.0122874,-0.107531 -0.0387717,-0.144425l-2.09945 -2.92461c-0.0235354,-0.0327874 -0.0494409,-0.058937 -0.0766772,-0.0784882 -0.0395984,-0.0284252 -0.0827323,-0.0426417 -0.125457,-0.0426417 -0.0427205,0 -0.0858543,0.0142165 -0.125453,0.0426417 -0.0272362,0.0195512 -0.0531417,0.0457008 -0.0766772,0.0784882z"/>
 </g>
 <rect class="fil3" width="6.82666" height="6.82666"/>
</svg>
