<?xml version="1.0" encoding="UTF-8"?>
<!DOCTYPE svg PUBLIC "-//W3C//DTD SVG 1.1//EN" "http://www.w3.org/Graphics/SVG/1.1/DTD/svg11.dtd">
<!-- Creator: CorelDRAW -->
<svg xmlns="http://www.w3.org/2000/svg" xml:space="preserve" width="6.82666in" height="6.82666in" style="shape-rendering:geometricPrecision; text-rendering:geometricPrecision; image-rendering:optimizeQuality; fill-rule:evenodd; clip-rule:evenodd"
viewBox="0 0 6.82666 6.82666"
 xmlns:xlink="http://www.w3.org/1999/xlink">
 <defs>
  <style type="text/css">
   <![CDATA[
    .fil5 {fill:none}
    .fil3 {fill:#B38E85}
    .fil4 {fill:#EBE5DF}
    .fil1 {fill:#F45A52}
    .fil2 {fill:#FECA5F}
    .fil0 {fill:#212121;fill-rule:nonzero}
   ]]>
  </style>
 </defs>
 <g id="Layer_x0020_1">
  <metadata id="CorelCorpID_0Corel-Layer"/>
  <path class="fil0" d="M0.96 0.853331l2.36827 0c0.0589094,0 0.106669,0.0477598 0.106669,0.106669l0 4.90666c0,0.0589094 -0.0477598,0.106669 -0.106669,0.106669l-2.36827 0c-0.0589094,0 -0.106669,-0.0477598 -0.106669,-0.106669l0 -4.90666c0,-0.0589094 0.0477598,-0.106669 0.106669,-0.106669zm2.2616 0.213339l-2.15493 0 0 4.69332 2.15493 0 0 -4.69332z"/>
  <path class="fil0" d="M5.76 3.41778l-2.32506 0 0 2.34222 2.32506 0 0 -2.34222zm-2.43172 -0.213339l2.53839 0c0.0589094,0 0.106669,0.0477598 0.106669,0.106669l0 2.55556c0,0.0589094 -0.0477598,0.106669 -0.106669,0.106669l-2.53839 0c-0.0589094,0 -0.106669,-0.0477598 -0.106669,-0.106669l0 -2.55556c0,-0.0589094 0.0477598,-0.106669 0.106669,-0.106669z"/>
  <g id="_517314336">
   <path id="_517314600" class="fil0" d="M1.34122 1.33231l0.32 0c0.0294528,0 0.0533346,0.0238819 0.0533346,0.0533346l0 0.321012c0,0.0294528 -0.0238819,0.0533346 -0.0533346,0.0533346l-0.32 0c-0.0294528,0 -0.0533346,-0.0238819 -0.0533346,-0.0533346l0 -0.321012c0,-0.0294528 0.0238819,-0.0533346 0.0533346,-0.0533346zm0.266665 0.106669l-0.213331 0 0 0.214343 0.213331 0 0 -0.214343z"/>
   <path id="_517314456" class="fil0" d="M1.98413 1.33231l0.32 0c0.0294528,0 0.0533346,0.0238819 0.0533346,0.0533346l0 0.321012c0,0.0294528 -0.0238819,0.0533346 -0.0533346,0.0533346l-0.32 0c-0.0294528,0 -0.0533346,-0.0238819 -0.0533346,-0.0533346l0 -0.321012c0,-0.0294528 0.0238819,-0.0533346 0.0533346,-0.0533346zm0.266665 0.106669l-0.213331 0 0 0.214343 0.213331 0 0 -0.214343z"/>
   <path id="_517314168" class="fil0" d="M2.62705 1.33231l0.32 0c0.0294528,0 0.0533346,0.0238819 0.0533346,0.0533346l0 0.321012c0,0.0294528 -0.0238819,0.0533346 -0.0533346,0.0533346l-0.32 0c-0.0294528,0 -0.0533346,-0.0238819 -0.0533346,-0.0533346l0 -0.321012c0,-0.0294528 0.0238819,-0.0533346 0.0533346,-0.0533346zm0.266665 0.106669l-0.213331 0 0 0.214343 0.213331 0 0 -0.214343z"/>
  </g>
  <g id="_517314024">
   <path id="_517314672" class="fil0" d="M1.34122 1.97231l0.32 0c0.0294528,0 0.0533346,0.0238819 0.0533346,0.0533346l0 0.321012c0,0.0294528 -0.0238819,0.0533346 -0.0533346,0.0533346l-0.32 0c-0.0294528,0 -0.0533346,-0.0238819 -0.0533346,-0.0533346l0 -0.321012c0,-0.0294528 0.0238819,-0.0533346 0.0533346,-0.0533346zm0.266665 0.106669l-0.213331 0 0 0.214343 0.213331 0 0 -0.214343z"/>
   <path id="_517314144" class="fil0" d="M1.98413 1.97231l0.32 0c0.0294528,0 0.0533346,0.0238819 0.0533346,0.0533346l0 0.321012c0,0.0294528 -0.0238819,0.0533346 -0.0533346,0.0533346l-0.32 0c-0.0294528,0 -0.0533346,-0.0238819 -0.0533346,-0.0533346l0 -0.321012c0,-0.0294528 0.0238819,-0.0533346 0.0533346,-0.0533346zm0.266665 0.106669l-0.213331 0 0 0.214343 0.213331 0 0 -0.214343z"/>
   <path id="_517314432" class="fil0" d="M2.62705 1.97231l0.32 0c0.0294528,0 0.0533346,0.0238819 0.0533346,0.0533346l0 0.321012c0,0.0294528 -0.0238819,0.0533346 -0.0533346,0.0533346l-0.32 0c-0.0294528,0 -0.0533346,-0.0238819 -0.0533346,-0.0533346l0 -0.321012c0,-0.0294528 0.0238819,-0.0533346 0.0533346,-0.0533346zm0.266665 0.106669l-0.213331 0 0 0.214343 0.213331 0 0 -0.214343z"/>
  </g>
  <g id="_517313640">
   <path id="_517313808" class="fil0" d="M1.34122 2.61231l0.32 0c0.0294528,0 0.0533346,0.0238819 0.0533346,0.0533346l0 0.321012c0,0.0294528 -0.0238819,0.0533346 -0.0533346,0.0533346l-0.32 0c-0.0294528,0 -0.0533346,-0.0238819 -0.0533346,-0.0533346l0 -0.321012c0,-0.0294528 0.0238819,-0.0533346 0.0533346,-0.0533346zm0.266665 0.106669l-0.213331 0 0 0.214343 0.213331 0 0 -0.214343z"/>
   <path id="_517313976" class="fil0" d="M1.98413 2.61231l0.32 0c0.0294528,0 0.0533346,0.0238819 0.0533346,0.0533346l0 0.321012c0,0.0294528 -0.0238819,0.0533346 -0.0533346,0.0533346l-0.32 0c-0.0294528,0 -0.0533346,-0.0238819 -0.0533346,-0.0533346l0 -0.321012c0,-0.0294528 0.0238819,-0.0533346 0.0533346,-0.0533346zm0.266665 0.106669l-0.213331 0 0 0.214343 0.213331 0 0 -0.214343z"/>
   <path id="_517313664" class="fil0" d="M2.62705 2.61231l0.32 0c0.0294528,0 0.0533346,0.0238819 0.0533346,0.0533346l0 0.321012c0,0.0294528 -0.0238819,0.0533346 -0.0533346,0.0533346l-0.32 0c-0.0294528,0 -0.0533346,-0.0238819 -0.0533346,-0.0533346l0 -0.321012c0,-0.0294528 0.0238819,-0.0533346 0.0533346,-0.0533346zm0.266665 0.106669l-0.213331 0 0 0.214343 0.213331 0 0 -0.214343z"/>
  </g>
  <g id="_517313568">
   <path id="_517313592" class="fil0" d="M1.34122 3.25231l0.32 0c0.0294528,0 0.0533346,0.0238819 0.0533346,0.0533346l0 0.321012c0,0.0294528 -0.0238819,0.0533346 -0.0533346,0.0533346l-0.32 0c-0.0294528,0 -0.0533346,-0.0238819 -0.0533346,-0.0533346l0 -0.321012c0,-0.0294528 0.0238819,-0.0533346 0.0533346,-0.0533346zm0.266665 0.106669l-0.213331 0 0 0.214343 0.213331 0 0 -0.214343z"/>
   <path id="_517313712" class="fil0" d="M1.98413 3.25231l0.32 0c0.0294528,0 0.0533346,0.0238819 0.0533346,0.0533346l0 0.321012c0,0.0294528 -0.0238819,0.0533346 -0.0533346,0.0533346l-0.32 0c-0.0294528,0 -0.0533346,-0.0238819 -0.0533346,-0.0533346l0 -0.321012c0,-0.0294528 0.0238819,-0.0533346 0.0533346,-0.0533346zm0.266665 0.106669l-0.213331 0 0 0.214343 0.213331 0 0 -0.214343z"/>
   <path id="_517313880" class="fil0" d="M2.62705 3.25231l0.32 0c0.0294528,0 0.0533346,0.0238819 0.0533346,0.0533346l0 0.321012c0,0.0294528 -0.0238819,0.0533346 -0.0533346,0.0533346l-0.32 0c-0.0294528,0 -0.0533346,-0.0238819 -0.0533346,-0.0533346l0 -0.321012c0,-0.0294528 0.0238819,-0.0533346 0.0533346,-0.0533346zm0.266665 0.106669l-0.213331 0 0 0.214343 0.213331 0 0 -0.214343z"/>
  </g>
  <g id="_517312560">
   <path id="_517313376" class="fil0" d="M1.34122 3.89231l0.32 0c0.0294528,0 0.0533346,0.0238819 0.0533346,0.0533346l0 0.321012c0,0.0294528 -0.0238819,0.0533346 -0.0533346,0.0533346l-0.32 0c-0.0294528,0 -0.0533346,-0.0238819 -0.0533346,-0.0533346l0 -0.321012c0,-0.0294528 0.0238819,-0.0533346 0.0533346,-0.0533346zm0.266665 0.106669l-0.213331 0 0 0.214343 0.213331 0 0 -0.214343z"/>
   <path id="_517313304" class="fil0" d="M1.98413 3.89231l0.32 0c0.0294528,0 0.0533346,0.0238819 0.0533346,0.0533346l0 0.321012c0,0.0294528 -0.0238819,0.0533346 -0.0533346,0.0533346l-0.32 0c-0.0294528,0 -0.0533346,-0.0238819 -0.0533346,-0.0533346l0 -0.321012c0,-0.0294528 0.0238819,-0.0533346 0.0533346,-0.0533346zm0.266665 0.106669l-0.213331 0 0 0.214343 0.213331 0 0 -0.214343z"/>
   <path id="_517312656" class="fil0" d="M2.62705 3.89231l0.32 0c0.0294528,0 0.0533346,0.0238819 0.0533346,0.0533346l0 0.321012c0,0.0294528 -0.0238819,0.0533346 -0.0533346,0.0533346l-0.32 0c-0.0294528,0 -0.0533346,-0.0238819 -0.0533346,-0.0533346l0 -0.321012c0,-0.0294528 0.0238819,-0.0533346 0.0533346,-0.0533346zm0.266665 0.106669l-0.213331 0 0 0.214343 0.213331 0 0 -0.214343z"/>
  </g>
  <g id="_517312632">
   <path id="_517313256" class="fil0" d="M1.34122 4.53231l0.32 0c0.0294528,0 0.0533346,0.0238819 0.0533346,0.0533346l0 0.961012c0,0.0294528 -0.0238819,0.0533346 -0.0533346,0.0533346l-0.32 0c-0.0294528,0 -0.0533346,-0.0238819 -0.0533346,-0.0533346l0 -0.961012c0,-0.0294528 0.0238819,-0.0533346 0.0533346,-0.0533346zm0.266665 0.106669l-0.213331 0 0 0.854343 0.213331 0 0 -0.854343z"/>
   <path id="_517312968" class="fil0" d="M1.98413 4.53231l0.32 0c0.0294528,0 0.0533346,0.0238819 0.0533346,0.0533346l0 0.961012c0,0.0294528 -0.0238819,0.0533346 -0.0533346,0.0533346l-0.32 0c-0.0294528,0 -0.0533346,-0.0238819 -0.0533346,-0.0533346l0 -0.961012c0,-0.0294528 0.0238819,-0.0533346 0.0533346,-0.0533346zm0.266665 0.106669l-0.213331 0 0 0.854343 0.213331 0 0 -0.854343z"/>
   <path id="_517312896" class="fil0" d="M2.62705 4.53231l0.32 0c0.0294528,0 0.0533346,0.0238819 0.0533346,0.0533346l0 0.961012c0,0.0294528 -0.0238819,0.0533346 -0.0533346,0.0533346l-0.32 0c-0.0294528,0 -0.0533346,-0.0238819 -0.0533346,-0.0533346l0 -0.961012c0,-0.0294528 0.0238819,-0.0533346 0.0533346,-0.0533346zm0.266665 0.106669l-0.213331 0 0 0.854343 0.213331 0 0 -0.854343z"/>
  </g>
  <g id="_517313280">
   <path id="_517312752" class="fil0" d="M3.8132 3.73801l0.32 0c0.0294528,0 0.0533346,0.0238819 0.0533346,0.0533346l0 0.321012c0,0.0294528 -0.0238819,0.0533346 -0.0533346,0.0533346l-0.32 0c-0.0294528,0 -0.0533346,-0.0238819 -0.0533346,-0.0533346l0 -0.321012c0,-0.0294528 0.0238819,-0.0533346 0.0533346,-0.0533346zm0.266665 0.106669l-0.213331 0 0 0.214343 0.213331 0 0 -0.214343z"/>
   <path id="_517313112" class="fil0" d="M4.45612 3.73801l0.32 0c0.0294528,0 0.0533346,0.0238819 0.0533346,0.0533346l0 0.321012c0,0.0294528 -0.0238819,0.0533346 -0.0533346,0.0533346l-0.32 0c-0.0294528,0 -0.0533346,-0.0238819 -0.0533346,-0.0533346l0 -0.321012c0,-0.0294528 0.0238819,-0.0533346 0.0533346,-0.0533346zm0.266665 0.106669l-0.213331 0 0 0.214343 0.213331 0 0 -0.214343z"/>
   <path id="_517312608" class="fil0" d="M5.09904 3.73801l0.32 0c0.0294528,0 0.0533346,0.0238819 0.0533346,0.0533346l0 0.321012c0,0.0294528 -0.0238819,0.0533346 -0.0533346,0.0533346l-0.32 0c-0.0294528,0 -0.0533346,-0.0238819 -0.0533346,-0.0533346l0 -0.321012c0,-0.0294528 0.0238819,-0.0533346 0.0533346,-0.0533346zm0.266665 0.106669l-0.213331 0 0 0.214343 0.213331 0 0 -0.214343z"/>
  </g>
  <path class="fil0" d="M4.1816 4.50565l0.831732 0c0.0441811,0 0.08,0.0358189 0.08,0.08l0 1.28101c0,0.0441811 -0.0358189,0.08 -0.08,0.08l-0.831732 0c-0.0441811,0 -0.08,-0.0358189 -0.08,-0.08l0 -1.28101c0,-0.0441811 0.0358189,-0.08 0.08,-0.08zm0.751732 0.16l-0.671732 0 0 1.12101 0.671732 0 0 -1.12101z"/>
  <path class="fil0" d="M5.25093 2.93164c0.0610079,-0.270795 0.0506969,-0.561102 -0.0239252,-0.822606 -0.0424173,-0.148646 -0.105543,-0.287366 -0.18802,-0.406972 -0.000968504,0.0143228 -0.00224409,0.0281654 -0.00381102,0.0414724 -0.0158583,0.134768 -0.0676496,0.231087 -0.142169,0.260516 -0.175689,0.0693858 -0.28289,-0.0184488 -0.346744,-0.180142 -0.0532362,-0.134803 -0.0691142,-0.332898 -0.0719961,-0.505543 -0.0256772,0.0522677 -0.0470079,0.107087 -0.0639921,0.163122 -0.0390433,0.128787 -0.0434291,0.237579 -0.0480276,0.351732 -0.00283858,0.070378 -0.00575197,0.142594 -0.0150709,0.218654 -0.00604724,0.0493701 -0.0227402,0.138661 -0.0558543,0.216252 -0.0195394,0.0457756 -0.0453346,0.0886063 -0.079122,0.120886 -0.0445669,0.0425827 -0.0992126,0.0660945 -0.165961,0.0579094 -0.0195,-0.00238189 -0.0397677,-0.00787402 -0.0608189,-0.0168583 -0.0579252,-0.0247362 -0.0970827,-0.0701181 -0.123264,-0.124362 -0.0281575,0.0597362 -0.0528268,0.124232 -0.0733937,0.190677 -0.0519488,0.167839 -0.0768858,0.345484 -0.0653661,0.488937l7.87402e-006 0.000137795c0.00702362,0.0484409 0.0184921,0.0950512 0.0338228,0.13963 0.00950394,0.0276378 0.0204213,0.0540945 0.0326142,0.0793583l1.36068 0c0.0170433,-0.0313504 0.0327402,-0.0646181 0.0469331,-0.0998465 0.0215157,-0.0534055 0.0395315,-0.111024 0.0534803,-0.172953zm0.181075 -0.880937c0.0839488,0.294197 0.0953858,0.621535 0.0264291,0.927606 -0.0166142,0.073748 -0.0379921,0.142185 -0.0634803,0.205449 -0.0256969,0.0637835 -0.0556417,0.122626 -0.0891417,0.176638 -0.0178031,0.0340984 -0.0534882,0.0573819 -0.0946142,0.0573819l-1.48487 0 0 -0.000188976c-0.0363819,-3.54331e-005 -0.071815,-0.0187205 -0.0916654,-0.052315 -0.0315394,-0.0532008 -0.0582087,-0.110268 -0.0791063,-0.171028 -0.0190748,-0.0554724 -0.0335591,-0.115094 -0.0427598,-0.178843 -0.000905512,-0.00437402 -0.00154724,-0.00885433 -0.00190551,-0.0134213 -0.0135748,-0.169039 0.014878,-0.375358 0.0745394,-0.56811 0.057622,-0.186154 0.145106,-0.362071 0.253031,-0.483193l0.000220472 0.00019685c0.0195551,-0.0219488 0.0480709,-0.0357362 0.0797795,-0.0356142 0.0586811,0.000228346 0.106063,0.0479882 0.105835,0.106669 -0.000200787,0.0385748 0.00187008,0.0964213 0.0142874,0.147358 0.00751181,0.0308031 0.0170276,0.0571339 0.0284528,0.0640512 0.0100039,-0.0103346 0.0196457,-0.0279252 0.0284488,-0.0485472 0.0231969,-0.0543583 0.0354173,-0.121181 0.0400197,-0.158756 0.00912598,-0.0744961 0.0117165,-0.138634 0.0142362,-0.20115 0.00514567,-0.127783 0.0100591,-0.249563 0.0572008,-0.405071 0.0301181,-0.0993504 0.0715433,-0.195472 0.124315,-0.283169 0.0508622,-0.0845236 0.112028,-0.161476 0.18352,-0.226449l0.000141732 0.000153543c0.0193937,-0.0176535 0.045315,-0.0282087 0.0736063,-0.0276535 0.0586811,0.00114961 0.105319,0.0496535 0.104169,0.108335 -0.000346457,0.0162283 -0.000929134,0.0322362 -0.00164173,0.0516024 -0.00560236,0.153028 -0.0190197,0.519217 0.0535394,0.702941 0.017685,0.0447835 0.0405472,0.0718031 0.0700827,0.0601417 0.000889764,-0.000350394 0.00240157,-0.0317087 0.00883071,-0.0863504 0.00906693,-0.0770906 0.00583071,-0.177646 -0.0145512,-0.288925 -0.00749213,-0.0314331 -0.000649606,-0.0658858 0.0215354,-0.0927008 0.0375079,-0.0453307 0.104669,-0.0516732 0.15,-0.0141654 0.216043,0.178654 0.368949,0.437768 0.451516,0.727126z"/>
  <path class="fil0" d="M4.96903 3.30485c0.00345276,0.0586811 -0.0413189,0.109051 -0.1,0.112504 -0.0586811,0.00345276 -0.109051,-0.0413189 -0.112504,-0.1 -0.00144882,-0.0241142 -0.0052874,-0.0496654 -0.0120709,-0.0765827 -0.0064685,-0.025685 -0.0153307,-0.0516929 -0.0269961,-0.0777717 -0.0595669,-0.133157 -0.110264,-0.24213 -0.150575,-0.326732 -0.0313346,0.0663189 -0.0718425,0.139236 -0.122992,0.209283 -0.0334961,0.0458661 -0.0628268,0.0950591 -0.0854724,0.145913 -0.0197008,0.0442362 -0.0340079,0.0898071 -0.0410394,0.135472 -0.00874409,0.0582165 -0.0630354,0.0983268 -0.121252,0.0895827 -0.0582165,-0.00874409 -0.0983268,-0.0630354 -0.0895827,-0.121252 0.00988583,-0.0641811 0.03,-0.128256 0.0577087,-0.190472 0.0285512,-0.0641142 0.0656024,-0.126232 0.107969,-0.184244 0.129862,-0.177843 0.177488,-0.376669 0.177626,-0.37724l9.05512e-005 2.3622e-005c0.00696457,-0.0287323 0.025811,-0.0544331 0.0540787,-0.069189 0.0520039,-0.0271496 0.116181,-0.00700394 0.143331,0.045 0.000291339,0.000559055 0.101028,0.192256 0.264276,0.557185 0.0174724,0.039063 0.0304134,0.0766969 0.0395,0.112772 0.00994488,0.0394606 0.0156457,0.0781693 0.0179055,0.115748z"/>
  <path class="fil1" d="M4.64735 2.51915c0.000291339,0.000559055 0.101028,0.192256 0.264276,0.557185 0.0174724,0.039063 0.0304134,0.0766969 0.0395,0.112772 0.00129134,0.00512205 0.00251181,0.0102323 0.00366142,0.0153307l0.195724 0c0.0170433,-0.0313504 0.0327402,-0.0646181 0.0469331,-0.0998465 0.0215157,-0.0534055 0.0395315,-0.111024 0.0534803,-0.172953 0.0610079,-0.270795 0.0506969,-0.561102 -0.0239252,-0.822606 -0.0424173,-0.148646 -0.105543,-0.287366 -0.18802,-0.406972 -0.000968504,0.0143228 -0.00224409,0.0281654 -0.00381102,0.0414724 -0.0158583,0.134768 -0.0676496,0.231087 -0.142169,0.260516 -0.175689,0.0693858 -0.28289,-0.0184488 -0.346744,-0.180142 -0.0532362,-0.134803 -0.0691142,-0.332898 -0.0719961,-0.505543 -0.0256772,0.0522677 -0.0470079,0.107087 -0.0639921,0.163122 -0.0390433,0.128787 -0.0434291,0.237579 -0.0480276,0.351732 -0.00283858,0.070378 -0.00575197,0.142594 -0.0150709,0.218654 -0.00604724,0.0493701 -0.0227402,0.138661 -0.0558543,0.216252 -0.0195394,0.0457756 -0.0453346,0.0886063 -0.079122,0.120886 -0.0445669,0.0425827 -0.0992126,0.0660945 -0.165961,0.0579094 -0.0195,-0.00238189 -0.0397677,-0.00787402 -0.0608189,-0.0168583 -0.0579252,-0.0247362 -0.0970827,-0.0701181 -0.123264,-0.124362 -0.0281575,0.0597362 -0.0528268,0.124232 -0.0733937,0.190677 -0.0519488,0.167839 -0.0768858,0.345484 -0.0653661,0.488937l7.87402e-006 0.000137795c0.00702362,0.0484409 0.0184921,0.0950512 0.0338228,0.13963 0.00950394,0.0276378 0.0204213,0.0540945 0.0326142,0.0793583l0.337331 0c0.01,-0.0335591 0.0224921,-0.0668543 0.0370906,-0.0996378 0.0285512,-0.0641142 0.0656024,-0.126232 0.107969,-0.184244 0.129862,-0.177843 0.177488,-0.376669 0.177626,-0.37724l9.05512e-005 2.3622e-005c0.00696457,-0.0287323 0.025811,-0.0544331 0.0540787,-0.069189 0.0520039,-0.0271496 0.116181,-0.00700394 0.143331,0.045z"/>
  <path class="fil2" d="M4.71746 3.163c-0.0595669,-0.133157 -0.110264,-0.24213 -0.150575,-0.326732 -0.0313346,0.0663189 -0.0718425,0.139236 -0.122992,0.209283 -0.0334961,0.0458661 -0.0628268,0.0950591 -0.0854724,0.145913 -0.00192126,0.00431102 -0.0037874,0.00863386 -0.00560236,0.0129685l0.380909 0c-0.00467323,-0.0137677 -0.0100748,-0.0275906 -0.0162677,-0.0414331z"/>
  <path class="fil3" d="M5.41904 4.16569l-0.32 0c-0.0294528,0 -0.0533346,-0.0238819 -0.0533346,-0.0533346l0 -0.321012c0,-0.0294528 0.0238819,-0.0533346 0.0533346,-0.0533346l0.32 0c0.0294528,0 0.0533346,0.0238819 0.0533346,0.0533346l0 0.321012c0,0.0294528 -0.0238819,0.0533346 -0.0533346,0.0533346zm-0.207843 -0.747917l-1.48487 0 -0.291382 0 0 2.34222 0.666661 0 0 -1.17434c0,-0.0441811 0.0358189,-0.08 0.08,-0.08l0.831732 0c0.0441811,0 0.08,0.0358189 0.08,0.08l0 1.17434 0.666661 0 0 -2.34222 -0.548803 0zm-0.38174 0.373571l0 0.321012c0,0.0294528 -0.0238819,0.0533346 -0.0533346,0.0533346l-0.32 0c-0.0294528,0 -0.0533346,-0.0238819 -0.0533346,-0.0533346l0 -0.321012c0,-0.0294528 0.0238819,-0.0533346 0.0533346,-0.0533346l0.32 0c0.0294528,0 0.0533346,0.0238819 0.0533346,0.0533346zm-0.642913 0l0 0.321012c0,0.0294528 -0.0238819,0.0533346 -0.0533346,0.0533346l-0.32 0c-0.0294528,0 -0.0533346,-0.0238819 -0.0533346,-0.0533346l0 -0.321012c0,-0.0294528 0.0238819,-0.0533346 0.0533346,-0.0533346l0.32 0c0.0294528,0 0.0533346,0.0238819 0.0533346,0.0533346z"/>
  <path class="fil3" d="M2.35747 5.54666c0,0.0294528 -0.0238819,0.0533346 -0.0533346,0.0533346l-0.32 0c-0.0294528,0 -0.0533346,-0.0238819 -0.0533346,-0.0533346l0 -0.961012c0,-0.0294528 0.0238819,-0.0533346 0.0533346,-0.0533346l0.32 0c0.0294528,0 0.0533346,0.0238819 0.0533346,0.0533346l0 0.961012zm-0.642913 -0.961012l0 0.961012c0,0.0294528 -0.0238819,0.0533346 -0.0533346,0.0533346l-0.32 0c-0.0294528,0 -0.0533346,-0.0238819 -0.0533346,-0.0533346l0 -0.961012c0,-0.0294528 0.0238819,-0.0533346 0.0533346,-0.0533346l0.32 0c0.0294528,0 0.0533346,0.0238819 0.0533346,0.0533346zm0.642913 -0.318988c0,0.0294528 -0.0238819,0.0533346 -0.0533346,0.0533346l-0.32 0c-0.0294528,0 -0.0533346,-0.0238819 -0.0533346,-0.0533346l0 -0.321012c0,-0.0294528 0.0238819,-0.0533346 0.0533346,-0.0533346l0.32 0c0.0294528,0 0.0533346,0.0238819 0.0533346,0.0533346l0 0.321012zm-0.0533346 -0.586665l-0.32 0c-0.0294528,0 -0.0533346,-0.0238819 -0.0533346,-0.0533346l0 -0.321012c0,-0.0294528 0.0238819,-0.0533346 0.0533346,-0.0533346l0.32 0c0.0294528,0 0.0533346,0.0238819 0.0533346,0.0533346l0 0.321012c0,0.0294528 -0.0238819,0.0533346 -0.0533346,0.0533346zm0 -0.64l-0.32 0c-0.0294528,0 -0.0533346,-0.0238819 -0.0533346,-0.0533346l0 -0.321012c0,-0.0294528 0.0238819,-0.0533346 0.0533346,-0.0533346l0.32 0c0.0294528,0 0.0533346,0.0238819 0.0533346,0.0533346l0 0.321012c0,0.0294528 -0.0238819,0.0533346 -0.0533346,0.0533346zm0 -0.64l-0.32 0c-0.0294528,0 -0.0533346,-0.0238819 -0.0533346,-0.0533346l0 -0.321012c0,-0.0294528 0.0238819,-0.0533346 0.0533346,-0.0533346l0.32 0c0.0294528,0 0.0533346,0.0238819 0.0533346,0.0533346l0 0.321012c0,0.0294528 -0.0238819,0.0533346 -0.0533346,0.0533346zm0 -0.64l-0.32 0c-0.0294528,0 -0.0533346,-0.0238819 -0.0533346,-0.0533346l0 -0.321012c0,-0.0294528 0.0238819,-0.0533346 0.0533346,-0.0533346l0.32 0c0.0294528,0 0.0533346,0.0238819 0.0533346,0.0533346l0 0.321012c0,0.0294528 -0.0238819,0.0533346 -0.0533346,0.0533346zm0.917469 -0.693327l-2.15493 0 0 4.69332 2.15493 0 0 -2.44889 0 -2.24444zm-0.594551 4.53333c-0.0294528,0 -0.0533346,-0.0238819 -0.0533346,-0.0533346l0 -0.961012c0,-0.0294528 0.0238819,-0.0533346 0.0533346,-0.0533346l0.32 0c0.0294528,0 0.0533346,0.0238819 0.0533346,0.0533346l0 0.961012c0,0.0294528 -0.0238819,0.0533346 -0.0533346,0.0533346l-0.32 0zm0.32 -1.28l-0.32 0c-0.0294528,0 -0.0533346,-0.0238819 -0.0533346,-0.0533346l0 -0.321012c0,-0.0294528 0.0238819,-0.0533346 0.0533346,-0.0533346l0.32 0c0.0294528,0 0.0533346,0.0238819 0.0533346,0.0533346l0 0.321012c0,0.0294528 -0.0238819,0.0533346 -0.0533346,0.0533346zm-1.2325 -0.0533346c0,0.0294528 -0.0238819,0.0533346 -0.0533346,0.0533346l-0.32 0c-0.0294528,0 -0.0533346,-0.0238819 -0.0533346,-0.0533346l0 -0.321012c0,-0.0294528 0.0238819,-0.0533346 0.0533346,-0.0533346l0.32 0c0.0294528,0 0.0533346,0.0238819 0.0533346,0.0533346l0 0.321012zm1.2325 -0.586665l-0.32 0c-0.0294528,0 -0.0533346,-0.0238819 -0.0533346,-0.0533346l0 -0.321012c0,-0.0294528 0.0238819,-0.0533346 0.0533346,-0.0533346l0.32 0c0.0294528,0 0.0533346,0.0238819 0.0533346,0.0533346l0 0.321012c0,0.0294528 -0.0238819,0.0533346 -0.0533346,0.0533346zm-1.28583 0l-0.32 0c-0.0294528,0 -0.0533346,-0.0238819 -0.0533346,-0.0533346l0 -0.321012c0,-0.0294528 0.0238819,-0.0533346 0.0533346,-0.0533346l0.32 0c0.0294528,0 0.0533346,0.0238819 0.0533346,0.0533346l0 0.321012c0,0.0294528 -0.0238819,0.0533346 -0.0533346,0.0533346zm1.28583 -0.64l-0.32 0c-0.0294528,0 -0.0533346,-0.0238819 -0.0533346,-0.0533346l0 -0.321012c0,-0.0294528 0.0238819,-0.0533346 0.0533346,-0.0533346l0.32 0c0.0294528,0 0.0533346,0.0238819 0.0533346,0.0533346l0 0.321012c0,0.0294528 -0.0238819,0.0533346 -0.0533346,0.0533346zm-1.28583 0l-0.32 0c-0.0294528,0 -0.0533346,-0.0238819 -0.0533346,-0.0533346l0 -0.321012c0,-0.0294528 0.0238819,-0.0533346 0.0533346,-0.0533346l0.32 0c0.0294528,0 0.0533346,0.0238819 0.0533346,0.0533346l0 0.321012c0,0.0294528 -0.0238819,0.0533346 -0.0533346,0.0533346zm1.28583 -0.64l-0.32 0c-0.0294528,0 -0.0533346,-0.0238819 -0.0533346,-0.0533346l0 -0.321012c0,-0.0294528 0.0238819,-0.0533346 0.0533346,-0.0533346l0.32 0c0.0294528,0 0.0533346,0.0238819 0.0533346,0.0533346l0 0.321012c0,0.0294528 -0.0238819,0.0533346 -0.0533346,0.0533346zm-1.28583 0l-0.32 0c-0.0294528,0 -0.0533346,-0.0238819 -0.0533346,-0.0533346l0 -0.321012c0,-0.0294528 0.0238819,-0.0533346 0.0533346,-0.0533346l0.32 0c0.0294528,0 0.0533346,0.0238819 0.0533346,0.0533346l0 0.321012c0,0.0294528 -0.0238819,0.0533346 -0.0533346,0.0533346zm1.28583 -0.64l-0.32 0c-0.0294528,0 -0.0533346,-0.0238819 -0.0533346,-0.0533346l0 -0.321012c0,-0.0294528 0.0238819,-0.0533346 0.0533346,-0.0533346l0.32 0c0.0294528,0 0.0533346,0.0238819 0.0533346,0.0533346l0 0.321012c0,0.0294528 -0.0238819,0.0533346 -0.0533346,0.0533346zm-1.28583 0l-0.32 0c-0.0294528,0 -0.0533346,-0.0238819 -0.0533346,-0.0533346l0 -0.321012c0,-0.0294528 0.0238819,-0.0533346 0.0533346,-0.0533346l0.32 0c0.0294528,0 0.0533346,0.0238819 0.0533346,0.0533346l0 0.321012c0,0.0294528 -0.0238819,0.0533346 -0.0533346,0.0533346z"/>
  <g id="_517309992">
   <polygon id="_517312320" class="fil4" points="4.93333,5.75999 4.93333,4.66565 4.2616,4.66565 4.2616,5.75999 "/>
   <polygon id="_517312032" class="fil4" points="5.15237,4.05902 5.3657,4.05902 5.3657,3.84468 5.15237,3.84468 "/>
   <polygon id="_517312248" class="fil4" points="4.72278,4.05902 4.72278,3.84468 4.50945,3.84468 4.50945,4.05902 "/>
   <polygon id="_517311000" class="fil4" points="4.07987,4.05902 4.07987,3.84468 3.86654,3.84468 3.86654,4.05902 "/>
   <polygon id="_517311624" class="fil4" points="2.89372,5.49333 2.89372,4.63898 2.68039,4.63898 2.68039,5.49333 "/>
   <polygon id="_517311408" class="fil4" points="2.2508,5.49333 2.2508,4.63898 2.03747,4.63898 2.03747,5.49333 "/>
   <polygon id="_517311192" class="fil4" points="1.60789,5.49333 1.60789,4.63898 1.39456,4.63898 1.39456,5.49333 "/>
   <polygon id="_517311096" class="fil4" points="2.68039,4.21333 2.89372,4.21333 2.89372,3.99898 2.68039,3.99898 "/>
   <polygon id="_517311312" class="fil4" points="2.2508,4.21333 2.2508,3.99898 2.03747,3.99898 2.03747,4.21333 "/>
   <polygon id="_517311336" class="fil4" points="1.60789,4.21333 1.60789,3.99898 1.39456,3.99898 1.39456,4.21333 "/>
   <polygon id="_517311744" class="fil4" points="1.39456,3.57333 1.60789,3.57333 1.60789,3.35898 1.39456,3.35898 "/>
   <polygon id="_517310448" class="fil4" points="2.03747,3.35898 2.03747,3.57333 2.2508,3.57333 2.2508,3.35898 "/>
   <polygon id="_517310664" class="fil4" points="2.68039,3.35898 2.68039,3.57333 2.89372,3.57333 2.89372,3.35898 "/>
   <polygon id="_517310952" class="fil4" points="2.68039,2.93333 2.89372,2.93333 2.89372,2.71898 2.68039,2.71898 "/>
   <polygon id="_517310904" class="fil4" points="2.2508,2.93333 2.2508,2.71898 2.03747,2.71898 2.03747,2.93333 "/>
   <polygon id="_517310232" class="fil4" points="1.60789,2.93333 1.60789,2.71898 1.39456,2.71898 1.39456,2.93333 "/>
   <polygon id="_517310568" class="fil4" points="1.39456,2.29333 1.60789,2.29333 1.60789,2.07898 1.39456,2.07898 "/>
   <polygon id="_517310640" class="fil4" points="2.03747,2.07898 2.03747,2.29333 2.2508,2.29333 2.2508,2.07898 "/>
   <polygon id="_517310976" class="fil4" points="2.68039,2.07898 2.68039,2.29333 2.89372,2.29333 2.89372,2.07898 "/>
   <polygon id="_517309512" class="fil4" points="2.68039,1.65333 2.89372,1.65333 2.89372,1.43898 2.68039,1.43898 "/>
   <polygon id="_517310208" class="fil4" points="2.2508,1.65333 2.2508,1.43898 2.03747,1.43898 2.03747,1.65333 "/>
   <polygon id="_517309920" class="fil4" points="1.60789,1.65333 1.60789,1.43898 1.39456,1.43898 1.39456,1.65333 "/>
  </g>
 </g>
 <rect class="fil5" width="6.82666" height="6.82666"/>
</svg>
