<?xml version="1.0" encoding="UTF-8"?>
<!DOCTYPE svg PUBLIC "-//W3C//DTD SVG 1.1//EN" "http://www.w3.org/Graphics/SVG/1.1/DTD/svg11.dtd">
<!-- Creator: CorelDRAW -->
<svg xmlns="http://www.w3.org/2000/svg" xml:space="preserve" width="6.82666in" height="6.82666in" style="shape-rendering:geometricPrecision; text-rendering:geometricPrecision; image-rendering:optimizeQuality; fill-rule:evenodd; clip-rule:evenodd"
viewBox="0 0 6.82666 6.82666"
 xmlns:xlink="http://www.w3.org/1999/xlink">
 <defs>
  <style type="text/css">
   <![CDATA[
    .fil4 {fill:none}
    .fil1 {fill:#AED581}
    .fil3 {fill:#F45A52}
    .fil2 {fill:#FECA5F}
    .fil0 {fill:#212121;fill-rule:nonzero}
   ]]>
  </style>
 </defs>
 <g id="Layer_x0020_1">
  <metadata id="CorelCorpID_0Corel-Layer"/>
  <g id="_517317312">
   <path id="_517318224" class="fil0" d="M1.23246 2.71318l0.504177 -1.18765c0.0230079,-0.0540748 0.0855079,-0.0792598 0.139583,-0.056252 0.0263622,0.0112165 0.0458543,0.0318228 0.056248,0.0562559l3.93701e-006 -3.93701e-006 0.507142 1.19464c0.0230079,0.0540748 -0.00217717,0.116575 -0.056252,0.139583 -0.0136102,0.00579134 -0.027752,0.00852362 -0.0416654,0.00851575l0 0.00023622 -0.058374 0 0.310126 0.556307c0.0285315,0.051315 0.010063,0.116051 -0.041252,0.144583 -0.0163937,0.00911417 -0.0341535,0.0134252 -0.0516654,0.0134094l0 0.00034252 -0.104602 0 0.399016 0.545055c0.034748,0.0474016 0.0244843,0.114004 -0.0229173,0.148752 -0.0189843,0.0139173 -0.0410512,0.0206102 -0.0629173,0.0205906l0 0.000244094 -1.74911 0c-0.0589094,0 -0.106669,-0.0477598 -0.106669,-0.106669 0,-0.0261378 0.00940945,-0.0500787 0.0250157,-0.068626l0.394835 -0.539346 -0.104602 0c-0.0589094,0 -0.106669,-0.0477598 -0.106669,-0.106669 0,-0.0220039 0.00666535,-0.0424528 0.0180827,-0.059437l0.305795 -0.548535 -0.058374 0c-0.0589094,0 -0.106669,-0.0477598 -0.106669,-0.106669 0,-0.0175236 0.00422835,-0.034063 0.0117165,-0.0486496zm0.602094 -0.873665l-0.346256 0.815646 0.0786732 0 0 0.00034252c0.0175118,-1.5748e-005 0.0352717,0.00429528 0.0516654,0.0134094 0.051315,0.0285315 0.0697835,0.0932677 0.041252,0.144583l-0.310126 0.556307 0.133402 0 0 0.000244094c0.0218661,-1.9685e-005 0.0439331,0.00667323 0.0629173,0.0205906 0.0474016,0.034748 0.0576654,0.10135 0.0229173,0.148752l-0.399016 0.545055 1.32914 0 -0.394835 -0.539346c-0.0156063,-0.0185472 -0.0250157,-0.0424882 -0.0250157,-0.068626 0,-0.0589094 0.0477598,-0.106669 0.106669,-0.106669l0.133402 0 -0.305795 -0.548535c-0.0114173,-0.0169843 -0.0180827,-0.0374331 -0.0180827,-0.059437 0,-0.0589094 0.0477598,-0.106669 0.106669,-0.106669l0.0786732 0 -0.346256 -0.815646z"/>
   <path id="_517317144" class="fil0" d="M1.72789 4.19111c0,-0.0589094 0.0477598,-0.106669 0.106669,-0.106669 0.0589094,0 0.106669,0.0477598 0.106669,0.106669l0 0.989409c0,0.0589094 -0.0477598,0.106669 -0.106669,0.106669 -0.0589094,0 -0.106669,-0.0477598 -0.106669,-0.106669l0 -0.989409z"/>
   <g>
    <path id="_517317576" class="fil0" d="M5.40293 3.0802l-0.257134 -0.605709 -0.257134 0.605709 0.0365709 0c0.0589094,0 0.106669,0.0477598 0.106669,0.106669 0,0.0220039 -0.00666535,0.0424528 -0.0180827,0.059437l-0.235783 0.422949 0.0781181 0c0.0589094,0 0.106669,0.0477598 0.106669,0.106669 0,0.0261378 -0.00940945,0.0500787 -0.0250157,0.068626l-0.302898 0.41376 1.02177 0 -0.307079 -0.419469c-0.034748,-0.0474016 -0.0244843,-0.114004 0.0229173,-0.148752 0.0189843,-0.0139173 0.0410512,-0.0206102 0.0629173,-0.0205906l0 -0.000244094 0.0781181 0 -0.240114 -0.43072c-0.0285315,-0.051315 -0.010063,-0.116051 0.041252,-0.144583 0.0163898,-0.00911417 0.0341496,-0.0134291 0.0516654,-0.0134094l0 -0.00034252 0.0365748 0zm-0.159217 -0.919697l0.415055 0.977717c0.00748819,0.0145866 0.0117165,0.031126 0.0117165,0.0486496 0,0.0589094 -0.0477598,0.106669 -0.106669,0.106669l-0.0162756 0 0.235783 0.422949c0.0114173,0.0169843 0.0180827,0.0374331 0.0180827,0.059437 0,0.0589094 -0.0477598,0.106669 -0.106669,0.106669l-0.0493189 0 0.302898 0.41376c0.0156063,0.0185472 0.0250157,0.0424882 0.0250157,0.068626 0,0.0589094 -0.0477598,0.106669 -0.106669,0.106669l-1.44174 0 0 -0.000244094c-0.0218661,1.9685e-005 -0.0439331,-0.00667323 -0.0629173,-0.0205906 -0.0474016,-0.034748 -0.0576654,-0.10135 -0.0229173,-0.148752l0.307079 -0.419469 -0.0493189 0 0 -0.00034252c-0.0175118,1.5748e-005 -0.0352717,-0.00429528 -0.0516654,-0.0134094 -0.051315,-0.0285315 -0.0697835,-0.0932677 -0.041252,-0.144583l0.240114 -0.43072 -0.0162756 0 0 -0.00023622c-0.0139134,7.87402e-006 -0.0280551,-0.00272441 -0.0416654,-0.00851575 -0.0540748,-0.0230079 -0.0792598,-0.0855079 -0.056252,-0.139583l0.418024 -0.984701 3.93701e-006 3.93701e-006c0.0103937,-0.0244331 0.0298858,-0.0450394 0.056248,-0.0562559 0.0540748,-0.0230079 0.116575,0.00217717 0.139583,0.056252z"/>
    <path id="_517317648" class="fil0" d="M5.03913 4.36498c0,-0.0589094 0.0477598,-0.106669 0.106669,-0.106669 0.0589094,0 0.106669,0.0477598 0.106669,0.106669l0 0.815539c0,0.0589094 -0.0477598,0.106669 -0.106669,0.106669 -0.0589094,0 -0.106669,-0.0477598 -0.106669,-0.106669l0 -0.815539z"/>
   </g>
   <g>
    <path id="_517317696" class="fil0" d="M3.74456 3.50571l-0.168213 -0.396244 -0.168067 0.395909c0.0563661,0.00284646 0.101201,0.0494567 0.101201,0.106531 0,0.0220039 -0.00666535,0.0424528 -0.0180827,0.059437l-0.165776 0.297366 0.0228386 0c0.0589094,0 0.106669,0.0477598 0.106669,0.106669 0,0.0261378 -0.00940945,0.0500787 -0.0250157,0.068626l-0.210961 0.288177 0.71439 0 -0.215142 -0.293886c-0.034748,-0.0474016 -0.0244843,-0.114004 0.0229173,-0.148752 0.0189843,-0.0139173 0.0410512,-0.0206102 0.0629173,-0.0205906l0 -0.000244094 0.0228346 0 -0.170102 -0.305138c-0.0285315,-0.051315 -0.010063,-0.116051 0.041252,-0.144583 0.0147323,-0.00819291 0.0305709,-0.0125 0.0463386,-0.0132795zm-0.0702953 -0.710232l0.325937 0.76778c0.00748819,0.0145866 0.0117165,0.031126 0.0117165,0.0486496 0,0.0505591 -0.0351811,0.0929055 -0.0823976,0.103894l0.167323 0.300146c0.0114213,0.0169843 0.0180827,0.0374291 0.0180827,0.0594331 0,0.0569488 -0.0446299,0.103472 -0.100823,0.106508l0.211079 0.288339c0.0156063,0.0185472 0.0250157,0.0424882 0.0250157,0.068626 0,0.0589094 -0.0477598,0.106669 -0.106669,0.106669l-1.13436 0 0 -0.000244094c-0.0218661,1.9685e-005 -0.0439331,-0.00667323 -0.0629173,-0.0205906 -0.0474016,-0.034748 -0.0576654,-0.10135 -0.0229173,-0.148752l0.215496 -0.29437c-0.0156772,-0.000814961 -0.0314134,-0.00512598 -0.0460591,-0.0132677 -0.051315,-0.0285315 -0.0697835,-0.0932677 -0.041252,-0.144583l0.171787 -0.308154c-0.00589764,-0.00137795 -0.0117598,-0.00328346 -0.0175236,-0.00573622 -0.0540748,-0.0230079 -0.0792598,-0.0855079 -0.056252,-0.139583l0.328898 -0.774764 3.93701e-006 3.93701e-006c0.0103937,-0.0244331 0.0298858,-0.0450394 0.056248,-0.0562559 0.0540748,-0.0230079 0.116575,0.00217717 0.139583,0.056252z"/>
    <path id="_517317432" class="fil0" d="M3.46967 4.53885c0,-0.0589094 0.0477598,-0.106669 0.106669,-0.106669 0.0589094,0 0.106669,0.0477598 0.106669,0.106669l0 0.641665c0,0.0589094 -0.0477598,0.106669 -0.106669,0.106669 -0.0589094,0 -0.106669,-0.0477598 -0.106669,-0.106669l0 -0.641665z"/>
   </g>
  </g>
  <path class="fil0" d="M2.15383 2.07754c-0.00681496,0.0209685 -0.0293425,0.0324409 -0.050311,0.025626 -0.0209685,-0.00681496 -0.0324409,-0.0293425 -0.025626,-0.050311 0.0167756,-0.0512047 0.0394331,-0.0996181 0.067752,-0.14324 0.0275512,-0.0424331 0.0603189,-0.0801811 0.0981102,-0.111429 0.0169961,-0.014063 0.042185,-0.011685 0.056248,0.00531102 0.00827953,0.0100079 0.0108583,0.0228504 0.00811024,0.0345945 -0.00797638,0.0434449 -0.00925197,0.0827283 -0.00570866,0.112827l0.00149606 0.0126339c0.00157087,-0.00316142 0.00318898,-0.00663386 0.0048622,-0.0104213 0.000275591,-0.000622047 0.000562992,-0.00123622 0.000862205,-0.00183858 0.0183504,-0.042685 0.0303386,-0.0885669 0.0375512,-0.135748 0.00750787,-0.0491299 0.00985039,-0.0989055 0.0088189,-0.147575 -0.000429134,-0.0220039 0.0170591,-0.0401929 0.039063,-0.040622 0.0106063,-0.000208661 0.0203268,0.00375197 0.0275984,0.0103701l5.51181e-005 -5.90551e-005c0.0277992,0.0252638 0.0514488,0.0549685 0.0709882,0.0874331 0.000472441,0.000779528 0.000909449,0.00157087 0.0013189,0.00237008 0.0197992,0.0333543 0.0353976,0.0697913 0.0468071,0.107409 0.0182402,0.060185 0.0201457,0.107386 0.0221417,0.156906 0.000976378,0.0243031 0.00198819,0.0492441 0.00553543,0.0782087 0.00179528,0.0146654 0.00657087,0.0407598 0.0156457,0.0620197 0.00365354,0.00856693 0.00770866,0.0158465 0.0119528,0.0198976 3.14961e-005,3.14961e-005 -1.1811e-005,7.08661e-005 -0.000110236,0.000114173l-9.44882e-005 0.000102362 0.000468504 -0.000188976c0.00522047,-0.00222835 0.00937795,-0.0132441 0.0125276,-0.0261732 0.00485433,-0.0199173 0.00566929,-0.0425 0.00559055,-0.0575433 -8.66142e-005,-0.0220039 0.0176811,-0.0399134 0.039685,-0.04 0.0118898,-4.72441e-005 0.0225866,0.00512598 0.0299173,0.0133543l8.26772e-005 -7.48031e-005c0.0417638,0.046874 0.0756339,0.114988 0.0979409,0.187067 0.0231063,0.0746614 0.0341299,0.154571 0.028874,0.220028 -0.00844094,0.10513 -0.0505118,0.205563 -0.119909,0.277134 -0.0641693,0.066189 -0.151232,0.107669 -0.256386,0.105969 -0.0220039,-0.00034252 -0.0395591,-0.0184646 -0.0392165,-0.0404685 0.00034252,-0.0220039 0.0184646,-0.0395591 0.0404685,-0.0392165 0.081122,0.00131102 0.148346,-0.030748 0.197945,-0.0819055 0.0562283,-0.0579882 0.0904094,-0.140563 0.0974134,-0.227764 0.00448425,-0.0558504 -0.00522047,-0.125008 -0.0254409,-0.190335 -0.00831102,-0.0268583 -0.0183465,-0.0529055 -0.0298425,-0.0769094 -0.0100236,0.0219606 -0.0253307,0.0404252 -0.0483976,0.0502795 -0.0080315,0.0034252 -0.0157835,0.00552756 -0.0232323,0.00644094 -0.0254409,0.00311811 -0.0462795,-0.00585827 -0.0632835,-0.0220984 -0.0129646,-0.0123858 -0.0228819,-0.0288543 -0.0303937,-0.0464567 -0.0127874,-0.0299606 -0.019248,-0.0644961 -0.0215827,-0.0835866 -0.00361417,-0.0294843 -0.00474409,-0.0574803 -0.00584252,-0.0847677 -0.0017874,-0.0443976 -0.00349606,-0.0867165 -0.0187087,-0.136906 -0.00840551,-0.0277205 -0.0195354,-0.0546811 -0.0333976,-0.0798071 -0.00148819,0.0165118 -0.00344882,0.0329449 -0.00593701,0.0492283 -0.00815354,0.053315 -0.0219882,0.105819 -0.0434331,0.155622 -0.000283465,0.00076378 -0.000586614,0.00152362 -0.000917323,0.00227953 -0.0114173,0.0258622 -0.0234921,0.0444213 -0.0355551,0.0565472 -0.0212362,0.0213228 -0.0437717,0.0267992 -0.0660079,0.0191457 -0.001,-0.000307087 -0.002,-0.000653543 -0.00298819,-0.00104331 -0.0284331,-0.0112283 -0.0482165,-0.0481969 -0.054311,-0.0999882 -0.000748031,-0.00635433 -0.00132283,-0.0130236 -0.00171654,-0.0199685 -0.00299606,0.0042874 -0.00592913,0.00863386 -0.00879134,0.0130433 -0.0243504,0.0375118 -0.0439803,0.0795945 -0.058689,0.124484zm0.443161 0.0744764c-0.000496063,0.000220472 -0.00232677,0.000543307 -0.00129134,0.000417323 0.000334646,-3.93701e-005 0.000732283,-0.000145669 0.00119685,-0.000314961l9.44882e-005 -0.000102362z"/>
  <path class="fil0" d="M3.35415 3.29667c0.00681496,0.0209685 -0.00465748,0.0434961 -0.025626,0.050311 -0.0209685,0.00681496 -0.0434961,-0.00465748 -0.050311,-0.025626 -0.0110945,-0.0338701 -0.0256417,-0.0657402 -0.0434961,-0.0944449 -0.00582283,0.043378 -0.023437,0.0744803 -0.0486378,0.0844252 -0.0218465,0.00862992 -0.043878,0.00408268 -0.0643583,-0.0164921 -0.0105236,-0.0105709 -0.0209528,-0.0265433 -0.0307008,-0.0486181 -0.000334646,-0.00076378 -0.000641732,-0.00152756 -0.000925197,-0.00229921 -0.017811,-0.0414488 -0.0292953,-0.085063 -0.0360512,-0.129287 -0.000850394,-0.0055748 -0.00162992,-0.0111693 -0.00233465,-0.0167795 -0.00633465,0.013878 -0.0117244,0.0282638 -0.0161654,0.0429134 -0.0122362,0.0403622 -0.013622,0.0747087 -0.0150748,0.110744 -0.000913386,0.022685 -0.00185039,0.0459764 -0.00482677,0.070252 -0.0019685,0.0160787 -0.0074252,0.0452087 -0.0182638,0.0706102 -0.00651969,0.0152756 -0.0151929,0.029626 -0.026626,0.0405512 -0.0154685,0.0147795 -0.0344843,0.022937 -0.0577756,0.0200906 -0.00674409,-0.000822835 -0.0137598,-0.00272835 -0.0210157,-0.00582283 -0.0160276,-0.00684252 -0.0278346,-0.0181732 -0.0364803,-0.0319094 -0.0068622,0.0157165 -0.0129843,0.0323228 -0.018252,0.0493465 -0.0163622,0.0528583 -0.0242165,0.108744 -0.0206024,0.153791 0.00528346,0.0657717 0.0298307,0.128252 0.0702126,0.174181 0.0357165,0.0406181 0.084126,0.068189 0.142642,0.0729488 0.00402756,0.000322835 0.0777244,-0.00304331 0.12839,-0.00535827 0.0252559,-0.00115354 0.0448307,-0.00205512 0.0495118,-0.00212598 0.0220039,-0.00034252 0.040126,0.0172126 0.0404685,0.0392165 0.00034252,0.0220039 -0.0172126,0.040126 -0.0392165,0.0404685 -0.00125197,1.9685e-005 -0.0214094,0.000944882 -0.0473228,0.00212598 -0.053189,0.00242913 -0.130559,0.00596457 -0.138083,0.00535827 -0.0809724,-0.00658268 -0.147575,-0.0443071 -0.19639,-0.0998228 -0.0518386,-0.0589606 -0.0832638,-0.138118 -0.0898976,-0.22074 -0.00438583,-0.0546535 0.0047874,-0.121295 0.0240354,-0.183484 0.018622,-0.0601654 0.0469646,-0.117102 0.0819764,-0.156394l8.26772e-005 7.48031e-005c0.00733071,-0.00822835 0.0180276,-0.0134016 0.0299173,-0.0133543 0.0220039,8.66142e-005 0.0397717,0.0179961 0.039685,0.04 -6.29921e-005,0.0119685 0.000574803,0.0299094 0.00439764,0.0455945 0.00109055,0.0044685 0.00221654,0.00854331 0.00329528,0.0115433 0.00121654,-0.0022126 0.0024252,-0.00476772 0.0036063,-0.0075315 0.00712205,-0.0166929 0.0108976,-0.0373898 0.0123268,-0.0490433 0.00290945,-0.023752 0.00372835,-0.0439882 0.00451969,-0.0636929 0.00166142,-0.0411614 0.00324409,-0.0803898 0.0185079,-0.130744 0.00974803,-0.0321614 0.0231693,-0.0632953 0.040252,-0.091685 0.0165276,-0.0274685 0.0364134,-0.0524803 0.0596535,-0.0736024l5.51181e-005 5.90551e-005c0.00727165,-0.00661811 0.0169921,-0.0105787 0.0275984,-0.0103701 0.0220039,0.000429134 0.0394921,0.0186181 0.039063,0.040622 -0.00084252,0.0395472 0.00107087,0.0800512 0.00719291,0.120094 0.00496457,0.0324803 0.0127047,0.0641654 0.024,0.0940866 0.000783465,-0.0210315 -0.000944882,-0.045937 -0.00587008,-0.072878 -0.00274016,-0.0117402 -0.000161417,-0.0245827 0.00811417,-0.0345866 0.014063,-0.0169961 0.039252,-0.019374 0.056248,-0.00531102 0.0316063,0.0261378 0.0590197,0.0577087 0.0820591,0.0932008 0.0236299,0.0363976 0.0425236,0.0767441 0.0564921,0.119394z"/>
  <path class="fil0" d="M2.30614 2.47785c-0.00897244,0.0201024 -0.0325551,0.029126 -0.0526575,0.0201535 -0.0201024,-0.00897244 -0.029126,-0.0325551 -0.0201535,-0.0526575 0.0932362,-0.208425 0.148976,-0.314496 0.149138,-0.314803 0.0103543,-0.0195 0.034563,-0.0269134 0.054063,-0.0165591 0.0113346,0.00601969 0.0185787,0.0167165 0.0206339,0.0284488 0.00450787,0.0174291 0.0337677,0.123087 0.103327,0.218346 0.0394764,0.0540551 0.0706496,0.114988 0.0850354,0.177319 0.0131535,0.0569685 0.0125039,0.115098 -0.00800787,0.170539 -0.00541339,0.0146417 -0.0189409,0.0395748 -0.0335354,0.0601181 -0.0131378,0.0184882 -0.0285984,0.0350591 -0.0435394,0.0424488 -0.0197598,0.00974803 -0.043689,0.0016378 -0.053437,-0.018122 -0.00974803,-0.0197598 -0.0016378,-0.043689 0.018122,-0.053437 0.00187008,-0.00092126 0.0073937,-0.00804724 0.0138543,-0.0171417 0.0106339,-0.0149685 0.0200787,-0.0320276 0.0235354,-0.0413701 0.0147638,-0.0399094 0.0150157,-0.082689 0.00519685,-0.125224 -0.0118622,-0.0514055 -0.0381457,-0.102441 -0.0716024,-0.148256 -0.0388858,-0.053252 -0.0665984,-0.109496 -0.0852717,-0.155028 -0.0252362,0.0519134 -0.0609134,0.127339 -0.104701,0.225224z"/>
  <path class="fil0" d="M3.22613 3.61856c0.00897244,0.0201024 -5.11811e-005,0.043685 -0.0201535,0.0526575 -0.0201024,0.00897244 -0.043685,-5.11811e-005 -0.0526575,-0.0201535 -0.0323386,-0.0722874 -0.0590945,-0.129339 -0.079126,-0.170957 -0.0152677,0.0350079 -0.0364724,0.0757559 -0.0647953,0.114543 -0.0269646,0.0369213 -0.0481299,0.0779843 -0.0576575,0.11926 -0.00777165,0.0336811 -0.00759843,0.0674685 0.00402362,0.0988898 0.00266535,0.00720472 0.010063,0.0205276 0.0184528,0.0323307 0.00471654,0.0066378 0.00837402,0.0116575 0.00874409,0.0118386 0.0197598,0.00974803 0.0278701,0.0336772 0.018122,0.053437 -0.00974803,0.0197598 -0.0336772,0.0278701 -0.053437,0.018122 -0.0134449,-0.00664961 -0.0270394,-0.0211142 -0.0384291,-0.0371457 -0.0123504,-0.017378 -0.0238307,-0.0385748 -0.0284528,-0.0510787 -0.0173701,-0.0469528 -0.0179409,-0.0960945 -0.00683465,-0.144205 0.0120512,-0.0521969 0.0381063,-0.103161 0.0710906,-0.148323 0.0616535,-0.084437 0.0842126,-0.178594 0.0842756,-0.178866 0.00258268,-0.0108346 0.00966929,-0.0205315 0.020315,-0.0260906 0.0195,-0.0101811 0.0435669,-0.00262598 0.053748,0.016874 0.000133858,0.000255906 0.0468386,0.089122 0.122772,0.258866z"/>
  <path class="fil0" d="M5.47797 3.79664c0.00681496,0.0209685 -0.00465748,0.0434961 -0.025626,0.050311 -0.0209685,0.00681496 -0.0434961,-0.00465748 -0.050311,-0.025626 -0.00824409,-0.0251654 -0.0186654,-0.0490394 -0.031185,-0.0709961 -0.00695276,0.0331654 -0.0224016,0.0567992 -0.0435748,0.0651614 -0.0210827,0.00832283 -0.0422441,0.00403937 -0.0617913,-0.0155984 -0.00965748,-0.00970866 -0.0191929,-0.0242441 -0.0280118,-0.0442283 -0.000338583,-0.000767717 -0.000645669,-0.00153937 -0.000929134,-0.00231496 -0.0154646,-0.0360748 -0.0255551,-0.073937 -0.0315945,-0.112307 -0.00272047,0.00700787 -0.00516142,0.0141142 -0.00733465,0.0212756 -0.0105866,0.0349173 -0.0117953,0.0648543 -0.0130591,0.0962559 -0.000811024,0.0201417 -0.00164567,0.0408228 -0.00426772,0.0622165 -0.00176378,0.0144173 -0.00666929,0.040563 -0.0164291,0.063437 -0.0059685,0.0139803 -0.0139528,0.0271654 -0.0245354,0.0372795 -0.014622,0.0139646 -0.0326299,0.0216693 -0.0547244,0.0189685 -0.00635433,-0.000779528 -0.0129606,-0.00257087 -0.0197874,-0.00548031 -0.0121654,-0.00519685 -0.0217205,-0.0130866 -0.0291969,-0.0226614 -0.00462205,0.0112756 -0.00881102,0.0230197 -0.0125197,0.0350039 -0.0142205,0.0459528 -0.021063,0.0944882 -0.0179252,0.133559 0.00456693,0.0568661 0.0257598,0.110854 0.0606063,0.150488 0.0306417,0.0348504 0.0721575,0.0585079 0.122303,0.0625866 0.00333071,0.000267717 0.068063,-0.00269291 0.112504,-0.00472441 0.0221142,-0.00100787 0.0393189,-0.00179528 0.0436024,-0.00186614 0.0220039,-0.00034252 0.040126,0.0172126 0.0404685,0.0392165 0.00034252,0.0220039 -0.0172126,0.040126 -0.0392165,0.0404685 -0.000929134,1.1811e-005 -0.0185984,0.000822835 -0.0414134,0.00186614 -0.0469646,0.00214567 -0.115358,0.00527953 -0.122197,0.00472441 -0.0726024,-0.00590157 -0.132307,-0.0397087 -0.176051,-0.0894606 -0.0463031,-0.0526614 -0.0743661,-0.123327 -0.0802913,-0.197047 -0.00390551,-0.0486772 0.00424803,-0.107965 0.0213583,-0.163252 0.0165787,-0.0535709 0.0418622,-0.104311 0.0731339,-0.139409l8.26772e-005 7.48031e-005c0.00733071,-0.00822835 0.0180276,-0.0134016 0.0299173,-0.0133543 0.0220039,8.66142e-005 0.0397717,0.0179961 0.039685,0.04 -4.72441e-005,0.00948819 0.000413386,0.0233189 0.00304331,0.0358898 0.00459055,-0.0129094 0.00714567,-0.0273425 0.00820472,-0.0359921 0.00255512,-0.020874 0.00327165,-0.0384961 0.00396063,-0.0556575 0.00147244,-0.0365276 0.00287795,-0.0713425 0.0164921,-0.116256 0.00875591,-0.0288858 0.0207205,-0.0567087 0.0358898,-0.0819094 0.0146575,-0.0243543 0.0324409,-0.0466772 0.053378,-0.0657008l5.51181e-005 5.90551e-005c0.00727165,-0.00661811 0.0169921,-0.0105787 0.0275984,-0.0103701 0.0220039,0.000429134 0.0394921,0.0186181 0.039063,0.040622 -0.000732283,0.0345039 0.000940945,0.0698661 0.00629134,0.104882 0.00261024,0.0170748 0.00609843,0.0338819 0.0106102,0.0502441 -0.000846457,-0.00947638 -0.0021811,-0.0194449 -0.00405906,-0.0297638 -0.00274803,-0.0117441 -0.000169291,-0.0245945 0.00811024,-0.0346024 0.014063,-0.0169961 0.039252,-0.019374 0.056248,-0.00531102 0.0281811,0.0233031 0.052622,0.0514567 0.0731693,0.0831024 0.0210276,0.0324016 0.0378386,0.0682874 0.0502559,0.106197z"/>
  <path class="fil0" d="M5.33626 4.34059c-0.0219173,-0.00215354 -0.037937,-0.0216772 -0.0357835,-0.0435945 0.00215354,-0.0219173 0.0216772,-0.037937 0.0435945,-0.0357835 0.0030315,0.000307087 -0.0104843,-0.0247598 -0.0179173,-0.0521693 -0.0148701,-0.0548386 -0.0426102,-0.116764 -0.0539488,-0.141634 -0.017437,-0.038252 -0.0325354,-0.0704134 -0.045,-0.0964606 -0.0131614,0.028811 -0.0306772,0.0612047 -0.0533228,0.0922165 -0.0233622,0.0319921 -0.0417008,0.0675394 -0.0499331,0.103209 -0.0066378,0.0287677 -0.00651575,0.0575827 0.00337008,0.0843031 0.00222835,0.00602362 0.00849213,0.0172717 0.0156417,0.0273307 0.00374803,0.00527559 0.00546063,0.00867323 0.00591339,0.00889764 0.0197598,0.00974803 0.0278701,0.0336772 0.018122,0.053437 -0.00974803,0.0197598 -0.0336772,0.0278701 -0.053437,0.018122 -0.0126142,-0.00624016 -0.0251732,-0.0195394 -0.0355984,-0.0342047 -0.0111063,-0.0156299 -0.0214567,-0.0347559 -0.0256417,-0.0460787 -0.0156299,-0.042252 -0.0161496,-0.0864173 -0.0061811,-0.129618 0.0107559,-0.0465945 0.0339803,-0.0920354 0.0633661,-0.132272 0.0536378,-0.0734606 0.0733228,-0.155614 0.073378,-0.15585l3.93701e-005 7.87402e-006c0.00261024,-0.0107756 0.00967717,-0.0204094 0.0202756,-0.0259449 0.0195,-0.0101811 0.0435669,-0.00262598 0.053748,0.016874 9.44882e-005,0.000181102 0.0330669,0.0629173 0.0877638,0.182906 0.0123425,0.0270748 0.0425433,0.0944803 0.0586339,0.153823 0.0235315,0.0867638 0.0200945,0.161374 -0.0670827,0.152484z"/>
  <path class="fil0" d="M1.72753 5.36614c-0.0589094,0 -0.106669,-0.0477598 -0.106669,-0.106669 0,-0.0589094 0.0477598,-0.106669 0.106669,-0.106669l0.205992 0c0.0589094,0 0.106669,0.0477598 0.106669,0.106669 0,0.0589094 -0.0477598,0.106669 -0.106669,0.106669l-0.205992 0z"/>
  <path class="fil0" d="M3.49303 5.36614c-0.0589094,0 -0.106669,-0.0477598 -0.106669,-0.106669 0,-0.0589094 0.0477598,-0.106669 0.106669,-0.106669l0.205992 0c0.0589094,0 0.106669,0.0477598 0.106669,0.106669 0,0.0589094 -0.0477598,0.106669 -0.106669,0.106669l-0.205992 0z"/>
  <path class="fil0" d="M5.05136 5.3328c-0.0589094,0 -0.106669,-0.0477598 -0.106669,-0.106669 0,-0.0589094 0.0477598,-0.106669 0.106669,-0.106669l0.205992 0c0.0589094,0 0.106669,0.0477598 0.106669,0.106669 0,0.0589094 -0.0477598,0.106669 -0.106669,0.106669l-0.205992 0z"/>
  <path class="fil0" d="M1.5313 3.49444c-0.00681496,0.0209685 -0.0293425,0.0324409 -0.050311,0.025626 -0.0209685,-0.00681496 -0.0324409,-0.0293425 -0.025626,-0.050311 0.0155197,-0.047374 0.0364921,-0.0921811 0.0627165,-0.132575 0.0255354,-0.0393307 0.0559055,-0.074315 0.0909331,-0.103276 0.0169961,-0.014063 0.042185,-0.011685 0.056248,0.00531102 0.00829134,0.0100197 0.0108661,0.0228858 0.00810236,0.0346417 -0.00724803,0.0395709 -0.00840157,0.075315 -0.00518504,0.102701l5.90551e-005 0.0005 0.000590551 -0.00124409c0.0167244,-0.0389567 0.0276535,-0.0808583 0.0342402,-0.123957 0.00688976,-0.045063 0.00903937,-0.0906929 0.00809449,-0.135283 -0.000429134,-0.0220039 0.0170591,-0.0401929 0.039063,-0.040622 0.0106063,-0.000208661 0.0203268,0.00375197 0.0275984,0.0103701l5.51181e-005 -5.90551e-005c0.0256535,0.023311 0.0476024,0.0509094 0.0658504,0.0812244l7.08661e-005 -4.33071e-005c0.0188701,0.0313504 0.0337402,0.0659094 0.0446024,0.101752 0.0169094,0.0557874 0.0186693,0.0994173 0.0205157,0.145201 0.000893701,0.022248 0.00182283,0.0450827 0.00508268,0.0717205 0.00162992,0.013315 0.00596063,0.0369921 0.0141575,0.0562087 0.00272441,0.00638976 0.00565748,0.0119213 0.00865354,0.0155236 0.00305512,-0.00315354 0.00581496,-0.0113268 0.00811417,-0.0207638 0.0043937,-0.0180197 0.00512598,-0.0385276 0.00505512,-0.0522008 -8.66142e-005,-0.0220039 0.0176811,-0.0399134 0.039685,-0.04 0.0118898,-4.72441e-005 0.0225866,0.00512598 0.0299173,0.0133543l8.26772e-005 -7.48031e-005c0.0387441,0.0434803 0.0701417,0.106594 0.0908031,0.173346 0.021378,0.0690827 0.0315748,0.143059 0.0267087,0.203689 -0.00734646,0.0915118 -0.042122,0.17915 -0.0994843,0.244394 -0.053874,0.0612717 -0.127366,0.102906 -0.216693,0.110169 -0.0082126,0.000661417 -0.0944409,-0.00327953 -0.15385,-0.00599213 -0.0290906,-0.00133071 -0.0516654,-0.00236614 -0.053315,-0.00238976 -0.0220039,-0.00034252 -0.0395591,-0.0184646 -0.0392165,-0.0404685 0.00034252,-0.0220039 0.0184646,-0.0395591 0.0404685,-0.0392165 0.00500787,8.26772e-005 0.0271102,0.00109449 0.0555039,0.00238976 0.0568819,0.00259843 0.139449,0.00637008 0.144157,0.00599213 0.0668701,-0.00543701 0.122173,-0.0369213 0.162945,-0.0832953 0.0459094,-0.0522165 0.0738031,-0.123181 0.0797992,-0.197835 0.00409449,-0.0510236 -0.00478346,-0.114244 -0.0232756,-0.173996 -0.00692126,-0.0223583 -0.0151496,-0.0440945 -0.0244882,-0.0643622 -0.00950394,0.0182047 -0.0233268,0.0333425 -0.0432402,0.0418504 -0.00769685,0.00327953 -0.0151142,0.00529134 -0.0222402,0.00616142 -0.0244764,0.003 -0.0445079,-0.00561417 -0.0608228,-0.0212008 -0.0122795,-0.0117362 -0.0216417,-0.0272598 -0.0287087,-0.0438228 -0.0119134,-0.0279252 -0.0179252,-0.0600354 -0.0200945,-0.0777756 -0.00332677,-0.0271575 -0.00437402,-0.0530472 -0.00538976,-0.0782795 -0.0016378,-0.0406575 -0.00320079,-0.0794094 -0.0170827,-0.125201 -0.00661024,-0.0218071 -0.0151299,-0.0431693 -0.025563,-0.0634606 -0.0012126,0.011685 -0.00268898,0.023315 -0.00445669,0.0348701 -0.00752756,0.049252 -0.020311,0.0977835 -0.0401339,0.143858 -0.000283465,0.000759843 -0.000586614,0.00151969 -0.000917323,0.00227559 -0.0106693,0.0241732 -0.0220079,0.0415748 -0.0333819,0.0529961 -0.0204803,0.0205945 -0.042315,0.0258465 -0.0639213,0.0184331 -0.00100394,-0.000307087 -0.00200787,-0.000653543 -0.003,-0.00104724 -0.0272874,-0.0107795 -0.0462323,-0.0457677 -0.0519764,-0.094626 -0.000358268,-0.00305906 -0.000673228,-0.00620079 -0.000944882,-0.00940945 -0.000976378,0.00146063 -0.00194094,0.00293307 -0.00290157,0.00440945 -0.022252,0.0342795 -0.0402047,0.0727598 -0.0536535,0.113819z"/>
  <path class="fil0" d="M1.61137 4.09212c0.0219173,-0.00215354 0.0414409,0.0138661 0.0435945,0.0357835 0.00215354,0.0219173 -0.0138661,0.0414409 -0.0357835,0.0435945 -0.0986378,0.0100512 -0.0964331,-0.101807 -0.0686811,-0.204122 0.0203071,-0.0748898 0.0583976,-0.159917 0.0739685,-0.194067 0.0696811,-0.152858 0.111453,-0.232319 0.111575,-0.232547 0.0103543,-0.0194134 0.0344961,-0.0267598 0.0539094,-0.0164055 0.0103425,0.00551575 0.0172598,0.0149488 0.0199016,0.0254921l9.84252e-005 -2.3622e-005c7.48031e-005,0.000307087 0.0257283,0.107374 0.0951575,0.202457 0.0365709,0.0500787 0.0654567,0.106555 0.0787992,0.164354 0.0122362,0.053 0.011626,0.107114 -0.00748031,0.15876 -0.00505906,0.013685 -0.0176732,0.0369488 -0.0312638,0.0560748 -0.0123583,0.0173898 -0.0269882,0.0330197 -0.041252,0.0400787 -0.0197598,0.00974803 -0.043689,0.0016378 -0.053437,-0.018122 -0.00974803,-0.0197598 -0.0016378,-0.043689 0.018122,-0.053437 0.00118898,-0.000586614 0.00588189,-0.00677165 0.0115669,-0.0147717 0.00962992,-0.0135551 0.0181614,-0.0289409 0.0212638,-0.0373268 0.0133583,-0.0361142 0.0135748,-0.0748701 0.00466929,-0.113445 -0.0108189,-0.046874 -0.034815,-0.0934528 -0.0653661,-0.135291 -0.034189,-0.0468228 -0.0590197,-0.0960157 -0.0762126,-0.136839 -0.0175945,0.0363701 -0.0403504,0.0844567 -0.0675472,0.144118 -0.014563,0.0319449 -0.0501969,0.111484 -0.0692835,0.181878 -0.0116535,0.0429685 -0.0247441,0.104665 -0.0163189,0.103807z"/>
  <path class="fil1" d="M1.75023 3.07596c0.0106063,-0.000208661 0.0203268,0.00375197 0.0275984,0.0103701l5.51181e-005 -5.90551e-005c0.0256535,0.023311 0.0476024,0.0509094 0.0658504,0.0812244l7.08661e-005 -4.33071e-005c0.0188701,0.0313504 0.0337402,0.0659094 0.0446024,0.101752 0.0169094,0.0557874 0.0186693,0.0994173 0.0205157,0.145201 0.000893701,0.022248 0.00182283,0.0450827 0.00508268,0.0717205 0.00162992,0.013315 0.00596063,0.0369921 0.0141575,0.0562087 0.00272441,0.00638976 0.00565748,0.0119213 0.00865354,0.0155236 0.00305512,-0.00315354 0.00581496,-0.0113268 0.00811417,-0.0207638 0.0043937,-0.0180197 0.00512598,-0.0385276 0.00505512,-0.0522008 -8.66142e-005,-0.0220039 0.0176811,-0.0399134 0.039685,-0.04 0.0118898,-4.72441e-005 0.0225866,0.00512598 0.0299173,0.0133543l8.26772e-005 -7.48031e-005c0.0387441,0.0434803 0.0701417,0.106594 0.0908031,0.173346 0.021378,0.0690827 0.0315748,0.143059 0.0267087,0.203689 -0.00734646,0.0915118 -0.042122,0.17915 -0.0994843,0.244394 -0.00143307,0.00162992 -0.00287795,0.00324409 -0.00433465,0.00484252l0.465764 0 -0.394835 -0.539346c-0.0156063,-0.0185472 -0.0250157,-0.0424882 -0.0250157,-0.068626 0,-0.0589094 0.0477598,-0.106669 0.106669,-0.106669l0.133402 0 -0.305795 -0.548535c-0.0114173,-0.0169843 -0.0180827,-0.0374331 -0.0180827,-0.059437 0,-0.0589094 0.0477598,-0.106669 0.106669,-0.106669l0.0786732 0 -0.346256 -0.815646 -0.346256 0.815646 0.0786732 0 0 0.00034252c0.0175118,-1.5748e-005 0.0352717,0.00429528 0.0516654,0.0134094 0.051315,0.0285315 0.0697835,0.0932677 0.041252,0.144583l-0.310126 0.556307 0.133402 0 0 0.000244094c0.00490551,-3.93701e-006 0.00982283,0.000330709 0.0147087,0.00100787 0.00634646,-0.0115906 0.0130827,-0.0228898 0.0202087,-0.0338661 0.0255354,-0.0393307 0.0559055,-0.074315 0.0909331,-0.103276 0.0169961,-0.014063 0.042185,-0.011685 0.056248,0.00531102 0.00829134,0.0100197 0.0108661,0.0228858 0.00810236,0.0346417 -0.00724803,0.0395709 -0.00840157,0.075315 -0.00518504,0.102701l5.90551e-005 0.0005 0.000590551 -0.00124409c0.0167244,-0.0389567 0.0276535,-0.0808583 0.0342402,-0.123957 0.00688976,-0.045063 0.00903937,-0.0906929 0.00809449,-0.135283 -0.000429134,-0.0220039 0.0170591,-0.0401929 0.039063,-0.040622z"/>
  <path class="fil1" d="M3.49139 3.67135l-0.165776 0.297366 0.0228386 0c0.0589094,0 0.106669,0.0477598 0.106669,0.106669 0,0.0261378 -0.00940945,0.0500787 -0.0250157,0.068626l-0.210961 0.288177 0.357193 0 0.357197 0 -0.215142 -0.293886c-0.034748,-0.0474016 -0.0244843,-0.114004 0.0229173,-0.148752 0.0189843,-0.0139173 0.0410512,-0.0206102 0.0629173,-0.0205906l0 -0.000244094 0.0228346 0 -0.170102 -0.305138c-0.0285315,-0.051315 -0.010063,-0.116051 0.041252,-0.144583 0.0147323,-0.00819291 0.0305709,-0.0125 0.0463386,-0.0132795l-0.168213 -0.396244 -0.168067 0.395909c0.0563661,0.00284646 0.101201,0.0494567 0.101201,0.106531 0,0.0220039 -0.00666535,0.0424528 -0.0180827,0.059437z"/>
  <path class="fil1" d="M5.29019 3.64726c-0.00274803,-0.0117441 -0.000169291,-0.0245945 0.00811024,-0.0346024 0.014063,-0.0169961 0.039252,-0.019374 0.056248,-0.00531102 0.0224331,0.0185512 0.0424961,0.0401732 0.0601102,0.064185 0.00687795,-0.0013622 0.0138425,-0.00203543 0.0207835,-0.00202756l0 -0.000244094 0.0781181 0 -0.240114 -0.43072c-0.0285315,-0.051315 -0.010063,-0.116051 0.041252,-0.144583 0.0163898,-0.00911417 0.0341496,-0.0134291 0.0516654,-0.0134094l0 -0.00034252 0.0365748 0 -0.257134 -0.605709 -0.257134 0.605709 0.0365709 0c0.0589094,0 0.106669,0.0477598 0.106669,0.106669 0,0.0220039 -0.00666535,0.0424528 -0.0180827,0.059437l-0.235783 0.422949 0.0781181 0c0.0589094,0 0.106669,0.0477598 0.106669,0.106669 0,0.0261378 -0.00940945,0.0500787 -0.0250157,0.068626l-0.302898 0.41376 0.350547 0c-0.0342047,-0.0488819 -0.0549803,-0.108933 -0.0599803,-0.171161 -0.00390551,-0.0486772 0.00424803,-0.107965 0.0213583,-0.163252 0.0165787,-0.0535709 0.0418622,-0.104311 0.0731339,-0.139409l8.26772e-005 7.48031e-005c0.00733071,-0.00822835 0.0180276,-0.0134016 0.0299173,-0.0133543 0.0220039,8.66142e-005 0.0397717,0.0179961 0.039685,0.04 -4.72441e-005,0.00948819 0.000413386,0.0233189 0.00304331,0.0358898 0.00459055,-0.0129094 0.00714567,-0.0273425 0.00820472,-0.0359921 0.00255512,-0.020874 0.00327165,-0.0384961 0.00396063,-0.0556575 0.00147244,-0.0365276 0.00287795,-0.0713425 0.0164921,-0.116256 0.00875591,-0.0288858 0.0207205,-0.0567087 0.0358898,-0.0819094 0.0146575,-0.0243543 0.0324409,-0.0466772 0.053378,-0.0657008l5.51181e-005 5.90551e-005c0.00727165,-0.00661811 0.0169921,-0.0105787 0.0275984,-0.0103701 0.0220039,0.000429134 0.0394921,0.0186181 0.039063,0.040622 -0.000732283,0.0345039 0.000940945,0.0698661 0.00629134,0.104882 0.00261024,0.0170748 0.00609843,0.0338819 0.0106102,0.0502441 -0.000846457,-0.00947638 -0.0021811,-0.0194449 -0.00405906,-0.0297638z"/>
  <path class="fil0" d="M1.31422 3.87141c-0.0038189,0.0739055 0.0142244,0.170512 0.0568661,0.224492l0.129028 0c-0.122949,-0.0588071 -0.122736,-0.230016 -0.087189,-0.359327l-0.0987047 0.134835z"/>
  <path class="fil2" d="M1.69697 3.80643c-0.014563,0.0319449 -0.0501969,0.111484 -0.0692835,0.181878 -0.00908661,0.0335 -0.0190433,0.0783819 -0.019,0.0961299l0.22587 0 0.0461535 0c0.00940551,-0.0133622 0.0176732,-0.0283228 0.0207165,-0.0365512 0.0133583,-0.0361142 0.0135748,-0.0748701 0.00466929,-0.113445 -0.0108189,-0.046874 -0.034815,-0.0934528 -0.0653661,-0.135291 -0.034189,-0.0468228 -0.0590197,-0.0960157 -0.0762126,-0.136839 -0.0175945,0.0363701 -0.0403504,0.0844567 -0.0675472,0.144118z"/>
  <path class="fil3" d="M1.569 3.53939l-0.162244 0.221626c-0.027126,0.11778 -0.0227126,0.260587 0.073,0.323429l0.0544291 0c-0.00155512,-0.0351772 0.00540551,-0.0768583 0.016311,-0.117067 0.0203071,-0.0748898 0.0583976,-0.159917 0.0739685,-0.194067 0.0696811,-0.152858 0.111453,-0.232319 0.111575,-0.232547 0.0103543,-0.0194134 0.0344961,-0.0267598 0.0539094,-0.0164055 0.0103425,0.00551575 0.0172598,0.0149488 0.0199016,0.0254921l9.84252e-005 -2.3622e-005c7.48031e-005,0.000307087 0.0257283,0.107374 0.0951575,0.202457 0.0365709,0.0500787 0.0654567,0.106555 0.0787992,0.164354 0.00718504,0.031126 0.00994094,0.0626378 0.00712205,0.0938071 0.0379803,-0.0502126 0.0610787,-0.114358 0.0664685,-0.181488 0.00409449,-0.0510236 -0.00478346,-0.114244 -0.0232756,-0.173996 -0.00692126,-0.0223583 -0.0151496,-0.0440945 -0.0244882,-0.0643622 -0.00950394,0.0182047 -0.0233268,0.0333425 -0.0432402,0.0418504 -0.00769685,0.00327953 -0.0151142,0.00529134 -0.0222402,0.00616142 -0.0244764,0.003 -0.0445079,-0.00561417 -0.0608228,-0.0212008 -0.0122795,-0.0117362 -0.0216417,-0.0272598 -0.0287087,-0.0438228 -0.0119134,-0.0279252 -0.0179252,-0.0600354 -0.0200945,-0.0777756 -0.00332677,-0.0271575 -0.00437402,-0.0530472 -0.00538976,-0.0782795 -0.0016378,-0.0406575 -0.00320079,-0.0794094 -0.0170827,-0.125201 -0.00661024,-0.0218071 -0.0151299,-0.0431693 -0.025563,-0.0634606 -0.0012126,0.011685 -0.00268898,0.023315 -0.00445669,0.0348701 -0.00752756,0.049252 -0.020311,0.0977835 -0.0401339,0.143858l-0.000917323 0.00227559c-0.0106693,0.0241732 -0.0220079,0.0415748 -0.0333819,0.0529961 -0.0204803,0.0205945 -0.042315,0.0258465 -0.0639213,0.0184331 -0.00100394,-0.000307087 -0.00200787,-0.000653543 -0.003,-0.00104724 -0.0272874,-0.0107795 -0.0462323,-0.0457677 -0.0519764,-0.094626 -0.000358268,-0.00305906 -0.000673228,-0.00620079 -0.000944882,-0.00940945l-0.00290157 0.00440945c-0.00633465,0.00975591 -0.0123189,0.0198504 -0.0179488,0.030252 0.0286654,0.0366063 0.0308307,0.0891693 0.00199213,0.128508z"/>
  <path class="fil1" d="M1.31373 3.88808l-0.143748 0.196362 0.192823 0c-0.0337953,-0.0510472 -0.0495748,-0.130307 -0.0490748,-0.196362z"/>
  <path class="fil0" d="M5.48779 3.84702c0.0311142,0.0777677 0.0885827,0.221409 0.081,0.340138 -0.00758661,0.118756 -0.0782559,0.187913 -0.274,0.175409 -0.0201693,-0.00126378 -0.0354961,-0.0186457 -0.0342323,-0.038815 0.00126378,-0.0201693 0.0186457,-0.0354961 0.038815,-0.0342323 0.139756,0.0089252 0.19137,-0.0286496 0.19637,-0.106945 0.00653937,-0.102429 -0.0469055,-0.236016 -0.0758425,-0.308343 -0.0125039,-0.031252 -0.0211693,-0.0529173 -0.0211693,-0.0658307 0,-0.0255197 0.0121732,-0.0388189 0.0379331,-0.0388189 0.0140669,0 0.029811,0.00979134 0.0352126,0.0227362l0.00503937 0.0120787c0.00316929,0.0190866 0.00375984,0.0248425 0.010874,0.042622z"/>
  <path class="fil2" d="M5.12395 4.16638c-0.0066378,0.0287677 -0.00651575,0.0575827 0.00337008,0.0843031 0.000751969,0.0020315 0.00196063,0.00465748 0.00351181,0.00762992l0.0149685 0 0.198217 0c-0.00228346,-0.00733465 -0.0119764,-0.0275669 -0.0178622,-0.0492638 -0.0148701,-0.0548386 -0.0426102,-0.116764 -0.0539488,-0.141634 -0.017437,-0.038252 -0.0325354,-0.0704134 -0.045,-0.0964606 -0.0131614,0.028811 -0.0306772,0.0612047 -0.0533228,0.0922165 -0.0233622,0.0319921 -0.0417008,0.0675394 -0.0499331,0.103209z"/>
  <path class="fil3" d="M5.18288 3.86044l0 0zm0.161827 0.173843c0.0123425,0.0270748 0.0425433,0.0944803 0.0586339,0.153823 0.00677165,0.0249764 0.011311,0.0489409 0.0122638,0.0702008l0.0472008 0c0.0208661,-0.0180354 0.030874,-0.0434134 0.032937,-0.0757323 0.00368898,-0.0577795 -0.0117087,-0.125472 -0.0310276,-0.186492l-0.115114 -0.157244c-0.00628346,-0.0085748 -0.0110984,-0.0177756 -0.0144843,-0.0273031 -0.00251575,0.00155906 -0.00513386,0.00288189 -0.00784646,0.00395276 -0.0210827,0.00832283 -0.0422441,0.00403937 -0.0617913,-0.0155984 -0.00965748,-0.00970866 -0.0191929,-0.0242441 -0.0280118,-0.0442283l-0.000929134 -0.00231496c-0.0154646,-0.0360748 -0.0255551,-0.073937 -0.0315945,-0.112307 -0.00272047,0.00700787 -0.00516142,0.0141142 -0.00733465,0.0212756 -0.0105866,0.0349173 -0.0117953,0.0648543 -0.0130591,0.0962559 -0.000811024,0.0201417 -0.00164567,0.0408228 -0.00426772,0.0622165 -0.00176378,0.0144173 -0.00666929,0.040563 -0.0164291,0.063437 -0.0059685,0.0139803 -0.0139528,0.0271654 -0.0245354,0.0372795 -0.014622,0.0139646 -0.0326299,0.0216693 -0.0547244,0.0189685 -0.00635433,-0.000779528 -0.0129606,-0.00257087 -0.0197874,-0.00548031 -0.0121654,-0.00519685 -0.0217205,-0.0130866 -0.0291969,-0.0226614 -0.00462205,0.0112756 -0.00881102,0.0230197 -0.0125197,0.0350039 -0.0142205,0.0459528 -0.021063,0.0944882 -0.0179252,0.133559 0.00328346,0.0408858 0.0151614,0.0802795 0.0345276,0.113925 0.000688976,-0.0154528 0.00290551,-0.0309173 0.00644488,-0.0462559 0.0107559,-0.0465945 0.0339803,-0.0920354 0.0633661,-0.132272 0.0536378,-0.0734606 0.0733228,-0.155614 0.0734173,-0.155843 0.00261024,-0.0107756 0.00967717,-0.0204094 0.0202756,-0.0259449 0.0195,-0.0101811 0.0435669,-0.00262598 0.053748,0.016874 9.44882e-005,0.000181102 0.0330669,0.0629173 0.0877638,0.182906z"/>
  <path class="fil1" d="M5.56879 4.18716c-0.00167717,0.0262559 -0.00643701,0.0500906 -0.0149528,0.0711496l0.102843 0 -0.0881535 -0.120417c0.00112598,0.0167283 0.0012874,0.0332244 0.00026378,0.0492677z"/>
  <path class="fil2" d="M2.32189 2.44284l0.117724 0.277319c0.00442913,0.0104055 0.00707087,0.021126 0.00806693,0.031815 0.0279331,-0.000566929 0.0541496,-0.00514173 0.0784843,-0.0131063 0.00245669,-0.00224803 0.00729528,-0.00858661 0.0128189,-0.0163622 0.0106339,-0.0149685 0.0200787,-0.0320276 0.0235354,-0.0413701 0.0147638,-0.0399094 0.0150157,-0.082689 0.00519685,-0.125224 -0.0118622,-0.0514055 -0.0381457,-0.102441 -0.0716024,-0.148256 -0.0388858,-0.053252 -0.0665984,-0.109496 -0.0852717,-0.155028 -0.0221417,0.0455433 -0.052315,0.109185 -0.0889528,0.190213z"/>
  <path class="fil3" d="M2.56049 2.36078c0.0394764,0.0540551 0.0706496,0.114988 0.0850354,0.177319 0.00866535,0.0375276 0.0113386,0.0755591 0.00629528,0.112992 0.0461535,-0.0563307 0.0742087,-0.130693 0.0804803,-0.208764 0.00448425,-0.0558504 -0.00522047,-0.125008 -0.0254409,-0.190335 -0.00831102,-0.0268583 -0.0183465,-0.0529055 -0.0298425,-0.0769094 -0.0100236,0.0219606 -0.0253307,0.0404252 -0.0483976,0.0502795 -0.0080315,0.0034252 -0.0157835,0.00552756 -0.0232323,0.00644094 -0.0254409,0.00311811 -0.0462795,-0.00585827 -0.0632835,-0.0220984 -0.0129646,-0.0123858 -0.0228819,-0.0288543 -0.0303937,-0.0464567 -0.0127874,-0.0299606 -0.019248,-0.0644961 -0.0215827,-0.0835866 -0.00361417,-0.0294843 -0.00474409,-0.0574803 -0.00584252,-0.0847677 -0.0017874,-0.0443976 -0.00349606,-0.0867165 -0.0187087,-0.136906 -0.00840551,-0.0277205 -0.0195354,-0.0546811 -0.0333976,-0.0798071 -0.00148819,0.0165118 -0.00344882,0.0329449 -0.00593701,0.0492283 -0.00815354,0.053315 -0.0219882,0.105819 -0.0434331,0.155622l-0.000917323 0.00227953c-0.0114173,0.0258622 -0.0234921,0.0444213 -0.0355551,0.0565472 -0.0212362,0.0213228 -0.0437717,0.0267992 -0.0660079,0.0191457 -0.001,-0.000307087 -0.002,-0.000653543 -0.00298819,-0.00104331 -0.0284331,-0.0112283 -0.0482165,-0.0481969 -0.054311,-0.0999882 -0.000748031,-0.00635433 -0.00132283,-0.0130236 -0.00171654,-0.0199685 -0.00299606,0.0042874 -0.00592913,0.00863386 -0.00879134,0.0130433 -0.0212756,0.0327717 -0.0389449,0.0690315 -0.052878,0.107606l0.120012 0.282701c0.0650709,-0.140992 0.102677,-0.212559 0.102811,-0.212811 0.0103543,-0.0195 0.034563,-0.0269134 0.054063,-0.0165591 0.0113346,0.00601969 0.0185787,0.0167165 0.0206339,0.0284488 0.00450787,0.0174291 0.0337677,0.123087 0.103327,0.218346z"/>
  <path class="fil2" d="M2.95174 3.71391c-0.00777165,0.0336811 -0.00759843,0.0674685 0.00402362,0.0988898 0.00266535,0.00720472 0.010063,0.0205276 0.0184528,0.0323307 0.00373622,0.00525591 0.00680709,0.00949606 0.0081063,0.011126 0.014874,0.00477559 0.0306142,0.00794488 0.0471654,0.00929134 0.00362992,0.000291339 0.0638465,-0.00241339 0.112795,-0.00464567l0.0810236 -0.145343c-0.00589764,-0.00137795 -0.0117598,-0.00328346 -0.0175236,-0.00573622 -0.035937,-0.0152913 -0.0591142,-0.0480197 -0.0638661,-0.0841299 -0.0272638,-0.0603898 -0.0500984,-0.108965 -0.0677244,-0.145587 -0.0152677,0.0350079 -0.0364724,0.0757559 -0.0647953,0.114543 -0.0269646,0.0369213 -0.0481299,0.0779843 -0.0576575,0.11926z"/>
  <path class="fil3" d="M3.10335 3.3597c0.000102362,0.000192913 0.0267323,0.0508622 0.0724331,0.148685l0.0917992 -0.21624c-0.00926772,-0.0230551 -0.0202402,-0.044937 -0.0328661,-0.0652362 -0.00582283,0.043378 -0.023437,0.0744803 -0.0486378,0.0844252 -0.0218465,0.00862992 -0.043878,0.00408268 -0.0643583,-0.0164921 -0.0105236,-0.0105709 -0.0209528,-0.0265433 -0.0307008,-0.0486181l-0.000925197 -0.00229921c-0.017811,-0.0414488 -0.0292953,-0.085063 -0.0360512,-0.129287 -0.000850394,-0.0055748 -0.00162992,-0.0111693 -0.00233465,-0.0167795 -0.00633465,0.013878 -0.0117244,0.0282638 -0.0161654,0.0429134 -0.0122362,0.0403622 -0.013622,0.0747087 -0.0150748,0.110744 -0.000913386,0.022685 -0.00185039,0.0459764 -0.00482677,0.070252 -0.0019685,0.0160787 -0.0074252,0.0452087 -0.0182638,0.0706102 -0.00651969,0.0152756 -0.0151929,0.029626 -0.026626,0.0405512 -0.0154685,0.0147795 -0.0344843,0.022937 -0.0577756,0.0200906 -0.00674409,-0.000822835 -0.0137598,-0.00272835 -0.0210157,-0.00582283 -0.0160276,-0.00684252 -0.0278346,-0.0181732 -0.0364803,-0.0319094 -0.0068622,0.0157165 -0.0129843,0.0323228 -0.018252,0.0493465 -0.0163622,0.0528583 -0.0242165,0.108744 -0.0206024,0.153791 0.00433071,0.0539252 0.0216142,0.105638 0.0499528,0.147831 -0.000669291,-0.0233819 0.00197244,-0.0468858 0.00734252,-0.0701496 0.0120512,-0.0521969 0.0381063,-0.103161 0.0710906,-0.148323 0.0616535,-0.084437 0.0842126,-0.178594 0.0842756,-0.178866 0.00258268,-0.0108346 0.00966929,-0.0205315 0.020315,-0.0260906 0.0195,-0.0101811 0.0435669,-0.00262598 0.053748,0.016874z"/>
 </g>
 <rect class="fil4" width="6.82666" height="6.82666"/>
</svg>
