<?xml version="1.0" encoding="UTF-8"?>
<!DOCTYPE svg PUBLIC "-//W3C//DTD SVG 1.1//EN" "http://www.w3.org/Graphics/SVG/1.1/DTD/svg11.dtd">
<!-- Creator: CorelDRAW -->
<svg xmlns="http://www.w3.org/2000/svg" xml:space="preserve" width="6.82666in" height="6.82666in" style="shape-rendering:geometricPrecision; text-rendering:geometricPrecision; image-rendering:optimizeQuality; fill-rule:evenodd; clip-rule:evenodd"
viewBox="0 0 6.82666 6.82666"
 xmlns:xlink="http://www.w3.org/1999/xlink">
 <defs>
  <style type="text/css">
   <![CDATA[
    .fil3 {fill:none}
    .fil2 {fill:#63CBE5}
    .fil1 {fill:#F45A52}
    .fil0 {fill:#212121;fill-rule:nonzero}
   ]]>
  </style>
 </defs>
 <g id="Layer_x0020_1">
  <metadata id="CorelCorpID_0Corel-Layer"/>
  <g id="_517319304">
   <path id="_517318728" class="fil0" d="M3.53587 2.30767c-0.0174134,-0.0354291 -0.0698583,-0.0272992 -0.0756457,0.0119409 -0.00106693,0.00801575 0.000145669,0.015563 0.00361417,0.0228701l0.00415354 0.00857087 0.00416535 0.00856693 0.00418504 0.00855118 0.00418898 0.00854331 0.00421654 0.00854331 0.00422047 0.0085315 0.00424409 0.00852756 0.00425591 0.00851575 0.0019685 0.0039252c0.00690157,0.0135748 0.0202283,0.0218465 0.0354409,0.0220906 0.0300394,0 0.0493228,-0.0309921 0.0360866,-0.0579252l-0.0019685 -0.0039252 -0.00419291 -0.00838189 -0.00417323 -0.0083937 -0.00416535 -0.00840551 -0.00414567 -0.00840945 -0.00413386 -0.0084252 -0.00412205 -0.00843307 -0.00410236 -0.00843307 -0.00409055 -0.00844488zm1.36662 1.85335c0.0124252,0.0102323 0.0294961,0.0118622 0.0437756,0.00459449 0.025437,-0.0134134 0.0292047,-0.0481299 0.00695669,-0.0664528l-0.00288583 -0.0023622 -0.00753543 -0.00618898 -0.00752362 -0.00620079 -0.00750394 -0.00620866 -0.00748819 -0.00621654 -0.00748031 -0.00623228 -0.00746457 -0.00624409 -0.00744882 -0.00624803 -0.00577559 -0.00486614c-0.0159606,-0.0134055 -0.0393701,-0.0124173 -0.0541142,0.00232677 -0.0165394,0.0169055 -0.0154016,0.0434016 0.0025315,0.0588228l0.00587795 0.00495276 0.00755906 0.00634252 0.0075748 0.00633071 0.00758268 0.0063189 0.00759843 0.00631102 0.00761417 0.00629528 0.00762598 0.0062874 0.0076378 0.00627559 0.00288583 0.0023622zm-0.243382 -0.211232c0.0282402,0.0258858 0.0732638,0.00115748 0.0664252,-0.0367677 -0.00157874,-0.00860236 -0.00584646,-0.0160906 -0.0122126,-0.0220591l-0.00419685 -0.0038622 -0.00707087 -0.00652756 -0.00705118 -0.00653543 -0.00703937 -0.00655118 -0.00703543 -0.00655906 -0.00700787 -0.00656693 -0.00700394 -0.00658268 -0.00698031 -0.00658661 -0.00467717 -0.0044252c-0.0119134,-0.0111693 -0.0293504,-0.0142362 -0.0442205,-0.00733465 -0.0255157,0.0118465 -0.0314803,0.0460197 -0.0108268,0.0653819l0.00477165 0.00451969 0.00709055 0.00668898 0.0071063 0.00667717 0.00711811 0.00666929 0.00712992 0.00665354 0.00714173 0.00664567 0.00716929 0.0066378 0.00717323 0.00662205 0.00419685 0.0038622zm-0.230697 -0.225075c0.0275512,0.0281496 0.0746811,0.00426772 0.068185,-0.0347047 -0.0014685,-0.00801969 -0.00496063,-0.014937 -0.0106102,-0.0208386l-0.00273622 -0.00283071 -0.0066063 -0.00685827 -0.00658661 -0.00686614 -0.00658268 -0.00688189 -0.00656693 -0.0068937 -0.00654331 -0.0068937 -0.0065315 -0.00690551 -0.00651969 -0.00691732 -0.00609055 -0.00648425c-0.025374,-0.027063 -0.0709567,-0.00778346 -0.069126,0.0294291 0.000464567,0.00943307 0.00430315,0.0183937 0.0107638,0.0252874l0.00618504 0.00658661 0.00661417 0.00701969 0.00663386 0.00701575 0.00665354 0.00700394 0.00666142 0.00698819 0.00666929 0.00697638 0.00668898 0.00697638 0.00670866 0.00696063 0.00273622 0.00283071zm-0.216961 -0.238461c0.0244685,0.0284488 0.0710315,0.0107913 0.0704134,-0.0268858 -0.000311024,-0.00948819 -0.00344488,-0.0177638 -0.00956299,-0.0250433l-0.00568504 -0.00664567 -0.00611811 -0.00718504 -0.00611024 -0.00720472 -0.00610236 -0.00720866 -0.0060748 -0.00720866 -0.00606693 -0.00723228 -0.00605906 -0.00723622 -0.0060315 -0.00724016 -0.00296063 -0.00356299c-0.0227087,-0.0270354 -0.0664528,-0.0139764 -0.0705433,0.0210945 -0.00108661,0.0110551 0.00186614,0.0213543 0.00896063,0.0299685l0.00303937 0.00365748 0.00613386 0.00736614 0.00614567 0.00733858 0.00615354 0.00733465 0.00618504 0.00733465 0.0061811 0.00731102 0.00619685 0.00729921 0.00622047 0.00730315 0.00568504 0.00664567zm-0.202134 -0.251067c0.0216142,0.0280984 0.0657008,0.017 0.0714606,-0.018126 0.0016378,-0.0109094 -0.00111811,-0.021248 -0.00763386,-0.0301024l-0.00110236 -0.00145669 -0.00564961 -0.00749606 -0.00564567 -0.00751181 -0.00562598 -0.00751181 -0.00561024 -0.00752756 -0.00559843 -0.0075315 -0.00558268 -0.00753937 -0.00556693 -0.00755906 -0.00555906 -0.00755906 -0.00143307 -0.00196063c-0.0210236,-0.0285709 -0.0659449,-0.0178583 -0.0717874,0.0171929 -0.00160236,0.0106969 0.00073622,0.0212283 0.0071811,0.0299882l0.00152756 0.00208661 0.0056378 0.00767717 0.00565354 0.00766142 0.00566929 0.00766535 0.00568504 0.00764961 0.00569685 0.0076378 0.0057126 0.00762992 0.00572441 0.00762205 0.00574409 0.00761417 0.00110236 0.00145669zm-0.18652 -0.262965c0.0176142,0.0269094 0.0589803,0.0225 0.0705669,-0.00751969 0.00487402,-0.0120827 0.00317323,-0.0258898 -0.00391339,-0.0367165l-0.00165748 -0.00249606 -0.00516535 -0.00779921 -0.00515354 -0.00781496 -0.00514173 -0.00782283 -0.00512205 -0.00782677 -0.00511417 -0.00784646 -0.00510236 -0.00785433 -0.00507874 -0.00785433 -0.00507087 -0.0078622 -0.000799213 -0.00124803c-0.0194921,-0.0297835 -0.0644646,-0.0219331 -0.0727008,0.0127795 -0.00230315,0.0106299 -0.000511811,0.0211732 0.00533858,0.0303701l0.000877953 0.00136614 0.00514173 0.00798819 0.00516535 0.00798031 0.00517323 0.00796457 0.00518504 0.00795669 0.00520866 0.00796063 0.00522047 0.00794094 0.00523228 0.00793307 0.00525197 0.0079252 0.00165748 0.00249606zm-0.170142 -0.273839c0.0187165,0.0323307 0.0679213,0.0233937 0.0740709,-0.0134921 0.0015315,-0.00918504 -0.000173228,-0.0185315 -0.00484252,-0.0265945l-0.00179528 -0.00309449 -0.0046811 -0.00810236 -0.00466929 -0.00811024 -0.00464961 -0.00811811 -0.0046378 -0.00812598 -0.00462205 -0.00813386 -0.00461417 -0.00814961 -0.00459449 -0.00815354 -0.00458268 -0.00815748 -0.000444882 -0.000795276c-0.00834252,-0.0148583 -0.0251299,-0.0229409 -0.0419488,-0.0199094 -0.0269567,0.0048622 -0.041374,0.0349134 -0.0279252,0.0588701l0.000523622 0.000929134 0.00465354 0.00829134 0.00466535 0.00827165 0.00467717 0.00826772 0.00469291 0.00825984 0.00470866 0.00825197 0.00472835 0.00824409 0.00474016 0.00823622 0.00475197 0.00822047 0.00179528 0.00309449z"/>
   <path id="_517319424" class="fil0" d="M3.20487 2.31431c-0.0108819,-0.0380906 -0.0642717,-0.0391535 -0.0766378,-0.00140945 -0.00237795,0.00779528 -0.00254331,0.0150394 -0.000417323,0.0229213l0.0021378 0.00763386 0.00215748 0.0076378 0.00216142 0.00761417 0.0021811 0.00761811 0.00218898 0.00759843 0.00220079 0.00760236 0.00222047 0.00761024 0.00223228 0.00757874 0.00224016 0.00758268 0.00225591 0.00757874 0.000444882 0.00148819c0.00441339,0.0146378 0.016685,0.0255433 0.0317953,0.0280197 0.0290984,0.00477165 0.0533858,-0.0226575 0.0448583,-0.0509252l-0.000444882 -0.00148819 -0.00221654 -0.00742913 -0.00220079 -0.00744882 -0.00219291 -0.00746063 -0.00217323 -0.00743701 -0.00216142 -0.0074685 -0.00215748 -0.00748031 -0.00213386 -0.0074685 -0.00212992 -0.00748819 -0.00211024 -0.00748031 -0.00209843 -0.0075zm0.894327 1.74384c0.0265512,0.0277283 0.0730906,0.00585433 0.0687126,-0.0322953 -0.00116142,-0.00885433 -0.0046063,-0.0162953 -0.0107283,-0.0228228l-0.00534252 -0.00562992 -0.00532677 -0.0056378 -0.0053189 -0.00564961 -0.00530315 -0.00564961 -0.00529134 -0.00566142 -0.00527953 -0.00567323 -0.00525591 -0.00566929 -0.00208268 -0.00225591c-0.0272913,-0.0291102 -0.0753819,-0.00538189 -0.0688031,0.0340866 0.00137402,0.00762598 0.00473228,0.0144055 0.00997638,0.020126l0.00218504 0.00237402 0.00537402 0.00579528 0.00538189 0.00577559 0.0053937 0.00577953 0.00541339 0.00576772 0.00541339 0.00575197 0.00543701 0.00574803 0.00544488 0.00574016zm-0.199161 -0.22552c0.0231142,0.0280669 0.0685118,0.0134724 0.0709016,-0.0229843 0.000515748,-0.0102913 -0.00249606,-0.0196024 -0.00895669,-0.0276378l-0.00367717 -0.00448425 -0.00483465 -0.00593307 -0.00483858 -0.00596063 -0.00482283 -0.00595669 -0.00479921 -0.00595669 -0.00479134 -0.00597244 -0.00478346 -0.00598031 -0.00477165 -0.00599606 -0.00475197 -0.00598819 -0.00474409 -0.00600394 -0.00278346 -0.00353937c-0.0219291,-0.027811 -0.0664409,-0.0156024 -0.0711457,0.019689 -0.00125984,0.0109646 0.00148819,0.0209646 0.00822441,0.0297205l0.00287795 0.00364961 0.00483858 0.00612992 0.00485433 0.00612205 0.00486614 0.0061063 0.00487008 0.00609843 0.0048937 0.00609843 0.00490945 0.00609055 0.00491732 0.0060748 0.0049252 0.00606299 0.00494488 0.00606693 0.00367717 0.00448425zm-0.194579 -0.257937c0.0215236,0.0305866 0.069063,0.0180827 0.0727283,-0.0191772 0.000783465,-0.00955512 -0.00152362,-0.018437 -0.00694882,-0.0263583l-0.00112205 -0.00161811 -0.0043189 -0.00625197 -0.00431496 -0.00627165 -0.00429528 -0.00627165 -0.00428346 -0.00628346 -0.00428346 -0.00629921 -0.00425197 -0.00628346 -0.00424016 -0.00630315 -0.00424409 -0.00632283 -0.00421654 -0.00631102 -0.0042126 -0.00633465 -0.000629921 -0.000948819c-0.0194016,-0.0296417 -0.0656063,-0.0207047 -0.0725591,0.0140551 -0.0021378,0.0105079 -4.72441e-005,0.0210906 0.0058189,0.0300551l0.000724409 0.00109055 0.00429134 0.00645276 0.00431102 0.00645276 0.00431496 0.00643307 0.00433465 0.00643701 0.00435433 0.00643307 0.00435433 0.00640945 0.00437008 0.00640945 0.00438976 0.00640551 0.0043937 0.00638976 0.00441339 0.0063937 0.00112205 0.00161811zm-0.173146 -0.272878c0.00835039,0.0144252 0.0243583,0.0219449 0.0407992,0.0195197 0.0277047,-0.0044685 0.0425748,-0.0351732 0.0284685,-0.0595433l-0.00209055 -0.0036063 -0.00378346 -0.00656693 -0.00377953 -0.00659055 -0.00376772 -0.00658661 -0.00374803 -0.00659449 -0.00374016 -0.00660236 -0.00372441 -0.0066063 -0.0037126 -0.00662205 -0.00370079 -0.00662205 -0.00368898 -0.00663386 -0.00327953 -0.00592126c-0.0194252,-0.0346024 -0.0716457,-0.0233228 -0.0749134,0.0165197 -0.000511811,0.00781102 0.00110236,0.0152913 0.00488976,0.0221575l0.00335039 0.00605512 0.00375984 0.00676772 0.00377953 0.00676378 0.00378346 0.00674016 0.00380315 0.00675591 0.0038189 0.00673622 0.00382677 0.00672835 0.00383858 0.00672047 0.00385039 0.00670866 0.00387008 0.00671654 0.00209055 0.0036063zm-0.150583 -0.285917c0.0150276,0.0316693 0.0608307,0.0299646 0.0734843,-0.00282283 0.00385039,-0.0104488 0.00359055,-0.0213622 -0.00120866,-0.0314764l-0.00273228 -0.00574803 -0.00325591 -0.00687795 -0.00324409 -0.00688583 -0.00323228 -0.00688976 -0.00321654 -0.00689764 -0.00320866 -0.00690945 -0.00319291 -0.00690945 -0.00317717 -0.00691339 -0.00316535 -0.0069252 -0.00315354 -0.00693307 -0.00179921 -0.00398031c-0.00632677,-0.0140591 -0.0203307,-0.0232913 -0.0357362,-0.0235394 -0.0293622,-0.000480315 -0.0492087,0.0297283 -0.0371772,0.0564685l0.0018622 0.0041063 0.00321654 0.00706693 0.00322835 0.00706693 0.00324803 0.00706299 0.00325591 0.00705118 0.00327165 0.00704331 0.00327953 0.0070315 0.00329528 0.0070315 0.00330709 0.00701969 0.0033189 0.00701181 0.00273228 0.00574803zm-0.12737 -0.296831c0.0133543,0.0339409 0.0606181,0.034311 0.0745315,0.000433071 0.00369685,-0.00957874 0.00379921,-0.0194291 0.000169291,-0.0290551l-0.000877953 -0.0022874 -0.00273228 -0.00715748 -0.00272047 -0.00716929 -0.0027126 -0.0071811 -0.00269685 -0.00717323 -0.00268504 -0.00719291 -0.00267717 -0.00720472 -0.00265354 -0.00719291 -0.00264567 -0.0072126 -0.0026378 -0.00722047 -0.00261417 -0.00720079 -3.93701e-006 -1.5748e-005c-0.0115118,-0.0323937 -0.0565197,-0.0358189 -0.0728504,-0.00540551 -0.00545669,0.00997244 -0.00620866,0.0218346 -0.00242126,0.0325079l4.33071e-005 0.000110236 0.00267323 0.00736614 0.00268504 0.00735433 0.00269291 0.00734646 0.00271654 0.00735039 0.00272441 0.00733071 0.00273228 0.00732677 0.00275197 0.00733071 0.00275984 0.00730709 0.00277559 0.00731102 0.00279528 0.00730709 0.000877953 0.0022874zm-0.0282283 -0.0757283l0.0752756 -0.0270866"/>
   <path id="_517319208" class="fil0" d="M2.87277 2.32278c-0.00233465,-0.0385276 -0.0525866,-0.0517795 -0.0735669,-0.0193543 -0.00457087,0.00706299 -0.00680709,0.0155472 -0.00629921,0.0239449l0.000527559 0.00902756 0.000547244 0.00902362 0.000570866 0.00902362 0.000594488 0.00900394 0.000606299 0.00899606 0.000633858 0.00898425 0.000645669 0.00898031 0.000673228 0.00897244 0.000653543 0.00853543c0.00275984,0.0364488 0.0492638,0.0503268 0.0715906,0.0213622 0.00603543,-0.00799213 0.00894094,-0.0174016 0.0081811,-0.0274173l-0.000653543 -0.00853543 -0.00065748 -0.00878346 -0.000637795 -0.00879921 -0.00061811 -0.00880315 -0.000598425 -0.00881496 -0.00057874 -0.00882283 -0.000555118 -0.00882677 -0.00053937 -0.00884252 -0.000519685 -0.00885433zm0.617996 1.86913c0.0236339,0.0286969 0.070311,0.0123976 0.0709213,-0.0247953 0,-0.00964173 -0.00290551,-0.0184606 -0.00907087,-0.0259449l-0.00102756 -0.00124803 -0.00523622 -0.00639764 -0.00520866 -0.00640551 -0.00519291 -0.00641732 -0.00517323 -0.00643701 -0.00514567 -0.00642913 -0.00512598 -0.00646063 -0.00511811 -0.0064685 -0.00509055 -0.00647638 -0.00506693 -0.00648425 -0.00185827 -0.0023937c-0.00916929,-0.0119213 -0.0245394,-0.0176732 -0.0392835,-0.0147717 -0.0292598,0.00585039 -0.0421417,0.0401299 -0.0239606,0.0637638l0.00199213 0.00256693 0.00520866 0.00666535 0.00523228 0.00665748 0.00524409 0.00663386 0.00526772 0.00662598 0.00529528 0.00662598 0.00531496 0.00660236 0.00532677 0.00659055 0.00535827 0.00658661 0.00537008 0.00656299 0.00102756 0.00124803zm-0.192 -0.261256c0.0103898,0.015874 0.0307205,0.0224843 0.0483858,0.0152992 0.0233583,-0.00926378 0.0323819,-0.0379803 0.0186378,-0.0589764l-0.00323228 -0.00494882 -0.00444094 -0.00683858 -0.00442126 -0.00684646 -0.00440157 -0.00686614 -0.00438976 -0.00687402 -0.00435433 -0.00687402 -0.00434252 -0.00689764 -0.00432283 -0.00690157 -0.00429921 -0.00692126 -0.00414567 -0.00670472c-0.0104213,-0.0166772 -0.0306024,-0.0232992 -0.0489173,-0.0161614 -0.023126,0.00940551 -0.0321457,0.0367953 -0.0191929,0.0581299l0.00426378 0.0068937 0.00441732 0.00710236 0.00444094 0.00709843 0.00446063 0.00708661 0.00448819 0.00707874 0.0045 0.00705512 0.00451969 0.00704724 0.00454724 0.00704331 0.00456693 0.00702756 0.00323228 0.00494882zm-0.162484 -0.280579c0.0164567,0.0323661 0.0638937,0.0279764 0.074189,-0.00714961 0.00271654,-0.0100236 0.00179921,-0.0195906 -0.0027874,-0.0289213l-0.00346063 -0.00682283 -0.00365748 -0.00726772 -0.00364173 -0.00728346 -0.00361811 -0.00728346 -0.00359055 -0.00729134 -0.00358268 -0.00731496 -0.00356299 -0.00732677 -0.0035315 -0.0073189 -0.00351575 -0.00733858 -0.00268898 -0.00564567c-0.0160118,-0.0337402 -0.0656929,-0.0289488 -0.0749291,0.00737402 -0.0022874,0.00900394 -0.00133465,0.0185118 0.00264567,0.0269016l0.00277559 0.00583465 0.00361024 0.00754331 0.00364173 0.00753937 0.00365748 0.00751575 0.00366929 0.00750394 0.00370079 0.00750394 0.00372047 0.00748819 0.00373622 0.00747244 0.00375984 0.00746457 0.00346063 0.00682283zm-0.13113 -0.296331c0.00435039,0.0115394 0.0135748,0.0200945 0.0252441,0.0239173 0.0320787,0.00995669 0.0612205,-0.0208504 0.0495512,-0.0523031l-0.000669291 -0.00176378 -0.00289764 -0.00767323 -0.00288189 -0.00767717 -0.00285827 -0.00768504 -0.00283465 -0.00770079 -0.00282283 -0.0077126 -0.00279528 -0.00771654 -0.00277953 -0.00772835 -0.00275984 -0.00774803 -0.00274016 -0.00775197 -0.00103543 -0.00295669c-0.005,-0.0140945 -0.0168465,-0.0239409 -0.0315866,-0.0263583 -0.0300591,-0.00443307 -0.0536929,0.0239528 -0.0439567,0.0526969l0.00111417 0.00317717 0.00281102 0.00794882 0.00283071 0.00794488 0.00285039 0.00793307 0.00287402 0.00792913 0.0028937 0.00790945 0.00291339 0.00790551 0.00293701 0.00789764 0.00295276 0.00788189 0.00297638 0.00787008 0.000669291 0.00176378zm-0.099374 -0.308409c0.00967323,0.0358465 0.0582717,0.0406024 0.074811,0.00691339 0.0040315,-0.0086811 0.00499213,-0.0180906 0.00252756,-0.0273701l-0.00212598 -0.00799213 -0.00212205 -0.00807087 -0.00210236 -0.00807087 -0.00208268 -0.00809449 -0.00206299 -0.00809843 -0.00204331 -0.0081063 -0.00202756 -0.00812205 -0.002 -0.00812205 -0.00198425 -0.00814173 -0.000917323 -0.00379921c-0.00794488,-0.0339016 -0.0534055,-0.0418937 -0.0723504,-0.0126181 -0.00611811,0.00917717 -0.00795669,0.0205551 -0.00545276,0.031248l0.000972441 0.00401181 0.0020315 0.00833858 0.00205512 0.00833465 0.0020748 0.0083189 0.00209055 0.00831102 0.00211811 0.00829528 0.00212992 0.00828346 0.00215748 0.00829134 0.00217717 0.00826772 0.00212598 0.00799213zm-0.0683307 -0.316343c0.00281496,0.0166378 0.0156457,0.029811 0.0322874,0.032811 0.0271614,0.00489764 0.051248,-0.0186378 0.0466339,-0.0459134l-0.000692913 -0.00414961 -0.00138976 -0.00843307 -0.00137008 -0.00843701 -0.00134646 -0.00845669 -0.00133071 -0.00846457 -0.00130709 -0.00846063 -0.00129134 -0.00849213 -0.00127165 -0.00849606 -0.00124803 -0.00849606 -0.000913386 -0.00628346c-0.00629134,-0.0408858 -0.0621299,-0.0470394 -0.0771142,-0.0082126 -0.00233071,0.00643701 -0.00301575,0.0127756 -0.0020748,0.0195591l0.000937008 0.00648031 0.00127953 0.00870079 0.00130315 0.00868504 0.00131496 0.00866535 0.00133858 0.00867323 0.0013622 0.00865354 0.00137795 0.00864567 0.00140157 0.00864961 0.00142126 0.00862205 0.000692913 0.00414961z"/>
   <path id="_517318704" class="fil0" d="M2.5385 2.33316c0.00706299,-0.0347717 -0.0311811,-0.0609055 -0.0609528,-0.0416417 -0.00901181,0.00600787 -0.0152244,0.0147874 -0.0173937,0.0254606l-0.00148819 0.00724016 -0.00147244 0.00723622 -0.00146063 0.00722441 -0.00144488 0.00722047 -0.00143307 0.00722047 -0.00141339 0.00720866 -0.00140551 0.0072126 -0.00138189 0.00720079 -0.00137795 0.00719291 -0.00135433 0.00719291 -0.0013189 0.00705118c-0.00696457,0.0377165 0.0379606,0.0627283 0.0663937,0.0368228 0.00632283,-0.00575984 0.0106772,-0.0136457 0.0122283,-0.0220512l0.0013189 -0.00705118 0.00133071 -0.00704331 0.00134646 -0.00705906 0.00135827 -0.00705906 0.00137402 -0.00705512 0.00138976 -0.0070748 0.00140157 -0.00707087 0.00142126 -0.00708661 0.00142913 -0.00709843 0.00144882 -0.00709449 0.00145669 -0.00709843zm0.034748 1.65974c0.0171575,0.0337441 0.0674803,0.0268543 0.0749094,-0.0102913 0.00175591,-0.0087874 0.000507874,-0.0178898 -0.00355512,-0.0258819 -0.00273622,-0.00547244 -0.00538976,-0.0108465 -0.00797638,-0.016378l3.93701e-005 8.66142e-005 -0.000204724 -0.00046063 7.87402e-006 1.5748e-005 -0.000248031 -0.000570866 1.9685e-005 4.72441e-005 -0.000374016 -0.000877953 -0.00224016 -0.00538976 -0.00222441 -0.0053937 -0.00220866 -0.0053937 -0.00219291 -0.00541732 -0.0021811 -0.00541339 -0.00216142 -0.00542126 -0.00215748 -0.00544094 -0.0021378 -0.00544882 -0.00212598 -0.00543701 -0.00115748 -0.00300394c-0.0147126,-0.0373976 -0.0687441,-0.0325748 -0.0766181,0.00679528 -0.00137795,0.00764173 -0.000795276,0.0146339 0.00194882,0.0219134l0.00125197 0.00324016 0.00220472 0.00565748 0.00221654 0.0056378 0.00222835 0.00562992 0.00224803 0.00564173 0.00226772 0.00562598 0.00227953 0.00561417 0.00229528 0.00561417 0.00231102 0.0056063 0.00232677 0.00559449c0.00337402,0.00801181 0.0073189,0.0157244 0.0112087,0.0235zm-0.108047 -0.309756c0.0101299,0.0375354 0.0620709,0.0403071 0.076122,0.00390157 0.00289764,-0.00787008 0.00339764,-0.0161457 0.00124016,-0.0242717l-0.000637795 -0.00242126 -0.00150787 -0.00575197 -0.00148425 -0.00573622 -0.00147638 -0.00577165 -0.00146457 -0.00577165 -0.00144488 -0.00577165 -0.00142913 -0.00577953 -0.00141732 -0.00579921 -0.00140551 -0.00579921 -0.00138583 -0.0057874 -0.00137008 -0.0058189 -0.0013622 -0.00582283 -0.00133858 -0.00581102 -0.00102756 -0.00448819c-0.00810236,-0.0345669 -0.0533858,-0.0425787 -0.0727126,-0.0127126 -0.0058189,0.00927559 -0.00765354,0.0196693 -0.00531102,0.030374l0.00106693 0.00468504 0.0013937 0.00604724 0.00140945 0.00601969 0.00141732 0.00600787 0.00144094 0.0060315 0.00145276 0.00599606 0.00146457 0.00598819 0.00148425 0.00599213 0.0015 0.00599213 0.00151181 0.0059685 0.00152362 0.00596063 0.00154724 0.00598031 0.00156299 0.00594882 0.000637795 0.00242126zm-0.0613189 -0.319307c0.00182677,0.0148543 0.0119016,0.0275866 0.0259882,0.032685 0.0280866,0.0101693 0.0570551,-0.0128386 0.0534055,-0.0424803l-0.000228346 -0.00185827 -0.000748031 -0.00611811 -0.000728346 -0.00611024 -0.000716535 -0.00612205 -0.000700787 -0.00612598 -0.000688976 -0.00614173 -0.000673228 -0.00615354 -0.000661417 -0.00615748 -0.000645669 -0.00615354 -0.000625984 -0.00615748 -0.00061811 -0.00617717 -0.000598425 -0.00617717 -0.000586614 -0.00618898 -0.000244094 -0.00261811c-0.00224016,-0.0242874 -0.0255,-0.041 -0.0492402,-0.0352559 -0.0192559,0.00465748 -0.032252,0.0227677 -0.0304291,0.0425079l0.000259843 0.00282283 0.000602362 0.00637008 0.000622047 0.00638189 0.000633858 0.00635827 0.000649606 0.00637008 0.000669291 0.00635827 0.000677165 0.00633858 0.00069685 0.00633465 0.000704724 0.00633071 0.000724409 0.00633071 0.000740157 0.00632677 0.000759843 0.00632283 0.000771654 0.00629921 0.000228346 0.00185827zm-0.0203583 -0.323898c0.000582677,0.0385354 0.0489488,0.0543504 0.0721614,0.0236063 0.00519685,-0.00707087 0.00783858,-0.0151929 0.00783858,-0.0239685l-3.93701e-006 -0.00126772 -1.9685e-005 -0.00644094 -7.87402e-006 -0.00646063 7.87402e-006 -0.00646063 2.3622e-005 -0.0064685 3.54331e-005 -0.00647244 5.51181e-005 -0.00647244 6.29921e-005 -0.00650787 7.87402e-005 -0.00648425 9.84252e-005 -0.00649606 0.000106299 -0.00652756 0.000122047 -0.00650787 0.000137795 -0.00635433c0.000570866,-0.0378031 -0.0460945,-0.0554331 -0.0707441,-0.0264685 -0.00590551,0.00730315 -0.00894882,0.0152717 -0.00923228,0.0246811l-0.000145669 0.00654331 -0.000122047 0.00669685 -0.000114173 0.00666929 -9.84252e-005 0.00668504 -7.87402e-005 0.0066811 -7.08661e-005 0.00664961 -5.51181e-005 0.00666142 -3.54331e-005 0.00666142 -2.3622e-005 0.00664173 -7.87402e-006 0.00664961 7.87402e-006 0.00662598 1.9685e-005 0.0066378 3.93701e-006 0.00126772zm0.0153898 -0.323591c-0.0027874,0.0301929 0.0269764,0.0522283 0.055122,0.0408701 0.0138465,-0.00593307 0.022878,-0.0180551 0.0244921,-0.0330512l0.000267717 -0.00277953 0.000669291 -0.00676378 0.000685039 -0.00676378 0.000700787 -0.00676378 0.000716535 -0.0067874 0.000728346 -0.0067874 0.000744094 -0.0067874 0.000755906 -0.00680315 0.000771654 -0.00680709 0.000787402 -0.00680315 0.00080315 -0.00682283 0.000811024 -0.0068189 0.000133858 -0.00108661c0.00173228,-0.0140827 -0.00419291,-0.0281772 -0.0155315,-0.0367402 -0.0246024,-0.0185787 -0.0601142,-0.0035748 -0.063878,0.0270157l-0.000149606 0.00123622 -0.000834646 0.00698425 -0.000818898 0.00697244 -0.00080315 0.00697638 -0.000787402 0.00695669 -0.000779528 0.00695276 -0.000759843 0.00696063 -0.000744094 0.00693701 -0.000732283 0.00693701 -0.000716535 0.00693701 -0.000700787 0.00693701 -0.000685039 0.00691339 -0.000267717 0.00277953z"/>
   <g>
    <path id="_517319400" class="fil0" d="M2.57015 1.83813c0.0589094,0 0.106669,0.0477598 0.106669,0.106669 0,0.0589094 -0.0477598,0.106669 -0.106669,0.106669l-1.41461 0c-0.133264,0 -0.239898,-0.0395984 -0.303799,-0.0991063 -0.0396929,-0.0369606 -0.0645866,-0.0819685 -0.0723386,-0.132 -0.0077874,-0.0502008 0.00229528,-0.102008 0.0326299,-0.152043 0.046748,-0.0771181 0.146913,-0.151882 0.311425,-0.203874 0.0657205,-0.0207677 0.133594,-0.0300669 0.198996,-0.0390236 0.0884252,-0.0121063 0.170701,-0.023378 0.200402,-0.0621339 0.262311,-0.342315 0.892587,-0.262004 1.55602,-0.177472 0.0211732,0.00269685 -0.0458307,-0.00582677 0.138476,0.0171535l2.38907 0.297945c0.16878,0.0210472 0.278012,0.0869961 0.329835,0.164012 0.0287638,0.0427402 0.041437,0.0891811 0.0386772,0.135736 -0.00276772,0.0466614 -0.0208071,0.0910079 -0.0534685,0.129504 -0.059311,0.0698937 -0.171547,0.121303 -0.327961,0.121303l-0.00714567 0c-0.0589094,0 -0.106669,-0.0477598 -0.106669,-0.106669 0,-0.0589094 0.0477598,-0.106669 0.106669,-0.106669l0.00714567 0c0.088185,0 0.143228,-0.0192717 0.165457,-0.0454685 0.00227953,-0.00268898 0.00345276,-0.00421654 0.0034685,-0.00450394 2.3622e-005,-0.000397638 -0.000917323,-0.00203937 -0.00284252,-0.00490157 -0.0203898,-0.0303031 -0.0779134,-0.0580709 -0.179,-0.0706732l-2.38907 -0.297945c-0.0915512,-0.0114134 -0.0257953,-0.00352756 -0.139311,-0.0179882 -0.601173,-0.0765984 -1.17231,-0.14937 -1.36018,0.0958031 -0.0831063,0.108449 -0.20752,0.125496 -0.341236,0.143803 -0.0549291,0.00751969 -0.111937,0.0153307 -0.163161,0.0315197 -0.11115,0.035126 -0.172087,0.0745197 -0.193921,0.110543 -0.00311417,0.0051378 -0.00449213,0.00829134 -0.00429921,0.00953937 0.000216535,0.00141732 0.00275591,0.00440157 0.00733858,0.00866929 0.0268228,0.0249764 0.0817441,0.0416024 0.158799,0.0416024l1.41461 0zm2.35114 0c0.0589094,0 0.106669,0.0477598 0.106669,0.106669 0,0.0589094 -0.0477598,0.106669 -0.106669,0.106669l-1.40808 0c-0.0589094,0 -0.106669,-0.0477598 -0.106669,-0.106669 0,-0.0589094 0.0477598,-0.106669 0.106669,-0.106669l1.40808 0z"/>
    <path id="_517318752" class="fil0" d="M3.16041 1.74283c-0.0416496,-0.0416496 -0.0416496,-0.109185 0,-0.150835 0.0416496,-0.0416496 0.109185,-0.0416496 0.150835,0l0.693425 0.693445c0.0416496,0.0416496 0.0416496,0.109185 0,0.150835 -0.0208228,0.0208228 -0.048122,0.0312362 -0.0754173,0.0312362l0 1.5748e-005 -0.693437 0c-0.0230354,0 -0.0443701,-0.00730709 -0.0618071,-0.0197244l-1.10393 -0.689972c-0.0499331,-0.0310669 -0.0652323,-0.0967362 -0.0341654,-0.146669 0.0310669,-0.0499331 0.0967362,-0.0652323 0.146669,-0.0341654l1.08348 0.677193 0.405689 0 -0.511343 -0.511358z"/>
    <path id="_517318872" class="fil0" d="M5.50076 2.02022c-0.0416496,-0.0416496 -0.0416496,-0.109185 0,-0.150835 0.0416496,-0.0416496 0.109185,-0.0416496 0.150835,0l0.297276 0.297295c0.0416496,0.0416496 0.0416496,0.109185 0,0.150835 -0.0208228,0.0208228 -0.048122,0.0312362 -0.0754173,0.0312362l0 1.5748e-005 -0.422567 0c-0.020815,0 -0.0402362,-0.00597244 -0.0566535,-0.0162835l-0.544575 -0.293929c-0.0517756,-0.0278425 -0.0711772,-0.0923937 -0.0433346,-0.144169 0.0278425,-0.0517756 0.0923937,-0.0711772 0.144169,-0.0433346l0.526878 0.284378 0.138591 0 -0.115201 -0.115209z"/>
    <path id="_517319160" class="fil0" d="M5.72162 1.62408c-0.0416496,0.0416496 -0.109185,0.0416496 -0.150835,0 -0.0416496,-0.0416496 -0.0416496,-0.109185 0,-0.150835l0.115201 -0.115209 -0.138591 0 -0.432339 0.23335c-0.0517756,0.0278425 -0.116327,0.00844094 -0.144169,-0.0433346 -0.0278425,-0.0517756 -0.00844094,-0.116327 0.0433346,-0.144169l0.450035 -0.242902c0.0164173,-0.010311 0.0358386,-0.0162835 0.0566535,-0.0162835l0.422567 0 0 1.5748e-005c0.0272953,0 0.0545945,0.0104094 0.0754173,0.0312362 0.0416496,0.0416496 0.0416496,0.109185 0,0.150835l-0.297276 0.297295z"/>
   </g>
   <path id="_517319112" class="fil0" d="M5.77207 5.56841c-0.0892362,-0.0556102 -0.151591,-0.119921 -0.190807,-0.187433 -0.0433976,-0.0747126 -0.0585827,-0.153173 -0.0505787,-0.228394 0.00796063,-0.0747992 0.0389094,-0.145961 0.0878504,-0.206606 0.027374,-0.0339173 0.0604173,-0.0645787 0.0982205,-0.0907402 -0.0360315,0.00511417 -0.0675669,0.0124567 -0.0953504,0.0216024 -0.0692638,0.0228031 -0.114858,0.056937 -0.149331,0.0954724 -0.152724,0.17072 -0.298157,0.268984 -0.396717,0.294724 -0.0412992,0.0107835 -0.0768898,0.00984252 -0.10465,-0.00277165 -0.0325039,-0.0147677 -0.0527402,-0.0426929 -0.0580197,-0.0836378 -0.0072874,-0.0565118 0.0181732,-0.143142 0.0873504,-0.258433 0.0198228,-0.0330236 0.0415512,-0.063311 0.0619724,-0.089252 0.0327323,-0.0415709 0.0631969,-0.0733937 0.0765472,-0.0868031 0.058811,-0.0590787 0.10626,-0.122744 0.109811,-0.193185 0.00291339,-0.0577047 -0.0230945,-0.123394 -0.095378,-0.200323 -0.0375906,0.317016 -0.171815,0.475504 -0.314169,0.538642 -0.0674843,0.0299291 -0.136878,0.0382992 -0.19915,0.0318307 -0.0632047,-0.00656693 -0.119689,-0.0287165 -0.160091,-0.0594213 -0.0574449,-0.0436575 -0.0844094,-0.104287 -0.0605079,-0.166598 0.0272008,-0.0709488 0.0680315,-0.121437 0.130823,-0.16165l-4.72441e-005 -7.08661e-005c0.0179252,-0.0114764 0.0376102,-0.0220039 0.0592638,-0.0318622 -0.304961,-0.00404331 -0.380461,0.143843 -0.451516,0.28315 -0.075878,0.148756 -0.147472,0.289114 -0.417094,0.278091 -0.0689409,-0.00281496 -0.124441,-0.0133858 -0.167673,-0.0298622 -0.0453819,-0.0172992 -0.0783898,-0.0413701 -0.100185,-0.0702638 -0.0231535,-0.030689 -0.0332362,-0.0658898 -0.0316969,-0.103642 0.000913386,-0.0223819 0.00588976,-0.0452047 0.0145906,-0.0680394 0.0686772,-0.180169 0.29237,-0.253626 0.506209,-0.323835 0.0626969,-0.0205866 0.124512,-0.0408898 0.179563,-0.0630079 0.140016,-0.0562598 0.241457,-0.127315 0.213697,-0.260295 -0.191461,0.132244 -0.373213,0.18726 -0.539165,0.23748 -0.164311,0.0497244 -0.312453,0.0945591 -0.432492,0.206685 -0.0673819,0.062937 -0.0928583,0.144354 -0.117039,0.221642 -0.0270984,0.0866102 -0.0527874,0.168701 -0.128933,0.228882 -0.0331575,0.0373976 -0.116846,0.0761299 -0.202846,0.0960472 -0.0908228,0.0210354 -0.188283,0.0221181 -0.240421,-0.0190394l-9.44882e-005 -7.48031e-005 -5.90551e-005 7.48031e-005 -0.000720472 -0.000574803c-0.00069685,-0.000555118 -0.00137008,-0.00112992 -0.00201969,-0.00172047 -0.0312126,-0.026189 -0.0457441,-0.0644213 -0.0346142,-0.117673 0.00804724,-0.0385157 0.0307677,-0.0859803 0.0727323,-0.143843 0.0483425,-0.0666693 0.115941,-0.128799 0.176744,-0.184689 0.0641772,-0.0589882 0.120043,-0.110335 0.126618,-0.139827 0.00553937,-0.0248543 -0.0166102,-0.0506181 -0.053248,-0.0765236 -0.0262323,-0.0185472 -0.0589409,-0.0362835 -0.0948583,-0.0534449 0.00337795,0.0139567 0.00586614,0.0280906 0.0074685,0.042315 0.00749213,0.0666378 -0.00474803,0.13526 -0.0369921,0.19813 -0.0318661,0.0621417 -0.0831772,0.118398 -0.154126,0.161091 -0.0637205,0.0383425 -0.143315,0.0657598 -0.238823,0.0765039 -0.0869961,0.00978346 -0.155669,-0.00905118 -0.193937,-0.0422756 -0.0211457,-0.0183543 -0.0340157,-0.0411417 -0.0373071,-0.0667283 -0.00319685,-0.0248307 0.00298819,-0.0509094 0.0197992,-0.0764843 0.0185079,-0.0281457 0.0516929,-0.0566929 0.101724,-0.082311 -0.0458937,-0.000503937 -0.089685,0.00465748 -0.129114,0.0148622 -0.0775236,0.020063 -0.13676,0.0589409 -0.158201,0.11113 -0.0156339,0.0380472 -0.0212756,0.125323 -0.0255827,0.191949 -0.00164173,0.0254291 -0.0031063,0.0480315 -0.00497638,0.0652362 -0.00747638,0.0688661 -0.0265669,0.135299 -0.0641969,0.198898 -0.0369173,0.0623976 -0.0915276,0.121579 -0.170362,0.177004 -0.0599409,0.0523701 -0.150035,0.0857165 -0.219197,0.0819803 -0.0326378,-0.00176378 -0.0619528,-0.0113583 -0.0841732,-0.0303386 -0.0236811,-0.0202205 -0.0380512,-0.0493228 -0.0385472,-0.0886024 -0.00084252,-0.0662835 0.0426378,-0.168067 0.16213,-0.314433 0.0458268,-0.0561378 0.0791654,-0.116815 0.0867638,-0.172591 0.0036378,-0.0267008 0.0010315,-0.0524606 -0.00955118,-0.0760591 -0.113031,0.142173 -0.278799,0.239689 -0.42824,0.327598 -0.164685,0.096874 -0.307917,0.181138 -0.31724,0.289941 -0.0016811,0.0196024 -0.00572441,0.0631496 -0.0124882,0.117028 -0.00252756,0.0201535 -0.0055,0.0421299 -0.00896063,0.0653701l4.84161 0zm-0.121744 -0.227433c0.0502598,0.0865236 0.147783,0.168012 0.304563,0.229087 0.0165315,0.00491339 0.0285945,0.0202205 0.0285945,0.0383465 0,0.0220906 -0.0179094,0.04 -0.04,0.04l-5.05975 0 0 -8.26772e-005c-0.00216535,0 -0.00435827,-0.000177165 -0.00656299,-0.000543307 -0.0217441,-0.00362205 -0.0364331,-0.0241929 -0.032811,-0.045937 0.00618504,-0.0370394 0.0114173,-0.0745197 0.0156811,-0.108492 0.00665748,-0.0530197 0.0105669,-0.0950551 0.0121811,-0.113902 0.0128465,-0.149906 0.172752,-0.24398 0.35661,-0.35213 0.157154,-0.0924449 0.333217,-0.196028 0.43515,-0.348142 0.00152362,-0.00240157 0.00333071,-0.0046811 0.00542126,-0.00678346 0.0155315,-0.0156181 0.0407874,-0.015685 0.0564055,-0.000153543 0.0529843,0.0525984 0.0692913,0.116118 0.0601929,0.182909 -0.00973622,0.0714528 -0.0495945,0.145693 -0.103953,0.212283 -0.106209,0.130098 -0.144945,0.213744 -0.144319,0.263181 0.000177165,0.0139252 0.00417717,0.0233189 0.0107362,0.0289173 0.00801969,0.00685039 0.0208268,0.010437 0.0363622,0.0112756 0.0509055,0.00275197 0.118555,-0.0230984 0.163984,-0.063437l7.87402e-006 7.87402e-006c0.00112992,-0.000996063 0.00232283,-0.00194094 0.00358661,-0.00282283 0.069689,-0.0486969 0.117425,-0.100024 0.149169,-0.153669 0.0313268,-0.0529488 0.0472677,-0.108681 0.0535669,-0.166717 0.00166142,-0.0152874 0.00307874,-0.0371732 0.00466929,-0.0617953 0.00466535,-0.0722047 0.0107795,-0.166791 0.0315197,-0.217264 0.0315118,-0.0767008 0.110669,-0.131795 0.211949,-0.158004 0.0949488,-0.0245748 0.210657,-0.0242402 0.32372,0.00760236 0.0141772,0.00342126 0.0259646,0.0145039 0.0295551,0.0296614 0.00509055,0.0214843 -0.00820079,0.0430354 -0.029685,0.048126 -0.120795,0.0286417 -0.18613,0.0672402 -0.209642,0.102996 -0.00579528,0.00881496 -0.00809449,0.0165079 -0.00729528,0.0227362 0.000704724,0.00547638 0.00430709,0.0110945 0.0104331,0.0164134 0.0227913,0.0197874 0.0693504,0.0303701 0.133,0.0232126 0.0835236,-0.0093937 0.152303,-0.032874 0.206634,-0.0655669 0.0575591,-0.0346378 0.0988543,-0.0796181 0.124126,-0.128902 0.0248976,-0.0485472 0.0343465,-0.101587 0.0285512,-0.15313 -0.00417323,-0.0370984 -0.0163661,-0.0735039 -0.0364882,-0.106945l9.44882e-005 -5.51181e-005c-0.00633465,-0.0105354 -0.00772835,-0.0238465 -0.00259449,-0.0360394 0.00853937,-0.0202795 0.0319094,-0.0297913 0.052189,-0.021252 0.074378,0.0313504 0.147031,0.0642559 0.199504,0.101358 0.0628307,0.0444291 0.0992087,0.0958346 0.085122,0.159028 -0.0121063,0.054311 -0.0764528,0.113449 -0.150366,0.181386 -0.0579449,0.0532638 -0.12237,0.112476 -0.166122,0.172815 -0.0350394,0.048315 -0.0534764,0.0853976 -0.0592913,0.11322 -0.00415354,0.0198661 -0.000775591,0.0327165 0.00757874,0.0401614l0.000614173 0.000476378 0.000720472 0.000574803 -5.90551e-005 7.08661e-005c0.0306496,0.0240709 0.102457,0.0200315 0.173138,0.00366142 0.0720079,-0.0166772 0.138878,-0.0454016 0.160598,-0.0706693l0.000629921 -0.000814961 0.0005 -0.000625984 3.93701e-006 3.93701e-006c0.00200394,-0.00251969 0.00435039,-0.00483858 0.00702756,-0.00688189 0.0585906,-0.0448976 0.0809606,-0.11639 0.104579,-0.191878 0.027248,-0.0870984 0.0559646,-0.178858 0.138913,-0.256335 0.133752,-0.124937 0.290209,-0.172287 0.463744,-0.224803 0.172508,-0.0522047 0.362685,-0.109772 0.558398,-0.256264 0.00312992,-0.00260236 0.00670866,-0.00477165 0.010689,-0.00636614 0.0204488,-0.00819685 0.0436772,0.00174016 0.051874,0.022189 0.0914764,0.22765 -0.044378,0.334197 -0.242681,0.413878 -0.0582047,0.0233898 -0.120937,0.0439921 -0.184563,0.0648819 -0.19602,0.0643583 -0.401075,0.131697 -0.456209,0.276339 -0.00577953,0.0151693 -0.00905118,0.0295197 -0.00959055,0.0427244 -0.000787402,0.0192913 0.00422441,0.0371024 0.0157598,0.0523898 0.0128898,0.0170906 0.034189,0.0320079 0.064878,0.0437047 0.0357835,0.0136378 0.0828307,0.0224291 0.142358,0.0248622 0.218465,0.00893307 0.278787,-0.109327 0.342717,-0.234657 0.0964567,-0.189102 0.199945,-0.391984 0.721575,-0.308102l-3.93701e-006 3.14961e-005c0.0152205,0.0024252 0.0282992,0.0136181 0.0323465,0.0295 0.00543307,0.021315 -0.00743701,0.0430039 -0.028752,0.048437 -0.0966496,0.0248465 -0.167343,0.0495157 -0.218535,0.0822874l-4.72441e-005 -7.08661e-005 -0.000110236 7.08661e-005c-0.0473346,0.0302953 -0.078252,0.0686969 -0.0990591,0.122972 -0.00969291,0.0252638 0.00504331,0.052748 0.0339488,0.0747165 0.0292756,0.022252 0.0715709,0.0384409 0.120091,0.0434843 0.0494567,0.00513386 0.104772,-0.00160236 0.158835,-0.0255787 0.130799,-0.0580118 0.253886,-0.217476 0.274075,-0.553882l3.54331e-005 3.93701e-006c0.000492126,-0.00846457 0.00367323,-0.0168465 0.00964961,-0.0237559 0.0144094,-0.0166535 0.0395984,-0.0184724 0.056252,-0.00406299 0.138638,0.120346 0.186181,0.225701 0.181409,0.320252 -0.00480709,0.0953228 -0.0620866,0.174516 -0.132937,0.245689 -0.0119803,0.0120354 -0.0395236,0.0408465 -0.0702953,0.0799291 -0.0190512,0.0242008 -0.0389488,0.0518307 -0.0563425,0.080811 -0.0593189,0.0988661 -0.0818701,0.167626 -0.0767283,0.207496 0.0014252,0.011063 0.00551969,0.0179882 0.0117677,0.0208268 0.011,0.00499606 0.0286339,0.00445276 0.0518386,-0.0016063 0.0853346,-0.0222874 0.215626,-0.112252 0.357339,-0.270661 0.0430315,-0.0481024 0.0993031,-0.0904961 0.183709,-0.118283 0.0812205,-0.0267362 0.18887,-0.0398386 0.336874,-0.0309921l0 3.14961e-005c0.0179252,0.00104331 0.0335,0.0141772 0.036878,0.032622 0.0039685,0.0216575 -0.010374,0.0424409 -0.0320315,0.0464094 -0.109094,0.0199921 -0.199059,0.0747126 -0.257402,0.147004 -0.0394528,0.0488898 -0.0643504,0.105752 -0.0706614,0.165047 -0.00626772,0.0588858 0.00583071,0.120673 0.0402638,0.179953z"/>
  </g>
  <path class="fil1" d="M5.77207 5.56841c-0.0892362,-0.0556102 -0.151591,-0.119921 -0.190807,-0.187433 -0.0433976,-0.0747126 -0.0585827,-0.153173 -0.0505787,-0.228394 0.00796063,-0.0747992 0.0389094,-0.145961 0.0878504,-0.206606 0.027374,-0.0339173 0.0604173,-0.0645787 0.0982205,-0.0907402 -0.0360315,0.00511417 -0.0675669,0.0124567 -0.0953504,0.0216024 -0.0692638,0.0228031 -0.114858,0.056937 -0.149331,0.0954724 -0.152724,0.17072 -0.298157,0.268984 -0.396717,0.294724 -0.0412992,0.0107835 -0.0768898,0.00984252 -0.10465,-0.00277165 -0.0325039,-0.0147677 -0.0527402,-0.0426929 -0.0580197,-0.0836378 -0.0072874,-0.0565118 0.0181732,-0.143142 0.0873504,-0.258433 0.0198228,-0.0330236 0.0415512,-0.063311 0.0619724,-0.089252 0.0327323,-0.0415709 0.0631969,-0.0733937 0.0765472,-0.0868031 0.058811,-0.0590787 0.10626,-0.122744 0.109811,-0.193185 0.00291339,-0.0577047 -0.0230945,-0.123394 -0.095378,-0.200323 -0.0375906,0.317016 -0.171815,0.475504 -0.314169,0.538642 -0.0674843,0.0299291 -0.136878,0.0382992 -0.19915,0.0318307 -0.0632047,-0.00656693 -0.119689,-0.0287165 -0.160091,-0.0594213 -0.0574449,-0.0436575 -0.0844094,-0.104287 -0.0605079,-0.166598 0.0272008,-0.0709488 0.0680315,-0.121437 0.130823,-0.16165l-4.72441e-005 -7.08661e-005c0.0179252,-0.0114764 0.0376102,-0.0220039 0.0592638,-0.0318622 -0.304961,-0.00404331 -0.380461,0.143843 -0.451516,0.28315 -0.075878,0.148756 -0.147472,0.289114 -0.417094,0.278091 -0.0689409,-0.00281496 -0.124441,-0.0133858 -0.167673,-0.0298622 -0.0453819,-0.0172992 -0.0783898,-0.0413701 -0.100185,-0.0702638 -0.0231535,-0.030689 -0.0332362,-0.0658898 -0.0316969,-0.103642 0.000913386,-0.0223819 0.00588976,-0.0452047 0.0145906,-0.0680394 0.0686772,-0.180169 0.29237,-0.253626 0.506209,-0.323835 0.0626969,-0.0205866 0.124512,-0.0408898 0.179563,-0.0630079 0.140016,-0.0562598 0.241457,-0.127315 0.213697,-0.260295 -0.191461,0.132244 -0.373213,0.18726 -0.539165,0.23748 -0.164311,0.0497244 -0.312453,0.0945591 -0.432492,0.206685 -0.0673819,0.062937 -0.0928583,0.144354 -0.117039,0.221642 -0.0270984,0.0866102 -0.0527874,0.168701 -0.128933,0.228882 -0.0331575,0.0373976 -0.116846,0.0761299 -0.202846,0.0960472 -0.0908228,0.0210354 -0.188283,0.0221181 -0.240421,-0.0190394l-9.44882e-005 -7.48031e-005 -5.90551e-005 7.48031e-005 -0.000720472 -0.000574803 -0.00201969 -0.00172047c-0.0312126,-0.026189 -0.0457441,-0.0644213 -0.0346142,-0.117673 0.00804724,-0.0385157 0.0307677,-0.0859803 0.0727323,-0.143843 0.0483425,-0.0666693 0.115941,-0.128799 0.176744,-0.184689 0.0641772,-0.0589882 0.120043,-0.110335 0.126618,-0.139827 0.00553937,-0.0248543 -0.0166102,-0.0506181 -0.053248,-0.0765236 -0.0262323,-0.0185472 -0.0589409,-0.0362835 -0.0948583,-0.0534449 0.00337795,0.0139567 0.00586614,0.0280906 0.0074685,0.042315 0.00749213,0.0666378 -0.00474803,0.13526 -0.0369921,0.19813 -0.0318661,0.0621417 -0.0831772,0.118398 -0.154126,0.161091 -0.0637205,0.0383425 -0.143315,0.0657598 -0.238823,0.0765039 -0.0869961,0.00978346 -0.155669,-0.00905118 -0.193937,-0.0422756 -0.0211457,-0.0183543 -0.0340157,-0.0411417 -0.0373071,-0.0667283 -0.00319685,-0.0248307 0.00298819,-0.0509094 0.0197992,-0.0764843 0.0185079,-0.0281457 0.0516929,-0.0566929 0.101724,-0.082311 -0.0458937,-0.000503937 -0.089685,0.00465748 -0.129114,0.0148622 -0.0775236,0.020063 -0.13676,0.0589409 -0.158201,0.11113 -0.0156339,0.0380472 -0.0212756,0.125323 -0.0255827,0.191949 -0.00164173,0.0254291 -0.0031063,0.0480315 -0.00497638,0.0652362 -0.00747638,0.0688661 -0.0265669,0.135299 -0.0641969,0.198898 -0.0369173,0.0623976 -0.0915276,0.121579 -0.170362,0.177004 -0.0599409,0.0523701 -0.150035,0.0857165 -0.219197,0.0819803 -0.0326378,-0.00176378 -0.0619528,-0.0113583 -0.0841732,-0.0303386 -0.0236811,-0.0202205 -0.0380512,-0.0493228 -0.0385472,-0.0886024 -0.00084252,-0.0662835 0.0426378,-0.168067 0.16213,-0.314433 0.0458268,-0.0561378 0.0791654,-0.116815 0.0867638,-0.172591 0.0036378,-0.0267008 0.0010315,-0.0524606 -0.00955118,-0.0760591 -0.113031,0.142173 -0.278799,0.239689 -0.42824,0.327598 -0.164685,0.096874 -0.307917,0.181138 -0.31724,0.289941 -0.0016811,0.0196024 -0.00572441,0.0631496 -0.0124882,0.117028 -0.00252756,0.0201535 -0.0055,0.0421299 -0.00896063,0.0653701l4.84161 0z"/>
  <g id="_517318200">
   <path id="_517318056" class="fil2" d="M3.26607 2.25419l0.405689 0 -0.232713 -0.23272c-0.00084252,-0.000814961 -0.00167323,-0.00164567 -0.00248819,-0.00248819l-0.276142 -0.27615c-0.0416496,-0.0416496 -0.0416496,-0.109185 0,-0.150835 0.0416496,-0.0416496 0.109185,-0.0416496 0.150835,0l0.246126 0.246134 1.36391 0c0.0353031,0 0.0665984,0.0171496 0.0860157,0.0435748l0.470071 0.253717 0.138591 0 -0.115201 -0.115209c-0.0416496,-0.0416496 -0.0416496,-0.109185 0,-0.150835 0.0220866,-0.0220866 0.0514528,-0.0324606 0.080378,-0.031122 0.00172835,-8.26772e-005 0.0034685,-0.000125984 0.00522047,-0.000125984l0.00714567 0c0.088185,0 0.143228,-0.0192717 0.165457,-0.0454685 0.00227953,-0.00268898 0.00345276,-0.00421654 0.0034685,-0.00450394 2.3622e-005,-0.000397638 -0.000917323,-0.00203937 -0.00284252,-0.00490157 -0.0203898,-0.0303031 -0.0779134,-0.0580709 -0.179,-0.0706732l-2.38907 -0.297945c-0.0915512,-0.0114134 -0.0257953,-0.00352756 -0.139311,-0.0179882 -0.601173,-0.0765984 -1.17231,-0.14937 -1.36018,0.0958031 -0.0831063,0.108449 -0.20752,0.125496 -0.341236,0.143803 -0.0549291,0.00751969 -0.111937,0.0153307 -0.163161,0.0315197 -0.11115,0.035126 -0.172087,0.0745197 -0.193921,0.110543 -0.00311417,0.0051378 -0.00449213,0.00829134 -0.00429921,0.00953937 0.000216535,0.00141732 0.00275591,0.00440157 0.00733858,0.00866929 0.0268228,0.0249764 0.0817441,0.0416024 0.158799,0.0416024l1.04302 0 -0.128476 -0.0802992c-0.0499331,-0.0310669 -0.0652323,-0.0967362 -0.0341654,-0.146669 0.0310669,-0.0499331 0.0967362,-0.0652323 0.146669,-0.0341654l0.438413 0.274016c0.00380709,0.00207087 0.00747638,0.00436614 0.0109882,0.00687008l0.634075 0.396307z"/>
   <path id="_517318632" class="fil2" d="M5.34344 1.46812l0.210902 0.0262992c0.00447244,-0.00755512 0.00995276,-0.0146811 0.0164488,-0.0211772l0.115201 -0.115209 -0.138591 0 -0.203961 0.110087z"/>
  </g>
 </g>
 <rect class="fil3" width="6.82666" height="6.82666"/>
</svg>
