<?xml version="1.0" encoding="UTF-8"?>
<!DOCTYPE svg PUBLIC "-//W3C//DTD SVG 1.1//EN" "http://www.w3.org/Graphics/SVG/1.1/DTD/svg11.dtd">
<!-- Creator: CorelDRAW -->
<svg xmlns="http://www.w3.org/2000/svg" xml:space="preserve" width="6.82666in" height="6.82666in" style="shape-rendering:geometricPrecision; text-rendering:geometricPrecision; image-rendering:optimizeQuality; fill-rule:evenodd; clip-rule:evenodd"
viewBox="0 0 6.82666 6.82666"
 xmlns:xlink="http://www.w3.org/1999/xlink">
 <defs>
  <style type="text/css">
   <![CDATA[
    .fil5 {fill:none}
    .fil2 {fill:#949494}
    .fil3 {fill:#F45A52}
    .fil4 {fill:#FECA5F}
    .fil1 {fill:#FFD3B3}
    .fil0 {fill:#212121;fill-rule:nonzero}
   ]]>
  </style>
 </defs>
 <g id="Layer_x0020_1">
  <metadata id="CorelCorpID_0Corel-Layer"/>
  <g id="_517320936">
   <path id="_517321320" class="fil0" d="M1.33834 3.52254c-0.0209409,0.0205945 -0.0546142,0.020315 -0.0752087,-0.000625984 -0.0205945,-0.0209409 -0.020315,-0.0546142 0.000625984,-0.0752087 0.107004,-0.105803 0.178886,-0.174433 0.251063,-0.200181 0.0837756,-0.0298898 0.154909,-0.00544882 0.248992,0.0818661 0.0325866,0.030248 0.0647717,0.0620827 0.0884134,0.0854724 0.0126929,0.0125551 -0.0148543,0.0185197 0.00315354,0.0197283 0.0633701,0.00435433 0.130189,0.0152953 0.201028,0.0335079 0.069878,0.0179685 0.143165,0.0429685 0.220386,0.0756496 0.0931929,0.0394528 0.113327,0.0554882 0.131657,0.0700906 0.00659449,0.00525197 0.0128346,0.0102244 0.0281969,0.0180354 0.0262323,0.0133425 0.0366772,0.0454331 0.0233346,0.0716654 -0.0133425,0.0262323 -0.0454331,0.0366772 -0.0716654,0.0233346 -0.0244055,-0.0124134 -0.0349567,-0.020815 -0.0461181,-0.0297047 -0.0132205,-0.0105315 -0.027752,-0.0221024 -0.106657,-0.0555079 -0.0725669,-0.0307126 -0.140858,-0.0540551 -0.205386,-0.0706496 -0.0635669,-0.0163425 -0.124031,-0.0261969 -0.181862,-0.0301693 -0.0214016,-0.00143701 -0.0412913,-0.0211063 -0.0710669,-0.050563 -0.0224488,-0.0222126 -0.0530197,-0.0524488 -0.0859094,-0.0829764 -0.060378,-0.0560315 -0.100701,-0.0736181 -0.140661,-0.0593622 -0.0515551,0.0183898 -0.11572,0.0800866 -0.212315,0.175598zm1.51766 0.38428c-0.0256535,-0.0143819 -0.0347953,-0.0468465 -0.0204134,-0.0725 0.0143819,-0.0256535 0.0468465,-0.0347953 0.0725,-0.0204134 0.127335,0.0716811 0.23602,0.0972717 0.333457,0.0917559 0.0968661,-0.00548819 0.185157,-0.0421142 0.270957,-0.0948701 0.0250827,-0.0154173 0.0579173,-0.00758268 0.0733346,0.0175 0.0154173,0.0250827 0.00758268,0.0579173 -0.0175,0.0733346 -0.0993819,0.0611063 -0.203394,0.10363 -0.320957,0.110287 -0.117,0.00662205 -0.244917,-0.0226457 -0.391378,-0.105094zm1.1955 -0.189602c-0.0256535,0.0143819 -0.0581181,0.00524016 -0.0725,-0.0204134 -0.0143819,-0.0256535 -0.00524016,-0.0581181 0.0204134,-0.0725 0.0330472,-0.0185906 0.0594882,-0.0338268 0.0838583,-0.0491693 0.025374,-0.0159764 0.0503976,-0.0330906 0.0805551,-0.0553937 0.0235866,-0.0174882 0.0568858,-0.0125433 0.074374,0.0110433 0.0174882,0.0235866 0.0125433,0.0568858 -0.0110433,0.074374 -0.0326654,0.0241535 -0.059752,0.042685 -0.0872165,0.0599764 -0.0284724,0.0179252 -0.0556457,0.0336339 -0.0884409,0.0520827z"/>
   <path id="_517321272" class="fil0" d="M4.36161 3.67206c0.0169134,0.0240433 0.0111299,0.057252 -0.0129134,0.0741654 -0.0240433,0.0169134 -0.057252,0.0111299 -0.0741654,-0.0129134l-0.210941 -0.300323c-0.0169134,-0.0240433 -0.0111299,-0.057252 0.0129134,-0.0741654 0.0240433,-0.0169134 0.057252,-0.0111299 0.0741654,0.0129134l0.210941 0.300323z"/>
   <path id="_517321248" class="fil0" d="M4.24991 3.69825l-0.161697 -0.230213c-0.0169134,-0.0240433 -0.0111299,-0.057252 0.0129134,-0.0741654 0.00495276,-0.00348425 0.0102953,-0.006 0.0158031,-0.00759843l0.482071 -0.167638c0.0277283,-0.00966142 0.0580472,0.00498031 0.0677087,0.0327087 0.00641732,0.0184173 0.00211024,0.0379764 -0.00962992,0.0518661l-0.322382 0.397953c-0.0185197,0.0227795 -0.0520079,0.0262283 -0.0747874,0.00770866 -0.00388583,-0.00315748 -0.00720472,-0.00675197 -0.00995276,-0.0106535l-4.72441e-005 3.14961e-005zm-0.0340984 -0.233776l0.0807087 0.114906 0.16124 -0.199039 -0.241949 0.0841339z"/>
   <path id="_517321488" class="fil0" d="M3.09526 3.54798l-0.136051 0.278835 0.392087 0.48865c0.00575197,0.00715354 0.0100591,0.0149921 0.0129803,0.0231772l0.000141732 -5.11811e-005c0.0110551,0.0309016 0.015185,0.0629252 0.0132008,0.0942047 -0.00205906,0.0325157 -0.0107283,0.0638819 -0.0250787,0.0920472l-0.000224409 0.000429134 -0.361146 0.826874c-0.000318898,0.000732283 -0.000645669,0.00145276 -0.000984252,0.00216535l4.72441e-005 2.3622e-005 -0.00133465 0.00282283c-0.000393701,0.000830709 -0.000799213,0.00164567 -0.00121654,0.00245669 -0.0272756,0.0550591 -0.0732795,0.0944803 -0.126291,0.113941 -0.0540157,0.0198307 -0.115287,0.0190157 -0.171618,-0.00692126 -0.000720472,-0.000330709 -0.00143307,-0.000677165 -0.0021378,-0.00102756l-0.00117717 -0.000555118c-0.000834646,-0.000393701 -0.00165354,-0.00080315 -0.00246457,-0.00122047 -0.0558898,-0.0277087 -0.0957441,-0.0756654 -0.115059,-0.131016 -0.019374,-0.0555079 -0.018126,-0.118587 0.00834252,-0.176067l0.000259843 -0.000547244 0.24928 -0.605508c-0.183563,-0.175154 -0.329193,-0.315783 -0.428654,-0.42011 -0.130724,-0.137114 -0.18911,-0.23378 -0.158303,-0.293736 0.000759843,-0.00147244 0.00155906,-0.00290551 0.0023937,-0.00430709l0.0996063 -0.191035 0.505744 -0.970012 0.000161417 -0.00030315c0.00123622,-0.00240945 0.00211024,-0.00409055 0.00261417,-0.00502756l-0.000110236 -5.90551e-005c0.0395512,-0.073122 0.103803,-0.123807 0.176417,-0.146843 0.0727126,-0.0230748 0.153969,-0.0183346 0.227406,0.0193976 0.00648031,0.00332677 0.00290551,0.00129528 0.00582283,0.00287402 0.155252,0.0839882 0.159445,0.199591 0.164059,0.327232 0.00109843,0.0303346 0.00223228,0.0615984 0.00668504,0.0928701 0.0132402,0.0929449 0.0265748,0.168528 0.0448976,0.246512 0.0159606,0.0679252 0.0354882,0.137118 0.0617244,0.220303l0.431898 0.113657c0.00141732,0.000374016 0.00281496,0.000787402 0.00419291,0.00122835 0.0593031,0.016752 0.10674,0.0558071 0.135748,0.105866 0.0294331,0.0507953 0.0400079,0.113035 0.0247441,0.174657l-7.48031e-005 0.000291339 7.48031e-005 1.9685e-005 -0.000480315 0.0018937c-0.000555118,0.00222835 -0.00120866,0.00440551 -0.00193701,0.00653937 -0.0167598,0.0581496 -0.0540748,0.104878 -0.101681,0.133906 -0.0498386,0.0303898 -0.110823,0.0415669 -0.17148,0.0265354l-0.000291339 -7.48031e-005 -1.9685e-005 7.48031e-005 -0.00176772 -0.000448819c-0.0013937,-0.000350394 -0.00277165,-0.00073622 -0.00413386,-0.00115354l-0.549634 -0.144642c-0.0013937,-0.000366142 -0.00277165,-0.000771654 -0.00412992,-0.00120866 -0.0392126,-0.011063 -0.0732559,-0.0319094 -0.100236,-0.0592717 -0.0278425,-0.0282283 -0.0481575,-0.0635827 -0.0587953,-0.102335l-0.0440157 -0.136004zm-0.301925 0.254185l0.23098 -0.473398 -0.0461732 -0.142661c-0.0134606,-0.041937 0.00962598,-0.0868504 0.051563,-0.100311 0.041937,-0.0134606 0.0868504,0.00962598 0.100311,0.051563l0.161594 0.499303 -1.5748e-005 3.93701e-006c0.00046063,0.00143307 0.000885827,0.0028937 0.00126772,0.00437008 0.0032874,0.0126142 0.00985827,0.024185 0.0189567,0.0334094 0.00784646,0.00795669 0.0176102,0.0140472 0.0287362,0.0173622 0.000834646,0.000192913 0.00166929,0.000393701 0.00250394,0.000614173l0.54965 0.144646 0.00224409 0.000527559 0.00176772 0.000448819 -1.9685e-005 7.08661e-005c0.0176535,0.00429134 0.0354094,0.001 0.049937,-0.00785827 0.0143858,-0.00876772 0.0257638,-0.0228504 0.0311614,-0.0404252 0.000181102,-0.000834646 0.000374016,-0.00167717 0.000582677,-0.00251575l0.000480315 -0.0018937 7.08661e-005 1.9685e-005c0.0048622,-0.0199606 0.00147638,-0.0399843 -0.00794094,-0.0562402 -0.00879528,-0.0151811 -0.0227598,-0.0269921 -0.0399528,-0.0321102 -0.000830709,-0.000188976 -0.00165748,-0.000389764 -0.00248425,-0.000606299l-0.474201 -0.124787 1.5748e-005 -5.51181e-005c-0.0254291,-0.00672047 -0.0470079,-0.0258583 -0.0556417,-0.0527598 -0.0351142,-0.108516 -0.0596811,-0.193126 -0.0787953,-0.274484 -0.0193425,-0.0823307 -0.0334252,-0.162134 -0.0474016,-0.26026 -0.00531496,-0.0373071 -0.00664567,-0.0740709 -0.00793701,-0.109752 -0.00287795,-0.0796339 -0.00549213,-0.15176 -0.0803031,-0.192232 -0.00575197,-0.00311417 0.000925197,0.000240157 -0.00270472,-0.00162205 -0.0342087,-0.0175748 -0.0723819,-0.0196811 -0.106776,-0.00876772 -0.0344961,0.0109449 -0.065063,0.0350906 -0.0839213,0.0699606l-0.000114173 -5.90551e-005 -0.00019685 0.000374016 -0.0013622 0.00248425 -0.000362205 0.000716535 -0.505744 0.970012 -0.0995433 0.190917c-0.00057874,0.00127559 -0.00118504,0.00254331 -0.00183465,0.00380315 -0.00672835,0.0130945 0.0522047,0.0268622 0.132051,0.11061 0.104071,0.109165 0.261969,0.261004 0.462547,0.452173l-2.75591e-005 3.14961e-005c0.023126,0.0220157 0.0316457,0.0567835 0.0187795,0.0880906l-0.270055 0.655976c-0.000807087,0.00227165 -0.00172047,0.00453543 -0.00275197,0.00676772 -0.00853543,0.0185315 -0.00894882,0.0388465 -0.00272047,0.056689 0.00597638,0.0171339 0.0180748,0.0318858 0.0348976,0.0403031l0.000129921 5.90551e-005 0.00151575 0.000716535 0.000547244 0.000244094c0.0162559,0.00748425 0.0340276,0.00768898 0.0497441,0.00192126 0.0159016,-0.00583465 0.0297559,-0.0177362 0.0380709,-0.0343937l5.90551e-005 -0.000129921 0.00133465 -0.00282283 1.5748e-005 7.87402e-006 0.360177 -0.824657c0.00112205,-0.00311417 0.00244882,-0.00619291 0.00398819,-0.00922047 0.00472047,-0.00926378 0.00755906,-0.0193425 0.00820472,-0.0295433 0.000409449,-0.0065 -5.90551e-005,-0.0132165 -0.00148031,-0.0199882l-0.410575 -0.511697c-0.0214567,-0.0234921 -0.027626,-0.0586024 -0.0128504,-0.0889449z"/>
   <path id="_517321296" class="fil0" d="M3.51902 1.8597c0.0884567,0.020685 0.160319,0.0761181 0.20498,0.149004 0.044122,0.0720039 0.0614646,0.161343 0.0415669,0.250929l-7.08661e-005 0.000295276 7.08661e-005 1.5748e-005 -0.00065748 0.00288189 -0.000141732 0.000594488 0.000141732 3.14961e-005c-0.0206299,0.0882323 -0.0740039,0.160118 -0.143969,0.205232 -0.0702008,0.0452677 -0.15722,0.0633858 -0.244866,0.0439213l-0.000590551 -0.000137795 -3.14961e-005 0.000137795 -0.00268898 -0.000614173 -0.000299213 -7.08661e-005 -1.5748e-005 7.08661e-005c-0.0884528,-0.020685 -0.160315,-0.0761181 -0.204984,-0.149004 -0.044122,-0.0720079 -0.0614646,-0.161346 -0.0415669,-0.250929l7.08661e-005 -0.000295276 -7.08661e-005 -1.5748e-005 0.00065748 -0.0028937 0.000141732 -0.000594488 -0.000141732 -3.14961e-005c0.0206299,-0.0882283 0.0740039,-0.16011 0.143969,-0.205224 0.0701929,-0.0452598 0.15722,-0.0633858 0.244862,-0.0439173l0.000295276 7.08661e-005 1.5748e-005 -7.08661e-005 0.00269685 0.000614173 0.000594488 0.000141732 3.14961e-005 -0.000141732zm0.0687283 0.23213c-0.0229606,-0.0374685 -0.0597717,-0.065937 -0.10498,-0.0765079l3.14961e-005 -0.000133858 -0.00210236 -0.000480315 1.5748e-005 -6.29921e-005c-0.0440669,-0.00970079 -0.088126,-0.000354331 -0.123937,0.0227362 -0.036122,0.0232913 -0.0637677,0.0607874 -0.0745984,0.107098l-0.000133858 -3.14961e-005 -0.000523622 0.00229921 -6.29921e-005 -1.5748e-005c-0.0104567,0.0474567 -0.00119291,0.0948543 0.0222598,0.13313 0.0229646,0.0374685 0.0597756,0.065937 0.104984,0.0765079l-1.5748e-005 6.69291e-005 0.00238976 0.000547244 -2.75591e-005 0.000125984c0.0439646,0.00959449 0.0879055,0.000240157 0.123642,-0.0228031 0.036122,-0.0232913 0.0637677,-0.0607913 0.0745984,-0.107106l0.000133858 3.14961e-005 0.000523622 -0.0022874 6.29921e-005 1.5748e-005c0.0104567,-0.0474606 0.00119685,-0.0948543 -0.0222598,-0.13313z"/>
   <path id="_517320384" class="fil0" d="M2.41611 4.20451c0.0184646,-0.0400394 0.0658976,-0.0575276 0.105937,-0.039063 0.0400394,0.0184646 0.0575276,0.0658976 0.039063,0.105937l-0.216732 0.47037 6.29921e-005 2.75591e-005c-0.00898819,0.0208268 -0.0206732,0.0397087 -0.0344606,0.0563819 -0.0140236,0.0169646 -0.0306063,0.0317874 -0.0490512,0.0441693 -0.0118858,0.00796063 -0.0251339,0.0122953 -0.0384488,0.0132756l1.1811e-005 0.000161417 -0.601713 0.0469685c-0.00485827,0.000362205 -0.00964567,0.000279528 -0.0143228,-0.000208661 -0.0604764,-0.00231496 -0.108496,-0.0193189 -0.144815,-0.0458701 -0.040374,-0.0295118 -0.0653622,-0.0696339 -0.0765512,-0.114587 -0.0102835,-0.0413071 -0.00827953,-0.0859449 0.00461811,-0.128819 0.0171654,-0.0570787 0.0540433,-0.112469 0.106902,-0.15276 0.0129606,-0.00989764 0.0279882,-0.0152047 0.0431299,-0.0162008l-3.93701e-006 -5.11811e-005 0.478843 -0.0324134 0.217839 -0.566862c0.0157047,-0.0410748 0.0617362,-0.0616417 0.102811,-0.045937 0.0410748,0.0157047 0.0616417,0.0617362 0.045937,0.102811l-0.233945 0.608776c-0.00917717,0.0312008 -0.0369961,0.054874 -0.0713346,0.0571614l-0.502744 0.0340315c-0.0165315,0.0168937 -0.0282244,0.0368504 -0.0343071,0.0570669 -0.00490551,0.016315 -0.006,0.0319882 -0.00274409,0.0450709 0.00235039,0.00944094 0.00755512,0.0178465 0.0159291,0.0239646 0.0117205,0.00856693 0.0297008,0.014185 0.0549449,0.0152874l0.574098 -0.044811c0.000602362,-0.000681102 0.00120079,-0.00138189 0.00179134,-0.00209843 0.00422441,-0.0051063 0.00785827,-0.0110118 0.0107126,-0.0176339l8.66142e-005 3.54331e-005 0.000850394 -0.00190945 0.217606 -0.472272z"/>
   <path id="_517320264" class="fil0" d="M2.77041 2.87707c0.0438346,-0.00448425 0.0830157,0.0274134 0.0875,0.071248 0.00448425,0.0438346 -0.0274134,0.0830157 -0.071248,0.0875l-0.262295 0.0271299 -0.287906 0.380343c-0.0287283,0.0535906 -0.075685,0.0913189 -0.129201,0.109272 -0.0546024,0.0183189 -0.115807,0.0158346 -0.171299,-0.0115787l-0.000622047 -0.000314961 -3.93701e-006 3.93701e-006 -0.00277953 -0.00140945 -0.000866142 -0.000448819 -7.08661e-005 0.000133858c-0.0559016,-0.0290709 -0.095063,-0.0787323 -0.113173,-0.135524 -0.0178937,-0.0560827 -0.0149488,-0.119134 0.0130591,-0.175831 0.00195276,-0.00396063 0.00419685,-0.00768504 0.00668504,-0.0111654l-0.000122047 -8.66142e-005 0.347335 -0.484197c0.0186693,-0.0346024 0.0450906,-0.0626496 0.0760433,-0.0830591 0.0334213,-0.0220433 0.0720709,-0.034874 0.111882,-0.0371496l0.632228 -0.0809094c0.0436614,-0.00551969 0.0835433,0.0254016 0.089063,0.069063 0.00551969,0.0436614 -0.0254016,0.0835433 -0.069063,0.089063l-0.632531 0.0809488c-0.00332283,0.000559055 -0.0067126,0.000913386 -0.0101654,0.00104724 -0.0119803,0.000507874 -0.0237205,0.00434252 -0.0339094,0.011063 -0.00894882,0.00589764 -0.0167795,0.0142795 -0.022622,0.0248543 -0.00219291,0.00499606 -0.00493701,0.00985039 -0.00824409,0.0144646l-0.345929 0.482236c-0.00676772,0.0169488 -0.00704724,0.035185 -0.00183465,0.0515315 0.00556299,0.0174449 0.017689,0.032748 0.0350472,0.0417756l-6.69291e-005 0.000125984 0.00156693 0.000795276c0.0161969,0.00790551 0.0339646,0.00861417 0.0497717,0.00331496 0.0161102,-0.00540551 0.030437,-0.0172795 0.0393386,-0.0343976l7.87402e-005 3.93701e-005c0.0023189,-0.0049252 0.00516929,-0.00968504 0.00857874,-0.0142008l0.313165 -0.413717 7.48031e-005 5.90551e-005c0.0128976,-0.0170787 0.0325827,-0.0289567 0.0555512,-0.0313071l0.296984 -0.0307165z"/>
   <path id="_517320840" class="fil0" d="M4.6368 3.07538c-0.0218228,0.0333386 0.0122992,0.0744488 0.049315,0.0588622 0.00714173,-0.00318898 0.0128465,-0.00793701 0.0172126,-0.0144291l0.0444291 -0.0665276c0.0218228,-0.0333386 -0.0122992,-0.0744488 -0.049315,-0.0588622 -0.00714173,0.00318898 -0.0128465,0.00793701 -0.0172126,0.0144291l-0.0444291 0.0665276zm1.17729 -1.61876c0.0218228,-0.0333386 -0.0122992,-0.0744488 -0.049315,-0.0588622 -0.00714173,0.00318898 -0.0128465,0.00793701 -0.0172126,0.0144291l-0.0444331 0.0665276c-0.0218228,0.0333386 0.0122992,0.0744488 0.049315,0.0588622 0.00714173,-0.00318898 0.0128465,-0.00793701 0.0172126,-0.0144291l0.0444331 -0.0665276zm-0.0888661 0.133055c0.0218228,-0.0333386 -0.0122992,-0.0744488 -0.049315,-0.0588622 -0.00714173,0.00318898 -0.0128465,0.00793701 -0.0172126,0.0144291l-0.0444331 0.0665276c-0.0218228,0.0333386 0.0122992,0.0744488 0.049315,0.0588622 0.00714173,-0.00318898 0.0128465,-0.00793701 0.0172126,-0.0144291l0.0444331 -0.0665276zm-0.0888661 0.133055c0.0218228,-0.0333386 -0.0122992,-0.0744488 -0.049315,-0.0588622 -0.00714173,0.00318898 -0.0128465,0.00793701 -0.0172126,0.0144291l-0.0444331 0.0665276c-0.0218228,0.0333386 0.0122992,0.0744488 0.049315,0.0588622 0.00714173,-0.00318898 0.0128465,-0.00793701 0.0172126,-0.0144291l0.0444331 -0.0665276zm-0.0888661 0.133055c0.0218228,-0.0333386 -0.0122992,-0.0744488 -0.049315,-0.0588622 -0.00714173,0.00318898 -0.0128465,0.00793701 -0.0172126,0.0144291l-0.0444331 0.0665276c-0.0218228,0.0333386 0.0122992,0.0744488 0.049315,0.0588622 0.00714173,-0.00318898 0.0128465,-0.00793701 0.0172126,-0.0144291l0.0444331 -0.0665276zm-0.0888661 0.133055c0.0218228,-0.0333386 -0.0122992,-0.0744488 -0.049315,-0.0588622 -0.00714173,0.00318898 -0.0128465,0.00793701 -0.0172126,0.0144291l-0.0444331 0.0665276c-0.0218228,0.0333386 0.0122992,0.0744488 0.049315,0.0588622 0.00714173,-0.00318898 0.0128465,-0.00793701 0.0172126,-0.0144291l0.0444331 -0.0665276zm-0.0888622 0.133055c0.0218228,-0.0333386 -0.0122992,-0.0744488 -0.049315,-0.0588622 -0.00714173,0.00318898 -0.0128465,0.00793701 -0.0172126,0.0144291l-0.0444291 0.0665276c-0.0218228,0.0333386 0.0122992,0.0744488 0.049315,0.0588622 0.00714173,-0.00318898 0.0128465,-0.00793701 0.0172126,-0.0144291l0.0444291 -0.0665276zm-0.0888583 0.133055c0.0218228,-0.0333386 -0.0122992,-0.0744488 -0.049315,-0.0588622 -0.00714173,0.00318898 -0.0128465,0.00793701 -0.0172126,0.0144291l-0.0444291 0.0665276c-0.0218228,0.0333386 0.0122992,0.0744488 0.049315,0.0588622 0.00714173,-0.00318898 0.0128465,-0.00793701 0.0172126,-0.0144291l0.0444291 -0.0665276zm-0.0888583 0.133055c0.0218228,-0.0333386 -0.0122992,-0.0744488 -0.049315,-0.0588622 -0.00714173,0.00318898 -0.0128465,0.00793701 -0.0172126,0.0144291l-0.0444291 0.0665276c-0.0218228,0.0333386 0.0122992,0.0744488 0.049315,0.0588622 0.00714173,-0.00318898 0.0128465,-0.00793701 0.0172126,-0.0144291l0.0444291 -0.0665276zm-0.0888583 0.133055c0.0218228,-0.0333386 -0.0122992,-0.0744488 -0.049315,-0.0588622 -0.00714173,0.00318898 -0.0128465,0.00793701 -0.0172126,0.0144291l-0.0444291 0.0665276c-0.0218228,0.0333386 0.0122992,0.0744488 0.049315,0.0588622 0.00714173,-0.00318898 0.0128465,-0.00793701 0.0172126,-0.0144291l0.0444291 -0.0665276zm-0.0888583 0.133055c0.0218228,-0.0333386 -0.0122992,-0.0744488 -0.049315,-0.0588622 -0.00714173,0.00318898 -0.0128465,0.00793701 -0.0172126,0.0144291l-0.0444291 0.0665276c-0.0218228,0.0333386 0.0122992,0.0744488 0.049315,0.0588622 0.00714173,-0.00318898 0.0128465,-0.00793701 0.0172126,-0.0144291l0.0444291 -0.0665276zm-0.0888583 0.133055c0.0218228,-0.0333386 -0.0122992,-0.0744488 -0.049315,-0.0588622 -0.00714173,0.00318898 -0.0128465,0.00793701 -0.0172126,0.0144291l-0.0444291 0.0665276c-0.0218228,0.0333386 0.0122992,0.0744488 0.049315,0.0588622 0.00714173,-0.00318898 0.0128465,-0.00793701 0.0172126,-0.0144291l0.0444291 -0.0665276zm-0.0888583 0.133055c0.0218228,-0.0333386 -0.0122992,-0.0744488 -0.049315,-0.0588622 -0.00714173,0.00318898 -0.0128465,0.00793701 -0.0172126,0.0144291l-0.0444291 0.0665276c-0.0218228,0.0333386 0.0122992,0.0744488 0.049315,0.0588622 0.00714173,-0.00318898 0.0128465,-0.00793701 0.0172126,-0.0144291l0.0444291 -0.0665276z"/>
   <path id="_517320768" class="fil0" d="M4.71924 3.1482c-0.0282559,0.0232677 -0.0130906,0.0691102 0.0235315,0.0709094 0.0102126,0.000334646 0.0191811,-0.00260236 0.0271535,-0.00901181l0.0618937 -0.0506811c0.0183622,-0.0151181 0.0183858,-0.0397717 0.00609449,-0.0556772 0.00662205,0.00791732 0.0164409,0.0134094 0.0286457,0.0140079 0.0102126,0.000334646 0.0191811,-0.00260236 0.0271535,-0.00901181l0.0618937 -0.0506811c0.0183622,-0.0151181 0.0183858,-0.0397717 0.00609449,-0.0556772 0.00662205,0.00791732 0.0164409,0.0134094 0.0286457,0.0140079 0.0102126,0.000334646 0.0191811,-0.00260236 0.0271535,-0.00901181l0.0618937 -0.0506811c0.0183898,-0.0151457 0.0183858,-0.0398425 0.00604331,-0.055748 0.00662598,0.00795276 0.0164606,0.0134764 0.0287008,0.0140787 0.0102126,0.000334646 0.0191811,-0.00260236 0.0271535,-0.00901181l0.0618976 -0.0506811c0.0183898,-0.0151457 0.0183858,-0.0398425 0.00604331,-0.055748 0.00662598,0.00795276 0.0164606,0.0134764 0.0287008,0.0140787 0.0102126,0.000334646 0.0191811,-0.00260236 0.0271535,-0.00901181l0.0618976 -0.050685c0.0184094,-0.0151614 0.0183819,-0.0398976 0.006,-0.0558031 0.00662598,0.00798425 0.0164764,0.0135276 0.0287441,0.0141299 0.0102126,0.000334646 0.0191811,-0.00260236 0.0271535,-0.00901181l0.0618976 -0.050685c0.0184094,-0.0151614 0.0183819,-0.0398976 0.006,-0.0558031 0.00662598,0.00798425 0.0164764,0.0135276 0.0287441,0.0141299 0.0102126,0.000334646 0.0191811,-0.00260236 0.0271535,-0.00901181l0.0618976 -0.050685c0.0184094,-0.0151614 0.0183819,-0.0398976 0.006,-0.0558031 0.00662598,0.00798425 0.0164764,0.0135276 0.0287441,0.0141299 0.0102126,0.000334646 0.0191811,-0.00260236 0.0271535,-0.00901181l0.0618976 -0.050685c0.0184094,-0.0151614 0.0183819,-0.0398976 0.006,-0.0558031 0.00662598,0.00798425 0.0164764,0.0135276 0.0287441,0.0141299 0.0102126,0.000334646 0.0191811,-0.00260236 0.0271535,-0.00901181l0.0618976 -0.050685c0.0184094,-0.0151614 0.0183819,-0.0398976 0.006,-0.0558031 0.00662598,0.00798425 0.0164764,0.0135276 0.0287441,0.0141299 0.0102126,0.000334646 0.0191811,-0.00260236 0.0271535,-0.00901181l0.00794488 -0.00650787c0.0282559,-0.0232677 0.0130906,-0.0691102 -0.0235315,-0.0709094 -0.0102126,-0.000334646 -0.0191811,0.00260236 -0.0271535,0.00901181l-0.00794488 0.00650787c-0.0184134,0.0151614 -0.0183819,0.0399055 -0.006,0.0558031 -0.00662598,-0.00798031 -0.0164764,-0.0135276 -0.0287441,-0.0141299 -0.0102126,-0.000334646 -0.0191811,0.00260236 -0.0271535,0.00901181l-0.0618976 0.050685c-0.0184134,0.0151614 -0.0183819,0.0399055 -0.006,0.0558031 -0.00662598,-0.00798031 -0.0164764,-0.0135276 -0.0287441,-0.0141299 -0.0102126,-0.000334646 -0.0191811,0.00260236 -0.0271535,0.00901181l-0.0618976 0.050685c-0.0184134,0.0151614 -0.0183819,0.0399055 -0.006,0.0558031 -0.00662598,-0.00798031 -0.0164764,-0.0135276 -0.0287441,-0.0141299 -0.0102126,-0.000334646 -0.0191811,0.00260236 -0.0271535,0.00901181l-0.0618976 0.050685c-0.0184134,0.0151614 -0.0183819,0.0399055 -0.006,0.0558031 -0.00662598,-0.00798031 -0.0164764,-0.0135276 -0.0287441,-0.0141299 -0.0102126,-0.000334646 -0.0191811,0.00260236 -0.0271535,0.00901181l-0.0618976 0.050685c-0.0184134,0.0151614 -0.0183819,0.0399055 -0.006,0.0558031 -0.00662598,-0.00798031 -0.0164764,-0.0135276 -0.0287441,-0.0141299 -0.0102126,-0.000334646 -0.0191811,0.00260236 -0.0271535,0.00901181l-0.0618976 0.050685c-0.0183898,0.0151417 -0.0183819,0.0398465 -0.00604331,0.055748 -0.00662598,-0.00795276 -0.0164606,-0.0134764 -0.0287008,-0.0140787 -0.0102126,-0.000334646 -0.0191811,0.00260236 -0.0271535,0.00901181l-0.0618976 0.0506811c-0.0183898,0.0151417 -0.0183819,0.0398465 -0.00604331,0.055748 -0.00662598,-0.00795276 -0.0164606,-0.0134764 -0.0287008,-0.0140787 -0.0102126,-0.000334646 -0.0191811,0.00260236 -0.0271535,0.00901181l-0.0618937 0.0506811c-0.0183622,0.015122 -0.0183819,0.0397717 -0.00609449,0.0556772 -0.00662205,-0.00791732 -0.0164409,-0.0134094 -0.0286457,-0.0140079 -0.0102126,-0.000334646 -0.0191811,0.00260236 -0.0271535,0.00901181l-0.0618937 0.0506811c-0.0183622,0.015122 -0.0183819,0.0397717 -0.00609449,0.0556772 -0.00662205,-0.00791732 -0.0164409,-0.0134094 -0.0286457,-0.0140079 -0.0102126,-0.000334646 -0.0191811,0.00260236 -0.0271535,0.00901181l-0.0618937 0.0506811z"/>
   <path id="_517320600" class="fil0" d="M4.78176 3.25148c-0.0114134,0.00344094 -0.0205906,0.0116299 -0.0252874,0.0225906 -0.0133228,0.0310866 0.0159134,0.0637992 0.0482717,0.0540394l0.076626 -0.0229843c0.0114134,-0.00344094 0.0205906,-0.0116299 0.0252874,-0.0225906 0.00376772,-0.00879528 0.00413386,-0.0177244 0.00198031,-0.0257795 0.00662598,0.0189016 0.0272638,0.0320512 0.0493583,0.0253858l0.076626 -0.0229843c0.0114134,-0.00344094 0.0205906,-0.0116299 0.0252874,-0.0225906 0.00376772,-0.00879528 0.00413386,-0.0177244 0.00198031,-0.0257795 0.00662598,0.0189016 0.0272638,0.0320512 0.0493583,0.0253858l0.076626 -0.0229843c0.0114134,-0.00344094 0.0205906,-0.0116299 0.0252874,-0.0225906 0.00376772,-0.00879528 0.00413386,-0.0177244 0.00198031,-0.0257795 0.00662598,0.0189016 0.0272638,0.0320512 0.0493583,0.0253858l0.076626 -0.0229843c0.0114134,-0.00344094 0.0205906,-0.0116299 0.0252874,-0.0225906 0.00376772,-0.00879528 0.00413386,-0.0177244 0.00198031,-0.0257795 0.00662598,0.0189016 0.0272638,0.0320512 0.0493583,0.0253858l0.076626 -0.0229843c0.0114134,-0.00344094 0.0205906,-0.0116299 0.0252874,-0.0225906 0.00377165,-0.00879921 0.00412992,-0.0177323 0.00197244,-0.0257953 0.00661811,0.0189134 0.0272598,0.032063 0.0493661,0.0253976l0.076626 -0.0229882c0.0114134,-0.00344094 0.0205906,-0.0116299 0.0252874,-0.0225906 0.00377165,-0.00879921 0.00412992,-0.0177323 0.00197244,-0.0257953 0.00661811,0.0189134 0.0272598,0.032063 0.0493661,0.0253976l0.0766299 -0.0229882c0.0114134,-0.00344094 0.0205906,-0.0116299 0.0252874,-0.0225906 0.0133228,-0.0310866 -0.0159134,-0.0637992 -0.0482717,-0.0540394l-0.0766299 0.0229882c-0.0114134,0.00344094 -0.0205906,0.0116299 -0.0252874,0.0225906 -0.00377165,0.00880315 -0.00412992,0.0177323 -0.00197244,0.0257953 -0.00662205,-0.0189134 -0.0272638,-0.032063 -0.0493661,-0.0253976l-0.076626 0.0229882c-0.0114134,0.00344094 -0.0205906,0.0116299 -0.0252874,0.0225906 -0.00377165,0.00880315 -0.00412992,0.0177323 -0.00197244,0.0257953 -0.00662205,-0.0189134 -0.0272638,-0.032063 -0.0493661,-0.0253976l-0.076626 0.0229843c-0.0114134,0.00344094 -0.0205906,0.0116299 -0.0252874,0.0225906 -0.00376772,0.00879528 -0.00413386,0.0177205 -0.00198031,0.0257795 -0.00662598,-0.0189055 -0.0272598,-0.0320512 -0.0493583,-0.0253858l-0.076626 0.0229843c-0.0114134,0.00344094 -0.0205906,0.0116299 -0.0252874,0.0225906 -0.00376772,0.00879528 -0.00413386,0.0177205 -0.00198031,0.0257795 -0.00662598,-0.0189055 -0.0272598,-0.0320512 -0.0493583,-0.0253858l-0.076626 0.0229843c-0.0114134,0.00344094 -0.0205906,0.0116299 -0.0252874,0.0225906 -0.00376772,0.00879528 -0.00413386,0.0177205 -0.00198031,0.0257795 -0.00662598,-0.0189055 -0.0272598,-0.0320512 -0.0493583,-0.0253858l-0.076626 0.0229843c-0.0114134,0.00344094 -0.0205906,0.0116299 -0.0252874,0.0225906 -0.00376772,0.00879528 -0.00413386,0.0177205 -0.00198031,0.0257795 -0.00662598,-0.0189055 -0.0272598,-0.0320512 -0.0493583,-0.0253858l-0.076626 0.0229843z"/>
   <path id="_517320888" class="fil0" d="M1.89766 3.44467c0.0622874,0.0625787 0.0939685,0.145539 0.0948307,0.22876 0.000862205,0.0829803 -0.029063,0.166417 -0.0899764,0.230252l-0.542181 0.568161c-0.030374,0.0319252 -0.0808858,0.033185 -0.112811,0.00281102 -0.000972441,-0.000925197 -0.00191339,-0.00187008 -0.00283071,-0.00283465l-0.34126 -0.342862c-0.0305472,-0.0307126 -0.0309213,-0.0800591 -0.00123228,-0.111236l-1.5748e-005 -1.5748e-005 0.542181 -0.568157c0.00155906,-0.0016378 0.00359449,-0.00370079 0.00596063,-0.00605906 0.0608071,-0.0605236 0.140157,-0.0913228 0.219945,-0.0921693 0.0795315,-0.000850394 0.159327,0.0282205 0.221335,0.0873937 0.00162205,0.00154724 0.00368898,0.00358268 0.00605512,0.00595669zm-0.0645472 0.230012c-0.000440945,-0.0428307 -0.0166732,-0.0854528 -0.0485787,-0.117508 -0.000594488,-0.000594488 -0.00153543,-0.00150787 -0.00292913,-0.00283858 -0.0309567,-0.0295433 -0.0706378,-0.0440591 -0.110083,-0.0436378 -0.0391969,0.000417323 -0.0783937,0.0157598 -0.108693,0.0459173 -0.000586614,0.000586614 -0.00150394,0.00152756 -0.00284252,0.00293307l-0.488591 0.512 0.229909 0.230992 0.485587 -0.508858c0.0312953,-0.0327953 0.0466693,-0.075937 0.0462205,-0.119zm-0.588421 0.797138c-0.0291378,-0.0306024 -0.0294291,-0.0790236 1.9685e-005,-0.109976"/>
  </g>
  <path class="fil1" d="M3.30371 2.27986c0.0229646,0.0374685 0.0597756,0.065937 0.104984,0.0765079l-1.5748e-005 6.69291e-005 0.00238976 0.000547244 -2.75591e-005 0.000125984c0.0439646,0.00959449 0.0879055,0.000240157 0.123642,-0.0228031 0.036122,-0.0232913 0.0637677,-0.0607913 0.0745984,-0.107106l0.000133858 3.14961e-005 0.000523622 -0.0022874 6.29921e-005 1.5748e-005c0.0104567,-0.0474606 0.00119685,-0.0948543 -0.0222598,-0.13313 -0.0229606,-0.0374685 -0.0597717,-0.065937 -0.10498,-0.0765079l3.14961e-005 -0.000133858 -0.00210236 -0.000480315 1.5748e-005 -6.29921e-005c-0.0440669,-0.00970079 -0.088126,-0.000354331 -0.123937,0.0227362 -0.036122,0.0232913 -0.0637677,0.0607874 -0.0745984,0.107098l-0.000133858 -3.14961e-005 -0.000523622 0.00229921 -6.29921e-005 -1.5748e-005c-0.0104567,0.0474567 -0.00119291,0.0948543 0.0222598,0.13313z"/>
  <polygon class="fil2" points="4.45776,3.38034 4.21581,3.46448 4.29652,3.57938 "/>
  <path class="fil3" d="M1.83311 3.67468c-0.000440945,-0.0428307 -0.0166732,-0.0854528 -0.0485787,-0.117508l-0.00292913 -0.00283858c-0.0309567,-0.0295433 -0.0706378,-0.0440591 -0.110083,-0.0436378 -0.0391969,0.000417323 -0.0783937,0.0157598 -0.108693,0.0459173l-0.00284252 0.00293307 -0.488591 0.512 0.229909 0.230992 0.485587 -0.508858c0.0312953,-0.0327953 0.0466693,-0.075937 0.0462205,-0.119z"/>
  <g id="_517320072">
   <path id="_517319880" class="fil4" d="M2.97633 4.47275l0 0zm-0.130461 0.813461l0 0zm0.445724 -1.64955l0 0zm-0.110008 -0.956134c-0.0342087,-0.0175748 -0.0723819,-0.0196811 -0.106776,-0.00876772 -0.0344961,0.0109449 -0.065063,0.0350906 -0.0839213,0.0699606l-0.000114173 -5.90551e-005 -0.00019685 0.000374016 -0.0013622 0.00248425 -0.000362205 0.000716535 -0.505744 0.970012 -0.0995433 0.190917 -0.000287402 0.000598425 -0.00207087 0.00538189c0.000338583,0.0126417 0.0571181,0.0292874 0.132575,0.108433 0.104071,0.109165 0.261969,0.261004 0.46252,0.452205 0.023126,0.0220157 0.0316457,0.0567835 0.0187795,0.0880906l-0.270055 0.655976c-0.000807087,0.00227165 -0.00172047,0.00453543 -0.00275197,0.00676772 -0.00853543,0.0185315 -0.00894882,0.0388465 -0.00272047,0.056689 0.00597638,0.0171339 0.0180748,0.0318858 0.0348976,0.0403031l0.000129921 5.90551e-005 0.00151575 0.000716535 0.000547244 0.000244094c0.0162559,0.00748425 0.0340276,0.00768898 0.0497441,0.00192126 0.0159016,-0.00583465 0.0297559,-0.0177362 0.0380709,-0.0343937l5.90551e-005 -0.000129921 0.00135039 -0.00281496 0.360177 -0.824657c0.00112205,-0.00311417 0.00244882,-0.00619291 0.00398819,-0.00922047 0.00472047,-0.00926378 0.00755906,-0.0193425 0.00820472,-0.0295433 0.000409449,-0.0065 -5.90551e-005,-0.0132165 -0.00148031,-0.0199882l-0.410575 -0.511697c-0.0214567,-0.0234921 -0.027626,-0.0586024 -0.0128504,-0.0889449l0.23098 -0.473398 -0.0461732 -0.142661c-0.0134606,-0.041937 0.00962598,-0.0868504 0.051563,-0.100311 0.041937,-0.0134606 0.0868504,0.00962598 0.100311,0.051563l0.161579 0.499307c0.00046063,0.00143307 0.000885827,0.0028937 0.00126772,0.00437008 0.0032874,0.0126142 0.00985827,0.024185 0.0189567,0.0334094 0.00784646,0.00795669 0.0176102,0.0140472 0.0287362,0.0173622l0.00250394 0.000614173 0.54965 0.144646 0.00224409 0.000527559 0.00176772 0.000448819 -1.9685e-005 7.08661e-005c0.0176535,0.00429134 0.0354094,0.001 0.049937,-0.00785827 0.0143858,-0.00876772 0.0257638,-0.0228504 0.0311614,-0.0404252l0.000582677 -0.00251575 0.000480315 -0.0018937 7.08661e-005 1.9685e-005c0.0048622,-0.0199606 0.00147638,-0.0399843 -0.00794094,-0.0562402 -0.00879528,-0.0151811 -0.0227598,-0.0269921 -0.0399528,-0.0321102l-0.00248425 -0.000606299 -0.474201 -0.124787 1.5748e-005 -5.51181e-005c-0.0254291,-0.00672047 -0.0470079,-0.0258583 -0.0556417,-0.0527598 -0.0351142,-0.108516 -0.0596811,-0.193126 -0.0787953,-0.274484 -0.0193425,-0.0823307 -0.0334252,-0.162134 -0.0474016,-0.26026 -0.00531496,-0.0373071 -0.00664567,-0.0740709 -0.00793701,-0.109752 -0.00287795,-0.0796339 -0.00549213,-0.15176 -0.0803031,-0.192232 -0.00575197,-0.00311417 0.000925197,0.000240157 -0.00270472,-0.00162205z"/>
   <path id="_517319448" class="fil4" d="M2.10464 3.35275l0.313165 -0.413717 7.48031e-005 5.90551e-005c0.0128976,-0.0170787 0.0325827,-0.0289567 0.0555512,-0.0313071l0.265272 -0.027437 0.0863071 -0.165531 -0.43198 0.0552835c-0.00332283,0.000559055 -0.0067126,0.000913386 -0.0101654,0.00104724 -0.0119803,0.000507874 -0.0237205,0.00434252 -0.0339094,0.011063 -0.00894882,0.00589764 -0.0167795,0.0142795 -0.022622,0.0248543 -0.00219291,0.00499606 -0.00493701,0.00985039 -0.00824409,0.0144646l-0.345929 0.482236c-0.00676772,0.0169488 -0.00704724,0.035185 -0.00183465,0.0515315 0.00556299,0.0174449 0.017689,0.032748 0.0350472,0.0417756l-6.69291e-005 0.000125984 0.00156693 0.000795276c0.0161969,0.00790551 0.0339646,0.00861417 0.0497717,0.00331496 0.0161102,-0.00540551 0.030437,-0.0172795 0.0393386,-0.0343976l7.87402e-005 3.93701e-005c0.0023189,-0.0049252 0.00516929,-0.00968504 0.00857874,-0.0142008z"/>
   <path id="_517319688" class="fil4" d="M2.3275 4.05189l-0.176283 0.458724c-0.00917717,0.0312008 -0.0369961,0.054874 -0.0713346,0.0571614l-0.502744 0.0340315c-0.0165315,0.0168937 -0.0282244,0.0368504 -0.0343071,0.0570669 -0.00490551,0.016315 -0.006,0.0319882 -0.00274409,0.0450709 0.00235039,0.00944094 0.00755512,0.0178465 0.0159291,0.0239646 0.0117205,0.00856693 0.0297008,0.014185 0.0549449,0.0152874l0.574098 -0.044811 0.00179134 -0.00209843c0.00422441,-0.0051063 0.00785827,-0.0110118 0.0107126,-0.0176339l8.66142e-005 3.54331e-005 0.000850394 -0.00190945 0.217606 -0.472272c0.00570079,-0.0123583 0.0141575,-0.0225669 0.0243071,-0.0302362 -0.0148937,-0.0152087 -0.0289882,-0.0297756 -0.0422598,-0.0436969 -0.0265906,-0.0278898 -0.050189,-0.0541102 -0.0706535,-0.078685z"/>
  </g>
 </g>
 <rect class="fil5" width="6.82666" height="6.82666"/>
</svg>
