<?xml version="1.0" encoding="UTF-8"?>
<!DOCTYPE svg PUBLIC "-//W3C//DTD SVG 1.1//EN" "http://www.w3.org/Graphics/SVG/1.1/DTD/svg11.dtd">
<!-- Creator: CorelDRAW -->
<svg xmlns="http://www.w3.org/2000/svg" xml:space="preserve" width="6.82666in" height="6.82666in" style="shape-rendering:geometricPrecision; text-rendering:geometricPrecision; image-rendering:optimizeQuality; fill-rule:evenodd; clip-rule:evenodd"
viewBox="0 0 6.82666 6.82666"
 xmlns:xlink="http://www.w3.org/1999/xlink">
 <defs>
  <style type="text/css">
   <![CDATA[
    .str0 {stroke:#212121;stroke-width:0.106665;stroke-linecap:round;stroke-linejoin:round}
    .fil5 {fill:none}
    .fil3 {fill:#949494}
    .fil0 {fill:#EBE5DF}
    .fil1 {fill:#F45A52}
    .fil4 {fill:#FECA5F}
    .fil2 {fill:#212121;fill-rule:nonzero}
   ]]>
  </style>
 </defs>
 <g id="Layer_x0020_1">
  <metadata id="CorelCorpID_0Corel-Layer"/>
  <path class="fil0" d="M2.30101 4.3751c-0.00223622,1.5748e-005 -0.00447638,3.93701e-006 -0.00671654,-3.14961e-005 0.00223622,2.3622e-005 0.00447244,4.33071e-005 0.00671654,3.14961e-005zm0.337173 -0.351429l0 0zm-0.248677 -0.214358l0 0zm0.0848898 -0.0584724l0 0zm0.0519094 0.104382l0 0zm0.0239016 0.163618l0 0zm-0.000255906 0.00342126l0 0zm-0.102437 0.299669c-0.0473701,0.0346732 -0.0973346,0.0528701 -0.146504,0.0531693 0.0323858,-0.000220472 0.0645591,-0.00593701 0.0957992,-0.0170787l0.000153543 -5.51181e-005 2.3622e-005 5.51181e-005c0.0324488,-0.0115748 0.0642087,-0.029126 0.0944488,-0.0525669 0.0122598,-0.0095 0.0242283,-0.0199606 0.0358346,-0.0313504 0.0111614,-0.0109646 0.0222126,-0.023063 0.0330945,-0.0362953 0.0113661,-0.013811 0.0219449,-0.0289724 0.0313661,-0.0455945 0.00883071,-0.0155866 0.0167402,-0.0325315 0.023437,-0.0509252 0.00633858,-0.0174134 0.0115315,-0.0356575 0.0153386,-0.0547165 0.00338583,-0.0169567 0.00583071,-0.0353228 0.0071811,-0.0551969 0.000267717,-0.0019685 0.000413386,-0.00397638 0.000413386,-0.00601181l-3.93701e-006 -0.000188976 8.66142e-005 -0.00150394 0.00026378 -0.00583071 0.00015748 -0.00514173 3.54331e-005 -0.00123228c0.000212598,-0.00175984 0.000326772,-0.00355118 0.000326772,-0.00537008l0 -0.0126654c0,-0.00123228 -0.000114173,-0.00299213 -0.000330709,-0.00526378 -0.000311024,-0.0115433 -0.00104724,-0.0235157 -0.00229921,-0.0358268 -0.00137402,-0.0135394 -0.00316142,-0.0268819 -0.00541732,-0.0397874 -0.00211024,-0.0120591 -0.005,-0.0257283 -0.00876378,-0.0411457 -0.00337402,-0.013811 -0.00725591,-0.0278937 -0.0116732,-0.0421654l-7.08661e-005 -0.000220472 7.08661e-005 -1.9685e-005c-0.00650394,-0.020689 -0.0133346,-0.0392835 -0.0202913,-0.0559488 -0.00772835,-0.0185197 -0.0158504,-0.0350748 -0.0240079,-0.0497795 -0.0109646,-0.0197795 -0.0220236,-0.0359094 -0.0323307,-0.0489173 -0.0107165,-0.0135315 -0.0206457,-0.0236732 -0.0288976,-0.0310748 -0.00734646,-0.00658268 -0.0153465,-0.0112441 -0.0236142,-0.0141654 -0.00905906,-0.00320472 -0.0184331,-0.00440157 -0.0276063,-0.00382283 -0.00346457,0.000216535 -0.00706299,0.00076378 -0.010748,0.00160236 -0.000862205,-0.0154567 -0.00246457,-0.0309961 -0.00482283,-0.0465079 -0.00366929,-0.0240827 -0.00915748,-0.0479843 -0.0165551,-0.0713425l-0.000346457 -0.00103543 -0.000185039 -0.00053937 -0.000106299 -0.000311024 -0.00106299 -0.00278346c-0.00718504,-0.0219055 -0.0157717,-0.0428504 -0.0257913,-0.0625197 -0.0105984,-0.0207913 -0.0229724,-0.0408543 -0.0371693,-0.059878 -0.0037874,-0.00507874 -0.00818898,-0.0105945 -0.0132244,-0.0165512 -0.00433858,-0.00512598 -0.00903543,-0.0103386 -0.0140906,-0.0156024 -0.00419685,-0.00437008 -0.00918898,-0.00921654 -0.0149882,-0.0145276 -0.00588976,-0.00538976 -0.0110787,-0.00988583 -0.0155079,-0.0134094l-0.00134252 -0.00101575 -0.0015 -0.00111811c-0.000909449,-0.000637795 -0.00183071,-0.00123228 -0.00276772,-0.00179528 -0.00219291,-0.00143701 -0.00439764,-0.00272047 -0.0066063,-0.00384252 -0.00105512,-0.000527559 -0.00212205,-0.00101181 -0.00320079,-0.00145276 -0.00185827,-0.000846457 -0.00365748,-0.00156693 -0.00538583,-0.00217717 -0.00385827,-0.00135039 -0.00785039,-0.00233465 -0.0119016,-0.00298031 -0.00392913,-0.000622047 -0.00793307,-0.000893701 -0.0119449,-0.000834646l-0.00156299 1.9685e-005 -0.0025748 0.000110236 -7.87402e-006 -0.000110236c-0.00867717,0.000637795 -0.0172402,0.003 -0.0252323,0.00680709l-6.69291e-005 -0.000137795c-0.00766535,0.00365748 -0.0148031,0.00885433 -0.0209252,0.0152913 -0.00623622,0.00655118 -0.0113346,0.0144449 -0.0148071,0.0234055 -0.00290157,0.00748425 -0.00459843,0.0156496 -0.0047874,0.024315 -0.000102362,0.00122047 -0.000153543,0.00244882 -0.000153543,0.00369685 0,0.00179921 0.000110236,0.00357087 0.000318898,0.00531496 0.000909449,0.0145551 0.00112205,0.0366457 -0.00201969,0.0649646 -0.00339764,0.0305906 -0.010626,0.0680197 -0.0248819,0.110457 -0.00984646,0.0293465 -0.0229449,0.0609291 -0.0402638,0.0941142 -0.0151732,0.0290787 -0.0340906,0.0600984 -0.0575827,0.0928701l-0.00119291 0.00175197 -0.00153937 0.00249606c-0.033622,0.0486929 -0.0557677,0.0948268 -0.069748,0.137331 -0.0144488,0.0439173 -0.0202756,0.0844488 -0.0210748,0.120224 -0.000807087,0.0363228 0.00373228,0.0676654 0.00976378,0.0927283 0.00626772,0.0260197 0.0139567,0.045126 0.0192126,0.0564882 0.00235039,0.00508268 0.00539764,0.0111969 0.00909055,0.0182795 0.00326378,0.00625197 0.0065315,0.0121457 0.00977953,0.0176929 0.00330709,0.0056378 0.00685433,0.0113268 0.0106299,0.0170709 0.0040748,0.00619685 0.00783071,0.0116102 0.0112717,0.0162717 0.00983071,0.0133189 0.0199055,0.0255669 0.0301535,0.0367441 0.0104685,0.0114134 0.0214882,0.0220984 0.0329882,0.0320315l0.00127165 0.00105512c0.0288937,0.0247402 0.0597362,0.0435079 0.0917283,0.0563622 0.0330591,0.0132835 0.0673583,0.0201811 0.10202,0.0207126 -0.0470197,-0.00127165 -0.0918819,-0.0189724 -0.131681,-0.0542913 -0.00390157,-0.00345669 -0.00704724,-0.00745276 -0.00941732,-0.0117756 -0.0189291,-0.0307795 -0.0369921,-0.073063 -0.0400512,-0.125012 -0.00212598,-0.00270866 -0.00422047,-0.00546457 -0.00628346,-0.00825984 -0.00322047,-0.00436614 -0.00608661,-0.00843307 -0.00851575,-0.0121378 -0.00259055,-0.00393701 -0.00533071,-0.00837008 -0.0082126,-0.0132756 -0.00273622,-0.00466535 -0.00532283,-0.00931496 -0.0077126,-0.0139016 -0.00184252,-0.0035315 -0.0041811,-0.00834646 -0.00701575,-0.0144843 -0.00382677,-0.00825984 -0.00937008,-0.0219724 -0.0136929,-0.0399213 -0.00455118,-0.0189016 -0.00797244,-0.0427087 -0.00735039,-0.0706496 0.000614173,-0.0275276 0.00529528,-0.059311 0.016937,-0.0947008 0.011626,-0.0353583 0.0301457,-0.0738661 0.0583465,-0.114701l0.000692913 -0.000889764 0.000811024 -0.00109055 0.000555118 -0.000748031c0.0251024,-0.0350236 0.0461496,-0.0697677 0.0637874,-0.103563 0.0197913,-0.0379134 0.0346732,-0.073752 0.0457913,-0.106878 0.0166299,-0.0495394 0.0250669,-0.0931496 0.0290157,-0.12874 0.00169291,-0.0152362 0.00258268,-0.0290827 0.00294882,-0.041374l0.00320079 0.0037126c0.00297244,0.00351969 0.00624803,0.00768504 0.00977559,0.0124094 0.0111496,0.0149409 0.020878,0.0307323 0.0292283,0.0471181 0.00843701,0.0165551 0.0153465,0.0331496 0.0207795,0.0495866 0.00034252,0.00144882 0.000755906,0.0028937 0.00124803,0.00433071l4.72441e-005 0.000137795c0.00597638,0.0189252 0.0104055,0.0382087 0.0133504,0.0575669 0.00305118,0.0200591 0.00453937,0.0403701 0.00453937,0.0605984 0,0.011122 0.000354331,0.0231496 0.00102756,0.0358701 0.000665354,0.0125472 0.0015748,0.0235984 0.00270472,0.0330354 0.00117323,0.00982677 0.00272047,0.0193346 0.00459843,0.0283346 0.00192126,0.00924409 0.00420866,0.0175236 0.00681102,0.0246417 0.00246457,0.00676378 0.00480315,0.012185 0.00695669,0.0163228 0.0034685,0.00666142 0.00751969,0.0123465 0.0119921,0.0170118 0.00265748,0.00274409 0.00570866,0.00519685 0.00914567,0.00724803 0.020815,0.0124528 0.0477835,0.0057126 0.0602913,-0.0150472 0.000637795,-0.000948819 0.00124016,-0.00194094 0.00181102,-0.00295276 0.00645276,-0.0115157 0.0113386,-0.0275551 0.0136417,-0.0477205l0 -0.000173228c0.000283465,-0.00248031 0.000531496,-0.00505512 0.00073622,-0.00771654 0.00454331,0.00670472 0.00927165,0.0143622 0.0141181,0.0231024 0.00628346,0.0113346 0.0128425,0.0248071 0.0195197,0.040811 0.00598031,0.0143307 0.0118819,0.0303937 0.0175354,0.0483583 0.0040748,0.0130748 0.00748031,0.0253701 0.0102913,0.0368819 0.00276772,0.011311 0.00521654,0.0232559 0.00738189,0.035622 0.00221654,0.0126693 0.00376378,0.0236929 0.00472835,0.0332402 0.00109843,0.0107205 0.00172835,0.0205394 0.0019685,0.0294921 -2.3622e-005,0.000984252 -1.1811e-005,0.00197244 3.14961e-005,0.00297244l7.87402e-005 0.00138189 -0.000141732 -0.00138189 0 0.0102953 -7.08661e-005 0.00237008 0 0.000279528 0.000165354 0 -0.000110236 0.00390945 -0.000161417 0.00375984 -0.000259843 0.00479528 0 0.000169291 -0.000255906 0.00325197 -2.3622e-005 0.000511811c-0.000980315,0.016126 -0.00303937,0.0316417 -0.00601575,0.0465472 -0.00309843,0.0155118 -0.00699606,0.0294528 -0.0115433,0.0419528 -0.00494882,0.0136102 -0.0107638,0.0260748 -0.0172283,0.0374764 -0.00697638,0.012315 -0.0146339,0.0233307 -0.0227598,0.0331732 0.00100787,0.0434291 -0.00882283,0.0865669 -0.0331299,0.127067 -0.00311811,0.00520866 -0.00714173,0.00954331 -0.0117362,0.0129409zm-0.142799 -0.0349055l-0.00405118 9.84252e-005c0.00132677,-2.75591e-005 0.00265748,-5.51181e-005 0.00398425,-9.44882e-005 2.3622e-005,0 4.33071e-005,-3.93701e-006 6.69291e-005,-3.93701e-006zm-0.00606693 9.44882e-005c-4.33071e-005,0 -9.05512e-005,0 -0.000133858,0 4.33071e-005,0 9.05512e-005,0 0.000133858,0zm0.006 -9.05512e-005c-0.00133071,5.51181e-005 -0.00266142,8.66142e-005 -0.00398425,9.44882e-005 -0.000645669,3.93701e-006 -0.0012874,3.93701e-006 -0.00193307,-3.93701e-006 -2.75591e-005,0 -5.51181e-005,0 -8.26772e-005,0 -4.33071e-005,-3.93701e-006 -9.05512e-005,-3.93701e-006 -0.000133858,0 -0.025311,-0.000354331 -0.0500787,-0.0095748 -0.0728976,-0.0282756 -0.011878,-0.020437 -0.0226772,-0.0475669 -0.0245276,-0.0802953 -0.00154724,-0.0272874 0.0031378,-0.0587638 0.0185276,-0.0940236 0.0275197,-0.0630276 0.0508583,-0.114276 0.0691496,-0.153457 0.0140787,0.0312047 0.0326417,0.0660551 0.0564764,0.0994961 0.0288858,0.0405315 0.0506614,0.0861024 0.0570945,0.130976 0.00467323,0.0325709 0.00105906,0.0649252 -0.0143425,0.0945551 -0.0283858,0.0192717 -0.0566299,0.0297953 -0.0832283,0.0309291 -1.5748e-005,0 -3.54331e-005,0 -5.11811e-005,0 -2.3622e-005,0 -4.33071e-005,3.93701e-006 -6.69291e-005,3.93701e-006zm0.455496 -1.13948l-0.915035 0 0 1.38667 0.915035 0 0 -1.38667z"/>
  <path class="fil1" d="M2.76014 4.53422l-0.915035 0 0 -1.38667 0.915035 0 0 1.38667zm0.101177 1.22578l0 -3.26852c0,-0.274665 -0.143409,-0.449425 -0.326961,-0.525008 -0.0723465,-0.0297913 -0.151689,-0.0446929 -0.231732,-0.0446929 -0.0800394,0 -0.159382,0.0149016 -0.231732,0.0446929 -0.183555,0.0755866 -0.326965,0.250346 -0.326965,0.525008l0 3.26852 1.11739 0z"/>
  <path class="fil2" d="M1.74393 2.49148l0 3.26852 1.11739 0 0 -3.26852c0,-0.274665 -0.143409,-0.449425 -0.326961,-0.525008 -0.0723465,-0.0297913 -0.151689,-0.0446929 -0.231732,-0.0446929 -0.0800394,0 -0.159382,0.0149016 -0.231732,0.0446929 -0.183555,0.0755866 -0.326965,0.250346 -0.326965,0.525008zm-0.213339 3.37519l0 -3.37519c0,-0.374638 0.201524,-0.615457 0.459469,-0.721677 0.0993386,-0.0409016 0.206311,-0.0613622 0.312567,-0.0613622 0.10626,0 0.213232,0.0204606 0.312567,0.0613622 0.257941,0.106213 0.459465,0.347024 0.459465,0.721677l0 3.37519c0,0.0589094 -0.0477598,0.106669 -0.106669,0.106669l-1.33073 0c-0.0589094,0 -0.106669,-0.0477598 -0.106669,-0.106669z"/>
  <path class="fil2" d="M2.40929 1.28383c0,0.0589094 -0.0477598,0.106669 -0.106669,0.106669 -0.0589094,0 -0.106669,-0.0477598 -0.106669,-0.106669l0 -0.323827c0,-0.0589094 0.0477598,-0.106669 0.106669,-0.106669 0.0589094,0 0.106669,0.0477598 0.106669,0.106669l0 0.323827z"/>
  <path class="fil2" d="M4.98041 1.29453l-0.11265 0.673945 0.471996 -0.483398 -0.359346 -0.190547zm-0.378575 0.973512l0.192933 -1.15423 3.93701e-006 0c0.00182283,-0.0109252 0.00538976,-0.021748 0.0108307,-0.0320827 0.0273819,-0.0520039 0.0917441,-0.0719646 0.143748,-0.0445827l0.615437 0.326339 -1.5748e-005 2.75591e-005c0.00880315,0.00464173 0.0171024,0.0105945 0.0245984,0.0178858 0.0421102,0.0409567 0.0430433,0.108307 0.00208661,0.150417l-0.805488 0.824937c-0.0235157,0.0260827 -0.0594291,0.0399882 -0.0966339,0.0337874 -0.0579882,-0.00966142 -0.0971614,-0.0645118 -0.0875,-0.1225z"/>
  <path class="fil2" d="M2.07044 1.17598c0.0589094,0 0.106669,0.0477598 0.106669,0.106669 0,0.0589094 -0.0477598,0.106669 -0.106669,0.106669 -0.170461,0 -0.326185,0.0677638 -0.44276,0.178283 -0.118413,0.112256 -0.196803,0.268366 -0.209969,0.442504 -0.00437008,0.0586811 -0.0554882,0.102705 -0.114169,0.0983346 -0.0586811,-0.00437008 -0.102705,-0.0554882 -0.0983346,-0.114169 0.0172717,-0.228445 0.12024,-0.433358 0.275803,-0.580835 0.155264,-0.147201 0.362583,-0.237457 0.589429,-0.237457z"/>
  <path class="fil2" d="M2.35399 1.3905l-0.102736 0 0 0.317591 0.102736 0 0 -0.317591zm-0.209406 -0.213339l0.316075 0c0.0589094,0 0.106669,0.0477598 0.106669,0.106669l0 0.530929c0,0.0589094 -0.0477598,0.106669 -0.106669,0.106669l-0.316075 0c-0.0589094,0 -0.106669,-0.0477598 -0.106669,-0.106669l0 -0.530929c0,-0.0589094 0.0477598,-0.106669 0.106669,-0.106669z"/>
  <path class="fil2" d="M4.63239 2.18835c0.0227795,-0.0540748 0.0850945,-0.0794449 0.139169,-0.0566654 0.0540748,0.0227795 0.0794449,0.0850945 0.0566654,0.139169 -0.289886,0.683622 -0.279079,1.42261 -0.268091,2.17407 0.00233071,0.1595 0.00467323,0.319457 0.00467323,0.438185 0,0.284205 -0.15348,0.46713 -0.349921,0.548024 -0.0754252,0.0310591 -0.156441,0.0465906 -0.236748,0.0465906 -0.080311,0 -0.161331,-0.0155354 -0.236748,-0.0465906 -0.196441,-0.0808937 -0.349921,-0.263815 -0.349921,-0.548024l0 -2.90621c0,-0.212063 -0.0539173,-0.354311 -0.138327,-0.444965 -0.100839,-0.108303 -0.251402,-0.148472 -0.406878,-0.148472l0 -0.000417323 -0.334217 -5.11811e-005c-0.0835787,-1.5748e-005 -0.160366,-3.93701e-005 -0.360374,-4.72441e-005 -0.236283,-1.1811e-005 -0.336531,-0.069815 -0.486941,-0.174535 -0.0392795,-0.0273465 -0.0823189,-0.057311 -0.125657,-0.0845984 -0.0497047,-0.0312953 -0.0646299,-0.0969606 -0.0333346,-0.146665 0.0312953,-0.0497047 0.0969606,-0.0646299 0.146665,-0.0333346 0.055437,0.0349016 0.0965079,0.0635 0.133996,0.0895984 0.118087,0.0822165 0.196803,0.137024 0.365272,0.137031 0.200008,7.87402e-006 0.276795,3.14961e-005 0.360374,4.72441e-005l0.334217 5.11811e-005 0 -0.000417323c0.208843,0 0.415457,0.0586575 0.562713,0.216811 0.1195,0.128339 0.195831,0.318346 0.195831,0.589965l0 2.90621c0,0.18422 0.0953622,0.301094 0.217417,0.351354 0.0484331,0.0199449 0.101823,0.0299213 0.155913,0.0299213 0.0540906,0 0.107476,-0.00997638 0.155913,-0.0299213 0.122055,-0.0502598 0.217417,-0.167138 0.217417,-0.351354 0,-0.173177 -0.00192126,-0.304669 -0.00383858,-0.435681 -0.011315,-0.773728 -0.0224409,-1.53462 0.28476,-2.25907z"/>
  <polygon class="fil3" points="4.98041,1.29453 4.86776,1.96848 5.33976,1.48508 "/>
  <path class="fil2" d="M2.49241 4.18193c0.00809449,-0.00984252 0.0157559,-0.0208622 0.0227323,-0.0331732 0.00646063,-0.0114016 0.0122756,-0.0238661 0.0172283,-0.0374803 0.00454724,-0.0124961 0.00844488,-0.026437 0.0115433,-0.0419488 0.00297638,-0.0149055 0.00503543,-0.0304252 0.00601969,-0.0465472l3.93701e-005 -0.000515748 -1.9685e-005 0c0.000188976,-0.00261024 0.000216535,-0.00248819 0.000255906,-0.00324803l7.87402e-006 -0.000169291 -7.87402e-006 0 0.000259843 -0.00479528 0.000165354 -0.00375984 0.000106299 -0.00390945 -0.000161417 0 0 -0.000275591c0,-0.000795276 2.3622e-005,-0.00158661 6.69291e-005,-0.00237402l0 -0.0102992 6.29921e-005 0c-4.33071e-005,-0.000992126 -5.51181e-005,-0.00198425 -3.54331e-005,-0.00296457 -0.000240157,-0.00895669 -0.000874016,-0.0187756 -0.00196457,-0.0294961 -0.000968504,-0.00954331 -0.00251181,-0.0205709 -0.00472835,-0.0332362 -0.00216535,-0.0123701 -0.00461811,-0.024311 -0.00738189,-0.035626 -0.00281496,-0.0115118 -0.00622047,-0.0238071 -0.0102677,-0.0368898l-3.14961e-005 7.87402e-006c-0.00564567,-0.0179685 -0.0115433,-0.0340276 -0.0175276,-0.0483583 -0.00667717,-0.0160039 -0.0132362,-0.0294803 -0.0195197,-0.040811 -0.00484646,-0.00874016 -0.0095748,-0.0163976 -0.0141102,-0.0231063 -0.000212598,0.00266535 -0.00046063,0.00524016 -0.000744094,0.00772047l-1.9685e-005 0.000169291 1.9685e-005 3.93701e-006c-0.00230315,0.0201654 -0.00719291,0.0362047 -0.0136417,0.0477205 -0.000570866,0.00101575 -0.00117323,0.002 -0.00181102,0.00295276 -0.0125118,0.0207598 -0.0394764,0.0275 -0.0602913,0.0150472 -0.00343701,-0.00205118 -0.00648819,-0.00450394 -0.00913386,-0.00725591l-1.1811e-005 1.1811e-005c-0.00447244,-0.00466535 -0.00851969,-0.0103543 -0.0119921,-0.0170157 -0.00215354,-0.00413386 -0.00448819,-0.00955906 -0.00695669,-0.0163189 -0.00260236,-0.00712598 -0.00488976,-0.0154016 -0.00681496,-0.0246457 -0.00187402,-0.009 -0.00342126,-0.0185079 -0.00459449,-0.0283346 -0.00112992,-0.00943307 -0.00203937,-0.0204882 -0.00270472,-0.0330315 -0.000673228,-0.0127244 -0.00102362,-0.024748 -0.00102362,-0.035874 0,-0.0202283 -0.00149213,-0.0405394 -0.00454331,-0.0605984 -0.00294488,-0.0193583 -0.00737795,-0.0386378 -0.0133465,-0.0575669l-5.11811e-005 -0.000137795c-0.000492126,-0.00144094 -0.000905512,-0.00288189 -0.00124409,-0.00433071 -0.00543701,-0.0164409 -0.0123465,-0.0330315 -0.0207835,-0.0495866 -0.00835039,-0.0163898 -0.0180827,-0.0321772 -0.0292283,-0.0471181 -0.00352756,-0.00472441 -0.00680315,-0.00888976 -0.00977953,-0.0124094 -0.00106693,-0.00125984 -0.00213386,-0.0025 -0.00320079,-0.0037126 -0.000366142,0.0122913 -0.00125197,0.0261378 -0.00294488,0.041374 -0.00395276,0.0355906 -0.0123858,0.0791969 -0.0290157,0.12874 -0.0111181,0.033126 -0.026,0.0689646 -0.0457913,0.106878 -0.0176378,0.0337953 -0.038685,0.0685433 -0.0637874,0.103563l-0.000551181 0.000744094 -0.000814961 0.00109449 -0.000692913 0.000893701c-0.0282047,0.0408307 -0.0467244,0.0793386 -0.0583465,0.114697 -0.0116417,0.0353937 -0.0163228,0.0671732 -0.016937,0.0946969 -0.000622047,0.0279449 0.00279921,0.051752 0.00735039,0.0706535 0.00432283,0.0179488 0.00986614,0.0316575 0.0136929,0.0399213 0.00283465,0.0061378 0.00517323,0.0109528 0.00701575,0.0144882 0.0023937,0.00458268 0.00497638,0.00923228 0.0077126,0.0138937 0.00288189,0.00490945 0.00561811,0.00934252 0.0082126,0.0132795 0.00243307,0.00370472 0.00529134,0.00777165 0.00851181,0.0121378 0.0076811,0.0104016 0.0157992,0.0202402 0.0242874,0.0294961 0.00838189,0.00914173 0.016811,0.0173701 0.0252441,0.024689 0.000472441,0.000374016 0.000940945,0.000748031 0.00138976,0.0011378l1.1811e-005 -1.5748e-005c0.0215079,0.0184213 0.0441181,0.0322598 0.0672559,0.0415551 0.0231929,0.00931496 0.0469291,0.0141457 0.0706299,0.0145394 0.0237362,0.000393701 0.0478228,-0.00368504 0.0716575,-0.0121614l-1.9685e-005 -5.51181e-005c0.0241811,-0.00862598 0.0478228,-0.021685 0.0703031,-0.0391063 0.00940157,-0.0072874 0.0187205,-0.0154449 0.0278976,-0.0244567 0.00934646,-0.0091811 0.0183307,-0.0189803 0.0268937,-0.0293898zm0.0993189 0.0102953c-0.00941732,0.0166181 -0.0199961,0.0317795 -0.0313583,0.0455906 -0.0108858,0.0132323 -0.0219409,0.0253307 -0.0331024,0.0362953 -0.0116024,0.0113937 -0.0235709,0.0218504 -0.0358307,0.0313543 -0.0302402,0.023437 -0.062,0.0409882 -0.0944528,0.052563l-1.9685e-005 -5.51181e-005 -0.000149606 5.51181e-005c-0.0334016,0.0119134 -0.0678661,0.0176181 -0.10252,0.0170472 -0.0346575,-0.000570866 -0.0689606,-0.0074685 -0.10202,-0.020752 -0.0319921,-0.0128504 -0.0628346,-0.031622 -0.0917283,-0.0563622 -0.000429134,-0.000346457 -0.000850394,-0.00069685 -0.00126772,-0.00105906 -0.0115039,-0.00993307 -0.0225236,-0.0206142 -0.0329921,-0.0320276 -0.010248,-0.0111772 -0.0203228,-0.0234252 -0.0301535,-0.0367402 -0.00344094,-0.00466535 -0.00719685,-0.0100787 -0.0112717,-0.0162756 -0.00377559,-0.00574409 -0.00732283,-0.0114331 -0.0106299,-0.0170748 -0.00325197,-0.00554331 -0.00651575,-0.011437 -0.00977953,-0.017689 -0.00369291,-0.00708268 -0.00674016,-0.0131969 -0.00909055,-0.0182835 -0.00525591,-0.0113543 -0.0129449,-0.0304646 -0.0192087,-0.0564803 -0.00603543,-0.0250669 -0.0105748,-0.0564055 -0.00976772,-0.0927362 0.000799213,-0.0357717 0.00662992,-0.0763031 0.0210748,-0.12022 0.0139803,-0.0425039 0.036122,-0.0886378 0.0697441,-0.137327 0.000484252,-0.000846457 0.001,-0.0016811 0.00154331,-0.0025 0.00038189,-0.000586614 0.000779528,-0.00117323 0.00119291,-0.00175197 0.0234921,-0.0327717 0.0424094,-0.0637913 0.0575827,-0.0928701 0.0173189,-0.033185 0.0304173,-0.0647677 0.0402677,-0.0941142 0.014248,-0.042437 0.0214803,-0.0798701 0.024878,-0.110457 0.00314173,-0.0283189 0.00292913,-0.0504055 0.00201969,-0.0649646 -0.000208661,-0.00174409 -0.000318898,-0.00351575 -0.000318898,-0.00531496 0,-0.00124803 5.51181e-005,-0.00247638 0.00015748,-0.00370079 0.000188976,-0.00866142 0.00188189,-0.0168268 0.00477953,-0.0243071 0.00347638,-0.00896063 0.0085748,-0.0168622 0.014811,-0.0234094 0.00612598,-0.00643701 0.0132598,-0.0116339 0.0209252,-0.0152913l6.69291e-005 0.000137795c0.00799213,-0.00380709 0.0165551,-0.00616929 0.0252323,-0.00680315l7.87402e-006 0.000106299c0.000850394,-5.90551e-005 0.00170866,-9.84252e-005 0.0025748,-0.000106299l0.00156299 -2.3622e-005c0.00401181,-5.90551e-005 0.00801181,0.000212598 0.0119449,0.000838583 0.00405118,0.000641732 0.00804331,0.00162992 0.0119016,0.00297638 0.00172835,0.000606299 0.00352362,0.00132677 0.00538976,0.00217717 0.0010748,0.000437008 0.00214173,0.000925197 0.00319685,0.00145669 0.00220472,0.00111811 0.00440945,0.00240157 0.00660236,0.00383858 0.000940945,0.000562992 0.0018622,0.00115748 0.00276772,0.00179528 0.000440945,0.000307087 0.000937008,0.000681102 0.00150787,0.00111811 0.000448819,0.000330709 0.000897638,0.000665354 0.00133858,0.00101969 0.00442913,0.00351969 0.00962205,0.00801969 0.0155039,0.0134055 0.00580315,0.00531102 0.0107992,0.0101575 0.0149882,0.0145276 0.00505906,0.00526378 0.00975591,0.0104764 0.0140906,0.0156024 0.00503937,0.00595276 0.00944094,0.0114685 0.0132283,0.0165472 0.0142008,0.0190276 0.0265669,0.0390906 0.0371654,0.0598819 0.0100236,0.0196693 0.0186063,0.0406142 0.0257953,0.0625157 0.00038189,0.000909449 0.00073622,0.00183858 0.00106299,0.00278346l0.000106299 0.000314961 0.000531496 0.0015748c0.00739764,0.0233583 0.0128898,0.0472598 0.0165551,0.0713425 0.00235827,0.0155118 0.00396063,0.0310472 0.0048189,0.0465118 0.00368898,-0.00084252 0.0072874,-0.00138583 0.010748,-0.0016063 0.00917717,-0.00057874 0.0185512,0.00061811 0.0276102,0.00382283 0.00826378,0.00292126 0.0162677,0.00758268 0.0236102,0.0141654 0.00825197,0.00740551 0.0181811,0.0175433 0.0289016,0.0310748 0.0103071,0.0130079 0.0213661,0.0291378 0.0323307,0.0489173 0.00815748,0.0147087 0.0162795,0.0312598 0.0240039,0.0497795 0.00695669,0.0166654 0.0137913,0.0352598 0.0202953,0.0559488l-7.08661e-005 2.3622e-005 7.08661e-005 0.000212598c0.00441732,0.0142756 0.00829921,0.0283543 0.0116732,0.0421693 0.00376378,0.0154173 0.00665354,0.0290866 0.00875984,0.0411457 0.00225984,0.0129055 0.00404724,0.026248 0.00542126,0.0397874 0.00125197,0.012311 0.00198819,0.0242835 0.00229528,0.0358268 0.000220472,0.00227165 0.000334646,0.0040315 0.000334646,0.00525984l0 0.0126732c0,0.00181496 -0.000114173,0.0036063 -0.000326772,0.00536614l-3.14961e-005 0.00123228c-8.26772e-005,0.00290157 -0.000137795,0.0045315 -0.000165354,0.0051378l-0.000259843 0.00583465 -7.87402e-006 0 -7.87402e-005 0.0015 0 0.000188976c0,0.00204331 -0.000141732,0.00405118 -0.000409449,0.00601969 -0.00135039,0.0198701 -0.00379528,0.0382362 -0.0071811,0.0551929 -0.00380315,0.0190591 -0.009,0.0373031 -0.0153386,0.0547165 -0.00669291,0.0183937 -0.0146063,0.0353386 -0.0234409,0.0509291zm-0.0410827 -0.198791l0.000141732 0.00138189 -7.87402e-005 -0.00138189 -6.29921e-005 0zm-0.129567 -0.485957l0.000185039 0.00053937"/>
  <path class="fil2" d="M2.44751 4.32193c-0.0473701,0.0346772 -0.0973346,0.052878 -0.146508,0.0531732 -0.0494567,0.000299213 -0.0967047,-0.0173661 -0.13839,-0.0543661 -0.00390551,-0.00345276 -0.00705118,-0.00744882 -0.00942126,-0.0117717 -0.0190039,-0.0308937 -0.037126,-0.073374 -0.0400827,-0.125583 -0.00224803,-0.0396772 0.00424016,-0.0847126 0.0257756,-0.134039 0.0725315,-0.16611 0.116488,-0.251795 0.116614,-0.252047 0.0109567,-0.0217205 0.0374488,-0.0304488 0.0591693,-0.0194921 0.0120709,0.00608268 0.020126,0.0169724 0.0230236,0.0291732l9.05512e-005 -2.3622e-005c6.29921e-005,0.00026378 0.0213701,0.0913898 0.0792165,0.172555 0.0364213,0.0510906 0.0640551,0.109866 0.072622,0.169614 0.00779134,0.0543543 5.11811e-005,0.109185 -0.030378,0.15987 -0.00311417,0.00520866 -0.0071378,0.00954331 -0.011748,0.0129173l1.5748e-005 1.9685e-005zm-0.14685 -0.0348031c0.0277913,-0.000169291 0.0574803,-0.0107638 0.0873307,-0.0310276 0.0154016,-0.0296299 0.0190157,-0.0619843 0.0143425,-0.0945551 -0.00643307,-0.044874 -0.0282087,-0.0904449 -0.0570945,-0.130972 -0.0238386,-0.0334488 -0.0423976,-0.0682953 -0.0564764,-0.0995 -0.0182913,0.0391811 -0.0416299,0.0904291 -0.0691496,0.153461 -0.0153937,0.0352559 -0.0200748,0.0667323 -0.0185276,0.0940197 0.00185433,0.0327283 0.0126496,0.0598583 0.0245236,0.0802953 0.0234685,0.0192283 0.0489961,0.028437 0.0750512,0.0282795z"/>
  <path class="fil4" d="M2.40233 4.16154c-0.00643307,-0.044874 -0.0282087,-0.0904449 -0.0570945,-0.130972 -0.0238386,-0.0334488 -0.0423976,-0.0682953 -0.0564764,-0.0995 -0.0182913,0.0391811 -0.0416299,0.0904291 -0.0691496,0.153461 -0.0153937,0.0352559 -0.0200748,0.0667323 -0.0185276,0.0940197 0.00185433,0.0327283 0.0126496,0.0598583 0.0245236,0.0802953 0.0228622,0.0187362 0.0476811,0.0279528 0.0730354,0.0282717 0.000673228,0 0.00134252,-3.93701e-006 0.00201575,7.87402e-006 0.00135039,-3.14961e-005 0.00270079,-5.51181e-005 0.00405512,-9.84252e-005 0.0266142,-0.00112205 0.0548701,-0.0116457 0.0832756,-0.0309291 0.0154016,-0.0296299 0.0190157,-0.0619843 0.0143425,-0.0945551z"/>
  <path class="fil1" d="M2.54997 4.02226l0 0zm0.000244094 -0.00341732l0 0zm-0.0238858 -0.163626l0 0zm-0.0519528 -0.104378l0 0zm-0.0848583 0.0584685l0 0zm-0.0748465 -0.0315039c0.0120709,0.00608268 0.020126,0.0169724 0.0230236,0.0291732l9.05512e-005 -2.3622e-005c6.29921e-005,0.00026378 0.0213701,0.0913898 0.0792165,0.172555 0.0364213,0.0510906 0.0640551,0.109866 0.072622,0.169614 0.00156693,0.0109291 0.00250394,0.021874 0.00278346,0.0328031 0.00809449,-0.00984252 0.0157559,-0.0208622 0.0227323,-0.0331732 0.00646063,-0.0114016 0.0122756,-0.0238661 0.0172283,-0.0374803 0.00454724,-0.0124961 0.00844488,-0.026437 0.0115433,-0.0419488 0.00297638,-0.0149055 0.00503543,-0.0304252 0.00601969,-0.0465472l1.9685e-005 -0.000515748 0.000255906 -0.00324803 0 -0.000169291 0.000259843 -0.00479528 0.000165354 -0.00375984 0.000106299 -0.00390945 -0.000161417 0 0 -0.000275591 6.69291e-005 -0.00237402 0 -0.0102992 6.29921e-005 0c-4.33071e-005,-0.000992126 -5.51181e-005,-0.00198425 -3.54331e-005,-0.00296457 -0.000240157,-0.00895669 -0.000874016,-0.0187756 -0.00196457,-0.0294961 -0.000968504,-0.00954331 -0.00251181,-0.0205709 -0.00472835,-0.0332362 -0.00216535,-0.0123701 -0.00461811,-0.024311 -0.00738189,-0.035626 -0.00281496,-0.0115118 -0.00622047,-0.0238071 -0.0102992,-0.0368819 -0.00564567,-0.0179685 -0.0115433,-0.0340276 -0.0175276,-0.0483583 -0.00667717,-0.0160039 -0.0132362,-0.0294803 -0.0195197,-0.040811 -0.00484646,-0.00874016 -0.0095748,-0.0163976 -0.0141102,-0.0231063 -0.000212598,0.00266535 -0.00046063,0.00524016 -0.000744094,0.00772047l0 0.000173228c-0.00230315,0.0201654 -0.00719291,0.0362047 -0.0136417,0.0477205 -0.000570866,0.00101575 -0.00117323,0.002 -0.00181102,0.00295276 -0.0125118,0.0207598 -0.0394764,0.0275 -0.0602913,0.0150472 -0.00343701,-0.00205118 -0.00648819,-0.00450394 -0.00914567,-0.00724409 -0.00447244,-0.00466535 -0.00851969,-0.0103543 -0.0119921,-0.0170157 -0.00215354,-0.00413386 -0.00448819,-0.00955906 -0.00695669,-0.0163189 -0.00260236,-0.00712598 -0.00488976,-0.0154016 -0.00681496,-0.0246457 -0.00187402,-0.009 -0.00342126,-0.0185079 -0.00459449,-0.0283346 -0.00112992,-0.00943307 -0.00203937,-0.0204882 -0.00270472,-0.0330315 -0.000673228,-0.0127244 -0.00102362,-0.024748 -0.00102362,-0.035874 0,-0.0202283 -0.00149213,-0.0405394 -0.00454331,-0.0605984 -0.00294488,-0.0193583 -0.00737795,-0.0386378 -0.0133465,-0.0575669l-5.11811e-005 -0.000137795c-0.000492126,-0.00144094 -0.000905512,-0.00288189 -0.00124409,-0.00433071 -0.00543701,-0.0164409 -0.0123465,-0.0330315 -0.0207835,-0.0495866 -0.00835039,-0.0163898 -0.0180827,-0.0321772 -0.0292283,-0.0471181 -0.00352756,-0.00472441 -0.00680315,-0.00888976 -0.00977953,-0.0124094l-0.00320079 -0.0037126c-0.000366142,0.0122913 -0.00125197,0.0261378 -0.00294488,0.041374 -0.00395276,0.0355906 -0.0123858,0.0791969 -0.0290157,0.12874 -0.0111181,0.033126 -0.026,0.0689646 -0.0457913,0.106878 -0.0176378,0.0337953 -0.038685,0.0685433 -0.0637874,0.103563l-0.000551181 0.000744094 -0.000814961 0.00109449 -0.000692913 0.000893701c-0.0282047,0.0408307 -0.0467244,0.0793386 -0.0583465,0.114697 -0.0116417,0.0353937 -0.0163228,0.0671732 -0.016937,0.0946969 -0.000622047,0.0279449 0.00279921,0.051752 0.00735039,0.0706535 0.00432283,0.0179488 0.00986614,0.0316575 0.0136929,0.0399213 0.00283465,0.0061378 0.00517323,0.0109528 0.00701575,0.0144882 0.0023937,0.00458268 0.00497638,0.00923228 0.0077126,0.0138937 0.00288189,0.00490945 0.00561811,0.00934252 0.0082126,0.0132795 0.00243307,0.00370472 0.00529134,0.00777165 0.00851181,0.0121378 0.00206693,0.00279528 0.00416142,0.00555118 0.0062874,0.00826378 -1.1811e-005,-0.000192913 -2.3622e-005,-0.00038189 -3.14961e-005,-0.000574803 -0.00224803,-0.0396772 0.00424016,-0.0847126 0.0257756,-0.134039 0.0725315,-0.16611 0.116488,-0.251795 0.116614,-0.252047 0.0109567,-0.0217205 0.0374488,-0.0304488 0.0591693,-0.0194921z"/>
  <polygon class="fil1" points="2.25126,1.70809 2.35399,1.70809 2.35399,1.3905 2.30262,1.3905 2.25126,1.3905 "/>
  <rect class="fil5 str0" x="1.84511" y="3.14756" width="0.915036" height="1.38667"/>
 </g>
 <rect class="fil5" width="6.82666" height="6.82666"/>
</svg>
