<?xml version="1.0" encoding="UTF-8"?>
<!DOCTYPE svg PUBLIC "-//W3C//DTD SVG 1.1//EN" "http://www.w3.org/Graphics/SVG/1.1/DTD/svg11.dtd">
<!-- Creator: CorelDRAW -->
<svg xmlns="http://www.w3.org/2000/svg" xml:space="preserve" width="6.82666in" height="6.82666in" style="shape-rendering:geometricPrecision; text-rendering:geometricPrecision; image-rendering:optimizeQuality; fill-rule:evenodd; clip-rule:evenodd"
viewBox="0 0 6.82666 6.82666"
 xmlns:xlink="http://www.w3.org/1999/xlink">
 <defs>
  <style type="text/css">
   <![CDATA[
    .fil4 {fill:none}
    .fil1 {fill:#949494}
    .fil2 {fill:#F45A52}
    .fil3 {fill:#FECA5F}
    .fil0 {fill:#212121;fill-rule:nonzero}
   ]]>
  </style>
 </defs>
 <g id="Layer_x0020_1">
  <metadata id="CorelCorpID_0Corel-Layer"/>
  <path class="fil0" d="M1.67516 2.32001l1.52824 0c0.0297913,0 0.0567205,0.0122165 0.0760748,0.0319094l1.14228 1.14228c0.0208268,0.0208268 0.0312362,0.048122 0.0312362,0.0754173l1.5748e-005 0 0 2.15178c0,0.0693937 -0.028315,0.132409 -0.0739252,0.178012 -0.0456024,0.0456102 -0.108618,0.0739252 -0.178012,0.0739252l-2.52591 0c-0.0693937,0 -0.132409,-0.028315 -0.178012,-0.0739252 -0.0456102,-0.0456024 -0.0739252,-0.108618 -0.0739252,-0.178012l0 -3.14945c0,-0.0693937 0.028315,-0.132402 0.0739213,-0.178016 0.0456142,-0.0456063 0.108622,-0.0739213 0.178016,-0.0739213zm1.48407 0.213339l-1.48407 0c-0.0105079,0 -0.0201378,0.00437795 -0.0271811,0.0114173 -0.00703937,0.00704331 -0.0114173,0.0166732 -0.0114173,0.0271811l0 3.14945c0,0.0105 0.00437795,0.0201339 0.0114213,0.0271772 0.00704331,0.00704331 0.0166772,0.0114213 0.0271772,0.0114213l2.52591 0c0.0105,0 0.0201339,-0.00437795 0.0271772,-0.0114213 0.00704331,-0.00704331 0.0114213,-0.0166772 0.0114213,-0.0271772l0 -2.10762 -1.08043 -1.08043zm-1.25745 0.158551l1.0227 0c0.0589094,0 0.106669,0.0477598 0.106669,0.106669l0 0.371894c0,0.0589094 -0.0477598,0.106669 -0.106669,0.106669l-1.0227 0c-0.0589094,0 -0.106669,-0.0477598 -0.106669,-0.106669l0 -0.371894c0,-0.0589094 0.0477598,-0.106669 0.106669,-0.106669zm0.916028 0.213339l-0.809358 0 0 0.158555 0.809358 0 0 -0.158555z"/>
  <path class="fil0" d="M4.1955 2.75539l-0.177874 -0.177874 -0.243614 0.243614 0.177874 0.177874 0.243614 -0.243614zm-0.102457 -0.404126l0.328709 0.328709c0.0416496,0.0416496 0.0416496,0.109185 0,0.150835l-0.394449 0.394449c-0.0416496,0.0416496 -0.109185,0.0416496 -0.150835,0l-0.328709 -0.328709c-0.0416496,-0.0416496 -0.0416496,-0.109185 0,-0.150835l0.394449 -0.394449c0.0416496,-0.0416496 0.109185,-0.0416496 0.150835,0z"/>
  <path class="fil0" d="M2.16983 3.83252l1.50059 0c0.0294528,0 0.0533346,0.0238819 0.0533346,0.0533346l0 1.35839c0,0.0294528 -0.0238819,0.0533346 -0.0533346,0.0533346l-1.50059 0c-0.0294528,0 -0.0533346,-0.0238819 -0.0533346,-0.0533346l0 -1.35839c0,-0.0294528 0.0238819,-0.0533346 0.0533346,-0.0533346zm1.44726 0.106669l-1.39392 0 0 1.25172 1.39392 0 0 -1.25172z"/>
  <path class="fil0" d="M1.85536 3.67303c-0.0208228,-0.0208228 -0.0208228,-0.0545945 0,-0.0754173 0.0208228,-0.0208228 0.0545945,-0.0208228 0.0754173,0l0.262965 0.262965c0.0208228,0.0208228 0.0208228,0.0545945 0,0.0754173 -0.0208228,0.0208228 -0.0545945,0.0208228 -0.0754173,0l-0.262965 -0.262965z"/>
  <path class="fil0" d="M3.90947 3.59761c0.0208228,-0.0208228 0.0545945,-0.0208228 0.0754173,0 0.0208228,0.0208228 0.0208228,0.0545945 0,0.0754173l-0.262969 0.262965c-0.0208228,0.0208228 -0.0545945,0.0208228 -0.0754173,0 -0.0208228,-0.0208228 -0.0208228,-0.0545945 0,-0.0754173l0.262969 -0.262965z"/>
  <path class="fil0" d="M1.93078 5.53248c-0.0208228,0.0208228 -0.0545945,0.0208228 -0.0754173,0 -0.0208228,-0.0208228 -0.0208228,-0.0545945 0,-0.0754173l0.262965 -0.262969c0.0208228,-0.0208228 0.0545945,-0.0208228 0.0754173,0 0.0208228,0.0208228 0.0208228,0.0545945 0,0.0754173l-0.262965 0.262969z"/>
  <path class="fil0" d="M3.98489 5.45707c0.0208228,0.0208228 0.0208228,0.0545945 0,0.0754173 -0.0208228,0.0208228 -0.0545945,0.0208228 -0.0754173,0l-0.262969 -0.262969c-0.0208228,-0.0208228 -0.0208228,-0.0545945 0,-0.0754173 0.0208228,-0.0208228 0.0545945,-0.0208228 0.0754173,0l0.262969 0.262969z"/>
  <path class="fil0" d="M4.46277 3.53418c-0.0117323,0.0269213 -0.0430748,0.0392323 -0.0699961,0.0275 -0.0269213,-0.0117323 -0.0392323,-0.0430748 -0.0275,-0.0699961l0.0115748 -0.0265118c0.0727874,-0.166524 0.161425,-0.369323 0.157791,-0.540437 -0.000574803,-0.0293386 0.0227441,-0.0535945 0.0520827,-0.0541693 0.0141457,-0.000275591 0.0271102,0.00500394 0.0368071,0.0138307l7.08661e-005 -7.87402e-005c0.0505709,0.0459528 0.0936575,0.100094 0.129323,0.159358 0.000606299,0.00100787 0.00117323,0.00202756 0.00170866,0.00305906 0.0366614,0.0615039 0.0655039,0.12874 0.0865551,0.198193 0.0334409,0.110327 0.0369685,0.197638 0.0406575,0.28926 0.00187008,0.0464803 0.00379921,0.0941772 0.0104724,0.148669 0.00352362,0.028748 0.0129449,0.0800512 0.0309961,0.122343 0.00792126,0.0185591 0.017126,0.0347283 0.0274803,0.0446181 0.00496063,0.00474016 0.0100591,0.00748425 0.0149961,0.00688189 0.00274409,-0.000334646 0.00575197,-0.00116929 0.00900394,-0.00255906 0.0174409,-0.00744882 0.0287717,-0.0338622 0.0361339,-0.064063 0.00962992,-0.0395 0.0112402,-0.0838031 0.0110827,-0.113276 -0.000114173,-0.0293386 0.0235787,-0.0532205 0.0529173,-0.0533346 0.0158543,-6.29921e-005 0.0301102,0.00683071 0.0398898,0.0178071l0.000110236 -9.84252e-005c0.0763465,0.0856811 0.138413,0.210693 0.179445,0.34326 0.0426142,0.137689 0.0629606,0.284843 0.0532953,0.405165 -0.0145906,0.181634 -0.0838228,0.355437 -0.198012,0.48426 -0.106339,0.119961 -0.251094,0.200933 -0.426705,0.213736 -0.00688583,0.0005 -0.0541969,0.000905512 -0.110437,0.00118504 -0.0847047,0.00042126 -0.190087,0.000547244 -0.201638,0.000358268 -0.0293386,-0.00046063 -0.052752,-0.024622 -0.0522913,-0.0539606 0.00046063,-0.0293386 0.024622,-0.052752 0.0539606,-0.0522913 0.0113661,0.000185039 0.115642,5.90551e-005 0.199551,-0.000358268 0.0520118,-0.000259843 0.0960827,-0.00065748 0.103358,-0.00118504 0.145764,-0.010626 0.266083,-0.0780276 0.354618,-0.177902 0.0986299,-0.111264 0.158543,-0.262823 0.171343,-0.422173 0.0086378,-0.107524 -0.00995276,-0.240343 -0.0487126,-0.365583 -0.0212756,-0.0687402 -0.0485039,-0.134803 -0.0804843,-0.192642 -0.0150118,0.0560079 -0.0434528,0.106673 -0.0957559,0.129008 -0.0130945,0.00559055 -0.025689,0.009 -0.0377598,0.0104803 -0.0405197,0.0049685 -0.0738819,-0.00949606 -0.10124,-0.0356378 -0.0219803,-0.0209961 -0.0389961,-0.0494134 -0.052063,-0.0800276 -0.0230118,-0.0539134 -0.0346732,-0.116453 -0.0389173,-0.151098 -0.00677165,-0.0552795 -0.00885827,-0.107008 -0.0108898,-0.157417 -0.00341732,-0.0847992 -0.00667717,-0.165606 -0.0360748,-0.262591 -0.0185197,-0.0610906 -0.0438898,-0.12026 -0.076126,-0.174417 -0.000594488,-0.000870079 -0.00116929,-0.00175591 -0.00172047,-0.00266929 -0.00967323,-0.0160748 -0.0199488,-0.0316772 -0.0308189,-0.0467205 -0.0258543,0.15678 -0.0963071,0.31798 -0.156508,0.455713l-0.0115748 0.0265118z"/>
  <path class="fil0" d="M4.39946 4.43743c-0.0119646,0.0268071 -0.0433976,0.0388386 -0.0702047,0.026874 -0.0268071,-0.0119646 -0.0388386,-0.0433976 -0.026874,-0.0702047 0.173283,-0.387366 0.279201,-0.588898 0.279508,-0.589484 0.0135748,-0.026 0.0456654,-0.0360748 0.0716654,-0.0225 0.0141299,0.00737795 0.0235591,0.0202244 0.0270394,0.0345945l4.33071e-005 -1.1811e-005c0.00015748,0.000645669 0.0535354,0.223484 0.198839,0.422476 0.0725079,0.0992835 0.129724,0.211031 0.156059,0.325118 0.0237953,0.103075 0.0226811,0.208051 -0.0142756,0.307969 -0.0096378,0.0260591 -0.0339252,0.0707402 -0.0602598,0.107799 -0.0228583,0.0321693 -0.0491929,0.0607205 -0.073689,0.0728425 -0.0263465,0.013 -0.058252,0.0021811 -0.071252,-0.0241654 -0.013,-0.0263465 -0.0021811,-0.058252 0.0241654,-0.071252 0.00706299,-0.00349213 0.0201457,-0.0194449 0.0341063,-0.0390945 0.0210591,-0.0296339 0.0399094,-0.063811 0.0469291,-0.0827992 0.0292992,-0.0792047 0.029878,-0.163724 0.0105276,-0.247551 -0.0229724,-0.0995315 -0.0736693,-0.198079 -0.138146,-0.28637 -0.0856614,-0.117315 -0.141972,-0.242433 -0.175614,-0.332524 -0.0474331,0.0964961 -0.122307,0.253102 -0.218567,0.468283z"/>
  <path class="fil0" d="M2.83789 2.19189c0.0391181,-0.173626 0.0325197,-0.359709 -0.0152992,-0.52728 -0.0312638,-0.109555 -0.0801063,-0.210795 -0.145209,-0.294827 -7.87402e-005,0.0236693 -0.00137008,0.0457717 -0.00374016,0.0659055 -0.00940157,0.0799291 -0.0389567,0.136602 -0.0810906,0.15324 -0.101445,0.040063 -0.163661,-0.0114646 -0.200988,-0.105988 -0.0386378,-0.0978268 -0.0455276,-0.250665 -0.0448898,-0.368996l-0.000905512 0.00149606c-0.000547244,0.000909449 -0.00112598,0.00179528 -0.00171654,0.00266142 -0.0275669,0.0463898 -0.0492677,0.0970512 -0.065122,0.149346 -0.0252323,0.0832402 -0.0280433,0.152913 -0.0309882,0.226016 -0.00177165,0.0439882 -0.00359449,0.0891299 -0.00947638,0.137142 -0.00372835,0.0304449 -0.0139921,0.0854449 -0.0342835,0.132984 -0.0116693,0.0273504 -0.0269528,0.052815 -0.0467874,0.0717638 -0.0252244,0.0240984 -0.0560354,0.0374134 -0.0935354,0.0328189 -0.0110945,-0.00135827 -0.0226614,-0.00449606 -0.0346654,-0.00961811 -0.0424764,-0.0181417 -0.0676102,-0.0563346 -0.0821614,-0.100051 -0.0240472,0.0460394 -0.0447087,0.0974882 -0.0612205,0.150835 -0.0333701,0.107819 -0.0493819,0.222087 -0.0419567,0.314512l7.87402e-006 0.000122047c0.00457874,0.0319606 0.0120748,0.0625827 0.0221102,0.0917638 0.00719685,0.0209331 0.0156614,0.0408543 0.0252402,0.059748l0.877701 0c0.0126339,-0.0224606 0.0241811,-0.0464685 0.0344882,-0.0720512 0.0138701,-0.0344291 0.0254882,-0.0715945 0.0344882,-0.111543zm0.0871969 -0.556445c0.0524843,0.183921 0.0596417,0.388516 0.0165512,0.579776 -0.0103346,0.0458661 -0.0236339,0.088437 -0.0394882,0.127795 -0.0160984,0.0399567 -0.0348661,0.0767677 -0.0558622,0.110496 -0.00890945,0.0170197 -0.0267362,0.0286417 -0.0472795,0.0286417l-0.939217 0 0 -9.44882e-005c-0.0181929,-1.5748e-005 -0.0359094,-0.0093622 -0.0458346,-0.0261575 -0.0194409,-0.0327992 -0.0359055,-0.0680315 -0.0488189,-0.105583 -0.0119134,-0.0346457 -0.0209252,-0.0718189 -0.0265945,-0.11148 -0.000444882,-0.00216929 -0.00076378,-0.00438976 -0.000940945,-0.00665748 -0.00845276,-0.105224 0.00931496,-0.233827 0.0465394,-0.354094 0.035874,-0.115917 0.0902126,-0.225299 0.157122,-0.300386l0.000110236 9.84252e-005c0.00977953,-0.0109764 0.0240354,-0.0178701 0.0398898,-0.0178071 0.0293386,0.000114173 0.0530315,0.0239961 0.0529173,0.0533346 -0.000133858,0.0251772 0.00123622,0.0629921 0.00942126,0.0965748 0.00591732,0.0242795 0.0146024,0.0453346 0.0272598,0.0507402 0.00217323,0.000925197 0.00414567,0.00148425 0.00590945,0.00169685 0.0019252,0.000232283 0.00447244,-0.00137008 0.00729134,-0.00406299 0.00820866,-0.00784252 0.0156772,-0.0210551 0.0222047,-0.0363543 0.0153307,-0.0359173 0.0233543,-0.0796811 0.0263622,-0.104228 0.00578346,-0.0472205 0.00744882,-0.0883346 0.00905906,-0.128394 0.00321654,-0.0799252 0.00629528,-0.156102 0.0355709,-0.252685 0.0183819,-0.0606417 0.0435551,-0.119354 0.0755276,-0.173075 0.00053937,-0.00104331 0.00111417,-0.00207874 0.00172835,-0.00309843 0.0312717,-0.0519646 0.0690866,-0.0994724 0.113484,-0.139819l7.08661e-005 7.87402e-005c0.00969685,-0.00882677 0.0226614,-0.0141063 0.0368071,-0.0138307 0.0293386,0.000574803 0.0526575,0.0248307 0.0520827,0.0541693 -0.000204724,0.00983465 -0.000582677,0.0199803 -0.00103543,0.0324094 -0.00357874,0.097685 -0.0121417,0.331461 0.0348031,0.450327 0.0142402,0.0360669 0.0342953,0.057189 0.0626575,0.0459882 0.00443307,-0.00174803 0.00973228,-0.0262874 0.0144213,-0.0661614 0.00590157,-0.0501693 0.0037874,-0.115543 -0.00951969,-0.187748 -0.00370079,-0.015685 -0.000275591,-0.0328622 0.0107913,-0.0462362 0.018752,-0.0226654 0.0523307,-0.0258346 0.0749961,-0.00708268 0.134366,0.111114 0.229539,0.27252 0.281012,0.452909z"/>
  <path class="fil0" d="M2.63175 2.42569c0.00172441,0.0293386 -0.0206614,0.0545276 -0.05,0.056252 -0.0293386,0.00172441 -0.0545276,-0.0206614 -0.056252,-0.05 -0.000968504,-0.0161535 -0.00352362,-0.033189 -0.00801575,-0.0510354 -0.00426378,-0.016937 -0.0101457,-0.0341614 -0.0179055,-0.0515157 -0.044437,-0.0993307 -0.0811339,-0.177516 -0.108457,-0.234236 -0.0207795,0.0479055 -0.0498228,0.103992 -0.0888268,0.157409 -0.0217756,0.0298228 -0.0408425,0.0617953 -0.0555551,0.0948346 -0.0129882,0.0291693 -0.0224213,0.0592244 -0.0270591,0.0893346 -0.00437008,0.0291063 -0.0315197,0.0491614 -0.060626,0.0447913 -0.0291063,-0.00437008 -0.0491614,-0.0315197 -0.0447913,-0.060626 0.00605906,-0.0393622 0.0183976,-0.0786614 0.0353976,-0.116831 0.0176693,-0.0396772 0.0405906,-0.0781142 0.0667992,-0.114 0.0838228,-0.114795 0.114583,-0.243217 0.114673,-0.243587l4.33071e-005 1.1811e-005c0.00348031,-0.0143701 0.0129094,-0.0272165 0.0270394,-0.0345945 0.026,-0.0135748 0.0580906,-0.0035 0.0716654,0.0225 0.000181102,0.000346457 0.0635866,0.120992 0.166776,0.351661 0.0106654,0.0238504 0.0185866,0.0468858 0.0241575,0.0690118 0.00607874,0.0241378 0.00956299,0.047752 0.010937,0.0706181z"/>
  <polygon class="fil1" points="4.01762,2.57751 3.77401,2.82113 3.95188,2.999 4.1955,2.75539 "/>
  <path class="fil1" d="M4.23966 3.61378l-1.08043 -1.08043 -1.48407 0c-0.0105079,0 -0.0201378,0.00437795 -0.0271811,0.0114173 -0.00703937,0.00704331 -0.0114173,0.0166732 -0.0114173,0.0271811l0 3.14945c0,0.0105 0.00437795,0.0201339 0.0114213,0.0271772 0.00704331,0.00704331 0.0166772,0.0114213 0.0271772,0.0114213l2.52591 0c0.0105,0 0.0201339,-0.00437795 0.0271772,-0.0114213 0.00704331,-0.00704331 0.0114213,-0.0166772 0.0114213,-0.0271772l0 -2.10762zm-1.20852 -0.815213l0 0.371894c0,0.0589094 -0.0477598,0.106669 -0.106669,0.106669l-1.0227 0c-0.0589094,0 -0.106669,-0.0477598 -0.106669,-0.106669l0 -0.371894c0,-0.0589094 0.0477598,-0.106669 0.106669,-0.106669l1.0227 0c0.0589094,0 0.106669,0.0477598 0.106669,0.106669zm0.643268 1.03409l0.235055 -0.235051c0.0208228,-0.0208228 0.0545945,-0.0208228 0.0754173,0 0.0208228,0.0208228 0.0208228,0.0545945 0,0.0754173l-0.261134 0.26113 0 1.26178 0.261134 0.261134c0.0208228,0.0208228 0.0208228,0.0545945 0,0.0754173 -0.0208228,0.0208228 -0.0545945,0.0208228 -0.0754173,0l-0.235055 -0.235055c-0.0013189,9.44882e-005 -0.00265354,0.000145669 -0.00399606,0.000145669l-1.50059 0c-0.00134646,0 -0.00267717,-5.11811e-005 -0.00399606,-0.000145669l-0.235055 0.235055c-0.0208228,0.0208228 -0.0545945,0.0208228 -0.0754173,0 -0.0208228,-0.0208228 -0.0208228,-0.0545945 0,-0.0754173l0.261134 -0.261138 0 -1.26177 -0.261134 -0.261134c-0.0208228,-0.0208228 -0.0208228,-0.0545945 0,-0.0754173 0.0208228,-0.0208228 0.0545945,-0.0208228 0.0754173,0l0.235055 0.235051c0.0013189,-9.44882e-005 0.00265354,-0.000145669 0.00399606,-0.000145669l1.50059 0c0.00134252,0 0.00267717,5.11811e-005 0.00399606,0.000145669z"/>
  <path class="fil2" d="M2.61022 2.32001l0.186232 0c0.00237402,-0.00544882 0.00468898,-0.0109764 0.00694488,-0.0165748 0.0138701,-0.0344291 0.0254882,-0.0715945 0.0344882,-0.111543 0.0391181,-0.173626 0.0325197,-0.359709 -0.0152992,-0.52728 -0.0312638,-0.109555 -0.0801063,-0.210795 -0.145209,-0.294827 -7.87402e-005,0.0236693 -0.00137008,0.0457717 -0.00374016,0.0659055 -0.00940157,0.0799291 -0.0389567,0.136602 -0.0810906,0.15324 -0.101445,0.040063 -0.163661,-0.0114646 -0.200988,-0.105988 -0.0386378,-0.0978268 -0.0455276,-0.250665 -0.0448898,-0.368996l-0.000905512 0.00149606 -0.00171654 0.00266142c-0.0275669,0.0463898 -0.0492677,0.0970512 -0.065122,0.149346 -0.0252323,0.0832402 -0.0280433,0.152913 -0.0309882,0.226016 -0.00177165,0.0439882 -0.00359449,0.0891299 -0.00947638,0.137142 -0.00372835,0.0304449 -0.0139921,0.0854449 -0.0342835,0.132984 -0.0116693,0.0273504 -0.0269528,0.052815 -0.0467874,0.0717638 -0.0252244,0.0240984 -0.0560354,0.0374134 -0.0935354,0.0328189 -0.0110945,-0.00135827 -0.0226614,-0.00449606 -0.0346654,-0.00961811 -0.0424764,-0.0181417 -0.0676102,-0.0563346 -0.0821614,-0.100051 -0.0240472,0.0460394 -0.0447087,0.0974882 -0.0612205,0.150835 -0.0333701,0.107819 -0.0493819,0.222087 -0.0419567,0.314512l7.87402e-006 0.000122047c0.00457874,0.0319606 0.0120748,0.0625827 0.0221102,0.0917638 0.000492126,0.00142913 0.000988189,0.00285433 0.00149213,0.00427165l0.275398 0c0.00217323,-0.00533071 0.00444094,-0.0106457 0.00679921,-0.015937 0.0176693,-0.0396772 0.0405906,-0.0781142 0.0667992,-0.114 0.0838228,-0.114795 0.114583,-0.243217 0.114673,-0.243587l4.33071e-005 1.1811e-005c0.00348031,-0.0143701 0.0129094,-0.0272165 0.0270394,-0.0345945 0.026,-0.0135748 0.0580906,-0.0035 0.0716654,0.0225 0.000181102,0.000346457 0.0635866,0.120992 0.166776,0.351661 0.00514567,0.0115079 0.00965354,0.0228268 0.0135669,0.0339449z"/>
  <path class="fil3" d="M2.49537 2.32001c-0.0425512,-0.0948819 -0.0777953,-0.169929 -0.104252,-0.22485 -0.0207795,0.0479055 -0.0498228,0.103992 -0.0888268,0.157409 -0.0156969,0.0215 -0.0299882,0.0441142 -0.042252,0.0674409l0.235331 0z"/>
  <path class="fil2" d="M4.45298 3.56961l0 0zm0.0097874 -0.035437c-0.00280315,0.00643307 -0.00672835,0.0120315 -0.0114409,0.0166693 0.00110236,0.00620472 0.00165354,0.0124843 0.00166929,0.0187677l0 0.497067c0.0819961,-0.172854 0.128681,-0.261681 0.128886,-0.262071 0.0135748,-0.026 0.0456654,-0.0360748 0.0716654,-0.0225 0.0141299,0.00737795 0.0235591,0.0202244 0.0270394,0.0345945l4.33071e-005 -1.1811e-005c0.00015748,0.000645669 0.0535354,0.223484 0.198839,0.422476 0.0725079,0.0992835 0.129724,0.211031 0.156059,0.325118 0.0215315,0.0932638 0.0226693,0.188083 -0.00468898,0.279303 0.0136969,-0.0126929 0.0267795,-0.0261024 0.0392323,-0.0401496 0.0986299,-0.111264 0.158543,-0.262823 0.171343,-0.422173 0.0086378,-0.107524 -0.00995276,-0.240343 -0.0487126,-0.365583 -0.0212756,-0.0687402 -0.0485039,-0.134803 -0.0804843,-0.192642 -0.0150118,0.0560079 -0.0434528,0.106673 -0.0957559,0.129008 -0.0130945,0.00559055 -0.025689,0.009 -0.0377598,0.0104803 -0.0405197,0.0049685 -0.0738819,-0.00949606 -0.10124,-0.0356378 -0.0219803,-0.0209961 -0.0389961,-0.0494134 -0.052063,-0.0800276 -0.0230118,-0.0539134 -0.0346732,-0.116453 -0.0389173,-0.151098 -0.00677165,-0.0552795 -0.00885827,-0.107008 -0.0108898,-0.157417 -0.00341732,-0.0847992 -0.00667717,-0.165606 -0.0360748,-0.262591 -0.0185197,-0.0610906 -0.0438898,-0.12026 -0.076126,-0.174417l-0.00172047 -0.00266929c-0.00967323,-0.0160748 -0.0199488,-0.0316772 -0.0308189,-0.0467205 -0.0258543,0.15678 -0.0963071,0.31798 -0.156508,0.455713l-0.0115748 0.0265118z"/>
  <path class="fil3" d="M4.61802 3.96914c-0.0382362,0.0777835 -0.0942992,0.194626 -0.165024,0.34972l0 0.664106c0.0406102,-1.9685e-005 0.104213,-0.000169291 0.159098,-0.000440945 0.0520118,-0.000259843 0.0960827,-0.00065748 0.103358,-0.00118504 0.0447441,-0.00325984 0.0870906,-0.011874 0.126858,-0.0251339 0.00737795,-0.0051811 0.0193307,-0.0199764 0.0320118,-0.0378228 0.0210591,-0.0296339 0.0399094,-0.063811 0.0469291,-0.0827992 0.0292992,-0.0792047 0.029878,-0.163724 0.0105276,-0.247551 -0.0229724,-0.0995315 -0.0736693,-0.198079 -0.138146,-0.28637 -0.0856614,-0.117315 -0.141972,-0.242433 -0.175614,-0.332524z"/>
  <polygon class="fil1" points="3.61708,5.19091 3.61708,3.93919 2.22316,3.93919 2.22316,5.19091 "/>
 </g>
 <rect class="fil4" width="6.82666" height="6.82666"/>
</svg>
