<?xml version="1.0" encoding="UTF-8"?>
<!DOCTYPE svg PUBLIC "-//W3C//DTD SVG 1.1//EN" "http://www.w3.org/Graphics/SVG/1.1/DTD/svg11.dtd">
<!-- Creator: CorelDRAW -->
<svg xmlns="http://www.w3.org/2000/svg" xml:space="preserve" width="6.82666in" height="6.82666in" style="shape-rendering:geometricPrecision; text-rendering:geometricPrecision; image-rendering:optimizeQuality; fill-rule:evenodd; clip-rule:evenodd"
viewBox="0 0 6.82666 6.82666"
 xmlns:xlink="http://www.w3.org/1999/xlink">
 <defs>
  <style type="text/css">
   <![CDATA[
    .fil4 {fill:none}
    .fil1 {fill:#949494}
    .fil3 {fill:#F45A52}
    .fil2 {fill:#FECA5F}
    .fil0 {fill:#212121;fill-rule:nonzero}
   ]]>
  </style>
 </defs>
 <g id="Layer_x0020_1">
  <metadata id="CorelCorpID_0Corel-Layer"/>
  <path class="fil0" d="M2.69661 4.32513l-1.74209 -0.0958819c-0.0586811,-0.00298819 -0.103823,-0.0529882 -0.100835,-0.111669 0.00194488,-0.0382047 0.0238189,-0.0706614 0.0550394,-0.0878425l-3.93701e-005 -7.48031e-005 1.35003 -0.741205 -0.333043 -0.672063c-0.026,-0.0526969 -0.0043622,-0.1165 0.0483346,-0.1425 0.0171614,-0.0084685 0.0355039,-0.011874 0.0533346,-0.010811l0 -2.3622e-005 0.854917 0.0522205 0.428516 -1.49783c0.0161063,-0.0566063 0.0750591,-0.0894409 0.131665,-0.0733346 0.0372992,0.0106142 0.0642756,0.0398346 0.0737323,0.0747244l0.420957 1.47671 1.22336 -0.334571c0.0566063,-0.0154173 0.115,0.0179764 0.130417,0.0745827 0.00870079,0.0319488 0.00185039,0.0644646 -0.0159449,0.0895039l0.000110236 7.87402e-005 -0.69226 0.969882 1.33505 0.734638c0.0515472,0.0283031 0.0703858,0.0930394 0.0420827,0.144587 -0.019189,0.0349449 -0.055126,0.0548543 -0.0923425,0.0552362l-1.69797 0.0888661c-0.0342283,-0.0730591 -0.0763307,-0.142295 -0.125531,-0.206386l1.44466 -0.0753504 -1.11331 -0.612622 5.51181e-005 -9.84252e-005c-0.00357087,-0.0019685 -0.00706693,-0.00414961 -0.0104685,-0.00657087 -0.0478622,-0.0340551 -0.0590551,-0.100469 -0.025,-0.148331l0.588323 -0.82426 -1.02879 0.281354c-0.00227559,0.000818898 -0.00458661,0.00157087 -0.00694882,0.00224409 -0.0566063,0.0161063 -0.115559,-0.0167283 -0.131665,-0.0733346l-0.347866 -1.2203 -0.349374 1.2212 -0.000114173 -3.14961e-005c-0.0133228,0.0469882 -0.0578661,0.0801063 -0.108638,0.0771181l-0.756925 -0.0462362 0.294925 0.595142c0.0279488,0.0514724 0.0090748,0.115917 -0.0423228,0.144138l-1.11277 0.610941 1.48356 0.0818425c-0.0488858,0.0640079 -0.0907874,0.133201 -0.124819,0.206315z"/>
  <path class="fil0" d="M3.6698 3.83247l0.712858 -0.0701299 -0.446335 -0.282102c-0.00764567,-0.00481496 -0.0136417,-0.0112559 -0.0178268,-0.0185906l-8.66142e-005 4.72441e-005c-0.0185157,-0.0323898 -0.0273189,-0.0582441 -0.0255039,-0.0875945 0.00174409,-0.0282638 0.013063,-0.0531929 0.0347441,-0.0839055l0.157378 -0.258563 -0.342858 0.150953c-0.0037874,0.00166535 -0.00766535,0.00285433 -0.0115669,0.00359449 -0.0494764,0.0131654 -0.083626,0.0153228 -0.115012,-0.0015315 -0.0327087,-0.017563 -0.0501457,-0.0488543 -0.0653583,-0.102228l-0.000433071 -0.00162992 -0.133827 -0.418071 -0.135571 0.473882c-0.0023189,0.00814961 -0.00641732,0.015315 -0.011748,0.0211929 -0.0628465,0.0756772 -0.24572,0.0234291 -0.396732,-0.0197205 -0.0167283,-0.00477953 -0.0329961,-0.00942913 -0.0484213,-0.0137323 0.0210551,0.0386693 0.0418701,0.0774606 0.0588583,0.114929 0.0719213,0.158614 0.0902953,0.307992 -0.12489,0.405555l-0.267862 0.121441 0.637465 0.0589685c-0.0497953,0.0275827 -0.0974094,0.058937 -0.142413,0.0937362l-0.701693 -0.0648189c-0.0198189,-0.000492126 -0.0385669,-0.0120827 -0.0472559,-0.0313622 -0.0120787,-0.0268071 -0.000141732,-0.0583346 0.0266654,-0.0704134l0.451346 -0.20463c0.13352,-0.0605394 0.119437,-0.159138 0.0715591,-0.264728 -0.0182323,-0.0402165 -0.0401417,-0.0803976 -0.0618819,-0.120268 -0.0167992,-0.0308071 -0.0335079,-0.0614567 -0.0477165,-0.0900276 -0.0044685,-0.00835827 -0.00675984,-0.0180118 -0.00616142,-0.0281654 0.00172441,-0.0293386 0.0269134,-0.0517244 0.056252,-0.05 0.0404016,0.0024685 0.104047,0.0206575 0.175315,0.0410197 0.114311,0.0326614 0.251768,0.0719331 0.280555,0.0587913l0.180165 -0.629752 0.000106299 3.14961e-005c0.0047126,-0.0165118 0.0173228,-0.030437 0.0348937,-0.0360748 0.0279567,-0.00897244 0.0579016,0.00642126 0.066874,0.034378l0.187374 0.58535c0.000629921,0.0016063 0.00119291,0.00325984 0.00167323,0.00495276 0.00691339,0.0242598 0.0109803,0.0364094 0.0132795,0.0376457 0.00258268,0.00138583 0.0144409,-0.00120472 0.0359921,-0.00701969l0.495043 -0.217957 2.3622e-005 5.51181e-005c0.0153819,-0.00675591 0.0337126,-0.0061378 0.0491417,0.00327559 0.0250827,0.0152992 0.0330079,0.0480433 0.0177087,0.073126l-0.246256 0.404583 -1.5748e-005 -1.1811e-005c-0.000649606,0.00105906 -0.00133465,0.00211024 -0.00206693,0.0031378 -0.0106614,0.0149409 -0.0160551,0.0243346 -0.0164213,0.0302638 -0.00023622,0.00382283 0.0017126,0.00942913 0.00575984,0.0174252l0.565886 0.357661 -1.5748e-005 2.3622e-005c0.0134646,0.00849213 0.0229882,0.0229055 0.0245984,0.0399764 0.00275984,0.0292244 -0.0186929,0.0551575 -0.0479173,0.0579173l-0.735949 0.0723386c-0.0447559,-0.0345709 -0.0921299,-0.0657559 -0.14172,-0.0932244z"/>
  <path class="fil0" d="M2.41699 4.74385c0.00440945,-0.125874 0.0314173,-0.245157 0.0769606,-0.354079 0.0474567,-0.113508 0.114925,-0.216236 0.197819,-0.303898 0.097878,-0.103508 0.217382,-0.186181 0.35098,-0.240992 0.128587,-0.0527598 0.270043,-0.079685 0.41761,-0.0745236 0.147551,0.00516142 0.286457,0.0416063 0.410543,0.102705 0.129063,0.0635472 0.242189,0.153598 0.332441,0.262724 0.0772559,0.0934094 0.137984,0.201039 0.177843,0.318248 0.0382323,0.112417 0.0570709,0.233701 0.0526654,0.359693 -0.00975984,0.278815 -0.131461,0.527146 -0.320323,0.703236 -0.188776,0.176008 -0.444709,0.279996 -0.723047,0.270256 -0.278811,-0.00976378 -0.527146,-0.131461 -0.70324,-0.320327 -0.176,-0.188776 -0.279992,-0.444709 -0.270252,-0.723043zm0.262098 -0.277197c-0.0367677,0.0879449 -0.0585512,0.18348 -0.0620512,0.283476 -0.00781496,0.223362 0.0756457,0.428756 0.216906,0.580264 0.141177,0.151417 0.339941,0.24898 0.562819,0.25678 0.223358,0.0078189 0.42876,-0.0756457 0.580268,-0.216909 0.151417,-0.141177 0.24898,-0.339937 0.256776,-0.562815 0.00353543,-0.101012 -0.0116535,-0.1985 -0.0424646,-0.289087 -0.0318071,-0.0935236 -0.0804803,-0.179669 -0.142535,-0.254705 -0.0726378,-0.0878268 -0.163346,-0.160134 -0.266547,-0.210945 -0.0994803,-0.0489843 -0.210539,-0.0781929 -0.328177,-0.0823071 -0.118772,-0.00415748 -0.232311,0.0173858 -0.335236,0.0596181 -0.106933,0.043874 -0.202669,0.110134 -0.281161,0.193138 -0.0665276,0.0703543 -0.120618,0.152665 -0.158594,0.243492z"/>
  <path class="fil0" d="M3.94852 4.79729c0.000917323,-0.0293386 0.0254528,-0.052378 0.0547913,-0.0514606 0.0293386,0.000917323 0.052378,0.0254528 0.0514606,0.0547913 -0.00609055,0.173972 -0.0820472,0.328941 -0.199917,0.438839 -0.117819,0.10985 -0.277563,0.174756 -0.451272,0.168677 -0.120732,-0.00422441 -0.234776,-0.0425984 -0.33072,-0.107413 -0.0960906,-0.0649134 -0.174319,-0.156386 -0.223244,-0.266681 -0.0118465,-0.0269213 0.000370079,-0.0583583 0.0272913,-0.0702047 0.0269213,-0.0118465 0.0583583,0.000370079 0.0702047,0.0272913 0.040563,0.0914449 0.105508,0.167339 0.185331,0.221264 0.0799724,0.0540236 0.174634,0.0859961 0.274469,0.0894921 0.14452,0.00505906 0.277421,-0.0489449 0.375445,-0.140339 0.0979803,-0.0913504 0.161114,-0.219992 0.166161,-0.364256z"/>
  <path class="fil0" d="M2.40758 4.83451l0.00638976 -0.182484 -0.261476 -0.00915354 -0.00638583 0.182484 0.261472 0.00915354zm0.222598 -0.281669l-0.0138268 0.394961c-0.00183858,0.0586811 -0.0509055,0.104756 -0.109587,0.102917l-0.473949 -0.0165906c-0.0586811,-0.00183858 -0.104756,-0.0509055 -0.102917,-0.109587l0.0138228 -0.394961c0.00183858,-0.0586811 0.0509055,-0.104756 0.109587,-0.102917l0.473953 0.0165906c0.0586811,0.00183858 0.104756,0.0509055 0.102917,0.109587z"/>
  <path class="fil0" d="M2.02044 4.62185c0.0559173,0.0181772 0.0865118,0.078252 0.0683346,0.134169 -0.0181772,0.0559173 -0.078252,0.0865118 -0.134169,0.0683346 -0.0265118,-0.00869291 -0.0514016,-0.00761417 -0.0729016,0.000956693 -0.0259213,0.0103346 -0.049378,0.0317323 -0.0675315,0.0607402 -0.0012874,0.00207087 -0.0026378,0.0040748 -0.00404331,0.00602362 -0.0183701,0.031752 -0.029874,0.0712441 -0.0317717,0.11526 -0.00299213,0.0692677 0.0186299,0.148547 0.0751732,0.226449 0.101063,0.13924 0.16452,0.266146 0.157449,0.39228 -0.0076063,0.135535 -0.0902008,0.25237 -0.282783,0.354748 -0.0520039,0.0276142 -0.116551,0.00783858 -0.144165,-0.0441654 -0.0276142,-0.0520039 -0.00783858,-0.116551 0.0441654,-0.144165 0.117425,-0.0624213 0.167024,-0.120031 0.17028,-0.178087 0.00378346,-0.0674685 -0.0432283,-0.153354 -0.117449,-0.25561 -0.0870276,-0.119898 -0.120091,-0.24678 -0.115173,-0.360614 0.00346063,-0.0803228 0.0262244,-0.154587 0.0627323,-0.216134 0.00144488,-0.00287008 0.00301969,-0.00570472 0.00475197,-0.00848819 0.0418543,-0.066874 0.100799,-0.118134 0.170035,-0.14574 0.0667165,-0.0266024 0.141051,-0.0308819 0.217067,-0.00595669z"/>
  <path class="fil1" d="M2.67909 4.46665c-0.0243031,0.0581339 -0.042063,0.119587 -0.0523189,0.183449l-0.00703937 0.201063c0.0163583,0.183858 0.0945433,0.350878 0.214213,0.479228 0.141177,0.151417 0.339941,0.24898 0.562819,0.25678 0.223358,0.0078189 0.42876,-0.0756457 0.580268,-0.216909 0.151417,-0.141177 0.24898,-0.339937 0.256776,-0.562815 0.00353543,-0.101012 -0.0116535,-0.1985 -0.0424646,-0.289087 -0.0318071,-0.0935236 -0.0804803,-0.179669 -0.142535,-0.254705 -0.0726378,-0.0878268 -0.163346,-0.160134 -0.266547,-0.210945 -0.0994803,-0.0489843 -0.210539,-0.0781929 -0.328177,-0.0823071 -0.118772,-0.00415748 -0.232311,0.0173858 -0.335236,0.0596181 -0.106933,0.043874 -0.202669,0.110134 -0.281161,0.193138 -0.0665276,0.0703543 -0.120618,0.152665 -0.158594,0.243492zm1.26943 0.330642c0.000917323,-0.0293386 0.0254528,-0.052378 0.0547913,-0.0514606 0.0293386,0.000917323 0.052378,0.0254528 0.0514606,0.0547913 -0.00609055,0.173972 -0.0820472,0.328941 -0.199917,0.438839 -0.117819,0.10985 -0.277563,0.174756 -0.451272,0.168677 -0.120732,-0.00422441 -0.234776,-0.0425984 -0.33072,-0.107413 -0.0960906,-0.0649134 -0.174319,-0.156386 -0.223244,-0.266681 -0.0118465,-0.0269213 0.000370079,-0.0583583 0.0272913,-0.0702047 0.0269213,-0.0118465 0.0583583,0.000370079 0.0702047,0.0272913 0.040563,0.0914449 0.105508,0.167339 0.185331,0.221264 0.0799724,0.0540236 0.174634,0.0859961 0.274469,0.0894921 0.14452,0.00505906 0.277421,-0.0489449 0.375445,-0.140339 0.0979803,-0.0913504 0.161114,-0.219992 0.166161,-0.364256z"/>
  <polygon class="fil1" points="2.40758,4.83451 2.41397,4.65203 2.15249,4.64287 2.14611,4.82536 "/>
  <path class="fil2" d="M2.48961 3.76626l0.611941 0.0566063c0.112425,-0.0381181 0.233413,-0.0569016 0.358811,-0.0525157 0.102567,0.00358661 0.200957,0.0222913 0.293091,0.0538858l0.629209 -0.0619016 -0.446335 -0.282102c-0.00764567,-0.00481496 -0.0136417,-0.0112559 -0.0178268,-0.0185906l-8.66142e-005 4.72441e-005c-0.0185157,-0.0323898 -0.0273189,-0.0582441 -0.0255039,-0.0875945 0.00174409,-0.0282638 0.013063,-0.0531929 0.0347441,-0.0839055l0.157378 -0.258563 -0.342858 0.150953c-0.0037874,0.00166535 -0.00766535,0.00285433 -0.0115669,0.00359449 -0.0494764,0.0131654 -0.083626,0.0153228 -0.115012,-0.0015315 -0.0327087,-0.017563 -0.0501457,-0.0488543 -0.0653583,-0.102228l-0.000433071 -0.00162992 -0.133827 -0.418071 -0.135571 0.473882c-0.0023189,0.00814961 -0.00641732,0.015315 -0.011748,0.0211929 -0.0628465,0.0756772 -0.24572,0.0234291 -0.396732,-0.0197205 -0.0167283,-0.00477953 -0.0329961,-0.00942913 -0.0484213,-0.0137323 0.0210551,0.0386693 0.0418701,0.0774606 0.0588583,0.114929 0.0719213,0.158614 0.0902953,0.307992 -0.12489,0.405555l-0.267862 0.121441z"/>
  <path class="fil3" d="M4.01765 3.34695l0 0zm0.553142 0.408512l0 0zm-0.324579 -0.886209c0.0250827,0.0152992 0.0330079,0.0480433 0.0177087,0.073126l-0.246272 0.404571c-0.000649606,0.00105906 -0.00133465,0.00211024 -0.00206693,0.0031378 -0.0106614,0.0149409 -0.0160551,0.0243346 -0.0164213,0.0302638 -0.00023622,0.00382283 0.0017126,0.00942913 0.00575984,0.0174252l0.56587 0.357685c0.0134646,0.00849213 0.0229882,0.0229055 0.0245984,0.0399764 0.00275984,0.0292244 -0.0186929,0.0551575 -0.0479173,0.0579173l-0.603772 0.0593465c0.0873071,0.0523031 0.165858,0.117311 0.233161,0.192339l1.3119 -0.0684252 -1.11331 -0.612622 5.51181e-005 -9.84252e-005c-0.00357087,-0.0019685 -0.00706693,-0.00414961 -0.0104685,-0.00657087 -0.0478622,-0.0340551 -0.0590551,-0.100469 -0.025,-0.148331l0.588323 -0.82426 -1.02879 0.281354c-0.00227559,0.000818898 -0.00458661,0.00157087 -0.00694882,0.00224409 -0.0566063,0.0161063 -0.115559,-0.0167283 -0.131665,-0.0733346l-0.347866 -1.2203 -0.349374 1.2212 -0.000114173 -3.14961e-005c-0.0133228,0.0469882 -0.0578661,0.0801063 -0.108638,0.0771181l-0.756925 -0.0462362 0.294925 0.595142c0.0279488,0.0514724 0.0090748,0.115917 -0.0423228,0.144138l-1.11277 0.610941 1.33143 0.0734488c0.00735433,-0.00830709 0.0148465,-0.0164921 0.0224646,-0.0245512 0.0638071,-0.0674764 0.136803,-0.126098 0.216906,-0.173921l-0.625709 -0.0577992c-0.0198189,-0.000492126 -0.0385669,-0.0120827 -0.0472559,-0.0313622 -0.0120787,-0.0268071 -0.000141732,-0.0583346 0.0266654,-0.0704134l0.451346 -0.20463c0.13352,-0.0605394 0.119437,-0.159138 0.0715591,-0.264728 -0.0182323,-0.0402165 -0.0401417,-0.0803976 -0.0618819,-0.120268 -0.0167992,-0.0308071 -0.0335079,-0.0614567 -0.0477165,-0.0900276 -0.0044685,-0.00835827 -0.00675984,-0.0180118 -0.00616142,-0.0281654 0.00172441,-0.0293386 0.0269134,-0.0517244 0.056252,-0.05 0.0404016,0.0024685 0.104047,0.0206575 0.175315,0.0410197 0.114311,0.0326614 0.251768,0.0719331 0.280555,0.0587913l0.180165 -0.629752 0.000106299 3.14961e-005c0.0047126,-0.0165118 0.0173228,-0.030437 0.0348937,-0.0360748 0.0279567,-0.00897244 0.0579016,0.00642126 0.066874,0.034378l0.187374 0.58535c0.000629921,0.0016063 0.00119291,0.00325984 0.00167323,0.00495276 0.00691339,0.0242598 0.0109803,0.0364094 0.0132795,0.0376457 0.00258268,0.00138583 0.0144409,-0.00120472 0.0359921,-0.00701969l0.495043 -0.217957 2.3622e-005 5.51181e-005c0.0153819,-0.00675591 0.0337126,-0.0061378 0.0491417,0.00327559z"/>
 </g>
 <rect class="fil4" width="6.82666" height="6.82666"/>
</svg>
