<?xml version="1.0" encoding="UTF-8"?>
<!DOCTYPE svg PUBLIC "-//W3C//DTD SVG 1.1//EN" "http://www.w3.org/Graphics/SVG/1.1/DTD/svg11.dtd">
<!-- Creator: CorelDRAW -->
<svg xmlns="http://www.w3.org/2000/svg" xml:space="preserve" width="6.82666in" height="6.82666in" style="shape-rendering:geometricPrecision; text-rendering:geometricPrecision; image-rendering:optimizeQuality; fill-rule:evenodd; clip-rule:evenodd"
viewBox="0 0 6.82666 6.82666"
 xmlns:xlink="http://www.w3.org/1999/xlink">
 <defs>
  <style type="text/css">
   <![CDATA[
    .fil3 {fill:none}
    .fil2 {fill:#F45A52}
    .fil1 {fill:#FECA5F}
    .fil0 {fill:#212121;fill-rule:nonzero}
   ]]>
  </style>
 </defs>
 <g id="Layer_x0020_1">
  <metadata id="CorelCorpID_0Corel-Layer"/>
  <g id="_511108984">
   <path id="_511108816" class="fil0" d="M4.93872 2.40544c0.142835,0.3075 0.185866,0.562752 0.173453,0.786185 -0.0124252,0.223713 -0.08,0.411122 -0.158591,0.586232 -0.0354409,0.0789724 -0.0951063,0.254602 -0.113291,0.424154 -0.00905906,0.0845118 -0.00761024,0.165146 0.0134488,0.225252 0.0150118,0.0428465 0.0424016,0.074437 0.0877362,0.0847835 0.0288819,0.00659055 0.0654331,0.0068937 0.110917,-0.000523622 0.0397441,-0.00648031 0.0873346,-0.048752 0.13261,-0.106469 0.0614291,-0.0783031 0.111374,-0.179287 0.135016,-0.266575 0.015185,-0.0568386 0.0735787,-0.0906024 0.130417,-0.0754173 0.0474016,0.0126654 0.078748,0.0553858 0.0790433,0.102189 0.0365984,0.431921 -0.0803898,0.79887 -0.298063,1.08385 -0.237815,0.311346 -0.594575,0.522752 -1.00104,0.612327 -0.160996,0.0354291 -0.317811,0.0628386 -0.469898,0.081689 -0.612799,0.0759685 -1.14462,0.0111614 -1.56082,-0.228484 -0.421039,-0.242433 -0.718465,-0.658709 -0.855764,-1.28259 -0.0216496,-0.098374 -0.0393425,-0.202291 -0.0529252,-0.311862 -0.00713386,-0.0584488 0.0344685,-0.111618 0.0929173,-0.118752 0.0411063,-0.00501575 0.0796024,0.0140748 0.101307,0.0461772 0.0409488,0.0546299 0.0674213,0.0983819 0.0899764,0.135669 0.0367441,0.0607441 0.0593543,0.0981142 0.136819,0.132059 0.0123701,0.00542126 0.0238661,0.00887795 0.0344567,0.0105748 0.0275354,0.00441732 0.0529961,-0.00275197 0.0745394,-0.0174646 0.0263071,-0.0179646 0.0480079,-0.0465236 0.0628307,-0.0803661 0.00846063,-0.019311 0.0145472,-0.0398307 0.0178937,-0.0606929 0.0184016,-0.114591 -0.0283898,-0.271516 -0.0811102,-0.448311 -0.147165,-0.493496 -0.334941,-1.1232 0.480807,-1.77578 0.0457913,-0.0365866 0.112583,-0.029126 0.149169,0.0166654 0.020437,0.0255787 0.027126,0.0577087 0.0210709,0.0874685l0.000177165 3.54331e-005c-0.004,0.0195039 -0.00469685,0.0405591 -0.0025,0.0625197 0.00794094,0.0793307 0.052685,0.165669 0.117965,0.238047 0.0654528,0.072563 0.149323,0.128272 0.23513,0.145862 0.0261811,0.00536614 0.0525591,0.00709449 0.0785512,0.00449213 0.123142,-0.0123386 0.215835,-0.0540787 0.283791,-0.115709 0.078811,-0.0714764 0.127866,-0.172669 0.15463,-0.287827 0.0286693,-0.123366 0.031811,-0.261606 0.0181496,-0.397906 -0.0290906,-0.290295 -0.130181,-0.563287 -0.223047,-0.665685 -0.0393504,-0.0434921 -0.0359921,-0.110654 0.0075,-0.150004 0.0300551,-0.0271929 0.0714134,-0.0339843 0.107083,-0.0212362l3.93701e-006 -1.1811e-005c0.0163346,0.00586614 0.0322677,0.0112992 0.0824764,0.0290315 0.263433,0.093063 0.54572,0.192795 0.723858,0.389933 0.44211,0.489236 0.28939,1.01808 0.176795,1.40796 -0.0384291,0.133071 -0.0715236,0.247677 -0.0676535,0.322449 0.00294488,0.0568465 0.0541417,0.0876614 0.208787,0.0796496 0.0889213,-0.0046063 0.15913,-0.0679843 0.213063,-0.15474 0.0913583,-0.146961 0.135441,-0.353638 0.149811,-0.494681 0.00575197,-0.0584488 0.0578031,-0.101169 0.116252,-0.0954173 0.0389173,0.00383071 0.0708583,0.028189 0.0861614,0.0612913l8.66142e-005 -3.93701e-005zm-0.0390512 0.774516c0.00583858,-0.105122 -0.00313386,-0.219484 -0.0334252,-0.346425 -0.0260276,0.0750118 -0.0586693,0.148382 -0.099,0.21326 -0.0881654,0.141815 -0.212083,0.245878 -0.383063,0.25474 -0.315512,0.0163465 -0.42224,-0.0904803 -0.432126,-0.281319 -0.00567717,-0.109646 0.0321102,-0.240504 0.0759921,-0.392449 0.0986614,-0.34163 0.232484,-0.805024 -0.130134,-1.20629 -0.105665,-0.116937 -0.275661,-0.197094 -0.454744,-0.265433 0.0593228,0.148654 0.107291,0.332969 0.126043,0.520067 0.015815,0.157787 0.0117992,0.319461 -0.022315,0.466244 -0.0360197,0.154992 -0.105394,0.294224 -0.21963,0.397827 -0.100642,0.0912756 -0.233484,0.152642 -0.405461,0.169874 -0.0475906,0.00476378 -0.0951969,0.00174409 -0.14189,-0.00783071 -0.132583,-0.027185 -0.257303,-0.107858 -0.350957,-0.211689 -0.065937,-0.0731063 -0.117594,-0.159102 -0.146839,-0.24735 -0.525472,0.515831 -0.376319,1.01612 -0.257354,1.41506 0.059937,0.201 0.113134,0.379402 0.0869449,0.542476 -0.0062874,0.039189 -0.0174764,0.0771614 -0.0328937,0.112362 -0.0305039,0.0696378 -0.078,0.130339 -0.137831,0.171201 -0.0645906,0.0441102 -0.142248,0.0653661 -0.22787,0.0516299 -0.0284843,-0.00456693 -0.0572992,-0.0129449 -0.086126,-0.0255748 -0.0187323,-0.00820866 -0.0355827,-0.016378 -0.0508898,-0.0246024 0.131614,0.505898 0.383469,0.845555 0.729394,1.04474 0.372972,0.214756 0.86052,0.271472 1.42915,0.20098 0.144642,-0.0179252 0.294803,-0.0442205 0.449898,-0.0783504 0.358555,-0.0790157 0.671453,-0.263134 0.877709,-0.533161 0.112839,-0.147728 0.194114,-0.321823 0.233835,-0.519181 -0.0632402,0.0634409 -0.134799,0.108587 -0.209528,0.120772 -0.0735669,0.0119961 -0.137083,0.0105039 -0.191752,-0.00197244 -0.128142,-0.029248 -0.203169,-0.111736 -0.241902,-0.222287 -0.032685,-0.0932874 -0.0363307,-0.20539 -0.0242835,-0.317756 0.0208504,-0.194398 0.0897992,-0.396972 0.130795,-0.488319 0.069752,-0.155417 0.12965,-0.320311 0.140252,-0.511232z"/>
   <path id="_511108840" class="fil0" d="M2.59448 5.84021c-0.0492441,0.0319843 -0.115098,0.0179961 -0.147083,-0.031248 -0.0319843,-0.0492441 -0.0179961,-0.115098 0.031248,-0.147083 0.0574331,-0.0373583 0.0257008,-0.147012 -0.014189,-0.28485 -0.0896929,-0.309933 -0.20798,-0.718665 0.298673,-1.12398 0.0457913,-0.0365866 0.112583,-0.029126 0.149169,0.0166654 0.020437,0.0255787 0.027126,0.0577126 0.0210709,0.0874685l0.000177165 3.54331e-005c-0.00149213,0.00727559 -0.00170866,0.0155433 -0.000814961,0.0244921 0.00379921,0.0379685 0.0264134,0.080622 0.0595787,0.117394 0.0333346,0.0369567 0.0751102,0.0651417 0.116835,0.0736969 0.0114724,0.00235039 0.0229173,0.00311811 0.0340551,0.00200394 0.0635709,-0.00637008 0.11074,-0.0272992 0.144665,-0.058063 0.0398504,-0.0361417 0.065,-0.0888071 0.0790906,-0.149437 0.0159961,-0.0688386 0.0176929,-0.146543 0.00998425,-0.223488 -0.0164803,-0.164453 -0.0717283,-0.316882 -0.122075,-0.372394 -0.0393504,-0.0434921 -0.0359921,-0.110654 0.0075,-0.150004 0.0300551,-0.0271929 0.0714134,-0.0339843 0.107083,-0.0212362l3.93701e-006 -1.1811e-005c0.86578,0.311083 0.716059,0.808154 0.614528,1.14523 -0.0226614,0.0752362 -0.0422835,0.140378 -0.0404173,0.176425 0.000295276,0.00572835 0.0197087,0.00812598 0.0796535,0.00502362 0.0364606,-0.00188976 0.0674843,-0.0314724 0.0927362,-0.0720945 0.0504882,-0.0812165 0.0750236,-0.197098 0.0831102,-0.27648 0.00575197,-0.0584488 0.0578031,-0.101169 0.116252,-0.0954173 0.0389173,0.00383071 0.0708583,0.028189 0.0861614,0.0612913l8.66142e-005 -3.93701e-005c0.0884646,0.190449 0.115067,0.349425 0.107307,0.489169 -0.00777559,0.14002 -0.049622,0.256323 -0.0982717,0.364717 -0.0166181,0.0370276 -0.0426969,0.111846 -0.057126,0.191563 -0.00911811,0.050378 -0.0133031,0.101433 -0.00638976,0.142224 0.00966142,0.0579882 -0.0295118,0.112839 -0.0875,0.1225 -0.0579882,0.00966142 -0.112839,-0.0295118 -0.1225,-0.0875 -0.0113031,-0.0666929 -0.0058189,-0.142673 0.00722441,-0.214728 0.0179606,-0.0992441 0.0509882,-0.193634 0.072126,-0.240728 0.039811,-0.0887008 0.0739803,-0.182492 0.0799331,-0.289717 0.000984252,-0.0176929 0.00120472,-0.035878 0.000574803,-0.0546024l-0.000153543 0.000251969c-0.0594724,0.0956772 -0.144213,0.165949 -0.262736,0.172094 -0.220697,0.0114291 -0.295772,-0.0673976 -0.302992,-0.206693 -0.00380709,-0.0735787 0.0205827,-0.154559 0.0487559,-0.248094 0.0664961,-0.220768 0.15974,-0.530728 -0.23063,-0.767736 0.0183465,0.0652087 0.0323425,0.135472 0.0394252,0.206154 0.0098622,0.0984291 0.00729134,0.199571 -0.0141496,0.291827 -0.0233465,0.100461 -0.068815,0.191169 -0.144091,0.259437 -0.0666142,0.0604094 -0.153937,0.100965 -0.266335,0.112228 -0.0327362,0.00327559 -0.0654134,0.00121654 -0.0973937,-0.00534252 -0.0885039,-0.0181496 -0.17113,-0.0713031 -0.232661,-0.139524 -0.0270354,-0.0299764 -0.0504409,-0.0634055 -0.0689134,-0.0985945 -0.240382,0.277228 -0.159681,0.556335 -0.0964449,0.77485 0.064311,0.222224 0.115461,0.399012 -0.0741417,0.522346z"/>
  </g>
  <path class="fil1" d="M2.71423 5.69338c0.297362,0.0754882 0.640819,0.085122 1.02041,0.038063 0.128075,-0.0158701 0.260472,-0.0383071 0.396795,-0.0669331 0.00145669,-0.0373268 0.00616535,-0.0754094 0.0128701,-0.112457 0.0179606,-0.0992441 0.0509882,-0.193634 0.072126,-0.240728 0.039811,-0.0887008 0.0739803,-0.182492 0.0799331,-0.289717 0.000984252,-0.0176929 0.00120472,-0.035878 0.000574803,-0.0546024l-0.000153543 0.000251969c-0.0594724,0.0956772 -0.144213,0.165949 -0.262736,0.172094 -0.220697,0.0114291 -0.295772,-0.0673976 -0.302992,-0.206693 -0.00380709,-0.0735787 0.0205827,-0.154559 0.0487559,-0.248094 0.0664961,-0.220768 0.15974,-0.530728 -0.23063,-0.767736 0.0183465,0.0652087 0.0323425,0.135472 0.0394252,0.206154 0.0098622,0.0984291 0.00729134,0.199571 -0.0141496,0.291827 -0.0233465,0.100461 -0.068815,0.191169 -0.144091,0.259437 -0.0666142,0.0604094 -0.153937,0.100965 -0.266335,0.112228 -0.0327362,0.00327559 -0.0654134,0.00121654 -0.0973937,-0.00534252 -0.0885039,-0.0181496 -0.17113,-0.0713031 -0.232661,-0.139524 -0.0270354,-0.0299764 -0.0504409,-0.0634055 -0.0689134,-0.0985945 -0.240382,0.277228 -0.159681,0.556335 -0.0964449,0.77485 0.0420669,0.145362 0.0785039,0.27128 0.0456102,0.375516z"/>
  <path class="fil2" d="M3.36945 3.60018l0 0zm-0.260303 0.972618c0.0114724,0.00235039 0.0229173,0.00311811 0.0340551,0.00200394 0.0635709,-0.00637008 0.11074,-0.0272992 0.144665,-0.058063 0.0398504,-0.0361417 0.065,-0.0888071 0.0790906,-0.149437 0.0159961,-0.0688386 0.0176929,-0.146543 0.00998425,-0.223488 -0.0164803,-0.164453 -0.0717283,-0.316882 -0.122075,-0.372394 -0.0393504,-0.0434921 -0.0359921,-0.110654 0.0075,-0.150004 0.0300551,-0.0271929 0.0714134,-0.0339843 0.107087,-0.021248 0.86578,0.311083 0.716059,0.808154 0.614528,1.14523 -0.0226614,0.0752362 -0.0422835,0.140378 -0.0404173,0.176425 0.000295276,0.00572835 0.0197087,0.00812598 0.0796535,0.00502362 0.0364606,-0.00188976 0.0674843,-0.0314724 0.0927362,-0.0720945 0.0504882,-0.0812165 0.0750236,-0.197098 0.0831102,-0.27648 0.00575197,-0.0584488 0.0578031,-0.101169 0.116252,-0.0954173 0.0389173,0.00383071 0.0708583,0.028189 0.0861614,0.0612913l8.66142e-005 -3.93701e-005c0.0884646,0.190449 0.115067,0.349425 0.107307,0.489169 -0.00777559,0.14002 -0.049622,0.256323 -0.0982717,0.364717 -0.0166181,0.0370276 -0.0426969,0.111846 -0.057126,0.191563 -0.00111024,0.00614173 -0.00214961,0.0122953 -0.00310236,0.018437 0.288669,-0.094063 0.538118,-0.260579 0.711878,-0.488063 0.112839,-0.147728 0.194114,-0.321823 0.233835,-0.519181 -0.0632402,0.0634409 -0.134799,0.108587 -0.209528,0.120772 -0.0735669,0.0119961 -0.137083,0.0105039 -0.191752,-0.00197244 -0.128142,-0.029248 -0.203169,-0.111736 -0.241902,-0.222287 -0.032685,-0.0932874 -0.0363307,-0.20539 -0.0242835,-0.317756 0.0208504,-0.194398 0.0897992,-0.396972 0.130795,-0.488319 0.069752,-0.155417 0.12965,-0.320311 0.140252,-0.511232 0.00583858,-0.105122 -0.00313386,-0.219484 -0.0334252,-0.346425 -0.0260276,0.0750118 -0.0586693,0.148382 -0.099,0.21326 -0.0881654,0.141815 -0.212083,0.245878 -0.383063,0.25474 -0.315512,0.0163465 -0.42224,-0.0904803 -0.432126,-0.281319 -0.00567717,-0.109646 0.0321102,-0.240504 0.0759921,-0.392449 0.0986614,-0.34163 0.232484,-0.805024 -0.130134,-1.20629 -0.105665,-0.116937 -0.275661,-0.197094 -0.454744,-0.265433 0.0593228,0.148654 0.107291,0.332969 0.126043,0.520067 0.015815,0.157787 0.0117992,0.319461 -0.022315,0.466244 -0.0360197,0.154992 -0.105394,0.294224 -0.21963,0.397827 -0.100642,0.0912756 -0.233484,0.152642 -0.405461,0.169874 -0.0475906,0.00476378 -0.0951969,0.00174409 -0.14189,-0.00783071 -0.132583,-0.027185 -0.257303,-0.107858 -0.350957,-0.211689 -0.065937,-0.0731063 -0.117594,-0.159102 -0.146839,-0.24735 -0.525472,0.515831 -0.376319,1.01612 -0.257354,1.41506 0.059937,0.201 0.113134,0.379402 0.0869449,0.542476 -0.0062874,0.039189 -0.0174764,0.0771614 -0.0328937,0.112362 -0.0305039,0.0696378 -0.078,0.130339 -0.137831,0.171201 -0.0645906,0.0441102 -0.142248,0.0653661 -0.22787,0.0516299 -0.0284843,-0.00456693 -0.0572992,-0.0129449 -0.086126,-0.0255748 -0.0187323,-0.00820866 -0.0355827,-0.016378 -0.0508898,-0.0246024 0.131614,0.505898 0.383469,0.845555 0.729394,1.04474 0.0632008,0.0363898 0.129689,0.0682441 0.199307,0.0957087 0.0165827,-0.052437 -0.00942913,-0.142327 -0.0403425,-0.249142 -0.0896929,-0.309933 -0.20798,-0.718665 0.298673,-1.12398 0.0457913,-0.0365866 0.112583,-0.029126 0.149169,0.0166654 0.020437,0.0255787 0.027126,0.0577126 0.0210709,0.0874685l0.000177165 3.54331e-005c-0.00149213,0.00727559 -0.00170866,0.0155433 -0.000814961,0.0244921 0.00379921,0.0379685 0.0264134,0.080622 0.0595787,0.117394 0.0333346,0.0369567 0.0751102,0.0651417 0.116835,0.0736969z"/>
 </g>
 <rect class="fil3" width="6.82666" height="6.82666"/>
</svg>
