<?xml version="1.0" encoding="UTF-8"?>
<!DOCTYPE svg PUBLIC "-//W3C//DTD SVG 1.1//EN" "http://www.w3.org/Graphics/SVG/1.1/DTD/svg11.dtd">
<!-- Creator: CorelDRAW -->
<svg xmlns="http://www.w3.org/2000/svg" xml:space="preserve" width="6.82666in" height="6.82666in" style="shape-rendering:geometricPrecision; text-rendering:geometricPrecision; image-rendering:optimizeQuality; fill-rule:evenodd; clip-rule:evenodd"
viewBox="0 0 6.82666 6.82666"
 xmlns:xlink="http://www.w3.org/1999/xlink">
 <defs>
  <style type="text/css">
   <![CDATA[
    .fil2 {fill:none}
    .fil1 {fill:#B38E85}
    .fil0 {fill:#212121;fill-rule:nonzero}
   ]]>
  </style>
 </defs>
 <g id="Layer_x0020_1">
  <metadata id="CorelCorpID_0Corel-Layer"/>
  <g id="_511110760">
   <g>
    <g>
     <path id="_511112320" class="fil0" d="M1.03587 2.3887l1.15889 0c0.0589094,0 0.106669,0.0477598 0.106669,0.106669 0,0.00238583 -8.66142e-005,0.00474803 -0.000240157,0.00709843 0.00388583,0.210441 -0.00583465,0.417264 -0.0155512,0.624063 -0.0100827,0.214575 -0.0201654,0.42915 -0.0148858,0.64002 0.0120866,0.48261 0.0882205,0.49474 0.478264,0.556874 0.139815,0.0222717 0.313024,0.0498661 0.525484,0.098685 0.328929,0.0755748 0.504811,0.287224 0.577846,0.51211 0.0320669,0.098748 0.0437992,0.200217 0.0396575,0.293606 -0.00425197,0.0958346 -0.0253307,0.184323 -0.0585276,0.254173 -0.053063,0.111657 -0.13813,0.182394 -0.243059,0.182394l-1.05515 0c-0.0181614,0 -0.0352598,-0.00454331 -0.0502283,-0.0125512l-0.426535 -0.180476 -0.054 0.12761c-0.0170984,0.0405906 -0.0564724,0.0650079 -0.0979173,0.0650276l0 0.000389764 -0.715177 0c-0.0566772,0 -0.108169,-0.023126 -0.145433,-0.0603898 -0.0372441,-0.0372441 -0.0603819,-0.0887165 -0.0603819,-0.145425 0,-0.505563 -0.0138937,-0.992134 -0.0277835,-1.47869 -0.0143031,-0.501177 -0.0286142,-1.00236 -0.0286142,-1.48452 0,-0.0589094 0.0477598,-0.106669 0.106669,-0.106669zm1.05362 0.213339l-0.946744 0c0.00175984,0.467516 0.0146693,0.919772 0.0275748,1.37202 0.0142362,0.498567 0.0284646,0.997138 0.0286142,1.477l0.637421 0 0.0677913 -0.160197c0.0227795,-0.0540748 0.0850945,-0.0794449 0.139169,-0.0566654l0.512524 0.216862 1.03458 0c0.0148228,0 0.0331339,-0.0232323 0.0505551,-0.0598898 0.021689,-0.0456378 0.035563,-0.105626 0.0385276,-0.172504 0.0030748,-0.069315 -0.00570472,-0.144843 -0.0296575,-0.218606 -0.0526142,-0.162012 -0.181031,-0.314882 -0.422846,-0.370441 -0.209083,-0.0480433 -0.376319,-0.074685 -0.511311,-0.096189 -0.536244,-0.0854213 -0.640913,-0.102098 -0.657437,-0.761874 -0.00552756,-0.220654 0.0046811,-0.437835 0.0148858,-0.65502 0.00809449,-0.17224 0.016189,-0.344496 0.0163504,-0.514492z"/>
     <path id="_511112056" class="fil0" d="M0.959996 2.3887l1.32672 0 0 -0.125083 -1.32672 0 0 0.125083zm1.43339 0.213339l-1.54006 0c-0.0589094,0 -0.106669,-0.0477598 -0.106669,-0.106669l0 -0.338421c0,-0.0589094 0.0477598,-0.106669 0.106669,-0.106669l1.54006 0c0.0589094,0 0.106669,0.0477598 0.106669,0.106669l0 0.338421c0,0.0589094 -0.0477598,0.106669 -0.106669,0.106669z"/>
     <path id="_511111264" class="fil0" d="M1.47315 2.49537c0,-0.0294528 0.0238819,-0.0533346 0.0533346,-0.0533346 0.0294528,0 0.0533346,0.0238819 0.0533346,0.0533346l0 1.40074c0,0.0294528 -0.0238819,0.0533346 -0.0533346,0.0533346 -0.0294528,0 -0.0533346,-0.0238819 -0.0533346,-0.0533346l0 -1.40074z"/>
     <path id="_511111120" class="fil0" d="M1.15929 4.98155c-0.0294528,0 -0.0533346,-0.0238819 -0.0533346,-0.0533346 0,-0.0294528 0.0238819,-0.0533346 0.0533346,-0.0533346l1.65305 0c0.160232,0 0.279303,-0.0217913 0.377496,-0.0680039 0.0975787,-0.0459213 0.177217,-0.117346 0.258516,-0.216634 0.0186378,-0.0227795 0.0522165,-0.0261378 0.0749961,-0.0075 0.0227795,0.0186378 0.0261378,0.0522165 0.0075,0.0749961 -0.0909764,0.111106 -0.18174,0.191807 -0.295594,0.24539 -0.113236,0.0532913 -0.246669,0.0784213 -0.422913,0.0784213l-1.65305 0z"/>
     <path id="_511111456" class="fil0" d="M1.08086 4.65538c-0.0294528,0 -0.0533346,-0.0238819 -0.0533346,-0.0533346 0,-0.0294528 0.0238819,-0.0533346 0.0533346,-0.0533346l0.604445 0c0.0294528,0 0.0533346,0.0238819 0.0533346,0.0533346 0,0.0294528 -0.0238819,0.0533346 -0.0533346,0.0533346l-0.604445 0z"/>
    </g>
    <path id="_511111072" class="fil0" d="M2.15264 4.07843c0.0547638,-0.0214016 0.116516,0.00564961 0.137917,0.0604134 0.0214016,0.0547638 -0.00564961,0.116516 -0.0604134,0.137917l-0.225083 0.0881299c-0.0547638,0.0214016 -0.116516,-0.00564961 -0.137917,-0.0604134 -0.0214016,-0.0547638 0.00564961,-0.116516 0.0604134,-0.137917l0.225083 -0.0881299z"/>
    <path id="_511111048" class="fil0" d="M2.1948 4.309c0.0310669,-0.0499331 0.0967362,-0.0652323 0.146669,-0.0341654 0.0499331,0.0310669 0.0652323,0.0967362 0.0341654,0.146669l-0.0959488 0.15398c-0.0310669,0.0499331 -0.0967362,0.0652323 -0.146669,0.0341654 -0.0499331,-0.0310669 -0.0652323,-0.0967362 -0.0341654,-0.146669l0.0959488 -0.15398z"/>
    <path id="_511111720" class="fil0" d="M2.48855 4.4026c0.0188661,-0.055689 0.079311,-0.0855354 0.135,-0.0666693 0.055689,0.0188661 0.0855354,0.079311 0.0666693,0.135l-0.070252 0.207689c-0.0188661,0.055689 -0.079311,0.0855354 -0.135,0.0666693 -0.055689,-0.0188661 -0.0855354,-0.079311 -0.0666693,-0.135l0.070252 -0.207689z"/>
    <path id="_511111576" class="fil0" d="M2.80369 4.47854c0.0140354,-0.0570669 0.071685,-0.0919528 0.128752,-0.0779173 0.0570669,0.0140354 0.0919528,0.071685 0.0779173,0.128752l-0.0588386 0.236602c-0.0140354,0.0570669 -0.071685,0.0919528 -0.128752,0.0779173 -0.0570669,-0.0140354 -0.0919528,-0.071685 -0.0779173,-0.128752l0.0588386 -0.236602z"/>
   </g>
   <g>
    <g>
     <path id="_511111144" class="fil0" d="M3.22274 1.50069l1.1589 0c0.0589094,0 0.106669,0.0477598 0.106669,0.106669 0,0.00238583 -8.66142e-005,0.00474803 -0.000240157,0.00709843 0.00388583,0.210441 -0.00583465,0.417264 -0.0155512,0.624063 -0.0100827,0.214575 -0.0201654,0.42915 -0.0148858,0.64002 0.0120866,0.48261 0.0882205,0.49474 0.478264,0.556874 0.139815,0.0222717 0.313024,0.0498661 0.525484,0.098685 0.328929,0.0755748 0.504811,0.287224 0.577846,0.51211 0.0320669,0.098748 0.0437992,0.200217 0.0396575,0.293606 -0.00425197,0.0958346 -0.0253307,0.184323 -0.0585276,0.254173 -0.053063,0.111657 -0.13813,0.182394 -0.243059,0.182394l-1.05515 0c-0.0181614,0 -0.0352598,-0.00454331 -0.0502283,-0.0125512l-0.426531 -0.180472 -0.054 0.127606c-0.0170984,0.0405906 -0.0564724,0.0650079 -0.0979173,0.0650276l0 0.000389764 -0.541634 0c-0.0289291,0 -0.0551614,-0.0115197 -0.074378,-0.0302205 -0.00523622,-0.00412598 -0.0114803,-0.00884252 -0.0187441,-0.0141575 -0.00840551,-0.00614961 -0.017315,-0.0122638 -0.0267047,-0.018315 -0.0265236,-0.0170945 -0.0544606,-0.032185 -0.0837874,-0.0448898 -0.0288307,-0.0124921 -0.0608268,-0.0235551 -0.0961929,-0.032937 -0.0498307,-0.0131142 -0.0820669,-0.0594646 -0.0791811,-0.108996 -0.000791339,-0.47626 -0.0144764,-0.955646 -0.0281575,-1.43502 -0.0143031,-0.501165 -0.0286142,-1.00233 -0.0286142,-1.48449 0,-0.0589094 0.0477598,-0.106669 0.106669,-0.106669zm1.05362 0.213339l-0.946748 0c0.00175984,0.467508 0.0146693,0.919752 0.0275748,1.37199 0.013,0.455406 0.026,0.910823 0.0279449,1.3689 0.0160551,0.00588976 0.0318031,0.0121929 0.047248,0.0188858 0.0423268,0.0183386 0.0804449,0.0387008 0.114622,0.0607244 0.0127008,0.00818504 0.0252283,0.0168031 0.0375394,0.025811l0.00366535 0.00270866 0.43502 0 0.0677913 -0.160193c0.0227795,-0.0540748 0.0850945,-0.0794449 0.139169,-0.0566654l0.51252 0.216858 1.03459 0c0.0148228,0 0.0331339,-0.0232323 0.0505551,-0.0598898 0.021689,-0.0456378 0.035563,-0.105626 0.0385276,-0.172504 0.0030748,-0.069315 -0.00570472,-0.144843 -0.0296575,-0.218606 -0.0526142,-0.162012 -0.181031,-0.314882 -0.422846,-0.370441 -0.209083,-0.0480433 -0.376319,-0.074685 -0.511311,-0.096189 -0.536248,-0.0854213 -0.640913,-0.102102 -0.657437,-0.761874 -0.00552756,-0.220654 0.0046811,-0.437835 0.0148858,-0.65502 0.00809449,-0.17224 0.016189,-0.344496 0.0163504,-0.514492z"/>
     <path id="_511111672" class="fil0" d="M3.14687 1.50069l1.32672 0 0 -0.125083 -1.32672 0 0 0.125083zm1.43339 0.213339l-1.54006 0c-0.0589094,0 -0.106669,-0.0477598 -0.106669,-0.106669l0 -0.338421c0,-0.0589094 0.0477598,-0.106669 0.106669,-0.106669l1.54006 0c0.0589094,0 0.106669,0.0477598 0.106669,0.106669l0 0.338421c0,0.0589094 -0.0477598,0.106669 -0.106669,0.106669z"/>
     <path id="_511110280" class="fil0" d="M3.66002 1.60736c0,-0.0294528 0.0238819,-0.0533346 0.0533346,-0.0533346 0.0294528,0 0.0533346,0.0238819 0.0533346,0.0533346l0 1.40074c0,0.0294528 -0.0238819,0.0533346 -0.0533346,0.0533346 -0.0294528,0 -0.0533346,-0.0238819 -0.0533346,-0.0533346l0 -1.40074z"/>
     <path id="_511110544" class="fil0" d="M3.34616 4.09354c-0.0294528,0 -0.0533346,-0.0238819 -0.0533346,-0.0533346 0,-0.0294528 0.0238819,-0.0533346 0.0533346,-0.0533346l1.65305 0c0.160232,0 0.279303,-0.0217913 0.377496,-0.0680039 0.0975787,-0.0459213 0.17722,-0.117346 0.258516,-0.216634 0.0186378,-0.0227795 0.0522165,-0.0261378 0.0749961,-0.0075 0.0227795,0.0186378 0.0261378,0.0522165 0.0075,0.0749961 -0.0909724,0.111106 -0.181736,0.191807 -0.295594,0.24539 -0.113236,0.0532913 -0.246669,0.0784213 -0.422913,0.0784213l-1.65305 0z"/>
     <path id="_511110352" class="fil0" d="M3.26773 3.76737c-0.0294528,0 -0.0533346,-0.0238819 -0.0533346,-0.0533346 0,-0.0294528 0.0238819,-0.0533346 0.0533346,-0.0533346l0.604445 0c0.0294528,0 0.0533346,0.0238819 0.0533346,0.0533346 0,0.0294528 -0.0238819,0.0533346 -0.0533346,0.0533346l-0.604445 0z"/>
    </g>
    <path id="_511110376" class="fil0" d="M4.3395 3.19042c0.0547638,-0.0214016 0.116516,0.00564961 0.137917,0.0604134 0.0214016,0.0547638 -0.00564961,0.116516 -0.0604134,0.137917l-0.225079 0.0881299c-0.0547638,0.0214016 -0.116516,-0.00564961 -0.137917,-0.0604134 -0.0214016,-0.0547638 0.00564961,-0.116516 0.0604134,-0.137917l0.225079 -0.0881299z"/>
    <path id="_511110520" class="fil0" d="M4.38167 3.42098c0.0310669,-0.0499331 0.0967362,-0.0652323 0.146669,-0.0341654 0.0499331,0.0310669 0.0652323,0.0967362 0.0341654,0.146669l-0.0959488 0.15398c-0.0310669,0.0499331 -0.0967362,0.0652323 -0.146669,0.0341654 -0.0499331,-0.0310669 -0.0652323,-0.0967362 -0.0341654,-0.146669l0.0959488 -0.15398z"/>
    <path id="_511110400" class="fil0" d="M4.67542 3.51459c0.0188661,-0.055689 0.079311,-0.0855354 0.135,-0.0666693 0.055689,0.0188661 0.0855354,0.079311 0.0666693,0.135l-0.070252 0.207693c-0.0188661,0.055689 -0.079311,0.0855354 -0.135,0.0666693 -0.055689,-0.0188661 -0.0855354,-0.079311 -0.0666693,-0.135l0.070252 -0.207693z"/>
    <path id="_511110640" class="fil0" d="M4.99056 3.59053c0.0140354,-0.0570669 0.071685,-0.0919528 0.128752,-0.0779173 0.0570669,0.0140354 0.0919528,0.071685 0.0779173,0.128752l-0.0588425 0.236602c-0.0140354,0.0570669 -0.071685,0.0919528 -0.128752,0.0779173 -0.0570669,-0.0140354 -0.0919528,-0.071685 -0.0779173,-0.128752l0.0588425 -0.236602z"/>
   </g>
  </g>
  <polygon class="fil1" points="3.22274,1.50069 4.38164,1.50069 4.47358,1.50069 4.47358,1.37561 3.14687,1.37561 3.14687,1.50069 "/>
  <path class="fil1" d="M3.76669 1.71403l0 1.29407c0,0.0294528 -0.0238819,0.0533346 -0.0533346,0.0533346 -0.0294528,0 -0.0533346,-0.0238819 -0.0533346,-0.0533346l0 -1.29407 -0.330406 0c0.00175984,0.467508 0.0146693,0.919752 0.0275748,1.37199 0.00546457,0.191492 0.0109331,0.382988 0.0155787,0.574685l0.499406 0c0.0294528,0 0.0533346,0.0238819 0.0533346,0.0533346 0,0.0294528 -0.0238819,0.0533346 -0.0533346,0.0533346l-0.496913 0c0.00164567,0.073126 0.00314567,0.146287 0.00446063,0.219496l1.61949 0c0.160232,0 0.279303,-0.0217913 0.377496,-0.0680039 0.0657559,-0.0309449 0.12337,-0.0734724 0.178831,-0.128307 -0.0421457,-0.0202913 -0.0892402,-0.0369094 -0.141661,-0.0489528 -0.0829213,-0.0190551 -0.15926,-0.0347402 -0.229618,-0.0480787l-0.0458701 0.184441c-0.0140354,0.0570669 -0.071685,0.0919528 -0.128752,0.0779173 -0.0570669,-0.0140354 -0.0919528,-0.071685 -0.0779173,-0.128752l0.0423425 -0.170256c-0.0247913,-0.00401969 -0.0486063,-0.00781496 -0.0714961,-0.0114606 -0.0150827,-0.00240157 -0.0298228,-0.00475197 -0.0442283,-0.00705906l-0.0515 0.152256c-0.0188661,0.055689 -0.079311,0.0855354 -0.135,0.0666693 -0.055689,-0.0188661 -0.0855354,-0.079311 -0.0666693,-0.135l0.0412244 -0.121874c-0.0396339,-0.00862598 -0.0754291,-0.0179173 -0.107748,-0.028626l-0.0720866 0.115689c-0.0310669,0.0499331 -0.0967362,0.0652323 -0.146669,0.0341654 -0.0499331,-0.0310669 -0.0652323,-0.0967362 -0.0341654,-0.146669l0.0733268 -0.117677c-0.00888189,-0.011189 -0.0171024,-0.0232126 -0.0247126,-0.0361693l-0.142406 0.0557598c-0.0547638,0.0214016 -0.116516,-0.00564961 -0.137917,-0.0604134 -0.0214016,-0.0547638 0.00564961,-0.116516 0.0604134,-0.137917l0.155461 -0.0608701c-0.0140984,-0.0879094 -0.0213307,-0.197165 -0.0247598,-0.334138 -0.00552756,-0.220654 0.0046811,-0.437835 0.0148858,-0.65502 0.00809449,-0.17224 0.016189,-0.344496 0.0163504,-0.514492l-0.509673 0z"/>
  <path class="fil1" d="M5.42212 4.01511c-0.113236,0.0532913 -0.246669,0.0784213 -0.422913,0.0784213l-1.61771 0c0.00184252,0.120177 0.00311811,0.240492 0.00363386,0.360988 0.0782441,0.0283071 0.146024,0.0652559 0.204291,0.10852l0.433803 0 0.0677913 -0.160193c0.0227795,-0.0540748 0.0850945,-0.0794449 0.139169,-0.0566654l0.51252 0.216858 1.03459 0c0.0148228,0 0.0331339,-0.0232323 0.0505551,-0.0598898 0.021689,-0.0456378 0.035563,-0.105626 0.0385276,-0.172504 0.0030748,-0.069315 -0.00570472,-0.144843 -0.0296575,-0.218606 -0.031874,-0.0981457 -0.091563,-0.192937 -0.187433,-0.264772 -0.0692795,0.0721457 -0.14172,0.12763 -0.227165,0.167843z"/>
  <path class="fil1" d="M3.64985 5.00006c-0.031874,-0.0981457 -0.0915669,-0.192937 -0.187433,-0.264772 -0.0692835,0.0721457 -0.14172,0.12763 -0.227165,0.167843 -0.113236,0.0532913 -0.246669,0.0784213 -0.422913,0.0784213l-1.61747 0c0.00250787,0.158031 0.00401969,0.31474 0.00406693,0.469508l0.637421 0 0.0677913 -0.160197c0.0227795,-0.0540748 0.0850945,-0.0794449 0.139169,-0.0566654l0.512524 0.216862 1.03458 0c0.0148228,0 0.0331339,-0.0232323 0.0505551,-0.0598898 0.021689,-0.0456378 0.035563,-0.105626 0.0385276,-0.172504 0.0030748,-0.069315 -0.00570472,-0.144843 -0.0296575,-0.218606z"/>
  <path class="fil1" d="M2.48496 4.74529c-0.055689,-0.0188661 -0.0855354,-0.079311 -0.0666693,-0.135l0.0412244 -0.12187c-0.0396339,-0.00862598 -0.0754291,-0.0179173 -0.107748,-0.028626l-0.0720866 0.115689c-0.0310669,0.0499331 -0.0967362,0.0652323 -0.146669,0.0341654 -0.0499331,-0.0310669 -0.0652323,-0.0967362 -0.0341654,-0.146669l0.0733268 -0.117677c-0.00888189,-0.011189 -0.0171024,-0.0232126 -0.0247126,-0.0361693l-0.142406 0.0557598c-0.0547638,0.0214016 -0.116516,-0.00564961 -0.137917,-0.0604134 -0.0214016,-0.0547638 0.00564961,-0.116516 0.0604134,-0.137917l0.155461 -0.0608701c-0.0140984,-0.0879094 -0.0213307,-0.197165 -0.0247598,-0.334138 -0.00552756,-0.220654 0.0046811,-0.437835 0.0148858,-0.65502 0.00809449,-0.17224 0.016189,-0.344496 0.0163504,-0.514492l-0.509673 0 0 1.29407c0,0.0294528 -0.0238819,0.0533346 -0.0533346,0.0533346 -0.0294528,0 -0.0533346,-0.0238819 -0.0533346,-0.0533346l0 -1.29407 -0.330402 0c0.00175984,0.467516 0.0146693,0.919772 0.0275748,1.37202 0.00548031,0.191906 0.0109567,0.383815 0.0156339,0.574654l0.499346 0c0.0294528,0 0.0533346,0.0238819 0.0533346,0.0533346 0,0.0294528 -0.0238819,0.0533346 -0.0533346,0.0533346l-0.496819 0c0.00167323,0.073374 0.00320866,0.146563 0.00455512,0.2195l1.6193 0c0.160232,0 0.279303,-0.0217913 0.377496,-0.0680039 0.0657559,-0.0309449 0.123366,-0.0734724 0.178831,-0.128307 -0.0294055,-0.0141575 -0.0612165,-0.0265236 -0.0955669,-0.0367992 -4.72441e-005,-1.5748e-005 -9.05512e-005,-2.75591e-005 -0.000137795,-3.93701e-005 -0.00684252,-0.00202362 -0.0138228,-0.00398031 -0.020937,-0.00586614 -0.00105512,-0.000279528 -0.0021063,-0.000570866 -0.00314567,-0.000877953 -0.00718898,-0.00188189 -0.0144764,-0.00366929 -0.021874,-0.00537008 -0.0829213,-0.0190551 -0.15926,-0.0347402 -0.229618,-0.0480787l-0.0458661 0.184441c-0.0140354,0.0570669 -0.071685,0.0919528 -0.128752,0.0779173 -0.0570669,-0.0140354 -0.0919528,-0.071685 -0.0779173,-0.128752l0.0423386 -0.170256c-0.0247913,-0.00401969 -0.0486063,-0.00781496 -0.0714961,-0.0114606 -0.0150827,-0.00240157 -0.0298228,-0.00475197 -0.0442283,-0.00705906l-0.0515 0.152252c-0.0188661,0.055689 -0.079311,0.0855354 -0.135,0.0666693z"/>
  <polygon class="fil1" points="1.03587,2.3887 2.19477,2.3887 2.28671,2.3887 2.28671,2.26362 0.959996,2.26362 0.959996,2.3887 "/>
 </g>
 <rect class="fil2" width="6.82666" height="6.82666"/>
</svg>
