<?xml version="1.0" encoding="UTF-8"?>
<!DOCTYPE svg PUBLIC "-//W3C//DTD SVG 1.1//EN" "http://www.w3.org/Graphics/SVG/1.1/DTD/svg11.dtd">
<!-- Creator: CorelDRAW -->
<svg xmlns="http://www.w3.org/2000/svg" xml:space="preserve" width="6.82666in" height="6.82666in" style="shape-rendering:geometricPrecision; text-rendering:geometricPrecision; image-rendering:optimizeQuality; fill-rule:evenodd; clip-rule:evenodd"
viewBox="0 0 6.82666 6.82666"
 xmlns:xlink="http://www.w3.org/1999/xlink">
 <defs>
  <style type="text/css">
   <![CDATA[
    .fil3 {fill:none}
    .fil1 {fill:#F45A52}
    .fil2 {fill:#FECA5F}
    .fil0 {fill:#212121;fill-rule:nonzero}
   ]]>
  </style>
 </defs>
 <g id="Layer_x0020_1">
  <metadata id="CorelCorpID_0Corel-Layer"/>
  <g id="_511112920">
   <g>
    <path id="_511113160" class="fil0" d="M1.75237 2.57095l3.32192 0c0.0589094,0 0.106669,0.0477598 0.106669,0.106669 0,0.00418504 -0.000251969,0.00830709 -0.000720472,0.0123661l-0.222421 2.66905c-0.00881102,0.105756 -0.00972441,0.184146 -0.0104528,0.246756 -0.00385827,0.331524 -0.00427953,0.367543 -0.441169,0.367543l-2.18434 0c-0.439756,0 -0.440193,-0.0417835 -0.443646,-0.375146 -0.000665354,-0.0642756 -0.00150394,-0.144602 -0.0104764,-0.252283l-0.221618 -2.65954c-0.00483071,-0.0586811 0.0388189,-0.110173 0.0975,-0.115004 0.00293701,-0.000240157 0.00585827,-0.000354331 0.00875197,-0.000358268l0 -5.90551e-005zm3.20605 0.213339l-3.09018 0 0.212 2.54411c0.0087874,0.105429 0.00972835,0.195799 0.0104764,0.268118 0.00150394,0.145268 0.00169685,0.163476 0.231142,0.163476l2.18434 0c0.22685,0 0.227031,-0.0152795 0.228665,-0.155874 0.000826772,-0.0707835 0.00185827,-0.159417 0.0104528,-0.262591l0.213106 -2.55724z"/>
    <path id="_511112824" class="fil0" d="M1.52704 2.7843c-0.0589094,0 -0.106669,-0.0477598 -0.106669,-0.106669 0,-0.0589094 0.0477598,-0.106669 0.106669,-0.106669l3.77259 0c0.0589094,0 0.106669,0.0477598 0.106669,0.106669 0,0.0589094 -0.0477598,0.106669 -0.106669,0.106669l-3.77259 0z"/>
    <path id="_511113280" class="fil0" d="M1.22343 3.31579c-0.0589094,0 -0.106669,-0.0477598 -0.106669,-0.106669 0,-0.0589094 0.0477598,-0.106669 0.106669,-0.106669l0.528941 0c0.0589094,0 0.106669,0.0477598 0.106669,0.106669 0,0.0589094 -0.0477598,0.106669 -0.106669,0.106669l-0.528941 0z"/>
    <path id="_511113016" class="fil0" d="M5.11363 3.31579c-0.0589094,0 -0.106669,-0.0477598 -0.106669,-0.106669 0,-0.0589094 0.0477598,-0.106669 0.106669,-0.106669l0.492165 0c0.0589094,0 0.106669,0.0477598 0.106669,0.106669 0,0.0589094 -0.0477598,0.106669 -0.106669,0.106669l-0.492165 0z"/>
    <path id="_511112968" class="fil0" d="M1.26865 3.20767c0.00080315,0.0293386 -0.0223307,0.0537795 -0.0516693,0.0545827 -0.0293386,0.00080315 -0.0537795,-0.0223307 -0.0545827,-0.0516693 -0.000405512,-0.0132598 -0.000728346,-0.027374 -0.000956693,-0.0423031 -0.000350394,-0.0228701 -0.000527559,-0.0369134 -0.000527559,-0.0421142 0,-0.667331 0.238264,-1.20991 0.626106,-1.59194 0.410417,-0.404276 0.987571,-0.627563 1.62631,-0.627563 0.638732,0 1.21589,0.223287 1.62631,0.627563 0.387843,0.382035 0.626106,0.92461 0.626106,1.59194 0,0.0294528 -0.0238819,0.0533346 -0.0533346,0.0533346 -0.0294528,0 -0.0533346,-0.0238819 -0.0533346,-0.0533346 0,-0.637067 -0.226051,-1.15365 -0.59402,-1.51611 -0.390252,-0.384409 -0.940937,-0.596728 -1.55172,-0.596728 -0.610795,0 -1.16148,0.212315 -1.55173,0.596728 -0.367969,0.362461 -0.59402,0.879039 -0.59402,1.51611 0,0.0224567 3.93701e-005,0.0360866 0.000110236,0.0408622 0.000192913,0.0127165 0.000515748,0.0262756 0.000956693,0.0406417z"/>
   </g>
   <path id="_511113256" class="fil0" d="M1.85085 3.9661c-0.0589094,0 -0.106669,-0.0477598 -0.106669,-0.106669 0,-0.0589094 0.0477598,-0.106669 0.106669,-0.106669l3.05581 0c0.0589094,0 0.106669,0.0477598 0.106669,0.106669 0,0.0589094 -0.0477598,0.106669 -0.106669,0.106669l-3.05581 0z"/>
   <path id="_511113328" class="fil0" d="M1.92 4.37333c-0.0589094,0 -0.106669,-0.0477598 -0.106669,-0.106669 0,-0.0589094 0.0477598,-0.106669 0.106669,-0.106669l2.93383 0c0.0589094,0 0.106669,0.0477598 0.106669,0.106669 0,0.0589094 -0.0477598,0.106669 -0.106669,0.106669l-2.93383 0z"/>
  </g>
  <polygon class="fil1" points="1.94894,3.75276 4.87771,3.75276 4.95842,2.78429 1.86824,2.78429 "/>
  <polygon class="fil2" points="4.85994,3.9661 1.96672,3.9661 1.98288,4.15999 4.84378,4.15999 "/>
  <path class="fil1" d="M4.826 4.37333l-2.82535 0 0.0795866 0.955071c0.0087874,0.105429 0.00972835,0.195799 0.0104764,0.268118 0.00150394,0.145268 0.00169685,0.163476 0.231142,0.163476l2.18434 0c0.22685,0 0.227031,-0.0152795 0.228665,-0.155874 0.000826772,-0.0707835 0.00185827,-0.159417 0.0104528,-0.262591l0.080685 -0.968201z"/>
 </g>
 <rect class="fil3" width="6.82666" height="6.82666"/>
</svg>
