<?xml version="1.0" encoding="UTF-8"?>
<!DOCTYPE svg PUBLIC "-//W3C//DTD SVG 1.1//EN" "http://www.w3.org/Graphics/SVG/1.1/DTD/svg11.dtd">
<!-- Creator: CorelDRAW -->
<svg xmlns="http://www.w3.org/2000/svg" xml:space="preserve" width="6.82666in" height="6.82666in" style="shape-rendering:geometricPrecision; text-rendering:geometricPrecision; image-rendering:optimizeQuality; fill-rule:evenodd; clip-rule:evenodd"
viewBox="0 0 6.82666 6.82666"
 xmlns:xlink="http://www.w3.org/1999/xlink">
 <defs>
  <style type="text/css">
   <![CDATA[
    .fil3 {fill:none}
    .fil1 {fill:#F45A52}
    .fil2 {fill:#FECA5F}
    .fil0 {fill:#212121;fill-rule:nonzero}
   ]]>
  </style>
 </defs>
 <g id="Layer_x0020_1">
  <metadata id="CorelCorpID_0Corel-Layer"/>
  <g id="_511114720">
   <g>
    <path id="_511114864" class="fil0" d="M3.3669 3.15681c0.0943307,0.242685 0.122791,0.444406 0.114516,0.621087 -0.00839764,0.179118 -0.0538346,0.328579 -0.106661,0.468079 -0.0245315,0.0647835 -0.0665669,0.212295 -0.0765354,0.350681 -0.00464567,0.0645079 -0.00226378,0.124657 0.0128307,0.167457 0.00801181,0.0227205 0.0200472,0.0385118 0.0376063,0.0416969 0.012126,0.00219685 0.0282756,0.00155512 0.0490354,-0.00245669 0.0149685,-0.00288976 0.0388583,-0.0307717 0.0646063,-0.0696654 0.0400079,-0.060437 0.0726299,-0.138791 0.0881732,-0.206803 0.0131142,-0.0572992 0.0702047,-0.0931142 0.127504,-0.08 0.0466457,0.0106772 0.0790472,0.0504921 0.0824134,0.0958425l8.66142e-005 -7.87402e-006c0.0261496,0.347374 -0.0531732,0.643134 -0.201429,0.87315 -0.163433,0.253563 -0.409925,0.426079 -0.691535,0.499626 -0.145752,0.0380118 -0.286087,0.0645276 -0.420122,0.0785472 -0.369717,0.0386772 -0.693677,-0.017063 -0.95487,-0.18728 -0.261752,-0.170583 -0.455488,-0.452547 -0.563138,-0.865299 -0.0337008,-0.12922 -0.0589685,-0.271217 -0.0752165,-0.426559 -0.00598031,-0.0584488 0.0365512,-0.110689 0.095,-0.116669 0.0436772,-0.0044685 0.0838819,0.0181535 0.103913,0.0542598 0.0289409,0.0458543 0.0458189,0.0789213 0.0602244,0.107146 0.0222323,0.0435591 0.0359173,0.0703622 0.0779252,0.0921772 0.00515748,0.00267717 0.00924409,0.00415354 0.0123346,0.00457087 0.00306299,0.000413386 0.00679921,-0.00101969 0.0107638,-0.00374016 0.0100551,-0.00689764 0.0195906,-0.0192559 0.0278189,-0.0351024 0.010185,-0.019622 0.017311,-0.0426063 0.0205748,-0.0667441 0.012126,-0.0894843 -0.0190394,-0.213331 -0.0541457,-0.352866 -0.0991299,-0.393961 -0.225622,-0.896654 0.327772,-1.4213 0.0425709,-0.0405 0.109917,-0.0388228 0.150417,0.00374803 0.0240472,0.0252756 0.0332244,0.0592913 0.0278031,0.0912323l0.000114173 1.9685e-005c-0.00298819,0.0172913 -0.00311024,0.0361969 -0.000767717,0.0559646 0.00744094,0.0627323 0.0382323,0.129106 0.0816929,0.182756 0.0404764,0.0499724 0.0896063,0.0867598 0.137079,0.0949724 0.00958268,0.00165748 0.0190906,0.00202756 0.0283504,0.000933071 0.0547677,-0.00650394 0.0988898,-0.0245669 0.133902,-0.0513622 0.0671535,-0.0513937 0.107571,-0.138575 0.12872,-0.241413 0.0234724,-0.114146 0.022752,-0.246319 0.0076063,-0.373835 -0.0246969,-0.207996 -0.0850827,-0.394724 -0.140311,-0.46689 -0.0356654,-0.0467126 -0.0267126,-0.1135 0.02,-0.149165 0.0321339,-0.0245354 0.0737638,-0.0279488 0.108232,-0.0124921 0.00959843,0.00406299 0.0311772,0.0131024 0.0526614,0.0220984 0.180992,0.0757717 0.374949,0.156972 0.499138,0.31985 0.300012,0.393433 0.197224,0.815224 0.121449,1.12618 -0.0260787,0.107031 -0.0484567,0.198874 -0.0448858,0.25713 0.0017126,0.0279331 0.0269961,0.0427992 0.101681,0.0382165 0.0428504,-0.00262992 0.080374,-0.0458583 0.111543,-0.105283 0.0598268,-0.114055 0.0889016,-0.276768 0.0984803,-0.388232 0.00483071,-0.0586811 0.0563228,-0.102331 0.115004,-0.0975 0.0441142,0.00362992 0.0797362,0.0336378 0.0926457,0.0732402zm-0.0979882 0.611921c0.00202756,-0.0432913 0.0013622,-0.0885748 -0.00259843,-0.136209 -0.00549213,0.0119803 -0.0112283,0.0237008 -0.0172126,0.0351102 -0.0639094,0.121839 -0.156299,0.211406 -0.28737,0.219457 -0.234642,0.0144055 -0.31672,-0.0759173 -0.326689,-0.238217 -0.00546457,-0.0890551 0.0204843,-0.195539 0.0507205,-0.319634 0.0655906,-0.269154 0.154559,-0.634248 -0.0839449,-0.947016 -0.0527441,-0.0691732 -0.132154,-0.121791 -0.22026,-0.16665 0.0269173,0.0906772 0.0488425,0.193559 0.061374,0.299083 0.0174488,0.146921 0.0176575,0.302268 -0.0109449,0.441339 -0.0309331,0.150386 -0.0956142,0.28215 -0.207886,0.368075 -0.0647638,0.049563 -0.143417,0.082626 -0.238067,0.0938661 -0.0299134,0.00354331 -0.0597717,0.00249213 -0.089185,-0.00260236 -0.100941,-0.0174606 -0.195382,-0.0833228 -0.266244,-0.170807 -0.0374331,-0.0462126 -0.0689213,-0.0991496 -0.0916811,-0.154484 -0.292787,0.383906 -0.199118,0.756425 -0.123681,1.05622 0.0402756,0.160071 0.0760236,0.30215 0.058311,0.432866 -0.00657087,0.048563 -0.0211969,0.0953701 -0.0422441,0.135917 -0.0240906,0.0464094 -0.0570551,0.0860394 -0.0969843,0.113433 -0.0460236,0.0315748 -0.099811,0.0467638 -0.159094,0.0387402 -0.0160591,-0.00217323 -0.0321772,-0.00604331 -0.0482598,-0.011748 0.00268504,0.0109921 0.00543307,0.021878 0.00824409,0.0326575 0.093315,0.357795 0.255913,0.598732 0.473138,0.740299 0.217783,0.141929 0.495476,0.187614 0.817366,0.153941 0.123563,-0.0129213 0.253339,-0.0374724 0.388461,-0.0727126 0.230327,-0.0601535 0.431965,-0.201303 0.565701,-0.408791 0.0603701,-0.0936654 0.107051,-0.201083 0.13652,-0.320988 -0.0251024,0.0160709 -0.0514488,0.0273701 -0.0787087,0.0326378 -0.0464803,0.00898425 -0.0885354,0.00934646 -0.126539,0.00245669 -0.105409,-0.0191181 -0.167941,-0.0864646 -0.200937,-0.180028 -0.0259173,-0.0734961 -0.0310157,-0.162823 -0.0245,-0.253291 0.0116339,-0.161465 0.0610276,-0.334508 0.089874,-0.410681 0.0464331,-0.122618 0.0863071,-0.252543 0.0933228,-0.402244z"/>
    <path id="_511114312" class="fil0" d="M1.7552 5.84974c-0.0232402,0.0179488 -0.0566339,0.0136575 -0.0745827,-0.00958268 -0.0179488,-0.0232402 -0.0136575,-0.0566339 0.00958268,-0.0745827 0.055315,-0.0426378 0.0312008,-0.141374 0.000893701,-0.265484 -0.0574803,-0.235398 -0.133291,-0.545846 0.190894,-0.853181 0.0212835,-0.020248 0.0549567,-0.0194094 0.0752047,0.00187402 0.0120236,0.0126378 0.0166102,0.0296378 0.0138976,0.0456102l6.29921e-005 1.1811e-005c-0.00195276,0.011311 -0.00204724,0.0235709 -0.000535433,0.036311 0.00466142,0.0393031 0.0238701,0.0807953 0.0509567,0.114236 0.0255945,0.0316024 0.0570787,0.0549409 0.0879606,0.0602795 0.00666929,0.00115354 0.0133268,0.00140945 0.0198425,0.000637795 0.0345787,-0.0041063 0.0625551,-0.0156024 0.0848583,-0.0326732 0.0422165,-0.032311 0.0674921,-0.0864528 0.0805709,-0.150059 0.0142441,-0.0692677 0.0138386,-0.149205 0.00469685,-0.226181 -0.0149291,-0.125744 -0.0518425,-0.239161 -0.0857165,-0.283425 -0.0178307,-0.0233543 -0.0133543,-0.056752 0.01,-0.0745827 0.016252,-0.0124094 0.0373661,-0.0140118 0.0547165,-0.0059685 0.555898,0.237512 0.46072,0.612087 0.396138,0.866169 -0.016311,0.064189 -0.0303898,0.119583 -0.0282244,0.15489 0.0013622,0.0222559 0.0192402,0.0343504 0.0716299,0.0311378 0.0297953,-0.00183071 0.0548189,-0.0298425 0.0749803,-0.0682835 0.036437,-0.0694646 0.0540984,-0.168004 0.0598898,-0.235398 0.00241339,-0.0293386 0.0281614,-0.0511654 0.0575,-0.048752 0.022063,0.00181496 0.0398819,0.0168268 0.0463307,0.0366417 0.0558425,0.143472 0.0726969,0.262551 0.067815,0.36672 -0.00493701,0.105386 -0.0317677,0.193579 -0.0629606,0.275953 -0.0116969,0.0308898 -0.0300866,0.0934961 -0.0403307,0.160579 -0.00675591,0.0442283 -0.00980709,0.0893858 -0.00455512,0.126122 0.00414173,0.0291063 -0.0161024,0.0560669 -0.0452087,0.0602087 -0.0291063,0.00414173 -0.0560669,-0.0161024 -0.0602087,-0.0452087 -0.00693307,-0.0484961 -0.00351969,-0.104091 0.00455512,-0.156957 0.0114291,-0.0748386 0.0325984,-0.146413 0.0461654,-0.18224 0.0279961,-0.0739331 0.0520433,-0.152354 0.0562913,-0.243039 0.00178346,-0.0380551 0.000141732,-0.0786181 -0.00605906,-0.122378 -0.00737008,0.019874 -0.0156929,0.0390551 -0.0250591,0.0569134 -0.0365315,0.0696457 -0.0889843,0.120827 -0.162894,0.12537 -0.132327,0.00812205 -0.178657,-0.0419094 -0.184134,-0.131138 -0.00320866,-0.0522283 0.0127087,-0.114835 0.0311457,-0.187394 0.0497756,-0.195827 0.12063,-0.474906 -0.205433,-0.675902 0.0173268,0.056 0.0315433,0.120787 0.0394606,0.187465 0.0102953,0.0866811 0.0104409,0.178201 -0.00636614,0.259929 -0.0179685,0.0873819 -0.055378,0.163815 -0.120154,0.21339 -0.0371811,0.0284567 -0.0824252,0.0474528 -0.136945,0.0539252 -0.0168465,0.00199606 -0.0336693,0.00140157 -0.050252,-0.00147244 -0.0576142,-0.00996457 -0.111752,-0.0478386 -0.152543,-0.0982008 -0.0253858,-0.0313386 -0.0460472,-0.0679961 -0.0593898,-0.105933 -0.190185,0.239134 -0.131181,0.480953 -0.0852638,0.668992 0.0394213,0.161433 0.0707795,0.28985 -0.0392244,0.37465z"/>
   </g>
   <path id="_511114672" class="fil0" d="M5.92519 1.52482l-0.848598 1.03406 0.622382 0.147386c0.0429724,0.0100079 0.0696929,0.0529646 0.059685,0.095937 -0.00370079,0.0158937 -0.0119134,0.029563 -0.0229606,0.0399724l-1.5567 1.72198c-0.0295118,0.0326181 -0.0798819,0.0351378 -0.1125,0.00562598 -0.0237559,-0.0214921 -0.0315394,-0.0540512 -0.0226181,-0.0827559l-0.00019685 -5.90551e-005 0.402024 -1.28557 -0.621764 -0.14724c-0.0429724,-0.0100079 -0.0696929,-0.0529646 -0.059685,-0.095937 0.00180709,-0.00775591 0.00468898,-0.0149803 0.00844882,-0.0215551l-1.1811e-005 -7.87402e-006 1.17634 -2.04904c0.0219173,-0.038311 0.070752,-0.0516024 0.109063,-0.029685 0.00224409,0.00128346 0.00439764,0.00266535 0.0064685,0.00412598l0.845228 0.541248c0.0371063,0.023815 0.047878,0.0732087 0.024063,0.110315 -0.00259843,0.00405118 -0.00550394,0.00778346 -0.00866142,0.0111969zm-1.05291 1.03173l0.875791 -1.06719 -0.702079 -0.449583 -1.08131 1.8835 0.600957 0.142311 -7.87402e-006 2.75591e-005c0.00187795,0.000440945 0.00375984,0.000948819 0.00563386,0.0015315 0.0421102,0.0131142 0.0656142,0.0578937 0.0525,0.100004l-0.319118 1.02046 1.22662 -1.35686 -0.615555 -0.145768 3.93701e-005 -0.000173228c-0.0115787,-0.00268504 -0.0227362,-0.00801181 -0.0325394,-0.0160748 -0.034,-0.0279567 -0.0388937,-0.078189 -0.010937,-0.112189z"/>
  </g>
  <path class="fil1" d="M3.11021 4.83495c-0.0259173,-0.0734961 -0.0310157,-0.162823 -0.0245,-0.253291 0.0116339,-0.161465 0.0610276,-0.334508 0.089874,-0.410681 0.0464331,-0.122618 0.0863071,-0.252543 0.0933228,-0.402244 0.00202756,-0.0432913 0.0013622,-0.0885748 -0.00259843,-0.136209 -0.00549213,0.0119803 -0.0112283,0.0237008 -0.0172126,0.0351102 -0.0639094,0.121839 -0.156299,0.211406 -0.28737,0.219457 -0.234642,0.0144055 -0.31672,-0.0759173 -0.326689,-0.238217 -0.00546457,-0.0890551 0.0204843,-0.195539 0.0507205,-0.319634 0.0655906,-0.269154 0.154559,-0.634248 -0.0839449,-0.947016 -0.0527441,-0.0691732 -0.132154,-0.121791 -0.22026,-0.16665 0.0269173,0.0906772 0.0488425,0.193559 0.061374,0.299083 0.0174488,0.146921 0.0176575,0.302268 -0.0109449,0.441339 -0.0309331,0.150386 -0.0956142,0.28215 -0.207886,0.368075 -0.0647638,0.049563 -0.143417,0.082626 -0.238067,0.0938661 -0.0299134,0.00354331 -0.0597717,0.00249213 -0.089185,-0.00260236 -0.100941,-0.0174606 -0.195382,-0.0833228 -0.266244,-0.170807 -0.0374331,-0.0462126 -0.0689213,-0.0991496 -0.0916811,-0.154484 -0.292787,0.383906 -0.199118,0.756425 -0.123681,1.05622 0.0402756,0.160071 0.0760236,0.30215 0.058311,0.432866 -0.00657087,0.048563 -0.0211969,0.0953701 -0.0422441,0.135917 -0.0240906,0.0464094 -0.0570551,0.0860394 -0.0969843,0.113433 -0.0460236,0.0315748 -0.099811,0.0467638 -0.159094,0.0387402 -0.0160591,-0.00217323 -0.0321772,-0.00604331 -0.0482598,-0.011748 0.00268504,0.0109921 0.00543307,0.021878 0.00824409,0.0326575 0.093315,0.357795 0.255913,0.598732 0.473138,0.740299 0.036563,0.0238268 0.074811,0.0449409 0.114677,0.0634252 0.00272835,-0.0498425 -0.0134488,-0.116091 -0.0319291,-0.191772 -0.0574803,-0.235398 -0.133291,-0.545846 0.190894,-0.853181 0.0212835,-0.020248 0.0549567,-0.0194094 0.0752047,0.00187402 0.0120236,0.0126378 0.0166102,0.0296378 0.0138976,0.0456102l6.29921e-005 1.1811e-005c-0.00195276,0.011311 -0.00204724,0.0235709 -0.000535433,0.036311 0.00466142,0.0393031 0.0238701,0.0807953 0.0509567,0.114236 0.0255945,0.0316024 0.0570787,0.0549409 0.0879606,0.0602795 0.00666929,0.00115354 0.0133268,0.00140945 0.0198425,0.000637795 0.0345787,-0.0041063 0.0625551,-0.0156024 0.0848583,-0.0326732 0.0422165,-0.032311 0.0674921,-0.0864528 0.0805709,-0.150059 0.0142441,-0.0692677 0.0138386,-0.149205 0.00469685,-0.226181 -0.0149291,-0.125744 -0.0518425,-0.239161 -0.0857165,-0.283425 -0.0178307,-0.0233543 -0.0133543,-0.056752 0.01,-0.0745827 0.016252,-0.0124094 0.0373661,-0.0140118 0.0547165,-0.0059685 0.555898,0.237512 0.46072,0.612087 0.396138,0.866169 -0.016311,0.064189 -0.0303898,0.119583 -0.0282244,0.15489 0.0013622,0.0222559 0.0192402,0.0343504 0.0716299,0.0311378 0.0297953,-0.00183071 0.0548189,-0.0298425 0.0749803,-0.0682835 0.036437,-0.0694646 0.0540984,-0.168004 0.0598898,-0.235398 0.00241339,-0.0293386 0.0281614,-0.0511654 0.0575,-0.048752 0.022063,0.00181496 0.0398819,0.0168268 0.0463307,0.0366417 0.0558425,0.143472 0.0726969,0.262551 0.067815,0.36672 -0.00493701,0.105386 -0.0317677,0.193579 -0.0629606,0.275953 -0.0116969,0.0308898 -0.0300866,0.0934961 -0.0403307,0.160579 -0.000129921,0.000854331 -0.000259843,0.0017126 -0.000389764,0.00257087 0.185547,-0.0718819 0.346354,-0.199579 0.458992,-0.374335 0.0603701,-0.0936654 0.107051,-0.201083 0.13652,-0.320988 -0.0251024,0.0160709 -0.0514488,0.0273701 -0.0787087,0.0326378 -0.0464803,0.00898425 -0.0885354,0.00934646 -0.126539,0.00245669 -0.105409,-0.0191181 -0.167941,-0.0864646 -0.200937,-0.180028z"/>
  <path class="fil2" d="M2.7243 5.29143c-0.132327,0.00812205 -0.178657,-0.0419094 -0.184134,-0.131138 -0.00320866,-0.0522283 0.0127087,-0.114835 0.0311457,-0.187394 0.0497756,-0.195827 0.12063,-0.474906 -0.205433,-0.675902 0.0173268,0.056 0.0315433,0.120787 0.0394606,0.187465 0.0102953,0.0866811 0.0104409,0.178201 -0.00636614,0.259929 -0.0179685,0.0873819 -0.055378,0.163815 -0.120154,0.21339 -0.0371811,0.0284567 -0.0824252,0.0474528 -0.136945,0.0539252 -0.0168465,0.00199606 -0.0336693,0.00140157 -0.050252,-0.00147244 -0.0576142,-0.00996457 -0.111752,-0.0478386 -0.152543,-0.0982008 -0.0253858,-0.0313386 -0.0460472,-0.0679961 -0.0593898,-0.105933 -0.190185,0.239134 -0.131181,0.480953 -0.0852638,0.668992 0.0242402,0.0992598 0.0454291,0.186039 0.0325866,0.25787 0.175016,0.0580669 0.376311,0.0726811 0.598701,0.0494173 0.122134,-0.0127717 0.250339,-0.0369055 0.38378,-0.0714961 0.00144488,-0.0180866 0.0036378,-0.0362362 0.0063622,-0.0540787 0.0114291,-0.0748386 0.0325984,-0.146413 0.0461654,-0.18224 0.0279961,-0.0739331 0.0520433,-0.152354 0.0562913,-0.243039 0.00178346,-0.0380551 0.000141732,-0.0786181 -0.00605906,-0.122378 -0.00737008,0.019874 -0.0156929,0.0390551 -0.0250591,0.0569134 -0.0365315,0.0696457 -0.0889843,0.120827 -0.162894,0.12537z"/>
  <path class="fil1" d="M4.56564 3.06563l0 0zm0.0581339 0.101535l-0.319118 1.02046 1.22662 -1.35686 -0.615555 -0.145768 3.93701e-005 -0.000173228c-0.0115787,-0.00268504 -0.0227362,-0.00801181 -0.0325394,-0.0160748 -0.034,-0.0279567 -0.0388937,-0.078189 -0.010937,-0.112189l0.875791 -1.06719 -0.702079 -0.449583 -1.08131 1.8835 0.600949 0.142339c0.00187795,0.000440945 0.00375984,0.000948819 0.00563386,0.0015315 0.0421102,0.0131142 0.0656142,0.0578937 0.0525,0.100004z"/>
 </g>
 <rect class="fil3" width="6.82666" height="6.82666"/>
</svg>
