<?xml version="1.0" encoding="UTF-8"?>
<!DOCTYPE svg PUBLIC "-//W3C//DTD SVG 1.1//EN" "http://www.w3.org/Graphics/SVG/1.1/DTD/svg11.dtd">
<!-- Creator: CorelDRAW -->
<svg xmlns="http://www.w3.org/2000/svg" xml:space="preserve" width="6.82666in" height="6.82666in" style="shape-rendering:geometricPrecision; text-rendering:geometricPrecision; image-rendering:optimizeQuality; fill-rule:evenodd; clip-rule:evenodd"
viewBox="0 0 6.82666 6.82666"
 xmlns:xlink="http://www.w3.org/1999/xlink">
 <defs>
  <style type="text/css">
   <![CDATA[
    .fil2 {fill:none}
    .fil1 {fill:#AED581}
    .fil0 {fill:#212121;fill-rule:nonzero}
   ]]>
  </style>
 </defs>
 <g id="Layer_x0020_1">
  <metadata id="CorelCorpID_0Corel-Layer"/>
  <path class="fil0" d="M1.70666 1.27241l3.41333 0c0.0589094,0 0.106669,0.0477598 0.106669,0.106669l0 2.45333 0.639996 0c0.0589094,0 0.106669,0.0477598 0.106669,0.106669 0,0.0396969 -0.0216929,0.0743268 -0.0538622,0.0926969l-2.4503 1.50663c-0.0360945,0.022185 -0.0802165,0.0202953 -0.11361,-0.00119291l-2.45139 -1.5073c-0.0501654,-0.0308346 -0.0658346,-0.0965039 -0.035,-0.146669 0.0201142,-0.0327244 0.0550472,-0.0507598 0.0908346,-0.0507953l0 -3.93701e-005 0.639992 0 0 -2.45333c0,-0.0589094 0.0477598,-0.106669 0.106669,-0.106669zm3.30667 0.213339l-3.2 0 0 2.45333c0,0.0589094 -0.0477598,0.106669 -0.106669,0.106669l-0.369618 0 2.07629 1.27666 2.07629 -1.27666 -0.369622 0c-0.0589094,0 -0.106669,-0.0477598 -0.106669,-0.106669l0 -2.45333z"/>
  <path class="fil0" d="M2.26206 2.24l0.406583 0 0 -0.213335 -0.641976 0 0 1.49333 0.641976 0 0 -0.213335 -0.406583 0 0 -0.437335 0.323126 0 0 -0.213331 -0.323126 0 0 -0.416zm1.11918 -0.213335l-0.181894 0.550402 -0.177614 -0.550402 -0.243953 0 0.246091 0.725335 -0.263209 0.768 0.220413 0 0.194732 -0.590933 0.192591 0.590933 0.248232 0 -0.263209 -0.768 0.246087 -0.725335 -0.218268 0zm0.353087 1.49333l0.235394 0 0 -1.49333 -0.235394 0 0 1.49333zm0.338106 -1.28l0.246091 0 0 1.28 0.23539 0 0 -1.28 0.246091 0 0 -0.213335 -0.727571 0 0 0.213335z"/>
  <path class="fil1" d="M2.98107 3.52l-0.220413 0 0.263209 -0.768 -0.246091 -0.725335 0.243953 0 0.177614 0.550402 0.181894 -0.550402 0.218268 0 -0.246087 0.725335 0.263209 0.768 -0.248232 0 -0.192591 -0.590933 -0.194732 0.590933zm-0.395886 -0.864l0 0.213331 -0.323126 0 0 0.437335 0.406583 0 0 0.213335 -0.641976 0 0 -1.49333 0.641976 0 0 0.213335 -0.406583 0 0 0.416 0.323126 0zm1.38453 0.864l-0.235394 0 0 -1.49333 0.235394 0 0 1.49333zm0.348803 -1.28l-0.246091 0 0 -0.213335 0.727571 0 0 0.213335 -0.246091 0 0 1.28 -0.23539 0 0 -1.28zm0.694807 -0.754244l-3.2 0 0 2.45333c0,0.0589094 -0.0477598,0.106669 -0.106669,0.106669l-0.369618 0 2.07629 1.27666 2.07629 -1.27666 -0.369622 0c-0.0589094,0 -0.106669,-0.0477598 -0.106669,-0.106669l0 -2.45333z"/>
 </g>
 <rect class="fil2" width="6.82666" height="6.82666"/>
</svg>
