<?xml version="1.0" encoding="UTF-8"?>
<!DOCTYPE svg PUBLIC "-//W3C//DTD SVG 1.1//EN" "http://www.w3.org/Graphics/SVG/1.1/DTD/svg11.dtd">
<!-- Creator: CorelDRAW -->
<svg xmlns="http://www.w3.org/2000/svg" xml:space="preserve" width="6.82666in" height="6.82666in" style="shape-rendering:geometricPrecision; text-rendering:geometricPrecision; image-rendering:optimizeQuality; fill-rule:evenodd; clip-rule:evenodd"
viewBox="0 0 6.82666 6.82666"
 xmlns:xlink="http://www.w3.org/1999/xlink">
 <defs>
  <style type="text/css">
   <![CDATA[
    .fil3 {fill:none}
    .fil2 {fill:#F45A52}
    .fil1 {fill:#FECA5F}
    .fil0 {fill:#212121;fill-rule:nonzero}
   ]]>
  </style>
 </defs>
 <g id="Layer_x0020_1">
  <metadata id="CorelCorpID_0Corel-Layer"/>
  <path class="fil0" d="M0.96 0.992217l4.90667 0c0.0589094,0 0.106669,0.0477598 0.106669,0.106669l0 2.24c0,0.0589094 -0.0477598,0.106669 -0.106669,0.106669l-4.90667 0c-0.0589094,0 -0.106669,-0.0477598 -0.106669,-0.106669l0 -2.24c0,-0.0589094 0.0477598,-0.106669 0.106669,-0.106669zm4.8 0.213339l-4.69333 0 0 2.02666 4.69333 0 0 -2.02666z"/>
  <g id="_511117000">
   <path id="_511117480" class="fil0" d="M1.69012 1.11374c0.0329055,-0.0487835 0.0991339,-0.0616575 0.147917,-0.028752 0.0487835,0.0329055 0.0616575,0.0991339 0.028752,0.147917l-0.818457 1.21527c-0.0329055,0.0487835 -0.0991339,0.0616575 -0.147917,0.028752 -0.0487835,-0.0329055 -0.0616575,-0.0991339 -0.028752,-0.147917l0.818457 -1.21527z"/>
   <path id="_511117672" class="fil0" d="M2.36558 1.11374c0.0329055,-0.0487835 0.0991339,-0.0616575 0.147917,-0.028752 0.0487835,0.0329055 0.0616575,0.0991339 0.028752,0.147917l-1.45846 2.16556c-0.0329055,0.0487835 -0.0991339,0.0616575 -0.147917,0.028752 -0.0487835,-0.0329055 -0.0616575,-0.0991339 -0.028752,-0.147917l1.45846 -2.16556z"/>
   <path id="_511117432" class="fil0" d="M3.04104 1.11374c0.0329055,-0.0487835 0.0991339,-0.0616575 0.147917,-0.028752 0.0487835,0.0329055 0.0616575,0.0991339 0.028752,0.147917l-1.45846 2.16556c-0.0329055,0.0487835 -0.0991339,0.0616575 -0.147917,0.028752 -0.0487835,-0.0329055 -0.0616575,-0.0991339 -0.028752,-0.147917l1.45846 -2.16556z"/>
   <path id="_511117360" class="fil0" d="M3.7165 1.11374c0.0329055,-0.0487835 0.0991339,-0.0616575 0.147917,-0.028752 0.0487835,0.0329055 0.0616575,0.0991339 0.028752,0.147917l-1.45845 2.16556c-0.0329055,0.0487835 -0.0991339,0.0616575 -0.147917,0.028752 -0.0487835,-0.0329055 -0.0616575,-0.0991339 -0.028752,-0.147917l1.45845 -2.16556z"/>
   <path id="_511117888" class="fil0" d="M4.39195 1.11374c0.0329055,-0.0487835 0.0991339,-0.0616575 0.147917,-0.028752 0.0487835,0.0329055 0.0616575,0.0991339 0.028752,0.147917l-1.45845 2.16556c-0.0329055,0.0487835 -0.0991339,0.0616575 -0.147917,0.028752 -0.0487835,-0.0329055 -0.0616575,-0.0991339 -0.028752,-0.147917l1.45845 -2.16556z"/>
   <path id="_511117384" class="fil0" d="M5.06741 1.11374c0.0329055,-0.0487835 0.0991339,-0.0616575 0.147917,-0.028752 0.0487835,0.0329055 0.0616575,0.0991339 0.028752,0.147917l-1.45845 2.16556c-0.0329055,0.0487835 -0.0991339,0.0616575 -0.147917,0.028752 -0.0487835,-0.0329055 -0.0616575,-0.0991339 -0.028752,-0.147917l1.45845 -2.16556z"/>
   <path id="_511117792" class="fil0" d="M5.74287 1.11374c0.0329055,-0.0487835 0.0991339,-0.0616575 0.147917,-0.028752 0.0487835,0.0329055 0.0616575,0.0991339 0.028752,0.147917l-1.45845 2.16556c-0.0329055,0.0487835 -0.0991339,0.0616575 -0.147917,0.028752 -0.0487835,-0.0329055 -0.0616575,-0.0991339 -0.028752,-0.147917l1.45845 -2.16556z"/>
   <path id="_511117024" class="fil0" d="M5.77833 2.06403c0.0329055,-0.0487835 0.0991339,-0.0616575 0.147917,-0.028752 0.0487835,0.0329055 0.0616575,0.0991339 0.028752,0.147917l-0.818461 1.21528c-0.0329055,0.0487835 -0.0991339,0.0616575 -0.147917,0.028752 -0.0487835,-0.0329055 -0.0616575,-0.0991339 -0.028752,-0.147917l0.818461 -1.21528z"/>
  </g>
  <g id="_511117072">
   <path id="_511117048" class="fil0" d="M1.44069 3.33889c0,-0.0589094 0.0477598,-0.106669 0.106669,-0.106669 0.0589094,0 0.106669,0.0477598 0.106669,0.106669l0 2.52777c0,0.0589094 -0.0477598,0.106669 -0.106669,0.106669 -0.0589094,0 -0.106669,-0.0477598 -0.106669,-0.106669l0 -2.52777z"/>
   <path id="_511116616" class="fil0" d="M1.28 5.97332c-0.0589094,0 -0.106669,-0.0477598 -0.106669,-0.106669 0,-0.0589094 0.0477598,-0.106669 0.106669,-0.106669l0.534724 0c0.0589094,0 0.106669,0.0477598 0.106669,0.106669 0,0.0589094 -0.0477598,0.106669 -0.106669,0.106669l-0.534724 0z"/>
  </g>
  <g id="_511116712">
   <path id="_511116568" class="fil0" d="M5.17264 3.33889c0,-0.0589094 0.0477598,-0.106669 0.106669,-0.106669 0.0589094,0 0.106669,0.0477598 0.106669,0.106669l0 2.52777c0,0.0589094 -0.0477598,0.106669 -0.106669,0.106669 -0.0589094,0 -0.106669,-0.0477598 -0.106669,-0.106669l0 -2.52777z"/>
   <path id="_511116520" class="fil0" d="M5.01194 5.97332c-0.0589094,0 -0.106669,-0.0477598 -0.106669,-0.106669 0,-0.0589094 0.0477598,-0.106669 0.106669,-0.106669l0.534724 0c0.0589094,0 0.106669,0.0477598 0.106669,0.106669 0,0.0589094 -0.0477598,0.106669 -0.106669,0.106669l-0.534724 0z"/>
  </g>
  <g id="_511116280">
   <path id="_511116856" class="fil1" d="M1.86679 1.23291l-0.800122 1.18804 0 0.621457 1.23708 -1.83685 -0.423701 0c-0.00301181,0.00948031 -0.00741339,0.0186929 -0.0132559,0.0273543z"/>
   <path id="_511116808" class="fil1" d="M3.21771 1.23291l-1.34649 1.99931 0.418531 0 1.36491 -2.02666 -0.423697 0c-0.00301181,0.00948031 -0.00741339,0.0186929 -0.0132559,0.0273543z"/>
   <path id="_511115776" class="fil1" d="M4.56862 1.23291l-1.34648 1.99931 0.418531 0 1.36491 -2.02666 -0.423701 0c-0.00301181,0.00948031 -0.00741339,0.0186929 -0.0132559,0.0273543z"/>
   <polygon id="_511115800" class="fil1" points="5.76,1.4698 4.57306,3.23222 4.99158,3.23222 5.76,2.09125 "/>
  </g>
  <g id="_511116304">
   <polygon id="_511116232" class="fil2" points="1.06667,2.03946 1.62829,1.20556 1.06667,1.20556 "/>
   <path id="_511116256" class="fil2" d="M2.54225 1.23291l-1.34649 1.99931 0.351594 0 0.0669409 0 1.36491 -2.02666 -0.423701 0c-0.00301181,0.00948031 -0.00741339,0.0186929 -0.0132559,0.0273543z"/>
   <path id="_511116352" class="fil2" d="M3.89317 1.23291l-1.34648 1.99931 0.418531 0 1.36491 -2.02666 -0.423701 0c-0.00301181,0.00948031 -0.00741339,0.0186929 -0.0132559,0.0273543z"/>
   <path id="_511115896" class="fil2" d="M5.24408 1.23291l-1.34648 1.99931 0.418535 0 1.36491 -2.02666 -0.423705 0c-0.00301181,0.00948031 -0.00741339,0.0186929 -0.0132559,0.0273543z"/>
   <polygon id="_511115872" class="fil2" points="5.76,2.47274 5.24851,3.23222 5.27931,3.23222 5.76,3.23222 "/>
  </g>
 </g>
 <rect class="fil3" width="6.82666" height="6.82666"/>
</svg>
