<?xml version="1.0" encoding="UTF-8"?>
<!DOCTYPE svg PUBLIC "-//W3C//DTD SVG 1.1//EN" "http://www.w3.org/Graphics/SVG/1.1/DTD/svg11.dtd">
<!-- Creator: CorelDRAW -->
<svg xmlns="http://www.w3.org/2000/svg" xml:space="preserve" width="6.82666in" height="6.82666in" style="shape-rendering:geometricPrecision; text-rendering:geometricPrecision; image-rendering:optimizeQuality; fill-rule:evenodd; clip-rule:evenodd"
viewBox="0 0 6.82666 6.82666"
 xmlns:xlink="http://www.w3.org/1999/xlink">
 <defs>
  <style type="text/css">
   <![CDATA[
    .fil6 {fill:none}
    .fil0 {fill:#949494}
    .fil4 {fill:#EBE5DF}
    .fil5 {fill:#F19A7B}
    .fil2 {fill:#F45A52}
    .fil3 {fill:#FECA5F}
    .fil1 {fill:#212121;fill-rule:nonzero}
   ]]>
  </style>
 </defs>
 <g id="Layer_x0020_1">
  <metadata id="CorelCorpID_0Corel-Layer"/>
  <path class="fil0" d="M1.49333 1.91531l3.84 0 0.0274134 0 -1.94741 -0.85874 -1.94741 0.85874 0.0274094 0zm2.0678 -0.0768268l0 0zm-0.0360157 0.0090315l0 0zm-0.261409 -0.1855l0 0zm0.0639764 -0.144465l0 0zm0.0765709 -0.170126l0 0zm0.180512 0.246134c0.0232402,0.0689646 0.00943701,0.131465 -0.033252,0.180346 -0.00330315,0.0305827 -0.014685,0.0554134 -0.0263976,0.0736102 -0.00134252,0.00209449 -0.00300787,0.00403543 -0.00498425,0.00574409 -0.0270118,0.0234016 -0.0575748,0.0345709 -0.0895315,0.0343858 -0.0312362,-0.000185039 -0.0630394,-0.0113268 -0.0933307,-0.0325591 -0.00353543,-0.00212598 -0.00662992,-0.00511024 -0.00894094,-0.00887008 -0.014685,-0.0238819 -0.0212835,-0.0492559 -0.0216772,-0.0749134 -0.00156693,-0.00180709 -0.00311024,-0.00364961 -0.00463386,-0.00552362l5.11811e-005 -4.33071e-005c-0.0054685,-0.00648425 -0.0105787,-0.0136457 -0.0151575,-0.0215315 -0.0146772,-0.0252874 -0.021252,-0.0523189 -0.0232047,-0.082189l-0.000515748 -0.0102559 9.05512e-005 0c0,-0.056685 0.019874,-0.131299 0.0543976,-0.176437 0.000653543,0.0155709 0.00340945,0.0310512 0.0100039,0.0422283 0.0102047,0.0170236 0.0306102,0.0181772 0.0424606,0.00614567l0.0120748 -0.0208504c0.0171535,-0.0458346 0.000937008,-0.0874016 0.0220354,-0.155421 0.00946063,-0.0289567 0.0255197,-0.0582283 0.0470354,-0.0802205 0.000133858,0.0124449 0.0011063,0.0278071 0.00380315,0.0455039 0.0115315,0.0756339 0.0431732,0.138882 0.0892126,0.204209 0.0200276,0.0284173 0.0320709,0.0517441 0.0404606,0.0766417zm-0.374744 0.0470551l0 0zm0.224193 -0.429291l0 0zm0.00165748 -0.00120472l0 0zm0.0106181 -0.00533071l0 0z"/>
  <g id="_511119280">
   <path id="_511121920" class="fil1" d="M5.44 5.86196c0,0.0589094 -0.0477598,0.106669 -0.106669,0.106669 -0.0589094,0 -0.106669,-0.0477598 -0.106669,-0.106669l0 -3.83998c0,-0.0589094 0.0477598,-0.106669 0.106669,-0.106669l0.0274134 0 -1.94741 -0.85874 -1.94741 0.85874 0.0274094 0c0.0589094,0 0.106669,0.0477598 0.106669,0.106669l0 3.83998c0,0.0589094 -0.0477598,0.106669 -0.106669,0.106669 -0.0589094,0 -0.106669,-0.0477598 -0.106669,-0.106669l0 -3.73331 -0.426661 0 0 -0.000122047c-0.0409331,-2.3622e-005 -0.0799528,-0.0237638 -0.0975,-0.0636299 -0.0237008,-0.0538465 0.00073622,-0.116717 0.0545827,-0.140417l2.45333 -1.08183 3.93701e-006 3.93701e-006c0.0263898,-0.0116063 0.0573701,-0.0125315 0.0858307,-3.93701e-006l2.44799 1.07948c0.0403661,0.0152008 0.0690906,0.0541732 0.0690906,0.0998543 0,0.0589094 -0.0477598,0.106669 -0.106669,0.106669l-0.426665 0 0 3.73331z"/>
   <path id="_511121896" class="fil1" d="M1.49333 2.12865c-0.0589094,0 -0.106669,-0.0477598 -0.106669,-0.106669 0,-0.0589094 0.0477598,-0.106669 0.106669,-0.106669l3.84 0c0.0589094,0 0.106669,0.0477598 0.106669,0.106669 0,0.0589094 -0.0477598,0.106669 -0.106669,0.106669l-3.84 0z"/>
   <g>
    <path id="_511121776" class="fil1" d="M3.26143 1.80011c-0.00738583,-0.00876378 -0.0143189,-0.0184803 -0.0205669,-0.0292402 -0.00570079,-0.00982283 -0.0108701,-0.0206457 -0.0153071,-0.0325551 -0.0040748,-0.0109291 -0.0074685,-0.022626 -0.0100236,-0.0351142 -0.00229921,-0.0112362 -0.00394488,-0.0230709 -0.00481102,-0.0355 -0.000161417,-0.00115354 -0.000244094,-0.00232677 -0.000251969,-0.00352362l-0.000240157 -0.00511024 -1.9685e-005 -0.000728346 -9.05512e-005 -0.00235039 -1.5748e-005 -0.000913386 0 -0.000114173c-0.000137795,-0.0011063 -0.000212598,-0.00223622 -0.000212598,-0.00338583l0 -0.00816535c0,-0.000940945 4.72441e-005,-0.00188189 0.000145669,-0.00279921l-2.3622e-005 0 5.11811e-005 -0.00061811 5.90551e-005 -0.000610236c0.000216535,-0.00728346 0.000688976,-0.0147677 0.00148425,-0.0223898 0.00080315,-0.00777953 0.00201181,-0.0162795 0.00366535,-0.0255118 0.00162598,-0.0090748 0.0035,-0.0179567 0.00564173,-0.0265079 0.00223622,-0.00893701 0.0047874,-0.0179803 0.00767323,-0.0270748 0.000188976,-0.000598425 0.000397638,-0.00118504 0.000625984,-0.00175984 0.00415748,-0.0127638 0.00846063,-0.0241575 0.0128031,-0.0343031 0.00514961,-0.0120512 0.0104646,-0.0226417 0.0157244,-0.0319016 0.00725591,-0.0127756 0.0145118,-0.0231181 0.0212283,-0.0313976 0.00692126,-0.00852756 0.0133898,-0.0149685 0.0187992,-0.0197008 0.00447638,-0.00392126 0.0095,-0.00674409 0.0147598,-0.00856693l3.14961e-005 -1.1811e-005 -3.14961e-005 -9.05512e-005c0.00551969,-0.00189764 0.0112677,-0.0026063 0.016937,-0.00225984l0.000102362 7.87402e-006 0 -7.87402e-006c0.00290945,0.000181102 0.00579528,0.000661417 0.00859843,0.00140551l0.00104331 0.000287402c0.000543307,-0.0105512 0.00166142,-0.0213228 0.00336614,-0.0322638 0.00243701,-0.0156496 0.00604331,-0.0310118 0.0108465,-0.0458189l0.00026378 -0.00076378c0.00466929,-0.014252 0.0106024,-0.0284134 0.0178425,-0.0422756 0.00702756,-0.0134646 0.0151299,-0.026311 0.0243228,-0.0383346 0.00263386,-0.00344882 0.00551181,-0.00698425 0.00862598,-0.0105748 0.00297244,-0.00343307 0.00604724,-0.00677165 0.00920472,-0.00998425 0.00290945,-0.00296063 0.00617717,-0.00606299 0.0097874,-0.0092874 0.00351969,-0.00314961 0.00693307,-0.00601575 0.0102126,-0.00855906l0.000535433 -0.000401575 -1.1811e-005 -1.5748e-005 0.000511811 -0.000374016c0.00038189,-0.000279528 0.000775591,-0.000547244 0.00116535,-0.00080315l-1.9685e-005 -2.75591e-005 0.000377953 -0.000248031 4.33071e-005 -2.75591e-005 0.000102362 -6.69291e-005 2.3622e-005 -1.5748e-005 7.87402e-005 -5.11811e-005 3.14961e-005 -1.9685e-005 0.000212598 -0.000137795 0.000362205 -0.000224409 1.5748e-005 -7.87402e-006 0.000251969 -0.000149606 0.000165354 -0.000102362 5.90551e-005 -3.14961e-005c0.00101181,-0.000598425 0.00219291,-0.00122835 0.00352362,-0.00189764l0.000122047 -5.90551e-005 -1.9685e-005 -4.33071e-005c0.00176378,-0.000877953 0.00352756,-0.00161024 0.00527953,-0.00221654l-1.1811e-005 -3.14961e-005c0.00214173,-0.000732283 0.00466142,-0.00131102 0.00743307,-0.00174016 0.0024252,-0.000377953 0.00489764,-0.000555118 0.0073622,-0.000519685l0.000106299 0 0.000122047 3.93701e-006 0.00080315 1.1811e-005c0.000523622,7.87402e-006 0.00104331,3.14961e-005 0.00155906,6.69291e-005l3.93701e-006 -6.69291e-005c0.00535433,0.000385827 0.0106535,0.00182283 0.0156024,0.00412992 0.00487795,0.00228346 0.00933858,0.00541732 0.0130866,0.00925984 0.0039252,0.00402362 0.00715354,0.00892126 0.00936614,0.0145 0.00188976,0.00474409 0.00298031,0.00990157 0.00309449,0.0153425 6.29921e-005,0.000751969 9.84252e-005,0.00150787 9.84252e-005,0.00227165 0,0.0011378 -7.08661e-005,0.00225591 -0.000208661,0.00335827 -0.000712598,0.0112638 -0.000759843,0.0294961 0.00288189,0.0533898 0.00264961,0.0173622 0.00726772,0.0376024 0.0150118,0.0601142 0.00660236,0.0191929 0.0152835,0.0396732 0.0266417,0.0609213 0.0101693,0.0190157 0.0227008,0.0391142 0.0381024,0.0600827l0.000515748 0.000732283 3.93701e-006 -3.93701e-006 0.000437008 0.000641732 0.000259843 0.000385827c0.0223504,0.0314134 0.0370866,0.0613504 0.0464094,0.0890157 0.00953937,0.0282953 0.0133819,0.0542992 0.0139055,0.077185 0.000535433,0.0234449 -0.00243307,0.0435315 -0.00637795,0.0595315 -0.00403543,0.0163661 -0.00913386,0.028685 -0.0126378,0.0360709 -0.00163386,0.00346063 -0.00362992,0.00737795 -0.00593307,0.011689 -0.00223622,0.00417717 -0.00437402,0.00796063 -0.00640551,0.0113425 -0.00226772,0.00377165 -0.00459449,0.00741732 -0.00696063,0.0109331 -0.00277559,0.00412992 -0.00522835,0.00758661 -0.00735827,0.0104055 -0.00626772,0.00828346 -0.0129016,0.0161339 -0.0198504,0.0235276 -0.00674803,0.00718504 -0.014,0.0140315 -0.021689,0.0205118l-0.000744094 0.000602362 1.5748e-005 1.9685e-005 -7.87402e-006 3.93701e-006 2.75591e-005 3.14961e-005c-0.018878,0.0157835 -0.0390236,0.0277559 -0.0599016,0.035937 -0.0214528,0.00840945 -0.0437402,0.0127835 -0.0662795,0.0131457 -0.0224528,0.000358268 -0.0448858,-0.0032874 -0.0667283,-0.0108858 -0.0213819,-0.00744094 -0.042126,-0.0185945 -0.0616969,-0.0334016 -0.00783465,-0.00592913 -0.0156614,-0.0126181 -0.0234291,-0.0200709 -0.0071811,-0.00687795 -0.0144055,-0.0146142 -0.0216417,-0.0231929l-5.11811e-005 4.33071e-005zm0.0254724 -0.0559094c0.00457874,0.00788583 0.00968898,0.0150472 0.0151575,0.0215315l-5.11811e-005 4.33071e-005 5.11811e-005 6.29921e-005c0.00559055,0.00663386 0.0115866,0.0130039 0.017937,0.0190906 0.00594094,0.00570079 0.0121772,0.0110039 0.0186417,0.0158976 0.015248,0.0115354 0.0310866,0.0201142 0.0471142,0.0256929 0.0159803,0.00555906 0.032252,0.00823228 0.0483898,0.00797244 0.0159961,-0.000255906 0.0320472,-0.00345276 0.0477362,-0.00960236 0.0155394,-0.00609055 0.0307087,-0.0151457 0.0451142,-0.027189l3.54331e-005 4.33071e-005 0.000692913 -0.000562992 0.000708661 -0.000555118 3.93701e-006 3.93701e-006c0.00535039,-0.00456693 0.0108189,-0.00980709 0.016374,-0.0157205 0.0054252,-0.00577165 0.0108031,-0.0121614 0.0160945,-0.0191575 0.00226378,-0.00299213 0.0041811,-0.00564567 0.00569685,-0.00790157 0.00183465,-0.00272441 0.00367323,-0.0056063 0.00549606,-0.00864173 0.0019252,-0.00320866 0.00365748,-0.00624016 0.00516142,-0.00905118 0.00134646,-0.00252362 0.00290551,-0.00564173 0.0046811,-0.00939764 0.00249606,-0.00525984 0.00614173,-0.0140984 0.00909449,-0.0260709 0.00304331,-0.0123386 0.00533465,-0.0278031 0.00492126,-0.0457835 -0.000409449,-0.0179173 -0.00350394,-0.0385276 -0.0111969,-0.0613504 -0.00774409,-0.0229803 -0.0201969,-0.0481535 -0.0393071,-0.0750276 -0.000311024,-0.000405512 -0.000614173,-0.000818898 -0.000905512,-0.00124803l-0.000248031 -0.000366142c-0.0165394,-0.0225709 -0.0302992,-0.0447283 -0.0417244,-0.0660866 -0.0131378,-0.0245787 -0.0229409,-0.0475669 -0.030185,-0.0686299 -0.00888583,-0.0258307 -0.0142165,-0.0492638 -0.0173031,-0.0694921 -0.00269685,-0.0176969 -0.00366929,-0.0330591 -0.00380315,-0.0455039 -0.00230709,0.00235827 -0.00451181,0.00475591 -0.00659055,0.00716142 -0.00216929,0.00250394 -0.0043622,0.0052126 -0.00654724,0.00807087 -0.00754724,0.00987008 -0.0140512,0.0201299 -0.0195276,0.030626 -0.00567323,0.0108622 -0.0104567,0.0223858 -0.0143701,0.0343622l-1.9685e-005 -7.87402e-006 -0.000173228 0.000559055c-0.00405906,0.0125079 -0.00703937,0.0250709 -0.00897244,0.0374882 -0.00196457,0.0126102 -0.0029252,0.0257638 -0.0029252,0.0392205 0,0.00720079 -0.000232283,0.0149409 -0.000669291,0.0230512 -0.000444882,0.00816929 -0.00103937,0.0152913 -0.00177165,0.0212559 -0.000779528,0.00637008 -0.00179134,0.0124528 -0.00299606,0.0181142 -0.00122441,0.00572047 -0.00273228,0.011 -0.00450787,0.0157402 -0.00147638,0.00394882 -0.00301575,0.00738976 -0.0045748,0.0103071 -0.00230315,0.00431102 -0.00483071,0.00782677 -0.00749606,0.0105472l-3.93701e-006 -3.93701e-006c-0.00155118,0.0015748 -0.00332677,0.00298425 -0.00531102,0.00417323 -0.0125984,0.00753543 -0.0289252,0.00342913 -0.0364606,-0.00916929l-0.000688976 -0.00114961 3.14961e-005 -1.9685e-005 -0.00023622 -0.000397638c-0.00423622,-0.00737402 -0.00742913,-0.0175591 -0.00891339,-0.0302913 -0.000413386,-0.00354331 -0.000712598,-0.00738583 -0.000885827,-0.0115197 -0.00431496,0.00564173 -0.00893701,0.0125197 -0.0136772,0.0208661 -0.00427165,0.00751969 -0.00865748,0.0162874 -0.0130157,0.0264843 -0.00381102,0.00891732 -0.00754724,0.018748 -0.0110748,0.0295394 -0.000141732,0.00057874 -0.000299213,0.00115354 -0.000480315,0.00172835 -0.00271654,0.00856693 -0.00498425,0.0165433 -0.00683858,0.0239488 -0.00216929,0.00866929 -0.00382283,0.0162992 -0.00501969,0.0229724 -0.00129528,0.00724803 -0.00230315,0.0144567 -0.00303543,0.0215512 -0.00069685,0.00670079 -0.00111024,0.0128031 -0.00128346,0.0183268 5.11811e-005,0.00100787 4.72441e-005,0.0020315 -1.5748e-005,0.00306299l0 0.00627953c2.3622e-005,0.000496063 4.33071e-005,0.000996063 4.33071e-005,0.00149606l0 0.000181102 -9.05512e-005 0 4.72441e-005 0.00202362 1.5748e-005 0.000334646 8.66142e-005 0.00224016 2.3622e-005 0.00042126c5.11811e-005,0.00123228 0.000173228,0.00299606 0.00034252,0.00523622l-1.9685e-005 0 2.75591e-005 0.000417323c0.000677165,0.0108386 0.00201969,0.020878 0.00391339,0.0301496 0.002,0.00979134 0.00462205,0.0188465 0.00773228,0.0271929 0.00325197,0.00872441 0.00715748,0.0168583 0.0115512,0.0244291zm-0.0767992 -0.089126l0 -9.05512e-005 0 -2.3622e-005"/>
    <path id="_511121584" class="fil1" d="M3.37117 1.81385c0.0202874,0.0135 0.0405669,0.0205591 0.0596299,0.0206732 0.0179528,0.000102362 0.0354882,-0.0060748 0.0515472,-0.0189803 0.0080748,-0.0134213 0.0154724,-0.0312717 0.0167126,-0.0527008 0.0010315,-0.0177874 -0.00208661,-0.0382874 -0.0123386,-0.0612087 -0.0194724,-0.0435315 -0.0357126,-0.0782441 -0.0480984,-0.104051 -0.00949606,0.0212402 -0.0224331,0.0455945 -0.0394843,0.0689449 -0.0191732,0.0262598 -0.0336417,0.0558583 -0.037937,0.0851063 -0.00314173,0.0213819 -0.000625984,0.0426811 0.0099685,0.0622165zm0.0594252 0.0737992c-0.0312362,-0.000185039 -0.0630394,-0.0113268 -0.0933307,-0.0325591 -0.00353543,-0.00212598 -0.00662992,-0.00511024 -0.00894094,-0.00887008 -0.0198976,-0.0323583 -0.0249488,-0.0674606 -0.0198307,-0.102295 0.0056063,-0.0381929 0.0237795,-0.0758543 0.0477244,-0.10865 0.0383386,-0.0525 0.0525709,-0.111894 0.0526142,-0.112063l0.000102362 2.75591e-005c0.00181496,-0.0071378 0.0065748,-0.0134961 0.0136496,-0.0171102 0.0130591,-0.00666929 0.0290591,-0.00149606 0.0357283,0.011563 7.87402e-005,0.00015748 0.0294016,0.0559646 0.0769528,0.162272 0.0141339,0.0315945 0.0183976,0.0604173 0.0169213,0.0857913 -0.00199213,0.0343425 -0.0143386,0.0619764 -0.0270591,0.0817756l-1.5748e-005 -1.1811e-005c-0.00134252,0.00209449 -0.00300787,0.00403543 -0.00498425,0.00574409 -0.0270118,0.0234016 -0.0575748,0.0345709 -0.0895315,0.0343858z"/>
   </g>
   <g>
    <g>
     <g>
      <g>
       <path id="_511121368" class="fil1" d="M2.02942 3.74747c-0.0294528,0 -0.0533346,-0.0238819 -0.0533346,-0.0533346 0,-0.0294528 0.0238819,-0.0533346 0.0533346,-0.0533346l0.143697 0c0.0294528,0 0.0533346,0.0238819 0.0533346,0.0533346 0,0.0294528 -0.0238819,0.0533346 -0.0533346,0.0533346l-0.143697 0z"/>
       <path id="_511121296" class="fil1" d="M1.80667 3.47003c0,-0.0589094 0.0477598,-0.106669 0.106669,-0.106669 0.0589094,0 0.106669,0.0477598 0.106669,0.106669l0 0.509126c0,0.0589094 -0.0477598,0.106669 -0.106669,0.106669 -0.0589094,0 -0.106669,-0.0477598 -0.106669,-0.106669l0 -0.509126z"/>
      </g>
      <g>
       <path id="_511121056" class="fil1" d="M4.79724 3.6408c0.0294528,0 0.0533346,0.0238819 0.0533346,0.0533346 0,0.0294528 -0.0238819,0.0533346 -0.0533346,0.0533346l-0.143697 0c-0.0294528,0 -0.0533346,-0.0238819 -0.0533346,-0.0533346 0,-0.0294528 0.0238819,-0.0533346 0.0533346,-0.0533346l0.143697 0z"/>
       <path id="_511121704" class="fil1" d="M4.80665 3.47003c0,-0.0589094 0.0477598,-0.106669 0.106669,-0.106669 0.0589094,0 0.106669,0.0477598 0.106669,0.106669l0 0.509126c0,0.0589094 -0.0477598,0.106669 -0.106669,0.106669 -0.0589094,0 -0.106669,-0.0477598 -0.106669,-0.106669l0 -0.509126z"/>
      </g>
     </g>
     <path id="_511121512" class="fil1" d="M2.3742 2.82741l2.07826 0c0.0702638,0 0.134071,0.0286732 0.180256,0.0748583 0.046185,0.046185 0.0748583,0.109992 0.0748583,0.180256l0 2.0367c0,0.0589094 -0.0477598,0.106669 -0.106669,0.106669l-2.37515 0c-0.0589094,0 -0.106669,-0.0477598 -0.106669,-0.106669l0 -2.0367c0,-0.0702677 0.0286693,-0.134075 0.0748543,-0.18026 0.046185,-0.046185 0.109992,-0.0748543 0.18026,-0.0748543zm2.07826 0.213339l-2.07826 0c-0.0113819,0 -0.0218071,0.00473228 -0.0294252,0.0123504 -0.00761811,0.00761811 -0.0123504,0.0180433 -0.0123504,0.0294252l0 1.93003 2.16181 0 0 -1.93003c0,-0.011378 -0.00473228,-0.0217992 -0.0123543,-0.0294213 -0.00762205,-0.00762205 -0.0180433,-0.0123543 -0.0294213,-0.0123543z"/>
     <path id="_511121224" class="fil1" d="M2.17462 5.29758l2.47741 0c0.00974409,0 0.018685,-0.00406693 0.0252283,-0.0106102 0.00654331,-0.00654331 0.0106102,-0.0154843 0.0106102,-0.0252283l0 -3.93701e-006c0,-0.00974409 -0.00406693,-0.018685 -0.0106102,-0.0252283 -0.00654331,-0.00654331 -0.0154843,-0.0106102 -0.0252283,-0.0106102l-2.47741 0c-0.00974409,0 -0.018685,0.00406693 -0.0252283,0.0106102 -0.00654331,0.00654331 -0.0106102,0.0154843 -0.0106102,0.0252283l0 3.93701e-006c0,0.00974409 0.00406693,0.018685 0.0106102,0.0252283 0.00654331,0.00654331 0.0154843,0.0106102 0.0252283,0.0106102zm2.47741 0.213339l-2.47741 0c-0.0686378,0 -0.130957,-0.0280039 -0.176063,-0.0731142 -0.0451102,-0.0451063 -0.0731142,-0.107425 -0.0731142,-0.176063l0 -3.93701e-006c0,-0.0686299 0.0280039,-0.130957 0.0731142,-0.176063 0.0451063,-0.0451102 0.107425,-0.0731142 0.176063,-0.0731142l2.47741 0c0.0686378,0 0.130957,0.0280039 0.176063,0.0731142 0.0451102,0.0451063 0.0731142,0.107433 0.0731142,0.176063l0 3.93701e-006c0,0.0686378 -0.0280039,0.130957 -0.0731142,0.176063 -0.0451063,0.0451102 -0.107425,0.0731142 -0.176063,0.0731142z"/>
     <g>
      <path id="_511120984" class="fil1" d="M2.46426 5.77985l0 -0.268937 -0.131835 0 0 0.268937 0.131835 0zm0.213339 -0.375606l0 0.433244c0,0.046878 -0.0215315,0.0880748 -0.0561929,0.116713l-0.000173228 -0.000208661 -0.000244094 0.000208661c-0.0291339,0.0240512 -0.0679646,0.0389882 -0.109441,0.0389882l-0.226409 0c-0.0370236,0 -0.0719213,-0.0119016 -0.0997087,-0.0315551 -0.00348031,-0.00225197 -0.00687402,-0.00472441 -0.0101457,-0.00743307 -0.0346693,-0.0286339 -0.0561969,-0.0698346 -0.0561969,-0.116713l0 -0.433244c0,-0.0589094 0.0477598,-0.106669 0.106669,-0.106669l0.345173 0c0.0589094,0 0.106669,0.0477598 0.106669,0.106669z"/>
      <path id="_511120840" class="fil1" d="M4.49424 5.77985l0 -0.268937 -0.131835 0 0 0.268937 0.131835 0zm0.213339 -0.375606l0 0.433244c0,0.046878 -0.0215315,0.0880748 -0.0561929,0.116713l-0.000173228 -0.000208661 -0.000244094 0.000208661c-0.0291339,0.0240512 -0.0679606,0.0389882 -0.109441,0.0389882l-0.226409 0c-0.0370197,0 -0.0719213,-0.0119016 -0.0997087,-0.0315551 -0.00348031,-0.00225197 -0.00687402,-0.00472441 -0.0101457,-0.00743307 -0.0346693,-0.0286339 -0.0561969,-0.0698346 -0.0561969,-0.116713l0 -0.433244c0,-0.0589094 0.0477598,-0.106669 0.106669,-0.106669l0.345173 0c0.0589094,0 0.106669,0.0477598 0.106669,0.106669z"/>
     </g>
     <path id="_511120360" class="fil1" d="M2.22575 4.08583c-0.0589094,0 -0.106669,-0.0477598 -0.106669,-0.106669 0,-0.0589094 0.0477598,-0.106669 0.106669,-0.106669l2.37515 0c0.0589094,0 0.106669,0.0477598 0.106669,0.106669 0,0.0589094 -0.0477598,0.106669 -0.106669,0.106669l-2.37515 0z"/>
     <path id="_511120792" class="fil1" d="M3.30666 2.93408c0,-0.0589094 0.0477598,-0.106669 0.106669,-0.106669 0.0589094,0 0.106669,0.0477598 0.106669,0.106669l0 0.980657c0,0.0589094 -0.0477598,0.106669 -0.106669,0.106669 -0.0589094,0 -0.106669,-0.0477598 -0.106669,-0.106669l0 -0.980657z"/>
     <g>
      <path id="_511120336" class="fil1" d="M3.13248 4.3221c0,-0.0294528 0.0238819,-0.0533346 0.0533346,-0.0533346 0.0294528,0 0.0533346,0.0238819 0.0533346,0.0533346l0 0.51211c0,0.0294528 -0.0238819,0.0533346 -0.0533346,0.0533346 -0.0294528,0 -0.0533346,-0.0238819 -0.0533346,-0.0533346l0 -0.51211z"/>
      <path id="_511120504" class="fil1" d="M3.28416 4.3221c0,-0.0294528 0.0238819,-0.0533346 0.0533346,-0.0533346 0.0294528,0 0.0533346,0.0238819 0.0533346,0.0533346l0 0.51211c0,0.0294528 -0.0238819,0.0533346 -0.0533346,0.0533346 -0.0294528,0 -0.0533346,-0.0238819 -0.0533346,-0.0533346l0 -0.51211z"/>
      <path id="_511120288" class="fil1" d="M3.43583 4.3221c0,-0.0294528 0.0238819,-0.0533346 0.0533346,-0.0533346 0.0294528,0 0.0533346,0.0238819 0.0533346,0.0533346l0 0.51211c0,0.0294528 -0.0238819,0.0533346 -0.0533346,0.0533346 -0.0294528,0 -0.0533346,-0.0238819 -0.0533346,-0.0533346l0 -0.51211z"/>
      <path id="_511120888" class="fil1" d="M3.5875 4.3221c0,-0.0294528 0.0238819,-0.0533346 0.0533346,-0.0533346 0.0294528,0 0.0533346,0.0238819 0.0533346,0.0533346l0 0.51211c0,0.0294528 -0.0238819,0.0533346 -0.0533346,0.0533346 -0.0294528,0 -0.0533346,-0.0238819 -0.0533346,-0.0533346l0 -0.51211z"/>
     </g>
     <path id="_511119712" class="fil1" d="M2.585 4.58016c0.0475079,0 0.0905394,0.0192717 0.121685,0.0504094 0.0311378,0.0311457 0.0504094,0.0741772 0.0504094,0.121685 0,0.0475118 -0.0192717,0.0905354 -0.0504094,0.121681 -0.0311457,0.0311457 -0.0741772,0.0504094 -0.121685,0.0504094 -0.0475118,0 -0.0905354,-0.0192638 -0.121681,-0.0504094 -0.0311457,-0.0311457 -0.0504094,-0.0741693 -0.0504094,-0.121681 0,-0.0475157 0.0192638,-0.0905394 0.0504094,-0.121685 0.0311457,-0.0311457 0.0741693,-0.0504094 0.121681,-0.0504094zm0.0462677 0.125827c-0.0118346,-0.0118307 -0.0281969,-0.0191575 -0.0462677,-0.0191575 -0.0180669,0 -0.0344291,0.00732283 -0.0462638,0.0191575 -0.0118346,0.0118346 -0.0191575,0.0281969 -0.0191575,0.0462677 0,0.0180669 0.00732283,0.0344291 0.0191575,0.0462638 0.0118346,0.0118346 0.0281969,0.0191575 0.0462638,0.0191575 0.0180709,0 0.0344331,-0.00732283 0.0462677,-0.0191575 0.0118307,-0.0118346 0.0191575,-0.0281969 0.0191575,-0.0462638 0,-0.0180709 -0.00732677,-0.0344331 -0.0191575,-0.0462677z"/>
     <path id="_511119592" class="fil1" d="M2.5482 4.24943c0.0373504,0 0.0711732,0.0151457 0.0956575,0.0396299 0.0244843,0.0244843 0.0396299,0.0583071 0.0396299,0.0956575 0,0.0373465 -0.0151457,0.0711772 -0.0396299,0.0956614 -0.0244843,0.0244843 -0.0583071,0.0396299 -0.0956575,0.0396299 -0.0372087,0 -0.0709646,-0.0151496 -0.0954528,-0.0396299l-0.000102362 -0.000106299 -0.000106299 0.000106299c-0.0244843,-0.0244843 -0.0396299,-0.058315 -0.0396299,-0.0956614 0,-0.0373504 0.0151457,-0.0711732 0.0396299,-0.0956575 0.00118504,-0.00118504 0.00241339,-0.00229528 0.00367717,-0.00334646 0.0241575,-0.0225079 0.0565,-0.0362835 0.0919843,-0.0362835zm0.0202402 0.115047c-0.00517323,-0.00517323 -0.0123346,-0.00837795 -0.0202402,-0.00837795 -0.00718504,0 -0.0137205,0.00255512 -0.0187205,0.0067874 -0.000496063,0.00053937 -0.001,0.00106693 -0.00152362,0.00159055 -0.00517323,0.00517323 -0.00837795,0.0123346 -0.00837795,0.0202402 0,0.00790945 0.00320472,0.0150709 0.00837795,0.0202441l-0.000102362 0.000102362c0.00516535,0.00511417 0.0123543,0.00827559 0.0203465,0.00827559 0.00790551,0 0.0150669,-0.00320472 0.0202402,-0.00837795 0.00517323,-0.00517323 0.00837795,-0.0123346 0.00837795,-0.0202441 0,-0.00790551 -0.00320472,-0.0150669 -0.00837795,-0.0202402z"/>
     <path id="_511119736" class="fil1" d="M4.24319 4.58016c0.0475157,0 0.0905394,0.0192717 0.121685,0.0504094 0.0311457,0.0311457 0.0504094,0.0741772 0.0504094,0.121685 0,0.0475118 -0.0192717,0.0905354 -0.0504094,0.121681 -0.0311457,0.0311457 -0.0741772,0.0504094 -0.121685,0.0504094 -0.0475118,0 -0.0905354,-0.0192638 -0.121681,-0.0504094 -0.0311378,-0.0311457 -0.0504094,-0.0741693 -0.0504094,-0.121681 0,-0.0475079 0.0192638,-0.0905394 0.0504094,-0.121685 0.0311457,-0.0311378 0.0741732,-0.0504094 0.121681,-0.0504094zm0.0462677 0.125827c-0.0118346,-0.0118307 -0.0281969,-0.0191575 -0.0462677,-0.0191575 -0.0180709,0 -0.0344291,0.00732677 -0.0462638,0.0191575 -0.0118346,0.0118346 -0.0191575,0.0281969 -0.0191575,0.0462677 0,0.0180669 0.00732677,0.0344291 0.0191575,0.0462638 0.0118346,0.0118346 0.0281969,0.0191575 0.0462638,0.0191575 0.0180709,0 0.0344331,-0.00732283 0.0462677,-0.0191575 0.0118307,-0.0118346 0.0191575,-0.0281969 0.0191575,-0.0462638 0,-0.0180709 -0.00732283,-0.0344331 -0.0191575,-0.0462677z"/>
     <path id="_511119520" class="fil1" d="M4.28 4.24943c0.0373504,0 0.0711732,0.0151457 0.0956575,0.0396299 0.0244843,0.0244843 0.0396299,0.0583071 0.0396299,0.0956575 0,0.0373465 -0.0151457,0.0711772 -0.0396299,0.0956614 -0.0244843,0.0244843 -0.0583071,0.0396299 -0.0956575,0.0396299 -0.0373504,0 -0.0711732,-0.0151457 -0.0956575,-0.0396299 -0.0244843,-0.0244843 -0.0396299,-0.058315 -0.0396299,-0.0956614 0,-0.0373504 0.0151457,-0.0711732 0.0396299,-0.0956575 0.0244843,-0.0244843 0.0583071,-0.0396299 0.0956575,-0.0396299zm0.0202402 0.115047c-0.00517323,-0.00517323 -0.0123346,-0.00837795 -0.0202402,-0.00837795 -0.00790551,0 -0.0150669,0.00320472 -0.0202402,0.00837795 -0.00517323,0.00517323 -0.00837795,0.0123346 -0.00837795,0.0202402 0,0.00790945 0.00320472,0.0150709 0.00837795,0.0202441 0.00517323,0.00517323 0.0123346,0.00837795 0.0202402,0.00837795 0.00790551,0 0.0150669,-0.00320472 0.0202402,-0.00837795 0.00517323,-0.00517323 0.00837795,-0.0123346 0.00837795,-0.0202441 0,-0.00790551 -0.00320472,-0.0150669 -0.00837795,-0.0202402z"/>
    </g>
    <g>
     <path id="_511119760" class="fil1" d="M3.02886 2.74407c0,-0.0589094 0.0477598,-0.106669 0.106669,-0.106669 0.0589094,0 0.106669,0.0477598 0.106669,0.106669l0 0.0950039c0,0.0589094 -0.0477598,0.106669 -0.106669,0.106669 -0.0589094,0 -0.106669,-0.0477598 -0.106669,-0.106669l0 -0.0950039z"/>
     <path id="_511120192" class="fil1" d="M3.30666 2.74407c0,-0.0589094 0.0477598,-0.106669 0.106669,-0.106669 0.0589094,0 0.106669,0.0477598 0.106669,0.106669l0 0.0950039c0,0.0589094 -0.0477598,0.106669 -0.106669,0.106669 -0.0589094,0 -0.106669,-0.0477598 -0.106669,-0.106669l0 -0.0950039z"/>
     <path id="_511120144" class="fil1" d="M3.58446 2.74407c0,-0.0589094 0.0477598,-0.106669 0.106669,-0.106669 0.0589094,0 0.106669,0.0477598 0.106669,0.106669l0 0.0950039c0,0.0589094 -0.0477598,0.106669 -0.106669,0.106669 -0.0589094,0 -0.106669,-0.0477598 -0.106669,-0.106669l0 -0.0950039z"/>
    </g>
   </g>
  </g>
  <path class="fil2" d="M3.40423 1.34742l0 0zm-0.0765197 0.170114l0 0zm-0.0640276 0.144484l0 0zm0.19463 -0.144327c7.87402e-005,0.00015748 0.0294016,0.0559646 0.0769528,0.162272 0.0141339,0.0315945 0.0183976,0.0604173 0.0169213,0.0857913 -0.000161417,0.00275984 -0.000385827,0.00548031 -0.000677165,0.00815354 0.042689,-0.0488819 0.0564921,-0.111382 0.033252,-0.180346 -0.00838976,-0.0248976 -0.0204331,-0.0482244 -0.0404606,-0.0766417 -0.0460394,-0.0653268 -0.0776811,-0.128575 -0.0892126,-0.204209 -0.00269685,-0.0176969 -0.00366929,-0.0330591 -0.00380315,-0.0455039 -0.0215157,0.0219921 -0.0375748,0.0512638 -0.0470551,0.0802126 -0.0210787,0.0680276 -0.0048622,0.109594 -0.0220157,0.155429l-0.0120748 0.0208504c-0.0118504,0.0120315 -0.0322559,0.010878 -0.0424291,-0.00616535 -0.00662598,-0.0111575 -0.00938189,-0.0266378 -0.0100354,-0.0422087 -0.0345236,0.0451378 -0.0543976,0.119752 -0.0543976,0.176437l-9.05512e-005 0 0.000496063 0.0102559c0.00197244,0.0298701 0.00854724,0.0569016 0.0232244,0.082189 0.00457874,0.00788583 0.00968898,0.0150472 0.0151575,0.0215315l-5.11811e-005 4.33071e-005 0.00463386 0.00552362c-0.000137795,-0.00911024 0.000503937,-0.0182559 0.00184646,-0.0273819 0.0056063,-0.0381929 0.0237795,-0.0758543 0.0477244,-0.10865 0.0383386,-0.0525 0.0525709,-0.111894 0.0526142,-0.112063l0.000102362 2.75591e-005c0.00181496,-0.0071378 0.0065748,-0.0134961 0.0136496,-0.0171102 0.0130591,-0.00666929 0.0290591,-0.00149606 0.0357283,0.011563z"/>
  <path class="fil3" d="M3.48672 1.70163c-0.0194724,-0.0435315 -0.0357126,-0.0782441 -0.0480984,-0.104051 -0.00949606,0.0212402 -0.0224331,0.0455945 -0.0394843,0.0689449 -0.0191732,0.0262598 -0.0336417,0.0558583 -0.037937,0.0851063 -0.00314173,0.0213819 -0.000625984,0.0426811 0.0099685,0.0622165 0.0165984,0.0110472 0.0331929,0.0177795 0.0491181,0.0199252 0.00644882,0.000551181 0.012937,0.000645669 0.0194331,0.000275591 0.0148268,-0.00166535 0.0292402,-0.00774803 0.042626,-0.0185079 0.0080748,-0.0134213 0.0154724,-0.0312717 0.0167126,-0.0527008 0.0010315,-0.0177874 -0.00208661,-0.0382874 -0.0123386,-0.0612087z"/>
  <path class="fil4" d="M3.30666 3.04075l-0.932465 0c-0.0113819,0 -0.0218071,0.00473228 -0.0294252,0.0123504 -0.00761811,0.00761811 -0.0123504,0.0180433 -0.0123504,0.0294252l0 0.789961 0.97424 0 0 -0.831736z"/>
  <path class="fil4" d="M3.52 3.04075l0 0.831736 0.974236 0 0 -0.789961c0,-0.011378 -0.00473228,-0.0217992 -0.0123543,-0.0294213 -0.00762205,-0.00762205 -0.0180433,-0.0123543 -0.0294213,-0.0123543l-0.932461 0z"/>
  <path class="fil2" d="M4.49424 4.08583l-2.16181 0 0 0.926732 2.16181 0 0 -0.926732zm-0.853402 0.182937c0.0294528,0 0.0533346,0.0238819 0.0533346,0.0533346l0 0.51211c0,0.0294528 -0.0238819,0.0533346 -0.0533346,0.0533346 -0.0294528,0 -0.0533346,-0.0238819 -0.0533346,-0.0533346l0 -0.51211c0,-0.0294528 0.0238819,-0.0533346 0.0533346,-0.0533346zm-0.151669 0c0.0294528,0 0.0533346,0.0238819 0.0533346,0.0533346l0 0.51211c0,0.0294528 -0.0238819,0.0533346 -0.0533346,0.0533346 -0.0294528,0 -0.0533346,-0.0238819 -0.0533346,-0.0533346l0 -0.51211c0,-0.0294528 0.0238819,-0.0533346 0.0533346,-0.0533346zm0.695177 0.0202913c0.0244843,-0.0244843 0.0583071,-0.0396299 0.0956575,-0.0396299 0.0373504,0 0.0711732,0.0151457 0.0956575,0.0396299 0.0244843,0.0244843 0.0396299,0.0583071 0.0396299,0.0956575 0,0.0373465 -0.0151457,0.0711772 -0.0396299,0.0956614 -0.0244843,0.0244843 -0.0583071,0.0396299 -0.0956575,0.0396299 -0.0373504,0 -0.0711732,-0.0151457 -0.0956575,-0.0396299 -0.0244843,-0.0244843 -0.0396299,-0.058315 -0.0396299,-0.0956614 0,-0.0373504 0.0151457,-0.0711732 0.0396299,-0.0956575zm0.0588504 0.291106c0.0475157,0 0.0905394,0.0192717 0.121685,0.0504094 0.0311457,0.0311457 0.0504094,0.0741772 0.0504094,0.121685 0,0.0475118 -0.0192717,0.0905354 -0.0504094,0.121681 -0.0311457,0.0311457 -0.0741772,0.0504094 -0.121685,0.0504094 -0.0475118,0 -0.0905354,-0.0192638 -0.121681,-0.0504094 -0.0311378,-0.0311457 -0.0504094,-0.0741693 -0.0504094,-0.121681 0,-0.0475079 0.0192638,-0.0905394 0.0504094,-0.121685 0.0311457,-0.0311378 0.0741732,-0.0504094 0.121681,-0.0504094zm-0.905701 -0.311398c0.0294528,0 0.0533346,0.0238819 0.0533346,0.0533346l0 0.51211c0,0.0294528 -0.0238819,0.0533346 -0.0533346,0.0533346 -0.0294528,0 -0.0533346,-0.0238819 -0.0533346,-0.0533346l0 -0.51211c0,-0.0294528 0.0238819,-0.0533346 0.0533346,-0.0533346zm-0.151673 0c0.0294528,0 0.0533346,0.0238819 0.0533346,0.0533346l0 0.51211c0,0.0294528 -0.0238819,0.0533346 -0.0533346,0.0533346 -0.0294528,0 -0.0533346,-0.0238819 -0.0533346,-0.0533346l0 -0.51211c0,-0.0294528 0.0238819,-0.0533346 0.0533346,-0.0533346zm-0.637622 -0.0193386c0.0373504,0 0.0711732,0.0151457 0.0956575,0.0396299 0.0244843,0.0244843 0.0396299,0.0583071 0.0396299,0.0956575 0,0.0373465 -0.0151457,0.0711772 -0.0396299,0.0956614 -0.0244843,0.0244843 -0.0583071,0.0396299 -0.0956575,0.0396299 -0.0372087,0 -0.0709646,-0.0151496 -0.0954528,-0.0396299l-0.000102362 -0.000106299 -0.000106299 0.000106299c-0.0244843,-0.0244843 -0.0396299,-0.058315 -0.0396299,-0.0956614 0,-0.0373504 0.0151457,-0.0711732 0.0396299,-0.0956575 0.00118504,-0.00118504 0.00241339,-0.00229528 0.00367717,-0.00334646 0.0241575,-0.0225079 0.0565,-0.0362835 0.0919843,-0.0362835zm0.0368031 0.330736c0.0475079,0 0.0905394,0.0192717 0.121685,0.0504094 0.0311378,0.0311457 0.0504094,0.0741772 0.0504094,0.121685 0,0.0475118 -0.0192717,0.0905354 -0.0504094,0.121681 -0.0311457,0.0311457 -0.0741772,0.0504094 -0.121685,0.0504094 -0.0475118,0 -0.0905354,-0.0192638 -0.121681,-0.0504094 -0.0311457,-0.0311457 -0.0504094,-0.0741693 -0.0504094,-0.121681 0,-0.0475157 0.0192638,-0.0905394 0.0504094,-0.121685 0.0311457,-0.0311457 0.0741693,-0.0504094 0.121681,-0.0504094z"/>
  <polygon class="fil0" points="4.3624,5.51092 4.3624,5.77985 4.49424,5.77985 4.49424,5.51092 "/>
  <polygon class="fil0" points="2.46426,5.77985 2.46426,5.51092 2.33242,5.51092 2.33242,5.77985 "/>
  <path class="fil2" d="M2.57093 5.29758l1.68481 0 0.345173 0 0.0511299 0c0.00974409,0 0.018685,-0.00406693 0.0252283,-0.0106102 0.00654331,-0.00654331 0.0106102,-0.0154843 0.0106102,-0.0252323 0,-0.00974409 -0.00406693,-0.018685 -0.0106102,-0.0252283 -0.00654331,-0.00654331 -0.0154843,-0.0106102 -0.0252283,-0.0106102l-0.0511299 0 -2.37515 0 -0.0511299 0c-0.00974409,0 -0.018685,0.00406693 -0.0252283,0.0106102 -0.00654331,0.00654331 -0.0106102,0.0154843 -0.0106102,0.0252323 0,0.00974409 0.00406693,0.018685 0.0106102,0.0252283 0.00654331,0.00654331 0.0154843,0.0106102 0.0252283,0.0106102l0.0511299 0 0.345173 0z"/>
  <path class="fil5" d="M2.5482 4.41333c0.00790551,0 0.0150669,-0.00320472 0.0202402,-0.00837795 0.00517323,-0.00517323 0.00837795,-0.0123346 0.00837795,-0.0202441 0,-0.00790551 -0.00320472,-0.0150669 -0.00837795,-0.0202402 -0.00517323,-0.00517323 -0.0123346,-0.00837795 -0.0202402,-0.00837795 -0.00718504,0 -0.0137205,0.00255512 -0.0187205,0.0067874l-0.00152362 0.00159055c-0.00517323,0.00517323 -0.00837795,0.0123346 -0.00837795,0.0202402 0,0.00790945 0.00320472,0.0150709 0.00837795,0.0202441l-0.000102362 0.000102362c0.00516535,0.00511417 0.0123543,0.00827559 0.0203465,0.00827559z"/>
  <path class="fil5" d="M2.585 4.68683c-0.0180669,0 -0.0344291,0.00732283 -0.0462638,0.0191575 -0.0118346,0.0118346 -0.0191575,0.0281969 -0.0191575,0.0462677 0,0.0180669 0.00732283,0.0344291 0.0191575,0.0462638 0.0118346,0.0118346 0.0281969,0.0191575 0.0462638,0.0191575 0.0180709,0 0.0344331,-0.00732283 0.0462677,-0.0191575 0.0118307,-0.0118346 0.0191575,-0.0281969 0.0191575,-0.0462638 0,-0.0180709 -0.00732677,-0.0344331 -0.0191575,-0.0462677 -0.0118346,-0.0118307 -0.0281969,-0.0191575 -0.0462677,-0.0191575z"/>
  <path class="fil5" d="M4.17777 4.75226c0,0.0180669 0.00732677,0.0344291 0.0191575,0.0462638 0.0118346,0.0118346 0.0281969,0.0191575 0.0462638,0.0191575 0.0180709,0 0.0344331,-0.00732283 0.0462677,-0.0191575 0.0118307,-0.0118346 0.0191575,-0.0281969 0.0191575,-0.0462638 0,-0.0180709 -0.00732283,-0.0344331 -0.0191575,-0.0462677 -0.0118346,-0.0118307 -0.0281969,-0.0191575 -0.0462677,-0.0191575 -0.0180709,0 -0.0344291,0.00732677 -0.0462638,0.0191575 -0.0118346,0.0118346 -0.0191575,0.0281969 -0.0191575,0.0462677z"/>
  <path class="fil5" d="M4.28 4.41333c0.00790551,0 0.0150669,-0.00320472 0.0202402,-0.00837795 0.00517323,-0.00517323 0.00837795,-0.0123346 0.00837795,-0.0202441 0,-0.00790551 -0.00320472,-0.0150669 -0.00837795,-0.0202402 -0.00517323,-0.00517323 -0.0123346,-0.00837795 -0.0202402,-0.00837795 -0.00790551,0 -0.0150669,0.00320472 -0.0202402,0.00837795 -0.00517323,0.00517323 -0.00837795,0.0123346 -0.00837795,0.0202402 0,0.00790945 0.00320472,0.0150709 0.00837795,0.0202441 0.00517323,0.00517323 0.0123346,0.00837795 0.0202402,0.00837795z"/>
 </g>
 <rect class="fil6" width="6.82666" height="6.82666"/>
</svg>
