<?xml version="1.0" encoding="UTF-8"?>
<!DOCTYPE svg PUBLIC "-//W3C//DTD SVG 1.1//EN" "http://www.w3.org/Graphics/SVG/1.1/DTD/svg11.dtd">
<!-- Creator: CorelDRAW -->
<svg xmlns="http://www.w3.org/2000/svg" xml:space="preserve" width="6.82666in" height="6.82666in" style="shape-rendering:geometricPrecision; text-rendering:geometricPrecision; image-rendering:optimizeQuality; fill-rule:evenodd; clip-rule:evenodd"
viewBox="0 0 6.82666 6.82666"
 xmlns:xlink="http://www.w3.org/1999/xlink">
 <defs>
  <style type="text/css">
   <![CDATA[
    .fil3 {fill:none}
    .fil2 {fill:#AED581}
    .fil1 {fill:#F45A52}
    .fil0 {fill:#212121;fill-rule:nonzero}
   ]]>
  </style>
 </defs>
 <g id="Layer_x0020_1">
  <metadata id="CorelCorpID_0Corel-Layer"/>
  <path class="fil0" d="M1.12 1.94426l4.58667 0c0.102776,0 0.196138,0.0419724 0.263752,0.109583 0.0676102,0.0676142 0.109583,0.160976 0.109583,0.263752l0 2.63333c0,0.102776 -0.0419724,0.196138 -0.109583,0.263752 -0.0676142,0.0676102 -0.160976,0.109583 -0.263752,0.109583l-4.58667 0c-0.102776,0 -0.196138,-0.0419724 -0.263752,-0.109583 -0.0676102,-0.0676142 -0.109583,-0.160976 -0.109583,-0.263752l0 -2.63333c0,-0.102776 0.0419724,-0.196138 0.109583,-0.263752 0.0676142,-0.0676102 0.160976,-0.109583 0.263752,-0.109583zm4.58667 0.213339l-4.58667 0c-0.0438898,0 -0.0838701,0.0180354 -0.112917,0.0470787 -0.0290433,0.0290472 -0.0470787,0.0690276 -0.0470787,0.112917l0 2.63333c0,0.0438898 0.0180354,0.0838701 0.0470787,0.112917 0.0290472,0.0290433 0.0690276,0.0470787 0.112917,0.0470787l4.58667 0c0.0438898,0 0.0838701,-0.0180354 0.112917,-0.0470787 0.0290433,-0.0290472 0.0470787,-0.0690276 0.0470787,-0.112917l0 -2.63333c0,-0.0438898 -0.0180354,-0.0838701 -0.0470787,-0.112917 -0.0290472,-0.0290433 -0.0690276,-0.0470787 -0.112917,-0.0470787z"/>
  <path class="fil0" d="M2.66666 2.05093c0,0.0589094 -0.0477598,0.106669 -0.106669,0.106669 -0.0589094,0 -0.106669,-0.0477598 -0.106669,-0.106669l0 -0.449402c0,-0.0689685 0.0281417,-0.131587 0.0734685,-0.176913 0.0453228,-0.0453307 0.107949,-0.0734685 0.176917,-0.0734685l1.41924 0c0.0689685,0 0.131594,0.0281378 0.176917,0.0734685 0.0453268,0.0453268 0.0734685,0.107945 0.0734685,0.176913l0 0.449402c0,0.0589094 -0.0477598,0.106669 -0.106669,0.106669 -0.0589094,0 -0.106669,-0.0477598 -0.106669,-0.106669l0 -0.449402c0,-0.0100748 -0.00420079,-0.019315 -0.0109646,-0.0260787 -0.00676378,-0.00676378 -0.0160079,-0.0109646 -0.0260827,-0.0109646l-1.41924 0c-0.0100748,0 -0.0193189,0.00420079 -0.0260827,0.0109646 -0.00676378,0.00676378 -0.0109646,0.0160039 -0.0109646,0.0260787l0 0.449402z"/>
  <g id="_511123000">
   <path id="_511122568" class="fil0" d="M1.4452 1.89719c-0.0589094,0 -0.106669,-0.0477598 -0.106669,-0.106669 0,-0.0589094 0.0477598,-0.106669 0.106669,-0.106669l0.503748 0c0.0589094,0 0.106669,0.0477598 0.106669,0.106669 0,0.0589094 -0.0477598,0.106669 -0.106669,0.106669l-0.503748 0z"/>
   <path id="_511123048" class="fil0" d="M4.87771 1.89719c-0.0589094,0 -0.106669,-0.0477598 -0.106669,-0.106669 0,-0.0589094 0.0477598,-0.106669 0.106669,-0.106669l0.503748 0c0.0589094,0 0.106669,0.0477598 0.106669,0.106669 0,0.0589094 -0.0477598,0.106669 -0.106669,0.106669l-0.503748 0z"/>
  </g>
  <g id="_511122688">
   <path id="_511123144" class="fil0" d="M0.959996 4.79911c-0.0294528,0 -0.0533346,-0.0238819 -0.0533346,-0.0533346 0,-0.0294528 0.0238819,-0.0533346 0.0533346,-0.0533346l4.90667 0c0.0294528,0 0.0533346,0.0238819 0.0533346,0.0533346 0,0.0294528 -0.0238819,0.0533346 -0.0533346,0.0533346l-4.90667 0z"/>
   <path id="_511122880" class="fil0" d="M0.959996 2.61334c-0.0294528,0 -0.0533346,-0.0238819 -0.0533346,-0.0533346 0,-0.0294528 0.0238819,-0.0533346 0.0533346,-0.0533346l4.90667 0c0.0294528,0 0.0533346,0.0238819 0.0533346,0.0533346 0,0.0294528 -0.0238819,0.0533346 -0.0533346,0.0533346l-4.90667 0z"/>
  </g>
  <path class="fil0" d="M3.2 2.78093l0.426665 0c0.0294528,0 0.0533346,0.0238819 0.0533346,0.0533346l0 0.533331 0.533331 0c0.0294528,0 0.0533346,0.0238819 0.0533346,0.0533346l0 0.426665c0,0.0294528 -0.0238819,0.0533346 -0.0533346,0.0533346l-0.533331 0 0 0.533335c0,0.0294528 -0.0238819,0.0533346 -0.0533346,0.0533346l-0.426665 0c-0.0294528,0 -0.0533346,-0.0238819 -0.0533346,-0.0533346l0 -0.533335 -0.533335 0c-0.0294528,0 -0.0533346,-0.0238819 -0.0533346,-0.0533346l0 -0.426665c0,-0.0294528 0.0238819,-0.0533346 0.0533346,-0.0533346l0.533335 0 0 -0.533331c0,-0.0294528 0.0238819,-0.0533346 0.0533346,-0.0533346zm0.373331 0.106669l-0.319996 0 0 0.533331c0,0.0294528 -0.0238819,0.0533346 -0.0533346,0.0533346l-0.533335 0 0 0.319996 0.533335 0c0.0294528,0 0.0533346,0.0238819 0.0533346,0.0533346l0 0.533335 0.319996 0 0 -0.533335c0,-0.0294528 0.0238819,-0.0533346 0.0533346,-0.0533346l0.533331 0 0 -0.319996 -0.533331 0c-0.0294528,0 -0.0533346,-0.0238819 -0.0533346,-0.0533346l0 -0.533331z"/>
  <path class="fil1" d="M3.57333 2.8876l-0.319996 0 0 0.533331c0,0.0294528 -0.0238819,0.0533346 -0.0533346,0.0533346l-0.533335 0 0 0.319996 0.533335 0c0.0294528,0 0.0533346,0.0238819 0.0533346,0.0533346l0 0.533335 0.319996 0 0 -0.533335c0,-0.0294528 0.0238819,-0.0533346 0.0533346,-0.0533346l0.533331 0 0 -0.319996 -0.533331 0c-0.0294528,0 -0.0533346,-0.0238819 -0.0533346,-0.0533346l0 -0.533331z"/>
  <path class="fil2" d="M2.56 3.84759l0 -0.426665c0,-0.0294528 0.0238819,-0.0533346 0.0533346,-0.0533346l0.533335 0 0 -0.533331c0,-0.0294528 0.0238819,-0.0533346 0.0533346,-0.0533346l0.426665 0c0.0294528,0 0.0533346,0.0238819 0.0533346,0.0533346l0 0.533331 0.533331 0c0.0294528,0 0.0533346,0.0238819 0.0533346,0.0533346l0 0.426665c0,0.0294528 -0.0238819,0.0533346 -0.0533346,0.0533346l-0.533331 0 0 0.533335c0,0.0294528 -0.0238819,0.0533346 -0.0533346,0.0533346l-0.426665 0c-0.0294528,0 -0.0533346,-0.0238819 -0.0533346,-0.0533346l0 -0.533335 -0.533335 0c-0.0294528,0 -0.0533346,-0.0238819 -0.0533346,-0.0533346zm3.30667 -1.23425l-4.90667 0 0 2.0791 4.90667 0 0 -2.0791z"/>
  <path class="fil2" d="M5.86667 4.79911l-4.90667 0 3.93701e-006 0.151819c0,0.0438898 0.0180354,0.0838701 0.0470787,0.112917 0.0290472,0.0290433 0.0690276,0.0470787 0.112917,0.0470787l4.58667 0c0.0438898,0 0.0838701,-0.0180354 0.112917,-0.0470787 0.0290433,-0.0290472 0.0470787,-0.0690276 0.0470787,-0.112917l3.93701e-006 -0.151819z"/>
  <path class="fil2" d="M0.959996 2.50667l4.90667 0 -3.93701e-006 -0.189075c0,-0.0438898 -0.0180354,-0.0838701 -0.0470787,-0.112917 -0.0290472,-0.0290433 -0.0690276,-0.0470787 -0.112917,-0.0470787l-1.44 0 -1.70667 0 -1.44 0c-0.0438898,0 -0.0838701,0.0180354 -0.112917,0.0470787 -0.0290433,0.0290472 -0.0470787,0.0690276 -0.0470787,0.112917l-3.93701e-006 0.189075z"/>
 </g>
 <rect class="fil3" width="6.82666" height="6.82666"/>
</svg>
