<?xml version="1.0" encoding="UTF-8"?>
<!DOCTYPE svg PUBLIC "-//W3C//DTD SVG 1.1//EN" "http://www.w3.org/Graphics/SVG/1.1/DTD/svg11.dtd">
<!-- Creator: CorelDRAW -->
<svg xmlns="http://www.w3.org/2000/svg" xml:space="preserve" width="6.82666in" height="6.82666in" style="shape-rendering:geometricPrecision; text-rendering:geometricPrecision; image-rendering:optimizeQuality; fill-rule:evenodd; clip-rule:evenodd"
viewBox="0 0 6.82666 6.82666"
 xmlns:xlink="http://www.w3.org/1999/xlink">
 <defs>
  <style type="text/css">
   <![CDATA[
    .fil2 {fill:none}
    .fil1 {fill:#B38E85}
    .fil0 {fill:#212121;fill-rule:nonzero}
   ]]>
  </style>
 </defs>
 <g id="Layer_x0020_1">
  <metadata id="CorelCorpID_0Corel-Layer"/>
  <path class="fil0" d="M2.63392 2.73063c0,0.0589094 -0.0477598,0.106669 -0.106669,0.106669 -0.0589094,0 -0.106669,-0.0477598 -0.106669,-0.106669l0 -0.776559c0,-0.030748 -0.0123346,-0.0584646 -0.0322717,-0.0783504 -0.0201024,-0.0200512 -0.0480669,-0.0324882 -0.0791181,-0.0324882 -0.0304606,0 -0.0581614,0.0124685 -0.0782638,0.0325709 -0.0201024,0.0201024 -0.0325709,0.0478071 -0.0325709,0.0782677 0,0.00464961 -0.00030315,0.00922835 -0.000877953,0.0137205l-0.091685 1.24078c-0.0127756,0.172736 -0.0123031,0.32715 -0.00344882,0.46472 0.0087874,0.13652 0.0259843,0.257346 0.0467126,0.363429 0.0112756,0.0577559 -0.0264094,0.113724 -0.0841654,0.125 -0.0577559,0.0112756 -0.113724,-0.0264094 -0.125,-0.0841654 -0.022126,-0.113217 -0.0405276,-0.24298 -0.0500512,-0.390933 -0.00945669,-0.146894 -0.0100236,-0.310874 0.00344882,-0.493051l0.0917402 -1.24153c0.000547244,-0.0885433 0.0368189,-0.168823 0.095063,-0.227067 0.058685,-0.058685 0.139752,-0.0950748 0.229098,-0.0950748 0.0391142,0 0.0766339,0.00697244 0.11139,0.0197323l0 -0.161496c0,-0.0893504 0.0363858,-0.170413 0.0950748,-0.229102 0.058689,-0.058689 0.139752,-0.0950748 0.229102,-0.0950748 0.0389685,0 0.0763307,0.00688976 0.110937,0.0195197 0.00612205,-0.0880512 0.0444094,-0.167323 0.103193,-0.226094 0.0642677,-0.0642598 0.153043,-0.104043 0.251043,-0.104043 0.0979685,0 0.186748,0.0397913 0.25102,0.104063 0.0642717,0.0642717 0.104063,0.153051 0.104063,0.251016l0 0.109394c0.0434094,-0.0189331 0.0913346,-0.029437 0.141697,-0.029437l4.33071e-005 0c0.0980118,0 0.186787,0.0397677 0.251051,0.104031 0.0642638,0.0642638 0.104031,0.153039 0.104031,0.251051l0 1.27633c0,0.0269173 -0.0055315,0.0499331 -0.0133031,0.0692559 0.00333071,-0.0059685 0.00694094,-0.0120669 0.010874,-0.0182126 0.0202677,-0.0317205 0.0303386,-0.0548661 0.0781929,-0.118976 0.0497835,-0.066685 0.144197,-0.187449 0.264244,-0.271689 0.139394,-0.0978228 0.307205,-0.146098 0.479413,-0.0294843 0.055189,0.0373701 0.0816496,0.0951339 0.0880709,0.156394 0.00630709,0.0601378 -0.00841339,0.126618 -0.0333031,0.173539l-0.000129921 -7.08661e-005 -0.000700787 0.00132283c-0.0459843,0.0845906 -0.0964724,0.139228 -0.14839,0.195417 -0.0474173,0.0513228 -0.0962835,0.104205 -0.137406,0.181906l-0.000173228 -9.05512e-005c-0.0587323,0.112106 -0.112287,0.199657 -0.161579,0.280244 -0.106811,0.174622 -0.192504,0.314717 -0.235421,0.554063 -0.0103543,0.0577559 -0.0655787,0.096185 -0.123335,0.0858307 -0.0577559,-0.0103543 -0.096185,-0.0655787 -0.0858307,-0.123335 0.0501181,-0.279496 0.144843,-0.434362 0.262917,-0.627394 0.0489646,-0.0800512 0.102173,-0.167043 0.155091,-0.268067l0.000173228 -0.000326772 -0.000173228 -9.05512e-005c0.0544173,-0.102823 0.112602,-0.165795 0.169067,-0.226906 0.0431102,-0.0466535 0.0850315,-0.0920315 0.117669,-0.15161l-0.000110236 -5.90551e-005c0.00748425,-0.0141102 0.0118937,-0.0342913 0.00996457,-0.0527047 -0.000346457,-0.00330709 0.00802362,0.000200787 0.00443307,-0.00222835 -0.078,-0.052815 -0.163425,-0.0243386 -0.237744,0.027815 -0.0936693,0.0657283 -0.173488,0.168197 -0.215913,0.225028 -0.0623268,0.0834961 -0.159465,0.288579 -0.280134,0.30128 -0.106543,0.0112126 -0.179803,-0.0765709 -0.179803,-0.36085l0 -1.27633c0,-0.039126 -0.015878,-0.0745669 -0.0415276,-0.100217 -0.0256496,-0.0256496 -0.0610906,-0.0415276 -0.100217,-0.0415276l-4.33071e-005 0c-0.0391024,0 -0.0745236,0.0158701 -0.100169,0.0415197 -0.0234764,0.0234764 -0.0388465,0.0547953 -0.0415276,0.0893543l0 0.0108268 0 4.33071e-005 0 0.962764c0,0.0589094 -0.0477598,0.106669 -0.106669,0.106669 -0.0589094,0 -0.106669,-0.0477598 -0.106669,-0.106669l0 -0.962764 0 -4.33071e-005 0 -0.434996c0,-0.0390787 -0.0158937,-0.0745157 -0.0415591,-0.100181 -0.0256654,-0.0256654 -0.0611024,-0.0415591 -0.100185,-0.0415591 -0.0391142,0 -0.0745551,0.0158858 -0.100209,0.0415394 -0.0256693,0.0256654 -0.0415591,0.0611102 -0.0415591,0.100201l0 0.257012c0.000523622,0.00750394 0.000791339,0.0150709 0.000791339,0.0227047l0 1.19795c0,0.0589094 -0.0477598,0.106669 -0.106669,0.106669 -0.0589094,0 -0.106669,-0.0477598 -0.106669,-0.106669l0 -1.18415c-0.000515748,-0.00426378 -0.000791339,-0.00860236 -0.000791339,-0.0130039l0 -0.0140354c-0.00302756,-0.025252 -0.0145945,-0.0479528 -0.0317441,-0.0651024 -0.0200551,-0.0200551 -0.047752,-0.0324921 -0.0783228,-0.0324921 -0.0304606,0 -0.0581654,0.0124685 -0.0782677,0.0325709 -0.0201024,0.0201024 -0.0325709,0.0478071 -0.0325709,0.0782677l0 0.456543c0,0.00115354 -2.75591e-005,0.00229528 -6.29921e-005,0.00344094 3.54331e-005,0.00198425 6.29921e-005,0.0039685 6.29921e-005,0.00595669l0 0.776559z"/>
  <path class="fil0" d="M2.04198 3.98757l2.10532 0c0.0589094,0 0.106669,0.0477598 0.106669,0.106669l0 0.68678c0,0.0589094 -0.0477598,0.106669 -0.106669,0.106669l-2.10532 0c-0.0589094,0 -0.106669,-0.0477598 -0.106669,-0.106669l0 -0.68678c0,-0.0589094 0.0477598,-0.106669 0.106669,-0.106669zm1.99865 0.213339l-1.89198 0 0 0.473441 1.89198 0 0 -0.473441z"/>
  <path class="fil0" d="M2.07685 5.76l2.10664 0 -0.128193 -0.872303 -1.91435 0 -0.0640945 0.872303zm2.23 0.213339l-2.34464 0 0 -0.000153543c-0.00248425,0 -0.00498425,-8.66142e-005 -0.0075,-0.00026378 -0.0586811,-0.00414173 -0.102894,-0.0550709 -0.098752,-0.113752l0.0793819 -1.08035c0.00117717,-0.0578898 0.0484724,-0.104461 0.106642,-0.104461l2.10532 0 0 0.000125984c0.0520709,-6.29921e-005 0.0976614,0.0380906 0.105417,0.091126l0.158717 1.08002c0.0013622,0.00680709 0.00207874,0.0138386 0.00207874,0.0210433 0,0.0589094 -0.0477598,0.106669 -0.106669,0.106669z"/>
  <polygon class="fil1" points="2.07685,5.76 4.18349,5.76 4.0553,4.88769 2.14094,4.88769 "/>
  <polygon class="fil1" points="2.14865,4.67435 4.04063,4.67435 4.04063,4.20091 2.14865,4.20091 "/>
  <path class="fil1" d="M4.2541 3.0612c-0.00516142,0.00816535 -0.00892126,0.0141024 0,0zm-2.11419 0.926374l1.91681 0c0.0526457,-0.237634 0.141169,-0.382362 0.24926,-0.559071 0.0489646,-0.0800512 0.102173,-0.167043 0.155091,-0.268067l0.000173228 -0.000326772 -0.000173228 -9.05512e-005c0.0544173,-0.102823 0.112602,-0.165795 0.169067,-0.226906 0.0431102,-0.0466535 0.0850315,-0.0920315 0.117669,-0.15161l-0.000110236 -5.90551e-005c0.00748425,-0.0141102 0.0118937,-0.0342913 0.00996457,-0.0527047 -0.000346457,-0.00330709 0.00802362,0.000200787 0.00443307,-0.00222835 -0.078,-0.052815 -0.163425,-0.0243386 -0.237744,0.027815 -0.0936693,0.0657283 -0.173488,0.168197 -0.215913,0.225028 -0.0156024,0.0209016 -0.0345866,0.0507953 -0.0543346,0.0818465l-0.000208661 -0.000129921 -0.0153189 0.0239213c-0.0601811,0.0940669 -0.126594,0.186835 -0.210272,0.195642 -0.106543,0.0112126 -0.179803,-0.0765709 -0.179803,-0.36085l0 -1.27633c0,-0.039126 -0.015878,-0.0745669 -0.0415276,-0.100217 -0.0256496,-0.0256496 -0.0610906,-0.0415276 -0.100217,-0.0415276l-4.33071e-005 0c-0.0391024,0 -0.0745236,0.0158701 -0.100169,0.0415197 -0.0234764,0.0234764 -0.0388465,0.0547953 -0.0415276,0.0893543l0 0.0108268 0 4.33071e-005 0 0.962764c0,0.0589094 -0.0477598,0.106669 -0.106669,0.106669 -0.0589094,0 -0.106669,-0.0477598 -0.106669,-0.106669l0 -0.962764 0 -4.33071e-005 0 -0.434996c0,-0.0390787 -0.0158937,-0.0745157 -0.0415591,-0.100181 -0.0256654,-0.0256654 -0.0611024,-0.0415591 -0.100185,-0.0415591 -0.0391142,0 -0.0745551,0.0158858 -0.100209,0.0415394 -0.0256693,0.0256654 -0.0415591,0.0611102 -0.0415591,0.100201l0 0.257012c0.000523622,0.00750394 0.000791339,0.0150709 0.000791339,0.0227047l0 1.19795c0,0.0589094 -0.0477598,0.106669 -0.106669,0.106669 -0.0589094,0 -0.106669,-0.0477598 -0.106669,-0.106669l0 -1.18415c-0.000515748,-0.00426378 -0.000791339,-0.00860236 -0.000791339,-0.0130039l0 -0.0140354c-0.00302756,-0.025252 -0.0145945,-0.0479528 -0.0317441,-0.0651024 -0.0200551,-0.0200551 -0.047752,-0.0324921 -0.0783228,-0.0324921 -0.0304606,0 -0.0581654,0.0124685 -0.0782677,0.0325709 -0.0201024,0.0201024 -0.0325709,0.0478071 -0.0325709,0.0782677l0 0.456543 -6.29921e-005 0.00344094 6.29921e-005 0.00595669 0 0.776559c0,0.0589094 -0.0477598,0.106669 -0.106669,0.106669 -0.0589094,0 -0.106669,-0.0477598 -0.106669,-0.106669l0 -0.776559c0,-0.030748 -0.0123346,-0.0584646 -0.0322717,-0.0783504 -0.0201024,-0.0200512 -0.0480669,-0.0324882 -0.0791181,-0.0324882 -0.0304606,0 -0.0581614,0.0124685 -0.0782638,0.0325709 -0.0201024,0.0201024 -0.0325709,0.0478071 -0.0325709,0.0782677 0,0.00464961 -0.00030315,0.00922835 -0.000877953,0.0137205l-0.091685 1.24078c-0.0127756,0.172736 -0.0123031,0.32715 -0.00344882,0.46472 0.00745669,0.115878 0.0209764,0.220445 0.0375669,0.314291z"/>
 </g>
 <rect class="fil2" width="6.82666" height="6.82666"/>
</svg>
