<?xml version="1.0" encoding="UTF-8"?>
<!DOCTYPE svg PUBLIC "-//W3C//DTD SVG 1.1//EN" "http://www.w3.org/Graphics/SVG/1.1/DTD/svg11.dtd">
<!-- Creator: CorelDRAW -->
<svg xmlns="http://www.w3.org/2000/svg" xml:space="preserve" width="6.82666in" height="6.82666in" style="shape-rendering:geometricPrecision; text-rendering:geometricPrecision; image-rendering:optimizeQuality; fill-rule:evenodd; clip-rule:evenodd"
viewBox="0 0 6.82666 6.82666"
 xmlns:xlink="http://www.w3.org/1999/xlink">
 <defs>
  <style type="text/css">
   <![CDATA[
    .fil3 {fill:none}
    .fil0 {fill:#EBE5DF}
    .fil2 {fill:#F45A52}
    .fil1 {fill:#212121;fill-rule:nonzero}
   ]]>
  </style>
 </defs>
 <g id="Layer_x0020_1">
  <metadata id="CorelCorpID_0Corel-Layer"/>
  <path class="fil0" d="M2.83138 2.196l0 1.57805 0.256917 0 0.369047 0c0.383205,0 0.740992,0.116441 1.03977,0.315752 0.00350394,0.00233858 0.007,0.00468504 0.0104843,0.00704724 0.00676772,-0.0245472 0.0177362,-0.30022 0.0283583,-0.648598 0.0045315,-0.148756 0.00680315,-0.314724 0.00680315,-0.484583 0,-0.169862 -0.00227165,-0.335827 -0.00680315,-0.484583 -0.0086063,-0.282335 -0.0174409,-0.516921 -0.0240866,-0.60878 -0.00490157,0.00333858 -0.0098189,0.00665354 -0.0147559,0.00994488 -0.298768,0.199315 -0.656559,0.315752 -1.03977,0.315752l-0.625965 0z"/>
  <path class="fil1" d="M5.09546 0.889866c0.0695394,0 0.111677,0.053815 0.129693,0.153256 0.00911024,0.0502874 0.0169724,0.119862 0.0236378,0.204909 0.0297087,0.378937 0.0437913,1.11976 0.0422441,1.84309 -0.00151575,0.710287 -0.0182677,1.40309 -0.0502402,1.71826 -0.00619291,0.0610433 -0.013126,0.109669 -0.020815,0.143657 -0.0187717,0.0829252 -0.0594252,0.127134 -0.12452,0.127134 -0.0453189,0 -0.0840354,-0.0282638 -0.0994882,-0.0681299 -0.128638,-0.30478 -0.345134,-0.564094 -0.617185,-0.745583 -0.264075,-0.176161 -0.581094,-0.279083 -0.921437,-0.279083l-1.13381 0c-0.0589094,0 -0.106669,-0.0477598 -0.106669,-0.106669l0 -1.79139c0,-0.0589094 0.0477598,-0.106669 0.106669,-0.106669l1.13381 0c0.34035,0 0.65737,-0.102917 0.921437,-0.279083 0.272858,-0.182024 0.489843,-0.442339 0.618339,-0.748295 0.017122,-0.0408189 0.0566811,-0.0653898 0.0983346,-0.0654055l0 -1.1811e-005zm-0.0169291 2.20126c0.00144488,-0.676272 -0.0111102,-1.37007 -0.0376614,-1.76328 -0.141228,0.21922 -0.326776,0.40765 -0.543752,0.552398 -0.298768,0.199315 -0.656559,0.315752 -1.03977,0.315752l-1.02714 0 0 1.57805 1.02714 0c0.383205,0 0.740992,0.116441 1.03977,0.315752 0.217094,0.144827 0.40272,0.333382 0.543976,0.552752 0.0236575,-0.350028 0.0361378,-0.943858 0.037437,-1.55143z"/>
  <path class="fil1" d="M4.50665 1.8287c-0.0294528,0 -0.0533346,-0.0238819 -0.0533346,-0.0533346 0,-0.0294528 0.0238819,-0.0533346 0.0533346,-0.0533346 0.0792008,0 0.12265,0.330764 0.135555,0.754134 0.00481102,0.157878 0.00722047,0.324638 0.00722047,0.487496 0,0.162858 -0.00240945,0.329618 -0.00722047,0.487496 -0.0129094,0.42337 -0.0563622,0.754134 -0.135555,0.754134 -0.0294528,0 -0.0533346,-0.0238819 -0.0533346,-0.0533346 0,-0.0294528 0.0238819,-0.0533346 0.0533346,-0.0533346 0.00665748,0 0.0181693,-0.28526 0.0293031,-0.650378 0.0045315,-0.148756 0.00680315,-0.314724 0.00680315,-0.484583 0,-0.169862 -0.00227165,-0.335827 -0.00680315,-0.484583 -0.0111299,-0.365118 -0.0226417,-0.650378 -0.0293031,-0.650378z"/>
  <path class="fil1" d="M5.18489 2.53747l0.340886 0c0.123185,0 0.235102,0.0503189 0.316165,0.131386 0.0810669,0.081063 0.131386,0.19298 0.131386,0.316165 0,0.123193 -0.0503189,0.235106 -0.131386,0.316169 -0.081063,0.0810669 -0.19298,0.131386 -0.316165,0.131386l-0.340886 0c-0.0589094,0 -0.106669,-0.0477598 -0.106669,-0.106669l0 -0.681768c0,-0.0589094 0.0477598,-0.106669 0.106669,-0.106669zm0.340886 0.213339l-0.234217 0 0 0.468429 0.234217 0c0.0642992,0 0.122831,-0.0263819 0.165331,-0.0688819 0.0425,-0.0424961 0.0688819,-0.101035 0.0688819,-0.165335 0,-0.0642992 -0.0263819,-0.122831 -0.0688819,-0.165331 -0.0425,-0.0425 -0.101031,-0.0688819 -0.165331,-0.0688819z"/>
  <path class="fil1" d="M1.64177 2.13977l0.681772 0c0.0589094,0 0.106669,0.0477598 0.106669,0.106669l0 1.47717c0,0.0589094 -0.0477598,0.106669 -0.106669,0.106669l-0.681772 0c-0.216929,0 -0.414067,-0.0886693 -0.556917,-0.23152 -0.14285,-0.14285 -0.23152,-0.339992 -0.23152,-0.556917l0 -0.113634c0,-0.216929 0.0886693,-0.414067 0.23152,-0.556917 0.14285,-0.14285 0.339988,-0.23152 0.556917,-0.23152zm0.575102 0.213339l-0.575102 0c-0.158043,0 -0.301799,0.0647323 -0.406083,0.169016 -0.104283,0.104283 -0.169016,0.248039 -0.169016,0.406083l0 0.113634c0,0.158039 0.0647323,0.301799 0.169016,0.406083 0.104283,0.104283 0.248039,0.169016 0.406083,0.169016l0.575102 0 0 -1.26383z"/>
  <path class="fil1" d="M2.72471 2.13282c0,-0.0294528 0.0238819,-0.0533346 0.0533346,-0.0533346 0.0294528,0 0.0533346,0.0238819 0.0533346,0.0533346l0 1.70442c0,0.0294528 -0.0238819,0.0533346 -0.0533346,0.0533346 -0.0294528,0 -0.0533346,-0.0238819 -0.0533346,-0.0533346l0 -1.70442z"/>
  <path class="fil1" d="M3.25346 5.41332c-0.0416496,-0.0416496 -0.0416496,-0.109185 0,-0.150835 0.0416496,-0.0416496 0.109185,-0.0416496 0.150835,0 0.0771299,0.0771299 0.115701,0.17822 0.115701,0.279303 0,0.101075 -0.0385709,0.202173 -0.115701,0.279303 -0.0771378,0.0771299 -0.178228,0.115701 -0.279307,0.115701 -0.101075,0 -0.202173,-0.0385709 -0.279303,-0.115701 -0.231173,-0.231173 -0.345744,-0.435827 -0.401354,-0.682346 -0.0536417,-0.237768 -0.0489567,-0.505681 -0.0424803,-0.876039l1.1811e-005 -0.000716535c0.00158661,-0.0908346 0.00334646,-0.191287 0.00355512,-0.381272 0,-0.0586811 0.0475709,-0.106252 0.106252,-0.106252l0 -0.000417323 0.576626 0c0.0589094,0 0.106669,0.0477598 0.106669,0.106669 0,0.0589094 -0.0477598,0.106669 -0.106669,0.106669l-0.470677 0c-0.000614173,0.127055 -0.00198819,0.205551 -0.00325197,0.277933l-1.1811e-005 0.000716535c-0.0062126,0.355366 -0.0107087,0.612437 0.0374803,0.826039 0.0462087,0.204846 0.1445,0.377996 0.344685,0.578181 0.0354606,0.0354606 0.0819646,0.0531969 0.128469,0.0531969 0.0465079,0 0.0930079,-0.0177362 0.128472,-0.0531969 0.0354606,-0.0354606 0.0531969,-0.0819646 0.0531969,-0.128469 0,-0.0465039 -0.0177362,-0.0930079 -0.0531969,-0.128469z"/>
  <path class="fil1" d="M3.01019 3.88041c0.000228346,-0.0586811 0.0479882,-0.106063 0.106669,-0.105835 0.0586811,0.000228346 0.106063,0.0479882 0.105835,0.106669 -0.000389764,0.0638661 -0.0154843,0.119402 -0.0309134,0.176209 -0.0119961,0.0441535 -0.0242598,0.0892795 -0.0259213,0.127213 -0.00183071,0.0418071 0.00774803,0.0917126 0.0173661,0.141815 0.0104409,0.0544094 0.0209331,0.109039 0.0212638,0.170339 0.000299213,0.0550787 -0.00785827,0.105059 -0.0159488,0.154661 -0.00848425,0.0519843 -0.0168819,0.103465 -0.0107638,0.14522 0.00693701,0.0473189 0.0355276,0.0990315 0.063437,0.149516 0.0180472,0.0326457 0.035878,0.0648898 0.0514016,0.101213 0.0080748,0.0188976 0.0163189,0.0401693 0.0242402,0.0606299 0.020126,0.0519724 0.0375433,0.0969409 0.0770236,0.136421 0.0416496,0.0416496 0.0416496,0.109185 0,0.150835 -0.0416496,0.0416496 -0.109185,0.0416496 -0.150835,0 -0.070122,-0.070122 -0.0953583,-0.13528 -0.12452,-0.210587 -0.00625984,-0.0161654 -0.0127756,-0.0329843 -0.0217441,-0.0539685 -0.0106339,-0.024878 -0.0263425,-0.0532874 -0.0422362,-0.0820394 -0.0370906,-0.0670984 -0.0750866,-0.135811 -0.0876024,-0.221185 -0.0107441,-0.0733031 0.000370079,-0.141433 0.0115984,-0.21022 0.00679528,-0.0416457 0.0136378,-0.0836063 0.0134449,-0.119661 -0.000208661,-0.0388898 -0.00908661,-0.085126 -0.0179252,-0.131173 -0.0118583,-0.0617717 -0.0236654,-0.123299 -0.0207047,-0.19098 0.00281496,-0.064315 0.0178661,-0.119697 0.0325906,-0.173882 0.0121535,-0.044748 0.0240472,-0.0885039 0.0242441,-0.121209z"/>
  <path class="fil2" d="M2.21687 3.61694l0 -1.26383 -0.575102 0c-0.158043,0 -0.301799,0.0647323 -0.406083,0.169016 -0.104283,0.104283 -0.169016,0.248039 -0.169016,0.406083l0 0.113634c0,0.158039 0.0647323,0.301799 0.169016,0.406083 0.104283,0.104283 0.248039,0.169016 0.406083,0.169016l0.575102 0z"/>
  <path class="fil0" d="M2.43021 2.24644l0 1.47717c0,0.000307087 0,0.00061811 -3.93701e-006,0.000925197l0 0.0495157 0.0814685 0 0.213039 0 0 -1.57805 -0.294508 0 0 0.0495118c3.93701e-006,0.000307087 3.93701e-006,0.00061811 3.93701e-006,0.000925197z"/>
  <path class="fil0" d="M4.64943 2.96367c0,0.162858 -0.00240945,0.329618 -0.00722047,0.487496 -0.00938583,0.307835 -0.0349213,0.566713 -0.0786024,0.685079 0.188614,0.137815 0.350874,0.309685 0.477484,0.506311 0.0223976,-0.331366 0.0347756,-0.881232 0.0371339,-1.4544l0 -0.403492c-0.0023622,-0.572484 -0.014815,-1.12298 -0.0373583,-1.45681 -0.124079,0.192602 -0.282366,0.361433 -0.466122,0.49776 0.0369252,0.129874 0.0589094,0.369862 0.0674646,0.650559 0.00481102,0.157878 0.00722047,0.324638 0.00722047,0.487496z"/>
  <path class="fil2" d="M5.29156 2.75081l0 0.468429 0.234217 0c0.0642992,0 0.122831,-0.0263819 0.165331,-0.0688819 0.0425,-0.0424961 0.0688819,-0.101035 0.0688819,-0.165335 0,-0.0642992 -0.0263819,-0.122831 -0.0688819,-0.165331 -0.0425,-0.0425 -0.101031,-0.0688819 -0.165331,-0.0688819l-0.234217 0z"/>
  <path class="fil0" d="M2.96694 4.82754c-0.0107441,-0.0733031 0.000370079,-0.141433 0.0115984,-0.21022 0.00679528,-0.0416457 0.0136378,-0.0836063 0.0134449,-0.119661 -0.000208661,-0.0388898 -0.00908661,-0.085126 -0.0179252,-0.131173 -0.0118583,-0.0617717 -0.0236654,-0.123299 -0.0207047,-0.19098 0.00281496,-0.064315 0.0178661,-0.119697 0.0325906,-0.173882 0.00129134,-0.00475984 0.00258268,-0.00951181 0.00385827,-0.0142362l-0.372185 0c-0.000614173,0.127055 -0.00198819,0.205551 -0.00325197,0.277933l-1.1811e-005 0.000716535c-0.0062126,0.355366 -0.0107087,0.612437 0.0374803,0.826039 0.0462087,0.204846 0.1445,0.377996 0.344685,0.578181 0.0354606,0.0354606 0.0819646,0.0531969 0.128469,0.0531969 0.0465079,0 0.0930079,-0.0177362 0.128472,-0.0531969 0.0354606,-0.0354606 0.0531969,-0.0819646 0.0531969,-0.128469 0,-0.0465039 -0.0177362,-0.0930079 -0.0531969,-0.128469 -0.00842126,-0.00842126 -0.0151378,-0.0178976 -0.0201535,-0.0280039 -0.0628031,-0.0663583 -0.0870118,-0.12887 -0.114783,-0.200583 -0.00625984,-0.0161654 -0.0127756,-0.0329843 -0.0217441,-0.0539685 -0.0106339,-0.024878 -0.0263425,-0.0532874 -0.0422362,-0.0820394 -0.0370906,-0.0670984 -0.0750866,-0.135811 -0.0876024,-0.221185z"/>
 </g>
 <rect class="fil3" width="6.82666" height="6.82666"/>
</svg>
