<?xml version="1.0" encoding="UTF-8"?>
<!DOCTYPE svg PUBLIC "-//W3C//DTD SVG 1.1//EN" "http://www.w3.org/Graphics/SVG/1.1/DTD/svg11.dtd">
<!-- Creator: CorelDRAW -->
<svg xmlns="http://www.w3.org/2000/svg" xml:space="preserve" width="6.82666in" height="6.82666in" style="shape-rendering:geometricPrecision; text-rendering:geometricPrecision; image-rendering:optimizeQuality; fill-rule:evenodd; clip-rule:evenodd"
viewBox="0 0 6.82666 6.82666"
 xmlns:xlink="http://www.w3.org/1999/xlink">
 <defs>
  <style type="text/css">
   <![CDATA[
    .fil3 {fill:none}
    .fil2 {fill:#949494}
    .fil1 {fill:#9DD5C0}
    .fil0 {fill:#212121;fill-rule:nonzero}
   ]]>
  </style>
 </defs>
 <g id="Layer_x0020_1">
  <metadata id="CorelCorpID_0Corel-Layer"/>
  <g id="_511127128">
   <path id="_511128208" class="fil0" d="M2.04474 1.98617c-0.0589094,0 -0.106669,-0.0477598 -0.106669,-0.106669 0,-0.0589094 0.0477598,-0.106669 0.106669,-0.106669l0.193157 0c0.0589094,0 0.106669,0.0477598 0.106669,0.106669 0,0.0589094 -0.0477598,0.106669 -0.106669,0.106669l-0.193157 0z"/>
   <g>
    <g>
     <path id="_511127368" class="fil0" d="M2.14131 2.14316l3.93701e-006 0c0.221933,0 0.423622,0.0907165 0.569768,0.236866 0.14615,0.146146 0.236866,0.347835 0.236866,0.569768l0 2.79314c0,0.0757126 -0.0309016,0.144476 -0.0806772,0.194252 -0.0497756,0.0497756 -0.118539,0.0806772 -0.194252,0.0806772l-1.06341 0c-0.0757126,0 -0.144476,-0.0309016 -0.194252,-0.0806772 -0.0497756,-0.0497756 -0.0806772,-0.118539 -0.0806772,-0.194252l0 -2.79314c0,-0.221933 0.0907165,-0.423622 0.236866,-0.569768 0.146146,-0.14615 0.347835,-0.236866 0.569768,-0.236866zm3.93701e-006 0.213339l-3.93701e-006 0c-0.163047,0 -0.311354,0.0667795 -0.418933,0.174362 -0.107583,0.107579 -0.174362,0.255886 -0.174362,0.418933l0 2.79314c0,0.0168268 0.00696457,0.0322087 0.0181732,0.0434173 0.0112087,0.0112087 0.0265906,0.0181732 0.0434173,0.0181732l1.06341 0c0.0168268,0 0.0322087,-0.00696457 0.0434173,-0.0181732 0.0112087,-0.0112087 0.0181732,-0.0265906 0.0181732,-0.0434173l0 -2.79314c0,-0.163047 -0.0667795,-0.311354 -0.174362,-0.418933 -0.107579,-0.107583 -0.255886,-0.174362 -0.418933,-0.174362z"/>
     <path id="_511127176" class="fil0" d="M1.6939 1.55208l0.894819 0c0.0294528,0 0.0533346,0.0238819 0.0533346,0.0533346 0,0.0098622 -0.0026811,0.0191024 -0.00735039,0.0270276l-0.324697 0.655992c-0.0111614,0.0226181 -0.0362559,0.0337913 -0.0598031,0.0282756 -0.0176378,-0.00368504 -0.0354764,-0.00649606 -0.0534488,-0.00837795 -0.0173661,-0.00181102 -0.0358583,-0.00274803 -0.0554449,-0.00274803l-3.93701e-006 0c-0.0195866,0 -0.0380748,0.000937008 -0.0554449,0.00274803 -0.0183976,0.00192126 -0.0366614,0.00482677 -0.0547047,0.00864173 -0.0244764,0.00509055 -0.0485236,-0.00752756 -0.0588346,-0.029126l-0.32613 -0.65889c-0.013,-0.0263465 -0.0021811,-0.058252 0.0241654,-0.071252 0.00758268,-0.00374016 0.015626,-0.00550394 0.0235433,-0.0055l0 -0.000125984zm0.809059 0.106669l-0.723299 0 0.270657 0.546815c0.00817323,-0.00117717 0.0164094,-0.00220079 0.0247087,-0.00306693 0.0226496,-0.0023622 0.0447835,-0.00358268 0.0662795,-0.00358268l3.93701e-006 0c0.0215,0 0.0436339,0.00122047 0.0662795,0.00358268 0.00829921,0.000866142 0.0165394,0.00188976 0.0247126,0.00306693l0.270657 -0.546815z"/>
     <path id="_511127296" class="fil0" d="M2.06131 1.85865c0,-0.0441811 0.0358189,-0.08 0.08,-0.08 0.0441811,0 0.08,0.0358189 0.08,0.08l0 0.391228c0,0.0441811 -0.0358189,0.08 -0.08,0.08 -0.0441811,0 -0.08,-0.0358189 -0.08,-0.08l0 -0.391228z"/>
    </g>
    <g>
     <path id="_511127728" class="fil0" d="M4.06851 2.14316l3.93701e-006 0c0.221933,0 0.423622,0.0907165 0.569768,0.236866 0.14615,0.146146 0.236866,0.347835 0.236866,0.569768l0 2.79314c0,0.0757126 -0.0309016,0.144476 -0.0806772,0.194252 -0.0497756,0.0497756 -0.118539,0.0806772 -0.194252,0.0806772l-1.06341 0c-0.0757126,0 -0.144476,-0.0309016 -0.194252,-0.0806772 -0.0497756,-0.0497756 -0.0806772,-0.118539 -0.0806772,-0.194252l0 -2.79314c0,-0.221933 0.0907165,-0.423622 0.236866,-0.569768 0.146146,-0.14615 0.347835,-0.236866 0.569768,-0.236866zm3.93701e-006 0.213339l-3.93701e-006 0c-0.163047,0 -0.311354,0.0667795 -0.418933,0.174362 -0.107583,0.107579 -0.174362,0.255886 -0.174362,0.418933l0 2.79314c0,0.0168268 0.00696457,0.0322087 0.0181732,0.0434173 0.0112087,0.0112087 0.0265906,0.0181732 0.0434173,0.0181732l1.06341 0c0.0168268,0 0.0322087,-0.00696457 0.0434173,-0.0181732 0.0112087,-0.0112087 0.0181732,-0.0265906 0.0181732,-0.0434173l0 -2.79314c0,-0.163047 -0.0667795,-0.311354 -0.174362,-0.418933 -0.107579,-0.107583 -0.255886,-0.174362 -0.418933,-0.174362z"/>
     <path id="_511127608" class="fil0" d="M3.6211 1.55208l0.894819 0c0.0294528,0 0.0533346,0.0238819 0.0533346,0.0533346 0,0.0098622 -0.0026811,0.0191024 -0.00735039,0.0270276l-0.324697 0.655992c-0.0111614,0.0226181 -0.0362559,0.0337913 -0.0598031,0.0282756 -0.0176378,-0.00368504 -0.0354764,-0.00649606 -0.0534488,-0.00837795 -0.0173661,-0.00181102 -0.0358583,-0.00274803 -0.0554449,-0.00274803l-3.93701e-006 0c-0.0195866,0 -0.0380748,0.000937008 -0.0554409,0.00274803 -0.0183976,0.00192126 -0.0366654,0.00482677 -0.0547087,0.00864173 -0.0244764,0.00509055 -0.0485236,-0.00752756 -0.0588346,-0.029126l-0.32613 -0.65889c-0.013,-0.0263465 -0.0021811,-0.058252 0.0241654,-0.071252 0.00758268,-0.00374016 0.015626,-0.00550394 0.0235433,-0.0055l0 -0.000125984zm0.809059 0.106669l-0.723299 0 0.270657 0.546815c0.00817717,-0.00117717 0.0164134,-0.00220079 0.0247126,-0.00306693 0.0226457,-0.0023622 0.0447756,-0.00358268 0.0662756,-0.00358268l3.93701e-006 0c0.0215,0 0.0436378,0.00122047 0.0662795,0.00358268 0.00829921,0.000866142 0.0165394,0.00188976 0.0247126,0.00306693l0.270657 -0.546815z"/>
     <path id="_511127680" class="fil0" d="M3.98851 1.85865c0,-0.0441811 0.0358189,-0.08 0.08,-0.08 0.0441811,0 0.08,0.0358189 0.08,0.08l0 0.391228c0,0.0441811 -0.0358189,0.08 -0.08,0.08 -0.0441811,0 -0.08,-0.0358189 -0.08,-0.08l0 -0.391228z"/>
    </g>
   </g>
   <path id="_511127560" class="fil0" d="M3.97193 1.98617c-0.0589094,0 -0.106669,-0.0477598 -0.106669,-0.106669 0,-0.0589094 0.0477598,-0.106669 0.106669,-0.106669l0.193157 0c0.0589094,0 0.106669,0.0477598 0.106669,0.106669 0,0.0589094 -0.0477598,0.106669 -0.106669,0.106669l-0.193157 0z"/>
   <path id="_511127464" class="fil0" d="M2.18967 1.89829c0,0.0294528 -0.0238819,0.0533346 -0.0533346,0.0533346 -0.0294528,0 -0.0533346,-0.0238819 -0.0533346,-0.0533346l0 -0.295008c0,-0.0958465 0.0391772,-0.182945 0.102283,-0.246051 0.0631063,-0.0631063 0.150209,-0.102283 0.246055,-0.102283l1.34714 0c0.0958465,0 0.182949,0.0391772 0.246055,0.102283 0.0631063,0.0631063 0.102283,0.150205 0.102283,0.246051l0 0.295008c0,0.0294528 -0.0238819,0.0533346 -0.0533346,0.0533346 -0.0294528,0 -0.0533346,-0.0238819 -0.0533346,-0.0533346l0 -0.295008c0,-0.0664016 -0.0272087,-0.126811 -0.0710315,-0.170634 -0.0438228,-0.0438228 -0.104236,-0.0710315 -0.170638,-0.0710315l-1.34714 0c-0.0664016,0 -0.126815,0.0272087 -0.170638,0.0710315 -0.0438228,0.0438228 -0.0710315,0.104232 -0.0710315,0.170634l0 0.295008z"/>
   <path id="_511127776" class="fil0" d="M3.11758 1.30261c0,0.0294528 -0.0238819,0.0533346 -0.0533346,0.0533346 -0.0294528,0 -0.0533346,-0.0238819 -0.0533346,-0.0533346l0 -0.193575c0,-0.0679528 0.0277638,-0.129697 0.0724882,-0.174417 0.0447205,-0.0447244 0.106465,-0.0724882 0.174417,-0.0724882l1.93392 0c0.0679528,0 0.129689,0.0277677 0.174417,0.0724882 0.0447244,0.0447244 0.0724882,0.106469 0.0724882,0.174417l0 1.87089c0,0.0294528 -0.0238819,0.0533346 -0.0533346,0.0533346 -0.0294528,0 -0.0533346,-0.0238819 -0.0533346,-0.0533346l0 -1.87089c0,-0.0385039 -0.0157953,-0.0735591 -0.0412362,-0.099 -0.0254409,-0.025437 -0.0604921,-0.0412362 -0.099,-0.0412362l-1.93392 0c-0.0385079,0 -0.073563,0.0157953 -0.099,0.0412362 -0.0254409,0.025437 -0.0412362,0.0604921 -0.0412362,0.099l0 0.193575z"/>
  </g>
  <path class="fil1" d="M2.73461 5.74294l0 -2.79314c0,-0.163047 -0.0667795,-0.311354 -0.174362,-0.418933 -0.107579,-0.107583 -0.255886,-0.174362 -0.418937,-0.174362 -0.163047,0 -0.311354,0.0667795 -0.418933,0.174362 -0.107583,0.107579 -0.174362,0.255886 -0.174362,0.418933l0 2.79314c0,0.0168268 0.00696457,0.0322087 0.0181732,0.0434173 0.0112087,0.0112087 0.0265906,0.0181732 0.0434173,0.0181732l1.06341 0c0.0168268,0 0.0322087,-0.00696457 0.0434173,-0.0181732 0.0112087,-0.0112087 0.0181732,-0.0265906 0.0181732,-0.0434173z"/>
  <path class="fil1" d="M3.47521 2.9498l0 2.79314c0,0.0168268 0.00696457,0.0322087 0.0181732,0.0434173 0.0112087,0.0112087 0.0265906,0.0181732 0.0434173,0.0181732l1.06341 0c0.0168268,0 0.0322087,-0.00696457 0.0434173,-0.0181732 0.0112087,-0.0112087 0.0181732,-0.0265906 0.0181732,-0.0434173l0 -2.79314c0,-0.163047 -0.0667795,-0.311354 -0.174362,-0.418933 -0.107579,-0.107583 -0.255886,-0.174362 -0.418937,-0.174362 -0.163047,0 -0.311354,0.0667795 -0.418933,0.174362 -0.107583,0.107579 -0.174362,0.255886 -0.174362,0.418933z"/>
  <path class="fil2" d="M4.14851 2.14712c0.012626,0.00125591 0.0251654,0.00280709 0.0376181,0.00464173l0.244028 -0.493012 -0.303339 0 0 0.114075 0.0382717 0c0.0589094,0 0.106669,0.0477598 0.106669,0.106669 0,0.0589094 -0.0477598,0.106669 -0.106669,0.106669l-0.0165787 0 0 0.160957z"/>
  <path class="fil2" d="M3.86526 1.8795c0,-0.0589094 0.0477598,-0.106669 0.106669,-0.106669l0.0482165 0 0 -0.114075 -0.313291 0 0.244028 0.493016c0.0124528,-0.00183858 0.025,-0.00338976 0.037626,-0.00464567l0 -0.160957 -0.0165787 0c-0.0589094,0 -0.106669,-0.0477598 -0.106669,-0.106669z"/>
  <path class="fil2" d="M2.083 1.77283l0 -0.114075 -0.303343 0 0.244028 0.493016c0.0124528,-0.00183858 0.025,-0.00338976 0.037626,-0.00464567l0 -0.160957 -0.0165787 0c-0.0589094,0 -0.106669,-0.0477598 -0.106669,-0.106669 0,-0.0589094 0.0477598,-0.106669 0.106669,-0.106669l0.0382677 0z"/>
  <path class="fil2" d="M2.18967 1.65875l0 0.114075 0.0482205 0c0.0589094,0 0.106669,0.0477598 0.106669,0.106669 0,0.0589094 -0.0477598,0.106669 -0.106669,0.106669l-0.0165787 0 0 0.160957c0.012626,0.00125591 0.0251654,0.00280709 0.0376181,0.00464173l0.244028 -0.493012 -0.313287 0z"/>
 </g>
 <rect class="fil3" width="6.82666" height="6.82666"/>
</svg>
