<?xml version="1.0" encoding="UTF-8"?>
<!DOCTYPE svg PUBLIC "-//W3C//DTD SVG 1.1//EN" "http://www.w3.org/Graphics/SVG/1.1/DTD/svg11.dtd">
<!-- Creator: CorelDRAW -->
<svg xmlns="http://www.w3.org/2000/svg" xml:space="preserve" width="6.82666in" height="6.82666in" style="shape-rendering:geometricPrecision; text-rendering:geometricPrecision; image-rendering:optimizeQuality; fill-rule:evenodd; clip-rule:evenodd"
viewBox="0 0 6.82666 6.82666"
 xmlns:xlink="http://www.w3.org/1999/xlink">
 <defs>
  <style type="text/css">
   <![CDATA[
    .fil4 {fill:none}
    .fil0 {fill:#949494}
    .fil3 {fill:#F45A52}
    .fil2 {fill:#FECA5F}
    .fil1 {fill:#212121;fill-rule:nonzero}
   ]]>
  </style>
 </defs>
 <g id="Layer_x0020_1">
  <metadata id="CorelCorpID_0Corel-Layer"/>
  <path class="fil0" d="M4.01876 3.25629l-0.000397638 -0.000503937 0.000397638 0.000503937zm-0.600126 1.86329c-0.152858,-0.000901575 -0.308992,-0.0559567 -0.458173,-0.160961 -0.0140866,-0.00850787 -0.0264094,-0.0204173 -0.035622,-0.0354055 -0.0569803,-0.0926535 -0.0889646,-0.18998 -0.100579,-0.28902 -0.0609409,-0.0599843 -0.117079,-0.128386 -0.15778,-0.198472 -0.0229803,-0.0395669 -0.0433937,-0.0821732 -0.0604764,-0.128 -0.0372323,-0.0998819 -0.0524016,-0.189035 -0.0608189,-0.300205l-0.0026063 -0.0540512 0.000385827 0 -0.000295276 -0.0424921c0.000177165,-0.00312992 0.000212598,-0.00623622 0.00011811,-0.00932283 0.000814961,-0.0302441 0.00298031,-0.0634134 0.00675197,-0.0996535 0.0173425,-0.166622 0.0688386,-0.356122 0.136008,-0.513205 0.0484803,-0.113378 0.111744,-0.224661 0.189201,-0.304886 -0.00304724,0.101713 0.00581496,0.206685 0.0487677,0.278626 0.0392638,0.0657559 0.123169,0.0714291 0.170803,0.0205472 0.0914134,-0.0976496 0.10122,-0.350417 0.10122,-0.479382 0,-0.0691299 0.005,-0.13715 0.015252,-0.202909 0.0114921,-0.073689 0.0252992,-0.126709 0.0481732,-0.199374 0.0517244,-0.164307 0.159374,-0.346402 0.293528,-0.461575 -0.00272047,0.0696102 -0.000692913,0.169665 0.0180748,0.292705 0.0550276,0.360728 0.219075,0.71126 0.446878,1.02195l0.00131496 0.00179134 0.000358268 0.000492126 0.00272441 0.00388976c0.0992165,0.139185 0.163862,0.26976 0.204091,0.38913 0.0399331,0.118488 0.0559843,0.225681 0.058122,0.319055 0.00317323,0.138831 -0.025374,0.274622 -0.0736181,0.376453 -0.0547756,0.115618 -0.131063,0.222331 -0.222346,0.31176 -0.0244803,0.109811 -0.0691181,0.201339 -0.114748,0.272358l-7.48031e-005 -4.72441e-005c-0.00537795,0.00837008 -0.0120197,0.016126 -0.0199252,0.0229646 -0.131374,0.113815 -0.279744,0.16815 -0.434709,0.167236zm-1.0887 -1.2173l0 0zm0.726531 -1.5667l0 0zm0.724941 -0.134705c0.0501378,0.328654 0.201646,0.647492 0.409028,0.929579l0.00614961 0.00885827c0.111354,0.156547 0.184677,0.305461 0.231024,0.442984 0.0783858,0.232587 0.0890827,0.467142 0.0374213,0.67652 -0.0280354,0.113626 -0.0704685,0.203669 -0.123252,0.291512 -0.0762402,0.126874 -0.168386,0.231378 -0.280421,0.327016l0.000106299 0.000125984c-0.195791,0.163709 -0.41885,0.243764 -0.642823,0.24213 -0.210146,-0.0015315 -0.421098,-0.0749803 -0.611094,-0.218724 -0.0810157,-0.0612953 -0.156673,-0.134827 -0.223937,-0.214516 -0.00178346,-0.00211024 -0.00347244,-0.00426772 -0.00506693,-0.00647244 -0.112862,-0.135941 -0.185008,-0.294531 -0.221224,-0.471567 -0.0154685,-0.0756063 -0.0246339,-0.154854 -0.0268819,-0.235583l-0.00102756 -0.0201811 0.0005 -0.0502717 0.0079685 -0.121957c0.013748,-0.13198 0.0444134,-0.266839 0.0848701,-0.39485 0.0671417,-0.212449 0.181587,-0.449854 0.341854,-0.590102 0.0617402,-0.0540276 0.146701,-0.0629685 0.218039,-0.0270787 0.00334646,-0.137409 0.0283425,-0.298035 0.0724843,-0.428823l0.00131102 -0.00390551 0.000318898 -0.000870079c0.0231417,-0.070185 0.052311,-0.139665 0.0877559,-0.207567 0.0750787,-0.143819 0.177409,-0.278815 0.306945,-0.379248 0.0381575,-0.0295827 0.085122,-0.0437795 0.133563,-0.0404528l1.9685e-005 -0.000259843c0.0744291,0.00533465 0.140728,0.0536102 0.168433,0.123378 0.0108504,0.0273228 0.0161181,0.0613543 0.0132402,0.0919094 -0.00385039,0.058315 -0.00434646,0.153579 0.0146969,0.278417zm1.88285 -0.171228c-0.0579291,-0.222795 -0.141181,-0.435874 -0.2465,-0.636008 -0.0851496,0.0162047 -0.172004,0.029126 -0.260445,0.0385866 -0.114165,0.0122126 -0.228661,0.0185079 -0.343102,0.0185079 -0.256681,0 -0.506425,-0.0302323 -0.74585,-0.087315 -0.228445,-0.0544724 -0.44778,-0.133642 -0.655024,-0.234547 -0.207276,0.100898 -0.426626,0.180079 -0.655091,0.234547 -0.239402,0.0570787 -0.489118,0.087315 -0.745776,0.087315 -0.114461,0 -0.22898,-0.00629921 -0.343165,-0.0185157 -0.0884685,-0.00946457 -0.175343,-0.0223898 -0.260516,-0.0386063 -0.105287,0.200087 -0.1885,0.413122 -0.246402,0.635882 -0.0624646,0.240327 -0.0957126,0.49337 -0.0957126,0.755169 0,0.712673 0.249083,1.36711 0.664921,1.88102 0.419382,0.518291 1.0081,0.893685 1.68174,1.04194 0.673646,-0.14826 1.26236,-0.523654 1.68174,-1.04194 0.415839,-0.513913 0.664921,-1.16835 0.664921,-1.88102 0,-0.261752 -0.0332677,-0.514736 -0.0957441,-0.755016z"/>
  <path class="fil1" d="M5.56865 1.22502c0.130256,0.23348 0.232307,0.485461 0.301429,0.751299 0.067374,0.259114 0.103248,0.530031 0.103248,0.808346 0,0.763441 -0.266878,1.46456 -0.712425,2.01519 -0.45387,0.560917 -1.09349,0.965646 -1.82549,1.12092 -0.0159528,0.00338189 -0.0318268,0.00299213 -0.0467047,-0.000555118 -0.730941,-0.155673 -1.36961,-0.560098 -1.82296,-1.12037 -0.445547,-0.55063 -0.712425,-1.25174 -0.712425,-2.01519 0,-0.278354 0.0358543,-0.549331 0.103217,-0.8085 0.0694409,-0.267161 0.172138,-0.520327 0.303335,-0.754772 0.023437,-0.041815 0.0708858,-0.0616929 0.115413,-0.0520591l3.93701e-006 -2.3622e-005c0.104492,0.0226496 0.210114,0.0398583 0.316504,0.0512402 0.10389,0.0111181 0.210843,0.0168465 0.320661,0.0168465 0.239961,0 0.473209,-0.0282165 0.69661,-0.0814803 0.230689,-0.055 0.450602,-0.136441 0.656343,-0.240862 0.0313622,-0.0158189 0.0668386,-0.0146417 0.0959567,6.29921e-005 0.205673,0.104398 0.425528,0.185811 0.656146,0.240799 0.223425,0.0532677 0.456701,0.0814803 0.696685,0.0814803 0.109799,0 0.216728,-0.00572441 0.320598,-0.0168386 0.106366,-0.011378 0.211965,-0.0285787 0.316433,-0.0512205 0.0482835,-0.0104291 0.0959882,0.0136575 0.117421,0.0556811zm0.0955945 0.80463c-0.0579291,-0.222795 -0.141181,-0.435874 -0.2465,-0.636008 -0.0851496,0.0162047 -0.172004,0.029126 -0.260445,0.0385866 -0.114165,0.0122126 -0.228661,0.0185079 -0.343102,0.0185079 -0.256681,0 -0.506425,-0.0302323 -0.74585,-0.087315 -0.228445,-0.0544724 -0.44778,-0.133642 -0.655024,-0.234547 -0.207276,0.100898 -0.426626,0.180079 -0.655091,0.234547 -0.239402,0.0570787 -0.489118,0.087315 -0.745776,0.087315 -0.114461,0 -0.22898,-0.00629921 -0.343165,-0.0185157 -0.0884685,-0.00946457 -0.175343,-0.0223898 -0.260516,-0.0386063 -0.105287,0.200087 -0.1885,0.413122 -0.246402,0.635882 -0.0624646,0.240327 -0.0957126,0.49337 -0.0957126,0.755169 0,0.712673 0.249083,1.36711 0.664921,1.88102 0.419382,0.518291 1.0081,0.893685 1.68174,1.04194 0.673646,-0.14826 1.26236,-0.523654 1.68174,-1.04194 0.415839,-0.513913 0.664921,-1.16835 0.664921,-1.88102 0,-0.261752 -0.0332677,-0.514736 -0.0957441,-0.755016zm-2.203 -1.11459l0.000122047 6.29921e-005"/>
  <g id="_511128040">
   <path id="_511129048" class="fil1" d="M2.57854 4.67989c-0.0349803,-0.0421339 -0.0674055,-0.087878 -0.0962205,-0.137496 -0.0281732,-0.0485118 -0.0536181,-0.101858 -0.0754764,-0.160504 -0.0201299,-0.0539961 -0.0368898,-0.11178 -0.0495276,-0.173567 -0.0115787,-0.0565906 -0.0197756,-0.116028 -0.0240236,-0.178402 -0.000622047,-0.00455512 -0.000948819,-0.00920866 -0.000976378,-0.0139252l-0.000456693 -0.00817717c-9.44882e-005,-0.0017126 -0.000389764,-0.00798819 -0.000866142,-0.0185472 -0.000110236,-0.00246063 -0.000295276,-0.00775984 -0.000559055,-0.0165315l-0.000169291 -0.0066063c-0.000566929,-0.00444488 -0.000858268,-0.00897638 -0.000858268,-0.0135748l0 -0.0413465c0,-0.000492126 0.000169291,-0.00233858 0.0005,-0.00850787l2.75591e-005 -0.000417323 -2.75591e-005 0c0.000114173,-0.00204331 0.000248031,-0.00398031 0.000405512,-0.00579921 0.000980315,-0.0374291 0.00340551,-0.0762402 0.00756299,-0.116157 0.0040748,-0.0391102 0.0100472,-0.0814173 0.0182283,-0.127071 0.00800394,-0.0446772 0.017374,-0.0889646 0.0282441,-0.13239 0.011126,-0.0444291 0.023874,-0.089626 0.0383976,-0.13539 0.000732283,-0.00232677 0.00154724,-0.00460236 0.00242126,-0.00684252 0.0209331,-0.0644252 0.0426299,-0.121917 0.0645512,-0.173173 0.0256732,-0.0600433 0.052063,-0.112673 0.0781929,-0.158673 0.0359213,-0.063248 0.0717165,-0.114287 0.104843,-0.155102 0.0339488,-0.0418228 0.0655079,-0.0732717 0.0918465,-0.096311 0.0198858,-0.0174094 0.0420591,-0.0298937 0.0653307,-0.037937 0.0250984,-0.0086811 0.0504843,-0.0119331 0.0748898,-0.0104252 0.0132559,0.000814961 0.0261614,0.00292913 0.0385,0.00620866 0.0127402,0.0033937 0.0250787,0.0080315 0.0367835,0.0137992l0.00253543 0.00127559c0.00159055,-0.0652874 0.00757874,-0.132177 0.0181575,-0.200012 0.0120945,-0.0775315 0.0299724,-0.153787 0.0539094,-0.227563l0.00042126 -0.00124803 -3.93701e-006 0 0.000476378 -0.00140551 0.000704724 -0.00199606 0.000161417 -0.000492126 -3.14961e-005 -1.1811e-005 0.000318898 -0.000870079c0.0231417,-0.070185 0.052311,-0.139665 0.0877559,-0.207567 0.0347874,-0.0666299 0.0749252,-0.130295 0.120591,-0.19002 0.0130748,-0.0170945 0.0272795,-0.0345394 0.0426457,-0.0522677 0.0146693,-0.0169252 0.0297913,-0.0333504 0.0453386,-0.0491575 0.014622,-0.0148701 0.0306693,-0.0301496 0.0482008,-0.045815 0.0170512,-0.0152362 0.0338071,-0.0292874 0.0501693,-0.0419882 0.00116929,-0.000905512 0.00235827,-0.00177165 0.00355118,-0.00261811 0.00135433,-0.00101575 0.00255906,-0.00188583 0.00362205,-0.00262205 0.00315748,-0.0021811 0.00572835,-0.00388583 0.00766142,-0.00507087l0.000326772 -0.000192913c0.00659449,-0.00427165 0.0125276,-0.00772047 0.0178268,-0.0103543 0.00725984,-0.00361811 0.0153504,-0.00693307 0.0241535,-0.00993701 0.00974016,-0.00332283 0.0205866,-0.00588189 0.0323268,-0.00769685 0.0109488,-0.00169685 0.0218819,-0.00244882 0.0326457,-0.00229921l0.00522047 7.87402e-005c0.00209449,2.3622e-005 0.00416535,0.00011811 0.00622835,0.000259843l1.9685e-005 -0.000259843c0.0236732,0.00169685 0.0471063,0.00801181 0.0690315,0.0182441 0.0216339,0.0100945 0.0413701,0.0239961 0.0579567,0.0410236 0.0173819,0.0178268 0.0316496,0.0394409 0.0414449,0.0641102 0.00863386,0.0217402 0.0135433,0.0454331 0.0137283,0.0704843 0.000212598,0.00273622 0.000318898,0.00550787 0.000318898,0.00829921 0,0.00444488 -0.000279528,0.00882283 -0.000807087,0.013126 -0.00385039,0.058315 -0.00434646,0.153579 0.0146969,0.278417 0.0136496,0.0894724 0.0373976,0.193602 0.0772165,0.309362 0.0337717,0.098189 0.078311,0.203193 0.136803,0.312591 0.0522126,0.0976378 0.11637,0.200539 0.195008,0.307626l0.00362205 0.00492126c0.000877953,0.00129921 0.00171654,0.00261417 0.00252756,0.00393701 0.111354,0.156547 0.184677,0.305461 0.231024,0.442984 0.0473071,0.14037 0.0663661,0.269154 0.0689567,0.382394 0.00264567,0.115803 -0.0120197,0.215039 -0.0315354,0.294126 -0.0198701,0.0805433 -0.044878,0.141055 -0.0620827,0.177327 -0.00840945,0.0177677 -0.0182677,0.0371811 -0.0294252,0.0580512 -0.0108504,0.0202835 -0.021437,0.0389764 -0.0317441,0.0561339 -0.012878,0.0214252 -0.0243386,0.0395512 -0.0344528,0.0545669 -0.0116024,0.0172244 -0.0237559,0.0342047 -0.0363898,0.0509094 -0.0312913,0.0413622 -0.0641969,0.0803228 -0.0985157,0.116843 -0.0336339,0.0357953 -0.0695,0.0696811 -0.107366,0.101602l-0.00175984 0.00144094 -0.00193701 0.00165354 0.000106299 0.000125984c-0.0932205,0.0779449 -0.192551,0.136996 -0.295429,0.177335 -0.105587,0.0413976 -0.215079,0.0628898 -0.325744,0.0646772 -0.110327,0.00178346 -0.22061,-0.0161614 -0.328122,-0.0535866 -0.105413,-0.0366969 -0.207827,-0.0917913 -0.304622,-0.16502 -0.0390157,-0.0295197 -0.0777874,-0.0626614 -0.116114,-0.0993976 -0.0371575,-0.0356102 -0.0731614,-0.074 -0.107823,-0.115118 -0.00178346,-0.00211024 -0.00347244,-0.00426772 -0.00506693,-0.00647244zm0.0879449 -0.244165c0.023311,0.0401417 0.0485512,0.0760276 0.0750669,0.108091 0.00156299,0.00162598 0.00308268,0.00329921 0.00455906,0.00504331 0.0303937,0.0360551 0.0613819,0.0691575 0.0928228,0.0992913 0.0311457,0.0298543 0.0635236,0.0574449 0.0969409,0.0827283 0.0795118,0.0601535 0.162295,0.104941 0.246291,0.134185 0.0840472,0.0292559 0.169681,0.0432953 0.254791,0.0419173 0.0844921,-0.00136614 0.169039,-0.0181457 0.251571,-0.0505039 0.0815157,-0.0319606 0.160933,-0.0793465 0.236264,-0.142335l7.48031e-005 8.66142e-005c0.00211811,-0.00176378 0.00431102,-0.00346063 0.00659449,-0.00508661l3.93701e-006 -3.93701e-006c0.0283701,-0.0241339 0.0570472,-0.0515669 0.0859528,-0.0823228 0.0283583,-0.0301772 0.0562402,-0.0632874 0.0835157,-0.0993386 0.00964567,-0.0127559 0.0195591,-0.0266575 0.0297205,-0.0417441 0.011189,-0.0166102 0.0207756,-0.0315197 0.0286181,-0.0445669 0.00972441,-0.016185 0.0186693,-0.031874 0.0267441,-0.0469685 0.00736614,-0.0137795 0.0154961,-0.0300157 0.0244252,-0.0488858 0.0131732,-0.0277717 0.0323819,-0.0743622 0.0479173,-0.137327 0.0158976,-0.0644291 0.0278465,-0.145154 0.0257008,-0.239126 -0.0021378,-0.093374 -0.018189,-0.200567 -0.058122,-0.319055 -0.0402283,-0.11937 -0.104874,-0.249945 -0.204091,-0.38913 -0.00154331,-0.00197638 -0.00303543,-0.00401575 -0.00446063,-0.00612992 -0.000137795,-0.000204724 -0.000106299,-0.000173228 2.3622e-005,-1.5748e-005l3.93701e-005 -2.75591e-005c-0.0832598,-0.113555 -0.152315,-0.224681 -0.209528,-0.331669 -0.0656024,-0.122693 -0.11461,-0.237717 -0.150969,-0.343425 -0.0443898,-0.129043 -0.0709882,-0.245953 -0.0863819,-0.346858 -0.0187677,-0.123039 -0.0207953,-0.223094 -0.0180748,-0.292705 -0.00325591,0.00279528 -0.00644094,0.00558268 -0.00954331,0.0083622 -0.0120354,0.010752 -0.0248071,0.0230276 -0.0382008,0.0366496 -0.0127126,0.0129252 -0.0247717,0.0260039 -0.0361732,0.0391575 -0.0114409,0.0132008 -0.0228976,0.0273386 -0.034315,0.0422677 -0.0391142,0.0511575 -0.0728543,0.104457 -0.101425,0.159185 -0.0291969,0.0559213 -0.0537677,0.114878 -0.0738701,0.175953 -0.000614173,0.00204331 -0.00128346,0.00407874 -0.00202756,0.0061063l-0.000346457 0.000940945c-0.0206339,0.0639449 -0.0358189,0.128343 -0.0457992,0.192327 -0.010252,0.0657598 -0.015252,0.13378 -0.015252,0.202909 0,0.0370079 -0.00111811,0.0756181 -0.00327165,0.115228 -0.00216929,0.0400197 -0.00515748,0.075378 -0.00887008,0.105689 -0.00388976,0.0317323 -0.00882677,0.0616457 -0.0147283,0.0892638 -0.00593701,0.0277992 -0.0131693,0.0532047 -0.0216024,0.0757205 -0.00705906,0.0188661 -0.014315,0.0351181 -0.0215906,0.0487402 -0.00972835,0.0182008 -0.0202126,0.0331142 -0.0311575,0.0447402 -0.00614961,0.0066063 -0.0132402,0.0125315 -0.0212362,0.0175669 -0.0497047,0.0312953 -0.11537,0.0163701 -0.146665,-0.0333346 -0.000637795,-0.00101181 -0.00161811,-0.00262598 -0.00290157,-0.00477953 -0.00494094,-0.00825984 -3.14961e-005,0.000535433 -0.0030748,-0.00479134 -0.0192126,-0.0334882 -0.0338937,-0.0812795 -0.0410591,-0.142543 -0.00434646,-0.0371417 -0.00614173,-0.080937 -0.00463386,-0.131291 -0.0114724,0.0118819 -0.0238701,0.0257717 -0.037,0.0419449 -0.0263307,0.0324449 -0.055189,0.0737244 -0.0848425,0.125937 -0.0221654,0.0390197 -0.0448583,0.084378 -0.0673583,0.137004 -0.0197717,0.0462323 -0.0391063,0.0972717 -0.0574488,0.153516 -0.000586614,0.00244882 -0.00125984,0.00489764 -0.00202756,0.00733465 -0.0138504,0.0436378 -0.0254606,0.0845591 -0.0350591,0.122894 -0.0109724,0.0438386 -0.0194567,0.083126 -0.025748,0.118224 -0.00677953,0.0378346 -0.0119528,0.0750039 -0.0157244,0.111236 -0.00377165,0.0362402 -0.00593701,0.0694094 -0.00675197,0.0996535 9.44882e-005,0.00308661 5.90551e-005,0.00619291 -0.00011811,0.00932283 3.93701e-005,-0.000330709 7.08661e-005,-0.000354331 7.08661e-005,0.00023622l0 0.0345c0.000141732,0.00226378 0.000224409,0.00454331 0.000224409,0.00684646l0 0.000909449 -0.000385827 0c7.08661e-005,0.00353937 0.00019685,0.00806693 0.000354331,0.013437 5.51181e-005,0.00187795 0.000255906,0.00649213 0.000559055,0.0132008 0.000102362,0.00233858 0.000389764,0.00758661 0.000866142,0.0160433l0.000866142 0.0113661 -3.93701e-005 3.93701e-006 9.44882e-005 0.00124803c0.00354331,0.0565906 0.0105,0.108843 0.0203622,0.157051 0.0104409,0.0510512 0.0240945,0.0982638 0.0403622,0.141906 0.0170827,0.0458268 0.0374961,0.0884331 0.0604764,0.128zm-0.124098 -0.521768l-1.9685e-005 0.000417323 3.54331e-005 -0.000417323 -1.5748e-005 0zm1.47638 -0.657665l-0.00131496 -0.00179134 -3.93701e-005 2.75591e-005c0.000366142,0.00046063 0.00151969,0.00200394 0.0017126,0.00225591l-5.11811e-005 -7.48031e-005 -0.000307087 -0.000417323zm-0.0896417 1.45483l0.000448819 -0.000377953 -1.5748e-005 -1.9685e-005 -3.14961e-005 2.75591e-005 -0.000405512 0.000362205 3.93701e-006 7.87402e-006zm0.000448819 -0.000377953l0.000791339 -0.000673228 -0.000807087 0.000653543 1.5748e-005 1.9685e-005z"/>
   <path id="_511129096" class="fil1" d="M3.09605 4.79373c0.109303,0.0740039 0.219343,0.112736 0.323417,0.11335 0.0989173,0.000582677 0.195161,-0.0337402 0.282764,-0.105508 0.0437953,-0.0716142 0.0844528,-0.167831 0.0912008,-0.28413 0.00546457,-0.0941102 -0.0109173,-0.202295 -0.0649055,-0.322992 -0.113591,-0.253917 -0.205594,-0.448831 -0.271008,-0.583732 -0.0487795,0.11824 -0.120685,0.263362 -0.221094,0.400878 -0.0996417,0.136437 -0.174839,0.290575 -0.197291,0.443433 -0.0170906,0.116319 -0.00269291,0.232339 0.0569173,0.338701zm0.322583 0.325854c-0.152858,-0.000901575 -0.308992,-0.0559567 -0.458173,-0.160961 -0.0140866,-0.00850787 -0.0264094,-0.0204173 -0.035622,-0.0354055 -0.0969685,-0.157669 -0.121539,-0.328878 -0.0965394,-0.499024 0.0277087,-0.188614 0.117713,-0.375004 0.236457,-0.537598 0.198094,-0.271291 0.270823,-0.574913 0.271035,-0.575791l9.05512e-005 2.3622e-005c0.00696457,-0.0287323 0.025811,-0.0544331 0.0540787,-0.069189 0.0520039,-0.0271496 0.116181,-0.00700394 0.143331,0.045 0.000429134,0.000822835 0.148354,0.282299 0.389402,0.821142 0.0695079,0.155398 0.0904685,0.296882 0.0832441,0.421331 -0.00974803,0.167953 -0.0702441,0.303276 -0.132594,0.400319l-7.48031e-005 -4.72441e-005c-0.00537795,0.00837008 -0.0120197,0.016126 -0.0199252,0.0229646 -0.131374,0.113815 -0.279744,0.16815 -0.434709,0.167236z"/>
  </g>
  <path class="fil2" d="M3.09605 4.79373c0.104634,0.0708425 0.209941,0.109362 0.310043,0.113063 0.0070748,0.000192913 0.0141496,0.000279528 0.0212205,0.000259843 1.5748e-005,0 3.14961e-005,0 4.33071e-005,0 0.0961417,-0.00124409 0.189602,-0.035622 0.274874,-0.10548 0.0437953,-0.0716142 0.0844528,-0.167831 0.0912008,-0.28413 0.00546457,-0.0941102 -0.0109173,-0.202295 -0.0649055,-0.322992 -0.113591,-0.253917 -0.205594,-0.448831 -0.271008,-0.583732 -0.0487795,0.11824 -0.120685,0.263362 -0.221094,0.400878 -0.0996417,0.136437 -0.174839,0.290575 -0.197291,0.443433 -0.0170906,0.116319 -0.00269291,0.232339 0.0569173,0.338701z"/>
  <path class="fil3" d="M4.01741 3.25453l0 0zm-1.47218 0.752988l0 0zm0.988067 -0.720878c0.000429134,0.000822835 0.148354,0.282299 0.389402,0.821142 0.0695079,0.155398 0.0904685,0.296882 0.0832441,0.421331 -0.00261417,0.0450354 -0.00887795,0.0877244 -0.0178465,0.127961 0.0912835,-0.0894291 0.167571,-0.196142 0.222346,-0.31176 0.0482441,-0.101831 0.0767913,-0.237622 0.0736181,-0.376453 -0.0021378,-0.093374 -0.018189,-0.200567 -0.058122,-0.319055 -0.0402283,-0.11937 -0.104874,-0.249945 -0.204091,-0.38913l-0.00439764 -0.00617323c-0.227803,-0.310693 -0.39185,-0.661224 -0.446878,-1.02195 -0.0187677,-0.123039 -0.0207953,-0.223094 -0.0180748,-0.292705 -0.134154,0.115173 -0.241803,0.297268 -0.293528,0.461575 -0.022874,0.0726654 -0.0366811,0.125685 -0.0481732,0.199374 -0.010252,0.0657598 -0.015252,0.13378 -0.015252,0.202909 0,0.128965 -0.00980709,0.381732 -0.10122,0.479382 -0.0476339,0.0508819 -0.131539,0.0452087 -0.170803,-0.0205472 -0.0429528,-0.0719409 -0.051815,-0.176913 -0.0487677,-0.278626 -0.0774567,0.0802244 -0.14072,0.191508 -0.189201,0.304886 -0.0671693,0.157083 -0.118665,0.346583 -0.136008,0.513205 -0.00377165,0.0362402 -0.00593701,0.0694094 -0.00675197,0.0996535 9.44882e-005,0.00308661 5.90551e-005,0.00619291 -0.00011811,0.00932283l0.000295276 0.0424921 -0.000385827 0 0.0026063 0.0540512c0.00841732,0.111169 0.0235866,0.200323 0.0608189,0.300205 0.0170827,0.0458268 0.0374961,0.0884331 0.0604764,0.128 0.0407008,0.0700866 0.0968386,0.138488 0.15778,0.198472 -0.00814961,-0.0695 -0.00627165,-0.139843 0.00403937,-0.210004 0.0277087,-0.188614 0.117713,-0.375004 0.236457,-0.537598 0.198094,-0.271291 0.270823,-0.574913 0.271035,-0.575791l9.05512e-005 2.3622e-005c0.00696457,-0.0287323 0.025811,-0.0544331 0.0540787,-0.069189 0.0520039,-0.0271496 0.116181,-0.00700394 0.143331,0.045z"/>
 </g>
 <rect class="fil4" width="6.82666" height="6.82666"/>
</svg>
