<?xml version="1.0" encoding="UTF-8"?>
<!DOCTYPE svg PUBLIC "-//W3C//DTD SVG 1.1//EN" "http://www.w3.org/Graphics/SVG/1.1/DTD/svg11.dtd">
<!-- Creator: CorelDRAW -->
<svg xmlns="http://www.w3.org/2000/svg" xml:space="preserve" width="6.82666in" height="6.82666in" style="shape-rendering:geometricPrecision; text-rendering:geometricPrecision; image-rendering:optimizeQuality; fill-rule:evenodd; clip-rule:evenodd"
viewBox="0 0 6.82666 6.82666"
 xmlns:xlink="http://www.w3.org/1999/xlink">
 <defs>
  <style type="text/css">
   <![CDATA[
    .fil4 {fill:none}
    .fil1 {fill:#EBE5DF}
    .fil3 {fill:#F19A7B}
    .fil2 {fill:#FFEDDF}
    .fil0 {fill:#212121;fill-rule:nonzero}
   ]]>
  </style>
 </defs>
 <g id="Layer_x0020_1">
  <metadata id="CorelCorpID_0Corel-Layer"/>
  <g id="_511129768">
   <g>
    <path id="_511131760" class="fil0" d="M0.906665 2.71227l5.01333 0c0.0589094,0 0.106669,0.0477598 0.106669,0.106669l0 3.0212c0,0.0589094 -0.0477598,0.106669 -0.106669,0.106669l-5.01333 0c-0.0589094,0 -0.106669,-0.0477598 -0.106669,-0.106669l0 -3.0212c0,-0.0589094 0.0477598,-0.106669 0.106669,-0.106669zm4.90666 0.213339l-4.79999 0 0 2.80787 4.79999 0 0 -2.80787z"/>
    <path id="_511131424" class="fil0" d="M3.30666 2.8957c0,-0.0589094 0.0477598,-0.106669 0.106669,-0.106669 0.0589094,0 0.106669,0.0477598 0.106669,0.106669l0 2.90991c0,0.0589094 -0.0477598,0.106669 -0.106669,0.106669 -0.0589094,0 -0.106669,-0.0477598 -0.106669,-0.106669l0 -2.90991z"/>
    <path id="_511131400" class="fil0" d="M2.16 3.35983c0.272445,0 0.519114,0.110445 0.697669,0.289 0.178555,0.178555 0.289,0.425224 0.289,0.697669 0,0.272445 -0.110445,0.519114 -0.289,0.697669 -0.178555,0.178559 -0.425224,0.289 -0.697669,0.289 -0.272445,0 -0.519114,-0.110441 -0.697669,-0.289 -0.178559,-0.178555 -0.289,-0.425224 -0.289,-0.697669 0,-0.272445 0.110441,-0.519114 0.289,-0.697669 0.178555,-0.178555 0.425224,-0.289 0.697669,-0.289zm0.546835 0.439835c-0.139937,-0.139937 -0.333276,-0.226496 -0.546835,-0.226496 -0.213559,0 -0.406898,0.0865591 -0.546835,0.226496 -0.139941,0.139937 -0.226496,0.333276 -0.226496,0.546835 0,0.213559 0.0865551,0.406898 0.226496,0.546835 0.139937,0.139941 0.333276,0.226496 0.546835,0.226496 0.213559,0 0.406898,-0.0865551 0.546835,-0.226496 0.139937,-0.139937 0.226496,-0.333276 0.226496,-0.546835 0,-0.213559 -0.0865591,-0.406898 -0.226496,-0.546835z"/>
    <path id="_511131376" class="fil0" d="M4.66666 3.34287c0.272445,0 0.519114,0.110445 0.697669,0.289 0.178559,0.178555 0.289,0.425224 0.289,0.697669 0,0.272445 -0.110441,0.519114 -0.289,0.697669 -0.178555,0.178559 -0.425224,0.289 -0.697669,0.289 -0.272445,0 -0.519114,-0.110441 -0.697669,-0.289 -0.178555,-0.178555 -0.289,-0.425224 -0.289,-0.697669 0,-0.272445 0.110445,-0.519114 0.289,-0.697669 0.178555,-0.178555 0.425224,-0.289 0.697669,-0.289zm0.546835 0.439835c-0.139937,-0.139937 -0.333276,-0.226496 -0.546835,-0.226496 -0.213559,0 -0.406898,0.0865591 -0.546835,0.226496 -0.139937,0.139937 -0.226496,0.333276 -0.226496,0.546835 0,0.213559 0.0865591,0.406898 0.226496,0.546835 0.139937,0.139941 0.333276,0.226496 0.546835,0.226496 0.213559,0 0.406898,-0.0865551 0.546835,-0.226496 0.139941,-0.139937 0.226496,-0.333276 0.226496,-0.546835 0,-0.213559 -0.0865551,-0.406898 -0.226496,-0.546835z"/>
    <g>
     <path id="_511131544" class="fil0" d="M2.05744 3.92901c0,-0.0589094 0.0477598,-0.106669 0.106669,-0.106669 0.0589094,0 0.106669,0.0477598 0.106669,0.106669l0 0.18415c0,0.0589094 -0.0477598,0.106669 -0.106669,0.106669 -0.0589094,0 -0.106669,-0.0477598 -0.106669,-0.106669l0 -0.18415z"/>
     <g>
      <path id="_511131328" class="fil0" d="M1.6853 4.63109c-0.0589094,0 -0.106669,-0.0477598 -0.106669,-0.106669 0,-0.0589094 0.0477598,-0.106669 0.106669,-0.106669l0.147323 0c0.0589094,0 0.106669,0.0477598 0.106669,0.106669 0,0.0589094 -0.0477598,0.106669 -0.106669,0.106669l-0.147323 0z"/>
      <path id="_511131112" class="fil0" d="M2.48738 4.63109c-0.0589094,0 -0.106669,-0.0477598 -0.106669,-0.106669 0,-0.0589094 0.0477598,-0.106669 0.106669,-0.106669l0.147323 0c0.0589094,0 0.106669,0.0477598 0.106669,0.106669 0,0.0589094 -0.0477598,0.106669 -0.106669,0.106669l-0.147323 0z"/>
     </g>
    </g>
    <g>
     <path id="_511130896" class="fil0" d="M4.5641 3.93204c0,-0.0589094 0.0477598,-0.106669 0.106669,-0.106669 0.0589094,0 0.106669,0.0477598 0.106669,0.106669l0 0.18415c0,0.0589094 -0.0477598,0.106669 -0.106669,0.106669 -0.0589094,0 -0.106669,-0.0477598 -0.106669,-0.106669l0 -0.18415z"/>
     <g>
      <path id="_511130944" class="fil0" d="M4.19196 4.63413c-0.0589094,0 -0.106669,-0.0477598 -0.106669,-0.106669 0,-0.0589094 0.0477598,-0.106669 0.106669,-0.106669l0.147323 0c0.0589094,0 0.106669,0.0477598 0.106669,0.106669 0,0.0589094 -0.0477598,0.106669 -0.106669,0.106669l-0.147323 0z"/>
      <path id="_511130800" class="fil0" d="M4.99404 4.63413c-0.0589094,0 -0.106669,-0.0477598 -0.106669,-0.106669 0,-0.0589094 0.0477598,-0.106669 0.106669,-0.106669l0.147323 0c0.0589094,0 0.106669,0.0477598 0.106669,0.106669 0,0.0589094 -0.0477598,0.106669 -0.106669,0.106669l-0.147323 0z"/>
     </g>
    </g>
   </g>
   <g>
    <path id="_511130560" class="fil0" d="M3.06978 1.85396c-0.0114606,0.0140669 -0.0223898,0.0283661 -0.0328701,0.0429528 -0.0542323,0.0754803 -0.0983307,0.161244 -0.143736,0.261476 -0.0220472,0.0489252 -0.0795984,0.0707205 -0.128524,0.0486732 -0.0161811,-0.00729134 -0.0294016,-0.0184685 -0.0390394,-0.031937l-0.0148071 -0.0180512c-0.215283,-0.262319 -0.40939,-0.498894 -0.392287,-0.785488 -0.0381102,0.050685 -0.0688976,0.105425 -0.0932362,0.16202 -0.0849961,0.197579 -0.0927992,0.415685 -0.0611339,0.565547 0.0464921,0.220016 0.00141339,0.392992 -0.0729882,0.485165 -0.0422756,0.052374 -0.0955669,0.0832835 -0.152543,0.089311 -0.0606102,0.00641339 -0.120114,-0.0149094 -0.170217,-0.0676929 -0.0460512,-0.0485276 -0.0846693,-0.129646 -0.104358,-0.24713 -0.0717205,0.129472 -0.117776,0.283213 -0.137386,0.443811l-0.195614 0c0.021315,-0.197228 0.0780354,-0.38815 0.169161,-0.548559 0.0303346,-0.0534094 0.0597717,-0.096748 0.0870197,-0.131787 0.0345354,-0.0443937 0.0674764,-0.0779094 0.0950945,-0.102413 0.0187441,-0.0180236 0.0446299,-0.0285236 0.0726417,-0.0269882 0.0535472,0.00293701 0.0945827,0.0487402 0.0916457,0.102291 -0.0122598,0.21289 0.0187008,0.330787 0.0624882,0.376925 0.00549606,0.00579134 0.00872835,0.00848031 0.00974803,0.00837402 0.00465748,-0.000488189 0.0119567,-0.00665354 0.0209724,-0.0178268 0.0435118,-0.0539055 0.0673622,-0.166996 0.0342008,-0.323929 -0.0383858,-0.181654 -0.0293937,-0.444949 0.0725472,-0.681913 0.0785866,-0.182681 0.211764,-0.350819 0.419823,-0.457563 0.0292874,-0.016622 0.0664094,-0.0175354 0.0974764,0.000822835 0.0462008,0.0273031 0.0615276,0.0868937 0.0342244,0.133094 -0.17824,0.302209 -0.0256772,0.543031 0.185598,0.806276 0.0291417,-0.0548228 0.0602362,-0.106331 0.0957953,-0.155823 0.0640984,-0.0892047 0.140988,-0.169165 0.244232,-0.245929 0.021185,-0.0175669 0.0496378,-0.0260945 0.0788701,-0.0209882 0.0529213,0.00924016 0.0883346,0.0596378 0.0790945,0.112559 -0.00923622,0.0527717 -0.0149331,0.113276 -0.0170118,0.182102 -0.0103307,0.342472 0.0841614,0.563594 0.13211,0.888134l0.00309055 0.020937 -0.0521024 0c-0.0484134,0 -0.0963268,0.00164173 -0.143728,0.00496063 -0.0464055,-0.313996 -0.13748,-0.541016 -0.134252,-0.871413z"/>
    <path id="_511130632" class="fil0" d="M4.3734 2.45852c0.00283858,-0.049811 0.00404331,-0.0956457 0.00363386,-0.137736 0.00734646,0.00900394 0.0143465,0.0181693 0.021063,0.0275157 0.0347441,0.0483543 0.0629921,0.103303 0.0920827,0.167516 0.014126,0.0313465 0.0509921,0.0453071 0.0823425,0.0311811 0.0103661,-0.00466929 0.0188346,-0.0118307 0.0250079,-0.0204567l0.00949213 -0.0115669c0.137921,-0.168063 0.26228,-0.319622 0.251315,-0.503236 0.0244213,0.0324764 0.0441417,0.0675472 0.0597362,0.103803 0.0544528,0.126587 0.0594528,0.266315 0.0391693,0.362323 -0.0203976,0.0965236 -0.0132795,0.178909 0.0085315,0.24022l0.082374 0c0.0686339,0 0.129295,0.0266811 0.174811,0.0700472 0.0240591,-0.0318031 0.0438425,-0.0792638 0.0546772,-0.143917 0.0534213,0.0964291 0.0846142,0.146276 0.0928031,0.267197l0.000452756 0.00711811 0.124724 0c-0.000271654,-0.00513386 -0.00057874,-0.0102717 -0.000925197,-0.0153976 -0.00956693,-0.141161 -0.0472323,-0.21185 -0.112091,-0.326024 -0.0194331,-0.0342205 -0.0382874,-0.0619803 -0.0557441,-0.0844291 -0.0221299,-0.0284449 -0.0432323,-0.0499134 -0.0609291,-0.0656142 -0.0120039,-0.0115512 -0.0285906,-0.0182717 -0.0465315,-0.0172874 -0.034311,0.00188189 -0.0605984,0.0312244 -0.0587205,0.0655354 0.00785433,0.136386 -0.0119764,0.211917 -0.0400276,0.241476 -0.00352362,0.0037126 -0.00559843,0.00543307 -0.00624803,0.00536614 -0.00298425,-0.000311024 -0.00766535,-0.00426378 -0.013437,-0.0114213 -0.027878,-0.0345315 -0.0431575,-0.106988 -0.0219094,-0.207531 0.0245906,-0.116374 0.0188268,-0.285059 -0.0464803,-0.436874 -0.0503465,-0.117031 -0.135669,-0.224756 -0.268965,-0.293146 -0.0187598,-0.0106457 -0.0425472,-0.0112283 -0.0624449,0.000531496 -0.0296024,0.0174921 -0.0394213,0.0556693 -0.0219331,0.0852638 0.114193,0.193618 0.0164567,0.347902 -0.118906,0.516559 -0.0186693,-0.035126 -0.0385866,-0.0681299 -0.0613661,-0.0998386 -0.0410709,-0.0571457 -0.0903307,-0.108374 -0.156472,-0.157555 -0.0135748,-0.0112559 -0.0318031,-0.0167126 -0.0505276,-0.0134409 -0.0339094,0.00591339 -0.0565945,0.0382047 -0.0506772,0.0721063 0.00592126,0.033811 0.00957087,0.0725748 0.0108976,0.116669 0.00138583,0.0457992 0.000385827,0.0983976 -0.00302756,0.15822 -0.00457087,0.0799606 -0.0179764,0.171827 -0.0319488,0.266386l0.125929 0c0.0132638,-0.0900945 0.0255906,-0.177681 0.0302677,-0.259563z"/>
   </g>
  </g>
  <path class="fil1" d="M4.67077 3.82537c0.0589094,0 0.106669,0.0477598 0.106669,0.106669l0 0.18415c0,0.0589094 -0.0477598,0.106669 -0.106669,0.106669 -0.0589094,0 -0.106669,-0.0477598 -0.106669,-0.106669l0 -0.18415c0,-0.0589094 0.0477598,-0.106669 0.106669,-0.106669zm0.542724 -0.0426654c-0.139937,-0.139937 -0.333276,-0.226496 -0.546835,-0.226496 -0.213559,0 -0.406898,0.0865591 -0.546835,0.226496 -0.139937,0.139937 -0.226496,0.333276 -0.226496,0.546835 0,0.213559 0.0865591,0.406898 0.226496,0.546835 0.139937,0.139941 0.333276,0.226496 0.546835,0.226496 0.213559,0 0.406898,-0.0865551 0.546835,-0.226496 0.139941,-0.139937 0.226496,-0.333276 0.226496,-0.546835 0,-0.213559 -0.0865551,-0.406898 -0.226496,-0.546835zm-1.02154 0.638083l0.147323 0c0.0589094,0 0.106669,0.0477598 0.106669,0.106669 0,0.0589094 -0.0477598,0.106669 -0.106669,0.106669l-0.147323 0c-0.0589094,0 -0.106669,-0.0477598 -0.106669,-0.106669 0,-0.0589094 0.0477598,-0.106669 0.106669,-0.106669zm0.695413 0.106669c0,-0.0589094 0.0477598,-0.106669 0.106669,-0.106669l0.147323 0c0.0589094,0 0.106669,0.0477598 0.106669,0.106669 0,0.0589094 -0.0477598,0.106669 -0.106669,0.106669l-0.147323 0c-0.0589094,0 -0.106669,-0.0477598 -0.106669,-0.106669z"/>
  <path class="fil1" d="M2.93333 4.3465c0,-0.213559 -0.0865591,-0.406898 -0.226496,-0.546835 -0.139937,-0.139937 -0.333276,-0.226496 -0.546835,-0.226496 -0.213559,0 -0.406898,0.0865591 -0.546835,0.226496 -0.139941,0.139937 -0.226496,0.333276 -0.226496,0.546835 0,0.213559 0.0865551,0.406898 0.226496,0.546835 0.139937,0.139941 0.333276,0.226496 0.546835,0.226496 0.213559,0 0.406898,-0.0865551 0.546835,-0.226496 0.139937,-0.139937 0.226496,-0.333276 0.226496,-0.546835zm-1.24804 0.071252l0.147323 0c0.0589094,0 0.106669,0.0477598 0.106669,0.106669 0,0.0589094 -0.0477598,0.106669 -0.106669,0.106669l-0.147323 0c-0.0589094,0 -0.106669,-0.0477598 -0.106669,-0.106669 0,-0.0589094 0.0477598,-0.106669 0.106669,-0.106669zm0.695413 0.106669c0,-0.0589094 0.0477598,-0.106669 0.106669,-0.106669l0.147323 0c0.0589094,0 0.106669,0.0477598 0.106669,0.106669 0,0.0589094 -0.0477598,0.106669 -0.106669,0.106669l-0.147323 0c-0.0589094,0 -0.106669,-0.0477598 -0.106669,-0.106669zm-0.109929 -0.411264c0,0.0589094 -0.0477598,0.106669 -0.106669,0.106669 -0.0589094,0 -0.106669,-0.0477598 -0.106669,-0.106669l0 -0.18415c0,-0.0589094 0.0477598,-0.106669 0.106669,-0.106669 0.0589094,0 0.106669,0.0477598 0.106669,0.106669l0 0.18415z"/>
  <path class="fil2" d="M2.85767 5.04417c-0.178555,0.178559 -0.425224,0.289 -0.697669,0.289 -0.272445,0 -0.519114,-0.110441 -0.697669,-0.289 -0.178559,-0.178555 -0.289,-0.425224 -0.289,-0.697669 0,-0.272445 0.110441,-0.519114 0.289,-0.697669 0.178555,-0.178555 0.425224,-0.289 0.697669,-0.289 0.272445,0 0.519114,0.110445 0.697669,0.289 0.178555,0.178555 0.289,0.425224 0.289,0.697669 0,0.272445 -0.110445,0.519114 -0.289,0.697669zm0.448992 -2.11857l-2.29333 0 0 2.80787 2.29333 0 0 -2.80787z"/>
  <path class="fil2" d="M3.52 2.92561l0 2.80787 2.29333 0 0 -2.80787 -2.29333 0zm1.14666 2.3906c-0.272445,0 -0.519114,-0.110441 -0.697669,-0.289 -0.178555,-0.178555 -0.289,-0.425224 -0.289,-0.697669 0,-0.272445 0.110445,-0.519114 0.289,-0.697669 0.178555,-0.178555 0.425224,-0.289 0.697669,-0.289 0.272445,0 0.519114,0.110445 0.697669,0.289 0.178559,0.178555 0.289,0.425224 0.289,0.697669 0,0.272445 -0.110441,0.519114 -0.289,0.697669 -0.178555,0.178559 -0.425224,0.289 -0.697669,0.289z"/>
  <g id="_511129168">
   <path id="_511130080" class="fil3" d="M4.34399 2.71227l0.619787 0c-0.0202283,-0.0606654 -0.0262913,-0.140902 -0.0065315,-0.234409 0.0202835,-0.0960079 0.0152835,-0.235736 -0.0391693,-0.362323 -0.0155945,-0.0362559 -0.035315,-0.0713268 -0.0597362,-0.103803 0.0109646,0.183614 -0.113394,0.335173 -0.251315,0.503236l-0.00949213 0.0115669c-0.00617323,0.00862598 -0.0146417,0.0157874 -0.0250079,0.0204567 -0.0313504,0.014126 -0.0682165,0.000165354 -0.0823425,-0.0311811 -0.0290906,-0.0642126 -0.0573386,-0.119161 -0.0920827,-0.167516 -0.00671654,-0.00934646 -0.0137165,-0.0185118 -0.021063,-0.0275157 0.000409449,0.0420906 -0.000795276,0.0879252 -0.00363386,0.137736 -0.0045748,0.080122 -0.0164764,0.165701 -0.0294134,0.253752z"/>
   <path id="_511130176" class="fil3" d="M3.20207 2.71227c-0.0469606,-0.307252 -0.135469,-0.532528 -0.132283,-0.858311 -0.0114606,0.0140669 -0.0223898,0.0283661 -0.0328701,0.0429528 -0.0542323,0.0754803 -0.0983307,0.161244 -0.143736,0.261476 -0.0220472,0.0489252 -0.0795984,0.0707205 -0.128524,0.0486732 -0.0161811,-0.00729134 -0.0294016,-0.0184685 -0.0390394,-0.031937l-0.0148071 -0.0180512c-0.215283,-0.262319 -0.40939,-0.498894 -0.392287,-0.785488 -0.0381102,0.050685 -0.0688976,0.105425 -0.0932362,0.16202 -0.0849961,0.197579 -0.0927992,0.415685 -0.0611339,0.565547 0.0464921,0.220016 0.00141339,0.392992 -0.0729882,0.485165 -0.0422756,0.052374 -0.0955669,0.0832835 -0.152543,0.089311 -0.0606102,0.00641339 -0.120114,-0.0149094 -0.170217,-0.0676929 -0.0460512,-0.0485276 -0.0846693,-0.129646 -0.104358,-0.24713 -0.0581457,0.104965 -0.0994213,0.225878 -0.123413,0.353465l1.66144 0z"/>
   <path id="_511129912" class="fil3" d="M5.27764 2.64421c-0.00423622,0.0252835 -0.00984252,0.0479409 -0.0165394,0.0680591l0.0538031 0c-0.0108976,-0.0209094 -0.0233228,-0.0428976 -0.0372638,-0.0680591z"/>
  </g>
 </g>
 <rect class="fil4" width="6.82666" height="6.82666"/>
</svg>
