<?xml version="1.0" encoding="UTF-8"?>
<!DOCTYPE svg PUBLIC "-//W3C//DTD SVG 1.1//EN" "http://www.w3.org/Graphics/SVG/1.1/DTD/svg11.dtd">
<!-- Creator: CorelDRAW -->
<svg xmlns="http://www.w3.org/2000/svg" xml:space="preserve" width="6.82666in" height="6.82666in" style="shape-rendering:geometricPrecision; text-rendering:geometricPrecision; image-rendering:optimizeQuality; fill-rule:evenodd; clip-rule:evenodd"
viewBox="0 0 6.82666 6.82666"
 xmlns:xlink="http://www.w3.org/1999/xlink">
 <defs>
  <style type="text/css">
   <![CDATA[
    .fil6 {fill:none}
    .fil1 {fill:#63CBE5}
    .fil4 {fill:#AED581}
    .fil5 {fill:#EBE5DF}
    .fil3 {fill:#F45A52}
    .fil2 {fill:#FECA5F}
    .fil0 {fill:#212121;fill-rule:nonzero}
   ]]>
  </style>
 </defs>
 <g id="Layer_x0020_1">
  <metadata id="CorelCorpID_0Corel-Layer"/>
  <g id="_511133416">
   <path id="_511102240" class="fil0" d="M4.6517 3.93119l0 0.220701 0 1.65478c0,0.0764094 -0.0329291,0.14548 -0.0859764,0.195209 -0.0514134,0.0482047 -0.121713,0.078126 -0.198472,0.078126l-1.69245 0c-0.0767559,0 -0.147055,-0.0299213 -0.198476,-0.078126 -0.0530433,-0.0497323 -0.0859724,-0.118803 -0.0859724,-0.195209l0 -1.64089 0 -0.234591c-0.055878,-0.0166142 -0.106177,-0.045874 -0.147047,-0.0841929 -0.0672244,-0.0630197 -0.108953,-0.150429 -0.108953,-0.247l0 -1.632c0,-0.0965709 0.0417283,-0.18398 0.108953,-0.247 0.0655906,-0.0614961 0.155449,-0.0996693 0.253717,-0.0996693l2.04801 0c0.0982638,0 0.188122,0.0381732 0.253713,0.0996693 0.0672244,0.0630236 0.108957,0.150433 0.108957,0.247l0 1.632c0,0.0965669 -0.0417323,0.183976 -0.108957,0.247 -0.0408701,0.0383189 -0.0911654,0.0675787 -0.147043,0.0841929zm-0.213339 0.220701l0 -0.311894c0,-0.0589094 0.0477598,-0.106669 0.106669,-0.106669 0.0425236,0 0.0806811,-0.0158307 0.107878,-0.0413307 0.0255748,-0.0239764 0.0414528,-0.0565787 0.0414528,-0.092l0 -1.632c0,-0.0354213 -0.015878,-0.0680236 -0.0414528,-0.092 -0.0271969,-0.0255 -0.0653543,-0.0413307 -0.107878,-0.0413307l-2.04801 0c-0.0425276,0 -0.080685,0.0158307 -0.107882,0.0413307 -0.0255709,0.0239724 -0.0414488,0.0565748 -0.0414488,0.092l0 1.632c0,0.0354252 0.015878,0.0680276 0.0414488,0.092 0.0271969,0.0255 0.0653543,0.0413307 0.107882,0.0413307 0.0589094,0 0.106669,0.0477598 0.106669,0.106669l0 0.325783 0 1.64089c0,0.0152559 0.00707874,0.0295276 0.0184685,0.0402087 0.0130197,0.0122047 0.031622,0.0197874 0.0526417,0.0197874l1.69245 0c0.0210197,0 0.0396181,-0.00757874 0.0526378,-0.0197874 0.0113937,-0.0106811 0.0184724,-0.0249528 0.0184724,-0.0402087l0 -1.65478z"/>
   <path id="_511101952" class="fil0" d="M2.6677 2.18666l1.70666 0c0.0294528,0 0.0533346,0.0238819 0.0533346,0.0533346l0 0.853331c0,0.0294528 -0.0238819,0.0533346 -0.0533346,0.0533346l-1.70666 0c-0.0294528,0 -0.0533346,-0.0238819 -0.0533346,-0.0533346l0 -0.853331c0,-0.0294528 0.0238819,-0.0533346 0.0533346,-0.0533346zm1.65333 0.106669l-1.59999 0 0 0.746661 1.59999 0 0 -0.746661z"/>
   <path id="_511102216" class="fil0" d="M2.82769 3.81096l0.32 0c0.0294528,0 0.0533346,0.0238819 0.0533346,0.0533346l0 0.352016c0,0.0294528 -0.0238819,0.0533346 -0.0533346,0.0533346l-0.32 0c-0.0294528,0 -0.0533346,-0.0238819 -0.0533346,-0.0533346l0 -0.352016c0,-0.0294528 0.0238819,-0.0533346 0.0533346,-0.0533346zm0.266665 0.106669l-0.213331 0 0 0.245346 0.213331 0 0 -0.245346z"/>
   <path id="_511101976" class="fil0" d="M3.36102 3.81096l0.32 0c0.0294528,0 0.0533346,0.0238819 0.0533346,0.0533346l0 0.352016c0,0.0294528 -0.0238819,0.0533346 -0.0533346,0.0533346l-0.32 0c-0.0294528,0 -0.0533346,-0.0238819 -0.0533346,-0.0533346l0 -0.352016c0,-0.0294528 0.0238819,-0.0533346 0.0533346,-0.0533346zm0.266665 0.106669l-0.213331 0 0 0.245346 0.213331 0 0 -0.245346z"/>
   <path id="_511134136" class="fil0" d="M3.89436 3.81096l0.32 0c0.0294528,0 0.0533346,0.0238819 0.0533346,0.0533346l0 0.352016c0,0.0294528 -0.0238819,0.0533346 -0.0533346,0.0533346l-0.32 0c-0.0294528,0 -0.0533346,-0.0238819 -0.0533346,-0.0533346l0 -0.352016c0,-0.0294528 0.0238819,-0.0533346 0.0533346,-0.0533346zm0.266665 0.106669l-0.213331 0 0 0.245346 0.213331 0 0 -0.245346z"/>
   <path id="_511134088" class="fil0" d="M2.82769 4.44291l0.32 0c0.0294528,0 0.0533346,0.0238819 0.0533346,0.0533346l0 0.352016c0,0.0294528 -0.0238819,0.0533346 -0.0533346,0.0533346l-0.32 0c-0.0294528,0 -0.0533346,-0.0238819 -0.0533346,-0.0533346l0 -0.352016c0,-0.0294528 0.0238819,-0.0533346 0.0533346,-0.0533346zm0.266665 0.106669l-0.213331 0 0 0.245346 0.213331 0 0 -0.245346z"/>
   <path id="_511134232" class="fil0" d="M3.36102 4.44291l0.32 0c0.0294528,0 0.0533346,0.0238819 0.0533346,0.0533346l0 0.352016c0,0.0294528 -0.0238819,0.0533346 -0.0533346,0.0533346l-0.32 0c-0.0294528,0 -0.0533346,-0.0238819 -0.0533346,-0.0533346l0 -0.352016c0,-0.0294528 0.0238819,-0.0533346 0.0533346,-0.0533346zm0.266665 0.106669l-0.213331 0 0 0.245346 0.213331 0 0 -0.245346z"/>
   <path id="_511134184" class="fil0" d="M3.89436 4.44291l0.32 0c0.0294528,0 0.0533346,0.0238819 0.0533346,0.0533346l0 0.352016c0,0.0294528 -0.0238819,0.0533346 -0.0533346,0.0533346l-0.32 0c-0.0294528,0 -0.0533346,-0.0238819 -0.0533346,-0.0533346l0 -0.352016c0,-0.0294528 0.0238819,-0.0533346 0.0533346,-0.0533346zm0.266665 0.106669l-0.213331 0 0 0.245346 0.213331 0 0 -0.245346z"/>
   <path id="_511134280" class="fil0" d="M2.82769 5.08527l0.32 0c0.0294528,0 0.0533346,0.0238819 0.0533346,0.0533346l0 0.352016c0,0.0294528 -0.0238819,0.0533346 -0.0533346,0.0533346l-0.32 0c-0.0294528,0 -0.0533346,-0.0238819 -0.0533346,-0.0533346l0 -0.352016c0,-0.0294528 0.0238819,-0.0533346 0.0533346,-0.0533346zm0.266665 0.106669l-0.213331 0 0 0.245346 0.213331 0 0 -0.245346z"/>
   <path id="_511133968" class="fil0" d="M3.36102 5.08527l0.32 0c0.0294528,0 0.0533346,0.0238819 0.0533346,0.0533346l0 0.352016c0,0.0294528 -0.0238819,0.0533346 -0.0533346,0.0533346l-0.32 0c-0.0294528,0 -0.0533346,-0.0238819 -0.0533346,-0.0533346l0 -0.352016c0,-0.0294528 0.0238819,-0.0533346 0.0533346,-0.0533346zm0.266665 0.106669l-0.213331 0 0 0.245346 0.213331 0 0 -0.245346z"/>
   <path id="_511133632" class="fil0" d="M3.89436 5.08527l0.32 0c0.0294528,0 0.0533346,0.0238819 0.0533346,0.0533346l0 0.352016c0,0.0294528 -0.0238819,0.0533346 -0.0533346,0.0533346l-0.32 0c-0.0294528,0 -0.0533346,-0.0238819 -0.0533346,-0.0533346l0 -0.352016c0,-0.0294528 0.0238819,-0.0533346 0.0533346,-0.0533346zm0.266665 0.106669l-0.213331 0 0 0.245346 0.213331 0 0 -0.245346z"/>
   <path id="_511133752" class="fil0" d="M2.6677 3.29065l0.528031 0c0.0294528,0 0.0533346,0.0238819 0.0533346,0.0533346l0 0.176008c0,0.0294528 -0.0238819,0.0533346 -0.0533346,0.0533346l-0.528031 0c-0.0294528,0 -0.0533346,-0.0238819 -0.0533346,-0.0533346l0 -0.176008c0,-0.0294528 0.0238819,-0.0533346 0.0533346,-0.0533346zm0.474697 0.106669l-0.421362 0 0 0.0693386 0.421362 0 0 -0.0693386z"/>
   <path id="_511133368" class="fil0" d="M3.84633 3.29065l0.528031 0c0.0294528,0 0.0533346,0.0238819 0.0533346,0.0533346l0 0.176008c0,0.0294528 -0.0238819,0.0533346 -0.0533346,0.0533346l-0.528031 0c-0.0294528,0 -0.0533346,-0.0238819 -0.0533346,-0.0533346l0 -0.176008c0,-0.0294528 0.0238819,-0.0533346 0.0533346,-0.0533346zm0.474697 0.106669l-0.421362 0 0 0.0693386 0.421362 0 0 -0.0693386z"/>
   <path id="_511133536" class="fil0" d="M2.88103 1.70666c0,0.0589094 -0.0477598,0.106669 -0.106669,0.106669 -0.0589094,0 -0.106669,-0.0477598 -0.106669,-0.106669l0 -0.426665c0,-0.0589094 0.0477598,-0.106669 0.106669,-0.106669 0.0589094,0 0.106669,0.0477598 0.106669,0.106669l0 0.426665z"/>
   <path id="_511133872" class="fil0" d="M2.69436 0.853331c0,-0.0441811 0.0358189,-0.08 0.08,-0.08 0.0441811,0 0.08,0.0358189 0.08,0.08l0 0.426665c0,0.0441811 -0.0358189,0.08 -0.08,0.08 -0.0441811,0 -0.08,-0.0358189 -0.08,-0.08l0 -0.426665z"/>
   <path id="_511133488" class="fil0" d="M3.90129 1.70666c0,0.0589094 -0.0477598,0.106669 -0.106669,0.106669 -0.0589094,0 -0.106669,-0.0477598 -0.106669,-0.106669l0 -0.163941c0,-0.0589094 0.0477598,-0.106669 0.106669,-0.106669 0.0589094,0 0.106669,0.0477598 0.106669,0.106669l0 0.163941z"/>
   <path id="_511133680" class="fil0" d="M4.27803 1.70666c0,0.0589094 -0.0477598,0.106669 -0.106669,0.106669 -0.0589094,0 -0.106669,-0.0477598 -0.106669,-0.106669l0 -0.163941c0,-0.0589094 0.0477598,-0.106669 0.106669,-0.106669 0.0589094,0 0.106669,0.0477598 0.106669,0.106669l0 0.163941z"/>
   <path id="_511133512" class="fil0" d="M2.13231 3.11069c0,0.0589094 -0.0477598,0.106669 -0.106669,0.106669 -0.0589094,0 -0.106669,-0.0477598 -0.106669,-0.106669l0 -0.163941c0,-0.0589094 0.0477598,-0.106669 0.106669,-0.106669 0.0589094,0 0.106669,0.0477598 0.106669,0.106669l0 0.163941z"/>
   <path id="_511133800" class="fil0" d="M3.17013 2.07524c-0.0294528,0 -0.0533346,-0.0238819 -0.0533346,-0.0533346 0,-0.0294528 0.0238819,-0.0533346 0.0533346,-0.0533346l0.701776 0c0.0294528,0 0.0533346,0.0238819 0.0533346,0.0533346 0,0.0294528 -0.0238819,0.0533346 -0.0533346,0.0533346l-0.701776 0z"/>
  </g>
  <polygon class="fil1" points="4.32102,2.29333 2.72103,2.29333 2.72103,3.03999 4.32102,3.03999 "/>
  <path class="fil2" d="M4.37436 3.14666l-1.70666 0c-0.0294528,0 -0.0533346,-0.0238819 -0.0533346,-0.0533346l0 -0.853331c0,-0.0294528 0.0238819,-0.0533346 0.0533346,-0.0533346l1.70666 0c0.0294528,0 0.0533346,0.0238819 0.0533346,0.0533346l0 0.853331c0,0.0294528 -0.0238819,0.0533346 -0.0533346,0.0533346zm-0.48 0.664303l0.32 0c0.0294528,0 0.0533346,0.0238819 0.0533346,0.0533346l0 0.352016c0,0.0294528 -0.0238819,0.0533346 -0.0533346,0.0533346l-0.32 0c-0.0294528,0 -0.0533346,-0.0238819 -0.0533346,-0.0533346l0 -0.352016c0,-0.0294528 0.0238819,-0.0533346 0.0533346,-0.0533346zm0.544 0.340921l0 -0.311894c0,-0.0589094 0.0477598,-0.106669 0.106669,-0.106669 0.0425236,0 0.0806811,-0.0158307 0.107878,-0.0413307 0.0255748,-0.0239764 0.0414528,-0.0565787 0.0414528,-0.092l0 -1.632c0,-0.0354213 -0.015878,-0.0680236 -0.0414528,-0.092 -0.0271969,-0.0255 -0.0653543,-0.0413307 -0.107878,-0.0413307l-2.04801 0c-0.0425276,0 -0.080685,0.0158307 -0.107882,0.0413307 -0.0255709,0.0239724 -0.0414488,0.0565748 -0.0414488,0.092l0 1.632c0,0.0354252 0.015878,0.0680276 0.0414488,0.092 0.0271969,0.0255 0.0653543,0.0413307 0.107882,0.0413307 0.0589094,0 0.106669,0.0477598 0.106669,0.106669l0 0.325783 0 1.64089c0,0.0152559 0.00707874,0.0295276 0.0184685,0.0402087 0.0130197,0.0122047 0.031622,0.0197874 0.0526417,0.0197874l1.69245 0c0.0210197,0 0.0396181,-0.00757874 0.0526378,-0.0197874 0.0113937,-0.0106811 0.0184724,-0.0249528 0.0184724,-0.0402087l0 -1.65478zm-0.645366 -0.63189l0 -0.176008c0,-0.0294528 0.0238819,-0.0533346 0.0533346,-0.0533346l0.528031 0c0.0294528,0 0.0533346,0.0238819 0.0533346,0.0533346l0 0.176008c0,0.0294528 -0.0238819,0.0533346 -0.0533346,0.0533346l-0.528031 0c-0.0294528,0 -0.0533346,-0.0238819 -0.0533346,-0.0533346zm-0.431969 0.290969l0.32 0c0.0294528,0 0.0533346,0.0238819 0.0533346,0.0533346l0 0.352016c0,0.0294528 -0.0238819,0.0533346 -0.0533346,0.0533346l-0.32 0c-0.0294528,0 -0.0533346,-0.0238819 -0.0533346,-0.0533346l0 -0.352016c0,-0.0294528 0.0238819,-0.0533346 0.0533346,-0.0533346zm-0.19089 -1.73573c-0.0294528,0 -0.0533346,-0.0238819 -0.0533346,-0.0533346 0,-0.0294528 0.0238819,-0.0533346 0.0533346,-0.0533346l0.701776 0c0.0294528,0 0.0533346,0.0238819 0.0533346,0.0533346 0,0.0294528 -0.0238819,0.0533346 -0.0533346,0.0533346l-0.701776 0zm0.0789291 1.26875l0 0.176008c0,0.0294528 -0.0238819,0.0533346 -0.0533346,0.0533346l-0.528031 0c-0.0294528,0 -0.0533346,-0.0238819 -0.0533346,-0.0533346l0 -0.176008c0,-0.0294528 0.0238819,-0.0533346 0.0533346,-0.0533346l0.528031 0c0.0294528,0 0.0533346,0.0238819 0.0533346,0.0533346zm0.591961 1.50427l0 -0.352016c0,-0.0294528 0.0238819,-0.0533346 0.0533346,-0.0533346l0.32 0c0.0294528,0 0.0533346,0.0238819 0.0533346,0.0533346l0 0.352016c0,0.0294528 -0.0238819,0.0533346 -0.0533346,0.0533346l-0.32 0c-0.0294528,0 -0.0533346,-0.0238819 -0.0533346,-0.0533346zm0.0533346 0.237012l0.32 0c0.0294528,0 0.0533346,0.0238819 0.0533346,0.0533346l0 0.352016c0,0.0294528 -0.0238819,0.0533346 -0.0533346,0.0533346l-0.32 0c-0.0294528,0 -0.0533346,-0.0238819 -0.0533346,-0.0533346l0 -0.352016c0,-0.0294528 0.0238819,-0.0533346 0.0533346,-0.0533346zm-0.533335 -0.642362l0.32 0c0.0294528,0 0.0533346,0.0238819 0.0533346,0.0533346l0 0.352016c0,0.0294528 -0.0238819,0.0533346 -0.0533346,0.0533346l-0.32 0c-0.0294528,0 -0.0533346,-0.0238819 -0.0533346,-0.0533346l0 -0.352016c0,-0.0294528 0.0238819,-0.0533346 0.0533346,-0.0533346zm0 0.642362l0.32 0c0.0294528,0 0.0533346,0.0238819 0.0533346,0.0533346l0 0.352016c0,0.0294528 -0.0238819,0.0533346 -0.0533346,0.0533346l-0.32 0c-0.0294528,0 -0.0533346,-0.0238819 -0.0533346,-0.0533346l0 -0.352016c0,-0.0294528 0.0238819,-0.0533346 0.0533346,-0.0533346zm-0.213335 -0.642362c0.0294528,0 0.0533346,0.0238819 0.0533346,0.0533346l0 0.352016c0,0.0294528 -0.0238819,0.0533346 -0.0533346,0.0533346l-0.32 0c-0.0294528,0 -0.0533346,-0.0238819 -0.0533346,-0.0533346l0 -0.352016c0,-0.0294528 0.0238819,-0.0533346 0.0533346,-0.0533346l0.32 0zm-0.32 0.642362l0.32 0c0.0294528,0 0.0533346,0.0238819 0.0533346,0.0533346l0 0.352016c0,0.0294528 -0.0238819,0.0533346 -0.0533346,0.0533346l-0.32 0c-0.0294528,0 -0.0533346,-0.0238819 -0.0533346,-0.0533346l0 -0.352016c0,-0.0294528 0.0238819,-0.0533346 0.0533346,-0.0533346zm0 -1.2743l0.32 0c0.0294528,0 0.0533346,0.0238819 0.0533346,0.0533346l0 0.352016c0,0.0294528 -0.0238819,0.0533346 -0.0533346,0.0533346l-0.32 0c-0.0294528,0 -0.0533346,-0.0238819 -0.0533346,-0.0533346l0 -0.352016c0,-0.0294528 0.0238819,-0.0533346 0.0533346,-0.0533346z"/>
  <polygon class="fil3" points="3.14239,3.39732 2.72103,3.39732 2.72103,3.46666 3.14239,3.46666 "/>
  <polygon class="fil4" points="3.89966,3.39732 3.89966,3.46666 4.32102,3.46666 4.32102,3.39732 "/>
  <g id="_511132456">
   <polygon id="_511133104" class="fil5" points="4.16102,3.91763 3.94769,3.91763 3.94769,4.16298 4.16102,4.16298 "/>
   <polygon id="_511133272" class="fil5" points="3.62769,4.16298 3.62769,3.91763 3.41436,3.91763 3.41436,4.16298 "/>
   <polygon id="_511133176" class="fil5" points="3.09435,4.16298 3.09435,3.91763 2.88102,3.91763 2.88102,4.16298 "/>
   <polygon id="_511132960" class="fil5" points="3.09435,4.54957 2.88102,4.54957 2.88102,4.79492 3.09435,4.79492 "/>
   <polygon id="_511132336" class="fil5" points="3.41436,4.54957 3.41436,4.79492 3.62769,4.79492 3.62769,4.54957 "/>
   <polygon id="_511132360" class="fil5" points="3.94769,4.54957 3.94769,4.79492 4.16102,4.79492 4.16102,4.54957 "/>
   <polygon id="_511132528" class="fil5" points="3.09435,5.43728 3.09435,5.19194 2.88102,5.19194 2.88102,5.43728 "/>
   <polygon id="_511132048" class="fil5" points="3.41436,5.19194 3.41436,5.43728 3.62769,5.43728 3.62769,5.19194 "/>
   <polygon id="_511132024" class="fil5" points="3.94769,5.19194 3.94769,5.43728 4.16102,5.43728 4.16102,5.19194 "/>
  </g>
 </g>
 <rect class="fil6" width="6.82666" height="6.82666"/>
</svg>
