<?xml version="1.0" encoding="UTF-8"?>
<!DOCTYPE svg PUBLIC "-//W3C//DTD SVG 1.1//EN" "http://www.w3.org/Graphics/SVG/1.1/DTD/svg11.dtd">
<!-- Creator: CorelDRAW -->
<svg xmlns="http://www.w3.org/2000/svg" xml:space="preserve" width="6.82666in" height="6.82666in" style="shape-rendering:geometricPrecision; text-rendering:geometricPrecision; image-rendering:optimizeQuality; fill-rule:evenodd; clip-rule:evenodd"
viewBox="0 0 6.82666 6.82666"
 xmlns:xlink="http://www.w3.org/1999/xlink">
 <defs>
  <style type="text/css">
   <![CDATA[
    .fil8 {fill:none}
    .fil7 {fill:black}
    .fil6 {fill:#0277BD}
    .fil5 {fill:#0288D1}
    .fil4 {fill:#039BE5}
    .fil3 {fill:#29B6F6}
    .fil2 {fill:#4FC3F7}
    .fil1 {fill:#81D4FA}
    .fil0 {fill:#B3E5FC}
   ]]>
  </style>
 </defs>
 <g id="Layer_x0020_1">
  <metadata id="CorelCorpID_0Corel-Layer"/>
  <g id="_276793296">
   <path id="_276791952" class="fil0" d="M0.853331 2.83143l0.0108386 0c0.0605276,0.0928071 0.165228,0.154161 0.284283,0.154161 0.119055,0 0.223756,-0.0613543 0.284272,-0.154161l0.0785512 0c0.0605276,0.0928071 0.165228,0.154161 0.284283,0.154161 0.119055,0 0.223756,-0.0613543 0.284283,-0.154161l0.0785394 0c0.0605157,0.0928071 0.165228,0.154161 0.284295,0.154161 0.119043,0 0.223744,-0.0613543 0.284272,-0.154161l0.0785512 0c0.0605157,0.0928071 0.165217,0.154161 0.284283,0.154161 0.119043,0 0.223744,-0.0613543 0.284272,-0.154161l0.0785512 0c0.0605157,0.0928071 0.165228,0.154161 0.284272,0.154161 0.119067,0 0.223756,-0.0613543 0.284272,-0.154161l0.0785748 0c0.0605157,0.0928071 0.165217,0.154161 0.28426,0.154161 0.119067,0 0.22378,-0.0613543 0.284295,-0.154161l0.0785394 0c0.0605276,0.0928071 0.165228,0.154161 0.284283,0.154161 0.119055,0 0.223756,-0.0613543 0.284283,-0.154161l0.078563 0c0.0605157,0.0928071 0.165205,0.154161 0.284272,0.154161 0.119043,0 0.223756,-0.0613543 0.284272,-0.154161l0.0108386 0 0 0.41639 0 0.416386 0 0.41639 0 0.416386 0 0.41639 0 0.416386 -0.0108386 0c-0.0605157,0.0928071 -0.165228,0.154161 -0.284272,0.154161 -0.119067,0 -0.223756,-0.0613543 -0.284272,-0.154161l-0.078563 0c-0.0605276,0.0928071 -0.165228,0.154161 -0.284283,0.154161 -0.119055,0 -0.223756,-0.0613543 -0.284283,-0.154161l-0.0785394 0c-0.0605157,0.0928071 -0.165228,0.154161 -0.284295,0.154161 -0.119043,0 -0.223744,-0.0613543 -0.28426,-0.154161l-0.0785748 0c-0.0605157,0.0928071 -0.165205,0.154161 -0.284272,0.154161 -0.119043,0 -0.223756,-0.0613543 -0.284272,-0.154161l-0.0785512 0c-0.0605276,0.0928071 -0.165228,0.154161 -0.284272,0.154161 -0.119067,0 -0.223768,-0.0613543 -0.284283,-0.154161l-0.0785512 0c-0.0605276,0.0928071 -0.165228,0.154161 -0.284272,0.154161 -0.119067,0 -0.22378,-0.0613543 -0.284295,-0.154161l-0.0785394 0c-0.0605276,0.0928071 -0.165228,0.154161 -0.284283,0.154161 -0.119055,0 -0.223756,-0.0613543 -0.284283,-0.154161l-0.0785512 0c-0.0605157,0.0928071 -0.165217,0.154161 -0.284272,0.154161 -0.119055,0 -0.223756,-0.0613543 -0.284283,-0.154161l-0.0108386 0 0 -0.416386 0 -0.41639 0 -0.416386 0 -0.41639 0 -0.416386 0 -0.41639z"/>
   <path id="_276791856" class="fil1" d="M0.853331 2.83143l0.0108386 0c0.0605276,0.0928071 0.165228,0.154161 0.284283,0.154161 0.119055,0 0.223756,-0.0613543 0.284272,-0.154161l0.0785512 0c0.0605276,0.0928071 0.165228,0.154161 0.284283,0.154161 0.119055,0 0.223756,-0.0613543 0.284283,-0.154161l0.0785394 0c0.0605157,0.0928071 0.165228,0.154161 0.284295,0.154161 0.119043,0 0.223744,-0.0613543 0.284272,-0.154161l0.0785512 0c0.0605157,0.0928071 0.165217,0.154161 0.284283,0.154161 0.119043,0 0.223744,-0.0613543 0.284272,-0.154161l0.0785512 0c0.0605157,0.0928071 0.165228,0.154161 0.284272,0.154161 0.119067,0 0.223756,-0.0613543 0.284272,-0.154161l0.0785748 0c0.0605157,0.0928071 0.165217,0.154161 0.28426,0.154161 0.119067,0 0.22378,-0.0613543 0.284295,-0.154161l0.0785394 0c0.0605276,0.0928071 0.165228,0.154161 0.284283,0.154161 0.119055,0 0.223756,-0.0613543 0.284283,-0.154161l0.078563 0c0.0605157,0.0928071 0.165205,0.154161 0.284272,0.154161 0.119043,0 0.223756,-0.0613543 0.284272,-0.154161l0.0108386 0 0 0.41639 -0.0108386 0c-0.0605157,0.0928031 -0.165228,0.154157 -0.284272,0.154157 -0.119067,0 -0.223756,-0.0613543 -0.284272,-0.154157l-0.078563 0c-0.0605276,0.0928031 -0.165228,0.154157 -0.284283,0.154157 -0.119055,0 -0.223756,-0.0613543 -0.284283,-0.154157l-0.0785394 0c-0.0605157,0.0928031 -0.165228,0.154157 -0.284295,0.154157 -0.119043,0 -0.223744,-0.0613543 -0.28426,-0.154157l-0.0785748 0c-0.0605157,0.0928031 -0.165205,0.154157 -0.284272,0.154157 -0.119043,0 -0.223756,-0.0613543 -0.284272,-0.154157l-0.0785512 0c-0.0605276,0.0928031 -0.165228,0.154157 -0.284272,0.154157 -0.119067,0 -0.223768,-0.0613543 -0.284283,-0.154157l-0.0785512 0c-0.0605276,0.0928031 -0.165228,0.154157 -0.284272,0.154157 -0.119067,0 -0.22378,-0.0613543 -0.284295,-0.154157l-0.0785394 0c-0.0605276,0.0928031 -0.165228,0.154157 -0.284283,0.154157 -0.119055,0 -0.223756,-0.0613543 -0.284283,-0.154157l-0.0785512 0c-0.0605157,0.0928031 -0.165217,0.154157 -0.284272,0.154157 -0.119055,0 -0.223756,-0.0613543 -0.284283,-0.154157l-0.0108386 0 0 -0.41639z"/>
   <path id="_276791808" class="fil2" d="M0.853331 3.24781l0.0108386 0c0.0605276,0.0928031 0.165228,0.154157 0.284283,0.154157 0.119055,0 0.223756,-0.0613543 0.284272,-0.154157l0.0785512 0c0.0605276,0.0928031 0.165228,0.154157 0.284283,0.154157 0.119055,0 0.223756,-0.0613543 0.284283,-0.154157l0.0785394 0c0.0605157,0.0928031 0.165228,0.154157 0.284295,0.154157 0.119043,0 0.223744,-0.0613543 0.284272,-0.154157l0.0785512 0c0.0605157,0.0928031 0.165217,0.154157 0.284283,0.154157 0.119043,0 0.223744,-0.0613543 0.284272,-0.154157l0.0785512 0c0.0605157,0.0928031 0.165228,0.154157 0.284272,0.154157 0.119067,0 0.223756,-0.0613543 0.284272,-0.154157l0.0785748 0c0.0605157,0.0928031 0.165217,0.154157 0.28426,0.154157 0.119067,0 0.22378,-0.0613543 0.284295,-0.154157l0.0785394 0c0.0605276,0.0928031 0.165228,0.154157 0.284283,0.154157 0.119055,0 0.223756,-0.0613543 0.284283,-0.154157l0.078563 0c0.0605157,0.0928031 0.165205,0.154157 0.284272,0.154157 0.119043,0 0.223756,-0.0613543 0.284272,-0.154157l0.0108386 0 0 0.416386 -0.0108386 0c-0.0605157,0.0928071 -0.165228,0.154161 -0.284272,0.154161 -0.119067,0 -0.223756,-0.0613543 -0.284272,-0.154161l-0.078563 0c-0.0605276,0.0928071 -0.165228,0.154161 -0.284283,0.154161 -0.119055,0 -0.223756,-0.0613543 -0.284283,-0.154161l-0.0785394 0c-0.0605157,0.0928071 -0.165228,0.154161 -0.284295,0.154161 -0.119043,0 -0.223744,-0.0613543 -0.28426,-0.154161l-0.0785748 0c-0.0605157,0.0928071 -0.165205,0.154161 -0.284272,0.154161 -0.119043,0 -0.223756,-0.0613543 -0.284272,-0.154161l-0.0785512 0c-0.0605276,0.0928071 -0.165228,0.154161 -0.284272,0.154161 -0.119067,0 -0.223768,-0.0613543 -0.284283,-0.154161l-0.0785512 0c-0.0605276,0.0928071 -0.165228,0.154161 -0.284272,0.154161 -0.119067,0 -0.22378,-0.0613543 -0.284295,-0.154161l-0.0785394 0c-0.0605276,0.0928071 -0.165228,0.154161 -0.284283,0.154161 -0.119055,0 -0.223756,-0.0613543 -0.284283,-0.154161l-0.0785512 0c-0.0605157,0.0928071 -0.165217,0.154161 -0.284272,0.154161 -0.119055,0 -0.223756,-0.0613543 -0.284283,-0.154161l-0.0108386 0 0 -0.416386z"/>
   <path id="_276791784" class="fil3" d="M0.853331 3.6642l0.0108386 0c0.0605276,0.0928071 0.165228,0.154161 0.284283,0.154161 0.119055,0 0.223756,-0.0613543 0.284272,-0.154161l0.0785512 0c0.0605276,0.0928071 0.165228,0.154161 0.284283,0.154161 0.119055,0 0.223756,-0.0613543 0.284283,-0.154161l0.0785394 0c0.0605157,0.0928071 0.165228,0.154161 0.284295,0.154161 0.119043,0 0.223744,-0.0613543 0.284272,-0.154161l0.0785512 0c0.0605157,0.0928071 0.165217,0.154161 0.284283,0.154161 0.119043,0 0.223744,-0.0613543 0.284272,-0.154161l0.0785512 0c0.0605157,0.0928071 0.165228,0.154161 0.284272,0.154161 0.119067,0 0.223756,-0.0613543 0.284272,-0.154161l0.0785748 0c0.0605157,0.0928071 0.165217,0.154161 0.28426,0.154161 0.119067,0 0.22378,-0.0613543 0.284295,-0.154161l0.0785394 0c0.0605276,0.0928071 0.165228,0.154161 0.284283,0.154161 0.119055,0 0.223756,-0.0613543 0.284283,-0.154161l0.078563 0c0.0605157,0.0928071 0.165205,0.154161 0.284272,0.154161 0.119043,0 0.223756,-0.0613543 0.284272,-0.154161l0.0108386 0 0 0.41639 -0.0108386 0c-0.0605157,0.0928071 -0.165228,0.154157 -0.284272,0.154157 -0.119067,0 -0.223756,-0.0613504 -0.284272,-0.154157l-0.078563 0c-0.0605276,0.0928071 -0.165228,0.154157 -0.284283,0.154157 -0.119055,0 -0.223756,-0.0613504 -0.284283,-0.154157l-0.0785394 0c-0.0605157,0.0928071 -0.165228,0.154157 -0.284295,0.154157 -0.119043,0 -0.223744,-0.0613504 -0.28426,-0.154157l-0.0785748 0c-0.0605157,0.0928071 -0.165205,0.154157 -0.284272,0.154157 -0.119043,0 -0.223756,-0.0613504 -0.284272,-0.154157l-0.0785512 0c-0.0605276,0.0928071 -0.165228,0.154157 -0.284272,0.154157 -0.119067,0 -0.223768,-0.0613504 -0.284283,-0.154157l-0.0785512 0c-0.0605276,0.0928071 -0.165228,0.154157 -0.284272,0.154157 -0.119067,0 -0.22378,-0.0613504 -0.284295,-0.154157l-0.0785394 0c-0.0605276,0.0928071 -0.165228,0.154157 -0.284283,0.154157 -0.119055,0 -0.223756,-0.0613504 -0.284283,-0.154157l-0.0785512 0c-0.0605157,0.0928071 -0.165217,0.154157 -0.284272,0.154157 -0.119055,0 -0.223756,-0.0613504 -0.284283,-0.154157l-0.0108386 0 0 -0.41639z"/>
   <path id="_276792096" class="fil4" d="M0.853331 4.08059l0.0108386 0c0.0605276,0.0928071 0.165228,0.154157 0.284283,0.154157 0.119055,0 0.223756,-0.0613504 0.284272,-0.154157l0.0785512 0c0.0605276,0.0928071 0.165228,0.154157 0.284283,0.154157 0.119055,0 0.223756,-0.0613504 0.284283,-0.154157l0.0785394 0c0.0605157,0.0928071 0.165228,0.154157 0.284295,0.154157 0.119043,0 0.223744,-0.0613504 0.284272,-0.154157l0.0785512 0c0.0605157,0.0928071 0.165217,0.154157 0.284283,0.154157 0.119043,0 0.223744,-0.0613504 0.284272,-0.154157l0.0785512 0c0.0605157,0.0928071 0.165228,0.154157 0.284272,0.154157 0.119067,0 0.223756,-0.0613504 0.284272,-0.154157l0.0785748 0c0.0605157,0.0928071 0.165217,0.154157 0.28426,0.154157 0.119067,0 0.22378,-0.0613504 0.284295,-0.154157l0.0785394 0c0.0605276,0.0928071 0.165228,0.154157 0.284283,0.154157 0.119055,0 0.223756,-0.0613504 0.284283,-0.154157l0.078563 0c0.0605157,0.0928071 0.165205,0.154157 0.284272,0.154157 0.119043,0 0.223756,-0.0613504 0.284272,-0.154157l0.0108386 0 0 0.416386 -0.0108386 0c-0.0605157,0.0928071 -0.165228,0.154161 -0.284272,0.154161 -0.119067,0 -0.223756,-0.0613543 -0.284272,-0.154161l-0.078563 0c-0.0605276,0.0928071 -0.165228,0.154161 -0.284283,0.154161 -0.119055,0 -0.223756,-0.0613543 -0.284283,-0.154161l-0.0785394 0c-0.0605157,0.0928071 -0.165228,0.154161 -0.284295,0.154161 -0.119043,0 -0.223744,-0.0613543 -0.28426,-0.154161l-0.0785748 0c-0.0605157,0.0928071 -0.165205,0.154161 -0.284272,0.154161 -0.119043,0 -0.223756,-0.0613543 -0.284272,-0.154161l-0.0785512 0c-0.0605276,0.0928071 -0.165228,0.154161 -0.284272,0.154161 -0.119067,0 -0.223768,-0.0613543 -0.284283,-0.154161l-0.0785512 0c-0.0605276,0.0928071 -0.165228,0.154161 -0.284272,0.154161 -0.119067,0 -0.22378,-0.0613543 -0.284295,-0.154161l-0.0785394 0c-0.0605276,0.0928071 -0.165228,0.154161 -0.284283,0.154161 -0.119055,0 -0.223756,-0.0613543 -0.284283,-0.154161l-0.0785512 0c-0.0605157,0.0928071 -0.165217,0.154161 -0.284272,0.154161 -0.119055,0 -0.223756,-0.0613543 -0.284283,-0.154161l-0.0108386 0 0 -0.416386z"/>
   <path id="_276793320" class="fil5" d="M0.853331 4.49698l0.0108386 0c0.0605276,0.0928071 0.165228,0.154161 0.284283,0.154161 0.119055,0 0.223756,-0.0613543 0.284272,-0.154161l0.0785512 0c0.0605276,0.0928071 0.165228,0.154161 0.284283,0.154161 0.119055,0 0.223756,-0.0613543 0.284283,-0.154161l0.0785394 0c0.0605157,0.0928071 0.165228,0.154161 0.284295,0.154161 0.119043,0 0.223744,-0.0613543 0.284272,-0.154161l0.0785512 0c0.0605157,0.0928071 0.165217,0.154161 0.284283,0.154161 0.119043,0 0.223744,-0.0613543 0.284272,-0.154161l0.0785512 0c0.0605157,0.0928071 0.165228,0.154161 0.284272,0.154161 0.119067,0 0.223756,-0.0613543 0.284272,-0.154161l0.0785748 0c0.0605157,0.0928071 0.165217,0.154161 0.28426,0.154161 0.119067,0 0.22378,-0.0613543 0.284295,-0.154161l0.0785394 0c0.0605276,0.0928071 0.165228,0.154161 0.284283,0.154161 0.119055,0 0.223756,-0.0613543 0.284283,-0.154161l0.078563 0c0.0605157,0.0928071 0.165205,0.154161 0.284272,0.154161 0.119043,0 0.223756,-0.0613543 0.284272,-0.154161l0.0108386 0 0 0.41639 -0.0108386 0c-0.0605157,0.0928071 -0.165228,0.154157 -0.284272,0.154157 -0.119067,0 -0.223756,-0.0613504 -0.284272,-0.154157l-0.078563 0c-0.0605276,0.0928071 -0.165228,0.154157 -0.284283,0.154157 -0.119055,0 -0.223756,-0.0613504 -0.284283,-0.154157l-0.0785394 0c-0.0605157,0.0928071 -0.165228,0.154157 -0.284295,0.154157 -0.119043,0 -0.223744,-0.0613504 -0.28426,-0.154157l-0.0785748 0c-0.0605157,0.0928071 -0.165205,0.154157 -0.284272,0.154157 -0.119043,0 -0.223756,-0.0613504 -0.284272,-0.154157l-0.0785512 0c-0.0605276,0.0928071 -0.165228,0.154157 -0.284272,0.154157 -0.119067,0 -0.223768,-0.0613504 -0.284283,-0.154157l-0.0785512 0c-0.0605276,0.0928071 -0.165228,0.154157 -0.284272,0.154157 -0.119067,0 -0.22378,-0.0613504 -0.284295,-0.154157l-0.0785394 0c-0.0605276,0.0928071 -0.165228,0.154157 -0.284283,0.154157 -0.119055,0 -0.223756,-0.0613504 -0.284283,-0.154157l-0.0785512 0c-0.0605157,0.0928071 -0.165217,0.154157 -0.284272,0.154157 -0.119055,0 -0.223756,-0.0613504 -0.284283,-0.154157l-0.0108386 0 0 -0.41639z"/>
   <path id="_276793224" class="fil6" d="M0.853331 4.91337l0.0108386 0c0.0605276,0.0928071 0.165228,0.154157 0.284283,0.154157 0.119055,0 0.223756,-0.0613504 0.284272,-0.154157l0.0785512 0c0.0605276,0.0928071 0.165228,0.154157 0.284283,0.154157 0.119055,0 0.223756,-0.0613504 0.284283,-0.154157l0.0785394 0c0.0605157,0.0928071 0.165228,0.154157 0.284295,0.154157 0.119043,0 0.223744,-0.0613504 0.284272,-0.154157l0.0785512 0c0.0605157,0.0928071 0.165217,0.154157 0.284283,0.154157 0.119043,0 0.223744,-0.0613504 0.284272,-0.154157l0.0785512 0c0.0605157,0.0928071 0.165228,0.154157 0.284272,0.154157 0.119067,0 0.223756,-0.0613504 0.284272,-0.154157l0.0785748 0c0.0605157,0.0928071 0.165217,0.154157 0.28426,0.154157 0.119067,0 0.22378,-0.0613504 0.284295,-0.154157l0.0785394 0c0.0605276,0.0928071 0.165228,0.154157 0.284283,0.154157 0.119055,0 0.223756,-0.0613504 0.284283,-0.154157l0.078563 0c0.0605157,0.0928071 0.165205,0.154157 0.284272,0.154157 0.119043,0 0.223756,-0.0613504 0.284272,-0.154157l0.0108386 0 0 0.416386 -0.0108386 0c-0.0605157,0.0928071 -0.165228,0.154161 -0.284272,0.154161 -0.119067,0 -0.223756,-0.0613543 -0.284272,-0.154161l-0.078563 0c-0.0605276,0.0928071 -0.165228,0.154161 -0.284283,0.154161 -0.119055,0 -0.223756,-0.0613543 -0.284283,-0.154161l-0.0785394 0c-0.0605157,0.0928071 -0.165228,0.154161 -0.284295,0.154161 -0.119043,0 -0.223744,-0.0613543 -0.28426,-0.154161l-0.0785748 0c-0.0605157,0.0928071 -0.165205,0.154161 -0.284272,0.154161 -0.119043,0 -0.223756,-0.0613543 -0.284272,-0.154161l-0.0785512 0c-0.0605276,0.0928071 -0.165228,0.154161 -0.284272,0.154161 -0.119067,0 -0.223768,-0.0613543 -0.284283,-0.154161l-0.0785512 0c-0.0605276,0.0928071 -0.165228,0.154161 -0.284272,0.154161 -0.119067,0 -0.22378,-0.0613543 -0.284295,-0.154161l-0.0785394 0c-0.0605276,0.0928071 -0.165228,0.154161 -0.284283,0.154161 -0.119055,0 -0.223756,-0.0613543 -0.284283,-0.154161l-0.0785512 0c-0.0605157,0.0928071 -0.165217,0.154161 -0.284272,0.154161 -0.119055,0 -0.223756,-0.0613543 -0.284283,-0.154161l-0.0108386 0 0 -0.416386z"/>
  </g>
  <g id="_47073032">
   <g>
    <path id="_276792960" class="fil7" d="M3.36253 1.85132c0,0 -0.196673,-0.343685 -0.685638,0.0420315 -0.230602,-0.578524 -0.572768,-0.37922 -0.572768,-0.37922 0.314799,-0.275492 0.622787,0.192543 0.622787,0.192543 0,0 0.500744,-0.251339 0.635618,0.144646z"/>
    <polygon id="_276792792" class="fil7" points="2.80096,1.92298 2.80025,1.92339 2.56802,1.86117 2.56761,1.86046 2.71555,1.77505 "/>
   </g>
   <g>
    <path id="_276792432" class="fil7" d="M5.33333 2.08834c0,0 -0.272185,-0.475638 -0.948886,0.0581693 -0.319138,-0.800642 -0.792677,-0.524819 -0.792677,-0.524819 0.435661,-0.381264 0.861902,0.266472 0.861902,0.266472 0,0 0.693,-0.347835 0.879661,0.200177z"/>
    <polygon id="_276793008" class="fil7" points="4.55615,2.18752 4.55516,2.18809 4.23378,2.10198 4.23321,2.10099 4.43794,1.98279 "/>
   </g>
   <g>
    <path id="_47072816" class="fil7" d="M1.73918 1.64124c0,0 -0.138445,-0.241933 -0.48265,0.0295866 -0.162331,-0.407248 -0.403197,-0.266949 -0.403197,-0.266949 0.221602,-0.193929 0.438406,0.135539 0.438406,0.135539 0,0 0.352496,-0.176925 0.447441,0.101823z"/>
    <polygon id="_47073152" class="fil7" points="1.34386,1.69169 1.34336,1.69198 1.17989,1.64818 1.1796,1.64768 1.28374,1.58756 "/>
   </g>
  </g>
 </g>
 <rect class="fil8" width="6.82666" height="6.82666"/>
</svg>
