<?xml version="1.0" encoding="UTF-8"?>
<!DOCTYPE svg PUBLIC "-//W3C//DTD SVG 1.1//EN" "http://www.w3.org/Graphics/SVG/1.1/DTD/svg11.dtd">
<!-- Creator: CorelDRAW -->
<svg xmlns="http://www.w3.org/2000/svg" xml:space="preserve" width="6.82666in" height="6.82666in" style="shape-rendering:geometricPrecision; text-rendering:geometricPrecision; image-rendering:optimizeQuality; fill-rule:evenodd; clip-rule:evenodd"
viewBox="0 0 6.82666 6.82666"
 xmlns:xlink="http://www.w3.org/1999/xlink">
 <defs>
  <style type="text/css">
   <![CDATA[
    .fil22 {fill:none}
    .fil15 {fill:#005187}
    .fil14 {fill:#00558E}
    .fil16 {fill:#00695C}
    .fil12 {fill:#191919}
    .fil6 {fill:#212121}
    .fil3 {fill:#4DB6AC}
    .fil4 {fill:#B09176}
    .fil9 {fill:#B71C1C}
    .fil8 {fill:#BF9E83}
    .fil7 {fill:#BFE3E6}
    .fil11 {fill:#C3E8EA}
    .fil10 {fill:#C62828}
    .fil13 {fill:#E53935}
    .fil5 {fill:#FFD3AE}
    .fil0 {fill:#2D1D1A;fill-rule:nonzero}
    .fil1 {fill:#3E2723;fill-rule:nonzero}
    .fil20 {fill:#4E342E;fill-rule:nonzero}
    .fil19 {fill:#5D4037;fill-rule:nonzero}
    .fil18 {fill:#6D4C41;fill-rule:nonzero}
    .fil17 {fill:#E64A19;fill-rule:nonzero}
    .fil21 {fill:#F4511E;fill-rule:nonzero}
    .fil2 {fill:#FF7043;fill-rule:nonzero}
   ]]>
  </style>
 </defs>
 <g id="Layer_x0020_1">
  <metadata id="CorelCorpID_0Corel-Layer"/>
  <path class="fil0" d="M1.04044 4.96167l4.82876 -0.0141339c0.0575079,0 0.104138,0.046626 0.104138,0.104138 0,0.017685 -0.00441339,0.0343346 -0.0121929,0.0489213 -0.144142,0.341614 -0.24365,0.530193 -0.441276,0.643205 -0.192106,0.109846 -0.457862,0.131323 -0.937713,0.14061 -0.304531,0.00589764 -0.722319,0.0113937 -1.13232,-0.00188976 -0.856606,-0.0277441 -1.99094,-0.268957 -2.5965,-0.911638 0.0613228,-0.00749606 0.145972,-0.00989764 0.187106,-0.0092126z"/>
  <path class="fil1" d="M3.50669 1.23533c0,-0.0575118 -0.046626,-0.104138 -0.104134,-0.104138 -0.0575118,0 -0.104138,0.046626 -0.104138,0.104138l0 3.80743c0,0.0575118 0.046626,0.104138 0.104138,0.104138 0.0575079,0 0.104134,-0.046626 0.104134,-0.104138l0 -0.354937c0.273055,-0.0227362 0.490961,-0.0388976 0.670047,-0.0521772 0.604232,-0.0447992 0.826394,-0.0612756 0.826571,-0.21813 0.000102362,-0.0865827 -0.0819764,-0.149098 -0.211783,-0.247961 -1.08563,-0.826846 -1.28483,-1.70882 -1.28483,-2.93422z"/>
  <path class="fil2" d="M3.02885 1.3623c-0.131091,0.20502 -0.245815,0.407756 -0.342697,0.606228 -0.257091,0.526642 -0.384665,1.01637 -0.355079,1.43094 0.028563,0.400315 0.206571,0.731894 0.560256,0.958535 0.0494173,0.0316693 0.103106,0.0617165 0.161134,0.0900433l-0.0455591 0.0935591 0.045685 -0.0935787c0.0516811,0.0252283 0.073122,0.0875827 0.0478937,0.139264 -0.0200906,0.0411575 -0.0637244,0.0631378 -0.106768,0.0576417 -0.868079,-0.0742244 -1.4272,-0.252492 -1.75328,-0.493555 -0.264787,-0.195748 -0.380902,-0.432642 -0.385461,-0.690606 -0.0043937,-0.24826 0.0977126,-0.510827 0.270839,-0.770374 0.375744,-0.563311 1.09615,-1.12435 1.77061,-1.48179l-0.000110236 -0.000212598c0.050815,-0.0269291 0.113846,-0.00755906 0.140776,0.0432559 0.0193701,0.0365551 0.0147795,0.0794291 -0.00824016,0.110642z"/>
  <g id="_320309648">
   <path id="_272549976" class="fil3" d="M5.59622 5.03674c0.00202756,-0.00207087 0.171417,-0.0105512 0.173949,-0.00808268 0.0140315,0.0140236 0.0271378,0.0286142 0.0389961,0.0439724l-0.233642 0c0.00361811,-0.0131024 0.0105079,-0.0254961 0.0206969,-0.0358898z"/>
   <path id="_272550240" class="fil4" d="M5.59117 4.6902c-0.000192913,0.0300039 0.0315984,0.0340276 0.066685,0.0342559 0.0350945,0.000228346 0.0466772,0.0340315 0.0468701,0.0040315 0,0 0.00157874,-0.0921693 -0.00391339,-0.18048 -0.0018622,-0.0299449 -0.00638976,-0.0501969 -0.0414764,-0.0504252 -0.0350984,-0.000228346 -0.0740906,0.0212598 -0.0713858,0.0511417 0.00916929,0.101189 0.00322047,0.141476 0.00322047,0.141476z"/>
   <path id="_272549880" class="fil5" d="M5.60005 4.58593c0.00375984,0.0289094 0.0794291,0.056185 0.124283,0.0466417 0.0410906,-0.00217717 0.0359803,-0.0638976 0.0491969,-0.179165 -0.0154055,-0.0919567 -0.0536299,-0.0734921 -0.0984921,-0.0639528l-0.0302559 0.00763386c-0.0448543,0.00953543 -0.0734843,0.0536339 -0.0639528,0.0984961l0.0192205 0.0903465z"/>
   <path id="_272549904" class="fil6" d="M5.60914 4.60347c-0.118823,-0.143386 -0.0130236,-0.214126 0.0448346,-0.217969 0.170634,-0.0335197 0.114134,0.0529567 0.120961,0.0578465 -0.172287,0.00576772 -0.115709,0.0968819 -0.145484,0.106634 -0.0297874,0.00975197 -0.00167323,0.0377244 -0.020311,0.0534882z"/>
   <path id="_272551440" class="fil7" d="M5.58902 4.56111l0 0c-0.00173228,-0.00286614 -0.00340157,-0.00570472 -0.00499606,-0.00850394 0.00159449,0.00279921 0.00325984,0.0056378 0.005,0.00850394l-3.93701e-006 0zm-0.00506693 -0.00862205c-3.93701e-006,-7.87402e-006 -1.1811e-005,-2.75591e-005 -1.9685e-005,-3.54331e-005 7.87402e-006,1.1811e-005 1.5748e-005,2.3622e-005 1.9685e-005,3.54331e-005z"/>
   <path id="_272551416" class="fil8" d="M5.59028 4.57378c0,-3.93701e-006 0,-3.93701e-006 0,-1.1811e-005 -3.93701e-006,3.93701e-006 0,1.1811e-005 0,1.1811e-005l0 0zm-3.93701e-006 -0.000173228c0,-7.87402e-006 0,-1.5748e-005 0,-2.3622e-005 0,7.87402e-006 0,1.5748e-005 0,2.3622e-005zm0 -7.08661e-005c0,-7.87402e-006 0,-1.9685e-005 0,-3.14961e-005 0,1.1811e-005 0,2.3622e-005 0,3.54331e-005l0 -3.93701e-006zm0 -7.08661e-005c0,-1.9685e-005 0,-4.33071e-005 0,-6.29921e-005 0,1.5748e-005 0,4.33071e-005 0,6.29921e-005zm0 -9.84252e-005c3.93701e-006,-1.5748e-005 0,-2.75591e-005 3.93701e-006,-4.33071e-005 -3.93701e-006,1.1811e-005 0,2.75591e-005 -3.93701e-006,4.33071e-005l0 0zm3.93701e-006 -7.48031e-005c0,-2.3622e-005 0,-5.11811e-005 0,-7.48031e-005 0,2.3622e-005 0,5.11811e-005 0,7.48031e-005l0 0zm-0.000724409 -0.0112953l0 0c-0.000181102,-0.000295276 -0.000354331,-0.000586614 -0.000535433,-0.000885827l-3.93701e-006 0c0.000181102,0.000295276 0.000358268,0.000590551 0.00053937,0.000885827z"/>
   <path id="_272551512" class="fil9" d="M5.58132 5.00141c-0.0040748,-0.000314961 -0.00814961,-0.000633858 -0.0122283,-0.000948819 0.00216142,-0.045815 0.0197244,-0.350311 0.0239291,-0.359772 0.000783465,-0.00480315 0.020248,0.0280787 0.111815,0.0316417 0.0275118,0.0234803 0.0465,0.0523425 0.060937,0.0908268 0.0169685,0.0452323 0.0109291,0.243035 0.010815,0.253835 -0.071752,-0.00324409 -0.120937,-0.00975984 -0.195268,-0.0155827z"/>
   <path id="_272551488" class="fil3" d="M5.55139 5.07263l0.00805906 -0.027752 3.54331e-005 -0.000122047c0.00458661,-0.0177087 0.00856299,-0.0352953 0.010122,-0.0544606 0.0100827,0.00169685 0.0212598,0.00378346 0.0313504,0.00546457 0.040063,0.00667323 0.0802126,0.0127205 0.120315,0.0191457 0.0223858,0.00359449 0.0327244,0.00717323 0.0553189,0.00913386 5.51181e-005,0.0154055 0.000850394,0.0141457 0.000850394,0.0141457l-0.0185984 0.0344449 -0.207453 0z"/>
   <path id="_272551272" class="fil10" d="M5.65212 4.9927l0.0223858 -0.136055 -0.0221654 -0.0288622 -0.0501693 -0.0653189c-0.00675984,-0.00881496 -0.0105276,-0.0189882 -0.0114606,-0.0292913l0 0c-0.00168898,-0.0186811 0.00593307,-0.0377992 0.0219213,-0.0500591 9.44882e-005,-7.48031e-005 0.000188976,-0.000145669 0.000287402,-0.000220472 1.1811e-005,-7.87402e-006 2.3622e-005,-1.5748e-005 3.14961e-005,-2.75591e-005 0.00874016,-0.00660236 0.0187795,-0.0102913 0.0289567,-0.0112126 0,-3.93701e-006 7.87402e-006,-3.93701e-006 7.87402e-006,-3.93701e-006l0 0c7.87402e-006,0 1.5748e-005,0 2.3622e-005,0 0.018311,-0.00165354 0.0370315,0.00564567 0.049315,0.0209882 4.33071e-005,5.51181e-005 8.26772e-005,0.000106299 0.000125984,0.00015748 3.14961e-005,3.93701e-005 5.90551e-005,7.87402e-005 9.05512e-005,0.00011811 3.93701e-006,3.93701e-006 7.87402e-006,1.1811e-005 1.5748e-005,1.5748e-005 5.11811e-005,7.08661e-005 0.000106299,0.000137795 0.000161417,0.000208661 0.000110236,0.000145669 0.000224409,0.000287402 0.000334646,0.000433071l0.00733071 0.0122953 0.00552362 -0.0335472c-0.0857835,-0.00333071 -0.108283,-0.0323976 -0.111429,-0.0321142 -0.000208661,1.9685e-005 -0.000334646,0.000173228 -0.000385827,0.000476378 -0.00375197,0.00844882 -0.018185,0.252531 -0.022752,0.337028l0.0818504 0.0149921zm-0.0825157 -0.00241339c0,0 0,0 0,0l0 0zm1.9685e-005 -0.000448819l0.000625984 -0.0117165c-0.00023622,0.00435827 -0.000444882,0.00827953 -0.000625984,0.0117165z"/>
   <path id="_276792336" class="fil11" d="M5.77659 5.02404c9.05512e-005,-0.00204331 6.29921e-005,-0.0043622 2.3622e-005,-0.00606693 4.33071e-005,0.00170866 6.69291e-005,0.0040315 -2.3622e-005,0.00606693l0 0z"/>
   <path id="_320310104" class="fil12" d="M5.77659 5.02404c9.05512e-005,-0.00203543 6.69291e-005,-0.00435827 2.3622e-005,-0.00606693 -7.87402e-006,-0.000358268 -1.9685e-005,-0.000685039 -2.75591e-005,-0.000980315l3.93701e-006 0.00704724z"/>
   <g>
    <path id="_320310056" class="fil5" d="M5.60546 4.91599c0.00159843,0.0312165 0.0281929,0.0552323 0.0594134,0.0536299 0.0312087,-0.00158661 0.0317323,-0.0371535 0.0301417,-0.068378l0.00509449 -0.173134c-0.00160236,-0.0312087 -0.0281929,-0.0552205 -0.0594134,-0.053626 -0.0312165,0.00159449 -0.0552205,0.0281969 -0.0536339,0.0594094l0.0183976 0.182098z"/>
    <path id="_320309888" class="fil13" d="M5.59036 4.81728l-0.00433858 -0.0837874c-0.00161811,-0.0317992 0.0228346,-0.0588937 0.0546339,-0.0605236 0.0318031,-0.00162205 0.0588937,0.0228386 0.0605197,0.0546339l0.00367323 0.0732008c-0.0364961,0.0102008 -0.0779882,0.00627559 -0.114488,0.0164764z"/>
   </g>
   <path id="_320310224" class="fil14" d="M5.72559 4.92315c-7.87402e-006,-7.87402e-006 -1.1811e-005,-1.9685e-005 -1.9685e-005,-2.75591e-005l-0.051063 -0.0664803 0 3.93701e-006 0.0510827 0.0665039z"/>
   <path id="_320309696" class="fil15" d="M5.6745 4.85665l0 -3.93701e-006 -0.0221654 -0.0288583c0,0 0,0 0,0l-0.0501693 -0.0653189c-0.00675984,-0.00881496 -0.0105276,-0.0189882 -0.0114606,-0.0292913 0.000933071,0.0103031 0.00470079,0.0204764 0.0114606,0.0292913l0.0501693 0.0653189 0.0221654 0.0288622z"/>
   <path id="_320309984" class="fil16" d="M5.77669 5.0312c0.000173228,-0.00377165 -0.000161417,-0.0157047 -0.000161417,-0.0157047l-0.20626 -0.0377835 -0.0011811 0.022748c0,0 0.139197,0.0240945 0.207602,0.0307402z"/>
  </g>
  <path class="fil17" d="M3.00788 1.3953c-0.122386,0.193776 -0.230047,0.385409 -0.321728,0.573224 -0.257091,0.526642 -0.384665,1.01637 -0.355079,1.43094 0.028563,0.400315 0.206571,0.731894 0.560256,0.958535 0.0494173,0.0316693 0.103106,0.0617165 0.161134,0.0900433l-0.0374961 0.077c-0.583795,-0.0917795 -0.985673,-0.242764 -1.2427,-0.43278 -0.264787,-0.195748 -0.380902,-0.432642 -0.385461,-0.690606 -0.0043937,-0.24826 0.0977126,-0.510827 0.270839,-0.770374 0.298134,-0.446957 0.813256,-0.892461 1.35024,-1.23599zm0.0071063 3.12975l0.0376024 -0.0770236c0.0362402,0.0176929 0.0576102,0.0536378 0.0584449,0.0913622 -0.0325512,-0.0046063 -0.0645551,-0.00938976 -0.0960472,-0.0143386z"/>
  <path class="fil1" d="M3.11104 1.04008c0,-0.0575079 -0.046626,-0.104138 -0.104138,-0.104138 -0.0575118,0 -0.104138,0.0466299 -0.104138,0.104138l0 4.00268c0,0.0575118 0.046626,0.104138 0.104138,0.104138 0.0575118,0 0.104138,-0.046626 0.104138,-0.104138l0 -4.00268z"/>
  <path class="fil18" d="M1.04044 4.96167l4.82876 -0.0141339c0.0575079,0 0.104138,0.046626 0.104138,0.104138 0,0.017685 -0.00441339,0.0343346 -0.0121929,0.0489213 -0.0119646,0.0283543 -0.0236181,0.0556299 -0.0350472,0.0819213l-4.8367 0c-0.0851811,-0.0651457 -0.164362,-0.135543 -0.236059,-0.211634 0.0613228,-0.00749606 0.145972,-0.00989764 0.187106,-0.0092126z"/>
  <path class="fil19" d="M5.92609 5.1825c-0.0388858,0.0894252 -0.0751614,0.167181 -0.112028,0.23498l-4.35098 0c-0.133409,-0.0691929 -0.259031,-0.147295 -0.373705,-0.23498l4.83672 0z"/>
  <path class="fil20" d="M5.81407 5.41747c-0.0527244,0.0969567 -0.106677,0.173591 -0.171248,0.23498l-3.60078 0c-0.201839,-0.0632008 -0.397555,-0.140898 -0.578976,-0.23498l4.351 0z"/>
  <path class="fil1" d="M5.64283 5.65244c-0.0369291,0.0351142 -0.0773346,0.0652559 -0.122972,0.0913543 -0.192106,0.109846 -0.457862,0.131323 -0.937713,0.14061 -0.0543701,0.00105118 -0.112366,0.00209449 -0.173264,0.00301575l-0.767551 0c-0.0637205,-0.00122441 -0.127705,-0.00283858 -0.191504,-0.00490551 -0.433035,-0.0140236 -0.937028,-0.0826535 -1.40782,-0.230075l3.60083 0z"/>
  <path class="fil21" d="M3.50669 4.68782c0.273055,-0.0227362 0.490961,-0.0388976 0.670047,-0.0521772 0.604232,-0.0447992 0.826394,-0.0612756 0.826571,-0.21813 0.000102362,-0.0865827 -0.0819764,-0.149098 -0.211783,-0.247961 -1.08563,-0.826846 -1.28483,-1.70882 -1.28483,-2.93422l0 3.45249z"/>
 </g>
 <rect class="fil22" width="6.82666" height="6.82666"/>
</svg>
