<?xml version="1.0" encoding="UTF-8"?>
<!DOCTYPE svg PUBLIC "-//W3C//DTD SVG 1.1//EN" "http://www.w3.org/Graphics/SVG/1.1/DTD/svg11.dtd">
<!-- Creator: CorelDRAW -->
<svg xmlns="http://www.w3.org/2000/svg" xml:space="preserve" width="6.82666in" height="6.82666in" style="shape-rendering:geometricPrecision; text-rendering:geometricPrecision; image-rendering:optimizeQuality; fill-rule:evenodd; clip-rule:evenodd"
viewBox="0 0 6.82666 6.82666"
 xmlns:xlink="http://www.w3.org/1999/xlink">
 <defs>
  <style type="text/css">
   <![CDATA[
    .fil8 {fill:none}
    .fil7 {fill:#32201D}
    .fil3 {fill:#3E2723}
    .fil4 {fill:#3F2A25}
    .fil0 {fill:#4E342E}
    .fil6 {fill:#32201D;fill-rule:nonzero}
    .fil2 {fill:#3E2723;fill-rule:nonzero}
    .fil5 {fill:#3F2A25;fill-rule:nonzero}
    .fil1 {fill:#4E342E;fill-rule:nonzero}
   ]]>
  </style>
 </defs>
 <g id="Layer_x0020_1">
  <metadata id="CorelCorpID_0Corel-Layer"/>
  <g id="_273206944">
   <path id="_273207328" class="fil0" d="M1.91889 3.88262c0,0.395409 0.155512,0.770819 0.435067,1.05037 0.279555,0.279555 0.654965,0.435067 1.05037,0.435067 0.395409,0 0.770819,-0.155512 1.05037,-0.435067 0.279555,-0.279551 0.435067,-0.654961 0.435067,-1.05037 0,-0.117783 0.0955512,-0.213335 0.213335,-0.213335 0.117783,0 0.213335,0.0955512 0.213335,0.213335 0,0.50876 -0.200362,0.992366 -0.560051,1.35206 -0.359689,0.359689 -0.843299,0.560051 -1.35206,0.560051 -0.50876,0 -0.99237,-0.200362 -1.35206,-0.560051 -0.359689,-0.359689 -0.560051,-0.843295 -0.560051,-1.35206 0,-0.117783 0.0955512,-0.213335 0.213335,-0.213335 0.117783,0 0.213335,0.0955512 0.213335,0.213335z"/>
   <path id="_273208024" class="fil1" d="M3.62452 1.86385c0,-0.0589094 -0.0955157,-0.106669 -0.213331,-0.106669 -0.117815,0 -0.213331,0.0477598 -0.213331,0.106669l0 3.91495 0.213331 0.194528 0.213331 -0.194528 0 -3.91495z"/>
   <path id="_273207952" class="fil2" d="M3.12592 2.90728c-0.0589094,0 -0.106669,0.0477598 -0.106669,0.106669 0,0.0589094 0.0477598,0.106669 0.106669,0.106669l0.570539 0c0.0589094,0 0.106669,-0.0477598 0.106669,-0.106669 0,-0.0589094 -0.0477598,-0.106669 -0.106669,-0.106669l-0.570539 0z"/>
   <polygon id="_273207064" class="fil3" points="1.63935,3.55724 2.45543,4.12993 1.06667,4.37333 "/>
   <path id="_273206728" class="fil2" d="M3.79931 1.80691c-0.101091,0.101091 -0.24074,0.163618 -0.39498,0.163618 -0.15424,0 -0.29389,-0.0625276 -0.39498,-0.163618 -0.101091,-0.101091 -0.163618,-0.240744 -0.163618,-0.39498 0,-0.15424 0.0625276,-0.29389 0.163618,-0.39498 0.101091,-0.101091 0.24074,-0.163618 0.39498,-0.163618 0.15424,0 0.29389,0.0625276 0.39498,0.163618 0.101091,0.101091 0.163618,0.24074 0.163618,0.39498 0,0.154236 -0.0625276,0.29389 -0.163618,0.39498zm-0.39498 -0.183622c0.058374,0 0.111217,-0.0236535 0.149461,-0.0618976 0.0382441,-0.0382441 0.0618976,-0.0910906 0.0618976,-0.149461 0,-0.058374 -0.0236535,-0.111217 -0.0618976,-0.149461 -0.0382441,-0.0382441 -0.0910866,-0.0618976 -0.149461,-0.0618976 -0.058374,0 -0.111217,0.0236535 -0.149461,0.0618976 -0.0382441,0.0382441 -0.0618976,0.0910866 -0.0618976,0.149461 0,0.0583701 0.0236535,0.111217 0.0618976,0.149461 0.0382441,0.0382441 0.0910866,0.0618976 0.149461,0.0618976z"/>
   <polygon id="_273207160" class="fil3" points="5.17505,3.55724 4.35897,4.12993 5.74773,4.37333 "/>
  </g>
  <g id="_272550456">
   <path id="_273206632" class="fil4" d="M3.41333 5.368c0.392102,-0.00234252 0.763941,-0.157579 1.04137,-0.435012 0.279555,-0.279551 0.435067,-0.654961 0.435067,-1.05037 0,-0.117783 0.0955512,-0.213335 0.213335,-0.213335 0.117783,0 0.213335,0.0955512 0.213335,0.213335 0,0.50876 -0.200362,0.992366 -0.560051,1.35206 -0.357567,0.357567 -0.837598,0.557646 -1.34306,0.559996l0 -0.426669z"/>
   <path id="_273207016" class="fil5" d="M3.62452 1.86385c0,-0.0585512 -0.0943661,-0.106083 -0.211193,-0.106657l0 4.21419 0.211193 -0.192579 0 -3.91495z"/>
   <path id="_273206608" class="fil6" d="M3.41333 3.12062l0.28313 0c0.0589094,0 0.106669,-0.0477598 0.106669,-0.106669 0,-0.0589094 -0.0477598,-0.106669 -0.106669,-0.106669l-0.28313 0 0 0.213339z"/>
   <path id="_272550576" class="fil6" d="M3.79931 1.80691c-0.0991181,0.0991181 -0.235311,0.161157 -0.385976,0.163539l0 -0.347354c0.0547913,-0.00229528 0.104189,-0.025437 0.140457,-0.0617047 0.0382441,-0.0382441 0.0618976,-0.0910906 0.0618976,-0.149461 0,-0.058374 -0.0236535,-0.111217 -0.0618976,-0.149461 -0.0362677,-0.0362677 -0.0856654,-0.0594094 -0.140457,-0.0617047l0 -0.347354c0.150665,0.00238189 0.286858,0.0644213 0.385976,0.163539 0.101091,0.101091 0.163618,0.24074 0.163618,0.39498 0,0.154236 -0.0625276,0.29389 -0.163618,0.39498z"/>
   <polygon id="_272550384" class="fil7" points="5.17505,3.55724 4.35897,4.12993 5.74773,4.37333 "/>
  </g>
 </g>
 <rect class="fil8" width="6.82666" height="6.82666"/>
</svg>
