<?xml version="1.0" encoding="UTF-8"?>
<!DOCTYPE svg PUBLIC "-//W3C//DTD SVG 1.1//EN" "http://www.w3.org/Graphics/SVG/1.1/DTD/svg11.dtd">
<!-- Creator: CorelDRAW -->
<svg xmlns="http://www.w3.org/2000/svg" xml:space="preserve" width="6.82666in" height="6.82666in" style="shape-rendering:geometricPrecision; text-rendering:geometricPrecision; image-rendering:optimizeQuality; fill-rule:evenodd; clip-rule:evenodd"
viewBox="0 0 6.82666 6.82666"
 xmlns:xlink="http://www.w3.org/1999/xlink">
 <defs>
  <style type="text/css">
   <![CDATA[
    .fil3 {fill:none}
    .fil2 {fill:#0D47A1;fill-rule:nonzero}
    .fil1 {fill:#B92E2B;fill-rule:nonzero}
    .fil0 {fill:#E53935;fill-rule:nonzero}
   ]]>
  </style>
 </defs>
 <g id="Layer_x0020_1">
  <metadata id="CorelCorpID_0Corel-Layer"/>
  <g id="_273208120">
   <g>
    <path id="_273205312" class="fil0" d="M4.6339 2.18327c0,0.251764 -0.0727913,0.486697 -0.19848,0.684906 -0.129583,0.204343 -0.315697,0.369528 -0.536453,0.473697l0.000102362 0.000212598c-0.0532756,0.0251378 -0.116846,0.00233071 -0.141984,-0.0509449 -0.00792126,-0.0167835 -0.0110787,-0.0345906 -0.0100276,-0.0518937 -0.00769291,-0.249823 -0.114256,-0.469748 -0.265484,-0.654858 -0.210543,-0.257709 -0.506988,-0.448146 -0.749803,-0.560594 -0.21587,-0.0999685 -0.356079,-0.215354 -0.438835,-0.332531 -0.0756772,-0.107165 -0.104504,-0.216543 -0.0992953,-0.319059l-0.000279528 -1.5748e-005c0.00015748,-0.00309843 0.000452756,-0.00616142 0.000866142,-0.00917717 0.0071811,-0.0999567 0.0467126,-0.190933 0.106634,-0.265343 0.0646299,-0.0802717 0.153874,-0.14178 0.251843,-0.174307 0.142244,-0.0472362 0.298059,-0.0700354 0.457925,-0.0700354 0.316004,0 0.654094,0.0882913 0.938583,0.252161 0.289252,0.166618 0.524094,0.411957 0.627587,0.723626 0.0369252,0.111193 0.0571024,0.2295 0.0571024,0.354157z"/>
    <path id="_273205384" class="fil1" d="M3.89911 3.3418l-0.000149606 7.08661e-005 0.000102362 0.000212598c-0.0532756,0.0251378 -0.116846,0.00233071 -0.141984,-0.0509449 -0.00792126,-0.0167835 -0.0110787,-0.0345906 -0.0100276,-0.0518937 -0.00769291,-0.249823 -0.114256,-0.469748 -0.265484,-0.654858 -0.210543,-0.257709 -0.506988,-0.448146 -0.749803,-0.560594 -0.21587,-0.0999685 -0.356079,-0.215354 -0.438835,-0.332531 -0.0756772,-0.107165 -0.104504,-0.216543 -0.0992953,-0.319059l-0.000279528 -1.5748e-005c0.00015748,-0.00309843 0.000452756,-0.00616142 0.000866142,-0.00917717 0.0071811,-0.0999567 0.0467126,-0.190933 0.106634,-0.265343 0.0256378,-0.0318425 0.0551535,-0.0607323 0.0875472,-0.0860315 0.97085,0.423567 1.74667,1.13524 1.51071,2.33017z"/>
   </g>
   <path id="_273209008" class="fil2" d="M3.41333 3.09333c0.0883543,0 0.168358,0.0358268 0.226264,0.0937362 0.0579094,0.0579055 0.0937362,0.137909 0.0937362,0.226264 0,0.0883543 -0.0358268,0.168358 -0.0937362,0.226264 -0.0579055,0.0579094 -0.137909,0.0937362 -0.226264,0.0937362 -0.0883543,0 -0.168358,-0.0358268 -0.226264,-0.0937362 -0.0579094,-0.0579055 -0.0937362,-0.137909 -0.0937362,-0.226264 0,-0.0883543 0.0358268,-0.168358 0.0937362,-0.226264 0.0579055,-0.0579094 0.137909,-0.0937362 0.226264,-0.0937362z"/>
   <g>
    <path id="_273208888" class="fil0" d="M4.64339 4.6339c-0.251764,0 -0.486697,-0.0727913 -0.684906,-0.19848 -0.204343,-0.129583 -0.369528,-0.315697 -0.473697,-0.536453l-0.000212598 0.000102362c-0.0251378,-0.0532756 -0.00233071,-0.116846 0.0509449,-0.141984 0.0167835,-0.00792126 0.0345906,-0.0110787 0.0518937,-0.0100276 0.249823,-0.00769291 0.469748,-0.114256 0.654858,-0.265484 0.257709,-0.210543 0.448146,-0.506988 0.560594,-0.749803 0.0999685,-0.21587 0.215354,-0.356079 0.332531,-0.438835 0.107165,-0.0756772 0.216543,-0.104504 0.319059,-0.0992953l1.5748e-005 -0.000279528c0.00309843,0.00015748 0.00616142,0.000452756 0.00917717,0.000866142 0.0999567,0.0071811 0.190933,0.0467126 0.265343,0.106634 0.0802717,0.0646299 0.14178,0.153874 0.174307,0.251843 0.0472362,0.142244 0.0700354,0.298059 0.0700354,0.457925 0,0.316004 -0.0882913,0.654094 -0.252161,0.938583 -0.166618,0.289252 -0.411957,0.524094 -0.723626,0.627587 -0.111193,0.0369252 -0.2295,0.0571024 -0.354157,0.0571024z"/>
    <path id="_273208216" class="fil1" d="M3.48486 3.89911l-7.08661e-005 -0.000149606 -0.000212598 0.000102362c-0.0251378,-0.0532756 -0.00233071,-0.116846 0.0509449,-0.141984 0.0167835,-0.00792126 0.0345906,-0.0110787 0.0518937,-0.0100276 0.249823,-0.00769291 0.469748,-0.114256 0.654858,-0.265484 0.257709,-0.210543 0.448146,-0.506988 0.560594,-0.749803 0.0999685,-0.21587 0.215354,-0.356079 0.332531,-0.438835 0.107165,-0.0756772 0.216543,-0.104504 0.319059,-0.0992953l1.5748e-005 -0.000279528c0.00309843,0.00015748 0.00616142,0.000452756 0.00917717,0.000866142 0.0999567,0.0071811 0.190933,0.0467126 0.265343,0.106634 0.0318425,0.0256378 0.0607323,0.0551535 0.0860315,0.0875472 -0.423567,0.97085 -1.13524,1.74667 -2.33017,1.51071z"/>
   </g>
   <g>
    <path id="_273208552" class="fil0" d="M2.19276 4.64339c0,-0.251764 0.0727913,-0.486697 0.19848,-0.684906 0.129583,-0.204343 0.315697,-0.369528 0.536453,-0.473697l-0.000102362 -0.000212598c0.0532756,-0.0251378 0.116846,-0.00233071 0.141984,0.0509449 0.00792126,0.0167835 0.0110787,0.0345906 0.0100276,0.0518937 0.00769291,0.249823 0.114256,0.469748 0.265484,0.654858 0.210543,0.257709 0.506988,0.448146 0.749803,0.560594 0.21587,0.0999685 0.356079,0.215354 0.438835,0.332531 0.0756772,0.107165 0.104504,0.216543 0.0992953,0.319059l0.000279528 1.5748e-005c-0.00015748,0.00309843 -0.000452756,0.00616142 -0.000866142,0.00917717 -0.0071811,0.0999567 -0.0467126,0.190933 -0.106634,0.265343 -0.0646299,0.0802717 -0.153874,0.14178 -0.251843,0.174307 -0.142244,0.0472362 -0.298059,0.0700354 -0.457925,0.0700354 -0.316004,0 -0.654094,-0.0882913 -0.938583,-0.252161 -0.289252,-0.166618 -0.524094,-0.411957 -0.627587,-0.723626 -0.0369252,-0.111193 -0.0571024,-0.2295 -0.0571024,-0.354157z"/>
    <path id="_273208144" class="fil1" d="M2.92755 3.48486l0.000149606 -7.08661e-005 -0.000102362 -0.000212598c0.0532756,-0.0251378 0.116846,-0.00233071 0.141984,0.0509449 0.00792126,0.0167835 0.0110787,0.0345906 0.0100276,0.0518937 0.00769291,0.249823 0.114256,0.469748 0.265484,0.654858 0.210543,0.257709 0.506988,0.448146 0.749803,0.560594 0.21587,0.0999685 0.356079,0.215354 0.438835,0.332531 0.0756772,0.107165 0.104504,0.216543 0.0992953,0.319059l0.000279528 1.5748e-005c-0.00015748,0.00309843 -0.000452756,0.00616142 -0.000866142,0.00917717 -0.0071811,0.0999567 -0.0467126,0.190933 -0.106634,0.265343 -0.0256378,0.0318425 -0.0551535,0.0607323 -0.0875472,0.0860315 -0.97085,-0.423567 -1.74667,-1.13524 -1.51071,-2.33017z"/>
   </g>
   <g>
    <path id="_273208096" class="fil0" d="M2.18327 2.19276c0.251764,0 0.486697,0.0727913 0.684906,0.19848 0.204343,0.129583 0.369528,0.315697 0.473697,0.536453l0.000212598 -0.000102362c0.0251378,0.0532756 0.00233071,0.116846 -0.0509449,0.141984 -0.0167835,0.00792126 -0.0345906,0.0110787 -0.0518937,0.0100276 -0.249823,0.00769291 -0.469748,0.114256 -0.654858,0.265484 -0.257709,0.210543 -0.448146,0.506988 -0.560594,0.749803 -0.0999685,0.21587 -0.215354,0.356079 -0.332531,0.438835 -0.107165,0.0756772 -0.216543,0.104504 -0.319059,0.0992953l-1.5748e-005 0.000279528c-0.00309843,-0.00015748 -0.00616142,-0.000452756 -0.00917717,-0.000866142 -0.0999567,-0.0071811 -0.190933,-0.0467126 -0.265343,-0.106634 -0.0802717,-0.0646299 -0.14178,-0.153874 -0.174307,-0.251843 -0.0472362,-0.142244 -0.0700354,-0.298059 -0.0700354,-0.457925 0,-0.316004 0.0882913,-0.654094 0.252161,-0.938583 0.166618,-0.289252 0.411957,-0.524094 0.723626,-0.627587 0.111193,-0.0369252 0.2295,-0.0571024 0.354157,-0.0571024z"/>
    <path id="_273208312" class="fil1" d="M3.3418 2.92755l7.08661e-005 0.000149606 0.000212598 -0.000102362c0.0251378,0.0532756 0.00233071,0.116846 -0.0509449,0.141984 -0.0167835,0.00792126 -0.0345906,0.0110787 -0.0518937,0.0100276 -0.249823,0.00769291 -0.469748,0.114256 -0.654858,0.265484 -0.257709,0.210543 -0.448146,0.506988 -0.560594,0.749803 -0.0999685,0.21587 -0.215354,0.356079 -0.332531,0.438835 -0.107165,0.0756772 -0.216543,0.104504 -0.319059,0.0992953l-1.5748e-005 0.000279528c-0.00309843,-0.00015748 -0.00616142,-0.000452756 -0.00917717,-0.000866142 -0.0999567,-0.0071811 -0.190933,-0.0467126 -0.265343,-0.106634 -0.0318425,-0.0256378 -0.0607323,-0.0551535 -0.0860315,-0.0875472 0.423567,-0.97085 1.13524,-1.74667 2.33017,-1.51071z"/>
   </g>
  </g>
 </g>
 <rect class="fil3" width="6.82666" height="6.82666"/>
</svg>
