<?xml version="1.0" encoding="UTF-8"?>
<!DOCTYPE svg PUBLIC "-//W3C//DTD SVG 1.1//EN" "http://www.w3.org/Graphics/SVG/1.1/DTD/svg11.dtd">
<!-- Creator: CorelDRAW -->
<svg xmlns="http://www.w3.org/2000/svg" xml:space="preserve" width="6.82666in" height="6.82666in" style="shape-rendering:geometricPrecision; text-rendering:geometricPrecision; image-rendering:optimizeQuality; fill-rule:evenodd; clip-rule:evenodd"
viewBox="0 0 6.82666 6.82666"
 xmlns:xlink="http://www.w3.org/1999/xlink">
 <defs>
  <style type="text/css">
   <![CDATA[
    .fil3 {fill:none}
    .fil0 {fill:#6F1C92}
    .fil1 {fill:#8E24AA}
    .fil2 {fill:#263238;fill-rule:nonzero}
   ]]>
  </style>
 </defs>
 <g id="Layer_x0020_1">
  <metadata id="CorelCorpID_0Corel-Layer"/>
  <g id="_273205096">
   <g>
    <path id="_273206344" class="fil0" d="M5.97333 2.93963c0,0 -0.715189,0.380945 -0.956476,-0.559315 0,0 -0.0661181,-0.00622441 -0.149957,-0.024126 -0.0138583,-0.00404331 -0.0291496,-0.00629134 -0.0452205,-0.00629134 -0.0627795,0 -0.113669,0.0341969 -0.113669,0.076374 0,0.0421811 0.0508898,0.076374 0.113669,0.076374 0.00199606,0 0.00398031,-3.54331e-005 0.00594882,-0.000102362l-0.208976 0.779925c0.106268,0.0363898 0.231626,0.0862283 0.379776,0.153626 0,0 0.102291,0.0274094 0.383504,-0.113933 0.145606,-0.073189 0.339205,-0.191622 0.591402,-0.382531z"/>
    <path id="_273205984" class="fil1" d="M5.02229 2.48168c-0.132713,-0.0283543 -0.309807,-0.0860079 -0.339457,-0.194709l-0.813409 -0.256071 -0.315705 1.17823 0.314193 0.084189c0,0 0.366528,-0.070126 0.906177,0.114654l0.248201 -0.926291z"/>
    <path id="_273206176" class="fil2" d="M3.75588 1.99962c0.0115748,-0.0433307 0.0560945,-0.0690709 0.0994252,-0.0574961 0.0433307,0.0115787 0.0690748,0.0560945 0.0574961,0.0994252l-0.746366 2.78549c-0.0115787,0.0433346 -0.0560945,0.0690748 -0.0994291,0.0574961 -0.0433307,-0.0115748 -0.0690709,-0.0560945 -0.0574961,-0.0994252l0.74637 -2.78549z"/>
   </g>
   <g>
    <path id="_273205936" class="fil0" d="M0.853331 2.93963c0,0 0.715189,0.380945 0.956476,-0.559315 0,0 0.0661181,-0.00622441 0.149957,-0.024126 0.0138583,-0.00404331 0.0291496,-0.00629134 0.0452205,-0.00629134 0.0627795,0 0.113669,0.0341969 0.113669,0.076374 0,0.0421811 -0.0508898,0.076374 -0.113669,0.076374 -0.00199606,0 -0.00398031,-3.54331e-005 -0.00594882,-0.000102362l0.208976 0.779925c-0.106268,0.0363898 -0.231626,0.0862283 -0.379776,0.153626 0,0 -0.102291,0.0274094 -0.383504,-0.113933 -0.145606,-0.073189 -0.339205,-0.191622 -0.591402,-0.382531z"/>
    <path id="_273205864" class="fil1" d="M1.80437 2.48168c0.132713,-0.0283543 0.309807,-0.0860079 0.339457,-0.194709l0.813409 -0.256071 0.315705 1.17823 -0.314193 0.084189c0,0 -0.366528,-0.070126 -0.906177,0.114654l-0.248201 -0.926291z"/>
    <path id="_273205816" class="fil2" d="M3.07078 1.99962c-0.0115748,-0.0433307 -0.0560945,-0.0690709 -0.0994252,-0.0574961 -0.0433307,0.0115787 -0.0690748,0.0560945 -0.0574961,0.0994252l0.746366 2.78549c0.0115787,0.0433346 0.0560945,0.0690748 0.0994291,0.0574961 0.0433307,-0.0115748 0.0690709,-0.0560945 0.0574961,-0.0994252l-0.74637 -2.78549z"/>
   </g>
  </g>
 </g>
 <rect class="fil3" width="6.82666" height="6.82666"/>
</svg>
