<?xml version="1.0" encoding="UTF-8"?>
<!DOCTYPE svg PUBLIC "-//W3C//DTD SVG 1.1//EN" "http://www.w3.org/Graphics/SVG/1.1/DTD/svg11.dtd">
<!-- Creator: CorelDRAW -->
<svg xmlns="http://www.w3.org/2000/svg" xml:space="preserve" width="6.82666in" height="6.82666in" style="shape-rendering:geometricPrecision; text-rendering:geometricPrecision; image-rendering:optimizeQuality; fill-rule:evenodd; clip-rule:evenodd"
viewBox="0 0 6.82666 6.82666"
 xmlns:xlink="http://www.w3.org/1999/xlink">
 <defs>
  <style type="text/css">
   <![CDATA[
    .fil7 {fill:none}
    .fil0 {fill:#455A64}
    .fil6 {fill:#80DEEA}
    .fil2 {fill:#E6C23A}
    .fil1 {fill:#FFD740}
    .fil5 {fill:#FFF3E0}
    .fil4 {fill:#263238;fill-rule:nonzero}
    .fil3 {fill:#FFAB00;fill-rule:nonzero}
   ]]>
  </style>
 </defs>
 <g id="Layer_x0020_1">
  <metadata id="CorelCorpID_0Corel-Layer"/>
  <path class="fil0" d="M2.72447 2.97481l1.37772 0 0.259551 2.87342c0.00104331,0.00598819 0.00159055,0.0121457 0.00159055,0.0184331 0,0.0589094 -0.0477598,0.106669 -0.106669,0.106669l-0.465217 -3.93701e-006 0 -1.01646c0,-0.0651063 -0.0423268,-0.11789 -0.0945315,-0.11789l-0.567177 0c-0.0522047,0 -0.0945315,0.0527835 -0.0945315,0.11789l0 1.01646 -0.465205 3.93701e-006c-0.00391732,-3.93701e-006 -0.00786614,-0.000216535 -0.0118465,-0.000661417 -0.0585433,-0.00653937 -0.100701,-0.059311 -0.0941614,-0.117854l0.000192913 1.9685e-005 0.260287 -2.88002z"/>
  <polygon class="fil1" points="4.16107,3.62667 4.18034,3.84 2.64628,3.84 2.66556,3.62667 "/>
  <polygon class="fil2" points="4.1707,3.73333 4.18034,3.84 2.64628,3.84 2.65592,3.73333 "/>
  <polygon class="fil1" points="4.12253,3.2 4.1418,3.41333 2.68484,3.41333 2.70412,3.2 "/>
  <polygon class="fil2" points="4.13217,3.30666 4.1418,3.41333 2.68484,3.41333 2.69448,3.30666 "/>
  <path class="fil0" d="M3.41333 0.853331c0.176114,0 0.336146,0.0694724 0.452091,0.18139 0.115941,0.111917 0.187913,0.26639 0.187913,0.43639l0 0.448886 -1.28001 0 0 -0.448886c0,-0.17 0.0719724,-0.324472 0.187913,-0.43639 0.115945,-0.111917 0.275976,-0.18139 0.452091,-0.18139zm0 0.426665c0.0546693,0 0.104169,0.0213976 0.139992,0.0559843 0.0358307,0.0345787 0.0579961,0.0823583 0.0579961,0.13513 0,0.0527638 -0.0221654,0.100551 -0.0579961,0.13513 -0.0358228,0.0345866 -0.0853228,0.0559843 -0.139992,0.0559843 -0.0546693,0 -0.104169,-0.0213976 -0.139992,-0.0559843 -0.0358307,-0.0345787 -0.0579961,-0.0823661 -0.0579961,-0.13513 0,-0.0527717 0.0221654,-0.100551 0.0579961,-0.13513 0.0358228,-0.0345866 0.0853228,-0.0559843 0.139992,-0.0559843z"/>
  <path class="fil3" d="M2.6807 1.87555l1.46526 0c0.0666614,0 0.120709,0.0477598 0.120709,0.106669l0 0.885921c0,0.0589094 -0.0540472,0.106669 -0.120709,0.106669l-1.46526 0c-0.0666614,0 -0.120709,-0.0477598 -0.120709,-0.106669l0 -0.885921c0,-0.0589094 0.0540472,-0.106669 0.120709,-0.106669z"/>
  <path class="fil4" d="M1.71734 5.75999c-0.0589094,0 -0.106669,0.0477598 -0.106669,0.106669 0,0.0589094 0.0477598,0.106669 0.106669,0.106669l3.39197 0c0.0589094,0 0.106669,-0.0477598 0.106669,-0.106669 0,-0.0589094 -0.0477598,-0.106669 -0.106669,-0.106669l-3.39197 0z"/>
  <path class="fil5" d="M3.39961 2.06318l0.027437 0c0.16372,0 0.297665,0.133949 0.297665,0.297669l0 0.426335 -0.622772 0 0 -0.426335c0,-0.16372 0.133949,-0.297669 0.297669,-0.297669z"/>
  <g id="_274140424">
   <path id="_274140784" class="fil5" d="M2.80427 2.06318l0.0137165 0c0.0818622,0 0.148835,0.0669724 0.148835,0.148835l0 0.575169 -0.311386 0 0 -0.575169c0,-0.0818622 0.0669724,-0.148835 0.148835,-0.148835z"/>
   <path id="_274140304" class="fil5" d="M4.00867 2.06318l0.0137165 0c0.0818622,0 0.148835,0.0669724 0.148835,0.148835l0 0.575169 -0.311386 0 0 -0.575169c0,-0.0818622 0.0669724,-0.148835 0.148835,-0.148835z"/>
  </g>
  <path class="fil6" d="M3.79144 4.95686c0,-0.0651063 -0.0423268,-0.11789 -0.0945315,-0.11789l-0.567177 0c-0.0522047,0 -0.0945315,0.0527835 -0.0945315,0.11789l0 0.803126 0.75624 0 0 -0.803126z"/>
  <g id="_274140040">
   <polygon id="_274140736" class="fil1" points="0.853335,1.99723 2.55999,2.42518 0.853335,2.85313 0.853335,2.42518 "/>
   <polygon id="_274139536" class="fil2" points="2.55999,2.42518 0.853335,2.85313 0.853335,2.42518 "/>
  </g>
  <g id="_274139920">
   <polygon id="_274139512" class="fil1" points="5.97333,1.99723 4.26667,2.42518 5.97333,2.85313 5.97333,2.42518 "/>
   <polygon id="_274139440" class="fil2" points="4.26667,2.42518 5.97333,2.85313 5.97333,2.42518 "/>
  </g>
 </g>
 <rect class="fil7" width="6.82666" height="6.82666"/>
</svg>
