<?xml version="1.0" encoding="UTF-8"?>
<!DOCTYPE svg PUBLIC "-//W3C//DTD SVG 1.1//EN" "http://www.w3.org/Graphics/SVG/1.1/DTD/svg11.dtd">
<!-- Creator: CorelDRAW -->
<svg xmlns="http://www.w3.org/2000/svg" xml:space="preserve" width="6.82666in" height="6.82666in" style="shape-rendering:geometricPrecision; text-rendering:geometricPrecision; image-rendering:optimizeQuality; fill-rule:evenodd; clip-rule:evenodd"
viewBox="0 0 6.82666 6.82666"
 xmlns:xlink="http://www.w3.org/1999/xlink">
 <defs>
  <style type="text/css">
   <![CDATA[
    .fil3 {fill:none}
    .fil2 {fill:#5E452C}
    .fil0 {fill:#684D31}
    .fil1 {fill:#80603C}
   ]]>
  </style>
 </defs>
 <g id="Layer_x0020_1">
  <metadata id="CorelCorpID_0Corel-Layer"/>
  <g id="_274142608">
   <path id="_329423648" class="fil0" d="M3.29909 1.58354l0 -0.108004c0,0 0.0501339,-0.0324173 0.0357795,-0.119315 0,0 -0.248256,-0.424335 0.0784646,-0.502886 0.32672,0.0785512 0.0784646,0.502886 0.0784646,0.502886 -0.0143543,0.0868976 0.0357795,0.119315 0.0357795,0.119315l0 0.108004 -0.228488 0z"/>
   <path id="_329422712" class="fil1" d="M3.41333 1.55185c1.02807,0 1.86148,0.833413 1.86148,1.86148 0,1.02807 -0.833413,1.86148 -1.86148,1.86148 -1.02807,0 -1.86148,-0.833413 -1.86148,-1.86148 0,-1.02807 0.833413,-1.86148 1.86148,-1.86148zm0 0.429575c0.790819,0 1.43191,0.641087 1.43191,1.43191 0,0.790819 -0.641087,1.43191 -1.43191,1.43191 -0.790819,0 -1.43191,-0.641087 -1.43191,-1.43191 0,-0.790819 0.641087,-1.43191 1.43191,-1.43191z"/>
   <path id="_329422640" class="fil1" d="M3.41333 1.55185c1.02807,0 1.86148,0.833413 1.86148,1.86148 0,1.02807 -0.833413,1.86148 -1.86148,1.86148 -1.02807,0 -1.86148,-0.833413 -1.86148,-1.86148 0,-1.02807 0.833413,-1.86148 1.86148,-1.86148zm0 0.429575c0.790819,0 1.43191,0.641087 1.43191,1.43191 0,0.790819 -0.641087,1.43191 -1.43191,1.43191 -0.790819,0 -1.43191,-0.641087 -1.43191,-1.43191 0,-0.790819 0.641087,-1.43191 1.43191,-1.43191z"/>
   <path id="_329422400" class="fil1" d="M3.41333 3.04447c-0.0628504,-6.29921e-005 -0.114299,-0.228823 -0.118539,-0.518406 0.0284646,-0.00752756 0.047752,-0.0220433 0.047752,-0.0387205 0,-0.0166811 -0.0192874,-0.0311969 -0.047752,-0.0387205 0.00424016,-0.289583 0.055689,-0.518343 0.118539,-0.518409 0.0628504,6.69291e-005 0.114299,0.228827 0.118539,0.518409 -0.0284646,0.00752362 -0.047752,0.0220394 -0.047752,0.0387205 0,0.0166772 0.0192874,0.0311929 0.047752,0.0387205 -0.00424016,0.289583 -0.055689,0.518343 -0.118539,0.518406z"/>
   <path id="_329422856" class="fil1" d="M3.41333 2.98376c0.237244,0 0.429571,0.192327 0.429571,0.429571 0,0.237244 -0.192327,0.429571 -0.429571,0.429571 -0.237244,0 -0.429571,-0.192327 -0.429571,-0.429571 0,-0.237244 0.192327,-0.429571 0.429571,-0.429571z"/>
   <path id="_329421968" class="fil2" d="M3.41333 3.27014c0.0790827,0 0.143189,0.0641063 0.143189,0.143189 0,0.0790827 -0.0641063,0.143189 -0.143189,0.143189 -0.0790827,0 -0.143189,-0.0641063 -0.143189,-0.143189 0,-0.0790827 0.0641063,-0.143189 0.143189,-0.143189z"/>
   <path id="_329421872" class="fil1" d="M3.67415 3.15251c-0.0443976,-0.0444882 0.0809803,-0.242626 0.282748,-0.45039 0.0254488,0.0148071 0.0493504,0.0181811 0.0611457,0.00638583 0.0117953,-0.0117913 0.00842126,-0.0356929 -0.00638583,-0.0611457 0.207764,-0.201768 0.405902,-0.327142 0.45039,-0.282748 0.0443937,0.0444882 -0.0809803,0.242626 -0.282748,0.45039 -0.0254528,-0.0148071 -0.0493543,-0.0181811 -0.0611457,-0.00638583 -0.0117953,0.0117953 -0.00842126,0.0356969 0.00638583,0.0611457 -0.207764,0.201768 -0.405902,0.327146 -0.45039,0.282748z"/>
   <path id="_329421440" class="fil1" d="M3.78219 3.41333c6.29921e-005,-0.0628504 0.228823,-0.114299 0.518406,-0.118539 0.00752756,0.0284646 0.0220433,0.047752 0.0387205,0.047752 0.0166811,0 0.0311969,-0.0192874 0.0387205,-0.047752 0.289583,0.00424016 0.518343,0.055689 0.518409,0.118539 -6.69291e-005,0.0628504 -0.228827,0.114299 -0.518409,0.118539 -0.00752362,-0.0284646 -0.0220394,-0.047752 -0.0387205,-0.047752 -0.0166772,0 -0.0311929,0.0192874 -0.0387205,0.047752 -0.289583,-0.00424016 -0.518343,-0.055689 -0.518406,-0.118539z"/>
   <path id="_329421896" class="fil1" d="M3.67415 3.67415c0.0444882,-0.0443976 0.242626,0.0809803 0.45039,0.282748 -0.0148071,0.0254488 -0.0181811,0.0493504 -0.00638583,0.0611457 0.0117913,0.0117953 0.0356929,0.00842126 0.0611457,-0.00638583 0.201768,0.207764 0.327142,0.405902 0.282748,0.45039 -0.0444882,0.0443937 -0.242626,-0.0809803 -0.45039,-0.282748 0.0148071,-0.0254528 0.0181811,-0.0493543 0.00638583,-0.0611457 -0.0117953,-0.0117953 -0.0356969,-0.00842126 -0.0611457,0.00638583 -0.201768,-0.207764 -0.327146,-0.405902 -0.282748,-0.45039z"/>
   <path id="_329421728" class="fil1" d="M3.41333 3.78219c0.0628504,6.29921e-005 0.114299,0.228823 0.118539,0.518406 -0.0284646,0.00752756 -0.047752,0.0220433 -0.047752,0.0387205 0,0.0166811 0.0192874,0.0311969 0.047752,0.0387205 -0.00424016,0.289583 -0.055689,0.518343 -0.118539,0.518409 -0.0628504,-6.69291e-005 -0.114299,-0.228827 -0.118539,-0.518409 0.0284646,-0.00752362 0.047752,-0.0220394 0.047752,-0.0387205 0,-0.0166772 -0.0192874,-0.0311929 -0.047752,-0.0387205 0.00424016,-0.289583 0.055689,-0.518343 0.118539,-0.518406z"/>
   <path id="_329421056" class="fil1" d="M3.15251 3.67415c0.0443976,0.0444882 -0.0809803,0.242626 -0.282748,0.45039 -0.0254488,-0.0148071 -0.0493504,-0.0181811 -0.0611457,-0.00638583 -0.0117953,0.0117913 -0.00842126,0.0356929 0.00638583,0.0611457 -0.207764,0.201768 -0.405902,0.327142 -0.45039,0.282748 -0.0443937,-0.0444882 0.0809803,-0.242626 0.282748,-0.45039 0.0254528,0.0148071 0.0493543,0.0181811 0.0611457,0.00638583 0.0117953,-0.0117953 0.00842126,-0.0356969 -0.00638583,-0.0611457 0.207764,-0.201768 0.405902,-0.327146 0.45039,-0.282748z"/>
   <path id="_329420816" class="fil1" d="M3.04447 3.41333c-6.29921e-005,0.0628504 -0.228823,0.114299 -0.518406,0.118539 -0.00752756,-0.0284646 -0.0220433,-0.047752 -0.0387205,-0.047752 -0.0166811,0 -0.0311969,0.0192874 -0.0387205,0.047752 -0.289583,-0.00424016 -0.518343,-0.055689 -0.518409,-0.118539 6.69291e-005,-0.0628504 0.228827,-0.114299 0.518409,-0.118539 0.00752362,0.0284646 0.0220394,0.047752 0.0387205,0.047752 0.0166772,0 0.0311929,-0.0192874 0.0387205,-0.047752 0.289583,0.00424016 0.518343,0.055689 0.518406,0.118539z"/>
   <path id="_329421176" class="fil1" d="M3.15251 3.15251c-0.0444882,0.0443976 -0.242626,-0.0809803 -0.45039,-0.282748 0.0148071,-0.0254488 0.0181811,-0.0493504 0.00638583,-0.0611457 -0.0117913,-0.0117953 -0.0356929,-0.00842126 -0.0611457,0.00638583 -0.201768,-0.207764 -0.327142,-0.405902 -0.282748,-0.45039 0.0444882,-0.0443937 0.242626,0.0809803 0.45039,0.282748 -0.0148071,0.0254528 -0.0181811,0.0493543 -0.00638583,0.0611457 0.0117953,0.0117953 0.0356969,0.00842126 0.0611457,-0.00638583 0.201768,0.207764 0.327146,0.405902 0.282748,0.45039z"/>
   <path id="_329420912" class="fil0" d="M4.22929 1.77156l0.054 -0.0935354c0,0 0.059626,-0.00300394 0.0906417,-0.085437 0,0 -0.00282677,-0.491614 0.319398,-0.39628 0.243673,0.231386 -0.183488,0.474744 -0.183488,0.474744 -0.0558819,0.0680787 -0.0286732,0.121217 -0.0286732,0.121217l-0.0540039 0.0935354 -0.197874 -0.114244z"/>
   <path id="_329420408" class="fil0" d="M4.94086 2.3995l0.0935354 -0.0540039c0,0 0.0531378,0.0272087 0.121217,-0.0286732 0,0 0.243358,-0.427161 0.474744,-0.183488 0.0953346,0.322224 -0.39628,0.319398 -0.39628,0.319398 -0.0824331,0.0310157 -0.085437,0.0906417 -0.085437,0.0906417l-0.0935354 0.054 -0.114244 -0.197874z"/>
   <path id="_329420144" class="fil0" d="M5.24313 3.29909l0.108004 0c0,0 0.0324173,0.0501339 0.119315,0.0357795 0,0 0.424335,-0.248256 0.502886,0.0784646 -0.0785512,0.32672 -0.502886,0.0784646 -0.502886,0.0784646 -0.0868976,-0.0143543 -0.119315,0.0357795 -0.119315,0.0357795l-0.108004 0 0 -0.228488z"/>
   <path id="_329420480" class="fil0" d="M5.0551 4.22929l0.0935354 0.054c0,0 0.00300394,0.059626 0.085437,0.0906417 0,0 0.491614,-0.00282677 0.39628,0.319398 -0.231386,0.243673 -0.474744,-0.183488 -0.474744,-0.183488 -0.0680787,-0.0558819 -0.121217,-0.0286732 -0.121217,-0.0286732l-0.0935354 -0.0540039 0.114244 -0.197874z"/>
   <path id="_329420264" class="fil0" d="M4.42717 4.94086l0.0540039 0.0935354c0,0 -0.0272087,0.0531378 0.0286732,0.121217 0,0 0.427161,0.243358 0.183488,0.474744 -0.322224,0.0953346 -0.319398,-0.39628 -0.319398,-0.39628 -0.0310157,-0.0824331 -0.0906417,-0.085437 -0.0906417,-0.085437l-0.054 -0.0935354 0.197874 -0.114244z"/>
   <path id="_329420336" class="fil0" d="M3.52757 5.24313l0 0.108004c0,0 -0.0501339,0.0324173 -0.0357795,0.119315 0,0 0.248256,0.424335 -0.0784646,0.502886 -0.32672,-0.0785512 -0.0784646,-0.502886 -0.0784646,-0.502886 0.0143543,-0.0868976 -0.0357795,-0.119315 -0.0357795,-0.119315l0 -0.108004 0.228488 0z"/>
   <path id="_274141744" class="fil0" d="M2.59737 5.0551l-0.054 0.0935354c0,0 -0.059626,0.00300394 -0.0906417,0.085437 0,0 0.00282677,0.491614 -0.319398,0.39628 -0.243673,-0.231386 0.183488,-0.474744 0.183488,-0.474744 0.0558819,-0.0680787 0.0286732,-0.121217 0.0286732,-0.121217l0.0540039 -0.0935354 0.197874 0.114244z"/>
   <path id="_274142872" class="fil0" d="M1.8858 4.42717l-0.0935354 0.0540039c0,0 -0.0531378,-0.0272087 -0.121217,0.0286732 0,0 -0.243358,0.427161 -0.474744,0.183488 -0.0953346,-0.322224 0.39628,-0.319398 0.39628,-0.319398 0.0824331,-0.0310157 0.085437,-0.0906417 0.085437,-0.0906417l0.0935354 -0.054 0.114244 0.197874z"/>
   <path id="_274142632" class="fil0" d="M1.58354 3.52757l-0.108004 0c0,0 -0.0324173,-0.0501339 -0.119315,-0.0357795 0,0 -0.424335,0.248256 -0.502886,-0.0784646 0.0785512,-0.32672 0.502886,-0.0784646 0.502886,-0.0784646 0.0868976,0.0143543 0.119315,-0.0357795 0.119315,-0.0357795l0.108004 0 0 0.228488z"/>
   <path id="_274143112" class="fil0" d="M1.77156 2.59737l-0.0935354 -0.054c0,0 -0.00300394,-0.059626 -0.085437,-0.0906417 0,0 -0.491614,0.00282677 -0.39628,-0.319398 0.231386,-0.243673 0.474744,0.183488 0.474744,0.183488 0.0680787,0.0558819 0.121217,0.0286732 0.121217,0.0286732l0.0935354 0.0540039 -0.114244 0.197874z"/>
   <path id="_274142512" class="fil0" d="M2.3995 1.8858l-0.0540039 -0.0935354c0,0 0.0272087,-0.0531378 -0.0286732,-0.121217 0,0 -0.427161,-0.243358 -0.183488,-0.474744 0.322224,-0.0953346 0.319398,0.39628 0.319398,0.39628 0.0310157,0.0824331 0.0906417,0.085437 0.0906417,0.085437l0.054 0.0935354 -0.197874 0.114244z"/>
  </g>
 </g>
 <rect class="fil3" width="6.82666" height="6.82666"/>
</svg>
