<?xml version="1.0" encoding="UTF-8"?>
<!DOCTYPE svg PUBLIC "-//W3C//DTD SVG 1.1//EN" "http://www.w3.org/Graphics/SVG/1.1/DTD/svg11.dtd">
<!-- Creator: CorelDRAW -->
<svg xmlns="http://www.w3.org/2000/svg" xml:space="preserve" width="6.82666in" height="6.82666in" style="shape-rendering:geometricPrecision; text-rendering:geometricPrecision; image-rendering:optimizeQuality; fill-rule:evenodd; clip-rule:evenodd"
viewBox="0 0 6.82666 6.82666"
 xmlns:xlink="http://www.w3.org/1999/xlink">
 <defs>
  <style type="text/css">
   <![CDATA[
    .fil7 {fill:none}
    .fil6 {fill:#0277BD}
    .fil5 {fill:#0288D1}
    .fil4 {fill:#039BE5}
    .fil3 {fill:#29B6F6}
    .fil2 {fill:#4FC3F7}
    .fil1 {fill:#81D4FA}
    .fil0 {fill:#B3E5FC}
   ]]>
  </style>
 </defs>
 <g id="Layer_x0020_1">
  <metadata id="CorelCorpID_0Corel-Layer"/>
  <g id="_329423504">
   <path id="_274843984" class="fil0" d="M0.853331 2.08709l0.0108386 0c0.0605276,0.0928071 0.165228,0.154161 0.284283,0.154161 0.119055,0 0.223756,-0.0613543 0.284272,-0.154161l0.0785512 0c0.0605276,0.0928071 0.165228,0.154161 0.284283,0.154161 0.119055,0 0.223756,-0.0613543 0.284283,-0.154161l0.0785394 0c0.0605157,0.0928071 0.165228,0.154161 0.284295,0.154161 0.119043,0 0.223744,-0.0613543 0.284272,-0.154161l0.0785512 0c0.0605157,0.0928071 0.165217,0.154161 0.284283,0.154161 0.119043,0 0.223744,-0.0613543 0.284272,-0.154161l0.0785512 0c0.0605157,0.0928071 0.165228,0.154161 0.284272,0.154161 0.119067,0 0.223756,-0.0613543 0.284272,-0.154161l0.0785748 0c0.0605157,0.0928071 0.165217,0.154161 0.28426,0.154161 0.119067,0 0.22378,-0.0613543 0.284295,-0.154161l0.0785394 0c0.0605276,0.0928071 0.165228,0.154161 0.284283,0.154161 0.119055,0 0.223756,-0.0613543 0.284283,-0.154161l0.078563 0c0.0605157,0.0928071 0.165205,0.154161 0.284272,0.154161 0.119043,0 0.223756,-0.0613543 0.284272,-0.154161l0.0108386 0 0 0.41639 0 0.416386 0 0.41639 0 0.416386 0 0.41639 0 0.416386 -0.0108386 0c-0.0605157,0.0928071 -0.165228,0.154161 -0.284272,0.154161 -0.119067,0 -0.223756,-0.0613543 -0.284272,-0.154161l-0.078563 0c-0.0605276,0.0928071 -0.165228,0.154161 -0.284283,0.154161 -0.119055,0 -0.223756,-0.0613543 -0.284283,-0.154161l-0.0785394 0c-0.0605157,0.0928071 -0.165228,0.154161 -0.284295,0.154161 -0.119043,0 -0.223744,-0.0613543 -0.28426,-0.154161l-0.0785748 0c-0.0605157,0.0928071 -0.165205,0.154161 -0.284272,0.154161 -0.119043,0 -0.223756,-0.0613543 -0.284272,-0.154161l-0.0785512 0c-0.0605276,0.0928071 -0.165228,0.154161 -0.284272,0.154161 -0.119067,0 -0.223768,-0.0613543 -0.284283,-0.154161l-0.0785512 0c-0.0605276,0.0928071 -0.165228,0.154161 -0.284272,0.154161 -0.119067,0 -0.22378,-0.0613543 -0.284295,-0.154161l-0.0785394 0c-0.0605276,0.0928071 -0.165228,0.154161 -0.284283,0.154161 -0.119055,0 -0.223756,-0.0613543 -0.284283,-0.154161l-0.0785512 0c-0.0605157,0.0928071 -0.165217,0.154161 -0.284272,0.154161 -0.119055,0 -0.223756,-0.0613543 -0.284283,-0.154161l-0.0108386 0 0 -0.416386 0 -0.41639 0 -0.416386 0 -0.41639 0 -0.416386 0 -0.41639z"/>
   <path id="_274844440" class="fil1" d="M0.853331 2.08709l0.0108386 0c0.0605276,0.0928071 0.165228,0.154161 0.284283,0.154161 0.119055,0 0.223756,-0.0613543 0.284272,-0.154161l0.0785512 0c0.0605276,0.0928071 0.165228,0.154161 0.284283,0.154161 0.119055,0 0.223756,-0.0613543 0.284283,-0.154161l0.0785394 0c0.0605157,0.0928071 0.165228,0.154161 0.284295,0.154161 0.119043,0 0.223744,-0.0613543 0.284272,-0.154161l0.0785512 0c0.0605157,0.0928071 0.165217,0.154161 0.284283,0.154161 0.119043,0 0.223744,-0.0613543 0.284272,-0.154161l0.0785512 0c0.0605157,0.0928071 0.165228,0.154161 0.284272,0.154161 0.119067,0 0.223756,-0.0613543 0.284272,-0.154161l0.0785748 0c0.0605157,0.0928071 0.165217,0.154161 0.28426,0.154161 0.119067,0 0.22378,-0.0613543 0.284295,-0.154161l0.0785394 0c0.0605276,0.0928071 0.165228,0.154161 0.284283,0.154161 0.119055,0 0.223756,-0.0613543 0.284283,-0.154161l0.078563 0c0.0605157,0.0928071 0.165205,0.154161 0.284272,0.154161 0.119043,0 0.223756,-0.0613543 0.284272,-0.154161l0.0108386 0 0 0.41639 -0.0108386 0c-0.0605157,0.0928031 -0.165228,0.154157 -0.284272,0.154157 -0.119067,0 -0.223756,-0.0613543 -0.284272,-0.154157l-0.078563 0c-0.0605276,0.0928031 -0.165228,0.154157 -0.284283,0.154157 -0.119055,0 -0.223756,-0.0613543 -0.284283,-0.154157l-0.0785394 0c-0.0605157,0.0928031 -0.165228,0.154157 -0.284295,0.154157 -0.119043,0 -0.223744,-0.0613543 -0.28426,-0.154157l-0.0785748 0c-0.0605157,0.0928031 -0.165205,0.154157 -0.284272,0.154157 -0.119043,0 -0.223756,-0.0613543 -0.284272,-0.154157l-0.0785512 0c-0.0605276,0.0928031 -0.165228,0.154157 -0.284272,0.154157 -0.119067,0 -0.223768,-0.0613543 -0.284283,-0.154157l-0.0785512 0c-0.0605276,0.0928031 -0.165228,0.154157 -0.284272,0.154157 -0.119067,0 -0.22378,-0.0613543 -0.284295,-0.154157l-0.0785394 0c-0.0605276,0.0928031 -0.165228,0.154157 -0.284283,0.154157 -0.119055,0 -0.223756,-0.0613543 -0.284283,-0.154157l-0.0785512 0c-0.0605157,0.0928031 -0.165217,0.154157 -0.284272,0.154157 -0.119055,0 -0.223756,-0.0613543 -0.284283,-0.154157l-0.0108386 0 0 -0.41639z"/>
   <path id="_274844392" class="fil2" d="M0.853331 2.50348l0.0108386 0c0.0605276,0.0928031 0.165228,0.154157 0.284283,0.154157 0.119055,0 0.223756,-0.0613543 0.284272,-0.154157l0.0785512 0c0.0605276,0.0928031 0.165228,0.154157 0.284283,0.154157 0.119055,0 0.223756,-0.0613543 0.284283,-0.154157l0.0785394 0c0.0605157,0.0928031 0.165228,0.154157 0.284295,0.154157 0.119043,0 0.223744,-0.0613543 0.284272,-0.154157l0.0785512 0c0.0605157,0.0928031 0.165217,0.154157 0.284283,0.154157 0.119043,0 0.223744,-0.0613543 0.284272,-0.154157l0.0785512 0c0.0605157,0.0928031 0.165228,0.154157 0.284272,0.154157 0.119067,0 0.223756,-0.0613543 0.284272,-0.154157l0.0785748 0c0.0605157,0.0928031 0.165217,0.154157 0.28426,0.154157 0.119067,0 0.22378,-0.0613543 0.284295,-0.154157l0.0785394 0c0.0605276,0.0928031 0.165228,0.154157 0.284283,0.154157 0.119055,0 0.223756,-0.0613543 0.284283,-0.154157l0.078563 0c0.0605157,0.0928031 0.165205,0.154157 0.284272,0.154157 0.119043,0 0.223756,-0.0613543 0.284272,-0.154157l0.0108386 0 0 0.416386 -0.0108386 0c-0.0605157,0.0928071 -0.165228,0.154161 -0.284272,0.154161 -0.119067,0 -0.223756,-0.0613543 -0.284272,-0.154161l-0.078563 0c-0.0605276,0.0928071 -0.165228,0.154161 -0.284283,0.154161 -0.119055,0 -0.223756,-0.0613543 -0.284283,-0.154161l-0.0785394 0c-0.0605157,0.0928071 -0.165228,0.154161 -0.284295,0.154161 -0.119043,0 -0.223744,-0.0613543 -0.28426,-0.154161l-0.0785748 0c-0.0605157,0.0928071 -0.165205,0.154161 -0.284272,0.154161 -0.119043,0 -0.223756,-0.0613543 -0.284272,-0.154161l-0.0785512 0c-0.0605276,0.0928071 -0.165228,0.154161 -0.284272,0.154161 -0.119067,0 -0.223768,-0.0613543 -0.284283,-0.154161l-0.0785512 0c-0.0605276,0.0928071 -0.165228,0.154161 -0.284272,0.154161 -0.119067,0 -0.22378,-0.0613543 -0.284295,-0.154161l-0.0785394 0c-0.0605276,0.0928071 -0.165228,0.154161 -0.284283,0.154161 -0.119055,0 -0.223756,-0.0613543 -0.284283,-0.154161l-0.0785512 0c-0.0605157,0.0928071 -0.165217,0.154161 -0.284272,0.154161 -0.119055,0 -0.223756,-0.0613543 -0.284283,-0.154161l-0.0108386 0 0 -0.416386z"/>
   <path id="_274844152" class="fil3" d="M0.853331 2.91986l0.0108386 0c0.0605276,0.0928071 0.165228,0.154161 0.284283,0.154161 0.119055,0 0.223756,-0.0613543 0.284272,-0.154161l0.0785512 0c0.0605276,0.0928071 0.165228,0.154161 0.284283,0.154161 0.119055,0 0.223756,-0.0613543 0.284283,-0.154161l0.0785394 0c0.0605157,0.0928071 0.165228,0.154161 0.284295,0.154161 0.119043,0 0.223744,-0.0613543 0.284272,-0.154161l0.0785512 0c0.0605157,0.0928071 0.165217,0.154161 0.284283,0.154161 0.119043,0 0.223744,-0.0613543 0.284272,-0.154161l0.0785512 0c0.0605157,0.0928071 0.165228,0.154161 0.284272,0.154161 0.119067,0 0.223756,-0.0613543 0.284272,-0.154161l0.0785748 0c0.0605157,0.0928071 0.165217,0.154161 0.28426,0.154161 0.119067,0 0.22378,-0.0613543 0.284295,-0.154161l0.0785394 0c0.0605276,0.0928071 0.165228,0.154161 0.284283,0.154161 0.119055,0 0.223756,-0.0613543 0.284283,-0.154161l0.078563 0c0.0605157,0.0928071 0.165205,0.154161 0.284272,0.154161 0.119043,0 0.223756,-0.0613543 0.284272,-0.154161l0.0108386 0 0 0.41639 -0.0108386 0c-0.0605157,0.0928071 -0.165228,0.154157 -0.284272,0.154157 -0.119067,0 -0.223756,-0.0613504 -0.284272,-0.154157l-0.078563 0c-0.0605276,0.0928071 -0.165228,0.154157 -0.284283,0.154157 -0.119055,0 -0.223756,-0.0613504 -0.284283,-0.154157l-0.0785394 0c-0.0605157,0.0928071 -0.165228,0.154157 -0.284295,0.154157 -0.119043,0 -0.223744,-0.0613504 -0.28426,-0.154157l-0.0785748 0c-0.0605157,0.0928071 -0.165205,0.154157 -0.284272,0.154157 -0.119043,0 -0.223756,-0.0613504 -0.284272,-0.154157l-0.0785512 0c-0.0605276,0.0928071 -0.165228,0.154157 -0.284272,0.154157 -0.119067,0 -0.223768,-0.0613504 -0.284283,-0.154157l-0.0785512 0c-0.0605276,0.0928071 -0.165228,0.154157 -0.284272,0.154157 -0.119067,0 -0.22378,-0.0613504 -0.284295,-0.154157l-0.0785394 0c-0.0605276,0.0928071 -0.165228,0.154157 -0.284283,0.154157 -0.119055,0 -0.223756,-0.0613504 -0.284283,-0.154157l-0.0785512 0c-0.0605157,0.0928071 -0.165217,0.154157 -0.284272,0.154157 -0.119055,0 -0.223756,-0.0613504 -0.284283,-0.154157l-0.0108386 0 0 -0.41639z"/>
   <path id="_274844296" class="fil4" d="M0.853331 3.33625l0.0108386 0c0.0605276,0.0928071 0.165228,0.154157 0.284283,0.154157 0.119055,0 0.223756,-0.0613504 0.284272,-0.154157l0.0785512 0c0.0605276,0.0928071 0.165228,0.154157 0.284283,0.154157 0.119055,0 0.223756,-0.0613504 0.284283,-0.154157l0.0785394 0c0.0605157,0.0928071 0.165228,0.154157 0.284295,0.154157 0.119043,0 0.223744,-0.0613504 0.284272,-0.154157l0.0785512 0c0.0605157,0.0928071 0.165217,0.154157 0.284283,0.154157 0.119043,0 0.223744,-0.0613504 0.284272,-0.154157l0.0785512 0c0.0605157,0.0928071 0.165228,0.154157 0.284272,0.154157 0.119067,0 0.223756,-0.0613504 0.284272,-0.154157l0.0785748 0c0.0605157,0.0928071 0.165217,0.154157 0.28426,0.154157 0.119067,0 0.22378,-0.0613504 0.284295,-0.154157l0.0785394 0c0.0605276,0.0928071 0.165228,0.154157 0.284283,0.154157 0.119055,0 0.223756,-0.0613504 0.284283,-0.154157l0.078563 0c0.0605157,0.0928071 0.165205,0.154157 0.284272,0.154157 0.119043,0 0.223756,-0.0613504 0.284272,-0.154157l0.0108386 0 0 0.416386 -0.0108386 0c-0.0605157,0.0928071 -0.165228,0.154161 -0.284272,0.154161 -0.119067,0 -0.223756,-0.0613543 -0.284272,-0.154161l-0.078563 0c-0.0605276,0.0928071 -0.165228,0.154161 -0.284283,0.154161 -0.119055,0 -0.223756,-0.0613543 -0.284283,-0.154161l-0.0785394 0c-0.0605157,0.0928071 -0.165228,0.154161 -0.284295,0.154161 -0.119043,0 -0.223744,-0.0613543 -0.28426,-0.154161l-0.0785748 0c-0.0605157,0.0928071 -0.165205,0.154161 -0.284272,0.154161 -0.119043,0 -0.223756,-0.0613543 -0.284272,-0.154161l-0.0785512 0c-0.0605276,0.0928071 -0.165228,0.154161 -0.284272,0.154161 -0.119067,0 -0.223768,-0.0613543 -0.284283,-0.154161l-0.0785512 0c-0.0605276,0.0928071 -0.165228,0.154161 -0.284272,0.154161 -0.119067,0 -0.22378,-0.0613543 -0.284295,-0.154161l-0.0785394 0c-0.0605276,0.0928071 -0.165228,0.154161 -0.284283,0.154161 -0.119055,0 -0.223756,-0.0613543 -0.284283,-0.154161l-0.0785512 0c-0.0605157,0.0928071 -0.165217,0.154161 -0.284272,0.154161 -0.119055,0 -0.223756,-0.0613543 -0.284283,-0.154161l-0.0108386 0 0 -0.416386z"/>
   <path id="_329423768" class="fil5" d="M0.853331 3.75264l0.0108386 0c0.0605276,0.0928071 0.165228,0.154161 0.284283,0.154161 0.119055,0 0.223756,-0.0613543 0.284272,-0.154161l0.0785512 0c0.0605276,0.0928071 0.165228,0.154161 0.284283,0.154161 0.119055,0 0.223756,-0.0613543 0.284283,-0.154161l0.0785394 0c0.0605157,0.0928071 0.165228,0.154161 0.284295,0.154161 0.119043,0 0.223744,-0.0613543 0.284272,-0.154161l0.0785512 0c0.0605157,0.0928071 0.165217,0.154161 0.284283,0.154161 0.119043,0 0.223744,-0.0613543 0.284272,-0.154161l0.0785512 0c0.0605157,0.0928071 0.165228,0.154161 0.284272,0.154161 0.119067,0 0.223756,-0.0613543 0.284272,-0.154161l0.0785748 0c0.0605157,0.0928071 0.165217,0.154161 0.28426,0.154161 0.119067,0 0.22378,-0.0613543 0.284295,-0.154161l0.0785394 0c0.0605276,0.0928071 0.165228,0.154161 0.284283,0.154161 0.119055,0 0.223756,-0.0613543 0.284283,-0.154161l0.078563 0c0.0605157,0.0928071 0.165205,0.154161 0.284272,0.154161 0.119043,0 0.223756,-0.0613543 0.284272,-0.154161l0.0108386 0 0 0.41639 -0.0108386 0c-0.0605157,0.0928071 -0.165228,0.154157 -0.284272,0.154157 -0.119067,0 -0.223756,-0.0613504 -0.284272,-0.154157l-0.078563 0c-0.0605276,0.0928071 -0.165228,0.154157 -0.284283,0.154157 -0.119055,0 -0.223756,-0.0613504 -0.284283,-0.154157l-0.0785394 0c-0.0605157,0.0928071 -0.165228,0.154157 -0.284295,0.154157 -0.119043,0 -0.223744,-0.0613504 -0.28426,-0.154157l-0.0785748 0c-0.0605157,0.0928071 -0.165205,0.154157 -0.284272,0.154157 -0.119043,0 -0.223756,-0.0613504 -0.284272,-0.154157l-0.0785512 0c-0.0605276,0.0928071 -0.165228,0.154157 -0.284272,0.154157 -0.119067,0 -0.223768,-0.0613504 -0.284283,-0.154157l-0.0785512 0c-0.0605276,0.0928071 -0.165228,0.154157 -0.284272,0.154157 -0.119067,0 -0.22378,-0.0613504 -0.284295,-0.154157l-0.0785394 0c-0.0605276,0.0928071 -0.165228,0.154157 -0.284283,0.154157 -0.119055,0 -0.223756,-0.0613504 -0.284283,-0.154157l-0.0785512 0c-0.0605157,0.0928071 -0.165217,0.154157 -0.284272,0.154157 -0.119055,0 -0.223756,-0.0613504 -0.284283,-0.154157l-0.0108386 0 0 -0.41639z"/>
   <path id="_329423576" class="fil6" d="M0.853331 4.16903l0.0108386 0c0.0605276,0.0928071 0.165228,0.154157 0.284283,0.154157 0.119055,0 0.223756,-0.0613504 0.284272,-0.154157l0.0785512 0c0.0605276,0.0928071 0.165228,0.154157 0.284283,0.154157 0.119055,0 0.223756,-0.0613504 0.284283,-0.154157l0.0785394 0c0.0605157,0.0928071 0.165228,0.154157 0.284295,0.154157 0.119043,0 0.223744,-0.0613504 0.284272,-0.154157l0.0785512 0c0.0605157,0.0928071 0.165217,0.154157 0.284283,0.154157 0.119043,0 0.223744,-0.0613504 0.284272,-0.154157l0.0785512 0c0.0605157,0.0928071 0.165228,0.154157 0.284272,0.154157 0.119067,0 0.223756,-0.0613504 0.284272,-0.154157l0.0785748 0c0.0605157,0.0928071 0.165217,0.154157 0.28426,0.154157 0.119067,0 0.22378,-0.0613504 0.284295,-0.154157l0.0785394 0c0.0605276,0.0928071 0.165228,0.154157 0.284283,0.154157 0.119055,0 0.223756,-0.0613504 0.284283,-0.154157l0.078563 0c0.0605157,0.0928071 0.165205,0.154157 0.284272,0.154157 0.119043,0 0.223756,-0.0613504 0.284272,-0.154157l0.0108386 0 0 0.416386 -0.0108386 0c-0.0605157,0.0928071 -0.165228,0.154161 -0.284272,0.154161 -0.119067,0 -0.223756,-0.0613543 -0.284272,-0.154161l-0.078563 0c-0.0605276,0.0928071 -0.165228,0.154161 -0.284283,0.154161 -0.119055,0 -0.223756,-0.0613543 -0.284283,-0.154161l-0.0785394 0c-0.0605157,0.0928071 -0.165228,0.154161 -0.284295,0.154161 -0.119043,0 -0.223744,-0.0613543 -0.28426,-0.154161l-0.0785748 0c-0.0605157,0.0928071 -0.165205,0.154161 -0.284272,0.154161 -0.119043,0 -0.223756,-0.0613543 -0.284272,-0.154161l-0.0785512 0c-0.0605276,0.0928071 -0.165228,0.154161 -0.284272,0.154161 -0.119067,0 -0.223768,-0.0613543 -0.284283,-0.154161l-0.0785512 0c-0.0605276,0.0928071 -0.165228,0.154161 -0.284272,0.154161 -0.119067,0 -0.22378,-0.0613543 -0.284295,-0.154161l-0.0785394 0c-0.0605276,0.0928071 -0.165228,0.154161 -0.284283,0.154161 -0.119055,0 -0.223756,-0.0613543 -0.284283,-0.154161l-0.0785512 0c-0.0605157,0.0928071 -0.165217,0.154161 -0.284272,0.154161 -0.119055,0 -0.223756,-0.0613543 -0.284283,-0.154161l-0.0108386 0 0 -0.416386z"/>
  </g>
 </g>
 <rect class="fil7" width="6.82666" height="6.82666"/>
</svg>
