<?xml version="1.0" encoding="UTF-8"?>
<!DOCTYPE svg PUBLIC "-//W3C//DTD SVG 1.1//EN" "http://www.w3.org/Graphics/SVG/1.1/DTD/svg11.dtd">
<!-- Creator: CorelDRAW -->
<svg xmlns="http://www.w3.org/2000/svg" xml:space="preserve" width="6.82666in" height="6.82666in" style="shape-rendering:geometricPrecision; text-rendering:geometricPrecision; image-rendering:optimizeQuality; fill-rule:evenodd; clip-rule:evenodd"
viewBox="0 0 6.82666 6.82666"
 xmlns:xlink="http://www.w3.org/1999/xlink">
 <defs>
  <style type="text/css">
   <![CDATA[
    .fil12 {fill:none}
    .fil9 {fill:#3B3B3B}
    .fil3 {fill:#424242}
    .fil10 {fill:#82B6E0}
    .fil4 {fill:#90CAF9}
    .fil8 {fill:#AF1652}
    .fil2 {fill:#C2185B}
    .fil11 {fill:#324047;fill-rule:nonzero}
    .fil5 {fill:#37474F;fill-rule:nonzero}
    .fil7 {fill:#C21856;fill-rule:nonzero}
    .fil6 {fill:#D43A6E;fill-rule:nonzero}
    .fil1 {fill:#D81B60;fill-rule:nonzero}
    .fil0 {fill:#EC407A;fill-rule:nonzero}
   ]]>
  </style>
 </defs>
 <g id="Layer_x0020_1">
  <metadata id="CorelCorpID_0Corel-Layer"/>
  <g id="_274845016">
   <g>
    <path id="_274843792" class="fil0" d="M1.04301 5.2865l1.10271 -1.10271 -7.87402e-006 -7.87402e-006c0.0416535,-0.0416535 0.109197,-0.0416535 0.15085,0l0.000590551 0.000606299 0.345717 0.345717 7.87402e-006 -7.87402e-006c0.0416535,0.0416535 0.0416535,0.109197 0,0.15085l-0.000606299 0.000590551 -1.10271 1.10271 7.87402e-006 7.87402e-006c-0.0416535,0.0416535 -0.109197,0.0416535 -0.15085,0l-0.000590551 -0.000606299 -0.345717 -0.345717 -7.87402e-006 7.87402e-006c-0.0416535,-0.0416535 -0.0416535,-0.109197 0,-0.15085l0.000606299 -0.000590551z"/>
    <path id="_274843432" class="fil1" d="M2.01046 4.04852l1.21305 -1.21305 0.000590551 -0.000606299c0.0416496,-0.0416535 0.109193,-0.0416535 0.150846,0l-7.87402e-006 7.87402e-006 0.616248 0.616248 0.000606299 0.000590551c0.0416535,0.0416535 0.0416535,0.109197 0,0.150846l-7.87402e-006 -7.87402e-006 -1.21305 1.21305 -0.000590551 0.000606299c-0.0416535,0.0416575 -0.109197,0.0416575 -0.15085,3.93701e-006l7.87402e-006 -7.87402e-006 -0.616248 -0.616248 -0.000606299 -0.000590551c-0.0416535,-0.0416535 -0.0416535,-0.109197 3.93701e-006,-0.15085l7.87402e-006 7.87402e-006z"/>
    <path id="_274843384" class="fil2" d="M4.87096 1.02094l0.000590551 0.000606299 0.934161 0.934146c0.0416535,0.0416535 0.0416496,0.109197 -3.93701e-006,0.15085l-0.000606299 0.000590551 -1.65436 1.65438c-0.0416535,0.0416535 -0.109197,0.0416535 -0.150846,0l-0.000590551 -0.000606299 -0.934161 -0.934146c-0.0416535,-0.0416496 -0.0416535,-0.109193 0,-0.150846l0.000606299 -0.000590551 1.65436 -1.65438c0.0416535,-0.0416535 0.109197,-0.0416575 0.15085,-3.93701e-006z"/>
    <line id="_274843408" class="fil3" x1="4.72012" y1="1.02096" x2="4.72012" y2= "1.02096" />
    <line id="_274843120" class="fil3" x1="3.06515" y1="2.82676" x2="3.06515" y2= "2.82676" />
    <line id="_274842592" class="fil3" x1="4.15074" y1="3.76151" x2="4.15074" y2= "3.76151" />
    <ellipse id="_274842832" class="fil4" transform="matrix(0.409898 -0.409898 0.416025 0.416025 1.26312 5.5917)" rx="0.16" ry="0.899071"/>
    <line id="_274843048" class="fil3" x1="5.80571" y1="1.9557" x2="5.80571" y2= "1.9557" />
    <path id="_274842616" class="fil5" d="M1.03541 5.12926c-0.0416496,-0.0416496 -0.109185,-0.0416496 -0.150835,0 -0.0416496,0.0416496 -0.0416496,0.109185 0,0.150835l0.661988 0.661988c0.0416496,0.0416496 0.109185,0.0416496 0.150835,0 0.0416496,-0.0416496 0.0416496,-0.109185 0,-0.150835l-0.661988 -0.661988z"/>
    <ellipse id="_274842544" class="fil4" transform="matrix(0.601919 -0.601919 0.682699 0.682699 5.3245 1.5115)" rx="0.16" ry="0.899071"/>
    <path id="_274842424" class="fil5" d="M4.73457 0.884583c-0.0416496,-0.0416496 -0.109185,-0.0416496 -0.150835,0 -0.0416496,0.0416496 -0.0416496,0.109185 0,0.150835l1.20751 1.20751c0.0416496,0.0416496 0.109185,0.0416496 0.150835,0 0.0416496,-0.0416496 0.0416496,-0.109185 0,-0.150835l-1.20751 -1.20751z"/>
   </g>
   <g>
    <path id="_274842904" class="fil6" d="M2.46972 4.35694l0.173157 0.173157 7.87402e-006 -7.87402e-006c0.0416535,0.0416535 0.0416535,0.109193 0,0.15085l-0.000606299 0.000590551 -1.10271 1.10271 3.93701e-006 3.93701e-006c-0.0416535,0.0416575 -0.109197,0.0416575 -0.15085,3.93701e-006l-0.000590551 -0.000606299 -0.172559 -0.172559 1.25415 -1.25415z"/>
    <path id="_274846216" class="fil7" d="M3.68336 3.1433l0.307827 0.307823 0.000606299 0.000590551c0.0416535,0.0416535 0.0416535,0.109197 0,0.150846l-7.87402e-006 -7.87402e-006 -1.21305 1.21305 -0.000590551 0.000606299c-0.0416535,0.0416575 -0.109197,0.0416575 -0.15085,3.93701e-006l7.87402e-006 -7.87402e-006 -0.308421 -0.308425 1.36448 -1.36448z"/>
    <path id="_274845616" class="fil8" d="M5.33833 1.48833l0.467382 0.46737c0.0416535,0.0416535 0.0416496,0.109197 -3.93701e-006,0.15085l-0.000606299 0.000590551 -1.65436 1.65438c-0.0416535,0.0416535 -0.109197,0.0416535 -0.150846,0l-0.000590551 -0.000606299 -0.46678 -0.466776 1.80581 -1.80581z"/>
    <line id="_274845808" class="fil9" x1="4.15074" y1="3.76151" x2="4.15074" y2= "3.76151" />
    <path id="_274845928" class="fil10" d="M1.31457 5.51209c0.00470472,0.00464173 0.00941339,0.00931102 0.0141299,0.0140236 0.206575,0.206579 0.344677,0.403402 0.308457,0.439622 -0.0362205,0.0362205 -0.233047,-0.101878 -0.439626,-0.308453 -0.0047126,-0.00471654 -0.00937795,-0.0094252 -0.0140236,-0.0141299l0.131063 -0.131063z"/>
    <line id="_274845736" class="fil9" x1="5.80571" y1="1.9557" x2="5.80571" y2= "1.9557" />
    <path id="_274845784" class="fil11" d="M1.21557 5.61109l0.330992 0.330992c0.0416496,0.0416496 0.109185,0.0416496 0.150835,0 0.0416496,-0.0416457 0.0416496,-0.109181 0,-0.150831l-0.330992 -0.330996 -0.150835 0.150835z"/>
    <path id="_274846072" class="fil10" d="M5.41613 1.41053l0.0046811 0.00466142c0.338992,0.338992 0.570681,0.656913 0.517488,0.710106 -0.053189,0.053189 -0.37111,-0.1785 -0.710102,-0.517492l-0.00466535 -0.00467717 0.192598 -0.192598z"/>
    <path id="_274845184" class="fil11" d="M5.18749 1.63917l0.603752 0.603756c0.0416496,0.0416496 0.109185,0.0416496 0.150835,0 0.0416496,-0.0416535 0.0416535,-0.109185 3.93701e-006,-0.150835l-0.603756 -0.603756 -0.150835 0.150835z"/>
   </g>
  </g>
 </g>
 <rect class="fil12" width="6.82666" height="6.82666"/>
</svg>
