<?xml version="1.0" encoding="UTF-8"?>
<!DOCTYPE svg PUBLIC "-//W3C//DTD SVG 1.1//EN" "http://www.w3.org/Graphics/SVG/1.1/DTD/svg11.dtd">
<!-- Creator: CorelDRAW -->
<svg xmlns="http://www.w3.org/2000/svg" xml:space="preserve" width="6.82666in" height="6.82666in" style="shape-rendering:geometricPrecision; text-rendering:geometricPrecision; image-rendering:optimizeQuality; fill-rule:evenodd; clip-rule:evenodd"
viewBox="0 0 6.82666 6.82666"
 xmlns:xlink="http://www.w3.org/1999/xlink">
 <defs>
  <style type="text/css">
   <![CDATA[
    .fil7 {fill:none}
    .fil1 {fill:#013F71}
    .fil0 {fill:#01579B}
    .fil5 {fill:#422588}
    .fil2 {fill:#4DD0E1}
    .fil4 {fill:#512DA8}
    .fil3 {fill:#01579B;fill-rule:nonzero}
    .fil6 {fill:#512DA8;fill-rule:nonzero}
   ]]>
  </style>
 </defs>
 <g id="Layer_x0020_1">
  <metadata id="CorelCorpID_0Corel-Layer"/>
  <path class="fil0" d="M4.40559 2.39233c0.0251339,-0.0502677 0.00475591,-0.111398 -0.0455118,-0.136535 -0.0502677,-0.0251339 -0.111402,-0.00475591 -0.136535,0.0455118l-0.0871772 0.174362 -0.0917441 -0.0064685c-0.0202244,-0.00253937 -0.0414094,0.000925197 -0.0607559,0.011248l0.000188976 0.000350394 -0.637528 0.34015c-0.339799,0.025374 -0.711157,0.0723898 -1.10191,0.151457 -0.267154,0.0540512 -0.542413,0.122961 -0.821579,0.21002l3.60045 0.363449 0.152689 -0.878598c0.0011811,-0.00512992 0.00197638,-0.0104094 0.00235827,-0.0158228 0.0039685,-0.0563071 -0.0384567,-0.105165 -0.0947598,-0.109134l-1.1811e-005 0.000141732 -0.727591 -0.0512953 0.0494173 -0.0988346z"/>
  <path class="fil1" d="M4.19992 2.58707l0 0 -0.162795 -0.0114764c-0.00105118,-7.48031e-005 -0.00255906,-0.000165354 -0.00391732,-0.000129921l-0.656307 0.350169 -0.0224252 0.00167717c-0.365457,0.0272874 -0.729496,0.0769528 -1.0887,0.149634 -0.0871535,0.0176339 -0.174031,0.0366339 -0.260579,0.0570315l2.93021 0.295791 0.135685 -0.780764c3.14961e-005,-0.000169291 5.90551e-005,-0.000338583 9.05512e-005,-0.000507874l-0.87126 -0.0614252z"/>
  <polygon class="fil2" points="4.05657,2.6839 3.11683,3.14807 3.38468,3.16602 4.84732,3.31367 4.94587,2.74659 "/>
  <path class="fil3" d="M4.11775 2.14281c-0.0562244,-0.00418504 -0.105201,0.0379961 -0.10939,0.0942205 -0.00418504,0.0562244 0.0379961,0.105201 0.0942205,0.10939l1.32862 0.102205c0.0562244,0.00418504 0.105205,-0.0379961 0.10939,-0.0942205 0.00418898,-0.0562244 -0.0379921,-0.105201 -0.0942165,-0.10939l-1.32862 -0.102205z"/>
  <path class="fil4" d="M5.94331 3.70742l0 0.858717c0,0.0517795 -0.0385079,0.0945591 -0.0884449,0.101283 -0.245402,0.0515748 -0.510551,0.0893898 -0.789906,0.111354 -0.271827,0.0213701 -0.559394,0.0278031 -0.857728,0.017374 -0.727134,-0.0254252 -1.37544,-0.0627244 -1.9366,-0.264862 -0.565945,-0.203846 -1.03631,-0.571122 -1.39618,-1.25226 -0.00629921,-0.011937 -0.0132126,-0.0235866 -0.0170197,-0.0365984 -0.0214724,-0.0732756 0.0424606,-0.142567 0.11624,-0.12922l4.87742 0.49235c0.0696496,0.0253425 0.0925433,0.0455984 0.0922205,0.101866z"/>
  <path class="fil5" d="M5.94331 4.53317l0 0.0329724c0,0.0517795 -0.0385079,0.0945591 -0.0884449,0.101283 -0.245402,0.0515748 -0.510551,0.0893898 -0.789906,0.111354 -0.271827,0.0213701 -0.559394,0.0278031 -0.857728,0.017374 -0.727134,-0.0254252 -1.37544,-0.0627244 -1.9366,-0.264862 -0.565945,-0.203846 -1.03631,-0.571122 -1.39618,-1.25226 -0.00629921,-0.011937 -0.0132126,-0.0235866 -0.0170197,-0.0365984 -0.0121142,-0.0413386 0.00295669,-0.0814016 0.0316417,-0.106083 0.598799,0.550016 1.96209,1.18765 5.05424,1.39682z"/>
  <path class="fil6" d="M5.97333 3.41157l-0.223248 -0.00076378 -0.102201 0.204402c-0.0251339,0.0502677 -0.00475591,0.111398 0.0455118,0.136531 0.0502677,0.0251339 0.111398,0.00475984 0.136531,-0.0455118l0.143406 -0.294657z"/>
 </g>
 <rect class="fil7" width="6.82666" height="6.82666"/>
</svg>
