<?xml version="1.0" encoding="UTF-8"?>
<!DOCTYPE svg PUBLIC "-//W3C//DTD SVG 1.1//EN" "http://www.w3.org/Graphics/SVG/1.1/DTD/svg11.dtd">
<!-- Creator: CorelDRAW -->
<svg xmlns="http://www.w3.org/2000/svg" xml:space="preserve" width="6.82666in" height="6.82666in" style="shape-rendering:geometricPrecision; text-rendering:geometricPrecision; image-rendering:optimizeQuality; fill-rule:evenodd; clip-rule:evenodd"
viewBox="0 0 6.82666 6.82666"
 xmlns:xlink="http://www.w3.org/1999/xlink">
 <defs>
  <style type="text/css">
   <![CDATA[
    .fil7 {fill:none}
    .fil6 {fill:#CBDDE5}
    .fil3 {fill:#E1F5FE}
    .fil4 {fill:#00453D;fill-rule:nonzero}
    .fil1 {fill:#004D44;fill-rule:nonzero}
    .fil5 {fill:#005F53;fill-rule:nonzero}
    .fil2 {fill:#00695C;fill-rule:nonzero}
    .fil0 {fill:#424242;fill-rule:nonzero}
   ]]>
  </style>
 </defs>
 <g id="Layer_x0020_1">
  <metadata id="CorelCorpID_0Corel-Layer"/>
  <path class="fil0" d="M3.32274 2.66446c0,0.0278268 0.0225669,0.0503937 0.0503976,0.0503937 0.0278307,0 0.0503937,-0.0225669 0.0503937,-0.0503937l0 -0.806307c0,-0.0278268 -0.022563,-0.0503937 -0.0503937,-0.0503937 -0.0278307,0 -0.0503976,0.0225669 -0.0503976,0.0503937l0 0.806307z"/>
  <path class="fil1" d="M3.42352 3.47077l-0.603012 0c-0.0134843,0.00023622 -0.0272362,-0.00223622 -0.0404843,-0.00775591 -0.0513819,-0.0214094 -0.0756772,-0.0804213 -0.0542677,-0.131803l0.000169291 7.08661e-005 0.249496 -0.598807c0.0136024,-0.0395787 0.0511496,-0.0680157 0.0953386,-0.0680157l0.35276 0c0.0556654,0 0.100791,0.045126 0.100791,0.100791l0 0.604728c0,0.0556614 -0.045126,0.100791 -0.100791,0.100791z"/>
  <g id="_273796864">
   <path id="_273797320" class="fil1" d="M5.3889 3.97471c-0.0556614,0 -0.100791,0.0451299 -0.100791,0.100791 0,0.0556654 0.0451299,0.100791 0.100791,0.100791l0.403154 0c0.0556614,0 0.100791,-0.045126 0.100791,-0.100791 0,-0.0556614 -0.0451299,-0.100791 -0.100791,-0.100791l-0.403154 0z"/>
   <path id="_273796984" class="fil2" d="M1.65972 3.26919l3.05599 0c0.0264331,0 0.0504921,0.010185 0.0684646,0.0268386l0.565622 0.440406 0.000228346 -0.000291339c0.0255,0.0198543 0.0388425,0.0495276 0.0388661,0.0795236l3.93701e-006 0 0 0.519673c0,0.0354567 -0.018315,0.0666378 -0.0459961,0.0846024l-0.565374 0.440213 -0.061811 -0.0791339 0.0619173 0.0795276c-0.0184213,0.0143386 -0.040248,0.0212756 -0.0619173,0.0212598l0 3.93701e-006 -0.000389764 0 -3.0556 0c-0.221835,0 -0.423441,-0.090685 -0.569535,-0.236776 -0.146087,-0.146094 -0.236772,-0.347697 -0.236772,-0.569535l0 -3.93701e-006c0,-0.221835 0.090685,-0.423441 0.236772,-0.569531 0.146094,-0.146091 0.347701,-0.236776 0.569535,-0.236776z"/>
   <path id="_273797128" class="fil2" d="M5.37175 3.23786c0.025,-0.103886 0.14661,-0.159374 0.272913,-0.168602 0.0340197,-0.00248425 0.0689016,-0.00185433 0.101917,0.00187402 0.0354961,0.00401575 0.0691929,0.0115827 0.0982047,0.0227047 0.0872402,0.0334567 0.141248,0.0952165 0.126091,0.188406l0.000267717 4.33071e-005c-0.000759843,0.00467323 -0.00183858,0.0092126 -0.00319291,0.0136102l-0.200228 0.798433 -0.0976378 -0.0244094 0.0977598 0.0245157c-0.0135354,0.0539921 -0.0682835,0.0867835 -0.122276,0.073248 -0.0392638,-0.00984252 -0.0673031,-0.0414843 -0.0744843,-0.0787677l-0.200197 -0.798331 -0.000141732 3.54331e-005c-0.00451969,-0.0180236 -0.00387008,-0.036126 0.00100394,-0.0527598z"/>
   <path id="_273797104" class="fil2" d="M5.64466 5.07058c-0.126303,-0.00922835 -0.247913,-0.0647165 -0.272913,-0.168602 -0.00487402,-0.0166339 -0.00552362,-0.0347362 -0.00100394,-0.0527598l0.000141732 3.54331e-005 0.200197 -0.798331c0.0071811,-0.0372835 0.0352205,-0.0689213 0.0744843,-0.0787677 0.0539921,-0.0135354 0.10874,0.0192559 0.122276,0.073248l-0.0977598 0.0245157 0.0976378 -0.0244094 0.200228 0.798437c0.00135433,0.0043937 0.00243307,0.00893307 0.00319291,0.0136063l-0.000267717 4.33071e-005c0.0151575,0.093189 -0.0388504,0.154949 -0.126091,0.188406 -0.0290118,0.011122 -0.0627087,0.018689 -0.0982047,0.0227047 -0.0330157,0.00373228 -0.0678976,0.00435827 -0.101917,0.00187402z"/>
   <g>
    <path id="_273797368" class="fil3" d="M2.31484 3.97471l-0.201579 0c-0.0739843,0.000425197 -0.122673,0.0767559 -0.0911142,0.143937 0.0170197,0.0354764 0.0517795,0.0574252 0.0911142,0.0576457l0.201579 0c0.0739882,-0.00042126 0.122677,-0.0767559 0.0911142,-0.143933 -0.0170157,-0.0354764 -0.0517756,-0.0574252 -0.0911142,-0.0576496z"/>
    <path id="_273796600" class="fil3" d="M2.718 3.97471c-0.0739882,0.000425197 -0.122677,0.0767559 -0.0911142,0.143937 0.0170197,0.0354764 0.0517795,0.0574252 0.0911142,0.0576457l0.201579 0c0.0739882,-0.00042126 0.122673,-0.0767559 0.0911142,-0.143933 -0.0170197,-0.0354764 -0.0517795,-0.0574252 -0.0911142,-0.0576496l-0.201579 0z"/>
    <path id="_273796552" class="fil3" d="M3.32273 3.97471c-0.0739882,0.000425197 -0.122673,0.0767559 -0.0911142,0.143937 0.0170197,0.0354764 0.0517795,0.0574252 0.0911142,0.0576457l0.201579 0c0.0739882,-0.00042126 0.122677,-0.0767559 0.0911142,-0.143933 -0.0170197,-0.0354764 -0.0517795,-0.0574252 -0.0911142,-0.0576496l-0.201579 0z"/>
    <path id="_273796888" class="fil3" d="M3.92747 3.97471c-0.0739882,0.000425197 -0.122677,0.0767559 -0.0911142,0.143937 0.0170157,0.0354764 0.0517756,0.0574252 0.0911142,0.0576457l0.201579 0c0.0739882,-0.00042126 0.122673,-0.0767559 0.0911142,-0.143933 -0.0170197,-0.0354764 -0.0517795,-0.0574252 -0.0911142,-0.0576496l-0.201579 0z"/>
   </g>
  </g>
  <g id="_273796096">
   <path id="_273796528" class="fil4" d="M5.28826 4.06992c-0.000102362,0.00185039 -0.000153543,0.00370866 -0.000153543,0.00558268 0,0.0556654 0.0451299,0.100791 0.100791,0.100791l0.403154 0c0.0556614,0 0.100791,-0.045126 0.100791,-0.100791 0,-0.00187402 -5.11811e-005,-0.00373228 -0.000153543,-0.00558268l-0.604429 0z"/>
   <path id="_273796840" class="fil5" d="M5.3889 4.06992l0 0.265421c0,0.0354567 -0.018315,0.0666378 -0.0459961,0.0846024l-0.565374 0.440213 -0.061811 -0.0791339 0.0619173 0.0795276c-0.0184213,0.0143386 -0.040248,0.0212756 -0.0619173,0.0212598l0 3.93701e-006 -0.000389764 0 -3.0556 0c-0.221835,0 -0.423441,-0.090685 -0.569535,-0.236776 -0.146087,-0.146094 -0.236772,-0.347697 -0.236772,-0.569535l0 -3.93701e-006c0,-0.0018622 2.3622e-005,-0.00372047 3.54331e-005,-0.00557874l4.53544 0z"/>
   <path id="_273796912" class="fil5" d="M5.77384 4.06992l-0.00612205 0.0244094 -0.0976378 -0.0244094 0.10376 0zm-0.10376 0l0.0977598 0.0245157c-0.0135354,0.0539921 -0.0682835,0.0867835 -0.122276,0.073248 -0.0392638,-0.00984252 -0.0673031,-0.0414843 -0.0744843,-0.0787677l-0.00476378 -0.0189961 0.103764 0z"/>
   <path id="_273796360" class="fil5" d="M5.64466 5.07058c-0.126303,-0.00922835 -0.247913,-0.0647165 -0.272913,-0.168602 -0.00487402,-0.0166339 -0.00552362,-0.0347362 -0.00100394,-0.0527598l0.000141732 3.54331e-005 0.195433 -0.779335 0.103764 0 0.10376 0 0.194106 0.774028c0.00135433,0.0043937 0.00243307,0.00893307 0.00319291,0.0136063l-0.000267717 4.33071e-005c0.0151575,0.093189 -0.0388504,0.154949 -0.126091,0.188406 -0.0290118,0.011122 -0.0627087,0.018689 -0.0982047,0.0227047 -0.0330157,0.00373228 -0.0678976,0.00435827 -0.101917,0.00187402z"/>
   <g>
    <path id="_273795616" class="fil6" d="M2.01254 4.06992c-0.000901575,0.0159882 0.00203937,0.0326181 0.0096063,0.0487283 0.0170197,0.0354764 0.0517795,0.0574252 0.0911142,0.0576457l0.201579 0c0.0603465,-0.00034252 0.103854,-0.051189 0.100724,-0.106374l-0.403024 0z"/>
    <path id="_273795712" class="fil6" d="M2.61728 4.06992c-0.000905512,0.0159882 0.00203937,0.0326181 0.0096063,0.0487283 0.0170197,0.0354764 0.0517795,0.0574252 0.0911142,0.0576457l0.201579 0c0.0603465,-0.00034252 0.103846,-0.051189 0.10072,-0.106374l-0.40302 0z"/>
    <path id="_273795784" class="fil6" d="M3.22201 4.06992c-0.000901575,0.0159882 0.00203937,0.0326181 0.0096063,0.0487283 0.0170197,0.0354764 0.0517795,0.0574252 0.0911142,0.0576457l0.201579 0c0.0603465,-0.00034252 0.103854,-0.051189 0.100724,-0.106374l-0.403024 0z"/>
    <path id="_273795424" class="fil6" d="M3.82675 4.06992c-0.000905512,0.0159882 0.00203937,0.0326181 0.0096063,0.0487283 0.0170157,0.0354764 0.0517756,0.0574252 0.0911142,0.0576457l0.201579 0c0.0603465,-0.00034252 0.103846,-0.051189 0.10072,-0.106374l-0.40302 0z"/>
   </g>
  </g>
 </g>
 <rect class="fil7" width="6.82666" height="6.82666"/>
</svg>
