<?xml version="1.0" encoding="UTF-8"?>
<!DOCTYPE svg PUBLIC "-//W3C//DTD SVG 1.1//EN" "http://www.w3.org/Graphics/SVG/1.1/DTD/svg11.dtd">
<!-- Creator: CorelDRAW -->
<svg xmlns="http://www.w3.org/2000/svg" xml:space="preserve" width="6.82666in" height="6.82666in" style="shape-rendering:geometricPrecision; text-rendering:geometricPrecision; image-rendering:optimizeQuality; fill-rule:evenodd; clip-rule:evenodd"
viewBox="0 0 6.82666 6.82666"
 xmlns:xlink="http://www.w3.org/1999/xlink">
 <defs>
  <style type="text/css">
   <![CDATA[
    .fil10 {fill:none}
    .fil1 {fill:#263238}
    .fil2 {fill:#F1F8E9}
    .fil9 {fill:#222D32;fill-rule:nonzero}
    .fil0 {fill:#263238;fill-rule:nonzero}
    .fil6 {fill:#3B3B3B;fill-rule:nonzero}
    .fil3 {fill:#424242;fill-rule:nonzero}
    .fil7 {fill:#6BA1C0;fill-rule:nonzero}
    .fil4 {fill:#77B3D5;fill-rule:nonzero}
    .fil8 {fill:#CF4E0A;fill-rule:nonzero}
    .fil5 {fill:#E6570B;fill-rule:nonzero}
   ]]>
  </style>
 </defs>
 <g id="Layer_x0020_1">
  <metadata id="CorelCorpID_0Corel-Layer"/>
  <path class="fil0" d="M3.59685 1.60544c0,-0.0724488 -0.104642,-0.131181 -0.233717,-0.131181 -0.129071,0 -0.233713,0.0587323 -0.233713,0.131181l0 0.321413c0,0.0724488 0.104642,0.131181 0.233713,0.131181 0.129075,0 0.233717,-0.0587323 0.233717,-0.131181l0 -0.321413z"/>
  <path class="fil1" d="M3.41333 1.75685c0.560961,0 1.09415,0.220906 1.49074,0.617496 0.396591,0.396594 0.6175,0.929783 0.6175,1.49074 0,0.560961 -0.220909,1.09415 -0.6175,1.49074 -0.396594,0.396591 -0.92978,0.617496 -1.49074,0.617496 -0.560961,0 -1.09415,-0.220906 -1.49074,-0.617496 -0.396591,-0.396594 -0.6175,-0.929783 -0.6175,-1.49074 0,-0.560957 0.220909,-1.09415 0.6175,-1.49074 0.396594,-0.396591 0.92978,-0.617496 1.49074,-0.617496z"/>
  <path class="fil2" d="M4.77099 2.50743c-0.361315,-0.361319 -0.846602,-0.562346 -1.35766,-0.562346 -0.511055,0 -0.996343,0.201028 -1.35766,0.562346 -0.361319,0.361323 -0.562346,0.846602 -0.562346,1.35766 0,0.511063 0.201028,0.996343 0.562346,1.35766 0.361315,0.361327 0.846602,0.56235 1.35766,0.56235 0.511055,0 0.996343,-0.201024 1.35766,-0.56235 0.361319,-0.361315 0.562346,-0.846594 0.562346,-1.35766 0,-0.511055 -0.201028,-0.996335 -0.562346,-1.35766z"/>
  <path class="fil0" d="M4.64625 2.66989c0.0104134,-0.0104134 0.0104134,-0.0273031 0,-0.0377165 -0.0104134,-0.0104134 -0.0273031,-0.0104134 -0.0377165,0l-0.153209 0.153209c-0.0104134,0.0104134 -0.0104134,0.0272992 0,0.0377165 0.0104173,0.0104134 0.0273031,0.0104134 0.0377165,0l0.153209 -0.153209z"/>
  <path class="fil0" d="M4.60854 5.09801c0.0104134,0.0104134 0.0273031,0.0104134 0.0377165,0 0.0104134,-0.0104134 0.0104134,-0.0273031 0,-0.0377165l-0.153209 -0.153209c-0.0104134,-0.0104134 -0.0272992,-0.0104134 -0.0377165,0 -0.0104134,0.0104173 -0.0104134,0.0273031 0,0.0377165l0.153209 0.153209z"/>
  <path class="fil0" d="M2.18041 5.0603c-0.0104134,0.0104134 -0.0104134,0.0273031 0,0.0377165 0.0104134,0.0104134 0.0273031,0.0104134 0.0377165,0l0.153209 -0.153209c0.0104134,-0.0104134 0.0104134,-0.0272992 0,-0.0377165 -0.0104173,-0.0104134 -0.0273031,-0.0104134 -0.0377165,0l-0.153209 0.153209z"/>
  <path class="fil0" d="M2.21813 2.63217c-0.0104134,-0.0104134 -0.0273031,-0.0104134 -0.0377165,0 -0.0104134,0.0104134 -0.0104134,0.0273031 0,0.0377165l0.153209 0.153209c0.0104134,0.0104134 0.0272992,0.0104134 0.0377165,0 0.0104134,-0.0104173 0.0104134,-0.0273031 0,-0.0377165l-0.153209 -0.153209z"/>
  <g id="_273790696">
   <g>
    <path id="_273791344" class="fil3" d="M3.3916 3.82745c-0.0096378,0.00556299 -0.0171535,0.0148031 -0.0202598,0.0263898 -0.00310236,0.0115866 -0.0012126,0.0233465 0.00435039,0.0329843 0.00518504,0.00898425 0.0133858,0.0161142 0.0235315,0.019563 0.00096063,0.000204724 0.00190945,0.000437008 0.00286614,0.000692913l-0.0148661 0.0554646 0.0149724 -0.0552677c0.011378,0.00305118 0.0231142,0.00109055 0.0328701,-0.00454331 0.00898425,-0.00518504 0.0161142,-0.0133858 0.019563,-0.0235315 0.000204724,-0.00096063 0.000437008,-0.00190945 0.000692913,-0.00286614l0.0554646 0.0148661 -0.0552677 -0.0149724c0.00305118,-0.011378 0.00109055,-0.0231142 -0.00454331,-0.0328701 -0.00556299,-0.0096378 -0.0148031,-0.0171535 -0.0263898,-0.0202598 -0.0115866,-0.00310236 -0.0233465,-0.0012126 -0.0329843,0.00435039z"/>
    <g>
     <path id="_273791104" class="fil4" d="M2.01315 4.60748l0.966602 -0.822303 -0.00011811 -0.000133858c0.0176929,-0.0150512 0.041874,-0.0175039 0.0616181,-0.00824409l0.269157 0.104484 -0.0205984 0.0534646 0.0207835 -0.0535315c0.0264803,0.0102835 0.041,0.0380472 0.0354921,0.0649724l-0.0428346 0.288831 7.48031e-005 1.1811e-005c-0.00346457,0.0233701 -0.0205669,0.0413543 -0.0420276,0.0470787l-1.19544 0.425953 -0.0192283 -0.0539134 0.0192756 0.0540906c-0.0298701,0.0106417 -0.0627205,-0.00494488 -0.0733661,-0.034815 -0.00879134,-0.024685 0.000330709,-0.0514016 0.0206102,-0.0659449z"/>
     <path id="_273790984" class="fil5" d="M3.56092 3.44965l1.19543 -0.425949c0.0227362,-0.0102953 0.0504331,-0.00483465 0.0674134,0.015122 0.0205472,0.0241535 0.017622,0.0603976 -0.0065315,0.0809449l-0.0372047 -0.0437362 0.0370787 0.0436063 -0.966606 0.822307c-0.015689,0.0157244 -0.0398189,0.0215394 -0.0617913,0.0128583l3.14961e-005 -7.08661e-005 -0.271559 -0.107323c-0.0260709,-0.00869291 -0.0428543,-0.0351496 -0.0385197,-0.0632205l0.056752 0.00876772 -0.0566024 -0.00889764 0.0440945 -0.285335c0.00185827,-0.0217323 0.0160709,-0.0414449 0.0379488,-0.0492441l6.29921e-005 0.000169291z"/>
    </g>
    <path id="_273790912" class="fil0" d="M3.26042 3.82412c0.011311,-0.0422244 0.0386732,-0.075878 0.073752,-0.0961299 0.0350827,-0.020252 0.0779055,-0.027122 0.12013,-0.015811 0.0422283,0.0113189 0.075878,0.0386772 0.0961299,0.0737559 0.0201339,0.034878 0.0269606,0.0776102 0.0156969,0.119937l-4.33071e-005 0.000149606 -3.93701e-006 7.87402e-006 0.000161417 4.33071e-005c-0.000480315,0.00180709 -0.00104724,0.00356693 -0.00168898,0.00528346 -0.0121811,0.0398504 -0.038626,0.0715315 -0.0720669,0.0908386 -0.034878,0.0201339 -0.0776102,0.0269606 -0.119937,0.0156969l-0.000149606 -4.33071e-005 -7.87402e-006 -3.93701e-006 -4.33071e-005 0.000161417c-0.00180709,-0.000480315 -0.00356693,-0.00104724 -0.00528346,-0.00168898 -0.0398504,-0.0121811 -0.0715315,-0.038626 -0.0908386,-0.0720709 -0.020252,-0.0350787 -0.027126,-0.0778976 -0.0158071,-0.120126z"/>
   </g>
   <g>
    <path id="_273791536" class="fil6" d="M3.37569 3.88682c0.00518504,0.00898031 0.0133858,0.0161142 0.0235315,0.0195669 0.00096063,0.000204724 0.00190945,0.000429134 0.00286614,0.000688976l-0.0148701 0.0554606 0.0149764 -0.0552638c0.011378,0.00305118 0.0231102,0.00109055 0.0328701,-0.00454331 0.00898031,-0.00518898 0.0161102,-0.0133858 0.0195669,-0.0235354 0.000200787,-0.000956693 0.000429134,-0.00190551 0.000685039,-0.0028622l0.0554646 0.0148661 -0.0552638 -0.0149685c0.00305118,-0.0113819 0.00109055,-0.0231181 -0.00454331,-0.032878l-0.0752835 0.0434685z"/>
    <g>
     <path id="_273791488" class="fil7" d="M3.34024 3.90729c0.00632283,0.011626 0.00861811,0.025374 0.00585039,0.0389094l-0.0428346 0.288823 7.87402e-005 1.5748e-005c-0.00347244,0.0233701 -0.0205709,0.0413543 -0.0420315,0.0470787l-1.19544 0.425957 -0.0192283 -0.0539134 0.0192795 0.0540866c-0.0265433,0.00946063 -0.0554409,-0.00179528 -0.0690157,-0.025378l1.34334 -0.775579z"/>
     <path id="_273790840" class="fil8" d="M4.82976 3.04731c0.0136339,0.0235472 0.00892913,0.0541969 -0.0125276,0.0724528l-0.0372087 -0.0437402 0.0497362 -0.0287126zm-0.0497362 0.0287126l0.0370787 0.0436102 -0.966602 0.822307c-0.015689,0.0157244 -0.0398189,0.0215433 -0.0617913,0.0128583l3.14961e-005 -7.48031e-005 -0.271559 -0.107323c-0.0130984,-0.00436614 -0.0238583,-0.0132205 -0.0307677,-0.0245118l1.29361 -0.746866z"/>
    </g>
    <path id="_273790288" class="fil9" d="M3.55043 3.78593c0.0201339,0.034878 0.0269646,0.0776102 0.0156969,0.119933l-4.33071e-005 0.00015748 -3.93701e-006 0 0.000165354 4.72441e-005c-0.000488189,0.00180315 -0.00105118,0.00356299 -0.00169291,0.00528346 -0.0121811,0.0398504 -0.0386299,0.0715276 -0.0720709,0.0908346 -0.034874,0.0201378 -0.0776024,0.0269646 -0.119933,0.0157008l-0.000149606 -4.33071e-005 -7.87402e-006 0 -3.93701e-005 0.00015748c-0.00181102,-0.000484252 -0.00357087,-0.00104724 -0.0052874,-0.00168898 -0.0398504,-0.0121811 -0.0715315,-0.0386299 -0.0908386,-0.0720709l0.274205 -0.158311z"/>
   </g>
  </g>
  <polygon class="fil1" points="3.19341,2.42525 3.41333,2.08771 3.63325,2.42525 "/>
  <polygon class="fil1" points="4.85317,3.64517 5.19071,3.86509 4.85317,4.08501 "/>
  <polygon class="fil1" points="3.63325,5.30493 3.41333,5.64247 3.19341,5.30493 "/>
  <polygon class="fil1" points="1.97349,4.08501 1.63595,3.86509 1.97349,3.64517 "/>
  <path class="fil1" d="M3.68257 0.985657c-0.081752,-0.081752 -0.194697,-0.132327 -0.319437,-0.132327 -0.12474,0 -0.237685,0.0505748 -0.319437,0.132327 -0.081752,0.081752 -0.132327,0.194697 -0.132327,0.319437 0,0.124736 0.0505748,0.237685 0.132327,0.319437 0.0256929,0.0256929 0.0544685,0.0483071 0.0857205,0.0672402 0.068189,0.0413071 0.148181,0.0650866 0.233717,0.0650866 0.0855354,0 0.165524,-0.0237795 0.233713,-0.0650866 0.0312559,-0.0189331 0.0600315,-0.0415472 0.0857244,-0.0672402 0.081752,-0.081752 0.132327,-0.194701 0.132327,-0.319437 0,-0.12474 -0.0505748,-0.237685 -0.132327,-0.319437zm-0.319437 0c0.0882008,0 0.168063,0.0357598 0.22587,0.0935669 0.0578071,0.0578071 0.0935669,0.137669 0.0935669,0.22587 0,0.0882008 -0.0357598,0.168063 -0.0935669,0.22587 -0.00543307,0.00543307 -0.0110591,0.0106693 -0.0168701,0.0157047 -0.0560236,0.0485079 -0.129087,0.0778622 -0.209,0.0778622 -0.0799134,0 -0.15298,-0.0293543 -0.209,-0.0778661 -0.00581102,-0.0050315 -0.011437,-0.0102677 -0.0168701,-0.0157008 -0.0578071,-0.0578071 -0.0935669,-0.137669 -0.0935669,-0.22587 0,-0.0882008 0.0357598,-0.168063 0.0935669,-0.22587 0.0578071,-0.0578071 0.137669,-0.0935669 0.22587,-0.0935669z"/>
 </g>
 <rect class="fil10" width="6.82666" height="6.82666"/>
</svg>
