<?xml version="1.0" encoding="UTF-8"?>
<!DOCTYPE svg PUBLIC "-//W3C//DTD SVG 1.1//EN" "http://www.w3.org/Graphics/SVG/1.1/DTD/svg11.dtd">
<!-- Creator: CorelDRAW -->
<svg xmlns="http://www.w3.org/2000/svg" xml:space="preserve" width="6.82666in" height="6.82666in" style="shape-rendering:geometricPrecision; text-rendering:geometricPrecision; image-rendering:optimizeQuality; fill-rule:evenodd; clip-rule:evenodd"
viewBox="0 0 6.82666 6.82666"
 xmlns:xlink="http://www.w3.org/1999/xlink">
 <defs>
  <style type="text/css">
   <![CDATA[
    .fil5 {fill:none}
    .fil1 {fill:#212121;fill-rule:nonzero}
    .fil2 {fill:#29B6F6;fill-rule:nonzero}
    .fil0 {fill:#4FC3F7;fill-rule:nonzero}
    .fil4 {fill:#E27E00;fill-rule:nonzero}
    .fil3 {fill:#FB8C00;fill-rule:nonzero}
   ]]>
  </style>
 </defs>
 <g id="Layer_x0020_1">
  <metadata id="CorelCorpID_0Corel-Layer"/>
  <path class="fil0" d="M3.48234 1.17027c-0.282685,0.598122 -0.434256,1.18809 -0.424398,1.70477 0.00905512,0.474839 0.155394,0.887067 0.463252,1.18366l-0.0708031 0.0735984 0.0710472 -0.0737402c0.0407244,0.0392362 0.0419291,0.104063 0.00269291,0.144787 -0.0354252,0.0367717 -0.0917126,0.0413228 -0.132287,0.0129764 -0.946413,-0.5325 -1.55151,-0.489244 -1.95036,-0.460685 -0.0836181,0.00598425 -0.158756,0.0113661 -0.225693,0.0113661 -0.0565512,0 -0.102402,-0.0458504 -0.102402,-0.102402 0,-0.0108661 0.00169685,-0.0213386 0.00483465,-0.0311614 0.0990827,-0.389083 0.380898,-0.843512 0.762555,-1.28954 0.404618,-0.47285 0.922913,-0.93887 1.45375,-1.30759l0.0584016 0.0839961 -0.0584173 -0.0840984c0.0464449,-0.0322638 0.110256,-0.0207677 0.14252,0.0256811 0.0230669,0.0332047 0.0237638,0.0752953 0.00530709,0.108378z"/>
  <path class="fil1" d="M3.95488 1.15272c0,-0.0575118 -0.046626,-0.104138 -0.104134,-0.104138 -0.0575118,0 -0.104138,0.046626 -0.104138,0.104138l0 3.80743c0,0.0575118 0.046626,0.104138 0.104138,0.104138 0.0575079,0 0.104134,-0.046626 0.104134,-0.104138l0 -0.354937c0.273055,-0.0227362 0.490961,-0.0388976 0.670047,-0.0521772 0.604232,-0.0447992 0.826394,-0.0612756 0.826571,-0.21813 0.000102362,-0.0865827 -0.0819764,-0.149098 -0.211783,-0.247961 -1.08563,-0.826846 -1.28483,-1.70882 -1.28483,-2.93422z"/>
  <path class="fil1" d="M3.55923 0.957469c0,-0.0575079 -0.046626,-0.104138 -0.104138,-0.104138 -0.0575118,0 -0.104138,0.0466299 -0.104138,0.104138l0 4.00268c0,0.0575118 0.046626,0.104138 0.104138,0.104138 0.0575118,0 0.104138,-0.046626 0.104138,-0.104138l0 -4.00268z"/>
  <path class="fil2" d="M3.95488 4.60521c0.273055,-0.0227362 0.490961,-0.0388976 0.670047,-0.0521772 0.604232,-0.0447992 0.826394,-0.0612756 0.826571,-0.21813 0.000102362,-0.0865827 -0.0819764,-0.149098 -0.211783,-0.247961 -1.08563,-0.826846 -1.28483,-1.70882 -1.28483,-2.93422l0 3.45249z"/>
  <path class="fil3" d="M1.02186 4.23578c0.290358,0.094122 0.703449,0.18848 1.1156,0.258815 0.396744,0.0677087 0.790299,0.112528 1.06887,0.112528 0.0321654,0 0.0608622,0.0145591 0.0796339,0.0373228l0.15924 0.17324 0.766224 0 0.292732 -0.193185 -0.000185039 -0.000275591c0.0204173,-0.0134724 0.0439961,-0.0187677 0.0667244,-0.0166575l1.27576 0.00702362 -0.000401575 0.100094 0.000574803 -0.100484c0.0565512,0.000307087 0.102138,0.0455512 0.101823,0.101047 -5.90551e-005,0.0107323 -0.00183858,0.021063 -0.00507087,0.0307441l-0.314772 1.15275 -0.0987992 -0.0259055 0.0989094 0.0260039c-0.0124055,0.0454528 -0.0546654,0.0752283 -0.100535,0.0744803l-2.25992 0c-0.60976,0 -1.03185,-0.15672 -1.39119,-0.438413 -0.352035,-0.275972 -0.636382,-0.66802 -0.980024,-1.14976l-0.000346457 0.00023622c-0.0324291,-0.0454606 -0.0211614,-0.108122 0.0251693,-0.139945 0.0303898,-0.0208701 0.0683189,-0.0232992 0.0999764,-0.00966142z"/>
  <path class="fil4" d="M5.69477 5.65647l-0.0661535 0.242264 -0.0987992 -0.0259055 0.0989094 0.0260079c-0.0124055,0.0454488 -0.0546654,0.0752205 -0.100535,0.0744764l-2.25992 0c-0.60976,0 -1.03185,-0.15672 -1.39119,-0.438413 -0.352035,-0.275972 -0.636382,-0.66802 -0.980024,-1.14976l-0.000346457 0.000240157c-0.0268858,-0.0376929 -0.0237323,-0.0872008 0.00452756,-0.121161 1.03816,0.566362 2.59011,1.15682 4.79353,1.39225z"/>
 </g>
 <rect class="fil5" width="6.82666" height="6.82666"/>
</svg>
