<?xml version="1.0" encoding="UTF-8"?>
<!DOCTYPE svg PUBLIC "-//W3C//DTD SVG 1.1//EN" "http://www.w3.org/Graphics/SVG/1.1/DTD/svg11.dtd">
<!-- Creator: CorelDRAW -->
<svg xmlns="http://www.w3.org/2000/svg" xml:space="preserve" width="6.82666in" height="6.82666in" style="shape-rendering:geometricPrecision; text-rendering:geometricPrecision; image-rendering:optimizeQuality; fill-rule:evenodd; clip-rule:evenodd"
viewBox="0 0 6.82666 6.82666"
 xmlns:xlink="http://www.w3.org/1999/xlink">
 <defs>
  <style type="text/css">
   <![CDATA[
    .fil8 {fill:none}
    .fil4 {fill:#22B2C4}
    .fil1 {fill:#26C6DA}
    .fil5 {fill:#222D32;fill-rule:nonzero}
    .fil0 {fill:#263238;fill-rule:nonzero}
    .fil6 {fill:#CE3330;fill-rule:nonzero}
    .fil7 {fill:#D78B8B;fill-rule:nonzero}
    .fil2 {fill:#E53935;fill-rule:nonzero}
    .fil3 {fill:#EF9A9A;fill-rule:nonzero}
   ]]>
  </style>
 </defs>
 <g id="Layer_x0020_1">
  <metadata id="CorelCorpID_0Corel-Layer"/>
  <path class="fil0" d="M2.67223 2.58251c-0.0285315,0.0607992 -0.010063,0.1375 0.041252,0.171303 0.051315,0.0338071 0.116051,1.38787 0.144583,1.32707 0.0620276,-0.132701 0.144642,-0.238449 0.239185,-0.31061 0.0918858,-0.0701378 0.195437,-0.108421 0.302232,-0.108421 0.114921,0 0.225567,0.0440157 0.321819,0.123689 0.0992441,0.0821417 0.184004,0.202232 0.243854,0.351622 0.0250827,0.0629843 0.0885118,-1.286 0.141669,-1.31572 0.0531575,-0.0297165 0.0759173,-0.10487 0.0508346,-0.16785 -0.075874,-0.18939 -0.185299,-0.34326 -0.314689,-0.450358 -0.13237,-0.109567 -0.284831,-0.170098 -0.443488,-0.170098 -0.148102,0 -0.291028,0.0525748 -0.417232,0.148909 -0.123543,0.0942992 -0.230657,0.230673 -0.31002,0.400461zm0.741106 -0.23585l0 0c0.088,0 0.16,0.072 0.16,0.16l0 0.746665c0,0.088 -0.072,0.16 -0.16,0.16l0 0c-0.088,0 -0.16,-0.072 -0.16,-0.16l0 -0.746665c0,-0.088 0.072,-0.16 0.16,-0.16z"/>
  <g id="_273793792">
   <g>
    <g>
     <ellipse id="_330092224" class="fil1" cx="4.85447" cy="5.68001" rx="1.013" ry="0.210283"/>
     <path id="_330091912" class="fil0" d="M4.01768 4.86539l1.67277 0c0.097315,0 0.176213,0.0477598 0.176213,0.106669l0 0.701957c0,0.0589094 -0.0788976,0.106669 -0.176213,0.106669l-1.67277 0c-0.097315,0 -0.176213,-0.0477598 -0.176213,-0.106669l0 -0.701957c0,-0.0589094 0.0788976,-0.106669 0.176213,-0.106669z"/>
     <path id="_330092032" class="fil0" d="M5.36037 1.74804l-1.01259 0c-0.0589094,0 -0.106669,-0.0299882 -0.106669,-0.0669764l0 -0.44076c0,-0.0369882 0.0477598,-0.0669764 0.106669,-0.0669764l1.01259 0c0.0589094,0 0.106669,0.0299882 0.106669,0.0669764l0 0.44076c0,0.0369882 -0.0477598,0.0669764 -0.106669,0.0669764z"/>
     <path id="_330091624" class="fil2" d="M5.50503 1.70655l-0.00123622 0 -1.30067 0c-0.0566811,0 -0.103035,0.0442165 -0.106461,0.100035l-0.361008 3.15336 -0.000145669 -1.5748e-005c-0.00670079,0.0585276 0.035315,0.111409 0.0938425,0.11811 0.0040748,0.000468504 0.00812598,0.000688976 0.0121339,0.000692913l0.00146063 0 2.02372 0c0.0589094,0 0.106669,-0.0477598 0.106669,-0.106669 0,-0.00608661 -0.000519685,-0.0120512 -0.00149606,-0.0178583l-0.360976 -3.15307 -0.105835 0.0120827 0.105976 -0.0121339c-0.00623622,-0.0544528 -0.0524409,-0.0946024 -0.105976,-0.0945354z"/>
     <path id="_330091984" class="fil3" d="M5.27919 2.30441c-0.00264567,-0.0292244 0.0189016,-0.055063 0.048126,-0.0577087 0.0292244,-0.00264567 0.055063,0.0189016 0.0577087,0.048126l0.213335 2.34667c0.00264567,0.0292244 -0.0189016,0.055063 -0.048126,0.0577087 -0.0292244,0.00264567 -0.055063,-0.0189016 -0.0577087,-0.048126l-0.213335 -2.34667z"/>
    </g>
    <g>
     <path id="_330091504" class="fil4" d="M4.85447 5.46973c0.559465,0 1.013,0.0941457 1.013,0.210283 0,0.116138 -0.453535,0.210283 -1.013,0.210283l-0.000397638 0 0 -0.420567 0.000397638 0z"/>
     <path id="_330091840" class="fil5" d="M4.85407 4.86539l0.836382 0c0.097315,0 0.176213,0.0477598 0.176213,0.106669l0 0.701957c0,0.0589094 -0.0788976,0.106669 -0.176213,0.106669l-0.836382 0 0 -0.915295z"/>
     <path id="_330092104" class="fil5" d="M5.36037 1.74804l-0.506299 0 0 -0.574713 0.506299 0c0.0589094,0 0.106669,0.0299882 0.106669,0.0669764l0 0.44076c0,0.0369882 -0.0477598,0.0669764 -0.106669,0.0669764z"/>
     <path id="_330091288" class="fil6" d="M5.50503 1.70655l-0.00123622 0 -0.649724 0 0 3.37218 1.0126 0c0.0589094,0 0.106669,-0.0477598 0.106669,-0.106669 0,-0.00608661 -0.000519685,-0.0120512 -0.00149606,-0.0178583l-0.360976 -3.15307 -0.105835 0.0120827 0.105976 -0.0121339c-0.00623622,-0.0544528 -0.0524409,-0.0946024 -0.105976,-0.0945354z"/>
     <path id="_330091240" class="fil7" d="M5.27919 2.30441c-0.00264567,-0.0292244 0.0189016,-0.055063 0.048126,-0.0577087 0.0292244,-0.00264567 0.055063,0.0189016 0.0577087,0.048126l0.213335 2.34667c0.00264567,0.0292244 -0.0189016,0.055063 -0.048126,0.0577087 -0.0292244,0.00264567 -0.055063,-0.0189016 -0.0577087,-0.048126l-0.213335 -2.34667z"/>
    </g>
   </g>
   <g>
    <g>
     <ellipse id="_330090952" class="fil1" cx="1.9722" cy="5.68001" rx="1.013" ry="0.210283"/>
     <path id="_330090928" class="fil0" d="M2.80899 4.86539l-1.67277 0c-0.097315,0 -0.176213,0.0477598 -0.176213,0.106669l0 0.701957c0,0.0589094 0.0788976,0.106669 0.176213,0.106669l1.67277 0c0.097315,0 0.176213,-0.0477598 0.176213,-0.106669l0 -0.701957c0,-0.0589094 -0.0788976,-0.106669 -0.176213,-0.106669z"/>
     <path id="_330091168" class="fil0" d="M1.4663 1.74804l1.01259 0c0.0589094,0 0.106669,-0.0299882 0.106669,-0.0669764l0 -0.44076c0,-0.0369882 -0.0477598,-0.0669764 -0.106669,-0.0669764l-1.01259 0c-0.0589094,0 -0.106669,0.0299882 -0.106669,0.0669764l0 0.44076c0,0.0369882 0.0477598,0.0669764 0.106669,0.0669764z"/>
     <path id="_330090328" class="fil2" d="M1.32164 1.70655l0.00123622 0 1.30067 0c0.0566811,0 0.103035,0.0442165 0.106461,0.100035l0.361008 3.15336 0.000145669 -1.5748e-005c0.00670079,0.0585276 -0.035315,0.111409 -0.0938425,0.11811 -0.0040748,0.000468504 -0.00812598,0.000688976 -0.0121339,0.000692913l-0.00146063 0 -2.02372 0c-0.0589094,0 -0.106669,-0.0477598 -0.106669,-0.106669 0,-0.00608661 0.000519685,-0.0120512 0.00149606,-0.0178583l0.360976 -3.15307 0.105835 0.0120827 -0.105976 -0.0121339c0.00623622,-0.0544528 0.0524409,-0.0946024 0.105976,-0.0945354z"/>
     <path id="_330090232" class="fil3" d="M1.54748 2.30441c0.00264567,-0.0292244 -0.0189016,-0.055063 -0.048126,-0.0577087 -0.0292244,-0.00264567 -0.055063,0.0189016 -0.0577087,0.048126l-0.213335 2.34667c-0.00264567,0.0292244 0.0189016,0.055063 0.048126,0.0577087 0.0292244,0.00264567 0.055063,-0.0189016 0.0577087,-0.048126l0.213335 -2.34667z"/>
    </g>
    <g>
     <path id="_330090304" class="fil4" d="M1.9722 5.46973c-0.559465,0 -1.013,0.0941457 -1.013,0.210283 0,0.116138 0.453535,0.210283 1.013,0.210283l0.000397638 0 0 -0.420567 -0.000397638 0z"/>
     <path id="_330090088" class="fil5" d="M1.9726 4.86539l-0.836382 0c-0.097315,0 -0.176213,0.0477598 -0.176213,0.106669l0 0.701957c0,0.0589094 0.0788976,0.106669 0.176213,0.106669l0.836382 0 0 -0.915295z"/>
     <path id="_330089944" class="fil5" d="M1.4663 1.74804l0.506299 0 0 -0.574713 -0.506299 0c-0.0589094,0 -0.106669,0.0299882 -0.106669,0.0669764l0 0.44076c0,0.0369882 0.0477598,0.0669764 0.106669,0.0669764z"/>
     <path id="_330090016" class="fil6" d="M1.32164 1.70655l0.00123622 0 0.649724 0 0 3.37218 -1.0126 0c-0.0589094,0 -0.106669,-0.0477598 -0.106669,-0.106669 0,-0.00608661 0.000519685,-0.0120512 0.00149606,-0.0178583l0.360976 -3.15307 0.105835 0.0120827 -0.105976 -0.0121339c0.00623622,-0.0544528 0.0524409,-0.0946024 0.105976,-0.0945354z"/>
     <path id="_330090520" class="fil7" d="M1.54748 2.30441c0.00264567,-0.0292244 -0.0189016,-0.055063 -0.048126,-0.0577087 -0.0292244,-0.00264567 -0.055063,0.0189016 -0.0577087,0.048126l-0.213335 2.34667c-0.00264567,0.0292244 0.0189016,0.055063 0.048126,0.0577087 0.0292244,0.00264567 0.055063,-0.0189016 0.0577087,-0.048126l0.213335 -2.34667z"/>
    </g>
   </g>
  </g>
 </g>
 <rect class="fil8" width="6.82666" height="6.82666"/>
</svg>
