<?xml version="1.0" encoding="UTF-8"?>
<!DOCTYPE svg PUBLIC "-//W3C//DTD SVG 1.1//EN" "http://www.w3.org/Graphics/SVG/1.1/DTD/svg11.dtd">
<!-- Creator: CorelDRAW -->
<svg xmlns="http://www.w3.org/2000/svg" xml:space="preserve" width="6.82666in" height="6.82666in" style="shape-rendering:geometricPrecision; text-rendering:geometricPrecision; image-rendering:optimizeQuality; fill-rule:evenodd; clip-rule:evenodd"
viewBox="0 0 6.82666 6.82666"
 xmlns:xlink="http://www.w3.org/1999/xlink">
 <defs>
  <style type="text/css">
   <![CDATA[
    .fil6 {fill:none}
    .fil4 {fill:#B78C21;fill-rule:nonzero}
    .fil1 {fill:#CB9C25;fill-rule:nonzero}
    .fil3 {fill:#CE3330;fill-rule:nonzero}
    .fil5 {fill:#E2AD29;fill-rule:nonzero}
    .fil0 {fill:#E53935;fill-rule:nonzero}
    .fil2 {fill:#FBC02D;fill-rule:nonzero}
   ]]>
  </style>
 </defs>
 <g id="Layer_x0020_1">
  <metadata id="CorelCorpID_0Corel-Layer"/>
  <g id="_330085336">
   <g>
    <path id="_330085456" class="fil0" d="M3.71833 5.84766c-0.0772283,0.0776457 -0.185004,0.125677 -0.304996,0.125677 -0.119992,0 -0.227768,-0.0480315 -0.304996,-0.125677 -0.0735433,-0.0739409 -0.119035,-0.175228 -0.119035,-0.286311 0,-0.111083 0.0454921,-0.212374 0.119035,-0.286315 0.0772283,-0.0776457 0.185004,-0.125677 0.304996,-0.125677 0.119992,0 0.227768,0.0480315 0.304996,0.125677 0.0735433,0.0739409 0.119035,0.175232 0.119035,0.286315 0,0.111083 -0.0454921,0.21237 -0.119035,0.286311z"/>
    <path id="_330085384" class="fil0" d="M3.52 4.93236c0,-0.0589094 -0.0477598,-0.106669 -0.106669,-0.106669 -0.0589094,0 -0.106669,0.0477598 -0.106669,0.106669l0 0.323661c0,0.0589094 0.0477598,0.106669 0.106669,0.106669 0.0589094,0 0.106669,-0.0477598 0.106669,-0.106669l0 -0.323661z"/>
   </g>
   <path id="_330085912" class="fil1" d="M3.01456 2.43467c0,0.0589094 0.178547,0.106669 0.398776,0.106669 0.220224,0 0.398772,-0.0477598 0.398772,-0.106669l0 -0.599445c0,-0.0589094 -0.178547,-0.106669 -0.398772,-0.106669 -0.220228,0 -0.398776,0.0477598 -0.398776,0.106669l0 0.599445z"/>
   <path id="_330085480" class="fil2" d="M4.3528 2.435c0.0274134,0.442193 0.111445,0.860075 0.227547,1.26416 0.117543,0.409079 0.26752,0.803004 0.424988,1.19341l0.000259843 -0.000106299c0.0220354,0.0546339 -0.00438976,0.116791 -0.0590236,0.138827 -0.0137913,0.00556299 -0.0280669,0.00803543 -0.0420512,0.00774409l-2.98452 0c-0.0589094,0 -0.106669,-0.0477598 -0.106669,-0.106669 0,-0.0168858 0.00393307,-0.0328543 0.0109173,-0.0470433 0.176106,-0.42326 0.33513,-0.842925 0.451744,-1.25365 0.11648,-0.410252 0.190969,-0.811594 0.198291,-1.19867l0.106252 0.00166535 -0.10665 -0.00201969c0.00110236,-0.0582205 0.0486654,-0.104661 0.10665,-0.104642l0 -7.87402e-006 1.6656 0c0.0589094,0 0.106669,0.0477598 0.106669,0.106669l-3.93701e-006 0.000330709z"/>
   <path id="_330085864" class="fil1" d="M3.99876 1.79914c-0.151669,0.0882047 -0.358807,0.14276 -0.585429,0.14276 -0.226622,0 -0.43376,-0.0545551 -0.585429,-0.14276 -0.169126,-0.0983543 -0.273736,-0.239976 -0.273736,-0.401524 0,-0.161547 0.10461,-0.303169 0.273736,-0.401524 0.151669,-0.0882047 0.358807,-0.14276 0.585429,-0.14276 0.226622,0 0.43376,0.0545551 0.585429,0.14276 0.169126,0.0983543 0.273736,0.239976 0.273736,0.401524 0,0.161547 -0.10461,0.303169 -0.273736,0.401524zm-0.16087 -0.276618c0.0356693,-0.0207441 0.11461,-0.0756811 0.11461,-0.124906 0,-0.0492244 -0.0789409,-0.104161 -0.11461,-0.124906 -0.122315,-0.0711299 -0.28474,-0.0993819 -0.424559,-0.0993819 -0.139819,0 -0.302244,0.028252 -0.424559,0.0993819 -0.0356693,0.0207441 -0.11461,0.0756811 -0.11461,0.124906 0,0.0492244 0.0789409,0.104161 0.11461,0.124906 0.122315,0.0711299 0.28474,0.0993819 0.424559,0.0993819 0.139819,0 0.302244,-0.028252 0.424559,-0.0993819z"/>
  </g>
  <g id="_330084472">
   <g>
    <path id="_330085288" class="fil3" d="M3.71833 5.84766c-0.0772283,0.0776457 -0.185004,0.125677 -0.304996,0.125677l0 -0.82398c0.119992,0 0.227768,0.0480315 0.304996,0.125677 0.0735433,0.0739409 0.119035,0.175232 0.119035,0.286315 0,0.111083 -0.0454921,0.21237 -0.119035,0.286311z"/>
    <path id="_330084664" class="fil3" d="M3.52 4.93236c0,-0.0589094 -0.0477598,-0.106669 -0.106669,-0.106669l0 0.537c0.0589094,0 0.106669,-0.0477598 0.106669,-0.106669l0 -0.323661z"/>
   </g>
   <path id="_330084640" class="fil4" d="M3.41333 2.54134c0.220224,0 0.398772,-0.0477598 0.398772,-0.106669l0 -0.599445c0,-0.0589094 -0.178547,-0.106669 -0.398772,-0.106669l0 0.812783z"/>
   <path id="_330085120" class="fil5" d="M4.3528 2.435c0.0274134,0.442193 0.111445,0.860075 0.227547,1.26416 0.117543,0.409079 0.26752,0.803004 0.424988,1.19341l0.000259843 -0.000106299c0.0220354,0.0546339 -0.00438976,0.116791 -0.0590236,0.138827 -0.0137913,0.00556299 -0.0280669,0.00803543 -0.0420512,0.00774409l-1.49119 0 0 -2.71104 0.832799 0c0.0589094,0 0.106669,0.0477598 0.106669,0.106669l-3.93701e-006 0.000330709z"/>
   <path id="_330084496" class="fil4" d="M3.99876 1.79914c-0.151669,0.0882047 -0.358807,0.14276 -0.585429,0.14276l0 -0.319996c0.139819,0 0.302244,-0.028252 0.424559,-0.0993819 0.0356693,-0.0207441 0.11461,-0.0756811 0.11461,-0.124906 0,-0.0492244 -0.0789409,-0.104161 -0.11461,-0.124906 -0.122315,-0.0711299 -0.28474,-0.0993819 -0.424559,-0.0993819l0 -0.319996c0.226622,0 0.43376,0.0545551 0.585429,0.14276 0.169126,0.0983543 0.273736,0.239976 0.273736,0.401524 0,0.161547 -0.10461,0.303169 -0.273736,0.401524z"/>
  </g>
 </g>
 <rect class="fil6" width="6.82666" height="6.82666"/>
</svg>
