<?xml version="1.0" encoding="UTF-8"?>
<!DOCTYPE svg PUBLIC "-//W3C//DTD SVG 1.1//EN" "http://www.w3.org/Graphics/SVG/1.1/DTD/svg11.dtd">
<!-- Creator: CorelDRAW -->
<svg xmlns="http://www.w3.org/2000/svg" xml:space="preserve" width="6.82666in" height="6.82666in" style="shape-rendering:geometricPrecision; text-rendering:geometricPrecision; image-rendering:optimizeQuality; fill-rule:evenodd; clip-rule:evenodd"
viewBox="0 0 6.82666 6.82666"
 xmlns:xlink="http://www.w3.org/1999/xlink">
 <defs>
  <style type="text/css">
   <![CDATA[
    .fil3 {fill:none}
    .fil0 {fill:#37474F}
    .fil1 {fill:#F4511E}
    .fil2 {fill:#37474F;fill-rule:nonzero}
   ]]>
  </style>
 </defs>
 <g id="Layer_x0020_1">
  <metadata id="CorelCorpID_0Corel-Layer"/>
  <path class="fil0" d="M3.59223 2.04389l0 3.55042c0,0.112012 -0.0908701,0.202882 -0.202882,0.202882 -0.112012,0 -0.202882,-0.0908701 -0.202882,-0.202882l0 -3.55042c0,-0.112012 0.0908701,-0.202882 0.202882,-0.202882 0.112012,0 0.202882,0.0908701 0.202882,0.202882z"/>
  <path class="fil0" d="M3.59223 4.64201c0,0.199528 0.0784213,0.388858 0.219492,0.529925 0.141067,0.141067 0.330394,0.219492 0.529925,0.219492 0.199528,0 0.388858,-0.0784213 0.529925,-0.219492 0.141067,-0.141067 0.219492,-0.330398 0.219492,-0.529925 0,-0.112012 0.0908701,-0.202882 0.202882,-0.202882 0.112012,0 0.202882,0.0908701 0.202882,0.202882 0,0.307327 -0.121075,0.599559 -0.338354,0.816831 -0.21728,0.217272 -0.5095,0.33835 -0.816827,0.33835 -0.307327,0 -0.599555,-0.121079 -0.816831,-0.338354 -0.217272,-0.217276 -0.33835,-0.5095 -0.33835,-0.816827 0,-0.112012 0.0908701,-0.202882 0.202882,-0.202882 0.112012,0 0.202882,0.0908701 0.202882,0.202882z"/>
  <path class="fil0" d="M1.68763 4.64201c0,0.199528 0.0784252,0.388858 0.219492,0.529925 0.141067,0.141071 0.330398,0.219492 0.529925,0.219492 0.199528,0 0.388858,-0.0784252 0.529925,-0.219492 0.141071,-0.141067 0.219492,-0.330398 0.219492,-0.529925 0,-0.112012 0.0908701,-0.202882 0.202882,-0.202882 0.112012,0 0.202882,0.0908701 0.202882,0.202882 0,0.307327 -0.121083,0.599551 -0.33835,0.816827 -0.217276,0.217276 -0.509504,0.338354 -0.816831,0.338354 -0.307327,0 -0.599547,-0.121079 -0.816827,-0.33835 -0.21728,-0.217272 -0.338358,-0.509504 -0.338358,-0.816831 0,-0.112012 0.0908701,-0.202882 0.202886,-0.202882 0.112012,0 0.202882,0.0908701 0.202882,0.202882z"/>
  <path class="fil1" d="M3.8181 2.06458c-0.114016,0.114016 -0.26748,0.177606 -0.428752,0.177606 -0.161276,0 -0.314736,-0.0635906 -0.428752,-0.177606 -0.114016,-0.114016 -0.177606,-0.267476 -0.177606,-0.428748 0,-0.161276 0.0635906,-0.314736 0.177606,-0.428752 0.114016,-0.114016 0.267476,-0.177606 0.428752,-0.177606 0.161272,0 0.314736,0.0635906 0.428752,0.177606 0.114016,0.114016 0.177606,0.267476 0.177606,0.428752 0,0.161272 -0.0635906,0.314732 -0.177606,0.428748zm-0.428752 -0.228157c0.0534724,0 0.104039,-0.020937 0.14185,-0.058748 0.0378071,-0.0378071 0.0587441,-0.0883701 0.0587441,-0.141843 0,-0.0534764 -0.020937,-0.104039 -0.0587441,-0.141846 -0.037811,-0.037811 -0.088378,-0.058748 -0.14185,-0.058748 -0.0534724,0 -0.104039,0.020937 -0.141846,0.058748 -0.0378071,0.0378071 -0.0587441,0.0883701 -0.0587441,0.141846 0,0.0534724 0.020937,0.104035 0.0587441,0.141843 0.0378071,0.037811 0.088374,0.058748 0.141846,0.058748z"/>
  <path class="fil2" d="M3.13467 2.50521c-0.0560236,0 -0.101445,0.0454213 -0.101445,0.101445 0,0.0560236 0.0454213,0.101441 0.101445,0.101441l0.509362 0c0.0560236,0 0.101445,-0.0454173 0.101445,-0.101441 0,-0.0560236 -0.0454213,-0.101445 -0.101445,-0.101445l-0.509362 0z"/>
  <polygon class="fil1" points="1.39795,4.12341 2.17405,4.66804 0.853331,4.89951 "/>
  <polygon class="fil1" points="5.42871,4.12341 4.65261,4.66804 5.97333,4.89951 "/>
 </g>
 <rect class="fil3" width="6.82666" height="6.82666"/>
</svg>
