<?xml version="1.0" encoding="UTF-8"?>
<!DOCTYPE svg PUBLIC "-//W3C//DTD SVG 1.1//EN" "http://www.w3.org/Graphics/SVG/1.1/DTD/svg11.dtd">
<!-- Creator: CorelDRAW -->
<svg xmlns="http://www.w3.org/2000/svg" xml:space="preserve" width="6.82666in" height="6.82666in" style="shape-rendering:geometricPrecision; text-rendering:geometricPrecision; image-rendering:optimizeQuality; fill-rule:evenodd; clip-rule:evenodd"
viewBox="0 0 6.82666 6.82666"
 xmlns:xlink="http://www.w3.org/1999/xlink">
 <defs>
  <style type="text/css">
   <![CDATA[
    .fil4 {fill:none}
    .fil2 {fill:#90A4AE}
    .fil1 {fill:#B0BEC5}
    .fil3 {fill:#37474F;fill-rule:nonzero}
    .fil0 {fill:#EF5350;fill-rule:nonzero}
   ]]>
  </style>
 </defs>
 <g id="Layer_x0020_1">
  <metadata id="CorelCorpID_0Corel-Layer"/>
  <path class="fil0" d="M0.999118 3.19547c-0.0601614,0 -0.108937,0.0975512 -0.108937,0.217878 0,0.120327 0.0487756,0.217878 0.108937,0.217878l1.30756 0c0.0601614,0 0.108937,-0.0975512 0.108937,-0.217878 0,-0.120327 -0.0487756,-0.217878 -0.108937,-0.217878l-1.30756 0z"/>
  <path class="fil0" d="M4.48476 3.19547c-0.0601654,0 -0.108941,0.0975512 -0.108941,0.217878 0,0.120327 0.0487756,0.217878 0.108941,0.217878l1.30756 0c0.0601654,0 0.108941,-0.0975512 0.108941,-0.217878 0,-0.120327 -0.0487756,-0.217878 -0.108941,-0.217878l-1.30756 0z"/>
  <path class="fil0" d="M3.19707 5.80993c0,0.0601654 0.0975472,0.108941 0.21787,0.108941 0.120323,0 0.21787,-0.0487756 0.21787,-0.108941l0 -1.30756c0,-0.0601614 -0.0975472,-0.108941 -0.21787,-0.108941 -0.120323,0 -0.21787,0.0487795 -0.21787,0.108941l0 1.30756z"/>
  <path class="fil0" d="M3.19707 2.32429c0,0.0601614 0.0975472,0.108937 0.21787,0.108937 0.120323,0 0.21787,-0.0487756 0.21787,-0.108937l0 -1.30756c0,-0.0601654 -0.0975472,-0.108941 -0.21787,-0.108941 -0.120323,0 -0.21787,0.0487756 -0.21787,0.108941l0 1.30756z"/>
  <path class="fil1" d="M3.63281 1.26745c0.507984,0.0513465 0.963925,0.278929 1.3057,0.620701 0.34213,0.342134 0.569835,0.798689 0.620854,1.30732l-0.967504 0c-0.0447362,-0.243579 -0.163106,-0.461386 -0.331193,-0.629476 -0.167717,-0.167713 -0.384933,-0.285921 -0.627854,-0.330882l0 -0.967661zm1.92655 2.36377c-0.0510276,0.508618 -0.278724,0.965157 -0.62085,1.30729 -0.341772,0.341772 -0.797713,0.569354 -1.3057,0.620701l0 -0.967661c0.242921,-0.0449606 0.460138,-0.163169 0.627854,-0.330882 0.168079,-0.168083 0.286445,-0.385878 0.331181,-0.629445l0.967512 0zm-2.36229 1.92829c-0.509272,-0.0507008 -0.966421,-0.278512 -1.30891,-0.621004 -0.342126,-0.34213 -0.569823,-0.798669 -0.62085,-1.30729l0.967512 0c0.0447362,0.243567 0.163102,0.461362 0.331181,0.629445 0.168453,0.168453 0.386846,0.286976 0.631071,0.331484l0 0.967362zm0 -3.325c-0.244224,0.0445079 -0.462618,0.163031 -0.631071,0.331484 -0.168087,0.168091 -0.286457,0.385898 -0.331193,0.629476l-0.967504 0c0.0510197,-0.50863 0.278724,-0.965185 0.620854,-1.30732 0.342492,-0.342492 0.799642,-0.570303 1.30891,-0.621004l0 0.967362z"/>
  <path class="fil2" d="M5.05496 3.19547l-0.463106 0c-0.0447362,-0.243579 -0.163106,-0.461386 -0.331193,-0.629476 -0.167717,-0.167713 -0.384933,-0.285921 -0.627854,-0.330882l0 -0.463189c0.739484,0.0979449 1.32493,0.683827 1.42215,1.42355zm-3.93701e-006 0.435748c-0.0972402,0.739693 -0.682665,1.32557 -1.42215,1.42352l0 -0.463189c0.242921,-0.0449606 0.460138,-0.163169 0.627854,-0.330882 0.168079,-0.168083 0.286445,-0.385878 0.331181,-0.629445l0.463114 0zm-1.85789 1.42396c-0.740996,-0.0966654 -1.32798,-0.683181 -1.42537,-1.42396l0.463114 0c0.0447362,0.243567 0.163102,0.461362 0.331181,0.629445 0.168453,0.168453 0.386846,0.286976 0.631071,0.331484l0 0.463035zm-1.42537 -1.85971c0.0973661,-0.740799 0.684362,-1.32733 1.42537,-1.424l0 0.463035c-0.244224,0.0445079 -0.462618,0.163031 -0.631071,0.331484 -0.168087,0.168091 -0.286457,0.385898 -0.331193,0.629476l-0.463106 0z"/>
  <path class="fil3" d="M3.41333 0.853331c0.223587,0 0.411217,0.131315 0.594606,0.259654 0.100862,0.0705945 0.20037,0.140232 0.3,0.18237 0.103906,0.0439488 0.227398,0.066126 0.35085,0.0882874 0.210437,0.0377835 0.420787,0.0755591 0.564728,0.219504 0.143953,0.143949 0.181724,0.354303 0.219508,0.564736 0.0221614,0.123453 0.0443386,0.246941 0.0882835,0.350843 0.0421339,0.099622 0.111776,0.199138 0.182366,0.299996 0.128343,0.18339 0.259657,0.371024 0.259657,0.59461 0,0.223587 -0.131315,0.41122 -0.259657,0.594606 -0.0705906,0.100858 -0.140232,0.20037 -0.18237,0.299996 -0.0439488,0.103906 -0.066126,0.227402 -0.0882874,0.350854 -0.0377795,0.210437 -0.0755512,0.420783 -0.2195,0.564728 -0.143945,0.143949 -0.354291,0.18172 -0.564728,0.2195 -0.123453,0.0221614 -0.246949,0.0443386 -0.350854,0.0882874 -0.099626,0.0421378 -0.199138,0.11178 -0.299996,0.18237 -0.183386,0.128343 -0.37102,0.259657 -0.594606,0.259657 -0.223587,0 -0.41122,-0.131315 -0.594606,-0.259657 -0.100858,-0.0705906 -0.20037,-0.140232 -0.299996,-0.18237 -0.103906,-0.0439488 -0.227402,-0.066126 -0.350854,-0.0882874 -0.210437,-0.0377795 -0.420783,-0.0755512 -0.564728,-0.2195 -0.143949,-0.143945 -0.18172,-0.354291 -0.2195,-0.564728 -0.0221614,-0.123453 -0.0443386,-0.246949 -0.0882874,-0.350854 -0.0421378,-0.099626 -0.11178,-0.199138 -0.18237,-0.299996 -0.128343,-0.183386 -0.259657,-0.37102 -0.259657,-0.594606 0,-0.223587 0.131315,-0.41122 0.259657,-0.59461 0.0705906,-0.100858 0.140232,-0.200374 0.182366,-0.299996 0.0439449,-0.103902 0.066122,-0.22739 0.0882835,-0.350843 0.0377835,-0.210433 0.0755551,-0.420787 0.219508,-0.564736 0.143941,-0.143945 0.354291,-0.18172 0.564728,-0.219504 0.123453,-0.0221614 0.246945,-0.0443386 0.35085,-0.0882874 0.0996299,-0.0421378 0.199138,-0.111776 0.3,-0.18237 0.18339,-0.128339 0.37102,-0.259654 0.594606,-0.259654zm0.532476 0.348587c-0.169256,-0.118449 -0.342433,-0.23965 -0.532476,-0.23965 -0.190043,0 -0.36322,0.121201 -0.532476,0.23965 -0.105602,0.0739055 -0.209783,0.146823 -0.32,0.193433 -0.114933,0.0486102 -0.244409,0.0718661 -0.373831,0.0950984 -0.193315,0.0347087 -0.386555,0.0694134 -0.506858,0.189717 -0.120311,0.120311 -0.155012,0.313551 -0.18972,0.506866 -0.0232362,0.129421 -0.0464843,0.25889 -0.0950945,0.373823 -0.0466102,0.110209 -0.119524,0.214398 -0.193429,0.319996 -0.118453,0.16926 -0.239654,0.342437 -0.239654,0.53248 0,0.190047 0.121197,0.36322 0.239654,0.532476 0.0739055,0.105598 0.146819,0.20978 0.193433,0.319996 0.0486102,0.114933 0.0718661,0.244413 0.0951024,0.373835 0.0347008,0.193315 0.0694055,0.386555 0.189709,0.506858 0.120303,0.120303 0.313543,0.155008 0.506858,0.189709 0.129421,0.0232362 0.258902,0.0464921 0.373835,0.0951024 0.110217,0.0466142 0.214398,0.119528 0.319996,0.193433 0.169256,0.118457 0.342429,0.239654 0.532476,0.239654 0.190047,0 0.36322,-0.121197 0.532476,-0.239654 0.105598,-0.0739055 0.20978,-0.146819 0.319996,-0.193433 0.114933,-0.0486102 0.244413,-0.0718661 0.373835,-0.0951024 0.193315,-0.0347008 0.386555,-0.0694055 0.506858,-0.189709 0.120303,-0.120303 0.155008,-0.313543 0.189709,-0.506858 0.0232362,-0.129421 0.0464921,-0.258902 0.0951024,-0.373835 0.0466142,-0.110217 0.119528,-0.214398 0.193433,-0.319996 0.118457,-0.169256 0.239654,-0.342429 0.239654,-0.532476 0,-0.190043 -0.121201,-0.36322 -0.239654,-0.53248 -0.0739055,-0.105598 -0.146819,-0.209787 -0.193429,-0.319996 -0.0486102,-0.114933 -0.0718583,-0.244402 -0.0950945,-0.373823 -0.0347087,-0.193315 -0.0694094,-0.386555 -0.18972,-0.506866 -0.120303,-0.120303 -0.313543,-0.155008 -0.506858,-0.189717 -0.129421,-0.0232323 -0.258898,-0.0464882 -0.373831,-0.0950984 -0.110217,-0.0466102 -0.214398,-0.119528 -0.32,-0.193433z"/>
 </g>
 <rect class="fil4" width="6.82666" height="6.82666"/>
</svg>
