<?xml version="1.0" encoding="UTF-8"?>
<!DOCTYPE svg PUBLIC "-//W3C//DTD SVG 1.1//EN" "http://www.w3.org/Graphics/SVG/1.1/DTD/svg11.dtd">
<!-- Creator: CorelDRAW -->
<svg xmlns="http://www.w3.org/2000/svg" xml:space="preserve" width="6.82666in" height="6.82666in" style="shape-rendering:geometricPrecision; text-rendering:geometricPrecision; image-rendering:optimizeQuality; fill-rule:evenodd; clip-rule:evenodd"
viewBox="0 0 6.82666 6.82666"
 xmlns:xlink="http://www.w3.org/1999/xlink">
 <defs>
  <style type="text/css">
   <![CDATA[
    .fil2 {fill:none}
    .fil1 {fill:#263238}
    .fil0 {fill:#2E7D32}
   ]]>
  </style>
 </defs>
 <g id="Layer_x0020_1">
  <metadata id="CorelCorpID_0Corel-Layer"/>
  <path class="fil0" d="M0.93187 2.82109c0.284087,0 0.565437,0.0365472 0.846043,0.0732244 0.255185,0.0333543 0.51361,0.0677756 0.771894,0.0677756 0.235287,0 0.49887,-0.0969331 0.716531,-0.173102 0.290598,-0.101689 0.631921,-0.396016 0.947736,-0.396016 1.35884,0 1.36816,2.02731 -0.00288189,2.02731 -0.315811,0 -0.654256,-0.280272 -0.94485,-0.381961 -0.217665,-0.0761693 -0.481248,-0.173098 -0.716535,-0.173098 -0.258283,0 -0.516709,0.0344173 -0.771894,0.0677756 -0.280606,0.0366772 -0.561957,0.0732244 -0.846043,0.0732244 -0.0267953,0 -0.0533976,-0.00390551 -0.0785394,-0.0112559l0 -0.359539c0.0251457,-0.00735039 0.0517441,-0.0112559 0.0785394,-0.0112559 0.25828,0 0.516709,-0.0344173 0.771894,-0.0677756 0.280598,-0.0366772 0.561953,-0.0732244 0.846043,-0.0732244 0.315807,0 0.610791,0.102669 0.901386,0.204354 0.217665,0.0761693 0.524709,0.350705 0.76,0.350705 0.774406,0 0.743646,-1.2632 0.00288189,-1.2632 -0.235295,0 -0.545217,0.288594 -0.762882,0.36476 -0.290598,0.101685 -0.585579,0.204358 -0.901386,0.204358 -0.284091,0 -0.565445,-0.0365512 -0.846047,-0.0732283 -0.255181,-0.0333583 -0.51361,-0.0677717 -0.77189,-0.0677717 -0.0267953,0 -0.0533976,-0.00390551 -0.0785394,-0.0112559l0 -0.359539c0.0251457,-0.00735039 0.0517441,-0.0112559 0.0785394,-0.0112559z"/>
  <path class="fil1" d="M5.97333 3.11926c-0.242004,0 -0.484902,0.0436457 -0.722331,0.0853504 -0.264516,0.0464606 -0.530358,0.092937 -0.800114,0.092937 -0.305193,0 -0.588205,-0.133846 -0.856787,-0.260146 -0.192811,-0.0906614 -0.448075,-0.217126 -0.665657,-0.217126 -0.24961,0 -0.456567,0.112811 -0.550862,0.342118 -0.032689,0.0794921 -0.0482126,0.165791 -0.0482126,0.25126 0,0.0854685 0.0155276,0.171768 0.0482126,0.251264 0.0942874,0.229307 0.30126,0.34211 0.550862,0.34211 0.217583,0 0.472846,-0.126465 0.665657,-0.217126 0.268583,-0.126299 0.551594,-0.260146 0.856787,-0.260146 0.269756,0 0.535598,0.0464764 0.800114,0.092937 0.237429,0.0417047 0.480327,0.0853504 0.722331,0.0853504l3.93701e-006 0 0 0.426669 -3.93701e-006 0c-0.26976,0 -0.535598,-0.0464724 -0.800114,-0.0929331 -0.237433,-0.0417047 -0.480331,-0.0853543 -0.722331,-0.0853543 -0.217587,0 -0.472843,0.126465 -0.665657,0.21713 -0.268587,0.126299 -0.551598,0.260142 -0.856787,0.260142 -0.435846,0 -0.796201,-0.216709 -0.95848,-0.611378 -0.0532717,-0.129551 -0.080185,-0.269232 -0.080185,-0.408665 0,-0.139433 0.0269134,-0.279114 0.080185,-0.408669 0.162283,-0.394665 0.52263,-0.611378 0.95848,-0.611378 0.305189,0 0.588201,0.133843 0.856787,0.260142 0.192815,0.0906654 0.448071,0.21713 0.665657,0.21713 0.242,0 0.484898,-0.0436496 0.722331,-0.0853543 0.264516,-0.0464606 0.530354,-0.0929331 0.800114,-0.0929331l3.93701e-006 0 0 0.426669 -3.93701e-006 0z"/>
  <path class="fil0" d="M1.72467 2.88736l0.053248 0.00694882c0.255185,0.0333543 0.51361,0.0677756 0.771894,0.0677756 0.0428701,0 0.0866811,-0.00323228 0.13098,-0.00895669 0.0486535,0.110295 0.080315,0.237961 0.0896496,0.375165 -0.0725276,0.0100984 -0.145996,0.0158425 -0.22063,0.0158425 -0.284091,0 -0.565445,-0.0365512 -0.846047,-0.0732283 -0.0313268,-0.00409449 -0.0627008,-0.00820472 -0.094122,-0.0122677 0.0174094,-0.138287 0.0577205,-0.264925 0.115028,-0.37128zm0.955846 0.986776c-0.0442047,-0.00570079 -0.0879252,-0.00892126 -0.130705,-0.00892126 -0.258283,0 -0.516709,0.0344173 -0.771894,0.0677756l-0.0529252 0.00690551c-0.0573898,-0.106311 -0.0977756,-0.232949 -0.115264,-0.371252 0.0313898,-0.00405512 0.0627402,-0.00816535 0.0940394,-0.0122559 0.280598,-0.0366772 0.561953,-0.0732244 0.846043,-0.0732244 0.074622,0 0.148079,0.00574016 0.220591,0.0158386 -0.00940551,0.137217 -0.0411535,0.26487 -0.0898858,0.375134z"/>
  <path class="fil0" d="M4.94991 2.67824c0.458717,0.465323 0.367331,1.36457 -0.281969,1.65156 -0.118555,-0.0573976 -0.220287,-0.168319 -0.291661,-0.313067 0.505594,-0.13998 0.529224,-0.924858 0.115744,-1.16906 0.0995945,-0.113398 0.22502,-0.181008 0.361307,-0.181008 0.0329016,0 0.0651535,0.00400394 0.0965787,0.0115748z"/>
 </g>
 <rect class="fil2" width="6.82666" height="6.82666"/>
</svg>
