<?xml version="1.0" encoding="UTF-8"?>
<!DOCTYPE svg PUBLIC "-//W3C//DTD SVG 1.1//EN" "http://www.w3.org/Graphics/SVG/1.1/DTD/svg11.dtd">
<!-- Creator: CorelDRAW -->
<svg xmlns="http://www.w3.org/2000/svg" xml:space="preserve" width="6.82666in" height="6.82666in" style="shape-rendering:geometricPrecision; text-rendering:geometricPrecision; image-rendering:optimizeQuality; fill-rule:evenodd; clip-rule:evenodd"
viewBox="0 0 6.82666 6.82666"
 xmlns:xlink="http://www.w3.org/1999/xlink">
 <defs>
  <style type="text/css">
   <![CDATA[
    .fil14 {fill:none}
    .fil10 {fill:#172071}
    .fil4 {fill:#1A237E}
    .fil0 {fill:#263238}
    .fil11 {fill:#3B3B3B}
    .fil5 {fill:#424242}
    .fil12 {fill:#82B6E0}
    .fil6 {fill:#90CAF9}
    .fil13 {fill:#1E1E1E;fill-rule:nonzero}
    .fil7 {fill:#212121;fill-rule:nonzero}
    .fil9 {fill:#243084;fill-rule:nonzero}
    .fil1 {fill:#263238;fill-rule:nonzero}
    .fil3 {fill:#283593;fill-rule:nonzero}
    .fil8 {fill:#33429A;fill-rule:nonzero}
    .fil2 {fill:#3949AB;fill-rule:nonzero}
   ]]>
  </style>
 </defs>
 <g id="Layer_x0020_1">
  <metadata id="CorelCorpID_0Corel-Layer"/>
  <path class="fil0" d="M3.30202 3.46076l1.46559 2.5062c0.00123228,0.00211024 0.00242126,0.00424016 0.00357874,0.00637402l-0.502098 0 -1.32898 -2.27258c-0.0619685,-0.105965 -0.0311457,-0.246839 0.0683543,-0.312783 0.0994685,-0.0659213 0.231618,-0.0331181 0.293551,0.0727913z"/>
  <path class="fil0" d="M3.30203 3.70075l-1.32898 2.27258 -0.502098 0c0.00115748,-0.00213386 0.00234646,-0.00426378 0.00357874,-0.00637402l1.46559 -2.5062c0.0619331,-0.105909 0.194083,-0.138713 0.293551,-0.0727913 0.0995,0.0659449 0.130323,0.206819 0.0683543,0.312783z"/>
  <path class="fil0" d="M3.33441 2.71562l0 3.17215c0,0.0302598 -0.0055748,0.0591378 -0.0156654,0.0855512l-0.395339 0c-0.0100906,-0.0264134 -0.0156654,-0.0552913 -0.0156654,-0.0855512l0 -3.17215c0,-0.125461 0.0955512,-0.227244 0.213335,-0.227244 0.117783,0 0.213335,0.101783 0.213335,0.227244z"/>
  <path class="fil1" d="M2.83248 2.03041l0.557579 0c0.0589094,0 0.106669,0.0477598 0.106669,0.106669l0 0.278791c0,0.106102 -0.0433346,0.2025 -0.113142,0.272311 -0.069811,0.0698071 -0.166209,0.113142 -0.272311,0.113142l-1.1811e-005 0c-0.10611,0 -0.2025,-0.0433346 -0.272311,-0.113142 -0.0698071,-0.069811 -0.113142,-0.166209 -0.113142,-0.272311l0 -0.278791c0,-0.0589094 0.0477598,-0.106669 0.106669,-0.106669z"/>
  <g id="_328817376">
   <path id="_328818864" class="fil2" d="M0.984126 1.3742l1.33388 0 0 -7.87402e-006c0.0503858,0 0.0912362,0.0408504 0.0912362,0.0912362l-7.87402e-006 0.000724409 0 0.418189 7.87402e-006 0c0,0.0503858 -0.0408504,0.0912362 -0.0912362,0.0912362l-0.000724409 -7.87402e-006 -1.33388 0 0 7.87402e-006c-0.0503858,0 -0.0912402,-0.0408504 -0.0912402,-0.0912362l1.1811e-005 -0.000724409 0 -0.418189 -1.1811e-005 0c0,-0.0503858 0.0408543,-0.0912362 0.0912402,-0.0912362l0.000724409 7.87402e-006z"/>
   <path id="_328818840" class="fil3" d="M2.318 1.21057l1.46734 0 0.000724409 -7.87402e-006c0.0503858,0 0.0912362,0.0408504 0.0912362,0.0912362l-7.87402e-006 0 0 0.745437 7.87402e-006 0.000720472c0,0.0503858 -0.0408504,0.0912362 -0.0912362,0.0912362l0 -7.87402e-006 -1.46734 0 -0.000724409 7.87402e-006c-0.0503898,0 -0.0912402,-0.0408504 -0.0912402,-0.0912362l1.1811e-005 0 0 -0.745437 -1.1811e-005 -0.000720472c0,-0.0503858 0.0408504,-0.0912362 0.0912402,-0.0912362l0 7.87402e-006z"/>
   <path id="_328819128" class="fil4" d="M5.87922 1.10953l-7.87402e-006 0.000724409 7.87402e-006 1.12998c0,0.0503858 -0.0408543,0.0912362 -0.0912402,0.0912362l-0.000720472 -1.1811e-005 -2.00119 1.1811e-005c-0.0503819,0 -0.0912323,-0.0408504 -0.0912323,-0.0912362l7.87402e-006 -0.000724409 -7.87402e-006 -1.12998c0,-0.0503858 0.0408504,-0.0912362 0.0912323,-0.0912362l0.000724409 1.1811e-005 2.00119 -1.1811e-005c0.0503858,0 0.0912402,0.0408504 0.0912402,0.0912362z"/>
   <line id="_328819272" class="fil5" x1="5.78798" y1="1.0183" x2="5.78798" y2= "1.0183" />
   <line id="_328818120" class="fil5" x1="3.69485" y1="1.10953" x2="3.69485" y2= "1.10953" />
   <line id="_328818216" class="fil5" x1="3.78607" y1="2.33146" x2="3.78607" y2= "2.33146" />
   <ellipse id="_328818720" class="fil6" cx="0.932662" cy="1.69191" rx="0.0793324" ry="0.452447"/>
   <line id="_328818072" class="fil5" x1="5.87921" y1="2.24024" x2="5.87921" y2= "2.24024" />
   <path id="_328818648" class="fil7" d="M1.07463 1.2745c0,-0.0503819 -0.0408465,-0.0912283 -0.0912283,-0.0912283 -0.050378,0 -0.0912283,0.0408465 -0.0912283,0.0912283l0 0.800764c0,0.0503819 0.0408504,0.0912283 0.0912283,0.0912283 0.0503819,0 0.0912283,-0.0408465 0.0912283,-0.0912283l0 -0.800764z"/>
   <ellipse id="_328818024" class="fil6" cx="5.85683" cy="1.68053" rx="0.116497" ry="0.742469"/>
   <path id="_328818600" class="fil7" d="M5.8792 0.944559c0,-0.0503819 -0.0408465,-0.0912283 -0.0912244,-0.0912283 -0.0503819,0 -0.0912283,0.0408465 -0.0912283,0.0912283l0 1.46065c0,0.0503819 0.0408465,0.0912283 0.0912283,0.0912283 0.050378,0 0.0912244,-0.0408465 0.0912244,-0.0912283l0 -1.46065z"/>
  </g>
  <g id="_328816608">
   <path id="_328817880" class="fil8" d="M2.40923 1.67488l0 0.209461 7.87402e-006 0c0,0.050378 -0.0408504,0.0912323 -0.0912362,0.0912323l-0.000724409 -3.93701e-006 -1.33388 0 0 3.93701e-006c-0.0503858,0 -0.0912362,-0.0408543 -0.0912362,-0.0912323l1.1811e-005 -0.000724409 0 -0.208736 1.51706 0z"/>
   <path id="_328817712" class="fil9" d="M3.8773 1.67488l0 0.372358 7.87402e-006 0.000724409c0,0.0503819 -0.0408543,0.0912323 -0.0912362,0.0912323l0 -7.87402e-006 -1.46735 0 -0.000720472 7.87402e-006c-0.0503898,0 -0.0912402,-0.0408504 -0.0912402,-0.0912323l7.87402e-006 0 0 -0.373083 1.65053 0z"/>
   <path id="_328817616" class="fil10" d="M5.87921 1.67488l7.87402e-006 0.565354c0,0.0503898 -0.0408543,0.0912362 -0.0912402,0.0912362l-0.000724409 -1.1811e-005 -2.00119 1.1811e-005c-0.0503819,0 -0.0912362,-0.0408504 -0.0912323,-0.0912362l3.93701e-006 -0.000724409 0 -0.56463 2.18437 0z"/>
   <line id="_328817256" class="fil11" x1="3.78607" y1="2.33146" x2="3.78607" y2= "2.33146" />
   <path id="_328817520" class="fil12" d="M1.01193 1.67488c3.54331e-005,0.00565354 6.29921e-005,0.0113268 6.29921e-005,0.0170315 0,0.249878 -0.0355157,0.452445 -0.0793307,0.452445 -0.043815,0 -0.0793307,-0.202567 -0.0793307,-0.452445 0,-0.00570472 2.75591e-005,-0.011378 6.29921e-005,-0.0170315l0.158535 0z"/>
   <line id="_328816536" class="fil11" x1="5.87921" y1="2.24024" x2="5.87921" y2= "2.24024" />
   <path id="_328816824" class="fil13" d="M0.892173 1.67488l0 0.400382c0,0.050378 0.0408465,0.0912283 0.0912283,0.0912283 0.050378,0 0.0912244,-0.0408504 0.0912244,-0.0912283l0 -0.400382 -0.182453 0z"/>
   <path id="_328817184" class="fil12" d="M5.97332 1.67488l1.1811e-005 0.00565354c0,0.410051 -0.0521575,0.742465 -0.116496,0.742465 -0.0643465,0 -0.1165,-0.332413 -0.1165,-0.742465l1.1811e-005 -0.00565354 0.232972 0z"/>
   <path id="_328816656" class="fil13" d="M5.69675 1.67488l0 0.730323c0,0.0503819 0.0408465,0.0912283 0.0912283,0.0912283 0.050378,0 0.0912283,-0.0408465 0.0912283,-0.0912283l0 -0.730323 -0.182457 0z"/>
  </g>
 </g>
 <rect class="fil14" width="6.82666" height="6.82666"/>
</svg>
