<?xml version="1.0" encoding="UTF-8"?>
<!DOCTYPE svg PUBLIC "-//W3C//DTD SVG 1.1//EN" "http://www.w3.org/Graphics/SVG/1.1/DTD/svg11.dtd">
<!-- Creator: CorelDRAW -->
<svg xmlns="http://www.w3.org/2000/svg" xml:space="preserve" width="6.82666in" height="6.82666in" style="shape-rendering:geometricPrecision; text-rendering:geometricPrecision; image-rendering:optimizeQuality; fill-rule:evenodd; clip-rule:evenodd"
viewBox="0 0 6.82666 6.82666"
 xmlns:xlink="http://www.w3.org/1999/xlink">
 <defs>
  <style type="text/css">
   <![CDATA[
    .fil10 {fill:none}
    .fil0 {fill:#00838F}
    .fil1 {fill:#E0F7FA}
    .fil9 {fill:#222D32;fill-rule:nonzero}
    .fil5 {fill:#263238;fill-rule:nonzero}
    .fil6 {fill:#3B3B3B;fill-rule:nonzero}
    .fil2 {fill:#424242;fill-rule:nonzero}
    .fil7 {fill:#6BA1C0;fill-rule:nonzero}
    .fil3 {fill:#77B3D5;fill-rule:nonzero}
    .fil8 {fill:#CF4E0A;fill-rule:nonzero}
    .fil4 {fill:#E6570B;fill-rule:nonzero}
   ]]>
  </style>
 </defs>
 <g id="Layer_x0020_1">
  <metadata id="CorelCorpID_0Corel-Layer"/>
  <g id="_328820616">
   <path id="_328821312" class="fil0" d="M3.41333 0.853335c0.681165,0 1.3286,0.268244 1.81018,0.749815 0.481571,0.481579 0.749819,1.12902 0.749819,1.81018 0,0.681165 -0.268248,1.32861 -0.749819,1.81019 -0.481579,0.481575 -1.12902,0.749815 -1.81018,0.749815 -0.681165,0 -1.3286,-0.26824 -1.81018,-0.749815 -0.481571,-0.481579 -0.749819,-1.12902 -0.749819,-1.81019 0,-0.681161 0.268248,-1.3286 0.749819,-1.81018 0.481579,-0.481571 1.12902,-0.749815 1.81018,-0.749815z"/>
   <path id="_328821096" class="fil1" d="M4.9898 1.83686c-0.419547,-0.419555 -0.983043,-0.65298 -1.57647,-0.65298 -0.593425,0 -1.15692,0.233425 -1.57647,0.65298 -0.419555,0.419555 -0.65298,0.983043 -0.65298,1.57647 0,0.593429 0.233425,1.15692 0.65298,1.57647 0.419547,0.419559 0.983043,0.652984 1.57647,0.652984 0.593425,0 1.15692,-0.233425 1.57647,-0.652984 0.419555,-0.419547 0.65298,-0.983039 0.65298,-1.57647 0,-0.593425 -0.233425,-1.15691 -0.65298,-1.57647z"/>
   <path id="_328821264" class="fil2" d="M3.38694 3.36762c-0.0117008,0.00675591 -0.0208307,0.0179764 -0.0245984,0.0320472 -0.00377165,0.0140669 -0.00147638,0.0283504 0.00527953,0.0400512 0.00629921,0.0109055 0.0162559,0.0195669 0.0285748,0.0237559 0.00116535,0.000248031 0.0023189,0.000527559 0.00348031,0.000838583l-0.0180551 0.0673504 0.0181811 -0.0671102c0.0138189,0.00370472 0.0280669,0.00132283 0.0399173,-0.00551575 0.0109055,-0.00629921 0.0195669,-0.0162559 0.0237559,-0.0285748 0.000248031,-0.00116535 0.000527559,-0.0023189 0.000838583,-0.00348031l0.0673504 0.0180551 -0.0671102 -0.0181811c0.00370472,-0.0138189 0.00132283,-0.0280709 -0.00551575,-0.0399173 -0.00675591,-0.0117008 -0.0179764,-0.0208307 -0.0320472,-0.0245984 -0.0140669,-0.00377165 -0.0283504,-0.00147638 -0.0400512,0.00527953z"/>
   <g>
    <path id="_328821480" class="fil3" d="M1.71312 4.31481l1.17372 -0.998512 -0.000141732 -0.000165354c0.0214843,-0.0182756 0.0508465,-0.021252 0.0748228,-0.0100118l0.326831 0.126874 -0.0250079 0.0649213 0.0252323 -0.065c0.0321535,0.0124843 0.0497874,0.0461969 0.0430984,0.0788937l-0.0520118 0.35072 9.05512e-005 1.5748e-005c-0.00420866,0.028378 -0.0249764,0.0502165 -0.0510354,0.0571693l-1.4516 0.517228 -0.0233465 -0.0654685 0.0234055 0.0656811c-0.0362717,0.0129213 -0.0761614,-0.00600394 -0.0890866,-0.0422756 -0.0106772,-0.0299724 0.000397638,-0.0624173 0.0250276,-0.0800709z"/>
    <path id="_328821288" class="fil4" d="M3.59255 2.90887l1.45159 -0.517224c0.0276063,-0.0125 0.0612402,-0.00587008 0.0818583,0.0183622 0.0249488,0.0293268 0.0213976,0.0733386 -0.00792913,0.0982913l-0.0451811 -0.0531102 0.0450236 0.0529488 -1.17373 0.998512c-0.0190512,0.0190945 -0.0483504,0.0261614 -0.0750276,0.0156181l3.14961e-005 -9.05512e-005 -0.329744 -0.130315c-0.0316575,-0.0105591 -0.0520394,-0.042685 -0.0467717,-0.0767717l0.0689055 0.0106457 -0.0687283 -0.0107992 0.0535472 -0.34648c0.00225197,-0.0263858 0.0195118,-0.0503268 0.0460787,-0.0597953l7.48031e-005 0.000208661z"/>
   </g>
   <path id="_328821744" class="fil5" d="M3.22765 3.36358c0.0137362,-0.0512717 0.0469646,-0.0921339 0.0895591,-0.116728 0.0425984,-0.0245945 0.0945984,-0.032937 0.14587,-0.0191969 0.0512795,0.0137402 0.0921339,0.0469646 0.116728,0.0895591 0.0244528,0.0423504 0.0327362,0.0942362 0.0190591,0.145634l-5.11811e-005 0.000185039 -3.93701e-006 7.87402e-006 0.00019685 5.11811e-005c-0.000586614,0.00219291 -0.00127165,0.00433071 -0.00205512,0.00641732 -0.0147874,0.0483898 -0.0469016,0.0868583 -0.0875079,0.110303 -0.0423504,0.0244528 -0.0942362,0.0327362 -0.145634,0.0190591l-0.000185039 -5.11811e-005 -7.87402e-006 -3.93701e-006 -5.11811e-005 0.00019685c-0.00219685,-0.000586614 -0.00433071,-0.00127165 -0.00641732,-0.00205512 -0.0483898,-0.0147874 -0.0868583,-0.0469016 -0.110303,-0.0875079 -0.0245945,-0.0425984 -0.032937,-0.0945945 -0.0191969,-0.14587z"/>
   <path id="_328821576" class="fil6" d="M3.36762 3.43972c0.00629528,0.0109055 0.0162559,0.0195669 0.0285748,0.0237559 0.00116535,0.000248031 0.0023189,0.000527559 0.00348031,0.00084252l-0.0180551 0.0673425 0.018185 -0.0671063c0.013815,0.00370472 0.028063,0.00132283 0.0399134,-0.00551969 0.0109055,-0.00629528 0.019563,-0.016252 0.0237559,-0.0285748 0.000244094,-0.00116142 0.000527559,-0.00231496 0.000838583,-0.00347638l0.0673465 0.0180512 -0.0671063 -0.0181772c0.00370472,-0.0138189 0.00132283,-0.0280709 -0.00551575,-0.0399213l-0.0914173 0.0527835z"/>
   <g>
    <path id="_328820952" class="fil7" d="M3.32458 3.46457c0.00767717,0.0141181 0.0104646,0.030811 0.00710236,0.0472441l-0.0520118 0.350717 9.44882e-005 1.5748e-005c-0.00421654,0.028378 -0.0249803,0.0502205 -0.0510394,0.0571693l-1.4516 0.517232 -0.0233465 -0.0654685 0.0234055 0.0656811c-0.0322283,0.0114843 -0.067315,-0.0021811 -0.0837992,-0.0308189l1.6312 -0.941772z"/>
    <path id="_328820448" class="fil8" d="M5.13328 2.42031c0.0165551,0.0285945 0.0108425,0.065811 -0.0152165,0.0879764l-0.0451811 -0.0531102 0.0603976 -0.0348661zm-0.0603976 0.0348661l0.0450236 0.0529567 -1.17373 0.998512c-0.0190472,0.0190906 -0.0483504,0.0261575 -0.0750276,0.0156142l3.54331e-005 -9.05512e-005 -0.329748 -0.130323c-0.0159055,-0.00529921 -0.0289724,-0.0160512 -0.0373622,-0.0297598l1.57081 -0.906909z"/>
   </g>
   <path id="_328820664" class="fil9" d="M3.57981 3.31721c0.0244488,0.0423504 0.0327402,0.0942362 0.019063,0.145634l-5.51181e-005 0.000188976 -3.93701e-006 0 0.000200787 5.51181e-005c-0.000590551,0.00219291 -0.00127559,0.00433071 -0.00205512,0.00641732 -0.0147913,0.0483937 -0.0469055,0.0868543 -0.0875118,0.110299 -0.0423543,0.0244528 -0.0942362,0.0327402 -0.145634,0.0190669l-0.000185039 -5.51181e-005 -7.87402e-006 0 -5.11811e-005 0.000192913c-0.00219685,-0.000586614 -0.00433465,-0.00127165 -0.00641732,-0.00205118 -0.0483898,-0.0147913 -0.0868583,-0.0469055 -0.110303,-0.0875157l0.332961 -0.192232z"/>
  </g>
  <polygon class="fil5" points="3.18596,1.32589 3.32323,1.32589 3.50222,1.5889 3.50222,1.32589 3.6407,1.32589 3.6407,1.80132 3.50222,1.80132 3.32411,1.5403 3.32411,1.80132 3.18596,1.80132 "/>
  <path class="fil5" d="M3.19764 5.34607l0.139815 -0.00874803c0.00298819,0.0226929 0.00918504,0.0399606 0.0184803,0.0519173 0.0150551,0.0192638 0.036752,0.0287795 0.0648661,0.0287795 0.0209213,0 0.0370827,-0.00487008 0.0484882,-0.0147165 0.0112874,-0.00985039 0.016937,-0.0212598 0.016937,-0.0342087 0,-0.0122874 -0.00531102,-0.0233543 -0.0161614,-0.0330984 -0.0108504,-0.00974016 -0.0358661,-0.0189291 -0.0752756,-0.027563 -0.0644291,-0.0145 -0.110366,-0.0336535 -0.137815,-0.0576732 -0.0276732,-0.0240197 -0.0415118,-0.0545669 -0.0415118,-0.0917677 0,-0.0244567 0.00708268,-0.0475984 0.021252,-0.0692913 0.0141732,-0.0216969 0.0354252,-0.0387441 0.063878,-0.0512559 0.0284449,-0.0123937 0.0674055,-0.0185984 0.11689,-0.0185984 0.0607717,0 0.107157,0.0112953 0.139035,0.033874 0.0318819,0.0225827 0.050811,0.0585591 0.0568976,0.107823l-0.13848 0.00807874c-0.00365354,-0.0213661 -0.0114055,-0.0369724 -0.023252,-0.0467126 -0.0117323,-0.00963386 -0.0280039,-0.0145039 -0.0487047,-0.0145039 -0.0171575,0 -0.0299961,0.00354331 -0.038626,0.0108465 -0.0086378,0.00719291 -0.0129528,0.0160512 -0.0129528,0.0264606 0,0.00752362 0.00353937,0.0142756 0.010622,0.0203661 0.00697244,0.00631102 0.0233622,0.012063 0.049374,0.0174921 0.0642008,0.0138386 0.110138,0.0278937 0.137921,0.042063 0.0277874,0.0141654 0.0480472,0.0316575 0.0606614,0.052689 0.012622,0.0209213 0.0190394,0.0443937 0.0190394,0.0704055 0,0.030437 -0.00851969,0.0585591 -0.0253465,0.0842362 -0.0168268,0.0257913 -0.0404055,0.0452795 -0.0707323,0.0585591 -0.0302244,0.0132795 -0.0684134,0.0199252 -0.114461,0.0199252 -0.0808071,0 -0.136823,-0.0154921 -0.167929,-0.0467165 -0.0312126,-0.0311024 -0.048815,-0.070622 -0.0529094,-0.118661z"/>
  <polygon class="fil5" points="1.32977,3.17561 1.46924,3.17561 1.5195,3.44117 1.59278,3.17561 1.73193,3.17561 1.80553,3.44117 1.85579,3.17561 1.9946,3.17561 1.88989,3.65105 1.74588,3.65105 1.66252,3.35172 1.57949,3.65105 1.43548,3.65105 "/>
  <polygon class="fil5" points="5.10322,3.17561 5.49685,3.17561 5.49685,3.27711 5.25044,3.27711 5.25044,3.35272 5.47903,3.35272 5.47903,3.44969 5.25044,3.44969 5.25044,3.54334 5.50405,3.54334 5.50405,3.65105 5.10322,3.65105 "/>
 </g>
 <rect class="fil10" width="6.82666" height="6.82666"/>
</svg>
