<?xml version="1.0" encoding="UTF-8"?>
<!DOCTYPE svg PUBLIC "-//W3C//DTD SVG 1.1//EN" "http://www.w3.org/Graphics/SVG/1.1/DTD/svg11.dtd">
<!-- Creator: CorelDRAW -->
<svg xmlns="http://www.w3.org/2000/svg" xml:space="preserve" width="6.82666in" height="6.82666in" style="shape-rendering:geometricPrecision; text-rendering:geometricPrecision; image-rendering:optimizeQuality; fill-rule:evenodd; clip-rule:evenodd"
viewBox="0 0 6.82666 6.82666"
 xmlns:xlink="http://www.w3.org/1999/xlink">
 <defs>
  <style type="text/css">
   <![CDATA[
    .fil7 {fill:none}
    .fil1 {fill:#00ACC1;fill-rule:nonzero}
    .fil2 {fill:#263238;fill-rule:nonzero}
    .fil0 {fill:#4DD0E1;fill-rule:nonzero}
    .fil6 {fill:#583D35;fill-rule:nonzero}
    .fil5 {fill:#6D4C41;fill-rule:nonzero}
    .fil4 {fill:#D32F2F;fill-rule:nonzero}
    .fil3 {fill:#E53935;fill-rule:nonzero}
   ]]>
  </style>
 </defs>
 <g id="Layer_x0020_1">
  <metadata id="CorelCorpID_0Corel-Layer"/>
  <g id="_328822920">
   <path id="_328822872" class="fil0" d="M2.67568 1.53654c-0.25728,0.561189 -0.440441,0.99124 -0.46213,1.38321 -0.0212165,0.38348 0.114508,0.742945 0.492402,1.17815l0.000244094 -0.000212598c0.038622,0.0444803 0.033878,0.111854 -0.0106024,0.150476 -0.0288661,0.0250669 -0.067374,0.0318583 -0.101409,0.0213858l-1.66002 -0.415291 0.0258346 -0.103335 -0.0258858 0.103476c-0.0529606,-0.013248 -0.0866693,-0.0639685 -0.0799449,-0.116815 0.0320827,-0.449209 0.100421,-0.843339 0.208331,-1.17732 0.110453,-0.34185 0.262484,-0.620992 0.459583,-0.832118l0.0779173 0.0725 -0.0779724 -0.0727913c0.0149134,-0.0159724 0.0335866,-0.0263307 0.0533701,-0.0310039l0.974823 -0.314016 -0.000102362 -0.000314961c0.0560709,-0.0180591 0.116177,0.0127559 0.134236,0.0688268 0.00950787,0.0295197 0.00546063,0.0601535 -0.00867717,0.085189z"/>
   <path id="_328822632" class="fil1" d="M2.02119 4.12621l-1.08703 -0.271945 0.0258346 -0.103335 -0.0258858 0.103476c-0.0529606,-0.013248 -0.0866693,-0.0639685 -0.0799449,-0.116815 0.0320827,-0.449209 0.100421,-0.843339 0.208331,-1.17732 0.110453,-0.34185 0.262484,-0.620992 0.459583,-0.832118l0.0779173 0.0725 -0.0779724 -0.0727913c0.0149134,-0.0159724 0.0335866,-0.0263307 0.0533701,-0.0310039l0.372705 -0.120059c-0.245717,0.53789 -0.419146,0.954579 -0.440213,1.33532 -0.0212165,0.38348 0.114508,0.742945 0.492402,1.17815l0.000244094 -0.000212598c0.00948425,0.0109252 0.0163504,0.0232283 0.0206575,0.0361496z"/>
  </g>
  <path class="fil2" d="M2.73232 1.27073c0,-0.0589094 -0.0477598,-0.106669 -0.106669,-0.106669 -0.0589094,0 -0.106669,0.0477598 -0.106669,0.106669l0 3.34404c0,0.0589094 0.0477598,0.106669 0.106669,0.106669 0.0589094,0 0.106669,-0.0477598 0.106669,-0.106669l0 -3.34404z"/>
  <g id="_328822176">
   <path id="_328822776" class="fil3" d="M4.62043 2.18059c-0.23237,0.424 -0.397811,0.748354 -0.417031,1.03898 -0.0185984,0.281236 0.102528,0.546909 0.439327,0.871386l-0.073752 0.0766654 0.0740079 -0.0768189c0.0424252,0.0408701 0.0436811,0.108402 0.00281102,0.150827 -0.0283543,0.0294331 -0.0695472,0.0390472 -0.10628,0.0285276l-1.50833 -0.315693 0.0216654 -0.104165 -0.0218504 0.104406c-0.054563,-0.0114173 -0.0905866,-0.0626496 -0.0840748,-0.11698 0.0294685,-0.345681 0.0925197,-0.649543 0.192224,-0.907709 0.102083,-0.264331 0.242791,-0.480362 0.42535,-0.643984l-0.000291339 -0.000326772c0.0144134,-0.0129173 0.031374,-0.0211929 0.0490472,-0.0249252l0.88902 -0.239587 -3.54331e-005 -0.000133858c0.056878,-0.0153268 0.115421,0.0183583 0.130748,0.0752362 0.00802756,0.0297913 0.0026063,0.0600315 -0.0125512,0.0842913z"/>
   <path id="_328822200" class="fil4" d="M3.95206 4.14721l-0.920878 -0.19274 0.0216654 -0.104165 -0.0218504 0.104406c-0.054563,-0.0114173 -0.0905866,-0.0626496 -0.0840748,-0.11698 0.0294685,-0.345681 0.0925197,-0.649543 0.192224,-0.907709 0.102083,-0.264331 0.242791,-0.480362 0.42535,-0.643984l-0.000291339 -0.000326772c0.0144134,-0.0129173 0.031374,-0.0211929 0.0490472,-0.0249252l0.544866 -0.146839c-0.271043,0.497972 -0.461094,0.886035 -0.484213,1.23558 -0.0174567,0.263949 0.0622598,0.517083 0.278154,0.797681z"/>
  </g>
  <path class="fil2" d="M4.69334 1.82689c0,-0.0589094 -0.0477598,-0.106669 -0.106669,-0.106669 -0.0589094,0 -0.106669,0.0477598 -0.106669,0.106669l0 2.80716c0,0.0589094 0.0477598,0.106669 0.106669,0.106669 0.0589094,0 0.106669,-0.0477598 0.106669,-0.106669l0 -2.80716z"/>
  <path class="fil5" d="M0.992614 4.28072c0.295815,0.0723858 0.714358,0.144591 1.13003,0.19802 0.399831,0.0513976 0.797969,0.0854173 1.08193,0.0854173 0.0270276,0 0.0517008,0.0100551 0.0705,0.026626l0.162689 0.133319 0.786866 0 0.29885 -0.148555 -0.00011811 -0.00023622c0.0184449,-0.00916929 0.0382677,-0.0124921 0.057374,-0.0106969l1.28634 0.00533465 -0.000417323 0.106252 0.000440945 -0.106665c0.0589094,0.000240157 0.106465,0.0481969 0.106224,0.107106 -6.29921e-005,0.0155512 -0.00345276,0.030315 -0.00949213,0.0436142l-0.316094 0.871929 -0.1 -0.036252 0.10028 0.0363543c-0.0159961,0.0441339 -0.0580945,0.0712677 -0.102563,0.070315l-2.27841 0c-0.609713,0 -1.03246,-0.118445 -1.39299,-0.331327 -0.356445,-0.210469 -0.643831,-0.508929 -0.991134,-0.875646l0.0770827 -0.0733346 -0.0774488 0.0733465c-0.0405079,-0.0427717 -0.0386693,-0.110287 0.00410236,-0.150795 0.0292638,-0.0277126 0.0701063,-0.0356024 0.105961,-0.024126z"/>
  <path class="fil6" d="M5.67888 5.50628l-0.0311417 0.0859016 -0.1 -0.036252 0.10028 0.0363543c-0.0159961,0.0441339 -0.0580945,0.0712677 -0.102563,0.070315l-2.27841 0c-0.609713,0 -1.03246,-0.118445 -1.39299,-0.331327 -0.356445,-0.210469 -0.643831,-0.508929 -0.991134,-0.875646l0.0770827 -0.0733346 -0.0774488 0.0733465c-0.0317165,-0.0334921 -0.0374685,-0.0821496 -0.0179409,-0.121138 1.1662,0.536575 2.90158,1.14506 4.81427,1.17178z"/>
 </g>
 <rect class="fil7" width="6.82666" height="6.82666"/>
</svg>
