<?xml version="1.0" encoding="UTF-8"?>
<!DOCTYPE svg PUBLIC "-//W3C//DTD SVG 1.1//EN" "http://www.w3.org/Graphics/SVG/1.1/DTD/svg11.dtd">
<!-- Creator: CorelDRAW -->
<svg xmlns="http://www.w3.org/2000/svg" xml:space="preserve" width="6.82666in" height="6.82666in" style="shape-rendering:geometricPrecision; text-rendering:geometricPrecision; image-rendering:optimizeQuality; fill-rule:evenodd; clip-rule:evenodd"
viewBox="0 0 6.82666 6.82666"
 xmlns:xlink="http://www.w3.org/1999/xlink">
 <defs>
  <style type="text/css">
   <![CDATA[
    .fil10 {fill:none}
    .fil9 {fill:black}
    .fil8 {fill:#0277BD}
    .fil7 {fill:#0288D1}
    .fil6 {fill:#039BE5}
    .fil5 {fill:#29B6F6}
    .fil4 {fill:#4FC3F7}
    .fil3 {fill:#81D4FA}
    .fil2 {fill:#B3E5FC}
    .fil0 {fill:#424242;fill-rule:nonzero}
    .fil1 {fill:#FBC02D;fill-rule:nonzero}
   ]]>
  </style>
 </defs>
 <g id="Layer_x0020_1">
  <metadata id="CorelCorpID_0Corel-Layer"/>
  <path class="fil0" d="M5.09104 1.64376c-0.0495984,-0.0495984 -0.118138,-0.0802795 -0.193846,-0.0802795 -0.0757087,0 -0.144248,0.0306811 -0.193846,0.0802795 -0.0495984,0.0495984 -0.0802795,0.118138 -0.0802795,0.193846 0,0.0757087 0.0306811,0.144248 0.0802795,0.193846 0.0495984,0.0495984 0.118138,0.0802795 0.193846,0.0802795 0.0757087,0 0.144248,-0.0306811 0.193846,-0.0802795 0.0495984,-0.0495984 0.0802795,-0.118138 0.0802795,-0.193846 0,-0.0757087 -0.0306811,-0.144248 -0.0802795,-0.193846z"/>
  <path class="fil1" d="M4.89719 1.35014c0.134594,0 0.256469,0.0545709 0.344681,0.142783 0.0882126,0.0882126 0.142783,0.210087 0.142783,0.344681 0,0.134594 -0.0545669,0.256461 -0.142783,0.344681 -0.0882126,0.0882126 -0.210087,0.142783 -0.344681,0.142783 -0.134594,0 -0.256461,-0.0545669 -0.344681,-0.142783 -0.0882165,-0.0882205 -0.142783,-0.210087 -0.142783,-0.344681 0,-0.134594 0.0545709,-0.256469 0.142783,-0.344681 0.0882205,-0.0882165 0.210087,-0.142783 0.344681,-0.142783z"/>
  <polygon class="fil1" points="4.89719,0.814795 4.84385,1.16643 4.95052,1.16643 "/>
  <polygon class="fil1" points="4.95052,2.50878 4.84385,2.50878 4.89719,2.86041 "/>
  <polygon class="fil1" points="4.17396,1.11437 4.38489,1.40072 4.46031,1.32531 "/>
  <polygon class="fil1" points="5.40948,2.27448 5.33407,2.3499 5.62042,2.56083 "/>
  <polygon class="fil1" points="3.87438,1.8376 4.22602,1.89094 4.22602,1.78427 "/>
  <polygon class="fil1" points="5.56836,1.78427 5.56836,1.89094 5.92,1.8376 "/>
  <polygon class="fil1" points="4.17396,2.56083 4.46031,2.3499 4.38489,2.27448 "/>
  <polygon class="fil1" points="5.33407,1.3253 5.40948,1.40072 5.62042,1.11437 "/>
  <g id="_276550824">
   <path id="_276543456" class="fil2" d="M0.853331 2.83143l0.0108386 0c0.0605276,0.0928071 0.165228,0.154161 0.284283,0.154161 0.119055,0 0.223756,-0.0613543 0.284272,-0.154161l0.0785512 0c0.0605276,0.0928071 0.165228,0.154161 0.284283,0.154161 0.119055,0 0.223756,-0.0613543 0.284283,-0.154161l0.0785394 0c0.0605157,0.0928071 0.165228,0.154161 0.284295,0.154161 0.119043,0 0.223744,-0.0613543 0.284272,-0.154161l0.0785512 0c0.0605157,0.0928071 0.165217,0.154161 0.284283,0.154161 0.119043,0 0.223744,-0.0613543 0.284272,-0.154161l0.0785512 0c0.0605157,0.0928071 0.165228,0.154161 0.284272,0.154161 0.119067,0 0.223756,-0.0613543 0.284272,-0.154161l0.0785748 0c0.0605157,0.0928071 0.165217,0.154161 0.28426,0.154161 0.119067,0 0.22378,-0.0613543 0.284295,-0.154161l0.0785394 0c0.0605276,0.0928071 0.165228,0.154161 0.284283,0.154161 0.119055,0 0.223756,-0.0613543 0.284283,-0.154161l0.078563 0c0.0605157,0.0928071 0.165205,0.154161 0.284272,0.154161 0.119043,0 0.223756,-0.0613543 0.284272,-0.154161l0.0108386 0 0 0.41639 0 0.416386 0 0.41639 0 0.416386 0 0.41639 0 0.416386 -0.0108386 0c-0.0605157,0.0928071 -0.165228,0.154161 -0.284272,0.154161 -0.119067,0 -0.223756,-0.0613543 -0.284272,-0.154161l-0.078563 0c-0.0605276,0.0928071 -0.165228,0.154161 -0.284283,0.154161 -0.119055,0 -0.223756,-0.0613543 -0.284283,-0.154161l-0.0785394 0c-0.0605157,0.0928071 -0.165228,0.154161 -0.284295,0.154161 -0.119043,0 -0.223744,-0.0613543 -0.28426,-0.154161l-0.0785748 0c-0.0605157,0.0928071 -0.165205,0.154161 -0.284272,0.154161 -0.119043,0 -0.223756,-0.0613543 -0.284272,-0.154161l-0.0785512 0c-0.0605276,0.0928071 -0.165228,0.154161 -0.284272,0.154161 -0.119067,0 -0.223768,-0.0613543 -0.284283,-0.154161l-0.0785512 0c-0.0605276,0.0928071 -0.165228,0.154161 -0.284272,0.154161 -0.119067,0 -0.22378,-0.0613543 -0.284295,-0.154161l-0.0785394 0c-0.0605276,0.0928071 -0.165228,0.154161 -0.284283,0.154161 -0.119055,0 -0.223756,-0.0613543 -0.284283,-0.154161l-0.0785512 0c-0.0605157,0.0928071 -0.165217,0.154161 -0.284272,0.154161 -0.119055,0 -0.223756,-0.0613543 -0.284283,-0.154161l-0.0108386 0 0 -0.416386 0 -0.41639 0 -0.416386 0 -0.41639 0 -0.416386 0 -0.41639z"/>
   <path id="_276550992" class="fil3" d="M0.853331 2.83143l0.0108386 0c0.0605276,0.0928071 0.165228,0.154161 0.284283,0.154161 0.119055,0 0.223756,-0.0613543 0.284272,-0.154161l0.0785512 0c0.0605276,0.0928071 0.165228,0.154161 0.284283,0.154161 0.119055,0 0.223756,-0.0613543 0.284283,-0.154161l0.0785394 0c0.0605157,0.0928071 0.165228,0.154161 0.284295,0.154161 0.119043,0 0.223744,-0.0613543 0.284272,-0.154161l0.0785512 0c0.0605157,0.0928071 0.165217,0.154161 0.284283,0.154161 0.119043,0 0.223744,-0.0613543 0.284272,-0.154161l0.0785512 0c0.0605157,0.0928071 0.165228,0.154161 0.284272,0.154161 0.119067,0 0.223756,-0.0613543 0.284272,-0.154161l0.0785748 0c0.0605157,0.0928071 0.165217,0.154161 0.28426,0.154161 0.119067,0 0.22378,-0.0613543 0.284295,-0.154161l0.0785394 0c0.0605276,0.0928071 0.165228,0.154161 0.284283,0.154161 0.119055,0 0.223756,-0.0613543 0.284283,-0.154161l0.078563 0c0.0605157,0.0928071 0.165205,0.154161 0.284272,0.154161 0.119043,0 0.223756,-0.0613543 0.284272,-0.154161l0.0108386 0 0 0.41639 -0.0108386 0c-0.0605157,0.0928031 -0.165228,0.154157 -0.284272,0.154157 -0.119067,0 -0.223756,-0.0613543 -0.284272,-0.154157l-0.078563 0c-0.0605276,0.0928031 -0.165228,0.154157 -0.284283,0.154157 -0.119055,0 -0.223756,-0.0613543 -0.284283,-0.154157l-0.0785394 0c-0.0605157,0.0928031 -0.165228,0.154157 -0.284295,0.154157 -0.119043,0 -0.223744,-0.0613543 -0.28426,-0.154157l-0.0785748 0c-0.0605157,0.0928031 -0.165205,0.154157 -0.284272,0.154157 -0.119043,0 -0.223756,-0.0613543 -0.284272,-0.154157l-0.0785512 0c-0.0605276,0.0928031 -0.165228,0.154157 -0.284272,0.154157 -0.119067,0 -0.223768,-0.0613543 -0.284283,-0.154157l-0.0785512 0c-0.0605276,0.0928031 -0.165228,0.154157 -0.284272,0.154157 -0.119067,0 -0.22378,-0.0613543 -0.284295,-0.154157l-0.0785394 0c-0.0605276,0.0928031 -0.165228,0.154157 -0.284283,0.154157 -0.119055,0 -0.223756,-0.0613543 -0.284283,-0.154157l-0.0785512 0c-0.0605157,0.0928031 -0.165217,0.154157 -0.284272,0.154157 -0.119055,0 -0.223756,-0.0613543 -0.284283,-0.154157l-0.0108386 0 0 -0.41639z"/>
   <path id="_276551184" class="fil4" d="M0.853331 3.24781l0.0108386 0c0.0605276,0.0928031 0.165228,0.154157 0.284283,0.154157 0.119055,0 0.223756,-0.0613543 0.284272,-0.154157l0.0785512 0c0.0605276,0.0928031 0.165228,0.154157 0.284283,0.154157 0.119055,0 0.223756,-0.0613543 0.284283,-0.154157l0.0785394 0c0.0605157,0.0928031 0.165228,0.154157 0.284295,0.154157 0.119043,0 0.223744,-0.0613543 0.284272,-0.154157l0.0785512 0c0.0605157,0.0928031 0.165217,0.154157 0.284283,0.154157 0.119043,0 0.223744,-0.0613543 0.284272,-0.154157l0.0785512 0c0.0605157,0.0928031 0.165228,0.154157 0.284272,0.154157 0.119067,0 0.223756,-0.0613543 0.284272,-0.154157l0.0785748 0c0.0605157,0.0928031 0.165217,0.154157 0.28426,0.154157 0.119067,0 0.22378,-0.0613543 0.284295,-0.154157l0.0785394 0c0.0605276,0.0928031 0.165228,0.154157 0.284283,0.154157 0.119055,0 0.223756,-0.0613543 0.284283,-0.154157l0.078563 0c0.0605157,0.0928031 0.165205,0.154157 0.284272,0.154157 0.119043,0 0.223756,-0.0613543 0.284272,-0.154157l0.0108386 0 0 0.416386 -0.0108386 0c-0.0605157,0.0928071 -0.165228,0.154161 -0.284272,0.154161 -0.119067,0 -0.223756,-0.0613543 -0.284272,-0.154161l-0.078563 0c-0.0605276,0.0928071 -0.165228,0.154161 -0.284283,0.154161 -0.119055,0 -0.223756,-0.0613543 -0.284283,-0.154161l-0.0785394 0c-0.0605157,0.0928071 -0.165228,0.154161 -0.284295,0.154161 -0.119043,0 -0.223744,-0.0613543 -0.28426,-0.154161l-0.0785748 0c-0.0605157,0.0928071 -0.165205,0.154161 -0.284272,0.154161 -0.119043,0 -0.223756,-0.0613543 -0.284272,-0.154161l-0.0785512 0c-0.0605276,0.0928071 -0.165228,0.154161 -0.284272,0.154161 -0.119067,0 -0.223768,-0.0613543 -0.284283,-0.154161l-0.0785512 0c-0.0605276,0.0928071 -0.165228,0.154161 -0.284272,0.154161 -0.119067,0 -0.22378,-0.0613543 -0.284295,-0.154161l-0.0785394 0c-0.0605276,0.0928071 -0.165228,0.154161 -0.284283,0.154161 -0.119055,0 -0.223756,-0.0613543 -0.284283,-0.154161l-0.0785512 0c-0.0605157,0.0928071 -0.165217,0.154161 -0.284272,0.154161 -0.119055,0 -0.223756,-0.0613543 -0.284283,-0.154161l-0.0108386 0 0 -0.416386z"/>
   <path id="_276551112" class="fil5" d="M0.853331 3.6642l0.0108386 0c0.0605276,0.0928071 0.165228,0.154161 0.284283,0.154161 0.119055,0 0.223756,-0.0613543 0.284272,-0.154161l0.0785512 0c0.0605276,0.0928071 0.165228,0.154161 0.284283,0.154161 0.119055,0 0.223756,-0.0613543 0.284283,-0.154161l0.0785394 0c0.0605157,0.0928071 0.165228,0.154161 0.284295,0.154161 0.119043,0 0.223744,-0.0613543 0.284272,-0.154161l0.0785512 0c0.0605157,0.0928071 0.165217,0.154161 0.284283,0.154161 0.119043,0 0.223744,-0.0613543 0.284272,-0.154161l0.0785512 0c0.0605157,0.0928071 0.165228,0.154161 0.284272,0.154161 0.119067,0 0.223756,-0.0613543 0.284272,-0.154161l0.0785748 0c0.0605157,0.0928071 0.165217,0.154161 0.28426,0.154161 0.119067,0 0.22378,-0.0613543 0.284295,-0.154161l0.0785394 0c0.0605276,0.0928071 0.165228,0.154161 0.284283,0.154161 0.119055,0 0.223756,-0.0613543 0.284283,-0.154161l0.078563 0c0.0605157,0.0928071 0.165205,0.154161 0.284272,0.154161 0.119043,0 0.223756,-0.0613543 0.284272,-0.154161l0.0108386 0 0 0.41639 -0.0108386 0c-0.0605157,0.0928071 -0.165228,0.154157 -0.284272,0.154157 -0.119067,0 -0.223756,-0.0613504 -0.284272,-0.154157l-0.078563 0c-0.0605276,0.0928071 -0.165228,0.154157 -0.284283,0.154157 -0.119055,0 -0.223756,-0.0613504 -0.284283,-0.154157l-0.0785394 0c-0.0605157,0.0928071 -0.165228,0.154157 -0.284295,0.154157 -0.119043,0 -0.223744,-0.0613504 -0.28426,-0.154157l-0.0785748 0c-0.0605157,0.0928071 -0.165205,0.154157 -0.284272,0.154157 -0.119043,0 -0.223756,-0.0613504 -0.284272,-0.154157l-0.0785512 0c-0.0605276,0.0928071 -0.165228,0.154157 -0.284272,0.154157 -0.119067,0 -0.223768,-0.0613504 -0.284283,-0.154157l-0.0785512 0c-0.0605276,0.0928071 -0.165228,0.154157 -0.284272,0.154157 -0.119067,0 -0.22378,-0.0613504 -0.284295,-0.154157l-0.0785394 0c-0.0605276,0.0928071 -0.165228,0.154157 -0.284283,0.154157 -0.119055,0 -0.223756,-0.0613504 -0.284283,-0.154157l-0.0785512 0c-0.0605157,0.0928071 -0.165217,0.154157 -0.284272,0.154157 -0.119055,0 -0.223756,-0.0613504 -0.284283,-0.154157l-0.0108386 0 0 -0.41639z"/>
   <path id="_276550320" class="fil6" d="M0.853331 4.08059l0.0108386 0c0.0605276,0.0928071 0.165228,0.154157 0.284283,0.154157 0.119055,0 0.223756,-0.0613504 0.284272,-0.154157l0.0785512 0c0.0605276,0.0928071 0.165228,0.154157 0.284283,0.154157 0.119055,0 0.223756,-0.0613504 0.284283,-0.154157l0.0785394 0c0.0605157,0.0928071 0.165228,0.154157 0.284295,0.154157 0.119043,0 0.223744,-0.0613504 0.284272,-0.154157l0.0785512 0c0.0605157,0.0928071 0.165217,0.154157 0.284283,0.154157 0.119043,0 0.223744,-0.0613504 0.284272,-0.154157l0.0785512 0c0.0605157,0.0928071 0.165228,0.154157 0.284272,0.154157 0.119067,0 0.223756,-0.0613504 0.284272,-0.154157l0.0785748 0c0.0605157,0.0928071 0.165217,0.154157 0.28426,0.154157 0.119067,0 0.22378,-0.0613504 0.284295,-0.154157l0.0785394 0c0.0605276,0.0928071 0.165228,0.154157 0.284283,0.154157 0.119055,0 0.223756,-0.0613504 0.284283,-0.154157l0.078563 0c0.0605157,0.0928071 0.165205,0.154157 0.284272,0.154157 0.119043,0 0.223756,-0.0613504 0.284272,-0.154157l0.0108386 0 0 0.416386 -0.0108386 0c-0.0605157,0.0928071 -0.165228,0.154161 -0.284272,0.154161 -0.119067,0 -0.223756,-0.0613543 -0.284272,-0.154161l-0.078563 0c-0.0605276,0.0928071 -0.165228,0.154161 -0.284283,0.154161 -0.119055,0 -0.223756,-0.0613543 -0.284283,-0.154161l-0.0785394 0c-0.0605157,0.0928071 -0.165228,0.154161 -0.284295,0.154161 -0.119043,0 -0.223744,-0.0613543 -0.28426,-0.154161l-0.0785748 0c-0.0605157,0.0928071 -0.165205,0.154161 -0.284272,0.154161 -0.119043,0 -0.223756,-0.0613543 -0.284272,-0.154161l-0.0785512 0c-0.0605276,0.0928071 -0.165228,0.154161 -0.284272,0.154161 -0.119067,0 -0.223768,-0.0613543 -0.284283,-0.154161l-0.0785512 0c-0.0605276,0.0928071 -0.165228,0.154161 -0.284272,0.154161 -0.119067,0 -0.22378,-0.0613543 -0.284295,-0.154161l-0.0785394 0c-0.0605276,0.0928071 -0.165228,0.154161 -0.284283,0.154161 -0.119055,0 -0.223756,-0.0613543 -0.284283,-0.154161l-0.0785512 0c-0.0605157,0.0928071 -0.165217,0.154161 -0.284272,0.154161 -0.119055,0 -0.223756,-0.0613543 -0.284283,-0.154161l-0.0108386 0 0 -0.416386z"/>
   <path id="_276550416" class="fil7" d="M0.853331 4.49698l0.0108386 0c0.0605276,0.0928071 0.165228,0.154161 0.284283,0.154161 0.119055,0 0.223756,-0.0613543 0.284272,-0.154161l0.0785512 0c0.0605276,0.0928071 0.165228,0.154161 0.284283,0.154161 0.119055,0 0.223756,-0.0613543 0.284283,-0.154161l0.0785394 0c0.0605157,0.0928071 0.165228,0.154161 0.284295,0.154161 0.119043,0 0.223744,-0.0613543 0.284272,-0.154161l0.0785512 0c0.0605157,0.0928071 0.165217,0.154161 0.284283,0.154161 0.119043,0 0.223744,-0.0613543 0.284272,-0.154161l0.0785512 0c0.0605157,0.0928071 0.165228,0.154161 0.284272,0.154161 0.119067,0 0.223756,-0.0613543 0.284272,-0.154161l0.0785748 0c0.0605157,0.0928071 0.165217,0.154161 0.28426,0.154161 0.119067,0 0.22378,-0.0613543 0.284295,-0.154161l0.0785394 0c0.0605276,0.0928071 0.165228,0.154161 0.284283,0.154161 0.119055,0 0.223756,-0.0613543 0.284283,-0.154161l0.078563 0c0.0605157,0.0928071 0.165205,0.154161 0.284272,0.154161 0.119043,0 0.223756,-0.0613543 0.284272,-0.154161l0.0108386 0 0 0.41639 -0.0108386 0c-0.0605157,0.0928071 -0.165228,0.154157 -0.284272,0.154157 -0.119067,0 -0.223756,-0.0613504 -0.284272,-0.154157l-0.078563 0c-0.0605276,0.0928071 -0.165228,0.154157 -0.284283,0.154157 -0.119055,0 -0.223756,-0.0613504 -0.284283,-0.154157l-0.0785394 0c-0.0605157,0.0928071 -0.165228,0.154157 -0.284295,0.154157 -0.119043,0 -0.223744,-0.0613504 -0.28426,-0.154157l-0.0785748 0c-0.0605157,0.0928071 -0.165205,0.154157 -0.284272,0.154157 -0.119043,0 -0.223756,-0.0613504 -0.284272,-0.154157l-0.0785512 0c-0.0605276,0.0928071 -0.165228,0.154157 -0.284272,0.154157 -0.119067,0 -0.223768,-0.0613504 -0.284283,-0.154157l-0.0785512 0c-0.0605276,0.0928071 -0.165228,0.154157 -0.284272,0.154157 -0.119067,0 -0.22378,-0.0613504 -0.284295,-0.154157l-0.0785394 0c-0.0605276,0.0928071 -0.165228,0.154157 -0.284283,0.154157 -0.119055,0 -0.223756,-0.0613504 -0.284283,-0.154157l-0.0785512 0c-0.0605157,0.0928071 -0.165217,0.154157 -0.284272,0.154157 -0.119055,0 -0.223756,-0.0613504 -0.284283,-0.154157l-0.0108386 0 0 -0.41639z"/>
   <path id="_276550200" class="fil8" d="M0.853331 4.91337l0.0108386 0c0.0605276,0.0928071 0.165228,0.154157 0.284283,0.154157 0.119055,0 0.223756,-0.0613504 0.284272,-0.154157l0.0785512 0c0.0605276,0.0928071 0.165228,0.154157 0.284283,0.154157 0.119055,0 0.223756,-0.0613504 0.284283,-0.154157l0.0785394 0c0.0605157,0.0928071 0.165228,0.154157 0.284295,0.154157 0.119043,0 0.223744,-0.0613504 0.284272,-0.154157l0.0785512 0c0.0605157,0.0928071 0.165217,0.154157 0.284283,0.154157 0.119043,0 0.223744,-0.0613504 0.284272,-0.154157l0.0785512 0c0.0605157,0.0928071 0.165228,0.154157 0.284272,0.154157 0.119067,0 0.223756,-0.0613504 0.284272,-0.154157l0.0785748 0c0.0605157,0.0928071 0.165217,0.154157 0.28426,0.154157 0.119067,0 0.22378,-0.0613504 0.284295,-0.154157l0.0785394 0c0.0605276,0.0928071 0.165228,0.154157 0.284283,0.154157 0.119055,0 0.223756,-0.0613504 0.284283,-0.154157l0.078563 0c0.0605157,0.0928071 0.165205,0.154157 0.284272,0.154157 0.119043,0 0.223756,-0.0613504 0.284272,-0.154157l0.0108386 0 0 0.416386 -0.0108386 0c-0.0605157,0.0928071 -0.165228,0.154161 -0.284272,0.154161 -0.119067,0 -0.223756,-0.0613543 -0.284272,-0.154161l-0.078563 0c-0.0605276,0.0928071 -0.165228,0.154161 -0.284283,0.154161 -0.119055,0 -0.223756,-0.0613543 -0.284283,-0.154161l-0.0785394 0c-0.0605157,0.0928071 -0.165228,0.154161 -0.284295,0.154161 -0.119043,0 -0.223744,-0.0613543 -0.28426,-0.154161l-0.0785748 0c-0.0605157,0.0928071 -0.165205,0.154161 -0.284272,0.154161 -0.119043,0 -0.223756,-0.0613543 -0.284272,-0.154161l-0.0785512 0c-0.0605276,0.0928071 -0.165228,0.154161 -0.284272,0.154161 -0.119067,0 -0.223768,-0.0613543 -0.284283,-0.154161l-0.0785512 0c-0.0605276,0.0928071 -0.165228,0.154161 -0.284272,0.154161 -0.119067,0 -0.22378,-0.0613543 -0.284295,-0.154161l-0.0785394 0c-0.0605276,0.0928071 -0.165228,0.154161 -0.284283,0.154161 -0.119055,0 -0.223756,-0.0613543 -0.284283,-0.154161l-0.0785512 0c-0.0605157,0.0928071 -0.165217,0.154161 -0.284272,0.154161 -0.119055,0 -0.223756,-0.0613543 -0.284283,-0.154161l-0.0108386 0 0 -0.416386z"/>
  </g>
  <g id="_276549792">
   <path id="_276550296" class="fil9" d="M3.36253 1.85132c0,0 -0.196673,-0.343685 -0.685638,0.0420315 -0.230602,-0.578524 -0.572768,-0.37922 -0.572768,-0.37922 0.314799,-0.275492 0.622787,0.192543 0.622787,0.192543 0,0 0.500744,-0.251339 0.635618,0.144646z"/>
   <polygon id="_276549936" class="fil9" points="2.80096,1.92298 2.80025,1.92339 2.56802,1.86117 2.56761,1.86046 2.71555,1.77505 "/>
  </g>
  <g id="_276549672">
   <path id="_276550008" class="fil9" d="M1.73918 1.64124c0,0 -0.138445,-0.241933 -0.48265,0.0295866 -0.162331,-0.407248 -0.403197,-0.266949 -0.403197,-0.266949 0.221602,-0.193929 0.438406,0.135539 0.438406,0.135539 0,0 0.352496,-0.176925 0.447441,0.101823z"/>
   <polygon id="_276549360" class="fil9" points="1.34386,1.69169 1.34336,1.69198 1.17989,1.64818 1.1796,1.64768 1.28374,1.58756 "/>
  </g>
 </g>
 <rect class="fil10" width="6.82666" height="6.82666"/>
</svg>
