<?xml version="1.0" encoding="UTF-8"?>
<!DOCTYPE svg PUBLIC "-//W3C//DTD SVG 1.1//EN" "http://www.w3.org/Graphics/SVG/1.1/DTD/svg11.dtd">
<!-- Creator: CorelDRAW -->
<svg xmlns="http://www.w3.org/2000/svg" xml:space="preserve" width="6.82666in" height="6.82666in" style="shape-rendering:geometricPrecision; text-rendering:geometricPrecision; image-rendering:optimizeQuality; fill-rule:evenodd; clip-rule:evenodd"
viewBox="0 0 6.82666 6.82666"
 xmlns:xlink="http://www.w3.org/1999/xlink">
 <defs>
  <style type="text/css">
   <![CDATA[
    .fil2 {fill:none}
    .fil1 {fill:#E2AD29;fill-rule:nonzero}
    .fil0 {fill:#FBC02D;fill-rule:nonzero}
   ]]>
  </style>
 </defs>
 <g id="Layer_x0020_1">
  <metadata id="CorelCorpID_0Corel-Layer"/>
  <g id="_276544560">
   <g>
    <g>
     <path id="_276546216" class="fil0" d="M4.80611 3.79326l0.939126 1.62661 0.000448819 0.000751969c0.0305197,0.0528661 0.0124055,0.120476 -0.0404606,0.151l-3.93701e-006 -1.1811e-005 -0.669339 0.386441 -0.000755906 0.000448819c-0.0528661,0.0305236 -0.120472,0.0124094 -0.150996,-0.0404567l1.1811e-005 -7.87402e-006 -0.938622 -1.62574c-0.00988976,-0.0164291 -0.0156299,-0.0356457 -0.0157559,-0.0562126l0.110531 -0.000681102 -0.110087 0.000452756 -0.0049252 -0.793878c-0.00225591,-0.0232205 0.00278346,-0.0473346 0.0159921,-0.0687126 0.0320866,-0.0519331 0.100205,-0.0680157 0.152138,-0.0359291l-8.26772e-005 0.000129921 0.669957 0.41398c0.0172835,0.00939764 0.0322795,0.0235236 0.0428346,0.0418031l-1.1811e-005 7.87402e-006z"/>
     <path id="_276545760" class="fil0" d="M3.94802 3.52286c0.0305197,0.0528622 0.098122,0.0709724 0.150984,0.0404528 0.0528583,-0.0305157 0.0709724,-0.0981181 0.0404528,-0.15098l-1.38171 -2.39319c-0.0305197,-0.0528622 -0.098122,-0.0709764 -0.15098,-0.0404567 -0.0528622,0.0305197 -0.0709764,0.098122 -0.0404567,0.15098l1.38171 2.39319z"/>
     <path id="_276545736" class="fil0" d="M2.90875 1.05959c0.0528622,-0.0305197 0.0709764,-0.098122 0.0404567,-0.15098 -0.0305197,-0.0528622 -0.098122,-0.0709764 -0.150984,-0.0404567l-0.382909 0.221075c-0.0528622,0.0305197 -0.0709764,0.098122 -0.0404567,0.15098 0.0305197,0.0528622 0.098122,0.0709764 0.15098,0.0404567l0.382913 -0.221075z"/>
    </g>
    <g>
     <path id="_276546144" class="fil1" d="M4.80612 3.79326l0.939122 1.62661 0.000448819 0.000755906c0.0305236,0.0528622 0.0124055,0.120472 -0.0404606,0.150996l-7.87402e-006 -1.1811e-005 -0.335051 0.193441 -1.39924 -2.42356c0.0351575,-0.0251654 0.0834094,-0.0282992 0.122492,-0.00415354l-8.26772e-005 0.000129921 0.669961 0.41398c0.0172795,0.0093937 0.0322756,0.0235197 0.0428307,0.0418031l-7.87402e-006 7.87402e-006z"/>
     <path id="_276545592" class="fil1" d="M4.099 3.56332l3.93701e-006 0c0.0528583,-0.0305197 0.0709724,-0.098122 0.0404528,-0.150984l-1.38171 -2.39319c-0.0305197,-0.0528622 -0.098122,-0.0709764 -0.15098,-0.0404567l-3.93701e-006 3.93701e-006 1.49224 2.58463z"/>
     <path id="_276545568" class="fil1" d="M2.90875 1.05959c0.0528622,-0.0305197 0.0709764,-0.098122 0.0404567,-0.150984 -0.0305197,-0.0528622 -0.098122,-0.0709724 -0.15098,-0.0404528l-0.191461 0.110539 0.110524 0.191437 0.191461 -0.110539z"/>
    </g>
   </g>
   <g>
    <g>
     <path id="_276545232" class="fil0" d="M2.02055 3.79326l-0.939126 1.62661 -0.000448819 0.000751969c-0.0305236,0.0528661 -0.0124055,0.120476 0.0404606,0.151l3.93701e-006 -1.1811e-005 0.669339 0.386441 0.000755906 0.000448819c0.0528661,0.0305236 0.120472,0.0124094 0.150996,-0.0404567l-1.1811e-005 -7.87402e-006 0.938622 -1.62574c0.00988976,-0.0164291 0.0156299,-0.0356457 0.0157559,-0.0562126l-0.110531 -0.000681102 0.110087 0.000452756 0.0049252 -0.793878c0.00225591,-0.0232205 -0.00278346,-0.0473346 -0.0159921,-0.0687126 -0.0320866,-0.0519331 -0.100205,-0.0680157 -0.152138,-0.0359291l8.26772e-005 0.000129921 -0.669957 0.41398c-0.0172835,0.00939764 -0.0322795,0.0235236 -0.0428346,0.0418031l1.1811e-005 7.87402e-006z"/>
     <path id="_276545304" class="fil0" d="M2.87865 3.52286c-0.0305197,0.0528622 -0.098122,0.0709724 -0.150984,0.0404528 -0.0528583,-0.0305157 -0.0709724,-0.0981181 -0.0404528,-0.15098l1.38171 -2.39319c0.0305197,-0.0528622 0.0981181,-0.0709764 0.15098,-0.0404567 0.0528622,0.0305197 0.0709764,0.098122 0.0404567,0.15098l-1.38171 2.39319z"/>
     <path id="_276545376" class="fil0" d="M3.91791 1.05959c-0.0528622,-0.0305197 -0.0709764,-0.098122 -0.0404567,-0.15098 0.0305197,-0.0528622 0.098122,-0.0709764 0.15098,-0.0404567l0.382913 0.221075c0.0528622,0.0305197 0.0709764,0.098122 0.0404567,0.15098 -0.0305197,0.0528622 -0.098122,0.0709764 -0.15098,0.0404567l-0.382913 -0.221075z"/>
    </g>
    <g>
     <path id="_276545184" class="fil1" d="M2.02055 3.79326l-0.939122 1.62661 -0.000448819 0.000755906c-0.0305236,0.0528622 -0.0124055,0.120472 0.0404606,0.150996l7.87402e-006 -1.1811e-005 0.335051 0.193441 1.39924 -2.42356c-0.0351575,-0.0251654 -0.0834094,-0.0282992 -0.122492,-0.00415354l8.26772e-005 0.000129921 -0.669961 0.41398c-0.0172795,0.0093937 -0.0322756,0.0235197 -0.0428307,0.0418031l7.87402e-006 7.87402e-006z"/>
     <path id="_276545352" class="fil1" d="M2.72767 3.56332l-3.93701e-006 0c-0.0528583,-0.0305197 -0.0709724,-0.098122 -0.0404528,-0.150984l1.38171 -2.39319c0.0305197,-0.0528622 0.098122,-0.0709764 0.15098,-0.0404567l3.93701e-006 3.93701e-006 -1.49224 2.58463z"/>
     <path id="_276545208" class="fil1" d="M3.91791 1.05959c-0.0528622,-0.0305197 -0.0709764,-0.098122 -0.0404567,-0.150984 0.0305197,-0.0528622 0.098122,-0.0709724 0.15098,-0.0404528l0.191461 0.110539 -0.110524 0.191437 -0.191461 -0.110539z"/>
    </g>
   </g>
  </g>
 </g>
 <rect class="fil2" width="6.82666" height="6.82666"/>
</svg>
