<?xml version="1.0" encoding="UTF-8"?>
<!DOCTYPE svg PUBLIC "-//W3C//DTD SVG 1.1//EN" "http://www.w3.org/Graphics/SVG/1.1/DTD/svg11.dtd">
<!-- Creator: CorelDRAW -->
<svg xmlns="http://www.w3.org/2000/svg" xml:space="preserve" width="6.82666in" height="6.82666in" style="shape-rendering:geometricPrecision; text-rendering:geometricPrecision; image-rendering:optimizeQuality; fill-rule:evenodd; clip-rule:evenodd"
viewBox="0 0 6.82666 6.82666"
 xmlns:xlink="http://www.w3.org/1999/xlink">
 <defs>
  <style type="text/css">
   <![CDATA[
    .fil7 {fill:none}
    .fil5 {fill:#4FC3F7}
    .fil4 {fill:#81D4FA}
    .fil6 {fill:#F9A825}
    .fil3 {fill:#901D1D;fill-rule:nonzero}
    .fil0 {fill:#B22424;fill-rule:nonzero}
    .fil1 {fill:#C62828;fill-rule:nonzero}
    .fil2 {fill:#F8BBD0;fill-rule:nonzero}
   ]]>
  </style>
 </defs>
 <g id="Layer_x0020_1">
  <metadata id="CorelCorpID_0Corel-Layer"/>
  <path class="fil0" d="M2.34667 2.51404c-0.0589094,0 -0.106669,0.454232 -0.106669,1.0145 0,0.560268 0.0477598,1.0145 0.106669,1.0145l0.749622 0 0 -1.00681 0.527421 0 0 1.00681 0.749626 0c0.0589094,0 0.106669,-0.454232 0.106669,-1.0145 0,-0.560272 -0.0477598,-1.0145 -0.106669,-1.0145l-2.02667 0z"/>
  <g id="_276544752">
   <path id="_330266016" class="fil1" d="M4.54902 1.6171l1.0353 0c0.0584764,0 0.105957,0.0470591 0.106654,0.10537l0.187815 2.71196 0.000181102 -1.1811e-005c0.00406693,0.0587677 -0.0402756,0.109717 -0.0990433,0.113783 -0.00247244,0.000169291 -0.00492913,0.000248031 -0.00737008,0.000251969l0 3.93701e-006 -0.000838583 0 -1.41093 0c-0.0589094,0 -0.106669,-0.0477598 -0.106669,-0.106669 0,-0.00464961 0.00030315,-0.00922835 0.000877953,-0.0137205l0.187776 -2.71138 0.106252 0.00708268 -0.106413 -0.00737008c0.00389764,-0.0562953 0.050811,-0.0993465 0.106413,-0.0992953l0 -3.93701e-006z"/>
   <g>
    <path id="_330266520" class="fil2" d="M5.8729 4.34944l0.00184646 0.0266693 -0.0686693 0 -0.2 0 0 0.172346 -0.0266693 0 0 -0.172346 -0.2 0 -0.2 0 0 0.172346 -0.0266693 0 0 -0.172346 -0.2 0 -0.2 0 0 0.172346 -0.0266693 0 0 -0.172346 -0.2 0 -0.2 0 0 0.166563c-0.00957874,-0.00329528 -0.0185394,-0.00791732 -0.0266693,-0.0136457l0 -0.152917 -0.0408071 0 0.00184646 -0.0266693 0.0522953 0 0.213335 0 0.213335 0 0.213335 0 0.213335 0 0.213335 0 0.213335 0 0.213335 0 0.0668228 0z"/>
    <path id="_330266448" class="fil2" d="M5.85812 4.13611l0.00185039 0.0266693 -0.0259646 0 0 0.186665 0.0388898 0 0.00184646 0.0266693 -0.0540709 0 -0.213335 0 -0.213335 0 -0.213335 0 -0.213335 0 -0.213335 0 -0.213335 0 -0.213335 0 -0.0687402 0 0.00184646 -0.0266693 0.0668937 0 0.2 0 0 -0.186665 -0.2 0 -0.0539646 0 0.00184646 -0.0266693 0.0521181 0 0.213335 0 0.213335 0 0.213335 0 0.213335 0 0.213335 0 0.213335 0 0.213335 0 0.0374488 0zm-0.450783 0.0266693l0 0.186665 0.2 0 0.2 0 0 -0.186665 -0.2 0 -0.2 0zm-0.426669 0l0 0.186665 0.2 0 0.2 0 0 -0.186665 -0.2 0 -0.2 0zm-0.426669 0l0 0.186665 0.2 0 0.2 0 0 -0.186665 -0.2 0 -0.2 0z"/>
    <path id="_330266256" class="fil2" d="M5.84335 3.92277l0.00184646 0.0266693 -0.039122 0 -0.2 0 0 0.186665 0.2 0 0.0520472 0 0.00185039 0.0266693 -0.0538976 0 -0.213335 0 -0.213335 0 -0.213335 0 -0.213335 0 -0.213335 0 -0.213335 0 -0.213335 0 -0.0393661 0 0.00184646 -0.0266693 0.024185 0 0 -0.186665 -0.0112598 0 0.00184646 -0.0266693 0.022748 0 0.213335 0 0.213335 0 0.213335 0 0.213335 0 0.213335 0 0.213335 0 0.213335 0 0.0372756 0zm-0.663945 0.0266693l0 0.186665 0.2 0 0.2 0 0 -0.186665 -0.2 0 -0.2 0zm-0.426669 0l0 0.186665 0.2 0 0.2 0 0 -0.186665 -0.2 0 -0.2 0zm-0.426669 0l0 0.186665 0.2 0 0.2 0 0 -0.186665 -0.2 0 -0.2 0z"/>
    <path id="_330266712" class="fil2" d="M5.82857 3.70944l0.00413386 0.059689 0 0.153646 0.0106417 0 0.00184646 0.0266693 -0.0258228 0 -0.213335 0 -0.213335 0 -0.213335 0 -0.213335 0 -0.213335 0 -0.213335 0 -0.213335 0 -0.0378937 0 0.00184646 -0.0266693 0.0360472 0 0.2 0 0 -0.186665 -0.2 0 -0.0231181 0 0.00184646 -0.0266693 0.0212717 0 0.213335 0 0.213335 0 0.213335 0 0.213335 0 0.213335 0 0.213335 0 0.213335 0 0.00920079 0zm-0.422535 0.0266693l0 0.186665 0.2 0 0.2 0 0 -0.186665 -0.2 0 -0.2 0zm-0.426669 0l0 0.186665 0.2 0 0.2 0 0 -0.186665 -0.2 0 -0.2 0zm-0.426669 0l0 0.186665 0.2 0 0.2 0 0 -0.186665 -0.2 0 -0.2 0z"/>
    <path id="_330265488" class="fil2" d="M5.8138 3.4961l0.00184646 0.0266693 -0.00957087 0 -0.2 0 0 0.186665 0.2 0 0.0225 0 0.00184646 0.0266693 -0.0243465 0 -0.213335 0 -0.213335 0 -0.213335 0 -0.213335 0 -0.213335 0 -0.213335 0 -0.213335 0 -0.0098189 0 0.016622 -0.240004 0.206531 0 0.213335 0 0.213335 0 0.213335 0 0.213335 0 0.213335 0 0.213335 0 0.00772441 0zm-0.634394 0.0266693l0 0.186665 0.2 0 0.2 0 0 -0.186665 -0.2 0 -0.2 0zm-0.426669 0l0 0.186665 0.2 0 0.2 0 0 -0.186665 -0.2 0 -0.2 0zm-0.426669 0l0 0.186665 0.2 0 0.2 0 0 -0.186665 -0.2 0 -0.2 0z"/>
    <path id="_330265344" class="fil2" d="M5.79903 3.28277l0.00184646 0.0266693 -0.193535 0 -0.2 0 0 0.186665 0.2 0 0.2 0 0 -0.093311 0.00831102 0.11998 -0.208311 0 -0.213335 0 -0.213335 0 -0.213335 0 -0.213335 0 -0.213335 0 -0.213335 0 -0.00964173 0 0.00184646 -0.0266693 0.00779528 0 0.2 0 0 -0.186665 -0.19487 0 0.00184646 -0.0266693 0.206358 0 0.213335 0 0.213335 0 0.213335 0 0.213335 0 0.213335 0 0.191689 0zm-0.818358 0.0266693l0 0.186665 0.2 0 0.2 0 0 -0.186665 -0.2 0 -0.2 0zm-0.426669 0l0 0.186665 0.2 0 0.2 0 0 -0.186665 -0.2 0 -0.2 0z"/>
    <path id="_330265824" class="fil2" d="M5.78425 3.06944l0.00184646 0.0266693 -0.180024 0 0 0.186665 0.192953 0 0.00184646 0.0266693 -0.208134 0 -0.213335 0 -0.213335 0 -0.213335 0 -0.213335 0 -0.213335 0 -0.193606 0 0.00184646 -0.0266693 0.19176 0 0.2 0 0 -0.186665 -0.2 0 -0.178831 0 0.00184646 -0.0266693 0.176984 0 0.213335 0 0.213335 0 0.213335 0 0.213335 0 0.213335 0 0.191512 0zm-0.604846 0.0266693l0 0.186665 0.2 0 0.2 0 0 -0.186665 -0.2 0 -0.2 0zm-0.426669 0l0 0.186665 0.2 0 0.2 0 0 -0.186665 -0.2 0 -0.2 0z"/>
    <path id="_330265512" class="fil2" d="M5.76948 2.85611l0.00185039 0.0266693 -0.165287 0 -0.2 0 0 0.186665 0.2 0 0.178213 0 0.00184646 0.0266693 -0.180059 0 -0.213335 0 -0.213335 0 -0.213335 0 -0.213335 0 -0.213335 0 -0.19213 0 0.00184646 -0.0266693 0.176949 0 0 -0.186665 -0.16402 0 0.00184646 -0.0266693 0.175508 0 0.213335 0 0.213335 0 0.213335 0 0.213335 0 0.213335 0 0.163437 0zm-0.790106 0.0266693l0 0.186665 0.2 0 0.2 0 0 -0.186665 -0.2 0 -0.2 0zm-0.426669 0l0 0.186665 0.2 0 0.2 0 0 -0.186665 -0.2 0 -0.2 0z"/>
    <path id="_330265848" class="fil2" d="M5.7547 2.64277l0.00184646 0.0266693 -0.150476 0 0 0.186665 0.163402 0 0.00185039 0.0266693 -0.178587 0 -0.213335 0 -0.213335 0 -0.213335 0 -0.213335 0 -0.213335 0 -0.164055 0 0.00184646 -0.0266693 0.162209 0 0.2 0 0 -0.186665 -0.2 0 -0.149283 0 0.00185039 -0.0266693 0.147433 0 0.213335 0 0.213335 0 0.213335 0 0.213335 0 0.213335 0 0.161965 0zm-0.575299 0.0266693l0 0.186665 0.2 0 0.2 0 0 -0.186665 -0.2 0 -0.2 0zm-0.426669 0l0 0.186665 0.2 0 0.2 0 0 -0.186665 -0.2 0 -0.2 0z"/>
    <path id="_330264480" class="fil2" d="M5.73993 2.42944l0.00184646 0.0266693 -0.134437 0 -0.2 0 0 0.186665 0.2 0 0.147366 0 0.00184646 0.0266693 -0.149213 0 -0.213335 0 -0.213335 0 -0.213335 0 -0.213335 0 -0.213335 0 -0.163882 0 0.00184646 -0.0266693 0.148701 0 0 -0.186665 -0.135772 0 0.00184646 -0.0266693 0.14726 0 0.213335 0 0.213335 0 0.213335 0 0.213335 0 0.213335 0 0.132591 0zm-0.75926 0.0266693l0 0.186665 0.2 0 0.2 0 0 -0.186665 -0.2 0 -0.2 0zm-0.426669 0l0 0.186665 0.2 0 0.2 0 0 -0.186665 -0.2 0 -0.2 0z"/>
    <path id="_330265128" class="fil2" d="M5.72515 2.21611l0.00185039 0.0266693 -0.120929 0 0 0.186665 0.133854 0 0.00184646 0.0266693 -0.149035 0 -0.213335 0 -0.213335 0 -0.213335 0 -0.213335 0 -0.213335 0 -0.134508 0 0.00184646 -0.0266693 0.132661 0 0.2 0 0 -0.186665 -0.2 0 -0.119732 0 0.00184646 -0.0266693 0.117886 0 0.213335 0 0.213335 0 0.213335 0 0.213335 0 0.213335 0 0.132413 0zm-0.545748 0.0266693l0 0.186665 0.2 0 0.2 0 0 -0.186665 -0.2 0 -0.2 0zm-0.426669 0l0 0.186665 0.2 0 0.2 0 0 -0.186665 -0.2 0 -0.2 0z"/>
    <path id="_330264576" class="fil2" d="M5.71038 2.00277l0.00184646 0.0266693 -0.106189 0 -0.2 0 0 0.186665 0.2 0 0.119114 0 0.00185039 0.0266693 -0.120965 0 -0.213335 0 -0.213335 0 -0.213335 0 -0.213335 0 -0.213335 0 -0.133031 0 0.00184646 -0.0266693 0.11785 0 0 -0.186665 -0.104925 0 0.00185039 -0.0266693 0.116409 0 0.213335 0 0.213335 0 0.213335 0 0.213335 0 0.213335 0 0.104343 0zm-0.731012 0.0266693l0 0.186665 0.2 0 0.2 0 0 -0.186665 -0.2 0 -0.2 0zm-0.426669 0l0 0.186665 0.2 0 0.2 0 0 -0.186665 -0.2 0 -0.2 0z"/>
    <path id="_330264912" class="fil2" d="M5.69561 1.78944l0.00184646 0.0266693 -0.091378 0 0 0.186665 0.104307 0 0.00184646 0.0266693 -0.119488 0 -0.213335 0 -0.213335 0 -0.213335 0 -0.213335 0 -0.213335 0 -0.104961 0 0.00185039 -0.0266693 0.10311 0 0.2 0 0 -0.186665 -0.2 0 -0.090185 0 0.00184646 -0.0266693 0.0883386 0 0.213335 0 0.213335 0 0.213335 0 0.213335 0 0.213335 0 0.102866 0zm-0.516201 0.0266693l0 0.186665 0.2 0 0.2 0 0 -0.186665 -0.2 0 -0.2 0zm-0.426669 0l0 0.186665 0.2 0 0.2 0 0 -0.186665 -0.2 0 -0.2 0z"/>
    <path id="_330264648" class="fil2" d="M4.54902 1.6171l0.00498031 0 0 0.172343 0.2 0 0.2 0 0 -0.172343 0.0266693 0 0 0.172343 0.2 0 0.2 0 0 -0.172343 0.0266693 0 0 0.172343 0.2 0 0.0882677 0 0.00184646 0.0266693 -0.0901142 0 -0.213335 0 -0.213335 0 -0.213335 0 -0.213335 0 -0.213335 0 -0.104783 0 0.00184646 -0.0266693 0.0896024 0 0 -0.0671181 0.021689 0.00144488 -0.021689 -0.00150394 0 -0.102945c0.00701969,-0.00145276 0.0142756,-0.00222441 0.021689,-0.00221654l0 -3.93701e-006z"/>
   </g>
   <path id="_330264720" class="fil3" d="M5.79137 1.83044l-1.44941 0c-0.0544646,6.29921e-005 -0.101012,-0.0413976 -0.106201,-0.0966969l0.106201 -0.00997244 -0.105835 0.00958268 -0.0743819 -0.79224c-0.00114567,-0.00626772 -0.00174803,-0.0127244 -0.00174803,-0.0193189 0,-0.0589094 0.0477598,-0.106669 0.106669,-0.106669l0.331228 0c0.0589094,0 0.106669,0.0477598 0.106669,0.106669l0 0.249508 0.0690118 0 0 -0.249508c0,-0.0589094 0.0477598,-0.106669 0.106669,-0.106669l0.372839 0c0.0589094,0 0.106669,0.0477598 0.106669,0.106669l0 0.249508 0.0690118 0 0 -0.249508c0,-0.0589094 0.0477598,-0.106669 0.106669,-0.106669l0.330094 0 0.000870079 0 0.00026378 0c0.00329528,0 0.00662205,0.000153543 0.0099685,0.000468504 0.0586496,0.00550394 0.101736,0.0575197 0.0962323,0.116169l-0.000397638 -3.93701e-005 -0.074437 0.79285c-0.000433071,0.0585394 -0.0480157,0.105866 -0.106657,0.105866z"/>
  </g>
  <g id="_276547488">
   <path id="_276548856" class="fil1" d="M1.24236 1.6171l1.0353 0c0.0584764,0 0.105957,0.0470591 0.106654,0.10537l0.187815 2.71196 0.000181102 -1.1811e-005c0.00406693,0.0587677 -0.0402756,0.109717 -0.0990433,0.113783 -0.00247244,0.000169291 -0.00492913,0.000248031 -0.00737008,0.000251969l0 3.93701e-006 -0.000838583 0 -1.41093 0c-0.0589094,0 -0.106669,-0.0477598 -0.106669,-0.106669 0,-0.00464961 0.00030315,-0.00922835 0.000877953,-0.0137205l0.187776 -2.71138 0.106252 0.00708268 -0.106413 -0.00737008c0.00389764,-0.0562953 0.050811,-0.0993465 0.106413,-0.0992953l0 -3.93701e-006z"/>
   <g>
    <path id="_276548832" class="fil2" d="M2.56624 4.34944l0.00184646 0.0266693 -0.0686693 0 -0.2 0 0 0.172346 -0.0266693 0 0 -0.172346 -0.2 0 -0.2 0 0 0.172346 -0.0266693 0 0 -0.172346 -0.2 0 -0.2 0 0 0.172346 -0.0266693 0 0 -0.172346 -0.2 0 -0.2 0 0 0.166563c-0.00957874,-0.00329528 -0.0185394,-0.00791732 -0.0266693,-0.0136457l0 -0.152917 -0.0408071 0 0.00184646 -0.0266693 0.0522953 0 0.213335 0 0.213335 0 0.213335 0 0.213335 0 0.213335 0 0.213335 0 0.213335 0 0.0668228 0z"/>
    <path id="_276548712" class="fil2" d="M2.55146 4.13611l0.00185039 0.0266693 -0.0259646 0 0 0.186665 0.0388898 0 0.00184646 0.0266693 -0.0540709 0 -0.213335 0 -0.213335 0 -0.213335 0 -0.213335 0 -0.213335 0 -0.213335 0 -0.213335 0 -0.0687402 0 0.00184646 -0.0266693 0.0668937 0 0.2 0 0 -0.186665 -0.2 0 -0.0539646 0 0.00184646 -0.0266693 0.0521181 0 0.213335 0 0.213335 0 0.213335 0 0.213335 0 0.213335 0 0.213335 0 0.213335 0 0.0374488 0zm-0.450783 0.0266693l0 0.186665 0.2 0 0.2 0 0 -0.186665 -0.2 0 -0.2 0zm-0.426669 0l0 0.186665 0.2 0 0.2 0 0 -0.186665 -0.2 0 -0.2 0zm-0.426669 0l0 0.186665 0.2 0 0.2 0 0 -0.186665 -0.2 0 -0.2 0z"/>
    <path id="_276549240" class="fil2" d="M2.53669 3.92277l0.00184646 0.0266693 -0.039122 0 -0.2 0 0 0.186665 0.2 0 0.0520472 0 0.00185039 0.0266693 -0.0538976 0 -0.213335 0 -0.213335 0 -0.213335 0 -0.213335 0 -0.213335 0 -0.213335 0 -0.213335 0 -0.0393661 0 0.00184646 -0.0266693 0.024185 0 0 -0.186665 -0.0112598 0 0.00184646 -0.0266693 0.022748 0 0.213335 0 0.213335 0 0.213335 0 0.213335 0 0.213335 0 0.213335 0 0.213335 0 0.0372756 0zm-0.663945 0.0266693l0 0.186665 0.2 0 0.2 0 0 -0.186665 -0.2 0 -0.2 0zm-0.426669 0l0 0.186665 0.2 0 0.2 0 0 -0.186665 -0.2 0 -0.2 0zm-0.426669 0l0 0.186665 0.2 0 0.2 0 0 -0.186665 -0.2 0 -0.2 0z"/>
    <path id="_276548592" class="fil2" d="M2.52191 3.70944l0.00413386 0.059689 0 0.153646 0.0106417 0 0.00184646 0.0266693 -0.0258228 0 -0.213335 0 -0.213335 0 -0.213335 0 -0.213335 0 -0.213335 0 -0.213335 0 -0.213335 0 -0.0378937 0 0.00184646 -0.0266693 0.0360472 0 0.2 0 0 -0.186665 -0.2 0 -0.0231181 0 0.00184646 -0.0266693 0.0212717 0 0.213335 0 0.213335 0 0.213335 0 0.213335 0 0.213335 0 0.213335 0 0.213335 0 0.00920079 0zm-0.422535 0.0266693l0 0.186665 0.2 0 0.2 0 0 -0.186665 -0.2 0 -0.2 0zm-0.426669 0l0 0.186665 0.2 0 0.2 0 0 -0.186665 -0.2 0 -0.2 0zm-0.426669 0l0 0.186665 0.2 0 0.2 0 0 -0.186665 -0.2 0 -0.2 0z"/>
    <path id="_276549216" class="fil2" d="M2.50714 3.4961l0.00184646 0.0266693 -0.00957087 0 -0.2 0 0 0.186665 0.2 0 0.0225 0 0.00184646 0.0266693 -0.0243465 0 -0.213335 0 -0.213335 0 -0.213335 0 -0.213335 0 -0.213335 0 -0.213335 0 -0.213335 0 -0.0098189 0 0.016622 -0.240004 0.206531 0 0.213335 0 0.213335 0 0.213335 0 0.213335 0 0.213335 0 0.213335 0 0.00772441 0zm-0.634394 0.0266693l0 0.186665 0.2 0 0.2 0 0 -0.186665 -0.2 0 -0.2 0zm-0.426669 0l0 0.186665 0.2 0 0.2 0 0 -0.186665 -0.2 0 -0.2 0zm-0.426669 0l0 0.186665 0.2 0 0.2 0 0 -0.186665 -0.2 0 -0.2 0z"/>
    <path id="_276548256" class="fil2" d="M2.49237 3.28277l0.00184646 0.0266693 -0.193535 0 -0.2 0 0 0.186665 0.2 0 0.2 0 0 -0.093311 0.00831102 0.11998 -0.208311 0 -0.213335 0 -0.213335 0 -0.213335 0 -0.213335 0 -0.213335 0 -0.213335 0 -0.00964173 0 0.00184646 -0.0266693 0.00779528 0 0.2 0 0 -0.186665 -0.19487 0 0.00184646 -0.0266693 0.206358 0 0.213335 0 0.213335 0 0.213335 0 0.213335 0 0.213335 0 0.191689 0zm-0.818358 0.0266693l0 0.186665 0.2 0 0.2 0 0 -0.186665 -0.2 0 -0.2 0zm-0.426669 0l0 0.186665 0.2 0 0.2 0 0 -0.186665 -0.2 0 -0.2 0z"/>
    <path id="_276548112" class="fil2" d="M2.47759 3.06944l0.00184646 0.0266693 -0.180024 0 0 0.186665 0.192953 0 0.00184646 0.0266693 -0.208134 0 -0.213335 0 -0.213335 0 -0.213335 0 -0.213335 0 -0.213335 0 -0.193606 0 0.00184646 -0.0266693 0.19176 0 0.2 0 0 -0.186665 -0.2 0 -0.178831 0 0.00184646 -0.0266693 0.176984 0 0.213335 0 0.213335 0 0.213335 0 0.213335 0 0.213335 0 0.191512 0zm-0.604846 0.0266693l0 0.186665 0.2 0 0.2 0 0 -0.186665 -0.2 0 -0.2 0zm-0.426669 0l0 0.186665 0.2 0 0.2 0 0 -0.186665 -0.2 0 -0.2 0z"/>
    <path id="_276547944" class="fil2" d="M2.46281 2.85611l0.00185039 0.0266693 -0.165287 0 -0.2 0 0 0.186665 0.2 0 0.178213 0 0.00184646 0.0266693 -0.180059 0 -0.213335 0 -0.213335 0 -0.213335 0 -0.213335 0 -0.213335 0 -0.19213 0 0.00184646 -0.0266693 0.176949 0 0 -0.186665 -0.16402 0 0.00184646 -0.0266693 0.175508 0 0.213335 0 0.213335 0 0.213335 0 0.213335 0 0.213335 0 0.163437 0zm-0.790106 0.0266693l0 0.186665 0.2 0 0.2 0 0 -0.186665 -0.2 0 -0.2 0zm-0.426669 0l0 0.186665 0.2 0 0.2 0 0 -0.186665 -0.2 0 -0.2 0z"/>
    <path id="_276548328" class="fil2" d="M2.44804 2.64277l0.00184646 0.0266693 -0.150476 0 0 0.186665 0.163402 0 0.00185039 0.0266693 -0.178587 0 -0.213335 0 -0.213335 0 -0.213335 0 -0.213335 0 -0.213335 0 -0.164055 0 0.00184646 -0.0266693 0.162209 0 0.2 0 0 -0.186665 -0.2 0 -0.149283 0 0.00185039 -0.0266693 0.147433 0 0.213335 0 0.213335 0 0.213335 0 0.213335 0 0.213335 0 0.161965 0zm-0.575299 0.0266693l0 0.186665 0.2 0 0.2 0 0 -0.186665 -0.2 0 -0.2 0zm-0.426669 0l0 0.186665 0.2 0 0.2 0 0 -0.186665 -0.2 0 -0.2 0z"/>
    <path id="_276548352" class="fil2" d="M2.43327 2.42944l0.00184646 0.0266693 -0.134437 0 -0.2 0 0 0.186665 0.2 0 0.147366 0 0.00184646 0.0266693 -0.149213 0 -0.213335 0 -0.213335 0 -0.213335 0 -0.213335 0 -0.213335 0 -0.163882 0 0.00184646 -0.0266693 0.148701 0 0 -0.186665 -0.135772 0 0.00184646 -0.0266693 0.14726 0 0.213335 0 0.213335 0 0.213335 0 0.213335 0 0.213335 0 0.132591 0zm-0.75926 0.0266693l0 0.186665 0.2 0 0.2 0 0 -0.186665 -0.2 0 -0.2 0zm-0.426669 0l0 0.186665 0.2 0 0.2 0 0 -0.186665 -0.2 0 -0.2 0z"/>
    <path id="_276547560" class="fil2" d="M2.41849 2.21611l0.00185039 0.0266693 -0.120929 0 0 0.186665 0.133854 0 0.00184646 0.0266693 -0.149035 0 -0.213335 0 -0.213335 0 -0.213335 0 -0.213335 0 -0.213335 0 -0.134508 0 0.00184646 -0.0266693 0.132661 0 0.2 0 0 -0.186665 -0.2 0 -0.119732 0 0.00184646 -0.0266693 0.117886 0 0.213335 0 0.213335 0 0.213335 0 0.213335 0 0.213335 0 0.132413 0zm-0.545748 0.0266693l0 0.186665 0.2 0 0.2 0 0 -0.186665 -0.2 0 -0.2 0zm-0.426669 0l0 0.186665 0.2 0 0.2 0 0 -0.186665 -0.2 0 -0.2 0z"/>
    <path id="_276547104" class="fil2" d="M2.40372 2.00277l0.00184646 0.0266693 -0.106189 0 -0.2 0 0 0.186665 0.2 0 0.119114 0 0.00185039 0.0266693 -0.120965 0 -0.213335 0 -0.213335 0 -0.213335 0 -0.213335 0 -0.213335 0 -0.133031 0 0.00184646 -0.0266693 0.11785 0 0 -0.186665 -0.104925 0 0.00185039 -0.0266693 0.116409 0 0.213335 0 0.213335 0 0.213335 0 0.213335 0 0.213335 0 0.104343 0zm-0.731012 0.0266693l0 0.186665 0.2 0 0.2 0 0 -0.186665 -0.2 0 -0.2 0zm-0.426669 0l0 0.186665 0.2 0 0.2 0 0 -0.186665 -0.2 0 -0.2 0z"/>
    <path id="_276547344" class="fil2" d="M2.38894 1.78944l0.00184646 0.0266693 -0.091378 0 0 0.186665 0.104307 0 0.00184646 0.0266693 -0.119488 0 -0.213335 0 -0.213335 0 -0.213335 0 -0.213335 0 -0.213335 0 -0.104961 0 0.00185039 -0.0266693 0.10311 0 0.2 0 0 -0.186665 -0.2 0 -0.090185 0 0.00184646 -0.0266693 0.0883386 0 0.213335 0 0.213335 0 0.213335 0 0.213335 0 0.213335 0 0.102866 0zm-0.516201 0.0266693l0 0.186665 0.2 0 0.2 0 0 -0.186665 -0.2 0 -0.2 0zm-0.426669 0l0 0.186665 0.2 0 0.2 0 0 -0.186665 -0.2 0 -0.2 0z"/>
    <path id="_276547320" class="fil2" d="M1.24236 1.6171l0.00498031 0 0 0.172343 0.2 0 0.2 0 0 -0.172343 0.0266693 0 0 0.172343 0.2 0 0.2 0 0 -0.172343 0.0266693 0 0 0.172343 0.2 0 0.0882677 0 0.00184646 0.0266693 -0.0901142 0 -0.213335 0 -0.213335 0 -0.213335 0 -0.213335 0 -0.213335 0 -0.104783 0 0.00184646 -0.0266693 0.0896024 0 0 -0.0671181 0.021689 0.00144488 -0.021689 -0.00150394 0 -0.102945c0.00701969,-0.00145276 0.0142756,-0.00222441 0.021689,-0.00221654l0 -3.93701e-006z"/>
   </g>
   <path id="_276547296" class="fil3" d="M2.48471 1.83044l-1.44941 0c-0.0544646,6.29921e-005 -0.101012,-0.0413976 -0.106201,-0.0966969l0.106201 -0.00997244 -0.105835 0.00958268 -0.0743819 -0.79224c-0.00114567,-0.00626772 -0.00174803,-0.0127244 -0.00174803,-0.0193189 0,-0.0589094 0.0477598,-0.106669 0.106669,-0.106669l0.331228 0c0.0589094,0 0.106669,0.0477598 0.106669,0.106669l0 0.249508 0.0690118 0 0 -0.249508c0,-0.0589094 0.0477598,-0.106669 0.106669,-0.106669l0.372839 0c0.0589094,0 0.106669,0.0477598 0.106669,0.106669l0 0.249508 0.0690118 0 0 -0.249508c0,-0.0589094 0.0477598,-0.106669 0.106669,-0.106669l0.330094 0 0.000870079 0 0.00026378 0c0.00329528,0 0.00662205,0.000153543 0.0099685,0.000468504 0.0586496,0.00550394 0.101736,0.0575197 0.0962323,0.116169l-0.000397638 -3.93701e-005 -0.074437 0.79285c-0.000433071,0.0585394 -0.0480157,0.105866 -0.106657,0.105866z"/>
  </g>
  <path class="fil4" d="M0.853331 4.98639l0.0108386 0c0.0605276,0.0928071 0.165228,0.154161 0.284283,0.154161 0.119055,0 0.223756,-0.0613543 0.284272,-0.154161l0.0785512 0c0.0605276,0.0928071 0.165228,0.154161 0.284283,0.154161 0.119055,0 0.223756,-0.0613543 0.284283,-0.154161l0.0785394 0c0.0605157,0.0928071 0.165228,0.154161 0.284295,0.154161 0.119043,0 0.223744,-0.0613543 0.284272,-0.154161l0.0785512 0c0.0605157,0.0928071 0.165217,0.154161 0.284283,0.154161 0.119043,0 0.223744,-0.0613543 0.284272,-0.154161l0.0785512 0c0.0605157,0.0928071 0.165228,0.154161 0.284272,0.154161 0.119067,0 0.223756,-0.0613543 0.284272,-0.154161l0.0785748 0c0.0605157,0.0928071 0.165217,0.154161 0.28426,0.154161 0.119067,0 0.22378,-0.0613543 0.284295,-0.154161l0.0785394 0c0.0605276,0.0928071 0.165228,0.154161 0.284283,0.154161 0.119055,0 0.223756,-0.0613543 0.284283,-0.154161l0.078563 0c0.0605157,0.0928071 0.165205,0.154161 0.284272,0.154161 0.119043,0 0.223756,-0.0613543 0.284272,-0.154161l0.0108386 0 0 0.41639 0 0.416386 -0.0108386 0c-0.0605157,0.0928071 -0.165228,0.154161 -0.284272,0.154161 -0.119067,0 -0.223756,-0.0613543 -0.284272,-0.154161l-0.078563 0c-0.0605276,0.0928071 -0.165228,0.154161 -0.284283,0.154161 -0.119055,0 -0.223756,-0.0613543 -0.284283,-0.154161l-0.0785394 0c-0.0605157,0.0928071 -0.165228,0.154161 -0.284295,0.154161 -0.119043,0 -0.223744,-0.0613543 -0.28426,-0.154161l-0.0785748 0c-0.0605157,0.0928071 -0.165205,0.154161 -0.284272,0.154161 -0.119043,0 -0.223756,-0.0613543 -0.284272,-0.154161l-0.0785512 0c-0.0605276,0.0928071 -0.165228,0.154161 -0.284272,0.154161 -0.119067,0 -0.223768,-0.0613543 -0.284283,-0.154161l-0.0785512 0c-0.0605276,0.0928071 -0.165228,0.154161 -0.284272,0.154161 -0.119067,0 -0.22378,-0.0613543 -0.284295,-0.154161l-0.0785394 0c-0.0605276,0.0928071 -0.165228,0.154161 -0.284283,0.154161 -0.119055,0 -0.223756,-0.0613543 -0.284283,-0.154161l-0.0785512 0c-0.0605157,0.0928071 -0.165217,0.154161 -0.284272,0.154161 -0.119055,0 -0.223756,-0.0613543 -0.284283,-0.154161l-0.0108386 0 0 -0.416386 0 -0.41639z"/>
  <g id="_276546360">
   <path id="_276546384" class="fil4" d="M0.853331 4.98639l0.0108386 0c0.0605276,0.0928071 0.165228,0.154161 0.284283,0.154161 0.119055,0 0.223756,-0.0613543 0.284272,-0.154161l0.0785512 0c0.0605276,0.0928071 0.165228,0.154161 0.284283,0.154161 0.119055,0 0.223756,-0.0613543 0.284283,-0.154161l0.0785394 0c0.0605157,0.0928071 0.165228,0.154161 0.284295,0.154161 0.119043,0 0.223744,-0.0613543 0.284272,-0.154161l0.0785512 0c0.0605157,0.0928071 0.165217,0.154161 0.284283,0.154161 0.119043,0 0.223744,-0.0613543 0.284272,-0.154161l0.0785512 0c0.0605157,0.0928071 0.165228,0.154161 0.284272,0.154161 0.119067,0 0.223756,-0.0613543 0.284272,-0.154161l0.0785748 0c0.0605157,0.0928071 0.165217,0.154161 0.28426,0.154161 0.119067,0 0.22378,-0.0613543 0.284295,-0.154161l0.0785394 0c0.0605276,0.0928071 0.165228,0.154161 0.284283,0.154161 0.119055,0 0.223756,-0.0613543 0.284283,-0.154161l0.078563 0c0.0605157,0.0928071 0.165205,0.154161 0.284272,0.154161 0.119043,0 0.223756,-0.0613543 0.284272,-0.154161l0.0108386 0 0 0.41639 -0.0108386 0c-0.0605157,0.0928031 -0.165228,0.154157 -0.284272,0.154157 -0.119067,0 -0.223756,-0.0613543 -0.284272,-0.154157l-0.078563 0c-0.0605276,0.0928031 -0.165228,0.154157 -0.284283,0.154157 -0.119055,0 -0.223756,-0.0613543 -0.284283,-0.154157l-0.0785394 0c-0.0605157,0.0928031 -0.165228,0.154157 -0.284295,0.154157 -0.119043,0 -0.223744,-0.0613543 -0.28426,-0.154157l-0.0785748 0c-0.0605157,0.0928031 -0.165205,0.154157 -0.284272,0.154157 -0.119043,0 -0.223756,-0.0613543 -0.284272,-0.154157l-0.0785512 0c-0.0605276,0.0928031 -0.165228,0.154157 -0.284272,0.154157 -0.119067,0 -0.223768,-0.0613543 -0.284283,-0.154157l-0.0785512 0c-0.0605276,0.0928031 -0.165228,0.154157 -0.284272,0.154157 -0.119067,0 -0.22378,-0.0613543 -0.284295,-0.154157l-0.0785394 0c-0.0605276,0.0928031 -0.165228,0.154157 -0.284283,0.154157 -0.119055,0 -0.223756,-0.0613543 -0.284283,-0.154157l-0.0785512 0c-0.0605157,0.0928031 -0.165217,0.154157 -0.284272,0.154157 -0.119055,0 -0.223756,-0.0613543 -0.284283,-0.154157l-0.0108386 0 0 -0.41639z"/>
   <path id="_276546672" class="fil5" d="M0.853331 5.40278l0.0108386 0c0.0605276,0.0928031 0.165228,0.154157 0.284283,0.154157 0.119055,0 0.223756,-0.0613543 0.284272,-0.154157l0.0785512 0c0.0605276,0.0928031 0.165228,0.154157 0.284283,0.154157 0.119055,0 0.223756,-0.0613543 0.284283,-0.154157l0.0785394 0c0.0605157,0.0928031 0.165228,0.154157 0.284295,0.154157 0.119043,0 0.223744,-0.0613543 0.284272,-0.154157l0.0785512 0c0.0605157,0.0928031 0.165217,0.154157 0.284283,0.154157 0.119043,0 0.223744,-0.0613543 0.284272,-0.154157l0.0785512 0c0.0605157,0.0928031 0.165228,0.154157 0.284272,0.154157 0.119067,0 0.223756,-0.0613543 0.284272,-0.154157l0.0785748 0c0.0605157,0.0928031 0.165217,0.154157 0.28426,0.154157 0.119067,0 0.22378,-0.0613543 0.284295,-0.154157l0.0785394 0c0.0605276,0.0928031 0.165228,0.154157 0.284283,0.154157 0.119055,0 0.223756,-0.0613543 0.284283,-0.154157l0.078563 0c0.0605157,0.0928031 0.165205,0.154157 0.284272,0.154157 0.119043,0 0.223756,-0.0613543 0.284272,-0.154157l0.0108386 0 0 0.416386 -0.0108386 0c-0.0605157,0.0928071 -0.165228,0.154161 -0.284272,0.154161 -0.119067,0 -0.223756,-0.0613543 -0.284272,-0.154161l-0.078563 0c-0.0605276,0.0928071 -0.165228,0.154161 -0.284283,0.154161 -0.119055,0 -0.223756,-0.0613543 -0.284283,-0.154161l-0.0785394 0c-0.0605157,0.0928071 -0.165228,0.154161 -0.284295,0.154161 -0.119043,0 -0.223744,-0.0613543 -0.28426,-0.154161l-0.0785748 0c-0.0605157,0.0928071 -0.165205,0.154161 -0.284272,0.154161 -0.119043,0 -0.223756,-0.0613543 -0.284272,-0.154161l-0.0785512 0c-0.0605276,0.0928071 -0.165228,0.154161 -0.284272,0.154161 -0.119067,0 -0.223768,-0.0613543 -0.284283,-0.154161l-0.0785512 0c-0.0605276,0.0928071 -0.165228,0.154161 -0.284272,0.154161 -0.119067,0 -0.22378,-0.0613543 -0.284295,-0.154161l-0.0785394 0c-0.0605276,0.0928071 -0.165228,0.154161 -0.284283,0.154161 -0.119055,0 -0.223756,-0.0613543 -0.284283,-0.154161l-0.0785512 0c-0.0605157,0.0928071 -0.165217,0.154161 -0.284272,0.154161 -0.119055,0 -0.223756,-0.0613543 -0.284283,-0.154161l-0.0108386 0 0 -0.416386z"/>
  </g>
  <rect class="fil6" x="3.09629" y="3.53623" width="0.527421" height="1.00681"/>
 </g>
 <rect class="fil7" width="6.82666" height="6.82666"/>
</svg>
