<?xml version="1.0" encoding="UTF-8"?>
<!DOCTYPE svg PUBLIC "-//W3C//DTD SVG 1.1//EN" "http://www.w3.org/Graphics/SVG/1.1/DTD/svg11.dtd">
<!-- Creator: CorelDRAW -->
<svg xmlns="http://www.w3.org/2000/svg" xml:space="preserve" width="6.82666in" height="6.82666in" style="shape-rendering:geometricPrecision; text-rendering:geometricPrecision; image-rendering:optimizeQuality; fill-rule:evenodd; clip-rule:evenodd"
viewBox="0 0 6.82666 6.82666"
 xmlns:xlink="http://www.w3.org/1999/xlink">
 <defs>
  <style type="text/css">
   <![CDATA[
    .fil5 {fill:none}
    .fil1 {fill:#32201D}
    .fil4 {fill:#4C342D}
    .fil2 {fill:#388E3C;fill-rule:nonzero}
    .fil3 {fill:#424242;fill-rule:nonzero}
    .fil0 {fill:#5D4037;fill-rule:nonzero}
   ]]>
  </style>
 </defs>
 <g id="Layer_x0020_1">
  <metadata id="CorelCorpID_0Corel-Layer"/>
  <g id="_330267216">
   <path id="_330267504" class="fil0" d="M2.90528 2.35292c0.0010315,-0.0331024 0.0144724,-0.0600236 0.0397205,-0.0806614 0.0162717,-0.0133268 0.0341693,-0.0203465 0.0530118,-0.0209488 0.0493504,-0.00652362 0.0962756,0.022122 0.113591,0.067878 0.019126,0.023374 0.0379606,0.0528701 0.0559173,0.088622 0.0360827,0.0718425 0.084122,0.175555 0.137413,0.303051 0.0733858,0.175567 0.159228,0.400988 0.243039,0.660858 0.155429,0.393795 0.245335,0.840996 0.297311,1.23224 0.0100472,0.0645906 0.019189,0.129681 0.0274331,0.195189l-0.0039685 0c0.00392126,0.036315 0.00751969,0.0719055 0.0108189,0.106669l0.00556299 0c0.00894094,0.0829488 0.0162756,0.166417 0.0216929,0.250185l-0.0071811 0c0.00244882,0.0373465 0.00453937,0.0729685 0.00632677,0.106669l0.00670866 0c0.00375984,0.0832913 0.00561417,0.16676 0.00527953,0.250189l-0.00267323 0c0.0013622,0.0683583 0.001,0.106669 0.001,0.106669 -0.00266929,0.100374 -0.00855118,0.200535 -0.0181339,0.300075l-0.105835 -0.01 0.106177 0.0102205c-0.00531102,0.0552047 -0.0518189,0.0965118 -0.106177,0.0964488l-0.483118 0c-0.0589094,0 -0.106669,-0.0477598 -0.106669,-0.106669 0,-0.00430315 0.00026378,-0.00854724 0.000759843,-0.0127205 0.00365354,-0.0950709 0.00664961,-0.187402 0.00899606,-0.277354 0.00152362,-0.0357913 0.0028622,-0.0713543 0.00402362,-0.106669l-0.00151969 0c0.00176378,-0.085437 0.00290551,-0.168724 0.00342126,-0.250189l0.00354724 0c0.000389764,-0.035878 0.000602362,-0.0714409 0.00065748,-0.106669l-0.00388583 0c-3.93701e-005,-0.0852244 -0.00080315,-0.168496 -0.00228346,-0.250185l0.00388976 0c-0.000708661,-0.036 -0.0015748,-0.071563 -0.00258268,-0.106669l-0.00367717 0c-0.00224016,-0.0848543 -0.00529134,-0.16811 -0.00916535,-0.250189l0.00306299 0c-0.00179134,-0.0361929 -0.00371654,-0.0717598 -0.00575591,-0.106669l-0.00284252 0c-0.00477165,-0.084311 -0.0104331,-0.167551 -0.017,-0.250185l0.00259055 0c-0.00290945,-0.0365669 -0.00591339,-0.0721378 -0.00898031,-0.106669l-0.00262205 0c-0.00747244,-0.0835906 -0.0158858,-0.166823 -0.025252,-0.250189l0.00283465 0c-0.00419685,-0.0375945 -0.00837795,-0.073185 -0.0124724,-0.106669l-0.00285433 0c-0.0100945,-0.0828937 -0.0211378,-0.166134 -0.033126,-0.250189l0.00180709 0c-0.0106142,-0.0694094 -0.0174606,-0.106669 -0.0174606,-0.106669 -0.0467087,-0.309756 -0.106161,-0.633161 -0.178886,-0.993646l-0.000429134 8.66142e-005c-0.0017126,-0.00849213 -0.00235827,-0.0169488 -0.00204331,-0.0252402z"/>
   <path id="_330268104" class="fil0" d="M2.90528 2.35292c0.0010315,-0.0331024 0.0144724,-0.0600236 0.0397205,-0.0806614 0.0162717,-0.0133268 0.0341693,-0.0203465 0.0530118,-0.0209488 0.0493504,-0.00652362 0.0962756,0.022122 0.113591,0.067878 0.019126,0.023374 0.0379606,0.0528701 0.0559173,0.088622 0.0360827,0.0718425 0.084122,0.175555 0.137413,0.303051 0.0733858,0.175567 0.159228,0.400988 0.243039,0.660858l-0.461335 0c-0.0467087,-0.309756 -0.106161,-0.633161 -0.178886,-0.993646l-0.000429134 8.66142e-005c-0.0017126,-0.00849213 -0.00235827,-0.0169488 -0.00204331,-0.0252402zm0.676307 1.1253c0.0249094,0.0806772 0.0494606,0.164264 0.0732638,0.250358l-0.519433 0c-0.0100945,-0.0828937 -0.0211378,-0.166134 -0.033126,-0.250189l0.470449 0c0.00297638,0 0.00592913,-5.90551e-005 0.00884646,-0.000169291zm0.102008 0.357028c0.0214055,0.0815118 0.0420354,0.165012 0.0615709,0.250189l-0.572004 0c-0.00747244,-0.0835906 -0.0158858,-0.166823 -0.025252,-0.250189l0.535685 0zm0.085248 0.356858c0.0176378,0.0821142 0.0341969,0.165594 0.049374,0.250185l-0.619043 0c-0.00477165,-0.084311 -0.0104331,-0.167551 -0.017,-0.250185l0.586669 0zm0.0676575 0.356854c0.0135197,0.0825709 0.025689,0.166043 0.0362165,0.250189l-0.658843 0c-0.00224016,-0.0848543 -0.00529134,-0.16811 -0.00916535,-0.250189l0.631791 0zm0.0486299 0.356858c0.00894094,0.0829488 0.0162756,0.166417 0.0216929,0.250185l-0.688295 0c-3.93701e-005,-0.0852244 -0.00080315,-0.168496 -0.00228346,-0.250185l0.668886 0zm0.0275472 0.356854c0.00375984,0.0832913 0.00561417,0.16676 0.00527953,0.250189l-0.703169 0c0.00176378,-0.085437 0.00290551,-0.168724 0.00342126,-0.250189l0.694469 0zm0.0036063 0.356858c-0.00266929,0.100374 -0.00855118,0.200535 -0.0181339,0.300075l-0.105835 -0.01 0.106177 0.0102205c-0.00531102,0.0552047 -0.0518189,0.0965118 -0.106177,0.0964488l-0.483118 0c-0.0589094,0 -0.106669,-0.0477598 -0.106669,-0.106669 0,-0.00430315 0.00026378,-0.00854724 0.000759843,-0.0127205 0.00365354,-0.0950709 0.00664961,-0.187402 0.00899606,-0.277354l0.704 0z"/>
   <g>
    <circle id="_330267816" class="fil1" transform="matrix(1.63886 0.621238 -0.621238 1.63886 3.07306 2.40695)" r="0.106772"/>
    <circle id="_330267528" class="fil1" transform="matrix(1.63886 0.621238 -0.621238 1.63886 3.28823 2.58614)" r="0.106772"/>
    <circle id="_330267600" class="fil1" transform="matrix(1.63886 0.621238 -0.621238 1.63886 3.43948 2.41894)" r="0.106772"/>
   </g>
   <path id="_330268176" class="fil2" d="M2.99285 2.09842c0.693059,-0.216055 1.26087,-0.29089 1.74023,-0.166543 0.486287,0.126142 0.875382,0.453697 1.20322,1.04144l0.000228346 -0.000125984c0.0215197,0.0385827 0.00768504,0.087315 -0.0308976,0.108835 -0.0291654,0.0162677 -0.064126,0.0123268 -0.088752,-0.00722835l-0.627472 -0.419059c-0.0219291,0.0567008 -0.0456535,0.127016 -0.0456535,0.165894 0,0.222693 -0.202591,0.0269803 -0.334098,-0.1235l-0.0358268 0.188531 -0.078437 -0.014689 0.0785945 0.014937c-0.00824803,0.0434055 -0.050126,0.0719055 -0.0935315,0.0636575 -0.0179606,-0.00341339 -0.0333622,-0.0125866 -0.0446693,-0.0252402l-0.334673 -0.322929 -0.0641181 0.223906 -0.076874 -0.021874 0.0769094 0.0220236c-0.0121614,0.0424724 -0.0564606,0.0670472 -0.0989331,0.0548858 -0.0277795,-0.00795276 -0.0479016,-0.0296575 -0.0550945,-0.0556102 -0.0590472,-0.170799 -0.175268,-0.292508 -0.346961,-0.38076 -0.182504,-0.093811 -0.428059,-0.151276 -0.73385,-0.189465l0.00968898 -0.079374 -0.00991339 0.0793819c-0.0438386,-0.00547244 -0.0749409,-0.0454567 -0.0694685,-0.0892953 0.00422835,-0.0338701 0.029063,-0.0601299 0.0603543,-0.0678031z"/>
   <path id="_330268152" class="fil3" d="M4.49103 1.5082c-0.00266535,-2.3622e-005 -0.00537008,-7.48031e-005 -0.0080748,-0.000129921 0.00473622,0.00162598 0.00750787,0.00172835 0.0080748,0.000129921z"/>
   <path id="_330268248" class="fil2" d="M2.97687 2.03797c0.189508,-0.508043 0.417898,-0.86313 0.735976,-1.05013 0.223205,-0.13122 0.486291,-0.178142 0.805929,-0.135335 0.118764,0.0159055 0.566157,0.099685 0.711831,0.412453 -0.148343,-0.0775551 -0.708961,-0.146524 -0.746976,-0.035126 0.0227756,-0.000440945 0.205858,0.122205 0.210563,0.226283 -0.261587,-0.0444764 -0.353996,0.0399724 -0.359634,0.0392165 0.0249331,0.0379213 0.109606,0.111118 0.0830984,0.23765 -0.101169,-0.0929409 -0.739106,0.0269961 -0.933362,0.112917 -0.167827,0.0742283 -0.302921,0.167917 -0.362035,0.258677 -0.0111142,0.0300394 -0.0221024,0.0606811 -0.0329843,0.091874 -0.00962598,0.0368504 -0.0445709,0.0626102 -0.0838465,0.0594331 -0.0440354,-0.00356299 -0.0768504,-0.0421575 -0.0732874,-0.0861929l6.69291e-005 3.93701e-006c0.0016378,-0.0200276 0.00567323,-0.0400906 0.0119567,-0.0600945 0.00750787,-0.0239134 0.0185315,-0.0478504 0.0327047,-0.071626z"/>
   <path id="_330267336" class="fil2" d="M2.26716 1.44482c0.360299,-0.0156102 0.609878,0.235217 0.814783,0.692713 0.0207638,0.0376417 0.0080315,0.0852441 -0.029189,0.10737 -0.0379764,0.0225748 -0.0870709,0.0100866 -0.109646,-0.0278898l0.0687677 -0.040878 -0.068752 0.040626c-0.0123071,-0.0207047 -0.0263425,-0.0394094 -0.0419094,-0.0561929 -0.101587,-0.109524 -0.274071,-0.145606 -0.468382,-0.127921 -0.313476,0.0285276 -0.84787,0.278976 -1.04617,0.527346 0.0311654,-0.187299 0.0960827,-0.316618 0.123114,-0.376862 -0.186803,0.0947047 -0.551516,0.244146 -0.711862,0.353823 0.255555,-0.499551 0.92502,-1.06854 1.46924,-1.09213z"/>
   <path id="_330267480" class="fil2" d="M1.75676 3.21433c-0.0530591,0.0909094 -0.193866,0.223846 -0.370091,0.625669 -0.0512402,-0.364949 0.253913,-1.21731 0.495807,-1.42546 0.279138,-0.240205 0.649429,-0.325744 1.12352,-0.318197 0.0286102,-0.00208268 0.0574016,0.0113307 0.073685,0.0373346 0.0964567,0.154028 -0.106843,-0.02 -0.0256142,0.109961 -0.15798,0.0856378 -0.641008,0.424823 -0.600732,0.849689 -0.0947087,0.0422441 -0.129705,-0.0836811 -0.156004,-0.142642 -0.0271142,0.0681535 -0.19602,0.270496 -0.168504,0.351524 -0.104327,-0.0346614 -0.107307,-0.0626732 -0.127925,-0.119827 -0.00949213,0.0262717 -0.153681,0.234921 -0.16137,0.310791 -0.000940945,0.00929921 -0.0841378,-0.139992 -0.0827756,-0.278846z"/>
   <path id="_330267312" class="fil4" d="M3.91528 5.51286l-0.698976 0c-0.00116142,0.035315 -0.0025,0.070878 -0.00402362,0.106669l0.704 0c0,0 0.000362205,-0.038311 -0.001,-0.106669zm-0.07 -0.908902c-0.0519764,-0.391244 -0.141882,-0.838445 -0.297311,-1.23224l-0.461335 0c0,0 0.00684646,0.0372598 0.0174606,0.106669l0.468642 0c0.00297638,0 0.00592913,-5.90551e-005 0.00884646,-0.000169291 0.0249094,0.0806772 0.0494606,0.164264 0.0732638,0.250358l-0.516579 0c0.00409449,0.0334843 0.00827559,0.0690748 0.0124724,0.106669l0.53285 0c0.0214055,0.0815118 0.0420354,0.165012 0.0615709,0.250189l-0.569382 0c0.00306693,0.0345315 0.00607087,0.0701024 0.00898031,0.106669l0.584079 0c0.0176378,0.0821142 0.0341969,0.165594 0.049374,0.250185l-0.616201 0c0.00203937,0.0349094 0.00396457,0.0704764 0.00575591,0.106669l0.628728 0c0.00299606,0.0182913 0.00592126,0.036626 0.00878346,0.055zm0.0234646 0.195189l-0.651197 0c0.00100787,0.0351063 0.00187402,0.0706693 0.00258268,0.106669l0.659433 0c-0.00329921,-0.0347638 -0.00689764,-0.0703543 -0.0108189,-0.106669zm0.0308937 0.356854l-0.677228 0c-5.51181e-005,0.0352283 -0.000267717,0.0707913 -0.00065748,0.106669l0.684213 0c-0.0017874,-0.0337008 -0.00387795,-0.0693228 -0.00632677,-0.106669z"/>
  </g>
 </g>
 <rect class="fil5" width="6.82666" height="6.82666"/>
</svg>
