<?xml version="1.0" encoding="UTF-8"?>
<!DOCTYPE svg PUBLIC "-//W3C//DTD SVG 1.1//EN" "http://www.w3.org/Graphics/SVG/1.1/DTD/svg11.dtd">
<!-- Creator: CorelDRAW -->
<svg xmlns="http://www.w3.org/2000/svg" xml:space="preserve" width="6.82666in" height="6.82666in" style="shape-rendering:geometricPrecision; text-rendering:geometricPrecision; image-rendering:optimizeQuality; fill-rule:evenodd; clip-rule:evenodd"
viewBox="0 0 6.82666 6.82666"
 xmlns:xlink="http://www.w3.org/1999/xlink">
 <defs>
  <style type="text/css">
   <![CDATA[
    .fil14 {fill:none}
    .fil11 {fill:#BFC2C3}
    .fil4 {fill:#D4D7D9}
    .fil12 {fill:#D74B48}
    .fil13 {fill:#E6CE72}
    .fil5 {fill:#EF5350}
    .fil6 {fill:#FFE57F}
    .fil7 {fill:#324047;fill-rule:nonzero}
    .fil0 {fill:#37474F;fill-rule:nonzero}
    .fil10 {fill:#4C636E;fill-rule:nonzero}
    .fil3 {fill:#546E7A;fill-rule:nonzero}
    .fil9 {fill:#82949D;fill-rule:nonzero}
    .fil2 {fill:#90A4AE;fill-rule:nonzero}
    .fil8 {fill:#9EABB1;fill-rule:nonzero}
    .fil1 {fill:#B0BEC5;fill-rule:nonzero}
   ]]>
  </style>
 </defs>
 <g id="Layer_x0020_1">
  <metadata id="CorelCorpID_0Corel-Layer"/>
  <g id="_330270120">
   <path id="_330270912" class="fil0" d="M2.69478 1.41107l1.43882 0c0.0439016,0 0.0794961,0.0355945 0.0794961,0.0794961 0,0.0129724 -0.00311024,0.0252244 -0.00862598,0.0360433l-0.108087 0.272008 -0.0735945 -0.029189 0.073878 0.0293543c-0.0125906,0.031685 -0.0432795,0.0507795 -0.0754685,0.0501417l-1.21731 0c-0.0361181,0 -0.0666024,-0.0240866 -0.0762835,-0.0570709l-0.108106 -0.272051 -0.000299213 0.00011811c-0.0162087,-0.0407992 0.00372441,-0.0870197 0.0445236,-0.103232 0.0101969,-0.00405118 0.0207362,-0.00584646 0.031063,-0.00561811z"/>
   <path id="_330271248" class="fil0" d="M4.29981 3.31296l-1.77148 0c-0.00670866,0.00011811 -0.0135315,-0.000610236 -0.0203543,-0.00227953 -0.0426457,-0.0104252 -0.0687638,-0.0534567 -0.0583346,-0.0961024l0.000255906 6.29921e-005 0.134819 -0.551339c0.0059685,-0.0379961 0.0388543,-0.067063 0.0785236,-0.067063l1.49888 0c0.036315,-0.000629921 0.0695433,0.0238465 0.0785315,0.0606142l-0.0772205 0.0188819 0.0770118 -0.0186299 0.134744 0.551031c0.00267323,0.00795669 0.00412205,0.0164724 0.00412205,0.0253268 0,0.0439016 -0.0355906,0.0794961 -0.0794961,0.0794961z"/>
   <path id="_330271128" class="fil1" d="M3.19312 0.853346l0.441839 0c0.0361142,0 0.0666024,0.0240866 0.0762835,0.0570709l0.108102 0.272051 0.000299213 -0.00011811c0.0162126,0.0407992 -0.00372047,0.0870197 -0.0445197,0.103228 -0.0101063,0.00401575 -0.0205512,0.00581496 -0.0307874,0.00562205l-0.663425 0c-0.0439055,0 -0.0794961,-0.0355945 -0.0794961,-0.0794961 0,-0.0129764 0.00311024,-0.0252283 0.00862598,-0.0360433l0.108087 -0.272008 0.0735945 0.029189 -0.073874 -0.0293583c0.012563,-0.0316142 0.0431496,-0.0506969 0.0752717,-0.0501378z"/>
   <path id="_330270864" class="fil2" d="M3.96739 1.57006l-1.10639 0c-0.0103268,0.000228346 -0.0208661,-0.00156693 -0.031063,-0.00561811 -0.0407992,-0.0162126 -0.0607323,-0.062437 -0.0445236,-0.103236l0.000299213 0.000122047 0.108106 -0.272051c0.0096811,-0.0329803 0.0401654,-0.0570709 0.0762835,-0.0570709l0.88489 0c0.032189,-0.000637795 0.062878,0.0184606 0.0754685,0.0501417l-0.073878 0.0293543 0.0735945 -0.029189 0.108087 0.272004c0.00551575,0.0108189 0.00862205,0.0230709 0.00862205,0.0360472 0,0.0439016 -0.0355906,0.0794961 -0.0794921,0.0794961z"/>
   <path id="_330270528" class="fil3" d="M2.58226 1.41107c-0.0439016,0 -0.0794961,0.0355945 -0.0794961,0.0794961 0,0.0439055 0.0355945,0.0794961 0.0794961,0.0794961l1.66215 0c0.0439016,0 0.0794961,-0.0355906 0.0794961,-0.0794961 0,-0.0439016 -0.0355945,-0.0794961 -0.0794961,-0.0794961l-1.66215 0z"/>
   <path id="_330270264" class="fil0" d="M2.72807 2.67574c0,0.0439016 0.0355945,0.0794961 0.0794961,0.0794961 0.0439016,0 0.0794961,-0.0355945 0.0794961,-0.0794961l0 -0.906307c0,-0.0439016 -0.0355945,-0.0794961 -0.0794961,-0.0794961 -0.0439016,0 -0.0794961,0.0355945 -0.0794961,0.0794961l0 0.906307z"/>
   <path id="_330269880" class="fil0" d="M3.93962 2.67574c0,0.0439016 0.0355906,0.0794961 0.0794961,0.0794961 0.0439016,0 0.0794961,-0.0355945 0.0794961,-0.0794961l0 -0.906307c0,-0.0439016 -0.0355945,-0.0794961 -0.0794961,-0.0794961 -0.0439055,0 -0.0794961,0.0355945 -0.0794961,0.0794961l0 0.906307z"/>
   <polygon id="_330270480" class="fil4" points="2.46668,2.99666 4.35998,2.99666 4.82667,5.97333 1.99999,5.97333 "/>
   <polygon id="_330270360" class="fil5" points="2.46668,2.99666 2.35,3.74083 4.47666,3.74083 4.35998,2.99666 4.32348,2.99666 2.5032,2.99666 "/>
   <polygon id="_330270432" class="fil5" points="2.23333,4.485 2.11667,5.22916 4.71,5.22916 4.59333,4.485 "/>
   <polygon id="_330270072" class="fil6" points="2.88706,1.84893 2.88706,2.59624 3.93962,2.59624 3.93962,1.84893 "/>
  </g>
  <g id="_330268944">
   <path id="_330269976" class="fil7" d="M3.41333 1.41107l0.720272 0c0.0439016,0 0.0794961,0.0355945 0.0794961,0.0794961 0,0.0129724 -0.00311024,0.0252244 -0.00862598,0.0360433l-0.108087 0.272008 -0.0735945 -0.029189 0.073878 0.0293543c-0.0125906,0.031685 -0.0432795,0.0507795 -0.0754685,0.0501417l-0.60787 0 0 -0.437854z"/>
   <path id="_330269640" class="fil7" d="M4.29981 3.31296l-0.886484 0 0 -0.71672 0.748791 0c0.036315,-0.000629921 0.0695433,0.0238465 0.0785315,0.0606142l-0.0772205 0.0188819 0.0770118 -0.0186299 0.134744 0.551031c0.00267323,0.00795669 0.00412205,0.0164724 0.00412205,0.0253268 0,0.0439016 -0.0355906,0.0794961 -0.0794961,0.0794961z"/>
   <path id="_330269760" class="fil8" d="M3.41333 0.853346l0.221626 0c0.0361142,0 0.0666024,0.0240866 0.0762835,0.0570709l0.108102 0.272051 0.000299213 -0.00011811c0.0162126,0.0407992 -0.00372047,0.0870197 -0.0445197,0.103228 -0.0101063,0.00401575 -0.0205512,0.00581496 -0.0307874,0.00562205l-0.331004 0 0 -0.437854z"/>
   <path id="_330269376" class="fil9" d="M3.96739 1.57006l-0.554059 0 0 -0.437854 0.441657 0c0.032189,-0.000637795 0.062878,0.0184606 0.0754685,0.0501417l-0.073878 0.0293543 0.0735945 -0.029189 0.108087 0.272004c0.00551575,0.0108189 0.00862205,0.0230709 0.00862205,0.0360472 0,0.0439016 -0.0355906,0.0794961 -0.0794921,0.0794961z"/>
   <path id="_330269400" class="fil10" d="M3.41333 1.57007l0.831083 0c0.0439016,0 0.0794961,-0.0355906 0.0794961,-0.0794961 0,-0.0439016 -0.0355945,-0.0794961 -0.0794961,-0.0794961l-0.831083 0 0 0.158992z"/>
   <path id="_330269736" class="fil7" d="M3.93962 2.67574c0,0.0439016 0.0355906,0.0794961 0.0794961,0.0794961 0.0439016,0 0.0794961,-0.0355945 0.0794961,-0.0794961l0 -0.906307c0,-0.0439016 -0.0355945,-0.0794961 -0.0794961,-0.0794961 -0.0439055,0 -0.0794961,0.0355945 -0.0794961,0.0794961l0 0.906307z"/>
   <polygon id="_330269304" class="fil11" points="3.41333,2.99666 4.35998,2.99666 4.82667,5.97333 3.41333,5.97333 "/>
   <polygon id="_330269232" class="fil12" points="3.41333,3.74083 4.47666,3.74083 4.35998,2.99666 4.32348,2.99666 3.41333,2.99666 "/>
   <polygon id="_330268752" class="fil12" points="3.41333,5.22916 4.71,5.22916 4.59333,4.485 3.41333,4.485 "/>
   <polygon id="_330268560" class="fil13" points="3.41333,2.59624 3.93962,2.59624 3.93962,1.84893 3.41333,1.84893 "/>
  </g>
 </g>
 <rect class="fil14" width="6.82666" height="6.82666"/>
</svg>
