<?xml version="1.0" encoding="UTF-8"?>
<!DOCTYPE svg PUBLIC "-//W3C//DTD SVG 1.1//EN" "http://www.w3.org/Graphics/SVG/1.1/DTD/svg11.dtd">
<!-- Creator: CorelDRAW -->
<svg xmlns="http://www.w3.org/2000/svg" xml:space="preserve" width="6.82666in" height="6.82666in" style="shape-rendering:geometricPrecision; text-rendering:geometricPrecision; image-rendering:optimizeQuality; fill-rule:evenodd; clip-rule:evenodd"
viewBox="0 0 6.82666 6.82666"
 xmlns:xlink="http://www.w3.org/1999/xlink">
 <defs>
  <style type="text/css">
   <![CDATA[
    .fil4 {fill:none}
    .fil2 {fill:#E69A00}
    .fil3 {fill:#E6CE72}
    .fil0 {fill:#FFAB00}
    .fil1 {fill:#FFE57F}
   ]]>
  </style>
 </defs>
 <g id="Layer_x0020_1">
  <metadata id="CorelCorpID_0Corel-Layer"/>
  <g id="_330271080">
   <g>
    <g>
     <path id="_330257088" class="fil0" d="M3.29107 4.90629l-0.124902 -3.56716 -0.00148425 0.000397638c-0.0385039,0.132173 -0.184142,0.257181 -0.379409,0.309504 -0.146134,0.0391535 -0.288551,0.0291496 -0.392654,-0.0182717 -0.0664409,0.093122 -0.184776,0.172992 -0.330913,0.21215 -0.146134,0.0391575 -0.288551,0.0291496 -0.392654,-0.0182677 -0.0664409,0.0931181 -0.184776,0.172988 -0.330913,0.212146 -0.195264,0.0523228 -0.383898,0.0168819 -0.483327,-0.0783307l-0.00148425 0.000393701 1.67541 3.1517 0.374697 -0.100398 0.0129291 -0.00346457 0.374701 -0.100402z"/>
     <ellipse id="_330257016" class="fil0" transform="matrix(-0.519142 0.139104 -0.137467 -0.513036 2.9099 5.00842)" rx="0.746665" ry="0.906665"/>
     <ellipse id="_330256560" class="fil1" transform="matrix(-0.484533 0.12983 -0.12983 -0.484533 2.90991 5.00842)" rx="0.693331" ry="0.853335"/>
    </g>
    <g>
     <path id="_330256392" class="fil2" d="M3.29107 4.90629l-0.124902 -3.56716 -0.00148425 0.000397638c-0.0385039,0.132173 -0.184142,0.257181 -0.379409,0.3095 -0.146134,0.0391575 -0.288551,0.0291496 -0.392654,-0.0182677 -0.066437,0.093122 -0.184776,0.172992 -0.330913,0.21215l0.848197 3.16551 0.00646457 -0.00173228 0.374701 -0.100402z"/>
     <path id="_330256584" class="fil2" d="M2.78527 4.54327c0.214079,-0.0573622 0.443429,0.104394 0.512264,0.361287 0.0688346,0.256898 -0.0489094,0.511654 -0.262988,0.569016l-0.249276 -0.930303z"/>
     <path id="_330256320" class="fil3" d="M2.79912 4.59496c0.185535,-0.0497165 0.385543,0.0950984 0.446728,0.323453 0.061189,0.22835 -0.0396142,0.453772 -0.225154,0.503484l-0.221575 -0.826937z"/>
    </g>
   </g>
   <g>
    <g>
     <path id="_330255336" class="fil0" d="M3.53559 4.90869l0.124902 -3.56716 0.00148425 0.000397638c0.0385039,0.132177 0.184142,0.257181 0.379409,0.309504 0.146134,0.0391575 0.288551,0.0291496 0.392654,-0.0182677 0.0664409,0.0931181 0.184776,0.172988 0.330913,0.212146 0.146134,0.0391575 0.288551,0.0291496 0.392654,-0.0182677 0.0664409,0.093122 0.184776,0.172992 0.330913,0.21215 0.195264,0.0523189 0.383898,0.0168819 0.483327,-0.0783346l0.00148425 0.000397638 -1.67541 3.1517 -0.374697 -0.100402 -0.0129291 -0.00346457 -0.374701 -0.100398z"/>
     <ellipse id="_330255960" class="fil0" transform="matrix(0.519142 0.139104 0.137467 -0.513036 3.91676 5.01082)" rx="0.746665" ry="0.906665"/>
     <ellipse id="_330255936" class="fil1" transform="matrix(0.484533 0.12983 0.12983 -0.484533 3.91676 5.01082)" rx="0.693331" ry="0.853335"/>
    </g>
    <g>
     <path id="_330255240" class="fil2" d="M3.53559 4.90869l0.124902 -3.56716 0.00148425 0.000397638c0.0385039,0.132177 0.184142,0.257181 0.379409,0.309504 0.146134,0.0391575 0.288551,0.0291496 0.392654,-0.0182677 0.066437,0.093122 0.184776,0.172988 0.330913,0.212146l-0.848197 3.16551 -0.00646457 -0.00173228 -0.374701 -0.100398z"/>
     <path id="_330255216" class="fil2" d="M4.04139 4.54567c-0.214079,-0.0573622 -0.443429,0.10439 -0.512264,0.361287 -0.0688346,0.256898 0.0489094,0.511654 0.262988,0.569016l0.249276 -0.930303z"/>
     <path id="_330255624" class="fil3" d="M4.02754 4.59735c-0.185535,-0.0497126 -0.385543,0.0951024 -0.446728,0.323453 -0.061189,0.228354 0.0396142,0.453772 0.225154,0.503484l0.221575 -0.826937z"/>
    </g>
   </g>
  </g>
 </g>
 <rect class="fil4" width="6.82666" height="6.82666"/>
</svg>
