<?xml version="1.0" encoding="UTF-8"?>
<!DOCTYPE svg PUBLIC "-//W3C//DTD SVG 1.1//EN" "http://www.w3.org/Graphics/SVG/1.1/DTD/svg11.dtd">
<!-- Creator: CorelDRAW -->
<svg xmlns="http://www.w3.org/2000/svg" xml:space="preserve" width="6.82666in" height="6.82666in" style="shape-rendering:geometricPrecision; text-rendering:geometricPrecision; image-rendering:optimizeQuality; fill-rule:evenodd; clip-rule:evenodd"
viewBox="0 0 6.82666 6.82666"
 xmlns:xlink="http://www.w3.org/1999/xlink">
 <defs>
  <style type="text/css">
   <![CDATA[
    .fil14 {fill:none}
    .fil13 {fill:black}
    .fil6 {fill:#0277BD}
    .fil5 {fill:#0288D1}
    .fil4 {fill:#039BE5}
    .fil3 {fill:#29B6F6}
    .fil12 {fill:#37474F}
    .fil2 {fill:#4FC3F7}
    .fil11 {fill:#546E7A}
    .fil1 {fill:#81D4FA}
    .fil7 {fill:#99DCFA}
    .fil0 {fill:#B3E5FC}
    .fil8 {fill:#B4E6FA}
    .fil9 {fill:#C9EDFA}
    .fil10 {fill:#DFF4FA}
   ]]>
  </style>
 </defs>
 <g id="Layer_x0020_1">
  <metadata id="CorelCorpID_0Corel-Layer"/>
  <g id="_330256968">
   <path id="_330260208" class="fil0" d="M0.853331 2.87897l0.0108386 0c0.0605276,0.0928071 0.165228,0.154161 0.284283,0.154161 0.119055,0 0.223756,-0.0613543 0.284272,-0.154161l0.0785512 0c0.0605276,0.0928071 0.165228,0.154161 0.284283,0.154161 0.119055,0 0.223756,-0.0613543 0.284283,-0.154161l0.0785394 0c0.0605157,0.0928071 0.165228,0.154161 0.284295,0.154161 0.119043,0 0.223744,-0.0613543 0.284272,-0.154161l0.0785512 0c0.0605157,0.0928071 0.165217,0.154161 0.284283,0.154161 0.119043,0 0.223744,-0.0613543 0.284272,-0.154161l0.0785512 0c0.0605157,0.0928071 0.165228,0.154161 0.284272,0.154161 0.119067,0 0.223756,-0.0613543 0.284272,-0.154161l0.0785748 0c0.0605157,0.0928071 0.165217,0.154161 0.28426,0.154161 0.119067,0 0.22378,-0.0613543 0.284295,-0.154161l0.0785394 0c0.0605276,0.0928071 0.165228,0.154161 0.284283,0.154161 0.119055,0 0.223756,-0.0613543 0.284283,-0.154161l0.078563 0c0.0605157,0.0928071 0.165205,0.154161 0.284272,0.154161 0.119043,0 0.223756,-0.0613543 0.284272,-0.154161l0.0108386 0 0 0.41639 0 0.416386 0 0.41639 0 0.416386 0 0.41639 0 0.416386 -0.0108386 0c-0.0605157,0.0928071 -0.165228,0.154161 -0.284272,0.154161 -0.119067,0 -0.223756,-0.0613543 -0.284272,-0.154161l-0.078563 0c-0.0605276,0.0928071 -0.165228,0.154161 -0.284283,0.154161 -0.119055,0 -0.223756,-0.0613543 -0.284283,-0.154161l-0.0785394 0c-0.0605157,0.0928071 -0.165228,0.154161 -0.284295,0.154161 -0.119043,0 -0.223744,-0.0613543 -0.28426,-0.154161l-0.0785748 0c-0.0605157,0.0928071 -0.165205,0.154161 -0.284272,0.154161 -0.119043,0 -0.223756,-0.0613543 -0.284272,-0.154161l-0.0785512 0c-0.0605276,0.0928071 -0.165228,0.154161 -0.284272,0.154161 -0.119067,0 -0.223768,-0.0613543 -0.284283,-0.154161l-0.0785512 0c-0.0605276,0.0928071 -0.165228,0.154161 -0.284272,0.154161 -0.119067,0 -0.22378,-0.0613543 -0.284295,-0.154161l-0.0785394 0c-0.0605276,0.0928071 -0.165228,0.154161 -0.284283,0.154161 -0.119055,0 -0.223756,-0.0613543 -0.284283,-0.154161l-0.0785512 0c-0.0605157,0.0928071 -0.165217,0.154161 -0.284272,0.154161 -0.119055,0 -0.223756,-0.0613543 -0.284283,-0.154161l-0.0108386 0 0 -0.416386 0 -0.41639 0 -0.416386 0 -0.41639 0 -0.416386 0 -0.41639z"/>
   <path id="_330260472" class="fil1" d="M0.853331 2.87897l0.0108386 0c0.0605276,0.0928071 0.165228,0.154161 0.284283,0.154161 0.119055,0 0.223756,-0.0613543 0.284272,-0.154161l0.0785512 0c0.0605276,0.0928071 0.165228,0.154161 0.284283,0.154161 0.119055,0 0.223756,-0.0613543 0.284283,-0.154161l0.0785394 0c0.0605157,0.0928071 0.165228,0.154161 0.284295,0.154161 0.119043,0 0.223744,-0.0613543 0.284272,-0.154161l0.0785512 0c0.0605157,0.0928071 0.165217,0.154161 0.284283,0.154161 0.119043,0 0.223744,-0.0613543 0.284272,-0.154161l0.0785512 0c0.0605157,0.0928071 0.165228,0.154161 0.284272,0.154161 0.119067,0 0.223756,-0.0613543 0.284272,-0.154161l0.0785748 0c0.0605157,0.0928071 0.165217,0.154161 0.28426,0.154161 0.119067,0 0.22378,-0.0613543 0.284295,-0.154161l0.0785394 0c0.0605276,0.0928071 0.165228,0.154161 0.284283,0.154161 0.119055,0 0.223756,-0.0613543 0.284283,-0.154161l0.078563 0c0.0605157,0.0928071 0.165205,0.154161 0.284272,0.154161 0.119043,0 0.223756,-0.0613543 0.284272,-0.154161l0.0108386 0 0 0.41639 -0.0108386 0c-0.0605157,0.0928031 -0.165228,0.154157 -0.284272,0.154157 -0.119067,0 -0.223756,-0.0613543 -0.284272,-0.154157l-0.078563 0c-0.0605276,0.0928031 -0.165228,0.154157 -0.284283,0.154157 -0.119055,0 -0.223756,-0.0613543 -0.284283,-0.154157l-0.0785394 0c-0.0605157,0.0928031 -0.165228,0.154157 -0.284295,0.154157 -0.119043,0 -0.223744,-0.0613543 -0.28426,-0.154157l-0.0785748 0c-0.0605157,0.0928031 -0.165205,0.154157 -0.284272,0.154157 -0.119043,0 -0.223756,-0.0613543 -0.284272,-0.154157l-0.0785512 0c-0.0605276,0.0928031 -0.165228,0.154157 -0.284272,0.154157 -0.119067,0 -0.223768,-0.0613543 -0.284283,-0.154157l-0.0785512 0c-0.0605276,0.0928031 -0.165228,0.154157 -0.284272,0.154157 -0.119067,0 -0.22378,-0.0613543 -0.284295,-0.154157l-0.0785394 0c-0.0605276,0.0928031 -0.165228,0.154157 -0.284283,0.154157 -0.119055,0 -0.223756,-0.0613543 -0.284283,-0.154157l-0.0785512 0c-0.0605157,0.0928031 -0.165217,0.154157 -0.284272,0.154157 -0.119055,0 -0.223756,-0.0613543 -0.284283,-0.154157l-0.0108386 0 0 -0.41639z"/>
   <path id="_330259512" class="fil2" d="M0.853331 3.29536l0.0108386 0c0.0605276,0.0928031 0.165228,0.154157 0.284283,0.154157 0.119055,0 0.223756,-0.0613543 0.284272,-0.154157l0.0785512 0c0.0605276,0.0928031 0.165228,0.154157 0.284283,0.154157 0.119055,0 0.223756,-0.0613543 0.284283,-0.154157l0.0785394 0c0.0605157,0.0928031 0.165228,0.154157 0.284295,0.154157 0.119043,0 0.223744,-0.0613543 0.284272,-0.154157l0.0785512 0c0.0605157,0.0928031 0.165217,0.154157 0.284283,0.154157 0.119043,0 0.223744,-0.0613543 0.284272,-0.154157l0.0785512 0c0.0605157,0.0928031 0.165228,0.154157 0.284272,0.154157 0.119067,0 0.223756,-0.0613543 0.284272,-0.154157l0.0785748 0c0.0605157,0.0928031 0.165217,0.154157 0.28426,0.154157 0.119067,0 0.22378,-0.0613543 0.284295,-0.154157l0.0785394 0c0.0605276,0.0928031 0.165228,0.154157 0.284283,0.154157 0.119055,0 0.223756,-0.0613543 0.284283,-0.154157l0.078563 0c0.0605157,0.0928031 0.165205,0.154157 0.284272,0.154157 0.119043,0 0.223756,-0.0613543 0.284272,-0.154157l0.0108386 0 0 0.416386 -0.0108386 0c-0.0605157,0.0928071 -0.165228,0.154161 -0.284272,0.154161 -0.119067,0 -0.223756,-0.0613543 -0.284272,-0.154161l-0.078563 0c-0.0605276,0.0928071 -0.165228,0.154161 -0.284283,0.154161 -0.119055,0 -0.223756,-0.0613543 -0.284283,-0.154161l-0.0785394 0c-0.0605157,0.0928071 -0.165228,0.154161 -0.284295,0.154161 -0.119043,0 -0.223744,-0.0613543 -0.28426,-0.154161l-0.0785748 0c-0.0605157,0.0928071 -0.165205,0.154161 -0.284272,0.154161 -0.119043,0 -0.223756,-0.0613543 -0.284272,-0.154161l-0.0785512 0c-0.0605276,0.0928071 -0.165228,0.154161 -0.284272,0.154161 -0.119067,0 -0.223768,-0.0613543 -0.284283,-0.154161l-0.0785512 0c-0.0605276,0.0928071 -0.165228,0.154161 -0.284272,0.154161 -0.119067,0 -0.22378,-0.0613543 -0.284295,-0.154161l-0.0785394 0c-0.0605276,0.0928071 -0.165228,0.154161 -0.284283,0.154161 -0.119055,0 -0.223756,-0.0613543 -0.284283,-0.154161l-0.0785512 0c-0.0605157,0.0928071 -0.165217,0.154161 -0.284272,0.154161 -0.119055,0 -0.223756,-0.0613543 -0.284283,-0.154161l-0.0108386 0 0 -0.416386z"/>
   <path id="_330259248" class="fil3" d="M0.853331 3.71174l0.0108386 0c0.0605276,0.0928071 0.165228,0.154161 0.284283,0.154161 0.119055,0 0.223756,-0.0613543 0.284272,-0.154161l0.0785512 0c0.0605276,0.0928071 0.165228,0.154161 0.284283,0.154161 0.119055,0 0.223756,-0.0613543 0.284283,-0.154161l0.0785394 0c0.0605157,0.0928071 0.165228,0.154161 0.284295,0.154161 0.119043,0 0.223744,-0.0613543 0.284272,-0.154161l0.0785512 0c0.0605157,0.0928071 0.165217,0.154161 0.284283,0.154161 0.119043,0 0.223744,-0.0613543 0.284272,-0.154161l0.0785512 0c0.0605157,0.0928071 0.165228,0.154161 0.284272,0.154161 0.119067,0 0.223756,-0.0613543 0.284272,-0.154161l0.0785748 0c0.0605157,0.0928071 0.165217,0.154161 0.28426,0.154161 0.119067,0 0.22378,-0.0613543 0.284295,-0.154161l0.0785394 0c0.0605276,0.0928071 0.165228,0.154161 0.284283,0.154161 0.119055,0 0.223756,-0.0613543 0.284283,-0.154161l0.078563 0c0.0605157,0.0928071 0.165205,0.154161 0.284272,0.154161 0.119043,0 0.223756,-0.0613543 0.284272,-0.154161l0.0108386 0 0 0.41639 -0.0108386 0c-0.0605157,0.0928071 -0.165228,0.154157 -0.284272,0.154157 -0.119067,0 -0.223756,-0.0613504 -0.284272,-0.154157l-0.078563 0c-0.0605276,0.0928071 -0.165228,0.154157 -0.284283,0.154157 -0.119055,0 -0.223756,-0.0613504 -0.284283,-0.154157l-0.0785394 0c-0.0605157,0.0928071 -0.165228,0.154157 -0.284295,0.154157 -0.119043,0 -0.223744,-0.0613504 -0.28426,-0.154157l-0.0785748 0c-0.0605157,0.0928071 -0.165205,0.154157 -0.284272,0.154157 -0.119043,0 -0.223756,-0.0613504 -0.284272,-0.154157l-0.0785512 0c-0.0605276,0.0928071 -0.165228,0.154157 -0.284272,0.154157 -0.119067,0 -0.223768,-0.0613504 -0.284283,-0.154157l-0.0785512 0c-0.0605276,0.0928071 -0.165228,0.154157 -0.284272,0.154157 -0.119067,0 -0.22378,-0.0613504 -0.284295,-0.154157l-0.0785394 0c-0.0605276,0.0928071 -0.165228,0.154157 -0.284283,0.154157 -0.119055,0 -0.223756,-0.0613504 -0.284283,-0.154157l-0.0785512 0c-0.0605157,0.0928071 -0.165217,0.154157 -0.284272,0.154157 -0.119055,0 -0.223756,-0.0613504 -0.284283,-0.154157l-0.0108386 0 0 -0.41639z"/>
   <path id="_330259800" class="fil4" d="M0.853331 4.12813l0.0108386 0c0.0605276,0.0928071 0.165228,0.154157 0.284283,0.154157 0.119055,0 0.223756,-0.0613504 0.284272,-0.154157l0.0785512 0c0.0605276,0.0928071 0.165228,0.154157 0.284283,0.154157 0.119055,0 0.223756,-0.0613504 0.284283,-0.154157l0.0785394 0c0.0605157,0.0928071 0.165228,0.154157 0.284295,0.154157 0.119043,0 0.223744,-0.0613504 0.284272,-0.154157l0.0785512 0c0.0605157,0.0928071 0.165217,0.154157 0.284283,0.154157 0.119043,0 0.223744,-0.0613504 0.284272,-0.154157l0.0785512 0c0.0605157,0.0928071 0.165228,0.154157 0.284272,0.154157 0.119067,0 0.223756,-0.0613504 0.284272,-0.154157l0.0785748 0c0.0605157,0.0928071 0.165217,0.154157 0.28426,0.154157 0.119067,0 0.22378,-0.0613504 0.284295,-0.154157l0.0785394 0c0.0605276,0.0928071 0.165228,0.154157 0.284283,0.154157 0.119055,0 0.223756,-0.0613504 0.284283,-0.154157l0.078563 0c0.0605157,0.0928071 0.165205,0.154157 0.284272,0.154157 0.119043,0 0.223756,-0.0613504 0.284272,-0.154157l0.0108386 0 0 0.416386 -0.0108386 0c-0.0605157,0.0928071 -0.165228,0.154161 -0.284272,0.154161 -0.119067,0 -0.223756,-0.0613543 -0.284272,-0.154161l-0.078563 0c-0.0605276,0.0928071 -0.165228,0.154161 -0.284283,0.154161 -0.119055,0 -0.223756,-0.0613543 -0.284283,-0.154161l-0.0785394 0c-0.0605157,0.0928071 -0.165228,0.154161 -0.284295,0.154161 -0.119043,0 -0.223744,-0.0613543 -0.28426,-0.154161l-0.0785748 0c-0.0605157,0.0928071 -0.165205,0.154161 -0.284272,0.154161 -0.119043,0 -0.223756,-0.0613543 -0.284272,-0.154161l-0.0785512 0c-0.0605276,0.0928071 -0.165228,0.154161 -0.284272,0.154161 -0.119067,0 -0.223768,-0.0613543 -0.284283,-0.154161l-0.0785512 0c-0.0605276,0.0928071 -0.165228,0.154161 -0.284272,0.154161 -0.119067,0 -0.22378,-0.0613543 -0.284295,-0.154161l-0.0785394 0c-0.0605276,0.0928071 -0.165228,0.154161 -0.284283,0.154161 -0.119055,0 -0.223756,-0.0613543 -0.284283,-0.154161l-0.0785512 0c-0.0605157,0.0928071 -0.165217,0.154161 -0.284272,0.154161 -0.119055,0 -0.223756,-0.0613543 -0.284283,-0.154161l-0.0108386 0 0 -0.416386z"/>
   <path id="_330259776" class="fil5" d="M0.853331 4.54452l0.0108386 0c0.0605276,0.0928071 0.165228,0.154161 0.284283,0.154161 0.119055,0 0.223756,-0.0613543 0.284272,-0.154161l0.0785512 0c0.0605276,0.0928071 0.165228,0.154161 0.284283,0.154161 0.119055,0 0.223756,-0.0613543 0.284283,-0.154161l0.0785394 0c0.0605157,0.0928071 0.165228,0.154161 0.284295,0.154161 0.119043,0 0.223744,-0.0613543 0.284272,-0.154161l0.0785512 0c0.0605157,0.0928071 0.165217,0.154161 0.284283,0.154161 0.119043,0 0.223744,-0.0613543 0.284272,-0.154161l0.0785512 0c0.0605157,0.0928071 0.165228,0.154161 0.284272,0.154161 0.119067,0 0.223756,-0.0613543 0.284272,-0.154161l0.0785748 0c0.0605157,0.0928071 0.165217,0.154161 0.28426,0.154161 0.119067,0 0.22378,-0.0613543 0.284295,-0.154161l0.0785394 0c0.0605276,0.0928071 0.165228,0.154161 0.284283,0.154161 0.119055,0 0.223756,-0.0613543 0.284283,-0.154161l0.078563 0c0.0605157,0.0928071 0.165205,0.154161 0.284272,0.154161 0.119043,0 0.223756,-0.0613543 0.284272,-0.154161l0.0108386 0 0 0.41639 -0.0108386 0c-0.0605157,0.0928071 -0.165228,0.154157 -0.284272,0.154157 -0.119067,0 -0.223756,-0.0613504 -0.284272,-0.154157l-0.078563 0c-0.0605276,0.0928071 -0.165228,0.154157 -0.284283,0.154157 -0.119055,0 -0.223756,-0.0613504 -0.284283,-0.154157l-0.0785394 0c-0.0605157,0.0928071 -0.165228,0.154157 -0.284295,0.154157 -0.119043,0 -0.223744,-0.0613504 -0.28426,-0.154157l-0.0785748 0c-0.0605157,0.0928071 -0.165205,0.154157 -0.284272,0.154157 -0.119043,0 -0.223756,-0.0613504 -0.284272,-0.154157l-0.0785512 0c-0.0605276,0.0928071 -0.165228,0.154157 -0.284272,0.154157 -0.119067,0 -0.223768,-0.0613504 -0.284283,-0.154157l-0.0785512 0c-0.0605276,0.0928071 -0.165228,0.154157 -0.284272,0.154157 -0.119067,0 -0.22378,-0.0613504 -0.284295,-0.154157l-0.0785394 0c-0.0605276,0.0928071 -0.165228,0.154157 -0.284283,0.154157 -0.119055,0 -0.223756,-0.0613504 -0.284283,-0.154157l-0.0785512 0c-0.0605157,0.0928071 -0.165217,0.154157 -0.284272,0.154157 -0.119055,0 -0.223756,-0.0613504 -0.284283,-0.154157l-0.0108386 0 0 -0.41639z"/>
   <path id="_330259056" class="fil6" d="M0.853331 4.96091l0.0108386 0c0.0605276,0.0928071 0.165228,0.154157 0.284283,0.154157 0.119055,0 0.223756,-0.0613504 0.284272,-0.154157l0.0785512 0c0.0605276,0.0928071 0.165228,0.154157 0.284283,0.154157 0.119055,0 0.223756,-0.0613504 0.284283,-0.154157l0.0785394 0c0.0605157,0.0928071 0.165228,0.154157 0.284295,0.154157 0.119043,0 0.223744,-0.0613504 0.284272,-0.154157l0.0785512 0c0.0605157,0.0928071 0.165217,0.154157 0.284283,0.154157 0.119043,0 0.223744,-0.0613504 0.284272,-0.154157l0.0785512 0c0.0605157,0.0928071 0.165228,0.154157 0.284272,0.154157 0.119067,0 0.223756,-0.0613504 0.284272,-0.154157l0.0785748 0c0.0605157,0.0928071 0.165217,0.154157 0.28426,0.154157 0.119067,0 0.22378,-0.0613504 0.284295,-0.154157l0.0785394 0c0.0605276,0.0928071 0.165228,0.154157 0.284283,0.154157 0.119055,0 0.223756,-0.0613504 0.284283,-0.154157l0.078563 0c0.0605157,0.0928071 0.165205,0.154157 0.284272,0.154157 0.119043,0 0.223756,-0.0613504 0.284272,-0.154157l0.0108386 0 0 0.416386 -0.0108386 0c-0.0605157,0.0928071 -0.165228,0.154161 -0.284272,0.154161 -0.119067,0 -0.223756,-0.0613543 -0.284272,-0.154161l-0.078563 0c-0.0605276,0.0928071 -0.165228,0.154161 -0.284283,0.154161 -0.119055,0 -0.223756,-0.0613543 -0.284283,-0.154161l-0.0785394 0c-0.0605157,0.0928071 -0.165228,0.154161 -0.284295,0.154161 -0.119043,0 -0.223744,-0.0613543 -0.28426,-0.154161l-0.0785748 0c-0.0605157,0.0928071 -0.165205,0.154161 -0.284272,0.154161 -0.119043,0 -0.223756,-0.0613543 -0.284272,-0.154161l-0.0785512 0c-0.0605276,0.0928071 -0.165228,0.154161 -0.284272,0.154161 -0.119067,0 -0.223768,-0.0613543 -0.284283,-0.154161l-0.0785512 0c-0.0605276,0.0928071 -0.165228,0.154161 -0.284272,0.154161 -0.119067,0 -0.22378,-0.0613543 -0.284295,-0.154161l-0.0785394 0c-0.0605276,0.0928071 -0.165228,0.154161 -0.284283,0.154161 -0.119055,0 -0.223756,-0.0613543 -0.284283,-0.154161l-0.0785512 0c-0.0605157,0.0928071 -0.165217,0.154161 -0.284272,0.154161 -0.119055,0 -0.223756,-0.0613543 -0.284283,-0.154161l-0.0108386 0 0 -0.416386z"/>
   <path id="_330258912" class="fil7" d="M0.853331 2.50757l0.0108386 0c0.0605276,0.0928071 0.165228,0.154161 0.284283,0.154161 0.119055,0 0.223756,-0.0613543 0.284272,-0.154161l0.0785512 0c0.0605276,0.0928071 0.165228,0.154161 0.284283,0.154161 0.119055,0 0.223756,-0.0613543 0.284283,-0.154161l0.0785394 0c0.0605157,0.0928071 0.165228,0.154161 0.284295,0.154161 0.119043,0 0.223744,-0.0613543 0.284272,-0.154161l0.0785512 0c0.0605157,0.0928071 0.165217,0.154161 0.284283,0.154161 0.119043,0 0.223744,-0.0613543 0.284272,-0.154161l0.0785512 0c0.0605157,0.0928071 0.165228,0.154161 0.284272,0.154161 0.119067,0 0.223756,-0.0613543 0.284272,-0.154161l0.0785748 0c0.0605157,0.0928071 0.165217,0.154161 0.28426,0.154161 0.119067,0 0.22378,-0.0613543 0.284295,-0.154161l0.0785394 0c0.0605276,0.0928071 0.165228,0.154161 0.284283,0.154161 0.119055,0 0.223756,-0.0613543 0.284283,-0.154161l0.078563 0c0.0605157,0.0928071 0.165205,0.154161 0.284272,0.154161 0.119043,0 0.223756,-0.0613543 0.284272,-0.154161l0.0108386 0 0 0.41639 -0.0108386 0c-0.0605157,0.0928031 -0.165228,0.154157 -0.284272,0.154157 -0.119067,0 -0.223756,-0.0613543 -0.284272,-0.154157l-0.078563 0c-0.0605276,0.0928031 -0.165228,0.154157 -0.284283,0.154157 -0.119055,0 -0.223756,-0.0613543 -0.284283,-0.154157l-0.0785394 0c-0.0605157,0.0928031 -0.165228,0.154157 -0.284295,0.154157 -0.119043,0 -0.223744,-0.0613543 -0.28426,-0.154157l-0.0785748 0c-0.0605157,0.0928031 -0.165205,0.154157 -0.284272,0.154157 -0.119043,0 -0.223756,-0.0613543 -0.284272,-0.154157l-0.0785512 0c-0.0605276,0.0928031 -0.165228,0.154157 -0.284272,0.154157 -0.119067,0 -0.223768,-0.0613543 -0.284283,-0.154157l-0.0785512 0c-0.0605276,0.0928031 -0.165228,0.154157 -0.284272,0.154157 -0.119067,0 -0.22378,-0.0613543 -0.284295,-0.154157l-0.0785394 0c-0.0605276,0.0928031 -0.165228,0.154157 -0.284283,0.154157 -0.119055,0 -0.223756,-0.0613543 -0.284283,-0.154157l-0.0785512 0c-0.0605157,0.0928031 -0.165217,0.154157 -0.284272,0.154157 -0.119055,0 -0.223756,-0.0613543 -0.284283,-0.154157l-0.0108386 0 0 -0.41639z"/>
   <path id="_330258840" class="fil8" d="M0.853331 2.10345l0.0108386 0c0.0605276,0.0928071 0.165228,0.154161 0.284283,0.154161 0.119055,0 0.223756,-0.0613543 0.284272,-0.154161l0.0785512 0c0.0605276,0.0928071 0.165228,0.154161 0.284283,0.154161 0.119055,0 0.223756,-0.0613543 0.284283,-0.154161l0.0785394 0c0.0605157,0.0928071 0.165228,0.154161 0.284295,0.154161 0.119043,0 0.223744,-0.0613543 0.284272,-0.154161l0.0785512 0c0.0605157,0.0928071 0.165217,0.154161 0.284283,0.154161 0.119043,0 0.223744,-0.0613543 0.284272,-0.154161l0.0785512 0c0.0605157,0.0928071 0.165228,0.154161 0.284272,0.154161 0.119067,0 0.223756,-0.0613543 0.284272,-0.154161l0.0785748 0c0.0605157,0.0928071 0.165217,0.154161 0.28426,0.154161 0.119067,0 0.22378,-0.0613543 0.284295,-0.154161l0.0785394 0c0.0605276,0.0928071 0.165228,0.154161 0.284283,0.154161 0.119055,0 0.223756,-0.0613543 0.284283,-0.154161l0.078563 0c0.0605157,0.0928071 0.165205,0.154161 0.284272,0.154161 0.119043,0 0.223756,-0.0613543 0.284272,-0.154161l0.0108386 0 0 0.41639 -0.0108386 0c-0.0605157,0.0928031 -0.165228,0.154157 -0.284272,0.154157 -0.119067,0 -0.223756,-0.0613543 -0.284272,-0.154157l-0.078563 0c-0.0605276,0.0928031 -0.165228,0.154157 -0.284283,0.154157 -0.119055,0 -0.223756,-0.0613543 -0.284283,-0.154157l-0.0785394 0c-0.0605157,0.0928031 -0.165228,0.154157 -0.284295,0.154157 -0.119043,0 -0.223744,-0.0613543 -0.28426,-0.154157l-0.0785748 0c-0.0605157,0.0928031 -0.165205,0.154157 -0.284272,0.154157 -0.119043,0 -0.223756,-0.0613543 -0.284272,-0.154157l-0.0785512 0c-0.0605276,0.0928031 -0.165228,0.154157 -0.284272,0.154157 -0.119067,0 -0.223768,-0.0613543 -0.284283,-0.154157l-0.0785512 0c-0.0605276,0.0928031 -0.165228,0.154157 -0.284272,0.154157 -0.119067,0 -0.22378,-0.0613543 -0.284295,-0.154157l-0.0785394 0c-0.0605276,0.0928031 -0.165228,0.154157 -0.284283,0.154157 -0.119055,0 -0.223756,-0.0613543 -0.284283,-0.154157l-0.0785512 0c-0.0605157,0.0928031 -0.165217,0.154157 -0.284272,0.154157 -0.119055,0 -0.223756,-0.0613543 -0.284283,-0.154157l-0.0108386 0 0 -0.41639z"/>
   <path id="_330258384" class="fil9" d="M0.853331 1.69933l0.0108386 0c0.0605276,0.0928071 0.165228,0.154161 0.284283,0.154161 0.119055,0 0.223756,-0.0613543 0.284272,-0.154161l0.0785512 0c0.0605276,0.0928071 0.165228,0.154161 0.284283,0.154161 0.119055,0 0.223756,-0.0613543 0.284283,-0.154161l0.0785394 0c0.0605157,0.0928071 0.165228,0.154161 0.284295,0.154161 0.119043,0 0.223744,-0.0613543 0.284272,-0.154161l0.0785512 0c0.0605157,0.0928071 0.165217,0.154161 0.284283,0.154161 0.119043,0 0.223744,-0.0613543 0.284272,-0.154161l0.0785512 0c0.0605157,0.0928071 0.165228,0.154161 0.284272,0.154161 0.119067,0 0.223756,-0.0613543 0.284272,-0.154161l0.0785748 0c0.0605157,0.0928071 0.165217,0.154161 0.28426,0.154161 0.119067,0 0.22378,-0.0613543 0.284295,-0.154161l0.0785394 0c0.0605276,0.0928071 0.165228,0.154161 0.284283,0.154161 0.119055,0 0.223756,-0.0613543 0.284283,-0.154161l0.078563 0c0.0605157,0.0928071 0.165205,0.154161 0.284272,0.154161 0.119043,0 0.223756,-0.0613543 0.284272,-0.154161l0.0108386 0 0 0.41639 -0.0108386 0c-0.0605157,0.0928031 -0.165228,0.154157 -0.284272,0.154157 -0.119067,0 -0.223756,-0.0613543 -0.284272,-0.154157l-0.078563 0c-0.0605276,0.0928031 -0.165228,0.154157 -0.284283,0.154157 -0.119055,0 -0.223756,-0.0613543 -0.284283,-0.154157l-0.0785394 0c-0.0605157,0.0928031 -0.165228,0.154157 -0.284295,0.154157 -0.119043,0 -0.223744,-0.0613543 -0.28426,-0.154157l-0.0785748 0c-0.0605157,0.0928031 -0.165205,0.154157 -0.284272,0.154157 -0.119043,0 -0.223756,-0.0613543 -0.284272,-0.154157l-0.0785512 0c-0.0605276,0.0928031 -0.165228,0.154157 -0.284272,0.154157 -0.119067,0 -0.223768,-0.0613543 -0.284283,-0.154157l-0.0785512 0c-0.0605276,0.0928031 -0.165228,0.154157 -0.284272,0.154157 -0.119067,0 -0.22378,-0.0613543 -0.284295,-0.154157l-0.0785394 0c-0.0605276,0.0928031 -0.165228,0.154157 -0.284283,0.154157 -0.119055,0 -0.223756,-0.0613543 -0.284283,-0.154157l-0.0785512 0c-0.0605157,0.0928031 -0.165217,0.154157 -0.284272,0.154157 -0.119055,0 -0.223756,-0.0613543 -0.284283,-0.154157l-0.0108386 0 0 -0.41639z"/>
   <path id="_330258576" class="fil10" d="M0.853331 1.29521l0.0108386 0c0.0605276,0.0928071 0.165228,0.154161 0.284283,0.154161 0.119055,0 0.223756,-0.0613543 0.284272,-0.154161l0.0785512 0c0.0605276,0.0928071 0.165228,0.154161 0.284283,0.154161 0.119055,0 0.223756,-0.0613543 0.284283,-0.154161l0.0785394 0c0.0605157,0.0928071 0.165228,0.154161 0.284295,0.154161 0.119043,0 0.223744,-0.0613543 0.284272,-0.154161l0.0785512 0c0.0605157,0.0928071 0.165217,0.154161 0.284283,0.154161 0.119043,0 0.223744,-0.0613543 0.284272,-0.154161l0.0785512 0c0.0605157,0.0928071 0.165228,0.154161 0.284272,0.154161 0.119067,0 0.223756,-0.0613543 0.284272,-0.154161l0.0785748 0c0.0605157,0.0928071 0.165217,0.154161 0.28426,0.154161 0.119067,0 0.22378,-0.0613543 0.284295,-0.154161l0.0785394 0c0.0605276,0.0928071 0.165228,0.154161 0.284283,0.154161 0.119055,0 0.223756,-0.0613543 0.284283,-0.154161l0.078563 0c0.0605157,0.0928071 0.165205,0.154161 0.284272,0.154161 0.119043,0 0.223756,-0.0613543 0.284272,-0.154161l0.0108386 0 0 0.41639 -0.0108386 0c-0.0605157,0.0928031 -0.165228,0.154157 -0.284272,0.154157 -0.119067,0 -0.223756,-0.0613543 -0.284272,-0.154157l-0.078563 0c-0.0605276,0.0928031 -0.165228,0.154157 -0.284283,0.154157 -0.119055,0 -0.223756,-0.0613543 -0.284283,-0.154157l-0.0785394 0c-0.0605157,0.0928031 -0.165228,0.154157 -0.284295,0.154157 -0.119043,0 -0.223744,-0.0613543 -0.28426,-0.154157l-0.0785748 0c-0.0605157,0.0928031 -0.165205,0.154157 -0.284272,0.154157 -0.119043,0 -0.223756,-0.0613543 -0.284272,-0.154157l-0.0785512 0c-0.0605276,0.0928031 -0.165228,0.154157 -0.284272,0.154157 -0.119067,0 -0.223768,-0.0613543 -0.284283,-0.154157l-0.0785512 0c-0.0605276,0.0928031 -0.165228,0.154157 -0.284272,0.154157 -0.119067,0 -0.22378,-0.0613543 -0.284295,-0.154157l-0.0785394 0c-0.0605276,0.0928031 -0.165228,0.154157 -0.284283,0.154157 -0.119055,0 -0.223756,-0.0613543 -0.284283,-0.154157l-0.0785512 0c-0.0605157,0.0928031 -0.165217,0.154157 -0.284272,0.154157 -0.119055,0 -0.223756,-0.0613543 -0.284283,-0.154157l-0.0108386 0 0 -0.41639z"/>
   <g>
    <path id="_330258408" class="fil11" d="M2.76622 2.19607c0,0 0.660811,-0.445067 1.31367,-0.39685l0.270791 0.0370866c0,0 0.270787,0.0667677 0.868012,0.278209 0,0 0.523028,-0.382079 0.560126,-0.300465 0,0 -0.295748,0.248421 -0.277705,0.38202l-0.000503937 0.415516c0,0 -0.267886,-0.182902 -0.267886,-0.410815l-0.56674 0.0658346 0.00742126 0.0927402 -0.133543 -0.051937 -0.348689 0.0185512 0.363531 0.178055c0,0 -0.396921,0.0519331 -0.678839,-0.178055 0,0 -0.393193,0.118709 -0.76785,0.0259646l0.24111 -0.0853189 -0.582906 -0.0705354z"/>
    <path id="_330257808" class="fil12" d="M4.07433 1.81962c0,0 0.13863,-0.301098 0.28724,-0.307272l-0.0164528 0.344362 -0.270787 -0.0370906z"/>
    <circle id="_330257952" class="fil13" cx="3.36768" cy="2.12194" r="0.0315364"/>
   </g>
   <g>
    <path id="_330257856" class="fil11" d="M2.50583 1.9172c0,0 -0.360772,-0.242984 -0.717201,-0.216661l-0.147839 0.020248c0,0 -0.147839,0.0364528 -0.473898,0.15189 0,0 -0.285547,-0.208598 -0.305799,-0.164039 0,0 0.161461,0.135626 0.15161,0.208563l0.000275591 0.226854c0,0 0.146256,-0.0998543 0.146256,-0.224283l0.309413 0.0359409 -0.00405118 0.0506299 0.0729055 -0.0283543 0.19037 0.010126 -0.198472 0.0972126c0,0 0.216701,0.0283543 0.370614,-0.0972126 0,0 0.214665,0.064811 0.419213,0.0141772l-0.131638 -0.0465787 0.31824 -0.0385118z"/>
    <path id="_330257784" class="fil12" d="M1.79166 1.71168c0,0 -0.075685,-0.164386 -0.156823,-0.167756l0.00898425 0.188004 0.147839 -0.020248z"/>
    <circle id="_330257904" class="fil13" cx="2.17746" cy="1.87674" r="0.0172174"/>
   </g>
  </g>
 </g>
 <rect class="fil14" width="6.82666" height="6.82666"/>
</svg>
