<?xml version="1.0" encoding="UTF-8"?>
<!DOCTYPE svg PUBLIC "-//W3C//DTD SVG 1.1//EN" "http://www.w3.org/Graphics/SVG/1.1/DTD/svg11.dtd">
<!-- Creator: CorelDRAW -->
<svg xmlns="http://www.w3.org/2000/svg" xml:space="preserve" width="6.82666in" height="6.82666in" style="shape-rendering:geometricPrecision; text-rendering:geometricPrecision; image-rendering:optimizeQuality; fill-rule:evenodd; clip-rule:evenodd"
viewBox="0 0 6.82666 6.82666"
 xmlns:xlink="http://www.w3.org/1999/xlink">
 <defs>
  <style type="text/css">
   <![CDATA[
    .fil5 {fill:none}
    .fil3 {fill:#D50000}
    .fil1 {fill:#F9A825}
    .fil0 {fill:#FFF176}
    .fil4 {fill:#FFFDE7}
    .fil2 {fill:#263238;fill-rule:nonzero}
   ]]>
  </style>
 </defs>
 <g id="Layer_x0020_1">
  <metadata id="CorelCorpID_0Corel-Layer"/>
  <rect class="fil0" x="2.02667" y="1.06666" width="2.90104" height="4.69334"/>
  <path class="fil1" d="M2.02667 1.06666l-0.148126 0c-0.00762205,-0.000114173 -0.015374,0.000582677 -0.0231496,0.00217717 -0.0577087,0.0118346 -0.0948976,0.0682126 -0.083063,0.125921l0.000346457 -7.08661e-005c0.0134961,0.0658268 0.0237835,0.132894 0.0306772,0.201016 0.00659449,0.0651811 0.00998031,0.133311 0.00998031,0.204291 0,0.345453 -0.0874331,0.671185 -0.241217,0.956185 -0.158772,0.294248 -0.388232,0.545409 -0.665201,0.730398 -0.0320197,0.0184094 -0.0535827,0.0529567 -0.0535827,0.0925394l0 2.27421c0,0.0589094 0.0477598,0.106669 0.106669,0.106669l2.13333 0c0.0589094,0 0.106669,-0.0477598 0.106669,-0.106669l0 -2.88001c0,-0.340535 -0.151421,-0.814811 -0.389646,-1.17214 -0.205256,-0.307882 -0.478031,-0.53452 -0.783689,-0.53452zm0.987606 2.26761c0.0436654,0 0.079063,0.0353976 0.079063,0.079063 0,0.0436654 -0.0353976,0.079063 -0.079063,0.079063 -0.0436654,0 -0.079063,-0.0353976 -0.079063,-0.079063 0,-0.0436654 0.0353976,-0.079063 0.079063,-0.079063zm0 1.71894c0.0436654,0 0.079063,0.0353976 0.079063,0.079063 0,0.0436654 -0.0353976,0.079063 -0.079063,0.079063 -0.0436654,0 -0.079063,-0.0353976 -0.079063,-0.079063 0,-0.0436654 0.0353976,-0.079063 0.079063,-0.079063zm0 -0.859472c0.0436654,0 0.079063,0.0353976 0.079063,0.079063 0,0.0436654 -0.0353976,0.079063 -0.079063,0.079063 -0.0436654,0 -0.079063,-0.0353976 -0.079063,-0.079063 0,-0.0436654 0.0353976,-0.079063 0.079063,-0.079063zm-0.294272 0.656102l-1.38667 0c-0.0589094,0 -0.106669,0.0477598 -0.106669,0.106669l0 0.376815c0,0.0589094 0.0477598,0.106669 0.106669,0.106669l1.38667 0c0.0589094,0 0.106669,-0.0477598 0.106669,-0.106669l0 -0.376815c0,-0.0589094 -0.0477598,-0.106669 -0.106669,-0.106669zm0 -0.718256l-1.38667 0c-0.0589094,0 -0.106669,0.0477598 -0.106669,0.106669l0 0.376811c0,0.0589094 0.0477598,0.106669 0.106669,0.106669l1.38667 0c0.0589094,0 0.106669,-0.0477598 0.106669,-0.106669l0 -0.376811c0,-0.0589094 -0.0477598,-0.106669 -0.106669,-0.106669zm0 -0.718264l-1.38667 0c-0.0589094,0 -0.106669,0.0477598 -0.106669,0.106669l0 0.376815c0,0.0589094 0.0477598,0.106669 0.106669,0.106669l1.38667 0c0.0589094,0 0.106669,-0.0477598 0.106669,-0.106669l0 -0.376815c0,-0.0589094 -0.0477598,-0.106669 -0.106669,-0.106669zm0.00326378 -1.38666l-0.426492 0c-0.0586693,0 -0.106665,0.0479961 -0.106665,0.106665l0 0.960004c0,0.0586693 0.0479961,0.106665 0.106665,0.106665l0.426492 0c0.0586693,0 0.106665,-0.0479961 0.106665,-0.106665l0 -0.960004c0,-0.0586693 -0.0479961,-0.106665 -0.106665,-0.106665z"/>
  <path class="fil1" d="M4.8566 1.06666l0.148126 0c0.00762205,-0.000114173 0.015374,0.000582677 0.0231496,0.00217717 0.0577087,0.0118346 0.0948976,0.0682126 0.083063,0.125921l-0.000346457 -7.08661e-005c-0.0134961,0.0658268 -0.0237835,0.132894 -0.0306772,0.201016 -0.00659449,0.0651811 -0.00998031,0.133311 -0.00998031,0.204291 0,0.345453 0.0874331,0.671185 0.241217,0.956185 0.158772,0.294248 0.388232,0.545409 0.665201,0.730398 0.0320197,0.0184094 0.0535827,0.0529567 0.0535827,0.0925394l0 2.27421c0,0.0589094 -0.0477598,0.106669 -0.106669,0.106669l-2.13333 0c-0.0589094,0 -0.106669,-0.0477598 -0.106669,-0.106669l0 -2.88001c0,-0.340535 0.151421,-0.814811 0.389646,-1.17214 0.205256,-0.307882 0.478031,-0.53452 0.783689,-0.53452zm-0.693335 3.78319l1.38667 0c0.0589094,0 0.106669,0.0477598 0.106669,0.106669l0 0.376815c0,0.0589094 -0.0477598,0.106669 -0.106669,0.106669l-1.38667 0c-0.0589094,0 -0.106669,-0.0477598 -0.106669,-0.106669l0 -0.376815c0,-0.0589094 0.0477598,-0.106669 0.106669,-0.106669zm0 -0.718256l1.38667 0c0.0589094,0 0.106669,0.0477598 0.106669,0.106669l0 0.376811c0,0.0589094 -0.0477598,0.106669 -0.106669,0.106669l-1.38667 0c-0.0589094,0 -0.106669,-0.0477598 -0.106669,-0.106669l0 -0.376811c0,-0.0589094 0.0477598,-0.106669 0.106669,-0.106669zm0 -0.718264l1.38667 0c0.0589094,0 0.106669,0.0477598 0.106669,0.106669l0 0.376815c0,0.0589094 -0.0477598,0.106669 -0.106669,0.106669l-1.38667 0c-0.0589094,0 -0.106669,-0.0477598 -0.106669,-0.106669l0 -0.376815c0,-0.0589094 0.0477598,-0.106669 0.106669,-0.106669zm-0.00326378 -1.38666l0.426492 0c0.0586693,0 0.106665,0.0479961 0.106665,0.106665l0 0.960004c0,0.0586693 -0.0479961,0.106665 -0.106665,0.106665l-0.426492 0c-0.0586693,0 -0.106665,-0.0479961 -0.106665,-0.106665l0 -0.960004c0,-0.0586693 0.0479961,-0.106665 0.106665,-0.106665z"/>
  <path class="fil2" d="M3.14667 3.36c-0.0294528,0 -0.0533346,0.0238819 -0.0533346,0.0533346 0,0.0294528 0.0238819,0.0533346 0.0533346,0.0533346l0.533331 0c0.0294528,0 0.0533346,-0.0238819 0.0533346,-0.0533346 0,-0.0294528 -0.0238819,-0.0533346 -0.0533346,-0.0533346l-0.533331 0z"/>
  <path class="fil2" d="M3.14667 4.21947c-0.0294528,0 -0.0533346,0.0238819 -0.0533346,0.0533346 0,0.0294528 0.0238819,0.0533346 0.0533346,0.0533346l0.533331 0c0.0294528,0 0.0533346,-0.0238819 0.0533346,-0.0533346 0,-0.0294528 -0.0238819,-0.0533346 -0.0533346,-0.0533346l-0.533331 0z"/>
  <path class="fil2" d="M3.14667 5.07894c-0.0294528,0 -0.0533346,0.0238819 -0.0533346,0.0533346 0,0.0294528 0.0238819,0.0533346 0.0533346,0.0533346l0.533331 0c0.0294528,0 0.0533346,-0.0238819 0.0533346,-0.0533346 0,-0.0294528 -0.0238819,-0.0533346 -0.0533346,-0.0533346l-0.533331 0z"/>
  <path class="fil3" d="M2.82993 3.09333l0 -0.960004c0,-0.0586693 -0.0479961,-0.106665 -0.106665,-0.106665l-0.426492 0c-0.0586693,0 -0.106665,0.0479961 -0.106665,0.106665l0 0.960004c0,0.0586693 0.0479961,0.106665 0.106665,0.106665l0.426492 0c0.0586693,0 0.106665,-0.0479961 0.106665,-0.106665z"/>
  <path class="fil3" d="M4.69316 3.09333l0 -0.960004c0,-0.0586693 -0.0479961,-0.106665 -0.106665,-0.106665l-0.426492 0c-0.0586693,0 -0.106665,0.0479961 -0.106665,0.106665l0 0.960004c0,0.0586693 0.0479961,0.106665 0.106665,0.106665l0.426492 0c0.0586693,0 0.106665,-0.0479961 0.106665,-0.106665z"/>
  <path class="fil4" d="M5.6566 3.89681l0 -0.376815c0,-0.0589094 -0.0477598,-0.106669 -0.106669,-0.106669l-1.38667 0c-0.0589094,0 -0.106669,0.0477598 -0.106669,0.106669l0 0.376815c0,0.0589094 0.0477598,0.106669 0.106669,0.106669l1.38667 0c0.0589094,0 0.106669,-0.0477598 0.106669,-0.106669z"/>
  <path class="fil4" d="M5.6566 4.61507l0 -0.376811c0,-0.0589094 -0.0477598,-0.106669 -0.106669,-0.106669l-1.38667 0c-0.0589094,0 -0.106669,0.0477598 -0.106669,0.106669l0 0.376811c0,0.0589094 0.0477598,0.106669 0.106669,0.106669l1.38667 0c0.0589094,0 0.106669,-0.0477598 0.106669,-0.106669z"/>
  <path class="fil4" d="M5.6566 4.95651c0,-0.0589094 -0.0477598,-0.106669 -0.106669,-0.106669l-1.38667 0c-0.0589094,0 -0.106669,0.0477598 -0.106669,0.106669l0 0.376815c0,0.0589094 0.0477598,0.106669 0.106669,0.106669l1.38667 0c0.0589094,0 0.106669,-0.0477598 0.106669,-0.106669l0 -0.376815z"/>
  <path class="fil4" d="M2.82667 5.33333l0 -0.376815c0,-0.0589094 -0.0477598,-0.106669 -0.106669,-0.106669l-1.38667 0c-0.0589094,0 -0.106669,0.0477598 -0.106669,0.106669l0 0.376815c0,0.0589094 0.0477598,0.106669 0.106669,0.106669l1.38667 0c0.0589094,0 0.106669,-0.0477598 0.106669,-0.106669z"/>
  <path class="fil4" d="M2.82667 4.61507l0 -0.376811c0,-0.0589094 -0.0477598,-0.106669 -0.106669,-0.106669l-1.38667 0c-0.0589094,0 -0.106669,0.0477598 -0.106669,0.106669l0 0.376811c0,0.0589094 0.0477598,0.106669 0.106669,0.106669l1.38667 0c0.0589094,0 0.106669,-0.0477598 0.106669,-0.106669z"/>
  <path class="fil4" d="M2.82667 3.89681l0 -0.376815c0,-0.0589094 -0.0477598,-0.106669 -0.106669,-0.106669l-1.38667 0c-0.0589094,0 -0.106669,0.0477598 -0.106669,0.106669l0 0.376815c0,0.0589094 0.0477598,0.106669 0.106669,0.106669l1.38667 0c0.0589094,0 0.106669,-0.0477598 0.106669,-0.106669z"/>
 </g>
 <rect class="fil5" width="6.82666" height="6.82666"/>
</svg>
