<?xml version="1.0" encoding="UTF-8"?>
<!DOCTYPE svg PUBLIC "-//W3C//DTD SVG 1.1//EN" "http://www.w3.org/Graphics/SVG/1.1/DTD/svg11.dtd">
<!-- Creator: CorelDRAW -->
<svg xmlns="http://www.w3.org/2000/svg" xml:space="preserve" width="6.82666in" height="6.82666in" style="shape-rendering:geometricPrecision; text-rendering:geometricPrecision; image-rendering:optimizeQuality; fill-rule:evenodd; clip-rule:evenodd"
viewBox="0 0 6.82666 6.82666"
 xmlns:xlink="http://www.w3.org/1999/xlink">
 <defs>
  <style type="text/css">
   <![CDATA[
    .fil5 {fill:none}
    .fil0 {fill:#004D40}
    .fil4 {fill:#A7FFEB}
    .fil1 {fill:#00695C;fill-rule:nonzero}
    .fil3 {fill:#CFC147;fill-rule:nonzero}
    .fil2 {fill:#FFEE58;fill-rule:nonzero}
   ]]>
  </style>
 </defs>
 <g id="Layer_x0020_1">
  <metadata id="CorelCorpID_0Corel-Layer"/>
  <path class="fil0" d="M5.21172 3.11032c0.0514685,-0.0218976 0.0754409,-0.0813858 0.0535394,-0.13285 -0.0299921,-0.0705157 -0.063685,-0.123091 -0.0973701,-0.175661 -0.0564843,-0.0881378 -0.112972,-0.176291 -0.134409,-0.358764 0.00852362,-0.031252 -0.043437,-0.0779843 -0.0736575,-0.0863622 -0.0477717,-0.0162283 -0.12276,-0.0284803 -0.21211,-0.036622 -0.0981575,-0.00894094 -0.212815,-0.0135945 -0.325925,-0.0135945 -0.139819,0 -0.347429,0.0837087 -0.526276,0.22472 -0.14628,0.115339 -0.277358,0.270713 -0.341858,0.452228 -0.0186142,0.0527835 0.00908268,0.110669 0.0618661,0.129283 0.0407244,0.0143622 1.51856,0.0306575 1.5962,-0.00237795z"/>
  <path class="fil1" d="M5.53065 3.30666l0 -0.195646c0,-0.0582559 -0.0467087,-0.105598 -0.104713,-0.106646 -0.100374,-0.0091063 -0.368783,-0.0163937 -0.688563,-0.0217559 -0.450291,-0.00754724 -0.978094,-0.0114961 -1.29463,-0.0114961 -0.321657,0 -0.812528,0.0548819 -1.24633,0.147335 -0.240181,0.051189 -0.464732,0.114748 -0.637283,0.188209l3.97152 0z"/>
  <path class="fil2" d="M5.88119 4.57981c-0.125469,0.0255512 -0.456689,0.0456575 -0.850091,0.060248 -0.537043,0.0199134 -1.18469,0.0303189 -1.58186,0.0303189 -0.398787,0 -1.0053,-0.149476 -1.53963,-0.401272 -0.44537,-0.209874 -0.844697,-0.492996 -1.0418,-0.824315l-0.000169291 9.84252e-005c-0.0301024,-0.0506339 -0.0134606,-0.116094 0.0371732,-0.146197 0.0175118,-0.0104094 0.0367953,-0.0152244 0.0557756,-0.0149843l4.90678 0c0.0589094,0 0.106669,0.0477598 0.106669,0.106669l0 1.08366c0,0.0542205 -0.0404606,0.0989921 -0.0928346,0.105776z"/>
  <path class="fil3" d="M5.88119 4.57981c-0.125469,0.0255512 -0.456689,0.0456575 -0.850091,0.060248 -0.537043,0.0199134 -1.18469,0.0303189 -1.58186,0.0303189 -0.398787,0 -1.0053,-0.149476 -1.53963,-0.401272 -0.44537,-0.209874 -0.844697,-0.492996 -1.0418,-0.824315l-0.000169291 9.84252e-005c-0.0119921,-0.0201732 -0.0165591,-0.0426969 -0.0145197,-0.0644016 0.793413,0.405217 2.31234,0.735445 5.12091,0.777949l0 0.315598c0,0.0542205 -0.0404606,0.0989921 -0.0928346,0.105776z"/>
  <path class="fil4" d="M4.38217 2.45333l0.350264 0 0 0.404728 -0.552626 0 0 -0.202366c0,-0.111504 0.0908583,-0.202362 0.202362,-0.202362z"/>
 </g>
 <rect class="fil5" width="6.82666" height="6.82666"/>
</svg>
