<?xml version="1.0" encoding="UTF-8"?>
<!DOCTYPE svg PUBLIC "-//W3C//DTD SVG 1.1//EN" "http://www.w3.org/Graphics/SVG/1.1/DTD/svg11.dtd">
<!-- Creator: CorelDRAW -->
<svg xmlns="http://www.w3.org/2000/svg" xml:space="preserve" width="6.82666in" height="6.82666in" style="shape-rendering:geometricPrecision; text-rendering:geometricPrecision; image-rendering:optimizeQuality; fill-rule:evenodd; clip-rule:evenodd"
viewBox="0 0 6.82666 6.82666"
 xmlns:xlink="http://www.w3.org/1999/xlink">
 <defs>
  <style type="text/css">
   <![CDATA[
    .fil7 {fill:none}
    .fil6 {fill:#0288D1}
    .fil3 {fill:#81D4FA}
    .fil5 {fill:#B2EBF2}
    .fil2 {fill:#B3E5FC}
    .fil4 {fill:#E0F7FA}
    .fil0 {fill:#039BE5;fill-rule:nonzero}
    .fil1 {fill:#81D4FA;fill-rule:nonzero}
   ]]>
  </style>
 </defs>
 <g id="Layer_x0020_1">
  <metadata id="CorelCorpID_0Corel-Layer"/>
  <g id="_330264072">
   <path id="_330175184" class="fil0" d="M5.86672 2.55614c-0.326343,0.0864921 -0.574299,0.0406929 -0.568831,0.0364882 0.0588819,-0.156894 0.0677441,-0.331378 0.0283465,-0.492591 -0.0271102,-0.110929 -0.076874,-0.215929 -0.148717,-0.305161 -0.0727244,-0.0903228 -0.16785,-0.164555 -0.284799,-0.212713 -0.0680827,-0.0280394 -0.330224,-0.100768 -0.694563,0.0985866 0.251161,0.0340827 0.549878,0.167571 0.58752,0.448776 0.0321693,0.240311 -0.0703425,0.37139 -0.235929,0.438248 -0.162276,0.0655197 -0.382933,0.0790118 -0.607937,0.0710551 0.0313661,-0.119709 0.032063,-0.247016 0.00297638,-0.366047 -0.0229331,-0.0938465 -0.064248,-0.182992 -0.123504,-0.259866 -0.213972,-0.277598 -0.60228,-0.260031 -0.883898,-0.0992992 0.221673,0.023685 0.477378,0.143193 0.510394,0.389862 0.0255433,0.190783 -0.0492362,0.298665 -0.173732,0.35613 -0.117764,0.0543583 -0.278256,0.0723465 -0.448138,0.0724134 0.030811,-0.10815 0.0325827,-0.224067 0.00617323,-0.33213 -0.0200276,-0.0819567 -0.056126,-0.159835 -0.107917,-0.227024 -0.180768,-0.234512 -0.573756,-0.26474 -0.780197,-0.0727087 0.178866,0.031815 0.4065,0.124957 0.434165,0.331634 0.0296929,0.221799 -0.121504,0.308307 -0.322161,0.335173 -0.241087,0.0322756 -0.535909,0.0735394 -1.05597,-0.0647047 0.156909,0.280028 0.927386,0.289894 1.01197,0.290654 0.323051,0.00290551 0.668358,0.0289646 0.855661,-0.0334724 0.175429,0.0569173 1.13661,0.0140118 1.45543,-0.049752 0.553264,0.0701024 1.08349,-0.0646732 1.54366,-0.353551z"/>
   <path id="_330174176" class="fil1" d="M5.93339 2.5228c-0.326343,0.0864921 -0.574299,0.0406929 -0.568831,0.0364882 0.0588819,-0.156894 0.0677441,-0.331378 0.0283465,-0.492591 -0.0271102,-0.110929 -0.076874,-0.215929 -0.148717,-0.305161 -0.0727244,-0.0903228 -0.16785,-0.164555 -0.284799,-0.212713 -0.0680827,-0.0280394 -0.330224,-0.100768 -0.694563,0.0985866 0.251161,0.0340827 0.549878,0.167571 0.58752,0.448776 0.0321693,0.240311 -0.0703425,0.37139 -0.235929,0.438248 -0.162276,0.0655197 -0.382933,0.0790118 -0.607937,0.0710551 0.0313661,-0.119709 0.032063,-0.247016 0.00297638,-0.366047 -0.0229331,-0.0938465 -0.064248,-0.182992 -0.123504,-0.259866 -0.213972,-0.277598 -0.60228,-0.260031 -0.883898,-0.0992992 0.221673,0.023685 0.477378,0.143193 0.510394,0.389862 0.0255433,0.190783 -0.0492362,0.298665 -0.173732,0.35613 -0.117764,0.0543583 -0.278256,0.0723465 -0.448138,0.0724134 0.030811,-0.10815 0.0325827,-0.224067 0.00617323,-0.33213 -0.0200276,-0.0819567 -0.056126,-0.159835 -0.107917,-0.227024 -0.180768,-0.234512 -0.573756,-0.26474 -0.780197,-0.0727087 0.178866,0.031815 0.4065,0.124957 0.434165,0.331634 0.0296929,0.221799 -0.121504,0.308307 -0.322161,0.335173 -0.241087,0.0322756 -0.535909,0.0735394 -1.05597,-0.0647047 0.156909,0.280028 0.927386,0.289894 1.01197,0.290654 0.323051,0.00290551 0.668358,0.0289646 0.855661,-0.0334724 0.175429,0.0569173 1.13661,0.0140118 1.45543,-0.049752 0.553264,0.0701024 1.08349,-0.0646732 1.54366,-0.353551z"/>
   <path id="_330174368" class="fil2" d="M0.853331 2.66161l0.0108386 0c0.0605276,0.0928071 0.165228,0.154161 0.284283,0.154161 0.119055,0 0.223756,-0.0613543 0.284272,-0.154161l0.0785512 0c0.0605276,0.0928071 0.165228,0.154161 0.284283,0.154161 0.119055,0 0.223756,-0.0613543 0.284283,-0.154161l0.0785394 0c0.0605157,0.0928071 0.165228,0.154161 0.284295,0.154161 0.119043,0 0.223744,-0.0613543 0.284272,-0.154161l0.0785512 0c0.0605157,0.0928071 0.165217,0.154161 0.284283,0.154161 0.119043,0 0.223744,-0.0613543 0.284272,-0.154161l0.0785512 0c0.0605157,0.0928071 0.165228,0.154161 0.284272,0.154161 0.119067,0 0.223756,-0.0613543 0.284272,-0.154161l0.0785748 0c0.0605157,0.0928071 0.165217,0.154161 0.28426,0.154161 0.119067,0 0.22378,-0.0613543 0.284295,-0.154161l0.0785394 0c0.0605276,0.0928071 0.165228,0.154161 0.284283,0.154161 0.119055,0 0.223756,-0.0613543 0.284283,-0.154161l0.078563 0c0.0605157,0.0928071 0.165205,0.154161 0.284272,0.154161 0.119043,0 0.223756,-0.0613543 0.284272,-0.154161l0.0108386 0 0 0.41639 0 0.416386 0 0.41639 0 0.416386 0 0.41639 0 0.416386 -0.0108386 0c-0.0605157,0.0928071 -0.165228,0.154161 -0.284272,0.154161 -0.119067,0 -0.223756,-0.0613543 -0.284272,-0.154161l-0.078563 0c-0.0605276,0.0928071 -0.165228,0.154161 -0.284283,0.154161 -0.119055,0 -0.223756,-0.0613543 -0.284283,-0.154161l-0.0785394 0c-0.0605157,0.0928071 -0.165228,0.154161 -0.284295,0.154161 -0.119043,0 -0.223744,-0.0613543 -0.28426,-0.154161l-0.0785748 0c-0.0605157,0.0928071 -0.165205,0.154161 -0.284272,0.154161 -0.119043,0 -0.223756,-0.0613543 -0.284272,-0.154161l-0.0785512 0c-0.0605276,0.0928071 -0.165228,0.154161 -0.284272,0.154161 -0.119067,0 -0.223768,-0.0613543 -0.284283,-0.154161l-0.0785512 0c-0.0605276,0.0928071 -0.165228,0.154161 -0.284272,0.154161 -0.119067,0 -0.22378,-0.0613543 -0.284295,-0.154161l-0.0785394 0c-0.0605276,0.0928071 -0.165228,0.154161 -0.284283,0.154161 -0.119055,0 -0.223756,-0.0613543 -0.284283,-0.154161l-0.0785512 0c-0.0605157,0.0928071 -0.165217,0.154161 -0.284272,0.154161 -0.119055,0 -0.223756,-0.0613543 -0.284283,-0.154161l-0.0108386 0 0 -0.416386 0 -0.41639 0 -0.416386 0 -0.41639 0 -0.416386 0 -0.41639z"/>
   <path id="_330174056" class="fil3" d="M0.853331 2.66161l0.0108386 0c0.0605276,0.0928071 0.165228,0.154161 0.284283,0.154161 0.119055,0 0.223756,-0.0613543 0.284272,-0.154161l0.0785512 0c0.0605276,0.0928071 0.165228,0.154161 0.284283,0.154161 0.119055,0 0.223756,-0.0613543 0.284283,-0.154161l0.0785394 0c0.0605157,0.0928071 0.165228,0.154161 0.284295,0.154161 0.119043,0 0.223744,-0.0613543 0.284272,-0.154161l0.0785512 0c0.0605157,0.0928071 0.165217,0.154161 0.284283,0.154161 0.119043,0 0.223744,-0.0613543 0.284272,-0.154161l0.0785512 0c0.0605157,0.0928071 0.165228,0.154161 0.284272,0.154161 0.119067,0 0.223756,-0.0613543 0.284272,-0.154161l0.0785748 0c0.0605157,0.0928071 0.165217,0.154161 0.28426,0.154161 0.119067,0 0.22378,-0.0613543 0.284295,-0.154161l0.0785394 0c0.0605276,0.0928071 0.165228,0.154161 0.284283,0.154161 0.119055,0 0.223756,-0.0613543 0.284283,-0.154161l0.078563 0c0.0605157,0.0928071 0.165205,0.154161 0.284272,0.154161 0.119043,0 0.223756,-0.0613543 0.284272,-0.154161l0.0108386 0 0 0.41639 -0.0108386 0c-0.0605157,0.0928031 -0.165228,0.154157 -0.284272,0.154157 -0.119067,0 -0.223756,-0.0613543 -0.284272,-0.154157l-0.078563 0c-0.0605276,0.0928031 -0.165228,0.154157 -0.284283,0.154157 -0.119055,0 -0.223756,-0.0613543 -0.284283,-0.154157l-0.0785394 0c-0.0605157,0.0928031 -0.165228,0.154157 -0.284295,0.154157 -0.119043,0 -0.223744,-0.0613543 -0.28426,-0.154157l-0.0785748 0c-0.0605157,0.0928031 -0.165205,0.154157 -0.284272,0.154157 -0.119043,0 -0.223756,-0.0613543 -0.284272,-0.154157l-0.0785512 0c-0.0605276,0.0928031 -0.165228,0.154157 -0.284272,0.154157 -0.119067,0 -0.223768,-0.0613543 -0.284283,-0.154157l-0.0785512 0c-0.0605276,0.0928031 -0.165228,0.154157 -0.284272,0.154157 -0.119067,0 -0.22378,-0.0613543 -0.284295,-0.154157l-0.0785394 0c-0.0605276,0.0928031 -0.165228,0.154157 -0.284283,0.154157 -0.119055,0 -0.223756,-0.0613543 -0.284283,-0.154157l-0.0785512 0c-0.0605157,0.0928031 -0.165217,0.154157 -0.284272,0.154157 -0.119055,0 -0.223756,-0.0613543 -0.284283,-0.154157l-0.0108386 0 0 -0.41639z"/>
   <path id="_330174416" class="fil4" d="M0.853331 3.078l0.0108386 0c0.0605276,0.0928031 0.165228,0.154157 0.284283,0.154157 0.119055,0 0.223756,-0.0613543 0.284272,-0.154157l0.0785512 0c0.0605276,0.0928031 0.165228,0.154157 0.284283,0.154157 0.119055,0 0.223756,-0.0613543 0.284283,-0.154157l0.0785394 0c0.0605157,0.0928031 0.165228,0.154157 0.284295,0.154157 0.119043,0 0.223744,-0.0613543 0.284272,-0.154157l0.0785512 0c0.0605157,0.0928031 0.165217,0.154157 0.284283,0.154157 0.119043,0 0.223744,-0.0613543 0.284272,-0.154157l0.0785512 0c0.0605157,0.0928031 0.165228,0.154157 0.284272,0.154157 0.119067,0 0.223756,-0.0613543 0.284272,-0.154157l0.0785748 0c0.0605157,0.0928031 0.165217,0.154157 0.28426,0.154157 0.119067,0 0.22378,-0.0613543 0.284295,-0.154157l0.0785394 0c0.0605276,0.0928031 0.165228,0.154157 0.284283,0.154157 0.119055,0 0.223756,-0.0613543 0.284283,-0.154157l0.078563 0c0.0605157,0.0928031 0.165205,0.154157 0.284272,0.154157 0.119043,0 0.223756,-0.0613543 0.284272,-0.154157l0.0108386 0 0 0.416386 -0.0108386 0c-0.0605157,0.0928071 -0.165228,0.154161 -0.284272,0.154161 -0.119067,0 -0.223756,-0.0613543 -0.284272,-0.154161l-0.078563 0c-0.0605276,0.0928071 -0.165228,0.154161 -0.284283,0.154161 -0.119055,0 -0.223756,-0.0613543 -0.284283,-0.154161l-0.0785394 0c-0.0605157,0.0928071 -0.165228,0.154161 -0.284295,0.154161 -0.119043,0 -0.223744,-0.0613543 -0.28426,-0.154161l-0.0785748 0c-0.0605157,0.0928071 -0.165205,0.154161 -0.284272,0.154161 -0.119043,0 -0.223756,-0.0613543 -0.284272,-0.154161l-0.0785512 0c-0.0605276,0.0928071 -0.165228,0.154161 -0.284272,0.154161 -0.119067,0 -0.223768,-0.0613543 -0.284283,-0.154161l-0.0785512 0c-0.0605276,0.0928071 -0.165228,0.154161 -0.284272,0.154161 -0.119067,0 -0.22378,-0.0613543 -0.284295,-0.154161l-0.0785394 0c-0.0605276,0.0928071 -0.165228,0.154161 -0.284283,0.154161 -0.119055,0 -0.223756,-0.0613543 -0.284283,-0.154161l-0.0785512 0c-0.0605157,0.0928071 -0.165217,0.154161 -0.284272,0.154161 -0.119055,0 -0.223756,-0.0613543 -0.284283,-0.154161l-0.0108386 0 0 -0.416386z"/>
   <path id="_330173864" class="fil5" d="M0.853331 3.49439l0.0108386 0c0.0605276,0.0928071 0.165228,0.154161 0.284283,0.154161 0.119055,0 0.223756,-0.0613543 0.284272,-0.154161l0.0785512 0c0.0605276,0.0928071 0.165228,0.154161 0.284283,0.154161 0.119055,0 0.223756,-0.0613543 0.284283,-0.154161l0.0785394 0c0.0605157,0.0928071 0.165228,0.154161 0.284295,0.154161 0.119043,0 0.223744,-0.0613543 0.284272,-0.154161l0.0785512 0c0.0605157,0.0928071 0.165217,0.154161 0.284283,0.154161 0.119043,0 0.223744,-0.0613543 0.284272,-0.154161l0.0785512 0c0.0605157,0.0928071 0.165228,0.154161 0.284272,0.154161 0.119067,0 0.223756,-0.0613543 0.284272,-0.154161l0.0785748 0c0.0605157,0.0928071 0.165217,0.154161 0.28426,0.154161 0.119067,0 0.22378,-0.0613543 0.284295,-0.154161l0.0785394 0c0.0605276,0.0928071 0.165228,0.154161 0.284283,0.154161 0.119055,0 0.223756,-0.0613543 0.284283,-0.154161l0.078563 0c0.0605157,0.0928071 0.165205,0.154161 0.284272,0.154161 0.119043,0 0.223756,-0.0613543 0.284272,-0.154161l0.0108386 0 0 0.41639 -0.0108386 0c-0.0605157,0.0928071 -0.165228,0.154157 -0.284272,0.154157 -0.119067,0 -0.223756,-0.0613504 -0.284272,-0.154157l-0.078563 0c-0.0605276,0.0928071 -0.165228,0.154157 -0.284283,0.154157 -0.119055,0 -0.223756,-0.0613504 -0.284283,-0.154157l-0.0785394 0c-0.0605157,0.0928071 -0.165228,0.154157 -0.284295,0.154157 -0.119043,0 -0.223744,-0.0613504 -0.28426,-0.154157l-0.0785748 0c-0.0605157,0.0928071 -0.165205,0.154157 -0.284272,0.154157 -0.119043,0 -0.223756,-0.0613504 -0.284272,-0.154157l-0.0785512 0c-0.0605276,0.0928071 -0.165228,0.154157 -0.284272,0.154157 -0.119067,0 -0.223768,-0.0613504 -0.284283,-0.154157l-0.0785512 0c-0.0605276,0.0928071 -0.165228,0.154157 -0.284272,0.154157 -0.119067,0 -0.22378,-0.0613504 -0.284295,-0.154157l-0.0785394 0c-0.0605276,0.0928071 -0.165228,0.154157 -0.284283,0.154157 -0.119055,0 -0.223756,-0.0613504 -0.284283,-0.154157l-0.0785512 0c-0.0605157,0.0928071 -0.165217,0.154157 -0.284272,0.154157 -0.119055,0 -0.223756,-0.0613504 -0.284283,-0.154157l-0.0108386 0 0 -0.41639z"/>
   <path id="_330260088" class="fil4" d="M0.853331 3.91078l0.0108386 0c0.0605276,0.0928071 0.165228,0.154157 0.284283,0.154157 0.119055,0 0.223756,-0.0613504 0.284272,-0.154157l0.0785512 0c0.0605276,0.0928071 0.165228,0.154157 0.284283,0.154157 0.119055,0 0.223756,-0.0613504 0.284283,-0.154157l0.0785394 0c0.0605157,0.0928071 0.165228,0.154157 0.284295,0.154157 0.119043,0 0.223744,-0.0613504 0.284272,-0.154157l0.0785512 0c0.0605157,0.0928071 0.165217,0.154157 0.284283,0.154157 0.119043,0 0.223744,-0.0613504 0.284272,-0.154157l0.0785512 0c0.0605157,0.0928071 0.165228,0.154157 0.284272,0.154157 0.119067,0 0.223756,-0.0613504 0.284272,-0.154157l0.0785748 0c0.0605157,0.0928071 0.165217,0.154157 0.28426,0.154157 0.119067,0 0.22378,-0.0613504 0.284295,-0.154157l0.0785394 0c0.0605276,0.0928071 0.165228,0.154157 0.284283,0.154157 0.119055,0 0.223756,-0.0613504 0.284283,-0.154157l0.078563 0c0.0605157,0.0928071 0.165205,0.154157 0.284272,0.154157 0.119043,0 0.223756,-0.0613504 0.284272,-0.154157l0.0108386 0 0 0.416386 -0.0108386 0c-0.0605157,0.0928071 -0.165228,0.154161 -0.284272,0.154161 -0.119067,0 -0.223756,-0.0613543 -0.284272,-0.154161l-0.078563 0c-0.0605276,0.0928071 -0.165228,0.154161 -0.284283,0.154161 -0.119055,0 -0.223756,-0.0613543 -0.284283,-0.154161l-0.0785394 0c-0.0605157,0.0928071 -0.165228,0.154161 -0.284295,0.154161 -0.119043,0 -0.223744,-0.0613543 -0.28426,-0.154161l-0.0785748 0c-0.0605157,0.0928071 -0.165205,0.154161 -0.284272,0.154161 -0.119043,0 -0.223756,-0.0613543 -0.284272,-0.154161l-0.0785512 0c-0.0605276,0.0928071 -0.165228,0.154161 -0.284272,0.154161 -0.119067,0 -0.223768,-0.0613543 -0.284283,-0.154161l-0.0785512 0c-0.0605276,0.0928071 -0.165228,0.154161 -0.284272,0.154161 -0.119067,0 -0.22378,-0.0613543 -0.284295,-0.154161l-0.0785394 0c-0.0605276,0.0928071 -0.165228,0.154161 -0.284283,0.154161 -0.119055,0 -0.223756,-0.0613543 -0.284283,-0.154161l-0.0785512 0c-0.0605157,0.0928071 -0.165217,0.154161 -0.284272,0.154161 -0.119055,0 -0.223756,-0.0613543 -0.284283,-0.154161l-0.0108386 0 0 -0.416386z"/>
   <path id="_330267576" class="fil6" d="M0.853331 4.32716l0.0108386 0c0.0605276,0.0928071 0.165228,0.154161 0.284283,0.154161 0.119055,0 0.223756,-0.0613543 0.284272,-0.154161l0.0785512 0c0.0605276,0.0928071 0.165228,0.154161 0.284283,0.154161 0.119055,0 0.223756,-0.0613543 0.284283,-0.154161l0.0785394 0c0.0605157,0.0928071 0.165228,0.154161 0.284295,0.154161 0.119043,0 0.223744,-0.0613543 0.284272,-0.154161l0.0785512 0c0.0605157,0.0928071 0.165217,0.154161 0.284283,0.154161 0.119043,0 0.223744,-0.0613543 0.284272,-0.154161l0.0785512 0c0.0605157,0.0928071 0.165228,0.154161 0.284272,0.154161 0.119067,0 0.223756,-0.0613543 0.284272,-0.154161l0.0785748 0c0.0605157,0.0928071 0.165217,0.154161 0.28426,0.154161 0.119067,0 0.22378,-0.0613543 0.284295,-0.154161l0.0785394 0c0.0605276,0.0928071 0.165228,0.154161 0.284283,0.154161 0.119055,0 0.223756,-0.0613543 0.284283,-0.154161l0.078563 0c0.0605157,0.0928071 0.165205,0.154161 0.284272,0.154161 0.119043,0 0.223756,-0.0613543 0.284272,-0.154161l0.0108386 0 0 0.41639 -0.0108386 0c-0.0605157,0.0928071 -0.165228,0.154157 -0.284272,0.154157 -0.119067,0 -0.223756,-0.0613504 -0.284272,-0.154157l-0.078563 0c-0.0605276,0.0928071 -0.165228,0.154157 -0.284283,0.154157 -0.119055,0 -0.223756,-0.0613504 -0.284283,-0.154157l-0.0785394 0c-0.0605157,0.0928071 -0.165228,0.154157 -0.284295,0.154157 -0.119043,0 -0.223744,-0.0613504 -0.28426,-0.154157l-0.0785748 0c-0.0605157,0.0928071 -0.165205,0.154157 -0.284272,0.154157 -0.119043,0 -0.223756,-0.0613504 -0.284272,-0.154157l-0.0785512 0c-0.0605276,0.0928071 -0.165228,0.154157 -0.284272,0.154157 -0.119067,0 -0.223768,-0.0613504 -0.284283,-0.154157l-0.0785512 0c-0.0605276,0.0928071 -0.165228,0.154157 -0.284272,0.154157 -0.119067,0 -0.22378,-0.0613504 -0.284295,-0.154157l-0.0785394 0c-0.0605276,0.0928071 -0.165228,0.154157 -0.284283,0.154157 -0.119055,0 -0.223756,-0.0613504 -0.284283,-0.154157l-0.0785512 0c-0.0605157,0.0928071 -0.165217,0.154157 -0.284272,0.154157 -0.119055,0 -0.223756,-0.0613504 -0.284283,-0.154157l-0.0108386 0 0 -0.41639z"/>
   <path id="_330264240" class="fil4" d="M0.853331 4.74355l0.0108386 0c0.0605276,0.0928071 0.165228,0.154157 0.284283,0.154157 0.119055,0 0.223756,-0.0613504 0.284272,-0.154157l0.0785512 0c0.0605276,0.0928071 0.165228,0.154157 0.284283,0.154157 0.119055,0 0.223756,-0.0613504 0.284283,-0.154157l0.0785394 0c0.0605157,0.0928071 0.165228,0.154157 0.284295,0.154157 0.119043,0 0.223744,-0.0613504 0.284272,-0.154157l0.0785512 0c0.0605157,0.0928071 0.165217,0.154157 0.284283,0.154157 0.119043,0 0.223744,-0.0613504 0.284272,-0.154157l0.0785512 0c0.0605157,0.0928071 0.165228,0.154157 0.284272,0.154157 0.119067,0 0.223756,-0.0613504 0.284272,-0.154157l0.0785748 0c0.0605157,0.0928071 0.165217,0.154157 0.28426,0.154157 0.119067,0 0.22378,-0.0613504 0.284295,-0.154157l0.0785394 0c0.0605276,0.0928071 0.165228,0.154157 0.284283,0.154157 0.119055,0 0.223756,-0.0613504 0.284283,-0.154157l0.078563 0c0.0605157,0.0928071 0.165205,0.154157 0.284272,0.154157 0.119043,0 0.223756,-0.0613504 0.284272,-0.154157l0.0108386 0 0 0.416386 -0.0108386 0c-0.0605157,0.0928071 -0.165228,0.154161 -0.284272,0.154161 -0.119067,0 -0.223756,-0.0613543 -0.284272,-0.154161l-0.078563 0c-0.0605276,0.0928071 -0.165228,0.154161 -0.284283,0.154161 -0.119055,0 -0.223756,-0.0613543 -0.284283,-0.154161l-0.0785394 0c-0.0605157,0.0928071 -0.165228,0.154161 -0.284295,0.154161 -0.119043,0 -0.223744,-0.0613543 -0.28426,-0.154161l-0.0785748 0c-0.0605157,0.0928071 -0.165205,0.154161 -0.284272,0.154161 -0.119043,0 -0.223756,-0.0613543 -0.284272,-0.154161l-0.0785512 0c-0.0605276,0.0928071 -0.165228,0.154161 -0.284272,0.154161 -0.119067,0 -0.223768,-0.0613543 -0.284283,-0.154161l-0.0785512 0c-0.0605276,0.0928071 -0.165228,0.154161 -0.284272,0.154161 -0.119067,0 -0.22378,-0.0613543 -0.284295,-0.154161l-0.0785394 0c-0.0605276,0.0928071 -0.165228,0.154161 -0.284283,0.154161 -0.119055,0 -0.223756,-0.0613543 -0.284283,-0.154161l-0.0785512 0c-0.0605157,0.0928071 -0.165217,0.154161 -0.284272,0.154161 -0.119055,0 -0.223756,-0.0613543 -0.284283,-0.154161l-0.0108386 0 0 -0.416386z"/>
   <g>
    <path id="_330264000" class="fil0" d="M5.86672 4.23064c-0.326343,0.0864921 -0.574299,0.0406929 -0.568831,0.0364882 0.0588819,-0.156894 0.0677441,-0.331378 0.0283465,-0.492591 -0.0271102,-0.110929 -0.076874,-0.215929 -0.148717,-0.305161 -0.0727244,-0.0903228 -0.16785,-0.164555 -0.284799,-0.212713 -0.0680827,-0.0280394 -0.330224,-0.100768 -0.694563,0.0985866 0.251161,0.0340827 0.549878,0.167571 0.58752,0.448776 0.0321693,0.240311 -0.0703425,0.37139 -0.235929,0.438248 -0.162276,0.0655197 -0.382933,0.0790118 -0.607937,0.0710551 0.0313661,-0.119709 0.032063,-0.247016 0.00297638,-0.366047 -0.0229331,-0.0938465 -0.064248,-0.182992 -0.123504,-0.259866 -0.213972,-0.277598 -0.60228,-0.260031 -0.883898,-0.0992992 0.221673,0.023685 0.477378,0.143193 0.510394,0.389862 0.0255433,0.190783 -0.0492362,0.298665 -0.173732,0.35613 -0.117764,0.0543583 -0.278256,0.0723465 -0.448138,0.0724134 0.030811,-0.10815 0.0325827,-0.224067 0.00617323,-0.33213 -0.0200276,-0.0819567 -0.056126,-0.159835 -0.107917,-0.227024 -0.180768,-0.234512 -0.573756,-0.26474 -0.780197,-0.0727087 0.178866,0.031815 0.4065,0.124957 0.434165,0.331634 0.0296929,0.221799 -0.121504,0.308307 -0.322161,0.335173 -0.241087,0.0322756 -0.535909,0.0735394 -1.05597,-0.0647047 0.156909,0.280028 0.927386,0.289894 1.01197,0.290654 0.323051,0.00290551 0.668358,0.0289646 0.855661,-0.0334724 0.175429,0.0569173 1.13661,0.0140118 1.45543,-0.049752 0.553264,0.0701024 1.08349,-0.0646732 1.54366,-0.353551z"/>
    <path id="_330264120" class="fil1" d="M5.93339 4.19731c-0.326343,0.0864921 -0.574299,0.0406929 -0.568831,0.0364882 0.0588819,-0.156894 0.0677441,-0.331378 0.0283465,-0.492591 -0.0271102,-0.110929 -0.076874,-0.215929 -0.148717,-0.305161 -0.0727244,-0.0903228 -0.16785,-0.164555 -0.284799,-0.212713 -0.0680827,-0.0280394 -0.330224,-0.100768 -0.694563,0.0985866 0.251161,0.0340827 0.549878,0.167571 0.58752,0.448776 0.0321693,0.240311 -0.0703425,0.37139 -0.235929,0.438248 -0.162276,0.0655197 -0.382933,0.0790118 -0.607937,0.0710551 0.0313661,-0.119709 0.032063,-0.247016 0.00297638,-0.366047 -0.0229331,-0.0938465 -0.064248,-0.182992 -0.123504,-0.259866 -0.213972,-0.277598 -0.60228,-0.260031 -0.883898,-0.0992992 0.221673,0.023685 0.477378,0.143193 0.510394,0.389862 0.0255433,0.190783 -0.0492362,0.298665 -0.173732,0.35613 -0.117764,0.0543583 -0.278256,0.0723465 -0.448138,0.0724134 0.030811,-0.10815 0.0325827,-0.224067 0.00617323,-0.33213 -0.0200276,-0.0819567 -0.056126,-0.159835 -0.107917,-0.227024 -0.180768,-0.234512 -0.573756,-0.26474 -0.780197,-0.0727087 0.178866,0.031815 0.4065,0.124957 0.434165,0.331634 0.0296929,0.221799 -0.121504,0.308307 -0.322161,0.335173 -0.241087,0.0322756 -0.535909,0.0735394 -1.05597,-0.0647047 0.156909,0.280028 0.927386,0.289894 1.01197,0.290654 0.323051,0.00290551 0.668358,0.0289646 0.855661,-0.0334724 0.175429,0.0569173 1.13661,0.0140118 1.45543,-0.049752 0.553264,0.0701024 1.08349,-0.0646732 1.54366,-0.353551z"/>
    <path id="_330263808" class="fil3" d="M0.853335 4.33611l0.0108386 0c0.0605276,0.0928071 0.165228,0.154161 0.284283,0.154161 0.119055,0 0.223756,-0.0613543 0.284272,-0.154161l0.0785512 0c0.0605276,0.0928071 0.165228,0.154161 0.284283,0.154161 0.119055,0 0.223756,-0.0613543 0.284283,-0.154161l0.0785394 0c0.0605157,0.0928071 0.165228,0.154161 0.284295,0.154161 0.119043,0 0.223744,-0.0613543 0.284272,-0.154161l0.0785512 0c0.0605157,0.0928071 0.165217,0.154161 0.284283,0.154161 0.119043,0 0.223744,-0.0613543 0.284272,-0.154161l0.0785512 0c0.0605157,0.0928071 0.165228,0.154161 0.284272,0.154161 0.119067,0 0.223756,-0.0613543 0.284272,-0.154161l0.0785748 0c0.0605157,0.0928071 0.165217,0.154161 0.28426,0.154161 0.119067,0 0.22378,-0.0613543 0.284295,-0.154161l0.0785394 0c0.0605276,0.0928071 0.165228,0.154161 0.284283,0.154161 0.119055,0 0.223756,-0.0613543 0.284283,-0.154161l0.078563 0c0.0605157,0.0928071 0.165205,0.154161 0.284272,0.154161 0.119043,0 0.223756,-0.0613543 0.284272,-0.154161l0.0108386 0 0 0.41639 -0.0108386 0c-0.0605157,0.0928031 -0.165228,0.154157 -0.284272,0.154157 -0.119067,0 -0.223756,-0.0613543 -0.284272,-0.154157l-0.078563 0c-0.0605276,0.0928031 -0.165228,0.154157 -0.284283,0.154157 -0.119055,0 -0.223756,-0.0613543 -0.284283,-0.154157l-0.0785394 0c-0.0605157,0.0928031 -0.165228,0.154157 -0.284295,0.154157 -0.119043,0 -0.223744,-0.0613543 -0.28426,-0.154157l-0.0785748 0c-0.0605157,0.0928031 -0.165205,0.154157 -0.284272,0.154157 -0.119043,0 -0.223756,-0.0613543 -0.284272,-0.154157l-0.0785512 0c-0.0605276,0.0928031 -0.165228,0.154157 -0.284272,0.154157 -0.119067,0 -0.223768,-0.0613543 -0.284283,-0.154157l-0.0785512 0c-0.0605276,0.0928031 -0.165228,0.154157 -0.284272,0.154157 -0.119067,0 -0.22378,-0.0613543 -0.284295,-0.154157l-0.0785394 0c-0.0605276,0.0928031 -0.165228,0.154157 -0.284283,0.154157 -0.119055,0 -0.223756,-0.0613543 -0.284283,-0.154157l-0.0785512 0c-0.0605157,0.0928031 -0.165217,0.154157 -0.284272,0.154157 -0.119055,0 -0.223756,-0.0613543 -0.284283,-0.154157l-0.0108386 0 0 -0.41639z"/>
   </g>
  </g>
 </g>
 <rect class="fil7" width="6.82666" height="6.82666"/>
</svg>
