<?xml version="1.0" encoding="UTF-8"?>
<!DOCTYPE svg PUBLIC "-//W3C//DTD SVG 1.1//EN" "http://www.w3.org/Graphics/SVG/1.1/DTD/svg11.dtd">
<!-- Creator: CorelDRAW -->
<svg xmlns="http://www.w3.org/2000/svg" xml:space="preserve" width="6.82666in" height="6.82666in" style="shape-rendering:geometricPrecision; text-rendering:geometricPrecision; image-rendering:optimizeQuality; fill-rule:evenodd; clip-rule:evenodd"
viewBox="0 0 6.82666 6.82666"
 xmlns:xlink="http://www.w3.org/1999/xlink">
 <defs>
  <style type="text/css">
   <![CDATA[
    .fil7 {fill:none}
    .fil4 {fill:#32201D}
    .fil1 {fill:#424242}
    .fil6 {fill:#4C342D}
    .fil2 {fill:#FDD835}
    .fil5 {fill:#388E3C;fill-rule:nonzero}
    .fil0 {fill:#424242;fill-rule:nonzero}
    .fil3 {fill:#5D4037;fill-rule:nonzero}
   ]]>
  </style>
 </defs>
 <g id="Layer_x0020_1">
  <metadata id="CorelCorpID_0Corel-Layer"/>
  <path class="fil0" d="M5.32194 5.18289c-0.170736,-0.0871339 -0.379858,-0.161161 -0.616012,-0.219276 -0.386961,-0.0952283 -0.849173,-0.14926 -1.33447,-0.14926 -0.403642,0 -0.79411,0.0374134 -1.1388,0.105776 -0.282646,0.0560551 -0.535697,0.133476 -0.741543,0.228764 0.0215512,0.0081378 0.040689,0.0168543 0.0565,0.0258661 0.0646142,0.0368346 0.159386,0.0939764 0.23552,0.0939764 0.0761339,0 0.170902,-0.0571417 0.235516,-0.0939764 0.0977047,-0.0556929 0.201154,-0.116094 0.317299,-0.116094 0.116146,0 0.219594,0.0604016 0.317299,0.116094 0.0646142,0.0368346 0.159386,0.0939764 0.235524,0.0939764 0.0761299,0 0.170906,-0.0571457 0.23552,-0.0939764 0.0977008,-0.055689 0.20115,-0.116094 0.317295,-0.116094 0.116146,0 0.219594,0.0604016 0.317299,0.116094 0.0646142,0.0368307 0.159386,0.0939764 0.23552,0.0939764 0.0761378,0 0.170909,-0.0571417 0.235524,-0.0939764 0.0977047,-0.0556929 0.20115,-0.116094 0.317295,-0.116094 0.116142,0 0.219591,0.0604055 0.317295,0.116094 0.0646102,0.0368307 0.159386,0.0939764 0.23552,0.0939764 0.0724252,0 0.158476,-0.0480079 0.221906,-0.0858465z"/>
  <path class="fil0" d="M0.766118 5.54202c0.259161,-0.0255591 0.49539,0.196488 0.70115,0.313776 0.103098,0.0587677 0.206205,0.117535 0.322724,0.117535 0.116512,0 0.219622,-0.0587677 0.322717,-0.117535 0.0811693,-0.0462677 0.162346,-0.0925354 0.230098,-0.0925354 0.067752,0 0.148929,0.0462677 0.230098,0.0925354 0.103094,0.0587677 0.206205,0.117535 0.32272,0.117535 0.116516,0 0.219622,-0.0587677 0.32272,-0.117535 0.0811732,-0.0462638 0.16235,-0.0925354 0.230098,-0.0925354 0.067752,0 0.148929,0.0462677 0.230098,0.0925354 0.103094,0.0587677 0.206205,0.117535 0.32272,0.117535 0.11652,0 0.219626,-0.0587677 0.322724,-0.117535 0.0811654,-0.0462677 0.162343,-0.0925354 0.230094,-0.0925354 0.067748,0 0.148925,0.0462677 0.230091,0.0925354 0.103098,0.0587638 0.206209,0.117535 0.322724,0.117535 0.370055,0 0.411677,-0.477787 0.788063,-0.477787 0.179402,0 -0.0940984,-0.0765394 -0.235244,-0.0675079 -0.116524,0 -0.21963,0.0587717 -0.32272,0.117535 -0.0811693,0.0462677 -0.162346,0.0925354 -0.230098,0.0925354 -0.067748,0 -0.148929,-0.0462717 -0.230094,-0.0925354 -0.103098,-0.0587677 -0.206209,-0.117535 -0.32272,-0.117535 -0.116524,0 -0.21963,0.0587717 -0.32272,0.117535 -0.0811693,0.0462677 -0.162346,0.0925354 -0.230098,0.0925354 -0.067752,0 -0.148925,-0.0462677 -0.230094,-0.0925354 -0.103098,-0.0587677 -0.206209,-0.117535 -0.322724,-0.117535 -0.11652,0 -0.219626,0.0587717 -0.322724,0.117535 -0.0811693,0.0462677 -0.162343,0.0925354 -0.230094,0.0925354 -0.067752,0 -0.148925,-0.0462677 -0.230094,-0.0925354 -0.103098,-0.0587677 -0.206205,-0.117535 -0.322724,-0.117535 -0.116516,0 -0.219626,0.0587677 -0.322724,0.117535 -0.0811693,0.0462677 -0.162343,0.0925354 -0.230091,0.0925354 -0.0677559,0 -0.148929,-0.0462677 -0.230098,-0.0925354 -0.408425,-0.232811 -0.80163,-0.00277953 -0.793776,-0.00355118z"/>
  <path class="fil1" d="M5.65502 5.21549c-0.163921,0.00562598 -0.247343,0.0397323 -0.266638,0.0519449 -0.0859961,0.0490197 -0.186752,0.107972 -0.288346,0.107972 -0.101591,0 -0.202346,-0.0589528 -0.288343,-0.107972 -0.0767441,-0.0437441 -0.173201,-0.102098 -0.264472,-0.102098 -0.0912756,0 -0.187724,0.0583504 -0.264472,0.102098 -0.0859961,0.0490197 -0.186752,0.107972 -0.288346,0.107972 -0.101591,0 -0.202346,-0.0589528 -0.288343,-0.107972 -0.076748,-0.043748 -0.173201,-0.102098 -0.264476,-0.102098 -0.0912756,0 -0.187728,0.0583543 -0.264476,0.102098 -0.0859961,0.0490197 -0.186748,0.107972 -0.288339,0.107972 -0.101594,0 -0.20235,-0.0589528 -0.288346,-0.107972 -0.076748,-0.043748 -0.173201,-0.102098 -0.264476,-0.102098 -0.0912756,0 -0.187728,0.0583504 -0.264476,0.102098 -0.0859961,0.0490197 -0.186744,0.107972 -0.288339,0.107972 -0.101594,0 -0.202346,-0.0589528 -0.288343,-0.107972 -0.0989252,-0.0563898 -0.369673,-0.0915394 -0.433102,-0.0343898 -7.08661e-005,6.29921e-005 0.373949,0.0929213 0.456969,0.140244 0.076748,0.043752 0.173201,0.102102 0.264476,0.102102 0.0912756,0 0.187724,-0.0583543 0.264472,-0.102102 0.0859961,-0.0490157 0.186748,-0.107969 0.288343,-0.107969 0.101594,0 0.202346,0.0589528 0.288346,0.107969 0.0767441,0.043752 0.173201,0.102102 0.264476,0.102102 0.0912717,0 0.187728,-0.0583583 0.264476,-0.102102 0.0859961,-0.0490157 0.186744,-0.107969 0.288339,-0.107969 0.101594,0 0.202346,0.0589528 0.288343,0.107969 0.076748,0.043752 0.173205,0.102102 0.264476,0.102102 0.0912795,0 0.187728,-0.0583504 0.26448,-0.102102 0.0859961,-0.0490157 0.186744,-0.107969 0.288339,-0.107969 0.101594,0 0.202343,0.0589528 0.288339,0.107969 0.076748,0.043748 0.173201,0.102102 0.264476,0.102102 0.0912795,0 0.187728,-0.0583504 0.26448,-0.102102 0.0975354,-0.0509016 0.323697,-0.158941 0.290504,-0.157799z"/>
  <path class="fil2" d="M0.853331 5.17698c0.693791,-0.226724 1.57412,-0.362421 2.53227,-0.362421 0.983827,0 1.8857,0.143012 2.58773,0.380795l0 0.777976 -5.12 0 0 -0.79635z"/>
  <g id="_330176504">
   <path id="_330176960" class="fil3" d="M2.31949 2.80241c0.000720472,-0.0230906 0.0100984,-0.041874 0.0277126,-0.0562717 0.0113504,-0.00929528 0.0238346,-0.0141929 0.0369803,-0.0146142 0.0344291,-0.00455118 0.0671614,0.0154331 0.0792441,0.0473543 0.0133425,0.0163071 0.0264803,0.0368819 0.0390079,0.0618228 0.0251693,0.0501181 0.058685,0.122472 0.0958622,0.211413 0.0511929,0.12248 0.111079,0.279736 0.169547,0.461028 0.108429,0.274717 0.17115,0.586693 0.207409,0.85963 0.00700787,0.045063 0.0133858,0.0904685 0.0191378,0.136169l-0.00276772 0c0.00273622,0.0253346 0.00524409,0.0501614 0.00754724,0.0744134l0.00388189 0c0.00623622,0.0578661 0.0113543,0.116094 0.0151299,0.174535l-0.00500787 0c0.00170866,0.0260512 0.00316535,0.0509016 0.00441339,0.0744134l0.0046811 0c0.00262205,0.0581063 0.00391732,0.116335 0.0036811,0.174535l-0.0018622 0c0.000948819,0.047689 0.00069685,0.0744134 0.00069685,0.0744134 -0.0018622,0.0700236 -0.00596457,0.139898 -0.0126496,0.209339l-0.0738346 -0.00697638 0.0740709 0.00712992c-0.00370472,0.0385118 -0.0361496,0.0673268 -0.0740709,0.0672835l-0.337031 0c-0.0410945,0 -0.0744134,-0.0333189 -0.0744134,-0.0744134 0,-0.003 0.000185039,-0.00596063 0.000531496,-0.00887402 0.00254724,-0.0663228 0.0046378,-0.130736 0.00627559,-0.193488 0.00106299,-0.0249685 0.00199606,-0.0497756 0.00280709,-0.0744134l-0.00106299 0c0.00123228,-0.0596024 0.00202756,-0.117705 0.00238976,-0.174535l0.00247244 0c0.000271654,-0.0250315 0.00042126,-0.0498386 0.00046063,-0.0744134l-0.0027126 0c-2.75591e-005,-0.0594567 -0.000559055,-0.117547 -0.00159055,-0.174535l0.0027126 0c-0.000496063,-0.0251142 -0.00109843,-0.0499213 -0.00180315,-0.0744134l-0.00256299 0c-0.00156299,-0.0591969 -0.00369291,-0.117276 -0.0063937,-0.174535l0.00213386 0c-0.00124803,-0.025248 -0.00259055,-0.050063 -0.00401575,-0.0744134l-0.00198031 0c-0.00333071,-0.0588189 -0.00727953,-0.11689 -0.0118622,-0.174535l0.00180709 0c-0.00202756,-0.0255079 -0.00412205,-0.0503228 -0.00626378,-0.0744134l-0.00182677 0c-0.00521654,-0.058315 -0.0110827,-0.116378 -0.0176181,-0.174535l0.00197638 0c-0.0029252,-0.0262283 -0.00584252,-0.0510551 -0.00870079,-0.0744173l-0.00199213 0c-0.00703937,-0.0578268 -0.0147441,-0.115898 -0.0231063,-0.174535l0.00125984 0c-0.00740551,-0.0484213 -0.0121811,-0.0744134 -0.0121811,-0.0744134 -0.0325866,-0.216091 -0.0740591,-0.441705 -0.124795,-0.693185l-0.000299213 6.29921e-005c-0.00119291,-0.0059252 -0.00164567,-0.0118268 -0.0014252,-0.0176102z"/>
   <path id="_330176936" class="fil3" d="M2.31949 2.80241c0.000720472,-0.0230906 0.0100984,-0.041874 0.0277126,-0.0562717 0.0113504,-0.00929528 0.0238346,-0.0141929 0.0369803,-0.0146142 0.0344291,-0.00455118 0.0671614,0.0154331 0.0792441,0.0473543 0.0133425,0.0163071 0.0264803,0.0368819 0.0390079,0.0618228 0.0251693,0.0501181 0.058685,0.122472 0.0958622,0.211413 0.0511929,0.12248 0.111079,0.279736 0.169547,0.461028l-0.321835 0c-0.0325866,-0.216091 -0.0740591,-0.441705 -0.124795,-0.693185l-0.000299213 6.29921e-005c-0.00119291,-0.0059252 -0.00164567,-0.0118268 -0.0014252,-0.0176102zm0.471803 0.785028c0.017378,0.0562835 0.0345039,0.114594 0.0511102,0.174654l-0.362366 0c-0.00703937,-0.0578268 -0.0147441,-0.115898 -0.0231063,-0.174535l0.328193 0c0.0020748,0 0.00413386,-3.93701e-005 0.00616929,-0.00011811zm0.0711654 0.249071c0.0149331,0.0568622 0.0293228,0.115114 0.0429528,0.174535l-0.399039 0c-0.00521654,-0.058315 -0.0110827,-0.116378 -0.0176181,-0.174535l0.373705 0zm0.0594685 0.248949c0.0123031,0.0572835 0.0238583,0.115524 0.0344449,0.174535l-0.431854 0c-0.00333071,-0.0588189 -0.00727953,-0.11689 -0.0118622,-0.174535l0.409272 0zm0.0472008 0.248949c0.00942913,0.0576024 0.0179213,0.115835 0.0252638,0.174535l-0.459618 0c-0.00156299,-0.0591969 -0.00369291,-0.117276 -0.0063937,-0.174535l0.440748 0zm0.0339252 0.248949c0.00623622,0.0578661 0.0113543,0.116094 0.0151299,0.174535l-0.480165 0c-2.75591e-005,-0.0594567 -0.000559055,-0.117547 -0.00159055,-0.174535l0.466626 0zm0.0192165 0.248949c0.00262205,0.0581063 0.00391732,0.116335 0.0036811,0.174535l-0.490543 0c0.00123228,-0.0596024 0.00202756,-0.117705 0.00238976,-0.174535l0.484472 0zm0.00251575 0.248949c-0.0018622,0.0700236 -0.00596457,0.139898 -0.0126496,0.209339l-0.0738346 -0.00697638 0.0740709 0.00712992c-0.00370472,0.0385118 -0.0361496,0.0673268 -0.0740709,0.0672835l-0.337031 0c-0.0410945,0 -0.0744134,-0.0333189 -0.0744134,-0.0744134 0,-0.003 0.000185039,-0.00596063 0.000531496,-0.00887402 0.00254724,-0.0663228 0.0046378,-0.130736 0.00627559,-0.193488l0.491122 0z"/>
   <g>
    <circle id="_330176840" class="fil4" transform="matrix(1.1433 0.433386 -0.433386 1.1433 2.43654 2.8401)" r="0.106772"/>
    <circle id="_330177128" class="fil4" transform="matrix(1.1433 0.433386 -0.433386 1.1433 2.58665 2.9651)" r="0.106772"/>
    <circle id="_330176792" class="fil4" transform="matrix(1.1433 0.433386 -0.433386 1.1433 2.69216 2.84846)" r="0.106772"/>
   </g>
   <path id="_330176888" class="fil5" d="M2.38059 2.62486c0.483488,-0.150724 0.879602,-0.202929 1.21401,-0.116185 0.339244,0.088 0.610681,0.316508 0.83939,0.726531l0.00015748 -8.66142e-005c0.0150118,0.0269134 0.0053622,0.0609094 -0.0215551,0.0759252 -0.0203465,0.0113465 -0.0447323,0.00859843 -0.0619134,-0.00504331l-0.437736 -0.292343c-0.0152992,0.0395551 -0.0318465,0.0886063 -0.0318465,0.115728 0,0.155354 -0.141331,0.0188228 -0.233075,-0.0861535l-0.0249921 0.13152 -0.0547205 -0.0102441 0.0548307 0.0104173c-0.00575591,0.0302835 -0.0349685,0.0501654 -0.065252,0.0444094 -0.0125276,-0.00238189 -0.0232717,-0.00877953 -0.0311614,-0.0176063l-0.233472 -0.225283 -0.0447323 0.156201 -0.053626 -0.0152598 0.0536535 0.0153661c-0.00848425,0.0296299 -0.0393898,0.0467717 -0.0690197,0.0382874 -0.019378,-0.00554724 -0.0334173,-0.020689 -0.0384331,-0.0387953 -0.0411929,-0.11915 -0.122272,-0.204055 -0.242047,-0.265622 -0.127319,-0.0654449 -0.298622,-0.105531 -0.511945,-0.132173l0.00675984 -0.055374 -0.00691732 0.055378c-0.0305827,-0.0038189 -0.0522795,-0.0317126 -0.0484606,-0.0622953 0.00294882,-0.023626 0.0202717,-0.0419449 0.0421024,-0.0472992z"/>
   <path id="_330177224" class="fil0" d="M3.42574 2.21312c-0.00185827,-1.5748e-005 -0.00374409,-5.51181e-005 -0.00563386,-9.05512e-005 0.00330709,0.00113386 0.00524016,0.00120472 0.00563386,9.05512e-005z"/>
   <path id="_330177368" class="fil5" d="M2.36943 2.58269c0.132205,-0.354421 0.291531,-0.602134 0.513429,-0.732591 0.155713,-0.0915433 0.339244,-0.124276 0.562232,-0.0944134 0.0828504,0.0110984 0.394961,0.0695433 0.496583,0.287736 -0.103484,-0.0541063 -0.494583,-0.102217 -0.521102,-0.0245039 0.0158898,-0.000311024 0.14361,0.085252 0.146894,0.157858 -0.182488,-0.0310276 -0.246957,0.0278858 -0.25089,0.0273583 0.0173937,0.0264528 0.0764646,0.0775157 0.0579724,0.165787 -0.0705787,-0.0648386 -0.515614,0.0188346 -0.65113,0.0787717 -0.117079,0.0517835 -0.211323,0.117146 -0.252563,0.180461 -0.00775197,0.0209567 -0.0154173,0.0423307 -0.0230079,0.0640906 -0.00671654,0.0257087 -0.0310945,0.0436772 -0.0584921,0.0414646 -0.0307205,-0.00248819 -0.0536142,-0.0294134 -0.0511299,-0.0601299l4.72441e-005 0c0.00114173,-0.0139685 0.00396063,-0.0279685 0.00834252,-0.0419213 0.00523622,-0.0166811 0.0129291,-0.0333819 0.022815,-0.0499685z"/>
   <path id="_330176720" class="fil5" d="M1.87433 2.1689c0.25135,-0.0108898 0.425461,0.164091 0.568406,0.483248 0.0144882,0.0262598 0.0056063,0.0594685 -0.0203622,0.0749016 -0.0264921,0.015748 -0.0607402,0.00703937 -0.0764882,-0.0194567l0.0479724 -0.0285157 -0.0479646 0.0283425c-0.00858268,-0.0144449 -0.018374,-0.0274921 -0.0292362,-0.0392008 -0.0708661,-0.0764055 -0.191197,-0.101579 -0.326752,-0.0892402 -0.218685,0.0199016 -0.591488,0.194618 -0.729823,0.367886 0.0217402,-0.130665 0.0670276,-0.220878 0.0858858,-0.262906 -0.130319,0.0660669 -0.384748,0.170319 -0.496606,0.246831 0.17828,-0.348496 0.645307,-0.745433 1.02497,-0.76189z"/>
   <path id="_330176192" class="fil5" d="M1.51826 3.40334c-0.0370157,0.0634173 -0.135244,0.156157 -0.258181,0.436476 -0.035748,-0.254594 0.177134,-0.849213 0.345882,-0.994425 0.194732,-0.167571 0.453055,-0.227244 0.783791,-0.221976 0.0199567,-0.00145276 0.0400433,0.00790157 0.0514016,0.0260433 0.0672913,0.107453 -0.0745354,-0.0139528 -0.0178661,0.0767126 -0.110213,0.0597402 -0.447181,0.296362 -0.419083,0.592756 -0.0660709,0.0294685 -0.0904843,-0.058378 -0.108831,-0.0995079 -0.0189173,0.0475433 -0.136748,0.188701 -0.117551,0.245228 -0.0727795,-0.0241811 -0.0748583,-0.0437244 -0.0892441,-0.0835945 -0.00662205,0.0183268 -0.107209,0.163886 -0.112575,0.216815 -0.000653543,0.00648819 -0.0586929,-0.0976614 -0.0577441,-0.194528z"/>
   <path id="_330176672" class="fil6" d="M3.02409 5.00683l-0.487618 0c-0.000811024,0.0246378 -0.00174409,0.0494449 -0.00280709,0.0744134l0.491122 0c0,0 0.000251969,-0.0267244 -0.00069685,-0.0744134zm-0.0488346 -0.634067c-0.0362598,-0.272937 -0.0989803,-0.584913 -0.207409,-0.85963l-0.321835 0c0,0 0.00477559,0.0259921 0.0121811,0.0744134l0.326933 0c0.0020748,0 0.00413386,-3.93701e-005 0.00616929,-0.00011811 0.017378,0.0562835 0.0345039,0.114594 0.0511102,0.174654l-0.360374 0c0.00285827,0.0233622 0.00577559,0.048189 0.00870079,0.0744173l0.371728 0c0.0149331,0.0568622 0.0293228,0.115114 0.0429528,0.174535l-0.397213 0c0.00214173,0.0240906 0.00423622,0.0489055 0.00626378,0.0744134l0.407465 0c0.0123031,0.0572835 0.0238583,0.115524 0.0344449,0.174535l-0.429874 0c0.0014252,0.0243504 0.00276772,0.0491654 0.00401575,0.0744134l0.438614 0c0.00209055,0.0127598 0.00412992,0.0255512 0.00612598,0.0383661zm0.0163701 0.136169l-0.454287 0c0.000704724,0.0244921 0.00130709,0.0492992 0.00180315,0.0744134l0.460031 0c-0.00230315,-0.024252 -0.00481102,-0.0490787 -0.00754724,-0.0744134zm0.0215512 0.248949l-0.472445 0c-3.93701e-005,0.0245748 -0.000188976,0.0493819 -0.00046063,0.0744134l0.477319 0c-0.00124803,-0.0235118 -0.00270472,-0.0483622 -0.00441339,-0.0744134z"/>
  </g>
  <g id="_330175016">
   <path id="_330176072" class="fil3" d="M5.42238 3.81059c-0.000437008,-0.0140472 -0.00614173,-0.0254724 -0.0168543,-0.0342283 -0.00690551,-0.00565354 -0.0145,-0.00863386 -0.0224961,-0.00888976 -0.0209409,-0.00276772 -0.0408543,0.00938583 -0.0482008,0.0288031 -0.00811417,0.00991732 -0.0161063,0.0224331 -0.0237283,0.0376063 -0.015311,0.0304843 -0.0356969,0.0744921 -0.0583071,0.128594 -0.0311417,0.0745 -0.0675669,0.170154 -0.10313,0.280425 -0.0659567,0.167102 -0.104106,0.356862 -0.126161,0.522882 -0.00426378,0.0274094 -0.00814173,0.0550276 -0.0116417,0.0828268l0.00168504 0c-0.00166142,0.0154094 -0.00318898,0.0305118 -0.00459055,0.0452598l-0.0023622 0c-0.00379134,0.0352008 -0.00690551,0.0706181 -0.00920472,0.106165l0.00304724 0c-0.00103937,0.0158465 -0.0019252,0.0309606 -0.00268504,0.0452638l-0.00284646 0c-0.00159449,0.0353425 -0.00238189,0.0707598 -0.00224016,0.106161l0.0011378 0c-0.00057874,0.0290079 -0.000425197,0.0452638 -0.000425197,0.0452638 0.00112992,0.0425945 0.00362598,0.0850945 0.00769291,0.127331l0.0449094 -0.00424016 -0.0450551 0.00433465c0.00225591,0.0234252 0.0219882,0.0409528 0.0450551,0.0409291l0.205004 0c0.0249961,0 0.0452638,-0.0202677 0.0452638,-0.0452638 0,-0.00182677 -0.000110236,-0.00362992 -0.000322835,-0.00539764 -0.00155118,-0.0403425 -0.00282283,-0.0795236 -0.00381496,-0.117693 -0.000649606,-0.015189 -0.00121654,-0.0302795 -0.00170866,-0.0452638l0.000645669 0c-0.000748031,-0.036252 -0.00123622,-0.0715945 -0.00145276,-0.106161l-0.00150394 0c-0.000165354,-0.0152244 -0.000255906,-0.030315 -0.000279528,-0.0452638l0.00164961 0c1.5748e-005,-0.0361654 0.000338583,-0.0715 0.000968504,-0.106165l-0.00165354 0c0.00030315,-0.0152756 0.000669291,-0.0303661 0.00109843,-0.0452598l0.00155906 0c0.000952756,-0.0360079 0.00224409,-0.0713386 0.00388976,-0.106165l-0.00129921 0c0.000759843,-0.0153583 0.0015748,-0.0304488 0.00244094,-0.0452638l0.00120866 0c0.00202362,-0.0357756 0.0044252,-0.0710984 0.0072126,-0.106161l-0.00109843 0c0.00123228,-0.0155157 0.00250787,-0.0306102 0.00381102,-0.0452638l0.00111024 0c0.00317323,-0.0354724 0.00674016,-0.0707874 0.0107165,-0.106165l-0.00120472 0c0.00178346,-0.0159528 0.00355512,-0.0310551 0.00529528,-0.0452638l0.00120866 0c0.00428346,-0.0351732 0.0089685,-0.0704961 0.0140591,-0.106161l-0.000767717 0c0.00450394,-0.0294528 0.00740945,-0.0452638 0.00740945,-0.0452638 0.0198189,-0.131441 0.0450472,-0.268673 0.0759055,-0.421638l0.000181102 3.54331e-005c0.000728346,-0.00360236 0.00100394,-0.00719291 0.000870079,-0.0107087z"/>
   <path id="_330176024" class="fil3" d="M5.42238 3.81059c-0.000437008,-0.0140472 -0.00614173,-0.0254724 -0.0168543,-0.0342283 -0.00690551,-0.00565354 -0.0145,-0.00863386 -0.0224961,-0.00888976 -0.0209409,-0.00276772 -0.0408543,0.00938583 -0.0482008,0.0288031 -0.00811417,0.00991732 -0.0161063,0.0224331 -0.0237283,0.0376063 -0.015311,0.0304843 -0.0356969,0.0744921 -0.0583071,0.128594 -0.0311417,0.0745 -0.0675669,0.170154 -0.10313,0.280425l0.19576 0c0.0198189,-0.131441 0.0450472,-0.268673 0.0759055,-0.421638l0.000181102 3.54331e-005c0.000728346,-0.00360236 0.00100394,-0.00719291 0.000870079,-0.0107087zm-0.28698 0.477504c-0.0105709,0.0342323 -0.0209882,0.0697008 -0.0310906,0.106232l0.220413 0c0.00428346,-0.0351732 0.0089685,-0.0704961 0.0140591,-0.106161l-0.19963 0c-0.00126378,0 -0.00251575,-2.75591e-005 -0.00375197,-7.08661e-005zm-0.0432874 0.151496c-0.00908268,0.0345906 -0.0178346,0.0700197 -0.026126,0.106165l0.24272 0c0.00317323,-0.0354724 0.00674016,-0.0707874 0.0107165,-0.106165l-0.227311 0zm-0.0361732 0.151429c-0.00748425,0.0348425 -0.0145118,0.0702677 -0.0209528,0.106161l0.262685 0c0.00202362,-0.0357756 0.0044252,-0.0710984 0.0072126,-0.106161l-0.248945 0zm-0.0287087 0.151425c-0.00573622,0.0350394 -0.0109016,0.0704567 -0.0153701,0.106165l0.279571 0c0.000952756,-0.0360079 0.00224409,-0.0713386 0.00388976,-0.106165l-0.268091 0zm-0.0206378 0.151425c-0.00379134,0.0352008 -0.00690551,0.0706181 -0.00920472,0.106165l0.292071 0c1.5748e-005,-0.0361654 0.000338583,-0.0715 0.000968504,-0.106165l-0.283835 0zm-0.011689 0.151429c-0.00159449,0.0353425 -0.00238189,0.0707598 -0.00224016,0.106161l0.298382 0c-0.000748031,-0.036252 -0.00123622,-0.0715945 -0.00145276,-0.106161l-0.294689 0zm-0.00152756 0.151425c0.00112992,0.0425945 0.00362598,0.0850945 0.00769291,0.127331l0.0449094 -0.00424016 -0.0450551 0.00433465c0.00225591,0.0234252 0.0219882,0.0409528 0.0450551,0.0409291l0.205004 0c0.0249961,0 0.0452638,-0.0202677 0.0452638,-0.0452638 0,-0.00182677 -0.000110236,-0.00362992 -0.000322835,-0.00539764 -0.00155118,-0.0403425 -0.00282283,-0.0795236 -0.00381496,-0.117693l-0.298732 0z"/>
   <g>
    <circle id="_330176120" class="fil4" transform="matrix(-0.695426 0.263613 0.263613 0.695426 5.35118 3.83352)" r="0.106772"/>
    <circle id="_330175952" class="fil4" transform="matrix(-0.695426 0.263613 0.263613 0.695426 5.25988 3.90956)" r="0.106772"/>
    <circle id="_330175832" class="fil4" transform="matrix(-0.695426 0.263613 0.263613 0.695426 5.1957 3.83861)" r="0.106772"/>
   </g>
   <path id="_330175568" class="fil5" d="M5.38522 3.7026c-0.294091,-0.0916811 -0.535031,-0.123437 -0.738441,-0.0706732 -0.206346,0.0535276 -0.371453,0.19252 -0.510567,0.441921l-9.44882e-005 -5.11811e-005c-0.00913386,0.0163701 -0.00326378,0.0370512 0.0131102,0.0461811 0.012374,0.00690157 0.0272087,0.00523228 0.0376575,-0.00306693l0.26626 -0.177823c0.00930709,0.024063 0.019374,0.0538976 0.019374,0.0703976 0,0.0944961 0.0859646,0.0114449 0.141768,-0.0524055l0.0152008 0.08 0.0332874 -0.00623622 -0.0333504 0.00633858c0.00349606,0.0184213 0.0212677,0.0305118 0.039685,0.0270118 0.00762205,-0.00144488 0.0141575,-0.00533858 0.0189567,-0.0107087l0.142012 -0.137031 0.0272087 0.0950118 0.032622 -0.00927953 -0.0326378 0.00934252c0.00516142,0.0180236 0.0239606,0.0284528 0.0419803,0.0232913 0.0117874,-0.00337402 0.0203268,-0.0125866 0.023378,-0.0235984 0.0250591,-0.0724764 0.074374,-0.124122 0.147228,-0.161567 0.0774449,-0.0398071 0.181642,-0.0641929 0.311398,-0.0803976l-0.00411024 -0.0336811 0.00420472 0.033685c0.0186024,-0.00232283 0.0318031,-0.0192913 0.0294803,-0.0378937 -0.00179528,-0.0143701 -0.0123346,-0.0255118 -0.0256102,-0.0287677z"/>
   <path id="_330175712" class="fil0" d="M4.74949 3.45215c0.00112992,-7.87402e-006 0.00227953,-3.14961e-005 0.0034252,-5.51181e-005 -0.00200787,0.000692913 -0.00318504,0.00073622 -0.0034252,5.51181e-005z"/>
   <path id="_330175928" class="fil5" d="M5.392 3.67695c-0.0804134,-0.215579 -0.177327,-0.366256 -0.312299,-0.44561 -0.0947126,-0.0556811 -0.20635,-0.0755906 -0.341984,-0.0574252 -0.0503937,0.00674803 -0.24024,0.0422992 -0.302055,0.17502 0.0629488,-0.0329094 0.300839,-0.0621772 0.316969,-0.0149055 -0.00966535,-0.000188976 -0.0873543,0.0518543 -0.0893504,0.0960197 0.111,-0.018874 0.150213,0.0169606 0.152606,0.0166378 -0.0105787,0.0160945 -0.0465079,0.0471535 -0.0352598,0.100846 0.0429291,-0.0394409 0.313626,0.0114528 0.396055,0.0479134 0.0712165,0.0314961 0.128539,0.071252 0.153626,0.109764 0.00471654,0.012748 0.00937795,0.025752 0.0139961,0.0389882 0.00408268,0.0156339 0.0189134,0.0265669 0.0355787,0.0252165 0.018685,-0.00151181 0.0326102,-0.0178858 0.0310984,-0.0365748l-2.75591e-005 3.93701e-006c-0.00069685,-0.0085 -0.00240945,-0.0170118 -0.0050748,-0.0255 -0.00318504,-0.0101496 -0.0078622,-0.0203071 -0.013878,-0.0303937z"/>
   <path id="_330175256" class="fil5" d="M5.69315 3.42526c-0.15289,-0.00662205 -0.258795,0.099811 -0.34574,0.293941 -0.00881102,0.0159724 -0.00340945,0.0361732 0.0123858,0.045563 0.0161142,0.00957874 0.0369449,0.00427953 0.0465236,-0.0118346l-0.0291811 -0.0173465 0.0291772 0.0172402c0.00522047,-0.0087874 0.0111772,-0.0167244 0.0177835,-0.0238465 0.0431063,-0.0464724 0.116295,-0.0617835 0.198748,-0.0542795 0.13302,0.0121024 0.35978,0.118378 0.443925,0.223772 -0.0132244,-0.0794803 -0.0407717,-0.134354 -0.0522402,-0.159917 0.0792677,0.040185 0.234028,0.103598 0.302067,0.150138 -0.108441,-0.211976 -0.392516,-0.453417 -0.623449,-0.463429z"/>
   <path id="_330175688" class="fil5" d="M5.90974 4.17612c0.0225118,0.0385748 0.0822638,0.0949843 0.157039,0.265492 0.0217441,-0.154858 -0.107744,-0.516543 -0.210386,-0.60487 -0.118449,-0.101925 -0.275575,-0.138224 -0.476752,-0.135024 -0.0121378,-0.00088189 -0.0243543,0.00481102 -0.0312638,0.0158425 -0.0409331,0.0653622 0.0453346,-0.00848425 0.0108661,0.0466614 0.0670394,0.0363386 0.272004,0.180268 0.254913,0.360551 0.040189,0.0179291 0.0550354,-0.0355079 0.0661969,-0.0605276 0.0115039,0.0289213 0.0831772,0.114783 0.0715,0.149165 0.0442717,-0.0147087 0.0455354,-0.0265945 0.0542835,-0.0508465 0.00402756,0.0111457 0.0652126,0.099685 0.0684764,0.131878 0.000397638,0.00394488 0.0357008,-0.0594016 0.035126,-0.118323z"/>
   <path id="_330175400" class="fil6" d="M4.9938 5.15146l0.296598 0c0.000492126,0.0149843 0.00105906,0.0300748 0.00170866,0.0452638l-0.298732 0c0,0 -0.000153543,-0.0162559 0.000425197,-0.0452638zm0.0297008 -0.385677c0.0220551,-0.16602 0.0602047,-0.35578 0.126161,-0.522882l0.19576 0c0,0 -0.00290551,0.015811 -0.00740945,0.0452638l-0.198862 0c-0.00126378,0 -0.00251575,-2.75591e-005 -0.00375197,-7.08661e-005 -0.0105709,0.0342323 -0.0209882,0.0697008 -0.0310906,0.106232l0.219205 0c-0.00174016,0.0142087 -0.00351181,0.029311 -0.00529528,0.0452638l-0.226106 0c-0.00908268,0.0345906 -0.0178346,0.0700197 -0.026126,0.106165l0.24161 0c-0.00130315,0.0146535 -0.00257874,0.029748 -0.00381102,0.0452638l-0.247846 0c-0.00748425,0.0348425 -0.0145118,0.0702677 -0.0209528,0.106161l0.261476 0c-0.000866142,0.014815 -0.0016811,0.0299055 -0.00244094,0.0452638l-0.266791 0c-0.00127165,0.00775984 -0.00251181,0.0155433 -0.00372835,0.0233386zm-0.00995669 0.0828268l0.276327 0c-0.000429134,0.0148937 -0.000795276,0.0299843 -0.00109843,0.0452598l-0.279819 0c0.00140157,-0.014748 0.00292913,-0.0298504 0.00459055,-0.0452598zm-0.0131102 0.151425l0.287374 0c2.3622e-005,0.0149488 0.000114173,0.0300394 0.000279528,0.0452638l-0.290339 0c0.000759843,-0.0143031 0.00164567,-0.0294173 0.00268504,-0.0452638z"/>
  </g>
 </g>
 <rect class="fil7" width="6.82666" height="6.82666"/>
</svg>
