<?xml version="1.0" encoding="UTF-8"?>
<!DOCTYPE svg PUBLIC "-//W3C//DTD SVG 1.1//EN" "http://www.w3.org/Graphics/SVG/1.1/DTD/svg11.dtd">
<!-- Creator: CorelDRAW -->
<svg xmlns="http://www.w3.org/2000/svg" xml:space="preserve" width="6.82666in" height="6.82666in" style="shape-rendering:geometricPrecision; text-rendering:geometricPrecision; image-rendering:optimizeQuality; fill-rule:evenodd; clip-rule:evenodd"
viewBox="0 0 6.82666 6.82666"
 xmlns:xlink="http://www.w3.org/1999/xlink">
 <defs>
  <style type="text/css">
   <![CDATA[
    .fil9 {fill:none}
    .fil8 {fill:#546E7A}
    .fil3 {fill:#263238;fill-rule:nonzero}
    .fil4 {fill:#69787F;fill-rule:nonzero}
    .fil5 {fill:#90A4AE;fill-rule:nonzero}
    .fil7 {fill:#AD0000;fill-rule:nonzero}
    .fil0 {fill:#CB9C25;fill-rule:nonzero}
    .fil2 {fill:#D50000;fill-rule:nonzero}
    .fil1 {fill:#FBC02D;fill-rule:nonzero}
    .fil6 {fill:#FFAB00;fill-rule:nonzero}
   ]]>
  </style>
 </defs>
 <g id="Layer_x0020_1">
  <metadata id="CorelCorpID_0Corel-Layer"/>
  <path class="fil0" d="M2.51084 3.29149c-0.0589094,0 -0.106669,0.0477598 -0.106669,0.106669 0,0.0589094 0.0477598,0.106669 0.106669,0.106669l0.676866 0c0.0589094,0 0.106669,-0.0477598 0.106669,-0.106669 0,-0.0589094 -0.0477598,-0.106669 -0.106669,-0.106669l-0.676866 0z"/>
  <path class="fil1" d="M3.21591 2.95305l0.394839 0c0.0589094,0 0.106669,0.0477598 0.106669,0.106669l0 0.676866c0,0.0589094 -0.0477598,0.106669 -0.106669,0.106669l-0.394839 0c-0.0589094,0 -0.106669,-0.0477598 -0.106669,-0.106669l0 -0.676866c0,-0.0589094 0.0477598,-0.106669 0.106669,-0.106669z"/>
  <path class="fil2" d="M3.35692 3.62992l0.112819 0c0.324161,0 0.618783,0.132539 0.832311,0.346063 0.213524,0.213528 0.346063,0.50815 0.346063,0.832311l0 1.0717c0,0.0589094 -0.0477598,0.106669 -0.106669,0.106669l-2.25622 0c-0.0589094,0 -0.106669,-0.0477598 -0.106669,-0.106669l0 -1.0717c0,-0.324161 0.132539,-0.618783 0.346063,-0.832311 0.213524,-0.213524 0.508146,-0.346063 0.832307,-0.346063z"/>
  <path class="fil3" d="M2.64486 3.20561c0,-0.0589094 -0.0477598,-0.106669 -0.106669,-0.106669 -0.0589094,0 -0.106669,0.0477598 -0.106669,0.106669l0 0.385106c0,0.0589094 0.0477598,0.106669 0.106669,0.106669 0.0589094,0 0.106669,-0.0477598 0.106669,-0.106669l0 -0.385106z"/>
  <path class="fil1" d="M3.46667 2.63959c0,-0.0294528 -0.0238819,-0.0533346 -0.0533346,-0.0533346 -0.0294528,0 -0.0533346,0.0238819 -0.0533346,0.0533346l0 0.42013c0,0.0294528 0.0238819,0.0533346 0.0533346,0.0533346 0.0294528,0 0.0533346,-0.0238819 0.0533346,-0.0533346l0 -0.42013z"/>
  <path class="fil4" d="M3.78803 1.61267l-0.749402 0c-0.0294528,0 -0.0533346,-0.0238819 -0.0533346,-0.0533346l0 -0.205862c0,-0.0294528 0.0238819,-0.0533346 0.0533346,-0.0533346l0.749402 0c0.0294528,0 0.0533346,0.0238819 0.0533346,0.0533346l0 0.205862c0,0.0294528 -0.0238819,0.0533346 -0.0533346,0.0533346z"/>
  <path class="fil4" d="M3.41333 0.84c0.0776496,0 0.147953,0.0314803 0.198846,0.0823701 0.0508898,0.0508937 0.0823701,0.121197 0.0823701,0.198846 0,0.0776457 -0.0314803,0.147953 -0.0823701,0.198846 -0.0508937,0.0508898 -0.121197,0.0823701 -0.198846,0.0823701 -0.0776496,0 -0.147953,-0.0314803 -0.198846,-0.0823701 -0.0508898,-0.0508937 -0.0823701,-0.121201 -0.0823701,-0.198846 0,-0.0776496 0.0314803,-0.147953 0.0823701,-0.198846 0.0508937,-0.0508898 0.121197,-0.0823701 0.198846,-0.0823701zm0.123429 0.157787c-0.0315827,-0.0315787 -0.0752244,-0.0511181 -0.123429,-0.0511181 -0.0482047,0 -0.0918465,0.0195394 -0.123429,0.0511181 -0.0315787,0.0315827 -0.0511181,0.0752244 -0.0511181,0.123429 0,0.0482008 0.0195394,0.0918465 0.0511181,0.123429 0.0315827,0.0315787 0.0752244,0.0511181 0.123429,0.0511181 0.0482047,0 0.0918465,-0.0195394 0.123429,-0.0511181 0.0315787,-0.0315827 0.0511181,-0.0752283 0.0511181,-0.123429 0,-0.0482047 -0.0195394,-0.0918465 -0.0511181,-0.123429z"/>
  <path class="fil5" d="M3.37385 2.95306l0.0789724 0c0.176858,0 0.337717,-0.0724291 0.454406,-0.189118 0.116689,-0.116689 0.189118,-0.277547 0.189118,-0.454406l0 -0.281327c0,-0.0994961 -0.0407835,-0.190028 -0.106476,-0.255724 -0.0656969,-0.0656929 -0.156228,-0.106476 -0.255724,-0.106476l-0.641618 0c-0.0994961,0 -0.190028,0.0407835 -0.255724,0.106476 -0.0656929,0.0656969 -0.106476,0.156228 -0.106476,0.255724l0 0.281327c0,0.176858 0.0724291,0.337717 0.189118,0.454406 0.116689,0.116689 0.277547,0.189118 0.454406,0.189118zm0.0789724 0.213339l-0.0789724 0c-0.235744,0 -0.449988,-0.0963701 -0.60524,-0.251622 -0.155252,-0.155252 -0.251622,-0.369496 -0.251622,-0.60524l0 -0.281327c0,-0.158382 0.0647205,-0.302295 0.16898,-0.406559 0.104264,-0.10426 0.248177,-0.16898 0.406559,-0.16898l0.641618 0c0.158382,0 0.302295,0.0647205 0.406559,0.16898 0.10426,0.104264 0.16898,0.248177 0.16898,0.406559l0 0.281327c0,0.235744 -0.0963701,0.449988 -0.251622,0.60524 -0.155252,0.155252 -0.369496,0.251622 -0.60524,0.251622z"/>
  <path class="fil6" d="M3.39406 2.83677c-0.0557402,-0.0196024 -0.103606,-0.0561811 -0.137429,-0.103579 -0.0333228,-0.0466969 -0.0529331,-0.10372 -0.0529331,-0.165161 0,-0.061437 0.0196102,-0.118461 0.0529331,-0.165157 0.0342205,-0.0479528 0.082811,-0.0848386 0.139394,-0.104268l-1.1811e-005 -3.14961e-005c0.0123661,-0.00424409 0.0252165,-0.00368504 0.0365276,0.000692913 0.0557598,0.0196024 0.103654,0.0561929 0.137488,0.103606 0.0333228,0.0466969 0.052937,0.10372 0.052937,0.165157 0,0.0614409 -0.0196142,0.118461 -0.052937,0.165157 -0.0342165,0.0479488 -0.0828071,0.0848386 -0.139386,0.104268l1.1811e-005 3.14961e-005c-0.0123898,0.00425591 -0.0252677,0.0036811 -0.0365945,-0.000716535z"/>
  <path class="fil1" d="M3.40165 2.8382c-0.0338031,-0.0118858 -0.0628268,-0.0340669 -0.0833346,-0.0628071 -0.0202087,-0.0283189 -0.0320984,-0.0628976 -0.0320984,-0.100154 0,-0.0372559 0.0118898,-0.0718346 0.0320984,-0.10015 0.020748,-0.0290787 0.0502126,-0.0514449 0.0845236,-0.0632283l-7.87402e-006 -1.5748e-005c0.0075,-0.0025748 0.0152913,-0.00223622 0.0221535,0.000417323 0.033811,0.0118858 0.0628543,0.0340748 0.0833701,0.0628268 0.0202047,0.028315 0.0320984,0.0628937 0.0320984,0.10015 0,0.0372559 -0.0118937,0.0718346 -0.0320984,0.10015 -0.020748,0.0290748 -0.0502126,0.0514449 -0.0845236,0.0632283l7.87402e-006 1.5748e-005c-0.00751181,0.00258268 -0.0153228,0.00223228 -0.022189,-0.000433071z"/>
  <path class="fil7" d="M2.0596 5.77333c-0.0589094,0 -0.106669,0.0477598 -0.106669,0.106669 0,0.0589094 0.0477598,0.106669 0.106669,0.106669l2.70746 0c0.0589094,0 0.106669,-0.0477598 0.106669,-0.106669 0,-0.0589094 -0.0477598,-0.106669 -0.106669,-0.106669l-2.70746 0z"/>
  <path class="fil8" d="M2.47993 3.11624c-0.024126,0.0157598 -0.0414803,0.0410276 -0.0467441,0.0704803l0.210008 0c-0.00526378,-0.0294528 -0.0226181,-0.0547205 -0.0467441,-0.0704803l-0.11652 0z"/>
  <polygon class="fil8" points="2.43152,3.2572 2.43152,3.32684 2.43152,3.32768 2.64486,3.32768 2.64486,3.29149 2.64486,3.2572 "/>
  <polygon class="fil8" points="2.43152,3.39816 2.43152,3.46864 2.64486,3.46864 2.64486,3.39816 "/>
  <path class="fil8" d="M2.43152 3.53912l0 0.0515906c0,0.00644488 0.000570866,0.0127598 0.00166929,0.0188898l0.21 0c0.00109843,-0.00612992 0.00166929,-0.0124449 0.00166929,-0.0188898l0 -0.0515906 -0.213339 0z"/>
 </g>
 <rect class="fil9" width="6.82666" height="6.82666"/>
</svg>
