<?xml version="1.0" encoding="UTF-8"?>
<!DOCTYPE svg PUBLIC "-//W3C//DTD SVG 1.1//EN" "http://www.w3.org/Graphics/SVG/1.1/DTD/svg11.dtd">
<!-- Creator: CorelDRAW -->
<svg xmlns="http://www.w3.org/2000/svg" xml:space="preserve" width="6.82666in" height="6.82666in" style="shape-rendering:geometricPrecision; text-rendering:geometricPrecision; image-rendering:optimizeQuality; fill-rule:evenodd; clip-rule:evenodd"
viewBox="0 0 6.82666 6.82666"
 xmlns:xlink="http://www.w3.org/1999/xlink">
 <defs>
  <style type="text/css">
   <![CDATA[
    .fil4 {fill:none}
    .fil2 {fill:#263238}
    .fil0 {fill:#42A5F5}
    .fil1 {fill:#90CAF9}
    .fil3 {fill:#FFFFFE}
   ]]>
  </style>
 </defs>
 <g id="Layer_x0020_1">
  <metadata id="CorelCorpID_0Corel-Layer"/>
  <path class="fil0" d="M5.36133 3.31218c0.0480984,-0.0257441 0.0986654,-0.0472795 0.150882,-0.0631614l0.403622 -0.122756c-0.108543,0.109665 -0.527728,0.516217 -0.536236,0.643795 -0.00182677,0.0274134 0.0487913,0.107945 0.0624961,0.13026 0.140799,0.229268 0.340787,0.357165 0.531232,0.549031 -0.330043,-0.0782874 -0.791539,-0.155827 -1.0029,-0.458425 -0.0981102,-0.139913 -1.66782,0.000874016 -1.91579,-0.00925591 -0.15289,-0.00624409 -0.305776,-0.0124843 -0.458689,-0.0180669l-0.0562087 -0.00205118c0.0392717,0.0604606 0.0813661,0.11798 0.122606,0.167598 0.0186929,0.0224843 0.0381063,0.0443937 0.0583661,0.0654803l0.272402 0.283528 -0.378343 -0.106988c-0.113209,-0.0320157 -0.22028,-0.0956732 -0.311457,-0.169079 -0.129815,-0.104516 -0.242331,-0.240913 -0.318764,-0.391063l0.0227598 0.125571c-0.232878,0.0148858 -0.474094,0.00531102 -0.708787,0.0109606 -0.125693,0.00302756 -0.343378,0.0024252 -0.441366,-0.0907244 -0.0247913,-0.0235669 -0.040378,-0.0541654 -0.0404646,-0.0889646 -8.66142e-005,-0.0351614 0.0136929,-0.0674724 0.0322283,-0.0966457 0.0735,-0.115681 0.302449,-0.214665 0.431075,-0.257898 0.0151969,-0.00509449 0.266335,-0.886087 1.32793,-0.715614 0.00899606,0.00144488 0.0179803,0.00298031 0.0269488,0.00459843l0.118138 0.0266457 -0.025185 0.10161c0.0671732,-0.0969094 0.148787,-0.184594 0.238705,-0.256984 0.0911732,-0.0734016 0.198236,-0.137063 0.311441,-0.169075l0.378339 -0.106988 -0.272398 0.283528c-0.0202559,0.0210827 -0.0396654,0.0429921 -0.0583543,0.0654724 -0.0521142,0.0627008 -0.105587,0.138016 -0.153083,0.215906l0.0853937 0.0329685c0.143201,0.0552874 0.285201,0.113776 0.427181,0.172102 0.35628,0.146366 0.72665,0.260709 1.08706,0.398772 0.238972,0.0915433 0.210823,0.0484331 0.589224,-0.154087z"/>
  <path class="fil1" d="M4.37682 3.92932c-0.504476,0.00674016 -1.16819,0.0586378 -1.32218,0.0523465 -0.15289,-0.00624409 -0.305776,-0.0124843 -0.458689,-0.0180669l-0.0562087 -0.00205118c-0.178894,-0.147122 0.109457,-0.177528 0.192787,-0.295583 0.0833307,-0.118055 0.986114,-0.0347244 1.27083,0.00694488 0.115012,0.0168307 0.251547,0.128858 0.373457,0.256409z"/>
  <circle class="fil2" cx="1.94603" cy="3.00971" r="0.102957"/>
  <circle class="fil3" cx="1.94603" cy="3.00971" r="0.0742231"/>
  <circle class="fil2" cx="1.94603" cy="3.00971" r="0.0419059"/>
 </g>
 <rect class="fil4" width="6.82666" height="6.82666"/>
</svg>
