<?xml version="1.0" encoding="UTF-8"?>
<!DOCTYPE svg PUBLIC "-//W3C//DTD SVG 1.1//EN" "http://www.w3.org/Graphics/SVG/1.1/DTD/svg11.dtd">
<!-- Creator: CorelDRAW -->
<svg xmlns="http://www.w3.org/2000/svg" xml:space="preserve" width="6.82666in" height="6.82666in" style="shape-rendering:geometricPrecision; text-rendering:geometricPrecision; image-rendering:optimizeQuality; fill-rule:evenodd; clip-rule:evenodd"
viewBox="0 0 6.82666 6.82666"
 xmlns:xlink="http://www.w3.org/1999/xlink">
 <defs>
  <style type="text/css">
   <![CDATA[
    .fil9 {fill:none}
    .fil7 {fill:#7E7A70}
    .fil5 {fill:#8C877C}
    .fil3 {fill:#9C968A}
    .fil1 {fill:#ADA799}
    .fil8 {fill:#8C877C;fill-rule:nonzero}
    .fil6 {fill:#ADA799;fill-rule:nonzero}
    .fil4 {fill:#C0B9AA;fill-rule:nonzero}
    .fil2 {fill:#D5CDBD;fill-rule:nonzero}
    .fil0 {fill:#EDE4D2;fill-rule:nonzero}
   ]]>
  </style>
 </defs>
 <g id="Layer_x0020_1">
  <metadata id="CorelCorpID_0Corel-Layer"/>
  <g id="_330169328">
   <path id="_330171008" class="fil0" d="M3.21726 5.16828c-0.131012,0.0224528 -0.292728,-0.134201 -0.456272,-0.394457 -0.14598,-0.232315 -0.307291,-0.554264 -0.452752,-0.896587 -0.160886,-0.37863 -0.303339,-0.784382 -0.385118,-1.12344 -0.111516,-0.462343 -0.060378,-0.833539 0.0719016,-1.07666 0.0650787,-0.11961 0.150173,-0.209921 0.24648,-0.26715 0.101142,-0.0600984 0.213646,-0.0837559 0.328287,-0.0670709 0.0824291,0.0119961 0.16502,0.0449055 0.243925,0.100205 -0.160386,0.264016 -0.211457,0.612232 -0.211457,0.900839 0,0.354248 0.0360669,0.719346 0.0848898,1.07003 0.0354213,0.254417 0.0795709,0.508768 0.134709,0.759673 0.0533189,0.242622 0.123354,0.508543 0.227535,0.734579 0.0377126,0.0818189 0.0929449,0.186764 0.16787,0.260047z"/>
   <path id="_330171152" class="fil0" d="M2.82062 5.0415c-0.112996,-0.0860472 -0.241197,-0.20478 -0.37352,-0.343295 -0.332898,-0.348476 -0.698724,-0.828256 -0.915815,-1.22856 -0.183984,-0.33926 -0.232602,-0.661685 -0.193335,-0.9205 0.0195591,-0.128933 0.0609173,-0.242886 0.118445,-0.336437 0.0601181,-0.0977638 0.138083,-0.173835 0.227945,-0.222567 0.0326496,-0.0177047 0.0667165,-0.0317756 0.101941,-0.0419449 -0.0560276,0.27287 -0.029752,0.569854 0.0331417,0.83061 0.0929213,0.38524 0.235563,0.775189 0.390642,1.14015 0.130748,0.307709 0.282579,0.628315 0.460606,0.911626 0.044252,0.0704252 0.0943425,0.143854 0.149949,0.210921z"/>
   <path id="_330170744" class="fil0" d="M2.83361 5.20308c-0.00632677,-0.00193701 -0.012689,-0.00392913 -0.0190945,-0.00599606 -0.168669,-0.0543819 -0.374909,-0.153043 -0.58778,-0.277134 -0.352173,-0.205295 -0.727461,-0.482748 -0.983591,-0.745756 -0.195638,-0.20089 -0.309961,-0.422406 -0.359752,-0.635075 -0.0398701,-0.170303 -0.0384685,-0.335358 -0.00431102,-0.480413 0.0465354,-0.197642 0.161787,-0.384067 0.347051,-0.477 -0.0358976,0.324 0.0576772,0.65535 0.21139,0.938787 0.135287,0.249461 0.302346,0.491043 0.475287,0.715795 0.142803,0.185583 0.295386,0.366244 0.457161,0.535594 0.119272,0.12485 0.248528,0.249768 0.386028,0.354476l0.075315 0.0573543c-9.84252e-005,0.0067126 0.000531496,0.0128583 0.00229528,0.0193661z"/>
   <path id="_330170600" class="fil1" d="M2.4471 4.6982c-0.332898,-0.348476 -0.698724,-0.828256 -0.915815,-1.22856 -0.183984,-0.33926 -0.232602,-0.661685 -0.193335,-0.9205 0.00394488,-0.0260079 0.00877953,-0.0514094 0.0144528,-0.0761535l-0.126272 0.108717c-0.0358976,0.324 0.0576772,0.65535 0.21139,0.938787 0.135287,0.249461 0.302346,0.491043 0.475287,0.715795 0.142803,0.185583 0.295386,0.366244 0.457161,0.535594 0.119272,0.12485 0.248528,0.249768 0.386028,0.354476l0.0266024 0.0202598c0.0333031,-0.0270394 0.0709567,-0.0527559 0.112323,-0.0761811 0.020626,-0.0116811 0.0422441,-0.0228819 0.0647598,-0.0334843 -0.0645866,-0.0667205 -0.131488,-0.156177 -0.198697,-0.26313 -0.14598,-0.232315 -0.307291,-0.554264 -0.452752,-0.896587 -0.160886,-0.37863 -0.303339,-0.784382 -0.385118,-1.12344 -0.108728,-0.450791 -0.0628307,-0.814937 0.0621417,-1.0582l-0.198976 0.252602c-0.0560276,0.27287 -0.029752,0.569854 0.0331417,0.83061 0.0929213,0.38524 0.235563,0.775189 0.390642,1.14015 0.130748,0.307709 0.282579,0.628315 0.460606,0.911626 0.044252,0.0704252 0.0943425,0.143854 0.149949,0.210921 -0.112996,-0.0860472 -0.241197,-0.20478 -0.37352,-0.343295z"/>
   <path id="_330170936" class="fil1" d="M2.92603 4.15076c-0.12478,-0.567795 -0.217114,-1.28398 -0.217114,-1.80681 0,-0.548811 0.173154,-0.905787 0.394776,-1.0668l-0.289984 0.165957c-0.160386,0.264016 -0.211457,0.612232 -0.211457,0.900839 0,0.354248 0.0360669,0.719346 0.0848898,1.07003 0.0354213,0.254417 0.0795709,0.508768 0.134709,0.759673 0.0533189,0.242622 0.123354,0.508543 0.227535,0.734579 0.0113228,0.024563 0.0242205,0.0512087 0.0387598,0.0784567 0.0342283,-0.0108543 0.069815,-0.0202323 0.106547,-0.0278268 -0.101307,-0.178996 -0.194173,-0.469157 -0.268661,-0.808102z"/>
   <g>
    <path id="_330170144" class="fil0" d="M3.41333 5.15003c-0.00149213,5.90551e-005 -0.00298819,0.000165354 -0.00448031,0.000165354 -0.181374,0 -0.357933,-0.431146 -0.482819,-0.999433 -0.12478,-0.567795 -0.217114,-1.28398 -0.217114,-1.80681 0,-0.548811 0.173154,-0.905787 0.394776,-1.0668 0.0952756,-0.0692205 0.199756,-0.103831 0.305157,-0.103831l0.00448031 1.9685e-005 0.00448031 -1.9685e-005c0.105402,0 0.209882,0.0346102 0.305157,0.103831 0.221622,0.161008 0.394776,0.517984 0.394776,1.0668 0,0.522823 -0.0923346,1.23901 -0.217114,1.80681 -0.124886,0.568287 -0.301445,0.999433 -0.482819,0.999433 -0.00149213,0 -0.00298819,-0.000106299 -0.00448031,-0.000165354z"/>
    <path id="_330170024" class="fil0" d="M3.60941 5.16828c0.131012,0.0224528 0.292728,-0.134201 0.456272,-0.394457 0.14598,-0.232315 0.307291,-0.554264 0.452752,-0.896587 0.160886,-0.37863 0.303339,-0.784382 0.385118,-1.12344 0.111516,-0.462343 0.060378,-0.833539 -0.0719016,-1.07666 -0.0650787,-0.11961 -0.150173,-0.209921 -0.24648,-0.26715 -0.101142,-0.0600984 -0.213646,-0.0837559 -0.328287,-0.0670709 -0.0824291,0.0119961 -0.16502,0.0449055 -0.243925,0.100205 0.160386,0.264016 0.211457,0.612232 0.211457,0.900839 0,0.354248 -0.0360669,0.719346 -0.0848898,1.07003 -0.0354213,0.254417 -0.0795709,0.508768 -0.134709,0.759673 -0.0533189,0.242622 -0.123354,0.508543 -0.227535,0.734579 -0.0377126,0.0818189 -0.0929449,0.186764 -0.16787,0.260047z"/>
    <path id="_330170576" class="fil0" d="M4.00604 5.0415c0.112996,-0.0860472 0.241197,-0.20478 0.37352,-0.343295 0.332898,-0.348476 0.698724,-0.828256 0.915815,-1.22856 0.183984,-0.33926 0.232602,-0.661685 0.193335,-0.9205 -0.0195591,-0.128933 -0.0609173,-0.242886 -0.118445,-0.336437 -0.0601181,-0.0977638 -0.138083,-0.173835 -0.227945,-0.222567 -0.0326496,-0.0177047 -0.0667165,-0.0317756 -0.101941,-0.0419449 0.0560276,0.27287 0.029752,0.569854 -0.0331417,0.83061 -0.0929213,0.38524 -0.235563,0.775189 -0.390642,1.14015 -0.130748,0.307709 -0.282579,0.628315 -0.460606,0.911626 -0.044252,0.0704252 -0.0943425,0.143854 -0.149949,0.210921z"/>
    <path id="_330170552" class="fil0" d="M3.99306 5.20308c0.00632677,-0.00193701 0.012689,-0.00392913 0.0190945,-0.00599606 0.168669,-0.0543819 0.374909,-0.153043 0.58778,-0.277134 0.352173,-0.205295 0.727461,-0.482748 0.983591,-0.745756 0.195638,-0.20089 0.309961,-0.422406 0.359752,-0.635075 0.0398701,-0.170303 0.0384685,-0.335358 0.00431102,-0.480413 -0.0465354,-0.197642 -0.161787,-0.384067 -0.347051,-0.477 0.0358976,0.324 -0.0576772,0.65535 -0.21139,0.938787 -0.135287,0.249461 -0.302346,0.491043 -0.475287,0.715795 -0.142803,0.185583 -0.295386,0.366244 -0.457161,0.535594 -0.119272,0.12485 -0.248528,0.249768 -0.386028,0.354476l-0.075315 0.0573543c9.84252e-005,0.0067126 -0.000531496,0.0128583 -0.00229528,0.0193661z"/>
    <path id="_330170504" class="fil1" d="M4.37956 4.6982c0.332898,-0.348476 0.698724,-0.828256 0.915815,-1.22856 0.183984,-0.33926 0.232602,-0.661685 0.193335,-0.9205 -0.00394488,-0.0260079 -0.00877953,-0.0514094 -0.0144528,-0.0761535l0.126272 0.108717c0.0358976,0.324 -0.0576772,0.65535 -0.21139,0.938787 -0.135287,0.249461 -0.302346,0.491043 -0.475287,0.715795 -0.142803,0.185583 -0.295386,0.366244 -0.457161,0.535594 -0.119272,0.12485 -0.248528,0.249768 -0.386028,0.354476l-0.0266024 0.0202598c-0.0333031,-0.0270394 -0.0709567,-0.0527559 -0.112323,-0.0761811 -0.020626,-0.0116811 -0.0422441,-0.0228819 -0.0647598,-0.0334843 0.0645866,-0.0667205 0.131488,-0.156177 0.198697,-0.26313 0.14598,-0.232315 0.307291,-0.554264 0.452752,-0.896587 0.160886,-0.37863 0.303339,-0.784382 0.385118,-1.12344 0.108728,-0.450791 0.0628307,-0.814937 -0.0621417,-1.0582l0.198976 0.252602c0.0560276,0.27287 0.029752,0.569854 -0.0331417,0.83061 -0.0929213,0.38524 -0.235563,0.775189 -0.390642,1.14015 -0.130748,0.307709 -0.282579,0.628315 -0.460606,0.911626 -0.044252,0.0704252 -0.0943425,0.143854 -0.149949,0.210921 0.112996,-0.0860472 0.241197,-0.20478 0.37352,-0.343295z"/>
    <path id="_330170528" class="fil1" d="M3.90063 4.15076c0.12478,-0.567795 0.217114,-1.28398 0.217114,-1.80681 0,-0.548811 -0.173154,-0.905787 -0.394776,-1.0668l0.289984 0.165957c0.160386,0.264016 0.211457,0.612232 0.211457,0.900839 0,0.354248 -0.0360669,0.719346 -0.0848898,1.07003 -0.0354213,0.254417 -0.0795709,0.508768 -0.134709,0.759673 -0.0533189,0.242622 -0.123354,0.508543 -0.227535,0.734579 -0.0113228,0.024563 -0.0242205,0.0512087 -0.0387598,0.0784567 -0.0342283,-0.0108543 -0.069815,-0.0202323 -0.106547,-0.0278268 0.101307,-0.178996 0.194173,-0.469157 0.268661,-0.808102z"/>
   </g>
  </g>
  <g id="_330168272">
   <path id="_330169760" class="fil2" d="M3.21726 5.16828c-0.131012,0.0224528 -0.292728,-0.134201 -0.456272,-0.394457 -0.14598,-0.232315 -0.307291,-0.554264 -0.452752,-0.896587 -0.035311,-0.0830984 -0.0697283,-0.167508 -0.102819,-0.252228 0.154886,-0.0790039 0.317539,-0.142295 0.484787,-0.189217 0.0348937,0.247142 0.0780866,0.494126 0.13165,0.737862 0.0533189,0.242622 0.123354,0.508543 0.227535,0.734579 0.0377126,0.0818189 0.0929449,0.186764 0.16787,0.260047z"/>
   <path id="_330169592" class="fil2" d="M2.82062 5.0415c-0.112996,-0.0860472 -0.241197,-0.20478 -0.37352,-0.343295 -0.221531,-0.231898 -0.457626,-0.521937 -0.654787,-0.808012 0.0984291,-0.0784449 0.203669,-0.149425 0.314244,-0.212035l0.00384646 -0.00215748c0.0323622,0.0819764 0.0657126,0.163063 0.0996614,0.242953 0.130748,0.307709 0.282579,0.628315 0.460606,0.911626 0.044252,0.0704252 0.0943425,0.143854 0.149949,0.210921z"/>
   <path id="_330169184" class="fil2" d="M2.83361 5.20308c-0.00632677,-0.00193701 -0.012689,-0.00392913 -0.0190945,-0.00599606 -0.168669,-0.0543819 -0.374909,-0.153043 -0.58778,-0.277134 -0.291378,-0.169854 -0.598571,-0.389102 -0.841016,-0.608697 0.093878,-0.128142 0.203004,-0.246083 0.324087,-0.352114 0.065626,0.0946929 0.133843,0.187268 0.203004,0.27715 0.142803,0.185583 0.295386,0.366244 0.457161,0.535594 0.119272,0.12485 0.248528,0.249768 0.386028,0.354476l0.075315 0.0573543c-9.84252e-005,0.0067126 0.000531496,0.0128583 0.00229528,0.0193661z"/>
   <path id="_330169136" class="fil3" d="M2.4471 4.6982c-0.221531,-0.231898 -0.457626,-0.521937 -0.654787,-0.808012 -0.0280748,0.022374 -0.0555827,0.045374 -0.0825079,0.0689488 0.065626,0.0946929 0.133843,0.187268 0.203004,0.27715 0.142803,0.185583 0.295386,0.366244 0.457161,0.535594 0.119272,0.12485 0.248528,0.249768 0.386028,0.354476l0.0266024 0.0202598c0.0333031,-0.0270394 0.0709567,-0.0527559 0.112323,-0.0761811 0.020626,-0.0116811 0.0422441,-0.0228819 0.0647598,-0.0334843 -0.0645866,-0.0667205 -0.131488,-0.156177 -0.198697,-0.26313 -0.14598,-0.232315 -0.307291,-0.554264 -0.452752,-0.896587 -0.035311,-0.0830984 -0.0697283,-0.167508 -0.102819,-0.252228 -0.0320118,0.0163268 -0.063689,0.0333268 -0.0950118,0.0509882 0.0323622,0.0819764 0.0657126,0.163063 0.0996614,0.242953 0.130748,0.307709 0.282579,0.628315 0.460606,0.911626 0.044252,0.0704252 0.0943425,0.143854 0.149949,0.210921 -0.112996,-0.0860472 -0.241197,-0.20478 -0.37352,-0.343295z"/>
   <path id="_330169352" class="fil3" d="M2.92603 4.15076c-0.0506457,-0.230461 -0.0959449,-0.485374 -0.131898,-0.741878 -0.0348189,0.00827165 -0.0694764,0.0172441 -0.103933,0.0269094 0.0348937,0.247142 0.0780866,0.494126 0.13165,0.737862 0.0533189,0.242622 0.123354,0.508543 0.227535,0.734579 0.0113228,0.024563 0.0242205,0.0512087 0.0387598,0.0784567 0.0342283,-0.0108543 0.069815,-0.0202323 0.106547,-0.0278268 -0.101307,-0.178996 -0.194173,-0.469157 -0.268661,-0.808102z"/>
   <g>
    <path id="_330168776" class="fil2" d="M3.41333 5.15003c-0.00149213,5.90551e-005 -0.00298819,0.000165354 -0.00448031,0.000165354 -0.181374,0 -0.357933,-0.431146 -0.482819,-0.999433 -0.0506457,-0.230461 -0.0959449,-0.485374 -0.131898,-0.741878 0.202551,-0.0481063 0.41076,-0.0725079 0.619197,-0.0720079 0.208437,-0.0005 0.416646,0.0239016 0.619197,0.0720079 -0.0359528,0.256504 -0.081252,0.511417 -0.131898,0.741878 -0.124886,0.568287 -0.301445,0.999433 -0.482819,0.999433 -0.00149213,0 -0.00298819,-0.000106299 -0.00448031,-0.000165354z"/>
    <path id="_330168656" class="fil2" d="M3.60941 5.16828c0.131012,0.0224528 0.292728,-0.134201 0.456272,-0.394457 0.14598,-0.232315 0.307291,-0.554264 0.452752,-0.896587 0.035311,-0.0830984 0.0697283,-0.167508 0.102819,-0.252228 -0.154886,-0.0790039 -0.317539,-0.142295 -0.484787,-0.189217 -0.0348937,0.247142 -0.0780866,0.494126 -0.13165,0.737862 -0.0533189,0.242622 -0.123354,0.508543 -0.227535,0.734579 -0.0377126,0.0818189 -0.0929449,0.186764 -0.16787,0.260047z"/>
    <path id="_330168368" class="fil2" d="M4.00604 5.0415c0.112996,-0.0860472 0.241197,-0.20478 0.37352,-0.343295 0.221531,-0.231898 0.457626,-0.521937 0.654787,-0.808012 -0.0984291,-0.0784449 -0.203669,-0.149425 -0.314244,-0.212035l-0.00384646 -0.00215748c-0.0323622,0.0819764 -0.0657126,0.163063 -0.0996614,0.242953 -0.130748,0.307709 -0.282579,0.628315 -0.460606,0.911626 -0.044252,0.0704252 -0.0943425,0.143854 -0.149949,0.210921z"/>
    <path id="_330168968" class="fil2" d="M3.99306 5.20308c0.00632677,-0.00193701 0.012689,-0.00392913 0.0190945,-0.00599606 0.168669,-0.0543819 0.374909,-0.153043 0.58778,-0.277134 0.291378,-0.169854 0.598571,-0.389102 0.841016,-0.608697 -0.093878,-0.128142 -0.203004,-0.246083 -0.324087,-0.352114 -0.065626,0.0946929 -0.133843,0.187268 -0.203004,0.27715 -0.142803,0.185583 -0.295386,0.366244 -0.457161,0.535594 -0.119272,0.12485 -0.248528,0.249768 -0.386028,0.354476l-0.075315 0.0573543c9.84252e-005,0.0067126 -0.000531496,0.0128583 -0.00229528,0.0193661z"/>
    <path id="_330168872" class="fil3" d="M4.37956 4.6982c0.221531,-0.231898 0.457626,-0.521937 0.654787,-0.808012 0.0280748,0.022374 0.0555827,0.045374 0.0825079,0.0689488 -0.065626,0.0946929 -0.133843,0.187268 -0.203004,0.27715 -0.142803,0.185583 -0.295386,0.366244 -0.457161,0.535594 -0.119272,0.12485 -0.248528,0.249768 -0.386028,0.354476l-0.0266024 0.0202598c-0.0333031,-0.0270394 -0.0709567,-0.0527559 -0.112323,-0.0761811 -0.020626,-0.0116811 -0.0422441,-0.0228819 -0.0647598,-0.0334843 0.0645866,-0.0667205 0.131488,-0.156177 0.198697,-0.26313 0.14598,-0.232315 0.307291,-0.554264 0.452752,-0.896587 0.035311,-0.0830984 0.0697283,-0.167508 0.102819,-0.252228 0.0320118,0.0163268 0.063689,0.0333268 0.0950118,0.0509882 -0.0323622,0.0819764 -0.0657126,0.163063 -0.0996614,0.242953 -0.130748,0.307709 -0.282579,0.628315 -0.460606,0.911626 -0.044252,0.0704252 -0.0943425,0.143854 -0.149949,0.210921 0.112996,-0.0860472 0.241197,-0.20478 0.37352,-0.343295z"/>
    <path id="_330168608" class="fil3" d="M3.90063 4.15076c0.0506457,-0.230461 0.0959449,-0.485374 0.131898,-0.741878 0.0348189,0.00827165 0.0694764,0.0172441 0.103933,0.0269094 -0.0348937,0.247142 -0.0780866,0.494126 -0.13165,0.737862 -0.0533189,0.242622 -0.123354,0.508543 -0.227535,0.734579 -0.0113228,0.024563 -0.0242205,0.0512087 -0.0387598,0.0784567 -0.0342283,-0.0108543 -0.069815,-0.0202323 -0.106547,-0.0278268 0.101307,-0.178996 0.194173,-0.469157 0.268661,-0.808102z"/>
   </g>
  </g>
  <g id="_330166424">
   <path id="_330168080" class="fil4" d="M3.21726 5.16828c-0.131012,0.0224528 -0.292728,-0.134201 -0.456272,-0.394457 -0.0667283,-0.106193 -0.136661,-0.231126 -0.206819,-0.368161 0.0931575,-0.0505591 0.191028,-0.0925748 0.291874,-0.125673 0.050063,0.212232 0.114205,0.434835 0.203346,0.628244 0.0377126,0.0818189 0.0929449,0.186764 0.16787,0.260047z"/>
   <path id="_330167984" class="fil4" d="M2.82062 5.0415c-0.112996,-0.0860472 -0.241197,-0.20478 -0.37352,-0.343295 -0.0419291,-0.0438937 -0.0843819,-0.089874 -0.126996,-0.137512 0.0451142,-0.0361811 0.0923386,-0.0697598 0.141051,-0.100551 0.0655276,0.127539 0.13524,0.252236 0.209516,0.370437 0.044252,0.0704252 0.0943425,0.143854 0.149949,0.210921z"/>
   <path id="_330167888" class="fil4" d="M2.83361 5.20308c-0.00632677,-0.00193701 -0.012689,-0.00392913 -0.0190945,-0.00599606 -0.168669,-0.0543819 -0.374909,-0.153043 -0.58778,-0.277134 -0.0525236,-0.0306181 -0.105559,-0.0628504 -0.158638,-0.0963898 0.0500276,-0.0695276 0.107795,-0.134091 0.171189,-0.193067 0.0428661,0.0478858 0.0864291,0.095063 0.130685,0.14139 0.119272,0.12485 0.248528,0.249768 0.386028,0.354476l0.075315 0.0573543c-9.84252e-005,0.0067126 0.000531496,0.0128583 0.00229528,0.0193661z"/>
   <path id="_330167816" class="fil5" d="M2.4471 4.6982c-0.0419291,-0.0438937 -0.0843819,-0.089874 -0.126996,-0.137512 -0.0277953,0.0222913 -0.0547795,0.0455787 -0.0808189,0.0698031 0.0428661,0.0478858 0.0864291,0.095063 0.130685,0.14139 0.119272,0.12485 0.248528,0.249768 0.386028,0.354476l0.0266024 0.0202598c0.0333031,-0.0270394 0.0709567,-0.0527559 0.112323,-0.0761811 0.020626,-0.0116811 0.0422441,-0.0228819 0.0647598,-0.0334843 -0.0645866,-0.0667205 -0.131488,-0.156177 -0.198697,-0.26313 -0.0667283,-0.106193 -0.136661,-0.231126 -0.206819,-0.368161 -0.00909449,0.00493307 -0.0181417,0.00994488 -0.0271457,0.0150433 -0.0222126,0.0125787 -0.044185,0.0257323 -0.0658661,0.0394331 0.0655276,0.127539 0.13524,0.252236 0.209516,0.370437 0.044252,0.0704252 0.0943425,0.143854 0.149949,0.210921 -0.112996,-0.0860472 -0.241197,-0.20478 -0.37352,-0.343295z"/>
   <path id="_330167864" class="fil5" d="M2.84604 4.27999c0.050063,0.212232 0.114205,0.434835 0.203346,0.628244 0.0113228,0.024563 0.0242205,0.0512087 0.0387598,0.0784567 0.0342283,-0.0108543 0.069815,-0.0202323 0.106547,-0.0278268 -0.0913031,-0.161323 -0.175752,-0.412945 -0.246067,-0.709193 -0.0344843,0.00909055 -0.0687047,0.0192008 -0.102587,0.0303189z"/>
   <g>
    <path id="_330167384" class="fil4" d="M3.41333 5.15003c-0.00149213,5.90551e-005 -0.00298819,0.000165354 -0.00448031,0.000165354 -0.170693,0 -0.33711,-0.38187 -0.460217,-0.900524 0.151075,-0.0398268 0.307335,-0.060063 0.46326,-0.0594646l0.00143701 3.93701e-006 0.00143701 -3.93701e-006c0.155925,-0.000598425 0.312185,0.0196378 0.46326,0.0594646 -0.123106,0.518654 -0.289524,0.900524 -0.460217,0.900524 -0.00149213,0 -0.00298819,-0.000106299 -0.00448031,-0.000165354z"/>
    <path id="_330167240" class="fil4" d="M3.60941 5.16828c0.131012,0.0224528 0.292728,-0.134201 0.456272,-0.394457 0.0667283,-0.106193 0.136661,-0.231126 0.206819,-0.368161 -0.0931575,-0.0505591 -0.191028,-0.0925748 -0.291874,-0.125673 -0.050063,0.212232 -0.114205,0.434835 -0.203346,0.628244 -0.0377126,0.0818189 -0.0929449,0.186764 -0.16787,0.260047z"/>
    <path id="_330167072" class="fil4" d="M4.00604 5.0415c0.112996,-0.0860472 0.241197,-0.20478 0.37352,-0.343295 0.0419291,-0.0438937 0.0843819,-0.089874 0.126996,-0.137512 -0.0451142,-0.0361811 -0.0923386,-0.0697598 -0.141051,-0.100551 -0.0655276,0.127539 -0.13524,0.252236 -0.209516,0.370437 -0.044252,0.0704252 -0.0943425,0.143854 -0.149949,0.210921z"/>
    <path id="_330166808" class="fil4" d="M3.99306 5.20308c0.00632677,-0.00193701 0.012689,-0.00392913 0.0190945,-0.00599606 0.168669,-0.0543819 0.374909,-0.153043 0.58778,-0.277134 0.0525236,-0.0306181 0.105559,-0.0628504 0.158638,-0.0963898 -0.0500276,-0.0695276 -0.107795,-0.134091 -0.171189,-0.193067 -0.0428661,0.0478858 -0.0864291,0.095063 -0.130685,0.14139 -0.119272,0.12485 -0.248528,0.249768 -0.386028,0.354476l-0.075315 0.0573543c9.84252e-005,0.0067126 -0.000531496,0.0128583 -0.00229528,0.0193661z"/>
    <path id="_330167096" class="fil5" d="M4.37956 4.6982c0.0419291,-0.0438937 0.0843819,-0.089874 0.126996,-0.137512 0.0277953,0.0222913 0.0547795,0.0455787 0.0808189,0.0698031 -0.0428661,0.0478858 -0.0864291,0.095063 -0.130685,0.14139 -0.119272,0.12485 -0.248528,0.249768 -0.386028,0.354476l-0.0266024 0.0202598c-0.0333031,-0.0270394 -0.0709567,-0.0527559 -0.112323,-0.0761811 -0.020626,-0.0116811 -0.0422441,-0.0228819 -0.0647598,-0.0334843 0.0645866,-0.0667205 0.131488,-0.156177 0.198697,-0.26313 0.0667283,-0.106193 0.136661,-0.231126 0.206819,-0.368161 0.00909449,0.00493307 0.0181417,0.00994488 0.0271457,0.0150433 0.0222126,0.0125787 0.044185,0.0257323 0.0658661,0.0394331 -0.0655276,0.127539 -0.13524,0.252236 -0.209516,0.370437 -0.044252,0.0704252 -0.0943425,0.143854 -0.149949,0.210921 0.112996,-0.0860472 0.241197,-0.20478 0.37352,-0.343295z"/>
    <path id="_330167024" class="fil5" d="M3.98062 4.27999c-0.050063,0.212232 -0.114205,0.434835 -0.203346,0.628244 -0.0113228,0.024563 -0.0242205,0.0512087 -0.0387598,0.0784567 -0.0342283,-0.0108543 -0.069815,-0.0202323 -0.106547,-0.0278268 0.0913031,-0.161323 0.175752,-0.412945 0.246067,-0.709193 0.0344843,0.00909055 0.0687047,0.0192008 0.102587,0.0303189z"/>
   </g>
  </g>
  <g id="_330181112">
   <path id="_330166664" class="fil6" d="M3.21726 5.16828c-0.130374,0.0223425 -0.291157,-0.132701 -0.453886,-0.390685 0.0637874,-0.0342126 0.130575,-0.0632008 0.199311,-0.0867402 0.0260276,0.0749921 0.0547559,0.148063 0.0867047,0.217378 0.0377126,0.0818189 0.0929449,0.186764 0.16787,0.260047z"/>
   <path id="_330166280" class="fil6" d="M2.82062 5.0415c-0.0631142,-0.048063 -0.130972,-0.106327 -0.201646,-0.172535 0.0173307,-0.012874 0.0349252,-0.0251575 0.0526654,-0.0368465 0.0440118,0.0699567 0.0937795,0.142803 0.14898,0.209382z"/>
   <path id="_330166544" class="fil6" d="M2.83361 5.20308c-0.00632677,-0.00193701 -0.012689,-0.00392913 -0.0190945,-0.00599606 -0.111075,-0.035811 -0.238449,-0.0908307 -0.373276,-0.159665 0.0287087,-0.0355354 0.0605669,-0.0689173 0.0944764,-0.0999094 0.0707087,0.0668465 0.144236,0.130937 0.220283,0.18885l0.075315 0.0573543c-9.84252e-005,0.0067126 0.000531496,0.0128583 0.00229528,0.0193661z"/>
   <path id="_330166040" class="fil7" d="M2.53571 4.93751c0.0707087,0.0668465 0.144236,0.130937 0.220283,0.18885l0.0266024 0.0202598c0.0333031,-0.0270394 0.0709567,-0.0527559 0.112323,-0.0761811 0.020626,-0.0116811 0.0422441,-0.0228819 0.0647598,-0.0334843 -0.0638228,-0.0659331 -0.129909,-0.154071 -0.196319,-0.259354 -0.00875984,0.00469685 -0.0174646,0.00948819 -0.0261102,0.0143819 -0.0219528,0.0124291 -0.0438976,0.0258307 -0.0656142,0.0401339 0.0440118,0.0699567 0.0937795,0.142803 0.14898,0.209382 -0.0631142,-0.048063 -0.130972,-0.106327 -0.201646,-0.172535 -0.0286654,0.0212913 -0.0565945,0.0441811 -0.0832598,0.0685472z"/>
   <path id="_330166112" class="fil7" d="M2.96268 4.69086c0.0260276,0.0749921 0.0547559,0.148063 0.0867047,0.217378 0.0113228,0.024563 0.0242205,0.0512087 0.0387598,0.0784567 0.0342283,-0.0108543 0.069815,-0.0202323 0.106547,-0.0278268 -0.0449921,-0.0794921 -0.088315,-0.180929 -0.129106,-0.298807 -0.0346929,0.0089252 -0.0690354,0.0192008 -0.102906,0.0307992z"/>
   <g>
    <path id="_330182192" class="fil6" d="M3.41333 5.15003c-0.00149213,5.90551e-005 -0.00298819,0.000165354 -0.00448031,0.000165354 -0.121236,0 -0.240315,-0.192665 -0.343256,-0.490138 0.112654,-0.0289724 0.228969,-0.0436969 0.344661,-0.043189l0.0030748 1.1811e-005 0.0030748 -1.1811e-005c0.115693,-0.000507874 0.232008,0.0142165 0.344661,0.043189 -0.102941,0.297472 -0.22202,0.490138 -0.343256,0.490138 -0.00149213,0 -0.00298819,-0.000106299 -0.00448031,-0.000165354z"/>
    <path id="_330181880" class="fil6" d="M3.60941 5.16828c0.130374,0.0223425 0.291157,-0.132701 0.453886,-0.390685 -0.0637874,-0.0342126 -0.130575,-0.0632008 -0.199311,-0.0867402 -0.0260276,0.0749921 -0.0547559,0.148063 -0.0867047,0.217378 -0.0377126,0.0818189 -0.0929449,0.186764 -0.16787,0.260047z"/>
    <path id="_330182024" class="fil6" d="M4.00604 5.0415c0.0631142,-0.048063 0.130972,-0.106327 0.201646,-0.172535 -0.0173307,-0.012874 -0.0349252,-0.0251575 -0.0526654,-0.0368465 -0.0440118,0.0699567 -0.0937795,0.142803 -0.14898,0.209382z"/>
    <path id="_330181592" class="fil6" d="M3.99306 5.20308c0.00632677,-0.00193701 0.012689,-0.00392913 0.0190945,-0.00599606 0.111075,-0.035811 0.238449,-0.0908307 0.373276,-0.159665 -0.0287087,-0.0355354 -0.0605669,-0.0689173 -0.0944764,-0.0999094 -0.0707087,0.0668465 -0.144236,0.130937 -0.220283,0.18885l-0.075315 0.0573543c9.84252e-005,0.0067126 -0.000531496,0.0128583 -0.00229528,0.0193661z"/>
    <path id="_330181952" class="fil7" d="M4.29095 4.93751c-0.0707087,0.0668465 -0.144236,0.130937 -0.220283,0.18885l-0.0266024 0.0202598c-0.0333031,-0.0270394 -0.0709567,-0.0527559 -0.112323,-0.0761811 -0.020626,-0.0116811 -0.0422441,-0.0228819 -0.0647598,-0.0334843 0.0638228,-0.0659331 0.129909,-0.154071 0.196319,-0.259354 0.00875984,0.00469685 0.0174646,0.00948819 0.0261102,0.0143819 0.0219528,0.0124291 0.0438976,0.0258307 0.0656142,0.0401339 -0.0440118,0.0699567 -0.0937795,0.142803 -0.14898,0.209382 0.0631142,-0.048063 0.130972,-0.106327 0.201646,-0.172535 0.0286654,0.0212913 0.0565945,0.0441811 0.0832598,0.0685472z"/>
    <path id="_330181568" class="fil7" d="M3.86398 4.69086c-0.0260276,0.0749921 -0.0547559,0.148063 -0.0867047,0.217378 -0.0113228,0.024563 -0.0242205,0.0512087 -0.0387598,0.0784567 -0.0342283,-0.0108543 -0.069815,-0.0202323 -0.106547,-0.0278268 0.0449921,-0.0794921 0.088315,-0.180929 0.129106,-0.298807 0.0346929,0.0089252 0.0690354,0.0192008 0.102906,0.0307992z"/>
   </g>
  </g>
  <path class="fil8" d="M3.40885 4.93686l0.00448031 1.9685e-005 0.00448031 -1.9685e-005c0.198031,0 0.377551,0.0563622 0.513929,0.133579 0.16987,0.0961929 0.277217,0.231098 0.277217,0.337134 0,0.133752 -0.117106,0.197492 -0.306433,0.225811 -0.133039,0.0199094 -0.300157,0.0199488 -0.484713,0.0199488l-0.00448031 0 -0.00448031 0c-0.184555,0 -0.351673,-3.93701e-005 -0.484713,-0.0199488 -0.189327,-0.0283189 -0.306433,-0.0920591 -0.306433,-0.225811 0,-0.106035 0.107346,-0.240941 0.277217,-0.337134 0.136378,-0.0772165 0.315898,-0.133579 0.513929,-0.133579z"/>
 </g>
 <rect class="fil9" width="6.82666" height="6.82666"/>
</svg>
