<?xml version="1.0" encoding="UTF-8"?>
<!DOCTYPE svg PUBLIC "-//W3C//DTD SVG 1.1//EN" "http://www.w3.org/Graphics/SVG/1.1/DTD/svg11.dtd">
<!-- Creator: CorelDRAW -->
<svg xmlns="http://www.w3.org/2000/svg" xml:space="preserve" width="6.82666in" height="6.82666in" style="shape-rendering:geometricPrecision; text-rendering:geometricPrecision; image-rendering:optimizeQuality; fill-rule:evenodd; clip-rule:evenodd"
viewBox="0 0 6.82666 6.82666"
 xmlns:xlink="http://www.w3.org/1999/xlink">
 <defs>
  <style type="text/css">
   <![CDATA[
    .fil8 {fill:none}
    .fil7 {fill:#222D32}
    .fil3 {fill:#263238}
    .fil4 {fill:#955648}
    .fil0 {fill:#A65F50}
    .fil5 {fill:#CC7663}
    .fil1 {fill:#E3836E}
    .fil6 {fill:#E6E6E5}
    .fil2 {fill:#FFFFFE}
   ]]>
  </style>
 </defs>
 <g id="Layer_x0020_1">
  <metadata id="CorelCorpID_0Corel-Layer"/>
  <g id="_326943424">
   <g>
    <g>
     <rect id="_326932624" class="fil0" transform="matrix(0.632527 -0.188448 0.18845 0.63252 4.2942 4.19894)" width="0.21528" height="0.36111" rx="0.281602" ry="0.281602"/>
     <rect id="_326932168" class="fil0" transform="matrix(0.632512 -0.188445 0.188445 0.63251 4.5238 4.19103)" width="0.21528" height="0.36111" rx="0.281594" ry="0.281594"/>
     <rect id="_326932432" class="fil0" transform="matrix(0.632512 -0.188445 0.188445 0.63251 4.75905 4.15197)" width="0.21528" height="0.36111" rx="0.281594" ry="0.281594"/>
     <rect id="_326932408" class="fil0" transform="matrix(0.632512 -0.188445 0.188445 0.63251 5.00054 4.08301)" width="0.21528" height="0.36111" rx="0.281594" ry="0.281594"/>
     <rect id="_326932696" class="fil0" transform="matrix(0.632512 -0.188445 0.188445 0.63251 5.24533 3.94412)" width="0.21528" height="0.36111" rx="0.281594" ry="0.281594"/>
     <rect id="_326932264" class="fil0" transform="matrix(0.632512 -0.188445 0.188445 0.63251 5.47276 3.78266)" width="0.21528" height="0.36111" rx="0.281594" ry="0.281594"/>
     <rect id="_326931712" class="fil0" transform="matrix(0.632512 -0.188445 0.188445 0.63251 5.68456 3.58995)" width="0.21528" height="0.36111" rx="0.281594" ry="0.281594"/>
     <rect id="_326931880" class="fil0" transform="matrix(0.632512 -0.188445 0.188445 0.63251 5.8526 3.39377)" width="0.21528" height="0.36111" rx="0.281594" ry="0.281594"/>
    </g>
    <g>
     <rect id="_326931616" class="fil0" transform="matrix(0.482423 0.450412 -0.450405 0.482421 3.54653 4.52371)" width="0.21528" height="0.36111" rx="0.281602" ry="0.281602"/>
     <rect id="_326931376" class="fil0" transform="matrix(0.482423 0.450412 -0.450405 0.482421 3.69236 4.78065)" width="0.21528" height="0.36111" rx="0.281602" ry="0.281602"/>
     <rect id="_326931568" class="fil0" transform="matrix(0.482423 0.450412 -0.450405 0.482421 3.88763 4.97993)" width="0.21528" height="0.36111" rx="0.281602" ry="0.281602"/>
     <rect id="_326931544" class="fil0" transform="matrix(0.482423 0.450412 -0.450405 0.482421 4.13451 5.14184)" width="0.21528" height="0.36111" rx="0.281602" ry="0.281602"/>
     <rect id="_326931160" class="fil0" transform="matrix(0.593834 0.288036 -0.28803 0.59383 4.34745 5.26566)" width="0.21528" height="0.36111" rx="0.281602" ry="0.281602"/>
     <rect id="_326930656" class="fil0" transform="matrix(0.65408 0.0882205 -0.0882159 0.654074 4.63823 5.34573)" width="0.21528" height="0.36111" rx="0.281602" ry="0.281602"/>
     <rect id="_326930944" class="fil0" transform="matrix(0.659791 -0.0166786 0.0166823 0.659786 4.87562 5.37682)" width="0.21528" height="0.36111" rx="0.281602" ry="0.281602"/>
     <rect id="_326930824" class="fil0" transform="matrix(0.644355 -0.142862 0.142864 0.644349 5.11491 5.355)" width="0.21528" height="0.36111" rx="0.281602" ry="0.281602"/>
     <rect id="_326931352" class="fil0" transform="matrix(0.644355 -0.142862 0.142864 0.644349 5.36384 5.30368)" width="0.21528" height="0.36111" rx="0.281602" ry="0.281602"/>
     <rect id="_326930872" class="fil0" transform="matrix(0.644355 -0.142862 0.142864 0.644349 5.62161 5.22906)" width="0.21528" height="0.36111" rx="0.281602" ry="0.281602"/>
    </g>
   </g>
   <g>
    <g>
     <rect id="_326946136" class="fil0" transform="matrix(-0.632527 -0.188448 -0.18845 0.63252 2.53246 4.19894)" width="0.21528" height="0.36111" rx="0.281602" ry="0.281602"/>
     <rect id="_326946280" class="fil0" transform="matrix(-0.632512 -0.188445 -0.188445 0.63251 2.30286 4.19103)" width="0.21528" height="0.36111" rx="0.281594" ry="0.281594"/>
     <rect id="_326946112" class="fil0" transform="matrix(-0.632512 -0.188445 -0.188445 0.63251 2.06761 4.15197)" width="0.21528" height="0.36111" rx="0.281594" ry="0.281594"/>
     <rect id="_326946040" class="fil0" transform="matrix(-0.632512 -0.188445 -0.188445 0.63251 1.82612 4.08301)" width="0.21528" height="0.36111" rx="0.281594" ry="0.281594"/>
     <rect id="_326946160" class="fil0" transform="matrix(-0.632512 -0.188445 -0.188445 0.63251 1.58133 3.94412)" width="0.21528" height="0.36111" rx="0.281594" ry="0.281594"/>
     <rect id="_326945992" class="fil0" transform="matrix(-0.632512 -0.188445 -0.188445 0.63251 1.3539 3.78266)" width="0.21528" height="0.36111" rx="0.281594" ry="0.281594"/>
     <rect id="_326945896" class="fil0" transform="matrix(-0.632512 -0.188445 -0.188445 0.63251 1.1421 3.58995)" width="0.21528" height="0.36111" rx="0.281594" ry="0.281594"/>
     <rect id="_326945680" class="fil0" transform="matrix(-0.632512 -0.188445 -0.188445 0.63251 0.974058 3.39377)" width="0.21528" height="0.36111" rx="0.281594" ry="0.281594"/>
    </g>
    <g>
     <rect id="_326945584" class="fil0" transform="matrix(-0.482423 0.450412 0.450405 0.482421 3.28013 4.52371)" width="0.21528" height="0.36111" rx="0.281602" ry="0.281602"/>
     <rect id="_326945512" class="fil0" transform="matrix(-0.482423 0.450412 0.450405 0.482421 3.1343 4.78065)" width="0.21528" height="0.36111" rx="0.281602" ry="0.281602"/>
     <rect id="_326945704" class="fil0" transform="matrix(-0.482423 0.450412 0.450405 0.482421 2.93904 4.97993)" width="0.21528" height="0.36111" rx="0.281602" ry="0.281602"/>
     <rect id="_326945248" class="fil0" transform="matrix(-0.482423 0.450412 0.450405 0.482421 2.69215 5.14184)" width="0.21528" height="0.36111" rx="0.281602" ry="0.281602"/>
     <rect id="_326944432" class="fil0" transform="matrix(-0.593834 0.288036 0.28803 0.59383 2.47921 5.26566)" width="0.21528" height="0.36111" rx="0.281602" ry="0.281602"/>
     <rect id="_326944696" class="fil0" transform="matrix(-0.65408 0.0882205 0.0882159 0.654074 2.18844 5.34573)" width="0.21528" height="0.36111" rx="0.281602" ry="0.281602"/>
     <rect id="_326944768" class="fil0" transform="matrix(-0.659791 -0.0166786 -0.0166823 0.659786 1.95104 5.37682)" width="0.21528" height="0.36111" rx="0.281602" ry="0.281602"/>
     <rect id="_326944552" class="fil0" transform="matrix(-0.644355 -0.142862 -0.142864 0.644349 1.71175 5.355)" width="0.21528" height="0.36111" rx="0.281602" ry="0.281602"/>
     <rect id="_326944528" class="fil0" transform="matrix(-0.644355 -0.142862 -0.142864 0.644349 1.46282 5.30368)" width="0.21528" height="0.36111" rx="0.281602" ry="0.281602"/>
     <rect id="_326945128" class="fil0" transform="matrix(-0.644355 -0.142862 -0.142864 0.644349 1.20505 5.22906)" width="0.21528" height="0.36111" rx="0.281602" ry="0.281602"/>
    </g>
   </g>
   <path id="_326944360" class="fil1" d="M4.69092 1.96929c0,0.396516 -0.285406,0.846106 -0.452819,1.10982 -0.0571575,0.0900354 -0.0975984,0.144366 -0.0975984,0.149055 0,0.252654 0.193567,0.331874 0.444591,0.331874 0.336469,0 0.770626,-0.131209 1.0548,-0.217091 0.0898504,-0.0271535 0.164693,-0.0497756 0.228142,-0.0649291 0.133776,-0.0291457 0.161803,0.104642 0.106925,0.171224 -0.242638,0.347118 -0.59852,0.624681 -0.971106,0.759508 -0.273839,0.0990906 -0.557669,0.122122 -0.815579,0.0415394 0.107118,0.271063 0.290421,0.449319 0.513583,0.569433 0.287795,0.154902 0.645799,0.217854 0.996244,0.256945l0.000161417 -0.000177165c0.0585472,0.0065315 0.100717,0.0592913 0.094185,0.117839 -0.00441732,0.0395984 -0.0299882,0.0717047 -0.064189,0.086315 -0.179031,0.0811811 -0.368331,0.135362 -0.558969,0.162075 -0.34337,0.048122 -0.690138,0.00609843 -0.98835,-0.128528 -0.302602,-0.136606 -0.554937,-0.367492 -0.704047,-0.695213 -0.0133583,-0.0293622 -0.025878,-0.0595197 -0.0375236,-0.0904764 -0.0116457,0.0309567 -0.0241654,0.0611181 -0.0375236,0.0904803 -0.149248,0.328012 -0.40189,0.559016 -0.704823,0.695559 -0.298602,0.134591 -0.645756,0.176413 -0.989362,0.127925 -0.190898,-0.026937 -0.380398,-0.0813819 -0.559535,-0.162874 -0.0536181,-0.0243976 -0.077311,-0.0876496 -0.0529134,-0.141268 0.0170945,-0.037563 0.0532598,-0.060437 0.0918189,-0.062378 0.348406,-0.0391417 0.703803,-0.102264 0.98985,-0.256224 0.223161,-0.120114 0.406465,-0.29837 0.513583,-0.569433 -0.257909,0.0805827 -0.54174,0.0575512 -0.815579,-0.0415394 -0.375228,-0.13578 -0.733535,-0.416327 -0.976272,-0.766894 -0.0343937,-0.0766575 -0.0204882,-0.115547 0.0267087,-0.148224 0.0290276,-0.0200984 0.0645276,-0.0237992 0.0955354,-0.013122 0.0332126,0.00833858 0.0780551,0.0213031 0.133795,0.0374134 0.251705,0.0727559 0.732906,0.211862 1.11117,0.211862 0.263882,0 0.472417,-0.0714961 0.472417,-0.301622 0,-0.00468898 -0.0404409,-0.0590197 -0.0975984,-0.149055 -0.167413,-0.26372 -0.452831,-0.713307 -0.452831,-1.10983 0,-0.415248 0.285843,-0.755921 1.25156,-0.755921 0.965717,0 1.25156,0.340677 1.25156,0.755929z"/>
   <line id="_326944384" class="fil1" x1="1.14813" y1="5.27959" x2="1.14813" y2= "5.27959" />
   <g>
    <g>
     <path id="_326943736" class="fil2" d="M2.99407 2.04361c0.0822717,0 0.156768,0.0333622 0.210685,0.0872795 0.0539173,0.0539173 0.0872795,0.128413 0.0872795,0.210685 0,0.0822717 -0.0333622,0.156768 -0.0872795,0.210685 -0.0539173,0.0539173 -0.128413,0.0872795 -0.210685,0.0872795 -0.0822717,0 -0.156768,-0.0333622 -0.210685,-0.0872795 -0.0539173,-0.0539173 -0.0872795,-0.128421 -0.0872795,-0.210685 0,-0.0822717 0.0333622,-0.156768 0.0872795,-0.210685 0.0539173,-0.0539173 0.128413,-0.0872795 0.210685,-0.0872795z"/>
     <path id="_326943808" class="fil3" d="M2.99407 2.22423c0.0323976,0 0.0617362,0.0131378 0.0829685,0.0343701 0.0212323,0.0212323 0.0343701,0.0505709 0.0343701,0.0829685 0,0.0323976 -0.0131378,0.0617362 -0.0343701,0.0829685 -0.0212323,0.0212323 -0.0505709,0.0343701 -0.0829685,0.0343701 -0.0323976,0 -0.0617362,-0.0131378 -0.0829685,-0.0343701 -0.0212323,-0.0212323 -0.0343701,-0.0505709 -0.0343701,-0.0829685 0,-0.0323976 0.0131378,-0.0617362 0.0343701,-0.0829685 0.0212323,-0.0212323 0.0505709,-0.0343701 0.0829685,-0.0343701z"/>
    </g>
    <g>
     <path id="_326943136" class="fil2" d="M3.88684 2.04361c0.0822717,0 0.156768,0.0333622 0.210685,0.0872795 0.0539173,0.0539173 0.0872795,0.128413 0.0872795,0.210685 0,0.0822717 -0.0333622,0.156768 -0.0872795,0.210685 -0.0539173,0.0539173 -0.128413,0.0872795 -0.210685,0.0872795 -0.0822717,0 -0.156768,-0.0333622 -0.210685,-0.0872795 -0.0539173,-0.0539173 -0.0872795,-0.128421 -0.0872795,-0.210685 0,-0.0822717 0.0333622,-0.156768 0.0872795,-0.210685 0.0539173,-0.0539173 0.128413,-0.0872795 0.210685,-0.0872795z"/>
     <path id="_326943616" class="fil3" d="M3.88684 2.22423c0.0323976,0 0.0617362,0.0131378 0.0829685,0.0343701 0.0212323,0.0212323 0.0343701,0.0505709 0.0343701,0.0829685 0,0.0323976 -0.0131378,0.0617362 -0.0343701,0.0829685 -0.0212323,0.0212323 -0.0505709,0.0343701 -0.0829685,0.0343701 -0.0323976,0 -0.0617362,-0.0131378 -0.0829685,-0.0343701 -0.0212323,-0.0212323 -0.0343701,-0.0505709 -0.0343701,-0.0829685 0,-0.0323976 0.0131378,-0.0617362 0.0343701,-0.0829685 0.0212323,-0.0212323 0.0505709,-0.0343701 0.0829685,-0.0343701z"/>
    </g>
   </g>
  </g>
  <g id="_326940040">
   <g>
    <g>
     <path id="_326943016" class="fil4" d="M4.36228 4.17866l7.87402e-006 -3.93701e-006c0.0374488,-0.0111575 0.0772126,0.0103504 0.0883701,0.0477992l0.0274803 0.0922441c0.0111575,0.0374488 -0.0103504,0.0772087 -0.0477992,0.0883661l-7.87402e-006 3.93701e-006c-0.0374488,0.0111575 -0.0772087,-0.0103504 -0.0883622,-0.0477992l-0.0274843 -0.0922441c-0.0111575,-0.0374488 0.0103465,-0.0772087 0.0477953,-0.0883661z"/>
     <path id="_326943400" class="fil4" d="M4.59189 4.17074l3.93701e-006 0c0.0374488,-0.0111575 0.0772087,0.0103504 0.0883661,0.0477992l0.0274803 0.0922402c0.0111575,0.0374488 -0.0103465,0.0772087 -0.0477992,0.0883661l0 0c-0.0374488,0.0111575 -0.0772087,-0.0103504 -0.0883661,-0.0477992l-0.0274843 -0.0922402c-0.0111535,-0.0374488 0.0103543,-0.0772087 0.0477992,-0.0883661z"/>
     <path id="_326942224" class="fil4" d="M4.82713 4.13168l3.93701e-006 0c0.0374488,-0.0111575 0.0772087,0.0103504 0.0883661,0.0477992l0.0274803 0.0922402c0.0111575,0.0374488 -0.0103465,0.0772087 -0.0477992,0.0883661l0 0c-0.0374488,0.0111575 -0.0772087,-0.0103504 -0.0883661,-0.0477992l-0.0274843 -0.0922402c-0.0111535,-0.0374488 0.0103543,-0.0772087 0.0477992,-0.0883661z"/>
     <path id="_326942560" class="fil4" d="M5.06862 4.06272l3.93701e-006 0c0.0374488,-0.0111575 0.0772087,0.0103504 0.0883661,0.0477992l0.0274803 0.0922402c0.0111575,0.0374488 -0.0103465,0.0772087 -0.0477992,0.0883661l0 0c-0.0374488,0.0111575 -0.0772087,-0.0103504 -0.0883661,-0.0477992l-0.0274843 -0.0922402c-0.0111535,-0.0374488 0.0103543,-0.0772087 0.0477992,-0.0883661z"/>
     <path id="_326942704" class="fil4" d="M5.31341 3.92383l3.93701e-006 0c0.0374488,-0.0111575 0.0772087,0.0103504 0.0883661,0.0477992l0.0274803 0.0922402c0.0111575,0.0374488 -0.0103465,0.0772087 -0.0477992,0.0883661l0 0c-0.0374488,0.0111575 -0.0772087,-0.0103504 -0.0883661,-0.0477992l-0.0274843 -0.0922402c-0.0111535,-0.0374488 0.0103543,-0.0772087 0.0477992,-0.0883661z"/>
     <path id="_326942488" class="fil4" d="M5.54084 3.76238l3.93701e-006 0c0.0374488,-0.0111575 0.0772087,0.0103504 0.0883661,0.0477992l0.0274803 0.0922402c0.0111575,0.0374488 -0.0103465,0.0772087 -0.0477992,0.0883661l0 0c-0.0374488,0.0111575 -0.0772087,-0.0103504 -0.0883661,-0.0477992l-0.0274843 -0.0922402c-0.0111535,-0.0374488 0.0103543,-0.0772087 0.0477992,-0.0883661z"/>
     <path id="_326942464" class="fil4" d="M5.75265 3.56967l3.93701e-006 0c0.0374488,-0.0111575 0.0772087,0.0103504 0.0883661,0.0477992l0.0274803 0.0922402c0.0111575,0.0374488 -0.0103465,0.0772087 -0.0477992,0.0883661l0 0c-0.0374488,0.0111575 -0.0772087,-0.0103504 -0.0883661,-0.0477992l-0.0274843 -0.0922402c-0.0111535,-0.0374488 0.0103543,-0.0772087 0.0477992,-0.0883661z"/>
     <path id="_326942608" class="fil4" d="M5.92069 3.37349l3.93701e-006 0c0.0374488,-0.0111575 0.0772087,0.0103504 0.0883661,0.0477992l0.0274803 0.0922402c0.0111575,0.0374488 -0.0103465,0.0772087 -0.0477992,0.0883661l0 0c-0.0374488,0.0111575 -0.0772087,-0.0103504 -0.0883661,-0.0477992l-0.0274843 -0.0922402c-0.0111535,-0.0374488 0.0103543,-0.0772087 0.0477992,-0.0883661z"/>
    </g>
    <g>
     <path id="_326941384" class="fil4" d="M3.59845 4.57219l3.93701e-006 3.93701e-006c0.028563,0.0266693 0.0301142,0.0718465 0.00344882,0.100409l-0.065685 0.0703543c-0.0266654,0.028563 -0.0718465,0.0301102 -0.100409,0.00344488l-3.93701e-006 -3.93701e-006c-0.028563,-0.0266693 -0.0301102,-0.0718465 -0.00344488,-0.100406l0.065685 -0.0703543c0.0266654,-0.028563 0.0718425,-0.0301142 0.100406,-0.00344882z"/>
     <path id="_326942032" class="fil4" d="M3.74428 4.82913l3.93701e-006 3.93701e-006c0.028563,0.0266693 0.0301142,0.0718465 0.00344882,0.100409l-0.065685 0.0703543c-0.0266654,0.028563 -0.0718465,0.0301102 -0.100409,0.00344488l-3.93701e-006 -3.93701e-006c-0.028563,-0.0266693 -0.0301102,-0.0718465 -0.00344488,-0.100406l0.065685 -0.0703543c0.0266654,-0.028563 0.0718425,-0.0301142 0.100406,-0.00344882z"/>
     <path id="_326941792" class="fil4" d="M3.93955 5.02841l3.93701e-006 3.93701e-006c0.028563,0.0266693 0.0301142,0.0718465 0.00344882,0.100409l-0.065685 0.0703543c-0.0266654,0.028563 -0.0718465,0.0301102 -0.100409,0.00344488l-3.93701e-006 -3.93701e-006c-0.028563,-0.0266693 -0.0301102,-0.0718465 -0.00344488,-0.100406l0.065685 -0.0703543c0.0266654,-0.028563 0.0718425,-0.0301142 0.100406,-0.00344882z"/>
     <path id="_326942104" class="fil4" d="M4.18644 5.19032l3.93701e-006 3.93701e-006c0.028563,0.0266693 0.0301142,0.0718465 0.00344882,0.100409l-0.065685 0.0703543c-0.0266654,0.028563 -0.0718465,0.0301102 -0.100409,0.00344488l-3.93701e-006 -3.93701e-006c-0.028563,-0.0266693 -0.0301102,-0.0718465 -0.00344488,-0.100406l0.065685 -0.0703543c0.0266654,-0.028563 0.0718425,-0.0301142 0.100406,-0.00344882z"/>
     <path id="_326942080" class="fil4" d="M4.41137 5.29666l7.87402e-006 3.93701e-006c0.0351575,0.0170551 0.0499685,0.0597638 0.0329134,0.0949213l-0.0420039 0.0866024c-0.0170512,0.0351575 -0.0597638,0.0499685 -0.0949213,0.0329134l-7.87402e-006 -3.93701e-006c-0.0351575,-0.0170512 -0.0499646,-0.0597598 -0.0329134,-0.0949173l0.0420039 -0.0866024c0.0170551,-0.0351575 0.0597638,-0.0499685 0.0949213,-0.0329173z"/>
     <path id="_326941504" class="fil4" d="M4.70863 5.35523l7.87402e-006 0c0.0387244,0.00522441 0.0661339,0.0411732 0.0609094,0.0798976l-0.0128661 0.0953898c-0.00522047,0.0387244 -0.0411732,0.0661299 -0.0798976,0.0609055l-7.87402e-006 0c-0.0387244,-0.00522441 -0.0661299,-0.0411772 -0.0609055,-0.0798976l0.0128661 -0.0953898c0.00522047,-0.0387244 0.0411693,-0.0661299 0.0798937,-0.0609055z"/>
     <path id="_326941480" class="fil4" d="M4.94663 5.37503l7.87402e-006 0c0.039063,-0.000988189 0.0718268,0.0301614 0.072811,0.0692244l0.00243307 0.0962165c0.000988189,0.039063 -0.0301575,0.0718268 -0.0692205,0.072815l-7.87402e-006 0c-0.039063,0.000988189 -0.0718228,-0.0301614 -0.072811,-0.0692244l-0.00243307 -0.0962165c-0.000988189,-0.039063 0.0301575,-0.0718268 0.0692205,-0.072815z"/>
     <path id="_326941336" class="fil4" d="M5.18426 5.33962l7.87402e-006 0c0.0381496,-0.00846063 0.0762756,0.0158307 0.0847323,0.0539764l0.0208346 0.0939685c0.00846063,0.0381496 -0.0158268,0.0762756 -0.0539764,0.0847362l-7.87402e-006 0c-0.0381496,0.00846063 -0.0762756,-0.0158307 -0.0847323,-0.0539803l-0.0208346 -0.0939685c-0.00846063,-0.0381457 0.0158268,-0.0762717 0.0539764,-0.0847323z"/>
     <path id="_326941192" class="fil4" d="M5.43319 5.2883l7.87402e-006 0c0.0381496,-0.00846063 0.0762756,0.0158307 0.0847323,0.0539764l0.0208346 0.0939685c0.00846063,0.0381496 -0.0158268,0.0762756 -0.0539764,0.0847362l-7.87402e-006 0c-0.0381496,0.00846063 -0.0762756,-0.0158307 -0.0847323,-0.0539803l-0.0208346 -0.0939685c-0.00846063,-0.0381457 0.0158268,-0.0762717 0.0539764,-0.0847323z"/>
     <path id="_326940736" class="fil4" d="M5.69096 5.21368l7.87402e-006 0c0.0381496,-0.00846063 0.0762756,0.0158307 0.0847323,0.0539764l0.0208346 0.0939685c0.00846063,0.0381496 -0.0158268,0.0762756 -0.0539764,0.0847362l-7.87402e-006 0c-0.0381496,0.00846063 -0.0762756,-0.0158307 -0.0847323,-0.0539803l-0.0208346 -0.0939685c-0.00846063,-0.0381457 0.0158268,-0.0762717 0.0539764,-0.0847323z"/>
    </g>
   </g>
   <path id="_326940664" class="fil4" d="M3.41236 4.70616c0.00127953,-0.00775591 0.0012874,-0.0156929 0,-0.0234606l0 0.0234606z"/>
   <path id="_326940952" class="fil5" d="M4.69092 1.96929c0,0.396516 -0.285406,0.846106 -0.452819,1.10982 -0.0571575,0.0900354 -0.0975984,0.144366 -0.0975984,0.149055 0,0.252654 0.193567,0.331874 0.444591,0.331874 0.336469,0 0.770626,-0.131209 1.0548,-0.217091 0.0898504,-0.0271535 0.164693,-0.0497756 0.228142,-0.0649291 0.133776,-0.0291457 0.161803,0.104642 0.106925,0.171224 -0.242638,0.347118 -0.59852,0.624681 -0.971106,0.759508 -0.273839,0.0990906 -0.557669,0.122122 -0.815579,0.0415394 0.107118,0.271063 0.290421,0.449319 0.513583,0.569433 0.287795,0.154902 0.645799,0.217854 0.996244,0.256945l0.000161417 -0.000177165c0.0585472,0.0065315 0.100717,0.0592913 0.094185,0.117839 -0.00441732,0.0395984 -0.0299882,0.0717047 -0.064189,0.086315 -0.179031,0.0811811 -0.368331,0.135362 -0.558969,0.162075 -0.34337,0.048122 -0.690138,0.00609843 -0.98835,-0.128528 -0.302602,-0.136606 -0.554937,-0.367492 -0.704047,-0.695213 -0.0133583,-0.0293622 -0.025878,-0.0595197 -0.0375236,-0.0904764 -0.00853543,0.0226929 -0.0175433,0.0449567 -0.0270039,0.0667953l0 -3.38179c0.00898031,-5.90551e-005 0.0179016,-0.000149606 0.027,-0.000149606 0.965717,0 1.25156,0.340677 1.25156,0.755929z"/>
   <g>
    <path id="_326939944" class="fil6" d="M3.88684 2.04361c0.0822717,0 0.156768,0.0333622 0.210685,0.0872795 0.0539173,0.0539173 0.0872795,0.128413 0.0872795,0.210685 0,0.0822717 -0.0333622,0.156768 -0.0872795,0.210685 -0.0539173,0.0539173 -0.128413,0.0872795 -0.210685,0.0872795 -0.0822717,0 -0.156768,-0.0333622 -0.210685,-0.0872795 -0.0539173,-0.0539173 -0.0872795,-0.128421 -0.0872795,-0.210685 0,-0.0822717 0.0333622,-0.156768 0.0872795,-0.210685 0.0539173,-0.0539173 0.128413,-0.0872795 0.210685,-0.0872795z"/>
    <path id="_326939848" class="fil7" d="M3.88684 2.22423c0.0323976,0 0.0617362,0.0131378 0.0829685,0.0343701 0.0212323,0.0212323 0.0343701,0.0505709 0.0343701,0.0829685 0,0.0323976 -0.0131378,0.0617362 -0.0343701,0.0829685 -0.0212323,0.0212323 -0.0505709,0.0343701 -0.0829685,0.0343701 -0.0323976,0 -0.0617362,-0.0131378 -0.0829685,-0.0343701 -0.0212323,-0.0212323 -0.0343701,-0.0505709 -0.0343701,-0.0829685 0,-0.0323976 0.0131378,-0.0617362 0.0343701,-0.0829685 0.0212323,-0.0212323 0.0505709,-0.0343701 0.0829685,-0.0343701z"/>
   </g>
  </g>
 </g>
 <rect class="fil8" width="6.82666" height="6.82666"/>
</svg>
