<?xml version="1.0" encoding="UTF-8"?>
<!DOCTYPE svg PUBLIC "-//W3C//DTD SVG 1.1//EN" "http://www.w3.org/Graphics/SVG/1.1/DTD/svg11.dtd">
<!-- Creator: CorelDRAW -->
<svg xmlns="http://www.w3.org/2000/svg" xml:space="preserve" width="6.82666in" height="6.82666in" style="shape-rendering:geometricPrecision; text-rendering:geometricPrecision; image-rendering:optimizeQuality; fill-rule:evenodd; clip-rule:evenodd"
viewBox="0 0 6.82666 6.82666"
 xmlns:xlink="http://www.w3.org/1999/xlink">
 <defs>
  <style type="text/css">
   <![CDATA[
    .fil9 {fill:none}
    .fil5 {fill:black}
    .fil8 {fill:#00565A}
    .fil7 {fill:#005F68}
    .fil3 {fill:#006064}
    .fil1 {fill:#006A74}
    .fil6 {fill:#007681}
    .fil0 {fill:#00838F}
    .fil4 {fill:#EFEBE9}
    .fil2 {fill:#26C6DA;fill-rule:nonzero}
   ]]>
  </style>
 </defs>
 <g id="Layer_x0020_1">
  <metadata id="CorelCorpID_0Corel-Layer"/>
  <g id="_326934568">
   <path id="_326937568" class="fil0" d="M2.89659 2.394c0.406272,0 0.790567,0.0888976 1.13473,0.248272 0.285969,0.132421 0.544071,0.313496 0.763906,0.532606 0.0485748,-0.0942717 0.12374,-0.179098 0.218531,-0.249299 0.171673,-0.127138 0.407969,-0.20578 0.668173,-0.20578 0.0851496,0 0.166024,0.00798819 0.241445,0.0229803 -0.0745748,0.0587165 -0.139705,0.124378 -0.193469,0.195594 -0.105626,0.139917 -0.167248,0.301165 -0.170386,0.473047 -0.00312992,0.171807 0.0527913,0.333264 0.153614,0.473598 0.0514331,0.0715748 0.114421,0.137575 0.187071,0.196559 -0.079252,0.0161417 -0.16263,0.0247638 -0.248677,0.0247638 -0.0346339,0 0.0110866,0.000755906 -0.0150709,0.000452756 -0.252862,-0.00287402 -0.479799,-0.0808898 -0.643343,-0.205543 -0.0907402,-0.0691654 -0.161705,-0.152961 -0.206268,-0.246327 -0.225358,0.217602 -0.487685,0.397591 -0.776402,0.529472 -0.348902,0.15937 -0.735453,0.248268 -1.14093,0.248268 -0.406276,0 -0.790571,-0.0888976 -1.13473,-0.248268 -0.00937402,-0.00433858 -0.0187087,-0.00874016 -0.0280197,-0.013185 0.355799,-0.14263 0.682563,-0.539492 0.574606,-1.00102 -0.0129606,0.415685 -0.26837,0.817563 -0.708815,0.93226 -0.290425,-0.159331 -0.547508,-0.370697 -0.758941,-0.62161l-5.90551e-005 4.33071e-005c-0.00384646,-0.00456299 -0.00724016,-0.00934646 -0.0101811,-0.0142913 0.00792913,-9.44882e-005 0.0176063,-0.000279528 0.0288622,-0.000543307 0.169547,-0.00398819 0.687193,-0.0265039 0.687193,-0.0527087 0,-0.0490394 -0.588445,-0.0531063 -0.716008,-0.0533228 0.00448425,-0.00754724 0.00997638,-0.0146535 0.0164685,-0.0211063 0.257315,-0.29337 0.576067,-0.532331 0.935772,-0.696642 0.348898,-0.15937 0.735453,-0.248268 1.14093,-0.248268zm-0.901213 0.626209c0.0702756,0 0.125929,0.0570866 0.124315,0.1275 -0.00161811,0.0704173 -0.0598937,0.1275 -0.130165,0.1275 -0.0702717,0 -0.125929,-0.0570827 -0.124311,-0.1275 0.00161417,-0.0704134 0.0598937,-0.1275 0.130161,-0.1275z"/>
   <path id="_326938096" class="fil1" d="M4.78629 3.16602c0.00298425,0.00294488 0.00596457,0.0058937 0.00893307,0.00885433 0.0485748,-0.0942717 0.12374,-0.179098 0.218531,-0.249299 0.171673,-0.127138 0.407969,-0.20578 0.668173,-0.20578 0.0851496,0 0.166024,0.00798819 0.241445,0.0229803 -0.0745748,0.0587165 -0.139705,0.124378 -0.193469,0.195594 -0.105626,0.139917 -0.167248,0.301165 -0.170386,0.473047 -0.00312992,0.171807 0.0527913,0.333264 0.153614,0.473598 0.0514331,0.0715748 0.114421,0.137575 0.187071,0.196559 -0.079252,0.0161417 -0.16263,0.0247638 -0.248677,0.0247638 -0.0346339,0 0.0110866,0.000755906 -0.0150709,0.000452756 -0.252862,-0.00287402 -0.479799,-0.0808898 -0.643343,-0.205543 -0.0907402,-0.0691654 -0.161705,-0.152961 -0.206268,-0.246327l-0.00137008 0.00131496c-0.0140433,-0.0787598 -0.0214528,-0.159929 -0.0214528,-0.242906 0,-0.0845276 0.00770866,-0.167173 0.0222677,-0.247311z"/>
   <g>
    <polygon id="_326937760" class="fil2" points="3.0372,2.13333 2.52436,2.3848 2.49989,2.4793 2.57328,2.51081 "/>
    <polygon id="_326938144" class="fil2" points="3.19961,2.13333 2.68677,2.3848 2.6623,2.4793 2.73569,2.51081 "/>
    <polygon id="_326937904" class="fil2" points="3.36202,2.13333 2.84917,2.3848 2.82471,2.4793 2.89809,2.51081 "/>
    <polygon id="_326937712" class="fil2" points="3.52443,2.13333 3.01158,2.3848 2.98712,2.4793 3.0605,2.51081 "/>
    <polygon id="_326938120" class="fil2" points="3.68683,2.13333 3.17399,2.3848 3.14953,2.4793 3.22291,2.51081 "/>
    <polygon id="_326937784" class="fil2" points="3.84924,2.13333 3.3364,2.3848 3.31194,2.4793 3.38532,2.51081 "/>
   </g>
   <path id="_326937040" class="fil3" d="M1.70783 4.17078c0.355386,-0.142996 0.68139,-0.539524 0.573539,-1.00059 -0.0129606,0.415685 -0.26837,0.817563 -0.708815,0.93226l0.135276 0.0683346z"/>
   <path id="_326936800" class="fil4" d="M2.11969 3.1477c0.00161417,-0.0704134 -0.0540394,-0.1275 -0.124315,-0.1275 -0.0702677,0 -0.128547,0.0570866 -0.130161,0.1275 -0.00161811,0.0704173 0.0540394,0.1275 0.124311,0.1275 0.0702717,0 0.128547,-0.0570827 0.130165,-0.1275z"/>
   <path id="_326937112" class="fil5" d="M2.06209 3.1477c0.000885827,-0.0385354 -0.0295748,-0.0697795 -0.0680354,-0.0697795 -0.0384567,0 -0.0703504,0.0312441 -0.0712362,0.0697795 -0.000885827,0.0385394 0.0295748,0.0697795 0.0680354,0.0697795 0.0384567,0 0.0703504,-0.0312402 0.0712362,-0.0697795z"/>
   <path id="_326937256" class="fil3" d="M4.50832 3.22315c0,0 0.148398,0.197858 0.00170472,0.38037 0,0 0.359902,-0.189331 -0.00170472,-0.38037z"/>
   <g>
    <path id="_326937088" class="fil3" d="M4.14027 2.89329c0,0 0.148398,0.197858 0.00170472,0.38037 0,0 0.359902,-0.189331 -0.00170472,-0.38037z"/>
    <path id="_326936056" class="fil3" d="M4.14027 3.5669c0,0 0.148398,0.197858 0.00170472,0.38037 0,0 0.359902,-0.189331 -0.00170472,-0.38037z"/>
   </g>
   <g>
    <path id="_326936680" class="fil3" d="M3.69582 3.22315c0,0 0.148398,0.197858 0.00170472,0.38037 0,0 0.359902,-0.189331 -0.00170472,-0.38037z"/>
    <path id="_326936320" class="fil3" d="M3.69582 3.77037c0,0 0.148398,0.197858 0.00170472,0.38037 0,0 0.359902,-0.189331 -0.00170472,-0.38037z"/>
    <path id="_326936608" class="fil3" d="M3.69582 2.67592c0,0 0.148398,0.197858 0.00170472,0.38037 0,0 0.359902,-0.189331 -0.00170472,-0.38037z"/>
   </g>
   <g>
    <path id="_326935264" class="fil3" d="M3.21666 2.89329c0,0 0.148398,0.197858 0.00170472,0.38037 0,0 0.359902,-0.189331 -0.00170472,-0.38037z"/>
    <path id="_326935912" class="fil3" d="M3.21666 3.5669c0,0 0.148398,0.197858 0.00170472,0.38037 0,0 0.359902,-0.189331 -0.00170472,-0.38037z"/>
   </g>
   <g>
    <path id="_326935432" class="fil3" d="M2.76484 3.22315c0,0 0.148398,0.197858 0.00170472,0.38037 0,0 0.359902,-0.189331 -0.00170472,-0.38037z"/>
    <path id="_326935600" class="fil3" d="M2.76484 3.77037c0,0 0.148398,0.197858 0.00170472,0.38037 0,0 0.359902,-0.189331 -0.00170472,-0.38037z"/>
    <path id="_326935384" class="fil3" d="M2.76484 2.67592c0,0 0.148398,0.197858 0.00170472,0.38037 0,0 0.359902,-0.189331 -0.00170472,-0.38037z"/>
   </g>
  </g>
  <g id="_326933488">
   <path id="_326934832" class="fil6" d="M5.5595 3.41333c-0.0026811,0.171094 0.053189,0.33187 0.153638,0.471685 0.0514331,0.0715748 0.114421,0.137575 0.187071,0.196559 -0.079252,0.0161417 -0.16263,0.0247638 -0.248677,0.0247638 -0.0346339,0 0.0110866,0.000755906 -0.0150709,0.000452756 -0.252862,-0.00287402 -0.479799,-0.0808898 -0.643343,-0.205543 -0.0907402,-0.0691654 -0.161705,-0.152961 -0.206268,-0.246327 -0.225358,0.217602 -0.487685,0.397591 -0.776402,0.529472 -0.348902,0.15937 -0.735453,0.248268 -1.14093,0.248268 -0.406276,0 -0.790571,-0.0888976 -1.13473,-0.248268 -0.00937402,-0.00433858 -0.0187087,-0.00874016 -0.0280197,-0.013185 0.29139,-0.116811 0.56324,-0.404157 0.592839,-0.757878l3.2599 0zm-3.31393 0c-0.0855866,0.320406 -0.319776,0.597126 -0.673016,0.689114 -0.290425,-0.159331 -0.547508,-0.370697 -0.758941,-0.62161l-5.90551e-005 4.33071e-005c-0.00384646,-0.00456299 -0.00724016,-0.00934646 -0.0101811,-0.0142913 0.00792913,-9.44882e-005 0.0176063,-0.000279528 0.0288622,-0.000543307 0.169547,-0.00398819 0.687193,-0.0265039 0.687193,-0.0527087l0 -3.93701e-006 0.726142 0z"/>
   <path id="_326935192" class="fil7" d="M5.5595 3.41333c-0.0026811,0.171094 0.053189,0.33187 0.153638,0.471685 0.0514331,0.0715748 0.114421,0.137575 0.187071,0.196559 -0.079252,0.0161417 -0.16263,0.0247638 -0.248677,0.0247638 -0.0346339,0 0.0110866,0.000755906 -0.0150709,0.000452756 -0.252862,-0.00287402 -0.479799,-0.0808898 -0.643343,-0.205543 -0.0907402,-0.0691654 -0.161705,-0.152961 -0.206268,-0.246327l-0.00137008 0.00131496c-0.0140433,-0.0787598 -0.0214528,-0.159929 -0.0214528,-0.242906l0.795472 0z"/>
   <path id="_326934928" class="fil8" d="M1.70783 4.17078c0.290988,-0.117083 0.562213,-0.404161 0.591776,-0.757449l-0.0540354 0c-0.0855866,0.320406 -0.319776,0.597126 -0.673016,0.689114l0.135276 0.0683346z"/>
   <path id="_326934880" class="fil8" d="M4.57453 3.41333c0.00237008,0.0590118 -0.0125551,0.125555 -0.0645,0.190185 0,0 0.153634,-0.0808504 0.159256,-0.190185l-0.0947559 0z"/>
   <path id="_326934016" class="fil8" d="M4.14027 3.5669c0,0 0.148398,0.197858 0.00170472,0.38037 0,0 0.359902,-0.189331 -0.00170472,-0.38037z"/>
   <g>
    <path id="_326933800" class="fil8" d="M3.76203 3.41333c0.00237008,0.0590118 -0.0125551,0.125555 -0.0645,0.190185 0,0 0.153634,-0.0808504 0.159256,-0.190185l-0.0947559 0z"/>
    <path id="_326934424" class="fil8" d="M3.69582 3.77037c0,0 0.148398,0.197858 0.00170472,0.38037 0,0 0.359902,-0.189331 -0.00170472,-0.38037z"/>
   </g>
   <path id="_326933824" class="fil8" d="M3.21666 3.5669c0,0 0.148398,0.197858 0.00170472,0.38037 0,0 0.359902,-0.189331 -0.00170472,-0.38037z"/>
   <g>
    <path id="_326933368" class="fil8" d="M2.83104 3.41333c0.00237008,0.0590118 -0.0125551,0.125555 -0.0645,0.190185 0,0 0.153634,-0.0808504 0.159256,-0.190185l-0.0947559 0z"/>
    <path id="_326933272" class="fil8" d="M2.76484 3.77037c0,0 0.148398,0.197858 0.00170472,0.38037 0,0 0.359902,-0.189331 -0.00170472,-0.38037z"/>
   </g>
  </g>
 </g>
 <rect class="fil9" width="6.82666" height="6.82666"/>
</svg>
