<?xml version="1.0" encoding="UTF-8"?>
<!DOCTYPE svg PUBLIC "-//W3C//DTD SVG 1.1//EN" "http://www.w3.org/Graphics/SVG/1.1/DTD/svg11.dtd">
<!-- Creator: CorelDRAW -->
<svg xmlns="http://www.w3.org/2000/svg" xml:space="preserve" width="6.82666in" height="6.82666in" style="shape-rendering:geometricPrecision; text-rendering:geometricPrecision; image-rendering:optimizeQuality; fill-rule:evenodd; clip-rule:evenodd"
viewBox="0 0 6.82666 6.82666"
 xmlns:xlink="http://www.w3.org/1999/xlink">
 <defs>
  <style type="text/css">
   <![CDATA[
    .fil7 {fill:none}
    .fil5 {fill:none;fill-rule:nonzero}
    .fil1 {fill:#303F9F}
    .fil2 {fill:#81D4FA}
    .fil6 {fill:#FFFFFE}
    .fil4 {fill:#1A1A1A;fill-rule:nonzero}
    .fil3 {fill:#263238;fill-rule:nonzero}
    .fil0 {fill:#FFFFFE;fill-rule:nonzero}
   ]]>
  </style>
 </defs>
 <g id="Layer_x0020_1">
  <metadata id="CorelCorpID_0Corel-Layer"/>
  <path class="fil0" d="M3.19789 1.65206l-1.9685e-005 0c0.000110236,-0.00264961 0.000279528,-0.00529134 0.000503937,-0.00791732 -0.00130709,-0.0259055 -0.0120866,-0.0498307 -0.0290827,-0.0682402 -0.0186772,-0.0202283 -0.0448701,-0.0334055 -0.0741024,-0.0346732l0 -2.75591e-005 -6.69291e-005 -1.1811e-005 -2.75591e-005 0.000598425 -0.0041378 -0.000232283 0 5.51181e-005c-0.00264961,-0.000110236 -0.00529528,-0.000279528 -0.00791732,-0.000503937 -0.0259173,0.00131496 -0.0498701,0.0120748 -0.0682756,0.029063 -0.020248,0.018685 -0.0334252,0.0448819 -0.0346929,0.074122l-3.14961e-005 0 -7.87402e-006 6.69291e-005 0.000598425 2.75591e-005 -0.00019685 0.00358268 4.72441e-005 0c-0.000114173,0.00282283 -0.000291339,0.00563386 -0.000523622,0.00841732 0.00130709,0.0259409 0.0120866,0.0498976 0.0290827,0.068311 0.0187126,0.0202756 0.044937,0.0334606 0.0742047,0.0347323l0 2.75591e-005 8.26772e-005 0 3.14961e-005 -0.000586614 0.00132283 7.48031e-005 0 -1.9685e-005c0.00331496,0.000129921 0.00662205,0.000346457 0.00988976,0.000645669 0.0262047,-0.00116142 0.0504016,-0.0119843 0.0689961,-0.0291496 0.0202559,-0.0186929 0.0334331,-0.0449173 0.0346929,-0.0742047l-0.000559055 -2.75591e-005 7.48031e-005 -0.00137402 -2.75591e-005 0 0.000141732 -0.00275591z"/>
  <path class="fil1" d="M4.07931 2.7317c0.206449,0.0482165 0.316744,0.0294567 0.533311,0.114524 0.159035,0.0624646 0.308039,0.145988 0.437421,0.245287 0.0904606,0.0690197 0.0591614,0.212587 -0.0512126,0.238406 -0.229016,0.0530827 -0.385929,0.0998189 -0.593614,0.216433 -0.153197,0.0860197 -0.258472,0.170827 -0.30589,0.212008 -0.0223268,0.0192323 -0.0494803,0.0303543 -0.0772795,0.0327165 -0.0757087,0.00644882 -0.186264,-0.0872323 -0.257106,-0.136248 -0.0282441,-0.0195276 -0.0498307,-0.0328268 -0.0834882,-0.0358819 0.046811,0.0426024 0.0488386,0.0499016 0.0444843,0.0644843 -0.0783937,0.262425 0.0918228,0.496059 0.215886,0.666283 0.0285709,0.0392047 0.0550827,0.0755787 0.0731339,0.103154 0.0872559,0.132996 0.168268,0.285815 0.214291,0.447256 0.0475079,0.166618 0.0577047,0.341988 0.000133858,0.514417 -0.064252,0.191756 -0.181854,0.333913 -0.321122,0.425941 -0.157114,0.103823 -0.341965,0.143787 -0.50961,0.11935 -0.158394,-0.0230866 -0.301051,-0.103795 -0.402433,-0.21572 -0.259098,-0.286043 -0.210972,-0.673303 0.234126,-0.716087 0.0274843,-0.00634252 0.0595118,-0.00764173 0.0915512,-0.00444488 0.0594528,0.0059252 0.112693,0.0259173 0.156925,0.0666693 0.0899724,0.0828819 0.128898,0.231264 0.0548504,0.333315 -0.065,0.124409 -0.226142,0.166843 -0.220756,0.188724 0.0146614,0.0423661 0.369646,-0.100866 0.382291,-0.378236 0.00857874,-0.187957 -0.129972,-0.346528 -0.357689,-0.36922 -0.0278228,-0.00277559 -0.097252,0.00238976 -0.0893976,0.00114961 -0.0767008,-0.0545709 -0.252528,-0.194043 -0.29022,-0.220988 -0.358705,-0.256409 -0.752343,-0.537791 -0.728898,-1.11889 0.0118819,-0.295689 0.0856024,-0.537181 0.184819,-0.731252 0.104457,-0.204331 0.236949,-0.355638 0.355453,-0.462343 -0.0907244,-0.0349449 -0.153295,-0.0776811 -0.191457,-0.109358 -0.0453189,0.0214803 -0.512413,0.288508 -0.62111,0.258681 -0.0309567,-0.00859055 -0.0612756,-0.0412559 -0.0893976,-0.0834921 -0.033689,-0.0506063 -0.11413,-0.203091 -0.133827,-0.261772 -0.00805906,-0.0198583 -0.0110039,-0.0401417 -0.00962992,-0.059626 0.00338189,-0.0478268 0.0318622,-0.0901024 0.0746535,-0.111484 0.0161693,-0.00808661 0.0340315,-0.0131024 0.0529252,-0.0141378 0.024248,-0.0071378 0.0442047,-0.012252 0.0656299,-0.0177323 0.149354,-0.0382244 0.369134,-0.0944764 0.577323,-0.356787 0.16315,-0.205571 0.264768,-0.368524 0.517984,-0.5235 0.154902,-0.0948071 0.41848,-0.1955 0.606358,-0.185 0.038185,0.00209843 0.070189,0.0143819 0.0970079,0.0428661 0.0255079,0.0270787 0.0393661,0.0653701 0.0364646,0.102551 -0.0212362,0.282925 0.154594,0.333835 0.276961,0.369256 0.057126,0.0165315 0.106315,0.0307835 0.142504,0.0604252 0.0968504,0.0793622 0.20361,0.294496 0.240906,0.40415 0.0634291,0.186492 0.0682835,0.521677 -0.0223189,0.82687 -0.0760906,0.00571654 -0.203972,0.0115787 -0.310937,0.0572874zm-0.99015 -1.17772c0.0532165,0 0.0963543,0.0431378 0.0963543,0.0963543 0,0.0532165 -0.0431378,0.0963543 -0.0963543,0.0963543 -0.0532165,0 -0.0963543,-0.0431378 -0.0963543,-0.0963543 0,-0.0532165 0.0431378,-0.0963543 0.0963543,-0.0963543z"/>
  <path class="fil2" d="M2.53878 4.30682c-0.18815,-0.192063 -0.323819,-0.432598 -0.309772,-0.780724 0.0118819,-0.295689 0.0856024,-0.537181 0.184819,-0.731252 0.0207283,-0.0405433 0.0425591,-0.0789882 0.0651654,-0.115425 0.153031,0.335299 0.419984,1.08396 0.0597874,1.6274z"/>
  <path class="fil2" d="M4.07931 2.7317c0.206449,0.0482165 0.316744,0.0294567 0.533311,0.114524 0.159035,0.0624646 0.308039,0.145988 0.437421,0.245287 0.0904606,0.0690197 0.0591614,0.212587 -0.0512126,0.238406 -0.229016,0.0530827 -0.385929,0.0998189 -0.593614,0.216433 -0.153197,0.0860197 -0.258472,0.170827 -0.30589,0.212008 -0.0223268,0.0192323 -0.0494803,0.0303543 -0.0772795,0.0327165 -0.0757087,0.00644882 -0.186264,-0.0872323 -0.257106,-0.136248 -0.0282441,-0.0195276 -0.0498307,-0.0328268 -0.0834882,-0.0358819 0,0 0.0869213,-0.829957 0.397858,-0.887244z"/>
  <path class="fil3" d="M3.15698 1.65141l-1.1811e-005 0c6.69291e-005,-0.00165354 0.000173228,-0.00330315 0.000314961,-0.00493701 -0.000818898,-0.0161614 -0.00753937,-0.0310827 -0.0181417,-0.042563 -0.0116496,-0.0126181 -0.0279882,-0.0208386 -0.0462205,-0.0216299l0 -1.5748e-005 -3.93701e-005 -7.87402e-006 -1.9685e-005 0.000374016 -0.00257874 -0.000145669 0 3.54331e-005c-0.00165354,-7.08661e-005 -0.00330315,-0.000173228 -0.00494094,-0.000314961 -0.0161614,0.000822835 -0.0311024,0.0075315 -0.0425827,0.018126 -0.0126299,0.0116575 -0.0208504,0.0279961 -0.0216417,0.0462323l-1.5748e-005 0 -7.87402e-006 4.33071e-005 0.000374016 1.5748e-005 -0.000122047 0.00223622 2.75591e-005 0c-6.69291e-005,0.00175984 -0.000181102,0.00351181 -0.000326772,0.00524803 0.000818898,0.0161811 0.00753937,0.031122 0.0181417,0.0426102 0.0116732,0.0126457 0.0280276,0.0208701 0.0462835,0.0216614l0 1.9685e-005 5.11811e-005 0 1.9685e-005 -0.000366142 0.000826772 4.33071e-005 0 -1.1811e-005c0.00206693,8.26772e-005 0.00412992,0.000216535 0.00616929,0.000405512 0.0163425,-0.000724409 0.031437,-0.00747638 0.0430315,-0.0181811 0.0126339,-0.0116614 0.0208543,-0.0280197 0.0216417,-0.0462835l-0.000350394 -1.9685e-005 4.72441e-005 -0.000854331 -1.9685e-005 0 9.05512e-005 -0.00172047z"/>
  <polygon class="fil4" points="3.98227,3.70357 4.01097,3.65653 4.01097,3.65649 "/>
  <polygon class="fil4" points="4.01106,3.65635 4.01107,3.65636 4.02337,3.63621 4.02333,3.6362 "/>
  <polygon class="fil4" points="4.01107,3.65636 4.01106,3.65635 4.01097,3.65649 4.01097,3.65653 "/>
  <line class="fil5" x1="4.96763" y1="3.19861" x2="4.96764" y2= "3.19864" />
  <line class="fil5" x1="4.96774" y1="3.19868" x2="4.96773" y2= "3.19866" />
  <polygon class="fil4" points="4.96758,3.19832 4.96767,3.19831 4.96364,3.17583 4.96353,3.17593 "/>
  <polygon class="fil4" points="4.96767,3.19831 4.96758,3.19832 4.96763,3.19861 4.9677,3.19865 4.96764,3.19864 4.96776,3.19929 4.96783,3.19919 4.96774,3.19868 4.9677,3.19865 4.96773,3.19866 "/>
  <polygon class="fil4" points="4.96783,3.19919 4.96776,3.19929 4.97747,3.25299 "/>
  <polygon class="fil4" points="3.61719,1.00179 3.61732,1.01943 3.61684,1.01944 3.61678,1.0195 3.6175,1.01946 3.61731,1.00011 "/>
  <polygon class="fil4" points="3.61713,0.995252 3.61719,1.00179 3.61731,1.00011 3.61726,0.995134 "/>
  <polygon class="fil4" points="3.61713,0.994969 3.61713,0.995252 3.61726,0.995134 3.61726,0.994976 "/>
  <polygon class="fil4" points="3.61713,0.99465 3.61713,0.994969 3.61726,0.994976 3.61725,0.99465 "/>
  <polygon class="fil4" points="3.6167,0.93974 3.61713,0.99465 3.61725,0.99465 "/>
  <line class="fil5" x1="1.85912" y1="2.07781" x2="1.85898" y2= "2.07771" />
  <line class="fil5" x1="1.85889" y1="2.07779" x2="1.85908" y2= "2.07792" />
  <polygon class="fil4" points="1.85889,2.07779 1.85902,2.0778 1.85908,2.07792 1.87855,2.09095 1.87864,2.09089 1.87865,2.09083 1.85912,2.07781 1.85902,2.0778 1.85898,2.07771 1.85886,2.07763 1.85875,2.07769 "/>
  <polygon class="fil4" points="1.94535,2.3668 1.94535,2.36679 1.9431,2.36792 "/>
  <polygon class="fil4" points="1.99876,2.34021 1.99874,2.34016 1.99865,2.3402 1.99868,2.34025 "/>
  <polygon class="fil4" points="2.02204,2.38955 1.99876,2.34021 2.01463,2.3323 2.01459,2.33225 1.99874,2.34016 1.99862,2.33991 1.99854,2.33996 1.99865,2.3402 1.99254,2.34325 1.99257,2.34329 1.99868,2.34025 "/>
  <circle class="fil6" cx="3.65675" cy="0.979795" r="0.0400551"/>
  <circle class="fil6" cx="3.67945" cy="1.13657" r="0.0400551"/>
  <circle class="fil6" cx="3.72112" cy="1.27545" r="0.0400551"/>
  <circle class="fil6" cx="3.81487" cy="1.38657" r="0.0400551"/>
  <circle class="fil6" cx="3.94334" cy="1.46643" r="0.0400551"/>
  <circle class="fil6" cx="4.06487" cy="1.54281" r="0.0400551"/>
  <circle class="fil6" cx="4.16904" cy="1.64351" r="0.0400551"/>
  <circle class="fil6" cx="4.26278" cy="1.81366" r="0.0400551"/>
  <circle class="fil6" cx="4.31486" cy="2.01157" r="0.0400551"/>
  <circle class="fil6" cx="4.33222" cy="2.20602" r="0.0400551"/>
  <circle class="fil6" cx="4.31486" cy="2.37963" r="0.0400551"/>
  <circle class="fil6" cx="4.29576" cy="2.56713" r="0.0400551"/>
  <circle class="fil6" cx="4.08395" cy="2.61401" r="0.0400551"/>
  <circle class="fil6" cx="3.91119" cy="2.69039" r="0.0400551"/>
  <circle class="fil6" cx="3.76276" cy="2.82234" r="0.0400551"/>
  <circle class="fil6" cx="3.65337" cy="3.02287" r="0.0400551"/>
  <circle class="fil6" cx="3.5735" cy="3.29023" r="0.0400551"/>
  <circle class="fil6" cx="3.54757" cy="3.568" r="0.0400551"/>
  <circle class="fil6" cx="3.58229" cy="3.85967" r="0.0400551"/>
  <circle class="fil6" cx="3.68113" cy="4.11661" r="0.0400551"/>
  <circle class="fil6" cx="3.81307" cy="4.33189" r="0.0400551"/>
  <circle class="fil6" cx="3.96585" cy="4.53328" r="0.0400551"/>
  <circle class="fil6" cx="4.11168" cy="4.76939" r="0.0400551"/>
  <circle class="fil6" cx="4.16724" cy="5.03328" r="0.0400551"/>
  <circle class="fil6" cx="4.15159" cy="5.32495" r="0.0400551"/>
  <circle class="fil6" cx="4.03006" cy="5.58189" r="0.0400551"/>
  <circle class="fil6" cx="3.87381" cy="5.77287" r="0.0400551"/>
  <circle class="fil6" cx="3.63076" cy="5.85273" r="0.0400551"/>
  <circle class="fil6" cx="3.36339" cy="5.8562" r="0.0400551"/>
  <circle class="fil6" cx="3.0995" cy="5.72773" r="0.0400551"/>
  <circle class="fil6" cx="2.96062" cy="5.54023" r="0.0400551"/>
  <circle class="fil6" cx="2.96062" cy="5.33537" r="0.0400551"/>
  <circle class="fil6" cx="3.07173" cy="5.20342" r="0.0400551"/>
  <circle class="fil6" cx="3.25576" cy="5.1687" r="0.0400551"/>
  <circle class="fil6" cx="3.42937" cy="5.21731" r="0.0400551"/>
  <circle class="fil6" cx="3.42937" cy="5.38398" r="0.0400551"/>
  <circle class="fil6" cx="3.33909" cy="5.49509" r="0.0400551"/>
  <circle class="fil6" cx="3.21756" cy="5.35273" r="0.0400551"/>
 </g>
 <rect class="fil7" width="6.82666" height="6.82666"/>
</svg>
