<?xml version="1.0" encoding="UTF-8"?>
<!DOCTYPE svg PUBLIC "-//W3C//DTD SVG 1.1//EN" "http://www.w3.org/Graphics/SVG/1.1/DTD/svg11.dtd">
<!-- Creator: CorelDRAW -->
<svg xmlns="http://www.w3.org/2000/svg" xml:space="preserve" width="6.82666in" height="6.82666in" style="shape-rendering:geometricPrecision; text-rendering:geometricPrecision; image-rendering:optimizeQuality; fill-rule:evenodd; clip-rule:evenodd"
viewBox="0 0 6.82666 6.82666"
 xmlns:xlink="http://www.w3.org/1999/xlink">
 <defs>
  <style type="text/css">
   <![CDATA[
    .fil6 {fill:none}
    .fil3 {fill:#DD7215}
    .fil0 {fill:#F57F17}
    .fil5 {fill:#027ABC;fill-rule:nonzero}
    .fil2 {fill:#0288D1;fill-rule:nonzero}
    .fil4 {fill:#A1CEE3;fill-rule:nonzero}
    .fil1 {fill:#B3E5FC;fill-rule:nonzero}
   ]]>
  </style>
 </defs>
 <g id="Layer_x0020_1">
  <metadata id="CorelCorpID_0Corel-Layer"/>
  <g id="_275872344">
   <g>
    <path id="_275873616" class="fil0" d="M4.33759 3.60883c0.340327,0.704866 -0.326091,0.84724 0.128642,1.90941l-0.0422638 -0.192559c-0.142874,-0.871539 0.503535,-0.953657 0.276406,-1.83721 -0.116051,0.045878 -0.237228,0.0861693 -0.362783,0.120354z"/>
    <path id="_275873352" class="fil0" d="M3.90302 3.69959c-0.117713,0.298638 -0.166134,0.512386 -0.0361299,0.879835 0.216051,0.61065 0.255035,0.644457 0.204563,1.30545 -0.0540709,-0.644283 -0.0903071,-0.65324 -0.390512,-1.19648 -0.200894,-0.363528 -0.219232,-0.627563 -0.166559,-0.950772 0.132268,-0.00645669 0.262031,-0.0192598 0.388638,-0.0380394z"/>
    <path id="_275873328" class="fil0" d="M2.96541 3.72746c0.123264,0.581217 -0.372126,0.755421 -0.243835,1.58517 0.0432756,-0.833189 0.574815,-0.889437 0.590504,-1.57015 -0.117382,-9.05512e-005 -0.233079,-0.00518504 -0.346669,-0.0150197z"/>
    <path id="_275873184" class="fil0" d="M2.56352 3.67162c-0.408063,0.70076 -0.0709685,1.07148 0.132996,1.80896 0.0551811,0.199496 0.0652283,0.287673 0.0814016,0.492744l-0.0383465 -0.161354 -0.0518071 -0.153205c-0.319488,-0.840724 -0.828614,-1.13586 -0.508685,-2.08298 0.123732,0.0381575 0.252122,0.0702874 0.384441,0.0958268z"/>
   </g>
   <path id="_275872848" class="fil1" d="M3.41333 0.853331c0.57276,0 1.09131,0.232165 1.46667,0.607528 0.375358,0.375362 0.607528,0.893913 0.607528,1.46667 0,0.0459291 -0.0017126,0.0932638 -0.00503937,0.141846 -0.00319291,0.0466457 -0.00811811,0.0939528 -0.0146732,0.141795l-0.107657 -0.0144646 0.107929 0.0147835c-0.00485039,0.0354016 -0.0262008,0.0644921 -0.0552323,0.080563 -0.265602,0.176315 -0.577799,0.317866 -0.921795,0.414307 -0.333811,0.0935787 -0.697567,0.145079 -1.07773,0.145079 -0.380161,0 -0.743917,-0.0515 -1.07773,-0.145079 -0.347299,-0.0973701 -0.662197,-0.240709 -0.929449,-0.419394l-0.00019685 0.000299213c-0.0294567,-0.0196929 -0.0462126,-0.051248 -0.0481929,-0.0840866 -0.00601575,-0.0451181 -0.0105748,-0.0897598 -0.0135906,-0.133803 -0.00332677,-0.0485827 -0.00503937,-0.0959173 -0.00503937,-0.141846 0,-0.572756 0.232169,-1.09131 0.607528,-1.46667 0.375358,-0.375362 0.893909,-0.607528 1.46667,-0.607528z"/>
   <path id="_275872560" class="fil2" d="M3.41333 0.853331c0.57276,0 1.09131,0.232165 1.46667,0.607528 0.325949,0.325949 0.543882,0.759886 0.595622,1.24352 -0.00226772,0.0211693 -0.00487402,0.0424488 -0.00780709,0.0638425l-0.107657 -0.0144646 0.107929 0.0147835c-0.00485039,0.0354016 -0.0262008,0.0644921 -0.0552323,0.080563 -0.265602,0.176315 -0.577799,0.317866 -0.921795,0.414307 -0.333811,0.0935787 -0.697567,0.145079 -1.07773,0.145079 -0.380161,0 -0.743917,-0.0515 -1.07773,-0.145079 -0.347299,-0.0973701 -0.662197,-0.240709 -0.929449,-0.41939l-0.00019685 0.000295276c-0.0294567,-0.0196929 -0.0462126,-0.051248 -0.0481929,-0.0840866 -0.00249213,-0.0187047 -0.00473622,-0.0373228 -0.00672441,-0.0558543 0.0517402,-0.48363 0.269673,-0.917567 0.595622,-1.24352 0.375358,-0.375362 0.893909,-0.607528 1.46667,-0.607528z"/>
   <path id="_275872152" class="fil1" d="M1.94446 2.86916c0.00114173,0.025748 0.0111614,0.049 0.0269606,0.0669449 5.11811e-005,-0.00522441 0.000137795,-0.0104252 0.000248031,-0.0156063 0.000791339,-0.0376772 0.00269291,-0.0736969 0.00575591,-0.107902 0.0389646,-0.434575 0.250406,-0.812232 0.560752,-1.0715 0.228626,-0.191008 0.510937,-0.317744 0.817504,-0.355669 -0.340756,0.000350394 -0.657776,0.123028 -0.904854,0.329445 -0.278146,0.232366 -0.467646,0.570843 -0.502567,0.960331 -0.00275197,0.0306535 -0.00445276,0.062937 -0.00516535,0.0967047 -0.000661417,0.0315472 -0.000188976,0.0640039 0.00136614,0.097252z"/>
  </g>
  <g id="_275871768">
   <g>
    <path id="_275872536" class="fil3" d="M4.33759 3.60883c0.340327,0.704866 -0.326091,0.84724 0.128642,1.90941l-0.0422638 -0.192559c-0.142874,-0.871539 0.503535,-0.953657 0.276406,-1.83721 -0.116051,0.045878 -0.237228,0.0861693 -0.362783,0.120354z"/>
    <path id="_275872080" class="fil3" d="M3.90302 3.69959c-0.117713,0.298638 -0.166134,0.512386 -0.0361299,0.879835 0.216051,0.61065 0.255035,0.644457 0.204563,1.30545 -0.0540709,-0.644283 -0.0903071,-0.65324 -0.390512,-1.19648 -0.200894,-0.363528 -0.219232,-0.627563 -0.166559,-0.950772 0.132268,-0.00645669 0.262031,-0.0192598 0.388638,-0.0380394z"/>
   </g>
   <path id="_275871936" class="fil4" d="M3.41333 0.853331c0.57276,0 1.09131,0.232165 1.46667,0.607528 0.375358,0.375362 0.607528,0.893913 0.607528,1.46667 0,0.0459291 -0.0017126,0.0932638 -0.00503937,0.141846 -0.00319291,0.0466457 -0.00811811,0.0939528 -0.0146732,0.141795l-0.107657 -0.0144646 0.107929 0.0147835c-0.00485039,0.0354016 -0.0262008,0.0644921 -0.0552323,0.080563 -0.265602,0.176315 -0.577799,0.317866 -0.921795,0.414307 -0.333811,0.0935787 -0.697567,0.145079 -1.07773,0.145079l0 -2.99811z"/>
   <path id="_275871432" class="fil5" d="M3.41333 0.853331c0.57276,0 1.09131,0.232165 1.46667,0.607528 0.325949,0.325949 0.543882,0.759886 0.595622,1.24352 -0.00226772,0.0211693 -0.00487402,0.0424488 -0.00780709,0.0638425l-0.107657 -0.0144646 0.107929 0.0147835c-0.00485039,0.0354016 -0.0262008,0.0644921 -0.0552323,0.080563 -0.265602,0.176315 -0.577799,0.317866 -0.921795,0.414307 -0.333811,0.0935787 -0.697567,0.145079 -1.07773,0.145079l0 -2.55516z"/>
  </g>
 </g>
 <rect class="fil6" width="6.82666" height="6.82666"/>
</svg>
