<?xml version="1.0" encoding="UTF-8"?>
<!DOCTYPE svg PUBLIC "-//W3C//DTD SVG 1.1//EN" "http://www.w3.org/Graphics/SVG/1.1/DTD/svg11.dtd">
<!-- Creator: CorelDRAW -->
<svg xmlns="http://www.w3.org/2000/svg" xml:space="preserve" width="6.82666in" height="6.82666in" style="shape-rendering:geometricPrecision; text-rendering:geometricPrecision; image-rendering:optimizeQuality; fill-rule:evenodd; clip-rule:evenodd"
viewBox="0 0 6.82666 6.82666"
 xmlns:xlink="http://www.w3.org/1999/xlink">
 <defs>
  <style type="text/css">
   <![CDATA[
    .fil6 {fill:none}
    .fil5 {fill:#212121}
    .fil4 {fill:#FFFFFE}
    .fil0 {fill:#495138;fill-rule:nonzero}
    .fil2 {fill:#555413;fill-rule:nonzero}
    .fil1 {fill:#9E9D24;fill-rule:nonzero}
    .fil3 {fill:#DCE775;fill-rule:nonzero}
   ]]>
  </style>
 </defs>
 <g id="Layer_x0020_1">
  <metadata id="CorelCorpID_0Corel-Layer"/>
  <path class="fil0" d="M1.74501 3.20618c-0.0589094,0 -0.0757874,0.159693 -0.0757874,0.218602 0,0.0589094 0.0477598,0.106669 0.106669,0.106669 0.235016,0.214827 0.326346,0.274071 0.540776,0.231587 0.0589094,0 0.106669,-0.0477598 0.106669,-0.106669 0,-0.0589094 -0.0747835,-0.218602 -0.133693,-0.218602 -0.263626,0.0315866 -0.420287,-0.142638 -0.544634,-0.231587z"/>
  <path class="fil1" d="M3.94701 2.32835l1.5748e-005 0c0.00116929,0 0.00233465,2.3622e-005 0.00349213,6.29921e-005l0 -3.93701e-006 0.000484252 2.3622e-005 0.00221654 9.84252e-005 0.000177165 1.1811e-005 0.00254331 0.000181102 0.000192913 1.5748e-005c0.00122835,0.000102362 0.00245276,0.000228346 0.00366929,0.000374016 0.557472,0.0199252 1.05883,0.177169 1.41951,0.415831 0.37674,0.249291 0.604067,0.588886 0.593268,0.960043l0.00034252 0 0 3.93701e-006c0,0.00117323 -2.75591e-005,0.00234252 -6.29921e-005,0.00350787l3.93701e-006 0 -2.3622e-005 0.000555118 -9.84252e-005 0.00209055 -2.3622e-005 0.000374016 -0.000165354 0.00232677 -3.93701e-005 0.000437008 -0.000228346 0.00237795 -1.1811e-005 0.000110236 -9.44882e-005 0.000826772c-0.000566929,0.0147835 -0.00124409,0.0263858 -0.00200787,0.0351732 -0.000925197,0.0106339 -0.00266929,0.0252205 -0.00511811,0.0432441l-0.0359567 -0.00483071 -0.000122047 8.66142e-005 0.0363583 0.00494094c-0.00587795,0.0432795 -0.0369488,0.076937 -0.0764134,0.0882244 -0.268949,0.0952087 -0.583118,0.168453 -0.928146,0.214177 -0.332362,0.0440472 -0.693386,0.0623819 -1.07001,0.0499843 -0.287854,-0.00947244 -0.56535,-0.0362402 -0.826835,-0.0776772 -0.271409,-0.0430079 -0.52561,-0.101768 -0.756319,-0.173362l0.031252 -0.101665 -0.0316142 0.101874c-0.0534921,-0.0165984 -0.0845551,-0.0714567 -0.0724764,-0.125169 0.0108622,-0.0740472 -0.00732283,-0.15674 -0.041185,-0.237354 -0.0464724,-0.110626 -0.120925,-0.214165 -0.193354,-0.289287l-0.000204724 0.000200787c-0.0369488,-0.038315 -0.0395079,-0.0971417 -0.00837795,-0.138299 0.158516,-0.247346 0.434795,-0.452713 0.784185,-0.590417 0.334555,-0.13185 0.73863,-0.202579 1.17117,-0.188772l0 -0.000318898z"/>
  <path class="fil0" d="M3.12463 4.00937c0.0119646,-0.0575276 -0.0249724,-0.113866 -0.0825,-0.125831 -0.0575276,-0.0119646 -0.113866,0.0249724 -0.125831,0.0825l-0.0472795 0.227177 -0.200953 0.160114c-0.0460236,0.0365866 -0.238323,0.113819 -0.201736,0.159843 0.0365866,0.0460236 0.288217,0.0434134 0.33424,0.00682677l0.226024 -0.180094c0.0214331,-0.0150315 0.0374134,-0.0379252 0.0431693,-0.0655748l-0.104429 -0.0217362 0.104165 0.0216654 0.0551299 -0.26489z"/>
  <path class="fil0" d="M5.15676 3.99423c-0.0257717,-0.0529252 -0.0895748,-0.0749409 -0.1425,-0.0491693 -0.0529252,0.0257717 -0.0749409,0.0895748 -0.0491693,0.1425l0.118795 0.243094 0 0.000169291c0.0123268,0.0252244 0.0332874,0.0434016 0.0575866,0.0527283l0.263791 0.118886c0.0536142,0.0241614 0.29989,0.0236732 0.324051,-0.0299409 0.0241614,-0.0536142 -0.182933,-0.140063 -0.236547,-0.164224l-0.234098 -0.105504 -0.101909 -0.208539z"/>
  <path class="fil1" d="M1.49987 2.89383c0.119492,0 0.227272,0.0523189 0.304917,0.136902 0.075748,0.0825157 0.122602,0.195783 0.122602,0.32024 0,0.142323 -0.0539488,0.222224 -0.143913,0.268256 -0.122457,0.0626575 -0.542114,0.0548425 -0.687677,0.033878 -0.166118,-0.0239173 -0.305091,-0.0876299 -0.305091,-0.247732 0,-0.124846 0.103181,-0.243256 0.237421,-0.334236 0.152661,-0.103465 0.353803,-0.177307 0.47174,-0.177307z"/>
  <path class="fil2" d="M0.80565 3.4882c-0.00373228,-0.00935433 -0.00680315,-0.0191929 -0.00917323,-0.0295276 0.131138,0.0342559 0.300004,0.0481772 0.513559,0.0154567 0.00727559,-0.00109055 0.0140669,0.00392126 0.0151575,0.0111969 0.00109055,0.00727559 -0.00392126,0.0140669 -0.0111969,0.0151575 -0.208815,0.0319921 -0.376256,0.0199961 -0.508346,-0.0122835z"/>
  <path class="fil3" d="M3.51653 3.05803l-0.0696063 -0.183299 -0.113772 -0.299587c-0.285201,0.0139213 -0.41202,0.0234882 -0.67152,0.146185l-0.0528543 0.194457 -0.0840787 0.309358 0.268146 0.175508 0.268276 0.175587 0.249799 -0.200799 0.242657 -0.195063 -0.0370472 -0.122346z"/>
  <path class="fil0" d="M3.41551 3.09246l-0.154484 -0.406807c-0.197972,0.0110157 -0.319354,0.0272283 -0.509539,0.111783l-0.103528 0.380898 0.406736 0.266213 0.375925 -0.302189 -0.0151102 -0.0498976z"/>
  <path class="fil3" d="M4.33246 3.00209l0.0584882 -0.193138 0.0770157 -0.25435c-0.0745394,-0.0166457 -0.151083,-0.030437 -0.229339,-0.0411654 -0.0957205,-0.0131181 -0.19374,-0.0216417 -0.293496,-0.0251614 -0.0927126,-0.00327165 -0.184437,-0.00210236 -0.274677,0.0032126 -0.0709173,0.0041811 -0.140331,0.0108701 -0.208028,0.019937l0.0900945 0.297528 0.0659528 0.217799 0.0421102 0.110894 0.31115 0 0.309252 0 0.0514764 -0.135555z"/>
  <path class="fil0" d="M4.23144 2.96765l0.100409 -0.331587c-0.0357835,-0.00637402 -0.0716969,-0.0120197 -0.107705,-0.0169567 -0.0937638,-0.0128504 -0.188193,-0.0209016 -0.282772,-0.0242402 -0.0881969,-0.00311024 -0.176543,-0.00209843 -0.264642,0.00309449 -0.0250236,0.00147638 -0.0500276,0.00328346 -0.0750039,0.00543701l0.117772 0.388917 0.0146772 0.0386575 0.47322 0 0.0240433 -0.0633228z"/>
  <path class="fil3" d="M4.9894 2.71473c-0.119154,-0.0525472 -0.247705,-0.0972126 -0.383626,-0.132642l-0.111122 0.292634 -0.0602402 0.158622 -0.0448937 0.148256 0.24113 0.193835 0.249803 0.200799 0.268272 -0.175587 0.26815 -0.175508c-0.190209,-0.345146 -0.171547,-0.375354 -0.427472,-0.510409z"/>
  <path class="fil0" d="M4.67111 2.7105l-0.135673 0.357276 -0.0229567 0.0758071 0.374402 0.300961 0.389724 -0.255079c-0.026315,-0.0498543 -0.0522205,-0.0998701 -0.079063,-0.149472 -0.0211614,-0.0391063 -0.0448858,-0.0820591 -0.0752165,-0.114898 -0.0455827,-0.0493543 -0.119811,-0.0855394 -0.179366,-0.114343 -0.0864173,-0.0417913 -0.178886,-0.0734528 -0.27185,-0.100252z"/>
  <g id="_275857824">
   <circle id="_275857968" class="fil4" transform="matrix(-0.222373 0.0595847 -0.0595847 -0.222373 1.50041 3.04198)" r="0.343016"/>
   <circle id="_275858208" class="fil5" transform="matrix(-0.222373 0.0595847 -0.0595847 -0.222373 1.50041 3.04198)" r="0.194445"/>
   <circle id="_275858040" class="fil4" transform="matrix(-0.0830565 0.0222549 -0.0222549 -0.0830565 1.49062 3.05668)" r="0.194445"/>
  </g>
 </g>
 <rect class="fil6" width="6.82666" height="6.82666"/>
</svg>
