<?xml version="1.0" encoding="UTF-8"?>
<!DOCTYPE svg PUBLIC "-//W3C//DTD SVG 1.1//EN" "http://www.w3.org/Graphics/SVG/1.1/DTD/svg11.dtd">
<!-- Creator: CorelDRAW -->
<svg xmlns="http://www.w3.org/2000/svg" xml:space="preserve" width="6.82666in" height="6.82666in" style="shape-rendering:geometricPrecision; text-rendering:geometricPrecision; image-rendering:optimizeQuality; fill-rule:evenodd; clip-rule:evenodd"
viewBox="0 0 6.82666 6.82666"
 xmlns:xlink="http://www.w3.org/1999/xlink">
 <defs>
  <style type="text/css">
   <![CDATA[
    .fil7 {fill:none}
    .fil3 {fill:black}
    .fil4 {fill:#9EA227}
    .fil0 {fill:#AFB42B}
    .fil5 {fill:#E6A545}
    .fil6 {fill:#E6E6E5}
    .fil1 {fill:#FFB74D}
    .fil2 {fill:#FFFFFE}
   ]]>
  </style>
 </defs>
 <g id="Layer_x0020_1">
  <metadata id="CorelCorpID_0Corel-Layer"/>
  <g id="_275860656">
   <path id="_275861640" class="fil0" d="M4.14221 1.773c0.0155276,0.0152441 0.035248,0.025626 0.0565433,0.0298307 0.362189,0.101315 0.67122,0.263969 0.892559,0.446673 0.219941,0.181539 0.349138,0.377598 0.349138,0.543252 0,0.0787008 -0.0544252,0.105673 -0.150138,0.105673 -0.135425,0 -0.330374,-0.0411181 -0.56387,-0.0903661 -0.117795,-0.0248425 -0.245205,-0.0517244 -0.385492,-0.0775l7.08661e-005 -0.000350394c-0.0502165,-0.00922835 -0.0987441,0.0168583 -0.120043,0.0606339 0.011,-0.0990748 0.0167835,-0.201638 0.0167835,-0.306685 0,-0.256811 -0.0345748,-0.498764 -0.0955512,-0.711161zm-1.55304 0.993079c-0.0235827,-0.0267402 -0.0595866,-0.0416772 -0.0976102,-0.0367913 -0.00505512,0.000645669 -0.00998819,0.00162992 -0.0147795,0.00291732 -0.136783,0.0252795 -0.261287,0.0515394 -0.376587,0.0758583 -0.233484,0.0492441 -0.428433,0.0903661 -0.563854,0.0903661 -0.0957087,0 -0.150134,-0.0269764 -0.150134,-0.105673 0,-0.165654 0.129197,-0.361713 0.349138,-0.543252 0.222992,-0.184071 0.534969,-0.347803 0.900665,-0.448945l0.000102362 0.000318898c0.0109921,-0.00303937 0.0211339,-0.00762992 0.0302677,-0.0134646 -0.0584252,0.208898 -0.0914055,0.445748 -0.0914055,0.696748 0,0.0963307 0.00490945,0.190539 0.0141969,0.281917z"/>
   <path id="_275861592" class="fil0" d="M3.55561 4.13964c-0.0749134,0.110433 -0.264276,0.366858 -0.211315,0.491528 0.0859803,0.202413 0.500984,0.416996 0.516858,0.609685 0.0179843,0.218287 -0.178693,0.363571 0.0313937,0.675465l0.059437 0.0776378c-0.0562126,-0.0624409 -0.076689,-0.0795787 -0.1165,-0.14498 -0.164205,-0.269736 -0.0125472,-0.421122 -0.0435787,-0.602193 -0.0211772,-0.123579 -0.393031,-0.349 -0.501043,-0.46898 -0.183307,-0.203618 -0.0764134,-0.412441 0.0427126,-0.620626 0.023811,0.00344488 0.0478701,0.00524803 0.0721614,0.00524803 0.051063,0 0.101114,-0.00788189 0.149874,-0.0227835z"/>
   <ellipse id="_275862120" class="fil1" cx="3.40574" cy="2.49756" rx="0.906443" ry="1.66486"/>
   <g>
    <g>
     <ellipse id="_275861904" class="fil2" cx="2.95587" cy="1.78757" rx="0.130207" ry="0.145827"/>
     <ellipse id="_275861952" class="fil2" cx="2.95587" cy="1.78757" rx="0.130207" ry="0.145827"/>
     <ellipse id="_275861496" class="fil3" cx="2.95587" cy="1.78757" rx="0.0697543" ry="0.078122"/>
    </g>
    <g>
     <ellipse id="_275861352" class="fil2" cx="3.85561" cy="1.78757" rx="0.130207" ry="0.145827"/>
     <ellipse id="_275860944" class="fil2" cx="3.85561" cy="1.78757" rx="0.130207" ry="0.145827"/>
     <ellipse id="_275860680" class="fil3" cx="3.85561" cy="1.78757" rx="0.0697543" ry="0.078122"/>
    </g>
   </g>
  </g>
  <g id="_275860440">
   <path id="_275860968" class="fil4" d="M4.14221 1.773c0.0155276,0.0152441 0.035248,0.025626 0.0565433,0.0298307 0.362189,0.101315 0.67122,0.263969 0.892559,0.446673 0.219941,0.181539 0.349138,0.377598 0.349138,0.543252 0,0.0787008 -0.0544252,0.105673 -0.150138,0.105673 -0.135425,0 -0.330374,-0.0411181 -0.56387,-0.0903661 -0.117795,-0.0248425 -0.245205,-0.0517244 -0.385492,-0.0775l7.08661e-005 -0.000350394c-0.0502165,-0.00922835 -0.0987441,0.0168583 -0.120043,0.0606339 0.011,-0.0990748 0.0167835,-0.201638 0.0167835,-0.306685 0,-0.256811 -0.0345748,-0.498764 -0.0955512,-0.711161z"/>
   <path id="_275860872" class="fil4" d="M3.55561 4.13964c-0.0346969,0.0511457 -0.0939331,0.13361 -0.142283,0.219795l0 -0.197071c0.0484331,-0.000740157 0.0959409,-0.00856299 0.142283,-0.0227244zm-0.142283 0.595902c0.146815,0.170539 0.434657,0.345461 0.447827,0.505311 0.0179843,0.218287 -0.178693,0.363571 0.0313937,0.675465l0.059437 0.0776378c-0.0562126,-0.0624409 -0.076689,-0.0795787 -0.1165,-0.14498 -0.164205,-0.269736 -0.0125472,-0.421122 -0.0435787,-0.602193 -0.0158268,-0.0923622 -0.227531,-0.241606 -0.378579,-0.361209l0 -0.150031z"/>
   <path id="_275860296" class="fil5" d="M3.41333 0.832882c0.497114,0.00750394 0.898854,0.74987 0.898854,1.66468 0,0.914811 -0.40174,1.65718 -0.898854,1.66468l0 -3.32936z"/>
   <g>
    <path id="_275860608" class="fil6" d="M3.85561 1.64174c0.0719094,0 0.130209,0.0652913 0.130209,0.145827 0,0.0805354 -0.0582992,0.145827 -0.130209,0.145827 -0.0719094,0 -0.130209,-0.0652913 -0.130209,-0.145827 0,-0.0805354 0.0582992,-0.145827 0.130209,-0.145827z"/>
    <path id="_275860224" class="fil6" d="M3.85561 1.64174c0.0719094,0 0.130209,0.0652913 0.130209,0.145827 0,0.0805354 -0.0582992,0.145827 -0.130209,0.145827 -0.0719094,0 -0.130209,-0.0652913 -0.130209,-0.145827 0,-0.0805354 0.0582992,-0.145827 0.130209,-0.145827z"/>
    <path id="_275859984" class="fil3" d="M3.85561 1.70945c0.0385236,0 0.0697559,0.0349764 0.0697559,0.078122 0,0.0431457 -0.0312323,0.078122 -0.0697559,0.078122 -0.0385236,0 -0.0697559,-0.0349764 -0.0697559,-0.078122 0,-0.0431457 0.0312323,-0.078122 0.0697559,-0.078122z"/>
   </g>
  </g>
 </g>
 <rect class="fil7" width="6.82666" height="6.82666"/>
</svg>
