<?xml version="1.0" encoding="UTF-8"?>
<!DOCTYPE svg PUBLIC "-//W3C//DTD SVG 1.1//EN" "http://www.w3.org/Graphics/SVG/1.1/DTD/svg11.dtd">
<!-- Creator: CorelDRAW -->
<svg xmlns="http://www.w3.org/2000/svg" xml:space="preserve" width="6.82666in" height="6.82666in" style="shape-rendering:geometricPrecision; text-rendering:geometricPrecision; image-rendering:optimizeQuality; fill-rule:evenodd; clip-rule:evenodd"
viewBox="0 0 6.82666 6.82666"
 xmlns:xlink="http://www.w3.org/1999/xlink">
 <defs>
  <style type="text/css">
   <![CDATA[
    .fil11 {fill:none}
    .fil4 {fill:#212121}
    .fil8 {fill:#E27E00}
    .fil10 {fill:#E2AD29}
    .fil9 {fill:#E6DBCA}
    .fil2 {fill:#FB8C00}
    .fil5 {fill:#FBC02D}
    .fil3 {fill:#FFF3E0}
    .fil7 {fill:#CF4900;fill-rule:nonzero}
    .fil6 {fill:#E2AD29;fill-rule:nonzero}
    .fil1 {fill:#E65100;fill-rule:nonzero}
    .fil0 {fill:#FBC02D;fill-rule:nonzero}
   ]]>
  </style>
 </defs>
 <g id="Layer_x0020_1">
  <metadata id="CorelCorpID_0Corel-Layer"/>
  <g id="_275862864">
   <g>
    <g>
     <polygon id="_275871216" class="fil0" points="3.18932,5.1301 2.67648,4.80914 2.65202,4.68852 2.7254,4.6483 "/>
     <polygon id="_275865864" class="fil0" points="3.35173,5.1301 2.83889,4.80914 2.81443,4.68852 2.88781,4.6483 "/>
     <polygon id="_275865816" class="fil0" points="3.51414,5.1301 3.0013,4.80914 2.97683,4.68852 3.05022,4.6483 "/>
     <polygon id="_275865600" class="fil0" points="3.67655,5.1301 3.1637,4.80914 3.13924,4.68852 3.21263,4.6483 "/>
     <polygon id="_275865744" class="fil0" points="3.83895,5.1301 3.32611,4.80914 3.30165,4.68852 3.37504,4.6483 "/>
    </g>
    <g>
     <polygon id="_275865456" class="fil0" points="3.09731,1.68784 2.58446,2.0088 2.56,2.12942 2.63339,2.16963 "/>
     <polygon id="_275865552" class="fil0" points="3.30057,1.64861 2.74687,2.0088 2.72241,2.12942 2.79579,2.16963 "/>
     <polygon id="_275865288" class="fil0" points="3.49104,1.64068 2.9782,1.96164 2.95374,2.08226 3.02712,2.12248 "/>
     <polygon id="_275865336" class="fil0" points="3.63064,1.64356 3.1178,1.96452 3.09333,2.08514 3.16672,2.12535 "/>
     <polygon id="_275865528" class="fil0" points="3.74694,1.68784 3.2341,2.0088 3.20963,2.12942 3.28302,2.16963 "/>
     <polygon id="_275865048" class="fil0" points="3.90935,1.68784 3.39651,2.0088 3.37204,2.12942 3.44543,2.16963 "/>
    </g>
    <path id="_275864688" class="fil1" d="M4.72988 3.20343l0.071248 0.132917 -0.00207874 0.143272c-0.0566063,0.0156457 -0.089811,0.0742283 -0.0741654,0.130835 0.0451063,0.163118 0.145913,0.304201 0.282165,0.403709 0.132217,0.0965551 0.297339,0.153878 0.476563,0.153878 0.0756378,0 0.14902,-0.0101693 0.218689,-0.0291378 0.069563,-0.0189409 0.135634,-0.0468661 0.196709,-0.0823819 0.0172441,-0.00874016 0.0323307,-0.0222638 0.0430472,-0.0400433 0.0304094,-0.0504528 0.0141614,-0.116008 -0.0362913,-0.146417 -0.0169331,0.0275157 -0.180323,-0.171614 -0.195957,-0.199169 -0.0441102,-0.0777402 -0.0685748,-0.167134 -0.0672087,-0.262209 0.00136614,-0.0950157 0.0285157,-0.184563 0.075063,-0.262626 0.0477756,-0.080126 0.116075,-0.148213 0.198094,-0.197898 0.0169173,-0.00874803 0.0317008,-0.0221299 0.042252,-0.0396339 0.0304134,-0.0504488 0.0141693,-0.116008 -0.0362795,-0.146421l-7.08661e-005 9.84252e-005c-0.0609961,-0.0367677 -0.128591,-0.065878 -0.201256,-0.0858189 -0.0701142,-0.0192402 -0.14328,-0.0295551 -0.217961,-0.0295551 -0.179661,0 -0.346303,0.0572047 -0.480638,0.153528 -0.13837,0.0992165 -0.242606,0.240087 -0.291925,0.403075z"/>
    <path id="_275864952" class="fil2" d="M2.96339 1.97884c0.158224,0 0.313083,0.0191772 0.463555,0.0559567 0.0773189,0.171047 0.13861,0.381898 0.180937,0.616417 0.0434567,0.24076 0.066752,0.506638 0.066752,0.780323 0,0.263685 -0.0217402,0.520787 -0.0624882,0.755547 -0.0376063,0.216681 -0.091252,0.413988 -0.158768,0.579429 -0.166925,0.0454134 -0.338992,0.0692913 -0.514736,0.0695079 0.0550236,-0.166701 0.0995039,-0.356039 0.132122,-0.559882 0.042126,-0.263248 0.0646063,-0.550157 0.0646063,-0.843063 0,-0.303913 -0.0241063,-0.600705 -0.0690787,-0.870937 -0.0356457,-0.21422 -0.0845,-0.411705 -0.144933,-0.582846 0.0139882,-0.00030315 0.028,-0.000452756 0.0420315,-0.000452756zm1.116 0.340764c0.0694685,0.132941 0.12498,0.293709 0.16413,0.471528 0.0429055,0.194846 0.0659055,0.409902 0.0659055,0.631118 0,0.213398 -0.0214488,0.421394 -0.0616417,0.611217 -0.0334094,0.157795 -0.0797441,0.302929 -0.137413,0.427969l-0.0182598 0.0121732c-0.160925,0.106185 -0.32998,0.190925 -0.505354,0.251685 0.0547598,-0.153539 0.0990197,-0.327547 0.131492,-0.514638 0.042126,-0.242713 0.0646063,-0.507846 0.0646063,-0.779118 0,-0.280654 -0.0241811,-0.554937 -0.0692913,-0.804854 -0.0368465,-0.204161 -0.0878031,-0.391961 -0.151102,-0.553665 0.179925,0.0576378 0.352858,0.14076 0.516929,0.246587zm0.952161 1.03422l0.000220472 -0.000129921c0.0214134,0.0367126 0.0184331,0.0809331 -0.00399606,0.113866 -0.210835,0.347933 -0.463913,0.643157 -0.747776,0.869402 0.028189,-0.0844409 0.0523543,-0.174185 0.0721969,-0.267902 0.0426772,-0.201567 0.0654528,-0.421685 0.0654528,-0.646811 0,-0.233213 -0.0244764,-0.460965 -0.0701378,-0.668335 -0.0238898,-0.108504 -0.0536614,-0.211508 -0.0888465,-0.306902 0.296772,0.231146 0.558713,0.539732 0.772886,0.906811zm-2.0669 0.900669c-0.034122,0.213213 -0.0814921,0.409346 -0.140488,0.578307 -0.189854,-0.0109646 -0.374626,-0.0496654 -0.552441,-0.113362 0.0779764,-0.165839 0.139177,-0.365213 0.180878,-0.583945 0.0422638,-0.221677 0.0648189,-0.463819 0.0648189,-0.711531 0,-0.256323 -0.0242559,-0.506803 -0.0695039,-0.735008 -0.0434173,-0.218969 -0.106398,-0.417437 -0.186067,-0.581004 0.175677,-0.0659409 0.357894,-0.107752 0.544819,-0.122807 0.0644961,0.172339 0.116327,0.376138 0.153508,0.599602 0.0435984,0.261945 0.0669646,0.551012 0.0669646,0.848331 0,0.287295 -0.0217402,0.566799 -0.0624882,0.821417zm-0.617736 -0.144969c-0.0404331,0.212079 -0.0993543,0.403488 -0.174028,0.559972 -0.00156693,0.00327953 -0.00284646,0.00664961 -0.00384646,0.0100709 -0.0325157,-0.0136142 -0.0647795,-0.028063 -0.0967756,-0.0433504 -0.127453,-0.0608819 -0.250484,-0.134937 -0.368354,-0.221024 0.358878,-0.175492 0.432236,-0.641567 0.36685,-0.894823 -0.00492913,0.321413 -0.137969,0.702642 -0.463661,0.82048 -0.104031,-0.083874 -0.20365,-0.17735 -0.298283,-0.279602 -0.250248,-0.270409 -0.387138,-0.428071 -0.406921,-0.600724 0.191697,-0.0015748 0.785972,-0.0113819 0.785972,-0.0530827 0,-0.0441654 -0.58889,-0.0519843 -0.783354,-0.0531496 0.0262638,-0.158815 0.153661,-0.315681 0.385256,-0.56785 0.235547,-0.256488 0.500941,-0.46039 0.787398,-0.599197 0.0270472,-0.0131063 0.0542717,-0.025622 0.0816732,-0.0375512 0.0786693,0.156228 0.140961,0.350075 0.183815,0.566189 0.0433189,0.218476 0.0665394,0.459744 0.0665394,0.708079 0,0.23928 -0.0216693,0.472571 -0.0622795,0.685563zm-0.33722 -1.02957c0.0601339,0 0.107768,0.050748 0.106382,0.11335 -0.00138583,0.0626063 -0.0512559,0.113354 -0.111386,0.113354 -0.0601378,0 -0.107772,-0.050748 -0.106386,-0.113354 0.00138583,-0.0626024 0.0512559,-0.11335 0.11139,-0.11335z"/>
    <path id="_275864520" class="fil3" d="M1.70392 4.41519c0.358878,-0.175492 0.432236,-0.641567 0.36685,-0.894823 -0.00492913,0.321413 -0.137969,0.702642 -0.463661,0.82048l0.096811 0.0743425z"/>
    <path id="_275864472" class="fil3" d="M2.51743 3.42396c0,-0.256323 -0.0242559,-0.506803 -0.0695039,-0.735008 -0.0434173,-0.218969 -0.106398,-0.417437 -0.186067,-0.581004l-0.103008 0.0417441c0.0786693,0.156228 0.140961,0.350075 0.183815,0.566189 0.0433189,0.218476 0.0665394,0.459744 0.0665394,0.708079 0,0.23928 -0.0216693,0.472571 -0.0622795,0.685563 -0.0404331,0.212079 -0.0993543,0.403488 -0.174028,0.559972 -0.00156693,0.00327953 -0.00284646,0.00664961 -0.00384646,0.0100709l0.102681 0.0398701c0.0779764,-0.165839 0.139177,-0.365213 0.180878,-0.583945 0.0422638,-0.221677 0.0648189,-0.463819 0.0648189,-0.711531z"/>
    <path id="_275864928" class="fil3" d="M3.13537 3.43307c0,-0.303913 -0.0241063,-0.600705 -0.0690787,-0.870937 -0.0356457,-0.21422 -0.0845,-0.411705 -0.144933,-0.582846l-0.114685 0.00585039c0.0644961,0.172339 0.116327,0.376138 0.153508,0.599602 0.0435984,0.261945 0.0669646,0.551012 0.0669646,0.848331 0,0.287295 -0.0217402,0.566799 -0.0624882,0.821417 -0.034122,0.213213 -0.0814921,0.409346 -0.140488,0.578307l0.114472 0.00322047c0.0550236,-0.166701 0.0995039,-0.356039 0.132122,-0.559882 0.042126,-0.263248 0.0646063,-0.550157 0.0646063,-0.843063z"/>
    <path id="_275864832" class="fil3" d="M3.78286 3.43154c0,-0.280654 -0.0241811,-0.554937 -0.0692913,-0.804854 -0.0368465,-0.204161 -0.0878031,-0.391961 -0.151102,-0.553665l-0.13552 -0.0382205c0.0773189,0.171047 0.13861,0.381898 0.180937,0.616417 0.0434567,0.24076 0.066752,0.506638 0.066752,0.780323 0,0.263685 -0.0217402,0.520787 -0.0624882,0.755547 -0.0376063,0.216681 -0.091252,0.413988 -0.158768,0.579429l0.133382 -0.0412205c0.0547598,-0.153539 0.0990197,-0.327547 0.131492,-0.514638 0.042126,-0.242713 0.0646063,-0.507846 0.0646063,-0.779118z"/>
    <path id="_275863824" class="fil3" d="M4.41766 3.42225c0,-0.233213 -0.0244764,-0.460965 -0.0701378,-0.668335 -0.0238898,-0.108504 -0.0536614,-0.211508 -0.0888465,-0.306902l-0.179276 -0.127409c0.0694685,0.132941 0.12498,0.293709 0.16413,0.471528 0.0429055,0.194846 0.0659055,0.409902 0.0659055,0.631118 0,0.213398 -0.0214488,0.421394 -0.0616417,0.611217 -0.0334094,0.157795 -0.0797441,0.302929 -0.137413,0.427969l0.16963 -0.124472c0.028189,-0.0844409 0.0523543,-0.174185 0.0721969,-0.267902 0.0426772,-0.201567 0.0654528,-0.421685 0.0654528,-0.646811z"/>
    <path id="_275863776" class="fil3" d="M2.15256 3.19331c0.00185039,-0.0835748 -0.0617402,-0.151323 -0.14202,-0.151323 -0.0802795,0 -0.146854,0.067748 -0.148705,0.151323 -0.00185039,0.0835787 0.0617402,0.151327 0.142024,0.151327 0.0802756,0 0.14685,-0.067748 0.148701,-0.151327z"/>
    <path id="_275863704" class="fil4" d="M2.0834 3.19331c0.000968504,-0.0438071 -0.0323661,-0.0793228 -0.0744488,-0.0793228 -0.0420827,0 -0.0769803,0.0355157 -0.0779528,0.0793228 -0.000968504,0.043815 0.0323661,0.0793268 0.0744528,0.0793268 0.0420787,0 0.0769764,-0.0355118 0.0779488,-0.0793268z"/>
    <path id="_275864232" class="fil5" d="M2.4092 3.42396c0,-0.248335 -0.0232205,-0.489602 -0.0665394,-0.708079 -0.0428543,-0.216114 -0.105146,-0.409961 -0.183815,-0.566189 -0.0274016,0.0119291 -0.054626,0.0244449 -0.0816732,0.0375512 -0.286457,0.138807 -0.55185,0.342709 -0.787398,0.599197 -0.231594,0.252169 -0.358992,0.409035 -0.385256,0.56785 0.194465,0.00116535 0.783354,0.00898425 0.783354,0.0531496 0,0.0417008 -0.594276,0.0515079 -0.785972,0.0530827 0.0197835,0.172654 0.156673,0.330315 0.406921,0.600724 0.0946339,0.102252 0.194252,0.195728 0.298283,0.279602 0.325693,-0.117839 0.458732,-0.499067 0.463661,-0.82048 0.0653858,0.253256 -0.00797244,0.719331 -0.36685,0.894823 0.11787,0.0860866 0.240902,0.160142 0.368354,0.221024 0.0319961,0.0152874 0.0642598,0.0297362 0.0967756,0.0433504 0.001,-0.00342126 0.00227953,-0.00679134 0.00384646,-0.0100709 0.0746732,-0.156484 0.133594,-0.347894 0.174028,-0.559972 0.0406102,-0.212992 0.0622795,-0.446283 0.0622795,-0.685563zm-0.547366 -0.230654c0.00185039,-0.0835748 0.0684252,-0.151323 0.148705,-0.151323 0.0802795,0 0.14387,0.067748 0.14202,0.151323 -0.00185039,0.0835787 -0.0684252,0.151327 -0.148701,0.151327 -0.0802835,0 -0.143874,-0.067748 -0.142024,-0.151327z"/>
   </g>
   <g>
    <g>
     <polygon id="_275864160" class="fil6" points="3.18932,5.1301 2.67648,4.80914 2.65202,4.68852 2.7254,4.6483 "/>
     <polygon id="_275863872" class="fil6" points="3.35173,5.1301 2.83889,4.80914 2.81443,4.68852 2.88781,4.6483 "/>
     <polygon id="_275864256" class="fil6" points="3.51414,5.1301 3.0013,4.80914 2.97683,4.68852 3.05022,4.6483 "/>
     <polygon id="_275864400" class="fil6" points="3.67655,5.1301 3.1637,4.80914 3.13924,4.68852 3.21263,4.6483 "/>
     <polygon id="_275864016" class="fil6" points="3.83895,5.1301 3.32611,4.80914 3.30165,4.68852 3.37504,4.6483 "/>
    </g>
    <path id="_275863464" class="fil7" d="M4.80001 3.41333l-0.00096063 0.0662874c-0.0566063,0.0156457 -0.089811,0.0742283 -0.0741654,0.130835 0.0451063,0.163118 0.145913,0.304201 0.282165,0.403709 0.132217,0.0965551 0.297339,0.153878 0.476563,0.153878 0.0756378,0 0.14902,-0.0101693 0.218689,-0.0291378 0.069563,-0.0189409 0.135634,-0.0468661 0.196709,-0.0823819 0.0172441,-0.00874016 0.0323307,-0.0222638 0.0430472,-0.0400433 0.0304094,-0.0504528 0.0141614,-0.116008 -0.0362913,-0.146417 -0.0169331,0.0275157 -0.180323,-0.171614 -0.195957,-0.199169 -0.0433898,-0.0764724 -0.0677677,-0.16422 -0.067252,-0.257559l-0.842547 0z"/>
    <path id="_275863320" class="fil8" d="M3.6746 3.41333c2.3622e-005,0.00606693 3.54331e-005,0.0121339 3.54331e-005,0.0182047 0,0.263685 -0.0217402,0.520787 -0.0624882,0.755547 -0.0376063,0.216681 -0.091252,0.413988 -0.158768,0.579429 -0.166925,0.0454134 -0.338992,0.0692913 -0.514736,0.0695079 0.0550236,-0.166701 0.0995039,-0.356039 0.132122,-0.559882 0.042126,-0.263248 0.0646063,-0.550157 0.0646063,-0.843063 0,-0.00658661 -1.1811e-005,-0.0131654 -3.54331e-005,-0.0197441l0.539264 0zm-1.99091 0l0.7255 0 1.5748e-005 0.0106299c0,0.23928 -0.0216693,0.472571 -0.0622795,0.685563 -0.0404331,0.212079 -0.0993543,0.403488 -0.174028,0.559972 -0.00156693,0.00327953 -0.00284646,0.00664961 -0.00384646,0.0100709 -0.0325157,-0.0136142 -0.0647795,-0.028063 -0.0967756,-0.0433504 -0.127453,-0.0608819 -0.250484,-0.134937 -0.368354,-0.221024 0.358878,-0.175492 0.432236,-0.641567 0.36685,-0.894823 -0.00492913,0.321413 -0.137969,0.702642 -0.463661,0.82048 -0.104031,-0.083874 -0.20365,-0.17735 -0.298283,-0.279602 -0.250248,-0.270409 -0.387138,-0.428071 -0.406921,-0.600724 0.182323,-0.00149606 0.728776,-0.0104409 0.781783,-0.0471929zm0.833724 0l0.509701 0c2.3622e-005,0.0065748 3.54331e-005,0.0131575 3.54331e-005,0.0197441 0,0.287295 -0.0217402,0.566799 -0.0624882,0.821417 -0.034122,0.213213 -0.0814921,0.409346 -0.140488,0.578307 -0.189854,-0.0109646 -0.374626,-0.0496654 -0.552441,-0.113362 0.0779764,-0.165839 0.139177,-0.365213 0.180878,-0.583945 0.0422638,-0.221677 0.0648189,-0.463819 0.0648189,-0.711531l-1.5748e-005 -0.0106299zm1.26541 0l0.526594 0 1.1811e-005 0.00891732c0,0.213398 -0.0214488,0.421394 -0.0616417,0.611217 -0.0334094,0.157795 -0.0797441,0.302929 -0.137413,0.427969l-0.0182598 0.0121732c-0.160925,0.106185 -0.32998,0.190925 -0.505354,0.251685 0.0547598,-0.153539 0.0990197,-0.327547 0.131492,-0.514638 0.042126,-0.242713 0.0646063,-0.507846 0.0646063,-0.779118 0,-0.00607087 -1.1811e-005,-0.0121378 -3.54331e-005,-0.0182047zm0.634815 0l0.628516 0c-0.00108661,0.019311 -0.00740157,0.0381181 -0.018374,0.0542283 -0.210835,0.347933 -0.463913,0.643157 -0.747776,0.869402 0.028189,-0.0844409 0.0523543,-0.174185 0.0721969,-0.267902 0.0426772,-0.201567 0.0654528,-0.421685 0.0654528,-0.646811l-1.5748e-005 -0.00891732z"/>
    <path id="_275863584" class="fil9" d="M1.70392 4.41519c0.358878,-0.175492 0.432236,-0.641567 0.36685,-0.894823 -0.00492913,0.321413 -0.137969,0.702642 -0.463661,0.82048l0.096811 0.0743425z"/>
    <path id="_275863080" class="fil9" d="M2.51743 3.42396l-1.5748e-005 -0.0106299 -0.108224 0 1.5748e-005 0.0106299c0,0.23928 -0.0216693,0.472571 -0.0622795,0.685563 -0.0404331,0.212079 -0.0993543,0.403488 -0.174028,0.559972 -0.00156693,0.00327953 -0.00284646,0.00664961 -0.00384646,0.0100709l0.102681 0.0398701c0.0779764,-0.165839 0.139177,-0.365213 0.180878,-0.583945 0.0422638,-0.221677 0.0648189,-0.463819 0.0648189,-0.711531z"/>
    <path id="_275863176" class="fil9" d="M3.13537 3.43307c0,-0.00658661 -1.1811e-005,-0.0131654 -3.54331e-005,-0.0197441l-0.108224 0c2.3622e-005,0.0065748 3.54331e-005,0.0131575 3.54331e-005,0.0197441 0,0.287295 -0.0217402,0.566799 -0.0624882,0.821417 -0.034122,0.213213 -0.0814921,0.409346 -0.140488,0.578307l0.114472 0.00322047c0.0550236,-0.166701 0.0995039,-0.356039 0.132122,-0.559882 0.042126,-0.263248 0.0646063,-0.550157 0.0646063,-0.843063z"/>
    <path id="_275863200" class="fil9" d="M3.78286 3.43154c0,-0.00607087 -1.1811e-005,-0.0121378 -3.54331e-005,-0.0182047l-0.108224 0c2.3622e-005,0.00606693 3.54331e-005,0.0121339 3.54331e-005,0.0182047 0,0.263685 -0.0217402,0.520787 -0.0624882,0.755547 -0.0376063,0.216681 -0.091252,0.413988 -0.158768,0.579429l0.133382 -0.0412205c0.0547598,-0.153539 0.0990197,-0.327547 0.131492,-0.514638 0.042126,-0.242713 0.0646063,-0.507846 0.0646063,-0.779118z"/>
    <path id="_275862648" class="fil9" d="M4.41766 3.42225l-1.5748e-005 -0.00891732 -0.10822 0 1.1811e-005 0.00891732c0,0.213398 -0.0214488,0.421394 -0.0616417,0.611217 -0.0334094,0.157795 -0.0797441,0.302929 -0.137413,0.427969l0.16963 -0.124472c0.028189,-0.0844409 0.0523543,-0.174185 0.0721969,-0.267902 0.0426772,-0.201567 0.0654528,-0.421685 0.0654528,-0.646811z"/>
    <path id="_275862360" class="fil10" d="M2.4092 3.42396l-1.5748e-005 -0.0106299 -0.7255 0c-0.0530079,0.036752 -0.599461,0.0456969 -0.781783,0.0471929 0.0197835,0.172654 0.156673,0.330315 0.406921,0.600724 0.0946339,0.102252 0.194252,0.195728 0.298283,0.279602 0.325693,-0.117839 0.458732,-0.499067 0.463661,-0.82048 0.0653858,0.253256 -0.00797244,0.719331 -0.36685,0.894823 0.11787,0.0860866 0.240902,0.160142 0.368354,0.221024 0.0319961,0.0152874 0.0642598,0.0297362 0.0967756,0.0433504 0.001,-0.00342126 0.00227953,-0.00679134 0.00384646,-0.0100709 0.0746732,-0.156484 0.133594,-0.347894 0.174028,-0.559972 0.0406102,-0.212992 0.0622795,-0.446283 0.0622795,-0.685563z"/>
   </g>
  </g>
 </g>
 <rect class="fil11" width="6.82666" height="6.82666"/>
</svg>
