<?xml version="1.0" encoding="UTF-8"?>
<!DOCTYPE svg PUBLIC "-//W3C//DTD SVG 1.1//EN" "http://www.w3.org/Graphics/SVG/1.1/DTD/svg11.dtd">
<!-- Creator: CorelDRAW -->
<svg xmlns="http://www.w3.org/2000/svg" xml:space="preserve" width="6.82666in" height="6.82666in" style="shape-rendering:geometricPrecision; text-rendering:geometricPrecision; image-rendering:optimizeQuality; fill-rule:evenodd; clip-rule:evenodd"
viewBox="0 0 6.82666 6.82666"
 xmlns:xlink="http://www.w3.org/1999/xlink">
 <defs>
  <style type="text/css">
   <![CDATA[
    .fil8 {fill:none}
    .fil7 {fill:#3B3B3B}
    .fil3 {fill:#424242}
    .fil5 {fill:#E69622}
    .fil6 {fill:#E6DBCA}
    .fil1 {fill:#FFA726}
    .fil2 {fill:#FFF3E0}
    .fil4 {fill:#BA7A1C;fill-rule:nonzero}
    .fil0 {fill:#CF871F;fill-rule:nonzero}
   ]]>
  </style>
 </defs>
 <g id="Layer_x0020_1">
  <metadata id="CorelCorpID_0Corel-Layer"/>
  <g id="_327138200">
   <g>
    <g>
     <path id="_327108056" class="fil0" d="M5.1897 3.71203c-0.0431102,-0.0368858 -0.107961,-0.0318386 -0.144846,0.0112677 -0.0368819,0.0431063 -0.0318386,0.107961 0.0112717,0.144843 0.00109843,0.000944882 0.380024,0.332941 0.800043,0.11437 0.050437,-0.0262165 -0.0124803,-0.0639055 -0.0386969,-0.114346 -0.0262126,-0.0504409 -0.149508,-0.079248 -0.199945,-0.0530315 -0.295563,0.153807 -0.427031,-0.102417 -0.427827,-0.103102z"/>
     <path id="_327107600" class="fil0" d="M4.81243 4.77717c-0.0546575,-0.0151063 -0.111228,0.0169567 -0.126335,0.0716181 -0.0151063,0.0546575 0.0169567,0.111228 0.0716142,0.126335 0.00101181,0.000283465 0.249425,0.0576732 0.285039,0.388764 0.0142835,0.134421 0.322803,0.150827 0.308516,0.0163976 -0.0506654,-0.470972 -0.537433,-0.60272 -0.538835,-0.603114z"/>
     <path id="_327107912" class="fil0" d="M5.28131 4.2381c-0.0431063,-0.0368819 -0.107961,-0.0318386 -0.144843,0.0112677 -0.0368819,0.0431063 -0.0318386,0.107961 0.0112677,0.144843 0.00109843,0.000948819 0.380024,0.332945 0.800043,0.11437 0.0504409,-0.0262165 0.0150433,-0.0700236 -0.0111732,-0.120461 -0.0262165,-0.0504409 -0.143398,-0.112878 -0.193839,-0.0866614 -0.295563,0.153807 -0.460657,-0.0626732 -0.461457,-0.0633583z"/>
    </g>
    <g>
     <path id="_327107048" class="fil0" d="M1.63696 3.71203c0.0431102,-0.0368858 0.107961,-0.0318386 0.144846,0.0112677 0.0368819,0.0431063 0.0318386,0.107961 -0.0112717,0.144843 -0.00109843,0.000944882 -0.380024,0.332941 -0.800043,0.11437 -0.050437,-0.0262165 0.0124803,-0.0639055 0.0386969,-0.114346 0.0262126,-0.0504409 0.149508,-0.079248 0.199945,-0.0530315 0.295563,0.153807 0.427031,-0.102417 0.427827,-0.103102z"/>
     <path id="_327106832" class="fil0" d="M2.01423 4.77717c0.0546575,-0.0151063 0.111228,0.0169567 0.126335,0.0716181 0.0151063,0.0546575 -0.0169567,0.111228 -0.0716142,0.126335 -0.00101181,0.000283465 -0.249425,0.0576732 -0.285039,0.388764 -0.0142835,0.134421 -0.322803,0.150827 -0.308516,0.0163976 0.0506654,-0.470972 0.537433,-0.60272 0.538835,-0.603114z"/>
     <path id="_327107192" class="fil0" d="M1.54535 4.2381c0.0431063,-0.0368819 0.107961,-0.0318386 0.144843,0.0112677 0.0368819,0.0431063 0.0318386,0.107961 -0.0112677,0.144843 -0.00109843,0.000948819 -0.380024,0.332945 -0.800043,0.11437 -0.0504409,-0.0262165 -0.0150433,-0.0700236 0.0111732,-0.120461 0.0262165,-0.0504409 0.143398,-0.112878 0.193839,-0.0866614 0.295563,0.153807 0.460657,-0.0626732 0.461457,-0.0633583z"/>
    </g>
   </g>
   <path id="_327107216" class="fil1" d="M3.41333 2.4955c0.52176,0 0.994146,0.211504 1.33607,0.553433 0.341937,0.341941 0.553433,0.814319 0.553433,1.33608 0,0.0417717 -0.00155512,0.0848858 -0.00459055,0.129201 -0.00290945,0.0424528 -0.0073937,0.0855472 -0.0133701,0.129169l0.000255906 0.00030315c-0.00458661,0.0334646 -0.0247638,0.0609606 -0.0522008,0.0761614 -0.241752,0.160433 -0.525839,0.289228 -0.838831,0.376969 -0.303799,0.0851693 -0.634839,0.132043 -0.980772,0.132043 -0.345933,0 -0.676976,-0.046874 -0.980776,-0.132043 -0.316102,-0.0886142 -0.60274,-0.219098 -0.846039,-0.381768 -0.0356181,-0.026748 -0.045185,-0.0696811 -0.0457598,-0.0792638 -0.00546457,-0.0410315 -0.00960236,-0.0815827 -0.0123425,-0.121571 -0.00303543,-0.044315 -0.00459055,-0.0874291 -0.00459055,-0.129201 0,-0.521764 0.211496,-0.994142 0.553433,-1.33608 0.341929,-0.341929 0.814315,-0.553433 1.33607,-0.553433z"/>
   <g>
    <path id="_327107480" class="fil0" d="M1.84433 1.37776c0.136197,-0.0320551 0.289921,-0.0330512 0.451492,0.000374016 0.038748,0.00561417 0.0725669,0.0331969 0.0841969,0.0732441 0.0158622,0.054626 -0.0155669,0.111776 -0.0701929,0.127642l-0.0287244 -0.0989173 0.0285669 0.0985748c-0.109472,0.0317874 -0.199335,0.0761732 -0.266988,0.134787 -0.0399173,0.0345866 -0.0723622,0.0746811 -0.0967992,0.120685 0.0591378,0.0194213 0.12961,0.0408898 0.200087,0.0623622 0.217972,0.0664055 0.435961,0.132803 0.4405,0.230516 0.00338976,0.0725079 -0.0403701,0.115394 -0.144528,0.12024 -0.0239094,0.00111024 -0.0535866,-0.00108268 -0.0907756,-0.00382283 -0.135898,-0.0100315 -0.401106,-0.0296102 -0.441138,0.0979449 -0.0165945,0.0528819 0.0200591,0.161882 0.0770787,0.28489 0.0630669,0.136059 0.151122,0.282728 0.226276,0.399339 0.0306693,0.0412874 0.026315,0.0999331 -0.0119803,0.136154l-0.000374016 -0.000389764c-0.0262205,0.0247992 -0.053752,0.0528858 -0.0825197,0.0841732 -0.0251181,0.0273268 -0.0493661,0.0555079 -0.0726811,0.0844764 -0.00674409,0.00966142 -0.0152717,0.0183228 -0.0254961,0.0254606 -0.0466339,0.0325748 -0.110846,0.0211732 -0.143421,-0.0254646l0.000350394 -0.000240157c-0.0961693,-0.137693 -0.253744,-0.37076 -0.376024,-0.587984 -0.0848268,-0.150697 -0.154579,-0.297102 -0.180598,-0.407654 -0.0369528,-0.157 -0.0389843,-0.298906 -0.0126024,-0.423106 0.0299449,-0.14098 0.0962008,-0.258413 0.189701,-0.349047 0.0927835,-0.0899331 0.211268,-0.15239 0.346594,-0.184236z"/>
    <path id="_327107264" class="fil0" d="M4.53083 1.37813c0.161575,-0.0334291 0.315303,-0.0324331 0.451504,-0.000374016 0.135323,0.0318465 0.253811,0.0943031 0.346587,0.184236 0.0934961,0.0906299 0.159756,0.208063 0.189701,0.349035 0.0263819,0.124201 0.0243504,0.266106 -0.0126024,0.423114 -0.0362913,0.154197 -0.160449,0.382382 -0.29076,0.593173 -0.127689,0.206555 -0.260465,0.396008 -0.319689,0.478949l-0.083689 -0.0595472 0.0838228 0.0598583c-0.0330551,0.0462913 -0.0973858,0.0570197 -0.143677,0.0239646 -0.0117402,-0.00838189 -0.0211929,-0.0187835 -0.0282205,-0.0303819 -0.0207362,-0.0286811 -0.043311,-0.0577874 -0.0676732,-0.0872598 -0.0259567,-0.0314016 -0.0520827,-0.0609173 -0.0782992,-0.0884724l-0.000188976 0.000185039c-0.0358268,-0.0376457 -0.0375669,-0.095311 -0.00617717,-0.134902 0.0753898,-0.113406 0.175028,-0.272252 0.24902,-0.422992 0.0680157,-0.138575 0.114894,-0.265571 0.0961417,-0.325335 -0.0400315,-0.127551 -0.305232,-0.107976 -0.441126,-0.0979449 -0.0372008,0.00274016 -0.066878,0.00493307 -0.0907874,0.00382283 -0.104157,-0.00484646 -0.147917,-0.0477323 -0.144528,-0.12024 0.00453937,-0.0977126 0.222528,-0.16411 0.4405,-0.230516 0.0704724,-0.0214724 0.140949,-0.0429409 0.200087,-0.0623622 -0.024437,-0.046 -0.0568858,-0.0860945 -0.0968031,-0.120681 -0.0676535,-0.0586181 -0.157516,-0.103 -0.266988,-0.134787l0.0285669 -0.0985748 -0.0287244 0.0989134c-0.054626,-0.0158622 -0.0860551,-0.0730118 -0.0701929,-0.127638 0.0116299,-0.0400472 0.0454488,-0.0676299 0.0841969,-0.0732441z"/>
   </g>
   <g>
    <path id="_327139160" class="fil2" d="M2.94983 3.21769c0.0710906,0 0.135465,0.0288307 0.182071,0.0754291 0.0465984,0.0465984 0.0754291,0.110984 0.0754291,0.182075 0,0.0710945 -0.0288307,0.135472 -0.0754291,0.182071 -0.0466063,0.0466024 -0.11098,0.0754291 -0.182071,0.0754291 -0.0710945,0 -0.135476,-0.0288307 -0.182075,-0.0754291 -0.0465945,-0.0465984 -0.0754291,-0.110976 -0.0754291,-0.182071 0,-0.0710906 0.0288346,-0.135476 0.0754291,-0.182075 0.0465984,-0.0465945 0.11098,-0.0754291 0.182075,-0.0754291z"/>
    <path id="_327138800" class="fil3" d="M3.04658 3.37844c-0.0247283,-0.0247323 -0.0589409,-0.0400394 -0.096748,-0.0400394 -0.037811,0 -0.0720236,0.0153071 -0.096752,0.0400394 -0.0247323,0.0247283 -0.0400394,0.0589528 -0.0400394,0.096752 0,0.0378071 0.0153071,0.0720197 0.0400394,0.096748 0.0247283,0.0247323 0.0589409,0.0400433 0.096752,0.0400433 0.0378071,0 0.0720197,-0.015311 0.096748,-0.0400433 0.0247323,-0.0247283 0.0400433,-0.0589409 0.0400433,-0.096748 0,-0.0377992 -0.015311,-0.0720236 -0.0400433,-0.096752z"/>
    <path id="_327138680" class="fil2" d="M3.01846 3.40589c-0.00460236,-0.00460236 -0.0109724,-0.00745276 -0.0180118,-0.00745276 -0.00703937,0 -0.0134094,0.00285039 -0.0180118,0.00745276 -0.0046063,0.0046063 -0.00745669,0.0109764 -0.00745669,0.0180118 0,0.00703937 0.00285039,0.0134094 0.00745669,0.0180157 0.00460236,0.00460236 0.0109724,0.00745276 0.0180118,0.00745276 0.00703937,0 0.0134094,-0.00285039 0.0180118,-0.00745276 0.0046063,-0.0046063 0.00745669,-0.0109764 0.00745669,-0.0180157 0,-0.00703543 -0.00285039,-0.0134055 -0.00745669,-0.0180118z"/>
   </g>
   <g>
    <path id="_327138584" class="fil2" d="M3.87683 3.21769c-0.0710906,0 -0.135465,0.0288307 -0.182071,0.0754291 -0.0465984,0.0465984 -0.0754291,0.110984 -0.0754291,0.182075 0,0.0710945 0.0288307,0.135472 0.0754291,0.182071 0.0466063,0.0466024 0.11098,0.0754291 0.182071,0.0754291 0.0710945,0 0.135476,-0.0288307 0.182075,-0.0754291 0.0465945,-0.0465984 0.0754291,-0.110976 0.0754291,-0.182071 0,-0.0710906 -0.0288346,-0.135476 -0.0754291,-0.182075 -0.0465984,-0.0465945 -0.11098,-0.0754291 -0.182075,-0.0754291z"/>
    <path id="_327138824" class="fil3" d="M3.78008 3.37844c0.0247283,-0.0247323 0.0589409,-0.0400394 0.096748,-0.0400394 0.037811,0 0.0720236,0.0153071 0.096752,0.0400394 0.0247323,0.0247283 0.0400394,0.0589528 0.0400394,0.096752 0,0.0378071 -0.0153071,0.0720197 -0.0400394,0.096748 -0.0247283,0.0247323 -0.0589409,0.0400433 -0.096752,0.0400433 -0.0378071,0 -0.0720197,-0.015311 -0.096748,-0.0400433 -0.0247323,-0.0247283 -0.0400433,-0.0589409 -0.0400433,-0.096748 0,-0.0377992 0.015311,-0.0720236 0.0400433,-0.096752z"/>
    <path id="_327139016" class="fil2" d="M3.8082 3.40589c0.00460236,-0.00460236 0.0109724,-0.00745276 0.0180118,-0.00745276 0.00703937,0 0.0134094,0.00285039 0.0180118,0.00745276 0.0046063,0.0046063 0.00745669,0.0109764 0.00745669,0.0180118 0,0.00703937 -0.00285039,0.0134094 -0.00745669,0.0180157 -0.00460236,0.00460236 -0.0109724,0.00745276 -0.0180118,0.00745276 -0.00703937,0 -0.0134094,-0.00285039 -0.0180118,-0.00745276 -0.0046063,-0.0046063 -0.00745669,-0.0109764 -0.00745669,-0.0180157 0,-0.00703543 0.00285039,-0.0134055 0.00745669,-0.0180118z"/>
   </g>
  </g>
  <g id="_327137384">
   <g>
    <path id="_327137576" class="fil4" d="M5.1897 3.71203c-0.0431102,-0.0368858 -0.107961,-0.0318386 -0.144846,0.0112677 -0.0368819,0.0431063 -0.0318386,0.107961 0.0112717,0.144843 0.00109843,0.000944882 0.380024,0.332941 0.800043,0.11437 0.050437,-0.0262165 -0.0124803,-0.0639055 -0.0386969,-0.114346 -0.0262126,-0.0504409 -0.149508,-0.079248 -0.199945,-0.0530315 -0.295563,0.153807 -0.427031,-0.102417 -0.427827,-0.103102z"/>
    <path id="_327138056" class="fil4" d="M4.81243 4.77717c-0.0546575,-0.0151063 -0.111228,0.0169567 -0.126335,0.0716181 -0.0151063,0.0546575 0.0169567,0.111228 0.0716142,0.126335 0.00101181,0.000283465 0.249425,0.0576732 0.285039,0.388764 0.0142835,0.134421 0.322803,0.150827 0.308516,0.0163976 -0.0506654,-0.470972 -0.537433,-0.60272 -0.538835,-0.603114z"/>
    <path id="_327137840" class="fil4" d="M5.28131 4.2381c-0.0431063,-0.0368819 -0.107961,-0.0318386 -0.144843,0.0112677 -0.0368819,0.0431063 -0.0318386,0.107961 0.0112677,0.144843 0.00109843,0.000948819 0.380024,0.332945 0.800043,0.11437 0.0504409,-0.0262165 0.0150433,-0.0700236 -0.0111732,-0.120461 -0.0262165,-0.0504409 -0.143398,-0.112878 -0.193839,-0.0866614 -0.295563,0.153807 -0.460657,-0.0626732 -0.461457,-0.0633583z"/>
   </g>
   <path id="_327137792" class="fil5" d="M3.41333 2.4955c0.52176,0 0.994146,0.211504 1.33607,0.553433 0.341937,0.341941 0.553433,0.814319 0.553433,1.33608 0,0.0417717 -0.00155512,0.0848858 -0.00459055,0.129201 -0.00290945,0.0424528 -0.0073937,0.0855472 -0.0133701,0.129169l0.000255906 0.00030315c-0.00458661,0.0334646 -0.0247638,0.0609606 -0.0522008,0.0761614 -0.241752,0.160433 -0.525839,0.289228 -0.838831,0.376969 -0.303799,0.0851693 -0.634839,0.132043 -0.980772,0.132043l0 -2.73336z"/>
   <path id="_327137648" class="fil4" d="M4.53083 1.37813c0.161575,-0.0334291 0.315303,-0.0324331 0.451504,-0.000374016 0.135323,0.0318465 0.253811,0.0943031 0.346587,0.184236 0.0934961,0.0906299 0.159756,0.208063 0.189701,0.349035 0.0263819,0.124201 0.0243504,0.266106 -0.0126024,0.423114 -0.0362913,0.154197 -0.160449,0.382382 -0.29076,0.593173 -0.127689,0.206555 -0.260465,0.396008 -0.319689,0.478949l-0.083689 -0.0595472 0.0838228 0.0598583c-0.0330551,0.0462913 -0.0973858,0.0570197 -0.143677,0.0239646 -0.0117402,-0.00838189 -0.0211929,-0.0187835 -0.0282205,-0.0303819 -0.0207362,-0.0286811 -0.043311,-0.0577874 -0.0676732,-0.0872598 -0.0259567,-0.0314016 -0.0520827,-0.0609173 -0.0782992,-0.0884724l-0.000188976 0.000185039c-0.0358268,-0.0376457 -0.0375669,-0.095311 -0.00617717,-0.134902 0.0753898,-0.113406 0.175028,-0.272252 0.24902,-0.422992 0.0680157,-0.138575 0.114894,-0.265571 0.0961417,-0.325335 -0.0400315,-0.127551 -0.305232,-0.107976 -0.441126,-0.0979449 -0.0372008,0.00274016 -0.066878,0.00493307 -0.0907874,0.00382283 -0.104157,-0.00484646 -0.147917,-0.0477323 -0.144528,-0.12024 0.00453937,-0.0977126 0.222528,-0.16411 0.4405,-0.230516 0.0704724,-0.0214724 0.140949,-0.0429409 0.200087,-0.0623622 -0.024437,-0.046 -0.0568858,-0.0860945 -0.0968031,-0.120681 -0.0676535,-0.0586181 -0.157516,-0.103 -0.266988,-0.134787l0.0285669 -0.0985748 -0.0287244 0.0989134c-0.054626,-0.0158622 -0.0860551,-0.0730118 -0.0701929,-0.127638 0.0116299,-0.0400472 0.0454488,-0.0676299 0.0841969,-0.0732441z"/>
   <g>
    <path id="_327136760" class="fil6" d="M3.87683 3.21769c-0.0710906,0 -0.135465,0.0288307 -0.182071,0.0754291 -0.0465984,0.0465984 -0.0754291,0.110984 -0.0754291,0.182075 0,0.0710945 0.0288307,0.135472 0.0754291,0.182071 0.0466063,0.0466024 0.11098,0.0754291 0.182071,0.0754291 0.0710945,0 0.135476,-0.0288307 0.182075,-0.0754291 0.0465945,-0.0465984 0.0754291,-0.110976 0.0754291,-0.182071 0,-0.0710906 -0.0288346,-0.135476 -0.0754291,-0.182075 -0.0465984,-0.0465945 -0.11098,-0.0754291 -0.182075,-0.0754291z"/>
    <path id="_327137336" class="fil7" d="M3.78008 3.37844c0.0247283,-0.0247323 0.0589409,-0.0400394 0.096748,-0.0400394 0.037811,0 0.0720236,0.0153071 0.096752,0.0400394 0.0247323,0.0247283 0.0400394,0.0589528 0.0400394,0.096752 0,0.0378071 -0.0153071,0.0720197 -0.0400394,0.096748 -0.0247283,0.0247323 -0.0589409,0.0400433 -0.096752,0.0400433 -0.0378071,0 -0.0720197,-0.015311 -0.096748,-0.0400433 -0.0247323,-0.0247283 -0.0400433,-0.0589409 -0.0400433,-0.096748 0,-0.0377992 0.015311,-0.0720236 0.0400433,-0.096752z"/>
    <path id="_327136832" class="fil6" d="M3.8082 3.40589c0.00460236,-0.00460236 0.0109724,-0.00745276 0.0180118,-0.00745276 0.00703937,0 0.0134094,0.00285039 0.0180118,0.00745276 0.0046063,0.0046063 0.00745669,0.0109764 0.00745669,0.0180118 0,0.00703937 -0.00285039,0.0134094 -0.00745669,0.0180157 -0.00460236,0.00460236 -0.0109724,0.00745276 -0.0180118,0.00745276 -0.00703937,0 -0.0134094,-0.00285039 -0.0180118,-0.00745276 -0.0046063,-0.0046063 -0.00745669,-0.0109764 -0.00745669,-0.0180157 0,-0.00703543 0.00285039,-0.0134055 0.00745669,-0.0180118z"/>
   </g>
  </g>
 </g>
 <rect class="fil8" width="6.82666" height="6.82666"/>
</svg>
