<?xml version="1.0" encoding="UTF-8"?>
<!DOCTYPE svg PUBLIC "-//W3C//DTD SVG 1.1//EN" "http://www.w3.org/Graphics/SVG/1.1/DTD/svg11.dtd">
<!-- Creator: CorelDRAW -->
<svg xmlns="http://www.w3.org/2000/svg" xml:space="preserve" width="6.82666in" height="6.82666in" style="shape-rendering:geometricPrecision; text-rendering:geometricPrecision; image-rendering:optimizeQuality; fill-rule:evenodd; clip-rule:evenodd"
viewBox="0 0 6.82666 6.82666"
 xmlns:xlink="http://www.w3.org/1999/xlink">
 <defs>
  <style type="text/css">
   <![CDATA[
    .fil4 {fill:none}
    .fil2 {fill:black}
    .fil1 {fill:#37474F}
    .fil3 {fill:#445963}
    .fil0 {fill:#546E7A}
   ]]>
  </style>
 </defs>
 <g id="Layer_x0020_1">
  <metadata id="CorelCorpID_0Corel-Layer"/>
  <g id="_327107816">
   <path id="_327108968" class="fil0" d="M0.853331 3.64124c0,0 1.12306,-0.756406 2.23262,-0.674461l0.460213 0.0630354c0,0 0.460213,0.113469 1.47521,0.472823 0,0 0.888906,-0.649354 0.951953,-0.510654 0,0 -0.50263,0.422201 -0.471965,0.649256l-0.000858268 0.706185c0,0 -0.455283,-0.310846 -0.455283,-0.698193l-0.963189 0.111886 0.0126102 0.157614 -0.226957 -0.0882638 -0.59261 0.0315236 0.617831 0.30261c0,0 -0.674575,0.0882677 -1.1537,-0.30261 0,0 -0.668244,0.201748 -1.30499,0.0441339l0.409776 -0.145008 -0.990665 -0.119878z"/>
   <path id="_327108920" class="fil1" d="M3.0765 3.00145c0,0 0.235606,-0.511724 0.488177,-0.522217l-0.0279606 0.585248 -0.460217 -0.0630315z"/>
   <circle id="_327108440" class="fil2" cx="1.87552" cy="3.51526" r="0.0535971"/>
  </g>
  <path class="fil3" d="M5.50503 3.57714c-0.00485827,0.0225906 -0.00636614,0.0441102 -0.00366929,0.0640984l-0.000850394 0.706185c0,0 -0.455283,-0.310843 -0.455283,-0.698189l-0.963193 0.111882 0.0126063 0.157614 -0.226953 -0.0882677 -0.59261 0.0315276 0.617827 0.30261c0,0 -0.674567,0.0882638 -1.1537,-0.30261 0,0 -0.668236,0.201752 -1.30498,0.0441299l0.409776 -0.145004c0,0 1.03634,-0.503854 3.66104,-0.183976z"/>
 </g>
 <rect class="fil4" width="6.82666" height="6.82666"/>
</svg>
