<?xml version="1.0" encoding="UTF-8"?>
<!DOCTYPE svg PUBLIC "-//W3C//DTD SVG 1.1//EN" "http://www.w3.org/Graphics/SVG/1.1/DTD/svg11.dtd">
<!-- Creator: CorelDRAW -->
<svg xmlns="http://www.w3.org/2000/svg" xml:space="preserve" width="6.82666in" height="6.82666in" style="shape-rendering:geometricPrecision; text-rendering:geometricPrecision; image-rendering:optimizeQuality; fill-rule:evenodd; clip-rule:evenodd"
viewBox="0 0 6.82666 6.82666"
 xmlns:xlink="http://www.w3.org/1999/xlink">
 <defs>
  <style type="text/css">
   <![CDATA[
    .fil35 {fill:none}
    .fil17 {fill:#1466CD}
    .fil13 {fill:#1671E4}
    .fil4 {fill:#212121}
    .fil18 {fill:#3B7ED2}
    .fil14 {fill:#428CE9}
    .fil25 {fill:#9414CD}
    .fil21 {fill:#A416E4}
    .fil26 {fill:#B939D1}
    .fil33 {fill:#CD147B}
    .fil22 {fill:#CE3FE8}
    .fil34 {fill:#D13976}
    .fil8 {fill:#E27E00}
    .fil10 {fill:#E2AD29}
    .fil29 {fill:#E41689}
    .fil9 {fill:#E6DBCA}
    .fil30 {fill:#E83F83}
    .fil2 {fill:#FB8C00}
    .fil5 {fill:#FBC02D}
    .fil3 {fill:#FFF3E0}
    .fil16 {fill:#1280BC;fill-rule:nonzero}
    .fil12 {fill:#148ED1;fill-rule:nonzero}
    .fil15 {fill:#2E51A9;fill-rule:nonzero}
    .fil11 {fill:#335ABC;fill-rule:nonzero}
    .fil24 {fill:#6512BC;fill-rule:nonzero}
    .fil20 {fill:#7014D1;fill-rule:nonzero}
    .fil23 {fill:#B939D1;fill-rule:nonzero}
    .fil32 {fill:#BC1294;fill-rule:nonzero}
    .fil19 {fill:#CE3FE8;fill-rule:nonzero}
    .fil7 {fill:#CF4900;fill-rule:nonzero}
    .fil28 {fill:#D114A4;fill-rule:nonzero}
    .fil31 {fill:#D13976;fill-rule:nonzero}
    .fil6 {fill:#E2AD29;fill-rule:nonzero}
    .fil1 {fill:#E65100;fill-rule:nonzero}
    .fil27 {fill:#E83F83;fill-rule:nonzero}
    .fil0 {fill:#FBC02D;fill-rule:nonzero}
   ]]>
  </style>
 </defs>
 <g id="Layer_x0020_1">
  <metadata id="CorelCorpID_0Corel-Layer"/>
  <g id="_327119552">
   <g>
    <g>
     <polygon id="_327122888" class="fil0" points="4.23397,2.25339 3.99296,2.12466 3.98146,2.07628 4.01595,2.06015 "/>
     <polygon id="_327122864" class="fil0" points="4.3103,2.25339 4.06929,2.12466 4.05779,2.07628 4.09228,2.06015 "/>
     <polygon id="_327122720" class="fil0" points="4.38662,2.25339 4.14561,2.12466 4.13411,2.07628 4.1686,2.06015 "/>
     <polygon id="_327122264" class="fil0" points="4.46294,2.25339 4.22194,2.12466 4.21044,2.07628 4.24493,2.06015 "/>
     <polygon id="_327122768" class="fil0" points="4.53927,2.25339 4.29826,2.12466 4.28676,2.07628 4.32125,2.06015 "/>
    </g>
    <g>
     <polygon id="_327122408" class="fil0" points="4.19073,0.872803 3.94972,1.00153 3.93822,1.04991 3.97271,1.06604 "/>
     <polygon id="_327122288" class="fil0" points="4.28626,0.857071 4.02604,1.00153 4.01455,1.04991 4.04904,1.06604 "/>
     <polygon id="_327121496" class="fil0" points="4.37577,0.85389 4.13476,0.982618 4.12326,1.031 4.15775,1.04712 "/>
     <polygon id="_327122096" class="fil0" points="4.44137,0.855043 4.20036,0.983772 4.18887,1.03215 4.22335,1.04828 "/>
     <polygon id="_327122072" class="fil0" points="4.49603,0.872803 4.25502,1.00153 4.24352,1.04991 4.27801,1.06604 "/>
     <polygon id="_327121952" class="fil0" points="4.57235,0.872803 4.33134,1.00153 4.31984,1.04991 4.35433,1.06604 "/>
    </g>
    <path id="_327121880" class="fil1" d="M4.95796 1.48066l0.0334843 0.053311 -0.000976378 0.0574606c-0.0266024,0.00627559 -0.0422087,0.0297717 -0.0348543,0.0524724 0.0211969,0.0654252 0.0685709,0.122008 0.132602,0.161917 0.0621378,0.0387244 0.139736,0.0617165 0.223965,0.0617165 0.0355433,0 0.0700315,-0.00407874 0.102772,-0.011689 0.0326929,-0.00759449 0.0637402,-0.0187953 0.0924449,-0.0330394 0.00810236,-0.00350394 0.0151929,-0.00892913 0.0202283,-0.0160591 0.0142913,-0.0202362 0.00665748,-0.0465276 -0.0170551,-0.0587244 -0.00795669,0.0110354 -0.0847441,-0.0688307 -0.0920906,-0.0798819 -0.0207283,-0.0311772 -0.0322244,-0.0670315 -0.0315827,-0.105161 0.000641732,-0.0381102 0.0134016,-0.0740236 0.0352756,-0.105331 0.0224528,-0.0321378 0.0545472,-0.0594449 0.0930945,-0.0793701 0.00794882,-0.00351181 0.0148976,-0.00887795 0.0198583,-0.0158976 0.0142913,-0.0202323 0.00665748,-0.0465276 -0.0170512,-0.0587244l-3.54331e-005 3.93701e-005c-0.0286654,-0.014748 -0.0604291,-0.0264213 -0.0945787,-0.0344213 -0.0329488,-0.00771654 -0.0673346,-0.0118504 -0.102433,-0.0118504 -0.0844291,0 -0.162744,0.0229409 -0.225874,0.0615748 -0.0650276,0.0397913 -0.114016,0.0962913 -0.137193,0.161657z"/>
    <path id="_327121976" class="fil2" d="M4.1278 0.989516c0.0743583,0 0.147134,0.00768898 0.21785,0.0224409 0.0363346,0.0686024 0.0651378,0.153165 0.0850315,0.247224 0.0204213,0.096563 0.0313701,0.203197 0.0313701,0.312965 0,0.105756 -0.0102165,0.20887 -0.0293661,0.303028 -0.0176732,0.0869016 -0.0428858,0.166035 -0.0746142,0.23239 -0.0784488,0.0182126 -0.159311,0.0277913 -0.241902,0.027878 0.0258583,-0.0668583 0.0467598,-0.142795 0.0620906,-0.224551 0.0197953,-0.105583 0.0303622,-0.220654 0.0303622,-0.338126 0,-0.12189 -0.0113307,-0.240925 -0.0324646,-0.349307 -0.016752,-0.0859173 -0.0397126,-0.165122 -0.0681102,-0.23376 0.00657087,-0.000122047 0.0131575,-0.000181102 0.019752,-0.000181102zm0.524469 0.136669c0.0326457,0.0533189 0.0587362,0.117795 0.0771339,0.189114 0.0201614,0.0781457 0.0309724,0.164398 0.0309724,0.253122 0,0.0855866 -0.0100787,0.169008 -0.0289685,0.245138 -0.0157008,0.0632874 -0.0374764,0.121496 -0.0645787,0.171646l-0.00858268 0.00488189c-0.075626,0.0425866 -0.155075,0.0765748 -0.237492,0.100945 0.0257362,-0.0615827 0.0465354,-0.13137 0.0617953,-0.206406 0.0197992,-0.0973465 0.0303622,-0.203681 0.0303622,-0.31248 0,-0.112563 -0.0113622,-0.222567 -0.032563,-0.322803 -0.017315,-0.0818819 -0.0412638,-0.157201 -0.0710118,-0.222055 0.0845591,0.0231142 0.165827,0.0564528 0.242933,0.0988976zm0.447472 0.414791l0.000102362 -5.11811e-005c0.010063,0.0147244 0.00866142,0.0324606 -0.00187795,0.0456693 -0.0990827,0.139543 -0.218016,0.257949 -0.351421,0.348689 0.013248,-0.0338661 0.0246063,-0.0698622 0.0339291,-0.107449 0.0200591,-0.0808425 0.0307598,-0.169122 0.0307598,-0.259413 0,-0.0935354 -0.0115,-0.184878 -0.0329606,-0.268047 -0.0112244,-0.0435197 -0.0252165,-0.0848307 -0.041752,-0.123091 0.139469,0.0927047 0.262567,0.216469 0.36322,0.363693zm-0.971346 0.361232c-0.0160354,0.0855118 -0.0382953,0.164173 -0.0660236,0.231941 -0.0892205,-0.00439764 -0.176055,-0.0199213 -0.259618,-0.0454685 0.0366417,-0.0665118 0.0654055,-0.146472 0.0850039,-0.234201 0.0198622,-0.0889094 0.0304606,-0.186024 0.0304606,-0.285374 0,-0.102803 -0.0113976,-0.203264 -0.0326654,-0.294787 -0.0204016,-0.0878228 -0.05,-0.167421 -0.0874409,-0.233024 0.0825591,-0.0264449 0.168193,-0.0432165 0.256039,-0.049252 0.030311,0.0691181 0.0546693,0.150854 0.0721417,0.24048 0.0204882,0.105059 0.0314685,0.220992 0.0314685,0.34024 0,0.115224 -0.0102165,0.227323 -0.0293661,0.329445zm-0.290307 -0.0581417c-0.019,0.0850551 -0.046689,0.161823 -0.0817835,0.224587 -0.00073622,0.00131496 -0.00133858,0.00266535 -0.00180709,0.00403937 -0.0152835,-0.00546063 -0.0304449,-0.0112559 -0.0454803,-0.0173858 -0.0598976,-0.0244213 -0.117717,-0.054122 -0.17311,-0.0886457 0.168657,-0.0703858 0.20313,-0.257315 0.172402,-0.358886 -0.00231496,0.128906 -0.0648386,0.281807 -0.217898,0.329067 -0.0488898,-0.0336378 -0.0957047,-0.0711299 -0.140181,-0.112138 -0.117602,-0.108453 -0.181933,-0.171689 -0.191232,-0.240933 0.0900906,-0.000629921 0.36937,-0.00456299 0.36937,-0.0212913 0,-0.0177126 -0.276752,-0.0208465 -0.368138,-0.021315 0.0123425,-0.0636969 0.0722126,-0.12661 0.181051,-0.227748 0.110697,-0.10287 0.235417,-0.184646 0.370039,-0.240319 0.0127126,-0.00525591 0.0255039,-0.0102756 0.0383819,-0.0150591 0.0369724,0.0626575 0.0662441,0.140402 0.0863858,0.227079 0.0203583,0.087626 0.0312677,0.18439 0.0312677,0.283988 0,0.0959685 -0.0101811,0.189535 -0.0292677,0.274961zm-0.158476 -0.412929c0.0282598,0 0.0506457,0.0203543 0.0499921,0.0454606 -0.000649606,0.0251102 -0.0240866,0.0454646 -0.0523425,0.0454646 -0.0282638,0 -0.0506496,-0.0203543 -0.0499961,-0.0454646 0.000649606,-0.0251063 0.0240866,-0.0454606 0.0523465,-0.0454606z"/>
    <path id="_327121472" class="fil3" d="M3.53591 1.96666c0.168657,-0.0703858 0.20313,-0.257315 0.172402,-0.358886 -0.00231496,0.128906 -0.0648386,0.281807 -0.217898,0.329067l0.0454961 0.0298189z"/>
    <path id="_327121640" class="fil3" d="M3.91822 1.56911c0,-0.102803 -0.0113976,-0.203264 -0.0326654,-0.294787 -0.0204016,-0.0878228 -0.05,-0.167421 -0.0874409,-0.233024l-0.0484094 0.0167441c0.0369724,0.0626575 0.0662441,0.140402 0.0863858,0.227079 0.0203583,0.087626 0.0312677,0.18439 0.0312677,0.283988 0,0.0959685 -0.0101811,0.189535 -0.0292677,0.274961 -0.019,0.0850551 -0.046689,0.161823 -0.0817835,0.224587 -0.00073622,0.00131496 -0.00133858,0.00266535 -0.00180709,0.00403937l0.0482559 0.0159882c0.0366417,-0.0665118 0.0654055,-0.146472 0.0850039,-0.234201 0.0198622,-0.0889094 0.0304606,-0.186024 0.0304606,-0.285374z"/>
    <path id="_327120752" class="fil3" d="M4.20862 1.57276c0,-0.12189 -0.0113307,-0.240925 -0.0324646,-0.349307 -0.016752,-0.0859173 -0.0397126,-0.165122 -0.0681102,-0.23376l-0.0538976 0.00234646c0.030311,0.0691181 0.0546693,0.150854 0.0721417,0.24048 0.0204882,0.105059 0.0314685,0.220992 0.0314685,0.34024 0,0.115224 -0.0102165,0.227323 -0.0293661,0.329445 -0.0160354,0.0855118 -0.0382953,0.164173 -0.0660236,0.231941l0.0537992 0.00129134c0.0258583,-0.0668583 0.0467598,-0.142795 0.0620906,-0.224551 0.0197953,-0.105583 0.0303622,-0.220654 0.0303622,-0.338126z"/>
    <path id="_327121352" class="fil3" d="M4.51291 1.57215c0,-0.112563 -0.0113622,-0.222567 -0.032563,-0.322803 -0.017315,-0.0818819 -0.0412638,-0.157201 -0.0710118,-0.222055l-0.063685 -0.0153307c0.0363346,0.0686024 0.0651378,0.153165 0.0850315,0.247224 0.0204213,0.096563 0.0313701,0.203197 0.0313701,0.312965 0,0.105756 -0.0102165,0.20887 -0.0293661,0.303028 -0.0176732,0.0869016 -0.0428858,0.166035 -0.0746142,0.23239l0.0626811 -0.0165315c0.0257362,-0.0615827 0.0465354,-0.13137 0.0617953,-0.206406 0.0197992,-0.0973465 0.0303622,-0.203681 0.0303622,-0.31248z"/>
    <path id="_327121088" class="fil3" d="M4.81123 1.56842c0,-0.0935354 -0.0115,-0.184878 -0.0329606,-0.268047 -0.0112244,-0.0435197 -0.0252165,-0.0848307 -0.041752,-0.123091l-0.084252 -0.0510984c0.0326457,0.0533189 0.0587362,0.117795 0.0771339,0.189114 0.0201614,0.0781457 0.0309724,0.164398 0.0309724,0.253122 0,0.0855866 -0.0100787,0.169008 -0.0289685,0.245138 -0.0157008,0.0632874 -0.0374764,0.121496 -0.0645787,0.171646l0.0797165 -0.0499213c0.013248,-0.0338661 0.0246063,-0.0698622 0.0339291,-0.107449 0.0200591,-0.0808425 0.0307598,-0.169122 0.0307598,-0.259413z"/>
    <path id="_327121232" class="fil3" d="M3.74674 1.4766c0.000870079,-0.0335197 -0.0290118,-0.060689 -0.0667402,-0.060689 -0.0377283,0 -0.0690157,0.0271693 -0.0698819,0.060689 -0.000870079,0.0335197 0.0290118,0.0606929 0.0667441,0.0606929 0.0377244,0 0.0690118,-0.0271732 0.069878,-0.0606929z"/>
    <path id="_327121208" class="fil4" d="M3.71424 1.4766c0.000456693,-0.0175709 -0.0152126,-0.031811 -0.0349882,-0.031811 -0.0197756,0 -0.0361772,0.0142402 -0.0366339,0.031811 -0.000456693,0.0175748 0.0152126,0.0318189 0.0349882,0.0318189 0.0197756,0 0.0361772,-0.0142441 0.0366339,-0.0318189z"/>
    <path id="_327120608" class="fil5" d="M3.86735 1.56911c0,-0.0995984 -0.0109094,-0.196362 -0.0312677,-0.283988 -0.0201417,-0.0866772 -0.0494134,-0.164421 -0.0863858,-0.227079 -0.012878,0.00478346 -0.0256693,0.00980315 -0.0383819,0.0150591 -0.134622,0.0556732 -0.259343,0.137449 -0.370039,0.240319 -0.108839,0.101138 -0.168709,0.164051 -0.181051,0.227748 0.0913858,0.000468504 0.368138,0.00360236 0.368138,0.021315 0,0.0167283 -0.27928,0.0206614 -0.36937,0.0212913 0.00929921,0.0692441 0.0736299,0.13248 0.191232,0.240933 0.0444764,0.0410079 0.0912913,0.0785 0.140181,0.112138 0.153059,-0.0472598 0.215583,-0.200161 0.217898,-0.329067 0.0307283,0.101571 -0.00374409,0.2885 -0.172402,0.358886 0.0553937,0.0345236 0.113213,0.0642244 0.17311,0.0886457 0.0150354,0.00612992 0.0301969,0.0119252 0.0454803,0.0173858 0.000468504,-0.00137402 0.00107087,-0.00272441 0.00180709,-0.00403937 0.0350945,-0.0627638 0.0627835,-0.139531 0.0817835,-0.224587 0.0190866,-0.0854252 0.0292677,-0.178992 0.0292677,-0.274961zm-0.257236 -0.0925079c0.000870079,-0.0335197 0.0321575,-0.060689 0.0698858,-0.060689 0.0377283,0 0.0676102,0.0271693 0.0667441,0.060689 -0.000870079,0.0335236 -0.0321575,0.0606929 -0.0698858,0.0606929 -0.0377283,0 -0.0676102,-0.0271693 -0.0667441,-0.0606929z"/>
   </g>
   <g>
    <g>
     <polygon id="_327121136" class="fil6" points="4.23398,2.25339 3.99296,2.12466 3.98146,2.07628 4.01595,2.06015 "/>
     <polygon id="_327120944" class="fil6" points="4.3103,2.25339 4.06929,2.12466 4.05779,2.07628 4.09228,2.06015 "/>
     <polygon id="_327119984" class="fil6" points="4.38662,2.25339 4.14561,2.12466 4.13411,2.07628 4.1686,2.06015 "/>
     <polygon id="_327120488" class="fil6" points="4.46295,2.25339 4.22194,2.12466 4.21044,2.07628 4.24493,2.06015 "/>
     <polygon id="_327120272" class="fil6" points="4.53927,2.25339 4.29826,2.12466 4.28676,2.07628 4.32125,2.06015 "/>
    </g>
    <path id="_327120248" class="fil7" d="M4.99092 1.56484l-0.000448819 0.0265866c-0.0266024,0.00627559 -0.0422087,0.0297717 -0.0348543,0.0524724 0.0211969,0.0654252 0.0685709,0.122008 0.132602,0.161917 0.0621378,0.0387244 0.139736,0.0617165 0.223965,0.0617165 0.0355433,0 0.0700315,-0.00407874 0.102772,-0.011689 0.0326929,-0.00759449 0.0637402,-0.0187953 0.0924449,-0.0330394 0.00810236,-0.00350394 0.0151929,-0.00892913 0.0202283,-0.0160591 0.0142913,-0.0202362 0.00665748,-0.0465276 -0.0170551,-0.0587244 -0.00795669,0.0110354 -0.0847441,-0.0688307 -0.0920906,-0.0798819 -0.0203898,-0.0306693 -0.0318465,-0.0658622 -0.0316024,-0.103299l-0.395961 0z"/>
    <path id="_327120128" class="fil8" d="M4.46203 1.56484c1.1811e-005,0.00243307 1.9685e-005,0.00486614 1.9685e-005,0.00730315 0,0.105756 -0.0102165,0.20887 -0.0293661,0.303028 -0.0176732,0.0869016 -0.0428858,0.166035 -0.0746142,0.23239 -0.0784488,0.0182126 -0.159311,0.0277913 -0.241902,0.027878 0.0258583,-0.0668583 0.0467598,-0.142795 0.0620906,-0.224551 0.0197953,-0.105583 0.0303622,-0.220654 0.0303622,-0.338126 0,-0.00264173 -7.87402e-006,-0.00527953 -1.5748e-005,-0.00792126l0.253425 0zm-0.935634 0l0.340953 0 3.93701e-006 0.00426378c0,0.0959685 -0.0101811,0.189535 -0.0292677,0.274961 -0.019,0.0850551 -0.046689,0.161823 -0.0817835,0.224587 -0.00073622,0.00131496 -0.00133858,0.00266535 -0.00180709,0.00403937 -0.0152835,-0.00546063 -0.0304449,-0.0112559 -0.0454803,-0.0173858 -0.0598976,-0.0244213 -0.117717,-0.054122 -0.17311,-0.0886457 0.168657,-0.0703858 0.20313,-0.257315 0.172402,-0.358886 -0.00231496,0.128906 -0.0648386,0.281807 -0.217898,0.329067 -0.0488898,-0.0336378 -0.0957047,-0.0711299 -0.140181,-0.112138 -0.117602,-0.108453 -0.181933,-0.171689 -0.191232,-0.240933 0.085685,-0.000598425 0.342492,-0.00418898 0.367402,-0.0189291zm0.391811 0l0.239535 0c1.1811e-005,0.0026378 1.5748e-005,0.00527953 1.5748e-005,0.00792126 0,0.115224 -0.0102165,0.227323 -0.0293661,0.329445 -0.0160354,0.0855118 -0.0382953,0.164173 -0.0660236,0.231941 -0.0892205,-0.00439764 -0.176055,-0.0199213 -0.259618,-0.0454685 0.0366417,-0.0665118 0.0654055,-0.146472 0.0850039,-0.234201 0.0198622,-0.0889094 0.0304606,-0.186024 0.0304606,-0.285374l-7.87402e-006 -0.00426378zm0.594685 0l0.247476 0 3.93701e-006 0.00357874c0,0.0855866 -0.0100787,0.169008 -0.0289685,0.245138 -0.0157008,0.0632874 -0.0374764,0.121496 -0.0645787,0.171646l-0.00858268 0.00488189c-0.075626,0.0425866 -0.155075,0.0765748 -0.237492,0.100945 0.0257362,-0.0615827 0.0465354,-0.13137 0.0617953,-0.206406 0.0197992,-0.0973465 0.0303622,-0.203681 0.0303622,-0.31248 0,-0.00243701 -3.93701e-006,-0.00487008 -1.5748e-005,-0.00730315zm0.298335 0l0.29537 0c-0.000507874,0.00774803 -0.00347638,0.0152913 -0.00863386,0.021752 -0.0990827,0.139543 -0.218016,0.257949 -0.351421,0.348689 0.013248,-0.0338661 0.0246063,-0.0698622 0.0339291,-0.107449 0.0200591,-0.0808425 0.0307598,-0.169122 0.0307598,-0.259413l-3.93701e-006 -0.00357874z"/>
    <path id="_327120056" class="fil9" d="M3.53591 1.96666c0.168657,-0.0703858 0.20313,-0.257315 0.172402,-0.358886 -0.00231496,0.128906 -0.0648386,0.281807 -0.217898,0.329067l0.0454961 0.0298189z"/>
    <path id="_327120560" class="fil9" d="M3.91822 1.56911l-7.87402e-006 -0.00426378 -0.0508583 0 3.93701e-006 0.00426378c0,0.0959685 -0.0101811,0.189535 -0.0292677,0.274961 -0.019,0.0850551 -0.046689,0.161823 -0.0817835,0.224587 -0.00073622,0.00131496 -0.00133858,0.00266535 -0.00180709,0.00403937l0.0482559 0.0159882c0.0366417,-0.0665118 0.0654055,-0.146472 0.0850039,-0.234201 0.0198622,-0.0889094 0.0304606,-0.186024 0.0304606,-0.285374z"/>
    <path id="_327119192" class="fil9" d="M4.20862 1.57276c0,-0.00264173 -7.87402e-006,-0.00527953 -1.5748e-005,-0.00792126l-0.0508622 0c1.1811e-005,0.0026378 1.5748e-005,0.00527953 1.5748e-005,0.00792126 0,0.115224 -0.0102165,0.227323 -0.0293661,0.329445 -0.0160354,0.0855118 -0.0382953,0.164173 -0.0660236,0.231941l0.0537992 0.00129134c0.0258583,-0.0668583 0.0467598,-0.142795 0.0620906,-0.224551 0.0197953,-0.105583 0.0303622,-0.220654 0.0303622,-0.338126z"/>
    <path id="_327119264" class="fil9" d="M4.51291 1.57215c0,-0.00243701 -3.93701e-006,-0.00487008 -1.5748e-005,-0.00730315l-0.0508622 0c1.1811e-005,0.00243307 1.9685e-005,0.00486614 1.9685e-005,0.00730315 0,0.105756 -0.0102165,0.20887 -0.0293661,0.303028 -0.0176732,0.0869016 -0.0428858,0.166035 -0.0746142,0.23239l0.0626811 -0.0165315c0.0257362,-0.0615827 0.0465354,-0.13137 0.0617953,-0.206406 0.0197992,-0.0973465 0.0303622,-0.203681 0.0303622,-0.31248z"/>
    <path id="_327119096" class="fil9" d="M4.81123 1.56842l-3.93701e-006 -0.00357874 -0.0508583 0 3.93701e-006 0.00357874c0,0.0855866 -0.0100787,0.169008 -0.0289685,0.245138 -0.0157008,0.0632874 -0.0374764,0.121496 -0.0645787,0.171646l0.0797165 -0.0499213c0.013248,-0.0338661 0.0246063,-0.0698622 0.0339291,-0.107449 0.0200591,-0.0808425 0.0307598,-0.169122 0.0307598,-0.259413z"/>
    <path id="_327119720" class="fil10" d="M3.86735 1.56911l-3.93701e-006 -0.00426378 -0.340953 0c-0.0249094,0.0147402 -0.281717,0.0183307 -0.367402,0.0189291 0.00929921,0.0692441 0.0736299,0.13248 0.191232,0.240933 0.0444764,0.0410079 0.0912913,0.0785 0.140181,0.112138 0.153059,-0.0472598 0.215583,-0.200161 0.217898,-0.329067 0.0307283,0.101571 -0.00374409,0.2885 -0.172402,0.358886 0.0553937,0.0345236 0.113213,0.0642244 0.17311,0.0886457 0.0150354,0.00612992 0.0301969,0.0119252 0.0454803,0.0173858 0.000468504,-0.00137402 0.00107087,-0.00272441 0.00180709,-0.00403937 0.0350945,-0.0627638 0.0627835,-0.139531 0.0817835,-0.224587 0.0190866,-0.0854252 0.0292677,-0.178992 0.0292677,-0.274961z"/>
   </g>
  </g>
  <g id="_327116264">
   <g>
    <g>
     <polygon id="_327119408" class="fil11" points="2.35931,3.39616 2.1183,3.26744 2.1068,3.21906 2.14129,3.20293 "/>
     <polygon id="_327119744" class="fil11" points="2.43563,3.39616 2.19462,3.26744 2.18313,3.21906 2.21761,3.20293 "/>
     <polygon id="_327119360" class="fil11" points="2.51196,3.39616 2.27094,3.26744 2.25945,3.21906 2.29394,3.20293 "/>
     <polygon id="_327118808" class="fil11" points="2.58828,3.39616 2.34727,3.26744 2.33577,3.21906 2.37026,3.20293 "/>
     <polygon id="_327118712" class="fil11" points="2.66461,3.39616 2.42359,3.26744 2.4121,3.21906 2.44658,3.20293 "/>
    </g>
    <g>
     <polygon id="_327118448" class="fil11" points="2.31606,2.01558 2.07506,2.14431 2.06356,2.19269 2.09804,2.20881 "/>
     <polygon id="_327118352" class="fil11" points="2.41159,1.99985 2.15138,2.14431 2.13988,2.19269 2.17437,2.20881 "/>
     <polygon id="_327118640" class="fil11" points="2.5011,1.99667 2.26009,2.12539 2.24859,2.17377 2.28308,2.1899 "/>
     <polygon id="_327119024" class="fil11" points="2.56671,1.99782 2.3257,2.12655 2.3142,2.17493 2.34869,2.19106 "/>
     <polygon id="_327118592" class="fil11" points="2.62136,2.01558 2.38035,2.14431 2.36885,2.19269 2.40334,2.20881 "/>
     <polygon id="_327118568" class="fil11" points="2.69769,2.01558 2.45668,2.14431 2.44518,2.19269 2.47967,2.20881 "/>
    </g>
    <path id="_327118952" class="fil12" d="M3.0833 2.62344l0.0334843 0.0533071 -0.000976378 0.0574646c-0.0266024,0.00627165 -0.0422087,0.0297677 -0.0348543,0.0524724 0.0211969,0.0654213 0.0685709,0.122004 0.132602,0.161913 0.0621339,0.0387244 0.139736,0.0617165 0.223961,0.0617165 0.0355472,0 0.0700354,-0.00407874 0.102776,-0.011685 0.032689,-0.00759843 0.0637402,-0.0187992 0.0924449,-0.0330433 0.00810236,-0.00350394 0.0151929,-0.00892913 0.0202283,-0.0160591 0.0142913,-0.0202362 0.00665748,-0.0465276 -0.0170551,-0.0587244 -0.00795669,0.0110354 -0.0847441,-0.0688268 -0.0920906,-0.079878 -0.0207283,-0.0311811 -0.0322283,-0.0670354 -0.0315827,-0.105165 0.000641732,-0.0381063 0.0133976,-0.0740236 0.0352756,-0.105331 0.0224528,-0.0321378 0.0545472,-0.0594449 0.0930945,-0.0793701 0.00794882,-0.00350787 0.0148976,-0.00887795 0.0198543,-0.0158976 0.0142953,-0.0202323 0.00666142,-0.0465276 -0.0170472,-0.0587244l-3.54331e-005 3.93701e-005c-0.0286654,-0.0147441 -0.0604291,-0.0264213 -0.0945787,-0.0344173 -0.0329528,-0.00771654 -0.0673346,-0.0118543 -0.102433,-0.0118543 -0.0844331,0 -0.162744,0.0229409 -0.225878,0.0615748 -0.0650276,0.0397913 -0.114012,0.0962913 -0.137189,0.161661z"/>
    <path id="_327118088" class="fil13" d="M2.25313 2.13229c0.0743583,0 0.147134,0.00769291 0.217846,0.0224409 0.0363386,0.0686024 0.0651417,0.153169 0.0850315,0.247228 0.0204252,0.0965591 0.031374,0.203197 0.031374,0.312961 0,0.105756 -0.0102205,0.208874 -0.0293701,0.303028 -0.0176732,0.0869055 -0.0428819,0.166039 -0.0746102,0.23239 -0.0784488,0.0182165 -0.159311,0.0277913 -0.241902,0.027878 0.0258583,-0.0668583 0.0467598,-0.142795 0.0620906,-0.224551 0.0197953,-0.105579 0.0303622,-0.22065 0.0303622,-0.338126 0,-0.12189 -0.0113307,-0.240925 -0.0324646,-0.349307 -0.016752,-0.0859134 -0.0397126,-0.165118 -0.0681102,-0.23376 0.00657087,-0.000122047 0.0131575,-0.000181102 0.019752,-0.000181102zm0.524469 0.136669c0.0326457,0.0533189 0.0587362,0.117799 0.0771339,0.189114 0.0201614,0.0781496 0.0309724,0.164398 0.0309724,0.253122 0,0.0855866 -0.0100827,0.169008 -0.0289685,0.245142 -0.0157008,0.0632835 -0.0374764,0.121492 -0.0645787,0.171642l-0.00858268 0.00488583c-0.075626,0.0425866 -0.155075,0.0765709 -0.237492,0.100941 0.0257362,-0.0615787 0.0465354,-0.13137 0.0617953,-0.206406 0.0197992,-0.0973425 0.0303622,-0.203681 0.0303622,-0.31248 0,-0.112559 -0.0113622,-0.222567 -0.032563,-0.322799 -0.017315,-0.0818858 -0.0412638,-0.157205 -0.0710118,-0.222059 0.0845551,0.0231181 0.165827,0.0564528 0.242933,0.0988976zm0.447472 0.414795l0.000102362 -5.51181e-005c0.010063,0.0147244 0.00866142,0.0324606 -0.00187795,0.0456693 -0.0990827,0.139543 -0.21802,0.257949 -0.351421,0.348689 0.013248,-0.0338661 0.0246063,-0.0698583 0.0339291,-0.107445 0.0200591,-0.0808425 0.0307598,-0.169126 0.0307598,-0.259417 0,-0.0935354 -0.0115,-0.184878 -0.0329606,-0.268047 -0.0112283,-0.0435197 -0.0252165,-0.0848307 -0.041752,-0.123091 0.139469,0.0927087 0.262567,0.216472 0.36322,0.363697zm-0.971346 0.361228c-0.0160354,0.0855118 -0.0382953,0.164177 -0.0660236,0.231941 -0.0892205,-0.00439764 -0.176055,-0.0199173 -0.259622,-0.0454646 0.0366457,-0.0665157 0.0654094,-0.146476 0.0850079,-0.234205 0.0198583,-0.0889055 0.0304606,-0.186024 0.0304606,-0.28537 0,-0.102803 -0.0114016,-0.203264 -0.0326654,-0.294791 -0.0204016,-0.0878189 -0.05,-0.167421 -0.0874409,-0.23302 0.0825591,-0.0264488 0.168193,-0.0432165 0.256039,-0.0492559 0.030311,0.0691181 0.0546654,0.150858 0.0721417,0.24048 0.0204882,0.105059 0.0314685,0.220996 0.0314685,0.34024 0,0.115224 -0.0102165,0.227327 -0.0293661,0.329445zm-0.290307 -0.0581417c-0.019,0.0850591 -0.0466929,0.161827 -0.0817835,0.224587 -0.00073622,0.00131496 -0.00133858,0.00266929 -0.00180709,0.00403937 -0.0152835,-0.00546063 -0.0304449,-0.0112559 -0.0454803,-0.0173858 -0.0598976,-0.0244173 -0.117717,-0.0541181 -0.17311,-0.0886457 0.168657,-0.0703858 0.20313,-0.257311 0.172402,-0.358886 -0.00231496,0.128909 -0.0648386,0.281807 -0.217898,0.329067 -0.0488898,-0.0336378 -0.0957047,-0.071126 -0.140181,-0.112138 -0.117602,-0.108453 -0.181933,-0.171685 -0.191232,-0.240933 0.0900866,-0.000629921 0.36937,-0.00456299 0.36937,-0.0212874 0,-0.0177126 -0.276752,-0.0208504 -0.368138,-0.0213189 0.0123425,-0.0636929 0.0722126,-0.12661 0.181051,-0.227744 0.110697,-0.10287 0.235417,-0.18465 0.370039,-0.240319 0.0127087,-0.00525984 0.0255039,-0.0102795 0.0383819,-0.015063 0.0369724,0.0626575 0.0662441,0.140406 0.0863858,0.227083 0.0203583,0.087622 0.0312677,0.184386 0.0312677,0.283988 0,0.0959646 -0.0101811,0.189531 -0.0292677,0.274957zm-0.158476 -0.412929c0.0282598,0 0.0506457,0.0203543 0.0499921,0.0454646 -0.000649606,0.0251063 -0.0240866,0.0454606 -0.0523465,0.0454606 -0.0282598,0 -0.0506457,-0.0203543 -0.0499961,-0.0454606 0.000653543,-0.0251102 0.0240906,-0.0454646 0.0523504,-0.0454646z"/>
    <path id="_327117680" class="fil3" d="M1.66124 3.10944c0.168657,-0.0703858 0.20313,-0.257311 0.172402,-0.358886 -0.00231496,0.128909 -0.0648386,0.281807 -0.217898,0.329067l0.0454961 0.0298189z"/>
    <path id="_327118112" class="fil3" d="M2.04355 2.71189c0,-0.102803 -0.0114016,-0.203264 -0.0326654,-0.294791 -0.0204016,-0.0878189 -0.05,-0.167421 -0.0874409,-0.23302l-0.0484094 0.0167402c0.0369724,0.0626575 0.0662441,0.140406 0.0863858,0.227083 0.0203583,0.087622 0.0312677,0.184386 0.0312677,0.283988 0,0.0959646 -0.0101811,0.189531 -0.0292677,0.274957 -0.019,0.0850591 -0.0466929,0.161827 -0.0817835,0.224587 -0.00073622,0.00131496 -0.00133858,0.00266929 -0.00180709,0.00403937l0.048252 0.0159921c0.0366457,-0.0665157 0.0654094,-0.146476 0.0850079,-0.234205 0.0198583,-0.0889055 0.0304606,-0.186024 0.0304606,-0.28537z"/>
    <path id="_327118280" class="fil3" d="M2.33396 2.71554c0,-0.12189 -0.0113307,-0.240925 -0.0324646,-0.349307 -0.016752,-0.0859134 -0.0397126,-0.165118 -0.0681102,-0.23376l-0.0538976 0.00234646c0.030311,0.0691181 0.0546654,0.150858 0.0721417,0.24048 0.0204882,0.105059 0.0314685,0.220996 0.0314685,0.34024 0,0.115224 -0.0102165,0.227327 -0.0293661,0.329445 -0.0160354,0.0855118 -0.0382953,0.164177 -0.0660236,0.231941l0.0537992 0.00129134c0.0258583,-0.0668583 0.0467598,-0.142795 0.0620906,-0.224551 0.0197953,-0.105579 0.0303622,-0.22065 0.0303622,-0.338126z"/>
    <path id="_327118160" class="fil3" d="M2.63824 2.71492c0,-0.112559 -0.0113622,-0.222567 -0.032563,-0.322799 -0.017315,-0.0818858 -0.0412638,-0.157205 -0.0710118,-0.222059l-0.063689 -0.0153307c0.0363386,0.0686024 0.0651417,0.153169 0.0850315,0.247228 0.0204252,0.0965591 0.031374,0.203197 0.031374,0.312961 0,0.105756 -0.0102205,0.208874 -0.0293701,0.303028 -0.0176732,0.0869055 -0.0428819,0.166039 -0.0746102,0.23239l0.0626811 -0.0165315c0.0257362,-0.0615787 0.0465354,-0.13137 0.0617953,-0.206406 0.0197992,-0.0973425 0.0303622,-0.203681 0.0303622,-0.31248z"/>
    <path id="_327118040" class="fil3" d="M2.93657 2.7112c0,-0.0935354 -0.0115,-0.184878 -0.0329606,-0.268047 -0.0112283,-0.0435197 -0.0252165,-0.0848307 -0.041752,-0.123091l-0.084252 -0.0510984c0.0326457,0.0533189 0.0587362,0.117799 0.0771339,0.189114 0.0201614,0.0781496 0.0309724,0.164398 0.0309724,0.253122 0,0.0855866 -0.0100827,0.169008 -0.0289685,0.245142 -0.0157008,0.0632835 -0.0374764,0.121492 -0.0645787,0.171642l0.0797165 -0.0499213c0.013248,-0.0338661 0.0246063,-0.0698583 0.0339291,-0.107445 0.0200591,-0.0808425 0.0307598,-0.169126 0.0307598,-0.259417z"/>
    <path id="_327117752" class="fil3" d="M1.87208 2.61937c0.000870079,-0.0335157 -0.0290118,-0.060689 -0.0667402,-0.060689 -0.0377283,0 -0.0690157,0.0271732 -0.0698858,0.060689 -0.000866142,0.0335236 0.0290157,0.0606929 0.0667441,0.0606929 0.0377244,0 0.0690157,-0.0271693 0.0698819,-0.0606929z"/>
    <path id="_327117560" class="fil4" d="M1.83958 2.61938c0.000452756,-0.0175709 -0.0152126,-0.031815 -0.0349882,-0.031815 -0.0197756,0 -0.0361772,0.0142441 -0.0366339,0.031815 -0.000456693,0.0175709 0.0152087,0.031815 0.0349882,0.031815 0.0197756,0 0.0361772,-0.0142441 0.0366339,-0.031815z"/>
    <path id="_327116768" class="fil14" d="M1.99269 2.71189c0,-0.0996024 -0.0109094,-0.196366 -0.0312677,-0.283988 -0.0201417,-0.0866772 -0.0494134,-0.164425 -0.0863858,-0.227083 -0.012878,0.00478346 -0.0256732,0.00980315 -0.0383819,0.015063 -0.134622,0.0556693 -0.259343,0.137449 -0.370039,0.240319 -0.108839,0.101134 -0.168709,0.164051 -0.181051,0.227744 0.0913858,0.000468504 0.368138,0.0036063 0.368138,0.0213189 0,0.0167244 -0.279283,0.0206575 -0.36937,0.0212874 0.00929921,0.069248 0.0736299,0.13248 0.191232,0.240933 0.0444764,0.0410118 0.0912913,0.0785 0.140181,0.112138 0.153059,-0.0472598 0.215583,-0.200157 0.217898,-0.329067 0.0307283,0.101575 -0.00374409,0.2885 -0.172402,0.358886 0.0553937,0.0345276 0.113213,0.0642283 0.17311,0.0886457 0.0150354,0.00612992 0.0301969,0.0119252 0.0454803,0.0173858 0.000468504,-0.00137008 0.00107087,-0.00272441 0.00180709,-0.00403937 0.0350906,-0.0627598 0.0627835,-0.139528 0.0817835,-0.224587 0.0190866,-0.0854252 0.0292677,-0.178992 0.0292677,-0.274957zm-0.257236 -0.0925079c0.000870079,-0.0335197 0.0321575,-0.0606929 0.0698858,-0.0606929 0.0377283,0 0.0676102,0.0271732 0.0667402,0.0606929 -0.000866142,0.0335197 -0.0321535,0.060689 -0.0698819,0.060689 -0.0377283,0 -0.0676142,-0.0271693 -0.0667441,-0.060689z"/>
   </g>
   <g>
    <g>
     <polygon id="_327117440" class="fil15" points="2.35931,3.39616 2.1183,3.26744 2.1068,3.21906 2.14129,3.20293 "/>
     <polygon id="_327117512" class="fil15" points="2.43563,3.39616 2.19462,3.26744 2.18313,3.21906 2.21761,3.20293 "/>
     <polygon id="_327117368" class="fil15" points="2.51196,3.39616 2.27094,3.26744 2.25945,3.21906 2.29393,3.20293 "/>
     <polygon id="_327117296" class="fil15" points="2.58828,3.39616 2.34727,3.26744 2.33577,3.21906 2.37026,3.20293 "/>
     <polygon id="_327117200" class="fil15" points="2.66461,3.39616 2.42359,3.26744 2.4121,3.21906 2.44658,3.20293 "/>
    </g>
    <path id="_327116864" class="fil16" d="M3.11644 2.69641l-0.000641732 0.0377913c-0.0266024,0.00627953 -0.0422047,0.0297717 -0.0348504,0.0524764 0.0211969,0.0654213 0.0685709,0.122004 0.132602,0.161913 0.0621339,0.0387283 0.139736,0.0617165 0.223961,0.0617165 0.0355472,0 0.0700354,-0.00407874 0.102776,-0.011685 0.0326929,-0.00759843 0.0637402,-0.0187992 0.0924449,-0.0330394 0.00810236,-0.00350787 0.0151929,-0.00893307 0.0202283,-0.016063 0.0142913,-0.0202362 0.00665354,-0.0465276 -0.0170551,-0.0587244 -0.00796063,0.0110354 -0.0847441,-0.0688268 -0.0920906,-0.079878 -0.0207283,-0.0311811 -0.0322283,-0.0670354 -0.0315827,-0.105165 5.11811e-005,-0.00312992 0.000188976,-0.00624016 0.000401575,-0.00934252l-0.396193 0z"/>
    <path id="_327116192" class="fil17" d="M2.58728 2.69641c7.08661e-005,0.00615748 0.000106299,0.0123307 0.000106299,0.0185118 0,0.105752 -0.0102165,0.208866 -0.0293622,0.303024 -0.0176772,0.0869016 -0.0428858,0.166039 -0.0746181,0.23239 -0.0784449,0.0182126 -0.159307,0.0277913 -0.241902,0.027878 0.0258622,-0.0668583 0.0467638,-0.142795 0.0620945,-0.224551 0.0197953,-0.105579 0.0303622,-0.22065 0.0303622,-0.338126 0,-0.00638189 -3.14961e-005,-0.0127598 -9.44882e-005,-0.019126l0.253413 0zm-0.962185 0l0.367508 0c5.90551e-005,0.00514961 9.44882e-005,0.0103071 9.44882e-005,0.0154724 0,0.0959685 -0.010185,0.189531 -0.0292717,0.274957 -0.019,0.0850591 -0.0466929,0.161827 -0.0817835,0.224587 -0.00073622,0.00131496 -0.00133858,0.00266929 -0.00180709,0.00403937 -0.0152795,-0.00546063 -0.0304449,-0.0112559 -0.0454803,-0.0173858 -0.0598976,-0.0244173 -0.117717,-0.054122 -0.17311,-0.0886457 0.168654,-0.0703858 0.20313,-0.257315 0.172402,-0.358886 -0.00231496,0.128909 -0.0648386,0.281807 -0.217898,0.329071 -0.0488898,-0.0336417 -0.0957047,-0.0711339 -0.140181,-0.112142 -0.117606,-0.108453 -0.181937,-0.171689 -0.191232,-0.240933 0.0900906,-0.000629921 0.36937,-0.00456299 0.36937,-0.0212874 0,-0.00348031 -0.0107283,-0.00640157 -0.0286102,-0.00884646zm0.418374 0l0.239535 0c5.90551e-005,0.00636614 9.44882e-005,0.0127402 9.44882e-005,0.019126 0,0.115224 -0.0102165,0.227327 -0.0293661,0.329445 -0.0160354,0.0855118 -0.0382992,0.164173 -0.0660236,0.231941 -0.0892205,-0.00439764 -0.176055,-0.0199213 -0.259622,-0.0454646 0.0366457,-0.0665118 0.0654094,-0.146476 0.0850079,-0.234205 0.0198622,-0.0889094 0.0304606,-0.18602 0.0304606,-0.28537 0,-0.00516535 -3.14961e-005,-0.0103228 -8.66142e-005,-0.0154724zm0.594673 0l0.247469 0c6.69291e-005,0.00491732 0.000102362,0.00985039 0.000102362,0.0147835 0,0.0855906 -0.0100787,0.169008 -0.0289685,0.245138 -0.0157008,0.0632874 -0.0374764,0.1215 -0.0645787,0.171646l-0.00858268 0.00488583c-0.075626,0.0425866 -0.155075,0.0765709 -0.237492,0.100941 0.0257323,-0.0615787 0.0465354,-0.13137 0.0617953,-0.206406 0.0197953,-0.0973425 0.0303622,-0.203681 0.0303622,-0.312476 0,-0.00617717 -3.93701e-005,-0.0123504 -0.000106299,-0.0185118zm0.298335 0l0.294461 0c0.00283858,0.0114488 0,0.0233937 -0.00763386,0.0329567 -0.0990827,0.139547 -0.21802,0.257953 -0.351421,0.348689 0.013248,-0.0338661 0.0246063,-0.0698583 0.0339291,-0.107445 0.0200551,-0.0808425 0.0307598,-0.169126 0.0307598,-0.259417 0,-0.00493307 -3.14961e-005,-0.0098622 -9.44882e-005,-0.0147835z"/>
    <path id="_327116696" class="fil9" d="M1.66124 3.10944c0.168654,-0.0703858 0.20313,-0.257315 0.172402,-0.358886 -0.00231496,0.128909 -0.0648386,0.281807 -0.217898,0.329071l0.0454961 0.029815z"/>
    <path id="_327116744" class="fil9" d="M2.04355 2.71189c0,-0.00516535 -3.14961e-005,-0.0103228 -8.66142e-005,-0.0154724l-0.0508661 0c5.90551e-005,0.00514961 9.44882e-005,0.0103071 9.44882e-005,0.0154724 0,0.0959685 -0.010185,0.189531 -0.0292717,0.274957 -0.019,0.0850591 -0.0466929,0.161827 -0.0817835,0.224587 -0.00073622,0.00131496 -0.00133858,0.00266929 -0.00180709,0.00403937l0.048252 0.0159921c0.0366457,-0.0665118 0.0654094,-0.146476 0.0850079,-0.234205 0.0198622,-0.0889094 0.0304606,-0.18602 0.0304606,-0.28537z"/>
    <path id="_327116720" class="fil9" d="M2.33396 2.71554c0,-0.00638189 -3.14961e-005,-0.0127598 -9.44882e-005,-0.019126l-0.0508622 0c5.90551e-005,0.00636614 9.44882e-005,0.0127402 9.44882e-005,0.019126 0,0.115224 -0.0102165,0.227327 -0.0293661,0.329445 -0.0160354,0.0855118 -0.0382992,0.164173 -0.0660236,0.231941l0.0537953 0.00129134c0.0258622,-0.0668583 0.0467638,-0.142795 0.0620945,-0.224551 0.0197953,-0.105579 0.0303622,-0.22065 0.0303622,-0.338126z"/>
    <path id="_327116312" class="fil9" d="M2.63824 2.71493c0,-0.00617717 -3.93701e-005,-0.0123504 -0.000106299,-0.0185118l-0.0508622 0c7.08661e-005,0.00615748 0.000106299,0.0123307 0.000106299,0.0185118 0,0.105752 -0.0102165,0.208866 -0.0293622,0.303024 -0.0176772,0.0869016 -0.0428858,0.166039 -0.0746181,0.23239l0.062685 -0.0165315c0.0257323,-0.0615787 0.0465354,-0.13137 0.0617953,-0.206406 0.0197953,-0.0973425 0.0303622,-0.203681 0.0303622,-0.312476z"/>
    <path id="_327116216" class="fil9" d="M2.93657 2.7112c0,-0.00493307 -3.14961e-005,-0.0098622 -9.44882e-005,-0.0147835l-0.0508661 0c6.69291e-005,0.00491732 0.000102362,0.00985039 0.000102362,0.0147835 0,0.0855906 -0.0100787,0.169008 -0.0289685,0.245138 -0.0157008,0.0632874 -0.0374764,0.1215 -0.0645787,0.171646l0.0797165 -0.0499213c0.013248,-0.0338661 0.0246063,-0.0698583 0.0339291,-0.107445 0.0200551,-0.0808425 0.0307598,-0.169126 0.0307598,-0.259417z"/>
    <path id="_327116024" class="fil18" d="M1.99269 2.71189c0,-0.00516535 -3.54331e-005,-0.0103228 -9.44882e-005,-0.0154724l-0.367508 0c0.0178819,0.00244488 0.0286102,0.00536614 0.0286102,0.00884646 0,0.0167244 -0.27928,0.0206575 -0.36937,0.0212874 0.00929528,0.0692441 0.073626,0.13248 0.191232,0.240933 0.0444764,0.0410079 0.0912913,0.0785 0.140181,0.112142 0.153059,-0.0472638 0.215583,-0.200161 0.217898,-0.329071 0.0307283,0.101571 -0.00374803,0.2885 -0.172402,0.358886 0.0553937,0.0345236 0.113213,0.0642283 0.17311,0.0886457 0.0150354,0.00612992 0.0302008,0.0119252 0.0454803,0.0173858 0.000468504,-0.00137008 0.00107087,-0.00272441 0.00180709,-0.00403937 0.0350906,-0.0627598 0.0627835,-0.139528 0.0817835,-0.224587 0.0190866,-0.0854252 0.0292717,-0.178988 0.0292717,-0.274957z"/>
   </g>
  </g>
  <g id="_327112688">
   <g>
    <g>
     <polygon id="_327115424" class="fil19" points="2.35931,5.97278 2.1183,5.84405 2.1068,5.79567 2.14129,5.77954 "/>
     <polygon id="_327115280" class="fil19" points="2.43563,5.97278 2.19462,5.84405 2.18313,5.79567 2.21761,5.77954 "/>
     <polygon id="_327115544" class="fil19" points="2.51196,5.97278 2.27094,5.84405 2.25945,5.79567 2.29394,5.77954 "/>
     <polygon id="_327115784" class="fil19" points="2.58828,5.97278 2.34727,5.84405 2.33577,5.79567 2.37026,5.77954 "/>
     <polygon id="_327115856" class="fil19" points="2.66461,5.97278 2.42359,5.84405 2.4121,5.79567 2.44658,5.77954 "/>
    </g>
    <g>
     <polygon id="_327115472" class="fil19" points="2.31606,4.59219 2.07506,4.72092 2.06356,4.7693 2.09804,4.78543 "/>
     <polygon id="_327115256" class="fil19" points="2.41159,4.57646 2.15138,4.72092 2.13988,4.7693 2.17437,4.78543 "/>
     <polygon id="_327115760" class="fil19" points="2.5011,4.57328 2.26009,4.702 2.24859,4.75038 2.28308,4.76651 "/>
     <polygon id="_327115592" class="fil19" points="2.56671,4.57443 2.3257,4.70316 2.3142,4.75154 2.34869,4.76767 "/>
     <polygon id="_327115616" class="fil19" points="2.62136,4.59219 2.38035,4.72092 2.36885,4.7693 2.40334,4.78543 "/>
     <polygon id="_327114800" class="fil19" points="2.69769,4.59219 2.45668,4.72092 2.44518,4.7693 2.47967,4.78543 "/>
    </g>
    <path id="_327115136" class="fil20" d="M3.0833 5.20005l0.0334843 0.053311 -0.000976378 0.0574606c-0.0266024,0.00627559 -0.0422087,0.0297717 -0.0348543,0.0524724 0.0211969,0.0654213 0.0685709,0.122008 0.132602,0.161917 0.0621339,0.0387244 0.139736,0.0617126 0.223961,0.0617126 0.0355472,0 0.0700354,-0.00407874 0.102776,-0.011685 0.032689,-0.00759843 0.0637402,-0.0187953 0.0924449,-0.0330394 0.00810236,-0.00350787 0.0151929,-0.00892913 0.0202283,-0.016063 0.0142913,-0.0202323 0.00665748,-0.0465276 -0.0170551,-0.0587205 -0.00795669,0.0110354 -0.0847441,-0.0688307 -0.0920906,-0.0798819 -0.0207283,-0.0311811 -0.0322283,-0.0670315 -0.0315827,-0.105165 0.000641732,-0.0381063 0.0133976,-0.0740197 0.0352756,-0.105331 0.0224528,-0.0321339 0.0545472,-0.0594409 0.0930945,-0.0793701 0.00794882,-0.00350787 0.0148976,-0.00887402 0.0198543,-0.0158937 0.0142953,-0.0202362 0.00666142,-0.0465276 -0.0170472,-0.0587283l-3.54331e-005 3.93701e-005c-0.0286654,-0.0147441 -0.0604291,-0.0264213 -0.0945787,-0.0344173 -0.0329528,-0.00771654 -0.0673346,-0.0118543 -0.102433,-0.0118543 -0.0844331,0 -0.162744,0.0229449 -0.225878,0.0615748 -0.0650276,0.0397953 -0.114012,0.0962913 -0.137189,0.161661z"/>
    <path id="_327114944" class="fil21" d="M2.25313 4.7089c0.0743583,0 0.147134,0.00769291 0.217846,0.0224449 0.0363386,0.0685984 0.0651417,0.153165 0.0850315,0.247224 0.0204252,0.096563 0.031374,0.203197 0.031374,0.312965 0,0.105756 -0.0102205,0.20887 -0.0293701,0.303024 -0.0176732,0.0869055 -0.0428819,0.166039 -0.0746102,0.232394 -0.0784488,0.0182126 -0.159311,0.0277874 -0.241902,0.027874 0.0258583,-0.0668583 0.0467598,-0.142795 0.0620906,-0.224551 0.0197953,-0.105579 0.0303622,-0.22065 0.0303622,-0.338126 0,-0.12189 -0.0113307,-0.240921 -0.0324646,-0.349303 -0.016752,-0.0859173 -0.0397126,-0.165122 -0.0681102,-0.233764 0.00657087,-0.000122047 0.0131575,-0.000181102 0.019752,-0.000181102zm0.524469 0.136669c0.0326457,0.0533189 0.0587362,0.117799 0.0771339,0.189118 0.0201614,0.0781457 0.0309724,0.164398 0.0309724,0.253118 0,0.0855906 -0.0100827,0.169008 -0.0289685,0.245142 -0.0157008,0.0632874 -0.0374764,0.121496 -0.0645787,0.171646l-0.00858268 0.00488189c-0.075626,0.0425866 -0.155075,0.0765748 -0.237492,0.100941 0.0257362,-0.0615787 0.0465354,-0.131366 0.0617953,-0.206406 0.0197992,-0.0973425 0.0303622,-0.203681 0.0303622,-0.312476 0,-0.112563 -0.0113622,-0.222571 -0.032563,-0.322803 -0.017315,-0.0818819 -0.0412638,-0.157205 -0.0710118,-0.222059 0.0845551,0.0231181 0.165827,0.0564567 0.242933,0.0988976zm0.447472 0.414795l0.000102362 -5.11811e-005c0.010063,0.0147244 0.00866142,0.0324567 -0.00187795,0.0456654 -0.0990827,0.139547 -0.21802,0.257953 -0.351421,0.348693 0.013248,-0.0338701 0.0246063,-0.0698622 0.0339291,-0.107449 0.0200591,-0.0808425 0.0307598,-0.169126 0.0307598,-0.259417 0,-0.0935315 -0.0115,-0.184878 -0.0329606,-0.268047 -0.0112283,-0.0435157 -0.0252165,-0.0848268 -0.041752,-0.123087 0.139469,0.0927047 0.262567,0.216469 0.36322,0.363693zm-0.971346 0.361228c-0.0160354,0.0855157 -0.0382953,0.164177 -0.0660236,0.231941 -0.0892205,-0.00439764 -0.176055,-0.0199173 -0.259622,-0.0454646 0.0366457,-0.0665118 0.0654094,-0.146476 0.0850079,-0.234201 0.0198583,-0.0889094 0.0304606,-0.186024 0.0304606,-0.285374 0,-0.102803 -0.0114016,-0.203264 -0.0326654,-0.294787 -0.0204016,-0.0878228 -0.05,-0.167421 -0.0874409,-0.233024 0.0825591,-0.0264488 0.168193,-0.0432165 0.256039,-0.0492559 0.030311,0.069122 0.0546654,0.150858 0.0721417,0.240484 0.0204882,0.105055 0.0314685,0.220992 0.0314685,0.340236 0,0.115228 -0.0102165,0.227327 -0.0293661,0.329445zm-0.290307 -0.0581417c-0.019,0.0850591 -0.0466929,0.161827 -0.0817835,0.224587 -0.00073622,0.0013189 -0.00133858,0.00266929 -0.00180709,0.00403937 -0.0152835,-0.00546063 -0.0304449,-0.011252 -0.0454803,-0.0173858 -0.0598976,-0.0244173 -0.117717,-0.0541181 -0.17311,-0.0886457 0.168657,-0.0703819 0.20313,-0.257311 0.172402,-0.358886 -0.00231496,0.128909 -0.0648386,0.281807 -0.217898,0.329071 -0.0488898,-0.0336417 -0.0957047,-0.0711299 -0.140181,-0.112142 -0.117602,-0.108453 -0.181933,-0.171685 -0.191232,-0.240929 0.0900866,-0.000633858 0.36937,-0.00456693 0.36937,-0.0212913 0,-0.0177126 -0.276752,-0.0208504 -0.368138,-0.021315 0.0123425,-0.0636969 0.0722126,-0.12661 0.181051,-0.227748 0.110697,-0.10287 0.235417,-0.18465 0.370039,-0.240319 0.0127087,-0.00525591 0.0255039,-0.0102756 0.0383819,-0.015063 0.0369724,0.0626614 0.0662441,0.140406 0.0863858,0.227083 0.0203583,0.087622 0.0312677,0.18439 0.0312677,0.283988 0,0.0959685 -0.0101811,0.189531 -0.0292677,0.274957zm-0.158476 -0.412925c0.0282598,0 0.0506457,0.0203543 0.0499921,0.0454606 -0.000649606,0.0251102 -0.0240866,0.0454606 -0.0523465,0.0454606 -0.0282598,0 -0.0506457,-0.0203504 -0.0499961,-0.0454606 0.000653543,-0.0251063 0.0240906,-0.0454606 0.0523504,-0.0454606z"/>
    <path id="_327114488" class="fil3" d="M1.66124 5.68605c0.168657,-0.0703819 0.20313,-0.257311 0.172402,-0.358886 -0.00231496,0.128909 -0.0648386,0.281807 -0.217898,0.329071l0.0454961 0.029815z"/>
    <path id="_327114608" class="fil3" d="M2.04355 5.2885c0,-0.102803 -0.0114016,-0.203264 -0.0326654,-0.294787 -0.0204016,-0.0878228 -0.05,-0.167421 -0.0874409,-0.233024l-0.0484094 0.0167402c0.0369724,0.0626614 0.0662441,0.140406 0.0863858,0.227083 0.0203583,0.087622 0.0312677,0.18439 0.0312677,0.283988 0,0.0959685 -0.0101811,0.189531 -0.0292677,0.274957 -0.019,0.0850591 -0.0466929,0.161827 -0.0817835,0.224587 -0.00073622,0.0013189 -0.00133858,0.00266929 -0.00180709,0.00403937l0.048252 0.0159921c0.0366457,-0.0665118 0.0654094,-0.146476 0.0850079,-0.234201 0.0198583,-0.0889094 0.0304606,-0.186024 0.0304606,-0.285374z"/>
    <path id="_327115184" class="fil3" d="M2.33396 5.29215c0,-0.12189 -0.0113307,-0.240921 -0.0324646,-0.349303 -0.016752,-0.0859173 -0.0397126,-0.165122 -0.0681102,-0.233764l-0.0538976 0.00234646c0.030311,0.069122 0.0546654,0.150858 0.0721417,0.240484 0.0204882,0.105055 0.0314685,0.220992 0.0314685,0.340236 0,0.115228 -0.0102165,0.227327 -0.0293661,0.329445 -0.0160354,0.0855157 -0.0382953,0.164177 -0.0660236,0.231941l0.0537992 0.00129134c0.0258583,-0.0668583 0.0467598,-0.142795 0.0620906,-0.224551 0.0197953,-0.105579 0.0303622,-0.22065 0.0303622,-0.338126z"/>
    <path id="_327114560" class="fil3" d="M2.63824 5.29154c0,-0.112563 -0.0113622,-0.222571 -0.032563,-0.322803 -0.017315,-0.0818819 -0.0412638,-0.157205 -0.0710118,-0.222059l-0.063689 -0.0153268c0.0363386,0.0685984 0.0651417,0.153165 0.0850315,0.247224 0.0204252,0.096563 0.031374,0.203197 0.031374,0.312965 0,0.105756 -0.0102205,0.20887 -0.0293701,0.303024 -0.0176732,0.0869055 -0.0428819,0.166039 -0.0746102,0.232394l0.0626811 -0.0165354c0.0257362,-0.0615787 0.0465354,-0.131366 0.0617953,-0.206406 0.0197992,-0.0973425 0.0303622,-0.203681 0.0303622,-0.312476z"/>
    <path id="_327114320" class="fil3" d="M2.93657 5.28781c0,-0.0935315 -0.0115,-0.184878 -0.0329606,-0.268047 -0.0112283,-0.0435157 -0.0252165,-0.0848268 -0.041752,-0.123087l-0.084252 -0.0511024c0.0326457,0.0533189 0.0587362,0.117799 0.0771339,0.189118 0.0201614,0.0781457 0.0309724,0.164398 0.0309724,0.253118 0,0.0855906 -0.0100827,0.169008 -0.0289685,0.245142 -0.0157008,0.0632874 -0.0374764,0.121496 -0.0645787,0.171646l0.0797165 -0.0499213c0.013248,-0.0338701 0.0246063,-0.0698622 0.0339291,-0.107449 0.0200591,-0.0808425 0.0307598,-0.169126 0.0307598,-0.259417z"/>
    <path id="_327114248" class="fil3" d="M1.87208 5.19599c0.000870079,-0.0335197 -0.0290118,-0.0606929 -0.0667402,-0.0606929 -0.0377283,0 -0.0690157,0.0271732 -0.0698858,0.0606929 -0.000866142,0.0335197 0.0290157,0.0606929 0.0667441,0.0606929 0.0377244,0 0.0690157,-0.0271732 0.0698819,-0.0606929z"/>
    <path id="_327114392" class="fil4" d="M1.83958 5.19599c0.000452756,-0.0175709 -0.0152126,-0.031815 -0.0349882,-0.031815 -0.0197756,0 -0.0361772,0.0142441 -0.0366339,0.031815 -0.000456693,0.0175709 0.0152087,0.031815 0.0349882,0.031815 0.0197756,0 0.0361772,-0.0142441 0.0366339,-0.031815z"/>
    <path id="_327114368" class="fil22" d="M1.99269 5.2885c0,-0.0995984 -0.0109094,-0.196366 -0.0312677,-0.283988 -0.0201417,-0.0866772 -0.0494134,-0.164421 -0.0863858,-0.227083 -0.012878,0.0047874 -0.0256732,0.00980709 -0.0383819,0.015063 -0.134622,0.0556693 -0.259343,0.137449 -0.370039,0.240319 -0.108839,0.101138 -0.168709,0.164051 -0.181051,0.227748 0.0913858,0.000464567 0.368138,0.00360236 0.368138,0.021315 0,0.0167244 -0.279283,0.0206575 -0.36937,0.0212913 0.00929921,0.0692441 0.0736299,0.132476 0.191232,0.240929 0.0444764,0.0410118 0.0912913,0.0785 0.140181,0.112142 0.153059,-0.0472638 0.215583,-0.200161 0.217898,-0.329071 0.0307283,0.101575 -0.00374409,0.288504 -0.172402,0.358886 0.0553937,0.0345276 0.113213,0.0642283 0.17311,0.0886457 0.0150354,0.00613386 0.0301969,0.0119252 0.0454803,0.0173858 0.000468504,-0.00137008 0.00107087,-0.00272047 0.00180709,-0.00403937 0.0350906,-0.0627598 0.0627835,-0.139528 0.0817835,-0.224587 0.0190866,-0.0854252 0.0292677,-0.178988 0.0292677,-0.274957zm-0.257236 -0.0925079c0.000870079,-0.0335197 0.0321575,-0.0606929 0.0698858,-0.0606929 0.0377283,0 0.0676102,0.0271732 0.0667402,0.0606929 -0.000866142,0.0335197 -0.0321535,0.0606929 -0.0698819,0.0606929 -0.0377283,0 -0.0676142,-0.0271732 -0.0667441,-0.0606929z"/>
   </g>
   <g>
    <g>
     <polygon id="_327113792" class="fil23" points="2.35931,5.97278 2.1183,5.84405 2.1068,5.79567 2.14129,5.77954 "/>
     <polygon id="_327113984" class="fil23" points="2.43563,5.97278 2.19462,5.84405 2.18313,5.79567 2.21761,5.77954 "/>
     <polygon id="_327113960" class="fil23" points="2.51196,5.97278 2.27094,5.84405 2.25945,5.79567 2.29393,5.77954 "/>
     <polygon id="_327114152" class="fil23" points="2.58828,5.97278 2.34727,5.84405 2.33577,5.79567 2.37026,5.77954 "/>
     <polygon id="_327113432" class="fil23" points="2.66461,5.97278 2.42359,5.84405 2.4121,5.79567 2.44658,5.77954 "/>
    </g>
    <path id="_327113240" class="fil24" d="M3.11644 5.27303l-0.000641732 0.0377913c-0.0266024,0.00627559 -0.0422047,0.0297677 -0.0348504,0.0524724 0.0211969,0.0654213 0.0685709,0.122008 0.132602,0.161917 0.0621339,0.0387244 0.139736,0.0617126 0.223961,0.0617126 0.0355472,0 0.0700354,-0.00407874 0.102776,-0.011685 0.0326929,-0.00759449 0.0637402,-0.0187992 0.0924449,-0.0330394 0.00810236,-0.00350787 0.0151929,-0.00892913 0.0202283,-0.016063 0.0142913,-0.0202323 0.00665354,-0.0465236 -0.0170551,-0.0587205 -0.00796063,0.0110354 -0.0847441,-0.0688307 -0.0920906,-0.0798819 -0.0207283,-0.0311811 -0.0322283,-0.0670354 -0.0315827,-0.105165 5.11811e-005,-0.00312992 0.000188976,-0.00624016 0.000401575,-0.00933858l-0.396193 0z"/>
    <path id="_327112976" class="fil25" d="M2.58728 5.27303c7.08661e-005,0.00615748 0.000106299,0.0123268 0.000106299,0.0185079 0,0.105756 -0.0102165,0.20887 -0.0293622,0.303024 -0.0176772,0.0869055 -0.0428858,0.166039 -0.0746181,0.232394 -0.0784449,0.0182126 -0.159307,0.0277874 -0.241902,0.027874 0.0258622,-0.0668583 0.0467638,-0.142795 0.0620945,-0.224547 0.0197953,-0.105583 0.0303622,-0.220654 0.0303622,-0.338126 0,-0.00638583 -3.14961e-005,-0.0127598 -9.44882e-005,-0.019126l0.253413 0zm-0.962169 0l0.367492 0c5.90551e-005,0.00514567 9.44882e-005,0.0103071 9.44882e-005,0.0154685 0,0.0959685 -0.010185,0.189531 -0.0292717,0.274957 -0.019,0.0850591 -0.0466929,0.161827 -0.0817835,0.224587 -0.00073622,0.0013189 -0.00133858,0.00266929 -0.00180709,0.00403937 -0.0152795,-0.00545669 -0.0304449,-0.0112559 -0.0454803,-0.0173858 -0.0598976,-0.0244173 -0.117717,-0.0541181 -0.17311,-0.0886457 0.168654,-0.0703858 0.20313,-0.257311 0.172402,-0.358886 -0.00231496,0.128909 -0.0648386,0.281811 -0.217898,0.329071 -0.0488898,-0.0336417 -0.0957047,-0.0711299 -0.140181,-0.112138 -0.117606,-0.108457 -0.181937,-0.171689 -0.191232,-0.240933 0.0900906,-0.000629921 0.36937,-0.00456693 0.36937,-0.0212913 0,-0.00348031 -0.0107205,-0.00639764 -0.0285945,-0.00884252zm0.418358 0l0.239535 0c5.90551e-005,0.00636614 9.44882e-005,0.0127402 9.44882e-005,0.019126 0,0.11522 -0.0102165,0.227323 -0.0293661,0.329441 -0.0160354,0.0855157 -0.0382992,0.164177 -0.0660236,0.231945 -0.0892205,-0.00440157 -0.176055,-0.0199213 -0.259622,-0.0454685 0.0366457,-0.0665118 0.0654094,-0.146476 0.0850079,-0.234201 0.0198622,-0.0889094 0.0304606,-0.186024 0.0304606,-0.285374 0,-0.00516142 -3.14961e-005,-0.0103189 -8.66142e-005,-0.0154685zm0.594673 0l0.247469 0c6.69291e-005,0.00491732 0.000102362,0.00984646 0.000102362,0.0147835 0,0.0855866 -0.0100787,0.169008 -0.0289685,0.245138 -0.0157008,0.0632874 -0.0374764,0.121496 -0.0645787,0.171646l-0.00858268 0.00488189c-0.075626,0.0425866 -0.155075,0.0765748 -0.237492,0.100941 0.0257323,-0.0615787 0.0465354,-0.131366 0.0617953,-0.206402 0.0197953,-0.0973465 0.0303622,-0.203685 0.0303622,-0.31248 0,-0.00617717 -3.93701e-005,-0.0123465 -0.000106299,-0.0185079zm0.298335 0l0.294461 0c0.00283858,0.0114488 0,0.0233898 -0.00763386,0.0329528 -0.0990827,0.139547 -0.21802,0.257953 -0.351421,0.348689 0.013248,-0.0338661 0.0246063,-0.0698583 0.0339291,-0.107445 0.0200551,-0.0808425 0.0307598,-0.169126 0.0307598,-0.259413 0,-0.00493701 -3.14961e-005,-0.00986614 -9.44882e-005,-0.0147835z"/>
    <path id="_327113528" class="fil9" d="M1.66124 5.68605c0.168654,-0.0703858 0.20313,-0.257311 0.172402,-0.358886 -0.00231496,0.128909 -0.0648386,0.281811 -0.217898,0.329071l0.0454961 0.029815z"/>
    <path id="_327113216" class="fil9" d="M2.04355 5.2885c0,-0.00516142 -3.14961e-005,-0.0103189 -8.66142e-005,-0.0154685l-0.0508661 0c5.90551e-005,0.00514567 9.44882e-005,0.0103071 9.44882e-005,0.0154685 0,0.0959685 -0.010185,0.189531 -0.0292717,0.274957 -0.019,0.0850591 -0.0466929,0.161827 -0.0817835,0.224587 -0.00073622,0.0013189 -0.00133858,0.00266929 -0.00180709,0.00403937l0.048252 0.0159921c0.0366457,-0.0665118 0.0654094,-0.146476 0.0850079,-0.234201 0.0198622,-0.0889094 0.0304606,-0.186024 0.0304606,-0.285374z"/>
    <path id="_327113192" class="fil9" d="M2.33396 5.29215c0,-0.00638583 -3.14961e-005,-0.0127598 -9.44882e-005,-0.019126l-0.0508622 0c5.90551e-005,0.00636614 9.44882e-005,0.0127402 9.44882e-005,0.019126 0,0.11522 -0.0102165,0.227323 -0.0293661,0.329441 -0.0160354,0.0855157 -0.0382992,0.164177 -0.0660236,0.231945l0.0537953 0.0012874c0.0258622,-0.0668583 0.0467638,-0.142795 0.0620945,-0.224547 0.0197953,-0.105583 0.0303622,-0.220654 0.0303622,-0.338126z"/>
    <path id="_327113384" class="fil9" d="M2.63824 5.29154c0,-0.00617717 -3.93701e-005,-0.0123465 -0.000106299,-0.0185079l-0.0508622 0c7.08661e-005,0.00615748 0.000106299,0.0123268 0.000106299,0.0185079 0,0.105756 -0.0102165,0.20887 -0.0293622,0.303024 -0.0176772,0.0869055 -0.0428858,0.166039 -0.0746181,0.232394l0.062685 -0.0165354c0.0257323,-0.0615787 0.0465354,-0.131366 0.0617953,-0.206402 0.0197953,-0.0973465 0.0303622,-0.203685 0.0303622,-0.31248z"/>
    <path id="_327112856" class="fil9" d="M2.93657 5.28781c0,-0.00493701 -3.14961e-005,-0.00986614 -9.44882e-005,-0.0147835l-0.0508661 0c6.69291e-005,0.00491732 0.000102362,0.00984646 0.000102362,0.0147835 0,0.0855866 -0.0100787,0.169008 -0.0289685,0.245138 -0.0157008,0.0632874 -0.0374764,0.121496 -0.0645787,0.171646l0.0797165 -0.0499252c0.013248,-0.0338661 0.0246063,-0.0698583 0.0339291,-0.107445 0.0200551,-0.0808425 0.0307598,-0.169126 0.0307598,-0.259413z"/>
    <path id="_327112376" class="fil26" d="M1.99269 5.2885c0,-0.00516142 -3.54331e-005,-0.0103228 -9.44882e-005,-0.0154685l-0.367492 0c0.017874,0.00244488 0.0285945,0.0053622 0.0285945,0.00884252 0,0.0167244 -0.27928,0.0206614 -0.36937,0.0212913 0.00929528,0.0692441 0.073626,0.132476 0.191232,0.240933 0.0444764,0.0410079 0.0912913,0.0784961 0.140181,0.112138 0.153059,-0.0472598 0.215583,-0.200161 0.217898,-0.329071 0.0307283,0.101575 -0.00374803,0.2885 -0.172402,0.358886 0.0553937,0.0345276 0.113213,0.0642283 0.17311,0.0886457 0.0150354,0.00612992 0.0302008,0.0119291 0.0454803,0.0173858 0.000468504,-0.00137008 0.00107087,-0.00272047 0.00180709,-0.00403937 0.0350906,-0.0627598 0.0627835,-0.139528 0.0817835,-0.224587 0.0190866,-0.0854252 0.0292717,-0.178988 0.0292717,-0.274957z"/>
   </g>
  </g>
  <g id="_327109184">
   <g>
    <g>
     <polygon id="_327112448" class="fil27" points="4.23397,4.83 3.99296,4.70127 3.98146,4.65289 4.01595,4.63676 "/>
     <polygon id="_327112304" class="fil27" points="4.3103,4.83 4.06929,4.70127 4.05779,4.65289 4.09228,4.63676 "/>
     <polygon id="_327112472" class="fil27" points="4.38662,4.83 4.14561,4.70127 4.13411,4.65289 4.1686,4.63676 "/>
     <polygon id="_327112640" class="fil27" points="4.46294,4.83 4.22194,4.70127 4.21044,4.65289 4.24493,4.63676 "/>
     <polygon id="_327112256" class="fil27" points="4.53927,4.83 4.29826,4.70127 4.28676,4.65289 4.32125,4.63676 "/>
    </g>
    <g>
     <polygon id="_327111440" class="fil27" points="4.19073,3.44942 3.94972,3.57814 3.93822,3.62652 3.97271,3.64265 "/>
     <polygon id="_327111968" class="fil27" points="4.28626,3.43369 4.02604,3.57814 4.01455,3.62652 4.04904,3.64265 "/>
     <polygon id="_327112112" class="fil27" points="4.37577,3.4305 4.13476,3.55923 4.12326,3.60761 4.15775,3.62374 "/>
     <polygon id="_327111776" class="fil27" points="4.44137,3.43166 4.20036,3.56038 4.18887,3.60876 4.22335,3.62489 "/>
     <polygon id="_327111728" class="fil27" points="4.49603,3.44942 4.25502,3.57814 4.24352,3.62652 4.27801,3.64265 "/>
     <polygon id="_327112040" class="fil27" points="4.57235,3.44942 4.33134,3.57814 4.31984,3.62652 4.35433,3.64265 "/>
    </g>
    <path id="_327111800" class="fil28" d="M4.95796 4.05727l0.0334843 0.053311 -0.000976378 0.0574606c-0.0266024,0.00627559 -0.0422087,0.0297717 -0.0348543,0.0524724 0.0211969,0.0654213 0.0685709,0.122008 0.132602,0.161917 0.0621339,0.0387244 0.139736,0.0617126 0.223961,0.0617126 0.0355472,0 0.0700354,-0.00407874 0.102776,-0.011685 0.032689,-0.00759843 0.0637402,-0.0187953 0.0924449,-0.0330394 0.00810236,-0.00350787 0.0151929,-0.00892913 0.0202283,-0.016063 0.0142913,-0.0202323 0.00665748,-0.0465276 -0.0170551,-0.0587205 -0.00795669,0.0110354 -0.0847441,-0.0688307 -0.0920906,-0.0798819 -0.0207283,-0.0311811 -0.0322283,-0.0670315 -0.0315827,-0.105165 0.000641732,-0.0381063 0.0133976,-0.0740197 0.0352756,-0.105331 0.0224528,-0.0321339 0.0545472,-0.0594409 0.0930945,-0.0793701 0.00794882,-0.00350787 0.0148976,-0.00887402 0.0198543,-0.0158937 0.0142953,-0.0202362 0.00666142,-0.0465276 -0.0170472,-0.0587283l-3.54331e-005 3.93701e-005c-0.0286654,-0.0147441 -0.0604291,-0.0264213 -0.0945787,-0.0344173 -0.0329528,-0.00771654 -0.0673346,-0.0118543 -0.102433,-0.0118543 -0.0844331,0 -0.162744,0.0229449 -0.225878,0.0615748 -0.0650276,0.0397953 -0.114012,0.0962913 -0.137189,0.161661z"/>
    <path id="_327111656" class="fil29" d="M4.1278 3.56613c0.0743583,0 0.147134,0.00769291 0.217846,0.0224449 0.0363386,0.0685984 0.0651417,0.153165 0.0850315,0.247224 0.0204252,0.096563 0.031374,0.203197 0.031374,0.312965 0,0.105756 -0.0102205,0.20887 -0.0293701,0.303024 -0.0176732,0.0869055 -0.0428819,0.166039 -0.0746102,0.232394 -0.0784488,0.0182126 -0.159311,0.0277874 -0.241902,0.027874 0.0258583,-0.0668583 0.0467598,-0.142795 0.0620906,-0.224551 0.0197953,-0.105579 0.0303622,-0.22065 0.0303622,-0.338126 0,-0.12189 -0.0113307,-0.240921 -0.0324646,-0.349303 -0.016752,-0.0859173 -0.0397126,-0.165122 -0.0681102,-0.233764 0.00657087,-0.000122047 0.0131575,-0.000181102 0.019752,-0.000181102zm0.524469 0.136669c0.0326457,0.0533189 0.0587362,0.117799 0.0771339,0.189118 0.0201614,0.0781457 0.0309724,0.164398 0.0309724,0.253118 0,0.0855906 -0.0100827,0.169008 -0.0289685,0.245142 -0.0157008,0.0632874 -0.0374764,0.121496 -0.0645787,0.171646l-0.00858268 0.00488189c-0.075626,0.0425866 -0.155075,0.0765748 -0.237492,0.100941 0.0257362,-0.0615787 0.0465354,-0.131366 0.0617953,-0.206406 0.0197992,-0.0973425 0.0303622,-0.203681 0.0303622,-0.312476 0,-0.112563 -0.0113622,-0.222571 -0.032563,-0.322803 -0.017315,-0.0818819 -0.0412638,-0.157205 -0.0710118,-0.222059 0.0845551,0.0231181 0.165827,0.0564567 0.242933,0.0988976zm0.447472 0.414795l0.000102362 -5.11811e-005c0.010063,0.0147244 0.00866142,0.0324567 -0.00187795,0.0456654 -0.0990827,0.139547 -0.21802,0.257953 -0.351421,0.348693 0.013248,-0.0338701 0.0246063,-0.0698622 0.0339291,-0.107449 0.0200591,-0.0808425 0.0307598,-0.169126 0.0307598,-0.259417 0,-0.0935315 -0.0115,-0.184878 -0.0329606,-0.268047 -0.0112283,-0.0435157 -0.0252165,-0.0848268 -0.041752,-0.123087 0.139469,0.0927047 0.262567,0.216469 0.36322,0.363693zm-0.971346 0.361228c-0.0160354,0.0855157 -0.0382953,0.164177 -0.0660236,0.231941 -0.0892205,-0.00439764 -0.176055,-0.0199173 -0.259622,-0.0454646 0.0366457,-0.0665118 0.0654094,-0.146476 0.0850079,-0.234201 0.0198583,-0.0889094 0.0304606,-0.186024 0.0304606,-0.285374 0,-0.102803 -0.0114016,-0.203264 -0.0326654,-0.294787 -0.0204016,-0.0878228 -0.05,-0.167421 -0.0874409,-0.233024 0.0825591,-0.0264488 0.168193,-0.0432165 0.256039,-0.0492559 0.030311,0.069122 0.0546654,0.150858 0.0721417,0.240484 0.0204882,0.105055 0.0314685,0.220992 0.0314685,0.340236 0,0.115228 -0.0102165,0.227327 -0.0293661,0.329445zm-0.290307 -0.0581417c-0.019,0.0850591 -0.0466929,0.161827 -0.0817835,0.224587 -0.00073622,0.0013189 -0.00133858,0.00266929 -0.00180709,0.00403937 -0.0152835,-0.00546063 -0.0304449,-0.011252 -0.0454803,-0.0173858 -0.0598976,-0.0244173 -0.117717,-0.0541181 -0.17311,-0.0886457 0.168657,-0.0703819 0.20313,-0.257311 0.172402,-0.358886 -0.00231496,0.128909 -0.0648386,0.281807 -0.217898,0.329071 -0.0488898,-0.0336417 -0.0957047,-0.0711299 -0.140181,-0.112142 -0.117602,-0.108453 -0.181933,-0.171685 -0.191232,-0.240929 0.0900866,-0.000633858 0.36937,-0.00456693 0.36937,-0.0212913 0,-0.0177126 -0.276752,-0.0208504 -0.368138,-0.021315 0.0123425,-0.0636969 0.0722126,-0.12661 0.181051,-0.227748 0.110697,-0.10287 0.235417,-0.18465 0.370039,-0.240319 0.0127087,-0.00525591 0.0255039,-0.0102756 0.0383819,-0.015063 0.0369724,0.0626614 0.0662441,0.140406 0.0863858,0.227083 0.0203583,0.087622 0.0312677,0.18439 0.0312677,0.283988 0,0.0959685 -0.0101811,0.189531 -0.0292677,0.274957zm-0.158476 -0.412925c0.0282598,0 0.0506457,0.0203543 0.0499921,0.0454606 -0.000649606,0.0251102 -0.0240866,0.0454606 -0.0523465,0.0454606 -0.0282598,0 -0.0506457,-0.0203504 -0.0499961,-0.0454606 0.000653543,-0.0251063 0.0240906,-0.0454606 0.0523504,-0.0454606z"/>
    <path id="_327111848" class="fil3" d="M3.53591 4.54327c0.168657,-0.0703819 0.20313,-0.257311 0.172402,-0.358886 -0.00231496,0.128909 -0.0648386,0.281807 -0.217898,0.329071l0.0454961 0.029815z"/>
    <path id="_327111080" class="fil3" d="M3.91822 4.14572c0,-0.102803 -0.0114016,-0.203264 -0.0326654,-0.294787 -0.0204016,-0.0878228 -0.05,-0.167421 -0.0874409,-0.233024l-0.0484094 0.0167402c0.0369724,0.0626614 0.0662441,0.140406 0.0863858,0.227083 0.0203583,0.087622 0.0312677,0.18439 0.0312677,0.283988 0,0.0959685 -0.0101811,0.189531 -0.0292677,0.274957 -0.019,0.0850591 -0.0466929,0.161827 -0.0817835,0.224587 -0.00073622,0.0013189 -0.00133858,0.00266929 -0.00180709,0.00403937l0.048252 0.0159921c0.0366457,-0.0665118 0.0654094,-0.146476 0.0850079,-0.234201 0.0198583,-0.0889094 0.0304606,-0.186024 0.0304606,-0.285374z"/>
    <path id="_327110816" class="fil3" d="M4.20862 4.14937c0,-0.12189 -0.0113307,-0.240921 -0.0324646,-0.349303 -0.016752,-0.0859173 -0.0397126,-0.165122 -0.0681102,-0.233764l-0.0538976 0.00234646c0.030311,0.069122 0.0546654,0.150858 0.0721417,0.240484 0.0204882,0.105055 0.0314685,0.220992 0.0314685,0.340236 0,0.115228 -0.0102165,0.227327 -0.0293661,0.329445 -0.0160354,0.0855157 -0.0382953,0.164177 -0.0660236,0.231941l0.0537992 0.00129134c0.0258583,-0.0668583 0.0467598,-0.142795 0.0620906,-0.224551 0.0197953,-0.105579 0.0303622,-0.22065 0.0303622,-0.338126z"/>
    <path id="_327110960" class="fil3" d="M4.51291 4.14876c0,-0.112563 -0.0113622,-0.222571 -0.032563,-0.322803 -0.017315,-0.0818819 -0.0412638,-0.157205 -0.0710118,-0.222059l-0.063689 -0.0153268c0.0363386,0.0685984 0.0651417,0.153165 0.0850315,0.247224 0.0204252,0.096563 0.031374,0.203197 0.031374,0.312965 0,0.105756 -0.0102205,0.20887 -0.0293701,0.303024 -0.0176732,0.0869055 -0.0428819,0.166039 -0.0746102,0.232394l0.0626811 -0.0165354c0.0257362,-0.0615787 0.0465354,-0.131366 0.0617953,-0.206406 0.0197992,-0.0973425 0.0303622,-0.203681 0.0303622,-0.312476z"/>
    <path id="_327110696" class="fil3" d="M4.81123 4.14503c0,-0.0935315 -0.0115,-0.184878 -0.0329606,-0.268047 -0.0112283,-0.0435157 -0.0252165,-0.0848268 -0.041752,-0.123087l-0.084252 -0.0511024c0.0326457,0.0533189 0.0587362,0.117799 0.0771339,0.189118 0.0201614,0.0781457 0.0309724,0.164398 0.0309724,0.253118 0,0.0855906 -0.0100827,0.169008 -0.0289685,0.245142 -0.0157008,0.0632874 -0.0374764,0.121496 -0.0645787,0.171646l0.0797165 -0.0499213c0.013248,-0.0338701 0.0246063,-0.0698622 0.0339291,-0.107449 0.0200591,-0.0808425 0.0307598,-0.169126 0.0307598,-0.259417z"/>
    <path id="_327110648" class="fil3" d="M3.74674 4.05321c0.000870079,-0.0335197 -0.0290118,-0.0606929 -0.0667402,-0.0606929 -0.0377283,0 -0.0690157,0.0271732 -0.0698858,0.0606929 -0.000866142,0.0335197 0.0290157,0.0606929 0.0667441,0.0606929 0.0377244,0 0.0690157,-0.0271732 0.0698819,-0.0606929z"/>
    <path id="_327110888" class="fil4" d="M3.71424 4.05321c0.000452756,-0.0175709 -0.0152126,-0.031815 -0.0349882,-0.031815 -0.0197756,0 -0.0361772,0.0142441 -0.0366339,0.031815 -0.000456693,0.0175709 0.0152087,0.031815 0.0349882,0.031815 0.0197756,0 0.0361772,-0.0142441 0.0366339,-0.031815z"/>
    <path id="_327111272" class="fil30" d="M3.86735 4.14572c0,-0.0995984 -0.0109094,-0.196366 -0.0312677,-0.283988 -0.0201417,-0.0866772 -0.0494134,-0.164421 -0.0863858,-0.227083 -0.012878,0.0047874 -0.0256732,0.00980709 -0.0383819,0.015063 -0.134622,0.0556693 -0.259343,0.137449 -0.370039,0.240319 -0.108839,0.101138 -0.168709,0.164051 -0.181051,0.227748 0.0913858,0.000464567 0.368138,0.00360236 0.368138,0.021315 0,0.0167244 -0.279283,0.0206575 -0.36937,0.0212913 0.00929921,0.0692441 0.0736299,0.132476 0.191232,0.240929 0.0444764,0.0410118 0.0912913,0.0785 0.140181,0.112142 0.153059,-0.0472638 0.215583,-0.200161 0.217898,-0.329071 0.0307283,0.101575 -0.00374409,0.288504 -0.172402,0.358886 0.0553937,0.0345276 0.113213,0.0642283 0.17311,0.0886457 0.0150354,0.00613386 0.0301969,0.0119252 0.0454803,0.0173858 0.000468504,-0.00137008 0.00107087,-0.00272047 0.00180709,-0.00403937 0.0350906,-0.0627598 0.0627835,-0.139528 0.0817835,-0.224587 0.0190866,-0.0854252 0.0292677,-0.178988 0.0292677,-0.274957zm-0.257236 -0.0925079c0.000870079,-0.0335197 0.0321575,-0.0606929 0.0698858,-0.0606929 0.0377283,0 0.0676102,0.0271732 0.0667402,0.0606929 -0.000866142,0.0335197 -0.0321535,0.0606929 -0.0698819,0.0606929 -0.0377283,0 -0.0676142,-0.0271732 -0.0667441,-0.0606929z"/>
   </g>
   <g>
    <g>
     <polygon id="_327110192" class="fil31" points="4.23397,4.83 3.99296,4.70127 3.98146,4.65289 4.01595,4.63676 "/>
     <polygon id="_327110072" class="fil31" points="4.3103,4.83 4.06929,4.70127 4.05779,4.65289 4.09228,4.63676 "/>
     <polygon id="_327110408" class="fil31" points="4.38662,4.83 4.14561,4.70127 4.13411,4.65289 4.1686,4.63676 "/>
     <polygon id="_327110600" class="fil31" points="4.46295,4.83 4.22194,4.70127 4.21044,4.65289 4.24493,4.63676 "/>
     <polygon id="_327110144" class="fil31" points="4.53927,4.83 4.29826,4.70127 4.28676,4.65289 4.32125,4.63676 "/>
    </g>
    <path id="_327110024" class="fil32" d="M4.99111 4.13025l-0.000641732 0.0377913c-0.0266024,0.00627559 -0.0422047,0.0297677 -0.0348504,0.0524724 0.0211969,0.0654213 0.0685709,0.122008 0.132602,0.161917 0.0621339,0.0387244 0.139736,0.0617126 0.223961,0.0617126 0.0355472,0 0.0700354,-0.00407874 0.102776,-0.011685 0.0326929,-0.00759449 0.0637402,-0.0187992 0.0924449,-0.0330394 0.00810236,-0.00350787 0.0151929,-0.00892913 0.0202283,-0.016063 0.0142913,-0.0202323 0.00665354,-0.0465236 -0.0170551,-0.0587205 -0.00796063,0.0110354 -0.0847441,-0.0688307 -0.0920906,-0.0798819 -0.0207283,-0.0311811 -0.0322283,-0.0670354 -0.0315827,-0.105165 5.11811e-005,-0.00312992 0.000188976,-0.00624016 0.000401575,-0.00933858l-0.396193 0z"/>
    <path id="_327110000" class="fil33" d="M4.46194 4.13025c7.08661e-005,0.00615748 0.000106299,0.0123268 0.000106299,0.0185079 0,0.105756 -0.0102165,0.20887 -0.0293622,0.303024 -0.0176772,0.0869055 -0.0428858,0.166039 -0.0746181,0.232394 -0.0784449,0.0182126 -0.159307,0.0277874 -0.241902,0.027874 0.0258622,-0.0668583 0.0467638,-0.142795 0.0620945,-0.224547 0.0197953,-0.105583 0.0303622,-0.220654 0.0303622,-0.338126 0,-0.00638583 -3.14961e-005,-0.0127598 -9.44882e-005,-0.019126l0.253413 0zm-0.962169 0l0.367492 0c5.90551e-005,0.00514567 9.44882e-005,0.0103071 9.44882e-005,0.0154685 0,0.0959685 -0.010185,0.189531 -0.0292717,0.274957 -0.019,0.0850591 -0.0466929,0.161827 -0.0817835,0.224587 -0.00073622,0.0013189 -0.00133858,0.00266929 -0.00180709,0.00403937 -0.0152795,-0.00545669 -0.0304449,-0.0112559 -0.0454803,-0.0173858 -0.0598976,-0.0244173 -0.117717,-0.0541181 -0.17311,-0.0886457 0.168654,-0.0703858 0.20313,-0.257311 0.172402,-0.358886 -0.00231496,0.128909 -0.0648386,0.281811 -0.217898,0.329071 -0.0488898,-0.0336417 -0.0957047,-0.0711299 -0.140181,-0.112138 -0.117606,-0.108457 -0.181937,-0.171689 -0.191232,-0.240933 0.0900906,-0.000629921 0.36937,-0.00456693 0.36937,-0.0212913 0,-0.00348031 -0.0107205,-0.00639764 -0.0285945,-0.00884252zm0.418358 0l0.239535 0c5.90551e-005,0.00636614 9.44882e-005,0.0127402 9.44882e-005,0.019126 0,0.11522 -0.0102165,0.227323 -0.0293661,0.329441 -0.0160354,0.0855157 -0.0382992,0.164177 -0.0660236,0.231945 -0.0892205,-0.00440157 -0.176055,-0.0199213 -0.259622,-0.0454685 0.0366457,-0.0665118 0.0654094,-0.146476 0.0850079,-0.234201 0.0198622,-0.0889094 0.0304606,-0.186024 0.0304606,-0.285374 0,-0.00516142 -3.14961e-005,-0.0103189 -8.66142e-005,-0.0154685zm0.594673 0l0.247469 0c6.69291e-005,0.00491732 0.000102362,0.00984646 0.000102362,0.0147835 0,0.0855866 -0.0100787,0.169008 -0.0289685,0.245138 -0.0157008,0.0632874 -0.0374764,0.121496 -0.0645787,0.171646l-0.00858268 0.00488189c-0.075626,0.0425866 -0.155075,0.0765748 -0.237492,0.100941 0.0257323,-0.0615787 0.0465354,-0.131366 0.0617953,-0.206402 0.0197953,-0.0973465 0.0303622,-0.203685 0.0303622,-0.31248 0,-0.00617717 -3.93701e-005,-0.0123465 -0.000106299,-0.0185079zm0.298335 0l0.294461 0c0.00283858,0.0114488 0,0.0233898 -0.00763386,0.0329528 -0.0990827,0.139547 -0.21802,0.257953 -0.351421,0.348689 0.013248,-0.0338661 0.0246063,-0.0698583 0.0339291,-0.107445 0.0200551,-0.0808425 0.0307598,-0.169126 0.0307598,-0.259413 0,-0.00493701 -3.14961e-005,-0.00986614 -9.44882e-005,-0.0147835z"/>
    <path id="_327110216" class="fil9" d="M3.53591 4.54327c0.168654,-0.0703858 0.20313,-0.257311 0.172402,-0.358886 -0.00231496,0.128909 -0.0648386,0.281811 -0.217898,0.329071l0.0454961 0.029815z"/>
    <path id="_327109280" class="fil9" d="M3.91822 4.14572c0,-0.00516142 -3.14961e-005,-0.0103189 -8.66142e-005,-0.0154685l-0.0508661 0c5.90551e-005,0.00514567 9.44882e-005,0.0103071 9.44882e-005,0.0154685 0,0.0959685 -0.010185,0.189531 -0.0292717,0.274957 -0.019,0.0850591 -0.0466929,0.161827 -0.0817835,0.224587 -0.00073622,0.0013189 -0.00133858,0.00266929 -0.00180709,0.00403937l0.048252 0.0159921c0.0366457,-0.0665118 0.0654094,-0.146476 0.0850079,-0.234201 0.0198622,-0.0889094 0.0304606,-0.186024 0.0304606,-0.285374z"/>
    <path id="_327109592" class="fil9" d="M4.20862 4.14938c0,-0.00638583 -3.14961e-005,-0.0127598 -9.44882e-005,-0.019126l-0.0508622 0c5.90551e-005,0.00636614 9.44882e-005,0.0127402 9.44882e-005,0.019126 0,0.11522 -0.0102165,0.227323 -0.0293661,0.329441 -0.0160354,0.0855157 -0.0382992,0.164177 -0.0660236,0.231945l0.0537953 0.0012874c0.0258622,-0.0668583 0.0467638,-0.142795 0.0620945,-0.224547 0.0197953,-0.105583 0.0303622,-0.220654 0.0303622,-0.338126z"/>
    <path id="_327109088" class="fil9" d="M4.51291 4.14876c0,-0.00617717 -3.93701e-005,-0.0123465 -0.000106299,-0.0185079l-0.0508622 0c7.08661e-005,0.00615748 0.000106299,0.0123268 0.000106299,0.0185079 0,0.105756 -0.0102165,0.20887 -0.0293622,0.303024 -0.0176772,0.0869055 -0.0428858,0.166039 -0.0746181,0.232394l0.062685 -0.0165354c0.0257323,-0.0615787 0.0465354,-0.131366 0.0617953,-0.206402 0.0197953,-0.0973465 0.0303622,-0.203685 0.0303622,-0.31248z"/>
    <path id="_327109568" class="fil9" d="M4.81123 4.14504c0,-0.00493701 -3.14961e-005,-0.00986614 -9.44882e-005,-0.0147835l-0.0508661 0c6.69291e-005,0.00491732 0.000102362,0.00984646 0.000102362,0.0147835 0,0.0855866 -0.0100787,0.169008 -0.0289685,0.245138 -0.0157008,0.0632874 -0.0374764,0.121496 -0.0645787,0.171646l0.0797165 -0.0499252c0.013248,-0.0338661 0.0246063,-0.0698583 0.0339291,-0.107445 0.0200551,-0.0808425 0.0307598,-0.169126 0.0307598,-0.259413z"/>
    <path id="_327109736" class="fil34" d="M3.86736 4.14572c0,-0.00516142 -3.54331e-005,-0.0103228 -9.44882e-005,-0.0154685l-0.367492 0c0.017874,0.00244488 0.0285945,0.0053622 0.0285945,0.00884252 0,0.0167244 -0.27928,0.0206614 -0.36937,0.0212913 0.00929528,0.0692441 0.073626,0.132476 0.191232,0.240933 0.0444764,0.0410079 0.0912913,0.0784961 0.140181,0.112138 0.153059,-0.0472598 0.215583,-0.200161 0.217898,-0.329071 0.0307283,0.101575 -0.00374803,0.2885 -0.172402,0.358886 0.0553937,0.0345276 0.113213,0.0642283 0.17311,0.0886457 0.0150354,0.00612992 0.0302008,0.0119291 0.0454803,0.0173858 0.000468504,-0.00137008 0.00107087,-0.00272047 0.00180709,-0.00403937 0.0350906,-0.0627598 0.0627835,-0.139528 0.0817835,-0.224587 0.0190866,-0.0854252 0.0292717,-0.178988 0.0292717,-0.274957z"/>
   </g>
  </g>
 </g>
 <rect class="fil35" width="6.82666" height="6.82666"/>
</svg>
