<?xml version="1.0" encoding="UTF-8"?>
<!DOCTYPE svg PUBLIC "-//W3C//DTD SVG 1.1//EN" "http://www.w3.org/Graphics/SVG/1.1/DTD/svg11.dtd">
<!-- Creator: CorelDRAW -->
<svg xmlns="http://www.w3.org/2000/svg" xml:space="preserve" width="6.82666in" height="6.82666in" style="shape-rendering:geometricPrecision; text-rendering:geometricPrecision; image-rendering:optimizeQuality; fill-rule:evenodd; clip-rule:evenodd"
viewBox="0 0 6.82666 6.82666"
 xmlns:xlink="http://www.w3.org/1999/xlink">
 <defs>
  <style type="text/css">
   <![CDATA[
    .fil12 {fill:none}
    .fil4 {fill:#212121}
    .fil8 {fill:#CD2514}
    .fil10 {fill:#D15F39}
    .fil2 {fill:#E42916}
    .fil9 {fill:#E6DBCA}
    .fil5 {fill:#E8693F}
    .fil3 {fill:#FFF3E0}
    .fil11 {fill:#263238;fill-rule:nonzero}
    .fil7 {fill:#BC1225;fill-rule:nonzero}
    .fil1 {fill:#D11429;fill-rule:nonzero}
    .fil6 {fill:#D15F39;fill-rule:nonzero}
    .fil0 {fill:#E8693F;fill-rule:nonzero}
   ]]>
  </style>
 </defs>
 <g id="Layer_x0020_1">
  <metadata id="CorelCorpID_0Corel-Layer"/>
  <g id="_327122960">
   <g>
    <g>
     <polygon id="_327126728" class="fil0" points="2.55771,4.04411 2.74752,3.68874 2.81886,3.67179 2.84264,3.72264 "/>
     <polygon id="_327126632" class="fil0" points="2.55771,4.15666 2.74752,3.80128 2.81886,3.78433 2.84264,3.83518 "/>
     <polygon id="_327126392" class="fil0" points="2.55771,4.2692 2.74752,3.91382 2.81886,3.89687 2.84264,3.94772 "/>
     <polygon id="_327126704" class="fil0" points="2.55771,4.38174 2.74752,4.02637 2.81886,4.00941 2.84264,4.06026 "/>
     <polygon id="_327126128" class="fil0" points="2.55771,4.49428 2.74752,4.13891 2.81886,4.12196 2.84264,4.17281 "/>
    </g>
    <g>
     <polygon id="_327126296" class="fil0" points="4.59342,3.98035 4.40361,3.62498 4.33228,3.60802 4.30849,3.65887 "/>
     <polygon id="_327126608" class="fil0" points="4.61662,4.1212 4.40361,3.73752 4.33228,3.72057 4.30849,3.77142 "/>
     <polygon id="_327126344" class="fil0" points="4.62131,4.2532 4.4315,3.89782 4.36016,3.88087 4.33638,3.93172 "/>
     <polygon id="_327126560" class="fil0" points="4.61961,4.34993 4.4298,3.99456 4.35846,3.9776 4.33468,4.02845 "/>
     <polygon id="_327125792" class="fil0" points="4.59342,4.43052 4.40361,4.07515 4.33228,4.05819 4.30849,4.10904 "/>
     <polygon id="_327125888" class="fil0" points="4.59342,4.54306 4.40361,4.18769 4.33228,4.17073 4.30849,4.22159 "/>
    </g>
    <path id="_327125624" class="fil1" d="M3.69712 5.11166l-0.0786063 0.0493701 -0.0847283 -0.00144094c-0.00925591,-0.0392244 -0.0438976,-0.0622323 -0.077374,-0.0513937 -0.0964685,0.0312598 -0.179902,0.101114 -0.238748,0.195531 -0.0571024,0.0916181 -0.0910039,0.206043 -0.0910039,0.330236 0,0.0524134 0.00601575,0.103264 0.0172323,0.151543 0.0112008,0.0482047 0.0277165,0.0939882 0.0487205,0.136311 0.00516929,0.0119488 0.0131654,0.0224055 0.0236811,0.0298307 0.0298386,0.0210709 0.0686063,0.00981102 0.0865906,-0.0251496 -0.0162756,-0.0117323 0.101488,-0.124957 0.117783,-0.135791 0.0459764,-0.030563 0.0988425,-0.0475157 0.155067,-0.0465709 0.0561929,0.000944882 0.10915,0.0197598 0.155315,0.0520157 0.0473858,0.0331063 0.0876496,0.0804331 0.117035,0.137272 0.00517323,0.0117205 0.0130866,0.0219685 0.023437,0.0292795 0.0298346,0.0210748 0.0686063,0.0098189 0.0865906,-0.0251417l-5.51181e-005 -4.72441e-005c0.0217402,-0.0422677 0.0389567,-0.0891102 0.050752,-0.139465 0.011378,-0.0485866 0.0174764,-0.0992874 0.0174764,-0.151035 0,-0.1245 -0.0338307,-0.239976 -0.0907953,-0.333063 -0.0586732,-0.0958858 -0.141984,-0.168118 -0.23837,-0.202291z"/>
    <path id="_327125432" class="fil2" d="M4.42133 3.88756c0,0.109642 -0.0113425,0.216953 -0.0330906,0.321224 -0.101157,0.0535787 -0.22585,0.0960512 -0.364543,0.125382 -0.142382,0.0301142 -0.299618,0.0462559 -0.461472,0.0462559 -0.155937,0 -0.307984,-0.0150669 -0.446819,-0.0433031 -0.128142,-0.0260591 -0.244827,-0.0632323 -0.342669,-0.11002 -0.0268543,-0.115673 -0.0409764,-0.234906 -0.0411024,-0.356689 0.0985827,0.0381299 0.210555,0.0689528 0.331106,0.0915551 0.155681,0.029189 0.325354,0.0447677 0.498575,0.0447677 0.179732,0 0.355248,-0.0167047 0.515059,-0.0478661 0.126689,-0.0247047 0.24348,-0.0585551 0.344689,-0.100433 0.000181102,0.00969291 0.000267717,0.0194016 0.000267717,0.029126zm-0.201524 0.773343c-0.0786181,0.0481378 -0.173693,0.0866063 -0.278854,0.113736 -0.115228,0.0297323 -0.242409,0.0456693 -0.373236,0.0456693 -0.126201,0 -0.249205,-0.0148622 -0.361465,-0.0427165 -0.0933189,-0.0231496 -0.17915,-0.0552598 -0.253094,-0.0952205l-0.00720079 -0.0126535c-0.0627953,-0.111516 -0.112909,-0.228661 -0.148843,-0.350189 0.0908031,0.0379449 0.193709,0.0686181 0.30435,0.0911181 0.143539,0.0291929 0.300335,0.0447677 0.46076,0.0447677 0.165976,0 0.328185,-0.0167559 0.47598,-0.0480157 0.12074,-0.0255315 0.231803,-0.0608425 0.327433,-0.104705 -0.0340866,0.124681 -0.0832441,0.244516 -0.145831,0.358209zm-0.611622 0.659807l7.48031e-005 0.000153543c-0.0217126,0.0148386 -0.0478622,0.0127756 -0.0673386,-0.00276772 -0.205764,-0.146098 -0.380354,-0.321472 -0.514154,-0.518177 0.049937,0.0195315 0.103012,0.0362795 0.158433,0.0500276 0.119205,0.0295748 0.249382,0.0453583 0.382516,0.0453583 0.137921,0 0.27261,-0.0169606 0.395244,-0.0486024 0.0641693,-0.0165551 0.125083,-0.037185 0.1815,-0.0615669 -0.136697,0.20565 -0.319193,0.387161 -0.536276,0.535575zm-0.532646 -1.43227c-0.126091,-0.0236457 -0.242083,-0.0564724 -0.342004,-0.0973543 0.00648425,-0.131559 0.029374,-0.259598 0.0670433,-0.382819 0.0980748,0.0540354 0.21598,0.0964449 0.345335,0.125343 0.131098,0.0292874 0.274299,0.0449173 0.420791,0.0449173 0.151587,0 0.299717,-0.0168071 0.434673,-0.0481654 0.129496,-0.0300866 0.246866,-0.0737283 0.343598,-0.128937 0.0389961,0.12174 0.0637244,0.248008 0.072626,0.377539 -0.101917,0.0446929 -0.222441,0.0806102 -0.354594,0.106374 -0.154913,0.0302126 -0.325862,0.0464016 -0.501693,0.0464016 -0.169902,0 -0.335197,-0.015063 -0.485776,-0.0432992zm0.0857323 -0.428067c-0.125421,-0.0280157 -0.238618,-0.0688465 -0.331161,-0.120594 -0.00193701,-0.00108268 -0.00392913,-0.00197244 -0.00595276,-0.00266535 0.00805118,-0.0225315 0.0165945,-0.0448898 0.0256339,-0.0670591 0.0360079,-0.0883189 0.0798031,-0.173575 0.130713,-0.255256 0.103783,0.248689 0.379413,0.299524 0.529185,0.254213 -0.190079,-0.00341732 -0.415531,-0.0956063 -0.48522,-0.321299 0.0496024,-0.0720866 0.104882,-0.141118 0.165354,-0.206697 0.159917,-0.173409 0.253154,-0.268272 0.35526,-0.28198 0.000929134,0.132839 0.00673228,0.544646 0.0313937,0.544646 0.0261181,0 0.0307402,-0.408075 0.0314291,-0.542831 0.0939213,0.0182008 0.186689,0.10648 0.335819,0.266969 0.151685,0.163224 0.272272,0.34713 0.354358,0.54563 0.00775197,0.0187441 0.0151535,0.0376102 0.0222087,0.0565984 -0.0923937,0.0545157 -0.207031,0.0976811 -0.334839,0.127374 -0.129205,0.0300197 -0.271886,0.0461102 -0.418748,0.0461102 -0.141508,0 -0.279472,-0.0150157 -0.405433,-0.0431575zm0.608874 -0.233677c0,0.0416693 -0.0300118,0.0746772 -0.0670354,0.0737165 -0.0370236,-0.00096063 -0.0670354,-0.0355197 -0.0670354,-0.077185 0,-0.0416732 0.0300118,-0.0746811 0.0670354,-0.0737205 0.0370236,0.00096063 0.0670354,0.0355157 0.0670354,0.077189z"/>
    <path id="_327125384" class="fil3" d="M2.9805 3.0148c0.103783,0.248689 0.379413,0.299524 0.529185,0.254213 -0.190079,-0.00341732 -0.415531,-0.0956063 -0.48522,-0.321299l-0.0439646 0.0670866z"/>
    <path id="_327125960" class="fil3" d="M3.5667 3.57852c0.151587,0 0.299717,-0.0168071 0.434673,-0.0481654 0.129496,-0.0300866 0.246866,-0.0737283 0.343598,-0.128937l-0.024685 -0.071378c-0.0923937,0.0545157 -0.207031,0.0976811 -0.334839,0.127374 -0.129205,0.0300197 -0.271886,0.0461102 -0.418748,0.0461102 -0.141508,0 -0.279472,-0.0150157 -0.405433,-0.0431575 -0.125421,-0.0280157 -0.238618,-0.0688465 -0.331161,-0.120594 -0.00193701,-0.00108268 -0.00392913,-0.00197244 -0.00595276,-0.00266535l-0.0235787 0.0711535c0.0980748,0.0540354 0.21598,0.0964449 0.345335,0.125343 0.131098,0.0292874 0.274299,0.0449173 0.420791,0.0449173z"/>
    <path id="_327125504" class="fil3" d="M3.56131 4.00673c0.179732,0 0.355248,-0.0167047 0.515059,-0.0478661 0.126689,-0.0247047 0.24348,-0.0585551 0.344689,-0.100433l-0.00346063 -0.0794724c-0.101917,0.0446929 -0.222441,0.0806102 -0.354594,0.106374 -0.154913,0.0302126 -0.325862,0.0464016 -0.501693,0.0464016 -0.169902,0 -0.335197,-0.015063 -0.485776,-0.0432992 -0.126091,-0.0236457 -0.242083,-0.0564724 -0.342004,-0.0973543l-0.00190157 0.0793268c0.0985827,0.0381299 0.210555,0.0689528 0.331106,0.0915551 0.155681,0.029189 0.325354,0.0447677 0.498575,0.0447677z"/>
    <path id="_327124616" class="fil3" d="M3.56222 4.45541c0.165976,0 0.328185,-0.0167559 0.47598,-0.0480157 0.12074,-0.0255315 0.231803,-0.0608425 0.327433,-0.104705l0.0226024 -0.0939094c-0.101157,0.0535787 -0.22585,0.0960512 -0.364543,0.125382 -0.142382,0.0301142 -0.299618,0.0462559 -0.461472,0.0462559 -0.155937,0 -0.307984,-0.0150669 -0.446819,-0.0433031 -0.128142,-0.0260591 -0.244827,-0.0632323 -0.342669,-0.11002l0.024378 0.0924291c0.0908031,0.0379449 0.193709,0.0686181 0.30435,0.0911181 0.143539,0.0291929 0.300335,0.0447677 0.46076,0.0447677z"/>
    <path id="_327124784" class="fil3" d="M3.56771 4.8953c0.137921,0 0.27261,-0.0169606 0.395244,-0.0486024 0.0641693,-0.0165551 0.125083,-0.037185 0.1815,-0.0615669l0.0753465 -0.124232c-0.0786181,0.0481378 -0.173693,0.0866063 -0.278854,0.113736 -0.115228,0.0297323 -0.242409,0.0456693 -0.373236,0.0456693 -0.126201,0 -0.249205,-0.0148622 -0.361465,-0.0427165 -0.0933189,-0.0231496 -0.17915,-0.0552598 -0.253094,-0.0952205l0.0736102 0.117547c0.049937,0.0195315 0.103012,0.0362795 0.158433,0.0500276 0.119205,0.0295748 0.249382,0.0453583 0.382516,0.0453583z"/>
    <path id="_327124928" class="fil3" d="M3.70311 3.32569c0.0494252,0.00128346 0.0894921,-0.0427835 0.0894921,-0.0984134 0,-0.0556299 -0.0400669,-0.101764 -0.0894921,-0.103043 -0.0494252,-0.00128346 -0.0894921,0.0427835 -0.0894921,0.0984134 0,0.055626 0.0400669,0.10176 0.0894921,0.103043z"/>
    <path id="_327124568" class="fil4" d="M3.70311 3.27776c0.0259094,0.000673228 0.0469094,-0.0224291 0.0469094,-0.0515906 0,-0.0291614 -0.021,-0.0533425 -0.0469094,-0.0540157 -0.0259094,-0.000673228 -0.0469134,0.0224252 -0.0469134,0.0515906 0,0.0291575 0.0210039,0.0533425 0.0469134,0.0540157z"/>
    <path id="_327124736" class="fil5" d="M3.5667 3.50353c0.146862,0 0.289543,-0.0160906 0.418748,-0.0461102 0.127807,-0.0296929 0.242445,-0.0728583 0.334839,-0.127374 -0.00705512,-0.0189882 -0.0144567,-0.0378543 -0.0222087,-0.0565984 -0.0820866,-0.1985 -0.202673,-0.382406 -0.354358,-0.54563 -0.14913,-0.160488 -0.241898,-0.248768 -0.335819,-0.266969 -0.000688976,0.134756 -0.00531102,0.542831 -0.0314291,0.542831 -0.0246614,0 -0.0304646,-0.411807 -0.0313937,-0.544646 -0.102106,0.0137087 -0.195343,0.108571 -0.35526,0.28198 -0.0604724,0.0655787 -0.115752,0.13461 -0.165354,0.206697 0.069689,0.225693 0.295142,0.317882 0.48522,0.321299 -0.149772,0.045311 -0.425402,-0.00552362 -0.529185,-0.254213 -0.0509094,0.0816811 -0.0947047,0.166937 -0.130713,0.255256 -0.00903937,0.0221693 -0.0175827,0.0445276 -0.0256339,0.0670591 0.00202362,0.000692913 0.00401575,0.00158268 0.00595276,0.00266535 0.0925433,0.051748 0.20574,0.0925787 0.331161,0.120594 0.125961,0.0281417 0.263925,0.0431575 0.405433,0.0431575zm0.136406 -0.379303c0.0494252,0.00128346 0.0894921,0.0474173 0.0894921,0.103047 0,0.0556299 -0.0400669,0.0996969 -0.0894921,0.0984134 -0.0494252,-0.00127953 -0.0894921,-0.0474134 -0.0894921,-0.103043 0,-0.0556339 0.0400669,-0.0996969 0.0894921,-0.0984173z"/>
   </g>
   <g>
    <g>
     <polygon id="_327124448" class="fil6" points="2.55772,4.04411 2.74752,3.68874 2.81886,3.67178 2.84264,3.72264 "/>
     <polygon id="_327124520" class="fil6" points="2.55772,4.15666 2.74752,3.80128 2.81886,3.78433 2.84264,3.83518 "/>
     <polygon id="_327125168" class="fil6" points="2.55772,4.2692 2.74752,3.91382 2.81886,3.89687 2.84264,3.94772 "/>
     <polygon id="_327124544" class="fil6" points="2.55772,4.38175 2.74752,4.02637 2.81886,4.00941 2.84264,4.06026 "/>
     <polygon id="_327124304" class="fil6" points="2.55772,4.49429 2.74752,4.13891 2.81886,4.12196 2.84264,4.1728 "/>
    </g>
    <path id="_327124208" class="fil7" d="M3.58951 5.16054l-0.0557244 -0.000944882c-0.00925591,-0.0392283 -0.0438976,-0.0622323 -0.077378,-0.0513898 -0.0964646,0.0312559 -0.179898,0.10111 -0.238744,0.195528 -0.0571063,0.0916181 -0.0909961,0.206043 -0.0910039,0.330236 0,0.0524134 0.00601575,0.103268 0.0172323,0.151543 0.0112047,0.0482087 0.0277205,0.0939882 0.0487165,0.136315 0.00517323,0.0119449 0.0131732,0.0224016 0.023685,0.0298268 0.0298386,0.0210709 0.0686063,0.00981102 0.0865906,-0.0251496 -0.0162717,-0.0117402 0.101488,-0.124957 0.117783,-0.135795 0.0459764,-0.0305591 0.0988465,-0.0475157 0.155067,-0.046563 0.00461811,7.48031e-005 0.00920866,0.000275591 0.0137756,0.000590551l0 -0.584197z"/>
    <path id="_327123800" class="fil8" d="M3.58951 4.38027c-0.00907874,9.84252e-005 -0.0181811,0.000149606 -0.0272953,0.000149606 -0.155933,0 -0.307976,-0.015063 -0.446815,-0.0432953 -0.128142,-0.0260669 -0.244831,-0.0632362 -0.342665,-0.110028 -0.0268543,-0.115661 -0.0409803,-0.234902 -0.0411063,-0.356689 0.0985827,0.0381339 0.210555,0.0689528 0.331106,0.0915591 0.155677,0.029189 0.325354,0.0447717 0.498575,0.0447717 0.00940945,0 0.018815,-4.72441e-005 0.0282008,-0.000141732l0 0.373673zm0 -1.41879l0 0.541925c-0.00759055,8.66142e-005 -0.015189,0.000125984 -0.0228071,0.000125984 -0.141516,0 -0.279476,-0.0150157 -0.405437,-0.0431654 -0.125421,-0.0280118 -0.238618,-0.0688465 -0.331157,-0.120587 -0.00194094,-0.00108661 -0.00393701,-0.00197638 -0.00595669,-0.00266535 0.00805118,-0.0225315 0.0166024,-0.0448937 0.0256339,-0.067063 0.0360039,-0.0883189 0.0798071,-0.173575 0.130713,-0.255256 0.103783,0.248685 0.379417,0.29952 0.529185,0.254213 -0.190079,-0.00341339 -0.415531,-0.0956063 -0.485224,-0.321295 0.0496063,-0.0720906 0.10489,-0.141122 0.165358,-0.206705 0.159917,-0.173413 0.253157,-0.268268 0.35526,-0.281976 0.000929134,0.132843 0.00672835,0.544646 0.0313898,0.544646 0.0051378,0 0.00944094,-0.0158228 0.0130433,-0.0421969zm0 0.616917l0 0.353201c-0.00938583,9.05512e-005 -0.0187835,0.000137795 -0.0282008,0.000137795 -0.169902,0 -0.335201,-0.015063 -0.485776,-0.0432992 -0.126091,-0.0236457 -0.242079,-0.0564724 -0.342004,-0.0973543 0.00648425,-0.131559 0.029374,-0.259598 0.0670394,-0.382819 0.0980748,0.0540354 0.215984,0.0964449 0.345343,0.125346 0.131098,0.0292874 0.274291,0.0449134 0.420783,0.0449134 0.00761811,0 0.0152244,-3.93701e-005 0.022815,-0.000125984zm0 0.876862l0 0.364898c-0.00725591,9.84252e-005 -0.0145157,0.000149606 -0.0217953,0.000149606 -0.126213,0 -0.249209,-0.0148583 -0.361465,-0.0427126 -0.0933189,-0.0231535 -0.179154,-0.0552598 -0.253094,-0.0952283l-0.00720472 -0.0126496c-0.0628031,-0.111516 -0.112906,-0.228665 -0.148843,-0.350189 0.0907992,0.0379409 0.193709,0.0686181 0.30435,0.0911181 0.143535,0.029189 0.300335,0.0447677 0.460756,0.0447677 0.00911024,0 0.0182126,-5.51181e-005 0.0272953,-0.000153543zm0 0.439894l0 0.434205c-0.0168819,0.00417717 -0.0344882,-7.87402e-006 -0.0485945,-0.0112638 -0.205768,-0.146098 -0.380358,-0.321476 -0.51415,-0.518181 0.049937,0.0195354 0.103008,0.0362835 0.158429,0.0500315 0.119205,0.0295709 0.249382,0.0453543 0.38252,0.0453543 0.00727165,0 0.0145394,-5.11811e-005 0.0217953,-0.000145669z"/>
    <path id="_327123776" class="fil9" d="M2.9805 3.0148c0.103783,0.248685 0.379417,0.29952 0.529185,0.254213 -0.190079,-0.00341339 -0.415531,-0.0956063 -0.485224,-0.321295l-0.0439606 0.0670827z"/>
    <path id="_327123752" class="fil9" d="M3.5667 3.57852c0.00761811,0 0.0152244,-3.93701e-005 0.022815,-0.000125984l0 -0.0749921c-0.00759055,8.66142e-005 -0.015189,0.000125984 -0.0228071,0.000125984 -0.141516,0 -0.279476,-0.0150157 -0.405437,-0.0431654 -0.125421,-0.0280118 -0.238618,-0.0688465 -0.331157,-0.120587 -0.00194094,-0.00108661 -0.00393701,-0.00197638 -0.00595669,-0.00266535l-0.0235827 0.0711496c0.0980748,0.0540354 0.215984,0.0964449 0.345343,0.125346 0.131098,0.0292874 0.274291,0.0449134 0.420783,0.0449134z"/>
    <path id="_327124400" class="fil9" d="M3.56131 4.00674c0.00940945,0 0.018815,-4.72441e-005 0.0282008,-0.000141732l0 -0.0749961c-0.00938583,9.05512e-005 -0.0187835,0.000137795 -0.0282008,0.000137795 -0.169902,0 -0.335201,-0.015063 -0.485776,-0.0432992 -0.126091,-0.0236457 -0.242079,-0.0564724 -0.342004,-0.0973543l-0.00190157 0.0793228c0.0985827,0.0381339 0.210555,0.0689528 0.331106,0.0915591 0.155677,0.029189 0.325354,0.0447717 0.498575,0.0447717z"/>
    <path id="_327123992" class="fil9" d="M3.56222 4.45541c0.00911024,0 0.0182126,-5.51181e-005 0.0272953,-0.000153543l0 -0.0749921c-0.00907874,9.84252e-005 -0.0181811,0.000149606 -0.0272953,0.000149606 -0.155933,0 -0.307976,-0.015063 -0.446815,-0.0432953 -0.128142,-0.0260669 -0.244831,-0.0632362 -0.342665,-0.110028l0.024374 0.0924331c0.0907992,0.0379409 0.193709,0.0686181 0.30435,0.0911181 0.143535,0.029189 0.300335,0.0447677 0.460756,0.0447677z"/>
    <path id="_327122936" class="fil9" d="M3.56772 4.8953c0.00727165,0 0.0145394,-5.11811e-005 0.0217953,-0.000145669l0 -0.0749961c-0.00725591,9.84252e-005 -0.0145157,0.000149606 -0.0217953,0.000149606 -0.126213,0 -0.249209,-0.0148583 -0.361465,-0.0427126 -0.0933189,-0.0231535 -0.179154,-0.0552598 -0.253094,-0.0952283l0.0736102 0.117547c0.049937,0.0195354 0.103008,0.0362835 0.158429,0.0500315 0.119205,0.0295709 0.249382,0.0453543 0.38252,0.0453543z"/>
    <path id="_327123344" class="fil10" d="M3.5667 3.50353c0.00761811,0 0.0152165,-3.93701e-005 0.0228071,-0.000125984l0 -0.541925c-0.00360236,0.026374 -0.00790551,0.0421969 -0.0130433,0.0421969 -0.0246614,0 -0.0304606,-0.411803 -0.0313898,-0.544646 -0.102102,0.0137087 -0.195343,0.108563 -0.35526,0.281976 -0.0604685,0.0655827 -0.115752,0.134614 -0.165358,0.206705 0.0696929,0.225689 0.295146,0.317882 0.485224,0.321295 -0.149768,0.0453071 -0.425402,-0.00552756 -0.529185,-0.254213 -0.0509055,0.0816811 -0.0947087,0.166937 -0.130713,0.255256 -0.0090315,0.0221693 -0.0175827,0.0445315 -0.0256339,0.067063 0.00201969,0.000688976 0.00401575,0.00157874 0.00595669,0.00266535 0.0925394,0.0517402 0.205736,0.0925748 0.331157,0.120587 0.125961,0.0281496 0.263921,0.0431654 0.405437,0.0431654z"/>
   </g>
  </g>
  <path class="fil11" d="M3.8819 1.46061c0,-0.0294528 -0.0238819,-0.0533346 -0.0533346,-0.0533346 -0.0294528,0 -0.0533346,0.0238819 -0.0533346,0.0533346l0 0.448134c0,0.111642 -0.044185,0.182291 -0.101642,0.212941 -0.0220472,0.0117598 -0.0461102,0.0177756 -0.0702244,0.0180276 -0.0244094,0.000251969 -0.0489409,-0.0052874 -0.071622,-0.016626 -0.053248,-0.0266181 -0.112051,-0.100563 -0.123783,-0.192512 -0.00155118,-0.0121693 0.119705,0.044126 0.155346,0.0645472 -0.0667244,-0.0646378 -0.198673,-0.210677 -0.21639,-0.301102l-0.0331299 0.216181c0.00451181,0.158783 0.0780906,0.261709 0.170461,0.307886 0.0380236,0.0190118 0.0791063,0.0282992 0.119953,0.027878 0.0411496,-0.000429134 0.0820551,-0.0106142 0.11939,-0.0305315 0.0894882,-0.0477402 0.158311,-0.15037 0.158311,-0.306689l0 -0.448134z"/>
  <path class="fil11" d="M3.85613 0.872724c0,-0.0220906 -0.0179094,-0.04 -0.04,-0.04 -0.0220906,0 -0.04,0.0179094 -0.04,0.04l0 0.341469c0,0.0220906 0.0179094,0.04 0.04,0.04 0.0220906,0 0.04,-0.0179094 0.04,-0.04l0 -0.341469z"/>
  <path class="fil11" d="M3.81613 1.20269c0.0423701,0 0.0807953,0.0172402 0.108661,0.0450984l-0.0375 0.0377087 0.0377087 -0.0377165 0.000629921 0.000645669c0.0274843,0.0278071 0.0444685,0.0660394 0.0444685,0.108224 0,0.0423701 -0.0172402,0.0807953 -0.0450984,0.108661l-0.0377087 -0.0375 0.0377165 0.0377087c-0.0011811,0.0011811 -0.00240551,0.00229528 -0.00366535,0.00333858 -0.0275472,0.0258898 -0.064563,0.0417598 -0.105213,0.0417598 -0.0425079,0 -0.0810039,-0.0172402 -0.108862,-0.0450984l-3.93701e-006 3.93701e-006c-0.0011811,-0.0011811 -0.00229134,-0.00240945 -0.00333858,-0.00366535 -0.0258858,-0.0275433 -0.0417559,-0.064563 -0.0417559,-0.105209 0,-0.0425079 0.0172402,-0.0810039 0.0450984,-0.108862 0.0278583,-0.0278583 0.0663543,-0.0450984 0.108862,-0.0450984zm0.0335551 0.120413c-0.00854724,-0.00848819 -0.0204016,-0.0137441 -0.0335551,-0.0137441 -0.013063,0 -0.0248937,0.00529528 -0.0334449,0.0138465 -0.00855118,0.00855118 -0.0138465,0.0203819 -0.0138465,0.0334449 0,0.0121772 0.0045,0.0232441 0.0119055,0.0316024 0.000661417,0.000598425 0.00130709,0.00120866 0.00194488,0.00184646l-3.93701e-006 3.93701e-006c0.00855118,0.00855118 0.0203819,0.0138465 0.0334449,0.0138465 0.0121772,0 0.0232402,-0.0045 0.0315984,-0.0119055 0.000594488,-0.00065748 0.0012126,-0.00130709 0.00184646,-0.00194094l0.000106299 0.000106299 3.93701e-006 -3.93701e-006c0.00848819,-0.00854724 0.0137441,-0.0204016 0.0137441,-0.0335551 0,-0.0129449 -0.00520079,-0.0246772 -0.0136142,-0.0332087l-0.000232283 -0.000228346 3.93701e-006 -3.93701e-006 -3.93701e-006 -3.93701e-006 0.000102362 -0.000102362z"/>
 </g>
 <rect class="fil12" width="6.82666" height="6.82666"/>
</svg>
