<?xml version="1.0" encoding="UTF-8"?>
<!DOCTYPE svg PUBLIC "-//W3C//DTD SVG 1.1//EN" "http://www.w3.org/Graphics/SVG/1.1/DTD/svg11.dtd">
<!-- Creator: CorelDRAW -->
<svg xmlns="http://www.w3.org/2000/svg" xml:space="preserve" width="6.82666in" height="6.82666in" style="shape-rendering:geometricPrecision; text-rendering:geometricPrecision; image-rendering:optimizeQuality; fill-rule:evenodd; clip-rule:evenodd"
viewBox="0 0 6.82666 6.82666"
 xmlns:xlink="http://www.w3.org/1999/xlink">
 <defs>
  <style type="text/css">
   <![CDATA[
    .fil3 {fill:none}
    .fil2 {fill:black}
    .fil1 {fill:#6D4C41}
    .fil0 {fill:#8D6E63}
   ]]>
  </style>
 </defs>
 <g id="Layer_x0020_1">
  <metadata id="CorelCorpID_0Corel-Layer"/>
  <g id="_327126800">
   <path id="_327127760" class="fil0" d="M5.97333 1.97865c0,0 -1.41749,-0.171854 -2.42027,0.437181l-0.402 0.27989c0,0 -0.377811,0.32726 -1.15876,1.15149 0,0 -1.14624,-0.183602 -1.13893,-0.0231024 0,0 0.674524,0.155496 0.754602,0.383445l0.339449 0.662827c0,0 0.278531,-0.510268 0.0927835,-0.874055l0.958264 -0.356807 0.0637402 0.154079 0.170827 -0.191728 0.571689 -0.254575 -0.435146 0.58048c0,0 0.675878,-0.240583 0.938425,-0.837449 0,0 0.724346,-0.130965 1.24679,-0.584339l-0.454394 0.060311 0.872933 -0.587646z"/>
   <path id="_327127160" class="fil1" d="M3.57856 2.44386c0,0 -0.466665,-0.367626 -0.708913,-0.256362l0.306913 0.536248 0.402 -0.279886z"/>
   <circle id="_327127328" class="fil2" transform="matrix(-2.41605 1.23361 1.23361 2.41605 4.95289 2.35051)" r="0.0208346"/>
   <path id="_327127112" class="fil1" d="M1.57379 4.14911c0.0153976,0.0188858 0.0271339,0.038374 0.034185,0.0584409l0.339441 0.662831c0,0 0.278531,-0.510264 0.0927874,-0.874055l0.958264 -0.356807 0.0637441 0.154075 0.170823 -0.191732 0.571689 -0.254571 -0.435142 0.58048c0,0 0.675866,-0.240587 0.938425,-0.837449 0,0 0.724343,-0.130961 1.24678,-0.584343l-0.45439 0.0603189c0,0 -1.21493,0.023748 -3.52661,1.58281z"/>
  </g>
 </g>
 <rect class="fil3" width="6.82666" height="6.82666"/>
</svg>
