<?xml version="1.0" encoding="UTF-8"?>
<!DOCTYPE svg PUBLIC "-//W3C//DTD SVG 1.1//EN" "http://www.w3.org/Graphics/SVG/1.1/DTD/svg11.dtd">
<!-- Creator: CorelDRAW -->
<svg xmlns="http://www.w3.org/2000/svg" xml:space="preserve" width="6.82666in" height="6.82666in" style="shape-rendering:geometricPrecision; text-rendering:geometricPrecision; image-rendering:optimizeQuality; fill-rule:evenodd; clip-rule:evenodd"
viewBox="0 0 6.82666 6.82666"
 xmlns:xlink="http://www.w3.org/1999/xlink">
 <defs>
  <style type="text/css">
   <![CDATA[
    .fil4 {fill:none}
    .fil3 {fill:#00897B;fill-rule:nonzero}
    .fil1 {fill:#5D4037;fill-rule:nonzero}
    .fil2 {fill:#6D4C41;fill-rule:nonzero}
    .fil0 {fill:#8D6E63;fill-rule:nonzero}
   ]]>
  </style>
 </defs>
 <g id="Layer_x0020_1">
  <metadata id="CorelCorpID_0Corel-Layer"/>
  <path class="fil0" d="M3.05593 5.18448c0.223083,0 0.427228,0.0561299 0.576945,0.14687 0.165496,0.100307 0.267862,0.243969 0.267862,0.407189 0,0.263016 -0.185669,0.303705 -0.473835,0.303705 -0.0312087,0 -0.0906378,-0.00138189 -0.153465,-0.00283858 -0.0514488,-0.00118898 -0.105988,-0.00246063 -0.188693,-0.00246063 -0.0822677,0 -0.13698,0.00122047 -0.189555,0.00238976 -0.0666142,0.00148425 -0.130646,0.00290945 -0.16574,0.00290945 -0.302575,0 -0.518327,-0.040689 -0.518327,-0.303705 0,-0.16322 0.102366,-0.306878 0.267862,-0.407189 0.149717,-0.0907402 0.35387,-0.14687 0.576945,-0.14687z"/>
  <path class="fil1" d="M2.41068 4.96672c0.134287,0 0.260272,0.0254606 0.365657,0.0690039 0.11528,0.0476299 0.207323,0.117953 0.26187,0.202193l-0.0891654 0.0579173 0.0895354 -0.0579764c0.0320157,0.0494488 0.0178898,0.115496 -0.0315591,0.147512 -0.0158228,0.0102441 -0.0333425,0.0157559 -0.0509055,0.0169055 -0.118354,0.0106299 -0.22528,0.0394173 -0.31252,0.0813268 -0.0834961,0.0401142 -0.148063,0.0913661 -0.185437,0.148811l-0.0891654 -0.0579173 0.0894094 0.0581693c-0.0219488,0.0337323 -0.0597441,0.0509449 -0.0972323,0.0482244 -0.0242047,0.000393701 -0.0503583,0.000980315 -0.0759094,0.00154724 -0.0542402,0.00120866 -0.106386,0.00237008 -0.130264,0.00237008l0 -0.000417323c-0.250488,-3.93701e-006 -0.429122,-0.0349134 -0.429122,-0.260583 0,-0.136445 0.0844567,-0.255858 0.221,-0.338618 0.12076,-0.0731929 0.284909,-0.118469 0.463807,-0.118469z"/>
  <path class="fil2" d="M4.40023 4.8556c0.323929,0 0.619374,0.0809055 0.835177,0.211701 0.231587,0.140362 0.374827,0.339358 0.374827,0.563701 0,0.347437 -0.25685,0.401193 -0.655492,0.401193 -0.0546102,0 -0.139016,-0.00196063 -0.228366,-0.00403543 -0.0812283,-0.00188189 -0.167433,-0.00388583 -0.283075,-0.00388583 -0.114622,0 -0.201146,0.00192126 -0.284213,0.00376772 -0.192437,0.00427559 -0.368713,0.00818898 -0.514402,-0.00777953l0.011252 -0.105835 -0.011622 0.106031c-0.0585591,-0.00641732 -0.100827,-0.0590945 -0.0944094,-0.117654 0.00517323,-0.0471929 0.0403937,-0.0837992 0.0845197,-0.092874 0.0198268,-0.00611024 0.0341299,-0.013437 0.0417559,-0.0225827 0.00729528,-0.00875197 0.0112087,-0.0244213 0.0112087,-0.0488071 0,-0.0545709 -0.0267756,-0.107618 -0.0733465,-0.154693l0.0754173 -0.075 -0.0758307 0.0750157 -0.000330709 -0.00034252c-0.057126,-0.0576181 -0.140972,-0.105634 -0.242209,-0.138457l0.0325 -0.101252 -0.0328976 0.101469c-0.0560394,-0.0181654 -0.0867362,-0.0783268 -0.0685709,-0.134366 0.00468898,-0.0144646 0.0121811,-0.0272323 0.0216732,-0.0379173 0.102118,-0.127606 0.258823,-0.234138 0.450189,-0.307394 0.182004,-0.0696772 0.396811,-0.110004 0.626244,-0.110004z"/>
  <path class="fil3" d="M3.90013 5.03096c0.0503937,0.0301417 0.365898,-0.0488268 0.396039,-0.0992205 0.000854331,-0.0014252 -0.147433,-0.873331 -0.231969,-1.0538 -0.0820118,-0.175087 -0.178677,-0.34589 -0.301878,-0.48911 -0.128287,-0.149138 -0.28435,-0.268268 -0.480642,-0.332311 -0.0610118,-0.0199055 -0.00491732,-0.00149213 -0.0527638,-0.0170039 -0.519862,-0.168472 -0.497886,-0.294661 -0.453902,-0.738843 0.0126457,-0.127717 0.0262205,-0.264728 0.0205433,-0.408839 -0.00132677,-0.0337205 -0.00214567,-0.0586063 -0.0028937,-0.0816181 -0.00552756,-0.169094 -0.00840551,-0.256996 -0.0680906,-0.347756 -0.0603976,-0.0918504 -0.161244,-0.152732 -0.37124,-0.2795l-0.0297087 -0.0179409 -0.026122 -0.0157795c-0.022122,-0.0133661 -0.0721299,-0.0624685 -0.121402,-0.116374 -0.0686496,-0.0751063 -0.222713,-0.30161 -0.349717,-0.236992 -0.0875236,0.0445315 0.153976,0.337579 0.193047,0.380323 0.0618465,0.0676614 0.129949,0.132516 0.168071,0.155547l0.026122 0.0157795 0.0297087 0.0179409c0.18287,0.110394 0.270693,0.163413 0.303736,0.213665 0.0266417,0.0405157 0.0288504,0.107976 0.0330906,0.237756 0.000901575,0.0276339 0.00188189,0.0575394 0.0028937,0.0832795 0.00509055,0.129276 -0.00774409,0.25887 -0.0197087,0.379673 -0.123594,1.248 0.766157,0.633799 1.20426,1.6161 0.262075,0.587594 0.14635,1.24 0.132524,1.13502z"/>
  <path class="fil3" d="M2.60131 1.39911c-0.0453307,0.0372756 -0.0518583,0.104252 -0.0145827,0.149583 0.0372756,0.0453307 0.104252,0.0518583 0.149583,0.0145827l0.0580669 -0.0478701c0.0756772,-0.0623858 0.210024,-0.242543 0.412768,-0.460465 -0.226154,0.0401063 -0.450618,0.216201 -0.547768,0.296299l-0.0580669 0.0478701z"/>
  <path class="fil3" d="M2.55698 2.63953c0.0536142,0.0243898 0.116858,0.00069685 0.141248,-0.0529173 0.0243898,-0.0536142 0.00069685,-0.116858 -0.0529173,-0.141248 -0.215102,-0.0978701 -0.257803,-0.150898 -0.29772,-0.20048 -0.0388268,-0.0482205 -0.0758346,-0.0941811 -0.179669,-0.15322 -0.0997008,-0.056689 -0.237197,-0.0456378 -0.389031,-0.0334409 -0.208528,0.016752 -0.50987,0.0570236 -0.717898,-0.00317323 0.32,0.213335 0.597606,0.226681 0.734567,0.215677 0.118134,-0.00949213 0.22511,-0.0180866 0.267362,0.00593701 0.0683622,0.0388701 0.0929961,0.0694606 0.118835,0.101551 0.0556181,0.0690827 0.11511,0.142965 0.375224,0.261315z"/>
  <path class="fil3" d="M2.01215 2.28494c0.0315236,-0.0497047 0.0167874,-0.115559 -0.0329173,-0.147083 -0.0497047,-0.0315236 -0.115559,-0.0167874 -0.147083,0.0329173 -0.0857992,0.225949 -0.251047,0.399819 -0.446122,0.577323 0.178421,-0.0309331 0.323744,-0.119476 0.397228,-0.194591 0.102157,-0.104417 0.193291,-0.212583 0.228894,-0.268567z"/>
  <path class="fil3" d="M3.30923 3.18911c0.000688976,0.0586811 0.0488228,0.105689 0.107504,0.105 0.0586811,-0.000688976 0.204949,0.0996181 0.20426,0.040937 0.0897283,-0.971815 0.552661,-0.22765 0.858984,-1.16385 0.00624016,-0.0133661 0.0167953,-0.0389921 0.0308386,-0.0731063 0.035811,-0.0869685 0.0953071,-0.231465 0.134091,-0.302874 0.00302362,-0.00557087 0.00461417,-0.00335433 0.0163465,-0.017063 0.0680433,-0.0795315 0.329075,-0.537807 0.310433,-0.883283 -0.0706929,0.306839 -0.28313,0.524075 -0.472102,0.744953 -0.0201654,0.023563 -0.0333189,0.0389488 -0.0413465,0.0537244 -0.0446614,0.0822323 -0.106732,0.232976 -0.144091,0.323709 -0.0135551,0.0329291 -0.0237362,0.0576457 -0.0266732,0.0639409 -0.161547,0.345945 -0.199657,0.355697 -0.407996,0.409008 -0.0464961,0.0118937 -0.100374,0.025685 -0.174189,0.047378 -0.101461,0.029815 -0.186244,0.122504 -0.250858,0.231083 -0.00148425,0.00216535 -0.00290551,0.00439764 -0.00424803,0.00670079l3.93701e-005 2.3622e-005c-0.0874606,0.149929 -0.141913,0.341783 -0.140992,0.413717z"/>
  <path class="fil3" d="M4.34215 2.22203c0.055689,0.0184094 0.11576,-0.011811 0.134169,-0.0675 0.0184094,-0.055689 -0.011811,-0.11576 -0.0675,-0.134169 -0.11828,-0.0394252 -0.222839,-0.159417 -0.303654,-0.309071 -0.0890433,-0.164894 -0.190598,-0.831461 -0.270835,-0.829575 -0.250634,0.00588583 0.0188583,0.811012 0.0833307,0.930409 0.104362,0.193256 0.248787,0.351343 0.424488,0.409906z"/>
  <path class="fil3" d="M4.49465 1.80203c-0.0584488,-0.00690157 -0.111433,0.0348858 -0.118335,0.0933346 -0.00690157,0.0584488 0.0348858,0.111433 0.0933346,0.118335 0.179236,0.0215669 0.317937,-0.0140315 0.437665,-0.0447638 0.115299,-0.0295945 0.206409,-0.0529764 0.284201,0.018189 0.0791102,0.0723583 0.562815,0.281264 0.611051,0.259492 -0.0839134,-0.0619252 -0.367,-0.324031 -0.46772,-0.416161 -0.162673,-0.148819 -0.302752,-0.112858 -0.480035,-0.0673543 -0.101094,0.0259488 -0.218217,0.0560118 -0.360161,0.0389291z"/>
  <path class="fil3" d="M4.73189 2.83612c-0.109602,0.100323 -0.527118,-0.093811 -0.612272,-0.158201 -0.00978346,-0.00740157 -0.0184173,-0.0139291 -0.0259921,-0.020063 -0.0434055,-0.0285866 -0.0605079,-0.0854055 -0.0379567,-0.133957l0.00019685 9.05512e-005 0.00962205 -0.0207126c0.024622,-0.0533858 0.0878622,-0.0767047 0.141248,-0.0520827 0.0598346,0.0275945 0.480933,0.35052 0.525154,0.384925z"/>
  <path class="fil3" d="M2.57956 2.20971c-0.0248504,0.0533858 -0.00172047,0.116815 0.0516654,0.141665 0.0533858,0.0248504 0.116815,0.00172047 0.141665,-0.0516654 0.0308543,-0.0661732 0.203551,-0.169657 0.370087,-0.269445 0.156709,-0.0939016 0.263335,-0.239819 0.328343,-0.560323 -0.13122,0.174488 -0.490319,0.478441 -0.70365,0.478441 -0.160941,0 -0.192154,0.274228 -0.18811,0.261327z"/>
  <path class="fil3" d="M2.19907 1.30489c0.0570669,-0.0140354 0.0919528,-0.071685 0.0779173,-0.128752 -0.0140354,-0.0570669 -0.071685,-0.0919528 -0.128752,-0.0779173 -0.0827874,0.0203465 -0.328417,0.0425 -0.539122,0.0433976 -0.124598,0.000531496 -0.51189,-0.075315 -0.573831,0.000862205 -0.100358,0.123425 0.50578,0.211937 0.574665,0.211642 0.225969,-0.000964567 0.495016,-0.0261024 0.589122,-0.0492323z"/>
  <path class="fil3" d="M4.03 4.19686c0.0568386,-0.0149567 0.0907913,-0.0731614 0.0758346,-0.13 -0.0149567,-0.0568386 -0.0731614,-0.0907913 -0.13,-0.0758346 -0.540398,0.142071 -0.456213,-0.485035 -1.32185,0.0653543 0.327016,0.132008 0.266913,-0.240079 0.788575,0.0746299 0.183335,0.0635906 0.361268,0.125311 0.587445,0.0658504z"/>
  <path class="fil3" d="M3.7434 3.63687c-0.0216299,0.0545354 0.00505118,0.116287 0.0595866,0.137917 0.0545354,0.0216299 0.116287,-0.00505118 0.137917,-0.0595866 0.0150197,-0.0378465 0.0986496,-0.116689 0.203909,-0.168618 0.18448,-0.166906 0.602697,0.0461535 0.856028,0.0428661 -0.144437,-0.179744 -0.710012,-0.352197 -0.950193,-0.233701 -0.150354,0.0741811 -0.278642,0.209039 -0.307248,0.281122z"/>
 </g>
 <rect class="fil4" width="6.82666" height="6.82666"/>
</svg>
