<?xml version="1.0" encoding="UTF-8"?>
<!DOCTYPE svg PUBLIC "-//W3C//DTD SVG 1.1//EN" "http://www.w3.org/Graphics/SVG/1.1/DTD/svg11.dtd">
<!-- Creator: CorelDRAW -->
<svg xmlns="http://www.w3.org/2000/svg" xml:space="preserve" width="2048px" height="2048px" style="shape-rendering:geometricPrecision; text-rendering:geometricPrecision; image-rendering:optimizeQuality; fill-rule:evenodd; clip-rule:evenodd"
viewBox="0 0 2048 2048"
 xmlns:xlink="http://www.w3.org/1999/xlink">
 <defs>
  <style type="text/css">
   <![CDATA[
    .fil4 {fill:none}
    .fil3 {fill:#AED581}
    .fil1 {fill:#F45A52}
    .fil2 {fill:#FECA5F}
    .fil0 {fill:#212121;fill-rule:nonzero}
   ]]>
  </style>
 </defs>
 <g id="Layer_x0020_1">
  <metadata id="CorelCorpID_0Corel-Layer"/>
  <path class="fil0" d="M995.752 1517.57c91.8249,33.9638 171.849,34.4929 243.623,7.06064 61.8,-23.6221 118.551,-68.1319 172.26,-130.049 -80.8465,-20.2181 -155.718,-25.4055 -222.571,-10.4315 -73.989,16.5732 -139.267,58.6004 -193.312,133.42zm266.373 66.8103c-86.6044,33.1016 -181.947,32.7626 -290.087,-7.6004l20.2229 -54.3059c-1.23071,1.74921 -2.45551,3.51142 -3.67323,5.29725l-52.7504 -36c65.2347,-95.6422 146.284,-148.996 239.477,-169.872 91.0867,-20.4024 192.527,-8.99646 301.184,24.6118l43.8992 13.578 -28.0252 36.4217c-69.6863,90.5611 -145.008,155.289 -230.247,187.87z"/>
  <path class="fil0" d="M969.048 530.562c-48.678,-52.0229 -106.213,-87.2351 -170.7,-109.241 -54.2906,-18.528 -113.564,-27.7831 -176.687,-29.8618 14.1756,71.2465 15.1665,152.489 16.1693,235.093 0.451181,37.1859 0.907087,74.6623 2.7,112.576 9.2693,196.035 57.0993,371.079 361.513,356.684l3 0c339.683,16.063 344.611,-228.59 349.123,-452.898 1.83543,-91.2284 3.61181,-179.415 25.2638,-251.257 -67.9087,2.62323 -134.869,13.2685 -196.089,34.376 -64.6205,22.2803 -122.537,56.1626 -167.793,104.53l-23.2488 24.8481 -23.2512 -24.8481zm-150.201 -169.742c64.1186,21.8811 122.439,55.3489 173.589,103.142 48.7902,-44.5512 106.892,-76.6182 170.156,-98.4308 82.0985,-28.3051 173.273,-39.3981 263.993,-38.2016l50.8512 0.672048 -22.7268 45.4536c-32.6563,65.3138 -34.6819,165.862 -36.7914,270.708 -5.1378,255.355 -10.7681,533.823 -414.338,515.455 -359.51,16.4339 -415.962,-188.253 -426.801,-417.49 -1.7563,-37.1374 -2.2311,-76.1327 -2.7,-114.824 -1.14449,-94.2839 -2.26772,-186.709 -23.8264,-258.972l-12.065 -40.441 42.3142 -0.559843c85.4788,-1.12795 165.604,8.66457 238.345,33.4902z"/>
  <path class="fil0" d="M754.607 354.815c165.284,-151.536 328.835,-113.35 491.693,0.223229l-36.5008 52.2496c-138.352,-96.4843 -276.016,-130.093 -411.943,-5.47205l-43.2496 -47.0008z"/>
  <path class="fil0" d="M1016.03 1133.81c3.38268,-17.3268 -7.92284,-34.1173 -25.2496,-37.5 -17.3268,-3.38268 -34.1173,7.92284 -37.5,25.2496 -31.8177,161.954 -20.0067,341.699 -6.32953,549.86 2.00669,30.554 4.05473,61.7008 5.82874,90.4536 1.03583,17.6043 16.1469,31.0359 33.7512,30 17.6043,-1.03583 31.0359,-16.1469 30,-33.7512 -2.02559,-32.8252 -3.94607,-62.0516 -5.82874,-90.7016 -13.3831,-203.678 -24.939,-379.549 5.32796,-533.611z"/>
  <path class="fil1" d="M1183.34 426.032c-64.6205,22.2803 -122.537,56.1626 -167.793,104.53l-23.2488 24.8481 -23.2512 -24.8481c-48.678,-52.0229 -106.213,-87.2351 -170.7,-109.241 -54.2906,-18.528 -113.564,-27.7831 -176.687,-29.8618 14.1756,71.2465 15.1665,152.489 16.1693,235.093 0.451181,37.1859 0.907087,74.6623 2.7,112.576 9.01182,190.591 54.4725,361.342 336.744,357.448 4.23071,-1.0063 8.73544,-1.16102 13.2803,-0.307087 3.78898,-0.121654 7.61812,-0.274016 11.4886,-0.457087l3 0c339.683,16.063 344.611,-228.59 349.123,-452.898 1.83543,-91.2284 3.61181,-179.415 25.2638,-251.257 -67.9087,2.62323 -134.869,13.2685 -196.089,34.376z"/>
  <path class="fil2" d="M1150.3 369.925c-104.172,-57.678 -207.868,-71.8146 -310.637,-1.51299 55.9678,21.7748 107.217,52.9796 152.777,95.5501 45.6118,-41.6492 99.3627,-72.3875 157.86,-94.0371z"/>
  <path class="fil3" d="M1411.63 1394.58c-80.8465,-20.2181 -155.718,-25.4055 -222.571,-10.4315 -71.5465,16.0264 -134.947,55.8532 -187.922,126.115 0.158268,3.13937 0.320079,6.28583 0.485433,9.4382 89.3682,31.8402 167.509,31.7729 237.747,4.92756 61.8,-23.6221 118.551,-68.1319 172.26,-130.049z"/>
 </g>
 <rect class="fil4" width="2048" height="2048"/>
</svg>
