<?xml version="1.0" encoding="UTF-8"?>
<!DOCTYPE svg PUBLIC "-//W3C//DTD SVG 1.1//EN" "http://www.w3.org/Graphics/SVG/1.1/DTD/svg11.dtd">
<!-- Creator: CorelDRAW -->
<svg xmlns="http://www.w3.org/2000/svg" xml:space="preserve" width="2048px" height="2048px" style="shape-rendering:geometricPrecision; text-rendering:geometricPrecision; image-rendering:optimizeQuality; fill-rule:evenodd; clip-rule:evenodd"
viewBox="0 0 2048 2048"
 xmlns:xlink="http://www.w3.org/1999/xlink">
 <defs>
  <style type="text/css">
   <![CDATA[
    .fil2 {fill:none}
    .fil1 {fill:#AED581}
    .fil0 {fill:#212121;fill-rule:nonzero}
   ]]>
  </style>
 </defs>
 <g id="Layer_x0020_1">
  <metadata id="CorelCorpID_0Corel-Layer"/>
  <path class="fil0" d="M1038.01 1589.33c-36.6355,-217.64 -89.4414,-420.281 -169.062,-598.033 -61.5107,-137.32 -139.145,-259.855 -237.88,-363.036 49.8296,120.504 90.2422,248.733 122.059,384.009 42.3709,180.15 69.5457,373.054 83.4804,577.06l201.403 0zm-110.812 -624.034c86.2914,192.641 141.821,412.561 179.438,648.354 0.607087,2.46142 0.930709,5.03268 0.930709,7.68071 0,17.6728 -14.328,32.0008 -32.0008,32.0008l-268.877 0 0 -0.00236221c-16.7858,0.0153543 -30.8929,-13.0512 -31.9394,-30.0296l31.9394 -1.9689 -31.8756 1.87559c-13.024,-211.305 -40.2626,-410.74 -83.9375,-596.437 -43.3193,-184.187 -102.778,-354.588 -180.536,-509.335 -6.57166,-10.9984 -6.12402,-25.3547 2.21575,-36.0744 10.852,-13.9488 30.9579,-16.4587 44.9067,-5.6067l-0.0129921 0.0165354c163.415,127.137 282.279,294.252 369.749,489.527z"/>
  <path class="fil0" d="M664.517 1589.33c-28.0559,-163.782 -68.2099,-316.263 -128.205,-450.201 -41.2311,-92.0493 -91.9264,-175.39 -154.643,-247.668 31.7032,82.0938 57.9993,168.594 79.3005,259.164 32.2406,137.074 53.0835,283.715 63.9804,438.705l139.567 0zm-69.9556 -476.202c66.6662,148.828 109.571,318.581 138.633,500.522 0.607087,2.46142 0.930709,5.03268 0.930709,7.68071 0,17.6728 -14.328,32.0008 -32.0008,32.0008l-207.063 0 0 -0.00236221c-16.7858,0.0153543 -30.8929,-13.0512 -31.9394,-30.0296l31.9394 -1.9689 -31.8756 1.87559c-10.0028,-162.285 -30.9225,-315.456 -64.4682,-458.083 -33.189,-141.116 -78.704,-271.637 -138.193,-390.133 -6.57048,-10.9973 -6.12284,-25.3524 2.21693,-36.0721 10.852,-13.9488 30.9579,-16.4587 44.9067,-5.6067l-0.0129921 0.0165354c126.846,98.6871 219.082,228.338 286.925,379.799z"/>
  <path class="fil0" d="M1191.18 1613.65c37.6181,-235.792 93.1465,-455.711 179.438,-648.354 87.4701,-195.275 206.334,-362.39 369.749,-489.527l-0.0129921 -0.0165354c13.9488,-10.852 34.0548,-8.34213 44.9067,5.6067 8.33977,10.7197 8.78741,25.076 2.21575,36.0744 -77.7579,154.747 -137.217,325.148 -180.536,509.335 -43.6748,185.697 -70.9134,385.132 -83.9375,596.437l-31.8756 -1.87559 31.9394 1.9689c-1.04646,16.9784 -15.1536,30.0449 -31.9394,30.0296l0 0.00236221 -268.877 0c-17.6728,0 -32.0008,-14.328 -32.0008,-32.0008 0,-2.64803 0.323622,-5.2193 0.930709,-7.68071zm237.688 -622.353c-79.6205,177.751 -132.425,380.391 -169.062,598.033l201.403 0c13.9347,-204.006 41.1095,-396.91 83.4804,-577.06 31.8166,-135.275 72.2292,-263.504 122.059,-384.009 -98.7355,103.181 -176.369,225.716 -237.88,363.036z"/>
  <path class="fil0" d="M1030.38 1096.96c29.25,-155.355 69.9154,-286.97 134.673,-400.956 65.6504,-115.556 155.479,-212.205 282.357,-295.953l17.6256 26.6256 -17.628 -26.7071c14.7496,-9.73465 34.6004,-5.67048 44.3351,9.07914 7.35591,11.1461 6.8315,25.2024 -0.227953,35.6079 -60.3095,102.069 -120.871,252.345 -168.73,411.568 -47.0433,156.501 -81.6107,320.961 -91.4327,456.159l-31.8756 -2.25 31.9158 2.31851c-1.24725,17.1673 -15.8209,30.1831 -32.8642,29.6658l-71.3528 3.33425 0.00472441 0.0956694c-15.7571,0.735827 -29.3835,-10.0524 -32.7166,-24.9319l-63.6296 -206.075 -0.0885827 0.0271654c-1.83425,-5.94095 -1.84843,-12.0095 -0.364961,-17.6079zm190.173 -369.456c-60.1465,105.868 -98.478,229.426 -126.4,375.8l54.7311 177.255 21.0815 -0.986221c12.5894,-134.198 46.5213,-291.736 91.5698,-441.598 32.1709,-107.027 70.1044,-210.437 110.075,-298.966 -62.256,56.5559 -111.5,118.866 -151.057,188.495z"/>
  <path class="fil1" d="M868.947 991.295c-61.5107,-137.32 -139.145,-259.855 -237.88,-363.036 49.8296,120.504 90.2422,248.733 122.059,384.009 42.3709,180.15 69.5457,373.054 83.4804,577.06l201.403 0c-36.6355,-217.64 -89.4414,-420.281 -169.062,-598.033z"/>
  <path class="fil1" d="M1220.55 727.499c-60.1465,105.868 -98.478,229.426 -126.4,375.8l54.7311 177.255 21.0815 -0.986221c12.5894,-134.198 46.5213,-291.736 91.5698,-441.598 32.1709,-107.027 70.1044,-210.437 110.075,-298.966 -62.256,56.5559 -111.5,118.866 -151.057,188.495z"/>
  <path class="fil1" d="M1428.86 991.295c-79.6205,177.751 -132.425,380.391 -169.062,598.033l201.403 0c13.9347,-204.006 41.1095,-396.91 83.4804,-577.06 31.8166,-135.275 72.2292,-263.504 122.059,-384.009 -98.7355,103.181 -176.369,225.716 -237.88,363.036z"/>
  <path class="fil1" d="M664.517 1589.33c-28.0559,-163.782 -68.2099,-316.263 -128.205,-450.201 -41.2311,-92.0493 -91.9264,-175.39 -154.643,-247.668 31.7032,82.0938 57.9993,168.594 79.3005,259.164 32.2406,137.074 53.0835,283.715 63.9804,438.705l139.567 0z"/>
 </g>
 <rect class="fil2" width="2048" height="2048"/>
</svg>
