<?xml version="1.0" encoding="UTF-8"?>
<!DOCTYPE svg PUBLIC "-//W3C//DTD SVG 1.1//EN" "http://www.w3.org/Graphics/SVG/1.1/DTD/svg11.dtd">
<!-- Creator: CorelDRAW -->
<svg xmlns="http://www.w3.org/2000/svg" xml:space="preserve" width="2048px" height="2048px" style="shape-rendering:geometricPrecision; text-rendering:geometricPrecision; image-rendering:optimizeQuality; fill-rule:evenodd; clip-rule:evenodd"
viewBox="0 0 2048 2048"
 xmlns:xlink="http://www.w3.org/1999/xlink">
 <defs>
  <style type="text/css">
   <![CDATA[
    .fil4 {fill:none}
    .fil2 {fill:#949494}
    .fil3 {fill:#EBE5DF}
    .fil1 {fill:#FECA5F}
    .fil0 {fill:#212121;fill-rule:nonzero}
   ]]>
  </style>
 </defs>
 <g id="Layer_x0020_1">
  <metadata id="CorelCorpID_0Corel-Layer"/>
  <g id="_323227232">
   <path id="_323228072" class="fil0" d="M799.892 784.844c-5.25591,-13.6606 -9.29292,-27.7973 -11.9705,-42.2646 -2.69292,-14.5512 -4.10315,-29.1969 -4.10315,-43.787 0,-66.2705 26.8642,-126.271 70.2981,-169.703 43.4327,-43.4339 103.433,-70.2981 169.703,-70.2981 66.2705,0 126.271,26.8642 169.703,70.2981 43.4339,43.4327 70.2981,103.433 70.2981,169.703 0,14.5252 -1.40079,29.1213 -4.07481,43.6311 -2.72953,14.8158 -6.69449,28.8957 -11.7602,42.124l-59.7497 -22.7504c3.89174,-10.1622 6.84804,-20.4921 8.76024,-30.8729 1.85197,-10.0512 2.82284,-20.7827 2.82284,-32.1319 0,-48.6048 -19.6984,-92.6056 -51.5469,-124.453 -31.8473,-31.8484 -75.8481,-51.5469 -124.453,-51.5469 -48.6048,0 -92.6056,19.6984 -124.453,51.5469 -31.8484,31.8473 -51.5469,75.8481 -51.5469,124.453 0,11.3941 0.979135,22.1764 2.85118,32.2878 2.00433,10.8319 4.9441,21.1996 8.72009,31.0134l-59.4993 22.7504z"/>
   <path id="_323227832" class="fil0" d="M1354.06 1376.35c-37.2437,69.854 -89.2902,128.607 -145.797,170.224 -59.6847,43.9583 -125.026,69.2906 -184.448,69.2906 -59.3871,0 -124.688,-25.3051 -184.348,-69.2162 -56.4768,-41.5701 -108.51,-100.266 -145.774,-170.068l56.2512 -30c32.5843,61.0347 78.0107,112.308 127.273,148.567 48.8859,35.9811 100.867,56.7154 146.597,56.7154 45.7607,0 97.7812,-20.7626 146.698,-56.7898 49.2804,-36.2953 94.7186,-87.6213 127.296,-148.723l56.2512 30z"/>
   <path id="_323227736" class="fil0" d="M1055.82 1583.87c0,-17.6728 -14.328,-32.0008 -32.0008,-32.0008 -17.6728,0 -32.0008,14.328 -32.0008,32.0008l0 128c0,17.6728 14.328,32.0008 32.0008,32.0008 17.6728,0 32.0008,-14.328 32.0008,-32.0008l0 -128z"/>
   <path id="_323228024" class="fil0" d="M943.719 788.612c-308.675,43.7847 -462.56,165.227 -518.279,289.621 -42.9048,95.7851 -27.0721,192.851 20.7142,254.042 45.0933,57.7441 120.249,82.2308 200.186,38.4319 106.726,-58.4776 221.48,-229.377 297.378,-582.095zm-576.528 263.62c66.2752,-147.962 248.199,-291.528 613.387,-332.704l43.3335 -4.88504 -8.45906 42.7607c-79.9501,404.169 -213.147,600.696 -338.36,669.304 -111.843,61.2804 -217.484,26.3953 -281.189,-55.1823 -61.0123,-78.1288 -81.991,-200.348 -28.7126,-319.294z"/>
   <path id="_323228120" class="fil0" d="M1067.42 719.705c365.189,41.1756 547.112,184.742 613.387,332.704 53.2784,118.945 32.3008,241.165 -28.7114,319.294 -63.7052,81.5764 -169.345,116.462 -281.189,55.1811 -125.215,-68.6079 -258.411,-265.134 -338.361,-669.303l-8.45788 -42.7607 43.3323 4.88504zm555.137 358.705c-55.7185,-124.394 -209.602,-245.836 -518.279,-289.621 75.8977,352.718 190.653,523.616 297.379,582.094 79.9371,43.7989 155.093,19.3122 200.186,-38.4307 47.7874,-61.193 63.6178,-158.256 20.713,-254.042z"/>
   <polygon id="_323227688" class="fil0" points="907.935,1005.12 1139.71,1005.12 1139.71,1069.12 907.935,1069.12 "/>
   <polygon id="_323226920" class="fil0" points="812.883,1182.49 1234.76,1182.49 1234.76,1246.49 812.883,1246.49 "/>
   <polygon id="_323226872" class="fil0" points="739.901,1359.86 1307.74,1359.86 1307.74,1423.86 739.901,1423.86 "/>
   <path id="_323226848" class="fil0" d="M1173.93 368.197c17.1201,4.28032 34.4705,-6.12993 38.7508,-23.25 4.28032,-17.1201 -6.12993,-34.4705 -23.25,-38.7508 -12.111,-3.02599 -24.2717,-2.64685 -36.1429,0.634252 -20.2583,5.59843 -38.889,19.9087 -53.7615,39.7607 -13.2756,17.7225 -23.9303,40.2083 -30.0331,64.6264 -7.42914,29.7248 -8.41536,63.0437 0.431103,95.054 4.6937,16.9819 22.2685,26.9433 39.2504,22.2496 16.9819,-4.6937 26.9433,-22.2685 22.2496,-39.2504 -5.69174,-20.5973 -4.92048,-42.5859 0.0696851,-62.5524 4.09607,-16.3902 10.8402,-30.9402 19.0323,-41.876 6.59764,-8.80749 13.5165,-14.7862 19.7622,-16.5118 1.28032,-0.35315 2.51221,-0.415748 3.64134,-0.133465z"/>
   <path id="_323227352" class="fil0" d="M858.204 306.196c-17.1201,4.28032 -27.5303,21.6307 -23.25,38.7508 4.28032,17.1201 21.6307,27.5303 38.7508,23.25 1.12913,-0.282284 2.36103,-0.219685 3.64134,0.133465 6.24567,1.72559 13.1646,7.70434 19.7622,16.5118 8.19213,10.9358 14.9362,25.4858 19.0323,41.876 4.99016,19.9666 5.76142,41.9552 0.0696851,62.5524 -4.6937,16.9819 5.26772,34.5567 22.2496,39.2504 16.9819,4.6937 34.5567,-5.26772 39.2504,-22.2496 8.84646,-32.0103 7.86024,-65.3292 0.431103,-95.054 -6.10276,-24.4181 -16.7575,-46.904 -30.0331,-64.6264 -14.8725,-19.852 -33.5032,-34.1622 -53.7615,-39.7607 -11.8713,-3.2811 -24.0319,-3.66024 -36.1429,-0.634252z"/>
  </g>
  <path class="fil1" d="M1245.65 1423.86l-443.654 0c22.9984,27.6083 48.5516,51.6485 75.2304,71.2855 48.8859,35.9811 100.867,56.7154 146.597,56.7154 45.7607,0 97.7812,-20.7626 146.698,-56.7898 26.641,-19.6217 52.1587,-43.6347 75.1288,-71.2111z"/>
  <path class="fil2" d="M762.318 1359.86l523.193 0c-28.7445,-29.8406 -57.1831,-67.3134 -84.5835,-113.372l-353.96 0c-27.4229,46.0678 -55.8839,83.5406 -84.6497,113.372z"/>
  <path class="fil1" d="M881.574 1182.49l284.765 0c-16.7705,-34.0725 -32.9941,-71.7816 -48.4831,-113.372l-187.779 0c-15.4949,41.5914 -31.7256,79.3005 -48.5032,113.372z"/>
  <path class="fil2" d="M952.316 1005.12l143.309 0c-23.3587,-72.1146 -44.6351,-154.299 -63.078,-247.534l-8.45788 -42.7607 43.3323 4.88504c45.3615,5.11418 87.8953,11.8087 127.732,19.8957 0.694489,-2.88662 1.30866,-5.77914 1.84252,-8.67638 1.85197,-10.0512 2.82284,-20.7827 2.82284,-32.1319 0,-48.6048 -19.6984,-92.6056 -51.5469,-124.453 -31.8473,-31.8484 -75.8481,-51.5469 -124.453,-51.5469 -48.6048,0 -92.6056,19.6984 -124.453,51.5469 -31.8484,31.8473 -51.5469,75.8481 -51.5469,124.453 0,11.3941 0.979135,22.1764 2.85118,32.2878 0.525591,2.84055 1.11614,5.6504 1.76811,8.42599 39.9532,-8.12363 82.6229,-14.8465 128.139,-19.9784l43.3335 -4.88504 -8.45906 42.7607c-18.4583,93.3107 -39.7548,175.554 -63.1359,247.712z"/>
  <path class="fil3" d="M646.341 1370.71c106.726,-58.4776 221.48,-229.377 297.378,-582.095 -308.675,43.7847 -462.56,165.227 -518.279,289.621 -42.9048,95.7851 -27.0721,192.851 20.7142,254.042 45.0933,57.7441 120.249,82.2308 200.186,38.4319z"/>
  <path class="fil3" d="M1104.28 788.789c75.8977,352.718 190.653,523.616 297.379,582.094 79.9371,43.7989 155.093,19.3122 200.186,-38.4307 47.7874,-61.193 63.6178,-158.256 20.713,-254.042 -55.7185,-124.394 -209.602,-245.836 -518.279,-289.621z"/>
 </g>
 <rect class="fil4" width="2048" height="2048"/>
</svg>
