<?xml version="1.0" encoding="UTF-8"?>
<!DOCTYPE svg PUBLIC "-//W3C//DTD SVG 1.1//EN" "http://www.w3.org/Graphics/SVG/1.1/DTD/svg11.dtd">
<!-- Creator: CorelDRAW -->
<svg xmlns="http://www.w3.org/2000/svg" xml:space="preserve" width="2048px" height="2048px" style="shape-rendering:geometricPrecision; text-rendering:geometricPrecision; image-rendering:optimizeQuality; fill-rule:evenodd; clip-rule:evenodd"
viewBox="0 0 2048 2048"
 xmlns:xlink="http://www.w3.org/1999/xlink">
 <defs>
  <style type="text/css">
   <![CDATA[
    .fil3 {fill:none}
    .fil1 {fill:#63CBE5}
    .fil2 {fill:#FECA5F}
    .fil0 {fill:#212121;fill-rule:nonzero}
   ]]>
  </style>
 </defs>
 <g id="Layer_x0020_1">
  <metadata id="CorelCorpID_0Corel-Layer"/>
  <path class="fil0" d="M1484.78 1223.97c77.0552,7.72087 146.225,26.0067 198.852,62.0138 62.5595,42.8044 100.886,108.391 100.886,207.062 0,93.4099 -37.4504,166.502 -98.5713,217.438 -64.3489,53.6233 -154.517,81.5138 -253.768,81.5138l-704.747 0c-105.686,0 -201.621,-29.6315 -269.931,-87.267 -64.3536,-54.2965 -103.763,-132.441 -103.763,-233.039 0,-15.4606 1.03465,-30.8138 3.0378,-46.0276 11.335,-86.0599 54.1205,-148.995 116.496,-190.485 60.3083,-40.115 138.486,-59.3363 223.361,-59.3363 15.8433,0 32.1484,0.708662 48.8327,2.11417 26.7815,-142.524 117.572,-231.893 227.009,-271.481 51.8717,-18.7654 107.802,-26.1815 162.891,-22.6299 55.0689,3.55158 109.582,18.0933 158.632,43.2414 103.952,53.2973 182.867,153.474 190.784,296.883zm162.852 114.764c-48.5492,-33.2185 -117.904,-48.2835 -196.107,-53.4296l-30.2717 -1.99252 0.39567 -30.2587c1.71851,-131.738 -65.778,-222.625 -156.653,-269.217 -41.0422,-21.0425 -86.9717,-33.2303 -133.63,-36.2398 -46.6429,-3.00709 -93.7418,3.17835 -137.14,18.8788 -96.0119,34.7315 -174.577,116.88 -190.015,250.1l-3.73465 32.2323 -32.1414 -4.23189c-23.8358,-3.13819 -47.8359,-4.7315 -71.7024,-4.7315 -72.7985,0 -138.728,15.7382 -188.11,48.5859 -47.3138,31.4717 -79.8083,79.5131 -88.4965,145.485 -1.50827,11.452 -2.28662,24.0307 -2.28662,37.7764 0,80.1615 30.7701,141.897 81.0131,184.288 56.3717,47.563 137.704,72.0166 228.679,72.0166l704.747 0c84.7749,0 160.513,-22.7575 213.018,-66.5115 46.7044,-38.9209 75.3201,-95.4816 75.3201,-168.438 0,-74.6587 -27.6886,-123.387 -72.8847,-154.311z"/>
  <path class="fil0" d="M655.999 392.228c63.9981,0 121.942,25.9441 163.885,67.8875 41.9433,41.9433 67.8875,99.8871 67.8875,163.884 0,63.9969 -25.9441,121.941 -67.8875,163.884 -41.9433,41.9433 -99.8871,67.8875 -163.885,67.8875 -63.9981,0 -121.941,-25.9441 -163.884,-67.8875 -41.9445,-41.9433 -67.8875,-99.8871 -67.8875,-163.884 0,-63.9981 25.9429,-121.941 67.8875,-163.884 41.9433,-41.9445 99.8859,-67.8875 163.884,-67.8875zm118.635 113.138c-30.3579,-30.3579 -72.3024,-49.1363 -118.635,-49.1363 -46.3323,0 -88.2768,18.7784 -118.634,49.1363 -30.3579,30.3567 -49.1363,72.3012 -49.1363,118.634 0,46.3311 18.7784,88.2768 49.1363,118.634 30.3579,30.3579 72.3012,49.1363 118.634,49.1363 46.3323,0 88.2768,-18.7784 118.635,-49.1363 30.3579,-30.3579 49.1363,-72.3024 49.1363,-118.634 0,-46.3311 -18.7784,-88.2757 -49.1363,-118.634z"/>
  <polygon class="fil0" points="688,255.998 688,361.142 623.998,361.142 623.998,255.998 "/>
  <polygon class="fil0" points="688,886.856 688,991.999 623.998,991.999 623.998,886.856 "/>
  <polygon class="fil0" points="867.624,321.176 815.053,412.233 759.804,380.483 812.375,289.426 "/>
  <polygon class="fil0" points="552.195,867.516 499.624,958.572 444.375,926.821 496.946,835.765 "/>
  <polygon class="fil0" points="990.698,467.624 899.642,520.196 867.641,464.946 958.697,412.374 "/>
  <polygon class="fil0" points="444.234,783.053 353.177,835.623 321.427,780.374 412.484,727.803 "/>
  <polygon class="fil0" points="1024,656 918.857,656 918.857,591.998 1024,591.998 "/>
  <polygon class="fil0" points="393.143,656 288,656 288,591.998 393.143,591.998 "/>
  <polygon class="fil0" points="958.822,835.623 867.766,783.053 899.516,727.803 990.572,780.374 "/>
  <polygon class="fil0" points="412.484,520.194 321.428,467.624 353.178,412.374 444.234,464.945 "/>
  <polygon class="fil0" points="812.376,958.697 759.804,867.64 815.053,835.639 867.625,926.696 "/>
  <polygon class="fil0" points="496.947,412.359 444.375,321.301 499.624,289.301 552.196,380.358 "/>
  <path class="fil1" d="M994.227 966.479c-96.0119,34.7315 -174.577,116.88 -190.015,250.1l-3.73465 32.2323 -32.1414 -4.23189c-23.8358,-3.13819 -47.8359,-4.7315 -71.7024,-4.7315 -72.7985,0 -138.728,15.7382 -188.11,48.5859 -47.3138,31.4717 -79.8083,79.5131 -88.4965,145.485 -1.50827,11.452 -2.28662,24.0307 -2.28662,37.7764 0,80.1615 30.7701,141.897 81.0131,184.288 56.3717,47.563 137.704,72.0166 228.679,72.0166l704.747 0c84.7749,0 160.513,-22.7575 213.018,-66.5115 46.7044,-38.9209 75.3201,-95.4816 75.3201,-168.438 0,-74.6587 -27.6886,-123.387 -72.8847,-154.311 -48.5492,-33.2185 -117.904,-48.2835 -196.107,-53.4296l-30.2717 -1.99252 0.39567 -30.2587c1.71851,-131.738 -65.778,-222.625 -156.653,-269.217 -41.0422,-21.0425 -86.9717,-33.2303 -133.63,-36.2398 -46.6429,-3.00709 -93.7418,3.17835 -137.14,18.8788z"/>
  <path class="fil2" d="M655.999 791.769c46.3323,0 88.2768,-18.7784 118.635,-49.1363 30.3579,-30.3579 49.1363,-72.3024 49.1363,-118.634 0,-46.3311 -18.7784,-88.2757 -49.1363,-118.634 -30.3579,-30.3579 -72.3024,-49.1363 -118.635,-49.1363 -46.3323,0 -88.2768,18.7784 -118.634,49.1363 -30.3579,30.3567 -49.1363,72.3012 -49.1363,118.634 0,46.3311 18.7784,88.2768 49.1363,118.634 30.3579,30.3579 72.3012,49.1363 118.634,49.1363z"/>
 </g>
 <rect class="fil3" width="2048" height="2048"/>
</svg>
