<?xml version="1.0" encoding="UTF-8"?>
<!DOCTYPE svg PUBLIC "-//W3C//DTD SVG 1.1//EN" "http://www.w3.org/Graphics/SVG/1.1/DTD/svg11.dtd">
<!-- Creator: CorelDRAW -->
<svg xmlns="http://www.w3.org/2000/svg" xml:space="preserve" width="2048px" height="2048px" style="shape-rendering:geometricPrecision; text-rendering:geometricPrecision; image-rendering:optimizeQuality; fill-rule:evenodd; clip-rule:evenodd"
viewBox="0 0 2048 2048"
 xmlns:xlink="http://www.w3.org/1999/xlink">
 <defs>
  <style type="text/css">
   <![CDATA[
    .fil4 {fill:none}
    .fil1 {fill:#63CBE5}
    .fil2 {fill:#F45A52}
    .fil3 {fill:#FECA5F}
    .fil0 {fill:#212121;fill-rule:nonzero}
   ]]>
  </style>
 </defs>
 <g id="Layer_x0020_1">
  <metadata id="CorelCorpID_0Corel-Layer"/>
  <path class="fil0" d="M825.329 1321.16c31.4114,5.5193 59.7827,16.3512 82.506,35.3799 30.7004,25.7114 49.513,64.2201 49.513,121.258 0,53.4792 -17.9681,95.7851 -47.289,125.693 -31.7705,32.4047 -76.1327,49.2591 -124.86,49.2591l-308.327 0c-51.5469,0 -98.4379,-17.7921 -131.947,-52.3985 -30.7264,-31.7339 -49.5449,-76.7245 -49.5449,-133.989 0,-12.6579 1.01221,-24.9933 2.94213,-36.9733 7.44804,-46.2095 28.6949,-80.3127 58.5993,-103.087 29.4851,-22.4551 66.5847,-33.2315 106.475,-33.2315 2.02677,0 4.07481,0.0307087 6.14056,0.0921261 15.1417,-73.2249 56.439,-120.221 105.807,-142.317 24.9697,-11.1756 51.8516,-15.8599 78.4217,-14.2618 26.5299,1.59567 52.7717,9.40513 76.5036,23.2146 49.5107,28.8083 88.1646,83.3599 95.0599,161.361zm41.5052 84.3792c-17.7709,-14.8819 -44.367,-21.7311 -74.7969,-24.1819l-29.6918 -2.39292 0.316536 -29.7331c0.71693,-67.3808 -27.2799,-112.587 -64.3938,-134.183 -15.0591,-8.76261 -31.6087,-13.7114 -48.254,-14.713 -16.6051,-0.999213 -33.2929,1.87795 -48.6697,8.76024 -36.7122,16.4315 -66.828,56.2772 -73.0229,121.71l-3.20906 33.9048 -33.541 -5.40473c-9.19253,-1.4811 -18.6248,-2.23347 -28.1752,-2.23347 -26.3374,0 -49.9996,6.47953 -67.7256,19.9795 -17.3091,13.1811 -29.739,33.7394 -34.3488,62.3363 -1.27205,7.9004 -1.94055,16.8756 -1.94055,26.974 0,39.5303 11.8878,69.4465 31.2945,89.4898 21.0366,21.7252 51.7028,32.8961 86.1957,32.8961l308.327 0c31.7823,0 60.006,-10.2673 79.3595,-30.0071 17.85,-18.2079 28.7882,-45.3319 28.7882,-80.9434 0,-35.7803 -10.0736,-58.4918 -26.5122,-72.2587z"/>
  <path class="fil0" d="M1659.98 1321.16c31.4114,5.5193 59.7839,16.3512 82.5072,35.3799 30.7004,25.7114 49.513,64.2201 49.513,121.258 0,53.4792 -17.9681,95.7851 -47.289,125.693 -31.7705,32.4047 -76.1327,49.2591 -124.86,49.2591l-308.327 0c-51.5469,0 -98.4379,-17.7921 -131.947,-52.3985 -30.7264,-31.7339 -49.5449,-76.7245 -49.5449,-133.989 0,-12.6579 1.01221,-24.9933 2.94213,-36.9733 7.44804,-46.2095 28.6949,-80.3127 58.5993,-103.087 29.4851,-22.4551 66.5847,-33.2315 106.475,-33.2315 2.02677,0 4.07481,0.0307087 6.14056,0.0921261 15.1417,-73.2249 56.4402,-120.221 105.807,-142.317 24.9697,-11.1756 51.8516,-15.8599 78.4217,-14.2618 26.5299,1.59567 52.7729,9.40513 76.5048,23.2146 49.5107,28.8083 88.1635,83.3611 95.0576,161.361zm41.5063 84.3792c-17.7709,-14.8819 -44.367,-21.7311 -74.7981,-24.1819l-29.6929 -2.39292 0.317717 -29.7331c0.718111,-67.3808 -27.2776,-112.587 -64.3914,-134.183 -15.0591,-8.76261 -31.6099,-13.7114 -48.2552,-14.713 -16.6051,-0.999213 -33.2929,1.87795 -48.6697,8.76024 -36.7111,16.4315 -66.828,56.2772 -73.0229,121.71l-3.21024 33.9048 -33.5398 -5.40473c-9.19253,-1.4811 -18.6248,-2.23347 -28.1752,-2.23347 -26.3374,0 -49.9996,6.47953 -67.7256,19.9795 -17.3091,13.1823 -29.739,33.7394 -34.3488,62.3363 -1.27205,7.9004 -1.94055,16.8756 -1.94055,26.974 0,39.5303 11.8878,69.4465 31.2945,89.4898 21.0366,21.7252 51.7028,32.8961 86.1957,32.8961l308.327 0c31.7823,0 60.006,-10.2673 79.3595,-30.0071 17.85,-18.2079 28.7882,-45.3319 28.7882,-80.9434 0,-35.7803 -10.0736,-58.4918 -26.5122,-72.2587z"/>
  <path class="fil1" d="M601.345 1209.09c-36.7122,16.4315 -66.828,56.2772 -73.0229,121.71l-3.20906 33.9048 -33.541 -5.40473c-9.19253,-1.4811 -18.6248,-2.23347 -28.1752,-2.23347 -26.3374,0 -49.9996,6.47953 -67.7256,19.9795 -17.3091,13.1811 -29.739,33.7394 -34.3488,62.3363 -1.27205,7.9004 -1.94055,16.8756 -1.94055,26.974 0,39.5303 11.8878,69.4465 31.2945,89.4898 21.0366,21.7252 51.7028,32.8961 86.1957,32.8961l308.327 0c31.7823,0 60.006,-10.2673 79.3595,-30.0071 17.85,-18.2079 28.7882,-45.3319 28.7882,-80.9434 0,-35.7803 -10.0736,-58.4918 -26.5122,-72.2587 -17.7709,-14.8819 -44.367,-21.7311 -74.7969,-24.1819l-29.6918 -2.39292 0.316536 -29.7331c0.71693,-67.3808 -27.2799,-112.587 -64.3938,-134.183 -15.0591,-8.76261 -31.6087,-13.7114 -48.254,-14.713 -16.6051,-0.999213 -33.2929,1.87795 -48.6697,8.76024z"/>
  <path class="fil1" d="M1195.98 1439.38c-1.27205,7.9004 -1.94055,16.8756 -1.94055,26.974 0,39.5303 11.8878,69.4465 31.2945,89.4898 21.0366,21.7252 51.7028,32.8961 86.1957,32.8961l308.327 0c31.7823,0 60.006,-10.2673 79.3595,-30.0071 17.85,-18.2079 28.7882,-45.3319 28.7882,-80.9434 0,-35.7803 -10.0736,-58.4918 -26.5122,-72.2587 -17.7709,-14.8819 -44.367,-21.7311 -74.7981,-24.1819l-29.6929 -2.39292 0.317717 -29.7331c0.718111,-67.3808 -27.2776,-112.587 -64.3914,-134.183 -15.0591,-8.76261 -31.6099,-13.7114 -48.2552,-14.713 -16.6051,-0.999213 -33.2929,1.87795 -48.6697,8.76024 -36.7111,16.4315 -66.828,56.2772 -73.0229,121.71l-3.21024 33.9048 -33.5398 -5.40473c-9.19253,-1.4811 -18.6248,-2.23347 -28.1752,-2.23347 -26.3374,0 -49.9996,6.47953 -67.7256,19.9795 -17.3091,13.1823 -29.739,33.7394 -34.3488,62.3363z"/>
  <path class="fil0" d="M286.271 1362.69c-19.878,-69.3898 -30.2717,-141.833 -30.2717,-215.44 0,-216.492 87.7536,-412.492 229.631,-554.37 141.878,-141.878 337.878,-229.631 554.37,-229.631 216.492,0 412.492,87.7536 554.37,229.631 141.878,141.878 229.631,337.878 229.631,554.37 0,74.5713 -10.6358,147.835 -30.9236,217.866 -8.14489,-11.9917 -18.0851,-23.1024 -30.0437,-33.117 -7.28032,-6.09686 -14.974,-11.4697 -22.9984,-16.1906 13.1339,-54.6166 19.9642,-111.147 19.9642,-168.559 0,-198.826 -80.5879,-378.827 -210.88,-509.119 -130.292,-130.292 -310.294,-210.88 -509.119,-210.88 -198.826,0 -378.827,80.5879 -509.119,210.88 -130.292,130.292 -210.88,310.294 -210.88,509.119 0,52.4056 5.68111,104.092 16.6547,154.264 -21.8764,16.8721 -38.5323,37.6748 -50.3847,61.1764z"/>
  <path class="fil0" d="M415.949 1265.8c-7.39725,-38.8051 -11.2051,-78.476 -11.2051,-118.546 0,-175.417 71.1048,-334.232 186.065,-449.191 114.959,-114.96 273.774,-186.065 449.191,-186.065 175.417,0 334.232,71.1048 449.191,186.065 114.96,114.959 186.065,273.774 186.065,449.191 0,28.3878 -1.90748,56.5371 -5.62796,84.2894 -13.513,-29.8902 -32.9374,-56.6363 -58.4103,-78.1323 0.022441,-2.05158 0.0366142,-4.10315 0.0366142,-6.15709 0,-157.752 -63.939,-300.567 -167.314,-403.941 -103.374,-103.375 -246.189,-167.314 -403.941,-167.314 -157.752,0 -300.567,63.939 -403.941,167.314 -103.375,103.374 -167.314,246.189 -167.314,403.941 0,18.3425 0.876379,36.5764 2.60315,54.6461 -11.4449,18.4075 -20.3799,38.5937 -26.8311,59.889 -9.6319,0.744095 -19.1788,2.06929 -28.5685,4.01103z"/>
  <path class="fil0" d="M565.51 1120.22c6.75709,-120.471 58.3784,-228.962 138.437,-309.02 86.0044,-86.0044 204.82,-139.202 336.053,-139.202 131.234,0 250.049,53.1981 336.053,139.202 77.2064,77.2064 127.967,180.856 137.545,296.194 -7.67481,-1.36181 -15.4406,-2.28543 -23.2583,-2.75551 -13.7563,-0.826772 -27.5327,-0.223229 -41.0953,1.77165 -9.58938,-97.2627 -53.0552,-184.572 -118.442,-249.959 -74.419,-74.419 -177.235,-120.451 -290.803,-120.451 -113.568,0 -216.384,46.0323 -290.803,120.451 -65.0008,65.0008 -108.341,151.667 -118.272,248.238 -22.4752,1.43976 -44.6256,6.66969 -65.4154,15.5315z"/>
  <path class="fil2" d="M590.809 698.063c114.959,-114.96 273.774,-186.065 449.191,-186.065 175.417,0 334.232,71.1048 449.191,186.065 114.96,114.959 186.065,273.774 186.065,449.191 0,28.3878 -1.90748,56.5371 -5.62796,84.2894 8.99292,19.8921 15.3685,41.1744 19.1681,63.2245 17.9811,4.82953 35.2689,11.6492 51.2386,21.0449 13.1339,-54.6166 19.9642,-111.147 19.9642,-168.559 0,-198.826 -80.5879,-378.827 -210.88,-509.119 -130.292,-130.292 -310.294,-210.88 -509.119,-210.88 -198.826,0 -378.827,80.5879 -509.119,210.88 -130.292,130.292 -210.88,310.294 -210.88,509.119 0,52.4056 5.68111,104.092 16.6524,154.262 0.292914,-0.225591 0.585827,-0.45 0.879922,-0.67441 23.3953,-17.8181 50.1945,-29.2063 78.4158,-35.041 -7.39725,-38.8051 -11.2051,-78.476 -11.2051,-118.546 0,-175.417 71.1048,-334.232 186.065,-449.191z"/>
  <path class="fil3" d="M1040 575.999c-157.752,0 -300.567,63.939 -403.941,167.314 -103.375,103.374 -167.314,246.189 -167.314,403.941 0,18.3425 0.876379,36.5764 2.60079,54.6437 21.4288,-34.4658 51.6674,-62.6918 90.9249,-80.2631 1.07599,-0.48189 2.15551,-0.95315 3.23859,-1.41378 6.75709,-120.471 58.3784,-228.962 138.437,-309.02 86.0044,-86.0044 204.82,-139.202 336.053,-139.202 131.234,0 250.049,53.1981 336.053,139.202 77.2064,77.2064 127.967,180.856 137.545,296.192 23.6918,4.20237 46.5248,12.587 67.4186,24.7441 10.8732,6.32717 20.9386,13.4504 30.2008,21.274 0.022441,-2.05158 0.0366142,-4.10315 0.0366142,-6.15709 0,-157.752 -63.939,-300.567 -167.314,-403.941 -103.374,-103.375 -246.189,-167.314 -403.941,-167.314z"/>
 </g>
 <rect class="fil4" width="2048" height="2048"/>
</svg>
