<?xml version="1.0" encoding="UTF-8"?>
<!DOCTYPE svg PUBLIC "-//W3C//DTD SVG 1.1//EN" "http://www.w3.org/Graphics/SVG/1.1/DTD/svg11.dtd">
<!-- Creator: CorelDRAW -->
<svg xmlns="http://www.w3.org/2000/svg" xml:space="preserve" width="2048px" height="2048px" style="shape-rendering:geometricPrecision; text-rendering:geometricPrecision; image-rendering:optimizeQuality; fill-rule:evenodd; clip-rule:evenodd"
viewBox="0 0 2048 2048"
 xmlns:xlink="http://www.w3.org/1999/xlink">
 <defs>
  <style type="text/css">
   <![CDATA[
    .fil4 {fill:none}
    .fil1 {fill:#212121}
    .fil3 {fill:#949494}
    .fil2 {fill:#EBE5DF}
    .fil0 {fill:#212121;fill-rule:nonzero}
   ]]>
  </style>
 </defs>
 <g id="Layer_x0020_1">
  <metadata id="CorelCorpID_0Corel-Layer"/>
  <path class="fil0" d="M1364.26 630.537c-2.4874,0.544489 -1.9252,6.14528 -6.3378,12.8327 -11.6563,17.6669 -23.315,35.3351 -46.089,40.3311l-6.75001 0.751182c-24.4618,0 -44.3233,-12.6071 -64.1823,-25.2118 -11.9811,-7.60394 -23.9646,-15.2102 -29.9327,-15.2102 -5.96221,0 -17.7496,7.5567 -29.5335,15.111 -19.7823,12.6815 -39.5658,25.3642 -64.0347,25.3642l-5.5004 -0.500788c-23.4319,-4.10906 -38.1579,-20.5394 -52.8804,-36.9638 -7.22717,-8.06339 -14.4567,-16.128 -16.3831,-16.4658 -1.34055,-0.23504 -9.99804,4.71378 -18.6532,9.66142 -17.126,9.79135 -34.2555,19.5815 -55.4729,17.915 -20.1366,1.95945 -35.8524,-8.48741 -51.5681,-18.9331 -6.04252,-4.01575 -6.17953,-9.32835 -9.13229,-8.68111 -2.14252,0.468898 -2.6941,6.52678 -7.53071,13.5201 -12.0496,17.4248 -24.1016,34.8485 -46.5307,39.7689l-10.6252 0.500788c-25.7221,-3.22205 -46.2815,-17.9102 -66.8375,-32.5961 -13.6571,-9.75709 -27.3154,-19.5154 -37.0618,-21.0213 -98.6245,-1.86732 -164.786,29.0386 -207.556,75.926 -25.5862,28.05 -43.2709,61.9158 -54.8115,98.0009 -11.9209,37.2709 -17.4284,76.9879 -18.3744,115.371 -2.23701,90.7997 18.9414,170.428 40.6902,190.267 23.0055,20.9858 62.4497,44.9811 100.041,59.8004 27.0201,10.6524 50.9138,16.4929 61.6052,11.8039 1.1811,-0.518504 2.52284,-7.76339 6.22796,-16.0429 8.75316,-19.5626 17.5099,-39.1252 38.9788,-48.5445l12.75 -2.75079c44.2654,0 72.1052,28.0004 98.6056,54.652 11.3551,11.4213 22.3725,22.4988 31.6536,27.3461 15.815,8.25827 37.7492,13.3736 61.4103,15.6083 26.5122,2.50394 54.5764,1.1811 78.5741,-3.53859 30.1914,-5.93859 58.956,-29.9032 83.7615,-50.5701 25.5319,-21.2705 47.8725,-39.8847 73.6253,-43.65l11.3752 0.375591c22.4669,4.92874 34.5673,22.291 46.6654,39.6496 4.92284,7.063 5.48504,13.174 7.66536,13.6512 6.68977,1.46693 29.6492,-0.350788 53.2205,-3.39685 23.3918,-3.02362 44.9315,-6.71457 48.8433,-9.00237 6.49725,-3.79961 -6.0626,-0.903544 -5.62796,-5.60434 1.95354,-21.0744 3.90591,-42.1536 25.6217,-54.854 19.4894,-11.3988 40.0075,-5.55827 60.5245,0.281103 0.93189,0.265748 1.73386,0.608268 2.42953,0.999213 0.00590552,-16.4469 1.2189,-32.5229 15.026,-44.7166 11.237,-16.6217 29.237,-23.9162 47.2335,-31.2036 9.08032,-3.67677 17.6941,-6.32717 17.928,-6.83977 0.307087,-0.673229 -3.59292,-8.65631 -6.87756,-17.9858 -7.5378,-21.4087 -15.0756,-42.8174 -4.62638,-65.7378l3.62481 -6c13.5213,-17.798 35.4225,-19.9866 57.3178,-22.1764l0.43937 -0.0354331c-10.6276,-28.5921 -32.3823,-75.4312 -58.3264,-123.17 -33.0697,-60.8528 -71.9067,-121.393 -100.882,-143.405 -3.56457,-2.70827 -2.40236,-4.9689 -3.71929,-4.68071zm-59.589 -22.1681c11.6563,-17.6669 23.3162,-35.3386 46.089,-40.3311 18.3969,-4.03465 37.1351,2.30906 55.7185,16.4303 37.1788,28.2461 81.8694,96.4642 118.383,163.654 36.1831,66.58 65.3741,133.939 71.067,159.892 3.06614,13.9831 1.39488,25.9193 -5.61496,35.139 -13.5189,17.7921 -35.4177,19.9854 -57.3154,22.1764 -2.87599,0.287008 -4.9004,-0.546851 -6.46536,-1.54252 1.24725,3.02126 2.75315,6.74174 4.14922,10.7055 7.5378,21.4063 15.0732,42.8162 4.62638,65.7355 -10.3772,22.7634 -31.154,31.1799 -51.9272,39.5918 -9.08032,3.67677 -17.6929,6.32481 -17.9268,6.83859l-12.874 14.25c-0.379134,0.222047 -0.7063,0.418111 -0.98504,0.592914l4.03583 -0.0153543c2.6374,-0.635434 5.25945,-1.09252 5.26654,-0.0212599 0.154725,21.0307 0.309449,42.0662 -23.1827,55.8048 -19.4882,11.3976 -40.0063,5.55827 -60.5221,-0.279921 -7.52245,-2.14134 -6.50197,-9.27993 -10.774,-6.78189 -6.49961,3.80079 6.06378,0.903544 5.62796,5.60434 -1.95236,21.0768 -3.91063,42.1559 -25.6217,54.854 -11.361,6.64607 -42.6083,13.3122 -73.0938,17.2536 -29.7733,3.84803 -61.2473,5.60197 -74.7213,2.64567 -22.4658,-4.9252 -34.5673,-22.2898 -46.6654,-39.6496 -2.57008,-3.6874 -3.95079,-7.11378 -4.9937,-9.61536 -8.68938,5.13426 -20.4744,14.9528 -33.4217,25.7386 -30.7323,25.604 -66.3674,55.2933 -112.262,64.3205 -29.4177,5.78622 -63.9969,7.39016 -96.8245,4.28977 -31.2366,-2.94921 -61.3843,-10.3252 -84.9095,-22.6099 -18.261,-9.53623 -32.6126,-23.9669 -47.4048,-38.8453 -13.852,-13.9311 -28.2662,-28.4268 -42.6615,-33.6366 -0.959056,2.94567 -2.24528,6.97323 -4.17284,11.2807 -8.75316,19.5614 -17.5099,39.1252 -38.9776,48.5422 -28.0099,12.287 -69.1512,5.44016 -110.356,-10.8047 -44.4815,-17.5358 -91.741,-46.4622 -119.789,-72.0485 -32.2725,-29.4366 -64.115,-130.538 -61.4422,-239.019 1.08189,-43.93 7.48701,-89.7013 21.3744,-133.121 14.2654,-44.6032 36.2882,-86.6434 68.3115,-121.75 54.8327,-60.1099 137.668,-99.6131 258.905,-96.6272l3.1252 0.125197c25.7256,3.22441 46.2839,17.9126 66.8386,32.5973 10.2898,7.35119 20.5807,14.7024 29.1981,18.5256 1.07717,-2.51811 2.44016,-6.32008 5.29607,-10.4504 12.0496,-17.4248 24.1016,-34.852 46.5307,-39.7689 23.2406,-5.09764 40.5626,6.41693 57.8835,17.9291 6.04252,4.01693 6.17953,9.32953 9.13347,8.68229l12.2504 -0.250394c1.34173,0.23504 10.0004,-4.71378 18.6555,-9.66261 18.6933,-10.6866 37.389,-21.3756 61.4044,-17.1614 23.4307,4.11142 38.1579,20.5382 52.8815,36.965 5.713,6.37323 11.4284,12.7488 14.5228,15.3059 6.45237,-1.9937 16.1728,-8.22284 25.8933,-14.4543 19.7811,-12.6803 39.5646,-25.363 64.0335,-25.363 24.4606,0 44.3233,12.6071 64.1823,25.2118 9.19725,5.83701 18.3957,11.6764 24.874,14.074 0.935434,-2.28307 1.62047,-6.35788 4.64646,-10.9453zm97.4682 493.389c0.850394,1.02165 1.70788,1.4563 3.32481,0.511418 0.379134,-0.222047 0.703938,-0.416929 0.982678,-0.591733l-4.03583 0.0153543 -0.271654 0.0649607zm4.30748 -0.080315c3.39213,-2.11772 -0.336614,-0.875198 -4.03583,0.0153543l4.03583 -0.0153543zm45.1489 -0.177165c-3.3874,2.11654 0.340158,0.875198 4.03583,-0.0153543l-4.03583 0.0153543z"/>
  <path class="fil0" d="M582.642 1183.1c0,42.2398 -1.7563,110.784 -3.51024,156.823 -1.24961,32.7851 -2.5004,65.5749 -3.01536,100.074l32.2488 0 10.389 -224.732 63.7512 2.74961 -11.8051 255.358 -1.41496 30.626 -30.4607 0 -94.9548 0 -32.0008 0 0 -32.0008c0,-42.2445 1.75512,-88.2851 3.51142,-134.326 1.62992,-42.7559 3.25985,-108.018 3.25985,-154.572l64.0016 0z"/>
  <path class="fil0" d="M1368.3 575.459c157.443,-63.867 276.52,-22.8768 349.856,50.8323 49.0973,49.3453 77.2312,113.974 82.4375,171.891 5.72953,63.7347 -15.7134,120.66 -66.4784,146.571 -46.3512,23.6587 -115.608,18.9307 -207.851,-35.7473l32.4992 -54.9993c70.526,41.8052 118.26,48.0839 146.351,33.7465 25.1965,-12.861 35.4248,-45.737 31.9784,-84.0721 -3.96969,-44.1532 -25.8638,-93.8729 -64.1871,-132.39 -57.2268,-57.5174 -152.133,-88.695 -280.605,-36.5811l-24 -59.2512z"/>
  <path class="fil0" d="M1255.56 1205.6c0,43.467 3.48189,87.0851 6.96024,130.697 2.75551,34.5437 5.51339,69.0886 6.65906,103.7l31.3642 0 -2.12244 -256.583 63.7512 -0.500788 2.38937 288.834 0.265748 32.2512 -32.1414 0 -94.9548 0 -32.0008 0 0 -32.0008c0,-43.4693 -3.48189,-87.0863 -6.96142,-130.7 -3.60355,-45.1819 -7.21064,-90.3686 -7.21064,-135.698l64.0016 0z"/>
  <circle class="fil1" cx="1586.98" cy="703.051" r="29.4436"/>
  <path class="fil0" d="M468.946 798.125c-56.5642,19.8213 -120.008,71.4201 -147.559,116.678 -6.99095,11.485 -11.0728,21.4276 -11.1224,28.6193 -0.0129921,1.98071 0.848032,3.67087 2.8252,4.86024 15.0449,9.05316 49.0111,10.298 109.368,-1.2815l12 62.7497c-77.3859,14.8465 -126.409,9.95552 -154.117,-6.71693 -23.6929,-14.2559 -34.0016,-35.0823 -33.8268,-59.8619 0.137008,-19.5685 7.60749,-40.6489 20.3729,-61.6193 34.0217,-55.8874 111.884,-119.437 181.06,-143.678l21 60.2504z"/>
  <path class="fil2" d="M476.855 804.636c-11.9209,37.2709 -17.4284,76.9879 -18.3744,115.371 -2.23701,90.7997 18.9414,170.428 40.6902,190.267 23.0055,20.9858 62.4497,44.9811 100.041,59.8004 27.0201,10.6524 50.9138,16.4929 61.6052,11.8039 1.1811,-0.518504 2.52284,-7.76339 6.22796,-16.0429 8.75316,-19.5626 17.5099,-39.1252 38.9788,-48.5445l12.75 -2.75079c44.2654,0 72.1052,28.0004 98.6056,54.652 11.3551,11.4213 22.3725,22.4988 31.6536,27.3461 15.815,8.25827 37.7492,13.3736 61.4103,15.6083 26.5122,2.50394 54.5764,1.1811 78.5741,-3.53859 30.1914,-5.93859 58.956,-29.9032 83.7615,-50.5701 25.5319,-21.2705 47.8725,-39.8847 73.6253,-43.65l11.3752 0.375591c22.4669,4.92874 34.5673,22.291 46.6654,39.6496 4.92284,7.063 5.48504,13.174 7.66536,13.6512 6.68977,1.46693 29.6492,-0.350788 53.2205,-3.39685 23.3918,-3.02362 44.9315,-6.71457 48.8433,-9.00237 6.49725,-3.79961 -6.0626,-0.903544 -5.62796,-5.60434 1.95354,-21.0744 3.90591,-42.1536 25.6217,-54.854 19.4894,-11.3988 40.0075,-5.55827 60.5245,0.281103 0.93189,0.265748 1.73386,0.608268 2.42953,0.999213 0.00590552,-16.4469 1.2189,-32.5229 15.026,-44.7166 11.237,-16.6217 29.237,-23.9162 47.2335,-31.2036 9.08032,-3.67677 17.6941,-6.32717 17.928,-6.83977 0.307087,-0.673229 -3.59292,-8.65631 -6.87756,-17.9858 -7.5378,-21.4087 -15.0756,-42.8174 -4.62638,-65.7378l3.62481 -6c13.5213,-17.798 35.4225,-19.9866 57.3178,-22.1764l0.43937 -0.0354331c-10.6276,-28.5921 -32.3823,-75.4312 -58.3264,-123.17 -33.0697,-60.8528 -71.9067,-121.393 -100.882,-143.405 -3.56457,-2.70827 -2.40236,-4.9689 -3.71929,-4.68071 -2.4874,0.544489 -1.9252,6.14528 -6.3378,12.8327 -11.6563,17.6669 -23.315,35.3351 -46.089,40.3311l-6.75001 0.751182c-24.4618,0 -44.3233,-12.6071 -64.1823,-25.2118 -11.9811,-7.60394 -23.9646,-15.2102 -29.9327,-15.2102 -5.96221,0 -17.7496,7.5567 -29.5335,15.111 -19.7823,12.6815 -39.5658,25.3642 -64.0347,25.3642l-5.5004 -0.500788c-23.4319,-4.10906 -38.1579,-20.5394 -52.8804,-36.9638 -7.22717,-8.06339 -14.4567,-16.128 -16.3831,-16.4658 -1.34055,-0.23504 -9.99804,4.71378 -18.6532,9.66142 -17.126,9.79135 -34.2555,19.5815 -55.4729,17.915 -20.1366,1.95945 -35.8524,-8.48741 -51.5681,-18.9331 -6.04252,-4.01575 -6.17953,-9.32835 -9.13229,-8.68111 -2.14252,0.468898 -2.6941,6.52678 -7.53071,13.5201 -12.0496,17.4248 -24.1016,34.8485 -46.5307,39.7689l-10.6252 0.500788c-25.7221,-3.22205 -46.2815,-17.9102 -66.8375,-32.5961 -13.6571,-9.75709 -27.3154,-19.5154 -37.0618,-21.0213 -98.6245,-1.86732 -164.786,29.0386 -207.556,75.926 -25.5862,28.05 -43.2709,61.9158 -54.8115,98.0009z"/>
  <path class="fil2" d="M394.729 918.507c0.698032,-28.3666 3.61654,-57.5008 9.33544,-86.2749 -34.5768,23.8736 -65.5571,54.4465 -82.6772,82.5697 -6.99095,11.485 -11.0728,21.4276 -11.1224,28.6193 -0.0129921,1.98071 0.848032,3.67087 2.8252,4.86024 12.587,7.57442 38.4201,9.68268 81.8729,3.3874 -0.418111,-10.9287 -0.509056,-22.0063 -0.233858,-33.1618z"/>
  <path class="fil3" d="M582.435 1232.05c-0.51378,34.6866 -1.90984,71.2843 -3.30355,107.877 -1.24961,32.7851 -2.5004,65.5749 -3.01536,100.074l32.2488 0 9.12993 -197.489c-11.4165,-2.51103 -23.2075,-6.0756 -35.0599,-10.4622z"/>
  <path class="fil3" d="M1255.9 1229.91c0.956694,35.4118 3.79016,70.904 6.62008,106.393 2.75551,34.5437 5.51339,69.0886 6.65906,103.7l31.3642 0 -1.78701 -215.99c-8.22993,1.47756 -16.8591,2.8004 -25.4268,3.90827 -5.79331,0.748819 -11.6516,1.41851 -17.4295,1.98898z"/>
  <path class="fil2" d="M1524.86 748.121c23.3965,43.05 43.8685,86.4272 56.9552,118.725 58.017,30.1229 98.3847,33.6248 123.299,20.9079 25.1965,-12.861 35.4248,-45.737 31.9784,-84.0721 -3.96969,-44.1532 -25.8638,-93.8729 -64.1871,-132.39 -49.7953,-50.0481 -128.119,-80.1532 -232.26,-52.7953 28.461,34.0465 58.3843,82.0926 84.215,129.625zm91.565 -45.0709c0,16.2614 -13.1823,29.4437 -29.4437,29.4437 -16.2614,0 -29.4437,-13.1823 -29.4437,-29.4437 0,-16.2614 13.1823,-29.4437 29.4437,-29.4437 16.2614,0 29.4437,13.1823 29.4437,29.4437z"/>
 </g>
 <rect class="fil4" width="2048" height="2048"/>
</svg>
