<?xml version="1.0" encoding="UTF-8"?>
<!DOCTYPE svg PUBLIC "-//W3C//DTD SVG 1.1//EN" "http://www.w3.org/Graphics/SVG/1.1/DTD/svg11.dtd">
<!-- Creator: CorelDRAW -->
<svg xmlns="http://www.w3.org/2000/svg" xml:space="preserve" width="2048px" height="2048px" style="shape-rendering:geometricPrecision; text-rendering:geometricPrecision; image-rendering:optimizeQuality; fill-rule:evenodd; clip-rule:evenodd"
viewBox="0 0 2048 2048"
 xmlns:xlink="http://www.w3.org/1999/xlink">
 <defs>
  <style type="text/css">
   <![CDATA[
    .fil6 {fill:none}
    .fil5 {fill:none;fill-rule:nonzero}
    .fil1 {fill:#212121}
    .fil3 {fill:#9DD5C0}
    .fil4 {fill:#EBE5DF}
    .fil2 {fill:#F19A7B}
    .fil0 {fill:#212121;fill-rule:nonzero}
   ]]>
  </style>
 </defs>
 <g id="Layer_x0020_1">
  <metadata id="CorelCorpID_0Corel-Layer"/>
  <g id="_323238416">
   <path id="_323239568" class="fil0" d="M1336.84 1103.45c118.371,-99.5245 120.828,-244.39 123.275,-388.879 1.23898,-73.239 2.48032,-146.393 16.7232,-216.173 5.62559,-27.5658 9.82442,-50.1048 5.57245,-62.0115 -2.70709,-7.58032 -14.002,-13.3713 -40.7103,-17.4697 -43.6536,-6.7004 -80.8914,-1.20709 -111.957,15.9969 -30.8906,17.1071 -57.2162,46.3347 -79.1505,87.2009 -76.1469,347.033 -328.343,336.262 -705.481,320.07 -59.2666,-2.54292 -121.779,-5.22756 -186.545,-6.5941l28.2189 74.5253 355.672 86.3646 21.0154 13.8638c26.3244,35.0658 53.4083,66.3603 81.4052,93.1064l-102.17 0c-10.337,-12.0662 -20.5358,-24.6437 -30.6036,-37.7032l-361.985 -87.8965 -19.1516 -4.65118 -6.97087 -18.4075 -54.554 -144.086 -19.2248 -50.7768 54.3957 0.42874c87.1418,0.687402 167.919,4.15748 243.416,7.39725 341.426,14.661 569.177,24.4406 630.806,-266.534l3.35551 -9.48544c29.1272,-56.0091 66.1371,-96.8658 111.36,-121.91 46.0583,-25.5071 99.0485,-33.9922 159.24,-24.7536 59.1284,9.07205 87.6851,31.8449 99.9603,66.2126 10.728,30.0366 5.04685,62.8406 -2.94685,102.001 -12.9024,63.2115 -14.0811,132.79 -15.2622,202.452 -2.3563,139.232 -4.71024,278.775 -88.4316,387.713l-109.272 0z"/>
   <polygon id="_323239544" class="fil0" points="1531.37,420.681 1738.59,544.319 1797.78,579.634 1732.47,601.945 1509.1,678.249 1488.6,617.748 1646.66,563.755 1498.62,475.432 "/>
   <circle id="_323239592" class="fil1" transform="matrix(0.951126 -0.207169 0.207169 0.951126 1368.5 550.343)" r="38.6433"/>
   <path id="_323239520" class="fil0" d="M1004.08 1178.18l-272.23 0 -193.435 0c8.6504,121.103 59.0044,229.88 136.028,310.571 84.3839,88.402 200.933,143.081 329.638,143.081 128.705,0 245.254,-54.6792 329.638,-143.081 77.0233,-80.6906 127.377,-189.468 136.028,-310.571l-465.665 0zm-272.23 -74.7213l272.23 0 504.358 0 37.3607 0 0 37.3607c0,155.793 -60.4134,296.98 -158.085,399.303 -98.1568,102.828 -233.792,166.432 -383.634,166.432 -149.842,0 -285.477,-63.6036 -383.634,-166.432 -97.6702,-102.323 -158.085,-243.509 -158.085,-399.303l0 -37.3607 37.3607 0 232.128 0z"/>
   <path id="_323239328" class="fil2" d="M1004.08 1178.18l-272.23 0 -193.435 0c8.6504,121.103 59.0044,229.88 136.028,310.571 84.3839,88.402 200.933,143.081 329.638,143.081 128.705,0 245.254,-54.6792 329.638,-143.081 77.0233,-80.6906 127.377,-189.468 136.028,-310.571l-465.665 0z"/>
   <path id="_323239256" class="fil3" d="M844.879 1103.45l159.197 0 332.764 0c118.371,-99.5245 120.828,-244.39 123.275,-388.879 1.23898,-73.239 2.48032,-146.393 16.7232,-216.173 5.62559,-27.5658 9.82442,-50.1048 5.57245,-62.0115 -2.70709,-7.58032 -14.002,-13.3713 -40.7103,-17.4697 -43.6536,-6.7004 -80.8914,-1.20709 -111.957,15.9969 -30.8906,17.1071 -57.2162,46.3347 -79.1505,87.2009 -76.1469,347.033 -328.343,336.262 -705.481,320.07 -59.2666,-2.54292 -121.779,-5.22756 -186.545,-6.5941l14.9398 39.4559 13.2791 35.0693 355.672 86.3646 21.0154 13.8638c26.3244,35.0658 53.4083,66.3603 81.4052,93.1064zm531.628 -516.356c-20.2996,4.42205 -40.3382,-8.44961 -44.7603,-28.7492 -4.42087,-20.2996 8.44961,-40.3382 28.7492,-44.7603 20.2996,-4.42087 40.3382,8.44961 44.7603,28.7492 4.42087,20.2996 -8.44961,40.3382 -28.7492,44.7603z"/>
   <path id="_323238824" class="fil4" d="M1538.53 600.693l108.129 -36.9378 -95.5288 -56.9965c-0.432284,2.15788 -0.872835,4.33465 -1.32165,6.5315 -5.72835,28.063 -9.14528,57.3804 -11.2784,87.4028z"/>
   <path id="_323238728" class="fil0" d="M334.599 845.9c-13.0984,-1.65591 -25.063,7.62048 -26.7189,20.7189 -1.65591,13.0984 7.62048,25.063 20.7189,26.7189l359.64 46.6016c13.0984,1.65591 25.063,-7.62048 26.7189,-20.7189 1.65591,-13.0984 -7.62048,-25.063 -20.7189,-26.7189l-359.64 -46.6016z"/>
   <line id="_323238440" class="fil5" x1="1436.47" y1="1413.71" x2="1436.47" y2= "1413.71" />
   <line id="_323238224" class="fil5" x1="1380.97" y1="1381.96" x2="1380.97" y2= "1381.96" />
  </g>
 </g>
 <rect class="fil6" width="2048" height="2048"/>
</svg>
