<?xml version="1.0" encoding="UTF-8"?>
<!DOCTYPE svg PUBLIC "-//W3C//DTD SVG 1.1//EN" "http://www.w3.org/Graphics/SVG/1.1/DTD/svg11.dtd">
<!-- Creator: CorelDRAW -->
<svg xmlns="http://www.w3.org/2000/svg" xml:space="preserve" width="2048px" height="2048px" style="shape-rendering:geometricPrecision; text-rendering:geometricPrecision; image-rendering:optimizeQuality; fill-rule:evenodd; clip-rule:evenodd"
viewBox="0 0 2048 2048"
 xmlns:xlink="http://www.w3.org/1999/xlink">
 <defs>
  <style type="text/css">
   <![CDATA[
    .fil3 {fill:none}
    .fil1 {fill:#AED581}
    .fil2 {fill:#B38E85}
    .fil0 {fill:#212121;fill-rule:nonzero}
   ]]>
  </style>
 </defs>
 <g id="Layer_x0020_1">
  <metadata id="CorelCorpID_0Corel-Layer"/>
  <path class="fil0" d="M919 1129.88c20.5736,21.3 46.904,30.3307 77.3575,31.0878 34.513,0.858662 74.6091,-8.40946 117.999,-22.9146l26.1851 -8.75434 12.4406 24.7547c29.2264,58.1587 67.1871,96.7406 107.738,118.303 33.5528,17.8429 69.0083,23.9244 102.575,19.7209 33.5398,-4.2 65.3067,-18.6307 91.5107,-41.8181 30.0508,-26.5925 53.0103,-64.8662 63.3993,-112.748l10.624 -17.6256c57.4347,-48.8162 93.515,-97.7824 102.214,-146.917 8.34568,-47.1402 -8.97993,-96.9851 -57.6248,-150.112l-9.06024 -9.8941 0.68504 -13.2307c4.50827,-87.1028 -11.2406,-147.108 -42.6485,-186.161 -30.4488,-37.8614 -77.4473,-57.4394 -136.133,-64.0985l-18.8043 -2.13307 -7.19646 -17.4921c-42.9485,-104.386 -91.6217,-172.629 -147.756,-193.742 -52.9217,-19.9063 -117.504,3.60473 -196.455,80.6481l-18.7843 18.3319 -21.5906 -14.9575c-63.6863,-44.1225 -117.515,-61.252 -162.487,-54.1489 -43.3725,6.8504 -80.98,37.4634 -113.472,89.1237l-9.46064 15.0425 -17.7898 -0.166536c-81.3367,-0.758268 -139.553,14.778 -171.919,48.5315 -31.0784,32.4118 -39.75,85.1516 -23.6469,160.361l3.53859 16.5248 -11.7886 12.2256c-61.754,64.0524 -91.2355,123.319 -86.8335,177.555 4.36063,53.7201 42.6567,105.873 116.5,156.378l12.8764 8.80631 0.999213 15.5693c4.30512,67.0819 23.9386,115.824 52.3937,147.891 21.939,24.724 49.4835,39.6485 79.2745,45.4335 30.6284,5.94804 63.8906,2.37992 96.2894,-10.0028 48.9189,-18.6957 95.4591,-57.2292 128.35,-113.371l21.254 -36.2788 29.2453 30.2788zm75.8575 94.839c-33.6792,-0.836221 -64.4634,-8.62678 -91.5579,-25.774 -38.6681,52.8922 -88.3276,90.1536 -140.399,110.055 -43.4044,16.5886 -88.6607,21.2339 -131.04,13.0028 -43.2189,-8.39292 -83.1827,-30.0496 -115.024,-65.9327 -35.0528,-39.502 -59.7874,-96.0154 -67.1363,-170.636 -82.6111,-59.7201 -125.923,-124.886 -131.635,-195.258 -5.64095,-69.502 25.9571,-141.058 93.0993,-214.566 -15.8752,-89.1804 -0.473622,-155.615 43.3831,-201.352 42.5386,-44.3634 110.358,-66.2705 200.933,-67.9524 40.6843,-58.7575 89.6753,-94.1221 147.957,-103.328 55.6843,-8.79568 117.763,7.15512 186.891,50.4048 91.2568,-82.1989 172.202,-104.289 244.677,-77.028 70.6477,26.5725 128.737,100.827 177.049,212.18 66.7099,10.676 121.534,37.0914 160.091,85.0359 39.4158,49.0111 60.2197,119.146 57.189,216.332 56.55,65.7827 75.9792,130.41 64.7091,194.066 -11.0303,62.3067 -51.7359,121.29 -115.836,177.639 -14.4343,56.8264 -43.5225,103.102 -81.1512,136.401 -36.0697,31.917 -79.8142,51.7831 -126.011,57.5693 -46.1693,5.78268 -94.6879,-2.45315 -140.326,-26.7225 -45.3839,-24.1323 -87.7713,-64.2178 -121.687,-122.241 -40.3453,11.8902 -78.691,18.9874 -114.176,18.104z"/>
  <path class="fil0" d="M1139.91 1182.76c0,24.0567 -0.124016,24.7996 -0.240945,71.9528 -0.48189,194.377 -0.73819,297.409 39.3827,508.765l7.18938 37.8756 -38.5642 0 -276.292 0 -38.5642 0 7.18938 -37.8756c40.1197,-211.344 39.8634,-314.384 39.3815,-508.744 -0.116929,-47.1662 -0.240945,-47.9138 -0.240945,-71.9741l64.0016 0c0,74.9138 -0.0129921,70.1268 -0.00944883,71.9741 0.462992,186.612 0.718111,290.818 -33.4134,482.618l199.604 0c-34.1327,-191.809 -33.8788,-296.01 -33.4158,-482.639 0.00354331,-1.84725 -0.00944883,2.94213 -0.00944883,-71.9528l64.0016 0z"/>
  <path class="fil1" d="M996.357 1160.96c34.513,0.858662 74.6091,-8.40946 117.999,-22.9146l26.1851 -8.75434 12.4406 24.7547c29.2264,58.1587 67.1871,96.7406 107.738,118.303 33.5528,17.8429 69.0083,23.9244 102.575,19.7209 33.5398,-4.2 65.3067,-18.6307 91.5107,-41.8181 30.0508,-26.5925 53.0103,-64.8662 63.3993,-112.748l10.624 -17.6256c57.4347,-48.8162 93.515,-97.7824 102.214,-146.917 8.34568,-47.1402 -8.97993,-96.9851 -57.6248,-150.112l-9.06024 -9.8941 0.68504 -13.2307c4.50827,-87.1028 -11.2406,-147.108 -42.6485,-186.161 -30.4488,-37.8614 -77.4473,-57.4394 -136.133,-64.0985l-18.8043 -2.13307 -7.19646 -17.4921c-42.9485,-104.386 -91.6217,-172.629 -147.756,-193.742 -52.9217,-19.9063 -117.504,3.60473 -196.455,80.6481l-18.7843 18.3319 -21.5906 -14.9575c-63.6863,-44.1225 -117.515,-61.252 -162.487,-54.1489 -43.3725,6.8504 -80.98,37.4634 -113.472,89.1237l-9.46064 15.0425 -17.7898 -0.166536c-81.3367,-0.758268 -139.553,14.778 -171.919,48.5315 -31.0784,32.4118 -39.75,85.1516 -23.6469,160.361l3.53859 16.5248 -11.7886 12.2256c-61.754,64.0524 -91.2355,123.319 -86.8335,177.555 4.36063,53.7201 42.6567,105.873 116.5,156.378l12.8764 8.80631 0.999213 15.5693c4.30512,67.0819 23.9386,115.824 52.3937,147.891 21.939,24.724 49.4835,39.6485 79.2745,45.4335 30.6284,5.94804 63.8906,2.37992 96.2894,-10.0028 48.9189,-18.6957 95.4591,-57.2292 128.35,-113.371l21.254 -36.2788 29.2453 30.2788c20.5736,21.3 46.904,30.3307 77.3575,31.0878z"/>
  <path class="fil2" d="M1075.91 1215.34c-28.2945,6.49016 -55.4209,10.0158 -81.0544,9.37796 -18.1134,-0.45 -35.3894,-2.91142 -51.704,-7.75749 -0.00354331,39.1595 -0.0106299,36.274 -0.00826772,37.7764 0.462992,186.612 0.718111,290.818 -33.4134,482.618l199.604 0c-34.1327,-191.809 -33.8788,-296.01 -33.4158,-482.639 0.00236221,-1.52244 -0.00590552,1.46339 -0.00826772,-39.3756z"/>
 </g>
 <rect class="fil3" width="2048" height="2048"/>
</svg>
