<?xml version="1.0" encoding="UTF-8"?>
<!DOCTYPE svg PUBLIC "-//W3C//DTD SVG 1.1//EN" "http://www.w3.org/Graphics/SVG/1.1/DTD/svg11.dtd">
<!-- Creator: CorelDRAW -->
<svg xmlns="http://www.w3.org/2000/svg" xml:space="preserve" width="2048px" height="2048px" style="shape-rendering:geometricPrecision; text-rendering:geometricPrecision; image-rendering:optimizeQuality; fill-rule:evenodd; clip-rule:evenodd"
viewBox="0 0 2048 2048"
 xmlns:xlink="http://www.w3.org/1999/xlink">
 <defs>
  <style type="text/css">
   <![CDATA[
    .fil3 {fill:none}
    .fil2 {fill:#949494}
    .fil1 {fill:#FECA5F}
    .fil0 {fill:#212121;fill-rule:nonzero}
   ]]>
  </style>
 </defs>
 <g id="Layer_x0020_1">
  <metadata id="CorelCorpID_0Corel-Layer"/>
  <path class="fil0" d="M1448.66 375.795c50.4189,33.0331 71.7745,97.395 66.0745,176.451 -4.20237,58.2898 -23.2536,125.656 -56.2099,194.052 75.8894,-1.1941 144.988,9.79135 199.599,30.4323 74.1993,28.0441 123.678,74.4627 132.484,134.086 7.85788,53.2004 -18.2752,105.621 -68.6989,150.611 -36.463,32.5323 -86.4509,61.6323 -145.507,84.1772 44.028,45.1937 77.1556,92.6387 96.6461,137.616 26.8677,61.9973 28.5886,120.515 -0.843308,165.439 -33.0331,50.4189 -97.395,71.7745 -176.451,66.0745 -58.2898,-4.20237 -125.656,-23.2536 -194.052,-56.2099 1.1941,75.8894 -9.79135,144.988 -30.4323,199.599 -28.0441,74.1993 -74.4627,123.678 -134.086,132.484 -53.2004,7.85788 -105.621,-18.2752 -150.611,-68.6989 -32.5323,-36.463 -61.6323,-86.4509 -84.1772,-145.507 -45.1937,44.028 -92.6387,77.1556 -137.616,96.6461 -61.9973,26.8677 -120.515,28.5886 -165.439,-0.843308 -50.4189,-33.0331 -71.7745,-97.395 -66.0745,-176.451 4.20237,-58.2898 23.2536,-125.656 56.2099,-194.052 -75.8894,1.1941 -144.988,-9.79135 -199.599,-30.4323 -74.1993,-28.0441 -123.678,-74.4627 -132.484,-134.086 -7.85788,-53.2004 18.2752,-105.621 68.6989,-150.611 36.463,-32.5323 86.4509,-61.6323 145.507,-84.1772 -44.028,-45.1937 -77.1556,-92.6387 -96.6461,-137.616 -26.8677,-61.9973 -28.5886,-120.515 0.843308,-165.439 33.0331,-50.4189 97.395,-71.7745 176.451,-66.0745 58.2898,4.20237 125.656,23.2536 194.052,56.2099 -1.1941,-75.8894 9.79135,-144.988 30.4323,-199.599 28.0441,-74.1993 74.4627,-123.678 134.086,-132.484 53.2004,-7.85788 105.621,18.2752 150.611,68.6989 32.5323,36.463 61.6323,86.4509 84.1772,145.507 45.1937,-44.028 92.6387,-77.1556 137.616,-96.6461 61.9973,-26.8677 120.515,-28.5886 165.439,0.843308zm2.32323 171.951c4.02402,-55.8048 -7.97717,-99.2245 -37.324,-118.452 -25.6571,-16.8083 -63.065,-14.0976 -105.189,4.15748 -49.0028,21.2351 -102.561,62.765 -152.178,119.614l-38.2737 43.852 -16.3512 -55.9772c-21.091,-72.2008 -52.3016,-132.35 -87.9898,-172.349 -30.5587,-34.2508 -63.3355,-52.4209 -93.6107,-47.9492 -34.715,5.12717 -63.828,39.4583 -83.5867,91.7339 -22.5473,59.654 -31.8166,140.33 -23.5146,228.898l5.77796 61.6359 -53.5288 -31.1362c-76.8792,-44.7178 -153.936,-70.1753 -217.468,-74.7568 -55.8048,-4.02402 -99.2245,7.97717 -118.452,37.324 -16.8083,25.6571 -14.0976,63.065 4.15748,105.189 21.2351,49.0028 62.765,102.561 119.614,152.178l43.852 38.2737 -55.9772 16.3512c-72.2008,21.091 -132.35,52.3016 -172.349,87.9898 -34.2508,30.5587 -52.4209,63.3355 -47.9492,93.6107 5.12717,34.715 39.4583,63.828 91.7339,83.5867 59.654,22.5473 140.33,31.8166 228.898,23.5146l61.6359 -5.77796 -31.1362 53.5288c-44.7178,76.8792 -70.1753,153.936 -74.7568,217.468 -4.02402,55.8048 7.97717,99.2245 37.324,118.452 25.6571,16.8083 63.065,14.0976 105.189,-4.15748 49.0028,-21.2351 102.561,-62.765 152.178,-119.614l38.2737 -43.852 16.3512 55.9772c21.091,72.2008 52.3016,132.35 87.9898,172.349 30.5587,34.2508 63.3355,52.4209 93.6107,47.9492 34.715,-5.12717 63.828,-39.4583 83.5867,-91.7339 22.5473,-59.654 31.8166,-140.33 23.5146,-228.898l-5.77796 -61.6359 53.5288 31.1362c76.8792,44.7178 153.936,70.1753 217.468,74.7568 55.8048,4.02402 99.2245,-7.97717 118.452,-37.324 16.8083,-25.6571 14.0976,-63.065 -4.15748,-105.189 -21.2351,-49.0028 -62.765,-102.561 -119.614,-152.178l-43.852 -38.2737 55.9772 -16.3512c72.2008,-21.091 132.35,-52.3016 172.349,-87.9898 34.2508,-30.5587 52.4209,-63.3355 47.9492,-93.6107 -5.12717,-34.715 -39.4583,-63.828 -91.7339,-83.5867 -59.654,-22.5473 -140.33,-31.8166 -228.898,-23.5146l-61.6359 5.77796 31.1362 -53.5288c44.7178,-76.8792 70.1753,-153.936 74.7568,-217.468z"/>
  <path class="fil0" d="M1024 844.799c49.4811,0 94.2816,20.0587 126.711,52.4894 32.4307,32.4296 52.4894,77.23 52.4894,126.711 0,49.4811 -20.0587,94.2816 -52.4894,126.711 -32.4296,32.4307 -77.23,52.4894 -126.711,52.4894 -49.4811,0 -94.2816,-20.0587 -126.711,-52.4894 -32.4307,-32.4296 -52.4894,-77.23 -52.4894,-126.711 0,-49.4811 20.0587,-94.2816 52.4894,-126.711 32.4296,-32.4307 77.23,-52.4894 126.711,-52.4894zm81.4607 97.7398c-20.8441,-20.8453 -49.6453,-33.7382 -81.4607,-33.7382 -31.8154,0 -60.6166,12.8929 -81.4607,33.7382 -20.8453,20.8441 -33.7382,49.6453 -33.7382,81.4607 0,31.8154 12.8929,60.6166 33.7382,81.4607 20.8441,20.8453 49.6453,33.7382 81.4607,33.7382 31.8154,0 60.6166,-12.8929 81.4607,-33.7382 20.8453,-20.8441 33.7382,-49.6453 33.7382,-81.4607 0,-31.8154 -12.8929,-60.6166 -33.7382,-81.4607z"/>
  <path class="fil1" d="M1024 844.799c49.4811,0 94.2816,20.0587 126.711,52.4894 32.4307,32.4296 52.4894,77.23 52.4894,126.711 0,49.4811 -20.0587,94.2816 -52.4894,126.711 -32.4296,32.4307 -77.23,52.4894 -126.711,52.4894 -49.4811,0 -94.2816,-20.0587 -126.711,-52.4894 -32.4307,-32.4296 -52.4894,-77.23 -52.4894,-126.711 0,-49.4811 20.0587,-94.2816 52.4894,-126.711 32.4296,-32.4307 77.23,-52.4894 126.711,-52.4894zm426.983 -297.053c4.02402,-55.8048 -7.97717,-99.2245 -37.324,-118.452 -25.6571,-16.8083 -63.065,-14.0976 -105.189,4.15748 -49.0028,21.2351 -102.561,62.765 -152.178,119.614l-38.2737 43.852 -16.3512 -55.9772c-21.091,-72.2008 -52.3016,-132.35 -87.9898,-172.349 -30.5587,-34.2508 -63.3355,-52.4209 -93.6107,-47.9492 -34.715,5.12717 -63.828,39.4583 -83.5867,91.7339 -22.5473,59.654 -31.8166,140.33 -23.5146,228.898l5.77796 61.6359 -53.5288 -31.1362c-76.8792,-44.7178 -153.936,-70.1753 -217.468,-74.7568 -55.8048,-4.02402 -99.2245,7.97717 -118.452,37.324 -16.8083,25.6571 -14.0976,63.065 4.15748,105.189 21.2351,49.0028 62.765,102.561 119.614,152.178l43.852 38.2737 -55.9772 16.3512c-72.2008,21.091 -132.35,52.3016 -172.349,87.9898 -34.2508,30.5587 -52.4209,63.3355 -47.9492,93.6107 5.12717,34.715 39.4583,63.828 91.7339,83.5867 59.654,22.5473 140.33,31.8166 228.898,23.5146l61.6359 -5.77796 -31.1362 53.5288c-44.7178,76.8792 -70.1753,153.936 -74.7568,217.468 -4.02402,55.8048 7.97717,99.2245 37.324,118.452 25.6571,16.8083 63.065,14.0976 105.189,-4.15748 49.0028,-21.2351 102.561,-62.765 152.178,-119.614l38.2737 -43.852 16.3512 55.9772c21.091,72.2008 52.3016,132.35 87.9898,172.349 30.5587,34.2508 63.3355,52.4209 93.6107,47.9492 34.715,-5.12717 63.828,-39.4583 83.5867,-91.7339 22.5473,-59.654 31.8166,-140.33 23.5146,-228.898l-5.77796 -61.6359 53.5288 31.1362c76.8792,44.7178 153.936,70.1753 217.468,74.7568 55.8048,4.02402 99.2245,-7.97717 118.452,-37.324 16.8083,-25.6571 14.0976,-63.065 -4.15748,-105.189 -21.2351,-49.0028 -62.765,-102.561 -119.614,-152.178l-43.852 -38.2737 55.9772 -16.3512c72.2008,-21.091 132.35,-52.3016 172.349,-87.9898 34.2508,-30.5587 52.4209,-63.3355 47.9492,-93.6107 -5.12717,-34.715 -39.4583,-63.828 -91.7339,-83.5867 -59.654,-22.5473 -140.33,-31.8166 -228.898,-23.5146l-61.6359 5.77796 31.1362 -53.5288c44.7178,-76.8792 70.1753,-153.936 74.7568,-217.468z"/>
  <path class="fil2" d="M1105.46 942.539c-20.8441,-20.8453 -49.6453,-33.7382 -81.4607,-33.7382 -31.8154,0 -60.6166,12.8929 -81.4607,33.7382 -20.8453,20.8441 -33.7382,49.6453 -33.7382,81.4607 0,31.8154 12.8929,60.6166 33.7382,81.4607 20.8441,20.8453 49.6453,33.7382 81.4607,33.7382 31.8154,0 60.6166,-12.8929 81.4607,-33.7382 20.8453,-20.8441 33.7382,-49.6453 33.7382,-81.4607 0,-31.8154 -12.8929,-60.6166 -33.7382,-81.4607z"/>
 </g>
 <rect class="fil3" width="2048" height="2048"/>
</svg>
