<?xml version="1.0" encoding="UTF-8"?>
<!DOCTYPE svg PUBLIC "-//W3C//DTD SVG 1.1//EN" "http://www.w3.org/Graphics/SVG/1.1/DTD/svg11.dtd">
<!-- Creator: CorelDRAW -->
<svg xmlns="http://www.w3.org/2000/svg" xml:space="preserve" width="2048px" height="2048px" style="shape-rendering:geometricPrecision; text-rendering:geometricPrecision; image-rendering:optimizeQuality; fill-rule:evenodd; clip-rule:evenodd"
viewBox="0 0 2048 2048"
 xmlns:xlink="http://www.w3.org/1999/xlink">
 <defs>
  <style type="text/css">
   <![CDATA[
    .fil4 {fill:none}
    .fil3 {fill:#949494}
    .fil2 {fill:#EBE5DF}
    .fil0 {fill:#F19A7B}
    .fil1 {fill:#212121;fill-rule:nonzero}
   ]]>
  </style>
 </defs>
 <g id="Layer_x0020_1">
  <metadata id="CorelCorpID_0Corel-Layer"/>
  <path class="fil0" d="M841.449 1166.43c-23.7225,74.4438 -56.2512,176.525 20.0823,296.413 52.0229,9.79725 106.435,14.9917 162.468,14.9917 30.3839,0 60.2918,-1.52717 89.6009,-4.48819 85.1717,-124.434 51.4323,-230.31 27.0189,-306.92 -2.23465,-7.01221 -4.40906,-13.8331 -6.02363,-18.9614 -35.4768,3.15236 -71.693,6.11693 -108.411,8.92442 -26.6433,2.0374 -54.3993,3.28465 -82.9725,3.80315 -33.2929,0.607087 -66.5162,0.0992127 -99.3308,-1.39606 -0.785434,2.46851 -1.60512,5.03859 -2.43189,7.63347z"/>
  <path class="fil1" d="M1759.99 954.484c0.97441,65.941 -89.2713,110.296 -232.904,140.643 -130.725,27.6201 -308.946,46.5792 -500.904,61.2579 -26.6433,2.0374 -54.3993,3.28465 -82.9725,3.80315 -159.401,2.90906 -317.214,-19.7528 -436.105,-54.0189 -128.3,-36.9768 -214.733,-91.239 -219,-147.045 -0.0248032,-0.333071 -0.0590552,-1.59567 -0.100394,-3.83504 -1.1185,-61.3359 129.81,-106.368 314.923,-132.572 0.249213,19.7032 2.02914,38.928 5.18386,57.4571 -154.16,19.1551 -261.978,45.0886 -261.447,74.1945 0.0141732,0.836221 0.0188977,-0.690945 0.0992127,0.383859 2.24646,29.3941 71.9693,64.9489 176.441,95.0587 113.881,32.8217 265.474,54.5197 419.085,51.717 25.6075,-0.465355 52.1457,-1.71024 79.5213,-3.80315 43.376,-3.31654 86.0091,-6.84922 127.501,-10.6453 47.2099,15.8221 100.737,8.93623 151.811,-15.8504 80.0032,-9.59174 152.612,-20.6398 214.001,-33.6107 114.562,-24.2043 186.664,-51.3615 186.206,-82.4446 -0.548032,-37.1292 -90.8953,-63.7878 -224.103,-80.9292 7.39134,-18.4394 13.1079,-36.8835 17.1921,-55.0571 157.095,24.6792 264.584,68.5276 265.57,135.295zm-717.632 -102.232c-6.64961,0.0673229 -13.3016,0.148819 -19.95,0.246851 1.04882,-11.3445 1.59095,-22.8945 1.59095,-34.6075 0,-8.10827 -0.261024,-16.1386 -0.768898,-24.078 11.8772,-0.17126 23.7484,-0.294095 35.602,-0.367323 -7.39016,19.7575 -12.8646,39.4713 -16.474,58.806z"/>
  <path class="fil1" d="M1762.66 964.472c0,160.997 -83.8749,306.226 -219.477,410.876 -133.284,102.861 -316.878,166.484 -519.186,166.484 -202.306,0 -385.901,-63.6225 -519.186,-166.484 -135.602,-104.65 -219.477,-249.879 -219.477,-410.876l64.0016 0c0,140.195 74.3197,267.647 194.476,360.377 122.476,94.5178 292.214,152.981 480.186,152.981 187.971,0 357.711,-58.4634 480.186,-152.981 120.156,-92.7296 194.476,-220.182 194.476,-360.377l64.0016 0z"/>
  <path class="fil1" d="M1350.26 1183.13c-17.6043,-1.31102 -32.9398,11.8961 -34.2508,29.5004 -1.31102,17.6043 11.8961,32.9398 29.5004,34.2508 45.2398,3.4063 89.954,-0.351969 134.154,-10.9996 43.7445,-10.539 86.6965,-27.8421 128.881,-51.6367 15.3248,-8.62914 20.7543,-28.05 12.1252,-43.3748 -8.62914,-15.3248 -28.05,-20.7543 -43.3748,-12.1252 -37.0087,20.8748 -74.4662,36.0012 -112.381,45.1359 -37.4587,9.02363 -75.6697,12.1843 -114.654,9.24922z"/>
  <path class="fil1" d="M729.682 1269.93c17.6043,-0.068504 31.8189,-14.3965 31.7504,-32.0008 -0.068504,-17.6043 -14.3965,-31.8189 -32.0008,-31.7504 -42.463,0.170079 -84.2658,-4.70315 -125.424,-14.4248 -40.8603,-9.64961 -80.9812,-24.1914 -120.386,-43.4244 -15.8776,-7.7315 -35.0185,-1.12677 -42.75,14.7508 -7.7315,15.8776 -1.12677,35.0185 14.7508,42.75 43.5107,21.2374 88.1257,37.3677 133.886,48.1748 45.4571,10.7374 92.1686,16.1173 140.173,15.9248z"/>
  <path class="fil1" d="M1120.02 1322.85c17.2583,-3.72756 28.2272,-20.7414 24.4996,-37.9996 -3.72756,-17.2583 -20.7414,-28.2272 -37.9996,-24.4996 -42.013,9.20906 -83.8961,13.2945 -125.647,12.45 -41.9622,-0.846851 -84.2764,-6.64134 -126.921,-17.1815 -17.1201,-4.21063 -34.415,6.25512 -38.6256,23.3752 -4.21063,17.1201 6.25512,34.415 23.3752,38.6256 46.9264,11.5984 93.9024,17.9823 140.922,18.9319 47.2323,0.954331 94.0394,-3.53977 140.397,-13.702z"/>
  <path class="fil1" d="M849.716 1140.22c-1.16929,3.92835 -4.6441,14.8299 -8.26772,26.2016 -24.8646,78.0296 -59.406,186.424 31.8839,313.862l-51.9993 37.2496c-109.808,-153.287 -69.5882,-279.503 -40.6359,-370.361 2.07284,-6.50434 4.06418,-12.7512 7.7693,-25.2024l61.2497 18.2504z"/>
  <path class="fil1" d="M1193.6 1121.97c3.69685,12.4217 5.69646,18.6969 7.76812,25.1988 28.9536,90.8599 69.1749,217.074 -40.6347,370.364l-51.9993 -37.2496c91.291,-127.44 56.7485,-235.834 31.8827,-313.865 -3.62481,-11.3717 -7.08898,-22.2414 -8.26654,-26.1981l61.2497 -18.2504z"/>
  <path class="fil1" d="M1495.09 1074c3.70512,12.4476 5.69882,18.704 7.76812,25.1988 23.211,72.8363 53.7059,168.536 6.94607,284.785l-59.2512 -23.7496c38.2772,-95.1627 11.7473,-178.42 -8.44607,-241.786 -3.62599,-11.3799 -7.09725,-22.2697 -8.26654,-26.1981l61.2497 -18.2504z"/>
  <path class="fil1" d="M583.516 1092.25c-1.15394,3.87992 -4.63937,14.8146 -8.26536,26.1957 -20.1933,63.3674 -46.7244,146.626 -8.44607,241.788l-59.2512 23.7496c-46.7611,-116.251 -16.265,-211.95 6.94607,-284.788 2.06811,-6.49134 4.04764,-12.6992 7.76694,-25.1965l61.2497 18.2504z"/>
  <path class="fil1" d="M813.447 538.17c60.0024,0 113.648,32.674 151.872,85.4965 36.254,50.1012 58.6808,118.802 58.6808,194.225 0,75.4217 -22.4268,144.123 -58.6808,194.224 -38.224,52.8225 -91.8698,85.4965 -151.872,85.4965 -60.0036,0 -113.647,-32.674 -151.871,-85.4965 -36.2575,-50.1024 -58.6819,-118.804 -58.6819,-194.224 0,-75.4205 22.4244,-144.123 58.6819,-194.225 38.224,-52.8225 91.8674,-85.4965 151.871,-85.4965zm104.254 120.001c-27.3213,-37.7563 -64.2331,-61.1115 -104.254,-61.1115 -40.0217,0 -76.9323,23.3551 -104.254,61.1115 -29.2914,40.4776 -47.4095,96.9178 -47.4095,159.721 0,62.8028 18.1181,119.242 47.4095,159.719 27.3213,37.7563 64.2319,61.1115 104.254,61.1115 40.0205,0 76.9323,-23.3551 104.254,-61.1115 29.2902,-40.4776 47.4095,-96.9166 47.4095,-159.719 0,-62.804 -18.1193,-119.243 -47.4095,-159.721z"/>
  <path class="fil1" d="M1401.81 576.939c3.84095,1.64291 7.85197,3.58465 12.0189,5.81339 46.1528,24.6697 74.8666,69.9756 84.6355,125.421 9.16182,52.0052 1.42913,113.378 -24.6272,174.267 -4.31457,10.0854 -9.29646,20.4414 -14.9551,31.0276 -36.1134,67.5591 -88.8532,120.37 -144.926,151.135 -59.1497,32.4544 -122.666,41.0044 -176.527,17.9563 -3.84095,-1.64291 -7.85197,-3.58465 -12.0201,-5.81339 -46.1504,-24.6685 -74.8642,-69.9756 -84.6343,-125.421 -9.16182,-52.0063 -1.42913,-113.376 24.6272,-174.266 4.31457,-10.0843 9.29646,-20.439 14.9551,-31.0264 36.1134,-67.5591 88.8544,-120.371 144.926,-151.136 59.1497,-32.4555 122.666,-41.0044 176.527,-17.9575zm-15.5847 57.5729c-2.11417,-1.13032 -4.58622,-2.30315 -7.41851,-3.51496 -36.3733,-15.5646 -81.567,-8.52875 -125.229,15.4276 -46.7386,25.6453 -90.9201,70.076 -121.461,127.212 -4.54489,8.50276 -8.76497,17.3315 -12.6555,26.4248 -21.4677,50.165 -27.9969,99.8233 -20.7177,141.142 6.67441,37.878 25.115,68.2004 54.2705,83.7839 2.11417,1.13032 4.58622,2.30315 7.41851,3.51496 36.3733,15.5646 81.567,8.52875 125.229,-15.4264 46.7398,-25.6453 90.9213,-70.076 121.461,-127.211 4.54489,-8.50276 8.76615,-17.3327 12.6567,-26.426 21.4654,-50.1638 27.9957,-99.8245 20.7166,-141.143 -6.67323,-37.8768 -25.115,-68.2004 -54.2705,-83.7839z"/>
  <path class="fil2" d="M965.11 817.892c0,-62.804 -18.1193,-119.243 -47.4095,-159.721 -27.3213,-37.7563 -64.2331,-61.1115 -104.254,-61.1115 -40.0217,0 -76.9323,23.3551 -104.254,61.1115 -29.2914,40.4776 -47.4095,96.9178 -47.4095,159.721 0,62.8028 18.1181,119.242 47.4095,159.719 27.3213,37.7563 64.2319,61.1115 104.254,61.1115 40.0205,0 76.9323,-23.3551 104.254,-61.1115 29.2902,-40.4776 47.4095,-96.9166 47.4095,-159.719z"/>
  <path class="fil2" d="M1132.11 773.637c-4.54489,8.50276 -8.76497,17.3315 -12.6555,26.4248 -21.4677,50.165 -27.9969,99.8233 -20.7177,141.142 6.67441,37.878 25.115,68.2004 54.2705,83.7839 2.11417,1.13032 4.58622,2.30315 7.41851,3.51496 36.3733,15.5646 81.567,8.52875 125.229,-15.4264 46.7398,-25.6453 90.9213,-70.076 121.461,-127.211 4.54489,-8.50276 8.76615,-17.3327 12.6567,-26.426 21.4654,-50.1638 27.9957,-99.8245 20.7166,-141.143 -6.67323,-37.8768 -25.115,-68.2004 -54.2705,-83.7839 -2.11417,-1.13032 -4.58622,-2.30315 -7.41851,-3.51496 -36.3733,-15.5646 -81.567,-8.52875 -125.229,15.4276 -46.7386,25.6453 -90.9201,70.076 -121.461,127.212z"/>
  <path class="fil3" d="M1458.88 913.469c-36.1134,67.5591 -88.8532,120.37 -144.926,151.135 -4.25433,2.33386 -8.53229,4.54489 -12.828,6.62599 80.0032,-9.59174 152.612,-20.6398 214.001,-33.6107 101.391,-21.4217 169.523,-45.1559 183.532,-71.8772 0.0011811,-0.422835 0.00236221,-0.846851 0.00236221,-1.26969l0.62126 0c1.40315,-3.06024 2.09646,-6.15827 2.0504,-9.29764 -0.548032,-37.1292 -90.8953,-63.7878 -224.101,-80.9292 -1.09488,2.73307 -2.22756,5.46496 -3.39567,8.19568 -4.31457,10.0854 -9.29646,20.4414 -14.9551,31.0276z"/>
  <path class="fil3" d="M1125.41 1076.75c-46.1504,-24.6685 -74.8642,-69.9756 -84.6343,-125.421 -5.36811,-30.4701 -4.93583,-64.1552 1.58622,-99.0733 -6.64961,0.0673229 -13.3016,0.148819 -19.95,0.246851 -5.70827,61.7044 -26.4662,117.297 -57.0898,159.617 -38.224,52.8225 -91.8698,85.4965 -151.872,85.4965 -60.0036,0 -113.647,-32.674 -151.871,-85.4965 -25.9736,-35.8914 -44.8477,-81.3272 -53.4626,-131.941 -154.16,19.1551 -261.978,45.0886 -261.447,74.1945 0.0141732,0.836221 0.0188977,-0.690945 0.0992127,0.383859 2.24646,29.3941 71.9693,64.9489 176.441,95.0587 113.881,32.8217 265.474,54.5197 419.085,51.717 25.6075,-0.465355 52.1457,-1.71024 79.5213,-3.80315 43.3713,-3.31654 85.9985,-6.84804 127.486,-10.6441 -4.00512,-1.34291 -7.96418,-2.84882 -11.8725,-4.52126 -3.84095,-1.64291 -7.85197,-3.58465 -12.0201,-5.81339z"/>
  <path class="fil0" d="M511.851 1107.53c-1.58858,-0.45 -3.17008,-0.902363 -4.74449,-1.35591 -60.7099,-17.4969 -112.044,-38.8642 -149.737,-62.4331 17.25,84.3107 61.5579,161.954 125.906,227.512 -0.627166,-17.9185 0.236221,-35.1756 2.13071,-51.7583 -9.98505,-4.28977 -19.9134,-8.84528 -29.7839,-13.663 -15.8776,-7.7315 -22.4823,-26.8725 -14.7508,-42.75 7.7315,-15.8776 26.8725,-22.4823 42.75,-14.7508 4.72678,2.30669 9.46418,4.54607 14.211,6.71812 4.38426,-16.741 9.28347,-32.5866 14.0185,-47.5193z"/>
  <path class="fil0" d="M573.736 1123.21c-5.44961,17.1343 -11.2228,35.6646 -15.9768,55.4398 15.3106,5.06693 30.7264,9.4382 46.2485,13.1043 41.1579,9.72166 82.9607,14.5949 125.424,14.4248 13.0169,-0.0507874 24.2433,7.70906 29.237,18.8728 5.58189,-25.3689 12.835,-48.9284 19.7055,-70.5745 -72.8162,-6.27402 -142.351,-17.1921 -204.638,-31.2673z"/>
  <path class="fil0" d="M729.682 1269.93c-48.0048,0.19252 -94.7162,-5.18741 -140.173,-15.9248 -13.9984,-3.30591 -27.8882,-7.11024 -41.674,-11.4059 -1.71378,29.2311 0.722835,60.365 10.3961,93.0544 62.9351,45.7689 137.366,82.3394 219.682,106.925 -29.8595,-67.2355 -32.9055,-128.261 -25.5709,-182.232 -5.75788,5.88426 -13.7764,9.54922 -22.6595,9.58347z"/>
  <path class="fil0" d="M1201.37 1147.17c25.3205,79.4587 59.2583,185.955 -6.06615,313.954 95.5867,-19.0559 182.873,-53.6953 257.013,-100.179l-1.76811 -0.708662c17.4496,-43.3831 21.4311,-84.2918 18.6839,-121.969 -40.8,8.81103 -82.0383,11.7543 -123.722,8.61615 -17.6043,-1.31102 -30.8114,-16.6465 -29.5004,-34.2508 1.31102,-17.6043 16.6465,-30.8114 34.2508,-29.5004 36.8575,2.77441 73.0241,0.101575 108.517,-7.82481 -5.04449,-20.3563 -11.1012,-39.365 -16.676,-56.8571 -0.778347,-2.4437 -1.55079,-4.86615 -2.2937,-7.20001 -71.9233,11.687 -153.281,21.5693 -240.275,30.137 0.635434,2.01378 1.23307,3.88819 1.83662,5.78268z"/>
  <path class="fil0" d="M1503.11 1100c5.57126,17.4851 11.5441,36.2823 16.7551,56.3575 19.2638,-7.65945 38.4083,-16.8721 57.4347,-27.6036 15.3248,-8.62914 34.7457,-3.19961 43.3748,12.1252 8.62914,15.3248 3.19961,34.7457 -12.1252,43.3748 -25.2402,14.237 -50.7544,26.1496 -76.5497,35.6799 2.92677,25.9028 3.33544,53.4461 -0.526772,82.5816 82.8509,-71.9741 139.786,-161.747 159.529,-260.615 -40.0418,21.4087 -96.0107,38.8855 -163.911,53.2311 -7.82599,1.65354 -15.8221,3.27638 -23.9811,4.86851z"/>
 </g>
 <rect class="fil4" width="2048" height="2048"/>
</svg>
