<?xml version="1.0" encoding="UTF-8"?>
<!DOCTYPE svg PUBLIC "-//W3C//DTD SVG 1.1//EN" "http://www.w3.org/Graphics/SVG/1.1/DTD/svg11.dtd">
<!-- Creator: CorelDRAW -->
<svg xmlns="http://www.w3.org/2000/svg" xml:space="preserve" width="2048px" height="2048px" style="shape-rendering:geometricPrecision; text-rendering:geometricPrecision; image-rendering:optimizeQuality; fill-rule:evenodd; clip-rule:evenodd"
viewBox="0 0 2048 2048"
 xmlns:xlink="http://www.w3.org/1999/xlink">
 <defs>
  <style type="text/css">
   <![CDATA[
    .fil4 {fill:none}
    .fil1 {fill:#212121}
    .fil3 {fill:#EBE5DF}
    .fil2 {fill:#FECA5F}
    .fil0 {fill:#212121;fill-rule:nonzero}
   ]]>
  </style>
 </defs>
 <g id="Layer_x0020_1">
  <metadata id="CorelCorpID_0Corel-Layer"/>
  <path class="fil0" d="M943.972 1219.45c311.753,-2.37284 354.579,-184.083 397.235,-365.125 15.1453,-64.2804 30.274,-128.486 56.2063,-187.212 10.4504,-23.6681 18.6343,-43.0996 17.1402,-54.6532 -1.01693,-7.86851 -10.2024,-15.6307 -33.7607,-24.6792 -37.3855,-14.3622 -71.6941,-16.6039 -103.042,-7.20591 -30.939,9.2752 -60.0107,30.078 -87.2847,61.9477 -133.249,290.933 -353.231,233.081 -682.295,146.467 -52.4953,-13.8165 -107.904,-28.4032 -165.66,-42.2268l11.0752 74.5477 297.919 144.895 15.124 15.5008c33.0803,72.2245 71.791,131.712 118.448,173.191 44.5075,39.5693 96.7253,62.6871 158.895,64.552zm459.486 -350.626c-48.4382,205.585 -97.0583,411.937 -459.917,414.388l-1.00039 0c-78.6816,-2.26654 -144.358,-31.1292 -199.964,-80.5642 -51.1725,-45.4937 -93.3509,-108.424 -129.046,-183.913l-302.965 -147.349 -15.2681 -7.4256 -2.4815 -16.6996 -20.4414 -137.599 -6.83741 -46.03 45.463 10.2791c76.715,17.3457 147.378,35.9457 213.421,53.328 299.177,78.7477 498.743,131.275 609.616,-114.894l4.6252 -7.24961c36.3626,-43.6996 76.591,-72.5044 120.839,-85.7705 44.9044,-13.4622 92.8772,-10.6984 144.043,8.95631 49.6382,19.0654 70.1221,44.1591 74.2607,76.1776 3.66378,28.3311 -7.50473,55.8237 -21.8906,88.4044 -23.5736,53.3847 -38.0055,114.637 -52.4552,175.961z"/>
  <polygon class="fil0" points="1459,604.33 1635.75,744.041 1596.25,794.042 1419.5,654.331 "/>
  <path class="fil0" d="M322.282 751.247c-12.4772,-4.45158 -26.204,2.05394 -30.6555,14.5311 -4.45158,12.4772 2.05394,26.204 14.5311,30.6555l308.327 110.222c12.4772,4.45158 26.204,-2.05394 30.6555,-14.5311 4.45158,-12.4772 -2.05394,-26.204 -14.5311,-30.6555l-308.327 -110.222z"/>
  <polygon class="fil0" points="904.853,1240.44 904.853,1456.6 840.851,1456.6 840.851,1240.44 "/>
  <path class="fil0" d="M750.379 1477.68c-8.55946,15.3945 -3.0189,34.8154 12.3756,43.3748 15.3945,8.55946 34.8154,3.0189 43.3748,-12.3756 9.15355,-16.3665 21.3402,-27.0544 34.5957,-32.7378 9.69213,-4.15512 20.1662,-5.74489 30.5859,-5.0126 10.5874,0.744095 21.0721,3.91063 30.6036,9.24095 14.1508,7.91457 26.1768,20.6421 33.3508,37.376 6.90237,16.2225 25.6524,23.778 41.8748,16.8756 16.2225,-6.90237 23.778,-25.6524 16.8756,-41.8748 -13.011,-30.3473 -35.0528,-53.5571 -61.102,-68.1272 -17.7614,-9.93426 -37.4067,-15.8398 -57.3532,-17.2417 -20.1166,-1.41496 -40.5922,1.76339 -59.8347,10.0134 -25.6536,10.9996 -48.7465,30.8067 -65.3469,60.489z"/>
  <polygon class="fil0" points="1168.47,1240.44 1168.47,1456.6 1104.47,1456.6 1104.47,1240.44 "/>
  <path class="fil0" d="M1014 1477.68c-8.55946,15.3945 -3.0189,34.8154 12.3756,43.3748 15.3945,8.55946 34.8154,3.0189 43.3748,-12.3756 9.15237,-16.3665 21.3402,-27.0544 34.5957,-32.7378 9.69213,-4.15512 20.1662,-5.74489 30.5847,-5.0126 10.5874,0.745276 21.0709,3.90945 30.6024,9.24095 14.152,7.91339 26.1768,20.641 33.352,37.376 6.90237,16.2225 25.6524,23.778 41.8748,16.8756 16.2225,-6.90237 23.778,-25.6524 16.8756,-41.8748 -13.011,-30.3484 -35.0516,-53.5595 -61.1032,-68.1272 -17.7591,-9.93308 -37.4044,-15.8386 -57.352,-17.2417 -20.1154,-1.41496 -40.591,1.76339 -59.8335,10.0134 -25.6524,10.9973 -48.7465,30.8067 -65.3469,60.489z"/>
  <circle class="fil1" cx="1290.35" cy="691.42" r="33.9641"/>
  <path class="fil0" d="M1747.5 617.932c17.5347,-1.93228 30.1831,-17.7154 28.2508,-35.25 -1.93228,-17.5347 -17.7154,-30.1831 -35.25,-28.2508 -146.612,16.2898 -144.373,118.812 -142.194,218.801 1.19528,54.8197 2.36811,108.605 -30.6815,128.434 -15.1181,9.04253 -20.0433,28.6323 -11.0008,43.7504 9.04253,15.1181 28.6323,20.0433 43.7504,11.0008 64.8567,-38.9138 63.2859,-110.98 61.6831,-184.435 -1.55197,-71.2016 -3.1441,-144.208 85.4422,-154.05z"/>
  <polygon class="fil0" points="1382.96,770.871 1594.68,746.476 1601.93,809.977 1390.21,834.372 "/>
  <path class="fil0" d="M1689.25 1366.72c12.3567,12.5646 32.5607,12.7323 45.1252,0.375591 12.5646,-12.3567 12.7323,-32.5607 0.375591,-45.1252 -80.8583,-81.939 -141.395,-31.989 -200.436,16.728 -28.7173,23.6977 -56.8937,46.9465 -78.4241,38.7863 -16.4988,-6.2126 -34.9122,2.12599 -41.1248,18.6248 -6.2126,16.4988 2.12599,34.9122 18.6248,41.1248 55.9819,21.2173 98.295,-13.6961 141.424,-49.2863 36.8433,-30.4004 74.6233,-61.5721 114.435,-21.228z"/>
  <path class="fil2" d="M943.972 1219.45c311.753,-2.37284 354.579,-184.083 397.235,-365.125 15.1453,-64.2804 30.274,-128.486 56.2063,-187.212 10.4504,-23.6681 18.6343,-43.0996 17.1402,-54.6532 -1.01693,-7.86851 -10.2024,-15.6307 -33.7607,-24.6792 -37.3855,-14.3622 -71.6941,-16.6039 -103.042,-7.20591 -30.939,9.2752 -60.0107,30.078 -87.2847,61.9477 -133.249,290.933 -353.231,233.081 -682.295,146.467 -52.4953,-13.8165 -107.904,-28.4032 -165.66,-42.2268l1.8378 12.3685 286.26 102.333c12.4772,4.45158 18.9827,18.1784 14.5311,30.6555 -4.45158,12.4772 -18.1784,18.9827 -30.6555,14.5311l-262.142 -93.7111 1.2437 8.37048 297.919 144.895 15.124 15.5008c33.0803,72.2245 71.791,131.712 118.448,173.191 44.5075,39.5693 96.7253,62.6871 158.895,64.552zm312.411 -528.033c0,-18.7583 15.2055,-33.965 33.9638,-33.965 18.7583,0 33.965,15.2067 33.965,33.965 0,18.7583 -15.2067,33.9638 -33.965,33.9638 -18.7583,0 -33.9638,-15.2055 -33.9638,-33.9638z"/>
  <path class="fil3" d="M1429.85 765.468l113.68 -13.0984 -84.4406 -66.7441c-1.03701,2.38701 -2.09646,4.8 -3.17481,7.24134 -10.135,22.9524 -18.5811,47.3599 -26.0646,72.6012z"/>
 </g>
 <rect class="fil4" width="2048" height="2048"/>
</svg>
