<?xml version="1.0" encoding="UTF-8"?>
<!DOCTYPE svg PUBLIC "-//W3C//DTD SVG 1.1//EN" "http://www.w3.org/Graphics/SVG/1.1/DTD/svg11.dtd">
<!-- Creator: CorelDRAW -->
<svg xmlns="http://www.w3.org/2000/svg" xml:space="preserve" width="2048px" height="2048px" style="shape-rendering:geometricPrecision; text-rendering:geometricPrecision; image-rendering:optimizeQuality; fill-rule:evenodd; clip-rule:evenodd"
viewBox="0 0 2048 2048"
 xmlns:xlink="http://www.w3.org/1999/xlink">
 <defs>
  <style type="text/css">
   <![CDATA[
    .fil3 {fill:none}
    .fil2 {fill:#949494}
    .fil1 {fill:#C794BE}
    .fil0 {fill:#212121;fill-rule:nonzero}
   ]]>
  </style>
 </defs>
 <g id="Layer_x0020_1">
  <metadata id="CorelCorpID_0Corel-Layer"/>
  <path class="fil0" d="M1107.9 1477.26c-23.9386,-41.8949 -41.0693,-82.2284 -52.1327,-120.825 -11.7602,-41.0221 -16.6264,-80.2465 -15.4984,-117.449l6.99449 -230.555 0.750001 -6.37441c14.0894,-60.2434 41.9339,-119.561 78.9449,-175.077 67.2142,-100.82 165.398,-190.1 266.136,-249.631 103.526,-61.1811 211.26,-91.4469 294.072,-72.0804 19.8154,4.63347 38.2784,12.0532 55.0394,22.4882 49.7953,15.4016 58.8024,61.8367 43.0052,125.032 -25.6925,102.775 -124.58,263.306 -192.294,373.227 -12.4299,20.1768 -23.7508,38.5536 -34.3229,56.1756l-1.6252 2.5004c-17.778,24.2398 -39.6579,39.515 -64.6453,47.98 -4.70079,1.59213 -9.48308,2.92914 -14.3445,4.0252 37.037,74.5217 28.6075,166.839 -7.13268,244.882 -15.2658,33.3343 -35.6233,64.2508 -59.5878,90.1194 -24.5575,26.5075 -53.0079,47.7981 -83.8489,61.1682 -67.3938,29.217 -143.912,21.6177 -214.384,-48.8563l-5.12481 -6.75001zm9.36733 -138.324c9.32481,32.5311 23.7662,66.7914 43.93,102.685 47.8146,46.0595 97.7587,51.4748 140.962,32.7449 22.4752,-9.7441 43.6571,-25.7421 62.3481,-45.9178 19.2839,-20.8158 35.8004,-45.9898 48.339,-73.369 34.7551,-75.893 38.1685,-167.276 -16.9181,-225.61l26.5004 -53.6256c18.4335,1.94646 35.1638,1.14803 49.3949,-3.67323 12.5528,-4.25197 23.7024,-12.0142 33.0036,-24.3685 9.03662,-15.0272 20.8795,-34.2508 33.8386,-55.2874 65.4898,-106.312 161.132,-261.572 184.544,-355.227 6.94134,-27.7701 7.7315,-46.6347 -1.95945,-49.0571l-9.8752 -4.37481c-11.4165,-7.61103 -24.4276,-12.9969 -38.7083,-16.3358 -66.1016,-15.4583 -156.956,11.5713 -247.074,64.8284 -92.9068,54.9036 -183.436,137.21 -245.384,230.131 -32.465,48.6969 -56.8737,100.024 -69.3071,151.401l-6.88229 226.857c-0.925985,30.5138 3.23622,63.2788 13.2473,98.1993z"/>
  <path class="fil0" d="M886.808 1441.62c20.1638,-35.8925 34.604,-70.1528 43.93,-102.684 10.0099,-34.9205 14.1721,-67.6867 13.2473,-98.2005l-6.88347 -226.857c-12.4335,-51.3768 -36.8422,-102.705 -69.3071,-151.402 -61.9477,-92.9198 -152.476,-175.226 -245.382,-230.131 -90.1182,-53.2559 -180.971,-80.2855 -247.073,-64.8272 -14.2819,3.34016 -27.2929,8.72481 -38.7095,16.3358l-9.8752 4.37481c-9.69095,2.42244 -8.90079,21.287 -1.95945,49.0571 23.4118,93.6556 119.054,248.915 184.544,355.227 12.9591,21.0366 24.802,40.2603 33.8386,55.2874 9.30119,12.3543 20.4508,20.1166 33.0036,24.3685 14.2311,4.82126 30.9614,5.61969 49.3949,3.67323l26.5004 53.6256c-55.0878,58.3335 -51.6733,149.718 -16.9193,225.61 12.5386,27.3792 29.0551,52.5532 48.339,73.369 18.6898,20.1744 39.8729,36.1736 62.3481,45.9166 43.2048,18.7311 93.1489,13.3158 140.963,-32.7437zm105.43 -85.1847c-11.0646,38.5961 -28.1941,78.9296 -52.1327,120.823l-5.12481 6.75001c-70.4717,70.4729 -146.988,78.0745 -214.386,48.8552 -30.841,-13.3689 -59.2914,-34.6595 -83.8489,-61.167 -23.9646,-25.8685 -44.3221,-56.7851 -59.5878,-90.1194 -35.739,-78.0426 -44.1685,-170.36 -7.1315,-244.882 -4.86142,-1.09606 -9.64371,-2.43307 -14.3445,-4.0252 -24.9874,-8.46497 -46.8674,-23.7402 -64.6453,-47.98l-1.6252 -2.5004c-10.5721,-17.6221 -21.8929,-35.9988 -34.3229,-56.1756 -67.7138,-109.922 -166.602,-270.453 -192.294,-373.227 -15.7973,-63.1949 -6.79016,-109.63 43.0052,-125.032 16.761,-10.435 35.224,-17.8547 55.0406,-22.4882 82.8119,-19.3666 190.544,10.8992 294.071,72.0792 100.739,59.5335 198.92,148.811 266.134,249.631 37.0111,55.5166 64.8556,114.834 78.9449,175.078l0.750001 6.37441 6.99567 230.555c1.12677,37.2024 -3.73937,76.4268 -15.4984,117.45z"/>
  <path class="fil0" d="M930.294 915.968c31.7044,-23.8252 63.6508,-37.5851 95.9032,-38.5571 33.9,-1.02284 66.1193,11.7284 96.2883,41.1815l-44.4992 45.7512c-16.8957,-16.4953 -33.5658,-23.6788 -50.0386,-23.1815 -18.1252,0.54567 -38.0551,9.76418 -59.4024,25.8059l-38.2512 -51z"/>
  <path class="fil0" d="M968.545 1375.51c21.3473,16.0417 41.2772,25.2603 59.4024,25.8071 16.4728,0.496063 33.1418,-6.68623 50.0386,-23.1827l44.4992 45.7512c-30.1689,29.4532 -62.3882,42.2044 -96.2883,41.1827 -32.2512,-0.973229 -64.1989,-14.7331 -95.9032,-38.5583l38.2512 -51z"/>
  <path class="fil0" d="M962.495 898.048c1.31102,17.6043 16.6465,30.8114 34.2508,29.5004 17.6043,-1.31102 30.8114,-16.6465 29.5004,-34.2508 -4.10906,-53.6776 -15.952,-105.738 -35.3067,-150.202 -18.8197,-43.2355 -44.8831,-79.5237 -78.0875,-103.807 -14.2205,-10.4244 -34.2012,-7.34528 -44.6256,6.8752 -10.4244,14.2205 -7.34528,34.2012 6.8752,44.6256 23.687,17.3221 42.8811,44.5937 57.3378,77.8064 16.3772,37.6229 26.4626,82.5225 30.0555,129.452z"/>
  <path class="fil0" d="M1019.01 893.298c-1.31102,17.6043 11.8961,32.9398 29.5004,34.2508 17.6043,1.31102 32.9398,-11.8961 34.2508,-29.5004 3.59292,-46.93 13.6784,-91.8296 30.0555,-129.452 14.4567,-33.2126 33.6508,-60.4843 57.3378,-77.8064 14.2205,-10.4244 17.2996,-30.4051 6.8752,-44.6256 -10.4244,-14.2205 -30.4051,-17.2996 -44.6256,-6.8752 -33.2044,24.2835 -59.2678,60.5717 -78.0875,103.807 -19.3547,44.4638 -31.1977,96.5245 -35.3067,150.202z"/>
  <path class="fil0" d="M1616.12 723.862c17.6728,0 32.0008,-14.328 32.0008,-32.0008 0,-17.6728 -14.328,-32.0008 -32.0008,-32.0008l-0.0295276 0c-97.3158,0 -183.812,63.8079 -245.514,146.986 -60.1075,81.026 -97.265,181.931 -97.2745,258.936l-0.125197 0 0 0.0330709c0,17.6728 14.328,32.0008 32.0008,32.0008 17.6728,0 32.0008,-14.328 32.0008,-32.0008l0 -0.0330709 -0.125197 0c0.00826772,-64.2615 32.3906,-150.321 84.7737,-220.935 50.7863,-68.4638 119.739,-120.985 194.263,-120.985l0.0295276 0z"/>
  <path class="fil0" d="M457.529 659.86c-17.6728,0 -32.0008,14.328 -32.0008,32.0008 0,17.6728 14.328,32.0008 32.0008,32.0008l0.0295276 0c74.5241,0 143.477,52.5213 194.263,120.985 52.3831,70.6134 84.7654,156.673 84.7737,220.935l-0.125197 0 0 0.0330709c0,17.6728 14.328,32.0008 32.0008,32.0008 17.6728,0 32.0008,-14.328 32.0008,-32.0008l0 -0.0330709 -0.125197 0c-0.00944883,-77.0044 -37.167,-177.91 -97.2745,-258.936 -61.702,-83.178 -148.198,-146.986 -245.514,-146.986l-0.0295276 0z"/>
  <path class="fil0" d="M711.684 1322.63c-17.6728,0 -32.0008,14.328 -32.0008,32.0008 0,17.6728 14.328,32.0008 32.0008,32.0008l0.0141732 0c50.4709,0 94.591,-32.0965 125.627,-73.9347 29.4402,-39.6874 47.6422,-89.6257 47.6469,-128.119l0.125197 0 0 -0.0165354c0,-17.6728 -14.328,-32.0008 -32.0008,-32.0008 -17.6728,0 -32.0008,14.328 -32.0008,32.0008l0 0.0165354 0.125197 0c-0.00354331,25.7504 -13.4303,60.8434 -35.1461,90.1182 -20.1213,27.1252 -46.6973,47.9339 -74.3764,47.9339l-0.0141732 0z"/>
  <path class="fil0" d="M1305.31 1386.63c17.6728,0 32.0008,-14.328 32.0008,-32.0008 0,-17.6728 -14.328,-32.0008 -32.0008,-32.0008l-0.0129921 0c-27.6803,0 -54.2575,-20.8099 -74.3788,-47.9339 -21.7169,-29.276 -35.1425,-64.3689 -35.1461,-90.1194l0.125197 0 0 -0.0153543c0,-17.6728 -14.328,-32.0008 -32.0008,-32.0008 -17.6728,0 -32.0008,14.328 -32.0008,32.0008l0 0.0153543 0.125197 0c0.00472441,38.4933 18.2055,88.4316 47.6469,128.12 31.037,41.8382 75.1583,73.9347 125.629,73.9347l0.0129921 0z"/>
  <path class="fil1" d="M1370.57 806.846c61.702,-83.178 148.198,-146.986 245.514,-146.986l0.0295276 0c17.6728,0 32.0008,14.328 32.0008,32.0008 0,17.6728 -14.328,32.0008 -32.0008,32.0008l-0.0295276 0c-74.5241,0 -143.477,52.5213 -194.263,120.985 -52.3831,70.6134 -84.7654,156.673 -84.7737,220.935l0.125197 0 0 0.0330709c0,17.6728 -14.328,32.0008 -32.0008,32.0008 -17.6728,0 -32.0008,-14.328 -32.0008,-32.0008l0 -0.0330709 0.125197 0c0.00944883,-77.0044 37.167,-177.91 97.2745,-258.936zm-65.2607 515.783c17.6728,0 32.0008,14.328 32.0008,32.0008 0,17.6728 -14.328,32.0008 -32.0008,32.0008l-0.0129921 0c-50.4709,0 -94.5922,-32.0965 -125.629,-73.9347 -29.4414,-39.6886 -47.6422,-89.6268 -47.6469,-128.12l-0.125197 0 0 -0.0153543c0,-17.6728 14.328,-32.0008 32.0008,-32.0008 17.6728,0 32.0008,14.328 32.0008,32.0008l0 0.0153543 -0.125197 0c0.00354331,25.7504 13.4291,60.8434 35.1461,90.1194 20.1213,27.124 46.6985,47.9339 74.3788,47.9339l0.0129921 0zm-188.051 16.3051c9.32481,32.5311 23.7662,66.7914 43.93,102.685 47.8146,46.0595 97.7587,51.4748 140.962,32.7449 22.4752,-9.7441 43.6571,-25.7421 62.3481,-45.9178 19.2839,-20.8158 35.8004,-45.9898 48.339,-73.369 34.7551,-75.893 38.1685,-167.276 -16.9181,-225.61l26.5004 -53.6256c18.4335,1.94646 35.1638,1.14803 49.3949,-3.67323 12.5528,-4.25197 23.7024,-12.0142 33.0036,-24.3685 9.03662,-15.0272 20.8795,-34.2508 33.8386,-55.2874 65.4898,-106.312 161.132,-261.572 184.544,-355.227 6.94134,-27.7701 7.7315,-46.6347 -1.95945,-49.0571l-9.8752 -4.37481c-11.4165,-7.61103 -24.4276,-12.9969 -38.7083,-16.3358 -66.1016,-15.4583 -156.956,11.5713 -247.074,64.8284 -92.9068,54.9036 -183.436,137.21 -245.384,230.131 -32.465,48.6969 -56.8737,100.024 -69.3071,151.401l-6.88229 226.857c-0.925985,30.5138 3.23622,63.2788 13.2473,98.1993z"/>
  <path class="fil1" d="M867.794 862.476c-61.9477,-92.9198 -152.476,-175.226 -245.382,-230.131 -90.1182,-53.2559 -180.971,-80.2855 -247.073,-64.8272 -14.2819,3.34016 -27.2929,8.72481 -38.7095,16.3358l-9.8752 4.37481c-9.69095,2.42244 -8.90079,21.287 -1.95945,49.0571 23.4118,93.6556 119.054,248.915 184.544,355.227 12.9591,21.0366 24.802,40.2603 33.8386,55.2874 9.30119,12.3543 20.4508,20.1166 33.0036,24.3685 14.2311,4.82126 30.9614,5.61969 49.3949,3.67323l26.5004 53.6256c-55.0878,58.3335 -51.6733,149.718 -16.9193,225.61 12.5386,27.3792 29.0551,52.5532 48.339,73.369 18.6898,20.1744 39.8729,36.1736 62.3481,45.9166 43.2048,18.7311 93.1489,13.3158 140.963,-32.7437 20.1638,-35.8925 34.604,-70.1528 43.93,-102.684 10.0099,-34.9205 14.1721,-67.6867 13.2473,-98.2005l-6.88347 -226.857c-12.4335,-51.3768 -36.8422,-102.705 -69.3071,-151.402zm-410.236 -202.616c97.3158,0 183.812,63.8079 245.514,146.986 60.1075,81.026 97.265,181.931 97.2745,258.936l0.125197 0 0 0.0330709c0,17.6728 -14.328,32.0008 -32.0008,32.0008 -17.6728,0 -32.0008,-14.328 -32.0008,-32.0008l0 -0.0330709 0.125197 0c-0.00826772,-64.2615 -32.3906,-150.321 -84.7737,-220.935 -50.7863,-68.4638 -119.739,-120.985 -194.263,-120.985l-0.0295276 0c-17.6728,0 -32.0008,-14.328 -32.0008,-32.0008 0,-17.6728 14.328,-32.0008 32.0008,-32.0008l0.0295276 0zm222.125 694.77c0,-17.6728 14.328,-32.0008 32.0008,-32.0008l0.0141732 0c27.6792,0 54.2552,-20.8087 74.3764,-47.9339 21.7158,-29.2748 35.1425,-64.3678 35.1461,-90.1182l-0.125197 0 0 -0.0165354c0,-17.6728 14.328,-32.0008 32.0008,-32.0008 17.6728,0 32.0008,14.328 32.0008,32.0008l0 0.0165354 -0.125197 0c-0.00472441,38.4933 -18.2067,88.4316 -47.6469,128.119 -31.0359,41.8382 -75.156,73.9347 -125.627,73.9347l-0.0141732 0c-17.6728,0 -32.0008,-14.328 -32.0008,-32.0008z"/>
  <path class="fil2" d="M1000.74 1008.43l6.99567 230.555c1.12677,37.2024 -3.73937,76.4268 -15.4984,117.45 -2.73662,9.5445 -5.84292,19.1953 -9.3319,28.95 15.9709,9.913 31.0441,15.5067 45.0414,15.9295 12.6059,0.379134 25.3264,-3.73701 38.1768,-13.0843 -3.91063,-10.7244 -7.35827,-21.3248 -10.3606,-31.7965 -11.7602,-41.0221 -16.6264,-80.2465 -15.4984,-117.449l6.99449 -230.555 0.750001 -6.37441c3.92363,-16.7788 8.91497,-33.4855 14.8736,-50.0587 -11.7484,-7.75867 -23.3906,-11.1827 -34.9359,-10.8343 -13.0264,0.392126 -26.9835,5.26418 -41.7307,13.9276 5.47559,15.5575 10.0937,31.2296 13.774,46.9654l0.750001 6.37441z"/>
 </g>
 <rect class="fil3" width="2048" height="2048"/>
</svg>
