<?xml version="1.0" encoding="UTF-8"?>
<!DOCTYPE svg PUBLIC "-//W3C//DTD SVG 1.1//EN" "http://www.w3.org/Graphics/SVG/1.1/DTD/svg11.dtd">
<!-- Creator: CorelDRAW -->
<svg xmlns="http://www.w3.org/2000/svg" xml:space="preserve" width="2048px" height="2048px" style="shape-rendering:geometricPrecision; text-rendering:geometricPrecision; image-rendering:optimizeQuality; fill-rule:evenodd; clip-rule:evenodd"
viewBox="0 0 2048 2048"
 xmlns:xlink="http://www.w3.org/1999/xlink">
 <defs>
  <style type="text/css">
   <![CDATA[
    .fil3 {fill:none}
    .fil2 {fill:#949494}
    .fil1 {fill:#EBE5DF}
    .fil0 {fill:#212121;fill-rule:nonzero}
   ]]>
  </style>
 </defs>
 <g id="Layer_x0020_1">
  <metadata id="CorelCorpID_0Corel-Layer"/>
  <path class="fil0" d="M1022.39 259.486c253.023,34.2579 418.496,248.721 490.753,507.074 32.0398,114.552 45.7335,237.911 40.5343,357.766 -5.21693,120.247 -29.5158,237.293 -73.454,338.803 -83.2713,192.379 -236.007,328.872 -462.083,328.872 -258.287,0 -414.325,-197.763 -480.859,-452.209 -31.3146,-119.759 -42.6485,-252.176 -35.3126,-381.78 7.34292,-129.743 33.4359,-257.152 76.956,-366.729 84.7902,-213.489 235.416,-359.965 443.465,-331.797zm429.253 524.074c-65.8501,-235.442 -213.783,-430.5 -437.752,-460.824 -173.364,-23.4721 -301.511,105.213 -375.715,292.046 -40.9122,103.009 -65.4804,223.491 -72.456,346.731 -6.98268,123.379 3.70512,249.052 33.3118,362.28 59.4721,227.437 195.866,404.207 419.109,404.207 196.572,0 330.124,-120.41 403.583,-290.12 40.741,-94.1233 63.306,-203.429 68.2028,-316.303 4.91339,-113.265 -8.02087,-229.814 -38.2831,-338.015z"/>
  <polygon class="fil0" points="571.808,759.454 805.574,953.139 1009.11,775.874 1029,758.547 1049.86,774.999 1276.5,953.798 1474.8,797.691 1514.3,847.942 1296.3,1019.55 1276.61,1035.05 1256.8,1019.43 1031.21,841.452 827.109,1019.21 806.644,1037.04 785.734,1019.71 531.057,808.704 "/>
  <polygon class="fil0" points="544.9,1013.69 793.582,1208.85 1010.26,1030.11 1029.61,1014.14 1049.63,1029.11 1290.71,1209.26 1501.7,1051.93 1539.95,1103.18 1309.81,1274.78 1290.66,1289.06 1271.56,1274.78 1031.4,1095.32 814.27,1274.45 794.458,1290.79 774.27,1274.95 505.399,1063.94 "/>
  <path class="fil1" d="M590.421 774.876l215.153 178.263 203.535 -177.265 19.8957 -17.3268 20.8547 16.4516 226.636 178.799 182.243 -143.466c-2.24764,-8.9752 -4.61221,-17.9008 -7.09253,-26.7709 -65.8501,-235.442 -213.783,-430.5 -437.752,-460.824 -173.364,-23.4721 -301.511,105.213 -375.715,292.046 -19.7917,49.8307 -35.7579,103.75 -47.7579,160.094z"/>
  <path class="fil2" d="M1031.21 841.452l-204.104 177.761 -20.465 17.824 -20.9103 -17.3244 -208.336 -172.614c-5.5878,37.5674 -9.49253,75.8552 -11.6752,114.413 -1.26024,22.2579 -1.9441,44.5902 -2.04685,66.9107l229.906 180.43 216.673 -178.745 19.3512 -15.9638 20.0244 14.9634 241.075 180.149 200.143 -149.237c-0.798426,-60.2717 -6.55158,-120.873 -17.1851,-180.091l-177.36 139.622 -19.6925 15.502 -19.8083 -15.6272 -225.59 -177.973z"/>
  <path class="fil1" d="M1271.56 1274.78l-240.156 -179.463 -217.134 179.125 -19.8118 16.3441 -20.1886 -15.8433 -208.257 -163.439c4.48111,73.0985 15.4004,144.894 33.0213,212.283 59.4721,227.437 195.866,404.207 419.109,404.207 196.572,0 330.124,-120.41 403.583,-290.12 38.3693,-88.6442 60.6166,-190.753 67.1682,-296.628l-179.082 133.534 -19.1469 14.276 -19.1043 -14.276z"/>
 </g>
 <rect class="fil3" width="2048" height="2048"/>
</svg>
