<?xml version="1.0" encoding="UTF-8"?>
<!DOCTYPE svg PUBLIC "-//W3C//DTD SVG 1.1//EN" "http://www.w3.org/Graphics/SVG/1.1/DTD/svg11.dtd">
<!-- Creator: CorelDRAW -->
<svg xmlns="http://www.w3.org/2000/svg" xml:space="preserve" width="2048px" height="2048px" style="shape-rendering:geometricPrecision; text-rendering:geometricPrecision; image-rendering:optimizeQuality; fill-rule:evenodd; clip-rule:evenodd"
viewBox="0 0 2048 2048"
 xmlns:xlink="http://www.w3.org/1999/xlink">
 <defs>
  <style type="text/css">
   <![CDATA[
    .fil3 {fill:none}
    .fil2 {fill:#949494}
    .fil1 {fill:#AED581}
    .fil0 {fill:#212121;fill-rule:nonzero}
   ]]>
  </style>
 </defs>
 <g id="Layer_x0020_1">
  <metadata id="CorelCorpID_0Corel-Layer"/>
  <path class="fil0" d="M1463.35 1360.84c37.2957,11.6835 69.9237,31.4587 94.5934,57.8422 30.5209,32.641 48.7335,74.7804 48.7335,123.741 0,52.3359 -23.8134,122.003 -64.6619,173.496 -35.0315,44.1579 -82.7812,76.0867 -139.948,76.0867l-866.071 0c-59.4201,0 -113.524,-21.0673 -152.962,-55.1268 -40.6772,-35.1307 -65.8382,-83.9741 -65.8382,-138.201 0,-46.8827 18.8504,-89.7851 50.3126,-123.332 20.4945,-21.854 46.4611,-39.6591 76.0501,-51.8315 -3.67441,-6.27284 -6.97205,-12.7465 -9.86339,-19.3996 -9.44292,-21.7229 -14.6079,-45.1252 -14.6079,-69.4264 0,-54.2256 25.1599,-103.07 65.8371,-138.2 39.4382,-34.0595 93.5422,-55.1268 152.962,-55.1268 28.5579,0 55.9678,4.89685 81.1583,13.7776 13.8331,4.87678 26.9764,10.9724 39.2575,18.1335 16.174,-22.7681 37.5366,-42.3024 62.6091,-57.3107 35.0362,-20.9752 77.3186,-33.2658 122.647,-33.2658 47.4154,0 91.4552,13.4185 127.335,36.1382 26.1437,16.5555 47.98,38.0823 63.7477,63.0461 11.015,-5.71772 22.6146,-10.591 34.6807,-14.5181 23.7036,-7.71615 49.2319,-11.9386 75.7229,-11.9386 59.4213,0 113.525,21.0673 152.961,55.1268 40.6772,35.1307 65.8382,83.9729 65.8382,138.2 0,3.86575 -0.166536,7.89922 -0.493701,12.0898zm48.0933 101.342c-21.7477,-23.2583 -53.3493,-39.3414 -90.0083,-46.1209l-33.8823 -6.26693 8.7567 -33.2327c1.25433,-4.76339 2.17677,-9.34135 2.74134,-13.6996 0.520867,-4.02992 0.791339,-8.72953 0.791339,-14.1118 0,-34.8709 -16.6571,-66.6934 -43.5863,-89.9493 -28.1681,-24.3272 -67.4658,-39.3756 -111.212,-39.3756 -19.8662,0 -38.7225,3.07323 -55.9725,8.6882 -17.9929,5.85591 -34.2343,14.3221 -48.0496,24.8114l-34.441 26.1484 -14.8087 -40.6477c-9.60709,-26.3717 -29.0988,-49.2662 -54.8788,-65.5914 -25.9488,-16.4315 -58.2048,-26.1366 -93.3355,-26.1366 -33.6402,0 -64.604,8.87363 -89.8973,24.0154 -25.4044,15.2067 -45.078,36.574 -55.826,61.3536l-17.1165 39.4642 -32.7591 -27.7134c-14.2205,-12.0307 -31.2248,-21.7512 -50.165,-28.428 -18.3307,-6.463 -38.55,-10.0264 -59.9079,-10.0264 -43.7457,0 -83.0434,15.0473 -111.213,39.3756 -26.928,23.2559 -43.5851,55.0784 -43.5851,89.9493 0,15.587 3.21969,30.3851 9.10631,43.9264 6.3189,14.5382 15.6721,27.8847 27.4087,39.4748l43.6571 43.1138 -60.4063 11.0114c-35.7378,6.51378 -66.8646,23.4437 -88.8461,46.8815 -20.5181,21.8776 -32.811,49.578 -32.811,79.5816 0,34.8709 16.6571,66.6945 43.5863,89.9505 28.1693,24.3284 67.467,39.3756 111.213,39.3756l866.071 0c35.0693,0 66.0815,-21.7524 89.9469,-51.8363 32.0032,-40.3429 50.6611,-93.9839 50.6611,-133.745 0,-32.0185 -11.6717,-59.3221 -31.2319,-80.2406z"/>
  <path class="fil0" d="M883.04 1398.19c-9.19371,-180.638 6.99804,-348.129 66.9697,-492.939 60.7831,-146.769 165.75,-269.323 333.455,-357.476l29.7496 56.4993c-153.327,80.5961 -249.05,192.051 -304.204,325.227 -55.9654,135.137 -70.9678,293.544 -62.2193,465.439l-63.7512 3.2504z"/>
  <path class="fil0" d="M995.887 630.3c54.6603,-144.829 144.2,-241.982 258.435,-301.185 125.02,-64.7894 278.508,-83.1237 447.233,-68.2418l35.7792 3.15591 -7.27914 35.0953c-35.9398,173.254 -103.018,342.729 -209.531,452.099 -90.3662,92.7898 -207.839,142.686 -356.985,117.128l-12.2705 -2.09882c-56.1378,-9.59056 -96.5068,-16.4894 -125.693,-27.5044 -82.6087,-31.1764 -79.754,-75.7938 -29.6882,-208.448zm287.686 -244.435c-100.368,52.0158 -179.303,138.077 -227.936,266.935 -32.7567,86.7934 -38.1059,114.671 -7.56142,126.199 23.1685,8.74371 61.1386,15.2327 113.943,24.254l12.2705 2.09882c125.517,21.5079 224.401,-20.504 300.483,-98.6268 90.0568,-92.4733 149.808,-234.949 184.925,-384.779 -142.85,-8.40119 -271.59,9.74528 -376.125,63.9189z"/>
  <path class="fil1" d="M1283.57 385.865c-100.368,52.0158 -179.303,138.077 -227.936,266.935 -22.5154,59.6575 -32.0823,91.48 -25.9441,109.291 61.206,-84.2587 144.065,-156.647 253.772,-214.314l29.7496 56.4993c-96.0946,50.5122 -169.563,113.145 -224.597,185.649 20.0232,4.20591 44.4886,8.38701 73.402,13.3264l12.2705 2.09882c125.517,21.5079 224.401,-20.504 300.483,-98.6268 90.0568,-92.4733 149.808,-234.949 184.925,-384.779 -142.85,-8.40119 -271.59,9.74528 -376.125,63.9189z"/>
  <path class="fil2" d="M888.603 1155.05c-12.5138,3.96614 -24.2374,9.25276 -34.9453,15.6626 -25.4044,15.2067 -45.078,36.574 -55.826,61.3536l-17.1165 39.4642 -32.7591 -27.7134c-14.2205,-12.0307 -31.2248,-21.7512 -50.165,-28.428 -18.3307,-6.463 -38.55,-10.0264 -59.9079,-10.0264 -43.7457,0 -83.0434,15.0473 -111.213,39.3756 -26.928,23.2559 -43.5851,55.0784 -43.5851,89.9493 0,15.587 3.21969,30.3851 9.10631,43.9264 6.3189,14.5382 15.6721,27.8847 27.4087,39.4748l43.6571 43.1138 -60.4063 11.0114c-35.7378,6.51378 -66.8646,23.4437 -88.8461,46.8815 -20.5181,21.8776 -32.811,49.578 -32.811,79.5816 0,34.8709 16.6571,66.6945 43.5863,89.9505 28.1693,24.3284 67.467,39.3756 111.213,39.3756l866.071 0c35.0693,0 66.0815,-21.7524 89.9469,-51.8363 32.0032,-40.3429 50.6611,-93.9839 50.6611,-133.745 0,-32.0185 -11.6717,-59.3221 -31.2319,-80.2406 -21.7477,-23.2583 -53.3493,-39.3414 -90.0083,-46.1209l-33.8823 -6.26693 8.7567 -33.2327c1.25433,-4.76339 2.17677,-9.34135 2.74134,-13.6996 0.520867,-4.02992 0.791339,-8.72953 0.791339,-14.1118 0,-34.8709 -16.6571,-66.6934 -43.5863,-89.9493 -28.1681,-24.3272 -67.4658,-39.3756 -111.212,-39.3756 -19.8662,0 -38.7225,3.07323 -55.9725,8.6882 -17.9929,5.85591 -34.2343,14.3221 -48.0496,24.8114l-34.441 26.1484 -14.8087 -40.6477c-9.60709,-26.3717 -29.0988,-49.2662 -54.8788,-65.5914 -23.4012,-14.8181 -51.9319,-24.1666 -83.0741,-25.8591 -9.81615,78.4123 -11.4272,161.485 -7.0252,247.973l-63.7512 3.2504c-4.2874,-84.2304 -3.05433,-165.601 5.563,-243.148z"/>
 </g>
 <rect class="fil3" width="2048" height="2048"/>
</svg>
