<?xml version="1.0" encoding="UTF-8"?>
<!DOCTYPE svg PUBLIC "-//W3C//DTD SVG 1.1//EN" "http://www.w3.org/Graphics/SVG/1.1/DTD/svg11.dtd">
<!-- Creator: CorelDRAW -->
<svg xmlns="http://www.w3.org/2000/svg" xml:space="preserve" width="2048px" height="2048px" style="shape-rendering:geometricPrecision; text-rendering:geometricPrecision; image-rendering:optimizeQuality; fill-rule:evenodd; clip-rule:evenodd"
viewBox="0 0 2048 2048"
 xmlns:xlink="http://www.w3.org/1999/xlink">
 <defs>
  <style type="text/css">
   <![CDATA[
    .fil2 {fill:none}
    .fil1 {fill:#AED581}
    .fil0 {fill:#212121;fill-rule:nonzero}
   ]]>
  </style>
 </defs>
 <g id="Layer_x0020_1">
  <metadata id="CorelCorpID_0Corel-Layer"/>
  <path class="fil0" d="M996.67 1153.73c-85.5698,-119.387 -138.026,-250.625 -142.886,-398.564 -4.8189,-146.685 37.4516,-308.686 141.136,-490.434l23.9138 -41.9162 29.211 38.4166c132.041,173.653 181.55,332.836 173.227,481.272 -8.31851,148.39 -74.3174,284.262 -173.352,412.101l-26.2937 33.9414 -24.9555 -34.8166zm-79.1351 -400.565c3.91772,119.236 42.5067,227.216 106.374,326.84 76.7575,-107.595 126.854,-220.469 133.611,-341.001 6.87166,-122.568 -30.978,-254.558 -131.014,-399.048 -80.1237,153.075 -113.03,289.66 -108.971,413.209z"/>
  <path class="fil0" d="M1042.48 1149.83c52.7682,-122.075 128.874,-223.384 238.276,-294.694 108.679,-70.839 249.444,-111.409 431.882,-112.396l47.3611 -0.256299 -17.6102 44.0067c-73.3501,183.29 -171.952,295.01 -287.789,356.303 -115.977,61.3678 -247.539,71.2642 -387.37,51.2859l-41.3256 -5.90552 16.5756 -38.3445zm273.026 -241.194c-86.2406,56.2122 -149.684,133.93 -196.334,227.321 111.07,10.5602 214.694,-1.52008 305.678,-49.6618 93.2115,-49.3205 174.562,-137.251 239.022,-278.481 -145.495,7.15512 -259.386,42.8221 -348.366,100.821z"/>
  <path class="fil0" d="M916.589 1135.95c-46.65,-93.391 -110.093,-171.109 -196.334,-227.321 -88.9808,-57.9993 -202.871,-93.6662 -348.366,-100.821 64.4599,141.229 145.811,229.16 239.022,278.481 90.9839,48.1418 194.608,60.2221 305.678,49.6618zm-161.583 -280.82c109.402,71.3091 185.508,172.618 238.276,294.694l16.5756 38.3445 -41.3256 5.90552c-139.831,19.9784 -271.393,10.0819 -387.37,-51.2859 -115.837,-61.2934 -214.439,-173.014 -287.789,-356.303l-17.6102 -44.0067 47.3611 0.256299c182.438,0.987402 323.203,41.5571 431.882,112.396z"/>
  <path class="fil0" d="M1167.81 628.231c36.0933,-47.3611 80.7556,-91.5438 135.099,-132.11 53.843,-40.1906 117.332,-76.9548 191.577,-109.877l43.265 -19.1847 1.48583 47.4343c2.97756,95.1591 -5.65276,182.265 -24.5232,258.154 -10.1622,40.8674 -23.3126,78.6107 -39.2422,112.745 -3.71457,7.96064 -4.30276,18.8043 -11.5961,23.2866 -42.3756,26.041 -34.3925,32.289 -90.0379,22.7516 34.7422,-45.0083 61.4658,-104.016 78.8753,-174.033 14.2689,-57.3851 22.2355,-121.863 23.2122,-191.855 -50.8548,25.265 -95.6091,52.6016 -134.765,81.8292 -49.6524,37.063 -90.169,77.0516 -122.601,119.609l-50.7496 -38.7496z"/>
  <path class="fil0" d="M871.259 666.981c-32.4307,-42.5563 -72.9473,-82.5449 -122.601,-119.609 -39.1748,-29.2418 -83.9493,-56.589 -134.831,-81.8634 0.793701,74.1154 8.72835,145.38 23.4177,208.966 13.6654,59.1485 33.0579,111.182 57.8209,151.983 0.902363,1.48819 3.00473,2.72126 2.73307,4.42205 -0.386221,2.41772 -32.0067,63.9875 -57.6095,26.9469 -3.5126,-5.08111 -7.10906,-10.9618 -10.735,-17.7402 -23.1307,-43.2473 -41.3587,-94.6536 -54.4607,-151.361 -19.0654,-82.5249 -27.4524,-177.031 -24.411,-274.231l1.48465 -47.4343 43.2662 19.1847c74.2442,32.9221 137.733,69.6863 191.576,109.877 54.3461,40.5662 99.0072,84.7489 135.099,132.11l-50.7496 38.7496z"/>
  <path class="fil0" d="M1054.04 1128.85c26.3528,131.809 43.4067,252.147 45.3662,360.496 1.99252,110.091 -11.7803,207.255 -47.3658,290.674l-58.7504 -24.9992c31.8851,-74.7461 44.1981,-163.335 42.365,-264.676 -1.86378,-103.084 -18.5504,-219.879 -44.3646,-348.995l62.7497 -12.5008z"/>
  <path class="fil1" d="M1023.91 1080c76.7575,-107.595 126.854,-220.469 133.611,-341.001 6.87166,-122.568 -30.978,-254.558 -131.014,-399.048 -80.1237,153.075 -113.03,289.66 -108.971,413.209 3.91772,119.236 42.5067,227.216 106.374,326.84z"/>
  <path class="fil1" d="M853.784 755.162c-1.1185,-34.0335 0.298819,-68.8914 4.42914,-104.629 -30.0626,-36.4441 -66.3497,-70.9099 -109.556,-103.161 -39.1748,-29.2418 -83.9493,-56.589 -134.831,-81.8634 0.793701,74.1154 8.72835,145.38 23.4177,208.966 12.7949,55.3819 30.6118,104.526 53.1556,144.053 22.7067,11.0953 44.2205,23.3185 64.6063,36.6059 61.6288,40.1705 112.693,89.8607 154.97,147.422 -33.5516,-77.2312 -53.2996,-159.354 -56.1922,-247.393z"/>
  <path class="fil1" d="M1220.29 664.725c2.13071,26.2571 2.41536,52.1764 0.980316,77.7757 -3.9378,70.2343 -20.7969,137.666 -47.9634,202.767 31.663,-33.7784 67.3158,-63.9756 107.45,-90.1347 35.5488,-23.1709 74.5312,-43.1044 117.281,-59.4721 23.1461,-38.9823 41.5559,-85.4965 54.6768,-138.263 14.2689,-57.3851 22.2355,-121.863 23.2122,-191.855 -50.8548,25.265 -95.6091,52.6016 -134.765,81.8292 -48.7737,36.4075 -88.7327,75.6379 -120.872,117.353z"/>
  <path class="fil1" d="M720.256 908.632c-88.9808,-57.9993 -202.871,-93.6662 -348.366,-100.821 64.4599,141.229 145.811,229.16 239.022,278.481 90.9839,48.1418 194.608,60.2221 305.678,49.6618 -46.65,-93.391 -110.093,-171.109 -196.334,-227.321z"/>
  <path class="fil1" d="M1315.51 908.632c-86.2406,56.2122 -149.684,133.93 -196.334,227.321 111.07,10.5602 214.694,-1.52008 305.678,-49.6618 93.2115,-49.3205 174.562,-137.251 239.022,-278.481 -145.495,7.15512 -259.386,42.8221 -348.366,100.821z"/>
 </g>
 <rect class="fil2" width="2048" height="2048"/>
</svg>
