<?xml version="1.0" encoding="UTF-8"?>
<!DOCTYPE svg PUBLIC "-//W3C//DTD SVG 1.1//EN" "http://www.w3.org/Graphics/SVG/1.1/DTD/svg11.dtd">
<!-- Creator: CorelDRAW -->
<svg xmlns="http://www.w3.org/2000/svg" xml:space="preserve" width="2048px" height="2048px" style="shape-rendering:geometricPrecision; text-rendering:geometricPrecision; image-rendering:optimizeQuality; fill-rule:evenodd; clip-rule:evenodd"
viewBox="0 0 2048 2048"
 xmlns:xlink="http://www.w3.org/1999/xlink">
 <defs>
  <style type="text/css">
   <![CDATA[
    .fil4 {fill:none}
    .fil1 {fill:#212121}
    .fil3 {fill:#EBE5DF}
    .fil2 {fill:#F19A7B}
    .fil0 {fill:#212121;fill-rule:nonzero}
   ]]>
  </style>
 </defs>
 <g id="Layer_x0020_1">
  <metadata id="CorelCorpID_0Corel-Layer"/>
  <path class="fil0" d="M1031.01 550.466c72.4808,0 138.256,27.5634 185.999,72.1241 48.3674,45.1429 78.2859,107.602 78.2859,176.675 0,69.0709 -29.9185,131.531 -78.2859,176.674 -47.7426,44.5607 -113.518,72.1241 -185.999,72.1241 -72.4808,0 -138.256,-27.5634 -185.999,-72.1241 -48.3674,-45.1429 -78.2859,-107.603 -78.2859,-176.674 0,-69.0733 29.9185,-131.532 78.2859,-176.675 47.7426,-44.5607 113.518,-72.1241 185.999,-72.1241zm142.499 118.875c-36.3225,-33.9024 -86.6942,-54.8729 -142.499,-54.8729 -55.8048,0 -106.176,20.9705 -142.499,54.8729 -35.7012,33.3201 -57.7843,79.2627 -57.7843,129.925 0,50.6611 22.0831,96.6036 57.7843,129.924 36.3225,33.9024 86.6942,54.8729 142.499,54.8729 55.8048,0 106.176,-20.9705 142.499,-54.8729 35.7012,-33.3201 57.7843,-79.2627 57.7843,-129.924 0,-50.6622 -22.0831,-96.6048 -57.7843,-129.925z"/>
  <path class="fil0" d="M1109.8 598.345c4.55788,-76.9371 20.3457,-140.548 46.2461,-192.148 26.7638,-53.3209 64.0123,-93.4926 110.582,-121.96 38.9717,-23.8229 61.239,-34.8118 84.8635,-24.3839 24.2114,10.6854 30.6071,34.7079 37.1422,80.6044 8.02678,56.367 -0.18189,112.9 -26.7236,169.614 -25.6323,54.7713 -68.406,109.348 -130.276,163.696l-42 -48c55.0406,-48.3496 92.6198,-95.8902 114.524,-142.696 20.9988,-44.8689 27.5209,-89.3953 21.2244,-133.613 -3.18189,-22.3453 4.87323,-29.1118 0.357874,-31.1044 -3.93071,-1.73504 -5.82402,8.13544 -25.8626,20.3847 -36.4772,22.298 -65.7225,53.902 -86.8324,95.9587 -21.9732,43.7764 -35.452,99.1524 -39.4949,167.399l-63.7512 -3.75118z"/>
  <path class="fil0" d="M882.992 602.096c-4.04292,-68.2465 -17.5217,-123.623 -39.4949,-167.399 -21.1099,-42.0567 -50.354,-73.6607 -86.8312,-95.9587 -20.041,-12.2492 -21.9319,-22.1197 -25.8638,-20.3847 -4.51536,1.99252 3.53977,8.75788 0.359055,31.1044 -6.29764,44.2193 0.225591,88.7457 21.2232,133.613 21.9047,46.8059 59.4839,94.3465 114.524,142.696l-42 48c-61.8697,-54.3485 -104.643,-108.925 -130.276,-163.696 -26.5418,-56.7142 -34.7504,-113.247 -26.7225,-169.614 6.53386,-45.8965 12.9331,-69.919 37.141,-80.6044 23.628,-10.428 45.8929,0.562205 84.8646,24.3839 46.5709,28.467 83.8182,68.6398 110.581,121.96 25.9004,51.6 41.6882,115.211 46.2461,192.148l-63.7512 3.75118z"/>
  <path class="fil0" d="M1031.32 984.063c98.9517,0 188.33,45.887 252.84,120.072 63.3981,72.9083 102.612,173.303 102.612,283.896 0,27.3437 -2.41418,54.1252 -7.0063,80.0705 -4.74213,26.7792 -11.7662,52.513 -20.8193,76.9111l-17.0516 45.9508 -35.1981 -34.2c-9.67205,-9.39804 -23.9516,-12.8681 -39.7016,-10.6417 -18.6378,2.63386 -38.9055,12.9213 -57.1808,30.626 -20.8677,20.2169 -34.4799,45.5634 -39.6154,70.1941 -4.60394,22.0807 -2.29016,42.8882 8.0315,57.1796 0.501969,0.69567 1.04646,1.39843 1.62402,2.10236l0.0614174 -0.0507874c0.850394,1.02992 1.44921,1.72914 1.79528,2.09646l29.5831 31.4481 -38.7083 19.0524c-22.0382,10.8461 -45.1335,19.226 -69.013,24.8339 -23.4402,5.50394 -47.6079,8.39646 -72.2528,8.39646 -26.9138,0 -53.4178,-3.51378 -79.1646,-10.1669 -26.1071,-6.74646 -51.1323,-16.7693 -74.7272,-29.6622l-32.5571 -17.791 22.3075 -29.4591 0.154725 -0.204331 0.113386 0c0.0177165,-0.0318898 0.116929,-0.173622 0.421654,-0.595276 10.3217,-14.2913 12.6354,-35.0988 8.0315,-57.1784 -5.13544,-24.6307 -18.7477,-49.9784 -39.6154,-70.1953 -16.0949,-15.5929 -33.8422,-25.4386 -50.7485,-29.3811 -14.8488,-3.46299 -28.6571,-2.16969 -39.1453,4.063l-33.7571 20.0599 -12.7429 -37.3099c-7.79528,-22.826 -13.8331,-46.8107 -17.9173,-71.7272 -4.00748,-24.4571 -6.10512,-49.3453 -6.10512,-74.4213 0,-110.594 39.2138,-210.988 102.612,-283.895 64.5119,-74.1875 153.888,-120.073 252.84,-120.073zm204.59 161.822c-52.5544,-60.4371 -124.905,-97.8202 -204.59,-97.8202 -79.6843,0 -152.034,37.3831 -204.59,97.8213 -53.667,61.7162 -86.8607,147.308 -86.8607,242.145 0,22.2839 1.75394,43.7268 5.10355,64.1717 1.70669,10.4126 3.83504,20.6882 6.36378,30.8044 15.5776,-2.48858 32.0634,-1.77047 48.6981,2.10827 27.6437,6.44764 55.9347,21.8433 80.7485,45.8811 30.2008,29.2595 50.0079,66.4619 57.6154,102.947 5.44607,26.1213 4.73268,52.1764 -2.71772,75.3969 10.5591,4.28386 21.3969,7.88032 32.4733,10.7421 20.0457,5.18032 41.178,7.91575 63.1654,7.91575 19.8874,0 39.2008,-2.28898 57.7536,-6.64607 7.87205,-1.84843 15.6154,-4.05945 23.2158,-6.61536 -9.17245,-24.5398 -10.4622,-52.63 -4.58977,-80.7946 7.60749,-36.4866 27.4146,-73.6867 57.6154,-102.946 28.3642,-27.4795 61.3997,-43.6689 92.9304,-48.1252 18.1441,-2.56536 35.8264,-1.32874 52.0701,3.7689 2.52402,-9.68977 4.67953,-19.5437 6.45,-29.5394 3.93544,-22.2366 6.00473,-45.3343 6.00473,-69.0697 0,-94.8367 -33.1949,-180.43 -86.8607,-242.146zm-368.457 558.832l0.00590552 0c0.102756,-0.135827 0.022441,-0.0307087 -0.00590552,0z"/>
  <path class="fil0" d="M1220.79 1062.45c32.5855,-8.35749 73.767,3.99449 115.519,32.3433 36.7748,24.9709 75.4867,62.8453 109.348,109.553 47.3185,65.2678 75.6319,146.376 75.6048,203.382 -0.0106299,23.778 -4.78347,44.6681 -14.8606,60.6922 -12.4335,19.7693 -31.2614,31.6158 -57.1276,32.6894 -28.9973,1.20709 -67.3276,-13.5898 -115.578,-50.8819l-13.8496 -10.7043 1.47402 -17.1709c4.98189,-58.043 -2.7626,-117.129 -23.0067,-171.049 -19.1528,-51.0059 -49.48,-97.4835 -90.7725,-134.105l-44.9126 -39.8327 58.1622 -14.9173zm173.115 179.397c-19.7847,-27.2918 -41.0563,-50.8642 -62.1402,-69.7217 10.1705,18.2894 18.9402,37.3359 26.2973,56.9304 21.5681,57.4453 31.0288,119.509 28.1823,180.747 27.9768,19.9181 47.7083,28.0902 60.5292,27.5575 2.67166,-0.109843 4.5189,-1.1752 5.62678,-2.9374 3.46299,-5.5063 5.10473,-14.7815 5.10945,-26.6929 0.0212599,-44.9552 -23.7992,-110.976 -63.6048,-165.882z"/>
  <path class="fil0" d="M721.094 1088.56c46.1126,-28.8071 90.7631,-37.2449 123.715,-19.2496l39.1488 21.3803 -32.7744 30.1205c-34.4268,31.6382 -62.5937,72.0638 -81.9792,118.376 -18.7984,44.9103 -29.3339,95.3883 -29.3339,148.84 0,6.54567 0.022441,10.526 0.0649607,11.9835 0.0874016,2.95394 0.27874,6.89646 0.570473,11.8169l0.937796 15.7784 -12.0638 10.3476c-29.9504,25.6902 -60.3497,43.9878 -87.841,52.904 -32.4225,10.5154 -61.9548,8.61733 -84.9473,-8.0504 -32.4603,-23.5323 -40.9973,-69.3213 -28.5591,-124.325 10.415,-46.0666 35.7579,-100.702 73.5804,-153.121l-0.0200788 -0.0129921 0.00236221 -0.00354331 0.750001 -1.00039c36.8481,-50.8276 79.3075,-91.1434 118.749,-115.785zm23.1225 61.304c-29.5725,20.7449 -61.0241,52.0571 -89.3847,90.9709l0.0141732 0.00944883 -0.00236221 0.00354331 -0.750001 1.00039c-33.202,45.7973 -55.1587,92.3682 -63.8103,130.635 -6.69922,29.6244 -5.95985,51.4926 3.80788,58.5733 5.23937,3.79843 15.1016,3.21614 27.9473,-0.949607 16.1457,-5.23583 34.6536,-15.8681 54.0685,-31.011 -0.158268,-5.57717 -0.238583,-9.27993 -0.238583,-11.0681 0,-61.9713 12.3319,-120.774 34.3347,-173.341 9.57639,-22.8768 20.987,-44.5654 34.0134,-64.8225z"/>
  <path class="fil0" d="M1363.18 1524.94c21.3024,29.4969 26.9185,68.3918 18.7795,107.428 -7.60749,36.4866 -27.4146,73.6879 -57.6154,102.947 -6.94961,6.73229 -14.2866,12.8575 -21.8988,18.3555 -27.3685,19.7681 -57.4347,30.1902 -85.6879,30.9603 -30.7406,0.838583 -59.1945,-9.54095 -80.4473,-31.4788 -3.41575,-3.52559 -6.69922,-7.45276 -9.82678,-11.7839 -21.3024,-29.4945 -26.9185,-68.3894 -18.7795,-107.428 7.60749,-36.4866 27.4146,-73.6867 57.6154,-102.946 6.94843,-6.72993 14.2843,-12.8551 21.8965,-18.3543 27.3697,-19.7681 57.4359,-30.1914 85.689,-30.9614 30.7418,-0.838583 59.1957,9.53977 80.4497,31.4788 3.41457,3.52441 6.69804,7.45276 9.8256,11.7827zm-43.7197 94.4292c4.60394,-22.0807 2.29016,-42.887 -8.0315,-57.1796 -1.11378,-1.54252 -2.3941,-3.05551 -3.82559,-4.53307 -8.2878,-8.55591 -20.0587,-12.5847 -33.1985,-12.2268 -15.6272,0.426378 -33.111,6.80788 -49.9394,18.9614 -4.88622,3.52914 -9.78898,7.64882 -14.6469,12.3543 -20.8677,20.2169 -34.4799,45.5634 -39.6154,70.1941 -4.60394,22.0807 -2.29016,42.8882 8.0315,57.1796 1.1126,1.54134 2.39528,3.0567 3.82677,4.53426 8.2878,8.55473 20.0575,12.5847 33.1961,12.2268 15.6284,-0.426378 33.111,-6.8067 49.9382,-18.9603 4.88741,-3.53032 9.79135,-7.64882 14.6492,-12.3555 20.8677,-20.2169 34.4799,-45.5646 39.6154,-70.1953zm-584.782 -57.1784c-10.3217,14.2913 -12.6354,35.0977 -8.0315,57.1784 5.13544,24.6307 18.7477,49.9772 39.6154,70.1941 4.85788,4.70552 9.76064,8.8252 14.6469,12.3543 16.8284,12.1536 34.3122,18.5351 49.9394,18.9614 13.1398,0.357874 24.9106,-3.67087 33.1985,-12.2268 1.4315,-1.47756 2.71299,-2.99173 3.82559,-4.53307 10.3217,-14.2913 12.6354,-35.0988 8.0315,-57.1784 -5.13544,-24.6307 -18.7477,-49.9784 -39.6154,-70.1953 -4.85788,-4.70552 -9.75946,-8.82402 -14.6469,-12.3543 -16.8284,-12.1536 -34.3122,-18.5351 -49.9394,-18.9614 -13.1398,-0.357874 -24.9095,3.67205 -33.1973,12.2268 -1.4315,1.47756 -2.71299,2.99173 -3.82677,4.53426zm-70.5308 70.1776c-8.13898,-39.0378 -2.52284,-77.9327 18.7795,-107.427 3.12756,-4.32992 6.41103,-8.25827 9.82678,-11.7839 21.2528,-21.9378 49.7067,-32.3173 80.4485,-31.4788 28.2532,0.770079 58.3193,11.1933 85.689,30.9614 7.61339,5.49922 14.9492,11.6232 21.8965,18.3543 30.2008,29.2595 50.0079,66.4619 57.6154,102.947 8.13898,39.0378 2.52284,77.9327 -18.7795,107.427 -3.12756,4.32992 -6.41103,8.25827 -9.8256,11.7827 -21.254,21.939 -49.7079,32.3173 -80.4497,31.4788 -28.2532,-0.770079 -58.3193,-11.1933 -85.689,-30.9614 -7.61221,-5.49922 -14.948,-11.6244 -21.8965,-18.3543 -30.2008,-29.2595 -50.0079,-66.4595 -57.6154,-102.946z"/>
  <ellipse class="fil1" cx="1025.41" cy="895.705" rx="58.7744" ry="23.3221"/>
  <g id="_323251016">
   <circle id="_323250896" class="fil1" cx="951.008" cy="774.785" r="25.2144"/>
   <circle id="_323250752" class="fil1" cx="1111.01" cy="774.785" r="25.2144"/>
  </g>
  <path class="fil2" d="M882.431 593.534c-4.63347,-64.3323 -17.8866,-116.906 -38.9339,-158.837 -21.1099,-42.0567 -50.354,-73.6607 -86.8312,-95.9587 -20.041,-12.2492 -21.9319,-22.1197 -25.8638,-20.3847 -4.51536,1.99252 3.53977,8.75788 0.359055,31.1044 -6.29764,44.2193 0.225591,88.7457 21.2232,133.613 20.1815,43.1244 53.6693,86.8725 101.861,131.302 8.87127,-7.52245 18.287,-14.4886 28.1858,-20.8394z"/>
  <path class="fil2" d="M1213.05 434.697c-20.6894,41.2181 -33.8481,92.7202 -38.6894,155.567 10.7421,6.54567 20.9469,13.8047 30.5374,21.704 46.8,-43.6028 79.4469,-86.5501 99.2646,-128.896 20.9988,-44.8689 27.5209,-89.3953 21.2244,-133.613 -3.18189,-22.3453 4.87323,-29.1118 0.357874,-31.1044 -3.93071,-1.73504 -5.82402,8.13544 -25.8626,20.3847 -36.4772,22.298 -65.7225,53.902 -86.8324,95.9587z"/>
  <path class="fil3" d="M1173.51 669.341c-36.3225,-33.9024 -86.6942,-54.8729 -142.499,-54.8729 -55.8048,0 -106.176,20.9705 -142.499,54.8729 -35.7012,33.3201 -57.7843,79.2627 -57.7843,129.925 0,50.6611 22.0831,96.6036 57.7843,129.924 36.3225,33.9024 86.6942,54.8729 142.499,54.8741 0.103937,0 0.207874,0 0.311811,-0.0011811 55.6808,-0.0779528 105.932,-21.0331 142.187,-54.8729 35.7012,-33.3201 57.7843,-79.2627 57.7843,-129.924 0,-50.6622 -22.0831,-96.6048 -57.7843,-129.925zm-206.876 226.364c0,-12.8811 26.3138,-23.3221 58.7741,-23.3221 32.4614,0 58.7752,10.441 58.7752,23.3221 0,12.8811 -26.3138,23.3221 -58.7752,23.3221 -32.4603,0 -58.7741,-10.441 -58.7741,-23.3221zm-15.6236 -146.134c13.9264,0 25.2142,11.289 25.2142,25.2142 0,13.9264 -11.2878,25.2142 -25.2142,25.2142 -13.9252,0 -25.2142,-11.2878 -25.2142,-25.2142 0,-13.9252 11.289,-25.2142 25.2142,-25.2142zm134.786 25.2142c0,-13.9252 11.289,-25.2142 25.2142,-25.2142 13.9264,0 25.2142,11.289 25.2142,25.2142 0,13.9264 -11.2878,25.2142 -25.2142,25.2142 -13.9252,0 -25.2142,-11.2878 -25.2142,-25.2142z"/>
  <path class="fil3" d="M1207.54 1117.21c-48.9213,-43.3583 -110.039,-69.1406 -176.215,-69.1418 -0.103937,0 -0.207874,0 -0.311811,0 -65.9989,0.0826772 -126.952,25.8071 -175.777,69.0308l-0.0141732 0.0129921 -4.03465 3.70748c-34.4268,31.6382 -62.5937,72.0638 -81.9792,118.376 -6.92717,16.5496 -12.7323,33.8551 -17.302,51.7867 -7.83071,30.7418 -12.0319,63.313 -12.0319,97.0536 0,22.2839 1.75394,43.7268 5.10355,64.1717 1.70669,10.4126 3.83504,20.6882 6.36378,30.8044 15.5776,-2.48858 32.0634,-1.77047 48.6981,2.10827 27.4335,6.39922 55.5048,21.6106 80.1827,45.3355 0.188977,0.180709 0.377953,0.36378 0.565748,0.54567 30.2008,29.2595 50.0079,66.4619 57.6154,102.947 5.44607,26.1213 4.73268,52.1764 -2.71772,75.3969 10.5591,4.28386 21.3969,7.88032 32.4733,10.7421 20.0457,5.18032 41.178,7.91575 63.1654,7.91575 19.8874,0 39.2008,-2.28898 57.7536,-6.64607 7.87205,-1.84843 15.6154,-4.05945 23.2158,-6.61536 -9.17245,-24.5398 -10.4622,-52.63 -4.58977,-80.7946 7.60749,-36.4866 27.4146,-73.6867 57.6154,-102.946 28.3642,-27.4795 61.3997,-43.6689 92.9304,-48.1252 18.1441,-2.56536 35.8264,-1.32874 52.0701,3.7689 2.52402,-9.68977 4.67953,-19.5437 6.45,-29.5394 2.01142,-11.3669 3.53622,-22.9595 4.54489,-34.7457 0.964961,-11.2724 1.45984,-22.7221 1.45984,-34.324 0.00944883,-7.40906 -0.197244,-14.8146 -0.61063,-22.2036 -1.49055,-26.7189 -5.65985,-53.2311 -12.4866,-78.9343 -0.0389764,-0.148819 -0.0791339,-0.298819 -0.119291,-0.447638 -14.4201,-53.83 -40.0122,-101.884 -73.6442,-140.561 -8.90906,-10.2461 -18.3874,-19.8284 -28.3748,-28.6795z"/>
  <path class="fil3" d="M1331.77 1172.13c34.8213,62.4626 55.0063,136.559 55.0063,215.906 0,7.30394 -0.172441,14.5665 -0.512599,21.7843 27.9685,19.9099 47.6941,28.0784 60.5126,27.5457 2.67166,-0.109843 4.5189,-1.1752 5.62678,-2.9374 3.46299,-5.5063 5.10473,-14.7815 5.10945,-26.6929 0.0212599,-44.9552 -23.7992,-110.976 -63.6048,-165.882 -19.7847,-27.2918 -41.0563,-50.8642 -62.1378,-69.7229z"/>
  <path class="fil3" d="M654.844 1240.85l0 0zm21.0248 147.18c0,-62.0032 12.3248,-120.8 34.3347,-173.341 9.57166,-22.878 20.9847,-44.5689 34.0134,-64.8225 -29.5725,20.7449 -61.0241,52.0571 -89.3847,90.9709l0.011811 0.0129921 -0.750001 1.00039c-33.202,45.7973 -55.1587,92.3682 -63.8103,130.635 -6.69922,29.6244 -5.95985,51.4926 3.80788,58.5733 5.23937,3.79843 15.1016,3.21614 27.9473,-0.949607 16.1173,-5.22638 34.5898,-15.8315 53.9682,-30.9331 -0.0921261,-3.71103 -0.138189,-7.42678 -0.138189,-11.1461z"/>
  <path class="fil3" d="M785.536 1547.37c-11.8028,-2.75315 -22.9477,-2.5004 -32.2914,0.849213 -2.4,0.870473 -4.69016,1.9441 -6.84922,3.22205 -2.88189,1.70788 -5.52993,3.78071 -7.89449,6.22087 -1.4315,1.47756 -2.71299,2.99173 -3.82677,4.53426 -10.3217,14.2913 -12.6354,35.0977 -8.0315,57.1784 5.13544,24.6307 18.7477,49.9772 39.6154,70.1941 4.85788,4.70552 9.76064,8.8252 14.6469,12.3543 16.8284,12.1536 34.3122,18.5351 49.9394,18.9614 13.1398,0.357874 24.9106,-3.67087 33.1985,-12.2268 0.630709,-0.650788 1.23189,-1.30866 1.80118,-1.97008l1.33465 -1.76339 0.154725 -0.204331 0.0956694 0c0.15,-0.198425 0.295276,-0.396851 0.43937,-0.595276 10.3217,-14.2913 12.6354,-35.0988 8.0315,-57.1784 -5.13544,-24.6307 -18.7477,-49.9784 -39.6154,-70.1953 -0.105118,-0.101575 -0.211417,-0.204331 -0.316536,-0.305906 -16.011,-15.4158 -33.6366,-25.1587 -50.4319,-29.0752z"/>
  <path class="fil3" d="M1209.81 1576.75c-20.8677,20.2169 -34.4799,45.5634 -39.6154,70.1941 -4.60394,22.0807 -2.29016,42.8882 8.0315,57.1796 0.509056,0.705119 1.05354,1.40433 1.62402,2.10236l0.0614174 -0.0507874c0.850394,1.02992 1.44921,1.72914 1.79528,2.09646l0.735827 0.783071c8.26536,8.2819 19.8721,12.1819 32.8063,11.8299 15.6284,-0.426378 33.111,-6.8067 49.9382,-18.9603 4.88741,-3.53032 9.79135,-7.64882 14.6492,-12.3555 20.8677,-20.2169 34.4799,-45.5646 39.6154,-70.1953 4.60394,-22.0807 2.29016,-42.887 -8.0315,-57.1796 -1.11378,-1.54252 -2.3941,-3.05551 -3.82559,-4.53307 -0.137008,-0.141732 -0.275197,-0.282284 -0.402756,-0.409843l-0.499607 -0.485433c-0.288189,-0.279921 -0.581103,-0.555119 -0.87756,-0.825591 -2.25236,-2.0374 -4.72441,-3.77599 -7.3819,-5.21811 -6.96142,-3.78071 -15.1878,-5.52874 -24.0366,-5.2878 -15.6272,0.426378 -33.111,6.80788 -49.9394,18.9614 -4.77048,3.44528 -9.55749,7.45512 -14.3032,12.0225 -0.114567,0.109843 -0.229134,0.220866 -0.343701,0.33189z"/>
 </g>
 <rect class="fil4" width="2048" height="2048"/>
</svg>
