<?xml version="1.0" encoding="UTF-8"?>
<!DOCTYPE svg PUBLIC "-//W3C//DTD SVG 1.1//EN" "http://www.w3.org/Graphics/SVG/1.1/DTD/svg11.dtd">
<!-- Creator: CorelDRAW -->
<svg xmlns="http://www.w3.org/2000/svg" xml:space="preserve" width="2048px" height="2048px" style="shape-rendering:geometricPrecision; text-rendering:geometricPrecision; image-rendering:optimizeQuality; fill-rule:evenodd; clip-rule:evenodd"
viewBox="0 0 2048 2048"
 xmlns:xlink="http://www.w3.org/1999/xlink">
 <defs>
  <style type="text/css">
   <![CDATA[
    .fil2 {fill:none}
    .fil1 {fill:#FECA5F}
    .fil0 {fill:#212121;fill-rule:nonzero}
   ]]>
  </style>
 </defs>
 <g id="Layer_x0020_1">
  <metadata id="CorelCorpID_0Corel-Layer"/>
  <path class="fil0" d="M1024 655.999c101.616,0 193.617,41.191 260.214,107.787 66.5965,66.5965 107.787,158.597 107.787,260.214 0,101.616 -41.191,193.617 -107.787,260.214 -66.5965,66.5965 -158.597,107.787 -260.214,107.787 -101.616,0 -193.617,-41.191 -260.214,-107.787 -66.5965,-66.5965 -107.787,-158.597 -107.787,-260.214 0,-101.616 41.191,-193.617 107.787,-260.214 66.5965,-66.5965 158.597,-107.787 260.214,-107.787zm214.963 153.038c-55.0111,-55.0111 -131.013,-89.0363 -214.963,-89.0363 -83.9505,0 -159.952,34.0252 -214.963,89.0363 -55.0111,55.0111 -89.0363,131.013 -89.0363,214.963 0,83.9505 34.0252,159.952 89.0363,214.963 55.0111,55.0111 131.013,89.0363 214.963,89.0363 83.9505,0 159.952,-34.0252 214.963,-89.0363 55.0111,-55.0111 89.0363,-131.013 89.0363,-214.963 0,-83.9505 -34.0252,-159.952 -89.0363,-214.963z"/>
  <path class="fil0" d="M1056 320c0,-17.6728 -14.328,-32.0008 -32.0008,-32.0008 -17.6728,0 -32.0008,14.328 -32.0008,32.0008l0 255.999c0,17.6728 14.328,32.0008 32.0008,32.0008 17.6728,0 32.0008,-14.328 32.0008,-32.0008l0 -255.999z"/>
  <path class="fil0" d="M1056 1472c0,-17.6728 -14.328,-32.0008 -32.0008,-32.0008 -17.6728,0 -32.0008,14.328 -32.0008,32.0008l0 255.999c0,17.6728 14.328,32.0008 32.0008,32.0008 17.6728,0 32.0008,-14.328 32.0008,-32.0008l0 -255.999z"/>
  <path class="fil0" d="M1544.43 548.822c12.4949,-12.4949 12.4949,-32.7555 0,-45.2504 -12.4949,-12.4949 -32.7555,-12.4949 -45.2504,0l-181.018 181.018c-12.4949,12.4949 -12.4949,32.7555 0,45.2504 12.4949,12.4949 32.7555,12.4949 45.2504,0l181.018 -181.018z"/>
  <path class="fil0" d="M729.84 1363.41c12.4949,-12.4949 12.4949,-32.7555 0,-45.2504 -12.4949,-12.4949 -32.7555,-12.4949 -45.2504,0l-181.018 181.018c-12.4949,12.4949 -12.4949,32.7555 0,45.2504 12.4949,12.4949 32.7555,12.4949 45.2504,0l181.018 -181.018z"/>
  <path class="fil0" d="M1728 1056c17.6728,0 32.0008,-14.328 32.0008,-32.0008 0,-17.6728 -14.328,-32.0008 -32.0008,-32.0008l-255.999 0c-17.6728,0 -32.0008,14.328 -32.0008,32.0008 0,17.6728 14.328,32.0008 32.0008,32.0008l255.999 0z"/>
  <path class="fil0" d="M575.999 1056c17.6728,0 32.0008,-14.328 32.0008,-32.0008 0,-17.6728 -14.328,-32.0008 -32.0008,-32.0008l-255.999 0c-17.6728,0 -32.0008,14.328 -32.0008,32.0008 0,17.6728 14.328,32.0008 32.0008,32.0008l255.999 0z"/>
  <path class="fil0" d="M1499.18 1544.43c12.4949,12.4949 32.7555,12.4949 45.2504,0 12.4949,-12.4949 12.4949,-32.7555 0,-45.2504l-181.018 -181.018c-12.4949,-12.4949 -32.7555,-12.4949 -45.2504,0 -12.4949,12.4949 -12.4949,32.7555 0,45.2504l181.018 181.018z"/>
  <path class="fil0" d="M684.59 729.84c12.4949,12.4949 32.7555,12.4949 45.2504,0 12.4949,-12.4949 12.4949,-32.7555 0,-45.2504l-181.018 -181.018c-12.4949,-12.4949 -32.7555,-12.4949 -45.2504,0 -12.4949,12.4949 -12.4949,32.7555 0,45.2504l181.018 181.018z"/>
  <path class="fil1" d="M809.037 809.037c-55.0111,55.0111 -89.0363,131.013 -89.0363,214.963 0,83.9505 34.0252,159.952 89.0363,214.963 55.0111,55.0111 131.013,89.0363 214.963,89.0363 83.9505,0 159.952,-34.0252 214.963,-89.0363 55.0111,-55.0111 89.0363,-131.013 89.0363,-214.963 0,-83.9505 -34.0252,-159.952 -89.0363,-214.963 -55.0111,-55.0111 -131.013,-89.0363 -214.963,-89.0363 -83.9505,0 -159.952,34.0252 -214.963,89.0363z"/>
 </g>
 <rect class="fil2" width="2048" height="2048"/>
</svg>
