<?xml version="1.0" encoding="UTF-8"?>
<!DOCTYPE svg PUBLIC "-//W3C//DTD SVG 1.1//EN" "http://www.w3.org/Graphics/SVG/1.1/DTD/svg11.dtd">
<!-- Creator: CorelDRAW -->
<svg xmlns="http://www.w3.org/2000/svg" xml:space="preserve" width="2048px" height="2048px" style="shape-rendering:geometricPrecision; text-rendering:geometricPrecision; image-rendering:optimizeQuality; fill-rule:evenodd; clip-rule:evenodd"
viewBox="0 0 2048 2048"
 xmlns:xlink="http://www.w3.org/1999/xlink">
 <defs>
  <style type="text/css">
   <![CDATA[
    .fil5 {fill:none}
    .fil2 {fill:#212121}
    .fil3 {fill:#EBE5DF}
    .fil4 {fill:#FECA5F}
    .fil1 {fill:#212121;fill-rule:nonzero}
    .fil0 {fill:#F45A52;fill-rule:nonzero}
   ]]>
  </style>
 </defs>
 <g id="Layer_x0020_1">
  <metadata id="CorelCorpID_0Corel-Layer"/>
  <path class="fil0" d="M1435.97 1111.74c-32.6622,-120.555 -111.346,-228.67 -228.305,-295.764 -117.002,-67.1186 -250.154,-80.4532 -370.842,-47.7555 -120.554,32.661 -228.669,111.345 -295.762,228.305l-0.00590552 0.0106299c-67.1138,117 -80.4473,250.148 -47.7508,370.83 32.661,120.554 111.344,228.666 228.303,295.76l0.0248032 0.0153543c116.998,67.1067 250.139,80.439 370.819,47.7437 120.554,-32.6622 228.667,-111.346 295.76,-228.304l0.00236221 -0.00236221c67.1174,-117.002 80.4544,-250.152 47.7567,-370.839z"/>
  <path class="fil1" d="M1239.41 760.476c132.299,75.8942 221.323,198.268 258.305,334.764 36.9437,136.362 21.8599,286.836 -54.0083,419.091l-0.00236221 0.00236221c-75.8918,132.298 -198.265,221.321 -334.759,258.303 -136.362,36.9437 -286.834,21.861 -419.09,-54.0059l-0.00472441 -0.00354331c-132.299,-75.8942 -221.322,-198.266 -258.303,-334.76 -36.9449,-136.361 -21.861,-286.833 54.0048,-419.087l0.0106299 -0.0165354c75.8942,-132.292 198.265,-221.313 334.754,-258.292 136.363,-36.9449 286.837,-21.8622 419.092,54.0059zm196.554 351.264c-32.6622,-120.555 -111.346,-228.67 -228.305,-295.764 -117.002,-67.1186 -250.154,-80.4532 -370.842,-47.7555 -120.554,32.661 -228.669,111.345 -295.762,228.305l-0.00590552 0.0106299c-67.1138,117 -80.4473,250.148 -47.7508,370.83 32.661,120.554 111.344,228.666 228.303,295.76l0.0248032 0.0153543c116.998,67.1067 250.139,80.439 370.819,47.7437 120.554,-32.6622 228.667,-111.346 295.76,-228.304l0.00236221 -0.00236221c67.1174,-117.002 80.4544,-250.152 47.7567,-370.839zm-47.7579 370.84l0.0011811 -0.0011811m55.4977 31.7528l-0.0011811 0.0011811"/>
  <path class="fil1" d="M1239.67 585.017c53.5182,22.4894 93.4123,65.3741 117.529,119.941 23.7792,53.8016 32.0114,119.162 22.4185,187.031l-9.47717 67.0394 -45.6485 -49.7894c-23.3977,-25.5189 -49.7067,-48.7512 -78.6993,-69.1241 -28.0394,-19.7032 -58.7587,-36.789 -91.9583,-50.7414 -33.3508,-14.0138 -67.0406,-24.0166 -100.583,-30.228 -34.8803,-6.45827 -69.9036,-8.99764 -104.502,-7.85434l-67.3489 2.22756 41.0989 -53.478c41.8193,-54.4134 94.3182,-94.317 149.431,-114.998 55.8308,-20.9504 114.32,-22.474 167.739,-0.0259843zm59.0292 145.691c-17.5984,-39.8197 -46.0666,-70.8426 -83.7804,-86.6906 -37.8095,-15.8882 -79.9548,-14.5288 -120.738,0.774804 -25.9949,9.75473 -51.4288,25.0618 -74.9788,45.1359 15.189,1.50945 30.3839,3.65906 45.5492,6.46772 38.6126,7.1504 76.7623,18.3992 113.835,33.9768 37.2225,15.6425 71.9587,35.0067 103.958,57.4926 12.5823,8.84174 24.7169,18.1606 36.3898,27.9177 -2.15433,-30.8481 -9.02127,-59.7024 -20.2347,-85.0749z"/>
  <path class="fil1" d="M1092.61 313.281c44.2394,28.1528 70.3878,62.4756 84.3969,108.963 12.9024,42.8185 14.5665,94.995 10.4894,162.532l-63.7512 -3.75118c3.63898,-60.293 2.48032,-105.789 -7.9878,-140.53 -9.36379,-31.0748 -27.1441,-54.2115 -57.3969,-73.4634l34.2496 -53.7496z"/>
  <path class="fil1" d="M1045.39 256.175c21.9343,0.99567 41.3611,10.7587 55.0347,25.7339 13.3429,14.6114 21.228,34.2331 20.6221,55.5402l0.0755906 0 0 0.00236221 -0.125197 1.3748c-0.99567,21.9319 -10.7587,41.3587 -25.7327,55.0335 -14.615,13.3441 -34.2343,21.2268 -55.539,20.6209l0 0.0755906 -0.00236221 0 -1.3748 -0.125197c-21.9319,-0.994489 -41.3611,-10.7575 -55.0347,-25.7327 -13.6299,-14.928 -21.5646,-35.0811 -20.5725,-56.9162 0.99567,-21.9319 10.7575,-41.3599 25.7339,-55.0347 14.9256,-13.6299 35.0788,-21.5646 56.915,-20.5725zm7.78347 68.7331c-2.64921,-2.90197 -6.37205,-4.79292 -10.5331,-4.98189 -4.25906,-0.19252 -8.21575,1.37835 -11.1662,4.07244 -2.90197,2.64921 -4.79292,6.37205 -4.98189,10.5331 -0.19252,4.25906 1.37835,8.21575 4.07244,11.1673 2.35394,2.57835 5.55473,4.35945 9.15946,4.85552l0.0011811 0 1.3748 0.125197c4.25788,0.19252 8.21339,-1.37717 11.165,-4.07126 2.57835,-2.35276 4.35827,-5.55473 4.85552,-9.15827l0 -0.0011811 0.125197 -1.3748c0.19252,-4.25788 -1.37835,-8.21575 -4.07244,-11.1662z"/>
  <path class="fil1" d="M1522.27 562.084c-35.074,-8.17205 -64.0808,-4.71142 -92.7698,10.3122 -32.0268,16.7728 -65.3056,47.7697 -105.834,92.5701l-47.2512 -42.7512c45.3863,-50.1697 83.8536,-85.5095 123.586,-106.318 43.0713,-22.5555 85.8485,-27.9272 136.768,-16.0642l-14.4992 62.2512z"/>
  <path class="fil1" d="M1567.01 540.35c-3.1441,-2.93032 -7.18229,-4.30985 -11.1626,-4.17048 -3.83268,0.134646 -7.65945,1.77756 -10.565,4.89449 -2.93032,3.1441 -4.30985,7.18229 -4.17048,11.1626 0.133465,3.83386 1.77756,7.66064 4.89331,10.565 3.14292,2.93032 7.18111,4.30985 11.1626,4.17048 3.83268,-0.134646 7.66064,-1.77756 10.565,-4.89449 2.9315,-3.1441 4.31103,-7.18229 4.17166,-11.1614 -0.134646,-3.83268 -1.77756,-7.66064 -4.89449,-10.5661zm-13.1634 -67.9217c20.2122,-0.709843 40.6985,6.29174 56.6634,21.1713 15.991,14.9067 24.4311,34.9559 25.1457,55.3158 0.709843,20.2134 -6.29174,40.7008 -21.1725,56.6622 -14.9032,15.991 -34.9536,24.4311 -55.3146,25.1457 -20.2134,0.709843 -40.6996,-6.29056 -56.6634,-21.1713 -15.991,-14.9055 -24.4311,-34.9548 -25.1445,-55.3146 -0.709843,-20.2134 6.29056,-40.6996 21.1713,-56.6634 14.9067,-15.9921 34.9548,-24.4311 55.3146,-25.1457z"/>
  <path class="fil1" d="M732.389 1133.08c25.4232,23.915 38.7496,55.9441 39.7406,88.3914 0.988583,32.3244 -10.3595,65.0327 -34.2756,90.4595l-0.624804 0.750001 -0.0011811 0.0011811 -0.046063 -0.046063c-23.8394,24.9614 -55.5709,38.054 -87.7182,39.0366 -32.3256,0.987402 -65.0327,-10.3595 -90.4595,-34.2756l-0.750001 -0.624804 -0.0011811 -0.0011811 -0.00236221 -0.00236221 0.046063 -0.046063c-24.9626,-23.8406 -38.0528,-55.5709 -39.0343,-87.717 -0.988583,-32.3244 10.3583,-65.0315 34.2733,-90.4572l0.624804 -0.750001 0.00236221 -0.00236221 0.046063 0.046063c23.8406,-24.9626 55.5721,-38.0551 87.7194,-39.0378 32.3256,-0.988583 65.0339,10.3595 90.4607,34.2756zm-24.0106 90.1418c-0.486615,-15.9484 -7.1067,-31.7587 -19.7398,-43.6418 -12.6295,-11.8784 -28.8874,-17.5158 -44.9599,-17.0244 -15.9484,0.487796 -31.7563,7.1067 -43.6406,19.741l-0.624804 0.750001 -0.00236221 0.00236221 -0.0366142 -0.0366142c-11.426,12.5244 -16.8425,28.4729 -16.3606,44.2429 0.486615,15.9473 7.10552,31.7563 19.7374,43.6382l0.750001 0.624804 0.00236221 0.00236221 0.0011811 0.0011811 -0.0366142 0.0366142c12.5256,11.426 28.4752,16.8437 44.2453,16.363 15.9484,-0.487796 31.7575,-7.10788 43.6394,-19.7398l0.624804 -0.750001 0.0011811 -0.0011811 0.0366142 0.0366142c11.426,-12.5256 16.8449,-28.4752 16.363,-44.2453z"/>
  <path class="fil1" d="M875.169 1493.2l-0.00236221 -0.0011811c-15.9756,-6.71339 -33.1618,-6.31536 -48.0296,-0.246851 -14.7685,6.02835 -27.2563,17.7354 -33.9591,33.6851 -6.71339,15.9756 -6.31536,33.1618 -0.246851,48.0296 6.02835,14.7685 17.7354,27.2563 33.6851,33.9591l0.00236221 0.0011811c15.9732,6.71221 33.1583,6.31418 48.026,0.245669 14.7697,-6.02835 27.2563,-17.7343 33.9591,-33.6827l0.00236221 -0.00472441c6.71339,-15.9744 6.31418,-33.1583 0.245669,-48.026 -6.02835,-14.7685 -17.7343,-27.2563 -33.6827,-33.9591zm24.7512 -59.0008c32.2146,13.5378 55.9122,38.8996 68.1827,68.9599 12.2303,29.9599 13.0323,64.5875 -0.496063,96.7772l-0.00236221 0.00472441c-13.5378,32.2146 -38.8996,55.9122 -68.9599,68.1827 -29.9599,12.2303 -64.5875,13.0323 -96.7772,-0.496063l-0.00236221 -0.0011811c-32.2146,-13.5378 -55.9146,-38.8996 -68.1851,-68.9599 -12.2303,-29.9599 -13.0299,-64.5898 0.497244,-96.7808 13.5378,-32.2146 38.8996,-55.9146 68.9599,-68.1851 29.9599,-12.2303 64.5898,-13.0299 96.7808,0.497244l0.00236221 0.0011811z"/>
  <path class="fil1" d="M1334.44 1368.56l0.00236221 0.00354331c20.2429,28.5355 27.0189,62.5004 21.6071,94.3394 -5.43308,31.9642 -23.0362,61.8426 -51.5233,82.0524l-0.00354331 0.00236221c-28.5355,20.2441 -62.5016,27.0177 -94.3418,21.6083 -31.9654,-5.43308 -61.8449,-23.0386 -82.0548,-51.5268 -20.2441,-28.5355 -27.0189,-62.5004 -21.6071,-94.3406 5.43308,-31.9654 23.0386,-61.8449 51.5268,-82.056 28.5343,-20.2441 62.4993,-27.0189 94.3406,-21.6071 31.9642,5.43308 61.8437,23.0374 82.0536,51.5244zm-41.3906 83.843c2.70118,-15.8917 -0.62126,-32.7638 -10.6051,-46.8378l-0.00236221 -0.00354331c-10.0205,-14.1248 -24.7866,-22.8461 -40.5555,-25.526 -15.8941,-2.70118 -32.7662,0.62126 -46.8414,10.6063 -14.1236,10.0205 -22.8461,24.7866 -25.526,40.5567 -2.70118,15.8929 0.620079,32.765 10.6063,46.8414 10.0205,14.1248 24.7866,22.8461 40.5555,25.526 15.8929,2.7 32.765,-0.62126 46.8402,-10.6063l0.00354331 -0.00236221c14.1236,-10.0193 22.8449,-24.7855 25.5248,-40.5544z"/>
  <path class="fil1" d="M968.29 855.77l0.00354331 0.00354331 -0.0862205 0.0862205c25.1339,23.4886 38.5807,54.8575 40.0075,86.7473 1.44449,32.2618 -9.46182,65.126 -33.0591,90.9367l-0.875198 1.12559 -0.00354331 0.00354331 -0.0011811 0.0011811 -0.0862205 -0.0862205c-23.4886,25.1327 -54.8575,38.5819 -86.7485,40.0111 -32.2618,1.44449 -65.126,-9.46182 -90.9414,-33.0614l-1.12559 -0.875198 -0.0011811 -0.0011811 -0.0011811 -0.0011811 0.0862205 -0.0862205c-25.1327,-23.4886 -38.5831,-54.8587 -40.0099,-86.7497 -1.44449,-32.263 9.46418,-65.1272 33.0626,-90.9402l0.875198 -1.12559 0.0011811 -0.0011811 0.00236221 -0.00236221 0.0862205 0.0862205c23.4886,-25.1339 54.8587,-38.5819 86.7485,-40.0087 32.2595,-1.44449 65.1237,9.46182 90.9379,33.0603l1.12559 0.875198 0.00236221 0.00236221zm-45.2469 45.254l-0.00354331 -0.00354331 -0.00236221 -0.00236221 0.068504 -0.068504c-12.5835,-10.9973 -28.467,-16.0665 -44.1319,-15.3662 -16.0417,0.718111 -31.7977,7.54134 -43.4587,20.2961l-0.875198 1.12559 -0.00236221 0.00236221 -0.0011811 0.0011811 -0.068504 -0.068504c-10.9973,12.5835 -16.0689,28.4681 -15.3685,44.1343 0.718111,16.0417 7.54253,31.7988 20.2973,43.4599l1.12559 0.875198 0.0011811 0.0011811 0.0011811 0.0011811 -0.068504 0.068504c12.5858,10.9973 28.4681,16.0677 44.1355,15.3673 16.0417,-0.718111 31.7965,-7.54253 43.4587,-20.2984l0.875198 -1.12559 0.0011811 -0.0011811 0.00354331 -0.00354331 0.068504 0.068504c10.9949,-12.5811 16.0654,-28.4646 15.365,-44.1307 -0.718111,-16.0417 -7.54016,-31.7965 -20.2949,-43.4575l-1.12559 -0.875198z"/>
  <path class="fil1" d="M1279.72 978.104c32.2146,13.5378 55.9146,38.9008 68.1851,68.9611 12.2303,29.9599 13.0299,64.5898 -0.497244,96.7808 -13.5378,32.2146 -38.9008,55.9146 -68.9611,68.1851 -29.9599,12.2303 -64.5898,13.0299 -96.7808,-0.497244 -32.2146,-13.5378 -55.9146,-38.9008 -68.1851,-68.9611 -12.2303,-29.9599 -13.0299,-64.5898 0.497244,-96.7796 13.5378,-32.2158 38.902,-55.9146 68.9611,-68.1851 29.9599,-12.2315 64.5886,-13.0311 96.7808,0.496063zm8.93387 92.9611c-6.02835,-14.7697 -17.7354,-27.2587 -33.6851,-33.9603 -15.9756,-6.71339 -33.1607,-6.31536 -48.0296,-0.245669 -14.7685,6.02835 -27.2575,17.7354 -33.9603,33.6851 -6.71339,15.9744 -6.31536,33.1607 -0.246851,48.0284 6.02835,14.7685 17.7354,27.2575 33.6851,33.9603 15.9756,6.71339 33.1618,6.31536 48.0296,0.246851 14.7685,-6.02835 27.2575,-17.7354 33.9603,-33.6851 6.71339,-15.9756 6.31536,-33.1618 0.246851,-48.0296z"/>
  <circle class="fil2" transform="matrix(0.302823 0.127259 -0.127259 0.302823 914.918 1235.76)" r="96.0001"/>
  <circle class="fil2" transform="matrix(0.302823 0.127259 -0.127259 0.302823 1072.49 1267.78)" r="96.0001"/>
  <circle class="fil2" transform="matrix(0.302823 0.127259 -0.127259 0.302823 1078.83 1578.29)" r="96.0001"/>
  <circle class="fil2" transform="matrix(0.302823 0.127259 -0.127259 0.302823 982.336 1400.92)" r="96.0001"/>
  <circle class="fil2" transform="matrix(0.302823 0.127259 -0.127259 0.302823 673.072 997.308)" r="96.0001"/>
  <circle class="fil2" transform="matrix(0.302823 0.127259 -0.127259 0.302823 659.609 1436.32)" r="96.0001"/>
  <circle class="fil2" transform="matrix(0.302823 0.127259 -0.127259 0.302823 1119.67 911.34)" r="96.0001"/>
  <circle class="fil2" transform="matrix(0.302823 0.127259 -0.127259 0.302823 1370.79 1290.52)" r="96.0001"/>
  <path class="fil3" d="M1019.31 689.836c63.3827,6.26693 126.541,23.6469 186.627,52.9099 0.101575,0.0496063 0.204331,0.0992127 0.305906,0.148819 26.8949,13.076 52.3642,28.1504 76.3016,44.9705 12.5823,8.84174 24.7169,18.1606 36.3898,27.9177 -2.15433,-30.8481 -9.02127,-59.7024 -20.2347,-85.0749 -17.5984,-39.8197 -46.0666,-70.8426 -83.7804,-86.6906 -37.8095,-15.8882 -79.9548,-14.5288 -120.738,0.774804 -25.9547,9.73938 -51.3508,25.0146 -74.8713,45.0437z"/>
  <path class="fil4" d="M923.037 901.018l0 0zm-88.4009 5.99056l0 0zm5.98819 88.4032l0 0zm88.4056 -5.99292l0 0zm15.4335 -44.0622c-0.718111,-16.0417 -7.54016,-31.7965 -20.2949,-43.4575l-1.1315 -0.881103 0.068504 -0.068504c-12.5835,-10.9973 -28.467,-16.0665 -44.1319,-15.3662 -16.898,0.755906 -32.3752,7.87205 -44.3374,21.4252l-0.068504 -0.068504c-10.9973,12.5835 -16.0689,28.4681 -15.3685,44.1343 0.755906,16.898 7.87323,32.3764 21.4252,44.3374l-0.068504 0.068504c12.5858,10.9973 28.4681,16.0677 44.1355,15.3673 16.8969,-0.755906 32.374,-7.87442 44.3386,-21.4288l0.068504 0.068504c10.9949,-12.5811 16.0654,-28.4646 15.365,-44.1307z"/>
  <path class="fil4" d="M1172.97 1070.54c-6.71339,15.9744 -6.31536,33.1607 -0.246851,48.0284 6.02835,14.7685 17.7354,27.2575 33.6851,33.9603 15.9756,6.71339 33.1618,6.31536 48.0296,0.246851 14.7685,-6.02835 27.2575,-17.7354 33.9603,-33.6851 6.71339,-15.9756 6.31536,-33.1618 0.246851,-48.0296 -6.02835,-14.7697 -17.7354,-27.2587 -33.6851,-33.9603 -15.9756,-6.71339 -33.1607,-6.31536 -48.0296,-0.245669 -14.7685,6.02835 -27.2575,17.7354 -33.9603,33.6851z"/>
  <path class="fil4" d="M875.167 1493.2l0 0zm-48.5481 115.428l0 0zm81.9875 -33.4418l0 0zm0.245669 -48.026c-6.02835,-14.7685 -17.7343,-27.2563 -33.6851,-33.9603 -15.9756,-6.71339 -33.1618,-6.31536 -48.0296,-0.246851 -14.7685,6.02835 -27.2563,17.7354 -33.9591,33.6851 -6.71339,15.9756 -6.31536,33.1618 -0.246851,48.0296 6.02835,14.7685 17.7354,27.2563 33.6874,33.9603 15.9732,6.71221 33.1583,6.31418 48.026,0.245669 14.7697,-6.02835 27.2563,-17.7343 33.9614,-33.6874 6.71339,-15.9744 6.31418,-33.1583 0.245669,-48.026z"/>
  <path class="fil4" d="M599.411 1183.05l0 0zm4.0937 88.4729l0 0zm88.5107 -4.05473c11.426,-12.5256 16.8449,-28.4752 16.363,-44.2453 -1.05354,-34.5142 -30.1736,-61.7221 -64.6997,-60.6662 -16.415,0.501969 -32.2666,7.34882 -44.2678,20.4933l-0.0366142 -0.0366142c-11.426,12.5244 -16.8425,28.4729 -16.3606,44.2429 0.500788,16.415 7.34764,32.2654 20.491,44.2666l-0.0366142 0.0366142c12.5256,11.426 28.4752,16.8437 44.2453,16.363 16.415,-0.500788 32.2677,-7.35119 44.2654,-20.491l0.0366142 0.0366142z"/>
  <path class="fil4" d="M1267.53 1492.96l0 0zm14.9173 -87.3957l0 0zm-112.923 25.637c-2.70118,15.8929 0.620079,32.765 10.6063,46.8414 10.0205,14.1248 24.7866,22.8461 40.5555,25.526 15.8929,2.7 32.765,-0.62126 46.8437,-10.6087 14.1236,-10.0193 22.8449,-24.7855 25.5248,-40.5544 2.70118,-15.8917 -0.62126,-32.7638 -10.6075,-46.8414 -10.0205,-14.1248 -24.7866,-22.8461 -40.5555,-25.526 -15.8941,-2.70118 -32.7662,0.62126 -46.8414,10.6063 -14.1236,10.0205 -22.8461,24.7866 -25.526,40.5567z"/>
 </g>
 <rect class="fil5" width="2048" height="2048"/>
</svg>
