<?xml version="1.0" encoding="UTF-8"?>
<!DOCTYPE svg PUBLIC "-//W3C//DTD SVG 1.1//EN" "http://www.w3.org/Graphics/SVG/1.1/DTD/svg11.dtd">
<!-- Creator: CorelDRAW -->
<svg xmlns="http://www.w3.org/2000/svg" xml:space="preserve" width="2048px" height="2048px" style="shape-rendering:geometricPrecision; text-rendering:geometricPrecision; image-rendering:optimizeQuality; fill-rule:evenodd; clip-rule:evenodd"
viewBox="0 0 2048 2048"
 xmlns:xlink="http://www.w3.org/1999/xlink">
 <defs>
  <style type="text/css">
   <![CDATA[
    .fil4 {fill:none}
    .fil1 {fill:#AED581}
    .fil3 {fill:#F39CC3}
    .fil2 {fill:#F45A52}
    .fil0 {fill:#212121;fill-rule:nonzero}
   ]]>
  </style>
 </defs>
 <g id="Layer_x0020_1">
  <metadata id="CorelCorpID_0Corel-Layer"/>
  <path class="fil0" d="M935.396 451.721l245.927 -153.704 -0.0283465 -0.046063c14.9858,-9.36615 34.7303,-4.81063 44.0965,10.1752 1.55433,2.48622 2.72244,5.10591 3.52559,7.78465 124.63,339.125 82.6607,577.126 -23.7614,712.01 -70.3123,89.1178 -168.411,133.677 -266.644,133.677 -98.2335,0 -196.331,-44.5595 -266.644,-133.677 -106.612,-135.126 -148.557,-373.734 -23.1,-713.834l30 10.9996 -30.0225 -11.0752c6.11575,-16.5803 24.5173,-25.063 41.0977,-18.9473 2.91969,1.07717 5.5878,2.53701 7.97008,4.29922l237.582 152.338zm246.02 -78.417l-227.628 142.267c-10.3335,7.37481 -24.5315,8.16142 -35.8725,0.890552l17.2725 -26.9386 -17.25 26.8748 -222.48 -142.655c-100.244,295.479 -64.2355,499.809 26.4107,614.697 57.4252,72.7843 137.102,109.176 216.643,109.176 79.539,0 159.217,-36.3922 216.643,-109.176 90.691,-114.945 126.692,-319.419 26.2618,-615.136z"/>
  <path class="fil0" d="M773.931 373.095c-14.0138,10.6311 -16.7563,30.6107 -6.1252,44.6244 10.6311,14.0138 30.6107,16.7563 44.6244,6.1252l123.946 -94.2142 108.594 101.061c12.9095,12.0118 33.1134,11.2843 45.1252,-1.6252 12.0118,-12.9095 11.2843,-33.1134 -1.6252,-45.1252l-126.613 -117.832c-11.0717,-11.8358 -29.5288,-13.6063 -42.7111,-3.58583l0.090945 0.120473 -145.306 110.451z"/>
  <path class="fil0" d="M957.438 466.648c127.973,123.822 197.954,244.873 201.02,362.718 3.11457,119.673 -61.9489,232.547 -204.269,337.705l-38.0008 -51.2504c124.202,-91.7705 181.07,-186.89 178.519,-284.954 -2.59961,-99.8942 -65.8855,-206.342 -181.768,-318.467l44.4992 -45.7512z"/>
  <polygon class="fil0" points="983.166,1129.34 983.166,1760 919.164,1760 919.164,1129.34 "/>
  <path class="fil0" d="M936.778 1382.31c184.08,-162.813 337.11,-107.875 503.707,-48.065 36.8764,13.2413 -74.8489,-26.876 14.8512,5.2004l46.8059 16.7374 -34.6807 35.6374c-64.3654,66.1394 -139.335,113.992 -228.627,137.133 -88.4764,22.9288 -190.227,21.2752 -308.699,-11.3457l16.7504 -61.5c107.139,29.5004 198.006,31.2945 275.949,11.0953 60.7819,-15.7524 114.195,-45.0874 161.747,-85.2166 -135.007,-47.3859 -261.869,-79.0111 -405.554,48.0733l-42.2504 -47.7496z"/>
  <path class="fil1" d="M1384.58 1381.99c-133.71,-46.93 -259.431,-78.4016 -401.417,44.4532l0 38.7461c91.5627,20.5441 170.679,19.8969 239.669,2.01732 60.7819,-15.7524 114.195,-45.0874 161.747,-85.2166z"/>
  <path class="fil2" d="M1155.15 988.441c90.691,-114.945 126.692,-319.419 26.2618,-615.136l-195.295 122.06c109.727,113.835 169.508,225.284 172.337,334.002 2.12008,81.4701 -27.3567,159.789 -91.2946,234.668 32.426,-17.9788 62.4154,-43.1764 87.991,-75.593z"/>
  <path class="fil2" d="M1094.71 830.866c-2.58189,-99.1997 -65.0079,-204.861 -179.358,-316.127l-219.891 -140.995c-100.244,295.479 -64.2355,499.809 26.4107,614.697 57.4252,72.7843 137.102,109.176 216.643,109.176 0.46063,0 0.921261,-0.0011811 1.38071,-0.00354331 107.743,-86.1272 157.197,-175.153 154.814,-266.747z"/>
  <polygon class="fil3" points="935.396,451.721 1014.47,402.303 936.376,329.631 848.802,396.198 "/>
 </g>
 <rect class="fil4" width="2048" height="2048"/>
</svg>
