<?xml version="1.0" encoding="UTF-8"?>
<!DOCTYPE svg PUBLIC "-//W3C//DTD SVG 1.1//EN" "http://www.w3.org/Graphics/SVG/1.1/DTD/svg11.dtd">
<!-- Creator: CorelDRAW -->
<svg xmlns="http://www.w3.org/2000/svg" xml:space="preserve" width="2048px" height="2048px" style="shape-rendering:geometricPrecision; text-rendering:geometricPrecision; image-rendering:optimizeQuality; fill-rule:evenodd; clip-rule:evenodd"
viewBox="0 0 2048 2048"
 xmlns:xlink="http://www.w3.org/1999/xlink">
 <defs>
  <style type="text/css">
   <![CDATA[
    .fil4 {fill:none}
    .fil1 {fill:#212121}
    .fil3 {fill:#EBE5DF}
    .fil2 {fill:#FECA5F}
    .fil0 {fill:#212121;fill-rule:nonzero}
   ]]>
  </style>
 </defs>
 <g id="Layer_x0020_1">
  <metadata id="CorelCorpID_0Corel-Layer"/>
  <path class="fil0" d="M1184 400.196c88.3607,0 168.362,35.8193 226.271,93.7288 57.9095,57.9095 93.7288,137.91 93.7288,226.271 0,88.3607 -35.8193,168.362 -93.7288,226.271 -57.9095,57.9095 -137.91,93.7288 -226.271,93.7288 -88.3607,0 -168.362,-35.8193 -226.271,-93.7288 -57.9095,-57.9095 -93.7288,-137.91 -93.7288,-226.271 0,-88.3607 35.8193,-168.362 93.7288,-226.271 57.9095,-57.9095 137.91,-93.7288 226.271,-93.7288zm181.021 138.979c-46.3241,-46.3241 -110.326,-74.9776 -181.021,-74.9776 -70.6949,0 -134.697,28.6536 -181.021,74.9776 -46.3241,46.3241 -74.9776,110.326 -74.9776,181.021 0,70.6949 28.6536,134.697 74.9776,181.021 46.3241,46.3241 110.326,74.9776 181.021,74.9776 70.6949,0 134.697,-28.6536 181.021,-74.9776 46.3241,-46.3241 74.9776,-110.326 74.9776,-181.021 0,-70.6949 -28.6536,-134.697 -74.9776,-181.021z"/>
  <path class="fil0" d="M974.4 876.803c-75.9308,116.936 -154.223,186.917 -265.272,226.523 -101.321,36.1359 -228.508,45.6237 -406.316,41.9008 22.4729,244.449 173.578,392.716 358.02,453.825 108.021,35.791 227.364,42.1063 339.344,20.7142 111.455,-21.2929 215.308,-69.9355 292.947,-144.15 128.662,-122.991 185.381,-318.444 84.2859,-578.982l59.4993 -23.0008c112.136,288.994 46.5225,508.374 -99.7843,648.232 -86.7827,82.9572 -201.937,137.15 -324.947,160.65 -122.486,23.3988 -253.081,16.4717 -371.345,-22.7126 -216.287,-71.6611 -391.707,-249.862 -404.048,-546.082l-1.42087 -34.1209 34.1717 0.99567c188.4,5.48622 318.839,-2.0315 418.344,-37.5201 96.306,-34.3477 165.15,-96.495 233.023,-201.023l53.4993 34.7504z"/>
  <circle class="fil1" cx="1340.94" cy="716.946" r="46.1244"/>
  <path class="fil0" d="M1499.59 675.624c16.1126,8.36575 29.6055,15.939 42.5575,23.2087 51.1831,28.7256 93.3438,52.389 150.503,43.7162l67.2402 -10.2024 -35.1142 58.3276c-43.7764,72.717 -86.3812,110.752 -137.623,125.074 -50.3233,14.0669 -104.56,3.67087 -173.777,-20.0374l20.4992 -60.5008c57.6343,19.741 101.05,28.8851 136.277,19.0382 22.839,-6.38268 44.1485,-21.5221 66.0804,-47.9304 -45.1347,-6.72875 -82.6323,-27.7677 -125.335,-51.7347 -13.3984,-7.52127 -27.352,-15.352 -40.5591,-22.2095l29.2512 -56.7496z"/>
  <path class="fil2" d="M1440 720.195c0,-70.6949 -28.6536,-134.697 -74.9776,-181.021 -46.3241,-46.3241 -110.326,-74.9776 -181.021,-74.9776 -70.6949,0 -134.697,28.6536 -181.021,74.9776 -46.3241,46.3241 -74.9776,110.326 -74.9776,181.021 0,70.6949 28.6536,134.697 74.9776,181.021 46.3241,46.3241 110.326,74.9776 181.021,74.9776 70.6949,0 134.697,-28.6536 181.021,-74.9776 46.3241,-46.3241 74.9776,-110.326 74.9776,-181.021zm-99.0603 42.8752c-25.474,0 -46.1244,-20.6504 -46.1244,-46.1244 0,-25.474 20.6504,-46.1244 46.1244,-46.1244 25.474,0 46.1244,20.6504 46.1244,46.1244 0,25.474 -20.6504,46.1244 -46.1244,46.1244z"/>
  <path class="fil2" d="M1184 1040.2c-88.3607,0 -168.362,-35.8193 -226.271,-93.7288 -6.30591,-6.30591 -12.3496,-12.874 -18.1146,-19.6854 -65.6245,87.4678 -136.265,142.939 -230.489,176.544 -101.321,36.1359 -228.508,45.6237 -406.316,41.9008 22.4729,244.449 173.578,392.716 358.02,453.825 108.021,35.791 227.364,42.1063 339.344,20.7142 111.455,-21.2929 215.308,-69.9355 292.947,-144.15 118.426,-113.205 175.901,-287.801 105.463,-518.032 -56.7626,51.3426 -132.024,82.6123 -214.583,82.6123z"/>
  <path class="fil3" d="M1477.19 848.617c36.9614,9.86694 67.1587,12.8445 92.9623,5.6315 22.839,-6.38268 44.1485,-21.5221 66.0804,-47.9304 -45.1347,-6.72875 -82.6323,-27.7677 -125.335,-51.7347 -2.73307,-1.53425 -5.48977,-3.0815 -8.25827,-4.63111 -3.21024,34.8024 -11.9929,67.9914 -25.4492,98.6646z"/>
 </g>
 <rect class="fil4" width="2048" height="2048"/>
</svg>
