<?xml version="1.0" encoding="UTF-8"?>
<!DOCTYPE svg PUBLIC "-//W3C//DTD SVG 1.1//EN" "http://www.w3.org/Graphics/SVG/1.1/DTD/svg11.dtd">
<!-- Creator: CorelDRAW -->
<svg xmlns="http://www.w3.org/2000/svg" xml:space="preserve" width="2048px" height="2048px" style="shape-rendering:geometricPrecision; text-rendering:geometricPrecision; image-rendering:optimizeQuality; fill-rule:evenodd; clip-rule:evenodd"
viewBox="0 0 2048 2048"
 xmlns:xlink="http://www.w3.org/1999/xlink">
 <defs>
  <style type="text/css">
   <![CDATA[
    .fil2 {fill:none}
    .fil1 {fill:#AED581}
    .fil0 {fill:#212121;fill-rule:nonzero}
   ]]>
  </style>
 </defs>
 <g id="Layer_x0020_1">
  <metadata id="CorelCorpID_0Corel-Layer"/>
  <path class="fil0" d="M1202.07 291.5c-4.54607,41.0929 30.163,97.8662 68.0516,159.84 21.3898,34.9855 43.7008,71.4792 61.8166,109.708 67.8934,143.274 76.5131,299.177 -223.864,441.52l-19.3158 9.15355 -15.8091 -14.4036c-137.638,-125.388 -196.541,-250.597 -181.175,-375.626 15.1583,-123.344 103.134,-243.045 259.545,-359.316l58.8095 -43.7174 -8.05867 72.8422zm13.5508 193.09c-29.3433,-47.9953 -57.0343,-93.2942 -70.0571,-136.811 -114.385,93.9827 -178.762,187.875 -190.289,281.662 -12.1488,98.8572 35.0256,200.772 144.918,305.914 231.614,-116.186 226.191,-236.91 173.994,-347.058 -16.676,-35.1898 -38.0634,-70.1717 -58.5662,-103.708z"/>
  <path class="fil0" d="M384.149 733.419c36.5575,34.9335 115.277,43.1292 201.208,52.0748 47.9469,4.99134 97.9631,10.1988 146.058,20.4473 179.53,38.2548 328.967,140.128 248.516,517.694l-4.45512 20.9091 -21.1689 3.84095c-213.416,38.7154 -370.8,4.85197 -475.323,-97.4705 -103.246,-101.074 -151.719,-267.298 -148.71,-494.746l0.970867 -73.304 52.9052 50.5548zm194.707 115.576c-68.9989,-7.18229 -133.889,-13.9441 -184.429,-35.0563 5.12363,179.971 47.5099,311.399 129.306,391.475 85.5886,83.7863 217.362,112.791 397.969,83.8619 59.4685,-307.177 -59.9646,-390.244 -203.537,-420.835 -45.3508,-9.66379 -93.3213,-14.6587 -139.309,-19.4457z"/>
  <path class="fil0" d="M1653.44 1014.12c-43.4552,16.663 -97.7103,22.3146 -155.228,28.3016 -39.7831,4.14095 -81.2823,8.4626 -120.463,16.8106 -122.023,26.0008 -223.567,96.6402 -173.943,357.434 153.839,24.1063 266.045,-0.812599 338.864,-72.0993 69.2127,-67.7564 105.545,-178.684 110.77,-330.447zm-161.728 -35.1992c73.8296,-7.68426 141.462,-14.7272 172.156,-44.0575l52.9052 -50.5536 0.970867 73.3028c2.62677,198.597 -39.8528,343.888 -130.324,432.455 -91.7481,89.8158 -229.572,119.6 -416.242,85.7363l-21.1689 -3.84095 -4.45512 -20.9091c-70.5721,-331.2 60.9674,-420.658 218.946,-454.321 41.9233,-8.93268 85.467,-13.4669 127.212,-17.8122z"/>
  <path class="fil0" d="M1126.08 978.067c2.41536,-17.465 -9.78544,-33.5847 -27.2504,-36 -17.465,-2.41536 -33.5847,9.78544 -36,27.2504 -8.47087,60.3756 -13.8248,122.558 -19.2803,185.954 -18.4984,214.935 -38.2335,444.215 -176.123,582.104 -12.4949,12.4949 -12.4949,32.7555 0,45.2504 12.4949,12.4949 32.7555,12.4949 45.2504,0 154.365,-154.365 175.146,-395.788 194.623,-622.104 5.46378,-63.4878 10.8248,-125.76 18.7795,-182.456z"/>
  <polygon class="fil0" points="974.056,1297.76 1072.21,1427.17 1021.46,1465.67 923.306,1336.26 "/>
  <polygon class="fil0" points="1038.15,1442.27 1198.25,1414.92 1209,1477.92 1048.9,1505.27 "/>
  <path class="fil0" d="M827.417 1246.79c10.976,13.8071 31.0689,16.1008 44.876,5.12481 13.8071,-10.976 16.1008,-31.0689 5.12481,-44.876 -53.1603,-66.7713 -105.708,-120.978 -157.701,-163.892 -52.7197,-43.5142 -104.724,-75.2705 -156.086,-96.5977 -16.2921,-6.76536 -34.9855,0.957875 -41.7508,17.25 -6.76536,16.2921 0.957875,34.9855 17.25,41.7508 45.8575,19.0417 92.5229,47.5878 140.087,86.8465 48.2894,39.8575 97.6513,90.9024 148.2,154.394z"/>
  <path class="fil0" d="M1233.36 1336.5c-10.976,13.8071 -8.68229,33.9 5.12481,44.876 13.8071,10.976 33.9,8.68229 44.876,-5.12481 50.5489,-63.4914 99.9107,-114.536 148.2,-154.394 47.5642,-39.2587 94.2284,-67.8048 140.087,-86.8465 16.2921,-6.76536 24.0154,-25.4587 17.25,-41.7508 -6.76536,-16.2921 -25.4587,-24.0154 -41.7508,-17.25 -51.3626,21.3272 -103.367,53.0835 -156.086,96.5977 -51.9933,42.9142 -104.541,97.1209 -157.701,163.892z"/>
  <path class="fil0" d="M1065.6 850.314c-5.38465,16.7752 3.8504,34.741 20.6256,40.1256 16.7752,5.38465 34.741,-3.8504 40.1256,-20.6256 26.2772,-81.391 42.3851,-155.117 49.3548,-221.949 7.0819,-67.9111 4.77048,-128.765 -5.87363,-183.354 -3.31299,-17.3268 -20.048,-28.6878 -37.3748,-25.3748 -17.3268,3.31299 -28.6878,20.048 -25.3748,37.3748 9.50198,48.7347 11.5276,103.436 5.12244,164.854 -6.51733,62.4957 -21.7252,131.888 -46.6052,208.95z"/>
  <path class="fil1" d="M1086.23 890.44c-16.7752,-5.38465 -26.0103,-23.3504 -20.6256,-40.1256 24.8799,-77.0623 40.0878,-146.454 46.6052,-208.95 6.40512,-61.4174 4.37953,-116.119 -5.12244,-164.854 -3.31299,-17.3268 8.04804,-34.0618 25.3748,-37.3748 17.3268,-3.31299 34.0618,8.04804 37.3748,25.3748 10.6441,54.5894 12.9555,115.443 5.87363,183.354 -6.96969,66.8327 -23.0776,140.558 -49.3548,221.949 -5.38465,16.7752 -23.3504,26.0103 -40.1256,20.6256zm129.397 -405.85c-29.3433,-47.9953 -57.0343,-93.2942 -70.0571,-136.811 -114.385,93.9827 -178.762,187.875 -190.289,281.662 -12.1488,98.8572 35.0256,200.772 144.918,305.914 231.614,-116.186 226.191,-236.91 173.994,-347.058 -16.676,-35.1898 -38.0634,-70.1717 -58.5662,-103.708z"/>
  <path class="fil1" d="M1571.64 1135.01c-45.8587,19.0417 -92.5229,47.5878 -140.087,86.8465 -48.2894,39.8575 -97.6513,90.9024 -148.2,154.394 -10.976,13.8071 -31.0689,16.1008 -44.876,5.12481 -13.8071,-10.976 -16.1008,-31.0689 -5.12481,-44.876 53.1603,-66.7713 105.708,-120.978 157.701,-163.892 52.7197,-43.5142 104.724,-75.2705 156.086,-96.5977 16.2921,-6.76536 34.9855,0.957875 41.7508,17.25 6.76536,16.2921 -0.957875,34.9855 -17.25,41.7508zm-193.895 -75.7808c-122.023,26.0008 -223.567,96.6402 -173.943,357.434 153.839,24.1063 266.045,-0.812599 338.864,-72.0993 69.2127,-67.7564 105.545,-178.684 110.77,-330.447 -43.4552,16.663 -97.7103,22.3146 -155.228,28.3016 -39.7831,4.14095 -81.2823,8.4626 -120.463,16.8106z"/>
  <path class="fil1" d="M921.702 1289.28c59.4685,-307.177 -59.9646,-390.244 -203.537,-420.835 -45.3508,-9.66379 -93.3213,-14.6587 -139.309,-19.4457 -68.9989,-7.18229 -133.889,-13.9441 -184.429,-35.0563 5.12363,179.971 47.5099,311.399 129.306,391.475 85.5886,83.7863 217.362,112.791 397.969,83.8619zm-358.072 -342.727c51.3626,21.3272 103.367,53.0835 156.086,96.5977 51.9933,42.9142 104.541,97.1209 157.701,163.892 10.976,13.8071 8.68229,33.9 -5.12481,44.876 -13.8071,10.976 -33.9,8.68229 -44.876,-5.12481 -50.5489,-63.4914 -99.9107,-114.536 -148.2,-154.394 -47.5642,-39.2587 -94.2296,-67.8048 -140.087,-86.8465 -16.2921,-6.76536 -24.0154,-25.4587 -17.25,-41.7508 6.76536,-16.2921 25.4587,-24.0154 41.7508,-17.25z"/>
 </g>
 <rect class="fil2" width="2048" height="2048"/>
</svg>
