<?xml version="1.0" encoding="UTF-8"?>
<!DOCTYPE svg PUBLIC "-//W3C//DTD SVG 1.1//EN" "http://www.w3.org/Graphics/SVG/1.1/DTD/svg11.dtd">
<!-- Creator: CorelDRAW -->
<svg xmlns="http://www.w3.org/2000/svg" xml:space="preserve" width="2048px" height="2048px" style="shape-rendering:geometricPrecision; text-rendering:geometricPrecision; image-rendering:optimizeQuality; fill-rule:evenodd; clip-rule:evenodd"
viewBox="0 0 2048 2048"
 xmlns:xlink="http://www.w3.org/1999/xlink">
 <defs>
  <style type="text/css">
   <![CDATA[
    .fil3 {fill:none}
    .fil1 {fill:#F39CC3}
    .fil0 {fill:#212121;fill-rule:nonzero}
    .fil2 {fill:#F39CC3;fill-rule:nonzero}
   ]]>
  </style>
 </defs>
 <g id="Layer_x0020_1">
  <metadata id="CorelCorpID_0Corel-Layer"/>
  <path class="fil0" d="M1258.87 621.657c70.7127,-6.72875 149.666,10.6028 230.097,54.5256 72.5965,39.6437 146.62,100.984 216.884,185.856l15.2138 18.378 -13.4634 19.8721c-98.4875,145.362 -212.023,232.149 -319.374,265.855 -47.3256,14.8583 -93.5835,19.5213 -137.06,14.4496 -44.1508,-5.14961 -85.3713,-20.3469 -121.924,-45.1122 -56.8926,-38.5477 -101.662,-99.8965 -127.478,-182.12l-10.115 -32.217 32.8642 -8.28308c72.8127,-18.3496 127.247,-52.193 161.868,-95.9894 35.0705,-44.3646 50.2004,-99.7595 43.7374,-160.088l-3.43583 -32.0622 32.1862 -3.06378zm199.596 110.526c-57.1158,-31.1906 -112.499,-46.8048 -163.019,-48.0638 -0.0484252,64.0276 -20.1768,123.059 -59.0634,172.252 -37.48,47.4118 -92.0906,85.1257 -162.53,108.618 21.7169,52.4859 53.1685,92.0139 91.1398,117.741 27.7654,18.8114 59.3516,30.3874 93.4241,34.3618 34.7457,4.05237 72.1371,0.193701 110.811,-11.948 89.6883,-28.1599 185.51,-100.224 271.77,-220.721 -60.1973,-69.0355 -122.215,-119.302 -182.531,-152.239z"/>
  <path class="fil0" d="M734.673 710.88c-50.5618,5.59252 -104.747,26.2453 -159.217,62.9091 -57.4252,38.6528 -114.826,94.8768 -168.45,169.773 97.6595,111.998 200.125,174.621 292.146,193.929 39.4973,8.28662 76.9725,8.48977 111.109,1.10669 33.3827,-7.22008 63.6567,-21.7854 89.5335,-43.2095 35.5548,-29.4355 63.1937,-72.0461 79.7469,-126.657 -71.7071,-16.9051 -129.089,-49.2378 -170.451,-92.6965 -42.9319,-45.1063 -68.3209,-101.698 -74.4166,-165.155zm-194.717 9.90828c76.4445,-51.4548 153.965,-75.8871 225.417,-75.215l31.9477 0.301181 -0.322441 31.8248c-0.609449,60.2209 19.5673,113.597 58.3406,154.335 38.2996,40.2402 95.0894,68.8087 168.428,80.4107l33.1229 5.24056 -6.87284 32.7591c-17.778,84.7335 -56.4863,150.325 -109.473,194.193 -33.8587,28.0323 -73.3453,47.0646 -116.784,56.4591 -42.6851,9.2315 -89.1048,9.06969 -137.608,-1.10669 -110.335,-23.1508 -231.918,-98.654 -344,-234.037l-15.2138 -18.3768 13.4634 -19.8732c62.3752,-92.0635 130.701,-160.57 199.554,-206.915z"/>
  <path class="fil0" d="M1025.53 912.748c56.7945,-14.4532 102.365,-38.3941 136.035,-69.1878 39.6544,-36.267 62.9646,-82.5379 68.6646,-134.182 5.86063,-53.1 -6.66969,-112.243 -38.8996,-172.681 -37.5839,-70.4776 -101.554,-142.316 -193.957,-208.469 -85.7091,74.7461 -142.524,152.394 -173.167,226.132 -26.3244,63.3449 -33.1559,123.415 -22.2473,175.627 10.6134,50.8028 38.2512,94.5981 81.2115,126.904 36.5114,27.4571 84.2705,46.9347 142.361,55.8579zm179.034 -22.187c-42.6674,39.0225 -99.7666,68.7815 -170.248,85.6619l-11.7496 0.624804c-71.7379,-10.0394 -131.418,-34.1918 -177.649,-68.9575 -55.7693,-41.9374 -91.6583,-98.8477 -105.46,-164.904 -13.5071,-64.6489 -5.64095,-137.601 25.7457,-213.127 36.5811,-88.0253 105.363,-180.038 209.779,-266.484l18.378 -15.2138 19.8721 13.4634c112.241,76.0465 189.522,161.015 234.347,245.073 38.5323,72.2575 53.3859,144.119 46.1492,209.68 -7.39725,67.0193 -37.6677,127.083 -89.1662,174.183z"/>
  <path class="fil0" d="M1481.2 1098.54c9.78544,46.1433 12.4122,98.2454 6.58583,155.275 -5.40827,52.9477 -18.1583,110.273 -39.3059,171.125l-7.84843 22.5815 -23.7768 -1.20591c-135.207,-6.85749 -242.455,-42.3662 -318.097,-94.5414 -45.117,-31.1197 -79.2178,-68.2217 -101.601,-108.898 -22.898,-41.6091 -33.5233,-86.7886 -31.1764,-133.071 2.51811,-49.6595 19.9441,-100.128 53.1437,-148.26l32.987 -47.8241 22.6382 53.5737c3.96142,9.3756 8.4626,18.7051 13.4717,27.9638 31.4233,58.076 76.8355,96.4099 130.054,113.314 53.9445,17.1343 116.759,12.737 182.164,-14.8961 10.9961,-4.64646 22.4658,-10.187 34.3866,-16.637l37.5107 -20.2973 8.86418 41.7981zm-56.915 148.774c3.45355,-33.8091 3.55866,-65.4922 0.666142,-94.7883 -79.6843,33.6107 -157.632,38.4898 -225.926,16.7977 -62.0245,-19.7008 -115.402,-60.9497 -154.325,-122.141 -8.92442,21.998 -13.8732,44.0174 -14.9681,65.6233 -1.74331,34.3713 6.24095,68.0918 23.426,99.3202 17.6965,32.1603 45.1583,61.8402 81.8505,87.1489 62.0103,42.7725 149.71,72.8611 260.824,81.7229 14.9268,-47.3693 24.2043,-92.0871 28.4528,-133.683z"/>
  <path class="fil0" d="M575.875 1160.67c-2.88307,32.426 -1.54488,67.8969 4.52717,105.947 7.49174,46.9441 22.1622,97.6831 44.9363,151.363 57.5682,-10.2106 108.11,-25.5815 151.436,-44.8748 69.8174,-31.0878 120.915,-72.1808 152.385,-117.957 28.702,-41.7496 40.8591,-87.6308 35.6481,-133.18 -42.6886,44.9764 -97.1623,73.0075 -158.947,82.3961 -70.0146,10.6382 -148.994,-3.06142 -229.986,-43.6949zm-58.4729 115.947c-10.2071,-63.9615 -8.62087,-122.25 2.90906,-173.055l9.85276 -43.4115 37.8981 23.1614c0.799607,0.488977 2.57008,1.54843 5.23347,3.13229 79.9394,47.5571 157.116,64.6926 223.064,54.6709 63.5646,-9.65906 117.206,-45.1075 152.704,-103.221 3.27638,-5.3693 -0.493701,1.03228 1.63701,-2.54882l31.4941 -52.9134 25.0063 56.1626c10.0358,22.5402 16.7114,45.3721 20.0811,68.1792 9.38859,63.5375 -6.22796,127.324 -45.6225,184.627 -37.8756,55.0949 -97.9265,103.908 -178.884,139.956 -54.6402,24.3307 -118.787,42.9248 -191.986,53.7414l-23.5855 3.48425 -10.0394 -21.8599c-30.9319,-67.3595 -50.3634,-131.215 -59.7626,-190.104z"/>
  <path class="fil0" d="M1036.77 1234.14c0,-17.6728 -14.328,-32.0008 -32.0008,-32.0008 -17.6728,0 -32.0008,14.328 -32.0008,32.0008 0,13.9595 0.354331,43.5059 0.708662,73.0961 1.86024,155.18 3.75945,313.67 -71.4863,436.011 -9.2504,15.0496 -4.54961,34.7504 10.5,44.0008 15.0496,9.2504 34.7504,4.54961 44.0008,-10.5 84.7229,-137.75 82.7091,-305.76 80.7367,-470.263 -0.227953,-19.1339 -0.458268,-38.1579 -0.458268,-72.3449z"/>
  <path class="fil1" d="M1025.24 912.677c72.4489,-18.391 126.637,-52.1552 161.143,-95.8064 35.0705,-44.3646 50.2004,-99.7595 43.7374,-160.088l-0.61063 -5.69646c-4.71496,-36.7299 -17.3209,-75.2882 -38.1721,-114.389 -37.5839,-70.4776 -101.554,-142.316 -193.957,-208.469 -85.7091,74.7461 -142.524,152.394 -173.167,226.132 -17.7343,42.6744 -26.6221,83.8619 -27.1984,122.162l-0.011811 1.17756c-0.609449,60.2209 19.5673,113.597 58.3406,154.335 38.2996,40.2402 95.0894,68.8087 168.428,80.4107l1.46929 0.232677z"/>
  <path class="fil1" d="M1293.73 716.378c-7.39725,67.0193 -37.6677,127.083 -89.1662,174.183 -18.0083,16.4693 -38.5866,31.2898 -61.6583,44.1874 -0.0212599,0.011811 -0.0413386,0.0236221 -0.0625985,0.034252 -20.9634,11.7284 -43.9831,21.8646 -68.9977,30.2067 3.3,7.97599 6.8256,15.6532 10.5638,23.0268 0.0153543,0.0295276 0.0295276,0.0590552 0.0448819,0.0897638 1.22008,2.38819 2.47441,4.77284 3.76181,7.15276 26.8725,49.6654 63.9745,84.8918 107.441,104.626 0.0555119,0.0259843 0.112205,0.0507874 0.167717,0.0767717 19.5827,8.8193 40.565,14.5618 62.5843,17.1307 34.7457,4.05237 72.1371,0.193701 110.811,-11.948 13.1043,-4.11496 26.3398,-9.16654 39.6567,-15.1689 8.38938,-3.80906 17.041,-8.1189 25.9429,-12.9354l7.14804 -3.86811c67.356,-38.0575 135.761,-100.378 199.022,-188.749 -60.1973,-69.0355 -122.215,-119.302 -182.531,-152.239 -57.0922,-31.1776 -112.454,-46.7918 -162.958,-48.0626 -0.00826772,10.9004 -0.601182,21.6614 -1.77047,32.2571z"/>
  <path class="fil1" d="M1388.22 1166.14c-47.3256,14.8583 -93.5835,19.5213 -137.06,14.4496 -34.6134,-4.03701 -67.4268,-14.25 -97.5887,-30.4016 -42.7323,-22.7847 -79.8296,-57.3437 -108.876,-103.009 -8.92442,21.998 -13.8732,44.0174 -14.9681,65.6233 -1.74331,34.3713 6.24095,68.0918 23.426,99.3202 17.6965,32.1603 45.1583,61.8402 81.8505,87.1489 62.0103,42.7725 149.71,72.8611 260.824,81.7229 14.9268,-47.3693 24.2043,-92.0871 28.4528,-133.683 3.45,-33.7736 3.55866,-65.426 0.675591,-94.6973 -12.3047,5.19685 -24.5599,9.70276 -36.7359,13.526z"/>
  <path class="fil1" d="M928.028 1067.23c22.0725,-26.361 39.6237,-59.3115 51.4878,-98.4178 -52.8532,-12.4772 -97.9489,-33.3662 -134.594,-60.9237 -55.7693,-41.9374 -91.6583,-98.8477 -105.46,-164.904 -2.19095,-10.4882 -3.81969,-21.1949 -4.87678,-32.0965 -50.537,5.6067 -104.692,26.2571 -159.13,62.8997 -57.4252,38.6528 -114.826,94.8768 -168.45,169.773 50.5217,57.939 102.33,102.665 153.312,135.015l7.74449 4.73268 5.23347 3.13229c79.9394,47.5571 157.116,64.6926 223.064,54.6709 51.9851,-7.89922 97.3324,-33.0485 131.547,-73.7363 0.0401575,-0.0484252 0.0814961,-0.0968505 0.121654,-0.145276z"/>
  <path class="fil2" d="M575.873 1160.73c-2.88307,32.426 -1.54488,67.8969 4.52717,105.947 7.49174,46.9441 22.1622,97.6831 44.9363,151.363 57.5682,-10.2106 108.11,-25.5815 151.436,-44.8748 69.8174,-31.0878 120.915,-72.1808 152.385,-117.957 28.702,-41.7496 40.8591,-87.6308 35.6481,-133.18 -42.6886,44.9764 -97.1623,73.0075 -158.947,82.3961 -70.0146,10.6382 -148.994,-3.06142 -229.986,-43.6949z"/>
 </g>
 <rect class="fil3" width="2048" height="2048"/>
</svg>
