<?xml version="1.0" encoding="UTF-8"?>
<!DOCTYPE svg PUBLIC "-//W3C//DTD SVG 1.1//EN" "http://www.w3.org/Graphics/SVG/1.1/DTD/svg11.dtd">
<!-- Creator: CorelDRAW -->
<svg xmlns="http://www.w3.org/2000/svg" xml:space="preserve" width="2048px" height="2048px" style="shape-rendering:geometricPrecision; text-rendering:geometricPrecision; image-rendering:optimizeQuality; fill-rule:evenodd; clip-rule:evenodd"
viewBox="0 0 2048 2048"
 xmlns:xlink="http://www.w3.org/1999/xlink">
 <defs>
  <style type="text/css">
   <![CDATA[
    .fil4 {fill:none}
    .fil1 {fill:#EBE5DF}
    .fil2 {fill:#F45A52}
    .fil3 {fill:#FECA5F}
    .fil0 {fill:#212121;fill-rule:nonzero}
   ]]>
  </style>
 </defs>
 <g id="Layer_x0020_1">
  <metadata id="CorelCorpID_0Corel-Layer"/>
  <path class="fil0" d="M1031.12 368.959c80.6044,0 132.965,38.2949 156.521,87.3107 9.41221,19.5851 14.1201,40.65 14.1201,61.5485 0,20.8996 -4.70788,41.9646 -14.1201,61.5485 -23.5559,49.017 -75.9154,87.3119 -156.521,87.3119 -80.6044,0 -132.965,-38.2949 -156.521,-87.3107 -9.41221,-19.5851 -14.1201,-40.65 -14.1201,-61.5485 0,-20.8996 4.70788,-41.9646 14.1201,-61.5485 23.5559,-49.017 75.9154,-87.3119 156.521,-87.3119zm99.0202 114.812c-13.7079,-28.5236 -46.5319,-50.8099 -99.0202,-50.8099 -52.4894,0 -85.3123,22.2862 -99.0202,50.8111 -5.07874,10.5673 -7.6193,22.2272 -7.6193,34.0477 0,11.8205 2.54173,23.4803 7.6193,34.0477 13.7079,28.5236 46.5319,50.8099 99.0202,50.8099 52.4894,0 85.3123,-22.2862 99.0202,-50.8111 5.07874,-10.5673 7.6193,-22.2272 7.6193,-34.0477 0,-11.8193 -2.54055,-23.4792 -7.6193,-34.0477z"/>
  <path class="fil0" d="M1031.12 651.363c47.5559,0 90.6142,19.2791 121.782,50.4485 31.1693,31.1681 50.4485,74.2264 50.4485,121.782 0,47.5559 -19.2803,90.6154 -50.4485,121.784 -31.1681,31.1693 -74.2264,50.4485 -121.782,50.4485 -47.5559,0 -90.6154,-19.2803 -121.784,-50.4485 -31.1681,-31.1681 -50.4485,-74.2276 -50.4485,-121.784 0,-47.5559 19.2791,-90.6142 50.4485,-121.782 31.1681,-31.1681 74.2276,-50.4485 121.784,-50.4485zm76.5319 95.6989c-19.5827,-19.5839 -46.6418,-31.6973 -76.5319,-31.6973 -29.8902,0 -56.9504,12.1146 -76.5331,31.6973 -19.5839,19.5827 -31.6973,46.6418 -31.6973,76.5319 0,29.8902 12.1146,56.9504 31.6973,76.5331 19.5827,19.5827 46.6429,31.6973 76.5331,31.6973 29.8902,0 56.9493,-12.1134 76.5319,-31.6973 19.5827,-19.5827 31.6973,-46.6429 31.6973,-76.5331 0,-29.8902 -12.1134,-56.9493 -31.6973,-76.5319z"/>
  <path class="fil0" d="M1031.12 1637.5c67.5945,0 129.232,-34.8591 174.238,-91.219 46.663,-58.4339 75.5268,-139.592 75.5268,-229.618 0,-90.0261 -28.8638,-171.184 -75.5268,-229.618 -45.0059,-56.3599 -106.643,-91.219 -174.238,-91.219 -67.5945,0 -129.23,34.8591 -174.236,91.219 -46.663,58.4339 -75.5268,139.592 -75.5268,229.618 0,90.0261 28.8638,171.184 75.5268,229.618 45.0059,56.3599 106.642,91.219 174.236,91.219zm224.238 -51.4678c-56.9705,71.3422 -136.219,115.469 -224.238,115.469 -88.0182,0 -167.267,-44.1272 -224.237,-115.469 -55.3134,-69.267 -89.5276,-164.531 -89.5276,-269.369 0,-104.838 34.2142,-200.103 89.5276,-269.369 56.9705,-71.3422 136.219,-115.469 224.237,-115.469 88.0194,0 167.268,44.1272 224.238,115.469 55.3134,69.267 89.5276,164.531 89.5276,269.369 0,104.838 -34.2142,200.103 -89.5276,269.369z"/>
  <path class="fil0" d="M1099.85 703.47c63.0934,-22.6122 214.022,-61.6737 355.16,-67.8485 74.9516,-3.27992 147.915,2.65866 205.569,24.9343 63.5209,24.5445 108.618,67.8556 119.753,138.201 4.43859,28.0418 3.1252,60.0189 -5.04449,96.3934 -13.9252,61.9973 -71.3575,106.189 -152.949,127.513 -74.5335,19.4799 -170.967,20.2252 -271.625,-2.38465 -38.4272,-8.63032 -74.7319,-20.0185 -108.135,-33.5079 -35.0563,-14.1579 -67.0087,-30.613 -94.9772,-48.6331l34.5 -53.7496c24.8114,15.9851 53.1473,30.5799 84.2268,43.1315 30.4666,12.3036 63.5008,22.6725 98.3859,30.5079 90.5883,20.348 176.295,19.9595 241.625,2.88544 58.2733,-15.2291 98.445,-43.0229 106.697,-79.7634 6.33898,-28.226 7.49292,-52.1894 4.29567,-72.3934 -7.01103,-44.2926 -37.1067,-72.2221 -79.754,-88.7009 -48.5138,-18.7441 -112.703,-23.6185 -179.818,-20.6823 -134.087,5.86654 -276.849,42.7524 -336.409,64.0973l-21.5008 -60z"/>
  <path class="fil0" d="M921.096 744.162c-60.815,-17.6764 -205.651,-45.7748 -339.802,-43.4209 -67.1044,1.17756 -130.852,9.98505 -178.184,31.6925 -41.5264,19.0453 -69.8351,48.743 -74.1166,93.3461 -1.96181,20.4295 0.651969,44.3055 8.70355,72.0745 10.4669,36.0992 52.2839,61.3524 111.426,72.9934 66.352,13.0606 151.923,8.22757 240.982,-17.5973l0.00236221 0c33.9933,-9.85631 66.3083,-22.2496 96.228,-36.5233 30.5233,-14.5595 57.9308,-30.8421 81.5009,-48.1595l37.7504 51.5008c-27.0272,19.8567 -57.8941,38.2607 -91.7505,54.4099 -32.2488,15.3839 -67.8083,28.9536 -105.98,40.0217l-0.00236221 0c-99.2009,28.7646 -195.491,33.9567 -270.981,19.0973 -82.6997,-16.2791 -142.712,-56.8985 -160.426,-117.993 -10.3878,-35.824 -13.6618,-67.6288 -10.9547,-95.8241 6.80906,-70.9276 49.1894,-116.943 111.118,-145.345 56.1201,-25.7398 128.608,-36.1264 203.684,-37.4445 141.297,-2.48032 294.252,27.2339 358.551,45.9225l-17.7496 61.2497zm-213.241 270.338l-0.0011811 0m-17.7473 -61.2497l0.0011811 0"/>
  <path class="fil0" d="M757.078 1154.73c97.7776,-43.0288 188.085,-68.8796 277.773,-71.2064 90.7052,-2.35158 179.433,19.3547 272.737,71.6032l-31.2496 55.7504c-82.8083,-46.3713 -160.843,-65.6552 -239.987,-63.6024 -80.1627,2.07992 -162.807,26.0339 -253.523,65.9552l-25.7504 -58.5z"/>
  <path class="fil0" d="M743.277 1321.52c97.832,-43.0536 194.967,-68.6611 291.153,-70.7174 97.1847,-2.07756 192.625,19.8791 285.865,72.0922l-31.2496 55.7504c-82.8721,-46.4067 -167.445,-65.9292 -253.366,-64.0914 -86.9198,1.85906 -175.99,25.5685 -266.652,65.4662l-25.7504 -58.5z"/>
  <path class="fil0" d="M775.789 1468.73c86.8205,-34.7776 173.04,-55.2319 258.469,-57.0863 86.2512,-1.87087 171.157,15.2114 254.403,55.6016l-27.7512 57.5008c-73.8756,-35.8441 -149.094,-51.0059 -225.402,-49.3512 -77.1284,1.67362 -155.914,20.5193 -235.969,52.5863l-23.7496 -59.2512z"/>
  <path class="fil0" d="M1675.53 684.752c5.58544,11.7118 6.08386,23.5666 2.03977,35.4662 -7.39489,21.763 -32.8276,40.317 -69.3449,55.3772 -29.85,12.3095 -68.9859,23.7484 -111.656,33.4488 -129.836,29.517 -297.746,42.0544 -341.886,14.2807l33.9992 -54c30.8067,19.3843 176.472,4.16103 293.886,-22.5319 39.3614,-8.94804 74.9623,-19.2933 101.406,-30.1984 19.774,-8.15434 32.204,-14.2536 33.0945,-16.8756 0.311811,-0.916536 0.614174,-0.644882 0.876379,0.297638l14.9173 5.05394 42.6674 -20.3185zm-57.5847 15.2646c0.676772,2.42362 1.0878,9.28583 0.703938,11.8217l14.2134 -6.76772 -14.9173 -5.05394z"/>
  <path class="fil0" d="M451.321 711.838c-0.383859,-2.53583 0.0271654,-9.39804 0.703938,-11.8217l-14.9173 5.05394 14.2134 6.76772zm0.703938 -11.8217c0.262205,-0.94252 0.564567,-1.21417 0.876379,-0.297638 0.890552,2.62205 13.3205,8.72127 33.0945,16.8756 26.4437,10.9051 62.0445,21.2504 101.406,30.1984 117.413,26.6929 263.079,41.9162 293.886,22.5319l33.9992 54c-44.1402,27.7736 -212.049,15.2362 -341.886,-14.2807 -42.6697,-9.7004 -81.8056,-21.1394 -111.656,-33.4488 -36.5174,-15.0602 -61.95,-33.6142 -69.3449,-55.3772 -4.0441,-11.8996 -3.54567,-23.7543 2.03977,-35.4662l42.6674 20.3185 14.9173 -5.05394z"/>
  <path class="fil0" d="M984.474 287.999c0,-17.6728 -14.328,-32.0008 -32.0008,-32.0008 -17.6728,0 -32.0008,14.328 -32.0008,32.0008l0 37.8957c0,6.2067 1.76929,12 4.82835,16.9051l39.9154 75.2434c8.21457,15.6012 27.5232,21.5894 43.1244,13.3748 15.6012,-8.21457 21.5894,-27.5232 13.3748,-43.1244l-37.2414 -70.2024 0 -30.0921z"/>
  <path class="fil0" d="M1141.76 287.999c0,-17.6728 -14.328,-32.0008 -32.0008,-32.0008 -17.6728,0 -32.0008,14.328 -32.0008,32.0008l0 30.0921 -37.2414 70.2024c-8.21457,15.6012 -2.22638,34.9099 13.3748,43.1244 15.6012,8.21457 34.9099,2.22638 43.1244,-13.3748l39.9154 -75.2434c3.05906,-4.90512 4.82835,-10.6984 4.82835,-16.9051l0 -37.8957z"/>
  <path class="fil0" d="M1063.12 1669.5c0,-17.6728 -14.328,-32.0008 -32.0008,-32.0008 -17.6728,0 -32.0008,14.328 -32.0008,32.0008l0 90.4985c0,17.6728 14.328,32.0008 32.0008,32.0008 17.6728,0 32.0008,-14.328 32.0008,-32.0008l0 -90.4985z"/>
  <path class="fil1" d="M1031.12 602.677c52.4894,0 85.3123,-22.2862 99.0202,-50.8111 5.07874,-10.5673 7.6193,-22.2272 7.6193,-34.0477 0,-11.8193 -2.54055,-23.4792 -7.6193,-34.0477 -13.7079,-28.5236 -46.5319,-50.8099 -99.0202,-50.8099 -52.4894,0 -85.3123,22.2862 -99.0202,50.8111 -5.07874,10.5673 -7.6193,22.2272 -7.6193,34.0477 0,11.8205 2.54173,23.4803 7.6193,34.0477 13.7079,28.5236 46.5319,50.8099 99.0202,50.8099z"/>
  <path class="fil1" d="M1496.57 809.044c-99.9414,22.7209 -222.441,35.3811 -293.686,27.339 -1.37362,18.7016 -5.73308,36.574 -12.6059,53.1426 22.7988,13.9807 48.3343,26.8004 76.0524,37.9937 30.4666,12.3036 63.5008,22.6725 98.3859,30.5079 90.5883,20.348 176.295,19.9595 241.625,2.88544 58.2733,-15.2291 98.445,-43.0229 106.697,-79.7634 6.33898,-28.226 7.49292,-52.1894 4.29567,-72.3934 -5.13898,-32.4662 -22.6807,-56.1402 -48.476,-72.9579 -11.9646,15.1618 -33.163,28.4681 -60.6331,39.7973 -29.85,12.3095 -68.9859,23.7484 -111.656,33.4488z"/>
  <path class="fil1" d="M1195.65 772.518c41.6776,14.2713 176.738,-0.676772 286.918,-25.7256 39.3614,-8.94804 74.9623,-19.2933 101.406,-30.1984 6.64016,-2.7378 12.4512,-5.2441 17.276,-7.46575 -42.2764,-9.66615 -92.0221,-12.0071 -143.489,-9.75591 -98.7887,4.32166 -202.285,25.4811 -273.749,44.8583 4.67835,8.9941 8.58662,18.4524 11.6374,28.2874z"/>
  <path class="fil1" d="M865.908 774.761c4.21063,-14.2654 10.2189,-27.7607 17.7614,-40.2225 -71.8737,-16.6536 -190.819,-35.7544 -302.375,-33.7973 -37.9843,0.666142 -74.8938,3.77835 -108.359,10.2898 3.87874,1.71969 8.25237,3.57992 13.0606,5.563 26.4437,10.9051 62.0445,21.2504 101.406,30.1984 103.621,23.5571 229.246,38.1815 278.507,27.9685z"/>
  <path class="fil1" d="M690.108 953.251l0 0zm169.303 -116.098c-72.1264,6.37205 -189.571,-6.18426 -286.01,-28.1091 -42.6697,-9.7004 -81.8056,-21.1394 -111.656,-33.4488 -28.5437,-11.7721 -50.315,-25.6784 -61.9937,-41.5831 -39.6898,19.0937 -66.593,48.378 -70.7575,91.7682 -1.96181,20.4295 0.651969,44.3055 8.70355,72.0745 10.4669,36.0992 52.2839,61.3524 111.426,72.9934 66.352,13.0606 151.923,8.22757 240.984,-17.5973 33.9933,-9.85631 66.3083,-22.2496 96.228,-36.5233 29.4449,-14.0445 55.989,-29.6929 78.9875,-46.3276 -3.01418,-10.6961 -5.02205,-21.815 -5.9126,-33.2469z"/>
  <path class="fil2" d="M954.584 747.062c-19.5839,19.5827 -31.6973,46.6418 -31.6973,76.5319 0,29.8902 12.1146,56.9504 31.6973,76.5331 19.5827,19.5827 46.6429,31.6973 76.5331,31.6973 29.8902,0 56.9493,-12.1134 76.5319,-31.6973 19.5827,-19.5827 31.6973,-46.6429 31.6973,-76.5331 0,-29.8902 -12.1134,-56.9493 -31.6973,-76.5319 -19.5827,-19.5839 -46.6418,-31.6973 -76.5319,-31.6973 -29.8902,0 -56.9504,12.1146 -76.5331,31.6973z"/>
  <path class="fil3" d="M1035.51 1475.39c-65.791,1.42795 -132.787,15.3496 -200.749,39.3142 6.82678,11.1319 14.2193,21.6792 22.1209,31.5744 45.0059,56.3599 106.642,91.219 174.236,91.219 67.5945,0 129.232,-34.8591 174.238,-91.219 8.8004,-11.0209 16.9689,-22.8496 24.4288,-35.3953 -63.8457,-25.904 -128.658,-36.9166 -194.275,-35.4933z"/>
  <path class="fil1" d="M806.52 1457.01c76.441,-27.6343 152.397,-43.7363 227.738,-45.3721 75.404,-1.63583 149.78,11.2146 222.918,41.4603 9.313,-25.3382 16.1055,-52.4823 19.9748,-80.9245 -79.0654,-41.7544 -159.658,-59.3717 -241.472,-57.6213 -81.7442,1.74803 -165.391,22.8225 -250.474,58.513 4.09252,29.5855 11.3504,57.7571 21.3154,83.9446z"/>
  <path class="fil3" d="M1034.43 1250.8c83.4544,-1.78347 165.621,14.1543 246.214,51.7559 -1.15394,-34.2638 -6.49489,-67.1079 -15.3921,-97.7422 -78.7064,-41.9918 -153.297,-59.5004 -228.9,-57.5398 -76.1965,1.97717 -154.635,23.7166 -240.116,60.1477 -8.70473,30.7925 -13.8272,63.7772 -14.7354,98.1615 84.9178,-33.3957 169.283,-52.9949 252.93,-54.7831z"/>
  <path class="fil1" d="M830.851 1125.16c70.2225,-25.1528 137.283,-39.9012 204,-41.6315 64.0548,-1.66063 127.123,8.67638 191.514,33.2941 -6.51615,-10.4705 -13.5354,-20.4154 -21.0106,-29.7768 -45.0059,-56.3599 -106.643,-91.219 -174.238,-91.219 -67.5945,0 -129.23,34.8591 -174.236,91.219 -9.43465,11.8146 -18.1406,24.5575 -26.0292,38.1142z"/>
 </g>
 <rect class="fil4" width="2048" height="2048"/>
</svg>
