<?xml version="1.0" encoding="UTF-8"?>
<!DOCTYPE svg PUBLIC "-//W3C//DTD SVG 1.1//EN" "http://www.w3.org/Graphics/SVG/1.1/DTD/svg11.dtd">
<!-- Creator: CorelDRAW -->
<svg xmlns="http://www.w3.org/2000/svg" xml:space="preserve" width="2048px" height="2048px" style="shape-rendering:geometricPrecision; text-rendering:geometricPrecision; image-rendering:optimizeQuality; fill-rule:evenodd; clip-rule:evenodd"
viewBox="0 0 2048 2048"
 xmlns:xlink="http://www.w3.org/1999/xlink">
 <defs>
  <style type="text/css">
   <![CDATA[
    .fil4 {fill:none}
    .fil1 {fill:#212121}
    .fil3 {fill:#EBE5DF}
    .fil2 {fill:#F19A7B}
    .fil0 {fill:#212121;fill-rule:nonzero}
   ]]>
  </style>
 </defs>
 <g id="Layer_x0020_1">
  <metadata id="CorelCorpID_0Corel-Layer"/>
  <path class="fil0" d="M1005.95 1247.18c352.925,-2.6504 401.329,-208.032 449.541,-412.659 16.9488,-71.9398 33.8799,-143.793 62.8312,-209.356 11.9658,-27.0981 21.3284,-49.3902 19.5201,-63.3768 -1.3311,-10.2992 -12.326,-20.0658 -40.3477,-30.828 -42.7843,-16.4351 -82.1103,-18.9839 -118.107,-8.19213 -35.5831,10.6689 -68.9351,34.5626 -100.143,71.1508 -148.132,323.964 -393.727,259.373 -761.184,162.652 -60.5941,-15.9496 -124.648,-32.8099 -191.555,-48.7335l13.5721 91.3607 336.112 163.471 15.124 15.5008c37.337,81.5174 81.0709,148.696 133.839,195.608 50.6174,45 110.029,71.289 180.797,73.402zm511.792 -398.159c-53.9941,229.169 -108.194,459.193 -512.224,461.921l-1.00039 0c-87.2788,-2.51457 -160.149,-34.5461 -221.866,-89.4142 -57.2882,-50.9304 -104.495,-121.556 -144.445,-206.334l-341.15 -165.92 -15.2681 -7.4256 -2.4815 -16.6996 -22.9335 -154.378 -6.83741 -46.03 45.463 10.2791c85.9205,19.4256 165.207,40.2969 239.31,59.8016 337.573,88.8544 562.754,148.123 688.502,-131.071l4.6252 -7.24961c40.2933,-48.4229 84.802,-80.3209 133.701,-94.982 49.5532,-14.8559 102.545,-11.7862 159.108,9.94253 54.1004,20.7791 76.3926,47.8748 80.8477,82.3264 3.97796,30.763 -8.3693,61.1174 -24.2705,97.128 -26.5925,60.2209 -42.828,129.123 -59.08,198.105z"/>
  <path class="fil0" d="M307.529 720.739c-12.4772,-4.45158 -26.204,2.05394 -30.6555,14.5311 -4.45158,12.4772 2.05394,26.204 14.5311,30.6555l345.927 123.664c12.4772,4.45158 26.204,-2.05394 30.6555,-14.5311 4.45158,-12.4772 -2.05394,-26.204 -14.5311,-30.6555l-345.927 -123.664z"/>
  <polygon class="fil0" points="958.226,1266.84 958.226,1509.36 894.224,1509.36 894.224,1266.84 "/>
  <path class="fil0" d="M792.216 1534.89c-8.55946,15.3945 -3.0189,34.8154 12.3756,43.3748 15.3945,8.55946 34.8154,3.0189 43.3748,-12.3756 10.7244,-19.1752 25.0618,-31.7221 40.6902,-38.4225 11.4567,-4.91103 23.8169,-6.79252 36.0969,-5.92914 12.4488,0.876379 24.7713,4.59331 35.967,10.8555 16.6028,9.28465 30.7051,24.2043 39.1111,43.8107 6.90237,16.2225 25.6524,23.778 41.8748,16.8756 16.2225,-6.90237 23.778,-25.6524 16.8756,-41.8748 -14.2417,-33.2197 -38.3611,-58.6229 -66.8623,-74.5619 -19.4268,-10.865 -40.9099,-17.3221 -62.7166,-18.8563 -21.978,-1.54488 -44.3398,1.92402 -65.3457,10.9299 -28.0252,12.0165 -53.2701,33.6827 -71.4414,66.1737z"/>
  <polygon class="fil0" points="1253.99,1266.84 1253.99,1509.36 1189.99,1509.36 1189.99,1266.84 "/>
  <path class="fil0" d="M1087.98 1534.89c-8.55946,15.3945 -3.0189,34.8154 12.3756,43.3748 15.3945,8.55946 34.8154,3.0189 43.3748,-12.3756 10.7244,-19.1752 25.0618,-31.7221 40.6902,-38.4225 11.4567,-4.91103 23.8169,-6.79252 36.0969,-5.92914 12.4488,0.876379 24.7713,4.59331 35.967,10.8555 16.6028,9.28465 30.7051,24.2043 39.1111,43.8107 6.90237,16.2225 25.6524,23.778 41.8748,16.8756 16.2225,-6.90237 23.778,-25.6524 16.8756,-41.8748 -14.2417,-33.2197 -38.3611,-58.6229 -66.8623,-74.5619 -19.4256,-10.865 -40.9087,-17.3221 -62.7166,-18.8563 -21.978,-1.54488 -44.3398,1.92402 -65.3457,10.9299 -28.0252,12.0165 -53.2701,33.6827 -71.4414,66.1737z"/>
  <ellipse class="fil1" cx="1394.63" cy="650.861" rx="38.1061" ry="38.1061"/>
  <polygon class="fil0" points="1497.35,744.123 1657.5,717.355 1532.97,604.95 1575.72,557.451 1749.38,714.199 1798.5,758.542 1733.25,769.449 1507.85,807.123 "/>
  <path class="fil2" d="M1455.49 834.52c16.9488,-71.9398 33.8799,-143.793 62.8312,-209.356 11.9658,-27.0981 21.3284,-49.3902 19.5201,-63.3768 -1.3311,-10.2992 -12.326,-20.0658 -40.3477,-30.828 -42.7843,-16.4351 -82.1103,-18.9839 -118.107,-8.19213 -35.5831,10.6689 -68.9351,34.5626 -100.143,71.1508 -148.132,323.964 -393.727,259.373 -761.184,162.652 -60.5941,-15.9496 -124.648,-32.8099 -191.555,-48.7335l3.08859 20.791 323.861 115.775c12.4772,4.45158 18.9827,18.1784 14.5311,30.6555 -4.45158,12.4772 -18.1784,18.9827 -30.6555,14.5311l-299.743 -107.153 2.48977 16.761 336.112 163.471 15.124 15.5008c37.337,81.5174 81.0709,148.696 133.839,195.608 50.6174,45 110.029,71.289 180.797,73.402 352.925,-2.6504 401.329,-208.032 449.541,-412.659zm-60.8575 -145.553c-21.0461,0 -38.1071,-17.0599 -38.1071,-38.1059 0,-21.0461 17.061,-38.1059 38.1071,-38.1059 21.0449,0 38.1059,17.0599 38.1059,38.1059 0,21.0461 -17.061,38.1059 -38.1059,38.1059z"/>
  <path class="fil3" d="M1576.82 650.914c-11.8606,26.8583 -21.6603,55.4445 -30.3213,84.9934l110.998 -18.5528 -78.6674 -71.0067c-0.662599,1.51181 -1.33228,3.03425 -2.00906,4.56615z"/>
 </g>
 <rect class="fil4" width="2048" height="2048"/>
</svg>
