<?xml version="1.0" encoding="UTF-8"?>
<!DOCTYPE svg PUBLIC "-//W3C//DTD SVG 1.1//EN" "http://www.w3.org/Graphics/SVG/1.1/DTD/svg11.dtd">
<!-- Creator: CorelDRAW -->
<svg xmlns="http://www.w3.org/2000/svg" xml:space="preserve" width="2048px" height="2048px" style="shape-rendering:geometricPrecision; text-rendering:geometricPrecision; image-rendering:optimizeQuality; fill-rule:evenodd; clip-rule:evenodd"
viewBox="0 0 2048 2048"
 xmlns:xlink="http://www.w3.org/1999/xlink">
 <defs>
  <style type="text/css">
   <![CDATA[
    .fil4 {fill:none}
    .fil1 {fill:#212121}
    .fil2 {fill:#EBE5DF}
    .fil3 {fill:#FECA5F}
    .fil0 {fill:#212121;fill-rule:nonzero}
   ]]>
  </style>
 </defs>
 <g id="Layer_x0020_1">
  <metadata id="CorelCorpID_0Corel-Layer"/>
  <path class="fil0" d="M1792 1024c0,49.1504 -49.6004,90.2599 -129.787,116.987 -68.6457,22.8803 -162.173,37.1823 -264.854,37.6642 72.2776,72.9591 128.313,149.231 160.687,213.98 37.7776,75.5552 43.7634,139.669 9.00827,174.424 -34.7563,34.7563 -98.8678,28.7681 -174.423,-9.00946 -64.7493,-32.3752 -141.023,-88.4091 -213.98,-160.687 -0.48189,102.683 -14.7839,196.21 -37.6642,264.855 -26.7272,80.1863 -67.8378,129.786 -116.988,129.786 -49.1504,0 -90.2611,-49.5993 -116.988,-129.786 -22.8803,-68.6457 -37.1823,-162.173 -37.6642,-264.855 -72.9579,72.2776 -149.231,128.313 -213.98,160.687 -75.5552,37.7776 -139.667,43.7646 -174.423,9.00827 -34.7563,-34.7563 -28.7693,-98.8678 9.00827,-174.423 32.3918,-64.7859 88.4729,-141.109 160.81,-214.104 -102.978,-0.468898 -196.543,-14.7284 -264.989,-37.5449 -80.1792,-26.7284 -129.773,-67.8343 -129.773,-116.982l0 -0.0011811 0 -0.0011811c0,-49.1481 49.5933,-90.2552 129.773,-116.984 68.4473,-22.8177 162.01,-37.0748 264.989,-37.5437 -72.3367,-72.9957 -128.418,-149.319 -160.81,-214.104 -37.7776,-75.5552 -43.7646,-139.667 -9.00827,-174.423 34.7563,-34.7563 98.8678,-28.7693 174.423,9.00827 64.7493,32.374 141.023,88.4091 213.98,160.687 0.48189,-102.684 14.7839,-196.211 37.6642,-264.857 26.7295,-80.1863 67.8378,-129.784 116.989,-129.784 49.1504,0 90.2599,49.5993 116.987,129.786 22.8803,68.6457 37.1823,162.173 37.6642,264.855 72.9591,-72.2776 149.231,-128.313 213.98,-160.687 75.5552,-37.7776 139.669,-43.7634 174.424,-9.00827 34.7563,34.7563 28.7681,98.8678 -9.00946,174.423 -32.3752,64.7493 -88.4091,141.023 -160.687,213.98 102.683,0.48189 196.21,14.7839 264.855,37.6642 80.1875,26.7295 129.786,67.8378 129.786,116.989zm-149.788 56.4863c53.0008,-17.6658 85.7859,-37.8922 85.7859,-56.4863 0,-18.5941 -32.7839,-38.8217 -85.7847,-56.4886 -63.3497,-21.1158 -151.761,-34.1776 -250.216,-34.1776 -14.9646,0 -27.7642,0.198425 -38.4614,0.581103 -11.7532,0.419292 -24.4429,1.1315 -37.9524,2.11181l-23.1248 -56.0008c9.05788,-7.83071 18.4831,-16.2957 28.2532,-25.3902 8.33032,-7.75276 17.5323,-16.6583 27.6142,-26.7402 69.606,-69.606 122.871,-141.334 152.719,-201.03 25.0087,-50.0162 33.9036,-87.528 20.7591,-100.673 -13.1457,-13.1457 -50.6575,-4.25079 -100.674,20.7579 -59.6953,29.8465 -131.424,83.1142 -201.03,152.719 -10.0996,10.0996 -19.0146,19.311 -26.7768,27.6484 -9.08387,9.75591 -17.537,19.1669 -25.3536,28.2083l-56.0008 -23.1248c0.980316,-13.5177 1.69134,-26.204 2.11181,-37.9607 0.382677,-10.6937 0.581103,-23.4851 0.581103,-38.4425 0,-98.4544 -13.0618,-186.866 -34.1776,-250.216 -17.6658,-53.0008 -37.8922,-85.7847 -56.4863,-85.7847 -18.5941,0 -38.8217,32.7839 -56.4886,85.7835 -21.1158,63.3497 -34.1776,151.762 -34.1776,250.217 0,14.9658 0.197244,27.7607 0.579922,38.4532 0.420473,11.7532 1.1315,24.437 2.11181,37.95l-56.0008 23.1248c-7.82008,-9.04371 -16.2756,-18.4583 -25.363,-28.2201 -7.75631,-8.3315 -16.6713,-17.5417 -26.7662,-27.6366 -69.606,-69.606 -141.334,-122.873 -201.03,-152.719 -50.0162,-25.0087 -87.528,-33.9024 -100.673,-20.7579 -13.1445,13.1445 -4.25079,50.6563 20.7579,100.673 29.8465,59.6953 83.1131,131.424 152.719,201.03 10.0831,10.0831 19.278,18.9803 27.6024,26.7295 9.77481,9.09804 19.2012,17.563 28.2591,25.3961l-23.1248 56.0008c-13.5047,-0.979135 -26.1815,-1.68898 -37.9288,-2.10827 -10.6984,-0.382677 -23.5016,-0.579922 -38.4792,-0.579922l-0.0389764 0 0 -0.125197c-98.1922,0.00236221 -186.613,13.1138 -250.187,34.3063 -52.9926,17.6658 -85.7717,37.8898 -85.7717,56.4827l0 0.0011811 0 0.0011811c0,18.5917 32.7792,38.8158 85.7717,56.4815 63.5741,21.1925 151.996,34.3051 250.187,34.3075l0 -0.125197 0.0389764 0c14.9858,0 27.8055,-0.197244 38.5075,-0.578741 11.7402,-0.418111 24.4087,-1.12795 37.8981,-2.10709l23.1248 56.0008c-9.05434,7.82835 -18.4784,16.2921 -28.2461,25.3831 -8.32678,7.75158 -17.5252,16.6524 -27.613,26.7402 -69.606,69.606 -122.873,141.334 -152.719,201.03 -25.0087,50.0162 -33.9024,87.528 -20.7579,100.673 13.1445,13.1445 50.6563,4.25079 100.673,-20.7579 59.6953,-29.8465 131.424,-83.1131 201.03,-152.719 10.0878,-10.0878 18.9886,-19.2862 26.7402,-27.613 9.09095,-9.76772 17.5547,-19.1917 25.3831,-28.2461l56.0008 23.1248c-0.979135,13.4894 -1.68898,26.1579 -2.10709,37.8981 -0.381496,10.702 -0.578741,23.5217 -0.578741,38.5075 0,98.4544 13.0618,186.866 34.1776,250.216 17.6658,53.0008 37.8933,85.7847 56.4874,85.7847 18.5941,0 38.8217,-32.7839 56.4874,-85.7847 21.1158,-63.3497 34.1776,-151.761 34.1776,-250.216 0,-14.9646 -0.198425,-27.763 -0.581103,-38.4603 -0.419292,-11.7543 -1.1315,-24.4429 -2.11181,-37.9524l56.0008 -23.1248c7.82835,9.05552 16.2933,18.4807 25.3855,28.2484 7.75394,8.33032 16.6595,17.5323 26.7449,27.6177 69.606,69.606 141.334,122.871 201.03,152.719 50.0162,25.0087 87.528,33.9036 100.673,20.7591 13.1457,-13.1457 4.25079,-50.6575 -20.7579,-100.674 -29.8465,-59.6953 -83.1142,-131.424 -152.719,-201.03 -10.0819,-10.0819 -19.2839,-18.9874 -27.6142,-26.7402 -9.77009,-9.0945 -19.1953,-17.5595 -28.2532,-25.3902l23.1248 -56.0008c13.5095,0.980316 26.1992,1.69252 37.9524,2.11181 10.6973,0.382677 23.4969,0.581103 38.4614,0.581103 98.4532,0 186.865,-13.0618 250.214,-34.1776z"/>
  <path class="fil0" d="M1024 711.617c86.2583,0 164.354,34.9666 220.885,91.4977 56.5311,56.5311 91.4977,134.627 91.4977,220.885 0,86.2583 -34.9666,164.354 -91.4977,220.885 -56.5311,56.5311 -134.627,91.4977 -220.885,91.4977 -86.2583,0 -164.354,-34.9666 -220.885,-91.4977 -56.5311,-56.5311 -91.4977,-134.627 -91.4977,-220.885 0,-86.2583 34.9666,-164.354 91.4977,-220.885 56.5311,-56.5311 134.627,-91.4977 220.885,-91.4977zm175.635 136.748c-44.9457,-44.9457 -107.042,-72.7465 -175.635,-72.7465 -68.5926,0 -130.689,27.8008 -175.635,72.7465 -44.9457,44.9457 -72.7465,107.042 -72.7465,175.635 0,68.5926 27.8008,130.689 72.7465,175.635 44.9457,44.9457 107.042,72.7465 175.635,72.7465 68.5926,0 130.689,-27.8008 175.635,-72.7465 44.9457,-44.9457 72.7465,-107.042 72.7465,-175.635 0,-68.5926 -27.8008,-130.689 -72.7465,-175.635z"/>
  <circle class="fil1" cx="1024" cy="855.999" r="24"/>
  <circle class="fil1" cx="1128" cy="903.999" r="24"/>
  <circle class="fil1" cx="1192" cy="984" r="24"/>
  <circle class="fil1" cx="1184" cy="1088" r="24"/>
  <circle class="fil1" cx="1112" cy="1176" r="24"/>
  <circle class="fil1" cx="1000" cy="1192" r="24"/>
  <circle class="fil1" cx="904.001" cy="1160" r="24"/>
  <circle class="fil1" cx="856.001" cy="1080" r="24"/>
  <circle class="fil1" cx="856.001" cy="967.999" r="24"/>
  <circle class="fil1" cx="904.001" cy="888" r="24"/>
  <circle class="fil1" cx="1064" cy="967.999" r="24"/>
  <circle class="fil1" cx="1112" cy="1048" r="24"/>
  <circle class="fil1" cx="1024" cy="1088" r="24"/>
  <circle class="fil1" cx="952.001" cy="1048" r="24"/>
  <circle class="fil1" cx="960.001" cy="960" r="24"/>
  <path class="fil2" d="M935.474 724.34c28.0666,-8.27953 57.7784,-12.7228 88.5261,-12.7228 30.7477,0 60.4583,4.44331 88.5237,12.7217 7.05355,-109.459 -2.94685,-231.28 -32.0362,-318.554 -17.6658,-53.0008 -37.8922,-85.7847 -56.4863,-85.7847 -18.5941,0 -38.8217,32.7839 -56.4886,85.7835 -29.0847,87.2552 -39.0922,209.11 -32.0386,318.557z"/>
  <path class="fil2" d="M1421.13 546.952c-81.6438,40.8213 -175.713,120.406 -247.906,202.549 26.4284,14.3988 50.5477,32.5028 71.6587,53.6138 21.1099,21.1099 39.2126,45.2268 53.6103,71.6516 82.1646,-72.2103 161.707,-166.211 202.552,-247.899 25.0087,-50.0162 33.9036,-87.528 20.7591,-100.673 -13.1457,-13.1457 -50.6575,-4.25079 -100.674,20.7579z"/>
  <path class="fil2" d="M1642.22 967.513c-87.254,-29.0847 -209.108,-39.0933 -318.554,-32.0374 8.27835,28.0666 12.7217,57.7772 12.7217,88.5249 0,30.7477 -4.44331,60.4583 -12.7217,88.5249 109.447,7.05591 231.298,-2.95276 318.553,-32.0374 53.0008,-17.6658 85.7859,-37.8922 85.7859,-56.4863 0,-18.5941 -32.7839,-38.8217 -85.7847,-56.4886z"/>
  <path class="fil2" d="M1501.05 1421.13c-40.8426,-81.6863 -120.389,-175.69 -202.552,-247.899 -14.3976,26.426 -32.5004,50.5418 -53.6103,71.6516 -21.1099,21.1099 -45.2268,39.2126 -71.6528,53.6103 72.2044,82.1599 166.225,161.714 247.901,202.552 50.0162,25.0087 87.528,33.9036 100.673,20.7591 13.1457,-13.1457 4.25079,-50.6575 -20.7579,-100.674z"/>
  <path class="fil2" d="M1080.49 1642.22c29.0847,-87.2564 39.0933,-209.106 32.0374,-318.554 -28.0666,8.27835 -57.7772,12.7217 -88.5249,12.7217 -30.75,0 -60.463,-4.44331 -88.532,-12.724 -7.05355,109.416 2.97638,231.35 32.0445,318.557 17.6658,53.0008 37.8933,85.7847 56.4874,85.7847 18.5941,0 38.8217,-32.7839 56.4874,-85.7847z"/>
  <path class="fil2" d="M626.867 1501.05c81.7028,-40.8508 175.683,-120.385 247.899,-202.552 -26.426,-14.3976 -50.5418,-32.5004 -71.6516,-53.6103 -21.1099,-21.1099 -39.2126,-45.2268 -53.6103,-71.6516 -82.167,72.2162 -161.701,166.197 -202.552,247.899 -25.0087,50.0162 -33.9024,87.528 -20.7579,100.673 13.1445,13.1445 50.6563,4.25079 100.673,-20.7579z"/>
  <path class="fil2" d="M405.774 1080.48c63.5741,21.1925 151.996,34.3051 250.187,34.3075l0 -0.125197c26.6008,0 44.3776,-0.512599 68.3835,-2.12244 -8.28308,-28.0713 -12.7276,-57.7878 -12.7276,-88.5426 0,-30.7536 4.44449,-60.4689 12.7264,-88.5402 -24.0095,-1.60748 -41.7839,-2.1248 -68.3823,-2.1248l0 -0.125197c-98.1922,0.00236221 -186.613,13.1138 -250.187,34.3063 -52.9949,17.6658 -85.7717,37.8898 -85.7717,56.4851 0,18.5917 32.7792,38.8158 85.7717,56.4815z"/>
  <path class="fil2" d="M546.952 626.867c40.8709,81.7442 120.376,175.661 202.552,247.899 14.3976,-26.426 32.5004,-50.5418 53.6103,-71.6516 21.111,-21.111 45.2292,-39.215 71.6575,-53.6126 -72.2174,-82.1575 -166.214,-161.705 -247.905,-202.55 -50.0162,-25.0087 -87.528,-33.9024 -100.673,-20.7579 -13.1445,13.1445 -4.25079,50.6563 20.7579,100.673z"/>
  <path class="fil3" d="M1024 831.999c13.2555,0 24,10.7445 24,24 0,13.2555 -10.7445,24 -24,24 -13.2555,0 -24,-10.7445 -24,-24 0,-13.2555 10.7445,-24 24,-24zm-0.00236221 -56.38c-68.5926,0 -130.689,27.8008 -175.635,72.7465 -44.9457,44.9457 -72.7465,107.042 -72.7465,175.635 0,68.5926 27.8008,130.689 72.7465,175.635 44.9457,44.9457 107.042,72.7465 175.635,72.7465 68.5926,0 130.689,-27.8008 175.635,-72.7465 44.9457,-44.9457 72.7465,-107.042 72.7465,-175.635 0,-68.5926 -27.8008,-130.689 -72.7465,-175.635 -44.9457,-44.9457 -107.042,-72.7465 -175.635,-72.7465zm-119.999 88.3808c13.2555,0 24,10.7445 24,24 0,13.2555 -10.7445,24 -24,24 -13.2555,0 -24,-10.7445 -24,-24 0,-13.2555 10.7445,-24 24,-24zm224 15.9992c13.2555,0 24,10.7445 24,24 0,13.2555 -10.7445,24 -24,24 -13.2555,0 -24,-10.7445 -24,-24 0,-13.2555 10.7445,-24 24,-24zm-272 64.0004c13.2555,0 24,10.7445 24,24 0,13.2555 -10.7445,24 -24,24 -13.2555,0 -24,-10.7445 -24,-24 0,-13.2555 10.7445,-24 24,-24zm207.999 0c13.2555,0 24,10.7445 24,24 0,13.2555 -10.7445,24 -24,24 -13.2555,0 -24,-10.7445 -24,-24 0,-13.2555 10.7445,-24 24,-24zm-207.999 112c13.2555,0 24,10.7445 24,24 0,13.2555 -10.7445,24 -24,24 -13.2555,0 -24,-10.7445 -24,-24 0,-13.2555 10.7445,-24 24,-24zm144 111.999c13.2555,0 24,10.7445 24,24 0,13.2555 -10.7445,24 -24,24 -13.2555,0 -24,-10.7445 -24,-24 0,-13.2555 10.7445,-24 24,-24zm111.999 -15.9992c13.2555,0 24,10.7445 24,24 0,13.2555 -10.7445,24 -24,24 -13.2555,0 -24,-10.7445 -24,-24 0,-13.2555 10.7445,-24 24,-24zm56.0008 -168c0,-13.2555 10.7445,-24 24,-24 13.2555,0 24,10.7445 24,24 0,13.2555 -10.7445,24 -24,24 -13.2555,0 -24,-10.7445 -24,-24zm-8.00079 104c0,-13.2555 10.7445,-24 24,-24 13.2555,0 24,10.7445 24,24 0,13.2555 -10.7445,24 -24,24 -13.2555,0 -24,-10.7445 -24,-24zm-200 -152c13.2555,0 24,10.7445 24,24 0,13.2555 -10.7445,24 -24,24 -13.2555,0 -24,-10.7445 -24,-24 0,-13.2555 10.7445,-24 24,-24zm-7.99961 87.9993c13.2555,0 24,10.7445 24,24 0,13.2555 -10.7445,24 -24,24 -13.2555,0 -24,-10.7445 -24,-24 0,-13.2555 10.7445,-24 24,-24zm159.999 0c13.2555,0 24,10.7445 24,24 0,13.2555 -10.7445,24 -24,24 -13.2555,0 -24,-10.7445 -24,-24 0,-13.2555 10.7445,-24 24,-24zm-87.9993 40.0004c13.2555,0 24,10.7445 24,24 0,13.2555 -10.7445,24 -24,24 -13.2555,0 -24,-10.7445 -24,-24 0,-13.2555 10.7445,-24 24,-24zm-120 72.0001c13.2555,0 24,10.7445 24,24 0,13.2555 -10.7445,24 -24,24 -13.2555,0 -24,-10.7445 -24,-24 0,-13.2555 10.7445,-24 24,-24z"/>
 </g>
 <rect class="fil4" width="2048" height="2048"/>
</svg>
