<?xml version="1.0" encoding="UTF-8"?>
<!DOCTYPE svg PUBLIC "-//W3C//DTD SVG 1.1//EN" "http://www.w3.org/Graphics/SVG/1.1/DTD/svg11.dtd">
<!-- Creator: CorelDRAW -->
<svg xmlns="http://www.w3.org/2000/svg" xml:space="preserve" width="2048px" height="2048px" style="shape-rendering:geometricPrecision; text-rendering:geometricPrecision; image-rendering:optimizeQuality; fill-rule:evenodd; clip-rule:evenodd"
viewBox="0 0 2048 2048"
 xmlns:xlink="http://www.w3.org/1999/xlink">
 <defs>
  <style type="text/css">
   <![CDATA[
    .fil2 {fill:none}
    .fil1 {fill:#AED581}
    .fil0 {fill:#212121;fill-rule:nonzero}
   ]]>
  </style>
 </defs>
 <g id="Layer_x0020_1">
  <metadata id="CorelCorpID_0Corel-Layer"/>
  <path class="fil0" d="M1704.5 282.375c81.202,451.737 31.9725,778.816 -140.182,988.409 -172.944,210.555 -466.877,300.01 -874.403,275.76l-26.5713 -1.5815 -3.30355 -26.4189c-87.5587,-700.479 158.023,-812.13 506.915,-970.744 149.214,-67.8355 318.267,-144.695 485.794,-284.299l42.0567 -35.0469 9.69331 53.9209zm-189.431 947.909c153.167,-186.476 200.456,-478.913 135.709,-883.461 -159.95,123.91 -317.323,195.467 -457.57,259.226 -319.181,145.107 -545.124,247.883 -472.835,878.156 372.239,17.6847 639.375,-64.8237 794.696,-253.922z"/>
  <path class="fil0" d="M1407.35 794.916c8.97402,-15.1866 3.93662,-34.7752 -11.25,-43.7492 -15.1866,-8.97402 -34.7752,-3.93662 -43.7492,11.25 -134.23,227.447 -298.249,409.537 -475.285,564.739 -177.709,155.791 -369.252,285.072 -557.132,405.97 -14.8417,9.52678 -19.1516,29.2831 -9.62481,44.1248 9.52678,14.8417 29.2831,19.1516 44.1248,9.62481 189.762,-122.108 383.466,-252.898 564.632,-411.72 181.838,-159.41 350.333,-346.487 488.285,-580.239z"/>
  <path class="fil0" d="M1101.1 1178.54c17.6043,1.51772 33.1075,-11.5217 34.6252,-29.126 1.40669,-16.3169 -9.69331,-30.828 -25.3418,-34.0713 0.301181,0.225591 0.595276,0.394488 0.878741,0.498426 0.297638,0.109843 0.238583,0.131102 -0.034252,0.0944883l0.034252 -0.0944883 -0.034252 0.0944883c-0.857481,-0.112205 -3.82914,-0.783071 -4.63701,-1.04764l0.00826772 -0.0992127c1.2874,0.111024 2.54882,0.297638 3.78425,0.553937 -5.60197,-4.17638 -14.1945,-28.8697 -22.6996,-64.5308 -10.6961,-44.8441 -16.4728,-102.482 -11.5453,-159.024 2.71181,-31.1103 8.63859,-61.6323 18.7453,-89.0717 6.07441,-16.5685 -2.43189,-34.9252 -19.0004,-40.9996 -16.5685,-6.07441 -34.9252,2.43189 -40.9996,19.0004 -12.235,33.2185 -19.337,69.3154 -22.4965,105.572 -5.55,63.6768 0.97441,128.666 13.0453,179.273 13.8047,57.8729 37.989,100.761 63.8304,110.28 3.92599,1.44567 7.8756,2.35276 11.837,2.69882z"/>
  <path class="fil0" d="M1137.74 1122.11c-0.457087,-1.26024 -0.986221,-2.47205 -1.57795,-3.63662 5.20158,4.45985 31.4351,6.43701 68.4095,5.41536 46.037,-1.27323 103.187,-10.6181 156.573,-30.0307 29.1921,-10.6146 57.1122,-24.2528 81.1595,-41.2276 14.4272,-10.148 34.3524,-6.67796 44.5004,7.74922 10.148,14.4272 6.67796,34.3524 -7.74922,44.5004 -28.7599,20.302 -61.8095,36.4878 -96.1595,48.978 -60.0284,21.828 -124.511,32.3422 -176.574,33.7819 -59.4733,1.64528 -107.139,-10.5827 -122.984,-33.0272 -2.30788,-3.26693 -4.18111,-6.85276 -5.59843,-10.7516 -6.00591,-16.5685 2.55591,-34.8697 19.1244,-40.8756 15.3083,-5.54882 32.0953,1.33937 39.2977,15.4878 -0.232677,-0.198425 -0.426378,-0.402756 -0.574016,-0.611811l-0.0755906 0.0531496c-0.0791339,-0.209055 -0.0696851,-0.258662 0.0755906,-0.0531496l-0.0755906 0.0531496c0.277559,0.734646 1.64528,3.4441 2.12717,4.23189l0.100394 -0.0366142z"/>
  <path class="fil0" d="M897.602 1383.95c17.6043,1.51772 33.1075,-11.5217 34.6252,-29.126 1.40669,-16.3169 -9.69331,-30.8256 -25.3406,-34.0701 0.301181,0.225591 0.595276,0.393307 0.878741,0.497244 0.295276,0.108662 0.237402,0.129921 -0.034252,0.0944883l0.034252 -0.0944883 -0.034252 0.0944883c-0.853938,-0.111024 -3.82677,-0.780709 -4.63819,-1.04646l0.00826772 -0.100394c1.2874,0.111024 2.55,0.298819 3.78544,0.555119 -5.60197,-4.17638 -14.1945,-28.8733 -22.702,-64.5378 -10.6961,-44.8477 -16.4717,-102.488 -11.5417,-159.034 2.71181,-31.1044 8.63859,-61.6217 18.7429,-89.0564 6.07441,-16.5685 -2.43189,-34.9252 -19.0004,-40.9996 -16.5685,-6.07441 -34.9252,2.43189 -40.9996,19.0004 -12.2327,33.215 -19.3347,69.306 -22.4941,105.556 -5.55237,63.6815 0.970867,128.673 13.0417,179.283 13.8059,57.8752 37.989,100.767 63.8327,110.286 3.92126,1.44567 7.87087,2.35276 11.8358,2.69882z"/>
  <path class="fil0" d="M934.243 1327.52c-0.457087,-1.26024 -0.986221,-2.47205 -1.57795,-3.63662 5.20158,4.45985 31.4351,6.43701 68.4095,5.41536 46.037,-1.27323 103.187,-10.6181 156.573,-30.0307 29.1921,-10.6146 57.1122,-24.2528 81.1595,-41.2276 14.4272,-10.148 34.3524,-6.67796 44.5004,7.74922 10.148,14.4272 6.67796,34.3524 -7.74922,44.5004 -28.7599,20.302 -61.8095,36.4878 -96.1595,48.978 -60.0284,21.828 -124.511,32.3422 -176.574,33.7819 -59.4733,1.64528 -107.139,-10.5827 -122.984,-33.0272 -2.30906,-3.26811 -4.18111,-6.85276 -5.59843,-10.7516 -6.00591,-16.5685 2.55591,-34.8697 19.1244,-40.8756 15.3083,-5.54882 32.0953,1.33937 39.2977,15.4878 -0.232677,-0.198425 -0.426378,-0.402756 -0.574016,-0.611811l-0.0755906 0.0531496c-0.0791339,-0.209055 -0.0696851,-0.258662 0.0755906,-0.0531496l-0.0755906 0.0531496c0.277559,0.733465 1.64528,3.4441 2.12717,4.23189l0.100394 -0.0366142z"/>
  <path class="fil1" d="M1352.35 762.416c8.97402,-15.1866 28.5626,-20.224 43.7492,-11.25 15.1866,8.97402 20.224,28.5626 11.25,43.7492 -71.615,121.349 -151.462,230.118 -237.134,328.968 9.85158,0.35315 21.45,0.361418 34.3571,0.00472441 46.037,-1.27323 103.187,-10.6181 156.573,-30.0307 29.1921,-10.6146 57.1122,-24.2528 81.1595,-41.2276 14.4272,-10.148 34.3524,-6.67796 44.5004,7.74922 10.148,14.4272 6.67796,34.3524 -7.74922,44.5004 -28.7599,20.302 -61.8095,36.4878 -96.1595,48.978 -60.0284,21.828 -124.511,32.3422 -176.574,33.7819 -32.9894,0.912993 -62.3469,-2.4437 -84.6544,-9.4441 -49.0063,53.1839 -99.6898,103.429 -151.631,151.199 9.10394,0.245669 19.5532,0.218504 31.0382,-0.0992127 46.037,-1.27323 103.187,-10.6181 156.573,-30.0307 29.1921,-10.6146 57.1122,-24.2528 81.1595,-41.2276 14.4272,-10.148 34.3524,-6.67796 44.5004,7.74922 10.148,14.4272 6.67796,34.3524 -7.74922,44.5004 -28.7599,20.302 -61.8095,36.4878 -96.1595,48.978 -60.0284,21.828 -124.511,32.3422 -176.574,33.7819 -35.8736,0.992127 -67.4504,-3.0626 -90.3402,-11.3634 -0.522048,0.214961 -1.05,0.415748 -1.58504,0.602363 -41.4048,36.0331 -83.4497,70.6229 -125.937,104 338.684,5.52993 583.916,-78.026 730.101,-256.002 153.167,-186.476 200.456,-478.913 135.709,-883.461 -159.95,123.91 -317.323,195.467 -457.57,259.226 -314.69,143.065 -538.747,244.982 -475.709,851.861 45.4748,-34.9831 90.4205,-71.256 134.574,-109.091 -12.1618,-19.6264 -22.6654,-46.5485 -30.1335,-77.8548 -12.0709,-50.6103 -18.5941,-115.602 -13.0417,-179.283 3.15945,-36.2504 10.2614,-72.3414 22.4941,-105.556 6.07441,-16.5685 24.4311,-25.0748 40.9996,-19.0004 16.5685,6.07441 25.0748,24.4311 19.0004,40.9996 -10.1043,27.4347 -16.0311,57.952 -18.7429,89.0564 -4.92993,56.5465 0.84567,114.187 11.5417,159.034 5.16378,21.6461 10.3583,39.2516 14.8973,50.6823 0.336614,-0.0555119 0.67441,-0.106299 1.01102,-0.151181 54.9012,-49.1894 108.462,-101.076 160.173,-156.225 -14.1508,-19.9772 -26.4201,-49.6843 -34.8343,-84.9579 -12.0709,-50.6067 -18.5953,-115.596 -13.0453,-179.273 3.15945,-36.2563 10.2614,-72.3532 22.4965,-105.572 6.07441,-16.5685 24.4311,-25.0748 40.9996,-19.0004 16.5685,6.07441 25.0748,24.4311 19.0004,40.9996 -10.1067,27.4394 -16.0335,57.9615 -18.7453,89.0717 -4.92756,56.5418 0.849213,114.18 11.5453,159.024 5.1626,21.6437 10.3559,39.2481 14.8949,50.6764 0.892914,-0.147638 1.78701,-0.256299 2.67874,-0.325985 89.5784,-101.134 172.888,-213.01 247.093,-338.748z"/>
 </g>
 <rect class="fil2" width="2048" height="2048"/>
</svg>
