<?xml version="1.0" encoding="UTF-8"?>
<!DOCTYPE svg PUBLIC "-//W3C//DTD SVG 1.1//EN" "http://www.w3.org/Graphics/SVG/1.1/DTD/svg11.dtd">
<!-- Creator: CorelDRAW -->
<svg xmlns="http://www.w3.org/2000/svg" xml:space="preserve" width="2048px" height="2048px" style="shape-rendering:geometricPrecision; text-rendering:geometricPrecision; image-rendering:optimizeQuality; fill-rule:evenodd; clip-rule:evenodd"
viewBox="0 0 2048 2048"
 xmlns:xlink="http://www.w3.org/1999/xlink">
 <defs>
  <style type="text/css">
   <![CDATA[
    .fil5 {fill:none}
    .fil3 {fill:#AED581}
    .fil1 {fill:#F39CC3}
    .fil2 {fill:#F45A52}
    .fil0 {fill:#212121;fill-rule:nonzero}
    .fil4 {fill:#AED581;fill-rule:nonzero}
   ]]>
  </style>
 </defs>
 <g id="Layer_x0020_1">
  <metadata id="CorelCorpID_0Corel-Layer"/>
  <path class="fil0" d="M1037.02 1738.65c-36.4607,-185.627 -88.8107,-358.481 -167.325,-510.287 -60.763,-117.483 -137.352,-222.456 -234.619,-311.078 47.8713,101.851 86.8867,209.956 117.797,323.779 42.2114,155.437 69.3804,321.768 83.4379,497.586l200.708 0zm-110.575 -539.539c86.5477,167.339 142.257,358.35 180.003,563.141 0.726379,2.67638 1.11614,5.49213 1.11614,8.39883 0,17.6728 -14.328,32.0008 -32.0008,32.0008l-268.877 0 0 -0.0011811c-16.6536,0.0177165 -30.7193,-12.8622 -31.9193,-29.7284l31.9193 -2.27126 -31.8756 2.25c-12.9898,-182.522 -40.1469,-354.756 -83.6871,-515.086 -43.1705,-158.972 -102.385,-305.996 -179.792,-439.46 -7.12441,-10.4976 -7.58268,-24.6969 -0.0602363,-35.8618 9.8752,-14.6563 29.7626,-18.5327 44.4189,-8.65749l-17.8807 26.5382 17.8748 -26.5004c163.797,110.363 282.992,255.54 370.761,425.239z"/>
  <path class="fil0" d="M663.505 1738.65c-27.8705,-138.982 -67.5556,-268.397 -126.443,-382.253 -40.5437,-78.3898 -90.3048,-149.478 -151.756,-211.304 29.967,68.5501 54.9839,140.568 75.4134,215.797 32.0799,118.127 52.917,244.39 63.9308,377.761l138.855 0zm-69.6934 -411.505c66.9237,129.393 110.009,276.958 139.199,435.11 0.725197,2.67638 1.11496,5.48977 1.11496,8.39528 0,17.6728 -14.328,32.0008 -32.0008,32.0008l-207.063 0 0 -0.0011811c-16.6536,0.0177165 -30.7193,-12.8622 -31.9193,-29.7284l31.9193 -2.27126 -31.8756 2.25c-9.96851,-140.065 -30.8067,-272.232 -64.2178,-395.261 -33.0402,-121.668 -78.3119,-234.153 -137.446,-336.219 -7.1256,-10.4976 -7.58505,-24.6981 -0.0614174,-35.8642 9.8752,-14.6563 29.7626,-18.5327 44.4189,-8.65749l-17.8807 26.5382 17.8748 -26.5004c127.228,85.7257 219.796,198.456 287.938,330.208z"/>
  <path class="fil0" d="M1191.36 1762.26c37.7469,-204.79 93.4548,-395.801 180.003,-563.141 87.769,-169.699 206.965,-314.875 370.761,-425.239l17.8748 26.5004 -17.8807 -26.5382c14.6563,-9.8752 34.5437,-5.99882 44.4189,8.65749 7.52245,11.165 7.06418,25.3642 -0.0602363,35.8618 -77.4071,133.465 -136.622,280.488 -179.792,439.46 -43.5402,160.33 -70.6973,332.564 -83.6871,515.086l-31.8756 -2.25 31.9193 2.27126c-1.2,16.8662 -15.2658,29.7461 -31.9193,29.7284l0 0.0011811 -268.877 0c-17.6728,0 -32.0008,-14.328 -32.0008,-32.0008 0,-2.9067 0.389764,-5.72245 1.11614,-8.39883zm236.752 -533.889c-78.5138,151.806 -130.864,324.66 -167.325,510.287l200.708 0c14.0575,-175.818 41.2264,-342.149 83.4379,-497.586 30.9107,-113.823 69.926,-221.928 117.797,-323.779 -97.2674,88.6217 -173.856,193.595 -234.619,311.078z"/>
  <path class="fil0" d="M1030.38 1315.41c29.4343,-135.611 70.3867,-250.494 135.672,-350.02 65.928,-100.504 156.001,-184.485 283.107,-257.146l15.8752 27.75 -15.8811 -27.7807c15.3425,-8.77087 34.891,-3.44292 43.6618,11.8996 6.6567,11.6445 5.19095,25.7114 -2.61024,35.6504 -60.0874,88.1575 -120.346,217.645 -167.921,354.721 -46.7622,134.731 -81.1371,276.497 -90.9331,393.272l-31.8756 -2.62559 31.8886 2.6752c-1.43622,17.126 -16.1091,29.9622 -33.111,29.3008l-71.2772 2.88544 0.00354331 0.0992127c-15.0343,0.608268 -28.0642,-9.25985 -32.0457,-23.1036l-63.7016 -178.681 -0.0531496 0.0188977c-2.25355,-6.32245 -2.39646,-12.8835 -0.798426,-18.9154zm189.171 -315.019c-59.3717,90.5103 -97.3465,196.115 -125.05,321.133l53.3941 149.769 22.4646 -0.90945c12.9343,-115.793 46.8201,-251.417 91.6737,-380.648 30.8811,-88.9784 67.0193,-175.043 105.152,-249.649 -60.7217,48.2162 -108.876,101.222 -147.634,160.305z"/>
  <g id="_539983440">
   <path id="_539983680" class="fil0" d="M1530.34 654.478c-11.1803,-14.439 -19.7811,-28.774 -26.0599,-42.8788 -6.94725,-15.6024 -11.0646,-30.8729 -12.6886,-45.6685l-8.66221 -78.8788 0 -6.2504c2.14252,-23.7355 9.49253,-47.6693 20.4756,-70.5071 19.5118,-40.5697 50.8276,-78.3473 84.5115,-105.224 36.2516,-28.9252 76.826,-46.1752 111.647,-43.0335 8.1815,0.739371 16.0677,2.55709 23.5618,5.53937 30.052,5.57008 39.3874,29.224 35.8288,62.9138 -4.18465,39.6225 -30.9272,100.747 -49.2367,142.603 -3.9567,9.04371 -7.5319,17.2158 -8.94568,20.5524l-1.24961 2.74961c-4.18347,7.78347 -9.32481,14.139 -15.2882,19.2709 10.1138,25.65 9.81733,55.2886 1.83425,82.0678 -4.24725,14.2465 -10.6784,27.8138 -18.8421,39.5575 -8.65631,12.45 -19.4575,23.0977 -31.9618,30.7418 -28.6406,17.5134 -63.4063,19.2036 -98.9245,-7.55434l-6 -6zm32.1898 -68.8796c3.71457,8.34331 8.8004,17.0268 15.3957,26.0162 9.48898,5.99056 17.7449,5.79567 24.0886,1.91693 4.54961,-2.7815 8.87245,-7.2189 12.7122,-12.7417 4.33111,-6.23032 7.77757,-13.5413 10.0925,-21.3071 6.03071,-20.2323 4.53544,-42.5469 -9.46536,-53.7378l18.8752 -56.7508c3.38032,-0.115748 6.08859,-0.537402 7.80473,-1.40079 0.307087,-0.154725 0.622441,-0.46063 0.944883,-0.951969 3.23622,-7.60985 5.64331,-13.1162 8.23938,-19.0488 16.389,-37.4646 40.1811,-91.8485 44.0327,-121.886 -0.467717,-0.068504 -0.947245,-0.125197 -1.43622,-0.168898 -17.576,-1.58622 -41.9126,10.1976 -66.1465,29.5335 -26.8004,21.3851 -51.5552,51.1052 -66.7619,82.7245 -7.31812,15.2173 -12.339,30.6874 -14.139,45.5717l8.3256 75.8127c0.918898,8.37048 3.33071,17.1969 7.43741,26.4189z"/>
   <path id="_539983536" class="fil0" d="M1442.18 630.648c3.78425,-10.3028 6.24804,-20.0043 7.52481,-29.1024 1.4126,-10.0689 1.29331,-19.2921 -0.145276,-27.6697l-12.8882 -75.0674c-5.78622,-13.6571 -14.8819,-27.104 -26.1579,-39.7618 -23.4437,-26.3173 -55.4304,-48.0933 -86.9989,-61.2201 -28.5933,-11.8878 -55.226,-16.4906 -71.7071,-10.1079 -0.42874,0.165354 -0.848032,0.34252 -1.25906,0.531496 12.0709,27.8941 49.8709,73.526 75.9213,104.972 3.93898,4.75512 7.51772,9.07205 13.3807,16.3063 0.315355,0.23504 0.597638,0.368504 0.849213,0.415748 1.83898,0.347244 4.62402,-0.0212599 8.04922,-0.876379l33.75 49.5c-10.4055,14.6658 -5.71654,36.5268 5.64449,54.2847 4.33465,6.77599 9.65316,12.8315 15.5504,17.6374 5.17441,4.21772 10.585,7.28859 15.8421,8.73898 7.14922,1.97244 15.1441,-0.144095 22.6441,-8.58072zm70.7753 -20.3528c-2.13071,15.1784 -6.46536,31.3441 -13.291,48.4642l-4.12559 7.50001c-26.7236,35.4709 -60.6166,43.4091 -93.0036,34.4693 -14.0126,-3.86811 -27.2988,-11.126 -39.091,-20.739 -11.0728,-9.02481 -21.0059,-20.3126 -29.0504,-32.8878 -15.0543,-23.5299 -23.5276,-51.9095 -20.9244,-79.3194 -7.14449,-3.29646 -13.8413,-7.99607 -20.015,-14.3303l-1.99961 -2.25c-1.6063,-1.98662 -7.64882,-9.27993 -14.2347,-17.2299 -29.1484,-35.1862 -71.7213,-86.5761 -86.6422,-123.432 -12.7382,-31.4681 -10.3347,-56.8182 16.9311,-70.4575 6.3626,-4.90985 13.5036,-8.84646 21.2977,-11.863 32.5819,-12.6177 76.3512,-7.213 119.209,10.6063 39.8835,16.5839 80.4083,44.2229 110.248,77.7201 16.7929,18.8516 30.4488,39.8611 39.1181,62.2465l1.7504 6.1252 13.428 78.2079c2.50512,14.5902 2.75906,30.3272 0.39567,47.1697z"/>
  </g>
  <g id="_539983560">
   <path id="_539983728" class="fil0" d="M447.087 611.614c6.59528,-8.98938 11.6811,-17.6728 15.3957,-26.0162 4.1067,-9.22205 6.51851,-18.0484 7.43741,-26.4189l8.3256 -75.8127c-1.8,-14.8843 -6.82087,-30.3544 -14.139,-45.5717 -15.2067,-31.6193 -39.9614,-61.3394 -66.7619,-82.7245 -24.2339,-19.3358 -48.5705,-31.1197 -66.1465,-29.5335 -0.488977,0.0437008 -0.968505,0.100394 -1.43622,0.168898 3.85158,30.0378 27.6437,84.4217 44.0327,121.886 2.59606,5.93268 5.00315,11.439 8.23938,19.0488 0.322441,0.491339 0.637796,0.797245 0.944883,0.951969 1.71614,0.863386 4.42441,1.28504 7.80473,1.40079l18.8752 56.7508c-14.0008,11.191 -15.4961,33.5055 -9.46536,53.7378 2.31496,7.76575 5.76142,15.0768 10.0925,21.3071 3.83977,5.52284 8.1626,9.96024 12.7122,12.7417 6.34371,3.87874 14.5996,4.07363 24.0886,-1.91693zm73.6453 -0.0153543c-6.27874,14.1047 -14.8795,28.4398 -26.0599,42.8788l-6 6c-35.5181,26.7579 -70.2839,25.0677 -98.9245,7.55434 -12.5043,-7.6441 -23.3055,-18.2917 -31.9618,-30.7418 -8.16379,-11.7437 -14.5949,-25.311 -18.8421,-39.5575 -7.98308,-26.7792 -8.27953,-56.4178 1.83425,-82.0678 -5.96339,-5.13189 -11.1047,-11.4874 -15.2882,-19.2709l-1.24961 -2.74961c-1.41378,-3.33662 -4.98898,-11.5087 -8.94568,-20.5524 -18.3095,-41.8559 -45.052,-102.98 -49.2367,-142.603 -3.55866,-33.6898 5.77678,-57.3437 35.8288,-62.9138 7.4941,-2.98229 15.3803,-4.8 23.5618,-5.53937 34.8213,-3.14173 75.3957,14.1083 111.647,43.0335 33.6839,26.8772 64.9997,64.6548 84.5115,105.224 10.9831,22.8378 18.3331,46.7717 20.4756,70.5071l0 6.2504 -8.66221 78.8788c-1.62402,14.7957 -5.74134,30.0662 -12.6886,45.6685z"/>
   <path id="_539983656" class="fil0" d="M525.348 658.759c-6.8256,-17.1201 -11.1602,-33.2859 -13.291,-48.4642 -2.36339,-16.8425 -2.10945,-32.5796 0.39567,-47.1697l13.428 -78.2079 1.7504 -6.1252c8.6693,-22.3855 22.3252,-43.3949 39.1181,-62.2465 29.8394,-33.4973 70.3642,-61.1363 110.248,-77.7201 42.8575,-17.8193 86.6268,-23.224 119.209,-10.6063 7.7941,3.01654 14.9351,6.95315 21.2977,11.863 27.2658,13.6394 29.6693,38.9894 16.9311,70.4575 -14.9209,36.8563 -57.4937,88.2461 -86.6422,123.432 -6.58583,7.95001 -12.6284,15.2433 -14.2347,17.2299l-1.99961 2.25c-6.17363,6.33426 -12.8705,11.0339 -20.015,14.3303 2.60315,27.4099 -5.87008,55.7894 -20.9244,79.3194 -8.04449,12.5752 -17.9776,23.863 -29.0504,32.8878 -11.7921,9.613 -25.0784,16.8709 -39.091,20.739 -32.387,8.93977 -66.28,1.00158 -93.0036,-34.4693l-4.12559 -7.50001zm49.9595 -57.2138c1.27677,9.09804 3.74055,18.7996 7.52481,29.1024 7.50001,8.43662 15.4949,10.5532 22.6441,8.58072 5.25709,-1.45039 10.6677,-4.52126 15.8421,-8.73898 5.89725,-4.80591 11.2158,-10.8614 15.5504,-17.6374 11.361,-17.7579 16.05,-39.6189 5.64449,-54.2847l33.75 -49.5c3.4252,0.855119 6.21024,1.22362 8.04922,0.876379 0.251575,-0.0472441 0.533859,-0.180709 0.849213,-0.415748 5.863,-7.23426 9.44174,-11.5524 13.3807,-16.3063 26.0504,-31.4457 63.8504,-77.0776 75.9213,-104.972 -0.411024,-0.188977 -0.830316,-0.366142 -1.25906,-0.531496 -16.4811,-6.38268 -43.1138,-1.77992 -71.7071,10.1079 -31.5685,13.1268 -63.5552,34.9028 -86.9989,61.2201 -11.276,12.6579 -20.3717,26.1047 -26.1579,39.7618l-12.8882 75.0674c-1.43858,8.37757 -1.55788,17.6008 -0.145276,27.6697z"/>
  </g>
  <path class="fil1" d="M469.92 559.179l8.3256 -75.8127c-1.8,-14.8843 -6.82087,-30.3544 -14.139,-45.5717 -15.2067,-31.6193 -39.9614,-61.3394 -66.7619,-82.7245 -24.2339,-19.3358 -48.5705,-31.1197 -66.1465,-29.5335 -0.488977,0.0437008 -0.968505,0.100394 -1.43622,0.168898 3.85158,30.0378 27.6437,84.4217 44.0327,121.886 2.59606,5.93268 5.00315,11.439 8.23938,19.0488 0.322441,0.491339 0.637796,0.797245 0.944883,0.951969 1.71614,0.863386 4.42441,1.28504 7.80473,1.40079l18.8752 56.7508c-14.0008,11.191 -15.4961,33.5055 -9.46536,53.7378 2.31496,7.76575 5.76142,15.0768 10.0925,21.3071 3.83977,5.52284 8.1626,9.96024 12.7122,12.7417 6.34371,3.87874 14.5996,4.07363 24.0886,-1.91693 6.59528,-8.98938 11.6811,-17.6728 15.3957,-26.0162 4.1067,-9.22205 6.51851,-18.0484 7.43741,-26.4189z"/>
  <path class="fil1" d="M614.499 459.046c-11.276,12.6579 -20.3717,26.1047 -26.1579,39.7618l-12.8882 75.0674c-1.43858,8.37757 -1.55788,17.6008 -0.145276,27.6697 1.27677,9.09804 3.74055,18.7996 7.52481,29.1024 7.50001,8.43662 15.4949,10.5532 22.6441,8.58072 5.25709,-1.45039 10.6677,-4.52126 15.8421,-8.73898 5.89725,-4.80591 11.2158,-10.8614 15.5504,-17.6374 11.361,-17.7579 16.05,-39.6189 5.64449,-54.2847l33.75 -49.5c3.4252,0.855119 6.21024,1.22362 8.04922,0.876379 0.251575,-0.0472441 0.533859,-0.180709 0.849213,-0.415748 5.863,-7.23426 9.44174,-11.5524 13.3807,-16.3063 26.0504,-31.4457 63.8504,-77.0776 75.9213,-104.972 -0.411024,-0.188977 -0.830316,-0.366142 -1.25906,-0.531496 -16.4811,-6.38268 -43.1138,-1.77992 -71.7071,10.1079 -31.5685,13.1268 -63.5552,34.9028 -86.9989,61.2201z"/>
  <path class="fil2" d="M1326.47 493.222c3.93898,4.75512 7.51772,9.07205 13.3807,16.3063 0.315355,0.23504 0.597638,0.368504 0.849213,0.415748 1.83898,0.347244 4.62402,-0.0212599 8.04922,-0.876379l33.75 49.5c-10.4055,14.6658 -5.71654,36.5268 5.64449,54.2847 4.33465,6.77599 9.65316,12.8315 15.5504,17.6374 5.17441,4.21772 10.585,7.28859 15.8421,8.73898 7.14922,1.97244 15.1441,-0.144095 22.6441,-8.58072 3.78425,-10.3028 6.24804,-20.0043 7.52481,-29.1024 1.4126,-10.0689 1.29331,-19.2921 -0.145276,-27.6697l-12.8882 -75.0674c-5.78622,-13.6571 -14.8819,-27.104 -26.1579,-39.7618 -23.4437,-26.3173 -55.4304,-48.0933 -86.9989,-61.2201 -28.5933,-11.8878 -55.226,-16.4906 -71.7071,-10.1079 -0.42874,0.165354 -0.848032,0.34252 -1.25906,0.531496 12.0709,27.8941 49.8709,73.526 75.9213,104.972z"/>
  <path class="fil2" d="M1627.67 355.07c-26.8004,21.3851 -51.5552,51.1052 -66.7619,82.7245 -7.31812,15.2173 -12.339,30.6874 -14.139,45.5717l8.3256 75.8127c0.918898,8.37048 3.33071,17.1969 7.43741,26.4189 3.71457,8.34331 8.8004,17.0268 15.3957,26.0162 9.48898,5.99056 17.7449,5.79567 24.0886,1.91693 4.54961,-2.7815 8.87245,-7.2189 12.7122,-12.7417 4.33111,-6.23032 7.77757,-13.5413 10.0925,-21.3071 6.03071,-20.2323 4.53544,-42.5469 -9.46536,-53.7378l18.8752 -56.7508c3.38032,-0.115748 6.08859,-0.537402 7.80473,-1.40079 0.307087,-0.154725 0.622441,-0.46063 0.944883,-0.951969 3.23622,-7.60985 5.64331,-13.1162 8.23938,-19.0488 16.389,-37.4646 40.1811,-91.8485 44.0327,-121.886 -0.467717,-0.068504 -0.947245,-0.125197 -1.43622,-0.168898 -17.576,-1.58622 -41.9126,10.1976 -66.1465,29.5335z"/>
  <path class="fil3" d="M1662.73 917.29c-97.2674,88.6217 -173.856,193.595 -234.619,311.078 -78.5138,151.806 -130.864,324.66 -167.325,510.287l200.708 0c14.0575,-175.818 41.2264,-342.149 83.4379,-497.586 30.9107,-113.823 69.926,-221.928 117.797,-323.779z"/>
  <path class="fil4" d="M1219.56 1000.4c-59.3717,90.5103 -97.3465,196.115 -125.05,321.133l53.3941 149.769 22.4646 -0.90945c12.9343,-115.793 46.8201,-251.417 91.6737,-380.648 30.8811,-88.9784 67.0193,-175.043 105.152,-249.649 -60.7217,48.2162 -108.876,101.222 -147.634,160.305z"/>
  <path class="fil3" d="M1037.02 1738.65c-36.4607,-185.627 -88.8107,-358.481 -167.325,-510.287 -60.763,-117.483 -137.352,-222.456 -234.619,-311.078 47.8713,101.851 86.8867,209.956 117.797,323.779 42.2114,155.437 69.3804,321.768 83.4379,497.586l200.708 0z"/>
  <path class="fil3" d="M663.505 1738.65c-27.8705,-138.982 -67.5556,-268.397 -126.443,-382.253 -40.5437,-78.3898 -90.3048,-149.478 -151.756,-211.304 29.967,68.5501 54.9839,140.568 75.4134,215.797 32.0799,118.127 52.917,244.39 63.9308,377.761l138.855 0z"/>
 </g>
 <rect class="fil5" width="2048" height="2048"/>
</svg>
