<?xml version="1.0" encoding="UTF-8"?>
<!DOCTYPE svg PUBLIC "-//W3C//DTD SVG 1.1//EN" "http://www.w3.org/Graphics/SVG/1.1/DTD/svg11.dtd">
<!-- Creator: CorelDRAW -->
<svg xmlns="http://www.w3.org/2000/svg" xml:space="preserve" width="2048px" height="2048px" style="shape-rendering:geometricPrecision; text-rendering:geometricPrecision; image-rendering:optimizeQuality; fill-rule:evenodd; clip-rule:evenodd"
viewBox="0 0 2048 2048"
 xmlns:xlink="http://www.w3.org/1999/xlink">
 <defs>
  <style type="text/css">
   <![CDATA[
    .fil3 {fill:none}
    .fil1 {fill:#AED581}
    .fil2 {fill:#FFD3B3}
    .fil0 {fill:#212121;fill-rule:nonzero}
   ]]>
  </style>
 </defs>
 <g id="Layer_x0020_1">
  <metadata id="CorelCorpID_0Corel-Layer"/>
  <path class="fil0" d="M1643.41 1196.8c-47.7815,2.95158 -111.352,38.6055 -177.615,75.769 -36.9603,20.7284 -74.713,41.9032 -112.856,59.1756 -139.704,63.2091 -351.92,14.2725 -354.875,13.5921l-0.249213 -0.125197 -0.0295276 -0.00708662 -6.1252 -59.876c19.6004,-9.18662 66.404,-22.1811 109.722,-34.2071 34.0193,-9.4441 65.7449,-18.2516 75.7501,-22.6736l0.125197 0c47.0823,-20.6917 72.7595,-49.2367 82.8662,-75.5623 4.05591,-10.5673 5.45788,-20.5264 4.63465,-29.0693 -0.624804,-6.47835 -2.53937,-11.7189 -5.47323,-15.1323 -1.97835,-2.30197 -4.9441,-3.65079 -8.68111,-3.59055 -45.3603,0.755906 -81.4961,7.58741 -133.723,17.4602 -42.137,7.96654 -94.4198,17.85 -170.788,28.2591 -77.0741,10.4823 -137.796,15.1063 -188.642,18.978 -186.732,14.2205 -231.138,17.6504 -404.833,291.489l218.899 212.058c164.801,-154.141 264.916,-154.106 435.046,-154.004 44.5666,0.0259843 94.265,0.056693 152.793,-3.10158 33.9024,-1.81536 54.2197,-3.39095 70.389,-6.06733 15.1028,-2.49921 27.6236,-6.28701 46.2237,-12.5858l0.124016 0c80.393,-27.163 163.73,-72.3166 235.856,-118.712 109.434,-70.3926 190.057,-136.299 191.739,-145.507 0.479528,-2.61969 0.627166,-5.10473 0.48189,-7.4504 -0.386221,-6.2563 -3.89764,-11.4803 -9.06142,-15.5917 -7.63111,-6.07441 -18.2917,-10.1102 -29.5465,-12.1701 -7.39134,-1.35236 -14.9823,-1.79055 -22.1516,-1.34764zm-208.865 20.0185c72.7087,-40.7776 142.461,-79.8981 205.114,-83.7697 11.9102,-0.737008 24.7193,0.0271654 37.402,2.34921 20.9162,3.82796 41.615,12.0354 57.7985,24.9189 18.6496,14.85 31.4221,35.3138 33.0614,61.8414 0.43937,7.10906 -0.0153543,14.6752 -1.48347,22.7008 -3.50906,19.2106 -96.9509,108.614 -219.989,187.758 -75.6721,48.6768 -163.754,96.2717 -249.993,125.425l0.0129921 0.0377953c-21.6248,7.32284 -36.587,11.7933 -56.4733,15.0851 -18.8197,3.11457 -41.0126,4.86969 -77.3882,6.81851 -58.5638,3.15945 -109.957,3.12874 -156.044,3.10158 -161.046,-0.0956694 -252.844,-0.15 -412.778,157.33l-22.1941 21.854 -22.4303 -21.7288 -259.555 -251.443 -18.4595 -17.8831 13.7091 -21.8681c202.554,-323.103 250.018,-326.718 467.844,-343.307 50.778,-3.86575 111.417,-8.48505 184.893,-18.4772 74.2123,-10.115 125.889,-19.8851 167.537,-27.7583 55.0477,-10.4055 93.1347,-17.6055 144.474,-18.4618 24.0343,-0.394488 43.9725,9.31064 58.1811,25.8425 11.4,13.2638 18.5622,30.8091 20.4732,50.6315 1.7126,17.7567 -0.884646,37.6276 -8.63623,57.8197 -15.4713,40.2992 -52.0193,82.7835 -116.76,111.265l0.0200788 0.0472441c-7.88505,3.48544 -22.8898,8.18859 -41.3422,13.5343 55.1386,0.981497 116.088,-4.78937 165.148,-26.987 35.3268,-15.9969 71.9764,-36.5528 107.857,-56.6764z"/>
  <path class="fil0" d="M992.5 1109.25c23.8973,-141.137 47.4166,-267.544 101.603,-370.511 55.9701,-106.357 142.791,-185.523 291.835,-226.03l16.7504 61.7504c-129.295,35.1402 -204.203,103.039 -252.086,194.029 -49.6666,94.3796 -72.1347,215.609 -95.1024,351.261l-63 -10.5z"/>
  <path class="fil0" d="M1169.48 551.249c56.4071,-111.38 136.725,-181.538 233.606,-219.142 105.666,-41.0114 229.797,-42.4347 363.043,-15.9969l35.2736 6.99922 -11.0232 34.1256c-43.6028,134.984 -111.802,264.353 -206.41,342.553 -81.0036,66.952 -180.145,96.9296 -298.282,63.2634l-9.52205 -2.71063c-43.8414,-12.4689 -75.3674,-21.437 -98.1461,-32.974 -67.7457,-34.3087 -61.7422,-71.0682 -8.53938,-176.118zm256.606 -159.643c-82.3229,31.9524 -150.905,92.2288 -199.606,188.393 -31.0772,61.363 -37.7705,81.2209 -19.7103,90.3674 16.924,8.57127 46.1929,16.898 86.8949,28.474l9.52205 2.71063c94.9985,27.0721 174.79,2.9126 240.032,-51.013 76.4776,-63.2138 134.433,-166.525 174.586,-278.143 -108.158,-17.2654 -207.62,-13.4303 -291.718,19.2106z"/>
  <path class="fil0" d="M992.5 1119.75c-22.9677,-135.652 -45.4359,-256.882 -95.1024,-351.261 -47.8831,-90.9898 -122.791,-158.889 -252.086,-194.029l16.7504 -61.7504c149.045,40.5071 235.865,119.673 291.835,226.03 54.1867,102.967 77.706,229.374 101.603,370.511l-63 10.5z"/>
  <path class="fil0" d="M821.523 580c-48.7016,-96.1642 -117.284,-156.441 -199.606,-188.393 -84.0981,-32.641 -183.56,-36.476 -291.718,-19.2106 40.1528,111.618 98.1083,214.929 174.586,278.143 65.2418,53.9256 145.034,78.0851 240.032,51.013l9.52205 -2.71063c40.702,-11.576 69.9709,-19.9028 86.8949,-28.474 18.0603,-9.14646 11.3669,-29.0044 -19.7103,-90.3674zm-176.606 -247.892c96.8812,37.604 177.199,107.762 233.606,219.142 53.2028,105.05 59.2063,141.809 -8.53938,176.118 -22.7788,11.537 -54.3048,20.5051 -98.1461,32.974l-9.52205 2.71063c-118.136,33.6662 -217.278,3.68859 -298.282,-63.2634 -94.6076,-78.1997 -162.807,-207.569 -206.41,-342.553l-11.0232 -34.1256 35.2736 -6.99922c133.246,-26.4378 257.377,-25.0146 363.043,15.9969z"/>
  <path class="fil1" d="M821.523 580c-48.7016,-96.1642 -117.284,-156.441 -199.606,-188.393 -84.0981,-32.641 -183.56,-36.476 -291.718,-19.2106 40.1528,111.618 98.1083,214.929 174.586,278.143 65.2418,53.9256 145.034,78.0851 240.032,51.013l9.52205 -2.71063c32.6575,-9.2882 57.9556,-16.4847 75.4217,-23.3941 -44.8902,-44.7437 -104.192,-79.1788 -184.449,-100.991l16.7504 -61.7504c65.615,17.8323 119.17,43.1575 163.343,74.9965 -1.24843,-2.49213 -2.54173,-5.05867 -3.88111,-7.70197z"/>
  <path class="fil1" d="M1426.08 391.607c-82.3229,31.9524 -150.905,92.2288 -199.606,188.393 -1.33937,2.64331 -2.63268,5.20985 -3.88111,7.70197 44.1733,-31.839 97.728,-57.1642 163.343,-74.9965l16.7504 61.7504c-80.2571,21.8126 -139.559,56.2477 -184.449,100.991 17.4662,6.90945 42.763,14.1059 75.4217,23.3941l9.52205 2.71063c94.9985,27.0721 174.79,2.9126 240.032,-51.013 76.4776,-63.2138 134.433,-166.525 174.586,-278.143 -108.158,-17.2654 -207.62,-13.4303 -291.718,19.2106z"/>
  <path class="fil2" d="M1116.88 1122.56c-42.137,7.96654 -94.4198,17.85 -170.788,28.2591 -77.0741,10.4823 -137.796,15.1063 -188.642,18.978 -186.732,14.2205 -231.138,17.6504 -404.833,291.489l218.899 212.058c164.801,-154.141 264.916,-154.106 435.046,-154.004 44.5666,0.0259843 94.265,0.056693 152.793,-3.10158 33.9024,-1.81536 54.2197,-3.39095 70.389,-6.06733 15.1028,-2.49921 27.6236,-6.28701 46.2237,-12.5858l0.124016 0c80.393,-27.163 163.73,-72.3166 235.856,-118.712 109.434,-70.3926 190.057,-136.299 191.739,-145.507 0.479528,-2.61969 0.627166,-5.10473 0.48189,-7.4504 -0.386221,-6.2563 -3.89764,-11.4803 -9.06142,-15.5917 -7.63111,-6.07441 -18.2917,-10.1102 -29.5465,-12.1701 -7.39134,-1.35236 -14.9823,-1.79055 -22.1516,-1.34764 -47.7815,2.95158 -111.352,38.6055 -177.615,75.769 -36.9603,20.7284 -74.713,41.9032 -112.856,59.1756 -139.704,63.2091 -351.92,14.2725 -354.875,13.5921l-0.249213 -0.125197 -0.0295276 -0.00708662 -6.1252 -59.876c19.6004,-9.18662 66.404,-22.1811 109.722,-34.2071 34.0193,-9.4441 65.7449,-18.2516 75.7501,-22.6736l0.125197 0c47.0823,-20.6917 72.7595,-49.2367 82.8662,-75.5623 4.05591,-10.5673 5.45788,-20.5264 4.63465,-29.0693 -0.624804,-6.47835 -2.53937,-11.7189 -5.47323,-15.1323 -1.97835,-2.30197 -4.9441,-3.65079 -8.68111,-3.59055 -45.3603,0.755906 -81.4961,7.58741 -133.723,17.4602z"/>
 </g>
 <rect class="fil3" width="2048" height="2048"/>
</svg>
