<?xml version="1.0" encoding="UTF-8"?>
<!DOCTYPE svg PUBLIC "-//W3C//DTD SVG 1.1//EN" "http://www.w3.org/Graphics/SVG/1.1/DTD/svg11.dtd">
<!-- Creator: CorelDRAW -->
<svg xmlns="http://www.w3.org/2000/svg" xml:space="preserve" width="2048px" height="2048px" style="shape-rendering:geometricPrecision; text-rendering:geometricPrecision; image-rendering:optimizeQuality; fill-rule:evenodd; clip-rule:evenodd"
viewBox="0 0 2048 2048"
 xmlns:xlink="http://www.w3.org/1999/xlink">
 <defs>
  <style type="text/css">
   <![CDATA[
    .fil5 {fill:none}
    .fil1 {fill:#B38E85}
    .fil4 {fill:#EBE5DF}
    .fil2 {fill:#F19A7B}
    .fil3 {fill:#F39CC3}
    .fil0 {fill:#212121;fill-rule:nonzero}
   ]]>
  </style>
 </defs>
 <g id="Layer_x0020_1">
  <metadata id="CorelCorpID_0Corel-Layer"/>
  <path class="fil0" d="M865.716 305.622c25.9843,17.0256 37.1233,48.3744 34.402,86.119 -1.23071,17.0847 -5.39528,35.8925 -12.3567,55.3052 20.5099,1.82717 39.2882,5.93504 55.2674,11.9752 35.4579,13.4008 59.2654,36.6851 63.8032,67.4103 4.08071,27.6284 -8.48268,53.9563 -32.9681,75.802 -10.2378,9.13347 -22.8579,17.6126 -37.3311,25.0677 9.94607,12.8209 17.8228,25.8366 23.3055,38.4898 13.0453,30.1028 13.4079,59.2382 -1.85906,82.5426 -17.0256,25.9843 -48.3744,37.1233 -86.119,34.402 -17.0858,-1.23071 -35.8925,-5.39528 -55.3063,-12.3567 -1.82717,20.511 -5.93504,39.2882 -11.974,55.2685 -13.4008,35.4567 -36.6862,59.2642 -67.4103,63.802 -27.6295,4.08071 -53.9552,-8.48268 -75.802,-32.967 -9.13347,-10.2378 -17.6138,-22.8579 -25.0677,-37.3323 -12.8221,9.94607 -25.8378,17.8228 -38.4898,23.3055 -30.1028,13.0453 -59.2394,13.4079 -82.5426,-1.85906 -25.9843,-17.0256 -37.1244,-48.3744 -34.4032,-86.119 1.23189,-17.0847 5.39646,-35.8925 12.3579,-55.3052 -20.5099,-1.82835 -39.2882,-5.93504 -55.2685,-11.974 -35.4567,-13.402 -59.2654,-36.6862 -63.8032,-67.4115 -4.08071,-27.6295 8.48268,-53.9563 32.9681,-75.802 10.2378,-9.13465 22.8591,-17.6138 37.3323,-25.0677 -9.94489,-12.8221 -17.8228,-25.8378 -23.3055,-38.4898 -13.0453,-30.1028 -13.4079,-59.2382 1.85906,-82.5426 17.0244,-25.9855 48.3721,-37.1233 86.1178,-34.402 17.0858,1.23071 35.8925,5.3941 55.3063,12.3567 1.82835,-20.5099 5.93504,-39.287 11.974,-55.2674 13.4008,-35.4579 36.6874,-59.2654 67.4103,-63.8032 27.6307,-4.08071 53.954,8.4815 75.8032,32.967 9.13347,10.2378 17.6138,22.8591 25.0677,37.3323 12.8221,-9.94607 25.8378,-17.8228 38.4898,-23.3055 30.1028,-13.0453 59.2382,-13.4079 82.5426,1.85906zm-29.3492 81.619c1.04528,-14.4945 -0.73819,-24.9 -5.65158,-28.1197 -4.03583,-2.64449 -12.0626,-1.29095 -22.2921,3.14173 -16.3583,7.08898 -34.6418,21.4158 -51.9815,41.2819l-38.2725 43.8496 -16.3524 -55.9748c-7.32638,-25.0819 -17.9469,-45.7276 -29.9504,-59.1827 -7.41733,-8.3126 -14.0976,-12.9118 -18.8032,-12.2173 -5.81575,0.858662 -11.7957,9.51851 -16.911,23.0528 -7.7504,20.5075 -10.8957,48.691 -7.95945,80.0162l5.77914 61.6359 -53.53 -31.1362c-27.1819,-15.8102 -54.0272,-24.7831 -75.8197,-26.354 -14.4945,-1.04528 -24.9,0.739371 -28.1185,5.65158 -2.64449,4.03583 -1.29095,12.0626 3.14173,22.2921 7.08898,16.3583 21.4158,34.6418 41.2819,51.9815l43.8496 38.2737 -55.9748 16.3512c-25.0807,7.32638 -45.7276,17.9457 -59.1827,29.9504 -8.31379,7.41733 -12.913,14.0976 -12.2185,18.802 0.858662,5.81693 9.51851,11.7969 23.0528,16.9122 20.5087,7.7504 48.691,10.8957 80.0174,7.95945l61.6371 -5.77796 -31.1374 53.5288c-15.8114,27.1819 -24.7843,54.0272 -26.3551,75.8186 -1.04528,14.4957 0.740552,24.9012 5.65276,28.1197 4.03583,2.64449 12.0626,1.29095 22.2921,-3.14173 16.3583,-7.08898 34.6418,-21.4158 51.9815,-41.2819l38.2737 -43.8485 16.3512 55.9737c7.32638,25.0819 17.9469,45.7276 29.9504,59.1827 7.41733,8.3126 14.0976,12.9118 18.802,12.2173 5.81693,-0.858662 11.7957,-9.51733 16.911,-23.0516 7.7504,-20.5087 10.8957,-48.6922 7.96064,-80.0174l-5.77559 -61.6347 53.5264 31.1351c27.1807,15.8102 54.026,24.7831 75.8186,26.354 14.4957,1.04528 24.9,-0.73819 28.1197,-5.65158 2.64449,-4.03583 1.29213,-12.0614 -3.14173,-22.2921 -7.08898,-16.3583 -21.4158,-34.6418 -41.2819,-51.9815l-43.8485 -38.2725 55.9737 -16.3524c25.0819,-7.32638 45.7276,-17.9469 59.1815,-29.9504 8.31379,-7.41733 12.913,-14.0976 12.2185,-18.802 -0.858662,-5.81693 -9.51733,-11.7957 -23.0528,-16.911 -20.5075,-7.75158 -48.691,-10.8969 -80.0162,-7.96064l-61.6359 5.77914 31.1362 -53.53c15.8102,-27.1807 24.7831,-54.026 26.354,-75.8186z"/>
  <path class="fil0" d="M690.491 484.087c24.5788,0 46.8355,9.96615 62.9457,26.0764 16.1102,16.1102 26.0776,38.3681 26.0776,62.9469 0,24.5799 -9.96733,46.8355 -26.0776,62.9457 -16.1102,16.1102 -38.367,26.0764 -62.9457,26.0764 -24.5788,0 -46.8343,-9.96615 -62.9457,-26.0764 -16.1102,-16.1114 -26.0764,-38.3693 -26.0764,-62.9457 0,-24.5788 9.96615,-46.8355 26.0764,-62.9457 16.1102,-16.1102 38.3658,-26.0776 62.9457,-26.0776zm17.6953 71.3268c-4.52481,-4.52481 -10.7823,-7.3252 -17.6953,-7.3252 -6.91182,0 -13.1705,2.80158 -17.6953,7.32638 -4.52481,4.52481 -7.3252,10.7823 -7.3252,17.6953 0,6.913 2.8004,13.1693 7.3252,17.6953 4.52599,4.52481 10.7823,7.3252 17.6953,7.3252 6.913,0 13.1705,-2.8004 17.6953,-7.3252 4.52481,-4.52481 7.32638,-10.7835 7.32638,-17.6953 0,-6.913 -2.80158,-13.1717 -7.32638,-17.6965z"/>
  <path class="fil0" d="M1589.36 398.853c20.9551,21.613 24.8894,53.4319 14.3976,88.2379 -4.54961,15.0898 -11.9622,31.0961 -21.9201,47.1095 17.8311,5.89607 33.7158,13.4043 46.8367,22.0417 30.4807,20.0658 47.9351,46.9595 45.7193,76.7823 -2.00788,27.0295 -19.3878,49.2237 -47.0268,64.5993 -10.9925,6.11457 -23.8276,11.211 -38.0103,15.0862 6.13937,13.4043 10.4693,26.5559 12.8268,38.9398 5.89489,30.9638 0.0129921,58.4434 -19.3925,77.2583 -21.6118,20.9563 -53.4331,24.8906 -88.2379,14.3976 -15.0898,-4.54961 -31.0937,-11.9622 -47.1083,-21.9201 -5.89489,17.8311 -13.4055,33.717 -22.0429,46.8378 -20.0669,30.4819 -46.9607,47.9351 -76.7823,45.7181 -27.0295,-2.00788 -49.2237,-19.3878 -64.5993,-47.0268 -6.11457,-10.9913 -11.2122,-23.8252 -15.0862,-38.0091 -13.4043,6.14056 -26.5559,10.4693 -38.9398,12.8268 -30.9662,5.89252 -58.4445,0.011811 -77.2595,-19.3937 -20.9551,-21.613 -24.8894,-53.4331 -14.3976,-88.2379 4.54961,-15.0898 11.9622,-31.0961 21.9201,-47.1095 -17.8311,-5.89607 -33.7158,-13.4043 -46.8367,-22.0417 -30.4807,-20.0658 -47.9351,-46.9607 -45.7193,-76.7823 2.01024,-27.0272 19.389,-49.2237 47.028,-64.5993 10.9925,-6.11457 23.8264,-11.211 38.0091,-15.0851 -6.14056,-13.4043 -10.4693,-26.5559 -12.8268,-38.941 -5.89489,-30.965 -0.0129921,-58.4434 19.3925,-77.2583 21.6154,-20.9575 53.4355,-24.8906 88.2379,-14.3976 15.091,4.54961 31.0949,11.9622 47.1083,21.9201 5.89489,-17.8323 13.4055,-33.717 22.0429,-46.8367 20.0669,-30.4831 46.9595,-47.9363 76.7823,-45.7193 27.0295,2.00788 49.2237,19.3878 64.5993,47.0268 6.11457,10.9913 11.2122,23.8252 15.0862,38.0091 13.4043,-6.14056 26.5559,-10.4693 38.9398,-12.8268 30.9662,-5.89252 58.4445,-0.011811 77.2595,19.3937zm-46.852 69.9875c3.80551,-12.6248 4.46457,-22.0193 1.10079,-25.4882 -2.70473,-2.78977 -9.87993,-3.02244 -19.7587,-1.14331 -16.3134,3.10512 -35.876,12.411 -55.7315,26.961l-47.054 34.4799 -3.69685 -58.2308c-1.56142,-24.6095 -6.96378,-45.6178 -15.0437,-60.143 -4.83544,-8.69292 -9.54686,-13.9925 -13.3488,-14.2748 -5.02087,-0.373229 -11.8583,6.07323 -19.0311,16.9689 -11.2205,17.0457 -19.8378,42.1004 -23.5819,71.3434l-7.88386 61.5579 -45.4914 -42.1831c-21.5634,-19.9949 -44.1898,-33.6721 -63.6957,-39.5528 -12.6248,-3.8067 -22.0181,-4.46575 -25.4882,-1.10079 -2.78977,2.70473 -3.02244,9.87993 -1.14213,19.7575 3.10512,16.3134 12.411,35.876 26.961,55.7315l34.4788 47.054 -58.2296 3.69685c-24.6095,1.56142 -45.6178,6.96497 -60.143,15.0437 -8.6941,4.83662 -13.9937,9.54804 -14.276,13.3488 -0.372048,5.02087 6.07323,11.8583 16.9689,19.0311 17.0457,11.2205 42.1004,19.8378 71.3434,23.5819l61.5556 7.88386 -42.1807 45.4914c-19.9949,21.5646 -33.6709,44.1886 -39.5528,63.6957 -3.80551,12.626 -4.46457,22.0193 -1.10079,25.4882 2.70473,2.78977 9.87993,3.02244 19.7587,1.14331 16.3122,-3.10512 35.876,-12.411 55.7315,-26.961l47.0528 -34.4788 3.69803 58.2296c1.56142,24.6095 6.96378,45.6178 15.0437,60.143 4.83544,8.69292 9.54568,13.9925 13.3488,14.2748 5.01969,0.373229 11.8583,-6.07205 19.0311,-16.9677 11.2205,-17.0457 19.8378,-42.1004 23.5819,-71.3445l7.88268 -61.5567 45.4926 42.1819c21.5634,19.9949 44.1886,33.6721 63.6957,39.5528 12.6248,3.80551 22.0181,4.46575 25.4882,1.10079 2.78977,-2.70473 3.02244,-9.87993 1.14213,-19.7575 -3.10512,-16.3134 -12.411,-35.876 -26.961,-55.7315l-34.4799 -47.0528 58.2308 -3.69803c24.6083,-1.56142 45.6166,-6.9626 60.1441,-15.0437 8.69292,-4.83544 13.9925,-9.54568 14.2748,-13.3488 0.372048,-5.01969 -6.07323,-11.8583 -16.9689,-19.0311 -17.0457,-11.2205 -42.1004,-19.8378 -71.3434,-23.5819l-61.5567 -7.88268 42.1819 -45.4926c19.9949,-21.5646 33.6709,-44.1886 39.5528,-63.6957z"/>
  <path class="fil0" d="M674.256 1112.1l712.138 0 37.0713 0 -5.44607 36.626 -84.7772 570.075c-3.0378,20.439 -13.1599,39.2256 -28.7162,52.6796 -14.6516,12.6721 -33.7536,20.5217 -55.8945,20.5217l-436.613 0c-22.1433,0 -41.2465,-7.85079 -55.8957,-20.5217 -15.5551,-13.4516 -25.6772,-32.2382 -28.715,-52.6796l-84.7772 -570.075 -5.44607 -36.626 37.0713 0zm675.065 64.0016l-637.993 0 79.33 533.449c0.811418,5.46024 3.3567,10.3429 7.21418,13.6795 3.40512,2.94449 8.20631,4.77048 14.1461,4.77048l436.613 0c5.93859,0 10.7398,-1.8248 14.1449,-4.77048 3.85866,-3.33662 6.40394,-8.2193 7.21536,-13.6795l79.33 -533.449z"/>
  <path class="fil0" d="M809.69 717.563c50.3965,47.6894 94.9465,113.613 129.572,186.515 35.4933,74.7284 60.9213,157.399 71.7839,235.649l-63.2504 8.74961c-9.97324,-71.8406 -33.4548,-148.026 -66.2847,-217.148 -31.5095,-66.3426 -71.2938,-125.617 -115.571,-167.516l43.7504 -46.2496z"/>
  <path class="fil0" d="M1301.04 830.623c-30.9107,43.3229 -57.8008,94.7682 -78.9166,149.051 -21.5173,55.3158 -36.9957,113.388 -44.5961,168.678l-63.2504 -8.49922c8.28426,-60.2623 25.063,-123.323 48.3473,-183.18 23.0303,-59.2052 52.4717,-115.475 86.4166,-163.049l51.9993 36.9992z"/>
  <path class="fil0" d="M1369.02 525.954c24.5788,0 46.8355,9.96615 62.9457,26.0764 16.1102,16.1102 26.0776,38.3681 26.0776,62.9469 0,24.5799 -9.96733,46.8355 -26.0776,62.9457 -16.1102,16.1102 -38.367,26.0764 -62.9457,26.0764 -24.5788,0 -46.8343,-9.96615 -62.9457,-26.0764 -16.1102,-16.1114 -26.0764,-38.3693 -26.0764,-62.9457 0,-24.5788 9.96615,-46.8355 26.0764,-62.9457 16.1102,-16.1102 38.3658,-26.0776 62.9457,-26.0776zm17.6953 71.3268c-4.52481,-4.52481 -10.7823,-7.3252 -17.6953,-7.3252 -6.91182,0 -13.1705,2.80158 -17.6953,7.32638 -4.52481,4.52481 -7.3252,10.7823 -7.3252,17.6953 0,6.913 2.8004,13.1693 7.3252,17.6953 4.52599,4.52481 10.7823,7.3252 17.6953,7.3252 6.913,0 13.1705,-2.8004 17.6953,-7.3252 4.52481,-4.52481 7.32638,-10.7835 7.32638,-17.6953 0,-6.913 -2.80158,-13.1717 -7.32638,-17.6965z"/>
  <path class="fil1" d="M1349.32 1176.1l-637.993 0 79.33 533.449c0.811418,5.46024 3.3567,10.3429 7.21418,13.6795 3.40512,2.94449 8.20631,4.77048 14.1461,4.77048l436.613 0c5.93859,0 10.7398,-1.8248 14.1449,-4.77048 3.85866,-3.33662 6.40394,-8.2193 7.21536,-13.6795l79.33 -533.449z"/>
  <path class="fil2" d="M778.876 516.59l31.1362 -53.53c15.8102,-27.1807 24.7831,-54.026 26.354,-75.8186 1.04528,-14.4945 -0.73819,-24.9 -5.65158,-28.1197 -4.03583,-2.64449 -12.0626,-1.29095 -22.2921,3.14173 -16.3583,7.08898 -34.6418,21.4158 -51.9815,41.2819l-38.2725 43.8496 -16.3524 -55.9748c-7.32638,-25.0819 -17.9469,-45.7276 -29.9504,-59.1827 -7.41733,-8.3126 -14.0976,-12.9118 -18.8032,-12.2173 -5.81575,0.858662 -11.7957,9.51851 -16.911,23.0528 -7.7504,20.5075 -10.8957,48.691 -7.95945,80.0162l5.77914 61.6359 -53.53 -31.1362c-27.1819,-15.8102 -54.0272,-24.7831 -75.8197,-26.354 -14.4945,-1.04528 -24.9,0.739371 -28.1185,5.65158 -2.64449,4.03583 -1.29095,12.0626 3.14173,22.2921 7.08898,16.3583 21.4158,34.6418 41.2819,51.9815l43.8496 38.2737 -55.9748 16.3512c-25.0807,7.32638 -45.7276,17.9457 -59.1827,29.9504 -8.31379,7.41733 -12.913,14.0976 -12.2185,18.802 0.858662,5.81693 9.51851,11.7969 23.0528,16.9122 20.5087,7.7504 48.691,10.8957 80.0174,7.95945l61.6371 -5.77796 -31.1374 53.5288c-15.8114,27.1819 -24.7843,54.0272 -26.3551,75.8186 -1.04528,14.4957 0.740552,24.9012 5.65276,28.1197 4.03583,2.64449 12.0626,1.29095 22.2921,-3.14173 16.3583,-7.08898 34.6418,-21.4158 51.9815,-41.2819l38.2737 -43.8485 16.3512 55.9737c7.32638,25.0819 17.9469,45.7276 29.9504,59.1827 7.41733,8.3126 14.0976,12.9118 18.802,12.2173 5.81693,-0.858662 11.7957,-9.51733 16.911,-23.0516 7.7504,-20.5087 10.8957,-48.6922 7.96064,-80.0174l-5.77559 -61.6347 53.5264 31.1351c27.1807,15.8102 54.026,24.7831 75.8186,26.354 14.4957,1.04528 24.9,-0.73819 28.1197,-5.65158 2.64449,-4.03583 1.29213,-12.0614 -3.14173,-22.2921 -7.08898,-16.3583 -21.4158,-34.6418 -41.2819,-51.9815l-43.8485 -38.2725 55.9737 -16.3524c25.0819,-7.32638 45.7276,-17.9469 59.1815,-29.9504 8.31379,-7.41733 12.913,-14.0976 12.2185,-18.802 -0.858662,-5.81693 -9.51733,-11.7957 -23.0528,-16.911 -20.5075,-7.75158 -48.691,-10.8969 -80.0162,-7.96064l-61.6359 5.77914zm-88.3855 -32.5028c24.5788,0 46.8355,9.96615 62.9457,26.0764 16.1102,16.1102 26.0776,38.3681 26.0776,62.9469 0,24.5799 -9.96733,46.8355 -26.0776,62.9457 -16.1102,16.1102 -38.367,26.0764 -62.9457,26.0764 -24.5788,0 -46.8343,-9.96615 -62.9457,-26.0764 -16.1102,-16.1114 -26.0764,-38.3693 -26.0764,-62.9457 0,-24.5788 9.96615,-46.8355 26.0764,-62.9457 16.1102,-16.1102 38.3658,-26.0776 62.9457,-26.0776z"/>
  <path class="fil3" d="M1346.37 459.313l-7.88386 61.5579 -45.4914 -42.1831c-21.5634,-19.9949 -44.1898,-33.6721 -63.6957,-39.5528 -12.6248,-3.8067 -22.0181,-4.46575 -25.4882,-1.10079 -2.78977,2.70473 -3.02244,9.87993 -1.14213,19.7575 3.10512,16.3134 12.411,35.876 26.961,55.7315l34.4788 47.054 -58.2296 3.69685c-24.6095,1.56142 -45.6178,6.96497 -60.143,15.0437 -8.6941,4.83662 -13.9937,9.54804 -14.276,13.3488 -0.372048,5.02087 6.07323,11.8583 16.9689,19.0311 17.0457,11.2205 42.1004,19.8378 71.3434,23.5819l61.5556 7.88386 -42.1807 45.4914c-19.9949,21.5646 -33.6709,44.1886 -39.5528,63.6957 -3.80551,12.626 -4.46457,22.0193 -1.10079,25.4882 2.70473,2.78977 9.87993,3.02244 19.7587,1.14331 16.3122,-3.10512 35.876,-12.411 55.7315,-26.961l47.0528 -34.4788 3.69803 58.2296c1.56142,24.6095 6.96378,45.6178 15.0437,60.143 4.83544,8.69292 9.54568,13.9925 13.3488,14.2748 5.01969,0.373229 11.8583,-6.07205 19.0311,-16.9677 11.2205,-17.0457 19.8378,-42.1004 23.5819,-71.3445l7.88268 -61.5567 45.4926 42.1819c21.5634,19.9949 44.1886,33.6721 63.6957,39.5528 12.6248,3.80551 22.0181,4.46575 25.4882,1.10079 2.78977,-2.70473 3.02244,-9.87993 1.14213,-19.7575 -3.10512,-16.3134 -12.411,-35.876 -26.961,-55.7315l-34.4799 -47.0528 58.2308 -3.69803c24.6083,-1.56142 45.6166,-6.9626 60.1441,-15.0437 8.69292,-4.83544 13.9925,-9.54568 14.2748,-13.3488 0.372048,-5.01969 -6.07323,-11.8583 -16.9689,-19.0311 -17.0457,-11.2205 -42.1004,-19.8378 -71.3434,-23.5819l-61.5567 -7.88268 42.1819 -45.4926c19.9949,-21.5646 33.6709,-44.1886 39.5528,-63.6957 3.80551,-12.6248 4.46457,-22.0193 1.10079,-25.4882 -2.70473,-2.78977 -9.87993,-3.02244 -19.7587,-1.14331 -16.3134,3.10512 -35.876,12.411 -55.7315,26.961l-47.054 34.4799 -3.69685 -58.2308c-1.56142,-24.6095 -6.96378,-45.6178 -15.0437,-60.143 -4.83544,-8.69292 -9.54686,-13.9925 -13.3488,-14.2748 -5.02087,-0.373229 -11.8583,6.07323 -19.0311,16.9689 -11.2205,17.0457 -19.8378,42.1004 -23.5819,71.3434zm22.6559 66.6402c24.5788,0 46.8355,9.96615 62.9457,26.0764 16.1102,16.1102 26.0776,38.3681 26.0776,62.9469 0,24.5799 -9.96733,46.8355 -26.0776,62.9457 -16.1102,16.1102 -38.367,26.0764 -62.9457,26.0764 -24.5788,0 -46.8343,-9.96615 -62.9457,-26.0764 -16.1102,-16.1114 -26.0764,-38.3693 -26.0764,-62.9457 0,-24.5788 9.96615,-46.8355 26.0764,-62.9457 16.1102,-16.1102 38.3658,-26.0776 62.9457,-26.0776z"/>
  <path class="fil4" d="M708.186 590.806c4.52481,-4.52481 7.32638,-10.7835 7.32638,-17.6953 0,-6.913 -2.80158,-13.1717 -7.32638,-17.6965 -4.52481,-4.52481 -10.7823,-7.3252 -17.6953,-7.3252 -6.91182,0 -13.1705,2.80158 -17.6953,7.32638 -4.52481,4.52481 -7.3252,10.7823 -7.3252,17.6953 0,6.913 2.8004,13.1693 7.3252,17.6953 4.52599,4.52481 10.7823,7.3252 17.6953,7.3252 6.913,0 13.1705,-2.8004 17.6953,-7.3252z"/>
  <path class="fil4" d="M1351.33 597.282c-4.52481,4.52481 -7.3252,10.7823 -7.3252,17.6953 0,6.913 2.8004,13.1693 7.3252,17.6953 4.52599,4.52481 10.7823,7.3252 17.6953,7.3252 6.913,0 13.1705,-2.8004 17.6953,-7.3252 4.52481,-4.52481 7.32638,-10.7835 7.32638,-17.6953 0,-6.913 -2.80158,-13.1717 -7.32638,-17.6965 -4.52481,-4.52481 -10.7823,-7.3252 -17.6953,-7.3252 -6.91182,0 -13.1705,2.80158 -17.6953,7.32638z"/>
 </g>
 <rect class="fil5" width="2048" height="2048"/>
</svg>
