<?xml version="1.0" encoding="UTF-8"?>
<!DOCTYPE svg PUBLIC "-//W3C//DTD SVG 1.1//EN" "http://www.w3.org/Graphics/SVG/1.1/DTD/svg11.dtd">
<!-- Creator: CorelDRAW -->
<svg xmlns="http://www.w3.org/2000/svg" xml:space="preserve" width="2048px" height="2048px" style="shape-rendering:geometricPrecision; text-rendering:geometricPrecision; image-rendering:optimizeQuality; fill-rule:evenodd; clip-rule:evenodd"
viewBox="0 0 2048 2048"
 xmlns:xlink="http://www.w3.org/1999/xlink">
 <defs>
  <style type="text/css">
   <![CDATA[
    .fil3 {fill:none}
    .fil1 {fill:#EBE5DF}
    .fil2 {fill:#F45A52}
    .fil0 {fill:#212121;fill-rule:nonzero}
   ]]>
  </style>
 </defs>
 <g id="Layer_x0020_1">
  <metadata id="CorelCorpID_0Corel-Layer"/>
  <path class="fil0" d="M1008 255.998c39.2894,0 75.1323,15.5221 101.226,40.5307 26.3918,25.2921 42.7748,60.2634 42.7748,98.804l0 846.353c45.1595,23.4366 83.4485,57.5221 111.21,98.7497 30.8717,45.8469 48.789,100.401 48.789,158.897 0,81.0048 -34.2189,154.301 -89.5418,207.319 -55.0252,52.7315 -130.859,85.3489 -214.459,85.3489 -83.5997,0 -159.434,-32.6173 -214.459,-85.3489 -55.3229,-53.0185 -89.5418,-126.314 -89.5418,-207.319 0,-58.4965 17.9173,-113.05 48.789,-158.897 27.7618,-41.2276 66.0508,-75.3131 111.21,-98.7497l0 -846.353c0,-38.5406 16.3831,-73.5119 42.7748,-98.804 26.0941,-25.0087 61.9371,-40.5307 101.226,-40.5307zm56.9752 86.53c-14.5028,-13.9004 -34.6642,-22.5284 -56.9752,-22.5284 -22.311,0 -42.4725,8.62796 -56.9752,22.5284 -14.2051,13.6134 -23.0244,32.3126 -23.0244,52.8048l0 866.388 0 20.8488 -19.376 8.40119c-42.2422,18.3154 -77.9457,48 -102.835,84.9638 -23.9103,35.5099 -37.7882,77.869 -37.7882,123.398 0,62.9563 26.6717,119.997 69.7914,161.32 43.4174,41.6079 103.585,67.3465 170.208,67.3465 66.6225,0 126.79,-25.7386 170.208,-67.3465 43.1197,-41.3233 69.7914,-98.3635 69.7914,-161.32 0,-45.5292 -13.878,-87.8883 -37.7882,-123.398 -24.8894,-36.9638 -60.593,-66.6485 -102.835,-84.9638l-19.376 -8.40119 0 -20.8488 0 -866.388c0,-20.4921 -8.8193,-39.1914 -23.0244,-52.8048z"/>
  <polygon class="fil0" points="1040,623.113 1040,1344 976,1344 976,623.113 "/>
  <path class="fil0" d="M1008 1329.08c48.5977,0 92.5997,19.702 124.449,51.5516 31.8508,31.852 51.5516,75.8528 51.5516,124.449 0,48.5977 -19.702,92.5997 -51.5516,124.449 -31.8496,31.8496 -75.8516,51.5516 -124.449,51.5516 -48.5977,0 -92.5997,-19.702 -124.449,-51.5516 -31.8496,-31.8496 -51.5516,-75.8516 -51.5516,-124.449 0,-48.5965 19.7008,-92.5973 51.5516,-124.449 31.8496,-31.8496 75.8516,-51.5516 124.449,-51.5516zm79.1989 96.802c-20.2642,-20.2642 -48.267,-32.8004 -79.1989,-32.8004 -30.9319,0 -58.9347,12.5362 -79.1989,32.8004 -20.2654,20.2666 -32.8004,48.2681 -32.8004,79.1989 0,30.9319 12.5362,58.9347 32.8004,79.1989 20.2642,20.2642 48.267,32.8004 79.1989,32.8004 30.9319,0 58.9347,-12.5362 79.1989,-32.8004 20.2642,-20.2642 32.8004,-48.267 32.8004,-79.1989 0,-30.9307 -12.535,-58.9323 -32.8004,-79.1989z"/>
  <polygon class="fil0" points="896,796.527 960.001,796.527 960.001,860.528 896,860.528 "/>
  <polygon class="fil0" points="896,895.996 960.001,895.996 960.001,959.997 896,959.997 "/>
  <polygon class="fil0" points="896,995.465 960.001,995.465 960.001,1059.47 896,1059.47 "/>
  <polygon class="fil0" points="896,1094.93 960.001,1094.93 960.001,1158.94 896,1158.94 "/>
  <path class="fil1" d="M976 623.113l64.0016 0 0 708.873c35.7721,6.57166 67.7611,23.961 92.4485,48.6485 31.8508,31.852 51.5516,75.8528 51.5516,124.449 0,48.5977 -19.702,92.5997 -51.5516,124.449 -31.8496,31.8496 -75.8516,51.5516 -124.449,51.5516 -48.5977,0 -92.5997,-19.702 -124.449,-51.5516 -31.8496,-31.8496 -51.5516,-75.8516 -51.5516,-124.449 0,-48.5965 19.7008,-92.5973 51.5516,-124.449 24.6874,-24.6874 56.6776,-42.0768 92.4485,-48.6485l0 -708.873zm-47.9989 272.882l31.9996 0 0 64.0016 -31.9996 0 0 35.4674 31.9996 0 0 64.0016 -31.9996 0 0 35.4674 31.9996 0 0 64.0016 -31.9996 0 0 102.786 0 20.8488 -19.376 8.40119c-42.2422,18.3154 -77.9457,48 -102.835,84.9638 -23.9103,35.5099 -37.7882,77.869 -37.7882,123.398 0,62.9563 26.6717,119.997 69.7914,161.32 43.4174,41.6079 103.585,67.3465 170.208,67.3465 66.6225,0 126.79,-25.7386 170.208,-67.3465 43.1197,-41.3233 69.7914,-98.3635 69.7914,-161.32 0,-45.5292 -13.878,-87.8883 -37.7882,-123.398 -24.8894,-36.9638 -60.593,-66.6485 -102.835,-84.9638l-19.376 -8.40119 0 -20.8488 0 -866.388c0,-20.4921 -8.8193,-39.1914 -23.0244,-52.8048 -14.5028,-13.9004 -34.6642,-22.5284 -56.9752,-22.5284 -22.311,0 -42.4725,8.62796 -56.9752,22.5284 -14.2051,13.6134 -23.0244,32.3126 -23.0244,52.8048l0 401.194 31.9996 0 0 64.0016 -31.9996 0 0 35.4674z"/>
  <path class="fil2" d="M1087.2 1425.89c-20.2642,-20.2642 -48.267,-32.8004 -79.1989,-32.8004 -30.9319,0 -58.9347,12.5362 -79.1989,32.8004 -20.2654,20.2666 -32.8004,48.2681 -32.8004,79.1989 0,30.9319 12.5362,58.9347 32.8004,79.1989 20.2642,20.2642 48.267,32.8004 79.1989,32.8004 30.9319,0 58.9347,-12.5362 79.1989,-32.8004 20.2642,-20.2642 32.8004,-48.267 32.8004,-79.1989 0,-30.9307 -12.535,-58.9323 -32.8004,-79.1989z"/>
 </g>
 <rect class="fil3" width="2048" height="2048"/>
</svg>
