<?xml version="1.0" encoding="UTF-8"?>
<!DOCTYPE svg PUBLIC "-//W3C//DTD SVG 1.1//EN" "http://www.w3.org/Graphics/SVG/1.1/DTD/svg11.dtd">
<!-- Creator: CorelDRAW -->
<svg xmlns="http://www.w3.org/2000/svg" xml:space="preserve" width="2048px" height="2048px" style="shape-rendering:geometricPrecision; text-rendering:geometricPrecision; image-rendering:optimizeQuality; fill-rule:evenodd; clip-rule:evenodd"
viewBox="0 0 2048 2048"
 xmlns:xlink="http://www.w3.org/1999/xlink">
 <defs>
  <style type="text/css">
   <![CDATA[
    .fil4 {fill:none}
    .fil3 {fill:#212121}
    .fil1 {fill:#AED581}
    .fil0 {fill:#EBE5DF}
    .fil2 {fill:#212121;fill-rule:nonzero}
   ]]>
  </style>
 </defs>
 <g id="Layer_x0020_1">
  <metadata id="CorelCorpID_0Corel-Layer"/>
  <path class="fil0" d="M666.798 458.83c30.8764,0 55.9075,25.0701 55.9075,55.9961 0,30.926 -25.0311,55.9973 -55.9075,55.9973 -30.8776,0 -55.9075,-25.0713 -55.9075,-55.9973 0,-30.926 25.0299,-55.9961 55.9075,-55.9961zm0 163.226c0.323622,0 0.648426,-0.0011811 0.972048,-0.00472441 -0.323622,0.00354331 -0.648426,0.00472441 -0.972048,0.00472441zm-75.5457 -31.154c10.3677,10.35 22.363,18.1228 35.1756,23.3162 -0.124016,-0.0507874 -0.249213,-0.101575 -0.373229,-0.152362 -13.1339,-5.39174 -24.9378,-13.3169 -34.8024,-23.1638zm244.947 -53.5949l0.152362 -0.0744095c-0.0507874,0.0248032 -0.101575,0.0496063 -0.152362,0.0744095zm-240.658 133.147c20.4071,9.42166 42.965,14.9197 66.7087,15.5433l0.0141732 -0.0188977c1.5874,0.0531496 3.09803,0.0791339 4.53307,0.0791339 44.5559,0 85.193,-17.1614 115.704,-45.2705 0.00944883,-0.00826772 0.0188977,-0.0177165 0.0283465,-0.0259843 1.40315,-1.29449 2.78504,-2.61378 4.14567,-3.95433l1.04173 -1.02992c25.9677,-26.0091 43.624,-60.3048 48.6343,-98.5442 0.960237,-7.33347 1.4563,-14.8122 1.4563,-22.4055 0,-8.29134 -0.590552,-16.4457 -1.73268,-24.424 -0.0188977,-0.12874 -0.0377953,-0.257481 -0.056693,-0.386221 -1.0311,-7.09016 -2.49803,-14.041 -4.37244,-20.8229 -0.00944883,0.00354331 -0.0177165,0.00708662 -0.0271654,0.011811 -7.14804,-25.7398 -20.198,-49.2496 -37.7055,-68.791 -0.0129921,-0.0141732 -0.0248032,-0.0283465 -0.0377953,-0.0413386 -1.99606,-2.21929 -4.05,-4.38544 -6.15827,-6.49725 -31.017,-31.0666 -73.7753,-50.2807 -120.92,-50.2807 -2.73425,0 -5.45433,0.0649607 -8.15788,0.19252 -43.9288,2.07756 -83.5843,20.8406 -112.762,50.0882 -1.78937,1.79173 -3.53859,3.62362 -5.24764,5.49213 -27.8351,30.4689 -44.8429,71.0138 -44.8429,115.459 0,47.1863 19.1421,89.9528 50.0906,120.95 5.13071,5.13898 10.5815,9.95316 16.3217,14.4095 10.2602,7.96182 21.4406,14.7803 33.3425,20.2677zm71.256 -262.857c-4.19055,0 -8.32442,0.239764 -12.3862,0.705119 -0.0389764,0.00354331 -0.0779528,0.00826772 -0.116929,0.0129921 4.15158,-0.484252 8.32796,-0.725197 12.5032,-0.718111zm-107.009 107.23c0,3.12284 0.132284,6.21497 0.392126,9.2693 0.0106299,0.126378 0.0212599,0.253937 0.0330709,0.381496 -0.287008,-3.21024 -0.429922,-6.42993 -0.425197,-9.65079zm214.011 -1.2437c-0.179528,-15.4854 -3.66733,-30.9402 -10.4634,-45.189 0.0602363,0.126378 0.120473,0.252756 0.180709,0.380315 6.43229,13.5945 10.102,28.774 10.2827,44.8087zm-31.8685 77.7272c0.179528,-0.177165 0.357874,-0.355512 0.536221,-0.533859 -0.18189,0.174803 -0.361418,0.351969 -0.536221,0.533859zm4.34764 -4.55315c0.0236221,-0.0271654 0.0484252,-0.0531496 0.0720473,-0.080315 1.54134,-1.71024 3.02717,-3.47008 4.45748,-5.27717 0.0153543,-0.0200788 0.0318898,-0.0401575 0.0472441,-0.0602363 -1.45512,1.84488 -2.97992,3.65315 -4.57678,5.41772zm-73.813 35.152c0.141732,-0.00826772 0.284646,-0.0153543 0.426378,-0.0236221 14.3256,-0.800788 27.8882,-4.4067 40.1481,-10.2768 0.220866,-0.105118 0.440552,-0.211417 0.660237,-0.317717 -13.0205,6.33189 -27.0685,9.87048 -41.2347,10.6181zm-46.037 -7.69134c9.70867,3.93544 19.8874,6.38977 30.1843,7.363 -0.190158,-0.0177165 -0.380315,-0.0366142 -0.569292,-0.0555119 -10.389,-1.02992 -20.3315,-3.5374 -29.615,-7.30749zm-58.4646 -140.676c-4.18583,10.1138 -6.76536,20.7449 -7.73859,31.4953 0.0106299,-0.112205 0.0200788,-0.223229 0.0307087,-0.335433 1.01811,-10.9524 3.66969,-21.4217 7.70788,-31.1599zm23.0126 -34.513c-10.1469,10.2012 -17.8169,21.9591 -23.0126,34.513 0.0413386,-0.100394 0.0826772,-0.200788 0.125197,-0.301181 5.11181,-12.2197 12.4087,-23.2795 21.4016,-32.6882 0.490158,-0.512599 0.98504,-1.02047 1.48583,-1.52362zm63.3178 -30.7134c-10.2721,1.18819 -20.0929,3.82205 -29.2524,7.69371 -0.0129921,0.00590552 -0.0271654,0.011811 -0.0413386,0.0177165 9.41103,-3.97559 19.2851,-6.54567 29.2937,-7.71142zm-86.2064 148.096c5.19331,12.4406 12.8221,24.0921 22.8874,34.2118 -0.505512,-0.507874 -1.0063,-1.02165 -1.50118,-1.53898 -8.98583,-9.40513 -16.278,-20.4603 -21.3862,-32.6729zm-7.87442 -31.9335c0.977954,11.0599 3.62244,21.6319 7.67835,31.4622 0.0649607,0.157087 0.131102,0.314173 0.196063,0.47126 -4.27677,-10.2473 -6.90237,-21.0295 -7.87442,-31.9335zm203.123 -56.0835c-5.06457,-10.6169 -11.9658,-20.563 -20.7047,-29.3528 0.564567,0.56693 1.12205,1.14095 1.67362,1.72087 7.69961,8.09883 14.1473,17.4142 19.0311,27.6319z"/>
  <path class="fil1" d="M787.713 635.774c-0.343701,0.346063 -0.690945,0.690945 -1.03819,1.03347 0.350788,-0.340158 0.696851,-0.683859 1.03819,-1.03347zm48.6378 -98.5406c-5.01024,38.2394 -22.6666,72.5351 -48.6343,98.5442 25.8626,-25.9465 43.4587,-60.2079 48.4819,-98.4698 0.0507874,-0.0248032 0.101575,-0.0496063 0.152362,-0.0744095zm-174.102 148.765c0.00472441,-0.00590552 0.00944883,-0.0129921 0.0141732,-0.0188977 1.5874,0.0531496 3.09803,0.0791339 4.53307,0.0791339 -1.52008,0 -3.03662,-0.0200788 -4.54725,-0.0602363zm723.912 658.045c56.563,-93.7347 89.0753,-220.251 89.0753,-332.166 0,-65.5666 -10.7693,-128.167 -30.4229,-185.71 -18.013,-52.7398 -43.3843,-101.217 -74.6658,-143.831 -11.4413,2.43307 -23.2996,3.71575 -35.4508,3.72284 -0.0307087,0 -0.0625985,0 -0.0933072,0 -47.1449,0 -89.9032,-19.2142 -120.92,-50.2807 -29.3445,-29.3906 -48.0733,-69.365 -49.9347,-113.654 -20.0268,-7.63819 -40.5933,-13.735 -61.5804,-18.1618 -27.1961,-5.73662 -55.4894,-8.73898 -84.6568,-8.73898 -34.715,0 -68.4792,4.34764 -100.878,12.5787 -27.8835,7.08426 -54.73,16.9925 -80.2831,29.4319 0.960237,-7.33347 1.4563,-14.8122 1.4563,-22.4055 0,-15.7984 -2.14606,-31.102 -6.16182,-45.6331 -7.97953,-28.8721 -23.3421,-54.6993 -43.9288,-75.3178 -31.017,-31.0666 -73.7753,-50.2807 -120.92,-50.2807 -47.1461,0 -89.9044,19.2154 -120.92,50.2807 -30.9484,30.9969 -50.0906,73.7646 -50.0906,120.951 0,47.1863 19.1421,89.9528 50.0906,120.95 14.2973,14.3209 31.0914,26.1236 49.6583,34.6855 20.413,9.41339 42.9697,14.9114 66.7146,15.5351 -31.0099,42.9933 -55.9937,91.6123 -73.5083,144.243 -18.7193,56.2559 -28.9536,117.442 -28.9536,181.635 0,7.20237 0.00944883,11.1331 0.0259843,11.8559 2.51929,105.33 37.9996,222.148 94.4493,312.72 14.9256,23.948 31.2614,45.9591 48.7489,65.2619 12.5658,-56.4331 45.8445,-109.348 93.0662,-150.402 57.2233,-49.7481 135.21,-82.2969 221.434,-82.2969 87.3083,0 166.708,28.5036 224.499,74.5855 53.6528,42.7831 88.9619,100.639 95.706,165.423 17.5795,-18.7264 33.789,-40.6949 48.4441,-64.9808zm-359.321 -407.895c-45.2611,0 -89.9327,-5.71182 -131.583,-16.5059 -36.7146,-9.51615 -70.8886,-22.9772 -100.886,-39.9591l-30.7465 57.0697c-8.35276,15.5327 -27.7181,21.3532 -43.2508,13.0004 -15.5327,-8.35276 -21.3532,-27.7181 -13.0004,-43.2508l86.1261 -159.859c8.35276,-15.5327 27.7181,-21.3532 43.2508,-13.0004 15.5327,8.35276 21.3532,27.7181 13.0004,43.2508l-25.0666 46.526c25.5579,14.6469 54.9036,26.263 86.5725,34.4717 35.9693,9.32127 75.1973,14.2547 115.584,14.2547 40.3855,0 79.6134,-4.93347 115.583,-14.2547 35.5914,-9.22442 68.2465,-22.754 95.8902,-40.0512 14.9799,-9.32009 34.6807,-4.73032 44.0008,10.2496 9.32009,14.9799 4.73032,34.6807 -10.2496,44.0008 -32.9162,20.5961 -71.6138,36.6579 -113.642,47.5512 -41.6504,10.7941 -86.3209,16.5059 -131.582,16.5059zm-284.915 -344.841c-19.0713,18.8055 -45.2244,30.4902 -74.1556,30.7453 -0.323622,0.00354331 -0.648426,0.00472441 -0.973229,0.00472441 -29.6268,0 -56.3752,-11.9539 -75.6697,-31.2792 -19.363,-19.3925 -31.3394,-46.2426 -31.3394,-75.9497 0,-29.7071 11.9764,-56.5583 31.3394,-75.9508 19.2945,-19.3252 46.0429,-31.2792 75.6697,-31.2792 29.6268,0 56.3752,11.9539 75.6697,31.2792 19.363,19.3925 31.3394,46.2437 31.3394,75.9508 0,27.7051 -10.4173,52.9264 -27.528,71.9304 -1.23543,1.37244 -2.5063,2.71299 -3.81142,4.01929 -0.178347,0.178347 -0.356693,0.356693 -0.540945,0.529134z"/>
  <path class="fil2" d="M1017.51 431.221c33.1311,0 65.7839,3.51851 97.656,10.2413 32.6433,6.88701 64.0689,17.0717 93.9875,30.2244l21.15 9.29883 -2.2748 23.0764c-0.166536,1.69725 -0.298819,3.47362 -0.389764,5.32205 -0.0295276,0.617717 -0.046063,2.41654 -0.046063,5.44252 0,29.7071 11.9764,56.5583 31.3394,75.9508 19.2945,19.3252 46.0429,31.2792 75.6697,31.2792 6.463,0 12.7087,-0.550394 18.6945,-1.60276 6.40749,-1.12677 12.4193,-2.73189 17.9941,-4.76457l21.3969 -7.80355 14.3539 17.928c41.9847,52.4422 75.5327,113.276 98.2713,179.854 21.9154,64.1634 33.9236,133.689 33.9236,206.209 0,122.632 -35.8878,261.696 -98.3257,365.166 -56.7957,94.1186 -136.048,160.061 -232.022,162.357l-345.307 8.26418c-4.9878,0.120473 -3.70985,0.177165 -5.13307,0.177165 -103.077,0 -193.638,-73.669 -258.438,-177.638 -62.1154,-99.6615 -101.165,-228.527 -103.95,-344.971 -0.183071,-7.71497 -0.276378,-12.1925 -0.276378,-13.3559 0,-70.6241 11.4721,-138.579 32.4544,-201.636 21.789,-65.4768 53.7933,-125.312 93.8245,-177.051l11.3658 -14.6882 18.2587 2.56299c2.34331,0.328347 4.84134,0.589371 7.49056,0.774804 2.04095,0.142913 4.57559,0.217323 7.61812,0.217323 29.3173,0 55.8426,-11.7343 75.1276,-30.75 19.3736,-19.1032 31.5272,-45.4878 31.9772,-74.6623l0.291733 -18.8941 16.4587 -8.85591c34.8862,-18.7701 71.8075,-33.3319 110.23,-43.0937 37.5532,-9.54095 76.591,-14.5795 116.629,-14.5795zm84.6568 72.7406c-27.1961,-5.73662 -55.4894,-8.73898 -84.6568,-8.73898 -34.715,0 -68.4792,4.34764 -100.878,12.5787 -27.939,7.09843 -54.8363,17.0315 -80.4355,29.5063 -5.09056,38.7721 -23.0906,73.4363 -49.5237,99.4997 -30.8882,30.4571 -73.2201,49.2508 -119.877,49.2508 -1.43622,0 -2.94685,-0.0259843 -4.53426,-0.0791339 -31.017,42.9981 -56.0056,91.6229 -73.5225,144.262 -18.7193,56.2559 -28.9536,117.442 -28.9536,181.635 0,7.20237 0.00944883,11.1331 0.0259843,11.8559 2.51929,105.33 37.9996,222.148 94.4493,312.72 53.765,86.2631 125.81,147.388 204.188,147.388 4.34055,0 1.57205,0.122835 3.63307,0.0732284l345.307 -8.26418c71.1331,-1.70197 132.652,-55.18 178.771,-131.606 56.563,-93.7347 89.0753,-220.251 89.0753,-332.166 0,-65.5666 -10.7693,-128.167 -30.4229,-185.71 -18.0154,-52.7481 -43.3914,-101.231 -74.68,-143.85 -1.94055,0.415748 -3.88583,0.794883 -5.83465,1.1374 -9.72639,1.71024 -19.6524,2.60433 -29.6953,2.60433 -47.1449,0 -89.9032,-19.2142 -120.92,-50.2807 -29.3445,-29.3906 -48.0733,-69.365 -49.9347,-113.654 -20.0268,-7.63819 -40.5933,-13.735 -61.5804,-18.1618z"/>
  <path class="fil2" d="M1334.6 343.596c47.1461,0 89.9044,19.2154 120.92,50.2807 30.9484,30.9969 50.0906,73.7646 50.0906,120.951 0,47.1863 -19.1421,89.9528 -50.0906,120.95 -31.0158,31.0654 -73.7741,50.2807 -120.92,50.2807 -47.1449,0 -89.9044,-19.2154 -120.919,-50.2807 -30.9484,-30.9969 -50.0906,-73.7634 -50.0906,-120.95 0,-47.1863 19.1421,-89.954 50.0906,-120.951 31.0146,-31.0654 73.7741,-50.2807 120.919,-50.2807zm75.6697 95.2808c-19.2945,-19.3252 -46.0429,-31.2792 -75.6697,-31.2792 -29.6256,0 -56.3752,11.9539 -75.6686,31.2792 -19.363,19.3925 -31.3394,46.2437 -31.3394,75.9508 0,29.7071 11.9764,56.5571 31.3394,75.9497 19.2933,19.3252 46.0429,31.2792 75.6686,31.2792 29.6268,0 56.3752,-11.9539 75.6697,-31.2792 19.363,-19.3925 31.3394,-46.2426 31.3394,-75.9497 0,-29.7071 -11.9764,-56.5583 -31.3394,-75.9508z"/>
  <ellipse class="fil3" cx="666.797" cy="514.827" rx="55.9078" ry="55.9967"/>
  <path class="fil2" d="M1495.86 815.019c96.2221,-36.8575 170.697,-40.2957 220.555,-19.3122 35.0823,14.765 58.2851,40.63 69.0378,75.1548 9.81615,31.5142 8.57835,69.5906 -4.2378,112.015 -32.1059,106.283 -140.531,248.123 -333.99,384.781l-36.7512 -52.2496c180.753,-127.682 280.932,-256.49 309.492,-351.032 9.07087,-30.0307 10.4646,-55.3276 4.48819,-74.5146 -5.03859,-16.1788 -16.0583,-28.3618 -32.7898,-35.4036 -35.1733,-14.8039 -93.1288,-10.3039 -173.053,20.3114l-22.7504 -59.7497z"/>
  <path class="fil2" d="M547.098 850.916c-83.204,-31.1492 -144.888,-33.7441 -183.293,-15.7406 -19.2437,9.02127 -32.3091,23.9622 -38.7544,43.4115 -7.30394,22.0394 -6.83386,50.1815 1.90276,82.8142 26.3622,98.4662 124.071,228.724 305.354,353.881l-36.2504 52.5c-194.936,-134.583 -301.102,-278.753 -330.854,-389.881 -12.0402,-44.9741 -12.0898,-85.5615 -0.903544,-119.315 12.0449,-36.3449 36.4878,-64.2756 72.5056,-81.1619 53.2477,-24.9626 132.079,-23.8689 232.543,13.7421l-22.2496 59.7497z"/>
  <path class="fil2" d="M666.797 343.596c47.1449,0 89.9032,19.2142 120.92,50.2807 30.9484,30.9969 50.0906,73.7646 50.0906,120.951 0,47.1863 -19.1421,89.9528 -50.0906,120.95 -31.017,31.0666 -73.7753,50.2807 -120.92,50.2807 -47.1461,0 -89.9044,-19.2154 -120.92,-50.2807 -30.9484,-30.9969 -50.0906,-73.7634 -50.0906,-120.95 0,-47.1863 19.1421,-89.954 50.0906,-120.951 31.0158,-31.0654 73.7741,-50.2807 120.92,-50.2807zm75.6697 95.2808c-19.2945,-19.3252 -46.0429,-31.2792 -75.6697,-31.2792 -29.6268,0 -56.3752,11.9539 -75.6697,31.2792 -19.363,19.3925 -31.3394,46.2437 -31.3394,75.9508 0,29.7071 11.9764,56.5571 31.3394,75.9497 19.2945,19.3252 46.0429,31.2792 75.6697,31.2792 29.6268,0 56.3752,-11.9539 75.6697,-31.2792 19.363,-19.3925 31.3394,-46.2426 31.3394,-75.9497 0,-29.7071 -11.9764,-56.5583 -31.3394,-75.9508z"/>
  <ellipse class="fil3" cx="1334.6" cy="514.827" rx="55.9078" ry="55.9967"/>
  <path class="fil2" d="M697.47 1451.43c0,-74.5064 37.7079,-147.177 98.6079,-200.123 57.2233,-49.7481 135.21,-82.2969 221.434,-82.2969 87.3083,0 166.708,28.5036 224.499,74.5855 59.8583,47.7307 96.8835,114.224 96.8835,188.166 0,11.478 -0.998032,23.2547 -2.97638,35.2465 -1.92402,11.6504 -4.80709,23.2134 -8.63505,34.604l-60.5008 -20.2512c2.71654,-8.08465 4.76575,-16.3063 6.13583,-24.6024 1.31221,-7.95591 1.9748,-16.3075 1.9748,-24.9969 0,-53.4993 -27.7583,-102.383 -72.6331,-138.165 -46.9429,-37.4315 -112.236,-60.5847 -184.748,-60.5847 -70.1504,0 -133.415,26.3197 -179.685,66.5457 -47.1567,40.9973 -76.356,96.1902 -76.356,151.872l-64.0016 0z"/>
  <path class="fil2" d="M1272.06 872.09c14.9799,-9.32009 19.5697,-29.0209 10.2496,-44.0008 -9.32009,-14.9799 -29.0209,-19.5697 -44.0008,-10.2496 -27.6437,17.2973 -60.2989,30.8268 -95.8902,40.0512 -35.9693,9.32127 -75.1973,14.2547 -115.583,14.2547 -40.3866,0 -79.6146,-4.93347 -115.584,-14.2547 -35.5902,-9.22442 -68.2465,-22.754 -95.8891,-40.0512 -14.9799,-9.32009 -34.6807,-4.73032 -44.0008,10.2496 -9.32009,14.9799 -4.73032,34.6807 10.2496,44.0008 32.915,20.5961 71.6138,36.6579 113.641,47.5512 41.6504,10.7941 86.3221,16.5059 131.583,16.5059 45.2611,0 89.9316,-5.71182 131.582,-16.5059 42.0284,-10.8933 80.726,-26.9551 113.642,-47.5512z"/>
  <path class="fil2" d="M849.751 776.893c8.35276,-15.5327 2.53229,-34.8981 -13.0004,-43.2508 -15.5327,-8.35276 -34.8981,-2.53229 -43.2508,13.0004l-86.1261 159.859c-8.35276,15.5327 -2.53229,34.8981 13.0004,43.2508 15.5327,8.35276 34.8981,2.53229 43.2508,-13.0004l86.1261 -159.859z"/>
  <path class="fil2" d="M701.265 1476.02c-70.4965,3.10158 -126.059,8.93032 -161.065,17.1154 5.98937,2.31851 12.8976,4.78583 20.7614,7.40316l57.0745 18.9992 -47.7 36.626c-40.9914,31.474 -61.5851,53.4508 -67.5237,67.7504 3.63544,1.19528 8.94568,2.06103 15.5799,2.6126 44.9552,3.73819 118.746,-14.2547 175.605,-46.1079l43.8898 -24.5882 3.61063 50.2134c0.863386,12.0095 2.20158,21.0815 3.88229,27.4406 16.4728,-20.5158 33.1193,-63.5611 42.5233,-126.416l63.2504 9.2504c-11.8606,79.2757 -36.4217,135.68 -61.0961,162.945 -11.8099,13.0465 -24.7264,21.1406 -37.95,23.9433 -17.7874,3.77008 -34.0406,-1.00866 -47.6292,-14.8276 -7.54016,-7.6689 -13.9016,-18.6508 -18.5988,-33.0083 -59.8229,25.3878 -127.416,38.674 -172.739,34.9063 -22.148,-1.84016 -40.9111,-7.7941 -54.1725,-18.3567 -18.3768,-14.6339 -25.9819,-34.7055 -19.1327,-60.6804 5.113,-19.389 20.8996,-43.0512 50.6268,-71.1249 -10.8532,-5.87363 -19.0311,-11.7543 -24.6862,-17.6091 -17.3528,-17.9646 -19.4728,-36.5433 -7.74449,-55.467 7.05119,-11.3835 19.8213,-20.4343 37.7008,-27.2126 36.7937,-13.9488 108.319,-23.4024 202.782,-27.5587l2.74961 63.7512z"/>
  <path class="fil2" d="M1397.95 1412.27c94.4635,4.1563 165.989,13.6099 202.782,27.5587 17.8795,6.77835 30.6496,15.8291 37.7008,27.2126 11.7284,18.9236 9.60828,37.5024 -7.74449,55.467 -5.65512,5.85473 -13.8331,11.7354 -24.6862,17.6091 29.7272,28.0736 45.5138,51.7359 50.6268,71.1249 6.84922,25.9748 -0.755906,46.0465 -19.1327,60.6804 -13.2614,10.5626 -32.0244,16.5165 -54.1725,18.3567 -45.3225,3.76772 -112.916,-9.51851 -172.739,-34.9063 -4.69725,14.3575 -11.0587,25.3394 -18.5988,33.0083 -13.5886,13.8189 -29.8418,18.5977 -47.6292,14.8276 -13.2236,-2.80276 -26.1402,-10.8969 -37.95,-23.9433 -24.6744,-27.2646 -49.2355,-83.6694 -61.0961,-162.945l63.2504 -9.2504c9.40394,62.8548 26.0504,105.9 42.5233,126.416 1.68071,-6.35906 3.0189,-15.4311 3.88229,-27.4406l3.61063 -50.2134 43.8898 24.5882c56.8595,31.8532 130.65,49.8461 175.605,46.1079 6.63426,-0.551575 11.9445,-1.41732 15.5799,-2.6126 -5.93859,-14.2996 -26.5323,-36.2764 -67.5237,-67.7504l-47.7 -36.626 57.0745 -18.9992c7.86379,-2.61732 14.7721,-5.08465 20.7614,-7.40316 -35.0055,-8.18505 -90.5682,-14.0138 -161.065,-17.1154l2.74961 -63.7512z"/>
  <path class="fil1" d="M1274.89 1431.77c0,-53.4993 -27.7583,-102.383 -72.6331,-138.165 -46.9429,-37.4315 -112.236,-60.5847 -184.748,-60.5847 -70.1504,0 -133.415,26.3197 -179.685,66.5457 -47.1567,40.9973 -76.356,96.1902 -76.356,151.872l-1.7374 0c31.0028,20.5831 64.2473,32.4047 98.7166,32.4047 4.34055,0 1.57205,0.122835 3.63307,0.0732284l345.307 -8.26418c22.7575,-0.544489 44.5311,-6.38859 65.1308,-16.5874 0.138189,-0.765355 0.270473,-1.53071 0.396851,-2.29725 1.31221,-7.95591 1.9748,-16.3075 1.9748,-24.9969z"/>
  <path class="fil0" d="M1539.24 1011.88c0,76.1339 -13.8319,158.602 -39.2634,234.953 124.872,-104.189 196.553,-204.861 219.992,-282.454 9.07087,-30.0307 10.4646,-55.3276 4.48819,-74.5146 -5.03859,-16.1788 -16.0583,-28.3618 -32.7898,-35.4036 -34.3618,-14.4626 -90.4678,-10.5012 -167.557,18.2351 9.88465,44.6303 15.1299,91.2532 15.1299,139.184z"/>
  <path class="fil0" d="M495.786 1011.88c0,-59.2205 8.06694,-116.564 23.0433,-170.718 -69.026,-21.7158 -121.106,-21.8835 -155.025,-5.98229 -19.2437,9.02127 -32.3091,23.9622 -38.7544,43.4115 -7.30394,22.0394 -6.83386,50.1815 1.90276,82.8142 21.4406,80.0812 90.0721,181.192 212.473,283.484 -26.1638,-71.4426 -41.6481,-147.906 -43.3642,-219.653 -0.183071,-7.71497 -0.276378,-12.1925 -0.276378,-13.3559z"/>
  <path class="fil0" d="M1334.6 458.83c30.8776,0 55.9087,25.0701 55.9087,55.9961 0,30.926 -25.0311,55.9973 -55.9087,55.9973 -30.8764,0 -55.9075,-25.0713 -55.9075,-55.9973 0,-30.926 25.0311,-55.9961 55.9075,-55.9961zm-107.007 55.9973c0,29.7071 11.9764,56.5571 31.3394,75.9497 19.2933,19.3252 46.0429,31.2792 75.6686,31.2792 29.6268,0 56.3752,-11.9539 75.6697,-31.2792 19.363,-19.3925 31.3394,-46.2426 31.3394,-75.9497 0,-29.7071 -11.9764,-56.5583 -31.3394,-75.9508 -19.2945,-19.3252 -46.0429,-31.2792 -75.6697,-31.2792 -29.6256,0 -56.3752,11.9539 -75.6686,31.2792 -19.363,19.3925 -31.3394,46.2437 -31.3394,75.9508z"/>
  <path class="fil0" d="M688.137 1476.63c-64.2792,3.22677 -115.134,8.82757 -147.937,16.4977 5.98937,2.31851 12.8976,4.78583 20.7614,7.40316l57.0745 18.9992 -47.7 36.626c-40.9914,31.474 -61.5851,53.4508 -67.5237,67.7504 3.63544,1.19528 8.94568,2.06103 15.5799,2.6126 44.9552,3.73819 118.746,-14.2547 175.605,-46.1079l43.8898 -24.5882 3.61063 50.2134c0.863386,12.0095 2.20158,21.0815 3.88229,27.4406 13.9547,-17.3788 28.0335,-50.9256 37.7292,-98.9859 -33.8221,-12.1217 -65.6729,-32.0422 -94.9725,-57.8611z"/>
  <path class="fil0" d="M1309.31 1511.94c9.52205,60.2091 25.7303,101.561 41.7733,121.541 1.68071,-6.35906 3.0189,-15.4311 3.88229,-27.4406l3.61063 -50.2134 43.8898 24.5882c56.8595,31.8532 130.65,49.8461 175.605,46.1079 6.63426,-0.551575 11.9445,-1.41732 15.5799,-2.6126 -5.93859,-14.2996 -26.5323,-36.2764 -67.5237,-67.7504l-47.7 -36.626 57.0745 -18.9992c7.86379,-2.61732 14.7721,-5.08465 20.7614,-7.40316 -35.0055,-8.18505 -90.5682,-14.0138 -161.065,-17.1154l1.60748 -37.2603c-21.091,24.75 -44.2642,45.887 -69.3438,62.3126 -0.0602363,0.183071 -0.121654,0.364961 -0.183071,0.548032l-0.433465 -0.145276c-5.74607,3.74055 -11.5925,7.23426 -17.5358,10.4681z"/>
 </g>
 <rect class="fil4" width="2048" height="2048"/>
</svg>
