<?xml version="1.0" encoding="UTF-8"?>
<!DOCTYPE svg PUBLIC "-//W3C//DTD SVG 1.1//EN" "http://www.w3.org/Graphics/SVG/1.1/DTD/svg11.dtd">
<!-- Creator: CorelDRAW -->
<svg xmlns="http://www.w3.org/2000/svg" xml:space="preserve" width="2048px" height="2048px" style="shape-rendering:geometricPrecision; text-rendering:geometricPrecision; image-rendering:optimizeQuality; fill-rule:evenodd; clip-rule:evenodd"
viewBox="0 0 2048 2048"
 xmlns:xlink="http://www.w3.org/1999/xlink">
 <defs>
  <style type="text/css">
   <![CDATA[
    .fil3 {fill:none}
    .fil1 {fill:#B38E85}
    .fil2 {fill:#EBE5DF}
    .fil0 {fill:#212121;fill-rule:nonzero}
   ]]>
  </style>
 </defs>
 <g id="Layer_x0020_1">
  <metadata id="CorelCorpID_0Corel-Layer"/>
  <g id="_539990208">
   <path id="_539990496" class="fil0" d="M1673.31 951.561c2.52166,-3.64961 5.1437,-7.42205 7.76103,-11.185 14.1047,-20.2866 28.024,-40.3051 36.8859,-58.317 16.0547,-32.6292 13.8709,-64.2367 -48.443,-94.8981 -104.702,-51.5233 -280.532,98.2902 -446.594,239.782 -22.3347,19.0311 -44.5122,37.9252 -71.6729,60.5599l0.0862205 0.103937c-12.3685,10.3075 -30.2185,9.7004 -41.8512,-0.755906 -198.813,-149.016 -358.562,-223.658 -487.719,-223.719 -122.521,-0.0555119 -219.704,69.8197 -299.447,209.786 -4.77402,43.8603 -2.3811,77.1272 7.0819,99.9001 4.29803,10.3429 10.1067,18.2374 17.4095,23.6894 7.40434,5.52874 16.9193,8.9941 28.5189,10.3996 27.8894,3.3815 65.6115,-4.39252 113.02,-23.198 46.5591,-71.6127 93.7241,-121.12 141.644,-142.83 56.9516,-25.8012 112.025,-15.1146 164.814,39.8162l-0.0011811 0.0011811 0.011811 0.011811 0.0625985 -0.0602363c0.448819,0.467717 0.878741,0.947245 1.29449,1.43386 46.1433,46.552 97.754,85.1918 154.426,116.497 56.3634,31.1339 117.854,55.0371 184.062,72.2741 81.2197,-2.05984 152.806,-69.6178 227.6,-140.202 89.0091,-83.9977 182.095,-171.826 311.052,-179.091zm60.2611 25.3158c-5.05985,7.27914 -10.1469,14.5937 -16.1315,23.5606 -5.70119,8.80276 -15.6083,14.628 -26.876,14.628 -112.799,0 -200.68,82.9335 -284.555,162.086 -85.1635,80.3694 -166.635,157.241 -274.114,157.74 -2.95158,0.0944883 -5.96457,-0.217323 -8.9693,-0.98504l0.00354331 -0.0141732c-72.802,-18.6047 -140.643,-44.8205 -203.084,-79.3123 -61.9182,-34.2024 -118.41,-76.5296 -169.041,-127.613 -0.713386,-0.62126 -1.40551,-1.27677 -2.07402,-1.97244l0.0614174 -0.0590552c-31.2355,-32.4969 -62.0646,-39.6177 -92.5513,-25.8059 -37.4174,16.9524 -77.1768,61.0052 -118.773,126.417 -3.39331,5.85119 -8.66103,10.6795 -15.3898,13.4764l-12.2799 -29.55 12.2504 29.5004c-62.139,25.8225 -113.608,36.3591 -154.223,31.4351 -23.0043,-2.78858 -42.7713,-10.3299 -59.2701,-22.65 -16.6039,-12.3969 -29.3351,-29.204 -38.1591,-50.439 -14.0953,-33.9236 -17.8276,-79.4257 -11.0457,-136.611 0.324803,-4.53307 1.62402,-9.06851 3.98859,-13.298l0.0921261 0.0519685c92.5465,-165.525 208.691,-248.151 358.331,-248.081 139.515,0.0637796 305.927,74.4733 507.892,223.041 15.8799,-13.4043 33.7677,-28.6441 51.7654,-43.9796 181.628,-154.754 373.936,-318.609 516.343,-248.531 108.867,53.5678 109.593,115.06 77.4438,180.398 -11.2488,22.8638 -26.3421,44.5725 -41.6363,66.5682z"/>
   <path id="_539990376" class="fil0" d="M1722.47 948.929c-24.9768,0 -47.5937,-10.1291 -63.9662,-26.4992 -16.3701,-16.3725 -26.4992,-38.9894 -26.4992,-63.9662 0,-24.9768 10.1291,-47.5937 26.4992,-63.9662 16.3725,-16.3725 38.9894,-26.4992 63.9662,-26.4992 5.72835,0 11.7827,0.650788 18.0591,1.92992 6.02599,1.22835 11.8358,3.02481 17.3339,5.36457l-24.9992 58.7504c-1.73858,-0.739371 -3.4441,-1.2815 -5.08583,-1.61575 -1.39016,-0.283465 -3.16772,-0.427559 -5.30788,-0.427559 -7.31103,0 -13.9288,2.96103 -18.7158,7.74804 -4.78583,4.78583 -7.74804,11.4047 -7.74804,18.7158 0,7.31103 2.96221,13.9299 7.74804,18.7158 4.78583,4.78583 11.4047,7.74804 18.7158,7.74804l0 64.0016z"/>
  </g>
  <path class="fil1" d="M1109.48 1086.85c-198.813,-149.016 -358.562,-223.658 -487.719,-223.719 -122.521,-0.0555119 -219.704,69.8197 -299.447,209.786 -4.77402,43.8603 -2.3811,77.1272 7.0819,99.9001 8.74843,21.0532 23.2122,31.3359 45.9284,34.089 27.8894,3.3815 65.6115,-4.39252 113.02,-23.198 46.5591,-71.6127 93.7241,-121.12 141.644,-142.83 56.9516,-25.8012 112.025,-15.1146 164.812,39.8174l0.011811 0.011811 0.0625985 -0.0602363c0.448819,0.467717 0.878741,0.947245 1.29449,1.43386 46.1433,46.552 97.754,85.1918 154.426,116.497 56.3634,31.1339 117.854,55.0371 184.062,72.2741 81.2197,-2.05984 152.806,-69.6178 227.6,-140.202 89.0091,-83.9977 182.095,-171.826 311.052,-179.091 2.76732,-4.00512 5.62678,-8.10355 8.51694,-12.2563 -8.66575,-4.36536 -16.5331,-10.0831 -23.3256,-16.8744 -16.3701,-16.3725 -26.4992,-38.9894 -26.4992,-63.9662 0,-24.9768 10.1291,-47.5937 26.4992,-63.9662 2.91969,-2.91969 6.03898,-5.64213 9.33426,-8.14253 -104.896,-49.1233 -279.737,99.8493 -444.916,240.587 -22.3347,19.0311 -44.5122,37.9252 -71.6729,60.5599l0.0862205 0.103937c-12.3685,10.3075 -30.2185,9.7004 -41.8512,-0.755906z"/>
  <path class="fil2" d="M1703.75 839.748c-4.78583,4.78583 -7.74804,11.4047 -7.74804,18.7158 0,7.31103 2.96221,13.9299 7.74804,18.7158 3.51733,3.51733 8.02442,6.04961 13.0689,7.14449 0.388583,-0.760631 0.767717,-1.51536 1.13622,-2.26536 8.34449,-16.9583 11.7614,-33.6414 4.37126,-50.0587 -7.25552,0.0377953 -13.8201,2.99173 -18.5764,7.74804z"/>
 </g>
 <rect class="fil3" width="2048" height="2048"/>
</svg>
