<?xml version="1.0" encoding="UTF-8"?>
<!DOCTYPE svg PUBLIC "-//W3C//DTD SVG 1.1//EN" "http://www.w3.org/Graphics/SVG/1.1/DTD/svg11.dtd">
<!-- Creator: CorelDRAW -->
<svg xmlns="http://www.w3.org/2000/svg" xml:space="preserve" width="2048px" height="2048px" style="shape-rendering:geometricPrecision; text-rendering:geometricPrecision; image-rendering:optimizeQuality; fill-rule:evenodd; clip-rule:evenodd"
viewBox="0 0 2048 2048"
 xmlns:xlink="http://www.w3.org/1999/xlink">
 <defs>
  <style type="text/css">
   <![CDATA[
    .fil2 {fill:none}
    .fil1 {fill:#FECA5F}
    .fil0 {fill:#212121;fill-rule:nonzero}
   ]]>
  </style>
 </defs>
 <g id="Layer_x0020_1">
  <metadata id="CorelCorpID_0Corel-Layer"/>
  <path class="fil0" d="M601.838 826.036c-95.3812,10.2165 -154.162,23.8973 -186.438,56.0918 -29.2725,29.1957 -40.4398,78.528 -41.8654,160.246 7.35591,-6.66024 15.7689,-12.2917 25.0252,-16.6488l-0.022441 -0.0484252c12.5705,-5.93386 26.1567,-9.12638 39.8941,-9.57166 13.7244,-0.444095 27.4689,1.86024 40.363,6.91536 36.9815,14.5654 72.1619,28.9205 108.15,43.604 228.256,93.1312 488.741,199.407 720.488,175.236 -19.4575,-30.9024 -36.7807,-51.1985 -48.9863,-65.4969 -17.7414,-20.7827 -28.2603,-33.1087 -27.0366,-53.2583 1.81536,-29.8394 24.1193,-40.1504 78.9024,-65.4756l5.50748 -2.54646c-79.7859,-73.2709 -187.428,-132.423 -302.909,-172.844 -137.876,-48.2599 -286.135,-69.5682 -411.072,-56.2028zm-231.438 10.8413c44.9221,-44.8087 114.69,-62.5607 224.687,-74.3422 134.146,-14.3516 292.387,8.19686 438.824,59.4532 140.731,49.2579 271.298,125.265 360.167,220.846l29.5122 31.741 -39.137 18.7595c-22.7126,10.8862 -36.0839,17.0669 -47.3906,22.2933 -30.1406,13.9335 -41.3918,2.85118 -41.9008,11.2276 -0.328347,5.413 4.59449,-0.416929 11.7862,8.00788 18.5315,21.7099 47.7579,55.9477 79.7044,117.145l19.9949 38.3032 -42.4949 7.82127c-261.209,48.0685 -550.099,-69.8032 -801.207,-172.258 -37.6654,-15.3673 -74.4945,-30.3945 -107.401,-43.3559 -4.94292,-1.93701 -10.089,-2.8252 -15.111,-2.66339 -4.95591,0.16063 -9.94253,1.35236 -14.6445,3.57166l-0.125197 0c-4.16457,1.95473 -7.9382,4.71378 -11.1591,8.09528 -3.2315,3.39331 -5.81457,7.33347 -7.58623,11.635 -5.0067,12.1347 -14.0173,19.5036 -25.5591,22.7303 -8.98583,2.51457 -18.6969,1.75394 -28.0146,-1.72677 -6.58229,-2.45906 -13.1953,-6.34016 -19.0311,-11.2795 -13.4882,-11.4142 -24.9414,-29.9221 -24.9414,-51.4323 0,-111.076 15.3118,-178.973 61.0288,-224.573z"/>
  <path class="fil0" d="M997.124 821.153c-15.1866,8.97402 -20.224,28.5626 -11.25,43.7492 8.97402,15.1866 28.5626,20.224 43.7492,11.25l319.275 -189.504 114.816 460.848 31.0004 -7.6252 -31.0512 7.73623c3.92953,15.7748 18.9402,25.8697 34.6677,24.0614l54.3355 -1.54252c17.6043,-0.483071 31.4835,-15.1465 31.0004,-32.7508 -0.483071,-17.6043 -15.1465,-31.4835 -32.7508,-31.0004l-31.4244 0.891733 -118.462 -475.48c-0.647245,-3.7252 -1.9689,-7.39843 -4.01339,-10.8425 -9.02009,-15.1973 -28.6547,-20.2051 -43.852,-11.185l0.0307087 0.0507874 -356.071 211.344z"/>
  <path class="fil0" d="M1257.08 950.152c-14.6351,9.87166 -18.4973,29.7402 -8.6256,44.3752 9.87166,14.6351 29.7402,18.4973 44.3752,8.6256l274.773 -185.092 100.227 456.559 31.2496 -6.75001 -31.2555 6.86103c3.55512,16.1988 18.802,26.8122 34.9311,24.9284l47.6174 -1.53425c17.6043,-0.551575 31.4268,-15.2717 30.8752,-32.876 -0.551575,-17.6043 -15.2717,-31.4268 -32.876,-30.8752l-23.7461 0.765355 -104.321 -475.207c-0.735827,-4.35709 -2.38819,-8.6315 -5.01733,-12.5339 -9.87284,-14.6575 -29.7614,-18.5351 -44.4189,-8.66221l17.8784 26.5406 -17.8748 -26.5004 -313.792 211.376z"/>
  <path class="fil0" d="M823.452 1172.94c-4.83189,-16.9819 -22.5177,-26.8323 -39.4996,-22.0004 -16.9819,4.83189 -26.8323,22.5177 -22.0004,39.4996l26.811 93.4087 -31.0146 212.925c-2.48504,17.465 9.66024,33.6402 27.1252,36.1252 17.465,2.48504 33.6402,-9.66024 36.1252,-27.1252l31.7008 -217.636c1.03819,-4.93819 0.921261,-10.1953 -0.568111,-15.3839l-0.0283465 0.00826772 -28.6512 -99.8209z"/>
  <path class="fil0" d="M638.539 1141.29c15.0496,-9.18072 19.8059,-28.826 10.6252,-43.8756 -9.18072,-15.0496 -28.826,-19.8059 -43.8756,-10.6252l-184.54 112.621 16.6252 27.2504 -16.6701 -27.3154c-11.8819,7.25079 -17.3599,21.0095 -14.6516,33.8977l31.6973 217.608c2.48504,17.465 18.6603,29.6103 36.1252,27.1252 17.465,-2.48504 29.6103,-18.6603 27.1252,-36.1252l-28.9784 -198.938 166.518 -101.622z"/>
  <path class="fil0" d="M379.205 846.949c1.44921,17.6043 16.8969,30.6992 34.5012,29.25 17.6043,-1.44921 30.6992,-16.8969 29.25,-34.5012 -6.54449,-79.0666 4.29567,-131.316 30.9756,-166.423 26.4898,-34.8567 71.0103,-55.6217 131.316,-70.9985 17.1201,-4.34882 27.4736,-21.7559 23.1248,-38.876 -4.34882,-17.1201 -21.7559,-27.4736 -38.876,-23.1248 -73.6654,18.7843 -129.532,46.0973 -166.315,94.5001 -36.5906,48.1489 -51.9095,114.345 -43.9772,210.174z"/>
  <path class="fil0" d="M317.276 885.334c8.42245,15.4642 27.7866,21.1725 43.2508,12.75 15.4642,-8.42245 21.1725,-27.7866 12.75,-43.2508 -38.0339,-69.456 -49.3004,-121.654 -39.137,-164.783 10.089,-42.8174 42.2681,-79.8827 90.9827,-118.324 13.8071,-10.9075 16.1575,-30.9437 5.25,-44.7508 -10.9075,-13.8071 -30.9437,-16.1575 -44.7508,-5.25 -59.8205,47.2052 -99.8375,94.8591 -113.733,153.826 -13.8213,58.6536 -0.868111,125.313 45.3874,209.783z"/>
  <path class="fil1" d="M415.4 882.128c-29.2725,29.1957 -40.4398,78.528 -41.8654,160.246 7.35591,-6.66024 15.7689,-12.2917 25.0252,-16.6488l-0.022441 -0.0484252c12.5705,-5.93386 26.1567,-9.12638 39.8941,-9.57166 13.7244,-0.444095 27.4689,1.86024 40.363,6.91536 36.9815,14.5654 72.1619,28.9205 108.15,43.604 12.7406,5.19804 25.5815,10.4374 38.5122,15.6921 5.78977,0.650788 11.3646,2.87599 16.0441,6.50906 214.593,86.8761 452.455,175.301 665.932,153.034 -19.4575,-30.9024 -36.7807,-51.1985 -48.9863,-65.4969 -17.7414,-20.7827 -28.2603,-33.1087 -27.0366,-53.2583 1.81536,-29.8394 24.1193,-40.1504 78.9024,-65.4756l5.50748 -2.54646c-79.7859,-73.2709 -187.428,-132.423 -302.909,-172.844 -2.78032,-0.973229 -5.56418,-1.93465 -8.35276,-2.88662 -0.986221,-0.282284 -1.95827,-0.612993 -2.91378,-0.988583 -134.653,-45.5174 -278.266,-65.3292 -399.806,-52.3276 -81.6036,8.74135 -136.417,20.0173 -170.763,43.2544 -1.06299,0.852757 -2.1815,1.63937 -3.35197,2.35394 -4.4752,3.26103 -8.57835,6.74764 -12.3236,10.4835z"/>
 </g>
 <rect class="fil2" width="2048" height="2048"/>
</svg>
