<?xml version="1.0" encoding="UTF-8"?>
<!DOCTYPE svg PUBLIC "-//W3C//DTD SVG 1.1//EN" "http://www.w3.org/Graphics/SVG/1.1/DTD/svg11.dtd">
<!-- Creator: CorelDRAW -->
<svg xmlns="http://www.w3.org/2000/svg" xml:space="preserve" width="2048px" height="2048px" style="shape-rendering:geometricPrecision; text-rendering:geometricPrecision; image-rendering:optimizeQuality; fill-rule:evenodd; clip-rule:evenodd"
viewBox="0 0 2048 2048"
 xmlns:xlink="http://www.w3.org/1999/xlink">
 <defs>
  <style type="text/css">
   <![CDATA[
    .fil4 {fill:none}
    .fil1 {fill:#EBE5DF}
    .fil3 {fill:#F45A52}
    .fil2 {fill:#FECA5F}
    .fil0 {fill:#212121;fill-rule:nonzero}
   ]]>
  </style>
 </defs>
 <g id="Layer_x0020_1">
  <metadata id="CorelCorpID_0Corel-Layer"/>
  <g id="_539992488">
   <path id="_539993592" class="fil0" d="M989.521 534.676l79.4209 0c27.0331,0 51.587,11.0362 69.3662,28.8154 17.7791,17.7791 28.8154,42.3331 28.8154,69.3662l0 238.256c0,27.0331 -11.0362,51.587 -28.8154,69.3662 -17.7791,17.7791 -42.3331,28.8154 -69.3662,28.8154l-79.4209 0c-27.0343,0 -51.587,-11.0362 -69.365,-28.8154 -17.7791,-17.7791 -28.8154,-42.3331 -28.8154,-69.3662l0 -238.256c0,-27.0331 11.0362,-51.587 28.8154,-69.3662 17.7791,-17.7791 42.3331,-28.8154 69.365,-28.8154zm79.4209 64.0016l-79.4209 0c-9.36615,0 -17.9055,3.85512 -24.1146,10.0642 -6.20906,6.20906 -10.0642,14.7484 -10.0642,24.1158l0 238.256c0,9.36733 3.85512,17.9067 10.0642,24.1158 6.20906,6.20906 14.7484,10.0642 24.1146,10.0642l79.4209 0c9.36733,0 17.9067,-3.85512 24.1158,-10.0642 6.20906,-6.20906 10.0642,-14.7484 10.0642,-24.1158l0 -238.256c0,-9.36733 -3.85512,-17.9067 -10.0642,-24.1158 -6.20906,-6.20906 -14.7484,-10.0642 -24.1158,-10.0642z"/>
   <path id="_539993880" class="fil0" d="M1009.38 905.293l39.7099 0c36.365,0 65.1189,122.962 74.2607,267.143 2.73307,43.1209 4.47166,89.1497 4.88859,134.659 0.416929,45.45 -0.510237,89.0942 -3.10866,127.23 -6.83859,100.371 -29.5264,172.719 -76.0406,172.719l-39.7099 0c-36.365,0 -65.1189,-122.962 -74.2607,-267.143 -2.73307,-43.1209 -4.47166,-89.1497 -4.88859,-134.659 -0.416929,-45.45 0.510237,-89.0942 3.10866,-127.23 6.83859,-100.371 29.5264,-172.719 76.0406,-172.719zm39.7099 64.0016l-39.7099 0c-3.32244,0 -7.81654,47.3185 -12.2894,112.967 -2.57126,37.7457 -3.50079,79.676 -3.10866,122.479 0.392126,42.7429 2.13071,87.6591 4.88859,131.16 7.0878,111.796 8.8441,207.141 10.5095,207.141l39.7099 0c3.32244,0 7.81654,-47.3185 12.2894,-112.967 2.57126,-37.7457 3.50079,-79.676 3.10866,-122.479 -0.392126,-42.7429 -2.13071,-87.6591 -4.88859,-131.16 -7.0878,-111.796 -8.8441,-207.141 -10.5095,-207.141z"/>
   <path id="_539993832" class="fil0" d="M1126.87 601.985l474.368 -127.107 9.75001 -1.00039c80.328,4.04882 134.213,37.9961 161.046,81.9012 12.8693,21.0579 19.4811,44.4402 19.8284,68.1449 0.343701,23.4543 -5.53111,46.9843 -17.6244,68.6115 -25.8319,46.1977 -79.9843,83.706 -161.875,91.2013l-4.87441 0.125197 -474.368 -30.0024 3.99922 -63.7512 472.194 29.8654c56.8288,-5.82993 93.039,-29.5843 109.173,-58.4374 6.59764,-11.7992 9.80552,-24.4358 9.62363,-36.8611 -0.178347,-12.1748 -3.70512,-24.4004 -10.578,-35.6457 -16.1965,-26.5016 -50.8961,-47.3008 -104.642,-51.1016l-469.52 125.808 -16.5 -61.7504z"/>
   <path id="_539993928" class="fil0" d="M904.627 663.735l-469.52 -125.808c-53.7461,3.80079 -88.4469,24.6 -104.643,51.1016 -6.87284,11.2453 -10.3996,23.4709 -10.578,35.6457 -0.18189,12.4252 3.02599,25.0618 9.62363,36.8611 16.1339,28.8532 52.3441,52.6075 109.174,58.4374l472.194 -29.8654 3.99922 63.7512 -474.368 30.0024 -4.87441 -0.125197c-81.8918,-7.49528 -136.043,-45.0024 -161.876,-91.2013 -12.0933,-21.6272 -17.9681,-45.1571 -17.6244,-68.6115 0.347244,-23.7047 6.95906,-47.087 19.8284,-68.1449 26.8323,-43.9052 80.719,-77.8524 161.047,-81.9012l9.75001 1.00039 474.368 127.107 -16.5 61.7504z"/>
   <path id="_539993904" class="fil0" d="M1142.37 846.431l336.219 220.345c33.1205,5.59371 57.8752,-3.17481 73.3406,-19.3854 8.51812,-8.92796 14.5736,-20.2606 17.9386,-32.8063 3.53504,-13.1764 4.11851,-27.4784 1.5248,-41.6575 -5.95867,-32.5571 -28.6323,-64.7859 -70.7327,-82.689l-366.216 -71.6528 12.2504 -62.7497 369.118 72.2209 5.74961 1.74921c66.7595,26.811 102.889,78.6721 112.58,131.622 4.34528,23.7496 3.37796,47.6599 -2.52402,69.6567 -6.06969,22.6264 -17.348,43.441 -33.4394,60.3071 -30.8292,32.3126 -78.0556,49.6311 -138.49,36.8079l-10.8756 -4.5 -341.444 -223.769 35.0008 -53.4993z"/>
   <path id="_539992656" class="fil0" d="M914.468 607.836c-15.4099,-7.13268 -28.0925,-18.4878 -36.9544,-32.3563 -8.87717,-13.891 -13.8614,-30.1323 -13.8614,-47.015 0,-24.1606 9.79607,-46.037 25.6323,-61.8745 15.8374,-15.8362 37.7138,-25.6323 61.8745,-25.6323 24.1595,0 46.037,9.79607 61.8733,25.6335 15.8362,15.8351 25.6335,37.7126 25.6335,61.8733 0,6.43583 -0.774804,13.0134 -2.29725,19.6063 -1.52126,6.59882 -3.72402,12.8823 -6.56812,18.7181l-57.5008 -27.9992c0.848032,-1.73977 1.45748,-3.40866 1.81772,-4.97008 0.361418,-1.56851 0.546851,-3.36496 0.546851,-5.35512 0,-6.49252 -2.63032,-12.3721 -6.88229,-16.6228 -4.25079,-4.25197 -10.1291,-6.88229 -16.6228,-6.88229 -6.49489,0 -12.3732,2.6315 -16.624,6.88111 -4.24961,4.25079 -6.88111,10.1291 -6.88111,16.624 0,4.74449 1.29921,9.14883 3.60945,12.7654 2.32323,3.63544 5.7378,6.65552 9.95434,8.6067l-26.7496 57.9993z"/>
   <path id="_539992632" class="fil0" d="M1116.75 549.837c4.21654,-1.95118 7.63229,-4.97126 9.95552,-8.60788 2.31142,-3.61536 3.60945,-8.02205 3.60945,-12.7642 0,-6.49252 -2.63032,-12.3721 -6.88229,-16.6228 -4.25079,-4.25197 -10.1303,-6.88229 -16.624,-6.88229 -6.49371,0 -12.3721,2.63032 -16.6228,6.88229 -4.25197,4.25079 -6.88229,10.1303 -6.88229,16.6228 0,1.99016 0.185433,3.78662 0.546851,5.35512 0.360236,1.56142 0.969686,3.23032 1.81772,4.97008l-57.5008 27.9992c-2.8441,-5.83583 -5.04685,-12.1193 -6.56812,-18.7181 -1.52244,-6.59292 -2.29725,-13.1705 -2.29725,-19.6063 0,-24.1606 9.79725,-46.0382 25.6335,-61.8733 15.8362,-15.8374 37.7138,-25.6335 61.8733,-25.6335 24.1618,0 46.0394,9.79725 61.8745,25.6335 15.8362,15.8351 25.6335,37.7126 25.6335,61.8733 0,16.8827 -4.98426,33.1252 -13.8614,47.0138 -8.86182,13.8697 -21.5457,25.2248 -36.9555,32.3575l-26.7496 -57.9993z"/>
   <path id="_539992776" class="fil0" d="M951.825 899.93l-341.444 223.769 -10.8756 4.5c-60.4347,12.8232 -107.661,-4.49528 -138.49,-36.8079 -16.0914,-16.8662 -27.3697,-37.6807 -33.4394,-60.3071 -5.90197,-21.9969 -6.8693,-45.9071 -2.52402,-69.6567 9.69095,-52.95 45.8209,-104.811 112.58,-131.622l5.74961 -1.74921 369.118 -72.2209 12.2504 62.7497 -366.216 71.6528c-42.1004,17.9032 -64.7741,50.1319 -70.7327,82.689 -2.5937,14.1791 -2.01024,28.4811 1.5248,41.6575 3.36496,12.5457 9.42048,23.8784 17.9386,32.8063 15.4654,16.2106 40.2201,24.9792 73.3406,19.3854l336.219 -220.345 35.0008 53.4993z"/>
  </g>
  <path class="fil1" d="M1167.12 692.006l442.193 27.9673c56.8288,-5.82993 93.039,-29.5843 109.173,-58.4374 6.59764,-11.7992 9.80552,-24.4358 9.62363,-36.8611 -0.178347,-12.1748 -3.70512,-24.4004 -10.578,-35.6457 -16.1965,-26.5016 -50.8961,-47.3008 -104.642,-51.1016l-445.77 119.444 0 34.6347z"/>
  <path class="fil1" d="M1500.66 890.238l-333.539 -65.2595 0 37.6737 311.468 204.124c33.1205,5.59371 57.8752,-3.17481 73.3406,-19.3854 8.51812,-8.92796 14.5736,-20.2606 17.9386,-32.8063 3.53504,-13.1764 4.11851,-27.4784 1.5248,-41.6575 -5.95867,-32.5571 -28.6323,-64.7859 -70.7327,-82.689z"/>
  <path class="fil1" d="M1103.12 871.113l0 -238.256c0,-9.36733 -3.85512,-17.9067 -10.0642,-24.1158 -6.20906,-6.20906 -14.7484,-10.0642 -24.1158,-10.0642l-79.4209 0c-9.36615,0 -17.9055,3.85512 -24.1146,10.0642 -6.20906,6.20906 -10.0642,14.7484 -10.0642,24.1158l0 238.256c0,9.36733 3.85512,17.9067 10.0642,24.1158 6.20906,6.20906 14.7484,10.0642 24.1146,10.0642l19.8555 0 39.7099 0 19.8555 0c9.36733,0 17.9067,-3.85512 24.1158,-10.0642 6.20906,-6.20906 10.0642,-14.7484 10.0642,-24.1158z"/>
  <path class="fil2" d="M1059.6 1176.44c-7.0878,-111.796 -8.8441,-207.141 -10.5095,-207.141l-39.7099 0c-3.32244,0 -7.81654,47.3185 -12.2894,112.967 -2.57126,37.7457 -3.50079,79.676 -3.10866,122.479 0.392126,42.7429 2.13071,87.6591 4.88859,131.16 7.0878,111.796 8.8441,207.141 10.5095,207.141l39.7099 0c3.32244,0 7.81654,-47.3185 12.2894,-112.967 2.57126,-37.7457 3.50079,-79.676 3.10866,-122.479 -0.392126,-42.7429 -2.13071,-87.6591 -4.88859,-131.16z"/>
  <path class="fil1" d="M580.606 1066.78l310.735 -203.645 0 -38.0091 -332.807 65.1154c-42.1004,17.9032 -64.7741,50.1319 -70.7327,82.689 -2.5937,14.1791 -2.01024,28.4811 1.5248,41.6575 3.36496,12.5457 9.42048,23.8784 17.9386,32.8063 15.4654,16.2106 40.2201,24.9792 73.3406,19.3854z"/>
  <path class="fil1" d="M438.683 719.973l452.658 -28.6299 0 -31.1681 -456.234 -122.248c-53.7461,3.80079 -88.4469,24.6 -104.643,51.1016 -6.87284,11.2453 -10.3996,23.4709 -10.578,35.6457 -0.18189,12.4252 3.02599,25.0618 9.62363,36.8611 16.1339,28.8532 52.3441,52.6075 109.174,58.4374z"/>
  <path class="fil3" d="M931.263 541.23c1.91221,2.99173 4.5626,5.56654 7.79056,7.47166 10.389,-6.26103 22.0229,-10.6559 34.4256,-12.7099 0.262205,-0.744095 0.475985,-1.46811 0.637796,-2.17205 0.361418,-1.56851 0.546851,-3.36496 0.546851,-5.35512 0,-6.49252 -2.63032,-12.3721 -6.88229,-16.6228 -4.25079,-4.25197 -10.1291,-6.88229 -16.6228,-6.88229 -6.49489,0 -12.3732,2.6315 -16.624,6.88111 -4.24961,4.25079 -6.88111,10.1291 -6.88111,16.624 0,4.74449 1.29921,9.14883 3.60945,12.7654z"/>
  <path class="fil3" d="M1090.19 511.842c-4.25197,4.25079 -6.88229,10.1303 -6.88229,16.6228 0,1.99016 0.185433,3.78662 0.546851,5.35512 0.155906,0.676772 0.359055,1.37244 0.607087,2.08701 12.502,2.00079 24.2303,6.37796 34.7032,12.6473 3.11693,-1.88977 5.68229,-4.40906 7.54489,-7.3252 2.31142,-3.61536 3.60945,-8.02205 3.60945,-12.7642 0,-6.49252 -2.63032,-12.3721 -6.88229,-16.6228 -4.25079,-4.25197 -10.1303,-6.88229 -16.624,-6.88229 -6.49371,0 -12.3721,2.63032 -16.6228,6.88229z"/>
 </g>
 <rect class="fil4" width="2048" height="2048"/>
</svg>
