<?xml version="1.0" encoding="UTF-8"?>
<!DOCTYPE svg PUBLIC "-//W3C//DTD SVG 1.1//EN" "http://www.w3.org/Graphics/SVG/1.1/DTD/svg11.dtd">
<!-- Creator: CorelDRAW -->
<svg xmlns="http://www.w3.org/2000/svg" xml:space="preserve" width="2048px" height="2048px" style="shape-rendering:geometricPrecision; text-rendering:geometricPrecision; image-rendering:optimizeQuality; fill-rule:evenodd; clip-rule:evenodd"
viewBox="0 0 2048 2048"
 xmlns:xlink="http://www.w3.org/1999/xlink">
 <defs>
  <style type="text/css">
   <![CDATA[
    .fil3 {fill:none}
    .fil0 {fill:#C794BE}
    .fil2 {fill:#F39CC3}
    .fil1 {fill:#212121;fill-rule:nonzero}
   ]]>
  </style>
 </defs>
 <g id="Layer_x0020_1">
  <metadata id="CorelCorpID_0Corel-Layer"/>
  <path class="fil0" d="M1112.44 1135.45c-34.7894,-45.026 -81.2434,-84.7501 -134.418,-118.362 -101.548,-64.1859 -226.687,-105.45 -342.253,-118.758 -112.337,-12.9343 -213.898,0.35315 -272.382,44.7083 -12.6697,9.60828 -23.2299,20.7603 -31.2827,33.502l-7.37481 8.12599c-9.81024,7.67835 -0.719292,26.9977 19.141,52.3748 63.8256,81.5469 225.845,192.291 336.787,268.121 19.1138,13.0642 36.5303,24.9673 57.2847,39.4985 15.1004,8.40355 29.9646,11.2689 44.6422,9.90828 16.2721,-1.50827 33.2906,-8.14489 50.8146,-18.2799l46.1256 38.1248c-28.8709,82.2284 14.7933,171.286 82.6855,231.102 24.4701,21.5575 51.8552,39.1607 80.0103,51.2138 27.5705,11.8004 55.7209,18.3378 82.33,18.0709 51.5552,-0.517323 99.052,-28.174 126.171,-95.5524 4.12677,-44.2642 3.30709,-84.4926 -1.81299,-120.846 -5.43426,-38.5807 -15.7488,-72.6875 -30.1394,-102.521l-106.329 -220.432zm-88.1009 406.029l0 0zm14.3847 28.7693l14.1154 28.2307 -1.25079 0.589371 -12.8646 -28.8201zm-552.204 -568.192l0 0zm26.2843 58.1079l0 0zm-0.00590552 -0.011811l-11.5406 -25.8544 11.7673 25.754 -0.226772 0.100394z"/>
  <path class="fil0" d="M1427.65 1378.9c23.563,28.0736 52.9099,55.565 88.5993,82.1032 68.1898,24.8103 120.507,7.95827 155.386,-30.0414 17.9882,-19.5969 31.9252,-44.8181 41.5429,-73.0701 9.96969,-29.289 15.248,-61.4197 15.5823,-93.7442 0.934253,-90.4843 -36.0768,-182.515 -116.522,-216.043l2.3752 -59.876c19.2177,-6.23859 35.5559,-14.4862 47.6705,-25.6772 10.6973,-9.88111 18.4323,-22.6914 22.2851,-39.3248 1.8,-14.5689 5.28898,-40.6489 9.11457,-69.2339 17.8016,-133.07 43.8,-327.405 25.7717,-429.889 -5.56418,-31.637 -13.8319,-51.2528 -26.0847,-49.0985l-10.8756 0c-14.8063,-2.52402 -30.1725,-2.12008 -45.8646,0.887009 -72.1926,13.8366 -149.999,80.4024 -215.442,172.473 -67.3241,94.7198 -120.302,215.341 -140.513,333.87 -10.6004,62.1697 -12.0992,123.48 -1.76221,179.686l92.5324 225.891c12.5303,30.5894 31.0311,61.0985 56.204,91.0879z"/>
  <g id="_539994576">
   <path id="_539994816" class="fil1" d="M1482.13 1515.19c-41.6528,-30.5315 -75.9284,-62.4579 -103.482,-95.2867 -29.3563,-34.9736 -51.1654,-71.1201 -66.2056,-107.838l-93.8705 -229.158 -1.87441 -6.1252c-12.4299,-64.8532 -11.028,-134.893 0.975591,-205.295 21.8091,-127.903 78.9343,-258.005 151.514,-360.118 74.465,-104.764 166.38,-181.154 255.441,-198.223 21.3118,-4.08307 42.4866,-4.86378 63.2847,-1.96299 54.1867,-6.62245 82.6359,34.2449 94.5402,101.923 19.6335,111.607 -7.16812,311.954 -25.5213,449.141 -3.04252,22.7398 -5.82048,43.5036 -9.07324,70.1894l-0.500788 3c-6.72638,31.0004 -21.2988,55.1587 -41.8264,74.119 -4.56969,4.22008 -9.40867,8.14371 -14.4969,11.7957 69.9095,56.2193 102.429,150.808 101.474,243.3 -0.4063,39.3674 -6.78662,78.3532 -18.8327,113.743 -12.3992,36.4252 -30.8445,69.4571 -55.043,95.8205 -52.676,57.3886 -130.147,83.0209 -229.003,45.1004l-7.50001 -4.12441zm-54.4831 -136.288c23.563,28.0736 52.9099,55.565 88.5993,82.1032 68.1898,24.8103 120.507,7.95827 155.386,-30.0414 17.9882,-19.5969 31.9252,-44.8181 41.5429,-73.0701 9.96969,-29.289 15.248,-61.4197 15.5823,-93.7442 0.934253,-90.4843 -36.0768,-182.515 -116.522,-216.043l2.3752 -59.876c19.2177,-6.23859 35.5559,-14.4862 47.6705,-25.6772 10.6973,-9.88111 18.4323,-22.6914 22.2851,-39.3248 1.8,-14.5689 5.28898,-40.6489 9.11457,-69.2339 17.8016,-133.07 43.8,-327.405 25.7717,-429.889 -5.56418,-31.637 -13.8319,-51.2528 -26.0847,-49.0985l-10.8756 0c-14.8063,-2.52402 -30.1725,-2.12008 -45.8646,0.887009 -72.1926,13.8366 -149.999,80.4024 -215.442,172.473 -67.3241,94.7198 -120.302,215.341 -140.513,333.87 -10.6004,62.1697 -12.0992,123.48 -1.76221,179.686l92.5324 225.891c12.5303,30.5894 31.0311,61.0985 56.204,91.0879z"/>
   <path id="_539995272" class="fil1" d="M1250.72 1579.24c4.12677,-44.2642 3.30709,-84.4926 -1.81299,-120.846 -5.43426,-38.5807 -15.7488,-72.6875 -30.1394,-102.521l-106.329 -220.432c-34.7894,-45.026 -81.2434,-84.7501 -134.418,-118.362 -101.548,-64.1859 -226.687,-105.45 -342.253,-118.758 -112.337,-12.9343 -213.898,0.35315 -272.382,44.7083 -12.6697,9.60828 -23.2299,20.7603 -31.2827,33.502l-7.37481 8.12599c-9.81024,7.67835 -0.719292,26.9977 19.141,52.3748 63.8256,81.5469 225.845,192.291 336.787,268.121 19.1138,13.0642 36.5303,24.9673 57.2847,39.4985 15.1004,8.40355 29.9646,11.2689 44.6422,9.90828 16.2721,-1.50827 33.2906,-8.14489 50.8146,-18.2799l46.1256 38.1248c-28.8709,82.2284 14.7933,171.286 82.6855,231.102 24.4701,21.5575 51.8552,39.1607 80.0103,51.2138 27.5705,11.8004 55.7209,18.3378 82.33,18.0709 51.5552,-0.517323 99.052,-28.174 126.171,-95.5524zm61.4374 -129.595c5.96457,42.3473 6.77127,89.1131 1.61693,140.467l-1.87559 8.25001c-37.9441,98.9174 -108.878,139.399 -186.849,140.182 -35.7756,0.357874 -72.5894,-7.9878 -107.83,-23.0717 -34.6524,-14.8347 -67.9371,-36.1288 -97.2615,-61.9642 -69.4548,-61.1918 -118.048,-148.712 -113.014,-238.354 -6.15945,1.35 -12.3626,2.32914 -18.6118,2.90788 -27.7217,2.57008 -55.3406,-2.73898 -82.8119,-18.4264l-2.5004 -1.6252c-12.2528,-8.5878 -34.2496,-23.6232 -58.3642,-40.1055 -114.163,-78.0319 -280.885,-191.99 -351.038,-281.621 -42.228,-53.9575 -53.5772,-102.318 -12.6461,-138.143 11.7425,-17.4142 26.5323,-32.6776 43.9146,-45.8599 72.3379,-54.8611 190.563,-72.1477 318.131,-57.4595 124.339,14.3173 259.237,58.878 369.003,128.258 60.3248,38.1319 113.332,83.9446 153.282,136.622l3.37559 5.37402 107.59 223.047c17.2087,35.674 29.4945,76.1174 35.889,121.523z"/>
   <path id="_539994168" class="fil1" d="M1063.35 1045.43c20.4697,-36.8315 45.43,-63.9544 76.0914,-78.7371 32.2925,-15.5705 68.8855,-17.1165 110.686,-1.65591l-21.9992 60c-24.4311,-9.03662 -44.4886,-8.77324 -60.9355,-0.843308 -18.0756,8.71536 -33.952,26.7921 -48.0922,52.2355l-55.7504 -30.9992z"/>
   <path id="_539994096" class="fil1" d="M1299.12 1480.46c28.4362,6.51733 52.487,6.82914 70.9619,-0.741733 16.9736,-6.95552 30.6083,-21.6662 40.1894,-45.7748l59.2512 23.4992c-16.4988,41.5158 -42.0957,67.715 -75.1902,81.2764 -31.5922,12.9473 -68.4556,13.3913 -109.463,3.99213l14.2512 -62.2512z"/>
   <path id="_539993976" class="fil1" d="M1087.17 1011.5c8.35276,15.5327 27.7181,21.3532 43.2508,13.0004 15.5327,-8.35276 21.3532,-27.7181 13.0004,-43.2508 -27.3378,-50.5784 -61.5319,-96.2328 -99.7678,-131.224 -37.1138,-33.9662 -78.1997,-58.0028 -120.953,-67.2189 -17.2583,-3.65788 -34.2166,7.36654 -37.8744,24.6248 -3.65788,17.2583 7.36654,34.2166 24.6248,37.8744 31.2201,6.72993 62.2855,25.2544 91.2036,51.7205 32.6705,29.8984 62.3434,69.7524 86.5158,114.474z"/>
   <path id="_539994456" class="fil1" d="M1140.59 982.436c5.93623,16.637 24.2386,25.311 40.8756,19.3748 16.637,-5.93623 25.311,-24.2386 19.3748,-40.8756 -17.1106,-47.9634 -26.9126,-96.691 -27.2918,-140.907 -0.334252,-39.2044 6.68859,-74.7249 22.6063,-102.51 8.76733,-15.3248 3.45,-34.8579 -11.8748,-43.6252 -15.3248,-8.76733 -34.8579,-3.45 -43.6252,11.8748 -21.698,37.8756 -31.2874,84.4583 -30.8575,134.762 0.444095,51.8977 11.5039,107.839 30.7925,161.907z"/>
   <path id="_539994264" class="fil1" d="M1649.24 553.855l0.00590552 -0.00354331 0.0496063 0.10748c-0.800788,0.367323 -1.60984,0.696851 -2.42362,0.993308 -72.593,33.5079 -117.03,115.09 -136.888,204.259 -20.6197,92.5926 -14.7059,191.718 13.5626,255.195l-29.1248 13.0004 29.2323 -13.0181c7.18938,16.1445 -0.0696851,35.0611 -16.2142,42.2504 -16.1445,7.18938 -35.0611,-0.0696851 -42.2504,-16.2142l0.0968505 -0.0425197c-33.4217,-75.0709 -40.9937,-189.665 -17.5536,-294.921 23.7886,-106.815 79.4847,-205.638 172.562,-248.496 0.754725,-0.424016 1.53307,-0.819686 2.33386,-1.18701l0.0448819 0.0980316 0.288189 -0.132284 0.00590552 0.011811 -0.226772 0.100394 11.7673 25.754 -11.5406 -25.8544c15.9673,-7.14804 34.7398,-0.0897638 42.0225,15.8504 7.31575,16.0134 0.266929,34.9276 -15.7441,42.2457l-2.47914 -5.40945 2.47323 5.413zm-163.694 477.514l-20.2016 9.01654c7.13504,16.0335 25.9075,23.2772 41.967,16.1776 16.0843,-7.11024 23.3599,-25.9158 16.2496,-42l-38.015 16.8059zm-20.2134 8.99174l17.3977 -7.74804 -17.4189 7.70079 0.0212599 0.0472441z"/>
   <path id="_539994696" class="fil1" d="M486.527 1002.05l-0.00590552 0.00354331 -0.0496063 -0.10748c1.01929,-0.466536 2.04803,-0.875198 3.0874,-1.22717 94.102,-40.5 204.777,-15.8291 300.052,37.8945 94.0016,53.0067 174.164,135.275 207.594,210.284l-29.1248 13.0004 29.2288 -13.0264c7.1941,16.1421 -0.0602363,35.0611 -16.2024,42.2552 -16.1421,7.1941 -35.0611,-0.0602363 -42.2552,-16.2024l0.0956694 -0.0425197c-28.3158,-63.5197 -98.0268,-134.213 -180.586,-180.768 -79.6194,-44.8949 -170.032,-66.4323 -243.495,-34.8437 -0.564567,0.3 -1.13976,0.588189 -1.72795,0.857481l-0.0425197 -0.0921261 -0.290551 0.126378 -0.00590552 -0.011811 0.226772 -0.100394 -11.7673 -25.754 11.5406 25.8544c-15.9673,7.14804 -34.7398,0.0897638 -42.0225,-15.8504 -7.31575,-16.0134 -0.266929,-34.9276 15.7441,-42.2457l2.47914 5.40945 -2.47323 -5.413zm472.678 263.81l-20.2016 9.01654c7.13504,16.0335 25.9075,23.2772 41.967,16.1776 16.0843,-7.11024 23.3599,-25.9158 16.2496,-42l-38.015 16.8059zm-20.2099 9.00001l18.4878 -8.23938 -18.5126 8.18386 0.0248032 0.0555119z"/>
   <path id="_539994336" class="fil1" d="M1024.34 1541.47c-15.7394,7.86969 -22.1197,27.0107 -14.25,42.75 7.663,15.3248 26.0103,21.7748 41.4992,14.8394l-12.8646 -28.8201 14.1154 28.2307c-0.414567,0.206693 -0.831497,0.402756 -1.25079,0.589371l0.0129921 0.0295276c0.426378,-0.190158 0.849213,-0.386221 1.27205,-0.581103l0.0389764 0.0779528c0.49252,-0.246851 0.975591,-0.50315 1.45039,-0.77126 47.0741,-22.3536 75.039,-71.5548 86.8135,-124.425 11.3528,-50.9811 7.58268,-106.906 -8.74489,-144.209l0.0413386 -0.0165354 -0.00590552 -0.0141732c-0.101575,-0.245669 -0.207874,-0.488977 -0.315355,-0.731103l-0.0437008 0.0200788 0.317717 0.72756 -28.9016 12.0024 28.5839 -12.7299 -0.0106299 -0.0248032 -28.5898 12.7618 -30.0414 12.4748c-6.76536,-16.2921 0.957875,-34.9855 17.25,-41.7508 16.0465,-6.66378 34.4209,0.728741 41.4355,16.5189l0.0531496 -0.0236221c-7.18938,-16.1445 -26.1071,-23.4024 -42.2516,-16.213 -16.1445,7.18938 -23.4024,26.1071 -16.213,42.2516l29.2323 -13.0193 -29.1248 13.0004c11.4496,25.7079 13.6854,66.5705 5.07756,105.224 -7.85197,35.2607 -24.639,67.2721 -51.4276,80.3115 -1.08189,0.401575 -2.15197,0.863386 -3.20788,1.39134l0.0614174 0.121654 -0.011811 0.00590552z"/>
   <path id="_539994504" class="fil1" d="M1633.68 1339.72l0.046063 -0.0212599 0.0212599 0.0472441 -0.046063 0.0200788 0.0425197 0.0968505c-0.938977,0.416929 -1.8874,0.783071 -2.84292,1.10433 -48.0945,20.0209 -103.337,7.9193 -150.477,-18.6626 -45.8693,-25.865 -85.1753,-66.4335 -101.772,-103.678l0.0295276 -0.0129921c0.186614,0.419292 0.382677,0.836221 0.589371,1.25079l28.2307 -14.1154 -28.8201 12.8646 -0.00826772 -0.0177165 -0.126378 0.0555119c-7.19292,-16.1421 0.0625985,-35.0622 16.2047,-42.2552 16.1421,-7.19292 35.0622,0.0625985 42.2552,16.2047l-0.0968505 0.0437008c11.485,25.7563 40.3382,54.7489 74.7638,74.1603 31.5118,17.7697 66.58,26.7095 94.193,15.4878 0.614174,-0.322441 1.24134,-0.627166 1.88386,-0.912993l12.9969 29.2418 -12.8752 -29.1248 0.0106299 -0.00472441c16.0843,-7.11024 34.8898,0.165354 42,16.2496 7.09607,16.0536 -0.137008,34.8142 -16.1563,41.9575l-11.6587 -26.1189 1.04173 2.35748 10.5709 23.7827zm-226.175 -133.974l-28.8319 12.8492c-6.92245,-15.4843 -0.47126,-33.8221 14.8476,-41.4815 15.7394,-7.86969 34.8803,-1.48937 42.75,14.25l-28.7658 14.3823z"/>
  </g>
  <path class="fil2" d="M1312.44 1312.06l-93.8705 -229.158 -1.87441 -6.1252c-3.57048,-18.6284 -5.99882,-37.6831 -7.36418,-57.0532 -16.1752,-3.03189 -30.1229,-1.3311 -42.1429,4.46457 -13.4965,6.5067 -25.7658,18.2339 -37.0028,34.3477 12.5835,13.2118 24.3272,26.9398 35.1189,41.1685l3.37559 5.37402 107.59 223.047c17.2087,35.674 29.4945,76.1174 35.889,121.523 1.55315,11.0268 2.7567,22.3536 3.59646,33.9839 21.261,3.15473 39.5729,2.13543 54.3272,-3.91063 13.4669,-5.51811 24.8327,-15.9189 33.7394,-32.0221 -8.94686,-9.18662 -17.3339,-18.4571 -25.1764,-27.8008 -29.3563,-34.9736 -51.1654,-71.1201 -66.2056,-107.838z"/>
 </g>
 <rect class="fil3" width="2048" height="2048"/>
</svg>
