<?xml version="1.0" encoding="UTF-8"?>
<!DOCTYPE svg PUBLIC "-//W3C//DTD SVG 1.1//EN" "http://www.w3.org/Graphics/SVG/1.1/DTD/svg11.dtd">
<!-- Creator: CorelDRAW -->
<svg xmlns="http://www.w3.org/2000/svg" xml:space="preserve" width="2048px" height="2048px" style="shape-rendering:geometricPrecision; text-rendering:geometricPrecision; image-rendering:optimizeQuality; fill-rule:evenodd; clip-rule:evenodd"
viewBox="0 0 2048 2048"
 xmlns:xlink="http://www.w3.org/1999/xlink">
 <defs>
  <style type="text/css">
   <![CDATA[
    .fil4 {fill:none}
    .fil2 {fill:#212121}
    .fil0 {fill:#FECA5F}
    .fil3 {fill:#FFD3B3}
    .fil1 {fill:#212121;fill-rule:nonzero}
   ]]>
  </style>
 </defs>
 <g id="Layer_x0020_1">
  <metadata id="CorelCorpID_0Corel-Layer"/>
  <path class="fil0" d="M1343.18 741.837c48.7158,22.0004 88.8934,62.5749 108.979,116.497 14.4236,38.7237 11.6787,79.604 -4.41969,114.389 -16.0748,34.7351 -45.4725,63.4678 -84.3745,77.9575 -38.9091,14.4921 -79.9134,12.0071 -114.751,-3.72638 -34.0488,-15.3768 -62.2902,-43.4162 -77.0705,-80.6446 -0.990946,-2.00551 -1.77638,-4.13032 -2.33268,-6.34725 -7.42678,-22.5331 -5.48741,-46.017 3.81496,-66.1182 9.28347,-20.0587 25.9063,-36.815 47.8607,-45.9426 2.07047,-1.0441 4.27087,-1.86969 6.57166,-2.44725 22.5803,-7.46339 46.0914,-5.67874 66.1926,3.4004 21.2126,9.57875 38.7201,27.2823 47.4933,50.8323 6.14292,16.4988 -2.25118,34.8567 -18.75,40.9996 -16.4988,6.14292 -34.8567,-2.25118 -40.9996,-18.75 -2.54055,-6.82205 -7.70434,-11.9917 -13.9949,-14.8323 -6.41575,-2.89843 -13.924,-3.37205 -20.9953,-0.739371l0.0425197 0.113386c-0.597638,0.222047 -1.19646,0.425197 -1.79882,0.609449 -6.21378,2.80866 -10.9335,7.69489 -13.6228,13.5059 -2.9126,6.2941 -3.44173,13.6063 -0.89882,20.439l0.113386 -0.0425197c0.279921,0.751182 0.530315,1.50709 0.750001,2.26536 8.45906,20.9067 24.5126,36.7051 43.8756,45.4489 20.1685,9.10867 43.8485,10.5709 66.2504,2.22638 22.4067,-8.34568 39.3508,-24.9177 48.6248,-44.9575 9.25158,-19.9902 10.8721,-43.3677 2.66929,-65.3894 -13.8543,-37.1953 -41.687,-65.2359 -75.4808,-80.4969 -33.9201,-15.3201 -73.7705,-17.7685 -111.5,-3.71457 -37.7351,14.0551 -66.2634,41.9516 -81.8753,75.6851 -15.5894,33.6839 -18.3024,73.1256 -4.44331,110.333 19.5106,52.3819 58.6784,91.8579 106.225,113.332 47.6729,21.5303 103.693,24.965 156.75,5.20158 53.0634,-19.7646 93.1761,-58.9855 115.126,-106.413 21.9272,-47.3776 25.7315,-102.882 6.21497,-155.278 -6.14292,-16.4988 2.25118,-34.8567 18.75,-40.9996 16.4988,-6.14292 34.8567,2.25118 40.9996,18.75 25.7374,69.0993 20.8087,142.106 -7.96536,204.278 -28.7516,62.1225 -81.3166,113.504 -150.875,139.413 -69.5634,25.9122 -142.909,21.4536 -205.251,-6.70158 -62.4697,-28.2118 -113.981,-80.2217 -139.723,-149.332 -20.0799,-53.9103 -16.2425,-110.854 6.19371,-159.332 22.4126,-48.4288 63.3945,-88.4859 117.625,-108.685 54.2363,-20.2016 111.412,-16.7303 160.001,5.21457zm-366.981 293.589c49.95,38.7225 104.615,77.9871 164.497,114.409 90.4016,54.9851 193.103,103.863 310.175,135.26 0.0779528,-0.034252 0.154725,-0.0696851 0.232677,-0.105118 -194.835,-52.35 -349.809,-152.704 -474.636,-249.355 -0.0897638,-0.0696851 -0.179528,-0.13937 -0.269292,-0.209055zm-132.059 -39.8433l0 0zm129.386 -279.013c-64.4965,57.1122 -109.165,131.922 -124.071,215.633 -3.58937,20.1543 -5.45315,40.826 -5.45315,61.8898 0,7.70552 0.0755906,-2.01732 0.140551,1.49055l0.0106299 0.708662 0.233858 14.8996c3.7252,3.09685 7.48229,6.2126 11.2665,9.34961 4.83307,3.98977 9.71221,8.01142 14.6433,12.0579 68.2004,55.9252 146.407,116.545 237.149,171.737 97.715,59.4331 209.534,112.175 338.223,145.283l20.126 -1.3748c28.0725,-11.713 54.5221,-26.0067 78.9603,-42.5374 41.217,-27.8811 76.7162,-62.126 104.64,-101.094 43.5626,-60.7937 68.791,-132.996 68.791,-210.52 0,-108.552 -49.4989,-206.659 -129.525,-277.523 -78.9745,-69.9319 -187.739,-113.19 -307.568,-113.19 -119.829,0 -228.593,43.2579 -307.568,113.19z"/>
  <path class="fil1" d="M702.353 1181.58c217.656,148.074 409.591,216.636 584.163,231.532 115.463,9.85276 223.73,-3.78071 327.107,-33.3744 -373.561,-37.6134 -624.455,-247.419 -801.545,-395.507 -111.61,-93.3308 -190.65,-159.418 -238.084,-133.983 -52.5284,42.1855 -65.1402,88.5804 -45.9685,138.319 22.4929,58.3607 83.9635,123.265 174.328,193.014zm578.912 295.283c-185.108,-15.7961 -387.433,-87.7052 -615.264,-242.771l-1.5 -1.12559c-99.9391,-76.9749 -168.885,-151.108 -195.976,-221.399 -30.2988,-78.6071 -11.9303,-150.208 67.7256,-212.977l3.50079 -2.37402c86.0198,-51.065 179.979,27.5055 313.327,139.015 194.771,162.874 482.306,403.317 925.672,385.656l14.1248 61.1256c-158.139,70.0052 -325.742,110.711 -511.61,94.8497z"/>
  <path class="fil1" d="M577.516 827.071c-22.0252,-45.9437 -49.702,-81.1867 -84.3485,-103.549 -33.9768,-21.9284 -75.756,-31.911 -126.791,-27.9295l-4.7504 -63.7512c65.5512,-5.11418 120.328,8.42717 166.042,37.9311 45.0449,29.0729 80.2087,73.1835 107.349,129.797l-57.5008 27.5008z"/>
  <path class="fil1" d="M332 567.716c26.5051,0 50.5063,10.748 67.8792,28.1209 17.3728,17.3717 28.1209,41.3729 28.1209,67.8792 0,26.5051 -10.748,50.5063 -28.1209,67.8792 -17.3728,17.3728 -41.374,28.1209 -67.8792,28.1209 -26.5063,0 -50.5075,-10.748 -67.8792,-28.1209 -17.3728,-17.3728 -28.1209,-41.374 -28.1209,-67.8792 0,-26.5063 10.748,-50.5075 28.1209,-67.8792 17.3717,-17.3728 41.3729,-28.1209 67.8792,-28.1209zm22.6288 73.3713c-5.78741,-5.78741 -13.7894,-9.36969 -22.6288,-9.36969 -8.83701,0 -16.8414,3.58111 -22.6288,9.36969 -5.78859,5.78741 -9.36969,13.7917 -9.36969,22.6288 0,8.83938 3.58229,16.8414 9.36969,22.6288 5.78741,5.78859 13.7917,9.36969 22.6288,9.36969 8.83938,0 16.8414,-3.58229 22.6288,-9.36969 5.78741,-5.78741 9.36969,-13.7894 9.36969,-22.6288 0,-8.83701 -3.58111,-16.8414 -9.36969,-22.6288z"/>
  <path class="fil1" d="M1281.09 603.38c119.829,0 228.593,43.2579 307.568,113.19 80.0257,70.8638 129.525,168.971 129.525,277.523 0,77.5241 -25.2284,149.726 -68.791,210.52 -44.4803,62.0729 -108.181,112.162 -183.6,143.632l-20.126 1.3748c-128.689,-33.1075 -240.508,-85.8497 -338.223,-145.283 -97.3052,-59.1839 -180.196,-124.61 -251.792,-183.795l-11.2665 -9.31418 -0.233858 -14.9351 -0.0106299 -0.708662 -0.00236221 0c-0.0625985,-3.50788 -0.138189,6.21497 -0.138189,-1.49055 0,-108.552 49.4989,-206.659 129.525,-277.523 78.9745,-69.9319 187.739,-113.19 307.568,-113.19zm265.317 160.939c-67.6359,-59.8914 -161.42,-96.9379 -265.317,-96.9379 -103.897,0 -197.681,37.0465 -265.317,96.9379 -63.3497,56.0965 -103.706,132.367 -107.48,216.771 67.206,55.1989 144.135,115.06 232.4,168.744 90.4016,54.9851 193.103,103.863 310.175,135.26 60.0863,-26.9587 110.749,-67.8095 146.524,-117.732 35.9611,-50.1863 56.7886,-109.623 56.7886,-173.27 0,-89.5583 -41.1863,-170.81 -107.773,-229.773z"/>
  <path class="fil1" d="M1281.39 921.936c6.14292,16.4988 24.5008,24.8929 40.9996,18.75 16.4988,-6.14292 24.8929,-24.5008 18.75,-40.9996 -8.77324,-23.55 -26.2807,-41.2536 -47.4933,-50.8323 -20.1012,-9.07914 -43.6122,-10.8638 -66.1926,-3.4004 -2.30079,0.577559 -4.50118,1.40315 -6.57166,2.44725 -21.9543,9.12757 -38.5772,25.8839 -47.8607,45.9426 -9.30237,20.1012 -11.2417,43.5851 -3.81496,66.1182 0.5563,2.21693 1.34173,4.34174 2.33268,6.34725 14.7803,37.2284 43.0217,65.2678 77.0705,80.6446 34.8378,15.7335 75.8422,18.2185 114.751,3.72638 38.902,-14.4898 68.2997,-43.2225 84.3745,-77.9575 16.0984,-34.7847 18.8433,-75.665 4.41969,-114.389 -20.0858,-53.9221 -60.2634,-94.4965 -108.979,-116.497 -48.5882,-21.9449 -105.764,-25.4162 -160.001,-5.21457 -54.2304,20.1992 -95.2123,60.2563 -117.625,108.685 -22.4362,48.4784 -26.2736,105.422 -6.19371,159.332 25.7421,69.1099 77.2536,121.12 139.723,149.332 62.3422,28.1551 135.688,32.6138 205.251,6.70158 69.5587,-25.9087 122.124,-77.2902 150.875,-139.413 28.774,-62.1721 33.7028,-135.178 7.96536,-204.278 -6.14292,-16.4988 -24.5008,-24.8929 -40.9996,-18.75 -16.4988,6.14292 -24.8929,24.5008 -18.75,40.9996 19.5166,52.3961 15.7122,107.901 -6.21497,155.278 -21.9496,47.4272 -62.0623,86.6481 -115.126,106.413 -53.0575,19.7634 -109.077,16.3288 -156.75,-5.20158 -47.5465,-21.4736 -86.7142,-60.9497 -106.225,-113.332 -13.8591,-37.2071 -11.1461,-76.6489 4.44331,-110.333 15.6118,-33.7335 44.1402,-61.63 81.8753,-75.6851 37.7292,-14.0539 77.5796,-11.6055 111.5,3.71457 33.7937,15.261 61.6264,43.3016 75.4808,80.4969 8.20276,22.0217 6.58229,45.3992 -2.66929,65.3894 -9.27402,20.0398 -26.2181,36.6118 -48.6248,44.9575 -22.402,8.34449 -46.0819,6.88229 -66.2504,-2.22638 -19.363,-8.74371 -35.4166,-24.5421 -43.8756,-45.4489 -0.219685,-0.758268 -0.470079,-1.51417 -0.750001,-2.26536l-0.113386 0.0425197c-2.54292,-6.83268 -2.01378,-14.1449 0.89882,-20.439 2.68937,-5.81103 7.40906,-10.6973 13.6228,-13.5059 0.602363,-0.184252 1.20118,-0.387402 1.79882,-0.609449l-0.0425197 -0.113386c7.07127,-2.63268 14.5795,-2.15906 20.9953,0.739371 6.29056,2.84055 11.4543,8.01024 13.9949,14.8323z"/>
  <path class="fil1" d="M519.419 1004.42c-17.5347,-1.86378 -33.2622,10.8402 -35.126,28.3748 -1.86378,17.5347 10.8402,33.2622 28.3748,35.126 31.311,3.39685 61.5331,-2.91496 90.4926,-20.387 26.811,-16.1764 52.1162,-41.9492 75.7158,-78.5634 9.52678,-14.8417 5.21693,-34.5981 -9.62481,-44.1248 -14.8417,-9.52678 -34.5981,-5.21693 -44.1248,9.62481 -18.0496,28.004 -36.3851,47.1012 -54.9662,58.3122 -16.4362,9.91654 -33.3733,13.5213 -50.7414,11.6374z"/>
  <circle class="fil2" cx="579.498" cy="896.301" r="23.4969"/>
  <path class="fil3" d="M669.251 924.843c14.8417,9.52678 19.1516,29.2831 9.62481,44.1248 -23.5996,36.6142 -48.9048,62.3871 -75.7158,78.5634 -9.8941,5.9693 -19.9347,10.6358 -30.117,14.0575 31.239,38.0067 75.0697,78.1276 129.31,119.993 217.656,148.074 409.591,216.636 584.163,231.532 115.463,9.85276 223.73,-3.78071 327.107,-33.3744 -334.377,-33.6685 -570.473,-205.299 -743.327,-347.14 -4.15276,-3.40512 -8.2689,-6.79371 -12.3484,-10.1622l-2.29488 -1.89567 -11.2665 -9.31418 0 -0.0354331c-11.0362,-9.17009 -21.802,-18.1736 -32.3079,-26.9587 -111.61,-93.3308 -190.65,-159.418 -238.084,-133.983 -52.5284,42.1855 -65.1402,88.5804 -45.9685,138.319 2.03858,5.28898 4.39725,10.6311 7.06772,16.0264 11.9173,-1.05827 23.6138,-4.90394 35.0681,-11.8146 18.5811,-11.211 36.9166,-30.3083 54.9662,-58.3122 9.52678,-14.8417 29.2831,-19.1516 44.1248,-9.62481zm-89.7532 -52.0382c12.978,0 23.4969,10.5189 23.4969,23.4969 0,12.978 -10.5189,23.4969 -23.4969,23.4969 -12.978,0 -23.4969,-10.5189 -23.4969,-23.4969 0,-12.978 10.5189,-23.4969 23.4969,-23.4969z"/>
  <path class="fil0" d="M354.629 686.345c5.78741,-5.78741 9.36969,-13.7894 9.36969,-22.6288l0 -0.0307087 -0.35315 -4.74213c-1.03583,-6.92717 -4.28977,-13.1303 -9.01654,-17.8559 -5.78741,-5.78741 -13.7894,-9.36969 -22.6288,-9.36969 -8.83701,0 -16.8414,3.58111 -22.6288,9.36969 -5.78859,5.78741 -9.36969,13.7917 -9.36969,22.6288 0,8.83938 3.58229,16.8414 9.36969,22.6288 5.78741,5.78859 13.7917,9.36969 22.6288,9.36969 8.83938,0 16.8414,-3.58229 22.6288,-9.36969z"/>
 </g>
 <rect class="fil4" width="2048" height="2048"/>
</svg>
