<?xml version="1.0" encoding="UTF-8"?>
<!DOCTYPE svg PUBLIC "-//W3C//DTD SVG 1.1//EN" "http://www.w3.org/Graphics/SVG/1.1/DTD/svg11.dtd">
<!-- Creator: CorelDRAW -->
<svg xmlns="http://www.w3.org/2000/svg" xml:space="preserve" width="2048px" height="2048px" style="shape-rendering:geometricPrecision; text-rendering:geometricPrecision; image-rendering:optimizeQuality; fill-rule:evenodd; clip-rule:evenodd"
viewBox="0 0 2048 2048"
 xmlns:xlink="http://www.w3.org/1999/xlink">
 <defs>
  <style type="text/css">
   <![CDATA[
    .fil2 {fill:none}
    .fil1 {fill:#F19A7B}
    .fil0 {fill:#212121;fill-rule:nonzero}
   ]]>
  </style>
 </defs>
 <g id="Layer_x0020_1">
  <metadata id="CorelCorpID_0Corel-Layer"/>
  <g id="_539996496">
   <g>
    <path id="_539997096" class="fil0" d="M1427.33 636.71c1.16811,-4.89213 0.12874,-9.91654 -2.49331,-14.0717 -2.74725,-4.35473 -7.18819,-7.70906 -12.6602,-9.01536 -5.50985,-1.31575 -11.0138,-0.329528 -15.4465,2.32205 -4.19292,2.50866 -7.37363,6.49725 -8.53465,11.3599l-74.6646 312.618 -13.6158 57.0083 -40.5095 -42.3827c-5.04095,-5.27481 -12.3815,-13.3571 -21.502,-23.3988 -29.5276,-32.511 -78.3331,-86.2465 -84.0697,-88.6264 -0.356693,-0.147638 -0.702756,-0.277559 -1.02402,-0.381496 -0.950788,-0.308268 -0.73819,-0.298819 -1.00394,-0.361418 -3.69803,-0.883465 -6.89882,-0.918898 -9.60591,-0.281103 -2.98937,0.703938 -5.69882,2.65276 -7.99607,5.40119 -3.42284,4.09489 -5.92441,9.55394 -7.3878,15.6815 -1.92756,8.07166 -2.02087,17.0776 -0.0850394,25.774l104.95 302.697 0.125197 20.3752 -60.9437 182.899 375.773 89.7485 27.3945 -189.663 1.00039 -4.5 147.334 -496.552c0.761812,-4.52008 -0.311811,-9.08623 -2.72953,-12.9165 -2.7437,-4.34646 -7.17402,-7.69489 -12.6319,-9.00473l-0.0283465 0.11811c-5.61142,-1.33937 -11.1047,-0.402756 -15.4417,2.19095 -4.19292,2.50748 -7.37245,6.49371 -8.53229,11.3528l-0.00236221 0.00472441 -45.6792 191.254 -62.0008 -14.7496 45.6804 -191.256 0.00236221 -0.00472441c5.34095,-22.3618 19.4008,-40.3548 37.7823,-51.352 18.2421,-10.9099 40.6725,-15.0071 62.941,-9.69095l1.5 0.499607c21.7205,5.59725 39.3662,19.1421 50.4107,36.639 11.4224,18.098 15.8291,40.4776 10.4965,62.8123l-0.375591 1.6252 -146.793 494.73 -31.187 215.921 -0.0177165 -0.00236221c-0.788977,5.43898 -2.6563,10.4776 -5.42008,14.8264 -2.71536,4.26969 -6.46536,8.07048 -11.0669,11.1224l0.0377953 0.0578741c-4.44567,2.93504 -9.34371,4.87559 -14.3421,5.75434 -4.83426,0.844489 -10.0287,0.677953 -15.2646,-0.571654l-431.26 -103.002c-5.11536,-1.22126 -9.79489,-3.41575 -13.7953,-6.38623 -4.15394,-3.09449 -7.63938,-6.96024 -10.2106,-11.4071l-0.125197 -0.250394c-2.59961,-4.5567 -4.19646,-9.63898 -4.71733,-14.8689 -0.519685,-5.18386 0.0531496,-10.5024 1.76102,-15.5728l0.0377953 0.0129921 66.5126 -199.612 -102.265 -294.951 -1.00039 -3.1252c-4.30985,-18.2953 -4.09961,-37.8284 0.174803,-55.7245 3.75118,-15.7087 10.6406,-30.2705 20.3894,-41.9327 10.8744,-13.0087 25.128,-22.5591 42.4961,-26.6516 11.7709,-2.77441 24.7748,-2.8311 38.8548,0.531496 2.60669,0.622441 4.63347,1.16575 6.00473,1.61102 1.96417,0.637796 3.89528,1.35118 5.77441,2.13189 15.5209,6.43938 55.1516,48.1583 87.1831,83.0823l60.6768 -254.049c5.34095,-22.3618 19.402,-40.3607 37.7859,-51.3615 18.1477,-10.8579 40.5756,-14.9138 62.9457,-9.57166 22.4173,5.35394 40.6193,19.1173 51.9107,37.017 11.4213,18.1004 15.828,40.4859 10.4941,62.8205l-62.0008 -14.7496zm193.67 133.641l0.0011811 -0.00236221m61.9985 14.7543l-0.0011811 0.00236221"/>
    <path id="_539997792" class="fil0" d="M1354.58 915.229l94.5639 -359.117 0.00236221 -0.00590552c6.02008,-22.8614 21.3236,-40.8674 41.1685,-51.4831 19.0122,-10.1693 42.2492,-13.4516 65.1603,-7.41969l0.0165354 0.00590552c23.0339,6.06733 41.7118,20.4012 53.2654,38.6469 12.0059,18.9638 16.448,42.0922 10.4551,64.8591l-0.0011811 0.00590552 -16.3122 61.9477 -61.8874 -16.1209 16.311 -61.95 0.00236221 -0.00590552c1.30276,-4.95118 0.232677,-10.1492 -2.54882,-14.5406 -3.23622,-5.11063 -8.63386,-9.17127 -15.4122,-10.9559l-0.0141732 -0.00472441c-6.90473,-1.81536 -13.6819,-0.944883 -19.05,1.9252 -4.53662,2.42599 -7.9878,6.35788 -9.26576,11.2134l-0.0011811 0.00590552 -94.565 359.114 -61.8874 -16.1209zm184.774 -356.137l-0.00472441 -0.0011811"/>
    <path id="_539997696" class="fil0" d="M1467.76 942.467l66.9993 -280.52c5.52874,-23.152 20.5878,-41.5217 40.4363,-52.48 18.8197,-10.3925 42.1583,-14.041 65.5182,-8.4626l0.00826772 0.0011811c23.3185,5.57008 42.5174,19.4374 54.6863,37.3252 12.7311,18.7158 17.8677,41.8323 12.3638,64.8733l-0.0011811 0.00590552 -14.5134 60.7666 -62.0008 -14.7496 14.5122 -60.763 0.0011811 -0.00590552c1.15512,-4.83544 -0.121654,-9.98032 -3.11221,-14.3776 -3.55276,-5.22402 -9.39922,-9.33308 -16.6807,-11.0728l-0.00826772 -0.0011811c-7.24253,-1.72914 -14.3693,-0.660237 -20.0221,2.46142 -4.62638,2.55355 -8.05867,6.50315 -9.18662,11.2287l-66.9993 280.52 -62.0008 -14.7496z"/>
   </g>
   <g>
    <path id="_539997624" class="fil0" d="M620.671 636.71c-1.16811,-4.89213 -0.12874,-9.91654 2.49331,-14.0717 2.74725,-4.35473 7.18819,-7.70906 12.6602,-9.01536 5.50985,-1.31575 11.0138,-0.329528 15.4465,2.32205 4.19292,2.50866 7.37363,6.49725 8.53465,11.3599l74.6646 312.618 13.6158 57.0083 40.5095 -42.3827c5.04095,-5.27481 12.3815,-13.3571 21.502,-23.3988 29.5276,-32.511 78.3331,-86.2465 84.0697,-88.6264 0.356693,-0.147638 0.702756,-0.277559 1.02402,-0.381496 0.950788,-0.308268 0.73819,-0.298819 1.00394,-0.361418 3.69803,-0.883465 6.89882,-0.918898 9.60591,-0.281103 2.98937,0.703938 5.69882,2.65276 7.99607,5.40119 3.42284,4.09489 5.92441,9.55394 7.3878,15.6815 1.92756,8.07166 2.02087,17.0776 0.0850394,25.774l-104.95 302.697 -0.125197 20.3752 60.9437 182.899 -375.773 89.7485 -27.3945 -189.663 -1.00039 -4.5 -147.334 -496.552c-0.761812,-4.52008 0.311811,-9.08623 2.72953,-12.9165 2.7437,-4.34646 7.17402,-7.69489 12.6319,-9.00473l0.0283465 0.11811c5.61142,-1.33937 11.1047,-0.402756 15.4417,2.19095 4.19292,2.50748 7.37245,6.49371 8.53229,11.3528l0.00236221 0.00472441 45.6792 191.254 62.0008 -14.7496 -45.6804 -191.256 -0.00236221 -0.00472441c-5.34095,-22.3618 -19.4008,-40.3548 -37.7823,-51.352 -18.2421,-10.9099 -40.6725,-15.0071 -62.941,-9.69095l-1.5 0.499607c-21.7205,5.59725 -39.3662,19.1421 -50.4107,36.639 -11.4224,18.098 -15.8291,40.4776 -10.4965,62.8123l0.375591 1.6252 146.793 494.73 31.187 215.921 0.0177165 -0.00236221c0.788977,5.43898 2.6563,10.4776 5.42008,14.8264 2.71536,4.26969 6.46536,8.07048 11.0669,11.1224l-0.0377953 0.0578741c4.44567,2.93504 9.34371,4.87559 14.3421,5.75434 4.83426,0.844489 10.0287,0.677953 15.2646,-0.571654l431.26 -103.002c5.11536,-1.22126 9.79489,-3.41575 13.7953,-6.38623 4.15394,-3.09449 7.63938,-6.96024 10.2106,-11.4071l0.125197 -0.250394c2.59961,-4.5567 4.19646,-9.63898 4.71733,-14.8689 0.519685,-5.18386 -0.0531496,-10.5024 -1.76102,-15.5728l-0.0377953 0.0129921 -66.5126 -199.612 102.265 -294.951 1.00039 -3.1252c4.30985,-18.2953 4.09961,-37.8284 -0.174803,-55.7245 -3.75118,-15.7087 -10.6406,-30.2705 -20.3894,-41.9327 -10.8744,-13.0087 -25.128,-22.5591 -42.4961,-26.6516 -11.7709,-2.77441 -24.7748,-2.8311 -38.8548,0.531496 -2.60669,0.622441 -4.63347,1.16575 -6.00473,1.61102 -1.96417,0.637796 -3.89528,1.35118 -5.77441,2.13189 -15.5209,6.43938 -55.1516,48.1583 -87.1831,83.0823l-60.6768 -254.049c-5.34095,-22.3618 -19.402,-40.3607 -37.7859,-51.3615 -18.1477,-10.8579 -40.5756,-14.9138 -62.9457,-9.57166 -22.4173,5.35394 -40.6193,19.1173 -51.9107,37.017 -11.4213,18.1004 -15.828,40.4859 -10.4941,62.8205l62.0008 -14.7496zm-193.67 133.641l-0.0011811 -0.00236221m-61.9985 14.7543l0.0011811 0.00236221"/>
    <path id="_539997384" class="fil0" d="M693.426 915.229l-94.5639 -359.117 -0.00236221 -0.00590552c-6.02008,-22.8614 -21.3236,-40.8674 -41.1685,-51.4831 -19.0122,-10.1693 -42.2492,-13.4516 -65.1603,-7.41969l-0.0165354 0.00590552c-23.0339,6.06733 -41.7118,20.4012 -53.2654,38.6469 -12.0059,18.9638 -16.448,42.0922 -10.4551,64.8591l0.0011811 0.00590552 16.3122 61.9477 61.8874 -16.1209 -16.311 -61.95 -0.00236221 -0.00590552c-1.30276,-4.95118 -0.232677,-10.1492 2.54882,-14.5406 3.23622,-5.11063 8.63386,-9.17127 15.4122,-10.9559l0.0141732 -0.00472441c6.90473,-1.81536 13.6819,-0.944883 19.05,1.9252 4.53662,2.42599 7.9878,6.35788 9.26576,11.2134l0.0011811 0.00590552 94.565 359.114 61.8874 -16.1209zm-184.774 -356.137l0.00472441 -0.0011811"/>
    <path id="_539997456" class="fil0" d="M580.237 942.467l-66.9993 -280.52c-5.52874,-23.152 -20.5878,-41.5217 -40.4363,-52.48 -18.8197,-10.3925 -42.1583,-14.041 -65.5182,-8.4626l-0.00826772 0.0011811c-23.3185,5.57008 -42.5174,19.4374 -54.6863,37.3252 -12.7311,18.7158 -17.8677,41.8323 -12.3638,64.8733l0.0011811 0.00590552 14.5134 60.7666 62.0008 -14.7496 -14.5122 -60.763 -0.0011811 -0.00590552c-1.15512,-4.83544 0.121654,-9.98032 3.11221,-14.3776 3.55276,-5.22402 9.39922,-9.33308 16.6807,-11.0728l0.00826772 -0.0011811c7.24253,-1.72914 14.3693,-0.660237 20.0221,2.46142 4.62638,2.55355 8.05867,6.50315 9.18662,11.2287l66.9993 280.52 62.0008 -14.7496z"/>
   </g>
  </g>
  <path class="fil1" d="M1683 785.105l0 0zm-61.9973 -14.7567l0 0zm24.7713 -81.8847l0 0zm-19.7917 -25.4563l0 0zm-68.6611 -78.4158l0 0zm-46.291 -12.3626l0 0zm-384.298 316.127l104.95 302.697 0.125197 20.3752 -60.9437 182.899 375.773 89.7485 27.3945 -189.663 1.00039 -4.5 147.334 -496.552c0.761812,-4.52008 -0.311811,-9.08623 -2.72953,-12.9165 -2.7437,-4.34646 -7.17402,-7.69489 -12.6319,-9.00473l-0.0283465 0.11811c-5.61142,-1.33937 -11.1047,-0.402756 -15.4417,2.19095 -4.19292,2.50748 -7.37245,6.49371 -8.53465,11.3575l-45.6792 191.254 -62.0008 -14.7496 45.6827 -191.261c2.31969,-9.71103 6.28347,-18.5977 11.5311,-26.4461l13.2413 -55.4445c1.15512,-4.83544 -0.121654,-9.98032 -3.11221,-14.3776 -3.55276,-5.22402 -9.39922,-9.33308 -16.689,-11.074 -7.24253,-1.72914 -14.3693,-0.660237 -20.0221,2.46142 -4.62638,2.55355 -8.05867,6.50315 -9.18662,11.2287l-66.9993 280.52 -62.0008 -14.7496 66.9993 -280.52c1.62284,-6.79843 4.0689,-13.1835 7.21536,-19.0914l15.3414 -58.2638c1.30276,-4.95118 0.232677,-10.1492 -2.54882,-14.5406 -3.23622,-5.11063 -8.63386,-9.17127 -15.4122,-10.9559l-0.0141732 -0.00472441c-6.90473,-1.81536 -13.6819,-0.944883 -19.05,1.9252 -4.53662,2.42599 -7.9878,6.35788 -9.26694,11.2193l-94.565 359.114 -61.8874 -16.1209 73.3064 -278.387 -0.551575 -0.131102c1.16811,-4.89213 0.12874,-9.91654 -2.49331,-14.0717 -2.74725,-4.35473 -7.18819,-7.70906 -12.6602,-9.01536 -5.50985,-1.31575 -11.0138,-0.329528 -15.4465,2.32205 -4.19292,2.50866 -7.37363,6.49725 -8.53465,11.3599l-74.6646 312.618 -13.6158 57.0083 -40.5095 -42.3827c-5.04095,-5.27481 -12.3815,-13.3571 -21.502,-23.3988 -29.5276,-32.511 -78.3331,-86.2465 -84.0697,-88.6264 -0.356693,-0.147638 -0.702756,-0.277559 -1.02402,-0.381496 -0.950788,-0.308268 -0.73819,-0.298819 -1.00394,-0.361418 -3.69803,-0.883465 -6.89882,-0.918898 -9.60591,-0.281103 -2.98937,0.703938 -5.69882,2.65276 -7.99607,5.40119 -3.42284,4.09489 -5.92441,9.55394 -7.3878,15.6815 -1.92756,8.07166 -2.02087,17.0776 -0.0850394,25.774z"/>
  <path class="fil1" d="M536.972 572.229l0 0zm-46.291 12.3626l0 0zm-68.6611 78.4158l0 0zm-19.7917 25.4563l0 0zm24.7713 81.8847l0 0zm-61.9973 14.7567l0 0zm451.317 405.948l104.95 -302.697c1.93583,-8.69646 1.84252,-17.7024 -0.0850394,-25.774 -1.46339,-6.12756 -3.96496,-11.5866 -7.3878,-15.6815 -2.29725,-2.74843 -5.0067,-4.69725 -7.99607,-5.40119 -2.70709,-0.637796 -5.90788,-0.602363 -9.60591,0.281103 -0.265748,0.0625985 -0.0531496,0.0531496 -1.00394,0.361418 -0.32126,0.103937 -0.667323,0.233858 -1.02402,0.381496 -5.73662,2.37992 -54.5422,56.1154 -84.0697,88.6264 -9.12048,10.0417 -16.461,18.124 -21.502,23.3988l-40.5095 42.3827 -13.6158 -57.0083 -74.6646 -312.618c-1.16102,-4.8626 -4.34174,-8.85119 -8.53465,-11.3599 -4.43268,-2.65158 -9.93662,-3.6378 -15.4465,-2.32205 -5.47205,1.3063 -9.913,4.66063 -12.6602,9.01536 -2.62205,4.15512 -3.66142,9.17953 -2.49331,14.0717l-0.551575 0.131102 73.3064 278.387 -61.8874 16.1209 -94.5662 -359.12c-1.27795,-4.85552 -4.72914,-8.78741 -9.26576,-11.2134 -5.36811,-2.87008 -12.1453,-3.74055 -19.05,-1.9252l-0.0141732 0.00472441c-6.77835,1.78465 -12.176,5.84528 -15.4122,10.9559 -2.7815,4.39134 -3.85158,9.58938 -2.54646,14.5465l15.339 58.2579c3.14646,5.9067 5.59134,12.2929 7.21536,19.0914l66.9993 280.52 -62.0008 14.7496 -66.9993 -280.52c-1.12795,-4.72559 -4.56024,-8.6752 -9.18662,-11.2287 -5.65276,-3.12166 -12.7795,-4.19055 -20.0303,-2.46024 -7.2815,1.73977 -13.128,5.84882 -16.6807,11.0728 -2.99055,4.39725 -4.26733,9.54213 -3.11103,14.3835l13.2402 55.4386c5.24764,7.84843 9.21142,16.7351 11.5335,26.4508l45.6804 191.256 -62.0008 14.7496 -45.6815 -191.258c-1.15984,-4.85906 -4.33937,-8.84528 -8.53229,-11.3528 -4.33701,-2.5937 -9.83032,-3.53032 -15.4417,-2.19095l-0.0283465 -0.11811c-5.45788,1.30984 -9.8882,4.65827 -12.6319,9.00473 -2.41772,3.83032 -3.49134,8.39646 -2.72953,12.9165l147.334 496.552 1.00039 4.5 27.3945 189.663 375.773 -89.7485 -60.9437 -182.899 0.125197 -20.3752z"/>
 </g>
 <rect class="fil2" width="2048" height="2048"/>
</svg>
