<?xml version="1.0" encoding="UTF-8"?>
<!DOCTYPE svg PUBLIC "-//W3C//DTD SVG 1.1//EN" "http://www.w3.org/Graphics/SVG/1.1/DTD/svg11.dtd">
<!-- Creator: CorelDRAW -->
<svg xmlns="http://www.w3.org/2000/svg" xml:space="preserve" width="2048px" height="2048px" style="shape-rendering:geometricPrecision; text-rendering:geometricPrecision; image-rendering:optimizeQuality; fill-rule:evenodd; clip-rule:evenodd"
viewBox="0 0 2048 2048"
 xmlns:xlink="http://www.w3.org/1999/xlink">
 <defs>
  <style type="text/css">
   <![CDATA[
    .fil2 {fill:none}
    .fil1 {fill:#B38E85}
    .fil0 {fill:#212121;fill-rule:nonzero}
   ]]>
  </style>
 </defs>
 <g id="Layer_x0020_1">
  <metadata id="CorelCorpID_0Corel-Layer"/>
  <polygon class="fil0" points="255.999,544.001 1792,544.001 1792,608.002 255.999,608.002 "/>
  <path class="fil0" d="M343.126 428.123l128.001 -159.997 24.8764 -31.0925 24.874 31.0925 128 159.997 7.1256 19.8756 0 1280 0 32.0008 -32.0008 0 -256.001 0 -32.0008 0 0 -32.0008 0 -1280 7.1256 -19.8756zm152.876 -89.152l-96.0001 119.997 0 1237.03 191.999 0 0 -1237.03 -95.9989 -119.997z"/>
  <path class="fil0" d="M695.125 428.123l128.001 -159.997 24.8764 -31.0925 24.874 31.0925 128 159.997 7.1256 19.8756 0 1280 0 32.0008 -32.0008 0 -256.001 0 -32.0008 0 0 -32.0008 0 -1280 7.1256 -19.8756zm152.876 -89.152l-96.0001 119.997 0 1237.03 191.999 0 0 -1237.03 -95.9989 -119.997z"/>
  <path class="fil0" d="M1047.12 428.123l128.001 -159.997 24.8752 -31.0925 24.8752 31.0925 128 159.997 7.1256 19.8756 0 1280 0 32.0008 -32.0008 0 -256.001 0 -32.0008 0 0 -32.0008 0 -1280 7.1256 -19.8756zm152.876 -89.152l-96.0001 119.997 0 1237.03 191.999 0 0 -1237.03 -95.9989 -119.997z"/>
  <path class="fil0" d="M1399.12 428.123l128.001 -159.997 24.8752 -31.0925 24.8752 31.0925 128 159.997 7.1256 19.8756 0 1280 0 32.0008 -32.0008 0 -256.001 0 -32.002 0 0.0011811 -32.0008 0 -1280 7.1256 -19.8756zm152.876 -89.152l-96.0001 119.997 0 1237.03 191.999 0 0 -1237.03 -95.9989 -119.997z"/>
  <polygon class="fil1" points="592.001,1568 592.001,608.002 400.002,608.002 400.002,1568 "/>
  <polygon class="fil1" points="400.002,544.001 592.001,544.001 592.001,458.967 496.002,338.971 400.002,458.967 "/>
  <polygon class="fil1" points="592.001,1600 400.002,1600 400.002,1696 592.001,1696 "/>
  <polygon class="fil0" points="255.999,1536 1792,1536 1792,1600 255.999,1600 "/>
  <polygon class="fil1" points="752.001,544.001 944,544.001 944,458.967 848.001,338.971 752.001,458.967 "/>
  <polygon class="fil1" points="944,608.002 752.001,608.002 752.001,1536 944,1536 "/>
  <polygon class="fil1" points="944,1600 752.001,1600 752.001,1696 944,1696 "/>
  <polygon class="fil1" points="1104,1600 1104,1696 1296,1696 1296,1600 "/>
  <polygon class="fil1" points="1104,1536 1296,1536 1296,608.002 1104,608.002 "/>
  <polygon class="fil1" points="1104,544.001 1296,544.001 1296,458.967 1200,338.971 1104,458.967 "/>
  <polygon class="fil1" points="1456,458.967 1456,544.001 1648,544.001 1648,458.967 1552,338.971 "/>
  <polygon class="fil1" points="1648,608.002 1456,608.002 1456,1536 1648,1536 "/>
  <polygon class="fil1" points="1648,1600 1456,1600 1456,1696 1648,1696 "/>
 </g>
 <rect class="fil2" width="2048" height="2048"/>
</svg>
