<?xml version="1.0" encoding="UTF-8"?>
<!DOCTYPE svg PUBLIC "-//W3C//DTD SVG 1.1//EN" "http://www.w3.org/Graphics/SVG/1.1/DTD/svg11.dtd">
<!-- Creator: CorelDRAW -->
<svg xmlns="http://www.w3.org/2000/svg" xml:space="preserve" width="2048px" height="2048px" style="shape-rendering:geometricPrecision; text-rendering:geometricPrecision; image-rendering:optimizeQuality; fill-rule:evenodd; clip-rule:evenodd"
viewBox="0 0 2048 2048"
 xmlns:xlink="http://www.w3.org/1999/xlink">
 <defs>
  <style type="text/css">
   <![CDATA[
    .fil3 {fill:none}
    .fil2 {fill:#63CBE5}
    .fil1 {fill:#EBE5DF}
    .fil0 {fill:#212121;fill-rule:nonzero}
   ]]>
  </style>
 </defs>
 <g id="Layer_x0020_1">
  <metadata id="CorelCorpID_0Corel-Layer"/>
  <path class="fil0" d="M1275.5 1081.25c188.04,191.711 235.606,344.523 214.655,449.126 -20.2229,100.967 -101.785,157.916 -187.438,165.641 -85.6784,7.72796 -175.549,-33.8894 -212.348,-130.057 -37.9488,-99.1796 -16.6087,-258.023 136.13,-480.336l21.9508 -31.9524 27.0496 27.5776zm151.905 436.626c16.3831,-81.7914 -22.3831,-203.805 -170.287,-363.429 -118.891,183.865 -136.728,311.067 -107,388.764 25.2969,66.1099 87.5894,94.6737 147.099,89.3068 59.5359,-5.3693 116.197,-44.791 130.187,-114.641z"/>
  <path class="fil0" d="M1621.32 817.881c113.361,115.574 141.756,209.107 128.785,273.868 -13.0925,65.3682 -65.8512,102.236 -121.246,107.232 -55.4221,4.99843 -113.586,-21.9945 -137.443,-84.3438 -23.4839,-61.3725 -11.1343,-158.42 80.9032,-292.382l21.9508 -31.9512 27.0496 27.5764zm66.0355 261.368c8.40473,-41.9599 -11.1047,-104.576 -84.3591,-187.478 -58.3134,94.9418 -67.0973,160.218 -51.8304,200.117 12.3555,32.2914 42.939,46.2307 72.1938,43.5933 29.2784,-2.63977 57.1359,-21.9792 63.9957,-56.2323z"/>
  <path class="fil0" d="M1574.84 388.892c113.361,115.574 141.755,209.107 128.784,273.867 -13.0937,65.3682 -65.8512,102.236 -121.247,107.232 -55.4221,4.99843 -113.586,-21.9945 -137.441,-84.3438 -23.4839,-61.3725 -11.1331,-158.42 80.9044,-292.381l21.952 -31.95 27.0484 27.5752zm66.0343 261.366c8.40473,-41.9587 -11.1036,-104.575 -84.3579,-187.477 -58.3134,94.9418 -67.0985,160.218 -51.8315,200.116 12.3555,32.2925 42.939,46.2307 72.1926,43.5933 29.2796,-2.63977 57.1359,-21.9792 63.9969,-56.2323z"/>
  <path class="fil0" d="M1667.81 1246.87c113.361,115.574 141.755,209.107 128.784,273.867 -13.0937,65.3752 -65.7957,102.242 -121.121,107.234l-0.125197 0c-55.4209,4.99843 -113.584,-21.9945 -137.441,-84.3438 -23.4839,-61.3725 -11.1343,-158.421 80.9032,-292.382l21.952 -31.9512 27.0484 27.5764zm66.0343 261.366c8.40473,-41.9587 -11.1047,-104.576 -84.3591,-187.478 -58.3122,94.9418 -67.0961,160.219 -51.8292,200.118 12.3378,32.2453 42.8528,46.1918 72.0686,43.604l-0.0011811 -0.0106299c29.3481,-2.64685 57.2622,-21.9874 64.1209,-56.2335z"/>
  <path class="fil0" d="M1199.63 381.042c188.04,191.711 235.605,344.523 214.654,449.126 -20.2229,100.965 -101.785,157.916 -187.438,165.641 -85.6784,7.72796 -175.55,-33.8918 -212.347,-130.057 -37.95,-99.1796 -16.6087,-258.023 136.13,-480.336l21.9508 -31.9512 27.0496 27.5764zm151.904 436.626c16.3831,-81.7914 -22.3831,-203.805 -170.286,-363.429 -118.891,183.864 -136.729,311.066 -107,388.764 25.2957,66.1099 87.5883,94.6737 147.098,89.3068 59.5359,-5.3693 116.197,-44.791 130.187,-114.641z"/>
  <path class="fil0" d="M867.846 899.531c113.361,115.574 141.755,209.107 128.784,273.867 -13.0937,65.3752 -65.7957,102.242 -121.121,107.234l-0.125197 0c-55.4221,4.99843 -113.586,-21.9945 -137.443,-84.3449 -23.4827,-61.3713 -11.1331,-158.42 80.9044,-292.381l21.9532 -31.95 27.0473 27.5752zm66.0343 261.366c8.40473,-41.9587 -11.1036,-104.575 -84.3579,-187.477 -58.3134,94.9418 -67.0973,160.218 -51.8315,200.116 12.3378,32.2465 42.854,46.1929 72.0697,43.6052l-0.0011811 -0.0106299c29.3492,-2.64685 57.2622,-21.9874 64.1209,-56.2335z"/>
  <path class="fil0" d="M821.359 470.54c113.361,115.574 141.755,209.107 128.784,273.868 -13.0925,65.3682 -65.8512,102.236 -121.246,107.232 -55.4221,4.99843 -113.586,-21.9945 -137.443,-84.3438 -23.4827,-61.3725 -11.1331,-158.42 80.9044,-292.382l21.952 -31.9512 27.0484 27.5764zm66.0343 261.368c8.40473,-41.9599 -11.1036,-104.576 -84.3579,-187.478 -58.3134,94.9418 -67.0973,160.218 -51.8315,200.117 12.3555,32.2914 42.9402,46.2307 72.1938,43.5933 29.2784,-2.63977 57.1359,-21.978 63.9957,-56.2323z"/>
  <path class="fil0" d="M914.332 1328.52c113.361,115.574 141.755,209.107 128.784,273.867 -13.0937,65.3752 -65.7957,102.242 -121.121,107.234l-0.125197 0c-55.4221,4.99843 -113.586,-21.9945 -137.443,-84.3449 -23.4827,-61.3713 -11.1331,-158.42 80.9044,-292.381l21.9532 -31.9512 27.0473 27.5764zm66.0343 261.366c8.40473,-41.9587 -11.1036,-104.575 -84.3579,-187.477 -58.3134,94.9418 -67.0973,160.218 -51.8315,200.116 12.3378,32.2465 42.854,46.1929 72.0697,43.6052l-0.0011811 -0.0106299c29.3492,-2.64685 57.2622,-21.9874 64.1209,-56.2335z"/>
  <path class="fil0" d="M541.176 1160.82c188.04,191.711 235.605,344.522 214.655,449.126 -20.2229,100.967 -101.785,157.916 -187.438,165.641 -85.6784,7.72796 -175.549,-33.8894 -212.348,-130.057 -37.9488,-99.1796 -16.6087,-258.023 136.13,-480.336l21.952 -31.9524 27.0484 27.5776zm151.905 436.626c16.3819,-81.7926 -22.3843,-203.804 -170.287,-363.429 -118.891,183.865 -136.728,311.067 -107,388.764 25.2969,66.1099 87.5894,94.6737 147.099,89.3068 59.5359,-5.3693 116.197,-44.791 130.187,-114.641z"/>
  <path class="fil0" d="M465.299 460.616c188.04,191.711 235.605,344.521 214.655,449.125 -20.2229,100.965 -101.785,157.917 -187.438,165.641 -85.6784,7.72796 -175.551,-33.8918 -212.348,-130.057 -37.95,-99.1796 -16.6087,-258.023 136.13,-480.335l21.952 -31.9512 27.0484 27.5764zm151.905 436.624c16.3819,-81.7914 -22.3843,-203.803 -170.287,-363.428 -118.891,183.864 -136.729,311.066 -107,388.763 25.2957,66.1099 87.5883,94.6737 147.099,89.3068 59.5359,-5.36811 116.197,-44.7898 130.187,-114.641z"/>
  <path class="fil1" d="M617.204 897.24c16.3819,-81.7914 -22.3843,-203.803 -170.287,-363.428 -118.891,183.864 -136.729,311.066 -107,388.763 25.2957,66.1099 87.5883,94.6737 147.099,89.3068 59.5359,-5.36811 116.197,-44.7898 130.187,-114.641z"/>
  <path class="fil2" d="M803.036 544.43c-58.3134,94.9418 -67.0973,160.218 -51.8315,200.117 12.3555,32.2914 42.9402,46.2307 72.1938,43.5933 29.2784,-2.63977 57.1359,-21.978 63.9957,-56.2323 8.40473,-41.9599 -11.1036,-104.576 -84.3579,-187.478z"/>
  <path class="fil2" d="M1181.24 454.238c-118.891,183.864 -136.729,311.066 -107,388.764 25.2957,66.1099 87.5883,94.6737 147.098,89.3068 59.5359,-5.3693 116.197,-44.791 130.187,-114.641 16.3831,-81.7914 -22.3831,-203.805 -170.286,-363.429z"/>
  <path class="fil2" d="M1556.51 462.782c-58.3134,94.9418 -67.0985,160.218 -51.8315,200.116 12.3555,32.2925 42.939,46.2307 72.1926,43.5933 29.2796,-2.63977 57.1359,-21.9792 63.9969,-56.2323 8.40473,-41.9587 -11.1036,-104.575 -84.3579,-187.477z"/>
  <path class="fil2" d="M1603 891.771c-58.3134,94.9418 -67.0973,160.218 -51.8304,200.117 12.3555,32.2914 42.939,46.2307 72.1938,43.5933 29.2784,-2.63977 57.1359,-21.9792 63.9957,-56.2323 8.40473,-41.9599 -11.1047,-104.576 -84.3591,-187.478z"/>
  <path class="fil1" d="M1427.41 1517.87c16.3831,-81.7914 -22.3831,-203.805 -170.287,-363.429 -118.891,183.865 -136.728,311.067 -107,388.764 25.2969,66.1099 87.5894,94.6737 147.099,89.3068 59.5359,-5.3693 116.197,-44.791 130.187,-114.641z"/>
  <path class="fil2" d="M1669.72 1564.48l0 0zm-20.2394 -243.722c-58.3122,94.9418 -67.0961,160.219 -51.8292,200.118 12.3378,32.2453 42.8528,46.1918 72.0674,43.5933 29.3481,-2.64685 57.2622,-21.9874 64.1209,-56.2335 8.40473,-41.9587 -11.1047,-104.576 -84.3591,-187.478z"/>
  <path class="fil2" d="M869.76 1217.13c29.3492,-2.64685 57.2622,-21.9874 64.1209,-56.2335 8.40473,-41.9587 -11.1036,-104.575 -84.3579,-187.477 -58.3134,94.9418 -67.0973,160.218 -51.8315,200.116 12.3378,32.2465 42.854,46.1929 72.0686,43.5945z"/>
  <path class="fil2" d="M693.081 1597.45c16.3819,-81.7926 -22.3843,-203.804 -170.287,-363.429 -118.891,183.865 -136.728,311.067 -107,388.764 25.2969,66.1099 87.5894,94.6737 147.099,89.3068 59.5359,-5.3693 116.197,-44.791 130.187,-114.641z"/>
  <path class="fil2" d="M916.247 1646.13l0 0zm-20.2382 -243.721c-58.3134,94.9418 -67.0973,160.218 -51.8315,200.116 12.3378,32.2465 42.854,46.1929 72.0686,43.5945 29.3492,-2.64685 57.2622,-21.9874 64.1209,-56.2335 8.40473,-41.9587 -11.1036,-104.575 -84.3579,-187.477z"/>
 </g>
 <rect class="fil3" width="2048" height="2048"/>
</svg>
