<?xml version="1.0" encoding="UTF-8"?>
<!DOCTYPE svg PUBLIC "-//W3C//DTD SVG 1.1//EN" "http://www.w3.org/Graphics/SVG/1.1/DTD/svg11.dtd">
<!-- Creator: CorelDRAW -->
<svg xmlns="http://www.w3.org/2000/svg" xml:space="preserve" width="2048px" height="2048px" style="shape-rendering:geometricPrecision; text-rendering:geometricPrecision; image-rendering:optimizeQuality; fill-rule:evenodd; clip-rule:evenodd"
viewBox="0 0 2048 2048"
 xmlns:xlink="http://www.w3.org/1999/xlink">
 <defs>
  <style type="text/css">
   <![CDATA[
    .fil3 {fill:none}
    .fil1 {fill:#F19A7B}
    .fil2 {fill:#FFD3B3}
    .fil0 {fill:#212121;fill-rule:nonzero}
   ]]>
  </style>
 </defs>
 <g id="Layer_x0020_1">
  <metadata id="CorelCorpID_0Corel-Layer"/>
  <g id="_540002592">
   <path id="_540002712" class="fil0" d="M535.994 826.74l497.65 -349.298 22.1469 -15.5445 18.9791 19.2945 682.482 693.843 26.4343 26.8736 -30.8091 21.626 -726.825 510.156 -29.628 20.7957 -16.9973 -32.0457 -453.306 -854.701 -13.1669 -24.8268 23.041 -16.1728zm512.254 -281.504l-452.462 317.581 423.143 797.827 666.387 -467.735 -637.068 -647.673z"/>
   <polygon id="_540003024" class="fil0" points="550.994,884.616 310.123,858.204 225.836,848.962 295.123,800.329 987.561,314.309 1024.38,288.464 1036.69,331.685 1087.88,511.506 1026.38,529.006 987.49,392.404 401.163,803.945 557.745,821.115 "/>
   <path id="_540002880" class="fil0" d="M1240.46 737.506c-33.2859,-78.3886 -18.574,-192.294 19.5307,-261.192 18.9284,-34.2248 44.3197,-59.2595 74.0989,-67.6123 32.915,-9.23268 67.4658,0.814961 100.122,38.7425 55.9205,64.9453 112.767,229.212 147.986,559.469l-63.5008 6.75119c-33.6485,-315.527 -84.1087,-467.994 -132.736,-524.47 -14.0256,-16.2898 -25.6158,-21.5173 -34.6205,-18.9921 -12.1382,3.40394 -24.4571,17.1685 -35.3492,36.8634 -30.3862,54.9414 -42.5847,144.675 -16.7811,205.441l-58.7504 24.9992z"/>
   <path id="_540002808" class="fil0" d="M1256.32 833.187c23.4792,15.3827 33.5693,43.3453 31.154,76.8544 -0.93189,12.9272 -3.79843,26.9776 -8.52284,41.5004 15.1311,1.80354 29.0457,5.09056 41.1284,9.6567 31.4859,11.9008 52.6607,32.8099 56.7591,60.5729 3.69331,25.0075 -7.47638,48.6567 -29.3032,68.1308 -7.58977,6.77127 -16.6772,13.1221 -26.9752,18.8504 6.89056,9.5067 12.4571,19.1008 16.5213,28.4788 11.6291,26.8335 11.85,52.9536 -1.96299,74.041 -15.3827,23.4792 -43.3453,33.5693 -76.8544,31.154 -12.9272,-0.93189 -26.9776,-3.79843 -41.5004,-8.52284 -1.80354,15.1311 -5.09056,29.0457 -9.6567,41.1284 -11.9008,31.4859 -32.8099,52.6607 -60.5729,56.7591 -25.0075,3.69331 -48.6567,-7.47638 -68.1308,-29.3032 -6.77127,-7.58977 -13.1221,-16.6784 -18.8504,-26.9752 -9.5067,6.89174 -19.0996,12.4571 -28.4788,16.5213 -26.8335,11.6291 -52.9536,11.85 -74.041,-1.96299 -23.4792,-15.3827 -33.5693,-43.3453 -31.154,-76.8544 0.93189,-12.9272 3.79843,-26.9776 8.52284,-41.5004 -15.1311,-1.80354 -29.0457,-5.09056 -41.1284,-9.6567 -31.4859,-11.9008 -52.6607,-32.8099 -56.7591,-60.5729 -3.69331,-25.0075 7.47638,-48.6567 29.3032,-68.1308 7.58977,-6.77127 16.6772,-13.1221 26.9752,-18.8504 -6.89056,-9.5067 -12.4571,-19.1008 -16.5213,-28.4788 -11.6291,-26.8335 -11.85,-52.9536 1.96299,-74.041 15.3827,-23.4792 43.3453,-33.5693 76.8544,-31.154 12.9272,0.93189 26.9776,3.79843 41.5004,8.52284 1.80354,-15.1311 5.09056,-29.0457 9.6567,-41.1284 11.9008,-31.4859 32.8099,-52.6607 60.5729,-56.7591 25.0075,-3.69331 48.6567,7.47638 68.1308,29.3032 6.77127,7.58977 13.1221,16.6772 18.8504,26.9752 9.5067,-6.89056 19.1008,-12.4571 28.4788,-16.5213 26.8335,-11.6291 52.9536,-11.85 74.041,1.96299zm-32.5973 72.3544c0.739371,-10.2579 0.00354331,-17.2784 -2.40355,-18.8551 -1.81772,-1.19055 -6.8315,0.022441 -13.7906,3.0378 -13.011,5.63741 -27.6768,17.1744 -41.7059,33.2481l-38.2725 43.8508 -16.3524 -55.976c-5.91497,-20.25 -14.4236,-36.8445 -23.9977,-47.576 -5.04331,-5.65276 -9.04843,-8.86064 -11.1307,-8.55355 -2.85355,0.420473 -6.46063,6.44764 -10.0736,16.0087 -6.23268,16.4929 -8.74961,39.2929 -6.36378,64.7481l5.77796 61.6371 -53.5288 -31.1374c-22.0843,-12.8457 -43.7811,-20.1284 -61.2922,-21.391 -10.2579,-0.739371 -17.2784,-0.00354331 -18.8551,2.40355 -1.19055,1.81772 0.022441,6.8315 3.0378,13.7906 5.63741,13.011 17.1744,27.6768 33.2481,41.7059l43.8508 38.2713 -55.976 16.3536c-20.25,5.91497 -36.8445,14.4225 -47.576,23.9977 -5.65276,5.04331 -8.86064,9.04843 -8.55355,11.1307 0.420473,2.85355 6.44764,6.45945 16.0087,10.0736 16.4929,6.23268 39.2929,8.74961 64.7481,6.36378l61.6359 -5.77914 -31.1362 53.53c-12.8457,22.0843 -20.1284,43.7811 -21.391,61.2922 -0.739371,10.2579 -0.00354331,17.2784 2.40355,18.8551 1.81772,1.19055 6.8315,-0.022441 13.7906,-3.0378 13.011,-5.63741 27.6768,-17.1744 41.7059,-33.2481l38.2713 -43.8508 16.3536 55.976c5.91497,20.25 14.4225,36.8445 23.9977,47.576 5.04331,5.65276 9.04843,8.86064 11.1307,8.55355 2.85355,-0.420473 6.45945,-6.44764 10.0736,-16.0087 6.23268,-16.4929 8.74961,-39.2929 6.36378,-64.7481l-5.77914 -61.6371 53.53 31.1374c22.0843,12.8457 43.7811,20.1284 61.2922,21.391 10.2579,0.739371 17.2784,0.00354331 18.8551,-2.40355 1.19055,-1.81772 -0.022441,-6.8315 -3.0378,-13.7906 -5.63741,-13.011 -17.1744,-27.6768 -33.2481,-41.7059l-43.8508 -38.2725 55.976 -16.3524c20.25,-5.91497 36.8445,-14.4236 47.576,-23.9977 5.65276,-5.04331 8.86064,-9.04843 8.55355,-11.1307 -0.420473,-2.85355 -6.44764,-6.46063 -16.0087,-10.0736 -16.4929,-6.23268 -39.2929,-8.74961 -64.7481,-6.36378l-61.6371 5.77914 31.1374 -53.53c12.8457,-22.0843 20.1284,-43.7811 21.391,-61.2922z"/>
  </g>
  <path class="fil1" d="M1059.56 1275.51c-9.5067,6.89174 -19.0996,12.4571 -28.4788,16.5213 -26.8335,11.6291 -52.9536,11.85 -74.041,-1.96299 -23.4792,-15.3827 -33.5693,-43.3453 -31.154,-76.8544 0.93189,-12.9272 3.79843,-26.9776 8.52284,-41.5004 -15.1311,-1.80354 -29.0457,-5.09056 -41.1284,-9.6567 -31.4859,-11.9008 -52.6607,-32.8099 -56.7591,-60.5729 -3.69331,-25.0075 7.47638,-48.6567 29.3032,-68.1308 7.58977,-6.77127 16.6772,-13.1221 26.9752,-18.8504 -6.89056,-9.5067 -12.4571,-19.1008 -16.5213,-28.4788 -11.6291,-26.8335 -11.85,-52.9536 1.96299,-74.041 15.3827,-23.4792 43.3453,-33.5693 76.8544,-31.154 12.9272,0.93189 26.9776,3.79843 41.5004,8.52284 1.80354,-15.1311 5.09056,-29.0457 9.6567,-41.1284 11.9008,-31.4859 32.8099,-52.6607 60.5729,-56.7591 25.0075,-3.69331 48.6567,7.47638 68.1308,29.3032 6.77127,7.58977 13.1221,16.6772 18.8504,26.9752 9.5067,-6.89056 19.1008,-12.4571 28.4788,-16.5213 26.8335,-11.6291 52.9536,-11.85 74.041,1.96299 23.4792,15.3827 33.5693,43.3453 31.154,76.8544 -0.93189,12.9272 -3.79843,26.9776 -8.52284,41.5004 15.1311,1.80354 29.0457,5.09056 41.1284,9.6567 31.4859,11.9008 52.6607,32.8099 56.7591,60.5729 3.69331,25.0075 -7.47638,48.6567 -29.3032,68.1308 -7.58977,6.77127 -16.6772,13.1221 -26.9752,18.8504 6.89056,9.5067 12.4571,19.1008 16.5213,28.4788 11.6291,26.8335 11.85,52.9536 -1.96299,74.041 -15.3827,23.4792 -43.3453,33.5693 -76.8544,31.154 -12.9272,-0.93189 -26.9776,-3.79843 -41.5004,-8.52284 -1.80354,15.1311 -5.09056,29.0457 -9.6567,41.1284 -11.9008,31.4859 -32.8099,52.6607 -60.5729,56.7591 -25.0075,3.69331 -48.6567,-7.47638 -68.1308,-29.3032 -6.77127,-7.58977 -13.1221,-16.6784 -18.8504,-26.9752zm625.759 -82.6028l-637.068 -647.673 -452.462 317.581 423.143 797.827 666.387 -467.735z"/>
  <path class="fil2" d="M1047.53 1200.29l38.2713 -43.8508 16.3536 55.976c5.91497,20.25 14.4225,36.8445 23.9977,47.576 5.04331,5.65276 9.04843,8.86064 11.1307,8.55355 2.85355,-0.420473 6.45945,-6.44764 10.0736,-16.0087 6.23268,-16.4929 8.74961,-39.2929 6.36378,-64.7481l-5.77914 -61.6371 53.53 31.1374c22.0843,12.8457 43.7811,20.1284 61.2922,21.391 10.2579,0.739371 17.2784,0.00354331 18.8551,-2.40355 1.19055,-1.81772 -0.022441,-6.8315 -3.0378,-13.7906 -5.63741,-13.011 -17.1744,-27.6768 -33.2481,-41.7059l-43.8508 -38.2725 55.976 -16.3524c20.25,-5.91497 36.8445,-14.4236 47.576,-23.9977 5.65276,-5.04331 8.86064,-9.04843 8.55355,-11.1307 -0.420473,-2.85355 -6.44764,-6.46063 -16.0087,-10.0736 -16.4929,-6.23268 -39.2929,-8.74961 -64.7481,-6.36378l-61.6371 5.77914 31.1374 -53.53c12.8457,-22.0843 20.1284,-43.7811 21.391,-61.2922 0.739371,-10.2579 0.00354331,-17.2784 -2.40355,-18.8551 -1.81772,-1.19055 -6.8315,0.022441 -13.7906,3.0378 -13.011,5.63741 -27.6768,17.1744 -41.7059,33.2481l-38.2725 43.8508 -16.3524 -55.976c-5.91497,-20.25 -14.4236,-36.8445 -23.9977,-47.576 -5.04331,-5.65276 -9.04843,-8.86064 -11.1307,-8.55355 -2.85355,0.420473 -6.46063,6.44764 -10.0736,16.0087 -6.23268,16.4929 -8.74961,39.2929 -6.36378,64.7481l5.77796 61.6371 -53.5288 -31.1374c-22.0843,-12.8457 -43.7811,-20.1284 -61.2922,-21.391 -10.2579,-0.739371 -17.2784,-0.00354331 -18.8551,2.40355 -1.19055,1.81772 0.022441,6.8315 3.0378,13.7906 5.63741,13.011 17.1744,27.6768 33.2481,41.7059l43.8508 38.2713 -55.976 16.3536c-20.25,5.91497 -36.8445,14.4225 -47.576,23.9977 -5.65276,5.04331 -8.86064,9.04843 -8.55355,11.1307 0.420473,2.85355 6.44764,6.45945 16.0087,10.0736 16.4929,6.23268 39.2929,8.74961 64.7481,6.36378l61.6359 -5.77914 -31.1362 53.53c-12.8457,22.0843 -20.1284,43.7811 -21.391,61.2922 -0.739371,10.2579 -0.00354331,17.2784 2.40355,18.8551 1.81772,1.19055 6.8315,-0.022441 13.7906,-3.0378 13.011,-5.63741 27.6768,-17.1744 41.7059,-33.2481z"/>
  <polygon class="fil2" points="545.865,819.812 1015.35,490.281 987.49,392.404 401.163,803.945 "/>
 </g>
 <rect class="fil3" width="2048" height="2048"/>
</svg>
