<?xml version="1.0" encoding="UTF-8"?>
<!DOCTYPE svg PUBLIC "-//W3C//DTD SVG 1.1//EN" "http://www.w3.org/Graphics/SVG/1.1/DTD/svg11.dtd">
<!-- Creator: CorelDRAW -->
<svg xmlns="http://www.w3.org/2000/svg" xml:space="preserve" width="2048px" height="2048px" style="shape-rendering:geometricPrecision; text-rendering:geometricPrecision; image-rendering:optimizeQuality; fill-rule:evenodd; clip-rule:evenodd"
viewBox="0 0 2048 2048"
 xmlns:xlink="http://www.w3.org/1999/xlink">
 <defs>
  <style type="text/css">
   <![CDATA[
    .fil2 {fill:none}
    .fil1 {fill:#949494}
    .fil0 {fill:#212121;fill-rule:nonzero}
   ]]>
  </style>
 </defs>
 <g id="Layer_x0020_1">
  <metadata id="CorelCorpID_0Corel-Layer"/>
  <g id="_539992008">
   <path id="_329990352" class="fil0" d="M1034.18 869.262l-401.247 0c9.30591,75.0792 50.9847,142.759 113.621,193.742 73.2556,59.6256 174.92,96.5068 287.626,96.5068 112.704,0 214.369,-36.8811 287.625,-96.5068 62.6363,-50.9835 104.315,-118.663 113.621,-193.742l-401.246 0zm-435.225 -64.0016l435.225 0 435.224 0 32.0008 0 0 32.0008c0,107.88 -53.2548,205.165 -139.35,275.243 -84.2635,68.5855 -200.216,111.008 -327.874,111.008 -127.66,0 -243.612,-42.4229 -327.875,-111.008 -86.0953,-70.0784 -139.35,-167.364 -139.35,-275.243l0 -32.0008 32.0008 0z"/>
   <path id="_329990304" class="fil0" d="M1020.66 750.563l-412.959 117.449 -27.9118 7.93938 -10.5874 -27.189c-4.06063,-10.4303 -7.44213,-20.4236 -10.1575,-29.9729 -25.9701,-91.3146 -10.2839,-184.559 37.8922,-264.99 47.2335,-78.8587 125.877,-145.192 226.944,-184.544 16.0843,-6.26221 32.2382,-11.7248 48.3992,-16.3205 120.996,-34.4126 246.259,-25.5768 350.964,16.5248 106.339,42.7583 191.867,119.94 231.375,221.403l12.7169 32.661 -33.717 9.58938 -412.959 117.45zm-400.992 47.5678l383.492 -109.068 377.084 -107.247c-37.174,-68.5595 -102.112,-121.486 -180.75,-153.105 -92.1237,-37.0429 -202.642,-44.7284 -309.715,-14.276 -15.2563,4.33819 -29.5595,9.12638 -42.8977,14.3197 -87.4099,34.0347 -155.026,90.7324 -195.194,157.794 -38.6658,64.5532 -51.7205,138.913 -32.0197,211.582z"/>
   <path id="_329990232" class="fil0" d="M730.653 448.797l-26.5418 -70.0595 -0.0413386 0.0153543c-0.442914,-1.16457 -0.884646,-2.55 -1.32165,-4.10788l0 -0.125197c-4.03111,-14.4496 -1.07362,-28.8662 7.22717,-40.9937 6.63308,-9.69213 16.8886,-17.8228 29.4567,-22.5862 1.75512,-0.664961 3.75355,-1.31339 5.9941,-1.93937 4.23071,-1.17992 13.585,-4.20355 25.7776,-8.14489 65.4839,-21.1689 200.283,-64.7445 221.12,-22.3051l38.1414 77.6953 -57.2504 27.9992 -38.1414 -77.6953c-3.55276,-7.23662 -96.0048,39.4217 -144.37,55.0571 -8.9882,2.90551 -16.5154,5.33741 -22.1303,7.0689l21.8292 57.6213 -59.7497 22.5zm33.1666 -92.6694l0.135827 0.359055 -0.135827 -0.462992 0 0.103937z"/>
   <path id="_329989968" class="fil0" d="M824.159 1171.84c4.83189,-16.9819 -5.01851,-34.6677 -22.0004,-39.4996 -16.9819,-4.83189 -34.6677,5.01851 -39.4996,22.0004l-162.794 565.473c-4.83189,16.9819 5.01851,34.6677 22.0004,39.4996 16.9819,4.83189 34.6677,-5.01851 39.4996,-22.0004l162.794 -565.473z"/>
   <path id="_539996568" class="fil0" d="M1305.7 1154.34c-4.83189,-16.9819 -22.5177,-26.8323 -39.4996,-22.0004 -16.9819,4.83189 -26.8323,22.5177 -22.0004,39.4996l162.793 565.473c4.83189,16.9819 22.5177,26.8323 39.4996,22.0004 16.9819,-4.83189 26.8323,-22.5177 22.0004,-39.4996l-162.793 -565.473z"/>
   <path id="_540002856" class="fil0" d="M1051.97 1049.39c0,-17.6728 -14.328,-32.0008 -32.0008,-32.0008 -17.6728,0 -32.0008,14.328 -32.0008,32.0008l0 710.608c0,17.6728 14.328,32.0008 32.0008,32.0008 17.6728,0 32.0008,-14.328 32.0008,-32.0008l0 -710.608z"/>
   <polygon id="_539994192" class="fil0" points="727.508,1394.07 1020.14,1483.74 1340.79,1391.43 1358.29,1452.93 1028.72,1547.81 1010.59,1547.56 708.756,1455.07 "/>
  </g>
  <path class="fil1" d="M619.673 798.131l383.492 -109.068 377.084 -107.247c-37.174,-68.5595 -102.112,-121.486 -180.75,-153.105 -92.1237,-37.0429 -202.642,-44.7284 -309.715,-14.276 -15.2563,4.33819 -29.5595,9.12638 -42.8977,14.3197 -87.4099,34.0347 -155.026,90.7324 -195.194,157.794 -38.6658,64.5532 -51.7205,138.913 -32.0197,211.582z"/>
  <path class="fil1" d="M1034.18 869.262l-401.247 0c9.30591,75.0792 50.9847,142.759 113.621,193.742 63.0945,51.3556 147.265,85.8379 241.413,94.4162l0 -108.028c0,-17.6728 14.328,-32.0008 32.0008,-32.0008 17.6728,0 32.0008,14.328 32.0008,32.0008l0 109.812c105.591,-3.65788 200.456,-39.7276 269.836,-96.1997 62.6363,-50.9835 104.315,-118.663 113.621,-193.742l-401.246 0z"/>
  <path class="fil1" d="M872.285 352.935c25.7563,-7.3252 51.7063,-12.691 77.6103,-16.1929l-14.8217 -30.1925c-3.55276,-7.23662 -96.0048,39.4217 -144.37,55.0571 -8.9882,2.90551 -16.5154,5.33741 -22.1303,7.0689l8.20631 21.6614c15.0933,-7.68898 30.8079,-14.7354 47.1059,-21.0815 16.0843,-6.26221 32.2382,-11.7248 48.3992,-16.3205z"/>
 </g>
 <rect class="fil2" width="2048" height="2048"/>
</svg>
