<?xml version="1.0" encoding="UTF-8"?>
<!DOCTYPE svg PUBLIC "-//W3C//DTD SVG 1.1//EN" "http://www.w3.org/Graphics/SVG/1.1/DTD/svg11.dtd">
<!-- Creator: CorelDRAW -->
<svg xmlns="http://www.w3.org/2000/svg" xml:space="preserve" width="2048px" height="2048px" style="shape-rendering:geometricPrecision; text-rendering:geometricPrecision; image-rendering:optimizeQuality; fill-rule:evenodd; clip-rule:evenodd"
viewBox="0 0 2048 2048"
 xmlns:xlink="http://www.w3.org/1999/xlink">
 <defs>
  <style type="text/css">
   <![CDATA[
    .fil3 {fill:none}
    .fil2 {fill:#949494}
    .fil1 {fill:#AED581}
    .fil0 {fill:#212121;fill-rule:nonzero}
   ]]>
  </style>
 </defs>
 <g id="Layer_x0020_1">
  <metadata id="CorelCorpID_0Corel-Layer"/>
  <path class="fil0" d="M1160.69 291.499c-2.92205,26.4142 21.2008,65.8713 47.5323,108.941 15.4642,25.2945 31.5969,51.6815 44.7933,79.5284 50.7107,107.011 57.502,223.293 -164.863,328.667l-19.3158 9.15355 -15.8091 -14.4036c-101.045,-92.0516 -144.229,-184.449 -132.834,-277.167 11.1874,-91.0324 75.502,-178.919 189.745,-263.844l58.8095 -43.7174 -8.05867 72.8422zm-6.96851 142.192c-18.554,-30.3496 -36.2103,-59.2359 -46.8638,-87.4347 -73.8863,63.0071 -115.528,125.589 -123.163,187.713 -8.18032,66.567 23.2784,135.631 96.6001,207.325 153.605,-79.0938 149.985,-160.185 114.97,-234.075 -11.7555,-24.8067 -26.9646,-49.6819 -41.5429,-73.5284z"/>
  <path class="fil0" d="M571.336 600.902c24.0012,22.9347 78.9816,28.6607 138.999,34.9075 34.6642,3.60827 70.8225,7.37363 105.703,14.8051 133.381,28.4221 244.49,103.713 185.195,381.99l-4.45512 20.9091 -21.1689 3.84095c-156.141,28.3252 -271.644,3.19725 -348.809,-72.3438 -75.8894,-74.2914 -111.53,-195.692 -109.339,-361.36l0.970867 -73.304 52.9052 50.5548zm132.499 98.4083c-44.5489,-4.63701 -86.7627,-9.03308 -121.852,-20.889 5.25945,119.721 34.6677,207.347 89.5666,261.089 58.2497,57.0237 148.125,77.2678 271.402,58.6512 38.4071,-207.848 -42.7323,-264.286 -140.163,-285.047 -32.1355,-6.84686 -66.2504,-10.3996 -98.954,-13.8036z"/>
  <path class="fil0" d="M1465.84 821.586c-29.6339,9.03072 -64.3382,12.6461 -100.827,16.4445 -28.2544,2.94095 -57.73,6.01063 -85.4398,11.915 -81.9745,17.4673 -150.264,65.0091 -118.9,239.558 104.055,15.1736 179.881,-2.13543 228.976,-50.1969 45.9343,-44.9681 70.9713,-118.03 76.1918,-217.721zm-107.328 -47.0563c51.3378,-5.34449 98.367,-10.2413 118.162,-29.1567l52.9052 -50.5524 0.970867 73.3016c1.91693,144.975 -29.4248,251.364 -96.1524,316.686 -68.0044,66.5729 -169.481,88.7717 -306.437,63.9284l-21.1689 -3.84095 -4.45512 -20.9091c-52.2107,-245.025 46.0618,-311.412 163.987,-336.54 30.4536,-6.48898 61.9737,-9.77127 92.1887,-12.9165z"/>
  <path class="fil0" d="M1106.15 784.134c2.41536,-17.465 -9.78544,-33.5847 -27.2504,-36 -17.465,-2.41536 -33.5847,9.78544 -36,27.2504 -6.14764,43.8189 -9.98623,88.402 -13.898,133.854 -13.128,152.537 -27.1323,315.254 -123.695,411.816 -12.4949,12.4949 -12.4949,32.7555 0,45.2504 12.4949,12.4949 32.7555,12.4949 45.2504,0 113.037,-113.037 128.088,-287.897 142.195,-451.816 3.92008,-45.5445 7.76575,-90.2186 13.3973,-130.356z"/>
  <polygon class="fil0" points="995.358,1006.73 1065.75,1099.54 1015,1138.04 944.609,1045.23 "/>
  <polygon class="fil0" points="1032.63,1106.9 1147.45,1087.29 1158.2,1150.29 1043.38,1169.9 "/>
  <path class="fil0" d="M875.945 981.241c10.976,13.8071 31.0689,16.1008 44.876,5.12481 13.8071,-10.976 16.1008,-31.0689 5.12481,-44.876 -38.4945,-48.3508 -76.6312,-87.6745 -114.443,-118.883 -38.537,-31.8071 -76.5898,-55.0382 -114.204,-70.656 -16.2921,-6.76536 -34.9855,0.957875 -41.7508,17.25 -6.76536,16.2921 0.957875,34.9855 17.25,41.7508 32.1107,13.3323 64.8225,33.352 98.2052,60.9048 34.1079,28.1516 69.0591,64.3146 104.942,109.384z"/>
  <path class="fil0" d="M1167.07 1034.34c-10.976,13.8071 -8.68229,33.9 5.12481,44.876 13.8071,10.976 33.9,8.68229 44.876,-5.12481 35.8831,-45.0697 70.8343,-81.2327 104.942,-109.384 33.3827,-27.5528 66.0945,-47.5725 98.2052,-60.9048 16.2921,-6.76536 24.0154,-25.4587 17.25,-41.7508 -6.76536,-16.2921 -25.4587,-24.0154 -41.7508,-17.25 -37.6146,15.6177 -75.6674,38.8488 -114.204,70.656 -37.8118,31.2083 -75.9485,70.5319 -114.443,118.883z"/>
  <path class="fil0" d="M1053.99 659.265c-5.38465,16.7752 3.8504,34.741 20.6256,40.1256 16.7752,5.38465 34.741,-3.8504 40.1256,-20.6256 33.7028,-104.389 24.3402,-146.502 11.1059,-206.033 -1.78465,-8.02678 -3.66969,-16.5083 -6.46772,-30.8599 -3.38268,-17.3268 -20.1732,-28.6323 -37.5,-25.2496 -17.3268,3.38268 -28.6323,20.1732 -25.2496,37.5 1.62756,8.34568 4.363,20.6528 6.96615,32.3599 11.0291,49.6099 18.8303,84.704 -9.60591,172.782z"/>
  <path class="fil0" d="M941.081 1388.36l-308.407 0c6.44882,90.8953 40.1174,172.331 91.2757,232.793 55.8591,66.0142 132.651,106.849 217.132,106.849 84.4808,0 161.273,-40.8331 217.133,-106.85 51.1583,-60.4607 84.8268,-141.897 91.2757,-232.792l-308.409 0zm-341.543 -64.0016l341.543 0 341.544 0 32.0008 0 0 32.0008c0,119.204 -41.1437,227.433 -107.661,306.044 -67.7528,80.0729 -161.737,129.6 -265.884,129.6 -104.149,0 -198.13,-49.5284 -265.883,-129.599 -66.5174,-78.6131 -107.661,-186.841 -107.661,-306.045l0 -32.0008 32.0008 0z"/>
  <path class="fil1" d="M811.503 822.607c37.8118,31.2083 75.9485,70.5319 114.443,118.883 10.976,13.8071 8.68229,33.9 -5.12481,44.876 -13.8071,10.976 -33.9,8.68229 -44.876,-5.12481 -35.8831,-45.0697 -70.8343,-81.2327 -104.942,-109.384 -33.3827,-27.5528 -66.0945,-47.5725 -98.2052,-60.9048 -16.2921,-6.76536 -24.0154,-25.4587 -17.25,-41.7508 6.76536,-16.2921 25.4587,-24.0154 41.7508,-17.25 37.6146,15.6177 75.6674,38.8488 114.204,70.656zm-139.954 116.903c58.2497,57.0237 148.125,77.2678 271.402,58.6512 38.4071,-207.848 -42.7323,-264.286 -140.163,-285.047 -32.1355,-6.84686 -66.2504,-10.3996 -98.954,-13.8036 -44.5489,-4.63701 -86.7627,-9.03308 -121.852,-20.889 5.25945,119.721 34.6677,207.347 89.5666,261.089z"/>
  <path class="fil1" d="M1125.84 472.732c13.2343,59.5311 22.5969,101.643 -11.1059,206.033 -5.38465,16.7752 -23.3504,26.0103 -40.1256,20.6256 -16.7752,-5.38465 -26.0103,-23.3504 -20.6256,-40.1256 28.4362,-88.0784 20.6351,-123.173 9.60591,-172.782 -2.60315,-11.7071 -5.33859,-24.0142 -6.96615,-32.3599 -3.38268,-17.3268 7.92284,-34.1173 25.2496,-37.5 17.3268,-3.38268 34.1173,7.92284 37.5,25.2496 2.79803,14.3516 4.68307,22.8331 6.46772,30.8599zm-142.151 61.2367c-8.18032,66.567 23.2784,135.631 96.6001,207.325 153.605,-79.0938 149.985,-160.185 114.97,-234.075 -11.7555,-24.8067 -26.9646,-49.6819 -41.5429,-73.5284 -18.554,-30.3496 -36.2103,-59.2359 -46.8638,-87.4347 -73.8863,63.0071 -115.528,125.589 -123.163,187.713z"/>
  <path class="fil1" d="M1322.02 964.704c-34.1079,28.1516 -69.0591,64.3146 -104.942,109.384 -10.976,13.8071 -31.0689,16.1008 -44.876,5.12481 -13.8071,-10.976 -16.1008,-31.0689 -5.12481,-44.876 38.4945,-48.3508 76.6312,-87.6745 114.443,-118.883 38.537,-31.8071 76.5898,-55.0382 114.204,-70.656 16.2921,-6.76536 34.9855,0.957875 41.7508,17.25 6.76536,16.2921 -0.957875,34.9855 -17.25,41.7508 -32.1107,13.3323 -64.8225,33.352 -98.2052,60.9048zm-42.4429 -114.758c-81.9745,17.4673 -150.264,65.0091 -118.9,239.558 104.055,15.1736 179.881,-2.13543 228.976,-50.1969 45.9343,-44.9681 70.9713,-118.03 76.1918,-217.721 -29.6339,9.03072 -64.3382,12.6461 -100.827,16.4445 -28.2544,2.94095 -57.73,6.01063 -85.4398,11.915z"/>
  <path class="fil2" d="M941.081 1388.36l-308.407 0c6.44882,90.8953 40.1174,172.331 91.2757,232.793 55.8591,66.0142 132.651,106.849 217.132,106.849 84.4808,0 161.273,-40.8331 217.133,-106.85 51.1583,-60.4607 84.8268,-141.897 91.2757,-232.792l-308.409 0z"/>
 </g>
 <rect class="fil3" width="2048" height="2048"/>
</svg>
