<?xml version="1.0" encoding="UTF-8"?>
<!DOCTYPE svg PUBLIC "-//W3C//DTD SVG 1.1//EN" "http://www.w3.org/Graphics/SVG/1.1/DTD/svg11.dtd">
<!-- Creator: CorelDRAW -->
<svg xmlns="http://www.w3.org/2000/svg" xml:space="preserve" width="2048px" height="2048px" style="shape-rendering:geometricPrecision; text-rendering:geometricPrecision; image-rendering:optimizeQuality; fill-rule:evenodd; clip-rule:evenodd"
viewBox="0 0 2048 2048"
 xmlns:xlink="http://www.w3.org/1999/xlink">
 <defs>
  <style type="text/css">
   <![CDATA[
    .fil5 {fill:none}
    .fil3 {fill:#AED581}
    .fil4 {fill:#B38E85}
    .fil1 {fill:#F39CC3}
    .fil2 {fill:#F45A52}
    .fil0 {fill:#212121;fill-rule:nonzero}
   ]]>
  </style>
 </defs>
 <g id="Layer_x0020_1">
  <metadata id="CorelCorpID_0Corel-Layer"/>
  <path class="fil0" d="M548.989 1293.09l950.023 0c4.7752,0 9.90237,0.628347 15.1866,1.8 11.7567,2.60788 22.9016,8.29961 31.3028,15.9957 10.7752,9.87048 17.5713,22.9075 17.5713,37.8366 0,3.08386 -0.412205,6.5563 -1.2685,10.4244l-84.4453 380.548c-3.16299,14.2571 -10.5579,27.6201 -21.8244,37.291 -10.7906,9.25985 -24.5717,15.0154 -40.9677,15.0154l-781.132 0c-16.3984,0 -30.1784,-5.75079 -40.9701,-15.0142 -11.2654,-9.67087 -18.6567,-23.028 -21.8209,-37.2922l-84.4465 -380.548c-0.858662,-3.86575 -1.26969,-7.33938 -1.26969,-10.4291 0,-14.9362 6.79725,-27.9697 17.5701,-37.8355 8.40237,-7.69725 19.5473,-13.3854 31.2981,-15.991 5.28426,-1.17284 10.415,-1.80118 15.1937,-1.80118zm947.969 64.0016l-945.915 0 81.8516 368.853c0.191339,0.864568 0.429922,1.57795 0.696851,2.05512l780.816 0c0.269292,-0.477166 0.510237,-1.19173 0.700394,-2.05512l81.8505 -368.853zm-82.9229 371.393l0.0791339 -0.0744095c-0.144095,0.127559 -0.231496,0.204331 -0.0791339,0.0744095zm-780.071 0.0011811c0.152362,0.131102 0.0661418,0.0531496 -0.0779528,-0.0744095l0.0779528 0.0744095z"/>
  <path class="fil0" d="M669.72 383.964l157.478 -98.4237 -0.0283465 -0.0448819c14.9858,-9.36615 34.7292,-4.80945 44.0953,10.1764 1.55315,2.48504 2.72126,5.10237 3.52441,7.77993 83.9528,228.861 54.9437,390.303 -17.674,482.344 -48.8386,61.8993 -117.05,92.8501 -185.397,92.8501 -68.3469,0 -136.559,-30.9508 -185.398,-92.8501 -72.8127,-92.2855 -101.792,-254.336 -17.0138,-484.164l30 10.9996 -30.0225 -11.0752c6.11575,-16.5803 24.5173,-25.063 41.0977,-18.9473 2.91969,1.07717 5.5878,2.53701 7.97008,4.29922l151.368 97.056zm157.348 -22.9973l-138.956 86.8477c-10.3347,7.37481 -24.5315,8.16142 -35.8725,0.890552l17.2725 -26.9386 -17.25 26.8748 -136.041 -87.2292c-59.8182,185.069 -36.7559,312.821 20.1,384.883 35.9504,45.5646 85.7434,68.3493 135.397,68.3493 49.6536,0 99.4454,-22.7847 135.396,-68.3493 56.8997,-72.1193 79.9524,-200.017 19.9536,-385.328z"/>
  <path class="fil0" d="M556.001 335.952c-14.0138,10.6311 -16.7563,30.6107 -6.1252,44.6244 10.6311,14.0138 30.6107,16.7563 44.6244,6.1252l75.0827 -57.0721 65.4875 60.9449c12.9095,12.0118 33.1134,11.2843 45.1252,-1.6252 12.0118,-12.9095 11.2843,-33.1134 -1.6252,-45.1252l-83.517 -77.7237c-11.0717,-11.8264 -29.5205,-13.5933 -42.6992,-3.57638l0.090945 0.119291 -96.4442 73.3087z"/>
  <path class="fil0" d="M691.762 398.89c86.9764,84.156 134.554,166.963 136.668,248.202 2.16142,83.0694 -42.4028,160.975 -139.917,233.027l-38.0008 -51.2504c79.3949,-58.6642 115.765,-118.815 114.167,-180.277 -1.64764,-63.2882 -42.5292,-131.492 -117.416,-203.951l44.4992 -45.7512z"/>
  <polygon class="fil0" points="712.118,846.462 712.118,1337.13 648.116,1337.13 648.116,846.462 "/>
  <path class="fil0" d="M663.465 1006.35c126.937,-112.272 231.372,-74.7792 345.064,-33.9626l9.85867 3.53504 46.6819 16.7398 -34.5567 35.5099c-44.0492,45.2634 -95.4461,78.0343 -156.758,93.9249 -60.4973,15.678 -129.869,14.6043 -210.412,-7.57323l16.7504 -61.5c69.2115,19.0571 127.696,20.2713 177.663,7.32284 32.3764,-8.39056 61.5154,-22.8744 87.9698,-42.4016 -79.689,-26.3717 -155.753,-38.3681 -240.01,36.1548l-42.2504 -47.7496z"/>
  <path class="fil0" d="M1260.79 383.964l157.478 -98.4237 -0.0283465 -0.0448819c14.9858,-9.36615 34.7292,-4.80945 44.0953,10.1764 1.55315,2.48504 2.72126,5.10237 3.52441,7.77993 83.9528,228.861 54.9437,390.303 -17.674,482.344 -48.8386,61.8993 -117.05,92.8501 -185.397,92.8501 -68.3457,0 -136.559,-30.9508 -185.398,-92.8501 -72.8127,-92.2855 -101.792,-254.336 -17.0138,-484.164l30 10.9996 -30.0225 -11.0752c6.11575,-16.5803 24.5173,-25.063 41.0977,-18.9473 2.91969,1.07717 5.5878,2.53701 7.97008,4.29922l151.368 97.056zm157.348 -22.9973l-138.953 86.8453c-10.3347,7.37599 -24.5339,8.16379 -35.8748,0.892914l17.2725 -26.9386 -17.25 26.8748 -136.041 -87.2292c-59.8182,185.069 -36.7559,312.821 20.1,384.883 35.9504,45.5646 85.7422,68.3493 135.397,68.3493 49.6536,0 99.4454,-22.7847 135.396,-68.3493 56.8997,-72.1193 79.9524,-200.017 19.9536,-385.328z"/>
  <path class="fil0" d="M1147.07 335.952c-14.0138,10.6311 -16.7563,30.6107 -6.1252,44.6244 10.6311,14.0138 30.6107,16.7563 44.6244,6.1252l75.0827 -57.0721 65.4875 60.9449c12.9095,12.0118 33.1134,11.2843 45.1252,-1.6252 12.0118,-12.9095 11.2843,-33.1134 -1.6252,-45.1252l-83.5182 -77.7237c-11.0728,-11.8264 -29.5205,-13.5933 -42.6992,-3.57638l0.090945 0.119291 -96.443 73.3087z"/>
  <path class="fil0" d="M1282.83 398.89c86.9764,84.156 134.554,166.963 136.668,248.202 2.16142,83.0694 -42.4016,160.975 -139.917,233.027l-38.0008 -51.2504c79.3961,-58.6642 115.765,-118.815 114.167,-180.277 -1.64764,-63.2882 -42.5292,-131.492 -117.416,-203.951l44.4992 -45.7512z"/>
  <polygon class="fil0" points="1303.19,846.462 1303.19,1337.13 1239.19,1337.13 1239.19,846.462 "/>
  <path class="fil0" d="M1254.54 1006.35c126.937,-112.272 231.372,-74.7792 345.064,-33.9626l9.85867 3.53504 46.6819 16.7398 -34.5567 35.5099c-44.0492,45.2634 -95.4438,78.0343 -156.758,93.9249 -60.4973,15.678 -129.869,14.6043 -210.412,-7.57323l16.7504 -61.5c69.2115,19.0571 127.696,20.2713 177.663,7.32284 32.3776,-8.39056 61.5154,-22.8744 87.9698,-42.4016 -79.689,-26.3717 -155.753,-38.3681 -240.01,36.1548l-42.2504 -47.7496z"/>
  <path class="fil1" d="M764.678 648.592c-1.62992,-62.6091 -41.6552,-130.028 -115.015,-201.618l-133.442 -85.5627c-59.8182,185.069 -36.7559,312.821 20.1,384.883 35.2748,44.7083 83.876,67.4847 132.595,68.3256 66.6189,-54.1441 97.2308,-109.533 95.7615,-166.028z"/>
  <path class="fil1" d="M720.132 427.802c68.9245,74.2241 106.426,147.372 108.298,219.291 0.879922,33.7985 -5.97638,66.7418 -20.9858,98.7828 56.6587,-72.1949 79.5071,-199.956 19.624,-384.909l-106.936 66.8351z"/>
  <polygon class="fil2" points="669.72,383.964 704.565,362.185 669.583,329.629 630.872,359.054 "/>
  <path class="fil1" d="M1107.29 361.412c-59.8182,185.069 -36.7559,312.821 20.1,384.883 35.2748,44.7083 83.8749,67.4847 132.597,68.3245 66.6189,-54.143 97.2296,-109.532 95.7603,-166.027 -1.62992,-62.6091 -41.6552,-130.028 -115.015,-201.618l-133.442 -85.5627z"/>
  <path class="fil1" d="M1311.2 427.802c68.9245,74.2241 106.426,147.372 108.298,219.291 0.879922,33.7973 -5.9752,66.7406 -20.9847,98.7816 56.6575,-72.1949 79.5048,-199.956 19.6228,-384.907l-106.936 66.8351z"/>
  <polygon class="fil2" points="1260.79,383.964 1295.64,362.185 1260.65,329.629 1221.94,359.054 "/>
  <path class="fil3" d="M945.725 1017.94c-77.6658,-25.702 -151.888,-37.7492 -233.607,30.6437l0 12.1488c55.4622,11.3728 103.569,10.5106 145.637,-0.390945 32.3764,-8.39056 61.5154,-22.8744 87.9698,-42.4016z"/>
  <path class="fil3" d="M1536.8 1017.94c-77.6658,-25.702 -151.888,-37.7492 -233.607,30.6437l0 12.1488c55.4622,11.3728 103.569,10.5106 145.637,-0.390945 32.3776,-8.39056 61.5154,-22.8744 87.9698,-42.4016z"/>
  <path class="fil4" d="M1496.96 1357.09l-945.915 0 81.8516 368.853c0.191339,0.864568 0.429922,1.57795 0.696851,2.05512l780.816 0c0.269292,-0.477166 0.510237,-1.19173 0.700394,-2.05512l81.8505 -368.853z"/>
 </g>
 <rect class="fil5" width="2048" height="2048"/>
</svg>
