<?xml version="1.0" encoding="UTF-8"?>
<!DOCTYPE svg PUBLIC "-//W3C//DTD SVG 1.1//EN" "http://www.w3.org/Graphics/SVG/1.1/DTD/svg11.dtd">
<!-- Creator: CorelDRAW -->
<svg xmlns="http://www.w3.org/2000/svg" xml:space="preserve" width="2048px" height="2048px" style="shape-rendering:geometricPrecision; text-rendering:geometricPrecision; image-rendering:optimizeQuality; fill-rule:evenodd; clip-rule:evenodd"
viewBox="0 0 2048 2048"
 xmlns:xlink="http://www.w3.org/1999/xlink">
 <defs>
  <style type="text/css">
   <![CDATA[
    .fil4 {fill:none}
    .fil3 {fill:#63CBE5}
    .fil1 {fill:#9DD5C0}
    .fil2 {fill:#F19A7B}
    .fil0 {fill:#212121;fill-rule:nonzero}
   ]]>
  </style>
 </defs>
 <g id="Layer_x0020_1">
  <metadata id="CorelCorpID_0Corel-Layer"/>
  <path class="fil0" d="M1031.23 937.129c49.826,6.50079 94.6985,20.6717 129.683,47.2595 43.8414,33.3189 70.7008,83.8182 70.7008,159.232 0,71.1331 -25.9736,127.07 -68.367,166.309 -45.0981,41.7426 -108.091,63.456 -177.292,63.456l-470.052 0c-73.5438,0 -140.412,-23.0055 -188.157,-67.7504 -44.4957,-41.7012 -71.7461,-101.365 -71.7461,-177.834 0,-14.5524 1.02402,-28.565 2.99292,-42.0248 9.27402,-63.3993 39.4701,-110.019 82.7457,-140.991 41.9776,-30.0437 95.6292,-44.4496 153.621,-44.4496 7.73032,0 15.5776,0.262205 23.5217,0.784253 20.0516,-103.723 81.541,-169.41 155.411,-199.275 35.6362,-14.4071 74.0564,-20.2949 112,-17.9457 37.9418,2.34921 75.5327,12.9366 109.506,31.4752 72.2965,39.4512 127.96,114.345 135.431,221.755zm91.1835 98.0091c-30.2622,-22.9996 -74.3894,-33.4973 -124.473,-37.1575l-29.9788 -2.19095 0.35315 -30.0603c1.1315,-96.2871 -43.4823,-161.867 -103.017,-194.354 -25.5898,-13.963 -54,-21.9437 -82.7564,-23.7248 -28.7575,-1.7811 -57.7489,2.63032 -84.4997,13.4457 -60.7123,24.5445 -110.42,83.0304 -120.357,178.273l-3.46181 33.189 -32.9138 -4.81418c-15.4547,-2.25945 -30.8386,-3.40748 -45.9496,-3.40748 -45.1725,0 -85.9808,10.5165 -116.622,32.4473 -29.3433,21.0012 -49.9382,53.4189 -56.4945,98.2418 -1.47402,10.0819 -2.24173,20.9988 -2.24173,32.7744 0,57.4394 19.5591,101.404 51.4949,131.334 35.4118,33.1866 86.778,50.2489 144.406,50.2489l470.052 0c53.5382,0 101.204,-15.8102 134.042,-46.2048 29.5252,-27.3284 47.615,-67.441 47.615,-119.558 0,-52.9902 -17.1721,-87.182 -45.1985,-108.482z"/>
  <path class="fil0" d="M775.131 683.448c101.134,-61.2178 219.748,-96.4595 346.591,-96.4595 185.087,0 352.657,75.0249 473.955,196.323 119.173,119.173 193.674,283.012 196.249,464.246l-64.0123 0c-2.56772,-163.566 -69.9001,-311.409 -177.487,-418.995 -109.712,-109.712 -261.284,-177.572 -428.705,-177.572 -88.7044,0 -172.957,19.0512 -248.894,53.2819 -27.6012,-11.7059 -56.9622,-18.5421 -86.5359,-20.3729 -3.71693,-0.230315 -7.43859,-0.379134 -11.1614,-0.451181z"/>
  <path class="fil0" d="M924.667 733.708c61.2886,-23.0799 127.696,-35.7142 197.055,-35.7142 154.434,0 294.253,62.6008 395.463,163.811 99.0828,99.0839 161.152,235.173 163.716,385.752l-64.0111 0c-2.55709,-132.912 -57.4595,-253.004 -144.956,-340.501 -89.6245,-89.6245 -213.444,-145.06 -350.212,-145.06 -50.7532,0 -99.7217,7.63938 -145.823,21.8221 -14.9185,-19.4669 -32.2359,-36.1914 -51.2327,-50.1095z"/>
  <path class="fil0" d="M1004.04 829.92c37.3453,-10.8662 76.8319,-16.6984 117.683,-16.6984 116.119,0 221.25,47.0717 297.349,123.17 76.1008,76.1008 123.17,181.231 123.17,297.35 0,2.07047 -0.106299,6.46182 -0.316536,13.1717l-0.0200788 0.643701 -63.8327 0c0.0425197,-0.966142 0.0767717,-1.84843 0.101575,-2.64449 0.0437008,-1.40079 0.0661418,-5.12599 0.0661418,-11.1709 0,-98.4532 -39.9036,-187.584 -104.419,-252.099 -64.513,-64.513 -153.645,-104.419 -252.098,-104.419 -33.6591,0 -66.2268,4.66654 -97.095,13.3831 -4.79292,-21.9012 -11.7709,-42.1441 -20.5878,-60.6863z"/>
  <path class="fil1" d="M1121.72 697.994c154.434,0 294.253,62.6008 395.463,163.811 99.0828,99.0839 161.152,235.173 163.716,385.752l47.0126 0c-2.56772,-163.566 -69.9001,-311.409 -177.487,-418.995 -109.712,-109.712 -261.284,-177.572 -428.705,-177.572 -88.7044,0 -172.957,19.0512 -248.894,53.2819 7.80945,3.31181 15.4772,7.01339 22.9701,11.1024 9.96733,5.43898 19.6193,11.5524 28.8685,18.3343 61.2886,-23.0799 127.696,-35.7142 197.055,-35.7142z"/>
  <path class="fil2" d="M1471.93 907.055c-89.6245,-89.6245 -213.444,-145.06 -350.212,-145.06 -50.7532,0 -99.7217,7.63938 -145.823,21.8221 10.7032,13.9642 20.1709,29.3398 28.1398,46.102 37.3453,-10.8662 76.8319,-16.6984 117.683,-16.6984 116.119,0 221.25,47.0717 297.349,123.17 76.1008,76.1008 123.17,181.231 123.17,297.35 0,2.07047 -0.106299,6.46182 -0.316536,13.1717l-0.0200788 0.643701 74.9859 0c-2.55709,-132.912 -57.4595,-253.004 -144.956,-340.501z"/>
  <path class="fil3" d="M968.315 965.729c1.1315,-96.2871 -43.4823,-161.867 -103.017,-194.354 -25.5898,-13.963 -54,-21.9437 -82.7564,-23.7248 -28.7575,-1.7811 -57.7489,2.63032 -84.4997,13.4457 -60.7123,24.5445 -110.42,83.0304 -120.357,178.273l-3.46181 33.189 -32.9138 -4.81418c-15.4547,-2.25945 -30.8386,-3.40748 -45.9496,-3.40748 -45.1725,0 -85.9808,10.5165 -116.622,32.4473 -29.3433,21.0012 -49.9382,53.4189 -56.4945,98.2418 -1.47402,10.0819 -2.24173,20.9988 -2.24173,32.7744 0,57.4394 19.5591,101.404 51.4949,131.334 35.4118,33.1866 86.778,50.2489 144.406,50.2489l470.052 0c53.5382,0 101.204,-15.8102 134.042,-46.2048 29.5252,-27.3284 47.615,-67.441 47.615,-119.558 0,-52.9902 -17.1721,-87.182 -45.1985,-108.482 -30.2622,-22.9996 -74.3894,-33.4973 -124.473,-37.1575l-29.9788 -2.19095 0.35315 -30.0603z"/>
 </g>
 <rect class="fil4" width="2048" height="2048"/>
</svg>
