<?xml version="1.0" encoding="UTF-8"?>
<!DOCTYPE svg PUBLIC "-//W3C//DTD SVG 1.1//EN" "http://www.w3.org/Graphics/SVG/1.1/DTD/svg11.dtd">
<!-- Creator: CorelDRAW -->
<svg xmlns="http://www.w3.org/2000/svg" xml:space="preserve" width="2048px" height="2048px" style="shape-rendering:geometricPrecision; text-rendering:geometricPrecision; image-rendering:optimizeQuality; fill-rule:evenodd; clip-rule:evenodd"
viewBox="0 0 2048 2048"
 xmlns:xlink="http://www.w3.org/1999/xlink">
 <defs>
  <style type="text/css">
   <![CDATA[
    .fil2 {fill:none}
    .fil1 {fill:#B38E85}
    .fil0 {fill:#212121;fill-rule:nonzero}
   ]]>
  </style>
 </defs>
 <g id="Layer_x0020_1">
  <metadata id="CorelCorpID_0Corel-Layer"/>
  <path class="fil0" d="M1032.66 406.869c-75.4619,-60.8197 -158.784,-86.1627 -247.533,-86.9705 -89.1343,-0.812599 -184.443,22.7492 -283.232,60.0567l161.843 874.088 0.625985 5.74961c0,64.6477 -7.50355,120.481 -13.9784,168.662 -8.52993,63.4666 -15.026,111.852 2.17559,144.701 14.2181,3.69095 38.3504,9.96851 63.2623,16.448 252.097,65.5701 603.548,156.979 839.579,114.744 -35.2949,-73.8532 -117.219,-99.3202 -206.672,-127.112 -160.167,-49.7599 -341.214,-106.009 -381.175,-413.359l-0.250394 -6.8752 65.3552 -750.133zm-247.032 -150.722c108.475,0.988583 209.979,33.6355 301.218,112.871l12.4028 10.7728 -1.40197 16.102 -66.5186 763.488c35.7071,263.472 195.072,313.025 336.154,356.856 119.04,36.9827 226.769,70.4516 261.04,203.888l7.98662 31.0973 -31.1114 7.77875c-250.72,62.68 -634.281,-37.0843 -905.573,-107.647 -16.5213,-4.29685 -32.5406,-8.46379 -75.3367,-19.3854l-17.8748 -12.1252c-39.1571,-53.4556 -30.7878,-115.726 -19.4776,-199.888 6.04843,-45.013 13.0465,-97.0843 13.2236,-157.814l-166.01 -896.594 -4.75512 -25.6819 24.3803 -9.69331c114.52,-45.5292 225.983,-74.9871 331.654,-74.0245z"/>
  <polygon class="fil0" points="664.362,1600.97 664.362,1728 859.56,1728 861.335,1649.32 925.086,1650.57 922.603,1760.63 921.896,1792 890.728,1792 632.362,1792 600.361,1792 600.361,1760 600.361,1600.97 "/>
  <path class="fil1" d="M501.893 379.955l161.843 874.088 0.625985 5.74961c0,64.6477 -7.50355,120.481 -13.9784,168.662 -8.52993,63.4666 -15.026,111.852 2.17559,144.701l63.2623 16.448c252.097,65.5701 603.548,156.979 839.579,114.744 -35.2949,-73.8532 -117.219,-99.3202 -206.672,-127.112 -160.167,-49.7599 -341.214,-106.009 -381.175,-413.359l-0.250394 -6.8752 65.3552 -750.133c-75.4619,-60.8197 -158.784,-86.1627 -247.533,-86.9705 -89.1343,-0.812599 -184.443,22.7492 -283.232,60.0567z"/>
  <path class="fil1" d="M860.365 1692.3c-56.3221,-13.8402 -110.354,-27.8941 -160.543,-40.9477 -9.99213,-2.59843 -19.8,-5.14961 -35.4603,-9.17717l0 85.8237 195.197 0 0.805512 -35.6988z"/>
 </g>
 <rect class="fil2" width="2048" height="2048"/>
</svg>
