<?xml version="1.0" encoding="UTF-8"?>
<!DOCTYPE svg PUBLIC "-//W3C//DTD SVG 1.1//EN" "http://www.w3.org/Graphics/SVG/1.1/DTD/svg11.dtd">
<!-- Creator: CorelDRAW -->
<svg xmlns="http://www.w3.org/2000/svg" xml:space="preserve" width="2048px" height="2048px" style="shape-rendering:geometricPrecision; text-rendering:geometricPrecision; image-rendering:optimizeQuality; fill-rule:evenodd; clip-rule:evenodd"
viewBox="0 0 2048 2048"
 xmlns:xlink="http://www.w3.org/1999/xlink">
 <defs>
  <style type="text/css">
   <![CDATA[
    .fil3 {fill:none}
    .fil2 {fill:#949494}
    .fil1 {fill:#F45A52}
    .fil0 {fill:#212121;fill-rule:nonzero}
   ]]>
  </style>
 </defs>
 <g id="Layer_x0020_1">
  <metadata id="CorelCorpID_0Corel-Layer"/>
  <path class="fil0" d="M922.137 1076.07c-101.621,-17.4874 -170.966,4.14922 -214.899,17.8595 -21.2717,6.6378 -37.6677,11.7555 -52.9146,11.7555 -38.9315,0 -56.0374,-18.9508 -56.0374,-77.9032 0,-147.149 67.3796,-280.178 176.319,-376.298 107.908,-95.2123 256.615,-154.104 420.539,-154.104 163.925,0 312.631,58.8922 420.54,154.104 108.937,96.1205 176.317,229.149 176.317,376.298 0,23.1827 -1.74449,46.4622 -5.20748,69.6815 -3.39331,22.7457 -8.58308,45.652 -15.5398,68.5654l-6.47599 21.3236 -22.2732 1.30158c-116.146,6.78544 -246.792,-4.00866 -386.092,-25.3016 -137.612,-21.0331 -284.438,-52.4611 -434.275,-87.2824zm-233.899 -43.1398c49.7209,-15.5162 128.244,-40.0205 245.146,-19.7764l1.7504 0.37441c148.317,34.4835 293.844,65.6434 430.778,86.5737 126.411,19.3228 244.83,29.8028 350.233,25.8874 3.01772,-12.3602 5.48504,-24.9638 7.39725,-37.7764 2.96339,-19.8697 4.4563,-40.0583 4.4563,-60.4311 0,-128.111 -59.0682,-244.286 -154.566,-328.549 -96.528,-85.1705 -230.253,-137.852 -378.29,-137.852 -148.036,0 -281.76,52.6807 -378.288,137.852 -95.4993,84.2623 -154.567,200.438 -154.567,328.549 0,10.5189 -13.4965,13.9016 -7.96418,13.9016 5.86772,0 18.0768,-3.81142 33.9154,-8.75316z"/>
  <path class="fil0" d="M686.258 1090.95c-73.5532,53.0788 -144.175,107.989 -207.89,167.203 -37.4114,34.7681 -72.339,70.943 -103.93,109.002 75.5268,-18.9307 152.414,-22.8933 230.479,-13.8945 110.208,12.7039 222.469,51.2717 336.318,109.924 79.167,23.0103 153.171,28.8012 222.417,18.7323 68.5914,-9.97205 132.861,-35.6055 193.178,-75.5445l249.448 -269.867 46.7504 43.2496 -252.158 272.799 -5.62559 4.87559c-69.1465,46.4138 -143.19,76.193 -222.592,87.7371 -79.0075,11.4874 -162.975,4.82244 -252.325,-21.5823l-5.62559 -2.25c-108.084,-55.9725 -213.977,-92.693 -317.034,-104.574 -101.624,-11.7154 -200.784,0.765355 -296.918,42.8788l-39.4996 -46.6252c48.0485,-73.6512 107.283,-139.964 173.617,-201.612 65.5323,-60.9024 138.3,-117.475 214.14,-172.204l37.2496 51.7512z"/>
  <path class="fil0" d="M1287.59 585.469l-0.0200788 -0.00354331c-25.8981,-3.99922 -49.8095,-1.95354 -67.526,4.58859 -11.4945,4.24489 -18.9992,9.40513 -19.7811,14.4697 -0.778347,5.03622 4.84961,12.2291 14.5736,19.7823 14.9008,11.5748 37.0595,20.7366 62.9339,24.7347l0.00354331 0c25.904,4.00276 49.8201,1.95709 67.5414,-4.58622 11.4933,-4.24489 18.998,-9.40276 19.7811,-14.4685l0 -0.0011811m-67.7327 -107.512c37.0229,5.72481 69.6296,19.5354 92.4107,37.2319 27.9603,21.7205 42.9449,50.1142 38.3221,80.028l0 0.00354331c-4.61929,29.8866 -27.5103,52.4315 -60.7819,64.7186 -27.0461,9.98741 -62.2819,13.3051 -99.2894,7.58623l-0.00354331 0c-37.0335,-5.72245 -69.6497,-19.5354 -92.4355,-37.2355 -27.9626,-21.7217 -42.9461,-50.1166 -38.3233,-80.0327 4.61929,-29.8878 27.5103,-52.4315 60.7819,-64.7186 27.0473,-9.98741 62.2831,-13.3051 99.2918,-7.58623l0.0271654 0.00472441zm53.1603 87.7312c-14.9008,-11.5748 -37.0583,-20.7366 -62.9339,-24.7347m140.506 54.2634l0 0.00236221m-63 -9.75119c0.777166,-5.03386 -4.84961,-12.2268 -14.5725,-19.7799m-82.4989 101.837l-0.00236221 0m9.74765 -63l0.00236221 0"/>
  <path class="fil0" d="M1386.78 676.388c54.378,72.6367 97.2107,147.972 125.267,226.751 28.3276,79.5414 41.6327,162.533 36.6296,249.722l-63.7512 -3.50079c4.4941,-78.3296 -7.53662,-153.11 -33.1288,-224.971 -25.8626,-72.6213 -65.5418,-142.328 -116.016,-209.75l51 -38.2512z"/>
  <path class="fil1" d="M1356.41 1163.35c-137.612,-21.0331 -284.438,-52.4611 -434.275,-87.2824 -101.621,-17.4874 -170.966,4.14922 -214.899,17.8595 -15.2953,4.77284 -28.0701,8.76024 -39.7087,10.6228 -66.8044,48.8599 -130.873,99.4288 -189.161,153.599 -37.4114,34.7681 -72.339,70.943 -103.93,109.002 75.5268,-18.9307 152.414,-22.8933 230.479,-13.8945 110.208,12.7039 222.469,51.2717 336.318,109.924 79.167,23.0103 153.171,28.8012 222.417,18.7323 68.5914,-9.97205 132.861,-35.6055 193.178,-75.5445l203.09 -219.715c-65.1319,-4.48819 -133.218,-12.5587 -203.508,-23.3032z"/>
  <path class="fil1" d="M1268.03 712.041l0 0zm-332.894 301.487c148.317,34.4835 293.844,65.6434 430.778,86.5737 40.8697,6.24686 80.9044,11.5701 119.933,15.7807 -0.157087,-66.2375 -12.1287,-129.937 -34.0512,-191.493 -25.8626,-72.6213 -65.5418,-142.328 -116.016,-209.75l3.74055 -2.80512c-21.6236,3.80197 -46.141,4.12441 -71.4934,0.206693 -37.0335,-5.72245 -69.6497,-19.5354 -92.4355,-37.2355 -27.9626,-21.7217 -42.9461,-50.1166 -38.3233,-80.0327 1.8248,-11.8075 6.50197,-22.4693 13.5437,-31.8047 -130.3,9.36969 -247.164,59.6835 -333.956,136.265 -95.4993,84.2623 -154.567,200.438 -154.567,328.549 0,10.5189 -13.4965,13.9016 -7.96418,13.9016 5.86772,0 18.0768,-3.81142 33.9154,-8.75316 49.7209,-15.5162 128.244,-40.0205 245.146,-19.7764l1.7504 0.37441z"/>
  <path class="fil1" d="M1428.1 639.733l0 0zm-31.8225 49.5343c49.8792,68.6552 89.3658,139.739 115.767,213.872 24.9461,70.0477 38.2429,142.772 37.6441,218.681 58.2969,4.5 113.989,6.11811 166.456,4.16929 3.01772,-12.3602 5.48504,-24.9638 7.39725,-37.7764 2.96339,-19.8697 4.4563,-40.0583 4.4563,-60.4311 0,-128.111 -59.0682,-244.286 -154.566,-328.549 -42.7264,-37.6996 -92.7402,-69.0331 -148.057,-92.2501 3.43347,10.5213 4.45866,21.528 2.72481,32.7532 -3.11339,20.1425 -14.5264,36.9508 -31.8225,49.5307z"/>
  <path class="fil2" d="M1277.78 649.041c25.904,4.00276 49.8201,1.95709 67.5414,-4.58622 11.4933,-4.24489 18.998,-9.40276 19.7811,-14.4709 0.777166,-5.03386 -4.84961,-12.2268 -14.5725,-19.7799 -14.9008,-11.5748 -37.0583,-20.7366 -62.9339,-24.7347l-0.0200788 -0.00354331c-25.8981,-3.99922 -49.8095,-1.95354 -67.526,4.58859 -11.4945,4.24489 -18.9992,9.40513 -19.7811,14.4697 -0.778347,5.03622 4.84961,12.2291 14.5736,19.7823 14.9008,11.5748 37.0595,20.7366 62.9374,24.7347z"/>
 </g>
 <rect class="fil3" width="2048" height="2048"/>
</svg>
