<?xml version="1.0" encoding="UTF-8"?>
<!DOCTYPE svg PUBLIC "-//W3C//DTD SVG 1.1//EN" "http://www.w3.org/Graphics/SVG/1.1/DTD/svg11.dtd">
<!-- Creator: CorelDRAW -->
<svg xmlns="http://www.w3.org/2000/svg" xml:space="preserve" width="2048px" height="2048px" style="shape-rendering:geometricPrecision; text-rendering:geometricPrecision; image-rendering:optimizeQuality; fill-rule:evenodd; clip-rule:evenodd"
viewBox="0 0 2048 2048"
 xmlns:xlink="http://www.w3.org/1999/xlink">
 <defs>
  <style type="text/css">
   <![CDATA[
    .fil3 {fill:none}
    .fil2 {fill:#B38E85}
    .fil1 {fill:#F19A7B}
    .fil0 {fill:#212121;fill-rule:nonzero}
   ]]>
  </style>
 </defs>
 <g id="Layer_x0020_1">
  <metadata id="CorelCorpID_0Corel-Layer"/>
  <path class="fil0" d="M1636.47 845.467c22.9536,15.039 32.8004,42.6366 30.4063,75.8245 -1.04055,14.4449 -4.47874,30.2918 -10.2083,46.6571 17.2299,1.66654 33.0201,5.18977 46.5272,10.2945 31.1764,11.7839 52.1221,32.3185 56.1284,59.4591 3.60591,24.4169 -7.44331,47.6363 -28.9961,66.8658 -8.61379,7.68544 -19.1551,14.8394 -31.2095,21.1725 8.22875,10.7906 14.7768,21.7252 19.3902,32.3705 11.4827,26.4981 11.778,52.1823 -1.71496,72.7749 -15.0378,22.9524 -42.6355,32.7992 -75.8245,30.4051 -14.4437,-1.04055 -30.2918,-4.47756 -46.6559,-10.2083 -1.66654,17.2299 -5.18977,33.0189 -10.2945,46.526 -11.7839,31.1788 -32.3197,52.1221 -59.4591,56.1308 -24.4169,3.60591 -47.6363,-7.44331 -66.867,-28.9973 -7.68544,-8.61261 -14.8382,-19.1551 -21.1713,-31.2095 -10.7906,8.22993 -21.7252,14.7768 -32.3717,19.3902 -26.4969,11.4827 -52.1811,11.7791 -72.7737,-1.71378 -22.9524,-15.0378 -32.8004,-42.6366 -30.4063,-75.8256 1.04055,-14.4437 4.47874,-30.2906 10.2083,-46.6559 -17.2299,-1.66536 -33.0189,-5.18977 -46.526,-10.2945 -31.1764,-11.7839 -52.1209,-32.3197 -56.1296,-59.4591 -3.60591,-24.4169 7.44331,-47.6363 28.9961,-66.8658 8.61379,-7.68544 19.1551,-14.8394 31.2095,-21.1713 -8.22875,-10.7906 -14.7756,-21.7264 -19.3902,-32.3717 -11.4815,-26.4981 -11.778,-52.1835 1.71496,-72.7749 15.0378,-22.9536 42.6355,-32.8004 75.8245,-30.4063 14.4437,1.04055 30.2918,4.47874 46.6571,10.2083 1.66536,-17.2288 5.18859,-33.0201 10.2933,-46.526 11.7839,-31.1776 32.3197,-52.1233 59.4603,-56.1296 24.4169,-3.60591 47.6351,7.44331 66.8658,28.9973 7.68544,8.61261 14.8382,19.1551 21.1713,31.2095 10.7906,-8.22993 21.7252,-14.7768 32.3717,-19.3902 26.4969,-11.4827 52.1811,-11.7791 72.7737,1.71378zm-27.4902 71.7379c0.869292,-12.0721 -0.479528,-20.6516 -4.29567,-23.152 -3.09449,-2.02677 -9.60828,-0.832678 -18.0567,2.82756 -13.9937,6.06378 -29.667,18.3567 -44.563,35.4225l-34.7599 39.8233 -14.8488 -50.8359c-6.28937,-21.5339 -15.391,-39.2422 -25.6666,-50.7591 -6.1252,-6.86457 -11.5039,-10.6831 -15.1016,-10.1528 -4.52126,0.667323 -9.33898,7.85434 -13.5969,19.1209 -6.64843,17.5914 -9.34371,41.8016 -6.81851,68.7378l5.24764 55.9748 -48.613 -28.2756c-23.3729,-13.5945 -46.428,-21.3083 -65.1166,-22.6547 -12.0732,-0.870473 -20.6528,0.479528 -23.152,4.29567 -2.02677,3.09449 -0.833859,9.60709 2.82756,18.0567 6.06378,13.9937 18.3555,29.667 35.4213,44.563l39.8233 34.7587 -50.8347 14.8488c-21.5339,6.29056 -39.2422,15.3921 -50.7591,25.6677 -6.86457,6.1252 -10.6831,11.5016 -10.1528,15.1004 0.667323,4.5189 7.85434,9.34016 19.1221,13.598 17.5902,6.64843 41.7992,9.34253 68.7367,6.81733l55.9748 -5.24764 -28.2756 48.6142c-13.5945,23.3717 -21.3083,46.428 -22.6559,65.1166 -0.869292,12.0721 0.479528,20.6516 4.29567,23.1508 3.09449,2.02795 9.60828,0.833859 18.0579,-2.82638 13.9925,-6.06378 29.667,-18.3567 44.5618,-35.4225l34.7587 -39.8233 14.85 50.8347c6.29056,21.5351 15.391,39.2422 25.6677,50.7603 6.12402,6.86457 11.5016,10.6831 15.1004,10.1516 4.5189,-0.666142 9.33898,-7.85316 13.598,-19.1209 6.64725,-17.5902 9.34253,-41.8004 6.81733,-68.7378l-5.24882 -55.9748 48.6142 28.2768c23.3729,13.5945 46.428,21.3083 65.1166,22.6547 12.0732,0.870473 20.6516,-0.479528 23.152,-4.29567 2.02795,-3.09449 0.833859,-9.60709 -2.82756,-18.0567 -6.06378,-13.9937 -18.3555,-29.667 -35.4213,-44.563l-39.8244 -34.7599 50.8359 -14.8488c21.5339,-6.28937 39.2422,-15.391 50.7591,-25.6666 6.86575,-6.1252 10.6843,-11.5028 10.1528,-15.1004 -0.667323,-4.52126 -7.85434,-9.34016 -19.1209,-13.598 -17.5914,-6.64843 -41.8004,-9.34253 -68.7378,-6.81733l-55.976 5.24646 28.2768 -48.613c13.5957,-23.3729 21.3083,-46.428 22.6559,-65.1166z"/>
  <path class="fil0" d="M1483.93 996.933c22.4752,0 42.8268,9.11457 57.5599,23.8453 14.7319,14.7331 23.8453,35.0847 23.8453,57.5599 0,22.4764 -9.11339,42.828 -23.8465,57.5587 -14.7307,14.7331 -35.0823,23.8465 -57.5587,23.8465 -22.4752,0 -42.8268,-9.11339 -57.5599,-23.8453 -14.7307,-14.7331 -23.8453,-35.0847 -23.8453,-57.5599 0,-22.4752 9.11339,-42.8268 23.8453,-57.5599 14.7331,-14.7319 35.0847,-23.8453 57.5599,-23.8453zm12.3095 69.0957c-3.14646,-3.14646 -7.50001,-5.0941 -12.3095,-5.0941 -4.80945,0 -9.163,1.94764 -12.3095,5.0941 -3.14646,3.14646 -5.0941,7.50001 -5.0941,12.3095 0,4.80945 1.94764,9.163 5.0941,12.3095 3.14646,3.14646 7.50001,5.0941 12.3095,5.0941 4.80827,0 9.16182,-1.94764 12.3083,-5.09528 3.14764,-3.14646 5.09528,-7.50001 5.09528,-12.3083 0,-4.80945 -1.94764,-9.163 -5.0941,-12.3095z"/>
  <path class="fil0" d="M1126.8 382c22.8792,14.9894 32.7201,42.1441 30.378,74.641 -0.861024,11.9386 -3.43465,24.8681 -7.65591,38.2335 13.8685,1.77638 26.6445,4.85788 37.7988,9.07324 30.5339,11.5406 51.0815,31.8827 55.0772,58.9382 3.60118,24.3815 -7.2378,47.3906 -28.428,66.2977 -6.96024,6.20906 -15.2244,12.0484 -24.554,17.3528 6.19371,8.71654 11.2264,17.4992 14.9528,26.0988 11.289,26.0516 11.4815,51.4536 -1.9878,72.0107 -14.9894,22.8792 -42.1441,32.7201 -74.641,30.378 -11.9386,-0.861024 -24.8681,-3.43465 -38.2335,-7.65591 -1.7752,13.8685 -4.8567,26.6445 -9.07205,37.7988 -11.5406,30.5339 -31.8827,51.0815 -58.9382,55.0772 -24.3803,3.60118 -47.3929,-7.23898 -66.2977,-28.428 -6.20906,-6.95906 -12.0496,-15.2244 -17.354,-24.554 -8.71536,6.19371 -17.4992,11.2264 -26.0977,14.9528 -26.0516,11.289 -51.4536,11.4815 -72.0107,-1.9878 -22.8803,-14.9906 -32.7225,-42.1453 -30.378,-74.641 0.861024,-11.9386 3.43583,-24.8669 7.65591,-38.2335 -13.8697,-1.7752 -26.6445,-4.8567 -37.8,-9.07205 -30.5351,-11.5406 -51.0827,-31.8851 -55.076,-58.9382 -3.60118,-24.3815 7.23662,-47.3906 28.4268,-66.2977 6.95906,-6.20906 15.2232,-12.0496 24.554,-17.354 -6.19252,-8.71654 -11.2264,-17.4992 -14.9528,-26.0977 -11.289,-26.0516 -11.478,-51.4548 1.9878,-72.0107 14.9917,-22.8792 42.1453,-32.7225 74.6422,-30.378 11.9374,0.861024 24.8669,3.43465 38.2323,7.65591 1.7752,-13.8685 4.8567,-26.6457 9.07205,-37.8 11.5429,-30.5362 31.8862,-51.0827 58.9394,-55.076 24.3815,-3.60118 47.3918,7.2378 66.2977,28.428 6.20906,6.95906 12.0496,15.2244 17.354,24.554 8.71536,-6.19371 17.4992,-11.2276 26.0977,-14.9539 26.0516,-11.289 51.4548,-11.478 72.0107,1.9878zm-33.3733 70.141c0.666142,-9.24568 0.179528,-15.4583 -1.62756,-16.6417 -1.28858,-0.844489 -5.58308,0.336614 -11.7602,3.01299 -12.2102,5.29134 -26.0126,16.1622 -39.2504,31.3288l-38.2725 43.8508 -16.3524 -55.976c-5.57717,-19.0949 -13.5815,-34.7221 -22.5756,-44.8028 -4.47638,-5.01733 -7.84134,-7.89331 -9.29764,-7.67835 -2.14606,0.316536 -5.18504,5.71418 -8.44016,14.3256 -5.87008,15.5351 -8.23701,37.0477 -5.98347,61.1008l5.77678 61.6347 -53.5276 -31.1351c-20.8677,-12.137 -41.3339,-19.0169 -57.8197,-20.2051 -9.24568,-0.666142 -15.4583,-0.180709 -16.6429,1.62756 -0.844489,1.28858 0.336614,5.58308 3.01299,11.7602 5.29134,12.2102 16.1622,26.0126 31.3288,39.2504l43.852 38.2748 -55.9772 16.35c-19.0961,5.57717 -34.7221,13.5803 -44.804,22.5756 -5.01733,4.47638 -7.89213,7.84134 -7.67717,9.29764 0.316536,2.14606 5.71418,5.18504 14.3256,8.43898 15.5351,5.87008 37.0477,8.23701 61.1008,5.98347l61.6347 -5.77559 -31.1351 53.5264c-12.137,20.8677 -19.0169,41.3339 -20.2051,57.8209 -0.666142,9.24568 -0.180709,15.4571 1.62756,16.6417 1.28976,0.844489 5.58308,-0.336614 11.7602,-3.01299 12.2102,-5.29016 26.0126,-16.161 39.2504,-31.3288l38.2737 -43.852 16.3512 55.9772c5.57717,19.0961 13.5803,34.7221 22.5756,44.804 4.47638,5.01733 7.84134,7.89331 9.29764,7.67835 2.14606,-0.316536 5.18386,-5.71418 8.43898,-14.3268 5.87008,-15.5351 8.23701,-37.0477 5.98347,-61.0997l-5.77559 -61.6335 53.5264 31.1339c20.8677,12.137 41.3339,19.0169 57.8209,20.2051 9.24568,0.666142 15.4571,0.180709 16.6417,-1.62756 0.844489,-1.28858 -0.336614,-5.58308 -3.01299,-11.7602 -5.29016,-12.2102 -16.161,-26.0126 -31.3288,-39.2504l-43.8508 -38.2701 55.976 -16.3547c19.0973,-5.57835 34.7233,-13.5815 44.804,-22.5756 5.01733,-4.47638 7.89331,-7.84134 7.67835,-9.29764 -0.316536,-2.14488 -5.71536,-5.18504 -14.3268,-8.43898 -15.5339,-5.87126 -37.0477,-8.2382 -61.0997,-5.98465l-61.6347 5.77678 31.1351 -53.5276c12.137,-20.8677 19.0169,-41.3339 20.2051,-57.8209z"/>
  <path class="fil0" d="M983.267 523.549c21.4146,0 40.8071,8.68347 54.8445,22.7209 14.0374,14.0374 22.7209,33.4288 22.7209,54.8433 0,21.4146 -8.68465,40.8059 -22.7209,54.8445 -14.0386,14.0362 -33.4299,22.7209 -54.8445,22.7209 -21.4146,0 -40.8059,-8.68347 -54.8433,-22.7209 -14.0362,-14.0386 -22.7209,-33.4299 -22.7209,-54.8445 0,-21.4146 8.68347,-40.8059 22.7209,-54.8433 14.0374,-14.0374 33.4288,-22.7209 54.8433,-22.7209zm9.5941 67.9713c-2.45197,-2.45197 -5.84528,-3.96969 -9.5941,-3.96969 -3.74882,0 -7.14095,1.51772 -9.59292,3.96969 -2.45197,2.45197 -3.96969,5.8441 -3.96969,9.59292 0,3.74882 1.5189,7.14213 3.96969,9.5941 2.45197,2.45197 5.8441,3.96969 9.59292,3.96969 3.74882,0 7.14213,-1.5189 9.5941,-3.96969 2.45079,-2.45197 3.96969,-5.84528 3.96969,-9.5941 0,-3.74882 -1.51772,-7.14095 -3.96969,-9.59292z"/>
  <path class="fil0" d="M287.999 898.821l0 -174.367 0 -44.6989 39.6343 18.248c40.8685,18.8162 78.8776,36.4264 114.438,52.8981 377.1,174.691 476.177,220.555 805.125,231.737 1.3441,5.25237 3.15,10.5732 5.4,15.9272 4.47402,10.6453 10.8236,21.5811 18.8043,32.3717 -5.90315,3.19725 -11.4319,6.60473 -16.5354,10.1835 -346.333,-10.6547 -445.16,-56.4059 -835.693,-237.319 -23.798,-11.0232 -48.691,-22.5555 -74.804,-34.6181l0 110.358 12.4099 5.35748c429.195,185.323 536.458,231.604 858.134,242.881 6.62835,22.7929 25.6618,40.1811 52.5355,50.654 11.9032,4.63937 25.6347,7.97245 40.5815,9.79253 -408.812,-6.24331 -494.536,-43.2225 -972.83,-249.744l-29.8051 -12.8693 -17.3953 -7.50945 0 -19.2815zm1022.11 231.277c15.1831,0.236221 30.8634,0.426378 46.9949,0.583465l-3.17953 0.307087c-15.8622,1.53307 -30.7488,1.14213 -43.8154,-0.890552z"/>
  <path class="fil0" d="M971.907 794.001c-9.10631,37.5591 -20.8583,71.5016 -35.4945,101.49 -15.091,30.9213 -33.3709,58.0512 -55.0949,81.0674l-46.5 -43.7504c17.0894,-18.1051 31.7268,-39.9768 44.0941,-65.3162 12.8232,-26.2736 23.0847,-55.8662 30.9945,-88.4906l62.0008 15z"/>
  <path class="fil0" d="M793.848 1227.77c22.8792,14.9894 32.7225,42.1453 30.378,74.641 -0.861024,11.9386 -3.43583,24.8669 -7.65591,38.2335 13.8697,1.7752 26.6445,4.8567 37.8,9.07205 30.5351,11.5406 51.0827,31.8851 55.076,58.9382 3.60118,24.3815 -7.2378,47.3918 -28.428,66.2977 -6.95906,6.20906 -15.2244,12.0496 -24.554,17.354 6.19371,8.71536 11.2276,17.4992 14.9539,26.0977 11.289,26.0516 11.478,51.4548 -1.9878,72.0107 -14.9906,22.8803 -42.1453,32.7225 -74.641,30.378 -11.9386,-0.861024 -24.8669,-3.43583 -38.2335,-7.65591 -1.7752,13.8697 -4.8567,26.6445 -9.07205,37.8 -11.5406,30.5351 -31.8862,51.0827 -58.9394,55.076 -24.3792,3.60118 -47.3906,-7.23662 -66.2965,-28.428 -6.21024,-6.95906 -12.0496,-15.2244 -17.354,-24.554 -8.71654,6.19252 -17.4992,11.2264 -26.0988,14.9528 -26.0516,11.2913 -51.4524,11.4803 -72.0095,-1.98662 -22.8803,-14.9917 -32.7213,-42.1441 -30.3792,-74.641 0.861024,-11.9386 3.43465,-24.8681 7.65591,-38.2335 -13.8685,-1.77638 -26.6445,-4.85788 -37.7988,-9.07324 -30.5339,-11.5406 -51.0815,-31.8827 -55.0772,-58.9382 -3.60118,-24.3803 7.2378,-47.3906 28.4292,-66.2977 6.95906,-6.20906 15.2244,-12.0496 24.554,-17.354 -6.19252,-8.71536 -11.2276,-17.4992 -14.9539,-26.0988 -11.289,-26.0504 -11.4815,-51.4524 1.9878,-72.0095 14.9894,-22.8792 42.1441,-32.7201 74.641,-30.378 11.9386,0.861024 24.8669,3.43465 38.2335,7.65591 1.7752,-13.8685 4.8567,-26.6445 9.07205,-37.7988 11.5406,-30.5339 31.8827,-51.0815 58.9382,-55.0772 24.3792,-3.60118 47.3929,7.23898 66.2977,28.428 6.20906,6.96024 12.0496,15.2244 17.354,24.554 8.71536,-6.19252 17.4992,-11.2264 26.0977,-14.9528 26.0516,-11.289 51.4536,-11.4815 72.0107,1.9878zm-33.3733 70.141c0.666142,-9.24568 0.180709,-15.4571 -1.62756,-16.6417 -1.28858,-0.844489 -5.58308,0.336614 -11.7602,3.01299 -12.2091,5.29134 -26.0114,16.161 -39.2492,31.3288l-38.2701 43.8496 -16.3547 -55.9748c-5.57835,-19.0961 -13.5815,-34.7221 -22.5768,-44.804 -4.47638,-5.01733 -7.84134,-7.89331 -9.29764,-7.67835 -2.14488,0.316536 -5.18386,5.71418 -8.43898,14.3268 -5.87008,15.5339 -8.23701,37.0465 -5.98347,61.0997l5.77678 61.6335 -53.5276 -31.1339c-20.8677,-12.137 -41.3339,-19.0169 -57.8209,-20.2051 -9.24568,-0.666142 -15.4571,-0.180709 -16.6417,1.62756 -0.844489,1.28858 0.336614,5.58308 3.01299,11.7591 5.29134,12.2114 16.161,26.0126 31.3288,39.2516l43.8508 38.2737 -55.976 16.3512c-19.0961,5.57717 -34.7221,13.5815 -44.8028,22.5756 -5.01851,4.47756 -7.89449,7.84134 -7.67953,9.29764 0.316536,2.14488 5.71536,5.18504 14.3268,8.43898 15.5339,5.87126 37.0477,8.2382 61.0997,5.98465l61.6347 -5.77678 -31.1351 53.5276c-12.137,20.8677 -19.0169,41.3339 -20.2051,57.8209 -0.666142,9.24568 -0.179528,15.4571 1.62874,16.6417 1.28858,0.844489 5.58189,-0.336614 11.7591,-3.01418 12.2114,-5.29134 26.0138,-16.1622 39.2504,-31.3288l38.2713 -43.8508 16.3536 55.976c5.57835,19.0961 13.5827,34.7233 22.5768,44.804 4.47638,5.01733 7.84134,7.89331 9.29646,7.67835 2.14725,-0.316536 5.18622,-5.71418 8.44016,-14.3256 5.87008,-15.5351 8.23701,-37.0477 5.98347,-61.1008l-5.77559 -61.6347 53.5264 31.1351c20.8677,12.137 41.3339,19.0169 57.8209,20.2051 9.24568,0.666142 15.4571,0.180709 16.6417,-1.62756 0.844489,-1.28976 -0.336614,-5.58308 -3.01299,-11.7602 -5.29134,-12.2102 -16.1622,-26.0126 -31.3288,-39.2504l-43.8496 -38.2737 55.9748 -16.3512c19.0949,-5.57717 34.7221,-13.5815 44.8028,-22.5756 5.01733,-4.47638 7.89331,-7.84134 7.67835,-9.29764 -0.316536,-2.14488 -5.71418,-5.18504 -14.3256,-8.43898 -15.5339,-5.87008 -37.0477,-8.23701 -61.1008,-5.98347l-61.6335 5.77559 31.1339 -53.5264c12.137,-20.8677 19.0169,-41.3339 20.2051,-57.8209z"/>
  <path class="fil0" d="M650.317 1369.32c21.4146,0 40.8059,8.68347 54.8433,22.7209 14.0374,14.0374 22.7209,33.4299 22.7209,54.8445 0,21.4146 -8.68347,40.8059 -22.7209,54.8433 -14.0374,14.0374 -33.4288,22.7209 -54.8433,22.7209 -21.4146,0 -40.8059,-8.68465 -54.8445,-22.7209 -14.0374,-14.0374 -22.7209,-33.4288 -22.7209,-54.8433 0,-21.4146 8.68465,-40.8059 22.7209,-54.8445 14.0374,-14.0374 33.4299,-22.7209 54.8445,-22.7209zm9.59292 67.9713c-2.45197,-2.45197 -5.8441,-3.96969 -9.59292,-3.96969 -3.74882,0 -7.14213,1.51772 -9.5941,3.96969 -2.45079,2.45197 -3.96969,5.84528 -3.96969,9.5941 0,3.74882 1.51772,7.14095 3.96969,9.59292 2.45197,2.45197 5.84528,3.96969 9.5941,3.96969 3.74882,0 7.14095,-1.51772 9.59292,-3.96969 2.45197,-2.45197 3.96969,-5.8441 3.96969,-9.59292 0,-3.74882 -1.51772,-7.14213 -3.96969,-9.5941z"/>
  <path class="fil0" d="M746.82 1065.93c3.29528,37.9252 2.91969,73.8249 -1.46693,107.508 -4.46575,34.2981 -13.1126,65.8548 -26.289,94.4351l-57.9993 -26.7496c10.4988,-22.774 17.4213,-48.1548 21.0378,-75.9367 3.69803,-28.3984 3.92244,-59.7343 0.966142,-93.7572l63.7512 -5.49922z"/>
  <path class="fil1" d="M851.995 543.593l43.852 38.2748 -55.9772 16.35c-19.0961,5.57717 -34.7221,13.5803 -44.804,22.5756 -5.01733,4.47638 -7.89213,7.84134 -7.67717,9.29764 0.316536,2.14606 5.71418,5.18504 14.3256,8.43898 15.5351,5.87008 37.0477,8.23701 61.1008,5.98347l53.0658 -4.97244c-6.47599,-11.3291 -10.1776,-24.4477 -10.1776,-38.4284 0,-21.4146 8.68347,-40.8059 22.7209,-54.8433 3.02481,-3.02481 6.29882,-5.80158 9.78898,-8.29607l-46.0973 -26.8134c-20.8677,-12.137 -41.3339,-19.0169 -57.8197,-20.2051 -9.24568,-0.666142 -15.4583,-0.180709 -16.6429,1.62756 -0.844489,1.28858 0.336614,5.58308 3.01299,11.7602 5.29134,12.2102 16.1622,26.0126 31.3288,39.2504z"/>
  <path class="fil1" d="M939.866 480.661l4.97363 53.0646c11.3291,-6.47599 24.4465,-10.1764 38.4272,-10.1764 21.4146,0 40.8071,8.68347 54.8445,22.7209 3.02481,3.02481 5.80158,6.29882 8.29607,9.78898l26.8134 -46.0973c12.137,-20.8677 19.0169,-41.3339 20.2051,-57.8209 0.666142,-9.24568 0.179528,-15.4583 -1.62756,-16.6417 -1.28858,-0.844489 -5.58308,0.336614 -11.7602,3.01299 -12.2102,5.29134 -26.0126,16.1622 -39.2504,31.3288l-38.2725 43.8508 -16.3524 -55.976c-5.57717,-19.0949 -13.5815,-34.7221 -22.5756,-44.8028 -4.47638,-5.01733 -7.84134,-7.89331 -9.29764,-7.67835 -2.14606,0.316536 -5.18504,5.71418 -8.44016,14.3256 -5.87008,15.5351 -8.23701,37.0477 -5.98347,61.1008z"/>
  <path class="fil1" d="M1103.72 557.712l-53.0646 4.97363c6.47599,11.3291 10.1764,24.4465 10.1764,38.4272 0,21.4146 -8.68465,40.8059 -22.7209,54.8445 -3.02599,3.02481 -6.3,5.80158 -9.79017,8.29725l46.0973 26.8122c20.8677,12.137 41.3339,19.0169 57.8209,20.2051 9.24568,0.666142 15.4571,0.180709 16.6417,-1.62756 0.844489,-1.28858 -0.336614,-5.58308 -3.01299,-11.7602 -5.29016,-12.2102 -16.161,-26.0126 -31.3288,-39.2504l-43.8508 -38.2701 55.976 -16.3547c19.0973,-5.57835 34.7233,-13.5815 44.804,-22.5756 5.01733,-4.47638 7.89331,-7.84134 7.67835,-9.29764 -0.316536,-2.14488 -5.71536,-5.18504 -14.3268,-8.43898 -15.5339,-5.87126 -37.0477,-8.2382 -61.0997,-5.98465z"/>
  <path class="fil1" d="M1026.67 721.567l-4.97244 -53.0658c-11.3291,6.47599 -24.4477,10.1776 -38.4284,10.1776 -21.4146,0 -40.8059,-8.68347 -54.8433,-22.7209 -3.02481,-3.02599 -5.80158,-6.3 -8.29607,-9.78898l-26.8134 46.0961c-12.137,20.8677 -19.0169,41.3339 -20.2051,57.8209 -0.666142,9.24568 -0.180709,15.4571 1.62756,16.6417 1.28976,0.844489 5.58308,-0.336614 11.7602,-3.01299 12.2102,-5.29016 26.0126,-16.161 39.2504,-31.3288l38.2737 -43.852 16.3512 55.9772c5.57717,19.0961 13.5803,34.7221 22.5756,44.804 4.47638,5.01733 7.84134,7.89331 9.29764,7.67835 2.14606,-0.316536 5.18386,-5.71418 8.43898,-14.3268 5.87008,-15.5351 8.23701,-37.0477 5.98347,-61.0997z"/>
  <path class="fil2" d="M983.267 614.677c3.74882,0 7.14213,-1.5189 9.5941,-3.96969 2.45079,-2.45197 3.96969,-5.84528 3.96969,-9.5941 0,-3.74882 -1.51772,-7.14095 -3.96969,-9.59292 -2.45197,-2.45197 -5.84528,-3.96969 -9.5941,-3.96969 -3.74882,0 -7.14095,1.51772 -9.59292,3.96969 -2.45197,2.45197 -3.96969,5.8441 -3.96969,9.59292 0,3.74882 1.5189,7.14213 3.96969,9.5941 2.45197,2.45197 5.8441,3.96969 9.59292,3.96969z"/>
  <path class="fil2" d="M1251.82 1041.03c-343.87,-10.8307 -443.261,-56.843 -832.647,-237.225 -23.798,-11.0232 -48.691,-22.5555 -74.804,-34.6181l0 110.358 12.4099 5.35748c427.197,184.46 535.452,231.17 853.655,242.721 -0.832678,-2.80158 -1.47165,-5.68465 -1.90866,-8.64568 -3.60591,-24.4169 7.44331,-47.6363 28.9961,-66.8658 4.30276,-3.83859 9.08623,-7.54489 14.2984,-11.0823z"/>
  <path class="fil1" d="M1431.28 948.237l5.24764 55.9748 -48.613 -28.2756c-23.3729,-13.5945 -46.428,-21.3083 -65.1166,-22.6547 -12.0732,-0.870473 -20.6528,0.479528 -23.152,4.29567 -2.02677,3.09449 -0.833859,9.60709 2.82756,18.0567 6.06378,13.9937 18.3555,29.667 35.4213,44.563l39.8233 34.7587 -50.8347 14.8488c-21.5339,6.29056 -39.2422,15.3921 -50.7591,25.6677 -6.86457,6.1252 -10.6831,11.5016 -10.1528,15.1004 0.667323,4.5189 7.85434,9.34016 19.1221,13.598 13.2957,5.02559 30.3744,7.79174 49.5532,7.75158 -0.034252,0 -0.068504,0 -0.102756,0 -8.64686,-0.0177165 -16.8449,-0.644882 -24.4299,-1.8248 15.1831,0.236221 30.8634,0.426378 46.9949,0.583465l52.6961 -4.94055 -28.2756 48.6142c-13.5945,23.3717 -21.3083,46.428 -22.6559,65.1166 -0.869292,12.0721 0.479528,20.6516 4.29567,23.1508 3.09449,2.02795 9.60828,0.833859 18.0579,-2.82638 13.9925,-6.06378 29.667,-18.3567 44.5618,-35.4225l34.7587 -39.8233 14.85 50.8347c6.29056,21.5351 15.391,39.2422 25.6677,50.7603 6.12402,6.86457 11.5016,10.6831 15.1004,10.1516 4.5189,-0.666142 9.33898,-7.85316 13.598,-19.1209 6.64725,-17.5902 9.34253,-41.8004 6.81733,-68.7378l-5.24882 -55.9748 48.6142 28.2768c23.3729,13.5945 46.428,21.3083 65.1166,22.6547 12.0732,0.870473 20.6516,-0.479528 23.152,-4.29567 2.02795,-3.09449 0.833859,-9.60709 -2.82756,-18.0567 -6.06378,-13.9937 -18.3555,-29.667 -35.4213,-44.563l-39.8244 -34.7599 50.8359 -14.8488c21.5339,-6.28937 39.2422,-15.391 50.7591,-25.6666 6.86575,-6.1252 10.6843,-11.5028 10.1528,-15.1004 -0.667323,-4.52126 -7.85434,-9.34016 -19.1209,-13.598 -17.5914,-6.64843 -41.8004,-9.34253 -68.7378,-6.81733l-55.976 5.24646 28.2768 -48.613c13.5957,-23.3729 21.3083,-46.428 22.6559,-65.1166 0.869292,-12.0721 -0.479528,-20.6516 -4.29567,-23.152 -3.09449,-2.02677 -9.60828,-0.832678 -18.0567,2.82756 -13.9937,6.06378 -29.667,18.3567 -44.563,35.4225l-34.7599 39.8233 -14.8488 -50.8359c-6.28937,-21.5339 -15.391,-39.2422 -25.6666,-50.7591 -6.1252,-6.86457 -11.5039,-10.6831 -15.1016,-10.1528 -4.52126,0.667323 -9.33898,7.85434 -13.5969,19.1209 -6.64843,17.5914 -9.34371,41.8016 -6.81851,68.7378zm52.6512 48.6957c22.4752,0 42.8268,9.11457 57.5599,23.8453 14.7319,14.7331 23.8453,35.0847 23.8453,57.5599 0,22.4764 -9.11339,42.828 -23.8465,57.5587 -14.7307,14.7331 -35.0823,23.8465 -57.5587,23.8465 -22.4752,0 -42.8268,-9.11339 -57.5599,-23.8453 -14.7307,-14.7331 -23.8453,-35.0847 -23.8453,-57.5599 0,-22.4752 9.11339,-42.8268 23.8453,-57.5599 14.7331,-14.7319 35.0847,-23.8453 57.5599,-23.8453z"/>
  <path class="fil2" d="M1483.93 1060.93c-4.80945,0 -9.163,1.94764 -12.3095,5.0941 -3.14646,3.14646 -5.0941,7.50001 -5.0941,12.3095 0,4.80945 1.94764,9.163 5.0941,12.3095 3.14646,3.14646 7.50001,5.0941 12.3095,5.0941 4.80827,0 9.16182,-1.94764 12.3083,-5.09528 3.14764,-3.14646 5.09528,-7.50001 5.09528,-12.3083 0,-4.80945 -1.94764,-9.163 -5.0941,-12.3095 -3.14646,-3.14646 -7.50001,-5.0941 -12.3095,-5.0941z"/>
  <path class="fil1" d="M740.269 1355.74c12.137,-20.8677 19.0169,-41.3339 20.2051,-57.8209 0.666142,-9.24568 0.180709,-15.4571 -1.62756,-16.6417 -1.28858,-0.844489 -5.58308,0.336614 -11.7602,3.01299 -12.2091,5.29134 -26.0114,16.161 -39.2492,31.3288l-38.2701 43.8496 -16.3547 -55.9748c-5.57835,-19.0961 -13.5815,-34.7221 -22.5768,-44.804 -4.47638,-5.01733 -7.84134,-7.89331 -9.29764,-7.67835 -2.14488,0.316536 -5.18386,5.71418 -8.43898,14.3268 -5.87008,15.5339 -8.23701,37.0465 -5.98347,61.0997l4.97363 53.0634c11.3291,-6.47481 24.4477,-10.1752 38.4272,-10.1752 21.4146,0 40.8059,8.68347 54.8433,22.7209 3.02599,3.02599 5.80276,6.3 8.29725,9.78898l26.8122 -46.0961z"/>
  <path class="fil1" d="M831.87 1409.47c-15.5339,-5.87008 -37.0477,-8.23701 -61.1008,-5.98347l-53.0646 4.97244c6.47599,11.3291 10.1764,24.4477 10.1764,38.4284 0,21.4146 -8.68347,40.8059 -22.7209,54.8433 -3.02481,3.02481 -6.29882,5.80158 -9.7878,8.29607l46.0961 26.8134c20.8677,12.137 41.3339,19.0169 57.8209,20.2051 9.24568,0.666142 15.4571,0.180709 16.6417,-1.62756 0.844489,-1.28976 -0.336614,-5.58308 -3.01299,-11.7602 -5.29134,-12.2102 -16.1622,-26.0126 -31.3288,-39.2504l-43.8496 -38.2737 55.9748 -16.3512c19.0949,-5.57717 34.7221,-13.5815 44.8028,-22.5756 5.01733,-4.47638 7.89331,-7.84134 7.67835,-9.29764 -0.316536,-2.14488 -5.71418,-5.18504 -14.3256,-8.43898z"/>
  <path class="fil1" d="M595.472 1392.04c3.02599,-3.02599 6.3,-5.80276 9.79017,-8.29725l-46.0973 -26.8122c-20.8677,-12.137 -41.3339,-19.0169 -57.8209,-20.2051 -9.24568,-0.666142 -15.4571,-0.180709 -16.6417,1.62756 -0.844489,1.28858 0.336614,5.58308 3.01299,11.7591 5.29134,12.2114 16.161,26.0126 31.3288,39.2516l43.8508 38.2737 -55.976 16.3512c-19.0961,5.57717 -34.7221,13.5815 -44.8028,22.5756 -5.01851,4.47756 -7.89449,7.84134 -7.67953,9.29764 0.316536,2.14488 5.71536,5.18504 14.3268,8.43898 15.5339,5.87126 37.0477,8.2382 61.0997,5.98465l53.0646 -4.97363c-6.47599,-11.3291 -10.1764,-24.4465 -10.1764,-38.4272 0,-21.4146 8.68465,-40.8059 22.7209,-54.8445z"/>
  <path class="fil1" d="M688.745 1514.28c-11.3291,6.47481 -24.4477,10.1764 -38.4284,10.1764 -21.4146,0 -40.8059,-8.68465 -54.8445,-22.7209 -3.02481,-3.02481 -5.80158,-6.29882 -8.29607,-9.78898l-26.8134 46.0973c-12.137,20.8677 -19.0169,41.3339 -20.2051,57.8209 -0.666142,9.24568 -0.179528,15.4571 1.62874,16.6417 1.28858,0.844489 5.58189,-0.336614 11.7591,-3.01418 12.2114,-5.29134 26.0138,-16.1622 39.2504,-31.3288l38.2713 -43.8508 16.3536 55.976c5.57835,19.0961 13.5827,34.7233 22.5768,44.804 4.47638,5.01733 7.84134,7.89331 9.29646,7.67835 2.14725,-0.316536 5.18622,-5.71418 8.44016,-14.3256 5.87008,-15.5351 8.23701,-37.0477 5.98347,-61.1008l-4.97244 -53.0646z"/>
  <path class="fil2" d="M650.317 1460.45c3.74882,0 7.14095,-1.51772 9.59292,-3.96969 2.45197,-2.45197 3.96969,-5.8441 3.96969,-9.59292 0,-3.74882 -1.51772,-7.14213 -3.96969,-9.5941 -2.45197,-2.45197 -5.8441,-3.96969 -9.59292,-3.96969 -3.74882,0 -7.14213,1.51772 -9.5941,3.96969 -2.45079,2.45197 -3.96969,5.84528 -3.96969,9.5941 0,3.74882 1.51772,7.14095 3.96969,9.59292 2.45197,2.45197 5.84528,3.96969 9.5941,3.96969z"/>
 </g>
 <rect class="fil3" width="2048" height="2048"/>
</svg>
