<?xml version="1.0" encoding="UTF-8"?>
<!DOCTYPE svg PUBLIC "-//W3C//DTD SVG 1.1//EN" "http://www.w3.org/Graphics/SVG/1.1/DTD/svg11.dtd">
<!-- Creator: CorelDRAW -->
<svg xmlns="http://www.w3.org/2000/svg" xml:space="preserve" width="2048px" height="2048px" style="shape-rendering:geometricPrecision; text-rendering:geometricPrecision; image-rendering:optimizeQuality; fill-rule:evenodd; clip-rule:evenodd"
viewBox="0 0 2048 2048"
 xmlns:xlink="http://www.w3.org/1999/xlink">
 <defs>
  <style type="text/css">
   <![CDATA[
    .fil2 {fill:none}
    .fil1 {fill:#63CBE5}
    .fil0 {fill:#212121;fill-rule:nonzero}
   ]]>
  </style>
 </defs>
 <g id="Layer_x0020_1">
  <metadata id="CorelCorpID_0Corel-Layer"/>
  <path class="fil0" d="M1438.42 543.114c144.467,14.0374 234.617,67.278 276.07,132.651 20.2878,31.9949 29.1721,66.8587 27.3272,101.832 -1.81772,34.4776 -14.1095,68.602 -36.2055,99.6792 -52.6843,74.0989 -162.826,131.728 -319.558,131.728l-704.747 0c-177.095,0 -292.269,-67.8662 -343.785,-153.314 -23.2075,-38.4933 -33.6461,-80.6103 -31.2532,-122.144 2.39882,-41.6256 17.6799,-82.3548 45.9036,-117.97l0 -0.125197c58.8815,-74.2997 175.005,-126.058 347.913,-112.836 27.8339,-125.736 119.061,-204.251 228.653,-238.682 52.7835,-16.5827 109.837,-22.774 165.888,-18.9272 56.0658,3.84685 111.425,17.804 160.801,41.5099 99.3816,47.713 174.122,134.156 182.992,256.597zm222.07 166.901c-34.1693,-53.8855 -116.577,-97.428 -254.841,-105.408l-30.5799 -1.76457 0.454725 -30.4866c1.63465,-109.893 -61.4587,-186.983 -147.597,-228.338 -41.8347,-20.0847 -89.2016,-31.9429 -137.55,-35.2595 -48.3626,-3.3189 -97.4268,1.97126 -142.639,16.1752 -95.9942,30.1595 -174.567,101.31 -189.777,216.422l-4.12441 31.2201 -31.1256 -3.59528c-164.421,-18.9898 -270.621,23.237 -320.537,86.2229l-0.0602363 -0.0484252c-19.7575,24.9614 -30.4406,53.2252 -32.0929,81.893 -1.65827,28.7882 5.77441,58.3111 22.2532,85.643 41.1,68.1697 137.347,122.313 289.034,122.313l704.747 0c133.975,0 225.675,-45.8162 267.559,-104.726 14.9764,-21.0638 23.2772,-43.63 24.4536,-65.9304 1.14921,-21.8008 -4.56615,-43.8154 -17.576,-64.3323z"/>
  <path class="fil0" d="M529.382 1026.63c63.4878,64.7268 79.076,118.669 71.4343,156.82 -8.3315,41.5961 -41.8524,65.0504 -77.041,68.2241 -35.2134,3.17599 -72.1985,-14.0492 -87.4146,-53.8134 -13.8213,-36.1229 -7.47638,-91.9016 44.0209,-166.856l21.9532 -31.95 27.0473 27.5752zm8.68465 144.319c3.06851,-15.3213 -3.41575,-37.9666 -26.8512,-68.4733 -18.0732,34.4244 -20.6977,58.0158 -15.1051,72.6343 3.71339,9.70631 13.1209,13.878 22.1658,13.063 9.07205,-0.817323 17.6917,-6.74528 19.7906,-17.224z"/>
  <path class="fil0" d="M561.468 1302.62c63.4867,64.7256 79.076,118.668 71.4355,156.82 -8.3315,41.5937 -41.8512,65.0504 -77.041,68.2241 -35.2146,3.17599 -72.2008,-14.048 -87.4158,-53.8134 -13.8213,-36.1229 -7.47638,-91.9005 44.0209,-166.856l21.952 -31.9512 27.0484 27.5764zm8.68583 144.319c3.06851,-15.3213 -3.41693,-37.9666 -26.8512,-68.4733 -18.0732,34.4244 -20.6988,58.0158 -15.1063,72.6343 3.71339,9.70631 13.1209,13.878 22.1669,13.063 9.07205,-0.817323 17.6917,-6.74528 19.7906,-17.224z"/>
  <path class="fil0" d="M579.971 1578.62c63.4867,64.7256 79.076,118.668 71.4355,156.82 -8.3315,41.5961 -41.8524,65.0504 -77.041,68.2241 -35.2134,3.17599 -72.1997,-14.0492 -87.4158,-53.8134 -13.8213,-36.1229 -7.47638,-91.9016 44.0209,-166.856l21.9532 -31.9512 27.0473 27.5764zm8.68583 144.319c3.06851,-15.3213 -3.41575,-37.9677 -26.8512,-68.4745 -18.0732,34.4256 -20.6988,58.017 -15.1063,72.6355 3.71339,9.70631 13.1221,13.878 22.1669,13.063 9.07205,-0.817323 17.6917,-6.74528 19.7906,-17.224z"/>
  <path class="fil0" d="M770.612 1026.63c63.4878,64.7268 79.076,118.669 71.4343,156.82 -8.3315,41.5961 -41.8524,65.0504 -77.041,68.2241 -35.2134,3.17599 -72.1985,-14.0492 -87.4146,-53.8134 -13.8213,-36.1229 -7.47638,-91.9016 44.0209,-166.856l21.9532 -31.95 27.0473 27.5752zm8.68465 144.319c3.06851,-15.3213 -3.41575,-37.9666 -26.8512,-68.4733 -18.0732,34.4244 -20.6977,58.0158 -15.1051,72.6343 3.71339,9.70631 13.1209,13.878 22.1658,13.063 9.07205,-0.817323 17.6917,-6.74528 19.7906,-17.224z"/>
  <path class="fil0" d="M802.698 1302.62c63.4867,64.7256 79.076,118.668 71.4355,156.82 -8.3315,41.5937 -41.8512,65.0504 -77.041,68.2241 -35.2146,3.17599 -72.2008,-14.048 -87.4158,-53.8134 -13.8213,-36.1229 -7.47638,-91.9005 44.0209,-166.856l21.952 -31.9512 27.0484 27.5764zm8.68583 144.319c3.06851,-15.3213 -3.41693,-37.9666 -26.8512,-68.4733 -18.0732,34.4244 -20.6988,58.0158 -15.1063,72.6343 3.71339,9.70631 13.1209,13.878 22.1669,13.063 9.07205,-0.817323 17.6917,-6.74528 19.7906,-17.224z"/>
  <path class="fil0" d="M821.201 1578.62c63.4867,64.7256 79.076,118.668 71.4355,156.82 -8.3315,41.5961 -41.8524,65.0504 -77.041,68.2241 -35.2134,3.17599 -72.1997,-14.0492 -87.4158,-53.8134 -13.8213,-36.1229 -7.47638,-91.9016 44.0209,-166.856l21.9532 -31.9512 27.0473 27.5764zm8.68583 144.319c3.06851,-15.3213 -3.41575,-37.9677 -26.8512,-68.4745 -18.0732,34.4256 -20.6988,58.017 -15.1063,72.6355 3.71339,9.70631 13.1221,13.878 22.1669,13.063 9.07205,-0.817323 17.6917,-6.74528 19.7906,-17.224z"/>
  <path class="fil0" d="M1011.84 1026.63c63.4878,64.7268 79.076,118.669 71.4343,156.82 -8.3315,41.5961 -41.8524,65.0504 -77.041,68.2241 -35.2134,3.17599 -72.1985,-14.0492 -87.4146,-53.8134 -13.8213,-36.1229 -7.47638,-91.9016 44.0209,-166.856l21.9532 -31.95 27.0473 27.5752zm8.68465 144.319c3.06851,-15.3213 -3.41575,-37.9666 -26.8512,-68.4733 -18.0732,34.4244 -20.6977,58.0158 -15.1051,72.6343 3.71339,9.70631 13.1209,13.878 22.1658,13.063 9.07205,-0.817323 17.6917,-6.74528 19.7906,-17.224z"/>
  <path class="fil0" d="M1043.93 1302.62c63.4867,64.7256 79.076,118.668 71.4355,156.82 -8.3315,41.5937 -41.8512,65.0504 -77.041,68.2241 -35.2146,3.17599 -72.2008,-14.048 -87.4158,-53.8134 -13.8213,-36.1229 -7.47638,-91.9005 44.0209,-166.856l21.952 -31.9512 27.0484 27.5764zm8.68583 144.319c3.06851,-15.3201 -3.41693,-37.9666 -26.8512,-68.4721 -18.0732,34.4256 -20.6988,58.0146 -15.1063,72.6331 3.71339,9.70631 13.1209,13.878 22.1669,13.063 9.07205,-0.817323 17.6917,-6.74528 19.7906,-17.224z"/>
  <path class="fil0" d="M1062.43 1578.62c63.4867,64.7256 79.076,118.668 71.4355,156.82 -8.3315,41.5961 -41.8524,65.0504 -77.041,68.2241 -35.2134,3.17599 -72.1997,-14.0492 -87.4158,-53.8134 -13.8213,-36.1229 -7.47638,-91.9016 44.0209,-166.856l21.952 -31.9512 27.0484 27.5764zm8.68583 144.319c3.06851,-15.3213 -3.41693,-37.9677 -26.8524,-68.4733 -18.0732,34.4244 -20.6977,58.0158 -15.1051,72.6343 3.71339,9.70631 13.1209,13.878 22.1669,13.063 9.07087,-0.817323 17.6917,-6.74528 19.7906,-17.224z"/>
  <path class="fil0" d="M1253.07 1026.63c63.4878,64.7268 79.076,118.669 71.4343,156.82 -8.3315,41.5961 -41.8524,65.0504 -77.041,68.2241 -35.2134,3.17599 -72.1985,-14.0492 -87.4146,-53.8134 -13.8213,-36.1229 -7.47638,-91.9016 44.0209,-166.856l21.952 -31.95 27.0484 27.5752zm8.68465 144.319c3.06851,-15.3213 -3.41575,-37.9666 -26.8512,-68.4733 -18.0732,34.4256 -20.6977,58.0158 -15.1051,72.6343 3.71339,9.70631 13.1209,13.878 22.1658,13.063 9.07087,-0.817323 17.6917,-6.74528 19.7906,-17.224z"/>
  <path class="fil0" d="M1285.16 1302.62c63.4867,64.7256 79.076,118.668 71.4355,156.82 -8.3315,41.5937 -41.8512,65.0504 -77.041,68.2241 -35.2134,3.17599 -72.2008,-14.048 -87.4158,-53.8134 -13.8213,-36.1229 -7.47638,-91.9005 44.0209,-166.856l21.9508 -31.9512 27.0496 27.5764zm8.68583 144.319c3.06851,-15.3201 -3.41693,-37.9666 -26.8512,-68.4721 -18.0732,34.4256 -20.6988,58.0146 -15.1063,72.6331 3.71339,9.70631 13.1209,13.878 22.1669,13.063 9.07205,-0.817323 17.6917,-6.74528 19.7906,-17.224z"/>
  <path class="fil0" d="M1303.66 1578.62c63.4867,64.7256 79.076,118.668 71.4355,156.82 -8.3315,41.5961 -41.8524,65.0504 -77.041,68.2241 -35.2134,3.17599 -72.1997,-14.0492 -87.4158,-53.8134 -13.8213,-36.1229 -7.47638,-91.9016 44.0209,-166.856l21.952 -31.9512 27.0484 27.5764zm8.68583 144.319c3.06851,-15.3213 -3.41693,-37.9677 -26.8524,-68.4733 -18.0732,34.4244 -20.6977,58.0158 -15.1051,72.6343 3.71339,9.70631 13.1209,13.878 22.1669,13.063 9.07087,-0.817323 17.6917,-6.74528 19.7906,-17.224z"/>
  <path class="fil0" d="M1494.3 1026.63c63.4878,64.7268 79.076,118.669 71.4343,156.82 -8.3315,41.5961 -41.8524,65.0504 -77.041,68.2241 -35.2134,3.17599 -72.1985,-14.0492 -87.4146,-53.8134 -13.8213,-36.1229 -7.47638,-91.9016 44.0209,-166.856l21.952 -31.95 27.0484 27.5752zm8.68465 144.319c3.06851,-15.3213 -3.41575,-37.9666 -26.8512,-68.4733 -18.0732,34.4256 -20.6977,58.0158 -15.1051,72.6343 3.71339,9.70631 13.1209,13.878 22.1658,13.063 9.07087,-0.817323 17.6917,-6.74528 19.7906,-17.224z"/>
  <path class="fil0" d="M1526.39 1302.62c63.4867,64.7256 79.076,118.668 71.4355,156.82 -8.3315,41.5937 -41.8512,65.0504 -77.041,68.2241 -35.2134,3.17599 -72.2008,-14.048 -87.4158,-53.8134 -13.8213,-36.1229 -7.47638,-91.9005 44.0209,-166.856l21.9508 -31.9512 27.0496 27.5764zm8.68583 144.319c3.06851,-15.3201 -3.41693,-37.9666 -26.8512,-68.4721 -18.0732,34.4256 -20.6988,58.0146 -15.1063,72.6331 3.71339,9.70631 13.1209,13.878 22.1669,13.063 9.07205,-0.817323 17.6917,-6.74528 19.7906,-17.224z"/>
  <path class="fil0" d="M1544.89 1578.62c63.4867,64.7256 79.076,118.668 71.4355,156.82 -8.3315,41.5961 -41.8524,65.0504 -77.041,68.2241 -35.2134,3.17599 -72.1997,-14.0492 -87.4158,-53.8134 -13.8213,-36.1229 -7.47638,-91.9016 44.0209,-166.856l21.952 -31.9512 27.0484 27.5764zm8.68583 144.319c3.06851,-15.3213 -3.41693,-37.9677 -26.8524,-68.4733 -18.0732,34.4244 -20.6977,58.0158 -15.1051,72.6343 3.71339,9.70631 13.1209,13.878 22.1669,13.063 9.07087,-0.817323 17.6917,-6.74528 19.7906,-17.224z"/>
  <path class="fil1" d="M681.31 945.003l704.747 0c133.975,0 225.675,-45.8162 267.559,-104.726 14.9764,-21.0638 23.2772,-43.63 24.4536,-65.9304 1.14921,-21.8008 -4.56615,-43.8154 -17.576,-64.3323 -34.1693,-53.8855 -116.577,-97.428 -254.841,-105.408l-30.5799 -1.76457 0.454725 -30.4866c1.63465,-109.893 -61.4587,-186.983 -147.597,-228.338 -41.8347,-20.0847 -89.2016,-31.9429 -137.55,-35.2595 -48.3626,-3.3189 -97.4268,1.97126 -142.639,16.1752 -95.9942,30.1595 -174.567,101.31 -189.777,216.422l-4.12441 31.2201 -31.1256 -3.59528c-164.421,-18.9898 -270.621,23.237 -320.537,86.2229l-0.0602363 -0.0484252c-19.7575,24.9614 -30.4406,53.2252 -32.0929,81.893 -1.65827,28.7882 5.77441,58.3111 22.2532,85.643 41.1,68.1697 137.347,122.313 289.034,122.313z"/>
  <path class="fil1" d="M538.067 1170.95c3.06851,-15.3213 -3.41575,-37.9666 -26.8512,-68.4733 -18.0732,34.4244 -20.6977,58.0158 -15.1051,72.6343 3.71339,9.70631 13.1209,13.878 22.1658,13.063 9.07205,-0.817323 17.6917,-6.74528 19.7906,-17.224z"/>
  <path class="fil1" d="M752.445 1102.47c-18.0732,34.4244 -20.6977,58.0158 -15.1051,72.6343 3.71339,9.70631 13.1209,13.878 22.1658,13.063 9.07205,-0.817323 17.6917,-6.74528 19.7906,-17.224 3.06851,-15.3213 -3.41575,-37.9666 -26.8512,-68.4733z"/>
  <path class="fil1" d="M993.675 1102.47c-18.0732,34.4244 -20.6977,58.0158 -15.1051,72.6343 3.71339,9.70631 13.1209,13.878 22.1658,13.063 9.07205,-0.817323 17.6917,-6.74528 19.7906,-17.224 3.06851,-15.3213 -3.41575,-37.9666 -26.8512,-68.4733z"/>
  <path class="fil1" d="M1234.9 1102.47c-18.0732,34.4256 -20.6977,58.0158 -15.1051,72.6343 3.71339,9.70631 13.1209,13.878 22.1658,13.063 9.07087,-0.817323 17.6917,-6.74528 19.7906,-17.224 3.06851,-15.3213 -3.41575,-37.9666 -26.8512,-68.4733z"/>
  <path class="fil1" d="M1476.13 1102.47c-18.0732,34.4256 -20.6977,58.0158 -15.1051,72.6343 3.71339,9.70631 13.1209,13.878 22.1658,13.063 9.07087,-0.817323 17.6917,-6.74528 19.7906,-17.224 3.06851,-15.3213 -3.41575,-37.9666 -26.8512,-68.4733z"/>
  <path class="fil1" d="M570.154 1446.94c3.06851,-15.3213 -3.41693,-37.9666 -26.8512,-68.4733 -18.0732,34.4244 -20.6988,58.0158 -15.1063,72.6343 3.71339,9.70631 13.1209,13.878 22.1669,13.063 9.07205,-0.817323 17.6917,-6.74528 19.7906,-17.224z"/>
  <path class="fil1" d="M784.532 1378.47c-18.0732,34.4244 -20.6988,58.0158 -15.1063,72.6343 3.71339,9.70631 13.1209,13.878 22.1669,13.063 9.07205,-0.817323 17.6917,-6.74528 19.7906,-17.224 3.06851,-15.3213 -3.41693,-37.9666 -26.8512,-68.4733z"/>
  <path class="fil1" d="M1025.76 1378.47c-18.0732,34.4256 -20.6988,58.0146 -15.1063,72.6331 3.71339,9.70631 13.1209,13.878 22.1669,13.063 9.07205,-0.817323 17.6917,-6.74528 19.7906,-17.224 3.06851,-15.3201 -3.41693,-37.9666 -26.8512,-68.4721z"/>
  <path class="fil1" d="M1266.99 1378.47c-18.0732,34.4256 -20.6988,58.0146 -15.1063,72.6331 3.71339,9.70631 13.1209,13.878 22.1669,13.063 9.07205,-0.817323 17.6917,-6.74528 19.7906,-17.224 3.06851,-15.3201 -3.41693,-37.9666 -26.8512,-68.4721z"/>
  <path class="fil1" d="M1508.22 1378.47c-18.0732,34.4256 -20.6988,58.0146 -15.1063,72.6331 3.71339,9.70631 13.1209,13.878 22.1669,13.063 9.07205,-0.817323 17.6917,-6.74528 19.7906,-17.224 3.06851,-15.3201 -3.41693,-37.9666 -26.8512,-68.4721z"/>
  <path class="fil1" d="M588.657 1722.94c3.06851,-15.3213 -3.41575,-37.9677 -26.8512,-68.4745 -18.0732,34.4256 -20.6988,58.017 -15.1063,72.6355 3.71339,9.70631 13.1221,13.878 22.1669,13.063 9.07205,-0.817323 17.6917,-6.74528 19.7906,-17.224z"/>
  <path class="fil1" d="M803.036 1654.46c-18.0732,34.4256 -20.6988,58.017 -15.1063,72.6355 3.71339,9.70631 13.1221,13.878 22.1669,13.063 9.07205,-0.817323 17.6917,-6.74528 19.7906,-17.224 3.06851,-15.3213 -3.41575,-37.9677 -26.8512,-68.4745z"/>
  <path class="fil1" d="M1044.26 1654.46c-18.0732,34.4244 -20.6977,58.0158 -15.1051,72.6343 3.71339,9.70631 13.1209,13.878 22.1669,13.063 9.07087,-0.817323 17.6917,-6.74528 19.7906,-17.224 3.06851,-15.3213 -3.41693,-37.9677 -26.8524,-68.4733z"/>
  <path class="fil1" d="M1285.49 1654.46c-18.0732,34.4244 -20.6977,58.0158 -15.1051,72.6343 3.71339,9.70631 13.1209,13.878 22.1669,13.063 9.07087,-0.817323 17.6917,-6.74528 19.7906,-17.224 3.06851,-15.3213 -3.41693,-37.9677 -26.8524,-68.4733z"/>
  <path class="fil1" d="M1526.72 1654.46c-18.0732,34.4244 -20.6977,58.0158 -15.1051,72.6343 3.71339,9.70631 13.1209,13.878 22.1669,13.063 9.07087,-0.817323 17.6917,-6.74528 19.7906,-17.224 3.06851,-15.3213 -3.41693,-37.9677 -26.8524,-68.4733z"/>
 </g>
 <rect class="fil2" width="2048" height="2048"/>
</svg>
