<?xml version="1.0" encoding="UTF-8"?>
<!DOCTYPE svg PUBLIC "-//W3C//DTD SVG 1.1//EN" "http://www.w3.org/Graphics/SVG/1.1/DTD/svg11.dtd">
<!-- Creator: CorelDRAW -->
<svg xmlns="http://www.w3.org/2000/svg" xml:space="preserve" width="2048px" height="2048px" style="shape-rendering:geometricPrecision; text-rendering:geometricPrecision; image-rendering:optimizeQuality; fill-rule:evenodd; clip-rule:evenodd"
viewBox="0 0 2048 2048"
 xmlns:xlink="http://www.w3.org/1999/xlink">
 <defs>
  <style type="text/css">
   <![CDATA[
    .fil4 {fill:none}
    .fil1 {fill:#212121}
    .fil2 {fill:#AED581}
    .fil3 {fill:#EBE5DF}
    .fil0 {fill:#212121;fill-rule:nonzero}
   ]]>
  </style>
 </defs>
 <g id="Layer_x0020_1">
  <metadata id="CorelCorpID_0Corel-Layer"/>
  <path class="fil0" d="M1702.13 627.574l-69.1678 -75.9142 -3.87402 -5.25c-19.4398,-32.9173 -44.9764,-56.7792 -74.0292,-71.2607 -26.2536,-13.0854 -55.6477,-18.6378 -86.2205,-16.402 -31.4256,2.29961 -64.2308,12.8162 -96.4076,31.8189 -54.8552,32.3953 -107.487,89.1343 -148.604,171.621l-12 13.0004c-90.1406,54.8245 -360.811,304.836 -582.232,541.461 -138.525,148.037 -256.844,289.161 -296.759,369.938l121.924 2.83347c21.1878,-31.2555 41.0008,-62.1863 59.8111,-91.552 78.7052,-122.87 140.432,-219.233 263.425,-275.429l40.8744 45.1252c-11.5004,19.6902 -12.8563,27.6473 -7.37245,27.6792 35.6351,0.21378 100.817,-20.2217 181.297,-51.3508l7.7504 -2.00079c150.249,-18.248 278.816,-50.6304 370.865,-100.452 78.3757,-42.4193 129.345,-97.317 142.733,-166.73 6.40394,-33.2067 11.2158,-68.556 15.9118,-103.068 11.9835,-88.0642 23.2914,-171.145 59.1166,-206.463l13.2496 -7.87442 99.7087 -29.7319zm-19.7917 -116.582l101.291 111.171 34.2473 37.5886 -48.7477 14.5358 -139.476 41.5902c-17.4461,25.3961 -26.6445,92.9552 -36.3473,164.264 -4.90276,36.0284 -9.92599,72.9319 -16.4126,106.569 -17.3764,90.0969 -79.8697,159.369 -175.232,210.982 -98.7095,53.4272 -233.614,87.9745 -389.849,107.237 -85.4493,32.8701 -156.611,54.3296 -200.564,54.0662 -42.5882,-0.255118 -68.706,-11.9138 -73.8556,-38.0847 -66.3367,51.0792 -113.079,124.045 -169.071,211.458 -21.3803,33.378 -44.0705,68.8004 -70.7351,107.452l-9.75946 14.1473 -17.1154 -0.396851 -183.333 -4.26024 -37.513 -0.872835 6.763 -36.7524c14.9882,-81.456 156.53,-256.93 326.468,-438.537 218.863,-233.894 486.962,-481.78 587.522,-547.422 46.4044,-89.9209 106.263,-152.925 169.315,-190.16 40.8863,-24.1465 83.243,-37.5591 124.407,-40.5709 42.0177,-3.07323 82.6595,4.67953 119.221,22.9028 38.9705,19.4244 73.0087,50.6103 98.7792,93.0934z"/>
  <path class="fil0" d="M1660.1 544.163c-2.47441,3.21851 -7.91694,10.0252 -13.2343,16.676 -28.3713,35.4862 -50.4922,63.1548 -17.2583,123.45l-56.0008 30.7512c-53.6847,-97.3997 -19.8673,-139.7 23.5087,-193.953 3.10394,-3.88229 6.30709,-7.88859 12.4854,-15.9248l50.4993 39z"/>
  <ellipse class="fil1" cx="1479.46" cy="544.235" rx="31.6675" ry="31.6675"/>
  <polygon class="fil0" points="1159.78,1246.56 1225.1,1516.61 1163.1,1531.61 1097.78,1261.56 "/>
  <path class="fil0" d="M1096.41 1581.03c-12.0803,12.7713 -11.5217,32.9197 1.24961,45 12.7713,12.0803 32.9197,11.5217 45,-1.24961l60.7323 -64.1788 114.142 36.6591c16.7752,5.38465 34.741,-3.8504 40.1256,-20.6256 5.38465,-16.7752 -3.8504,-34.741 -20.6256,-40.1256l-130.726 -41.9847c-11.8913,-4.90394 -26.0835,-2.31024 -35.452,7.59095l23.2429 21.9945 -23.1248 -21.8752 -74.5642 78.7949z"/>
  <polygon class="fil0" points="1308.14,1180.82 1364.39,1413.37 1302.38,1428.37 1246.14,1195.82 "/>
  <path class="fil0" d="M1233.37 1433.6c-12.0803,12.7713 -11.5217,32.9197 1.24961,45 12.7713,12.0803 32.9197,11.5217 45,-1.24961l50.3776 -53.237 95.6469 30.7193c16.7752,5.38465 34.741,-3.8504 40.1256,-20.6256 5.38465,-16.7752 -3.8504,-34.741 -20.6256,-40.1256l-112.231 -36.0449c-11.8925,-4.90394 -26.0835,-2.31024 -35.452,7.59095l23.2429 21.9945 -23.1248 -21.8752 -64.2095 67.8532z"/>
  <path class="fil2" d="M1000.54 1241.89c150.249,-18.248 278.816,-50.6304 370.865,-100.452 78.3757,-42.4193 129.345,-97.317 142.733,-166.73 6.40394,-33.2067 11.2158,-68.556 15.9118,-103.068 8.93268,-65.6422 17.4898,-128.516 36.104,-170.903 -42.8032,-87.3898 -10.2307,-128.131 30.9614,-179.653 2.00079,-2.50276 4.04292,-5.05748 6.89764,-8.70946 -14.5937,-15.8988 -31.1138,-28.3335 -48.9591,-37.2284 -26.2536,-13.0854 -55.6477,-18.6378 -86.2205,-16.402 -31.4256,2.29961 -64.2308,12.8162 -96.4076,31.8189 -54.8552,32.3953 -107.487,89.1343 -148.604,171.621l-12 13.0004c-90.1406,54.8245 -360.811,304.836 -582.232,541.461 -138.525,148.037 -256.844,289.161 -296.759,369.938l121.924 2.83347c21.1878,-31.2555 41.0008,-62.1863 59.8111,-91.552 78.7052,-122.87 140.432,-219.233 263.425,-275.429l40.8744 45.1252c-11.5004,19.6902 -12.8563,27.6473 -7.37245,27.6792 35.6351,0.21378 100.817,-20.2217 181.297,-51.3508l7.7504 -2.00079zm478.92 -665.991c-17.491,0 -31.6677,-14.1768 -31.6677,-31.6666 0,-17.491 14.1768,-31.6677 31.6677,-31.6677 17.4898,0 31.6666,14.1768 31.6666,31.6677 0,17.4898 -14.1768,31.6666 -31.6666,31.6666z"/>
  <path class="fil3" d="M1616.32 653.161l85.8072 -25.5862 -57.8504 -63.4926c-21.7725,27.3083 -38.8359,50.6221 -27.9567,89.0788z"/>
 </g>
 <rect class="fil4" width="2048" height="2048"/>
</svg>
