<?xml version="1.0" encoding="UTF-8"?>
<!DOCTYPE svg PUBLIC "-//W3C//DTD SVG 1.1//EN" "http://www.w3.org/Graphics/SVG/1.1/DTD/svg11.dtd">
<!-- Creator: CorelDRAW -->
<svg xmlns="http://www.w3.org/2000/svg" xml:space="preserve" width="2048px" height="2048px" style="shape-rendering:geometricPrecision; text-rendering:geometricPrecision; image-rendering:optimizeQuality; fill-rule:evenodd; clip-rule:evenodd"
viewBox="0 0 2048 2048"
 xmlns:xlink="http://www.w3.org/1999/xlink">
 <defs>
  <style type="text/css">
   <![CDATA[
    .fil4 {fill:none}
    .fil1 {fill:#F39CC3}
    .fil2 {fill:#F45A52}
    .fil3 {fill:#FFD3B3}
    .fil0 {fill:#212121;fill-rule:nonzero}
   ]]>
  </style>
 </defs>
 <g id="Layer_x0020_1">
  <metadata id="CorelCorpID_0Corel-Layer"/>
  <path class="fil0" d="M889.403 1023.3c8.42245,-15.4642 2.71418,-34.8284 -12.75,-43.2508 -15.4642,-8.42245 -34.8284,-2.71418 -43.2508,12.75l-381.402 696.616c-8.42245,15.4642 -2.71418,34.8284 12.75,43.2508 15.4642,8.42245 34.8284,2.71418 43.2508,-12.75l381.402 -696.616z"/>
  <path class="fil0" d="M1062.33 509.143c54.3993,21.7051 92.1698,72.8788 109.26,138.07 16.0477,61.2154 13.9205,135.532 -10.1835,208.434 -2.26181,6.84095 -5.14252,14.6351 -8.60434,23.3103 -25.8567,64.806 -65.902,116.534 -111.124,148.507 -48.6107,34.3701 -103.468,46.6429 -154.896,29.6386 -1.74803,-0.577559 -4.58032,-1.64764 -8.48268,-3.20433 -54.3969,-21.7051 -92.1698,-72.8812 -109.259,-138.07 -16.0477,-61.2154 -13.9205,-135.532 10.1835,-208.434 2.26181,-6.84213 5.14016,-14.6303 8.60434,-23.3126 25.8579,-64.8048 65.902,-116.532 111.123,-148.505 48.6107,-34.3701 103.467,-46.6441 154.896,-29.6386 1.74095,0.575197 4.57914,1.64764 8.48268,3.20433zm47.5099 154.069c-12.0272,-45.8764 -36.6473,-81.1075 -71.0091,-94.8178 -0.559843,-0.223229 -2.21457,-0.790158 -4.98426,-1.70433 -31.0666,-10.2721 -65.9256,-1.64291 -98.1438,21.137 -35.6067,25.174 -67.5142,66.8504 -88.6229,119.754 -2.13543,5.35276 -4.50473,11.9516 -7.10434,19.8142 -20.2229,61.1646 -22.252,122.584 -9.18426,172.434 12.026,45.8764 36.6485,81.1087 71.0079,94.8178 0.559843,0.223229 2.22284,0.79252 4.98426,1.70433 31.0677,10.2721 65.9256,1.64291 98.1438,-21.137 35.6055,-25.1752 67.5154,-66.8516 88.6241,-119.757 2.1378,-5.35748 4.50591,-11.9504 7.10434,-19.8118 20.2229,-61.1646 22.252,-122.583 9.18426,-172.434z"/>
  <path class="fil0" d="M1046.58 507.143c-17.465,2.20866 -29.8335,18.1606 -27.6248,35.6256 2.20866,17.465 18.1606,29.8335 35.6256,27.6248 144.519,-18.5327 260.362,22.8024 354.747,90.6119 96.4761,69.313 171.716,166.752 232.451,257.204 12.3673,18.4181 36.1323,31.6937 60.7418,45.4418 21.2563,11.8748 43.4422,24.2693 45.3189,30.339 2.02441,6.54686 -26.3138,20.5193 -126.947,51.6473 -107.901,33.3756 -215.511,6.24331 -326.769,-21.8079 -93.8528,-23.6634 -190.147,-47.9433 -295.546,-40.526 -17.6043,1.17284 -30.9236,16.3961 -29.7508,34.0004 1.17284,17.6043 16.3961,30.9236 34.0004,29.7508 95.3859,-6.71221 186.748,16.324 275.796,38.7756 119.943,30.2421 235.954,59.4922 361.021,20.8063 147.751,-45.7028 182.131,-89.5772 169.195,-131.398 -9.44528,-30.5374 -43.0843,-49.3311 -75.319,-67.3382 -17.7685,-9.92599 -34.9276,-19.513 -38.7402,-25.1906 -64.0583,-95.4024 -143.912,-198.529 -248.202,-273.456 -106.383,-76.4304 -236.992,-123.014 -399.997,-102.111z"/>
  <path class="fil0" d="M1333.61 576.635c14.4295,83.315 12.091,164.548 -6.13229,243.802 -18.1429,78.9095 -51.9449,155.484 -100.527,229.847l-53.4993 -35.0008c44.5264,-68.1532 75.3886,-137.825 91.7753,-209.098 16.3087,-70.9288 18.3685,-143.829 5.38347,-218.801l63 -10.7504z"/>
  <path class="fil0" d="M1499.55 660.982c11.3976,65.8123 4.27914,133.284 -14.8512,199.321 -22.1244,76.3737 -60.2363,150.507 -104.037,217.551l-53.4993 -35.0008c40.8614,-62.5441 76.2071,-130.984 96.2871,-200.3 16.5402,-57.0934 22.7693,-114.991 13.1008,-170.821l63 -10.7504z"/>
  <path class="fil0" d="M1618.21 783.631c21.2362,122.61 -19.6146,181.315 -81.9438,270.878 -12.0673,17.3421 -25.011,35.941 -38.2276,56.1709l-53.4993 -35.0008c13.9016,-21.2788 27.0083,-40.1114 39.2268,-57.6709 53.2926,-76.5768 88.219,-126.769 71.4438,-223.627l63 -10.7504z"/>
  <path class="fil0" d="M1136.33 734.75c118.905,-48.4181 220.409,30.6236 327.214,113.795 95.0044,73.9808 194.805,151.697 304.186,125.045l15 62.0008c-139.208,33.9201 -251.523,-53.5394 -358.436,-136.794 -91.7788,-71.4697 -179.002,-139.39 -263.964,-104.795l-24 -59.2512z"/>
  <g id="_330006480">
   <path id="_330006456" class="fil0" d="M581.879 593.422c-8.88308,-11.4721 -15.7335,-22.9016 -20.7543,-34.1788 -5.62559,-12.6343 -8.96103,-25.0252 -10.2815,-37.0488l-6.59174 -60.0142 0 -6.2504c1.71496,-19.0004 7.5626,-38.087 16.2957,-56.243 15.3591,-31.9382 39.9721,-61.6453 66.4241,-82.7528 29.0185,-23.1543 61.8331,-36.9343 90.3887,-34.3559 6.64134,0.598819 13.0677,2.04095 19.2071,4.39134 27.4418,5.15906 36.039,26.1992 32.8843,56.0622 -3.31181,31.3418 -23.9398,78.4902 -38.0622,110.773 -3.13347,7.16339 -6.00709,13.7291 -6.77481,15.5433l-1.24961 2.74961c-2.71181,5.04685 -5.88898,9.40631 -9.48308,13.1551 6.51497,19.9677 5.88308,42.2599 -0.154725,62.5123 -3.46181,11.6138 -8.713,22.6866 -15.3827,32.2807 -7.16103,10.3016 -16.1563,19.1445 -26.6209,25.5425 -24.3744,14.9032 -53.8654,16.4197 -83.8442,-6.16654l-6 -6zm37.4953 -60.1796c2.43425,5.46969 5.73544,11.1815 9.9815,17.1201 3.83859,2.09055 6.90591,2.07638 9.11694,0.725197 2.51103,-1.53543 5.02559,-4.16811 7.37127,-7.54253 2.83701,-4.08071 5.10355,-8.89725 6.63308,-14.0303 3.79488,-12.7311 3.27756,-26.4343 -4.62992,-32.7544l18.8752 -56.7508c0.411024,-0.0141732 0.784253,-0.0307087 1.11378,-0.0496063 2.02559,-4.73741 3.48071,-8.06221 5.05276,-11.6551 10.7717,-24.6248 25.813,-59.0067 31.239,-81.7312 -10.5626,2.06811 -23.8488,9.5445 -37.4055,20.361 -19.5685,15.6142 -37.6193,37.2638 -48.6744,60.2528 -5.07402,10.5484 -8.59253,21.2032 -9.94961,31.3937l6.24567 56.8619c0.615355,5.60079 2.24528,11.5453 5.03032,17.7992z"/>
   <path id="_330005880" class="fil0" d="M474.752 566.511c2.37402,-6.73819 3.94252,-13.0961 4.78111,-19.0725 0.961418,-6.85158 0.885827,-13.0902 -0.080315,-18.7217l-9.66142 -56.2713c-4.07126,-9.27993 -10.3961,-18.5138 -18.2256,-27.3036 -17.0717,-19.1634 -40.3866,-35.0303 -63.4111,-44.602 -15.9484,-6.63071 -30.7347,-10.141 -41.4579,-9.2315 11.5217,20.387 35.4059,49.2201 52.5213,69.8788 3.05788,3.69213 5.95985,7.19528 8.10237,9.79017l1.11024 -0.269292 33.75 49.5c-5.89134,8.30434 -2.63858,21.6189 4.50355,32.7827 2.85473,4.46103 6.34961,8.44489 10.2177,11.5961 3.14528,2.56299 6.32126,4.39843 9.2752,5.21339 2.48386,0.68504 5.43662,-0.17126 8.57481,-3.28937zm68.0315 -10.3228c-1.70079,12.1158 -5.15433,25.0028 -10.5898,38.6363l-4.12559 7.50001c-22.552,29.9339 -51.3237,36.587 -78.8918,28.976 -11.7071,-3.23032 -22.7599,-9.25513 -32.524,-17.2134 -9.04371,-7.37008 -17.1532,-16.5862 -23.7177,-26.8465 -11.3823,-17.7921 -18.1512,-39.0189 -17.4331,-59.9752 -4.49174,-2.61851 -8.75198,-5.94213 -12.7583,-10.0512l-1.99961 -2.1248c-4.97126,-6.14528 -7.73268,-9.47835 -10.7752,-13.1516 -22.4847,-27.1406 -55.3205,-66.7796 -67.1127,-95.9115 -11.2973,-27.9036 -8.87953,-50.5418 16.0051,-63.0626 5.23701,-3.92599 11.074,-7.09725 17.4177,-9.55394 26.7154,-10.3441 62.0646,-6.13701 96.3768,8.12953 31.3382,13.0288 63.1902,34.7575 86.6599,61.102 13.3406,14.9752 24.2185,31.7433 31.1705,49.6961l1.7504 6.1252 10.2165 59.504c2.03268,11.8441 2.24292,24.5977 0.330709,38.2217z"/>
  </g>
  <g id="_330005760">
   <path id="_330006432" class="fil0" d="M526.623 1152.52c-7.08071,-12.6638 -12.1571,-24.9851 -15.4465,-36.8823 -3.6874,-13.3299 -5.14489,-26.0788 -4.66418,-38.165l2.39528 -60.3284 0.928347 -6.18071c4.5189,-18.5351 13.1362,-36.541 24.4689,-53.1981 19.9335,-29.3032 48.6851,-55.0241 77.98,-71.9682 32.1355,-18.587 66.6331,-27.3402 94.4883,-20.5488 6.47953,1.57795 12.6201,3.95906 18.3425,7.19528 26.3705,9.17835 31.7469,31.2614 24.1914,60.3248 -7.92993,30.502 -35.3327,74.0634 -54.0933,103.891 -4.16339,6.6189 -7.98071,12.685 -9.00946,14.3646l-1.6441 2.53347c-3.43111,4.58859 -7.22008,8.42717 -11.3315,11.6008 3.47717,20.7142 -0.459449,42.665 -9.4382,61.7953 -5.14843,10.9713 -11.9858,21.1406 -20.0067,29.6374 -8.61261,9.12402 -18.8209,16.5331 -30.1205,21.3059 -26.3173,11.1165 -55.7067,8.23583 -81.9981,-18.5528l-5.04213 -6.82441zm46.0181 -53.9422c1.59567,5.76969 4.01103,11.9091 7.32875,18.4122 3.48544,2.6374 6.52087,3.07914 8.90788,2.07166 2.71063,-1.14567 5.58898,-3.37559 8.40946,-6.36378 3.41221,-3.61418 6.36851,-8.04095 8.64331,-12.8894 5.64449,-12.026 7.16812,-25.6547 0.287008,-33.0792l27.0957 -53.3174c0.408662,0.0472441 0.779528,0.0862205 1.10906,0.115748 2.70591,-4.38307 4.63937,-7.45512 6.72756,-10.7752 14.3102,-22.7516 34.291,-54.5174 43.0323,-76.1835 -10.7528,0.475985 -25.0016,5.89607 -40.0146,14.5784 -21.6709,12.535 -42.737,31.2626 -57.0839,52.3548 -6.58465,9.67796 -11.6469,19.6914 -14.5028,29.5677l-2.27008 57.1583c-0.223229,5.63032 0.505512,11.7508 2.33032,18.3496z"/>
   <path id="_330006120" class="fil0" d="M424.682 1109.99c3.34843,-6.31063 5.8441,-12.365 7.56024,-18.15 1.9689,-6.63308 2.82047,-12.8138 2.70236,-18.5268l-1.19646 -57.0815c-2.64685,-9.7819 -7.53071,-19.8532 -13.9677,-29.7083 -14.0351,-21.4866 -34.7351,-40.6406 -56.0823,-53.5264 -14.7862,-8.9256 -28.8874,-14.5937 -39.6272,-15.287 8.36575,21.8729 27.7028,53.9339 41.5595,76.9052 2.47559,4.10551 4.82481,8.00079 6.55867,10.885l1.1374 -0.101575 26.0232 53.9646c-7.05945,7.33701 -5.82048,20.987 -0.415748,33.0874 2.16024,4.83544 5.02441,9.2941 8.38111,12.985 2.73071,3.00236 5.59843,5.28898 8.39883,6.53386 2.35394,1.04646 5.40119,0.637796 8.96812,-1.97953zm68.8099 -0.102756c-3.48189,11.7284 -8.81103,23.9599 -16.2106,36.6343l-5.19449 6.80434c-26.7484,26.2524 -56.1886,28.5579 -82.3205,16.9358 -11.0976,-4.93347 -21.1323,-12.5327 -29.6067,-21.854 -7.84843,-8.6315 -14.4992,-18.9496 -19.4669,-30.0709 -8.61261,-19.2862 -12.1536,-41.2819 -8.33032,-61.8993 -4.05355,-3.25748 -7.77284,-7.17638 -11.1236,-11.8347l-1.66181 -2.39882c-4.00394,-6.81497 -6.23977,-10.5213 -8.70237,-14.6055 -18.2043,-30.1796 -44.7874,-74.2571 -52.1221,-104.817 -7.02756,-29.2725 -1.27323,-51.3 25.1953,-59.9859 5.76142,-3.10394 12.0047,-5.37284 18.6437,-6.86103 27.9555,-6.26103 62.2867,3.15118 94.0997,22.3559 29.0551,17.5382 57.326,43.7575 76.6229,73.2957 10.9677,16.7906 19.2343,34.989 23.4425,53.7756l0.820867 6.31654 1.26496 60.3615c0.250394,12.0154 -1.43622,24.6579 -5.3504,37.8473z"/>
  </g>
  <path class="fil1" d="M399.218 461.188l8.10237 9.79017 1.11024 -0.269292 33.75 49.5c-5.89134,8.30434 -2.63858,21.6189 4.50355,32.7827 2.85473,4.46103 6.34961,8.44489 10.2177,11.5961 3.14528,2.56299 6.32126,4.39843 9.2752,5.21339 2.48386,0.68504 5.43662,-0.17126 8.57481,-3.28937 2.37402,-6.73819 3.94252,-13.0961 4.78111,-19.0725 0.961418,-6.85158 0.885827,-13.0902 -0.080315,-18.7217l-9.66142 -56.2713c-4.07126,-9.27993 -10.3961,-18.5138 -18.2256,-27.3036 -17.0717,-19.1634 -40.3866,-35.0303 -63.4111,-44.602 -15.9484,-6.63071 -30.7347,-10.141 -41.4579,-9.2315 11.5217,20.387 35.4059,49.2201 52.5213,69.8788z"/>
  <path class="fil1" d="M618.048 427.187c-5.07402,10.5484 -8.59253,21.2032 -9.94961,31.3937l6.24567 56.8619c0.615355,5.60079 2.24528,11.5453 5.03032,17.7992 2.43425,5.46969 5.73544,11.1815 9.9815,17.1201 3.83859,2.09055 6.90591,2.07638 9.11694,0.725197 2.51103,-1.53543 5.02559,-4.16811 7.37127,-7.54253 2.83701,-4.08071 5.10355,-8.89725 6.63308,-14.0303 3.79488,-12.7311 3.27756,-26.4343 -4.62992,-32.7544l18.8752 -56.7508 1.11378 -0.0496063c2.02559,-4.73741 3.48071,-8.06221 5.05276,-11.6551 10.7717,-24.6248 25.813,-59.0067 31.239,-81.7312 -10.5626,2.06811 -23.8488,9.5445 -37.4055,20.361 -19.5685,15.6142 -37.6193,37.2638 -48.6744,60.2528z"/>
  <path class="fil2" d="M644.168 941.146c-21.6709,12.535 -42.737,31.2626 -57.0839,52.3548 -6.58465,9.67796 -11.6469,19.6914 -14.5028,29.5677l-2.27008 57.1583c-0.223229,5.63032 0.505512,11.7508 2.33032,18.3496 1.59567,5.76969 4.01103,11.9091 7.32875,18.4122 3.48544,2.6374 6.52087,3.07914 8.90788,2.07166 2.71063,-1.14567 5.58898,-3.37559 8.40946,-6.36378 3.41221,-3.61418 6.36851,-8.04095 8.64331,-12.8894 5.64449,-12.026 7.16812,-25.6547 0.287008,-33.0792l27.0957 -53.3174 1.10906 0.115748c2.70591,-4.38307 4.63937,-7.45512 6.72756,-10.7752 14.3102,-22.7516 34.291,-54.5174 43.0323,-76.1835 -10.7528,0.475985 -25.0016,5.89607 -40.0146,14.5784z"/>
  <path class="fil2" d="M434.945 1073.32l-1.19646 -57.0815c-2.64685,-9.7819 -7.53071,-19.8532 -13.9677,-29.7083 -14.0351,-21.4866 -34.7351,-40.6406 -56.0823,-53.5264 -14.7862,-8.9256 -28.8874,-14.5937 -39.6272,-15.287 8.36575,21.8729 27.7028,53.9339 41.5595,76.9052l6.55867 10.885 1.1374 -0.101575 26.0232 53.9646c-7.05945,7.33701 -5.82048,20.987 -0.415748,33.0874 2.16024,4.83544 5.02441,9.2941 8.38111,12.985 2.73071,3.00236 5.59843,5.28898 8.39883,6.53386 2.35394,1.04646 5.40119,0.637796 8.96812,-1.97953 3.34843,-6.31063 5.8441,-12.365 7.56024,-18.15 1.9689,-6.63308 2.82047,-12.8138 2.70236,-18.5268z"/>
  <path class="fil3" d="M839.976 727.395c-20.2229,61.1646 -22.252,122.584 -9.18426,172.434 9.27639,35.3882 26.0481,64.4422 49.0028,82.1705 0.582284,0.409843 1.14685,0.836221 1.6937,1.27913 6.32481,4.6689 13.1032,8.49213 20.3114,11.3681 0.559843,0.223229 2.22284,0.79252 4.98426,1.70433 31.0677,10.2721 65.9256,1.64291 98.1438,-21.137 35.6055,-25.1752 67.5154,-66.8516 88.6241,-119.757 2.1378,-5.35748 4.50591,-11.9504 7.10434,-19.8118 20.2229,-61.1646 22.252,-122.583 9.18426,-172.434 -11.948,-45.5729 -36.3225,-80.641 -70.3288,-94.5438 -0.376772,-0.13937 -0.748819,-0.285827 -1.1185,-0.438189 -0.791339,-0.287008 -2.30315,-0.799607 -4.54607,-1.54016 -31.0666,-10.2721 -65.9256,-1.64291 -98.1438,21.137 -35.6067,25.174 -67.5142,66.8504 -88.6229,119.754 -2.13543,5.35276 -4.50473,11.9516 -7.10434,19.8142z"/>
  <path class="fil3" d="M1171.59 647.213c6.11339,23.3185 9.5882,48.5374 10.2165,74.856 32.7425,-4.96536 64.3075,-0.861024 95.2241,9.45119 4.05827,-46.5048 2.10709,-93.8398 -6.0626,-142.031 -42.1642,-13.9169 -87.6544,-22.2685 -136.831,-23.3988 16.7835,22.8614 29.4083,50.4402 37.4528,81.1229z"/>
  <path class="fil3" d="M1339.44 618.172c5.12835,47.8418 4.68426,94.9914 -1.15984,141.469 30.3591,17.3705 60.4193,39.0555 90.7123,62.1709 11.3268,-46.4315 15.4252,-93.1642 9.31536,-138.665 -9.44056,-7.65001 -19.0973,-15.0425 -28.9772,-22.141 -22.0902,-15.8705 -45.3567,-30.2918 -69.8906,-42.8339z"/>
  <path class="fil3" d="M1504.61 744.162c-1.71496,38.7922 -8.78032,77.7095 -19.9134,116.14 -0.367323,1.26969 -0.739371,2.53819 -1.11614,3.80551 20.8465,16.115 41.9374,32.0469 63.3201,46.6796 11.6882,-31.4433 15.9484,-65.2312 9.59528,-108.346 -16.4209,-19.9382 -33.6922,-39.4914 -51.8859,-58.2792z"/>
  <path class="fil3" d="M1702.52 963.652c-24.6095,-13.748 -48.3744,-27.0236 -60.7418,-45.4418 -6.90945,-10.2898 -14.0067,-20.6705 -21.3012,-31.0902 -3.44764,20.6504 -9.41339,39.6083 -17.4213,57.9839 40.7174,21.4488 82.5934,35.0847 125.943,33.7512 -7.84253,-4.79174 -17.2488,-10.0465 -26.4792,-15.2032z"/>
  <path class="fil3" d="M1655.5 1034.69c-28.7398,-7.27442 -56.4083,-18.8847 -83.2749,-33.2681 -10.7965,16.9217 -22.9087,34.3264 -35.9634,53.0847 -1.41851,2.03977 -2.85,4.09607 -4.29213,6.17008 29.6729,-1.27205 59.2855,-5.87481 88.9205,-15.0414 12.652,-3.913 24.1606,-7.55552 34.6099,-10.9453z"/>
  <path class="fil3" d="M1483.76 1018.01c12.3638,-17.765 23.7378,-34.1103 33.7087,-49.9465 -19.0689,-12.8776 -37.8012,-26.6752 -56.3056,-40.7681 -17.1815,41.8016 -38.4248,82.4505 -61.9193,121.095 19.1799,3.76181 38.2855,6.913 57.3402,9.13111 9.47953,-14.0811 18.5492,-27.1134 27.176,-39.5114z"/>
  <path class="fil3" d="M1333.16 1033.57c29.7378,-46.5768 56.2099,-96.2304 75.4973,-146.942 -27.9709,-21.6803 -55.5248,-42.4973 -82.7304,-59.6044 -15.3095,63.4288 -40.7551,125.347 -75.8764,185.818 14.7673,3.59528 29.4508,7.29686 44.0752,10.9843 13.0595,3.29292 26.0693,6.57284 39.0343,9.7441z"/>
  <path class="fil3" d="M1184.37 998.091c38.6835,-62.667 65.8418,-126.614 80.8536,-191.906 0.720473,-3.13465 1.41378,-6.27284 2.07874,-9.41576 -30.2811,-11.5878 -60.176,-15.7654 -89.778,-8.39174 -3.36614,22.2744 -8.70237,44.8382 -16.1185,67.2686 -2.26181,6.84095 -5.14252,14.6351 -8.60434,23.3103 -16.2827,40.8083 -38.191,76.4316 -63.4749,105.202 32.3457,2.70827 63.9532,7.71024 95.0434,13.9323z"/>
 </g>
 <rect class="fil4" width="2048" height="2048"/>
</svg>
